<svg width="52" height="52" viewBox="0 0 52 52" fill="none" xmlns="http://www.w3.org/2000/svg">
<path fill-rule="evenodd" clip-rule="evenodd" d="M26 51C39.8071 51 51 39.8071 51 26C51 12.1929 39.8071 1 26 1C12.1929 1 1 12.1929 1 26C1 39.8071 12.1929 51 26 51Z" fill="black" stroke="black" stroke-width="2"/>
<path fill-rule="evenodd" clip-rule="evenodd" d="M23.5287 36L23.5 27.25H19.75V23.5H23.5V21C23.5 17.626 25.5894 16 28.5992 16C30.041 16 31.2801 16.1073 31.6412 16.1553V19.6813L29.5537 19.6823C27.9168 19.6823 27.5998 20.4601 27.5998 21.6016V23.5H32.25L31 27.25H27.5998V36H23.5287Z" fill="white"/>
</svg>
