<svg width="52" height="52" viewBox="0 0 52 52" fill="none" xmlns="http://www.w3.org/2000/svg">
<path fill-rule="evenodd" clip-rule="evenodd" d="M26 51C39.8071 51 51 39.8071 51 26C51 12.1929 39.8071 1 26 1C12.1929 1 1 12.1929 1 26C1 39.8071 12.1929 51 26 51Z" fill="black" stroke="black" stroke-width="2"/>
<path fill-rule="evenodd" clip-rule="evenodd" d="M25.875 24.75V27.75H31C30.75 29 29.5 31.5 26 31.5C23 31.5 20.625 29 20.625 26C20.625 23 23.125 20.5 26 20.5C27.75 20.5 28.875 21.25 29.5 21.875L31.875 19.625C30.375 18.125 28.375 17.25 26 17.25C21.125 17.25 17.25 21.125 17.25 26C17.25 30.875 21.125 34.75 26 34.75C31 34.75 34.375 31.25 34.375 26.25C34.375 25.625 34.375 25.25 34.25 24.75H25.875Z" fill="white"/>
</svg>
