<svg width="52" height="52" viewBox="0 0 52 52" fill="none" xmlns="http://www.w3.org/2000/svg">
<path fill-rule="evenodd" clip-rule="evenodd" d="M51 25.9999C51 39.8071 39.8072 51 26 51C12.1928 51 1 39.8071 1 25.9999C1 12.1929 12.1928 1 26 1C39.8072 1 51 12.1929 51 25.9999Z" fill="black" stroke="black" stroke-width="2"/>
<path fill-rule="evenodd" clip-rule="evenodd" d="M35.125 16H16.875C16.375 16 16 16.375 16 16.875V35.25C16 35.625 16.375 36 16.875 36H35.25C35.75 36 36.125 35.625 36.125 35.125V16.875C36 16.375 35.625 16 35.125 16ZM21.875 33H19V23.5H22V33H21.875ZM20.5 22.25C19.5 22.25 18.75 21.375 18.75 20.5C18.75 19.5 19.5 18.75 20.5 18.75C21.5 18.75 22.25 19.5 22.25 20.5C22.125 21.375 21.375 22.25 20.5 22.25ZM33 33H30V28.375C30 27.25 30 25.875 28.5 25.875C27 25.875 26.75 27.125 26.75 28.375V33.125H23.75V23.5H26.625V24.75C27 24 28 23.25 29.375 23.25C32.375 23.25 32.875 25.25 32.875 27.75V33H33Z" fill="white"/>
</svg>
