<svg width="75" height="75" viewBox="0 0 75 75" fill="none" xmlns="http://www.w3.org/2000/svg">
<path fill-rule="evenodd" clip-rule="evenodd" d="M41.1808 53.4261C39.0367 51.4731 35.6487 51.5344 33.5717 53.5586C32.0986 54.9942 31.5985 57.0401 32.0659 58.8925C32.4185 60.289 32.0776 61.7672 31.0595 62.7857L30.7861 63.0594C29.7676 64.0776 28.289 64.418 26.8926 64.0658C25.0397 63.5984 22.9943 64.0985 21.5589 65.5716C19.5344 67.6486 19.4731 71.0362 21.4258 73.1807C23.5751 75.5402 27.2327 75.6048 29.4638 73.3733C30.9351 71.9021 31.4047 69.8126 30.8782 67.9432C30.5044 66.6158 30.9311 65.1904 31.9059 64.2152L32.2141 63.9066C33.1894 62.931 34.6155 62.5039 35.943 62.8782C37.8123 63.4047 39.9022 62.935 41.3735 61.4638C43.6046 59.2327 43.5404 55.575 41.1808 53.4261Z" fill="black"/>
<path fill-rule="evenodd" clip-rule="evenodd" d="M48.9431 11.878C50.8124 12.4049 52.9023 11.9349 54.3732 10.464C56.6046 8.23254 56.5404 4.5753 54.1809 2.42601C52.0364 0.473017 48.6481 0.534289 46.571 2.5592C45.0979 3.99524 44.5979 6.04143 45.066 7.89463C45.419 9.29031 45.0781 10.7689 44.0593 11.786L43.7852 12.0597C42.7663 13.0774 41.2877 13.4175 39.8909 13.0653C38.0384 12.5986 35.9933 13.0991 34.558 14.5718C32.5342 16.6492 32.4733 20.0364 34.4263 22.1809C36.5753 24.5404 40.2325 24.6046 42.4636 22.3732C43.9352 20.9023 44.4049 18.8124 43.878 16.9434C43.5038 15.6156 43.9308 14.1895 44.9064 13.2147L45.215 12.9061C46.1902 11.9312 47.6156 11.5038 48.9431 11.878Z" fill="black"/>
<path fill-rule="evenodd" clip-rule="evenodd" d="M53.2072 56.0294C54.8743 55.1093 56 53.3669 56 51.3647C56 48.3137 53.39 45.8582 50.2291 46.0064C47.3869 46.1393 45.073 48.4527 45.0018 51.2275C44.9502 53.2507 46.0479 55.0243 47.7023 55.978C48.917 56.6788 49.703 57.9125 49.703 59.2892V59.6436C49.703 61.0872 48.9174 62.321 47.7023 63.0217C46 64.0032 44.8874 65.8522 45.0091 67.9473C45.1664 70.6534 47.4556 72.8647 50.2309 72.9937C53.3911 73.1405 56 70.6853 56 67.635C56 65.6328 54.8743 63.8904 53.2072 62.9703C52.0114 62.3107 51.2967 61.0504 51.2967 59.7106V59.2892C51.2967 57.9491 52.0114 56.689 53.2072 56.0294Z" fill="black"/>
<path fill-rule="evenodd" clip-rule="evenodd" d="M21.7023 19.0214C20.0475 19.9756 18.9498 21.7495 19.0018 23.7726C19.073 26.547 21.3869 28.8608 24.2291 28.9937C27.39 29.1415 30 26.6856 30 23.6354C30 21.6329 28.8743 19.8902 27.2068 18.9704C26.0114 18.3108 25.2966 17.0505 25.2966 15.7107V15.2893C25.2966 13.9492 26.0114 12.6896 27.2068 12.0296C28.8743 11.1099 30 9.36715 30 7.36498C30 4.31441 27.3896 1.85822 24.2287 2.00637C21.3865 2.13963 19.0726 4.45299 19.0018 7.22817C18.9502 9.2509 20.0475 11.0245 21.7023 11.9782C22.917 12.6786 23.7029 13.9131 23.7029 15.29V15.7104C23.7029 17.087 22.9174 18.3211 21.7023 19.0214Z" fill="black"/>
<path fill-rule="evenodd" clip-rule="evenodd" d="M67.9432 45.122C66.6158 45.4959 65.1904 45.0688 64.2151 44.0936L63.9066 43.7854C62.9314 42.8102 62.5043 41.3845 62.8782 40.057C63.405 38.1881 62.9354 36.0979 61.4638 34.627C59.2326 32.3951 55.5754 32.4597 53.4261 34.8192C51.4731 36.9637 51.5344 40.3513 53.5586 42.4283C54.9939 43.9014 57.0393 44.4014 58.8922 43.9344C60.2886 43.5822 61.7672 43.9223 62.7857 44.9408L63.0594 45.2141C64.0779 46.2319 64.4188 47.7105 64.0662 49.1065C63.5984 50.9597 64.0985 53.0059 65.5716 54.4412C67.6489 56.4657 71.0369 56.527 73.181 54.5736C75.5406 52.4244 75.6044 48.7675 73.3733 46.536C71.902 45.0652 69.8125 44.5952 67.9432 45.122Z" fill="black"/>
<path fill-rule="evenodd" clip-rule="evenodd" d="M7.89441 30.9336C9.29009 30.581 10.7683 30.9219 11.7857 31.9404L12.0594 32.2145C13.0772 33.2337 13.4173 34.7123 13.0655 36.1087C12.5984 37.9616 13.0992 40.0067 14.572 41.442C16.6493 43.4658 20.0369 43.5267 22.181 41.5737C24.5406 39.4247 24.6044 35.7675 22.3733 33.536C20.902 32.0648 18.8126 31.5951 16.9432 32.1216C15.6154 32.4959 14.1893 32.0688 13.2141 31.0932L12.9059 30.7846C11.931 29.8098 11.504 28.3844 11.8782 27.0573C12.4051 25.188 11.9351 23.0981 10.4638 21.6265C8.23269 19.3954 4.57472 19.4596 2.4258 21.8195C0.472797 23.9647 0.534436 27.3527 2.55971 29.4297C3.99575 30.9021 6.04157 31.4018 7.89441 30.9336Z" fill="black"/>
<path fill-rule="evenodd" clip-rule="evenodd" d="M46.0064 24.7715C46.1396 27.6132 48.453 29.927 51.2279 29.9983C53.2506 30.0495 55.0242 28.9525 55.9784 27.2975C56.6791 26.0828 57.9132 25.2969 59.2898 25.2969H59.7102C61.0868 25.2969 62.3213 26.0828 63.0217 27.2975C63.9878 28.9732 65.7948 30.0778 67.8498 29.9957C70.5789 29.8863 72.821 27.6441 72.9894 24.8499C73.1826 21.6539 70.7111 19 67.6353 19C65.6331 19 63.8904 20.1257 62.971 21.7927C62.311 22.9889 61.051 23.7036 59.7109 23.7036H59.2891C57.9494 23.7036 56.6894 22.9889 56.0294 21.7931C55.1096 20.126 53.3672 19 51.3651 19C48.3141 19 45.8582 21.6107 46.0064 24.7715Z" fill="black"/>
<path fill-rule="evenodd" clip-rule="evenodd" d="M23.7725 55.9982C26.547 55.9274 28.8607 53.6135 28.9936 50.7713C29.1418 47.6104 26.6859 45 23.6353 45C21.6331 45 19.8904 46.1261 18.9706 47.7932C18.3106 48.989 17.051 49.7034 15.7109 49.7034H15.2895C13.9493 49.7034 12.6893 48.989 12.0297 47.7932C11.11 46.1261 9.36722 45 7.36467 45C4.31406 45 1.85854 47.6104 2.00634 50.7709C2.13925 53.6135 4.453 55.9274 7.2275 55.9982C9.25026 56.0502 11.0242 54.9528 11.9783 53.2981C12.6787 52.0834 13.9132 51.2971 15.2898 51.2971H15.7105C17.0871 51.2971 18.3213 52.083 19.022 53.2977C19.9758 54.9525 21.7497 56.0502 23.7725 55.9982Z" fill="black"/>
<path fill-rule="evenodd" clip-rule="evenodd" d="M37.1923 68.0665C34.7272 67.5938 32.6012 69.711 33.0637 72.1778C33.3219 73.5557 34.4303 74.6693 35.807 74.9334C38.2721 75.4065 40.3991 73.2889 39.9363 70.8215C39.6777 69.4435 38.5693 68.3306 37.1923 68.0665Z" fill="black"/>
<path fill-rule="evenodd" clip-rule="evenodd" d="M36.8076 6.93348C39.2725 7.40624 41.399 5.28862 40.9363 2.82151C40.6777 1.4435 39.5693 0.330288 38.1924 0.0665328C35.7275 -0.40623 33.601 1.71105 34.0637 4.1785C34.3223 5.55651 35.4307 6.66938 36.8076 6.93348Z" fill="black"/>
<path fill-rule="evenodd" clip-rule="evenodd" d="M63.4503 58.5953C62.2934 57.8046 60.7223 57.8012 59.562 58.5874C57.4847 59.9934 57.4782 62.9897 59.5496 64.4046C60.7068 65.1953 62.2776 65.1987 63.4379 64.4132C65.5155 63.0069 65.5217 60.0106 63.4503 58.5953Z" fill="black"/>
<path fill-rule="evenodd" clip-rule="evenodd" d="M11.5498 16.4047C12.7071 17.1954 14.2778 17.1988 15.4382 16.4126C17.5154 15.0065 17.5216 12.0105 15.4506 10.5954C14.2937 9.80474 12.7226 9.8013 11.5622 10.5865C9.48461 11.9933 9.47807 14.9897 11.5498 16.4047Z" fill="black"/>
<path fill-rule="evenodd" clip-rule="evenodd" d="M72.1934 34.0667C69.7278 33.5932 67.601 35.7112 68.0637 38.1786C68.3223 39.5566 69.431 40.6698 70.8079 40.9335C73.2725 41.406 75.3982 39.2894 74.9365 36.8227C74.6786 35.4447 73.5703 34.3311 72.1934 34.0667Z" fill="black"/>
<path fill-rule="evenodd" clip-rule="evenodd" d="M4.04474 39.926C5.37874 39.676 6.4564 38.603 6.71207 37.2703C7.17007 34.8843 5.12074 32.8256 2.73274 33.2723C1.39874 33.5223 0.321071 34.595 0.0647372 35.928C-0.394263 38.3146 1.65607 40.374 4.04474 39.926Z" fill="black"/>
<path fill-rule="evenodd" clip-rule="evenodd" d="M59.5498 16.4046C60.7067 17.1953 62.2778 17.1988 63.4382 16.4129C65.5154 15.0068 65.5216 12.0108 63.4506 10.5954C62.2937 9.80474 60.7229 9.8013 59.5625 10.5865C57.4846 11.9933 57.478 14.9896 59.5498 16.4046Z" fill="black"/>
<path fill-rule="evenodd" clip-rule="evenodd" d="M15.4503 58.5953C14.2934 57.8046 12.7223 57.8012 11.5619 58.5874C9.48465 59.9934 9.47811 62.9901 11.5499 64.4048C12.7071 65.1955 14.2782 65.1986 15.4382 64.413C17.5155 63.0063 17.5217 60.0103 15.4503 58.5953Z" fill="black"/>
</svg>
