<svg width="33" height="36" viewBox="0 0 33 36" fill="none" xmlns="http://www.w3.org/2000/svg">
<path fill-rule="evenodd" clip-rule="evenodd" d="M14.9258 1.38745C14.9258 0.621185 15.547 0 16.3132 0V0C17.0795 0 17.7007 0.621183 17.7007 1.38745V33.6396C17.7007 34.4058 17.0795 35.027 16.3132 35.027V35.027C15.547 35.027 14.9258 34.4058 14.9258 33.6396V1.38745Z" fill="black"/>
<path fill-rule="evenodd" clip-rule="evenodd" d="M31.0254 16C31.8538 16 32.5254 16.6716 32.5254 17.5V17.5C32.5254 18.3284 31.8538 19 31.0254 19L1.62537 19C0.796939 19 0.125367 18.3284 0.125367 17.5V17.5C0.125367 16.6716 0.79694 16 1.62537 16L31.0254 16Z" fill="black"/>
</svg>
