<svg width="52" height="52" viewBox="0 0 52 52" fill="none" xmlns="http://www.w3.org/2000/svg">
<path fill-rule="evenodd" clip-rule="evenodd" d="M51 25.9999C51 39.8071 39.8072 51 26 51C12.1928 51 1 39.8071 1 25.9999C1 12.1929 12.1928 1 26 1C39.8072 1 51 12.1929 51 25.9999Z" fill="black" stroke="black" stroke-width="2"/>
<path fill-rule="evenodd" clip-rule="evenodd" d="M36 20.375C35.25 20.75 34.5 20.875 33.625 21C34.5 20.5 35.125 19.75 35.375 18.75C34.625 19.25 33.75 19.5 32.75 19.75C32 19 30.875 18.5 29.75 18.5C27.625 18.5 25.75 20.375 25.75 22.625C25.75 23 25.75 23.25 25.875 23.5C22.5 23.375 19.375 21.75 17.375 19.25C17 19.875 16.875 20.5 16.875 21.375C16.875 22.75 17.625 24 18.75 24.75C18.125 24.75 17.5 24.5 16.875 24.25C16.875 26.25 18.25 27.875 20.125 28.25C19.75 28.375 19.375 28.375 19 28.375C18.75 28.375 18.5 28.375 18.25 28.25C18.75 29.875 20.25 31.125 22.125 31.125C20.75 32.25 19 32.875 17 32.875C16.625 32.875 16.375 32.875 16 32.875C17.875 34 20 34.75 22.25 34.75C29.75 34.75 33.875 28.5 33.875 23.125C33.875 23 33.875 22.75 33.875 22.625C34.75 22 35.5 21.25 36 20.375Z" fill="white"/>
</svg>
