<svg width="29" height="29" viewBox="0 0 29 29" fill="none" xmlns="http://www.w3.org/2000/svg">
<mask id="mask0" mask-type="alpha" maskUnits="userSpaceOnUse" x="0" y="0" width="29" height="29">
<path fill-rule="evenodd" clip-rule="evenodd" d="M0.0186768 0.0123291H28.9878V28.6918H0.0186768V0.0123291Z" fill="white"/>
</mask>
<g mask="url(#mask0)">
<path fill-rule="evenodd" clip-rule="evenodd" d="M14.4938 28.6918C22.4759 28.6918 28.9878 22.2745 28.9878 14.3519C28.9878 6.42966 22.4759 0.0123291 14.4938 0.0123291C6.51066 0.0123291 0 6.45372 0 14.3519C0 22.2492 6.51066 28.6918 14.4938 28.6918ZM14.4938 2.03586C21.354 2.03586 26.9413 7.56468 26.9413 14.3519C26.9413 21.1391 21.354 26.667 14.4938 26.667C7.63356 26.667 2.04529 21.1391 2.04529 14.3519C2.04529 7.56468 7.63356 2.03586 14.4938 2.03586Z" fill="#191166"/>
</g>
<path fill-rule="evenodd" clip-rule="evenodd" d="M11.3126 21.7046C11.5194 21.9013 11.7799 22 12.0657 22C12.3261 22 12.6132 21.9013 12.82 21.7046L19.6879 15.2126C19.896 15.0168 20 14.7706 20 14.4992C20 14.229 19.896 13.9831 19.6879 13.7873L12.82 7.29531C12.4048 6.90156 11.7278 6.90156 11.3126 7.29531C10.8958 7.68782 10.8958 8.32777 11.3126 8.72152L17.4245 14.4992L11.3126 20.2781C10.8958 20.6718 10.8958 21.3106 11.3126 21.7046Z" fill="#191166"/>
</svg>
