<svg width="18" height="11" viewBox="0 0 18 11" fill="none" xmlns="http://www.w3.org/2000/svg">
<mask id="mask0" mask-type="alpha" maskUnits="userSpaceOnUse" x="0" y="0" width="18" height="11">
<path fill-rule="evenodd" clip-rule="evenodd" d="M0 0H18V11H0V0Z" fill="white"/>
</mask>
<g mask="url(#mask0)">
<path fill-rule="evenodd" clip-rule="evenodd" d="M17.9876 0.926084C17.9869 0.415045 17.5734 0 17.0656 0H17.0644L0.920792 0.0222748C0.674477 0.0226284 0.44306 0.119506 0.269167 0.294876C0.0952749 0.47029 -0.000350598 0.703203 9.65945e-07 0.950922L0.0125254 10.074C0.012877 10.3215 0.108986 10.5544 0.283406 10.7293C0.457474 10.9038 0.688539 11 0.934546 11H0.935733L17.0792 10.9775C17.5875 10.9769 18.0007 10.5605 18 10.0491L17.9876 0.926084ZM16 1L9.0068 6L2 1.01981L16 1ZM11.9539 6.61344L16.0963 9.97971L1.89156 10L6.05916 6.61344C6.25827 6.4515 6.29466 6.15096 6.14011 5.94217C5.98556 5.73339 5.69874 5.69544 5.4995 5.85721L1.01123 9.50458L1 1.0228L8.74158 6.6289C8.81979 6.68559 8.91041 6.71373 9.0012 6.71373C9.09233 6.71373 9.18347 6.68523 9.26181 6.62822L16.9883 1L17 9.50335L12.5134 5.85734C12.3144 5.69544 12.0275 5.73339 11.873 5.94217C11.7185 6.15096 11.7547 6.4515 11.9539 6.61344Z" fill="#fff"/>
</g>
</svg>
