<?xml version="1.0" encoding="UTF-8"?>
<svg width="153px" height="151px" viewBox="0 0 153 151" version="1.1" xmlns="http://www.w3.org/2000/svg" xmlns:xlink="http://www.w3.org/1999/xlink">
    <!-- Generator: Sketch 49.1 (51147) - http://www.bohemiancoding.com/sketch -->
    <title>Group 2</title>
    <desc>Created with Sketch.</desc>
    <defs>
        <ellipse id="path-1" cx="53.5" cy="52.5" rx="53.5" ry="52.5"></ellipse>
        <filter x="-39.3%" y="-28.6%" width="178.5%" height="180.0%" filterUnits="objectBoundingBox" id="filter-2">
            <feOffset dx="0" dy="12" in="SourceAlpha" result="shadowOffsetOuter1"></feOffset>
            <feGaussianBlur stdDeviation="12" in="shadowOffsetOuter1" result="shadowBlurOuter1"></feGaussianBlur>
            <feColorMatrix values="0 0 0 0 0.776838861   0 0 0 0 0.776838861   0 0 0 0 0.776838861  0 0 0 0.5 0" type="matrix" in="shadowBlurOuter1"></feColorMatrix>
        </filter>
    </defs>
    <g id="Desktop" stroke="none" stroke-width="1" fill="none" fill-rule="evenodd">
        <g id="About-us" transform="translate(-1065.000000, -929.000000)">
            <g id="Group-2" transform="translate(1088.000000, 940.000000)">
                <g id="Group-10-Copy">
                    <g id="Oval-2">
                        <use fill="black" fill-opacity="1" filter="url(#filter-2)" xlink:href="#path-1"></use>
                        <use fill="#FFFFFF" fill-rule="evenodd" xlink:href="#path-1"></use>
                    </g>
                </g>
                <path d="M40.7967995,54 C35.9464977,54 32,57.9461811 32,62.796896 C32,63.4612099 32.5390338,64 33.2032005,64 C33.8675677,64 34.406401,63.4612099 34.406401,62.796896 C34.406401,59.2730044 37.2734273,56.406208 40.7967995,56.406208 C41.4619688,56.406208 42,55.86822 42,55.203104 C42,54.5389906 41.4619688,54 40.7967995,54 Z" id="Fill-1" fill="#FFBC00"></path>
                <path d="M51.9319808,68.477358 C52.8061266,66.6470065 53.2708031,64.622253 53.2708031,62.522992 C53.2708031,58.9112912 51.9046698,55.5152802 49.4234691,52.9609417 C46.9430486,50.4066032 43.6442747,49 40.1350114,49 C36.6267234,49 33.3279496,50.4066032 30.8475291,52.9609417 C28.3663283,55.5144769 27,58.9104878 27,62.522992 C27,66.1348937 28.3663283,69.5309046 30.8475291,72.0844398 C33.3279496,74.6385774 36.6267234,76.0451807 40.1350114,76.0451807 C43.6442747,76.0451807 46.9422683,74.6385774 49.4234691,72.0844398 C49.8799523,71.6153043 50.2974198,71.1162453 50.6770422,70.5938902 L58.1081594,78.2442534 C58.463397,78.6097614 58.6590605,79.0953649 58.6590605,79.6122976 C58.6590605,80.1292303 58.463397,80.6148338 58.1073791,80.9811451 L58.0648521,81.0251265 C57.3317478,81.7798403 56.1392343,81.7798403 55.4069104,81.0251265 L50.4735755,75.9471764 C50.0170923,75.4772375 49.2755997,75.4772375 48.8183362,75.9471764 C48.3610727,76.4179185 48.3610727,77.1812679 48.8183362,77.6518092 L53.7508908,82.7299602 C54.5739261,83.5762517 55.6544647,84 56.7357837,84 C57.8163223,84 58.8976413,83.5762517 59.7206766,82.7291569 L59.7633987,82.6851754 C60.5604886,81.8645899 61,80.7732875 61,79.6122976 C61,78.452111 60.5610738,77.3608086 59.764179,76.5402231 L51.9319808,68.477358 Z M47.7682298,70.3804095 C45.7290764,72.4790679 43.0186587,73.635238 40.1350114,73.635238 C37.2523395,73.635238 34.5419218,72.4796704 32.5025733,70.3804095 C30.4642003,68.2819518 29.3409395,65.4908365 29.3409395,62.522992 C29.3409395,59.554545 30.4642003,56.764233 32.5025733,54.6647712 C34.5419218,52.5663136 37.2523395,51.4099427 40.1350114,51.4099427 C43.0186587,51.4099427 45.7290764,52.5663136 47.7682298,54.6647712 C49.8067979,56.764233 50.9298636,59.554545 50.9298636,62.522992 C50.9298636,65.4908365 49.8067979,68.2819518 47.7682298,70.3804095 Z" id="Fill-2" fill="#191166"></path>
                <path d="M73.8387097,26 L37.1612903,26 C36.5200645,26 36,26.5467345 36,27.2208437 L36,47.3647643 C36,48.03867 36.5200645,48.5856079 37.1612903,48.5856079 C37.8023226,48.5856079 38.3225806,48.03867 38.3225806,47.3647643 L38.3225806,28.4416873 L72.6774194,28.4416873 L72.6774194,64.5583127 L56.5167097,64.5583127 C55.8756774,64.5583127 55.3554194,65.1050471 55.3554194,65.7791563 C55.3554194,66.453062 55.8756774,67 56.5167097,67 L73.8387097,67 C74.4797419,67 75,66.453062 75,65.7791563 L75,27.2208437 C75,26.5467345 74.4797419,26 73.8387097,26 Z" id="Fill-3" fill="#191166"></path>
                <path d="M47.6002637,31 L42.1868132,31 C41.5316923,31 41,31.561022 41,32.2527473 L41,37.9667363 C41,38.6590879 41.5316923,39.2194835 42.1868132,39.2194835 L46.4134505,39.2194835 L46.4134505,48.7472527 C46.4134505,49.4387692 46.9449451,50 47.6002637,50 L57.8131868,50 C58.4685055,50 59,49.4387692 59,48.7472527 L59,37.9667363 C59,37.275011 58.4685055,36.713989 57.8131868,36.713989 L48.7870769,36.713989 L48.7870769,32.2527473 C48.7870769,31.561022 48.2553846,31 47.6002637,31 Z M43.3736264,36.713989 L46.4134505,36.713989 L46.4134505,33.5054945 L43.3736264,33.5054945 L43.3736264,36.713989 Z M48.7870769,47.4945055 L56.6263736,47.4945055 L56.6263736,39.2194835 L48.7870769,39.2194835 L48.7870769,47.4945055 Z" id="Fill-4" fill="#FFBC00"></path>
                <path d="M59.8919067,53.0163295 L56.2229767,53.0163295 C55.5478936,53.0163295 55,53.5375829 55,54.1802746 L55,58.8360549 C55,59.4785526 55.5478936,60 56.2229767,60 L61.1148834,60 C61.7901703,60 62.33786,59.4785526 62.33786,58.8360549 L62.33786,55.3442196 L69.7770233,55.3442196 C70.4529218,55.3442196 71,54.8227722 71,54.1802746 L71,44.1639451 C71,43.5212534 70.4529218,43 69.7770233,43 L61.1148834,43 C60.4398002,43 59.8919067,43.5212534 59.8919067,44.1639451 L59.8919067,53.0163295 Z M57.4459533,57.6721098 L59.8919067,57.6721098 L59.8919067,55.3442196 L57.4459533,55.3442196 L57.4459533,57.6721098 Z M62.33786,53.0163295 L68.5540467,53.0163295 L68.5540467,45.3278902 L62.33786,45.3278902 L62.33786,53.0163295 Z" id="Fill-5" fill="#191166"></path>
                <path d="M61.2110758,41 L69.7889242,41 C70.4582454,41 71,40.4360997 71,39.7412939 L71,32.2587061 C71,31.5636905 70.4582454,31 69.7889242,31 L61.2110758,31 C60.542562,31 60,31.5636905 60,32.2587061 L60,39.7412939 C60,40.4360997 60.542562,41 61.2110758,41 Z M62.4221517,38.4825879 L68.5778483,38.4825879 L68.5778483,33.5174121 L62.4221517,33.5174121 L62.4221517,38.4825879 Z" id="Fill-6" fill="#FFBC00"></path>
            </g>
        </g>
    </g>
</svg>