<?xml version="1.0" encoding="UTF-8"?>
<svg width="153px" height="151px" viewBox="0 0 153 151" version="1.1" xmlns="http://www.w3.org/2000/svg" xmlns:xlink="http://www.w3.org/1999/xlink">
    <!-- Generator: Sketch 49.1 (51147) - http://www.bohemiancoding.com/sketch -->
    <title>Group 11</title>
    <desc>Created with Sketch.</desc>
    <defs>
        <ellipse id="path-1" cx="53.5" cy="52.5" rx="53.5" ry="52.5"></ellipse>
        <filter x="-39.3%" y="-28.6%" width="178.5%" height="180.0%" filterUnits="objectBoundingBox" id="filter-2">
            <feOffset dx="0" dy="12" in="SourceAlpha" result="shadowOffsetOuter1"></feOffset>
            <feGaussianBlur stdDeviation="12" in="shadowOffsetOuter1" result="shadowBlurOuter1"></feGaussianBlur>
            <feColorMatrix values="0 0 0 0 0.776838861   0 0 0 0 0.776838861   0 0 0 0 0.776838861  0 0 0 0.5 0" type="matrix" in="shadowBlurOuter1"></feColorMatrix>
        </filter>
        <polygon id="path-3" points="0.0180508475 0.038278481 70.9623941 0.038278481 70.9623941 71.6965063 0.0180508475 71.6965063"></polygon>
    </defs>
    <g id="Desktop" stroke="none" stroke-width="1" fill="none" fill-rule="evenodd">
        <g id="About-us" transform="translate(-225.000000, -931.000000)">
            <g id="Group-11" transform="translate(248.000000, 942.000000)">
                <g id="Group-10">
                    <g id="Oval-2">
                        <use fill="black" fill-opacity="1" filter="url(#filter-2)" xlink:href="#path-1"></use>
                        <use fill="#FFFFFF" fill-rule="evenodd" xlink:href="#path-1"></use>
                    </g>
                </g>
                <g id="003-refresh-button" transform="translate(18.000000, 16.000000)">
                    <g id="Group-3">
                        <mask id="mask-4" fill="white">
                            <use xlink:href="#path-3"></use>
                        </mask>
                        <g id="Clip-2"></g>
                        <path d="M35.4813475,0.038278481 C34.6831992,0.038278481 34.0369788,0.690835443 34.0369788,1.49650633 C34.0369788,2.30126582 34.6831992,2.95503797 35.4813475,2.95503797 C53.4521695,2.95503797 68.0736568,17.7189873 68.0736568,35.8672405 C68.0736568,54.0142785 53.4521695,68.779443 35.4813475,68.779443 C17.5090212,68.779443 2.88873729,54.0154937 2.88873729,35.8672405 C2.88873729,23.5196962 9.63764831,12.3159494 20.50125,6.62794937 C21.2097458,6.25762025 21.4859237,5.37721519 21.1191907,4.66268354 C20.7515551,3.94724051 19.8806017,3.66835443 19.1721059,4.03959494 C7.34609322,10.2306835 0,22.4266329 0,35.8672405 C0,55.6234937 15.9166356,71.6965063 35.4813475,71.6965063 C55.0457585,71.6965063 70.9623941,55.6234937 70.9623941,35.8672405 C70.9623941,16.1109873 55.0457585,0.038278481 35.4813475,0.038278481 Z" id="Fill-1" fill="#FFBC00" mask="url(#mask-4)"></path>
                    </g>
                    <path d="M48.8089625,16.7976396 C44.7901798,13.6594428 39.9891414,12 34.925349,12 C22.2837355,12 12,22.5415095 12,35.5 C12,48.4584905 22.2837355,59 34.925349,59 C41.0482646,59 46.8054268,56.5553154 51.136211,52.1172063 C51.6980538,51.540049 51.6980538,50.6045924 51.136211,50.027435 C50.573167,49.4502777 49.6593841,49.4502777 49.0975413,50.027435 C45.312084,53.9077793 40.2789213,56.0443388 34.925349,56.0443388 C23.8731711,56.0443388 14.8818843,46.8292138 14.8818843,35.5 C14.8818843,24.1707862 23.8731711,14.9556612 34.925349,14.9556612 C43.788412,14.9556612 51.7037593,21.0409004 54.1742461,29.7561301 C54.3958602,30.5401407 55.1958331,30.9898617 55.960672,30.7623847 C56.7243098,30.5339843 57.1642349,29.7151905 56.9426207,28.9311799 C55.5853094,24.1443139 52.6962181,19.8348724 48.8089625,16.7976396 Z" id="Fill-4" fill="#191166"></path>
                    <path d="M52.5097835,31.4067797 C51.9355675,30.8644068 51.0048781,30.8644068 50.430662,31.4067797 C49.856446,31.9491525 49.856446,32.8282305 50.430662,33.3706034 L55.9608986,38.5932927 C56.2362161,38.8542102 56.6092268,39 56.9993875,39 C57.3904669,39 57.7637839,38.8542102 58.0387951,38.5932927 L63.569338,33.3706034 C64.143554,32.8282305 64.143554,31.9491525 63.569338,31.4067797 C62.9951219,30.8644068 62.0644325,30.8644068 61.4902165,31.4067797 L56.9993875,35.6474124 L52.5097835,31.4067797 Z" id="Fill-5" fill="#191166"></path>
                </g>
            </g>
        </g>
    </g>
</svg>