<?xml version="1.0" encoding="UTF-8"?>
<svg width="153px" height="151px" viewBox="0 0 153 151" version="1.1" xmlns="http://www.w3.org/2000/svg" xmlns:xlink="http://www.w3.org/1999/xlink">
    <!-- Generator: Sketch 49.1 (51147) - http://www.bohemiancoding.com/sketch -->
    <title>Group 14</title>
    <desc>Created with Sketch.</desc>
    <defs>
        <ellipse id="path-1" cx="53.5" cy="52.5" rx="53.5" ry="52.5"></ellipse>
        <filter x="-39.3%" y="-28.6%" width="178.5%" height="180.0%" filterUnits="objectBoundingBox" id="filter-2">
            <feOffset dx="0" dy="12" in="SourceAlpha" result="shadowOffsetOuter1"></feOffset>
            <feGaussianBlur stdDeviation="12" in="shadowOffsetOuter1" result="shadowBlurOuter1"></feGaussianBlur>
            <feColorMatrix values="0 0 0 0 0.776838861   0 0 0 0 0.776838861   0 0 0 0 0.776838861  0 0 0 0.5 0" type="matrix" in="shadowBlurOuter1"></feColorMatrix>
        </filter>
        <polygon id="path-3" points="0.0127118644 0.0265822785 49.9735169 0.0265822785 49.9735169 49.7892405 0.0127118644 49.7892405"></polygon>
    </defs>
    <g id="Desktop" stroke="none" stroke-width="1" fill="none" fill-rule="evenodd">
        <g id="About-us" transform="translate(-1068.000000, -1150.000000)">
            <g id="Group-14" transform="translate(1091.000000, 1161.000000)">
                <g id="Group-10-Copy-3">
                    <g id="Oval-2">
                        <use fill="black" fill-opacity="1" filter="url(#filter-2)" xlink:href="#path-1"></use>
                        <use fill="#FFFFFF" fill-rule="evenodd" xlink:href="#path-1"></use>
                    </g>
                </g>
                <g id="004-browser-visualization" transform="translate(29.000000, 29.000000)">
                    <g id="Group-3">
                        <mask id="mask-4" fill="white">
                            <use xlink:href="#path-3"></use>
                        </mask>
                        <g id="Clip-2"></g>
                        <path d="M48.9563559,0.0265822785 L1.01716102,0.0265822785 C0.455084746,0.0265822785 0,0.479746835 0,1.03924051 L0,48.7763713 C0,49.335865 0.455084746,49.7892405 1.01716102,49.7892405 L48.9563559,49.7892405 C49.5175847,49.7892405 49.9735169,49.335865 49.9735169,48.7763713 L49.9735169,1.03924051 C49.9735169,0.479746835 49.5184322,0.0265822785 48.9563559,0.0265822785 Z M2.03432203,47.7635021 L2.03432203,2.0521097 L47.9391949,2.0521097 L47.9391949,8.80147679 L5.49533898,8.80147679 C4.93326271,8.80147679 4.47817797,9.25485232 4.47817797,9.81434599 C4.47817797,10.3732068 4.93326271,10.8272152 5.49533898,10.8272152 L47.9391949,10.8272152 L47.9391949,47.7635021 L2.03432203,47.7635021 Z" id="Fill-1" fill="#191166" mask="url(#mask-4)"></path>
                    </g>
                    <path d="M41.3898317,27.5858611 C40.8730279,27.3631543 40.2694862,27.5914809 40.0403876,28.0964218 C37.3216798,34.1136701 31.2212635,38.0016741 24.4998301,38.0016741 C17.9297084,38.0016741 11.9533249,34.2868403 9.14702687,28.4995837 C11.9533249,22.7133678 17.9297084,18.998534 24.4998301,18.998534 C29.263163,18.998534 33.8376761,20.9741729 37.0501713,24.4198853 C37.4297291,24.8280424 38.0773855,24.8571816 38.495304,24.4856566 C38.9132225,24.1141316 38.9432717,23.482435 38.5628615,23.0742779 C34.9639888,19.2139561 29.8383604,17 24.4998301,17 C16.9683467,17 10.1335361,21.3554803 7.08663124,28.0964218 C6.97112292,28.3532632 6.97112292,28.6469449 7.08663124,28.9037863 C10.1335361,35.6447278 16.9683467,40 24.4998301,40 C32.0311004,40 38.865911,35.6447278 41.9128158,28.9037863 C42.1408489,28.3988453 41.9059962,27.808568 41.3898317,27.5858611 Z" id="Fill-7" fill="#FFBC00"></path>
                    <path d="M18,27.9994775 C18,31.8593053 21.1406947,35 25.0005225,35 C28.8601412,35 32,31.8593053 32,27.9994775 C32,24.1398588 28.8601412,21 25.0005225,21 C21.1406947,21 18,24.1398588 18,27.9994775 Z M29.9941184,27.9994775 C29.9941184,30.7531236 27.7539596,32.9932825 25.0005225,32.9932825 C22.2468764,32.9932825 20.0067175,30.7531236 20.0067175,27.9994775 C20.0067175,25.2460404 22.2468764,23.0058816 25.0005225,23.0058816 C27.7539596,23.0058816 29.9941184,25.2460404 29.9941184,27.9994775 Z" id="Fill-8" fill="#191166"></path>
                </g>
            </g>
        </g>
    </g>
</svg>