<?xml version="1.0" encoding="UTF-8"?>
<svg width="153px" height="151px" viewBox="0 0 153 151" version="1.1" xmlns="http://www.w3.org/2000/svg" xmlns:xlink="http://www.w3.org/1999/xlink">
    <!-- Generator: Sketch 49.1 (51147) - http://www.bohemiancoding.com/sketch -->
    <title>Group 12</title>
    <desc>Created with Sketch.</desc>
    <defs>
        <ellipse id="path-1" cx="53.5" cy="52.5" rx="53.5" ry="52.5"></ellipse>
        <filter x="-39.3%" y="-28.6%" width="178.5%" height="180.0%" filterUnits="objectBoundingBox" id="filter-2">
            <feOffset dx="0" dy="12" in="SourceAlpha" result="shadowOffsetOuter1"></feOffset>
            <feGaussianBlur stdDeviation="12" in="shadowOffsetOuter1" result="shadowBlurOuter1"></feGaussianBlur>
            <feColorMatrix values="0 0 0 0 0.776838861   0 0 0 0 0.776838861   0 0 0 0 0.776838861  0 0 0 0.5 0" type="matrix" in="shadowBlurOuter1"></feColorMatrix>
        </filter>
    </defs>
    <g id="Desktop" stroke="none" stroke-width="1" fill="none" fill-rule="evenodd">
        <g id="About-us" transform="translate(-506.000000, -931.000000)">
            <g id="Group-12" transform="translate(529.000000, 942.000000)">
                <g id="Group-10-Copy">
                    <g id="Oval-2">
                        <use fill="black" fill-opacity="1" filter="url(#filter-2)" xlink:href="#path-1"></use>
                        <use fill="#FFFFFF" fill-rule="evenodd" xlink:href="#path-1"></use>
                    </g>
                </g>
                <g id="001-retweet" transform="translate(24.000000, 36.000000)">
                    <path d="M49.5491606,32.0778379 L9.60271644,32.0778379 L9.60271644,22.3953227 L14.8532437,22.3953227 C15.3834046,22.3953227 15.8721561,22.1040803 16.1269598,21.6345015 C16.3808567,21.1649226 16.3596986,20.5930894 16.0728555,20.1435962 L9.37118665,9.66921834 C9.10429266,9.25198399 8.64516245,9 8.1515748,9 C7.65798715,9 7.19976372,9.25198399 6.93196295,9.66921834 L0.231503092,20.1435962 C-0.0568512342,20.5930894 -0.0768002756,21.1649226 0.177096615,21.6345015 C0.430993506,22.102863 0.919745022,22.3953227 1.45111494,22.3953227 L6.70043317,22.3953227 L6.70043317,33.5389189 C6.70043317,34.3447808 7.35089282,35 8.1515748,35 L49.5491606,35 C50.3495403,35 51,34.3447808 51,33.5389189 C51,32.7318398 50.3507494,32.0778379 49.5491606,32.0778379 Z M8.1515748,13.1583445 L12.1918602,19.4731606 L4.11128939,19.4731606 L8.1515748,13.1583445 Z" id="Fill-1" fill="#191166"></path>
                    <path d="M59.8233219,13.3654985 C59.5682139,12.8959197 59.0806674,12.6046773 58.5492931,12.6046773 L53.2987226,12.6046773 L53.2987226,1.46108107 C53.2987226,0.65400192 52.6494667,0 51.847569,0 L10.4508513,0 C9.64925597,0 9,0.65400192 9,1.46108107 C9,2.26724723 9.64925597,2.92094482 10.4508513,2.92094482 L50.3979268,2.92094482 L50.3979268,14.064541 C50.3979268,14.8719245 51.0471827,15.5256221 51.847569,15.5256221 L55.889399,15.5256221 L51.847569,21.8416555 L46.3669782,13.2742 C45.9323273,12.5952431 45.0349153,12.4004729 44.3608739,12.8365756 C43.6877394,13.2742 43.4930835,14.1774469 43.9274321,14.8564038 L50.6279471,25.3295643 C50.8948433,25.748016 51.3554886,26 51.847569,26 C52.3411607,26 52.800597,25.748016 53.0674932,25.3295643 L59.768915,14.8564038 C60.0560627,14.4069106 60.0772209,13.8350774 59.8233219,13.3654985 Z" id="Fill-3" fill="#FFBC00"></path>
                </g>
            </g>
        </g>
    </g>
</svg>