<?xml version="1.0" encoding="UTF-8"?>
<svg width="153px" height="151px" viewBox="0 0 153 151" version="1.1" xmlns="http://www.w3.org/2000/svg" xmlns:xlink="http://www.w3.org/1999/xlink">
    <!-- Generator: Sketch 49.1 (51147) - http://www.bohemiancoding.com/sketch -->
    <title>Group 13</title>
    <desc>Created with Sketch.</desc>
    <defs>
        <ellipse id="path-1" cx="53.5" cy="52.5" rx="53.5" ry="52.5"></ellipse>
        <filter x="-39.3%" y="-28.6%" width="178.5%" height="180.0%" filterUnits="objectBoundingBox" id="filter-2">
            <feOffset dx="0" dy="12" in="SourceAlpha" result="shadowOffsetOuter1"></feOffset>
            <feGaussianBlur stdDeviation="12" in="shadowOffsetOuter1" result="shadowBlurOuter1"></feGaussianBlur>
            <feColorMatrix values="0 0 0 0 0.776838861   0 0 0 0 0.776838861   0 0 0 0 0.776838861  0 0 0 0.5 0" type="matrix" in="shadowBlurOuter1"></feColorMatrix>
        </filter>
        <polygon id="path-3" points="0 0 51 0 51 54 0 54"></polygon>
    </defs>
    <g id="Desktop" stroke="none" stroke-width="1" fill="none" fill-rule="evenodd">
        <g id="About-us" transform="translate(-787.000000, -931.000000)">
            <g id="Group-13" transform="translate(810.000000, 942.000000)">
                <g id="Group-10-Copy-2">
                    <g id="Oval-2">
                        <use fill="black" fill-opacity="1" filter="url(#filter-2)" xlink:href="#path-1"></use>
                        <use fill="#FFFFFF" fill-rule="evenodd" xlink:href="#path-1"></use>
                    </g>
                </g>
                <g id="002-folders" transform="translate(28.000000, 27.000000)">
                    <mask id="mask-4" fill="white">
                        <use xlink:href="#path-3"></use>
                    </mask>
                    <g id="Clip-2"></g>
                    <path d="M1.03805405,5.87584459 C1.61059459,5.87584459 2.07610811,5.42208615 2.07610811,4.86211993 C2.07610811,3.29835304 3.37837838,2.02639358 4.97881081,2.02639358 L14.2635676,2.02639358 L21.5701622,9.82157939 C21.7669189,10.0310389 22.0447568,10.1507601 22.3362162,10.1507601 L46.0211892,10.1507601 C47.6216216,10.1507601 48.9238919,11.4225084 48.9238919,12.9864865 C48.9238919,13.5464527 49.3894054,14 49.9619459,14 C50.5355676,14 51,13.5464527 51,12.9864865 C51,10.3048986 48.7660541,8.12415541 46.0211892,8.12415541 L22.7930811,8.12415541 L15.4864865,0.328969595 C15.2897297,0.118665541 15.0118919,0 14.7204324,0 L4.97881081,0 C2.23394595,0 0,2.18074324 0,4.86211993 C0,5.42124155 0.464432432,5.87584459 1.03805405,5.87584459 Z" id="Fill-1" fill="#FFBC00" mask="url(#mask-4)"></path>
                    <path d="M46.0203243,15.5160282 L22.7930811,15.5160282 L15.4864865,7.34593529 C15.2897297,7.12549284 15.0118919,7 14.7204324,7 L4.97881081,7 C2.23394595,7 0,9.28675842 0,12.097621 L0,33.1020681 C0,33.688144 0.464432432,34.1637774 1.03805405,34.1637774 C1.61059459,34.1637774 2.07610811,33.688144 2.07610811,33.1020681 L2.07610811,12.097621 C2.07610811,10.4582463 3.37837838,9.12518916 4.97881081,9.12518916 L14.2635676,9.12518916 L21.5701622,17.2961674 C21.7669189,17.5157246 22.0447568,17.6409961 22.3362162,17.6409961 L46.0211892,17.6409961 C47.6216216,17.6409961 48.9238919,18.9742745 48.9238919,20.6134279 L48.9238919,44.9032643 C48.9238919,46.5417537 47.6216216,47.8756962 46.0211892,47.8756962 L4.97881081,47.8756962 C3.37837838,47.8756962 2.07610811,46.5424177 2.07610811,44.9032643 C2.07610811,44.3163031 1.61059459,43.8406697 1.03805405,43.8406697 C0.464432432,43.8406697 0,44.3163031 0,44.9032643 C0,47.7139056 2.23394595,50 4.97881081,50 L46.0203243,50 C48.7660541,50 51,47.7139056 51,44.9032643 L51,20.6134279 C51,17.8027867 48.7660541,15.5160282 46.0203243,15.5160282 Z" id="Fill-3" fill="#191166" mask="url(#mask-4)"></path>
                </g>
            </g>
        </g>
    </g>
</svg>