<?xml version="1.0" encoding="utf-8"?>
<!-- Generator: Adobe Illustrator 18.0.0, SVG Export Plug-In . SVG Version: 6.00 Build 0)  -->
<!DOCTYPE svg PUBLIC "-//W3C//DTD SVG 1.1//EN" "http://www.w3.org/Graphics/SVG/1.1/DTD/svg11.dtd">
<svg version="1.1" id="Laag_1" xmlns="http://www.w3.org/2000/svg" xmlns:xlink="http://www.w3.org/1999/xlink" x="0px" y="0px"
	 viewBox="0 0 430 220" enable-background="new 0 0 425.2 226.8" xml:space="preserve">
<g>
	<g>
		<path fill="#8B731F" d="M213.3,132.3c0.2,0.7,0.6,0.9,0.7,1.7c0,0.8-0.6,1.4-1,2c-0.2,0.3-0.4,0.5-0.5,0.7c0,0.1,0,0.1-0.1,0.1
			l0,0l0,0c0,0,0,0,0,0c-0.2,0-0.1-0.1-0.1-0.3c0.1-0.2,0.3-0.5,0.5-0.7c0.2-0.3,0.4-0.6,0.6-0.9c0.1-0.2,0.2-0.4,0.2-0.6
			c0-0.1,0.1-0.3,0.1-0.4c0-0.5-0.2-0.7-0.4-1c-0.1-0.1-0.1-0.2-0.2-0.3c-0.1,0.1-0.2,0.1-0.3,0.2c-0.3,0.1-0.5,0.3-0.8,0.7
			c-0.1,0.1-0.1,0.2-0.1,0.4c0,0.2-0.1,0.4-0.1,0.6c0,0.3,0,0.7,0.1,1.1c0,0.3,0.1,0.6,0.1,0.9c0,0.2,0,0.3-0.2,0.2l0,0l0,0
			c-0.1,0-0.1-0.1,0-0.2c0-0.2,0-0.5-0.1-0.8c-0.1-0.7-0.4-1.5,0.1-2.3c0.4-0.7,0.9-0.7,1.4-1.2
			C213.1,132.1,213.2,132.1,213.3,132.3C213.3,132.2,213.3,132.2,213.3,132.3L213.3,132.3z"/>
		<path fill-rule="evenodd" clip-rule="evenodd" fill="#8B731F" d="M212.9,133.4c-0.5,0-0.9,0.5-0.9,1.2c0,0.8,0,1.3,0.1,1.6
			c0.3-0.3,0.7-0.9,1-1.5C213.4,134.2,213.2,133.7,212.9,133.4z M212.8,134.7c0,0.1-0.2,0.4-0.3,0.4c0-0.4,0-0.4,0-0.9
			c0-0.2,0.3-0.6,0.4-0.5C213.1,134.1,212.9,134.4,212.8,134.7z"/>
		<path fill="#8B731F" d="M209.4,132.7c0.6,0.4,1.1,0.2,1.7,0.7c0.6,0.6,0.6,1.4,0.7,2.1c0.1,0.4,0,0.6,0.2,0.8c0,0.1,0.1,0.1,0,0.2
			l0,0l0,0c0,0,0,0,0,0c-0.2,0.1-0.1,0-0.2-0.1c-0.1-0.2-0.1-0.5-0.2-0.9c0-0.3-0.1-0.7-0.2-1c-0.1-0.2-0.1-0.4-0.2-0.5
			c-0.1-0.1-0.1-0.2-0.2-0.3c-0.4-0.3-0.7-0.4-1-0.4c-0.1,0-0.2,0-0.3-0.1c0,0.1-0.1,0.2-0.1,0.3c-0.1,0.3-0.2,0.6-0.1,1
			c0,0.1,0.1,0.2,0.2,0.3c0.1,0.2,0.2,0.3,0.4,0.5c0.2,0.3,0.5,0.5,0.8,0.7c0.3,0.2,0.5,0.4,0.7,0.6c0.1,0.2,0.2,0.2,0,0.3l0,0l0,0
			c-0.1,0-0.1,0-0.2-0.1c-0.1-0.2-0.3-0.3-0.6-0.5c-0.6-0.5-1.3-0.8-1.5-1.7c-0.2-0.8,0.2-1.1,0.2-1.8
			C209.2,132.8,209.2,132.7,209.4,132.7C209.3,132.7,209.4,132.7,209.4,132.7L209.4,132.7z"/>
		<path fill-rule="evenodd" clip-rule="evenodd" fill="#8B731F" d="M211,134.6c-0.2-0.6-0.7-0.9-1.1-0.8c-0.3,0.4-0.3,0.9,0.3,1.5
			c0.6,0.5,1,0.9,1.2,1C211.4,136,211.2,135.3,211,134.6z M210.5,135c-0.1-0.1-0.2-0.1-0.4-0.3c-0.1-0.2-0.2-0.5,0-0.5
			c0.2,0,0.4,0.1,0.5,0.3c0.1,0.1,0.1,0.3,0.1,0.4C210.7,135.2,210.8,135.4,210.5,135z"/>
		<path fill="#8B731F" d="M206.9,135.8c0.7-0.2,0.9-0.6,1.7-0.7c0.8,0,1.4,0.6,2,1c0.3,0.2,0.5,0.4,0.7,0.5c0.1,0,0.1,0,0.1,0.1l0,0
			l0,0c0,0,0,0,0,0c0,0.2-0.1,0.1-0.3,0.1c-0.2-0.1-0.5-0.3-0.7-0.5c-0.3-0.2-0.6-0.4-0.9-0.6c-0.2-0.1-0.4-0.2-0.6-0.2
			c-0.1,0-0.3-0.1-0.4-0.1c-0.5,0-0.7,0.2-1,0.4c-0.1,0.1-0.2,0.1-0.3,0.2c0.1,0.1,0.1,0.2,0.2,0.3c0.1,0.3,0.3,0.5,0.7,0.8
			c0.1,0.1,0.2,0.1,0.4,0.1c0.2,0,0.4,0.1,0.6,0.1c0.3,0,0.7,0,1.1-0.1c0.3,0,0.6-0.1,0.9-0.1c0.2,0,0.3,0,0.2,0.2l0,0l0,0
			c0,0.1-0.1,0.1-0.2,0c-0.2,0-0.5,0-0.8,0.1c-0.7,0.1-1.5,0.4-2.3-0.1c-0.7-0.4-0.7-0.9-1.2-1.4C206.8,136,206.8,135.9,206.9,135.8
			C206.9,135.8,206.9,135.8,206.9,135.8L206.9,135.8z"/>
		<path fill-rule="evenodd" clip-rule="evenodd" fill="#8B731F" d="M209.5,136c-0.6-0.3-1.1-0.1-1.3,0.2c0,0.5,0.5,0.9,1.2,0.9
			c0.8,0,1.3,0,1.6-0.1C210.7,136.7,210.1,136.3,209.5,136z M209.7,136.7c-0.1,0-0.2,0-0.5,0c-0.2,0-0.5-0.3-0.4-0.4
			s0.4-0.2,0.6-0.1c0.1,0.1,0.2,0.2,0.3,0.2C210,136.6,210.2,136.7,209.7,136.7z"/>
		<path fill="#8B731F" d="M207.4,139.7c0.4-0.6,0.2-1.1,0.7-1.7c0.6-0.6,1.4-0.6,2.1-0.7c0.4-0.1,0.6,0,0.8-0.2c0.1,0,0.1-0.1,0.2,0
			l0,0l0,0c0,0,0,0,0,0c0.1,0.2,0,0.1-0.1,0.2c-0.2,0.1-0.5,0.1-0.9,0.2c-0.3,0-0.7,0.1-1,0.2c-0.2,0.1-0.4,0.1-0.5,0.2
			c-0.1,0.1-0.2,0.1-0.3,0.2c-0.3,0.4-0.4,0.7-0.4,1c0,0.1,0,0.2-0.1,0.3c0.1,0,0.2,0.1,0.3,0.1c0.3,0.1,0.6,0.2,1,0.1
			c0.1,0,0.2-0.1,0.3-0.2c0.2-0.1,0.3-0.2,0.5-0.4c0.3-0.2,0.5-0.5,0.7-0.8c0.2-0.3,0.4-0.5,0.6-0.7c0.2-0.1,0.2-0.2,0.3,0l0,0l0,0
			c0,0.1,0,0.1-0.1,0.2c-0.2,0.1-0.3,0.3-0.5,0.6c-0.5,0.6-0.8,1.3-1.7,1.5c-0.8,0.2-1.1-0.2-1.8-0.2
			C207.4,139.9,207.4,139.9,207.4,139.7C207.4,139.8,207.4,139.7,207.4,139.7L207.4,139.7z"/>
		<path fill-rule="evenodd" clip-rule="evenodd" fill="#8B731F" d="M209.3,138c-0.6,0.2-0.8,0.7-0.8,1.1c0.4,0.3,0.9,0.3,1.5-0.3
			c0.6-0.6,0.9-1,1-1.2C210.6,137.7,209.9,137.8,209.3,138z M209.8,138.6c-0.2,0.2-0.5,0.2-0.5,0c0-0.3,0.4-0.4,0.6-0.5
			c0.1,0,0.4-0.1,0.5,0C210.2,138.3,210.3,138.2,209.8,138.6z"/>
		<path fill="#8B731F" d="M210.5,142.2c-0.2-0.7-0.6-0.9-0.7-1.7c0-0.8,0.6-1.4,1-2c0.2-0.3,0.4-0.5,0.5-0.7c0-0.1,0-0.1,0.1-0.1
			l0,0l0,0c0,0,0,0,0,0c0.2,0,0.1,0.1,0.1,0.3c-0.1,0.2-0.3,0.5-0.5,0.7c-0.2,0.3-0.4,0.6-0.6,0.9c-0.1,0.2-0.2,0.4-0.2,0.6
			c0,0.1-0.1,0.3-0.1,0.4c0,0.5,0.2,0.7,0.4,1c0.1,0.1,0.1,0.2,0.2,0.3c0.1-0.1,0.2-0.1,0.3-0.2c0.3-0.1,0.5-0.3,0.8-0.7
			c0.1-0.1,0.1-0.2,0.1-0.4c0-0.2,0.1-0.4,0.1-0.6c0-0.3,0-0.7-0.1-1.1c0-0.3-0.1-0.6-0.1-0.9c0-0.2,0-0.3,0.2-0.2l0,0l0,0
			c0.1,0,0.1,0.1,0,0.2c0,0.2,0,0.5,0.1,0.8c0.1,0.7,0.4,1.5-0.1,2.3c-0.4,0.7-0.9,0.7-1.4,1.2C210.7,142.3,210.6,142.3,210.5,142.2
			C210.5,142.2,210.5,142.2,210.5,142.2L210.5,142.2z"/>
		<path fill-rule="evenodd" clip-rule="evenodd" fill="#8B731F" d="M211.7,138.1c-0.3,0.3-0.7,0.9-1,1.5c-0.3,0.6-0.1,1.1,0.2,1.3
			c0.5,0,0.9-0.4,0.9-1.2C211.8,138.9,211.8,138.4,211.7,138.1z M211.5,139.2c0,0.2-0.2,0.5-0.3,0.4c-0.1-0.1-0.1-0.3,0-0.5
			c0-0.1,0.2-0.4,0.3-0.4C211.6,139,211.5,138.7,211.5,139.2z"/>
		<path fill="#8B731F" d="M214.4,141.7c-0.6-0.4-1.1-0.2-1.7-0.7c-0.6-0.6-0.6-1.4-0.7-2.1c-0.1-0.4,0-0.6-0.2-0.8
			c0-0.1-0.1-0.1,0-0.2l0,0l0,0c0,0,0,0,0,0c0.2-0.1,0.1,0,0.2,0.1c0.1,0.2,0.1,0.5,0.2,0.9c0,0.3,0.1,0.7,0.2,1
			c0.1,0.2,0.1,0.4,0.2,0.5c0.1,0.1,0.1,0.2,0.2,0.3c0.4,0.3,0.7,0.4,1,0.4c0.1,0,0.2,0,0.3,0.1c0-0.1,0.1-0.2,0.1-0.3
			c0.1-0.3,0.2-0.6,0.1-1c0-0.1-0.1-0.2-0.2-0.3c-0.1-0.2-0.2-0.3-0.4-0.5c-0.2-0.3-0.5-0.5-0.8-0.7c-0.3-0.2-0.5-0.4-0.7-0.6
			c-0.1-0.2-0.2-0.2,0-0.3l0,0l0,0c0.1,0,0.1,0,0.2,0.1c0.1,0.2,0.3,0.3,0.6,0.5c0.6,0.5,1.3,0.8,1.5,1.7c0.2,0.8-0.2,1.1-0.2,1.8
			C214.6,141.7,214.5,141.7,214.4,141.7C214.4,141.7,214.4,141.7,214.4,141.7L214.4,141.7z"/>
		<path fill-rule="evenodd" clip-rule="evenodd" fill="#8B731F" d="M213.6,139.1c-0.6-0.6-0.9-0.9-1.2-1c0,0.4,0.2,1.1,0.3,1.8
			c0.2,0.6,0.7,0.9,1.1,0.8C214.2,140.2,214.2,139.6,213.6,139.1z M213.3,139.5c-0.1,0.1-0.3,0-0.4-0.3c-0.2-0.5-0.1-0.3-0.2-0.7
			c0.1,0,0.3,0.2,0.4,0.3C213.3,139.1,213.5,139.3,213.3,139.5z"/>
		<path fill="#8B731F" d="M216.8,138.6c-0.7,0.2-0.9,0.6-1.7,0.7c-0.8,0-1.4-0.6-2-1c-0.3-0.2-0.5-0.4-0.7-0.5c-0.1,0-0.1,0-0.1-0.1
			l0,0l0,0c0,0,0,0,0,0c0-0.2,0.1-0.1,0.3-0.1c0.2,0.1,0.5,0.3,0.7,0.5c0.3,0.2,0.6,0.4,0.9,0.6c0.2,0.1,0.4,0.2,0.6,0.2
			c0.1,0,0.3,0.1,0.4,0.1c0.5,0,0.7-0.2,1-0.4c0.1-0.1,0.2-0.1,0.3-0.2c-0.1-0.1-0.1-0.2-0.2-0.3c-0.1-0.3-0.3-0.5-0.7-0.8
			c-0.1-0.1-0.2-0.1-0.4-0.1c-0.2,0-0.4-0.1-0.6-0.1c-0.3,0-0.7,0-1.1,0.1c-0.3,0-0.6,0.1-0.9,0.1c-0.2,0-0.3,0-0.2-0.2l0,0l0,0
			c0-0.1,0.1-0.1,0.2,0c0.2,0,0.5,0,0.8-0.1c0.7-0.1,1.5-0.4,2.3,0.1c0.7,0.4,0.7,0.9,1.2,1.4C217,138.4,217,138.5,216.8,138.6
			C216.9,138.6,216.9,138.6,216.8,138.6L216.8,138.6z"/>
		<path fill-rule="evenodd" clip-rule="evenodd" fill="#8B731F" d="M214.4,137.3c-0.8,0-1.3,0-1.6,0.1c0.3,0.3,0.9,0.7,1.5,1
			c0.6,0.3,1.1,0.1,1.4-0.2C215.6,137.7,215.2,137.3,214.4,137.3z M214.9,137.9c-0.1,0.1-0.4,0.2-0.6,0.1c-0.1,0-0.2-0.1-0.3-0.2
			c-0.2-0.2-0.4-0.2,0-0.2c0.1,0,0.2-0.1,0.5,0C214.7,137.6,215,137.8,214.9,137.9z"/>
		<path fill="#8B731F" d="M216.4,134.7c-0.4,0.6-0.2,1.1-0.7,1.7c-0.6,0.6-1.4,0.6-2.1,0.7c-0.4,0.1-0.6,0-0.8,0.2
			c-0.1,0-0.1,0.1-0.2,0l0,0l0,0c0,0,0,0,0,0c-0.1-0.2,0-0.1,0.1-0.2c0.2-0.1,0.5-0.1,0.9-0.2c0.3,0,0.7-0.1,1-0.2
			c0.2-0.1,0.4-0.1,0.5-0.2c0.1-0.1,0.2-0.1,0.3-0.2c0.3-0.4,0.4-0.7,0.4-1c0-0.1,0-0.2,0.1-0.3c-0.1,0-0.2-0.1-0.3-0.1
			c-0.3-0.1-0.6-0.2-1-0.1c-0.1,0-0.2,0.1-0.3,0.2c-0.2,0.1-0.3,0.2-0.5,0.4c-0.3,0.2-0.5,0.5-0.7,0.8c-0.2,0.3-0.4,0.5-0.6,0.7
			c-0.2,0.1-0.2,0.2-0.3,0l0,0l0,0c0-0.1,0-0.1,0.1-0.2c0.2-0.1,0.3-0.3,0.5-0.6c0.5-0.6,0.8-1.3,1.7-1.5c0.8-0.2,1.1,0.2,1.8,0.2
			C216.3,134.5,216.4,134.6,216.4,134.7C216.4,134.7,216.4,134.7,216.4,134.7L216.4,134.7z"/>
		<path fill-rule="evenodd" clip-rule="evenodd" fill="#8B731F" d="M213.8,135.5c-0.6,0.6-0.9,1-1,1.2c0.4,0,1.1-0.1,1.7-0.3
			c0.6-0.2,0.8-0.7,0.8-1.1C214.9,134.9,214.3,134.9,213.8,135.5z M214.1,136.1c-0.3,0-0.5,0.2-0.2-0.2c0.1-0.1,0.1-0.1,0.4-0.3
			c0.2-0.2,0.7-0.3,0.6-0.1C214.9,135.8,214.3,136,214.1,136.1z"/>
	</g>
	<path fill-rule="evenodd" clip-rule="evenodd" fill="#8B731F" d="M212,136.9c0.2,0.1,0.3,0.3,0.3,0.4c-0.1,0.2-0.3,0.3-0.4,0.3
		c-0.2-0.1-0.3-0.3-0.3-0.4C211.6,136.9,211.8,136.8,212,136.9L212,136.9z"/>
	<g>
		<path fill="#191166" d="M143.3,161.3c-0.6,0-1-0.1-1.5-0.3c-0.4-0.2-0.8-0.4-1-0.7c-0.3-0.3-0.5-0.7-0.6-1.1s-0.2-0.9-0.2-1.3
			c0-0.4,0.1-0.8,0.2-1.2c0.1-0.4,0.3-0.8,0.6-1.1c0.3-0.3,0.6-0.6,1-0.8c0.4-0.2,0.9-0.3,1.5-0.3c0.2,0,0.4,0,0.6,0
			c0.2,0,0.4,0,0.5,0.1s0.3,0.1,0.5,0.1c0.2,0,0.3,0.1,0.5,0.1c0,0.2,0,0.4,0.1,0.7c0,0.3,0.1,0.5,0.2,0.8c-0.1,0-0.1,0-0.2,0
			s-0.1,0-0.1,0c0,0-0.1,0-0.1-0.1c-0.1-0.4-0.3-0.8-0.6-0.9c-0.3-0.2-0.6-0.3-1.1-0.3c-0.4,0-0.8,0.1-1.1,0.2
			c-0.3,0.1-0.6,0.3-0.8,0.6c-0.2,0.2-0.4,0.5-0.5,0.9c-0.1,0.3-0.2,0.7-0.2,1.1c0,0.5,0.1,0.9,0.2,1.3s0.3,0.7,0.6,1
			c0.2,0.3,0.5,0.5,0.8,0.6c0.3,0.2,0.7,0.2,1,0.2c0.3,0,0.5,0,0.7-0.1c0.2-0.1,0.4-0.1,0.5-0.2s0.2-0.2,0.3-0.4
			c0.1-0.2,0.2-0.3,0.3-0.5c0-0.1,0.1-0.2,0.2-0.2c0,0,0.1,0,0.1,0c0,0,0.1,0,0.1,0c-0.1,0.2-0.2,0.5-0.2,0.8
			c-0.1,0.3-0.1,0.6-0.2,0.8c-0.3,0.1-0.7,0.1-1,0.1C144.1,161.3,143.7,161.3,143.3,161.3z"/>
		<path fill="#191166" d="M154.1,157.9c0-0.5,0.1-0.9,0.2-1.3c0.2-0.4,0.4-0.8,0.7-1.1s0.6-0.5,1-0.7c0.4-0.2,0.8-0.3,1.2-0.3
			c0.6,0,1.1,0.1,1.5,0.3c0.4,0.2,0.8,0.4,1.1,0.7c0.3,0.3,0.5,0.7,0.6,1.1c0.1,0.4,0.2,0.8,0.2,1.3c0,0.5-0.1,1-0.3,1.4
			s-0.4,0.8-0.7,1.1s-0.7,0.5-1.1,0.7c-0.4,0.2-0.8,0.2-1.3,0.2c-0.5,0-0.9-0.1-1.3-0.2c-0.4-0.2-0.7-0.4-1-0.7
			c-0.3-0.3-0.5-0.7-0.7-1.1S154.1,158.4,154.1,157.9z M157.6,160.8c0.3,0,0.6-0.1,0.9-0.2s0.5-0.3,0.7-0.5c0.2-0.2,0.3-0.5,0.4-0.8
			c0.1-0.3,0.2-0.6,0.2-1c0-0.5,0-0.9-0.1-1.3s-0.3-0.8-0.5-1.1c-0.2-0.3-0.5-0.5-0.8-0.7c-0.3-0.2-0.7-0.3-1.1-0.3
			c-0.3,0-0.5,0.1-0.8,0.2c-0.2,0.1-0.5,0.3-0.7,0.5c-0.2,0.2-0.3,0.4-0.5,0.7c-0.1,0.3-0.2,0.6-0.2,1c0,0.5,0.1,1,0.2,1.4
			c0.1,0.4,0.3,0.8,0.5,1.1c0.2,0.3,0.5,0.6,0.8,0.7C156.8,160.7,157.2,160.8,157.6,160.8z"/>
		<path fill="#191166" d="M175.4,154.9C175.4,154.8,175.4,154.8,175.4,154.9c0.1-0.1,0.1-0.1,0.1-0.1c0,0,0.1,0,0.2,0
			c0.1,0,0.2,0,0.3,0c0.1,0,0.1,0,0.2,0c0.1,0,0.2,0,0.3,0c0.1,0,0.2,0,0.3,0c0.1,0,0.2,0,0.3,0c0,0.1,0,0.1,0,0.2
			c0,0.1,0,0.2-0.1,0.2c-0.2,0-0.4,0.1-0.5,0.1c-0.1,0.1-0.1,0.1-0.1,0.2c0,0,0,0.1,0,0.3c0,0.2,0,0.5,0,0.8s0,0.9,0.1,1.6
			c0,0.7,0.1,1.5,0.1,2.5c0,0.1,0.1,0.2,0.1,0.3c0.1,0.1,0.2,0.1,0.5,0.2c0,0,0.1,0,0.1,0.1c0,0,0,0.1,0,0.1s0,0.1,0,0.2
			c-0.2,0-0.4,0-0.6,0c-0.2,0-0.4,0-0.5,0c-0.1,0-0.1,0-0.2,0s-0.2,0-0.3,0c-0.1,0-0.2,0-0.3,0c-0.1,0-0.2,0-0.3,0
			c0-0.1,0-0.1,0-0.2c0-0.1,0-0.2,0.1-0.2c0.3-0.1,0.4-0.1,0.5-0.2c0.1-0.1,0.1-0.1,0.1-0.3c0,0,0-0.1,0-0.4c0-0.2,0-0.5,0-0.8
			c0-0.3,0-0.7,0-1.1s0-0.7,0-1.1c0-0.3,0-0.6,0-0.9c0-0.2,0-0.4,0-0.4l-2.2,5.3c0,0.1-0.1,0.1-0.1,0.1c0,0-0.1,0-0.1,0
			c0,0-0.1,0-0.1,0l-2.5-5.6c0,0.1,0,0.2,0,0.5c0,0.3,0,0.6,0,0.9c0,0.4,0,0.7-0.1,1.1c0,0.4,0,0.8-0.1,1.1c0,0.3,0,0.6,0,0.8
			s0,0.3,0,0.4c0,0.2,0.2,0.4,0.7,0.4c0.1,0,0.1,0.1,0.1,0.2c0,0,0,0.1,0,0.2c-0.2,0-0.4,0-0.5,0c-0.2,0-0.3,0-0.5,0
			c-0.1,0-0.2,0-0.4,0c-0.2,0-0.4,0-0.5,0c0-0.1,0-0.1,0-0.2c0-0.1,0-0.1,0.1-0.2c0.2,0,0.3-0.1,0.4-0.1s0.2-0.2,0.2-0.3
			c0-0.1,0-0.2,0-0.5c0-0.3,0-0.6,0-1c0-0.4,0-0.8,0.1-1.2c0-0.4,0-0.8,0.1-1.2s0-0.7,0-0.9c0-0.2,0-0.4,0-0.4c0-0.1,0-0.2-0.1-0.2
			c-0.1,0-0.2-0.1-0.5-0.1c-0.1,0-0.1-0.1-0.1-0.2c0,0,0-0.1,0-0.2c0.1,0,0.2,0,0.3,0c0.1,0,0.2,0,0.3,0c0.1,0,0.2,0,0.3,0
			s0.2,0,0.2,0c0.1,0,0.2,0,0.3,0c0.1,0,0.1,0,0.2,0c0,0,0.1,0,0.1,0.1c0,0,0,0.1,0,0.1l2.1,5L175.4,154.9z"/>
		<path fill="#191166" d="M192,154.9C192,154.8,192,154.8,192,154.9c0.1-0.1,0.1-0.1,0.1-0.1c0,0,0.1,0,0.2,0c0.1,0,0.2,0,0.3,0
			c0.1,0,0.1,0,0.2,0c0.1,0,0.2,0,0.3,0c0.1,0,0.2,0,0.3,0c0.1,0,0.2,0,0.3,0c0,0.1,0,0.1,0,0.2c0,0.1,0,0.2-0.1,0.2
			c-0.2,0-0.4,0.1-0.5,0.1c-0.1,0.1-0.1,0.1-0.1,0.2c0,0,0,0.1,0,0.3c0,0.2,0,0.5,0,0.8s0,0.9,0.1,1.6c0,0.7,0.1,1.5,0.1,2.5
			c0,0.1,0.1,0.2,0.1,0.3c0.1,0.1,0.2,0.1,0.5,0.2c0,0,0.1,0,0.1,0.1c0,0,0,0.1,0,0.1s0,0.1,0,0.2c-0.2,0-0.4,0-0.6,0
			c-0.2,0-0.4,0-0.5,0c-0.1,0-0.1,0-0.2,0s-0.2,0-0.3,0c-0.1,0-0.2,0-0.3,0c-0.1,0-0.2,0-0.3,0c0-0.1,0-0.1,0-0.2
			c0-0.1,0-0.2,0.1-0.2c0.3-0.1,0.4-0.1,0.5-0.2c0.1-0.1,0.1-0.1,0.1-0.3c0,0,0-0.1,0-0.4c0-0.2,0-0.5,0-0.8c0-0.3,0-0.7,0-1.1
			s0-0.7,0-1.1c0-0.3,0-0.6,0-0.9c0-0.2,0-0.4,0-0.4l-2.2,5.3c0,0.1-0.1,0.1-0.1,0.1c0,0-0.1,0-0.1,0c0,0-0.1,0-0.1,0l-2.5-5.6
			c0,0.1,0,0.2,0,0.5c0,0.3,0,0.6,0,0.9c0,0.4,0,0.7-0.1,1.1c0,0.4,0,0.8-0.1,1.1c0,0.3,0,0.6,0,0.8s0,0.3,0,0.4
			c0,0.2,0.2,0.4,0.7,0.4c0.1,0,0.1,0.1,0.1,0.2c0,0,0,0.1,0,0.2c-0.2,0-0.4,0-0.5,0c-0.2,0-0.3,0-0.5,0c-0.1,0-0.2,0-0.4,0
			c-0.2,0-0.4,0-0.5,0c0-0.1,0-0.1,0-0.2c0-0.1,0-0.1,0.1-0.2c0.2,0,0.3-0.1,0.4-0.1s0.2-0.2,0.2-0.3c0-0.1,0-0.2,0-0.5
			c0-0.3,0-0.6,0-1c0-0.4,0-0.8,0.1-1.2c0-0.4,0-0.8,0.1-1.2s0-0.7,0-0.9c0-0.2,0-0.4,0-0.4c0-0.1,0-0.2-0.1-0.2
			c-0.1,0-0.2-0.1-0.5-0.1c-0.1,0-0.1-0.1-0.1-0.2c0,0,0-0.1,0-0.2c0.1,0,0.2,0,0.3,0c0.1,0,0.2,0,0.3,0c0.1,0,0.2,0,0.3,0
			s0.2,0,0.2,0c0.1,0,0.2,0,0.3,0c0.1,0,0.1,0,0.2,0c0,0,0.1,0,0.1,0.1c0,0,0,0.1,0,0.1l2.1,5L192,154.9z"/>
		<path fill="#191166" d="M202.4,157.9c0-0.5,0.1-0.9,0.2-1.3c0.2-0.4,0.4-0.8,0.7-1.1s0.6-0.5,1-0.7c0.4-0.2,0.8-0.3,1.2-0.3
			c0.6,0,1.1,0.1,1.5,0.3c0.4,0.2,0.8,0.4,1.1,0.7c0.3,0.3,0.5,0.7,0.6,1.1c0.1,0.4,0.2,0.8,0.2,1.3c0,0.5-0.1,1-0.3,1.4
			s-0.4,0.8-0.7,1.1s-0.7,0.5-1.1,0.7c-0.4,0.2-0.8,0.2-1.3,0.2c-0.5,0-0.9-0.1-1.3-0.2c-0.4-0.2-0.7-0.4-1-0.7
			c-0.3-0.3-0.5-0.7-0.7-1.1S202.4,158.4,202.4,157.9z M205.8,160.8c0.3,0,0.6-0.1,0.9-0.2s0.5-0.3,0.7-0.5c0.2-0.2,0.3-0.5,0.4-0.8
			c0.1-0.3,0.2-0.6,0.2-1c0-0.5,0-0.9-0.1-1.3s-0.3-0.8-0.5-1.1c-0.2-0.3-0.5-0.5-0.8-0.7c-0.3-0.2-0.7-0.3-1.1-0.3
			c-0.3,0-0.5,0.1-0.8,0.2c-0.2,0.1-0.5,0.3-0.7,0.5c-0.2,0.2-0.3,0.4-0.5,0.7c-0.1,0.3-0.2,0.6-0.2,1c0,0.5,0.1,1,0.2,1.4
			c0.1,0.4,0.3,0.8,0.5,1.1c0.2,0.3,0.5,0.6,0.8,0.7C205.1,160.7,205.5,160.8,205.8,160.8z"/>
		<path fill="#191166" d="M224.2,157.9c0,0.4-0.1,0.8-0.2,1.2s-0.3,0.7-0.6,1c-0.3,0.3-0.6,0.6-1,0.8c-0.4,0.2-0.9,0.3-1.5,0.3h-2
			c-0.2,0-0.4,0-0.6,0c-0.2,0-0.4,0-0.6,0c0-0.1,0-0.1,0-0.2c0-0.1,0-0.1,0.1-0.2c0.2-0.1,0.4-0.1,0.5-0.2c0.1-0.1,0.2-0.1,0.2-0.3
			v-5.1c0-0.1,0-0.2-0.1-0.3c-0.1-0.1-0.3-0.1-0.5-0.1c0,0-0.1,0-0.1-0.1c0,0,0-0.1,0-0.1s0-0.1,0-0.2c0.1,0,0.3,0,0.4,0
			c0.1,0,0.2,0,0.3,0c0.1,0,0.2,0,0.3,0s0.2,0,0.3,0h2c0.6,0,1.1,0.1,1.5,0.3c0.4,0.2,0.8,0.4,1.1,0.7c0.3,0.3,0.5,0.6,0.6,1
			C224.1,157.1,224.2,157.5,224.2,157.9z M223.1,158.1c0-1-0.3-1.8-0.8-2.3c-0.5-0.5-1.3-0.7-2.2-0.7h-0.9v5.3c0,0.1,0,0.1,0,0.2
			c0,0,0.1,0.1,0.2,0.1c0.1,0,0.2,0,0.3,0.1c0.1,0,0.3,0,0.5,0c0.5,0,0.9-0.1,1.3-0.2c0.4-0.1,0.6-0.3,0.9-0.5
			c0.2-0.2,0.4-0.5,0.5-0.8C223.1,158.9,223.1,158.5,223.1,158.1z"/>
		<path fill="#191166" d="M234.4,160.5c0,0.1,0,0.2,0.1,0.3c0.1,0,0.3,0.1,0.5,0.2c0.1,0,0.1,0.1,0.1,0.2c0,0,0,0.1,0,0.2
			c-0.2,0-0.4,0-0.6,0c-0.2,0-0.4,0-0.6,0c-0.2,0-0.4,0-0.6,0c-0.2,0-0.4,0-0.6,0c0-0.1,0-0.1,0-0.2c0-0.1,0-0.1,0.1-0.2
			c0.3,0,0.4-0.1,0.5-0.2c0.1-0.1,0.1-0.1,0.1-0.3v-5.1c0-0.1,0-0.2-0.1-0.3c-0.1-0.1-0.3-0.1-0.5-0.1c0,0-0.1,0-0.1-0.1
			c0,0,0-0.1,0-0.1s0-0.1,0-0.2c0.2,0,0.4,0,0.6,0c0.2,0,0.4,0,0.6,0c0.2,0,0.4,0,0.6,0c0.2,0,0.4,0,0.6,0c0,0.1,0,0.1,0,0.2
			c0,0.1,0,0.2-0.1,0.2c-0.3,0-0.4,0.1-0.5,0.1c-0.1,0.1-0.1,0.2-0.1,0.3V160.5z"/>
		<path fill="#191166" d="M246.9,155.1v5.3c0,0.2,0.1,0.3,0.2,0.3c0.1,0.1,0.3,0.1,0.6,0.1c0.1,0,0.1,0.1,0.1,0.2c0,0,0,0.1,0,0.2
			c-0.2,0-0.4,0-0.7,0c-0.2,0-0.5,0-0.7,0c-0.2,0-0.5,0-0.7,0c-0.2,0-0.5,0-0.7,0c0-0.1,0-0.1,0-0.2c0-0.1,0-0.1,0.1-0.2
			c0.3,0,0.5-0.1,0.7-0.1c0.1-0.1,0.2-0.2,0.2-0.3v-5.3h-1c-0.2,0-0.4,0-0.5,0.1c-0.1,0-0.3,0.1-0.4,0.2c-0.1,0.1-0.2,0.2-0.3,0.3
			s-0.2,0.3-0.2,0.4c0,0,0,0.1-0.1,0.1c0,0-0.1,0-0.1,0c-0.1,0-0.1,0-0.2-0.1c0.1-0.2,0.1-0.5,0.2-0.6s0.1-0.3,0.1-0.5
			s0.1-0.2,0.1-0.3s0.1-0.1,0.1-0.1c0,0,0.1,0,0.2,0s0.2,0,0.3,0c0.1,0,0.2,0,0.3,0s0.2,0,0.3,0h3.3c0.1,0,0.2,0,0.3,0
			c0.1,0,0.2,0,0.3,0c0.1,0,0.2,0,0.3,0s0.2,0,0.2,0c0.1,0,0.1,0,0.1,0.1c0,0.1,0.1,0.2,0.1,0.3c0,0.1,0.1,0.3,0.1,0.5
			c0,0.2,0.1,0.4,0.2,0.6c0,0-0.1,0-0.1,0c0,0-0.1,0-0.1,0c0,0-0.1,0-0.1,0c0,0-0.1,0-0.1-0.1c-0.1-0.2-0.1-0.3-0.2-0.4
			s-0.2-0.2-0.3-0.3s-0.2-0.1-0.3-0.2s-0.3-0.1-0.5-0.1H246.9z"/>
		<path fill="#191166" d="M259.4,160.5c0,0.1,0,0.2,0.1,0.3c0.1,0,0.3,0.1,0.5,0.2c0.1,0,0.1,0.1,0.1,0.2c0,0,0,0.1,0,0.2
			c-0.2,0-0.4,0-0.6,0c-0.2,0-0.4,0-0.6,0c-0.2,0-0.4,0-0.6,0c-0.2,0-0.4,0-0.6,0c0-0.1,0-0.1,0-0.2c0-0.1,0-0.1,0.1-0.2
			c0.3,0,0.4-0.1,0.5-0.2c0.1-0.1,0.1-0.1,0.1-0.3v-5.1c0-0.1,0-0.2-0.1-0.3c-0.1-0.1-0.3-0.1-0.5-0.1c0,0-0.1,0-0.1-0.1
			c0,0,0-0.1,0-0.1s0-0.1,0-0.2c0.2,0,0.4,0,0.6,0c0.2,0,0.4,0,0.6,0c0.2,0,0.4,0,0.6,0c0.2,0,0.4,0,0.6,0c0,0.1,0,0.1,0,0.2
			c0,0.1,0,0.2-0.1,0.2c-0.3,0-0.4,0.1-0.5,0.1c-0.1,0.1-0.1,0.2-0.1,0.3V160.5z"/>
		<path fill="#191166" d="M270.5,155.1v2.6h1.6c0.1,0,0.2-0.1,0.3-0.2c0.1-0.1,0.1-0.3,0.1-0.5c0-0.1,0.1-0.1,0.2-0.1c0,0,0,0,0.1,0
			c0,0,0.1,0,0.1,0c0,0.1,0,0.3,0,0.5s0,0.3,0,0.5c0,0.1,0,0.3,0,0.4c0,0.2,0,0.3,0,0.6c-0.1,0-0.1,0-0.2,0c-0.1,0-0.2,0-0.2-0.1
			c0-0.2-0.1-0.3-0.1-0.5s-0.2-0.2-0.3-0.2h-1.6v2.4c0,0.1,0.1,0.2,0.3,0.3c0.2,0,0.5,0.1,0.9,0.1h0.5c0.2,0,0.4,0,0.5-0.1
			s0.3-0.1,0.4-0.2c0.1-0.1,0.2-0.2,0.3-0.3c0.1-0.1,0.2-0.3,0.2-0.4c0,0,0.1-0.1,0.2-0.1c0,0,0.1,0,0.1,0c0,0,0.1,0,0.1,0.1
			c-0.1,0.1-0.1,0.3-0.2,0.5c0,0.2-0.1,0.3-0.1,0.5s-0.1,0.3-0.1,0.4c0,0.1-0.1,0.2-0.2,0.2c-0.1,0-0.1,0-0.2,0c-0.1,0-0.2,0-0.3,0
			c-0.1,0-0.2,0-0.4,0c-0.1,0-0.2,0-0.3,0H270c-0.2,0-0.4,0-0.6,0c-0.2,0-0.4,0-0.6,0c0-0.1,0-0.1,0-0.2c0-0.1,0-0.1,0.1-0.2
			c0.3,0,0.4-0.1,0.5-0.2c0.1-0.1,0.2-0.1,0.2-0.3v-5.1c0-0.1,0-0.2-0.1-0.3c-0.1,0-0.3-0.1-0.6-0.2c-0.1,0-0.1-0.1-0.1-0.2
			c0,0,0-0.1,0-0.1c0,0,0,0,0-0.1c0.3,0,0.5,0,0.7,0s0.4,0,0.5,0h2c0.3,0,0.6,0,0.8,0c0.2,0,0.4,0,0.4,0c0.1,0,0.1,0.1,0.2,0.2
			c0,0.1,0.1,0.2,0.1,0.4c0,0.2,0,0.3,0.1,0.5c0,0.2,0.1,0.3,0.1,0.4c-0.1,0-0.1,0.1-0.2,0.1c-0.1,0-0.1,0-0.2-0.1
			c-0.1-0.2-0.2-0.3-0.2-0.4s-0.2-0.2-0.3-0.3s-0.2-0.1-0.3-0.2s-0.3-0.1-0.5-0.1H270.5z"/>
		<path fill="#191166" d="M286.6,156.2c-0.1,0-0.1,0-0.2,0c-0.1,0-0.2,0-0.2,0s-0.1-0.1-0.1-0.1c-0.2-0.4-0.4-0.7-0.6-0.8
			c-0.2-0.2-0.6-0.3-1-0.3c-0.2,0-0.3,0-0.5,0.1c-0.1,0-0.3,0.1-0.4,0.2c-0.1,0.1-0.2,0.2-0.3,0.3c-0.1,0.1-0.1,0.3-0.1,0.4
			c0,0.3,0.1,0.6,0.4,0.8c0.3,0.2,0.7,0.4,1.2,0.6c0.6,0.3,1.1,0.5,1.4,0.8c0.3,0.3,0.5,0.7,0.5,1.1c0,0.3,0,0.5-0.1,0.8
			c-0.1,0.2-0.2,0.4-0.4,0.6c-0.2,0.2-0.4,0.3-0.7,0.4c-0.3,0.1-0.6,0.2-1,0.2c-0.4,0-0.8,0-1.1-0.1c-0.3-0.1-0.6-0.2-0.9-0.3
			c0-0.3,0-0.6-0.1-0.8s-0.1-0.5-0.1-0.8c0,0,0.1,0,0.2,0c0.1,0,0.1,0,0.2,0.1c0,0,0.1,0.1,0.1,0.2c0.2,0.5,0.4,0.8,0.6,1.1
			c0.3,0.2,0.6,0.3,1.1,0.3c0.2,0,0.4,0,0.6-0.1c0.2-0.1,0.3-0.1,0.4-0.2s0.2-0.2,0.2-0.4c0.1-0.1,0.1-0.3,0.1-0.4
			c0-0.3-0.1-0.6-0.4-0.8s-0.6-0.4-1-0.5c-0.3-0.1-0.5-0.2-0.8-0.3c-0.2-0.1-0.4-0.3-0.6-0.4c-0.2-0.2-0.3-0.3-0.4-0.5
			c-0.1-0.2-0.1-0.4-0.1-0.7c0-0.2,0-0.5,0.1-0.7c0.1-0.2,0.2-0.4,0.4-0.6s0.4-0.3,0.6-0.4c0.2-0.1,0.5-0.1,0.8-0.1
			c0.3,0,0.6,0,0.9,0.1c0.3,0.1,0.6,0.2,1,0.3c0,0.2,0,0.4,0.1,0.6C286.6,155.8,286.6,156,286.6,156.2z"/>
	</g>
	<g>
		<path fill="#8B731F" d="M129.8,107.1c-5.1,0-10-0.3-14.8-0.9c0,0.4,0,0.8,0,1.1C119.8,107.6,124.6,107.5,129.8,107.1z"/>
		<path fill="#8B731F" d="M143.3,104.7c-9.5,0.1-18.7-1-28.2-2.5c0,0.6,0,1.3,0,1.9C124.6,105.1,133.7,105.6,143.3,104.7z"/>
		<path fill="#8B731F" d="M120.6,108.9c-1.9,0-3.7,0-5.6-0.1c0,0.1,0,0.3,0,0.4C116.9,109.2,118.7,109.1,120.6,108.9z"/>
		<path fill="#8B731F" d="M126.8,102.6c12.3-0.7,23.5,0.4,30-0.1C151.2,102,137.8,100.7,126.8,102.6z"/>
		<path fill="#8B731F" d="M120.4,101.7c23.1-1.8,37.5,0.1,48.2,0.1C161,100.9,139.6,98.3,120.4,101.7z"/>
		<path fill="#8B731F" d="M133.1,103.6c1.5,0.4,9.6,0.6,11.8-0.2C141.4,103.1,136.1,103.1,133.1,103.6z"/>
		<path fill="#8B731F" d="M115.1,100.1c0,0.1,0,0.1,0,0.2c32.5-2.6,50.7,0.3,65.4,0.6C171,99.8,141.7,95.9,115.1,100.1z"/>
		<path fill="#8B731F" d="M192.3,100c-10.6-1.2-44.8-6-77.2-2.5c0,0.2,0,0.5,0,0.7C152.8,95.8,174.7,99.4,192.3,100z"/>
		<path fill="#8B731F" d="M169.2,118.2c30.9-4.7,56.4-1.3,78.2-2.3C229,115.5,196.2,110.8,169.2,118.2z"/>
		<path fill="#8B731F" d="M132.3,118.1c56.8-14.9,114.8-5.2,139-7.1C248.5,111,179.5,100.3,132.3,118.1z"/>
		<path fill="#8B731F" d="M187.6,118.3c18,0.4,26.8,0.6,47.4,0.2C218.8,117.8,204.5,116,187.6,118.3z"/>
		<path fill="#8B731F" d="M150.7,118.2c43.8-9.8,86-3.3,109-4.7C239.1,113.3,187.8,105.6,150.7,118.2z"/>
		<path fill="#8B731F" d="M295.2,106.1c-24.7,0.3-113.5-13.3-180.1,5.3c0,0.5,0,1,0,1.6C191.9,95.4,270.6,108.8,295.2,106.1z"/>
		<path fill="#8B731F" d="M282,108.5c-24.8,0.2-109.7-13.3-167,9.1c0,0,0,0.1,0,0.1C184.4,98.3,256.7,111,282,108.5z"/>
		<path fill="#8B731F" d="M317.3,117c0-0.4,0-0.8,0-1.3c-3.5,0.8-7,1.7-10.5,2.6C310.1,118.1,313.6,117.6,317.3,117z"/>
		<path fill="#8B731F" d="M244.8,119c18.5-2.4,41.6-8.9,72.3-13.7c0-0.7,0-1.5,0-2.2C294.6,106.3,270.9,111.6,244.8,119z"/>
		<path fill="#8B731F" d="M265.5,118.8c14-1.7,30.6-5.9,51.7-9.6c0-0.7,0-1.5,0-2.2C300.9,109.7,283.8,113.7,265.5,118.8z"/>
		<path fill="#8B731F" d="M317.2,113.2c0-0.7,0-1.4,0-2.1c-9.9,2-20.2,4.5-31.1,7.4C295.2,117.6,305.3,115.5,317.2,113.2z"/>
		<path fill="#8B731F" d="M244.2,102c33.8-2.7,47.8-1,64.7-1.1C297.1,99.9,272.7,97.2,244.2,102z"/>
		<path fill="#8B731F" d="M282.9,104.1c2,0.4,12.9,0.7,15.9-0.2C294.1,103.6,286.9,103.6,282.9,104.1z"/>
		<path fill="#8B731F" d="M263.5,103c17.9-1.2,30.3-0.2,40.3-0.6C295.6,101.8,279.8,100.4,263.5,103z"/>
		<path fill="#8B731F" d="M224.8,100.9c49.6-4.3,65.2-1.8,89.1-1.5C298.6,98.1,265.7,93.9,224.8,100.9z"/>
		<path fill="#8B731F" d="M205.5,99.8c64.1-5.7,81.9-2.8,111.5-2c0,0,0-0.1,0-0.1C297.3,95.9,256.8,91,205.5,99.8z"/>
		<path fill="#8B731F" d="M136.6,94.4c56.7-5.3,74.5-1.9,99.2-0.8C220.7,91.9,184.7,86.1,136.6,94.4L136.6,94.4z M149.1,95.3
			c43.1-3.8,60-1.2,79.4-0.5C215.7,93.4,186.4,89,149.1,95.3z M161.6,96.2c29.6-2.4,45.4-0.5,59.6-0.3
			C210.7,94.8,188.1,91.8,161.6,96.2z M186.5,98c2.5,0.4,16.4,0.9,20.1,0.2C200.7,97.7,191.6,97.6,186.5,98z M174,97.1
			c16-1,30.9,0.2,39.9-0.1C205.7,96.3,189.9,94.7,174,97.1z"/>
	</g>
	<g>
		<g>
			<g>
				<path fill="#8B731F" d="M220.4,101.6c-0.7-0.7-0.8-1.7-0.8-1.7l1.1-0.2c-2.6-2.8-3.2-9.8-3.2-9.8l6.3-7.5
					c1.6-0.1,1.4-0.2,1.4-0.2l-1.2,0l0.5-0.8c-0.2,0-0.8,0.8-0.8,0.8c-0.4-0.3-5.4-0.1-5.4-0.1c-0.7-3.1-3.7-6.4-3.7-6.4l-0.9,0.7
					c-5.5,1.3-8.3,6.3-8.3,6.3l-3.6-0.2c-1.2-1.5-0.4,0.1-0.4,0.1c-2.2,0.3,0.2,0.5,0.2,0.5l4.5,8.4c0,0-0.4,5.6-2.1,7.2
					c-1.8,1.6,0.2,1.3,0.2,1.3l-0.2,2.2l0.1,0.6l13.2,0.3l5.1,0.8l5.6,0L220.4,101.6z M206.2,90.6c0,0-2.3-3.6-4.4-7.6l3.4,0.1
					c0,0-0.2,0.3-0.1,1.1l-0.8,0c0,0-0.6-1.2-0.2,0c0,0-0.7-0.1-0.5,0.2l0.6,0.1c0,0,1.3,2.6,2.1,3.7L206.2,90.6z M206.5,87.5
					c0,0-1.3-1.7-1.9-3.1l2.2,0.1L206.5,87.5z M217.2,84.7c0.5,0,1.5-0.6,1.5-0.6c0.3-0.1-0.3-1.6-0.3-1.6c2.1-0.4,5,0,5,0
					c-1.6,1.6-6,6.8-6,6.8C217.2,88.2,217.2,84.7,217.2,84.7z"/>
			</g>
		</g>
		<g>
			<path fill="#8B731F" d="M213.9,76.5c0,0.1-0.1,0.2-0.2,0.2l0,0c-0.1,0-0.2-0.1-0.2-0.2l-1-18.5c0-0.1,0.1-0.2,0.2-0.2l0,0
				c0.1,0,0.2,0.1,0.2,0.2L213.9,76.5z"/>
			<g>
				<g>
					<path fill="#8B731F" d="M217.7,59.3l-3.7-0.9c-0.2-0.8-0.6-0.7-0.6-0.7l0.1,0.6l-0.4-0.2l1,18.3l4.5,0.7
						C218,74.6,217.7,59.3,217.7,59.3z M213.1,58.6l0.4,0l0,0.4l-0.4,0L213.1,58.6z M213.1,59.2l0.4,0l0,0.6l-0.4,0L213.1,59.2z
						 M213.2,60.1l0.4,0l0,0.6l-0.4,0L213.2,60.1z M213.3,61.7l0-0.6l0.4,0l0,0.6L213.3,61.7z M218,71.5l-0.1,0.5l-1.3-0.2l0.1-0.5
						L218,71.5z M217.9,71.3l-1.3-0.2l0.1-0.5l1.3,0.2L217.9,71.3z M217.8,70.5l-1.3-0.2l0.1-0.5l1.3,0.2L217.8,70.5z M217.8,69.6
						l-1.3-0.2l0.1-0.5l1.3,0.2L217.8,69.6z M217.8,68.8l-1.3-0.2l0.1-0.5l1.3,0.2L217.8,68.8z M217.8,68l-1.3-0.2l0.1-0.5l1.3,0.2
						L217.8,68z M217.7,67.2l-1.3-0.2l0.1-0.5l1.3,0.2L217.7,67.2z M217.7,66.4l-1.3-0.2l0.1-0.5l1.3,0.2L217.7,66.4z M215.2,65.3
						l1.1,0.2l-0.1,0.5l-1.1-0.2L215.2,65.3z M215.1,65.1l0.1-0.5l1.1,0.2l-0.1,0.5L215.1,65.1z M215.2,66.1l1.1,0.2l-0.1,0.5
						l-1.1-0.2L215.2,66.1z M215.3,67l1.1,0.2l-0.1,0.5l-1.1-0.2L215.3,67z M215.3,67.7l1.1,0.2l-0.1,0.5l-1.1-0.2L215.3,67.7z
						 M215.3,68.5l1.1,0.2l-0.1,0.5l-1.1-0.2L215.3,68.5z M215.3,69.4l1.1,0.2l-0.1,0.5l-1.1-0.2L215.3,69.4z M215.3,70.2l1.1,0.2
						l-0.1,0.5l-1.1-0.2L215.3,70.2z M215.4,70.9l1.1,0.2l-0.1,0.5l-1.1-0.2L215.4,70.9z M215.4,71.8l1.1,0.2l-0.1,0.5l-1.1-0.2
						L215.4,71.8z M217.7,65.6l-1.3-0.2l0.1-0.5l1.3,0.2L217.7,65.6z M217.7,64.7l-1.3-0.2l0.1-0.5l1.3,0.2L217.7,64.7z M217.6,64
						l-1.3-0.2l0.1-0.5l1.3,0.2L217.6,64z M217.7,62.8l-0.1,0.5l-1.3-0.2l0.1-0.5L217.7,62.8z M217.6,62.4l-1.3-0.2l0.1-0.5l1.3,0.2
						L217.6,62.4z M217.6,61.6l-1.3-0.2l0.1-0.5l1.3,0.2L217.6,61.6z M217.6,60.8l-1.3-0.2l0.1-0.5l1.3,0.2L217.6,60.8z M216.3,59.2
						l1.3,0.2l-0.1,0.5l-1.3-0.2L216.3,59.2z M216.1,64.4l-1.1-0.2l0.1-0.5l1.1,0.2L216.1,64.4z M216.1,63.7l-1.1-0.2l0.1-0.5
						l1.1,0.2L216.1,63.7z M216.1,62.9l-1.1-0.2l0.1-0.5l1.1,0.2L216.1,62.9z M216,62l-1.1-0.2l0.1-0.5l1.1,0.2L216,62z M216,61.3
						l-1.1-0.2l0.1-0.5l1.1,0.2L216,61.3z M216,60.5l-1.1-0.2l0.1-0.5l1.1,0.2L216,60.5z M215,58.9l1.1,0.2l-0.1,0.5l-1.1-0.2
						L215,58.9z M214,58.6l0.8,0.2l-0.1,0.5l-0.8-0.2L214,58.6z M214,59.5l0.8,0.2l-0.1,0.5l-0.8-0.2L214,59.5z M214,60.3l0.8,0.2
						l-0.1,0.5l-0.8-0.2L214,60.3z M213.9,61.6L214,61l0.8,0.2l-0.1,0.5L213.9,61.6z M214.1,61.9l0.8,0.2l-0.1,0.5l-0.8-0.2
						L214.1,61.9z M214.1,62.7l0.8,0.2l-0.1,0.5l-0.8-0.2L214.1,62.7z M214.1,63.4l0.8,0.2l-0.1,0.5l-0.8-0.2L214.1,63.4z
						 M214.2,64.3l0.8,0.2l-0.1,0.5l-0.8-0.2L214.2,64.3z M214.2,65.1l0.8,0.2l-0.1,0.5l-0.8-0.2L214.2,65.1z M214.2,65.8L215,66
						l-0.1,0.5l-0.8-0.2L214.2,65.8z M214.2,66.7l0.8,0.2l-0.1,0.5l-0.8-0.2L214.2,66.7z M214.2,67.5l0.8,0.2l-0.1,0.5l-0.8-0.2
						L214.2,67.5z M214.3,68.3l0.8,0.2L215,69l-0.8-0.2L214.3,68.3z M214.3,69.1l0.8,0.2l-0.1,0.5l-0.8-0.2L214.3,69.1z M214.3,69.9
						l0.8,0.2l-0.1,0.5l-0.8-0.2L214.3,69.9z M214.3,70.7l0.8,0.2l-0.1,0.5l-0.8-0.2L214.3,70.7z M214.3,71.6l0.8,0.2l-0.1,0.5
						l-0.8-0.2L214.3,71.6z M214.4,72.4l0.8,0.2l-0.1,0.5l-0.8-0.2L214.4,72.4z M214.4,73.2l0.8,0.2l-0.1,0.5l-0.8-0.2L214.4,73.2z
						 M214.4,73.9l0.8,0.2l-0.1,0.5l-0.8-0.2L214.4,73.9z M214.5,74.8l0.8,0.2l-0.1,0.5l-0.8-0.2L214.5,74.8z M215.2,76.3l-0.8-0.2
						l0.1-0.5l0.8,0.2L215.2,76.3z M215.4,72.6l1.1,0.2l-0.1,0.5l-1.1-0.2L215.4,72.6z M215.5,73.4l1.1,0.2l-0.1,0.5l-1.1-0.2
						L215.5,73.4z M215.5,74.2l1.1,0.2l-0.1,0.5l-1.1-0.2L215.5,74.2z M215.5,75.1l1.1,0.2l-0.1,0.5l-1.1-0.2L215.5,75.1z
						 M216.5,76.6l-1.1-0.2l0.1-0.5l1.1,0.2L216.5,76.6z M216.7,72.2l1.3,0.2l-0.1,0.5l-1.3-0.2L216.7,72.2z M216.7,73l1.3,0.2
						l-0.1,0.5l-1.3-0.2L216.7,73z M216.8,73.8l1.3,0.2l-0.1,0.5l-1.3-0.2L216.8,73.8z M216.8,74.5l1.3,0.2l-0.1,0.5l-1.3-0.2
						L216.8,74.5z M216.8,75.4l1.3,0.2l-0.1,0.5l-1.3-0.2L216.8,75.4z M216.7,76.7l0.1-0.5l1.3,0.2l-0.1,0.5L216.7,76.7z"/>
				</g>
			</g>
		</g>
		<g>
			<path fill="#8B731F" d="M215.7,78.9c-0.1,0-0.2-0.2-0.2-0.4l0,0c0-0.2,0.1-0.4,0.2-0.4l21-0.1c0.1,0,0.2,0.2,0.2,0.4l0,0
				c0,0.2-0.1,0.4-0.2,0.4L215.7,78.9z"/>
			<g>
				<g>
					<path fill="#8B731F" d="M236.3,79.2l0.2-0.4l-18.3,0.1l-0.9,4.4c2.6-0.2,17.9,0.1,17.9,0.1l1-3.7c0.8-0.2,0.8-0.5,0.8-0.5
						L236.3,79.2z M235.5,78.9l0,0.4l-0.6,0l0-0.4L235.5,78.9z M235.2,79.8l-0.2,0.8l-0.5-0.1l0.2-0.8L235.2,79.8z M234.4,80.7
						l0.5,0.1l-0.2,1l-0.5-0.1L234.4,80.7z M233.9,81.8l-0.5-0.1l0.2-1l0.5,0.1L233.9,81.8z M234.6,78.9l0,0.4l-0.6,0l0-0.4
						L234.6,78.9z M233.9,79.6l0.5,0.1l-0.2,0.8l-0.5-0.1L233.9,79.6z M233.7,78.9l0,0.4l-0.6,0l0-0.4L233.7,78.9z M233.1,79.6
						l0.5,0.1l-0.2,0.8l-0.5-0.1L233.1,79.6z M233.3,80.7l-0.2,1l-0.5-0.1l0.2-1L233.3,80.7z M232.2,79.6l0.5,0.1l-0.2,0.8l-0.5-0.1
						L232.2,79.6z M231.9,80.6l0.5,0.1l-0.2,1l-0.5-0.1L231.9,80.6z M231.4,81.8l-0.5-0.1l0.2-1l0.5,0.1L231.4,81.8z M232,79.7
						l-0.2,0.8l-0.5-0.1l0.2-0.8L232,79.7z M230.8,79.6l0.5,0.1l-0.2,0.8l-0.5-0.1L230.8,79.6z M231,80.7l-0.2,1l-0.5-0.1l0.2-1
						L231,80.7z M229.9,79.6l0.5,0.1l-0.2,0.8l-0.5-0.1L229.9,79.6z M229.6,80.6l0.5,0.1l-0.2,1l-0.5-0.1L229.6,80.6z M229.1,81.7
						l-0.5-0.1l0.2-1l0.5,0.1L229.1,81.7z M229.1,79.5l0.5,0.1l-0.2,0.8l-0.5-0.1L229.1,79.5z M228.3,79.5l0.5,0.1l-0.2,0.8
						l-0.5-0.1L228.3,79.5z M228.6,80.7l-0.2,1l-0.5-0.1l0.2-1L228.6,80.7z M227.4,79.5l0.5,0.1l-0.2,0.8l-0.5-0.1L227.4,79.5z
						 M227.1,80.5l0.5,0.1l-0.2,1l-0.5-0.1L227.1,80.5z M226.6,81.7l-0.5-0.1l0.2-1l0.5,0.1L226.6,81.7z M226.7,79.5l0.5,0.1
						l-0.2,0.8l-0.5-0.1L226.7,79.5z M225.9,79.5l0.5,0.1l-0.2,0.8l-0.5-0.1L225.9,79.5z M226.1,80.6l-0.2,1l-0.5-0.1l0.2-1
						L226.1,80.6z M225,79.5l0.5,0.1l-0.2,0.8l-0.5-0.1L225,79.5z M224.7,80.5l0.5,0.1l-0.2,1l-0.5-0.1L224.7,80.5z M224.2,81.6
						l-0.5-0.1l0.2-1l0.5,0.1L224.2,81.6z M224.2,79.4l0.5,0.1l-0.2,0.8l-0.5-0.1L224.2,79.4z M223.5,79.4l0.5,0.1l-0.2,0.8
						l-0.5-0.1L223.5,79.4z M223.7,80.6l-0.2,1l-0.5-0.1l0.2-1L223.7,80.6z M222.6,79.4l0.5,0.1l-0.2,0.8l-0.5-0.1L222.6,79.4z
						 M222.3,80.4l0.5,0.1l-0.2,1l-0.5-0.1L222.3,80.4z M221.8,81.6l-0.5-0.1l0.2-1l0.5,0.1L221.8,81.6z M221.8,79.4l0.5,0.1
						l-0.2,0.8l-0.5-0.1L221.8,79.4z M221,79.4l0.5,0.1l-0.2,0.8l-0.5-0.1L221,79.4z M221.2,80.6l-0.2,1l-0.5-0.1l0.2-1L221.2,80.6z
						 M220.2,79.4l0.5,0.1l-0.2,0.8l-0.5-0.1L220.2,79.4z M220.5,80.5l-0.2,1l-0.5-0.1l0.2-1L220.5,80.5z M219.3,79.4l0.5,0.1
						l-0.2,0.8l-0.5-0.1L219.3,79.4z M219.6,80.5l-0.2,1l-0.5-0.1l0.2-1L219.6,80.5z M218.5,79.3l0.5,0.1l-0.2,0.8l-0.5-0.1
						L218.5,79.3z M218.2,80.4l0.5,0.1l-0.2,1l-0.5-0.1L218.2,80.4z M217.6,83l0.3-1.3l0.5,0.1l-0.3,1.3L217.6,83z M218.9,83.1
						l-0.5-0.1l0.3-1.3l0.5,0.1L218.9,83.1z M219.3,83l0.3-1.3l0.5,0.1l-0.3,1.3L219.3,83z M220.5,83.1L220,83l0.3-1.3l0.5,0.1
						L220.5,83.1z M220.8,83l0.3-1.3l0.5,0.1l-0.3,1.3L220.8,83z M222.1,83.1l-0.5-0.1l0.3-1.3l0.5,0.1L222.1,83.1z M222.5,83
						l0.3-1.3l0.5,0.1l-0.3,1.3L222.5,83z M223.3,83l0.3-1.3l0.5,0.1l-0.3,1.3L223.3,83z M224.5,83.2l-0.5-0.1l0.3-1.3l0.5,0.1
						L224.5,83.2z M224.9,83.1l0.3-1.3l0.5,0.1l-0.3,1.3L224.9,83.1z M225.7,83.1l0.3-1.3l0.5,0.1l-0.3,1.3L225.7,83.1z M227,83.2
						l-0.5-0.1l0.3-1.3l0.5,0.1L227,83.2z M227.4,83.1l0.3-1.3l0.5,0.1l-0.3,1.3L227.4,83.1z M228.1,83.1l0.3-1.3l0.5,0.1l-0.3,1.3
						L228.1,83.1z M229.4,83.3l-0.5-0.1l0.3-1.3l0.5,0.1L229.4,83.3z M229.8,83.2l0.3-1.3l0.5,0.1l-0.3,1.3L229.8,83.2z M230.5,83.2
						l0.3-1.3l0.5,0.1l-0.3,1.3L230.5,83.2z M231.8,83.3l-0.5-0.1l0.3-1.3l0.5,0.1L231.8,83.3z M232.1,83.2l0.3-1.3l0.5,0.1
						l-0.3,1.3L232.1,83.2z M232.9,83.2l0.3-1.3l0.5,0.1l-0.3,1.3L232.9,83.2z M234.2,83.3l-0.5-0.1l0.3-1.3l0.5,0.1L234.2,83.3z
						 M235.1,83.4l-0.5-0.1l0.3-1.3l0.5,0.1L235.1,83.4z M235.5,81.8l-0.5-0.1l0.2-1l0.5,0.1L235.5,81.8z M235.9,80.6l-0.5-0.1
						l0.2-0.8l0.5,0.1L235.9,80.6z M236.1,79.3l-0.4,0l0-0.4l0.4,0L236.1,79.3z"/>
				</g>
			</g>
		</g>
		<g>
			<path fill="#8B731F" d="M214.2,80c0.1,0,0.3,0.1,0.3,0.2l0,0c0,0.1-0.1,0.2-0.2,0.2l-22.3,1.4c-0.1,0-0.3-0.1-0.3-0.2l0,0
				c0-0.1,0.1-0.2,0.2-0.2L214.2,80z"/>
			<g>
				<g>
					<path fill="#8B731F" d="M193.2,76.7l-0.8,3.7c-0.8,0.2-0.8,0.6-0.8,0.6l0.7-0.1l-0.2,0.5l19.5-1.2l0.7-4.5
						C209.5,76.1,193.2,76.7,193.2,76.7z M210.5,76l0.5,0.1l-0.2,1.3l-0.5-0.1L210.5,76z M209.6,76.1l0.5,0.1l-0.2,1.3l-0.5-0.1
						L209.6,76.1z M208.8,76.1l0.5,0.1l-0.2,1.3l-0.5-0.1L208.8,76.1z M209,77.7l-0.2,1.1l-0.6-0.1l0.2-1.1L209,77.7z M207.9,76.1
						l0.5,0.1l-0.2,1.3l-0.5-0.1L207.9,76.1z M207.1,76.2l0.5,0.1l-0.2,1.3l-0.5-0.1L207.1,76.2z M206.2,76.2l0.5,0.1l-0.2,1.3
						l-0.5-0.1L206.2,76.2z M205.3,76.2l0.5,0.1l-0.2,1.3l-0.5-0.1L205.3,76.2z M205.5,77.9l-0.2,1.1l-0.6-0.1l0.2-1.1L205.5,77.9z
						 M204.5,76.3l0.5,0.1l-0.2,1.3l-0.5-0.1L204.5,76.3z M203.6,76.3l0.5,0.1l-0.2,1.3l-0.5-0.1L203.6,76.3z M202.7,76.3l0.5,0.1
						l-0.2,1.3l-0.5-0.1L202.7,76.3z M203,78l-0.2,1.1l-0.6-0.1l0.2-1.1L203,78z M201.9,76.4l0.5,0.1l-0.2,1.3l-0.5-0.1L201.9,76.4z
						 M201,76.4l0.5,0.1l-0.2,1.3l-0.5-0.1L201,76.4z M200.2,76.4l0.5,0.1l-0.2,1.3l-0.5-0.1L200.2,76.4z M200.4,78.1l-0.2,1.1
						l-0.6-0.1l0.2-1.1L200.4,78.1z M199.3,76.5l0.5,0.1l-0.2,1.3l-0.5-0.1L199.3,76.5z M198.9,76.6l-0.2,1.3l-0.5-0.1l0.2-1.3
						L198.9,76.6z M197.6,76.6l0.5,0.1l-0.2,1.3l-0.5-0.1L197.6,76.6z M197.8,78.2l-0.2,1.1l-0.6-0.1l0.2-1.1L197.8,78.2z
						 M196.8,76.6l0.5,0.1l-0.2,1.3l-0.5-0.1L196.8,76.6z M195.9,76.6l0.5,0.1l-0.2,1.3l-0.5-0.1L195.9,76.6z M195.1,76.7l0.5,0.1
						l-0.2,1.3l-0.5-0.1L195.1,76.7z M195.3,78.3l-0.2,1.1l-0.6-0.1l0.2-1.1L195.3,78.3z M194.2,76.7l0.5,0.1l-0.2,1.3L194,78
						L194.2,76.7z M194.4,78.3l-0.2,1.1l-0.6-0.1l0.2-1.1L194.4,78.3z M193.3,76.7l0.5,0.1l-0.2,1.3L193,78L193.3,76.7z M192.9,78.3
						l0.6,0.1l-0.2,1.1l-0.6-0.1L192.9,78.3z M192.5,81.3l0-0.4l0.4,0l0,0.4L192.5,81.3z M192.5,80.4l0.1-0.8l0.6,0.1l-0.1,0.8
						L192.5,80.4z M193.2,81.3l0-0.4l0.7,0l0,0.4L193.2,81.3z M193.4,80.4l0.1-0.8l0.6,0.1l-0.1,0.8L193.4,80.4z M194.1,81.2l0-0.4
						l0.7,0l0,0.4L194.1,81.2z M194.8,80.4l-0.6-0.1l0.1-0.8l0.6,0.1L194.8,80.4z M195.1,81.1l0-0.4l0.7,0l0,0.4L195.1,81.1z
						 M195.6,80.4l-0.6-0.1l0.1-0.8l0.6,0.1L195.6,80.4z M195.3,79.3l0.2-1.1l0.6,0.1l-0.2,1.1L195.3,79.3z M196.6,80.4l-0.6-0.1
						l0.1-0.8l0.6,0.1L196.6,80.4z M196.2,79.2l0.2-1.1l0.6,0.1l-0.2,1.1L196.2,79.2z M197.4,80.3l-0.6-0.1l0.1-0.8l0.6,0.1
						L197.4,80.3z M198.2,80.3l-0.6-0.1l0.1-0.8l0.6,0.1L198.2,80.3z M197.8,79.1l0.2-1.1l0.6,0.1l-0.2,1.1L197.8,79.1z M199.1,80.2
						l-0.6-0.1l0.1-0.8l0.6,0.1L199.1,80.2z M198.8,79.1l0.2-1.1l0.6,0.1l-0.2,1.1L198.8,79.1z M199.9,80.2l-0.6-0.1l0.1-0.8
						l0.6,0.1L199.9,80.2z M200.7,80.2l-0.6-0.1l0.1-0.8l0.6,0.1L200.7,80.2z M200.4,79l0.2-1.1l0.6,0.1l-0.2,1.1L200.4,79z
						 M201.7,80.1l-0.6-0.1l0.1-0.8l0.6,0.1L201.7,80.1z M201.3,79l0.2-1.1l0.6,0.1l-0.2,1.1L201.3,79z M202.5,80.1l-0.6-0.1
						l0.1-0.8l0.6,0.1L202.5,80.1z M203.3,80.1l-0.6-0.1l0.1-0.8l0.6,0.1L203.3,80.1z M203,78.9l0.2-1.1l0.6,0.1l-0.2,1.1L203,78.9z
						 M204.3,80l-0.6-0.1l0.1-0.8l0.6,0.1L204.3,80z M203.9,78.9l0.2-1.1l0.6,0.1l-0.2,1.1L203.9,78.9z M205.1,80l-0.6-0.1l0.1-0.8
						l0.6,0.1L205.1,80z M205.9,80l-0.6-0.1l0.1-0.8l0.6,0.1L205.9,80z M205.6,78.8l0.2-1.1l0.6,0.1l-0.2,1.1L205.6,78.8z
						 M206.9,79.9l-0.6-0.1l0.1-0.8l0.6,0.1L206.9,79.9z M206.5,78.8l0.2-1.1l0.6,0.1l-0.2,1.1L206.5,78.8z M207.7,79.9l-0.6-0.1
						l0.1-0.8l0.6,0.1L207.7,79.9z M207.4,78.8l0.2-1.1l0.6,0.1l-0.2,1.1L207.4,78.8z M208.6,79.8l-0.6-0.1l0.1-0.8l0.6,0.1
						L208.6,79.8z M209.4,79.8l-0.6-0.1l0.1-0.8l0.6,0.1L209.4,79.8z M209,78.7l0.2-1.1l0.6,0.1l-0.2,1.1L209,78.7z M210.3,79.8
						l-0.6-0.1l0.1-0.8l0.6,0.1L210.3,79.8z M210,78.6l0.2-1.1l0.6,0.1l-0.2,1.1L210,78.6z M211.2,79.7l-0.6-0.1l0.1-0.8l0.6,0.1
						L211.2,79.7z M211.4,78.7l-0.6-0.1l0.2-1.1l0.6,0.1L211.4,78.7z M211.2,77.3l0.2-1.3l0.5,0.1l-0.2,1.3L211.2,77.3z"/>
				</g>
			</g>
		</g>
	</g>
	<rect x="203.7" y="100" fill="#8B731F" width="16.4" height="0.4"/>
	<rect x="206.4" y="84.7" fill="#8B731F" width="11.2" height="0.3"/>
	<g>
		<path fill="#191166" d="M68.7,131.7v9.5c0,0.1,0,0.2,0,0.3c0,0.1,0.1,0.1,0.1,0.2c0.1,0.1,0.2,0.1,0.3,0.2c0.1,0,0.3,0.1,0.6,0.1
			c0.2,0,0.3,0.1,0.3,0.3c0,0,0,0.1,0,0.2c0,0.1,0,0.1,0,0.2c-0.4,0-0.8,0-1.2-0.1c-0.4,0-0.8,0-1.2,0c-0.3,0-0.7,0-1.2,0
			c-0.4,0-0.8,0-1.2,0.1c0,0,0-0.1,0-0.2c0-0.1,0-0.1,0-0.2c0-0.1,0-0.2,0-0.2s0.1-0.1,0.2-0.1c0.4-0.1,0.7-0.1,0.8-0.2
			c0.1-0.1,0.2-0.3,0.2-0.5v-9.5h-1.6c-0.3,0-0.6,0-0.9,0.1c-0.2,0.1-0.4,0.2-0.6,0.3c-0.2,0.1-0.3,0.3-0.5,0.5
			c-0.1,0.2-0.3,0.5-0.4,0.8c0,0.1-0.1,0.2-0.3,0.2c-0.1,0-0.2,0-0.3,0c-0.1,0-0.2-0.1-0.2-0.1c0.1-0.3,0.2-0.5,0.2-0.8
			c0.1-0.2,0.1-0.4,0.1-0.7c0-0.3,0.1-0.5,0.1-0.7s0.1-0.4,0.1-0.5c0-0.1,0.1-0.2,0.3-0.2c0.1,0,0.4,0,0.8,0.1
			c0.4,0,0.9,0.1,1.4,0.1h5.5c0.5,0,1,0,1.4-0.1c0.4,0,0.7-0.1,0.8-0.1c0.1,0,0.2,0.1,0.3,0.2c0,0.1,0.1,0.3,0.1,0.5
			s0.1,0.5,0.1,0.7c0,0.2,0.1,0.4,0.1,0.7c0.1,0.2,0.1,0.5,0.2,0.8c-0.1,0-0.1,0.1-0.2,0.1c-0.1,0-0.2,0-0.2,0
			c-0.1,0-0.2-0.1-0.3-0.2c-0.1-0.3-0.3-0.6-0.4-0.8c-0.1-0.2-0.3-0.4-0.5-0.5c-0.2-0.1-0.4-0.2-0.6-0.3c-0.2-0.1-0.5-0.1-0.8-0.1
			H68.7z"/>
		<path fill="#191166" d="M93.9,141.2c0,0.1,0,0.2,0,0.3s0.1,0.1,0.1,0.2c0.1,0.1,0.2,0.1,0.3,0.2s0.4,0.1,0.6,0.1
			c0.1,0,0.2,0.1,0.2,0.3c0,0,0,0.1,0,0.2c0,0.1,0,0.1,0,0.2c-0.4,0-0.8,0-1.2-0.1c-0.4,0-0.8,0-1.2,0c-0.3,0-0.7,0-1.2,0
			c-0.4,0-0.8,0-1.2,0.1c0,0,0-0.1,0-0.2s0-0.1,0-0.2c0-0.2,0.1-0.3,0.2-0.3c0.3,0,0.5-0.1,0.6-0.1s0.3-0.1,0.3-0.2
			c0.1-0.1,0.1-0.1,0.1-0.2s0-0.2,0-0.3V137h-4.9v4.2c0,0.1,0,0.2,0,0.3s0.1,0.1,0.1,0.2c0.1,0.1,0.2,0.1,0.3,0.2s0.4,0.1,0.6,0.1
			c0.1,0,0.2,0.1,0.2,0.3c0,0,0,0.1,0,0.2c0,0.1,0,0.1,0,0.2c-0.4,0-0.8,0-1.2-0.1c-0.4,0-0.8,0-1.2,0s-0.7,0-1.2,0
			c-0.4,0-0.8,0-1.2,0.1c0,0,0-0.1,0-0.2s0-0.1,0-0.2c0-0.2,0.1-0.3,0.2-0.3c0.3,0,0.5-0.1,0.6-0.1s0.3-0.1,0.3-0.2
			c0.1-0.1,0.1-0.1,0.1-0.2s0-0.2,0-0.3v-9c0-0.1,0-0.2,0-0.3c0-0.1-0.1-0.1-0.1-0.2c-0.1-0.1-0.2-0.1-0.3-0.2s-0.4-0.1-0.6-0.1
			c-0.1,0-0.2-0.1-0.2-0.3c0,0,0-0.1,0-0.2s0-0.1,0-0.2c0.4,0,0.8,0,1.2,0.1c0.4,0,0.8,0,1.2,0s0.7,0,1.2,0c0.4,0,0.9,0,1.2-0.1
			c0,0.1,0,0.1,0,0.2c0,0.1,0,0.1,0,0.2c0,0.2-0.1,0.3-0.2,0.3c-0.3,0-0.5,0.1-0.6,0.1s-0.3,0.1-0.3,0.2c-0.1,0.1-0.1,0.1-0.1,0.2
			c0,0.1,0,0.2,0,0.3v3.8h4.9v-3.8c0-0.1,0-0.2,0-0.3c0-0.1-0.1-0.1-0.1-0.2c-0.1-0.1-0.2-0.1-0.3-0.2s-0.4-0.1-0.6-0.1
			c-0.1,0-0.2-0.1-0.2-0.3c0,0,0-0.1,0-0.2s0-0.1,0-0.2c0.4,0,0.8,0,1.2,0.1c0.4,0,0.8,0,1.2,0c0.3,0,0.7,0,1.2,0
			c0.4,0,0.8,0,1.2-0.1c0,0.1,0,0.1,0,0.2c0,0.1,0,0.1,0,0.2c0,0.2-0.1,0.3-0.2,0.3c-0.3,0-0.5,0.1-0.6,0.1s-0.3,0.1-0.3,0.2
			c-0.1,0.1-0.1,0.1-0.1,0.2c0,0.1,0,0.2,0,0.3V141.2z"/>
		<path fill="#191166" d="M109.4,137.6l-2.9-5.5c-0.1-0.3-0.3-0.4-0.5-0.5c-0.2-0.1-0.5-0.2-0.8-0.2c-0.1,0-0.2-0.1-0.2-0.4
			c0,0,0-0.1,0-0.1c0,0,0-0.1,0-0.1l0-0.1c0.3,0,0.6,0,1,0.1c0.4,0,0.9,0,1.4,0c0.2,0,0.4,0,0.6,0s0.5,0,0.7,0s0.5,0,0.7,0
			c0.2,0,0.4,0,0.5,0c0,0.1,0,0.2,0,0.2c0,0,0,0.1,0,0.1c0,0.2-0.1,0.3-0.2,0.3c-0.3,0-0.5,0.1-0.6,0.2c-0.1,0.1-0.2,0.2-0.2,0.3
			c0,0.1,0,0.2,0.1,0.4l2.1,4.2l2.1-3.9c0.1-0.2,0.2-0.4,0.2-0.6c0-0.1-0.1-0.2-0.2-0.3c-0.1-0.1-0.4-0.1-0.7-0.2
			c-0.2,0-0.2-0.1-0.2-0.3c0,0,0-0.2,0.1-0.3c0.3,0,0.6,0,0.9,0.1c0.4,0,0.7,0,1,0c0.3,0,0.6,0,0.9,0s0.6,0,0.9-0.1
			c0,0.1,0,0.2,0,0.2s0,0.1,0,0.1c0,0.2-0.1,0.3-0.2,0.3c-0.4,0.1-0.7,0.1-0.9,0.2c-0.2,0.1-0.3,0.2-0.4,0.4l-3,5.5v3.6
			c0,0.1,0,0.2,0.1,0.3s0.1,0.2,0.2,0.2c0.1,0.1,0.2,0.1,0.4,0.2c0.2,0,0.4,0.1,0.6,0.1c0.1,0,0.1,0,0.2,0.1s0.1,0.1,0.1,0.3
			c0,0,0,0.1,0,0.1c0,0,0,0.1,0,0.1l0,0.1c-0.2,0-0.4,0-0.5,0c-0.2,0-0.3,0-0.5,0c-0.3,0-0.6,0-0.9,0c-0.3,0-0.6,0-0.8,0
			c-0.2,0-0.5,0-0.7,0c-0.3,0-0.6,0-0.8,0c-0.2,0-0.3,0-0.5,0c-0.2,0-0.3,0-0.5,0l0-0.1c0,0,0-0.1,0-0.1c0,0,0-0.1,0-0.1
			c0-0.1,0-0.2,0.1-0.3s0.1-0.1,0.2-0.1c0.3,0,0.5-0.1,0.6-0.1c0.2,0,0.3-0.1,0.4-0.1c0.1-0.1,0.2-0.1,0.2-0.2s0.1-0.2,0.1-0.3
			V137.6z"/>
		<path fill="#191166" d="M132.9,133.7c-0.1,0-0.2,0.1-0.3,0.1c-0.2,0-0.3,0-0.4-0.1c-0.1-0.1-0.1-0.1-0.1-0.2
			c-0.3-0.7-0.6-1.2-1.1-1.5s-1-0.5-1.8-0.5c-0.6,0-1.1,0.1-1.5,0.4c-0.4,0.3-0.6,0.7-0.6,1.3c0,0.4,0.2,0.8,0.5,1.1
			c0.3,0.3,0.7,0.5,1.2,0.7s1,0.4,1.5,0.6c0.5,0.2,1,0.4,1.5,0.7s0.8,0.7,1.2,1.1c0.3,0.4,0.5,1,0.5,1.7c0,0.5-0.1,0.9-0.2,1.3
			c-0.2,0.4-0.4,0.8-0.7,1.1s-0.8,0.6-1.3,0.8c-0.5,0.2-1.1,0.3-1.9,0.3c-0.8,0-1.5-0.1-2.1-0.3c-0.6-0.2-1.1-0.4-1.5-0.6
			c0-0.5-0.1-1-0.2-1.5s-0.2-1-0.3-1.4c0.1,0,0.3-0.1,0.4-0.1c0.1,0,0.3,0,0.3,0.1c0.1,0.1,0.1,0.1,0.2,0.3c0.2,0.5,0.3,0.8,0.5,1.2
			s0.4,0.6,0.7,0.8s0.5,0.4,0.9,0.5c0.3,0.1,0.7,0.1,1.1,0.1c0.4,0,0.7-0.1,1-0.2c0.3-0.1,0.5-0.2,0.6-0.4c0.2-0.2,0.3-0.4,0.4-0.6
			c0.1-0.2,0.1-0.5,0.1-0.7c0-0.5-0.1-0.9-0.4-1.2c-0.3-0.3-0.7-0.5-1.1-0.7c-0.4-0.2-0.9-0.4-1.4-0.6c-0.5-0.2-1-0.4-1.4-0.7
			s-0.8-0.6-1.1-1c-0.3-0.4-0.4-1-0.4-1.7c0-0.5,0.1-0.9,0.3-1.3c0.2-0.4,0.4-0.8,0.8-1.1c0.3-0.3,0.7-0.5,1.2-0.7s1-0.3,1.6-0.3
			c0.5,0,1,0.1,1.5,0.2c0.5,0.1,1.1,0.3,1.7,0.5c0,0.4,0.1,0.8,0.1,1.2C132.8,133,132.9,133.4,132.9,133.7z"/>
		<path fill="#191166" d="M151.6,133.7c-0.1,0-0.2,0.1-0.3,0.1c-0.2,0-0.3,0-0.4-0.1c-0.1-0.1-0.1-0.1-0.1-0.2
			c-0.3-0.7-0.6-1.2-1.1-1.5s-1-0.5-1.8-0.5c-0.6,0-1.1,0.1-1.5,0.4c-0.4,0.3-0.6,0.7-0.6,1.3c0,0.4,0.2,0.8,0.5,1.1
			c0.3,0.3,0.7,0.5,1.2,0.7s1,0.4,1.5,0.6c0.5,0.2,1,0.4,1.5,0.7s0.8,0.7,1.2,1.1c0.3,0.4,0.5,1,0.5,1.7c0,0.5-0.1,0.9-0.2,1.3
			c-0.2,0.4-0.4,0.8-0.7,1.1s-0.8,0.6-1.3,0.8c-0.5,0.2-1.1,0.3-1.9,0.3c-0.8,0-1.5-0.1-2.1-0.3c-0.6-0.2-1.1-0.4-1.5-0.6
			c0-0.5-0.1-1-0.2-1.5s-0.2-1-0.3-1.4c0.1,0,0.3-0.1,0.4-0.1c0.1,0,0.3,0,0.3,0.1c0.1,0.1,0.1,0.1,0.2,0.3c0.2,0.5,0.3,0.8,0.5,1.2
			s0.4,0.6,0.7,0.8s0.5,0.4,0.9,0.5c0.3,0.1,0.7,0.1,1.1,0.1c0.4,0,0.7-0.1,1-0.2c0.3-0.1,0.5-0.2,0.6-0.4c0.2-0.2,0.3-0.4,0.4-0.6
			c0.1-0.2,0.1-0.5,0.1-0.7c0-0.5-0.1-0.9-0.4-1.2c-0.3-0.3-0.7-0.5-1.1-0.7c-0.4-0.2-0.9-0.4-1.4-0.6c-0.5-0.2-1-0.4-1.4-0.7
			s-0.8-0.6-1.1-1c-0.3-0.4-0.4-1-0.4-1.7c0-0.5,0.1-0.9,0.3-1.3c0.2-0.4,0.4-0.8,0.8-1.1c0.3-0.3,0.7-0.5,1.2-0.7s1-0.3,1.6-0.3
			c0.5,0,1,0.1,1.5,0.2c0.5,0.1,1.1,0.3,1.7,0.5c0,0.4,0.1,0.8,0.1,1.2C151.4,133,151.5,133.4,151.6,133.7z"/>
		<path fill="#191166" d="M166.2,131.7v4.3h2.5c0.2,0,0.4-0.1,0.5-0.3c0.1-0.2,0.2-0.5,0.2-0.9c0-0.1,0-0.2,0.1-0.2s0.1,0,0.2,0
			c0,0,0.1,0,0.2,0c0.1,0,0.1,0,0.2,0c0,0.3,0,0.6-0.1,1s0,0.7,0,0.9c0,0.2,0,0.5,0,0.8c0,0.3,0,0.6,0.1,1c0,0-0.1,0-0.2,0
			c-0.1,0-0.1,0-0.2,0c-0.2,0-0.3-0.1-0.3-0.3c-0.1-0.5-0.2-0.8-0.2-0.9c-0.1-0.2-0.2-0.2-0.4-0.2h-2.5v4c0,0.3,0.2,0.4,0.5,0.5
			c0.3,0.1,0.8,0.1,1.6,0.1h0.8c0.4,0,0.7,0,0.9-0.1c0.2-0.1,0.5-0.2,0.7-0.4s0.4-0.4,0.5-0.6c0.1-0.2,0.3-0.5,0.4-0.8
			c0-0.1,0.1-0.1,0.3-0.1c0.1,0,0.1,0,0.2,0.1c0.1,0,0.2,0.1,0.3,0.1c0,0.1-0.1,0.2-0.1,0.3c0,0.1-0.1,0.2-0.1,0.3
			c-0.1,0.1-0.1,0.3-0.1,0.4c0,0.2-0.1,0.3-0.1,0.4c0,0.1-0.1,0.3-0.1,0.4c0,0.2-0.1,0.3-0.1,0.4c0,0.1-0.1,0.3-0.1,0.4
			c0,0.1-0.1,0.2-0.1,0.2c0,0.1-0.1,0.1-0.3,0.1c-0.1,0-0.2,0-0.4,0c-0.2,0-0.4,0-0.6,0c-0.2,0-0.4,0-0.6,0c-0.2,0-0.4,0-0.6,0h-4.1
			c-0.3,0-0.7,0-1.2,0c-0.5,0-0.9,0-1.2,0.1c0,0,0-0.1,0-0.2s0-0.1,0-0.2c0-0.2,0.1-0.3,0.2-0.3c0.5-0.1,0.8-0.2,1-0.3
			c0.2-0.1,0.3-0.3,0.3-0.5v-9c0-0.1,0-0.2-0.1-0.3c0-0.1-0.1-0.1-0.2-0.2c-0.1-0.1-0.2-0.1-0.4-0.1s-0.4-0.1-0.6-0.1
			c-0.1,0-0.2-0.1-0.2-0.3c0-0.1,0-0.1,0-0.2s0-0.1,0-0.2c0.5,0,1,0.1,1.4,0.1s0.7,0,1,0h3.7c0.5,0,1,0,1.4-0.1s0.7-0.1,0.8-0.1
			c0.1,0,0.2,0.1,0.3,0.2c0,0.1,0.1,0.3,0.1,0.5c0,0.3,0.1,0.5,0.1,0.8c0,0.2,0.1,0.4,0.1,0.6c0,0.2,0.1,0.4,0.2,0.7
			c-0.1,0-0.1,0-0.2,0.1c-0.1,0-0.1,0-0.2,0c-0.1,0-0.2-0.1-0.3-0.2c-0.1-0.3-0.3-0.6-0.4-0.8c-0.1-0.2-0.3-0.4-0.5-0.5
			c-0.2-0.1-0.4-0.2-0.6-0.3c-0.2-0.1-0.5-0.1-0.8-0.1H166.2z"/>
		<path fill="#191166" d="M191.8,138.6v-6.4c0-0.3-0.1-0.4-0.3-0.6c-0.2-0.1-0.5-0.2-1-0.3c-0.2,0-0.2-0.1-0.2-0.3c0,0,0-0.1,0-0.1
			c0-0.1,0-0.1,0-0.2c0.3,0,0.6,0.1,0.9,0.1c0.3,0,0.6,0,1,0c0.4,0,0.7,0,1,0s0.6,0,0.8-0.1c0,0.1,0,0.1,0,0.2c0,0.1,0,0.1,0,0.1
			c0,0.2-0.1,0.3-0.2,0.3c-0.4,0.1-0.7,0.1-0.8,0.3c-0.1,0.1-0.2,0.3-0.2,0.5v10.5c0,0-0.1,0-0.2,0c-0.1,0-0.2,0-0.2,0
			c-0.1,0-0.2,0-0.3-0.1c-0.1,0-0.2-0.1-0.3-0.3l-7.1-9v7.8c0,0.1,0,0.2,0,0.3s0.1,0.1,0.1,0.2c0.1,0.1,0.2,0.1,0.3,0.1
			c0.1,0,0.4,0.1,0.6,0.1c0.1,0,0.1,0,0.2,0.1c0,0,0.1,0.1,0.1,0.3c0,0.1,0,0.2,0,0.3c-0.3,0-0.6,0-0.8-0.1c-0.3,0-0.6,0-0.9,0
			s-0.7,0-1,0c-0.3,0-0.6,0-0.9,0.1c0,0,0-0.1,0-0.2c0-0.1,0-0.1,0-0.1c0-0.1,0-0.2,0.1-0.3c0,0,0.1-0.1,0.2-0.1
			c0.4-0.1,0.7-0.2,0.9-0.3c0.1-0.1,0.2-0.3,0.2-0.5v-9.1c0-0.2-0.1-0.3-0.2-0.4s-0.4-0.2-0.9-0.2c-0.1,0-0.2-0.1-0.2-0.3
			c0,0,0-0.1,0-0.1s0-0.1,0-0.1l0-0.1c0.2,0,0.3,0,0.5,0s0.3,0,0.5,0c0.3,0,0.5,0,0.8,0s0.5,0,0.7,0c0.3,0,0.6,0,0.7,0
			c0.1,0,0.2,0.1,0.3,0.2L191.8,138.6z"/>
		<path fill="#191166" d="M236.5,131.7v9.5c0,0.1,0,0.2,0,0.3c0,0.1,0.1,0.1,0.1,0.2c0.1,0.1,0.2,0.1,0.3,0.2s0.3,0.1,0.6,0.1
			c0.2,0,0.3,0.1,0.3,0.3c0,0,0,0.1,0,0.2s0,0.1,0,0.2c-0.4,0-0.8,0-1.2-0.1c-0.4,0-0.8,0-1.2,0c-0.3,0-0.7,0-1.2,0
			c-0.4,0-0.8,0-1.2,0.1c0,0,0-0.1,0-0.2c0-0.1,0-0.1,0-0.2c0-0.1,0-0.2,0-0.2c0-0.1,0.1-0.1,0.2-0.1c0.4-0.1,0.7-0.1,0.8-0.2
			c0.1-0.1,0.2-0.3,0.2-0.5v-9.5h-1.6c-0.3,0-0.6,0-0.9,0.1c-0.2,0.1-0.4,0.2-0.6,0.3c-0.2,0.1-0.3,0.3-0.5,0.5
			c-0.1,0.2-0.3,0.5-0.4,0.8c0,0.1-0.1,0.2-0.3,0.2c-0.1,0-0.2,0-0.3,0c-0.1,0-0.2-0.1-0.2-0.1c0.1-0.3,0.2-0.5,0.2-0.8
			c0.1-0.2,0.1-0.4,0.1-0.7c0-0.3,0.1-0.5,0.1-0.7c0-0.2,0.1-0.4,0.1-0.5c0-0.1,0.1-0.2,0.3-0.2c0.1,0,0.4,0,0.8,0.1
			c0.4,0,0.9,0.1,1.4,0.1h5.5c0.5,0,1,0,1.4-0.1c0.4,0,0.7-0.1,0.8-0.1c0.1,0,0.2,0.1,0.3,0.2c0,0.1,0.1,0.3,0.1,0.5
			s0.1,0.5,0.1,0.7c0,0.2,0.1,0.4,0.1,0.7c0.1,0.2,0.1,0.5,0.2,0.8c-0.1,0-0.1,0.1-0.2,0.1c-0.1,0-0.2,0-0.2,0
			c-0.1,0-0.2-0.1-0.3-0.2c-0.1-0.3-0.3-0.6-0.4-0.8c-0.1-0.2-0.3-0.4-0.5-0.5c-0.2-0.1-0.4-0.2-0.6-0.3c-0.2-0.1-0.5-0.1-0.8-0.1
			H236.5z"/>
		<path fill="#191166" d="M255.6,137.3h-0.8v3.8c0,0.3,0.1,0.5,0.4,0.6c0.2,0.1,0.6,0.2,1.2,0.3c0.2,0,0.3,0.1,0.3,0.4
			c0,0.1,0,0.2,0,0.3c-0.3,0-0.8,0-1.3-0.1c-0.5,0-1.1,0-1.7,0c-0.4,0-0.8,0-1.3,0c-0.4,0-0.8,0-1.1,0.1c0,0,0-0.1,0-0.2
			c0-0.1,0-0.1,0-0.1c0-0.2,0.1-0.3,0.2-0.3c0.3,0,0.5-0.1,0.6-0.1c0.2,0,0.3-0.1,0.4-0.1s0.1-0.1,0.2-0.2s0-0.2,0-0.3v-9
			c0-0.2-0.1-0.4-0.3-0.5s-0.5-0.2-1-0.3c-0.1,0-0.1-0.1-0.1-0.1c0,0-0.1-0.1-0.1-0.3c0,0,0-0.1,0-0.2c0-0.1,0-0.1,0-0.1
			c0.3,0,0.7,0,1.2,0.1c0.4,0,0.8,0,1.2,0h2.7c0.6,0,1.2,0.1,1.7,0.2c0.5,0.2,0.9,0.4,1.3,0.7c0.4,0.3,0.6,0.6,0.8,1
			c0.2,0.4,0.3,0.8,0.3,1.3c0,0.6-0.2,1.2-0.6,1.7c-0.4,0.5-0.9,0.9-1.6,1.2l2.8,4.1c0.2,0.3,0.5,0.5,0.7,0.6
			c0.3,0.1,0.5,0.2,0.8,0.3c0.1,0,0.1,0,0.1,0.1s0.1,0.1,0.1,0.2c0,0,0,0.1,0,0.2s0,0.1,0,0.2c-0.1,0-0.3,0-0.6,0
			c-0.2,0-0.5,0-0.7,0s-0.5,0-0.8,0c-0.3,0-0.5,0-0.6,0c-0.3,0-0.5-0.1-0.8-0.3s-0.5-0.5-0.7-0.8L255.6,137.3z M255.4,136.4
			c0.4,0,0.7,0,1-0.1c0.3-0.1,0.6-0.2,0.8-0.4c0.2-0.2,0.4-0.4,0.5-0.7s0.2-0.7,0.2-1.1c0-0.7-0.2-1.3-0.5-1.8
			c-0.4-0.4-1-0.6-1.9-0.6h-0.5v4.7H255.4z"/>
		<path fill="#191166" d="M279.3,138.6h-3.8l-0.9,2.5c0,0.1-0.1,0.1-0.1,0.2c0,0.1,0,0.1,0,0.2c0,0.1,0.1,0.2,0.2,0.3
			c0.1,0.1,0.4,0.2,0.8,0.2c0.2,0,0.3,0.1,0.3,0.3c0,0.1,0,0.2,0,0.3c-0.3,0-0.7,0-1-0.1c-0.4,0-0.7,0-1.1,0c-0.2,0-0.5,0-0.8,0
			c-0.3,0-0.6,0-0.9,0.1c0,0,0-0.1,0-0.2c0-0.1,0-0.1,0-0.1c0-0.2,0.1-0.3,0.2-0.4c0.4-0.1,0.6-0.1,0.8-0.2c0.2-0.1,0.3-0.2,0.4-0.4
			l4.3-10.4c0.1-0.2,0.2-0.3,0.4-0.3c0.1,0,0.1,0,0.2,0c0.1,0,0.1,0,0.2,0l4.3,10.7c0.1,0.2,0.2,0.3,0.4,0.4s0.4,0.2,0.7,0.2
			c0.2,0,0.3,0.2,0.3,0.4c0,0.1,0,0.2,0,0.3c-0.4,0-0.8,0-1.1-0.1c-0.4,0-0.7,0-1,0c-0.2,0-0.4,0-0.6,0s-0.5,0-0.7,0
			c-0.3,0-0.5,0-0.7,0c-0.2,0-0.5,0-0.6,0c0,0,0-0.1,0-0.2c0-0.1,0-0.1,0-0.1c0-0.1,0-0.2,0.1-0.2s0.1-0.1,0.1-0.1
			c0.3-0.1,0.5-0.1,0.7-0.2s0.2-0.2,0.2-0.4c0-0.1,0-0.2-0.1-0.3L279.3,138.6z M279,137.7l-1.5-4l-1.6,4H279z"/>
		<path fill="#191166" d="M306.2,136.7c0,0.7-0.1,1.4-0.4,2.1c-0.2,0.7-0.6,1.3-1.1,1.9c-0.5,0.6-1.1,1-1.9,1.4
			c-0.8,0.3-1.7,0.5-2.8,0.5h-3.7c-0.3,0-0.7,0-1.1,0c-0.4,0-0.8,0-1.2,0.1c0,0,0-0.1,0-0.2c0-0.1,0-0.1,0-0.1c0-0.1,0-0.2,0.1-0.3
			s0.1-0.1,0.2-0.1c0.3-0.1,0.6-0.1,0.8-0.2c0.2-0.1,0.3-0.3,0.3-0.5v-9c0-0.2-0.1-0.4-0.3-0.5c-0.2-0.1-0.5-0.2-0.9-0.3
			c-0.1,0-0.2-0.1-0.2-0.1c0-0.1,0-0.1,0-0.2c0,0,0-0.1,0-0.1c0-0.1,0-0.1,0-0.2c0.3,0,0.5,0,0.7,0c0.2,0,0.4,0,0.5,0
			c0.2,0,0.3,0,0.5,0c0.2,0,0.3,0,0.5,0h3.7c1,0,1.9,0.2,2.7,0.5c0.8,0.3,1.4,0.7,1.9,1.3c0.5,0.5,0.9,1.1,1.2,1.9
			C306,135.1,306.2,135.9,306.2,136.7z M303.7,137c0-0.9-0.1-1.7-0.3-2.4s-0.5-1.2-0.9-1.6c-0.4-0.4-0.9-0.7-1.5-0.9
			s-1.3-0.3-2.1-0.3h-1.1v9.3c0,0.1,0,0.2,0.1,0.3s0.1,0.2,0.2,0.2s0.3,0.1,0.5,0.1c0.2,0,0.5,0,0.8,0c1.6,0,2.7-0.4,3.4-1.2
			C303.3,139.6,303.7,138.4,303.7,137z"/>
		<path fill="#191166" d="M320.2,141.2c0,0.1,0,0.2,0,0.3c0,0.1,0.1,0.1,0.1,0.2c0.1,0.1,0.2,0.1,0.3,0.2s0.4,0.1,0.6,0.1
			c0.1,0,0.2,0.1,0.2,0.3c0,0,0,0.1,0,0.2c0,0.1,0,0.1,0,0.2c-0.4,0-0.8,0-1.2-0.1c-0.4,0-0.8,0-1.2,0c-0.3,0-0.7,0-1.2,0
			c-0.4,0-0.8,0-1.2,0.1c0,0,0-0.1,0-0.2s0-0.1,0-0.2c0-0.2,0.1-0.3,0.2-0.3c0.3,0,0.5-0.1,0.6-0.1s0.3-0.1,0.3-0.2
			c0.1-0.1,0.1-0.1,0.1-0.2c0-0.1,0-0.2,0-0.3v-9c0-0.1,0-0.2,0-0.3c0-0.1-0.1-0.1-0.1-0.2c-0.1-0.1-0.2-0.1-0.3-0.2
			s-0.4-0.1-0.6-0.1c-0.1,0-0.2-0.1-0.2-0.3c0,0,0-0.1,0-0.2s0-0.1,0-0.2c0.4,0,0.8,0,1.2,0.1c0.4,0,0.8,0,1.2,0c0.3,0,0.7,0,1.2,0
			c0.4,0,0.8,0,1.2-0.1c0,0.1,0,0.1,0,0.2c0,0.1,0,0.1,0,0.2c0,0.2-0.1,0.3-0.2,0.3c-0.3,0-0.5,0.1-0.6,0.1s-0.3,0.1-0.3,0.2
			c-0.1,0.1-0.1,0.1-0.1,0.2c0,0.1,0,0.2,0,0.3V141.2z"/>
		<path fill="#191166" d="M341.3,138.6v-6.4c0-0.3-0.1-0.4-0.3-0.6s-0.5-0.2-1-0.3c-0.2,0-0.2-0.1-0.2-0.3c0,0,0-0.1,0-0.1
			c0-0.1,0-0.1,0-0.2c0.3,0,0.6,0.1,0.9,0.1s0.6,0,1,0c0.4,0,0.7,0,1,0c0.3,0,0.6,0,0.8-0.1c0,0.1,0,0.1,0,0.2c0,0.1,0,0.1,0,0.1
			c0,0.2-0.1,0.3-0.2,0.3c-0.4,0.1-0.7,0.1-0.8,0.3c-0.1,0.1-0.2,0.3-0.2,0.5v10.5c0,0-0.1,0-0.2,0c-0.1,0-0.2,0-0.2,0
			c-0.1,0-0.2,0-0.3-0.1c-0.1,0-0.2-0.1-0.3-0.3l-7.1-9v7.8c0,0.1,0,0.2,0,0.3s0.1,0.1,0.1,0.2s0.2,0.1,0.3,0.1
			c0.1,0,0.4,0.1,0.6,0.1c0.1,0,0.1,0,0.2,0.1s0.1,0.1,0.1,0.3c0,0.1,0,0.2,0,0.3c-0.3,0-0.6,0-0.8-0.1c-0.3,0-0.6,0-0.9,0
			s-0.7,0-1,0c-0.3,0-0.6,0-0.9,0.1c0,0,0-0.1,0-0.2c0-0.1,0-0.1,0-0.1c0-0.1,0-0.2,0.1-0.3s0.1-0.1,0.2-0.1
			c0.4-0.1,0.7-0.2,0.9-0.3c0.1-0.1,0.2-0.3,0.2-0.5v-9.1c0-0.2-0.1-0.3-0.2-0.4s-0.4-0.2-0.9-0.2c-0.1,0-0.2-0.1-0.2-0.3
			c0,0,0-0.1,0-0.1s0-0.1,0-0.1l0-0.1c0.2,0,0.3,0,0.5,0c0.2,0,0.3,0,0.5,0c0.3,0,0.5,0,0.8,0c0.3,0,0.5,0,0.7,0c0.3,0,0.6,0,0.7,0
			c0.1,0,0.2,0.1,0.3,0.2L341.3,138.6z"/>
		<path fill="#191166" d="M363.6,142.4c-0.3,0-0.6,0.1-0.8,0.1c-0.3,0-0.5,0.1-0.8,0.1s-0.6,0.1-0.9,0.1c-0.3,0-0.7,0-1.1,0
			c-1.1,0-2-0.1-2.8-0.4s-1.4-0.7-1.9-1.2c-0.5-0.5-0.9-1.2-1.1-1.9c-0.2-0.7-0.4-1.6-0.4-2.5c0-0.7,0.1-1.4,0.4-2.1
			c0.2-0.7,0.6-1.4,1.1-2s1.1-1.1,1.9-1.4c0.8-0.4,1.6-0.5,2.6-0.5c0.7,0,1.4,0.1,2.1,0.2c0.7,0.1,1.4,0.2,2.1,0.4
			c0,0.3,0.1,0.7,0.1,1.2c0.1,0.5,0.2,1,0.3,1.5c-0.1,0-0.1,0-0.2,0c-0.1,0-0.2,0-0.2,0c-0.1,0-0.2,0-0.2,0c-0.1,0-0.1-0.1-0.1-0.2
			c-0.3-0.8-0.7-1.4-1.2-1.7s-1.3-0.5-2.1-0.5c-0.6,0-1.2,0.1-1.7,0.3s-0.9,0.5-1.2,1c-0.3,0.4-0.6,0.9-0.8,1.5s-0.3,1.2-0.3,2
			c0,0.8,0.1,1.5,0.3,2.2c0.2,0.7,0.5,1.3,0.8,1.7c0.4,0.5,0.8,0.9,1.4,1.1s1.2,0.4,1.9,0.4c0.3,0,0.5,0,0.7,0s0.4-0.1,0.6-0.1v-2.6
			c0-0.3-0.1-0.5-0.3-0.7c-0.2-0.1-0.5-0.2-1-0.3c-0.1,0-0.2-0.1-0.2-0.2c0-0.1-0.1-0.2-0.1-0.2c0,0,0-0.1,0-0.2c0-0.1,0-0.1,0-0.2
			c0.2,0,0.4,0,0.6,0c0.2,0,0.5,0,0.7,0c0.2,0,0.5,0,0.7,0c0.2,0,0.4,0,0.6,0c0.2,0,0.3,0,0.6,0s0.4,0,0.7,0c0.2,0,0.4,0,0.6,0
			s0.4,0,0.5,0c0,0.1,0,0.1,0,0.2c0,0.1,0,0.1,0,0.1c0,0.1,0,0.2-0.1,0.2c0,0.1-0.1,0.1-0.2,0.1c-0.4,0-0.7,0.1-0.8,0.2
			c-0.2,0.1-0.2,0.3-0.2,0.5v3.1c0,0.1,0,0.2-0.1,0.3C364,142.3,363.8,142.4,363.6,142.4z"/>
	</g>
</g>
</svg>
