<svg width="216" height="75" viewBox="0 0 216 75" fill="none" xmlns="http://www.w3.org/2000/svg">
<path fill-rule="evenodd" clip-rule="evenodd" d="M107.486 54.102C107.619 54.6942 107.972 54.8555 107.999 55.5705C108.026 56.2906 107.558 56.7815 107.208 57.2956C107.032 57.5531 106.893 57.699 106.846 57.887C106.829 57.9556 106.809 58.0097 106.749 57.9985V57.9994L106.747 57.9985C106.744 57.9985 106.741 57.9977 106.738 57.9968C106.585 57.9694 106.653 57.911 106.687 57.7634C106.77 57.5668 106.911 57.36 107.061 57.1394C107.225 56.8991 107.401 56.6399 107.512 56.3773C107.569 56.2434 107.633 56.07 107.675 55.9044C107.706 55.7833 107.726 55.6675 107.723 55.5774C107.706 55.1645 107.559 54.9388 107.432 54.7431C107.378 54.6599 107.327 54.5818 107.287 54.4959C107.213 54.5491 107.134 54.5903 107.051 54.6333C106.854 54.7354 106.627 54.8538 106.432 55.2066C106.389 55.2838 106.356 55.3954 106.33 55.5173C106.295 55.6855 106.274 55.8717 106.265 56.0194C106.247 56.3086 106.288 56.6296 106.326 56.9283C106.36 57.2021 106.393 57.4587 106.379 57.675C106.343 57.8295 106.38 57.9101 106.223 57.8475V57.8483L106.222 57.8475C106.161 57.8234 106.168 57.7582 106.189 57.687C106.226 57.4973 106.169 57.299 106.129 56.9858C106.048 56.3472 105.854 55.6658 106.193 55.0521C106.531 54.4393 106.911 54.4908 107.285 54.0436C107.332 53.9878 107.408 53.9853 107.454 54.0376C107.47 54.0556 107.481 54.078 107.486 54.102Z" fill="white"/>
<path fill-rule="evenodd" clip-rule="evenodd" d="M107.109 57C107.018 56.8066 107.01 56.4397 107 55.8772C106.99 55.3147 107.291 55.0311 107.686 55C107.967 55.1821 108.12 55.542 107.884 55.9548C107.647 56.367 107.332 56.7869 107.109 57Z" fill="white"/>
<path fill-rule="evenodd" clip-rule="evenodd" d="M104.449 54.0225C105.053 54.3649 105.504 54.1881 106.113 54.7158C106.724 55.2472 106.702 56.0256 106.804 56.7217C106.856 57.0698 106.848 57.3018 106.959 57.4871C106.999 57.5544 107.025 57.6134 106.963 57.6564L106.962 57.6574C106.959 57.6602 106.955 57.662 106.951 57.6639C106.79 57.7734 106.804 57.6705 106.715 57.5273C106.629 57.3056 106.588 57.0258 106.544 56.7273C106.496 56.4017 106.444 56.0509 106.33 55.7543C106.272 55.6027 106.188 55.4137 106.092 55.25C106.02 55.1302 105.944 55.0245 105.868 54.9571C105.516 54.6521 105.198 54.6044 104.924 54.5623C104.807 54.5445 104.697 54.5277 104.59 54.4959C104.568 54.5997 104.529 54.6989 104.49 54.8037C104.395 55.0507 104.285 55.337 104.397 55.7749C104.421 55.8703 104.482 55.9854 104.558 56.1014C104.663 56.2614 104.797 56.4214 104.909 56.543C105.129 56.7825 105.428 56.9949 105.706 57.1923C105.961 57.3739 106.2 57.5441 106.364 57.7219C106.457 57.8725 106.556 57.9044 106.364 57.9886V57.9895L106.363 57.9904C106.288 58.0232 106.241 57.967 106.202 57.895C106.081 57.7163 105.867 57.6124 105.575 57.4047C104.98 56.9818 104.249 56.6226 104.055 55.86C103.861 55.0984 104.246 54.8131 104.22 54.1478C104.217 54.0664 104.284 54 104.368 54C104.398 54 104.425 54.0084 104.449 54.0225Z" fill="white"/>
<path fill-rule="evenodd" clip-rule="evenodd" d="M106 57C105.837 56.9124 105.617 56.6277 105.28 56.1907C104.943 55.7529 104.935 55.3151 105.126 55.0098C105.382 54.9546 105.676 55.1297 105.794 55.6243C105.912 56.1181 105.992 56.6734 106 57Z" fill="white"/>
<path fill-rule="evenodd" clip-rule="evenodd" d="M103.102 56.5143C103.694 56.3811 103.856 56.0282 104.57 56.0011C105.291 55.974 105.782 56.4415 106.296 56.7921C106.553 56.9678 106.699 57.1071 106.887 57.1543C106.956 57.1714 107.01 57.1915 106.999 57.2511H106.999L106.999 57.2526C106.999 57.2557 106.998 57.2588 106.997 57.2619C106.969 57.4152 106.911 57.3471 106.763 57.313C106.567 57.2302 106.36 57.0893 106.139 56.9392C105.899 56.7751 105.64 56.5986 105.377 56.488C105.243 56.4315 105.07 56.3672 104.904 56.3246C104.783 56.2945 104.667 56.2743 104.577 56.2774C104.165 56.2937 103.939 56.4407 103.743 56.5677C103.66 56.6219 103.582 56.6729 103.496 56.7132C103.549 56.7867 103.59 56.8657 103.633 56.9492C103.735 57.1458 103.854 57.3734 104.207 57.5684C104.284 57.611 104.395 57.6443 104.517 57.6698C104.685 57.7054 104.872 57.7255 105.019 57.7348C105.309 57.7526 105.63 57.7124 105.928 57.6745C106.202 57.6396 106.459 57.6071 106.675 57.6211C106.829 57.6567 106.91 57.6203 106.847 57.7766H106.848L106.847 57.7782C106.823 57.8385 106.758 57.8316 106.687 57.8107C106.497 57.7735 106.299 57.8308 105.986 57.871C105.347 57.9523 104.666 58.1458 104.052 57.8068C103.439 57.4694 103.491 57.0886 103.044 56.7147C102.988 56.6683 102.985 56.5924 103.038 56.546C103.056 56.5297 103.078 56.5189 103.102 56.5143Z" fill="white"/>
<path fill-rule="evenodd" clip-rule="evenodd" d="M106 57.8906C105.807 57.9825 105.44 57.9903 104.877 57.9997C104.315 58.01 104.031 57.7092 104 57.3142C104.182 57.0331 104.542 56.8799 104.955 57.1163C105.368 57.3527 105.787 57.6684 106 57.8906Z" fill="white"/>
<path fill-rule="evenodd" clip-rule="evenodd" d="M104.022 60.5508C104.365 59.9475 104.188 59.4957 104.716 58.8874C105.247 58.2762 106.026 58.298 106.722 58.1959C107.07 58.1444 107.302 58.1524 107.487 58.0414C107.554 58.0008 107.613 57.975 107.656 58.0374L107.657 58.0384C107.66 58.0414 107.662 58.0454 107.664 58.0493C107.773 58.2098 107.67 58.1959 107.527 58.2851C107.306 58.3713 107.026 58.4119 106.726 58.4565C106.402 58.504 106.051 58.5556 105.754 58.6705C105.603 58.7279 105.414 58.8122 105.25 58.9082C105.13 58.9796 105.025 59.0559 104.957 59.1321C104.652 59.4838 104.604 59.8019 104.562 60.0763C104.545 60.1932 104.528 60.3031 104.496 60.4101C104.6 60.4319 104.699 60.4706 104.804 60.5102C105.051 60.6053 105.337 60.7153 105.775 60.6033C105.87 60.5786 105.985 60.5181 106.101 60.4418C106.261 60.3368 106.421 60.2031 106.543 60.0911C106.783 59.8712 106.995 59.572 107.192 59.2936C107.374 59.039 107.544 58.8003 107.722 58.6358C107.873 58.5427 107.904 58.4436 107.989 58.6358H107.989L107.99 58.6368C108.023 58.7121 107.967 58.7587 107.895 58.7983C107.716 58.9191 107.612 59.1331 107.405 59.4254C106.982 60.0198 106.623 60.7509 105.86 60.9451C105.098 61.1393 104.813 60.7539 104.148 60.7797C104.066 60.7826 104 60.7163 104 60.6321C104 60.6023 104.008 60.5746 104.022 60.5508Z" fill="white"/>
<path fill-rule="evenodd" clip-rule="evenodd" d="M106 58C105.912 58.163 105.628 58.3832 105.191 58.7205C104.753 59.0572 104.315 59.0654 104.01 58.8741C103.955 58.6181 104.13 58.3243 104.624 58.206C105.118 58.0883 105.673 58.0082 106 58Z" fill="white"/>
<path fill-rule="evenodd" clip-rule="evenodd" d="M105.514 61.898C105.381 61.3058 105.028 61.1445 105.001 60.4295C104.974 59.7094 105.442 59.2185 105.792 58.7044C105.968 58.4469 106.107 58.301 106.154 58.113C106.171 58.0444 106.191 57.9903 106.251 58.0015V58.0006L106.253 58.0015C106.256 58.0015 106.259 58.0023 106.262 58.0032C106.415 58.0306 106.347 58.089 106.313 58.2366C106.23 58.4332 106.089 58.64 105.939 58.8606C105.775 59.1009 105.599 59.3601 105.488 59.6227C105.431 59.7566 105.367 59.93 105.325 60.0956C105.294 60.2167 105.274 60.3325 105.277 60.4226C105.294 60.8355 105.441 61.0612 105.568 61.2569C105.622 61.3401 105.673 61.4182 105.713 61.5041C105.787 61.4509 105.866 61.4097 105.949 61.3667C106.146 61.2646 106.373 61.1462 106.568 60.7934C106.611 60.7162 106.644 60.6046 106.67 60.4827C106.705 60.3145 106.726 60.1283 106.735 59.9806C106.753 59.6914 106.712 59.3704 106.674 59.0717C106.64 58.7979 106.607 58.5413 106.621 58.325C106.657 58.1705 106.62 58.0899 106.777 58.1525V58.1517L106.778 58.1525C106.839 58.1766 106.832 58.2418 106.811 58.313C106.774 58.5027 106.831 58.701 106.871 59.0142C106.952 59.6528 107.146 60.3342 106.807 60.9479C106.469 61.5607 106.089 61.5092 105.715 61.9564C105.668 62.0122 105.592 62.0147 105.546 61.9624C105.53 61.9444 105.519 61.922 105.514 61.898Z" fill="white"/>
<path fill-rule="evenodd" clip-rule="evenodd" d="M105.891 58C105.982 58.1934 105.99 58.5603 106 59.1228C106.01 59.6853 105.709 59.9689 105.314 60C105.033 59.8179 104.88 59.458 105.116 59.0452C105.353 58.633 105.668 58.2131 105.891 58Z" fill="white"/>
<path fill-rule="evenodd" clip-rule="evenodd" d="M108.551 61.9775C107.947 61.6351 107.496 61.8119 106.887 61.2842C106.276 60.7528 106.298 59.9744 106.196 59.2783C106.144 58.9302 106.152 58.6982 106.041 58.5129C106.001 58.4456 105.975 58.3866 106.037 58.3436L106.038 58.3426C106.041 58.3398 106.045 58.338 106.049 58.3361C106.21 58.2266 106.196 58.3295 106.285 58.4727C106.371 58.6944 106.412 58.9742 106.456 59.2727C106.504 59.5983 106.556 59.9491 106.669 60.2457C106.728 60.3973 106.812 60.5863 106.908 60.75C106.98 60.8698 107.056 60.9755 107.132 61.0429C107.484 61.3479 107.802 61.3956 108.076 61.4377C108.193 61.4555 108.303 61.4723 108.41 61.5041C108.432 61.4003 108.471 61.3011 108.51 61.1963C108.605 60.9493 108.715 60.663 108.603 60.2251C108.579 60.1297 108.518 60.0146 108.442 59.8986C108.337 59.7386 108.203 59.5786 108.091 59.457C107.871 59.2175 107.572 59.0051 107.294 58.8077C107.039 58.6261 106.8 58.4559 106.636 58.2781C106.543 58.1275 106.444 58.0956 106.636 58.0114V58.0105L106.637 58.0096C106.712 57.9768 106.759 58.033 106.798 58.105C106.919 58.2837 107.133 58.3876 107.425 58.5953C108.02 59.0182 108.751 59.3774 108.945 60.14C109.139 60.9016 108.754 61.1869 108.78 61.8522C108.783 61.9336 108.716 62 108.632 62C108.602 62 108.575 61.9916 108.551 61.9775Z" fill="white"/>
<path fill-rule="evenodd" clip-rule="evenodd" d="M107 58C107.163 58.0876 107.383 58.3723 107.72 58.8093C108.057 59.2471 108.065 59.6849 107.874 59.9902C107.618 60.0454 107.324 59.8703 107.206 59.3757C107.088 58.8819 107.008 58.3266 107 58Z" fill="white"/>
<path fill-rule="evenodd" clip-rule="evenodd" d="M110.898 59.4857C110.306 59.6189 110.144 59.9718 109.43 59.9989C108.709 60.026 108.218 59.5585 107.704 59.2079C107.447 59.0322 107.301 58.8929 107.113 58.8457C107.044 58.8286 106.99 58.8085 107.001 58.7489H107.001L107.001 58.7474C107.001 58.7443 107.002 58.7412 107.003 58.7381C107.031 58.5848 107.089 58.6529 107.237 58.687C107.433 58.7698 107.64 58.9107 107.861 59.0608C108.101 59.2249 108.36 59.4014 108.623 59.512C108.757 59.5685 108.93 59.6328 109.096 59.6754C109.217 59.7055 109.333 59.7257 109.423 59.7226C109.835 59.7063 110.061 59.5593 110.257 59.4323C110.34 59.3781 110.418 59.3271 110.504 59.2868C110.451 59.2133 110.41 59.1343 110.367 59.0508C110.265 58.8542 110.146 58.6266 109.793 58.4316C109.716 58.389 109.605 58.3557 109.483 58.3302C109.315 58.2946 109.128 58.2745 108.981 58.2652C108.691 58.2474 108.37 58.2876 108.072 58.3255C107.798 58.3604 107.541 58.3929 107.325 58.3789C107.171 58.3433 107.09 58.3797 107.153 58.2234H107.152L107.153 58.2218C107.177 58.1615 107.242 58.1684 107.313 58.1893C107.503 58.2265 107.701 58.1692 108.014 58.129C108.653 58.0477 109.334 57.8542 109.948 58.1932C110.561 58.5306 110.509 58.9114 110.956 59.2853C111.012 59.3317 111.015 59.4076 110.962 59.454C110.944 59.4703 110.922 59.4811 110.898 59.4857Z" fill="white"/>
<path fill-rule="evenodd" clip-rule="evenodd" d="M107 58.1094C107.193 58.0175 107.56 58.0097 108.123 58.0003C108.685 57.99 108.969 58.2908 109 58.6858C108.818 58.9669 108.458 59.1201 108.045 58.8837C107.633 58.6473 107.213 58.3316 107 58.1094Z" fill="white"/>
<path fill-rule="evenodd" clip-rule="evenodd" d="M110.978 55.4492C110.635 56.0525 110.812 56.5043 110.284 57.1126C109.753 57.7238 108.974 57.702 108.278 57.8041C107.93 57.8556 107.698 57.8476 107.513 57.9586C107.446 57.9992 107.387 58.025 107.344 57.9626L107.343 57.9616C107.34 57.9586 107.338 57.9546 107.336 57.9507C107.227 57.7902 107.33 57.8041 107.473 57.7149C107.694 57.6287 107.974 57.5881 108.274 57.5435C108.598 57.496 108.949 57.4444 109.246 57.3295C109.397 57.2721 109.586 57.1878 109.75 57.0918C109.87 57.0204 109.975 56.9441 110.043 56.8679C110.348 56.5162 110.396 56.1981 110.438 55.9237C110.455 55.8068 110.472 55.6969 110.504 55.5899C110.4 55.5681 110.301 55.5294 110.196 55.4898C109.949 55.3947 109.663 55.2847 109.225 55.3967C109.13 55.4214 109.015 55.4819 108.899 55.5582C108.739 55.6632 108.579 55.7969 108.457 55.9089C108.217 56.1288 108.005 56.428 107.808 56.7064C107.626 56.961 107.456 57.1997 107.278 57.3642C107.127 57.4573 107.096 57.5564 107.011 57.3642H107.01L107.01 57.3632C106.977 57.2879 107.033 57.2413 107.106 57.2017C107.284 57.0809 107.388 56.8669 107.595 56.5746C108.018 55.9802 108.377 55.2491 109.14 55.0549C109.902 54.8607 110.187 55.2461 110.852 55.2203C110.934 55.2174 111 55.2837 111 55.3679C111 55.3977 110.992 55.4254 110.978 55.4492Z" fill="white"/>
<path fill-rule="evenodd" clip-rule="evenodd" d="M107 57C107.088 56.837 107.372 56.6168 107.809 56.2795C108.247 55.9428 108.685 55.9346 108.99 56.1259C109.045 56.3819 108.87 56.6757 108.376 56.794C107.882 56.9117 107.327 56.9918 107 57Z" fill="white"/>
<path fill-rule="evenodd" clip-rule="evenodd" d="M106.461 58.0119C106.658 58.0629 106.776 58.2639 106.725 58.4609C106.674 58.6569 106.473 58.7759 106.276 58.7249C106.08 58.6739 105.961 58.4729 106.012 58.2759C106.063 58.0789 106.264 57.9609 106.461 58.0119Z" fill="white"/>
<path fill-rule="evenodd" clip-rule="evenodd" d="M107.338 55.7149C107.506 55.5447 107.712 55.3312 107.399 55.0269C107.284 54.9156 107.031 55.1744 107.014 55.3525C106.977 55.744 107.023 55.7418 107.023 56C107.124 56 107.287 55.7667 107.338 55.7149Z" fill="#F7F5EB"/>
<path fill-rule="evenodd" clip-rule="evenodd" d="M108.295 56.7148C108.532 56.6698 108.978 56.4368 109 56.0968C109.012 55.9098 108.623 56.0238 108.466 56.1848C108.259 56.3978 108.232 56.4458 108.161 56.5428C107.851 56.9638 108.04 56.7628 108.295 56.7148Z" fill="#F7F5EB"/>
<path fill-rule="evenodd" clip-rule="evenodd" d="M105.667 55.7093C105.656 55.5908 105.647 55.4437 105.583 55.3167C105.492 55.1371 105.27 54.9909 105.105 55.0004C104.947 55.01 104.982 55.3768 105.116 55.5345C105.291 55.7418 105.386 55.7647 105.466 55.8363C105.816 56.1478 105.69 55.9634 105.667 55.7093Z" fill="#F7F5EB"/>
<path fill-rule="evenodd" clip-rule="evenodd" d="M107.403 58.3165C107.575 58.5585 107.805 58.7295 107.628 58.9475C107.535 59.0625 107.299 58.9175 107.223 58.6775C107.054 58.1505 107.088 58.3555 107 58.0015C107.098 57.9775 107.352 58.2445 107.403 58.3165Z" fill="#F7F5EB"/>
<path fill-rule="evenodd" clip-rule="evenodd" d="M106.08 58.424C105.991 58.707 105.956 58.819 106.08 58.965C106.176 59.077 106.383 58.835 106.382 58.583C106.38 58.03 106.392 58.364 106.366 58C106.265 58.008 106.107 58.339 106.08 58.424Z" fill="#F7F5EB"/>
<path fill-rule="evenodd" clip-rule="evenodd" d="M104.552 58.0708C104.308 58.1778 103.977 58.2608 104.001 58.5398C104.014 58.6868 104.258 58.6958 104.43 58.5378C104.81 58.1918 104.764 58.2768 105 58.0298C104.94 57.9558 104.625 58.0388 104.552 58.0708Z" fill="#F7F5EB"/>
<path fill-rule="evenodd" clip-rule="evenodd" d="M104.802 57.273C104.722 57.191 104.626 57.087 104.507 57.035C104.341 56.963 104.114 57.006 104.02 57.128C103.928 57.244 104.176 57.497 104.356 57.523C104.592 57.558 104.663 57.51 104.757 57.508C105.165 57.501 104.973 57.449 104.802 57.273Z" fill="#F7F5EB"/>
<path fill-rule="evenodd" clip-rule="evenodd" d="M108.203 58.2785C108.285 58.3565 108.384 58.4555 108.503 58.5005C108.67 58.5645 108.893 58.5095 108.983 58.3835C109.069 58.2625 108.813 58.0225 108.635 58.0055C108.401 57.9835 108.331 58.0345 108.239 58.0415C107.836 58.0695 108.027 58.1115 108.203 58.2785Z" fill="#F7F5EB"/>
<path fill-rule="evenodd" clip-rule="evenodd" d="M58.2644 75C57.8847 75 57.5525 74.9355 57.2678 74.8071C56.9831 74.678 56.7471 74.5015 56.5593 74.276C56.3715 74.0519 56.2312 73.7871 56.139 73.4829C56.0461 73.1788 56 72.8516 56 72.5C56 72.2077 56.0461 71.9139 56.139 71.6165C56.2312 71.3205 56.3715 71.0527 56.5593 70.8116C56.7471 70.572 56.9831 70.3776 57.2678 70.2255C57.5525 70.0749 57.8847 70 58.2644 70C58.4136 70 58.5498 70.0037 58.6746 70.0104C58.7986 70.0185 58.9173 70.0312 59.0305 70.0482C59.1431 70.066 59.2542 70.0875 59.3627 70.115C59.4712 70.1417 59.5837 70.1728 59.7017 70.2077C59.7058 70.3412 59.722 70.5037 59.7492 70.6973C59.7763 70.8902 59.8122 71.0861 59.8576 71.2834C59.821 71.3034 59.7851 71.3131 59.7492 71.3131C59.7132 71.3131 59.68 71.3079 59.6508 71.2982C59.621 71.2886 59.602 71.2611 59.5932 71.2159C59.5119 70.8902 59.3831 70.6573 59.2068 70.5193C59.0305 70.3806 58.7749 70.3116 58.4407 70.3116C58.1607 70.3116 57.9125 70.3613 57.6983 70.4599C57.4834 70.5593 57.3031 70.6973 57.1559 70.8746C57.0088 71.0534 56.8983 71.2678 56.8237 71.5171C56.7492 71.7671 56.7119 72.0453 56.7119 72.3516C56.7119 72.6929 56.7593 73.0067 56.8542 73.2938C56.9492 73.5809 57.0766 73.8279 57.2373 74.0356C57.398 74.2426 57.5851 74.4036 57.8 74.5178C58.0142 74.6313 58.2441 74.6884 58.4881 74.6884C58.6827 74.6884 58.8461 74.6677 58.9797 74.6254C59.1125 74.5831 59.2237 74.5223 59.3119 74.4436C59.4 74.365 59.4746 74.2671 59.5356 74.1499C59.5966 74.0341 59.6542 73.9021 59.7085 73.7537C59.7403 73.6795 59.7939 73.6424 59.8712 73.6424C59.8936 73.6424 59.9173 73.6461 59.9424 73.6536C59.9675 73.661 59.9864 73.6699 60 73.6795C59.9458 73.8524 59.8915 74.043 59.8373 74.2507C59.7831 74.4585 59.7376 74.6662 59.7017 74.8739C59.48 74.9132 59.2542 74.9444 59.0237 74.9666C58.7932 74.9889 58.5403 75 58.2644 75Z" fill="#7A7A7A"/>
<path fill-rule="evenodd" clip-rule="evenodd" d="M67.6178 74.6439C67.856 74.6439 68.0744 74.5994 68.2723 74.5104C68.4701 74.4214 68.6399 74.2982 68.7822 74.1395C68.9237 73.9814 69.0341 73.7938 69.1132 73.5764C69.1916 73.3583 69.2312 73.1209 69.2312 72.8642C69.2312 72.5074 69.1931 72.178 69.117 71.8739C69.0409 71.569 68.9252 71.3049 68.7708 71.0794C68.6163 70.8546 68.4207 70.6773 68.1848 70.5489C67.9488 70.4206 67.6733 70.3568 67.359 70.3568C67.1505 70.3568 66.9519 70.3946 66.7616 70.4711C66.5714 70.5482 66.4039 70.6595 66.2593 70.8049C66.1147 70.951 65.9991 71.1306 65.9131 71.3435C65.8263 71.5556 65.7837 71.8004 65.7837 72.0771C65.7837 72.4436 65.824 72.7834 65.9055 73.0972C65.9861 73.4117 66.1041 73.6832 66.2593 73.9139C66.4138 74.1432 66.6056 74.3227 66.8339 74.451C67.0622 74.5801 67.3233 74.6439 67.6178 74.6439ZM65 72.5C65 72.1588 65.0632 71.8375 65.1903 71.5364C65.3174 71.2337 65.4893 70.9696 65.7078 70.7418C65.9254 70.5148 66.1796 70.3338 66.4688 70.201C66.758 70.0668 67.0624 70 67.382 70C67.8234 70 68.2085 70.0682 68.5388 70.2047C68.8683 70.3405 69.1408 70.523 69.3569 70.753C69.5723 70.9829 69.7336 71.2493 69.8402 71.5504C69.9467 71.8524 70 72.1691 70 72.5C70 72.8909 69.9338 73.2404 69.8021 73.5497C69.6697 73.8591 69.4886 74.1209 69.258 74.3361C69.0274 74.5512 68.7557 74.7159 68.4437 74.8294C68.1317 74.9429 67.7976 75 67.4429 75C67.0822 75 66.7527 74.9407 66.4536 74.822C66.1545 74.7033 65.8965 74.5349 65.6811 74.3145C65.465 74.0942 65.2983 73.8301 65.1788 73.5237C65.0594 73.2174 65 72.8761 65 72.5Z" fill="#7A7A7A"/>
<mask id="mask0" mask-type="alpha" maskUnits="userSpaceOnUse" x="77" y="69" width="7" height="6">
<path fill-rule="evenodd" clip-rule="evenodd" d="M77.3569 69.2427H83.6725V74.1429H77.3569V69.2427Z" fill="white"/>
</mask>
<g mask="url(#mask0)">
<path fill-rule="evenodd" clip-rule="evenodd" d="M82.1714 69.419C82.1815 69.3992 82.1932 69.3793 82.2064 69.3602C82.2196 69.3404 82.2414 69.3257 82.2725 69.3154C82.3036 69.3066 82.3456 69.2978 82.3969 69.2897C82.449 69.2823 82.5214 69.2794 82.6147 69.2794C82.6567 69.2794 82.7104 69.2779 82.778 69.2757C82.8457 69.2735 82.918 69.2706 82.9958 69.2684C83.0736 69.2655 83.1529 69.2618 83.233 69.2566C83.3132 69.2522 83.387 69.2478 83.4547 69.2427C83.4656 69.2912 83.4703 69.3308 83.4703 69.3602C83.4703 69.4381 83.4446 69.48 83.3925 69.4851C83.2058 69.5094 83.0814 69.5424 83.0192 69.5843C82.9569 69.6255 82.9258 69.6806 82.9258 69.7489C82.9258 69.754 82.9297 69.8194 82.9375 69.9443C82.9453 70.0692 82.9569 70.2771 82.9725 70.5681C82.988 70.8597 83.0075 71.2477 83.0308 71.7326C83.0542 72.2182 83.0814 72.8206 83.1125 73.5399C83.1179 73.6332 83.1514 73.7015 83.2136 73.7463C83.2758 73.7897 83.4026 73.8272 83.5947 73.8566C83.6204 73.861 83.6398 73.8742 83.653 73.897C83.6663 73.919 83.6725 73.944 83.6725 73.9734C83.6725 74.0028 83.667 74.0424 83.6569 74.0909C83.4757 74.0814 83.3108 74.0733 83.163 74.0652C83.0153 74.0579 82.8792 74.0549 82.7547 74.0549C82.7034 74.0549 82.638 74.0564 82.5603 74.0579C82.4825 74.0601 82.4008 74.063 82.3153 74.0652C82.2297 74.0681 82.1457 74.0718 82.0625 74.077C81.9793 74.0814 81.9069 74.0865 81.8447 74.0909C81.8346 74.0424 81.8292 74.0028 81.8292 73.9734C81.8292 73.8955 81.8548 73.8566 81.9069 73.8566C82.1146 73.8169 82.2554 73.7779 82.3308 73.739C82.4063 73.6993 82.4436 73.6332 82.4436 73.5399C82.4436 73.5259 82.4397 73.4348 82.4319 73.2681C82.4242 73.102 82.414 72.8985 82.4008 72.6583C82.3876 72.4188 82.3752 72.1587 82.3619 71.8802C82.3495 71.601 82.3363 71.3373 82.323 71.0897C82.3098 70.8428 82.2989 70.6298 82.288 70.4505C82.2779 70.272 82.2725 70.1632 82.2725 70.1243L80.5692 74.0108C80.5489 74.0549 80.5287 74.0872 80.5108 74.11C80.4929 74.1321 80.468 74.1431 80.4369 74.1431C80.4012 74.1431 80.377 74.1401 80.3669 74.1357L78.4614 70.0068C78.4567 70.0552 78.4497 70.1743 78.4419 70.3623C78.4342 70.5512 78.424 70.776 78.4108 71.0346C78.3976 71.2947 78.3836 71.5695 78.368 71.8575C78.3525 72.1469 78.3385 72.4136 78.3253 72.6583C78.3128 72.9037 78.3019 73.1094 78.2942 73.2761C78.2864 73.4429 78.2825 73.5311 78.2825 73.5399C78.2825 73.692 78.459 73.7978 78.8114 73.8566C78.8635 73.861 78.8892 73.9006 78.8892 73.9734C78.8892 74.0028 78.8837 74.0424 78.8736 74.0909C78.7336 74.0814 78.5959 74.0733 78.4614 74.0652C78.3268 74.0579 78.207 74.0549 78.1036 74.0549C78.0212 74.0549 77.9092 74.0579 77.7692 74.0652C77.6292 74.0733 77.4969 74.0814 77.3725 74.0909C77.3624 74.0424 77.3569 74.0028 77.3569 73.9734C77.3569 73.905 77.3826 73.8661 77.4347 73.8566C77.5747 73.8316 77.6875 73.7963 77.773 73.75C77.8586 73.703 77.9068 73.6332 77.9169 73.5399C77.9169 73.4966 77.9224 73.3724 77.9325 73.1689C77.9426 72.9661 77.955 72.7251 77.9675 72.4452C77.9807 72.166 77.9947 71.8699 78.0103 71.5562C78.0258 71.2432 78.0398 70.953 78.053 70.6863C78.0663 70.4189 78.0764 70.1992 78.0842 70.0244C78.0919 69.851 78.0958 69.7614 78.0958 69.757C78.0958 69.6783 78.0632 69.6203 77.9986 69.5843C77.934 69.5476 77.8112 69.5145 77.6292 69.4851C77.577 69.48 77.5514 69.4381 77.5514 69.3602C77.5514 69.3308 77.5568 69.2912 77.5669 69.2427C77.6346 69.2478 77.7108 69.2522 77.7964 69.2566C77.8819 69.2618 77.9675 69.2655 78.053 69.2684C78.1386 69.2706 78.2203 69.2735 78.298 69.2757C78.3758 69.2779 78.438 69.2794 78.4847 69.2794C78.578 69.2794 78.6512 69.2823 78.7025 69.2897C78.7546 69.2978 78.7958 69.3066 78.8269 69.3154C78.858 69.3257 78.8806 69.3404 78.893 69.3602C78.9063 69.3793 78.9179 69.3992 78.928 69.419L80.5925 73.0844L82.1714 69.419Z" fill="#7A7A7A"/>
</g>
<mask id="mask1" mask-type="alpha" maskUnits="userSpaceOnUse" x="88" y="69" width="7" height="6">
<path fill-rule="evenodd" clip-rule="evenodd" d="M88.0454 69.2427H94.361V74.1429H88.0454V69.2427Z" fill="white"/>
</mask>
<g mask="url(#mask1)">
<path fill-rule="evenodd" clip-rule="evenodd" d="M92.8599 69.419C92.87 69.3992 92.8816 69.3793 92.8949 69.3602C92.9081 69.3404 92.9299 69.3257 92.961 69.3154C92.9921 69.3066 93.0341 69.2978 93.0854 69.2897C93.1375 69.2823 93.2099 69.2794 93.3032 69.2794C93.3452 69.2794 93.3989 69.2779 93.4665 69.2757C93.5342 69.2735 93.6065 69.2706 93.6843 69.2684C93.7621 69.2655 93.8414 69.2618 93.9215 69.2566C94.0016 69.2522 94.0755 69.2478 94.1432 69.2427C94.1541 69.2912 94.1587 69.3308 94.1587 69.3602C94.1587 69.4381 94.1331 69.48 94.081 69.4851C93.8943 69.5094 93.7699 69.5424 93.7076 69.5843C93.6454 69.6255 93.6143 69.6806 93.6143 69.7489C93.6143 69.754 93.6182 69.8194 93.626 69.9443C93.6337 70.0692 93.6454 70.2771 93.661 70.5681C93.6765 70.8597 93.696 71.2477 93.7193 71.7326C93.7426 72.2182 93.7699 72.8206 93.801 73.5399C93.8064 73.6332 93.8399 73.7015 93.9021 73.7463C93.9643 73.7897 94.0911 73.8272 94.2832 73.8566C94.3089 73.861 94.3283 73.8742 94.3415 73.897C94.3547 73.919 94.361 73.944 94.361 73.9734C94.361 74.0028 94.3555 74.0424 94.3454 74.0909C94.1642 74.0814 93.9993 74.0733 93.8515 74.0652C93.7037 74.0579 93.5676 74.0549 93.4432 74.0549C93.3919 74.0549 93.3265 74.0564 93.2487 74.0579C93.171 74.0601 93.0893 74.063 93.0037 74.0652C92.9182 74.0681 92.8342 74.0718 92.751 74.077C92.6677 74.0814 92.5954 74.0865 92.5332 74.0909C92.5231 74.0424 92.5176 74.0028 92.5176 73.9734C92.5176 73.8955 92.5433 73.8566 92.5954 73.8566C92.8031 73.8169 92.9439 73.7779 93.0193 73.739C93.0947 73.6993 93.1321 73.6332 93.1321 73.5399C93.1321 73.5259 93.1282 73.4348 93.1204 73.2681C93.1126 73.102 93.1025 72.8985 93.0893 72.6583C93.0761 72.4188 93.0636 72.1587 93.0504 71.8802C93.038 71.601 93.0247 71.3373 93.0115 71.0897C92.9983 70.8428 92.9874 70.6298 92.9765 70.4505C92.9664 70.272 92.961 70.1632 92.961 70.1243L91.2576 74.0108C91.2374 74.0549 91.2172 74.0872 91.1993 74.11C91.1814 74.1321 91.1565 74.1431 91.1254 74.1431C91.0896 74.1431 91.0655 74.1401 91.0554 74.1357L89.1499 70.0068C89.1452 70.0552 89.1382 70.1743 89.1304 70.3623C89.1226 70.5512 89.1125 70.776 89.0993 71.0346C89.0861 71.2947 89.0721 71.5695 89.0565 71.8575C89.041 72.1469 89.027 72.4136 89.0137 72.6583C89.0013 72.9037 88.9904 73.1094 88.9826 73.2761C88.9749 73.4429 88.971 73.5311 88.971 73.5399C88.971 73.692 89.1475 73.7978 89.4999 73.8566C89.552 73.861 89.5776 73.9006 89.5776 73.9734C89.5776 74.0028 89.5722 74.0424 89.5621 74.0909C89.4221 74.0814 89.2844 74.0733 89.1499 74.0652C89.0153 74.0579 88.8955 74.0549 88.7921 74.0549C88.7096 74.0549 88.5976 74.0579 88.4576 74.0652C88.3176 74.0733 88.1854 74.0814 88.061 74.0909C88.0509 74.0424 88.0454 74.0028 88.0454 73.9734C88.0454 73.905 88.0711 73.8661 88.1232 73.8566C88.2632 73.8316 88.376 73.7963 88.4615 73.75C88.5471 73.703 88.5953 73.6332 88.6054 73.5399C88.6054 73.4966 88.6109 73.3724 88.621 73.1689C88.6311 72.9661 88.6435 72.7251 88.656 72.4452C88.6692 72.166 88.6832 71.8699 88.6987 71.5562C88.7143 71.2432 88.7283 70.953 88.7415 70.6863C88.7547 70.4189 88.7649 70.1992 88.7726 70.0244C88.7804 69.851 88.7843 69.7614 88.7843 69.757C88.7843 69.6783 88.7516 69.6203 88.6871 69.5843C88.6225 69.5476 88.4996 69.5145 88.3176 69.4851C88.2655 69.48 88.2399 69.4381 88.2399 69.3602C88.2399 69.3308 88.2453 69.2912 88.2554 69.2427C88.3231 69.2478 88.3993 69.2522 88.4849 69.2566C88.5704 69.2618 88.656 69.2655 88.7415 69.2684C88.8271 69.2706 88.9087 69.2735 88.9865 69.2757C89.0643 69.2779 89.1265 69.2794 89.1732 69.2794C89.2665 69.2794 89.3396 69.2823 89.391 69.2897C89.4431 69.2978 89.4843 69.3066 89.5154 69.3154C89.5465 69.3257 89.5691 69.3404 89.5815 69.3602C89.5947 69.3793 89.6064 69.3992 89.6165 69.419L91.281 73.0844L92.8599 69.419Z" fill="#7A7A7A"/>
</g>
<path fill-rule="evenodd" clip-rule="evenodd" d="M101.618 74.6439C101.856 74.6439 102.074 74.5994 102.272 74.5104C102.47 74.4214 102.64 74.2982 102.782 74.1395C102.924 73.9814 103.034 73.7938 103.113 73.5764C103.192 73.3583 103.231 73.1209 103.231 72.8642C103.231 72.5074 103.193 72.178 103.117 71.8739C103.041 71.569 102.925 71.3049 102.771 71.0794C102.616 70.8546 102.421 70.6773 102.185 70.5489C101.949 70.4206 101.673 70.3568 101.359 70.3568C101.151 70.3568 100.952 70.3946 100.762 70.4711C100.571 70.5482 100.404 70.6595 100.259 70.8049C100.115 70.951 99.9991 71.1306 99.9131 71.3435C99.8263 71.5556 99.7837 71.8004 99.7837 72.0771C99.7837 72.4436 99.824 72.7834 99.9055 73.0972C99.9861 73.4117 100.104 73.6832 100.259 73.9139C100.414 74.1432 100.606 74.3227 100.834 74.451C101.062 74.5801 101.323 74.6439 101.618 74.6439ZM99 72.5C99 72.1588 99.0632 71.8375 99.1903 71.5364C99.3174 71.2337 99.4893 70.9696 99.7078 70.7418C99.9254 70.5148 100.18 70.3338 100.469 70.201C100.758 70.0668 101.062 70 101.382 70C101.823 70 102.209 70.0682 102.539 70.2047C102.868 70.3405 103.141 70.523 103.357 70.753C103.572 70.9829 103.734 71.2493 103.84 71.5504C103.947 71.8524 104 72.1691 104 72.5C104 72.8909 103.934 73.2404 103.802 73.5497C103.67 73.8591 103.489 74.1209 103.258 74.3361C103.027 74.5512 102.756 74.7159 102.444 74.8294C102.132 74.9429 101.798 75 101.443 75C101.082 75 100.753 74.9407 100.454 74.822C100.154 74.7033 99.8965 74.5349 99.6811 74.3145C99.465 74.0942 99.2983 73.8301 99.1788 73.5237C99.0594 73.2174 99 72.8761 99 72.5Z" fill="#7A7A7A"/>
<path fill-rule="evenodd" clip-rule="evenodd" d="M115.212 72.6443C115.212 71.8662 115.02 71.2888 114.636 70.913C114.254 70.5364 113.694 70.3485 112.959 70.3485H112.306V74.3794C112.306 74.4294 112.318 74.4726 112.344 74.5082C112.368 74.5431 112.411 74.5711 112.471 74.5908C112.531 74.612 112.614 74.6264 112.719 74.637C112.823 74.6469 112.956 74.6514 113.117 74.6514C113.502 74.6514 113.827 74.6052 114.093 74.512C114.358 74.4181 114.573 74.2847 114.739 74.1104C114.904 73.9354 115.024 73.7255 115.099 73.4778C115.173 73.23 115.212 72.9519 115.212 72.6443ZM116 72.5004C116 72.7982 115.948 73.0937 115.846 73.3861C115.743 73.6793 115.588 73.9438 115.381 74.1779C115.173 74.4135 114.91 74.603 114.592 74.7462C114.274 74.8909 113.902 74.9629 113.477 74.9629H111.938C111.808 74.9629 111.661 74.9659 111.495 74.9735C111.33 74.9818 111.17 74.9901 111.015 75C111.005 74.95 111 74.9091 111 74.8788C111 74.8083 111.027 74.7681 111.083 74.7583C111.267 74.7121 111.4 74.6696 111.48 74.6287C111.561 74.5886 111.6 74.5227 111.6 74.4317V70.5758C111.6 70.4751 111.563 70.4038 111.488 70.3629C111.412 70.3235 111.278 70.2856 111.083 70.25C111.053 70.2447 111.032 70.2296 111.019 70.2038C111.006 70.1788 111 70.1515 111 70.1212C111 70.0909 111.005 70.05 111.015 70C111.12 70.0098 111.211 70.0159 111.288 70.0182C111.366 70.0212 111.441 70.025 111.51 70.0303C111.58 70.0356 111.649 70.0379 111.717 70.0379H111.931H113.47C113.89 70.0379 114.259 70.103 114.577 70.2341C114.895 70.366 115.159 70.5433 115.369 70.7653C115.579 70.9873 115.736 71.2472 115.842 71.5457C115.947 71.8435 116 72.1617 116 72.5004Z" fill="#7A7A7A"/>
<path fill-rule="evenodd" clip-rule="evenodd" d="M122.382 74.4318C122.382 74.5333 122.42 74.603 122.496 74.6402C122.572 74.678 122.712 74.7174 122.919 74.7583C122.973 74.7674 123 74.8083 123 74.8788C123 74.9091 122.994 74.95 122.984 75C122.815 74.9894 122.647 74.9818 122.48 74.9735C122.311 74.9659 122.152 74.9621 122 74.9621C121.854 74.9621 121.692 74.9659 121.516 74.9735C121.34 74.9818 121.173 74.9894 121.016 75C121.006 74.95 121 74.9091 121 74.8788C121 74.8083 121.027 74.7674 121.08 74.7583C121.287 74.7227 121.428 74.6848 121.504 74.6439C121.58 74.6038 121.618 74.5333 121.618 74.4318V70.5758C121.618 70.475 121.58 70.403 121.504 70.3598C121.428 70.3167 121.287 70.2811 121.08 70.25C121.048 70.2455 121.027 70.2303 121.016 70.2045C121.006 70.1795 121 70.1523 121 70.122C121 70.0917 121.006 70.0508 121.016 70C121.179 70.0106 121.349 70.0189 121.524 70.0273C121.7 70.0341 121.859 70.0379 122 70.0379C122.135 70.0379 122.291 70.0341 122.467 70.0273C122.643 70.0189 122.815 70.0106 122.984 70C122.994 70.0508 123 70.0917 123 70.122C123 70.197 122.973 70.2402 122.919 70.25C122.712 70.2811 122.572 70.3167 122.496 70.3598C122.42 70.403 122.382 70.475 122.382 70.5758V74.4318Z" fill="#7A7A7A"/>
<path fill-rule="evenodd" clip-rule="evenodd" d="M131.295 70.3555V74.3949C131.295 74.5106 131.334 74.593 131.414 74.6407C131.493 74.6891 131.627 74.7247 131.815 74.7504C131.861 74.7504 131.884 74.7905 131.884 74.8714C131.884 74.907 131.88 74.9493 131.871 75C131.738 74.9894 131.596 74.9811 131.448 74.9728C131.3 74.966 131.151 74.9622 131 74.9622C130.854 74.9622 130.705 74.966 130.552 74.9728C130.399 74.9811 130.256 74.9894 130.122 75C130.113 74.9493 130.11 74.907 130.11 74.8714C130.11 74.8011 130.131 74.7602 130.172 74.7504C130.361 74.7201 130.497 74.6823 130.58 74.6369C130.663 74.5915 130.705 74.5106 130.705 74.3949V70.3555H130.06C129.934 70.3555 129.828 70.3707 129.743 70.4009C129.658 70.4312 129.584 70.4766 129.52 70.5371C129.458 70.5976 129.403 70.6755 129.357 70.7716C129.312 70.8676 129.263 70.9781 129.213 71.1044C129.205 71.1293 129.192 71.1475 129.172 71.1573C129.154 71.1672 129.136 71.1725 129.119 71.1725C129.073 71.1725 129.034 71.1573 129 71.1271C129.041 70.9455 129.073 70.7837 129.094 70.643C129.115 70.5015 129.134 70.3843 129.15 70.2912C129.167 70.1982 129.185 70.1256 129.204 70.0756C129.223 70.025 129.253 70 129.295 70C129.324 70 129.366 70.0023 129.42 70.0076C129.475 70.0129 129.532 70.0182 129.592 70.0227C129.653 70.0272 129.715 70.0325 129.777 70.0378C129.84 70.0431 129.898 70.0454 129.953 70.0454H132.047C132.097 70.0454 132.154 70.0431 132.216 70.0378C132.279 70.0325 132.342 70.0272 132.405 70.0227C132.467 70.0182 132.525 70.0129 132.577 70.0076C132.629 70.0023 132.671 70 132.705 70C132.747 70 132.777 70.0257 132.797 70.0794C132.815 70.1324 132.833 70.2073 132.85 70.3026C132.866 70.3986 132.884 70.5166 132.903 70.6573C132.922 70.7995 132.954 70.9554 133 71.1271C132.979 71.1369 132.959 71.1475 132.94 71.1573C132.922 71.1672 132.9 71.1725 132.875 71.1725C132.858 71.1725 132.839 71.1672 132.818 71.1573C132.797 71.1475 132.782 71.1293 132.774 71.1044C132.728 70.9781 132.682 70.8676 132.636 70.7716C132.59 70.6755 132.537 70.5976 132.476 70.5371C132.416 70.4766 132.343 70.4312 132.257 70.4009C132.171 70.3707 132.066 70.3555 131.94 70.3555H131.295Z" fill="#7A7A7A"/>
<path fill-rule="evenodd" clip-rule="evenodd" d="M140.382 74.4318C140.382 74.5333 140.42 74.603 140.496 74.6402C140.572 74.678 140.712 74.7174 140.919 74.7583C140.973 74.7674 141 74.8083 141 74.8788C141 74.9091 140.994 74.95 140.984 75C140.815 74.9894 140.647 74.9818 140.48 74.9735C140.311 74.9659 140.152 74.9621 140 74.9621C139.854 74.9621 139.692 74.9659 139.516 74.9735C139.34 74.9818 139.173 74.9894 139.016 75C139.006 74.95 139 74.9091 139 74.8788C139 74.8083 139.027 74.7674 139.08 74.7583C139.287 74.7227 139.428 74.6848 139.504 74.6439C139.58 74.6038 139.618 74.5333 139.618 74.4318V70.5758C139.618 70.475 139.58 70.403 139.504 70.3598C139.428 70.3167 139.287 70.2811 139.08 70.25C139.048 70.2455 139.027 70.2303 139.016 70.2045C139.006 70.1795 139 70.1523 139 70.122C139 70.0917 139.006 70.0508 139.016 70C139.179 70.0106 139.349 70.0189 139.524 70.0273C139.7 70.0341 139.859 70.0379 140 70.0379C140.135 70.0379 140.291 70.0341 140.467 70.0273C140.643 70.0189 140.815 70.0106 140.984 70C140.994 70.0508 141 70.0917 141 70.122C141 70.197 140.973 70.2402 140.919 70.25C140.712 70.2811 140.572 70.3167 140.496 70.3598C140.42 70.403 140.382 70.475 140.382 70.5758V74.4318Z" fill="#7A7A7A"/>
<path fill-rule="evenodd" clip-rule="evenodd" d="M148.333 70.3555V72.292H149.522C149.623 72.292 149.696 72.2428 149.739 72.1445C149.782 72.0454 149.816 71.9259 149.842 71.7852C149.857 71.7201 149.903 71.6868 149.979 71.6868C149.994 71.6868 150.015 71.6899 150.04 71.6944C150.065 71.6989 150.086 71.7042 150.101 71.7095C150.091 71.8207 150.082 71.947 150.074 72.0877C150.067 72.2292 150.064 72.3525 150.064 72.4584C150.064 72.5446 150.065 72.6483 150.07 72.7723C150.075 72.8956 150.086 73.0356 150.101 73.1921C150.061 73.2027 150.022 73.2073 149.987 73.2073C149.905 73.2073 149.857 73.1747 149.842 73.1089C149.816 72.9675 149.782 72.848 149.739 72.7496C149.696 72.6513 149.623 72.6021 149.522 72.6021H148.333V74.3873C148.333 74.4932 148.402 74.5635 148.54 74.5983C148.676 74.6339 148.902 74.652 149.217 74.652H149.636C149.783 74.652 149.911 74.6301 150.021 74.5877C150.13 74.5446 150.227 74.4871 150.31 74.4138C150.394 74.3411 150.47 74.2534 150.535 74.1528C150.602 74.0522 150.665 73.941 150.726 73.82C150.741 73.7844 150.779 73.767 150.84 73.767C150.865 73.767 150.892 73.7746 150.921 73.7897C150.948 73.8048 150.975 73.82 151 73.8351C150.954 73.9312 150.915 74.0454 150.882 74.1793C150.849 74.3124 150.817 74.4395 150.787 74.5613C150.756 74.6823 150.725 74.7852 150.691 74.8714C150.659 74.9569 150.617 75 150.566 75C150.525 75 150.467 74.9977 150.39 74.9924C150.314 74.9871 150.231 74.9834 150.143 74.9811C150.054 74.9781 149.964 74.9743 149.873 74.9697C149.781 74.9644 149.702 74.9622 149.636 74.9622H147.968C147.82 74.9622 147.663 74.966 147.495 74.9728C147.328 74.9811 147.168 74.9894 147.016 75C147.005 74.9493 147 74.9092 147 74.8782C147 74.8086 147.025 74.7678 147.076 74.7579C147.27 74.7224 147.408 74.6853 147.492 74.6445C147.575 74.6036 147.617 74.5333 147.617 74.4327V70.5825C147.617 70.4818 147.581 70.4123 147.507 70.3737C147.433 70.3366 147.29 70.2973 147.076 70.2572C147.025 70.2466 147 70.2042 147 70.1286C147 70.1036 147.002 70.0825 147.004 70.0643C147.007 70.0469 147.011 70.0272 147.016 70.0076C147.234 70.0227 147.417 70.0325 147.564 70.0378C147.712 70.0431 147.843 70.0454 147.96 70.0454H149.461C149.69 70.0454 149.888 70.0378 150.055 70.0227C150.223 70.0076 150.335 70 150.39 70C150.456 70 150.501 70.0416 150.524 70.1248C150.547 70.208 150.566 70.3079 150.581 70.4236C150.596 70.5393 150.614 70.6626 150.635 70.7943C150.655 70.9251 150.693 71.0356 150.749 71.1271C150.707 71.1573 150.662 71.1725 150.611 71.1725C150.545 71.1725 150.502 71.1498 150.482 71.1044C150.421 70.9728 150.362 70.8608 150.307 70.7678C150.251 70.6747 150.186 70.5976 150.112 70.5371C150.038 70.4766 149.95 70.4312 149.846 70.4009C149.742 70.3707 149.613 70.3555 149.461 70.3555H148.333Z" fill="#7A7A7A"/>
<mask id="mask2" mask-type="alpha" maskUnits="userSpaceOnUse" x="156" y="69" width="4" height="5">
<path fill-rule="evenodd" clip-rule="evenodd" d="M156.485 69.1923H159.432V74H156.485V69.1923Z" fill="white"/>
</mask>
<g mask="url(#mask2)">
<path fill-rule="evenodd" clip-rule="evenodd" d="M159.285 70.393C159.24 70.4023 159.207 70.4073 159.185 70.4073C159.127 70.4073 159.084 70.3951 159.058 70.3715C159.031 70.348 159.012 70.3208 158.998 70.2923C158.882 70.0208 158.744 69.8237 158.584 69.6994C158.425 69.5758 158.207 69.5144 157.932 69.5144C157.825 69.5144 157.724 69.5294 157.628 69.5608C157.532 69.5915 157.449 69.6365 157.378 69.6958C157.307 69.7558 157.25 69.8287 157.208 69.9144C157.166 69.9994 157.144 70.0951 157.144 70.1994C157.144 70.4237 157.232 70.6073 157.408 70.7501C157.584 70.8923 157.842 71.038 158.185 71.1851C158.611 71.3665 158.926 71.568 159.128 71.7894C159.33 72.0108 159.432 72.283 159.432 72.6073C159.432 72.8023 159.404 72.9844 159.348 73.153C159.292 73.323 159.206 73.4708 159.088 73.5958C158.97 73.7223 158.818 73.8215 158.632 73.8923C158.444 73.9644 158.22 74.0001 157.958 74.0001C157.682 74.0001 157.432 73.9687 157.208 73.9073C156.984 73.8451 156.794 73.7644 156.638 73.6644C156.625 73.4644 156.604 73.2708 156.578 73.0858C156.551 72.9001 156.52 72.7144 156.485 72.528C156.516 72.5144 156.553 72.5073 156.598 72.5073C156.652 72.5073 156.692 72.5208 156.721 72.5465C156.75 72.573 156.776 72.6137 156.798 72.6708C156.91 73.0144 157.052 73.2665 157.228 73.4287C157.404 73.5908 157.649 73.6715 157.965 73.6715C158.106 73.6715 158.232 73.6501 158.338 73.6073C158.444 73.5637 158.534 73.5044 158.604 73.4287C158.676 73.353 158.729 73.2665 158.765 73.1715C158.8 73.0765 158.818 72.9737 158.818 72.8644C158.818 72.6165 158.739 72.4215 158.581 72.2787C158.424 72.1351 158.198 72.0073 157.905 71.893C157.714 71.8165 157.54 71.7373 157.384 71.6537C157.229 71.5701 157.096 71.4737 156.985 71.3637C156.874 71.2544 156.788 71.1273 156.728 70.9815C156.668 70.8365 156.638 70.6644 156.638 70.4644C156.638 70.2887 156.668 70.1223 156.728 69.9673C156.788 69.813 156.875 69.6787 156.988 69.5644C157.102 69.4501 157.238 69.3594 157.398 69.293C157.558 69.2258 157.738 69.1923 157.938 69.1923C158.147 69.1923 158.347 69.2144 158.538 69.2573C158.729 69.3001 158.944 69.3708 159.185 69.4715C159.194 69.6144 159.206 69.768 159.221 69.9315C159.237 70.0965 159.258 70.2501 159.285 70.393Z" fill="#7A7A7A"/>
</g>
<path fill-rule="evenodd" clip-rule="evenodd" d="M48 35.6776C44.5211 35.7059 41.2229 35.4368 38.0007 35C37.9993 35.3004 38.0007 35.6 38 35.9004C41.1891 36.0729 44.4791 36.0352 48 35.6776Z" fill="#7A7A7A"/>
<path fill-rule="evenodd" clip-rule="evenodd" d="M58 34.5068C51.2492 34.6191 44.7054 33.477 38.0021 32C38.0007 32.6277 38.0014 33.2534 38 33.8811C44.7246 34.951 51.2336 35.4373 58 34.5068Z" fill="#7A7A7A"/>
<path fill-rule="evenodd" clip-rule="evenodd" d="M42 38.139C40.635 38.142 39.3074 38.089 38.0029 38C38.0022 38.144 38.0007 38.289 38 38.433C39.2952 38.379 40.6228 38.287 42 38.139Z" fill="#7A7A7A"/>
<path fill-rule="evenodd" clip-rule="evenodd" d="M46 31.9578C55.0134 31.2977 63.2501 32.3 68 31.9043C63.9154 31.3502 54.1106 30.1539 46 31.9578Z" fill="#7A7A7A"/>
<path fill-rule="evenodd" clip-rule="evenodd" d="M42 30.9666C58.2907 29.9331 68.4127 31.0283 76 30.9994C70.5942 30.5078 55.5043 29.0384 42 30.9666Z" fill="#7A7A7A"/>
<path fill-rule="evenodd" clip-rule="evenodd" d="M50 33.4018C51.1265 33.7868 57.3236 34.0248 59 33.2288C56.3462 32.9008 52.2661 32.8978 50 33.4018Z" fill="#7A7A7A"/>
<path fill-rule="evenodd" clip-rule="evenodd" d="M38 31.4174C38 31.4655 38 31.5135 38 31.5623C60.8379 29.6426 73.6598 31.7628 84 32C77.3228 31.1854 56.7479 28.2958 38 31.4174Z" fill="#7A7A7A"/>
<path fill-rule="evenodd" clip-rule="evenodd" d="M93 31C85.4375 30.0163 61.0776 26.2316 38.0007 28.9872C38.0007 29.1747 38 29.3621 38 29.5496C64.8392 27.6381 80.4405 30.4934 93 31Z" fill="#7A7A7A"/>
<path fill-rule="evenodd" clip-rule="evenodd" d="M77 45C99.1341 40.4434 117.406 43.7 133 42.8173C119.82 42.4088 96.3433 37.8251 77 45Z" fill="#7A7A7A"/>
<path fill-rule="evenodd" clip-rule="evenodd" d="M50 45C90.4468 33.4753 131.757 40.9839 149 39.467C132.765 39.4468 83.6394 31.1899 50 45Z" fill="#7A7A7A"/>
<path fill-rule="evenodd" clip-rule="evenodd" d="M90 44.7355C102.895 44.9796 109.25 45.1229 124 44.8579C112.369 44.4381 102.129 43.2273 90 44.7355Z" fill="#7A7A7A"/>
<path fill-rule="evenodd" clip-rule="evenodd" d="M63 43C94.372 36.2257 124.548 40.7423 141 39.7494C126.262 39.5938 89.5585 34.2688 63 43Z" fill="#7A7A7A"/>
<path fill-rule="evenodd" clip-rule="evenodd" d="M166 34.567C148.48 34.8327 85.3515 24.0412 38.0099 38.7587C38.0071 39.172 38.0028 39.5868 38 40C92.6231 26.1542 148.563 36.7616 166 34.567Z" fill="#7A7A7A"/>
<path fill-rule="evenodd" clip-rule="evenodd" d="M156 36.6354C138.459 36.7528 78.5102 27.5304 38.0007 42.9141C38.0007 42.943 38 42.9718 38 43C87.0258 29.6114 138.131 38.3297 156 36.6354Z" fill="#7A7A7A"/>
<path fill-rule="evenodd" clip-rule="evenodd" d="M182 43.9568C181.992 43.6379 181.983 43.3189 181.975 43C179.359 43.622 176.707 44.2856 174 45C176.552 44.7659 179.208 44.4 182 43.9568Z" fill="#7A7A7A"/>
<path fill-rule="evenodd" clip-rule="evenodd" d="M131 44C144.038 42.3683 160.327 37.8756 182 34.5418C181.991 34.0276 181.982 33.5135 181.975 33C166.136 35.2571 149.398 38.9012 131 44Z" fill="#7A7A7A"/>
<path fill-rule="evenodd" clip-rule="evenodd" d="M145 45C155.005 43.7324 166.931 40.5141 182 37.6892C181.989 37.1259 181.98 36.5625 181.969 36C170.342 38.1061 158.143 41.098 145 45Z" fill="#7A7A7A"/>
<path fill-rule="evenodd" clip-rule="evenodd" d="M182 40.3845C181.987 39.9228 181.976 39.4617 181.964 39C174.616 40.3461 167.004 42.0075 159 44C165.696 43.3442 173.205 41.9051 182 40.3845Z" fill="#7A7A7A"/>
<path fill-rule="evenodd" clip-rule="evenodd" d="M130 32C153.492 30.0152 163.261 31.2741 175 31.2093C166.798 30.5132 149.868 28.5 130 32Z" fill="#7A7A7A"/>
<path fill-rule="evenodd" clip-rule="evenodd" d="M157 33.42C158.377 33.822 165.952 34.071 168 33.24C164.757 32.896 159.77 32.893 157 33.42Z" fill="#7A7A7A"/>
<path fill-rule="evenodd" clip-rule="evenodd" d="M144 32C156.429 31.2625 165.107 31.8902 172 31.5982C166.276 31.1857 155.316 30.3072 144 32Z" fill="#7A7A7A"/>
<path fill-rule="evenodd" clip-rule="evenodd" d="M117 31C152.115 27.7168 163.147 29.6064 180 29.8222C169.148 28.8556 145.88 25.6833 117 31Z" fill="#7A7A7A"/>
<path fill-rule="evenodd" clip-rule="evenodd" d="M102 31C147.428 26.5019 160.048 28.8166 181 29.3993C181 29.3671 181 29.3341 181 29.3019C167.032 27.9251 138.372 24.1025 102 31Z" fill="#7A7A7A"/>
<path fill-rule="evenodd" clip-rule="evenodd" d="M79.7886 28.9588C91.2782 28.2693 101.911 29.1197 108.356 28.9222C102.476 28.3846 91.1214 27.2713 79.7886 28.9588ZM88.7178 29.594C90.5093 29.9082 100.429 30.2582 103.141 29.722C98.9021 29.4057 92.3653 29.2883 88.7178 29.594ZM70.8589 28.3226C92.0466 26.6303 103.393 27.9797 113.571 28.1231C106.052 27.3633 89.8777 25.2542 70.8589 28.3226ZM61.9292 27.6881C92.815 24.9907 104.875 26.8405 118.785 27.3233C109.627 26.3422 88.634 23.2379 61.9292 27.6881ZM53 27.052C93.5839 23.3517 106.357 25.7012 124 26.5235C113.202 25.321 87.3901 21.2208 53 27.052Z" fill="#7A7A7A"/>
<path fill-rule="evenodd" clip-rule="evenodd" d="M110.619 19.3804C110.935 19.3654 111.634 18.9332 111.634 18.9332C111.849 18.833 111.438 17.7929 111.438 17.7929C112.922 17.4972 114.936 17.8157 114.936 17.8157C113.842 18.9887 110.791 22.6776 110.791 22.6776C110.635 21.8629 110.619 19.3804 110.619 19.3804ZM103.233 21.3966C103.233 21.3966 102.355 20.1766 101.942 19.2169L103.465 19.3008L103.233 21.3966ZM103.024 23.5463C103.024 23.5463 101.432 20.9785 99.981 18.1455L102.372 18.2351C102.372 18.2351 102.234 18.4185 102.291 19.0413L101.765 19.0213C101.765 19.0213 101.323 18.142 101.608 18.9886C101.608 18.9886 101.137 18.9168 101.287 19.1386L101.732 19.209C101.732 19.209 102.665 21.0787 103.165 21.8252L103.024 23.5463ZM112.847 31.414C112.339 30.9092 112.312 30.1798 112.312 30.1798L113.054 30.0192C111.23 28.0627 110.829 23.0842 110.829 23.0842L115.175 17.7709C116.257 17.6764 116.127 17.6181 116.127 17.6181L115.312 17.6138L115.674 17.0614C115.517 17.0287 115.1 17.66 115.1 17.66C114.845 17.4346 111.341 17.5733 111.341 17.5733C110.84 15.3965 108.794 13 108.794 13L108.197 13.4898C104.375 14.4261 102.461 17.9415 102.461 17.9415L99.94 17.82C99.1364 16.738 99.6515 17.864 99.6515 17.864C98.1046 18.0894 99.7978 18.1932 99.7978 18.1932L102.899 24.1762C102.899 24.1762 102.639 28.1722 101.414 29.2997C100.19 30.4272 101.58 30.1962 101.58 30.1962L101.446 31.7282L101.509 32.1761L110.627 32.4099L114.132 33L118 32.9829L112.847 31.414Z" fill="#7A7A7A"/>
<path fill-rule="evenodd" clip-rule="evenodd" d="M108 13.8491C108.004 13.9282 107.941 13.9957 107.859 13.9998C107.776 14.0039 107.706 13.9434 107.701 13.8643L107 1.15087C106.996 1.07175 107.059 1.00433 107.141 1.0002C107.224 0.996071 107.295 1.05661 107.299 1.13573L108 13.8491Z" fill="#7A7A7A"/>
<path fill-rule="evenodd" clip-rule="evenodd" d="M109.767 13.5858L109.835 13.2289L110.792 13.4023L110.724 13.7585L109.767 13.5858ZM109.819 12.6663L110.776 12.8397L110.708 13.1959L109.75 13.0232L109.819 12.6663ZM109.8 12.0349L110.757 12.2083L110.688 12.5645L109.731 12.3918L109.8 12.0349ZM109.788 11.4874L110.746 11.6601L110.678 12.017L109.72 11.8436L109.788 11.4874ZM109.755 10.9061L110.712 11.0788L110.643 11.435L109.686 11.2623L109.755 10.9061ZM109.738 10.3429L110.695 10.5163L110.627 10.8725L109.669 10.6998L109.738 10.3429ZM109.577 13.5148L108.797 13.3736L108.872 12.9816L109.652 13.1227L109.577 13.5148ZM108.856 12.4191L109.635 12.5602L109.561 12.9523L108.78 12.8111L108.856 12.4191ZM108.837 11.7877L109.616 11.9289L109.542 12.3202L108.761 12.1797L108.837 11.7877ZM108.825 11.2401L109.606 11.3806L109.53 11.7726L108.75 11.6314L108.825 11.2401ZM108.791 10.6582L109.571 10.7994L109.496 11.1914L108.716 11.0502L108.791 10.6582ZM108.633 13.302L108.027 13.1923L108.103 12.8003L108.709 12.9099L108.633 13.302ZM108.087 12.2378L108.693 12.3474L108.617 12.7395L108.011 12.6298L108.087 12.2378ZM108.067 11.6063L108.673 11.716L108.598 12.1073L107.992 11.9983L108.067 11.6063ZM108.056 11.0588L108.662 11.1678L108.587 11.5598L107.981 11.4501L108.056 11.0588ZM108.022 10.4769L108.628 10.5866L108.553 10.9786L107.947 10.8689L108.022 10.4769ZM108.006 9.91431L108.612 10.024L108.537 10.416L107.931 10.3063L108.006 9.91431ZM107.987 9.28296L108.593 9.39261L108.517 9.7839L107.911 9.67497L107.987 9.28296ZM107.976 8.73547L108.582 8.84441L108.506 9.23642L107.9 9.12677L107.976 8.73547ZM107.959 8.17285L108.565 8.28178L108.49 8.6738L107.884 8.56415L107.959 8.17285ZM107.94 7.54077L108.546 7.65042L108.471 8.04243L107.865 7.93278L107.94 7.54077ZM107.929 6.99316L108.535 7.10281L108.46 7.49411L107.854 7.38518L107.929 6.99316ZM107.913 6.43066L108.519 6.54031L108.443 6.93161L107.837 6.82196L107.913 6.43066ZM107.894 5.79858L108.5 5.90823L108.424 6.30025L107.818 6.1906L107.894 5.79858ZM107.883 5.25098L108.489 5.36063L108.413 5.75192L107.807 5.64299L107.883 5.25098ZM107.866 4.68848L108.472 4.79813L108.398 5.18942L107.791 5.08049L107.866 4.68848ZM107.847 4.05713L108.453 4.16678L108.378 4.55807L107.771 4.44842L107.847 4.05713ZM107.815 3.56262L108.421 3.67227L108.346 4.06428L107.74 3.95463L107.815 3.56262ZM107.799 3L108.405 3.10965L108.33 3.50166L107.724 3.39201L107.799 3ZM107.705 2.75995L107.78 2.36865L108.386 2.47758L108.311 2.8696L107.705 2.75995ZM107.769 1.82043L108.375 1.93008L108.3 2.3221L107.693 2.21245L107.769 1.82043ZM107.752 1.25781L108.358 1.36746L108.284 1.75947L107.678 1.64983L107.752 1.25781ZM107.733 0.626465L108.339 0.736114L108.264 1.12741L107.658 1.01848L107.733 0.626465ZM108.503 0.807739L109.283 0.948921L109.208 1.34022L108.427 1.19975L108.503 0.807739ZM109.227 1.97228L108.446 1.8311L108.522 1.43909L109.302 1.58027L109.227 1.97228ZM109.243 2.5349L108.463 2.39372L108.538 2.00171L109.319 2.14289L109.243 2.5349ZM109.254 3.0824L108.474 2.94194L108.549 2.54993L109.33 2.69111L109.254 3.0824ZM109.274 3.71447L108.493 3.57329L108.569 3.18127L109.349 3.32246L109.274 3.71447ZM109.29 4.27709L108.509 4.13591L108.585 3.7439L109.365 3.88508L109.29 4.27709ZM109.322 4.77088L108.541 4.6297L108.616 4.2384L109.397 4.37887L109.322 4.77088ZM109.466 1.05493L110.423 1.22765L110.355 1.58454L109.397 1.41183L109.466 1.05493ZM110.374 2.21603L109.416 2.04331L109.485 1.68713L110.443 1.85985L110.374 2.21603ZM110.39 2.77853L109.432 2.60581L109.501 2.24963L110.458 2.42235L110.39 2.77853ZM110.401 3.32685L109.443 3.15342L109.512 2.79724L110.469 2.96996L110.401 3.32685ZM110.489 3.60202L110.421 3.9582L109.463 3.78549L109.532 3.42859L110.489 3.60202ZM110.437 4.5207L109.479 4.34799L109.548 3.99109L110.505 4.16452L110.437 4.5207ZM110.469 5.01521L109.511 4.84178L109.579 4.4856L110.537 4.65831L110.469 5.01521ZM110.488 5.64668L109.53 5.47396L109.599 5.11707L110.556 5.2905L110.488 5.64668ZM108.774 10.0956L109.555 10.2368L109.479 10.6288L108.7 10.4876L108.774 10.0956ZM108.755 9.46423L109.536 9.60542L109.46 9.99671L108.681 9.85625L108.755 9.46423ZM108.744 8.91675L109.525 9.05721L109.449 9.44923L108.669 9.30804L108.744 8.91675ZM108.729 8.35413L109.508 8.49459L109.434 8.8866L108.653 8.74542L108.729 8.35413ZM108.709 7.72205L109.489 7.86323L109.414 8.25524L108.634 8.11406L108.709 7.72205ZM108.698 7.17456L109.479 7.31503L109.404 7.70704L108.623 7.56657L108.698 7.17456ZM108.682 6.61194L109.463 6.75312L109.387 7.14442L108.607 7.00323L108.682 6.61194ZM108.663 5.98059L109.443 6.12106L109.368 6.51307L108.587 6.37189L108.663 5.98059ZM108.56 5.26176L108.635 4.86975L109.416 5.01093L109.341 5.40223L108.56 5.26176ZM108.652 5.43237L109.433 5.57355L109.357 5.96485L108.577 5.82439L108.652 5.43237ZM110.504 6.20918L109.546 6.03646L109.615 5.67957L110.572 5.853L110.504 6.20918ZM110.515 6.75668L109.557 6.58396L109.626 6.22778L110.583 6.4005L110.515 6.75668ZM110.535 7.38886L109.577 7.21615L109.645 6.85925L110.603 7.03197L110.535 7.38886ZM110.55 7.95136L109.593 7.77865L109.662 7.42175L110.619 7.59447L110.55 7.95136ZM110.561 8.49897L109.604 8.32626L109.673 7.96936L110.63 8.14279L110.561 8.49897ZM110.581 9.13105L109.623 8.95762L109.692 8.60144L110.649 8.77416L110.581 9.13105ZM110.596 9.69355L109.639 9.52012L109.708 9.16394L110.665 9.33666L110.596 9.69355ZM110.676 9.88498L110.608 10.2412L109.65 10.0684L109.718 9.71155L110.676 9.88498ZM107.2 2.82801L107.174 2.37795L107.453 2.36218L107.48 2.81296L107.2 2.82801ZM107.124 1.7236L107.441 1.70569L107.466 2.15647L107.149 2.17367L107.124 1.7236ZM107.094 1.0786L107.411 1.0614L107.437 1.51146L107.12 1.52866L107.094 1.0786ZM107.07 0.62207L107.387 0.625654L107.384 0.914467L107.066 0.910884L107.07 0.62207ZM110.475 1.146L107.722 0.531821C107.574 -0.01714 107.293 5.98078e-05 107.293 5.98078e-05L107.332 0.463738L107 0.34334L107.711 13.4754L111 14C110.735 12.1145 110.475 1.146 110.475 1.146Z" fill="#7A7A7A"/>
<path fill-rule="evenodd" clip-rule="evenodd" d="M110.167 15.842C110.076 15.843 110.001 15.684 110 15.487C109.999 15.29 110.072 15.13 110.164 15.129L124.833 15C124.925 14.999 124.999 15.158 125 15.355C125.001 15.551 124.928 15.712 124.837 15.712L110.167 15.842Z" fill="#7A7A7A"/>
<path fill-rule="evenodd" clip-rule="evenodd" d="M124.378 15.435L124.093 15.4152L124.11 15.0457L124.395 15.0655L124.378 15.435ZM124.226 16.5366L123.842 16.4272L123.978 15.7278L124.361 15.8372L124.226 16.5366ZM123.974 17.6228L123.589 17.5134L123.764 16.6133L124.148 16.7227L123.974 17.6228ZM123.647 18.9345L123.297 18.8346L123.511 17.7303L123.86 17.8294L123.647 18.9345ZM123.021 18.9217L122.672 18.8217L122.886 17.7175L123.235 17.8166L123.021 18.9217ZM122.115 18.8097L122.329 17.7046L122.678 17.8045L122.465 18.9087L122.115 18.8097ZM121.574 18.7916L121.787 17.6865L122.137 17.7864L121.923 18.8915L121.574 18.7916ZM121.298 18.8786L120.948 18.7787L121.162 17.6736L121.511 17.7735L121.298 18.8786ZM120.392 18.7657L120.606 17.6606L120.955 17.7606L120.742 18.8656L120.392 18.7657ZM119.902 18.7752L120.116 17.6702L120.465 17.7701L120.251 18.8743L119.902 18.7752ZM119.626 18.8614L119.277 18.7623L119.491 17.6572L119.84 17.7571L119.626 18.8614ZM118.72 18.7494L118.934 17.6443L119.284 17.7442L119.07 18.8493L118.72 18.7494ZM118.179 18.7313L118.393 17.6262L118.742 17.7261L118.528 18.8312L118.179 18.7313ZM117.903 18.8183L117.553 18.7184L117.767 17.6133L118.117 17.7132L117.903 18.8183ZM116.997 18.7054L117.211 17.6003L117.56 17.7003L117.347 18.8053L116.997 18.7054ZM116.455 18.6874L116.669 17.5831L117.018 17.6822L116.805 18.7873L116.455 18.6874ZM116.18 18.7743L115.83 18.6744L116.044 17.5693L116.394 17.6692L116.18 18.7743ZM115.273 18.6615L115.488 17.5573L115.837 17.6563L115.623 18.7614L115.273 18.6615ZM114.732 18.6443L114.946 17.5392L115.295 17.6391L115.081 18.7433L114.732 18.6443ZM114.456 18.7304L114.106 18.6313L114.321 17.5262L114.67 17.6262L114.456 18.7304ZM113.55 18.6184L113.764 17.5133L114.113 17.6132L113.899 18.7183L113.55 18.6184ZM113.323 18.7253L112.975 18.6253L113.188 17.5203L113.538 17.6202L113.323 18.7253ZM112.433 18.6073L112.646 17.5022L112.996 17.6021L112.781 18.7072L112.433 18.6073ZM112.157 18.6943L111.808 18.5943L112.021 17.4893L112.371 17.5892L112.157 18.6943ZM111.251 18.5814L111.464 17.4772L111.814 17.5762L111.6 18.6813L111.251 18.5814ZM111.717 16.3591L112.102 16.4694L111.927 17.3695L111.543 17.2601L111.717 16.3591ZM111.931 15.4746L112.315 15.584L112.179 16.2834L111.796 16.174L111.931 15.4746ZM112.658 16.4823L112.484 17.3824L112.1 17.273L112.274 16.3721L112.658 16.4823ZM112.488 15.4875L112.871 15.5969L112.736 16.2963L112.353 16.1869L112.488 15.4875ZM113.283 16.4953L113.109 17.3953L112.725 17.286L112.899 16.385L113.283 16.4953ZM113.112 15.5005L113.497 15.6099L113.361 16.3093L112.977 16.1999L113.112 15.5005ZM113.825 16.5125L113.651 17.4134L113.267 17.304L113.441 16.4031L113.825 16.5125ZM113.655 15.5186L114.038 15.6279L113.903 16.3273L113.52 16.218L113.655 15.5186ZM114.231 15.5107L114.614 15.621L114.479 16.3204L114.095 16.2101L114.231 15.5107ZM114.226 17.4066L113.843 17.2963L114.017 16.3962L114.401 16.5056L114.226 17.4066ZM114.574 16.4092L114.957 16.5186L114.783 17.4195L114.399 17.3093L114.574 16.4092ZM114.787 15.5237L115.172 15.6331L115.036 16.3325L114.652 16.2231L114.787 15.5237ZM115.582 16.5314L115.408 17.4323L115.024 17.3221L115.199 16.422L115.582 16.5314ZM115.412 15.5366L115.796 15.646L115.66 16.3454L115.277 16.236L115.412 15.5366ZM115.954 15.5547L116.338 15.6641L116.203 16.3635L115.819 16.2541L115.954 15.5547ZM115.95 17.4497L115.566 17.3403L115.741 16.4402L116.124 16.5496L115.95 17.4497ZM116.297 16.4521L116.68 16.5624L116.507 17.4625L116.123 17.3531L116.297 16.4521ZM116.51 15.5676L116.895 15.677L116.759 16.3764L116.375 16.267L116.51 15.5676ZM117.306 16.5753L117.132 17.4754L116.748 17.366L116.922 16.4651L117.306 16.5753ZM117.136 15.5806L117.519 15.69L117.384 16.3894L117 16.28L117.136 15.5806ZM117.677 15.5986L118.062 15.708L117.926 16.4074L117.542 16.298L117.677 15.5986ZM117.673 17.4935L117.29 17.3841L117.464 16.4832L117.847 16.5925L117.673 17.4935ZM118.021 16.4961L118.404 16.6055L118.23 17.5064L117.846 17.397L118.021 16.4961ZM118.234 15.6107L118.618 15.721L118.483 16.4204L118.099 16.311L118.234 15.6107ZM119.03 16.6184L118.855 17.5194L118.472 17.41L118.646 16.509L119.03 16.6184ZM118.859 15.6245L119.243 15.7339L119.107 16.4333L118.724 16.3239L118.859 15.6245ZM119.401 15.6417L119.785 15.752L119.65 16.4514L119.266 16.3411L119.401 15.6417ZM119.397 17.5374L119.013 17.4272L119.188 16.5271L119.571 16.6365L119.397 17.5374ZM119.744 16.54L120.127 16.6494L119.954 17.5504L119.569 17.4401L119.744 16.54ZM119.957 15.6547L120.342 15.7641L120.206 16.4634L119.823 16.3541L119.957 15.6547ZM120.753 16.6624L120.578 17.5633L120.195 17.4531L120.369 16.553L120.753 16.6624ZM120.583 15.6675L120.966 15.7769L120.831 16.4763L120.447 16.3669L120.583 15.6675ZM121.456 15.7683L121.321 16.4677L120.937 16.3583L121.072 15.6581L121.456 15.7683ZM121.068 17.5538L120.685 17.4444L120.858 16.5435L121.243 16.6528L121.068 17.5538ZM121.416 16.5564L121.799 16.6658L121.625 17.5667L121.241 17.4565L121.416 16.5564ZM121.629 15.671L122.013 15.7813L121.877 16.4807L121.494 16.3704L121.629 15.671ZM122.424 16.6787L122.25 17.5797L121.866 17.4694L122.04 16.5693L122.424 16.6787ZM122.255 15.6838L122.638 15.7941L122.503 16.4935L122.119 16.3832L122.255 15.6838ZM122.655 15.087L122.658 15.4143L122.212 15.4195L122.209 15.0922L122.655 15.087ZM122.796 15.702L123.18 15.8114L123.044 16.5117L122.661 16.4014L122.796 15.702ZM123.305 15.0654L123.308 15.4358L122.861 15.441L122.858 15.0706L123.305 15.0654ZM122.792 17.5977L122.408 17.4875L122.583 16.5874L122.966 16.6968L122.792 17.5977ZM123.139 16.5995L123.523 16.7097L123.348 17.6098L122.965 17.5004L123.139 16.5995ZM123.736 15.8242L123.601 16.5236L123.217 16.4142L123.352 15.7148L123.736 15.8242ZM123.943 15.0671L123.946 15.4375L123.5 15.4427L123.497 15.0723L123.943 15.0671ZM124.54 15.379L124.674 15L111.666 15.0896L111 18.8898C112.875 18.6865 123.725 19 123.725 19L124.456 15.8295C125.004 15.6882 125 15.36 125 15.36L124.54 15.379Z" fill="#7A7A7A"/>
<path fill-rule="evenodd" clip-rule="evenodd" d="M108.8 17.0007C108.903 16.9909 108.993 17.0842 109 17.2088C109.006 17.3335 108.928 17.4419 108.824 17.4516L92.2002 18.9994C92.0966 19.0081 92.0071 18.916 92.0004 18.7913C91.9937 18.6667 92.072 18.5572 92.1756 18.5474L108.8 17.0007Z" fill="#7A7A7A"/>
<path fill-rule="evenodd" clip-rule="evenodd" d="M106.196 14.1173L106.361 13.2062L106.746 13.2658L106.582 14.1769L106.196 14.1173ZM106.375 15.1006L105.951 15.0354L106.085 14.2926L106.509 14.3578L106.375 15.1006ZM106.198 15.8329L105.773 15.7677L105.878 15.1904L106.302 15.2564L106.198 15.8329ZM105.346 15.0586L105.48 14.3158L105.904 14.3817L105.769 15.1245L105.346 15.0586ZM105.591 15.8567L105.167 15.7915L105.272 15.2142L105.696 15.2802L105.591 15.8567ZM104.665 15.0866L104.799 14.3439L105.223 14.4091L105.089 15.1519L104.665 15.0866ZM104.911 15.8848L104.487 15.8188L104.592 15.2423L105.016 15.3075L104.911 15.8848ZM104.322 15.9037L103.897 15.8378L104.002 15.2612L104.426 15.3265L104.322 15.9037ZM103.45 15.1462L103.584 14.4034L104.008 14.4694L103.874 15.2121L103.45 15.1462ZM103.695 15.9445L103.272 15.8792L103.376 15.302L103.8 15.3679L103.695 15.9445ZM102.844 15.1701L102.978 14.4274L103.402 14.4933L103.268 15.2354L102.844 15.1701ZM103.09 15.9683L102.666 15.9023L102.77 15.3258L103.194 15.391L103.09 15.9683ZM102.164 15.1981L102.298 14.4553L102.722 14.5206L102.587 15.2633L102.164 15.1981ZM102.409 15.9964L101.986 15.9304L102.09 15.3539L102.514 15.4191L102.409 15.9964ZM101.819 16.0145L101.396 15.9493L101.5 15.3721L101.924 15.438L101.819 16.0145ZM100.969 15.2402L101.103 14.4974L101.527 14.5634L101.392 15.3061L100.969 15.2402ZM101.214 16.0383L100.791 15.9724L100.895 15.3959L101.318 15.4618L101.214 16.0383ZM100.288 15.2683L100.422 14.5255L100.846 14.5907L100.711 15.3335L100.288 15.2683ZM100.534 16.0664L100.11 16.0005L100.215 15.424L100.639 15.4892L100.534 16.0664ZM99.9439 16.0847L99.5205 16.0195L99.6247 15.4423L100.048 15.5075L99.9439 16.0847ZM99.0928 15.3104L99.2267 14.5676L99.6508 14.6336L99.5161 15.3756L99.0928 15.3104ZM99.3379 16.1085L98.9146 16.0433L99.0188 15.4661L99.4421 15.532L99.3379 16.1085ZM98.4121 15.3385L98.546 14.5957L98.9701 14.6609L98.8362 15.4037L98.4121 15.3385ZM98.6585 16.1366L98.2344 16.0707L98.3386 15.4941L98.7627 15.5594L98.6585 16.1366ZM98.0679 16.1548L97.6445 16.0896L97.7487 15.5123L98.1721 15.5783L98.0679 16.1548ZM97.2168 15.3805L97.3507 14.6377L97.7748 14.7036L97.6402 15.4464L97.2168 15.3805ZM97.462 16.1787L97.0386 16.1128L97.1428 15.5363L97.5662 15.6022L97.462 16.1787ZM96.5366 15.4085L96.6705 14.665L97.0946 14.731L96.9607 15.4737L96.5366 15.4085ZM96.7825 16.2067L96.3584 16.1407L96.4626 15.5642L96.8867 15.6294L96.7825 16.2067ZM96.2508 16.2439L95.8267 16.1787L95.9309 15.6014L96.355 15.6674L96.2508 16.2439ZM95.3989 15.4696L95.5335 14.7268L95.9569 14.792L95.823 15.5348L95.3989 15.4696ZM95.6448 16.2677L95.2207 16.2018L95.3249 15.6252L95.749 15.6905L95.6448 16.2677ZM94.7192 15.4969L94.8531 14.7542L95.2772 14.8201L95.1426 15.5628L94.7192 15.4969ZM94.9644 16.2951L94.541 16.2298L94.6452 15.6526L95.0686 15.7185L94.9644 16.2951ZM94.5644 16.805L94.542 16.5399L95.0262 16.5083L95.0493 16.7734L94.5644 16.805ZM94.3748 16.3141L93.9507 16.2489L94.0549 15.6716L94.479 15.7376L94.3748 16.3141ZM93.861 16.8625L93.835 16.5616L94.3199 16.53L94.3452 16.8309L93.861 16.8625ZM93.3447 16.272L93.4489 15.6954L93.873 15.7607L93.7688 16.3379L93.3447 16.272ZM93.1667 16.9004L93.1406 16.5996L93.6255 16.568L93.6516 16.8689L93.1667 16.9004ZM92.665 16.3L92.7693 15.7228L93.1926 15.7887L93.0884 16.3652L92.665 16.3ZM92.6755 16.9298L92.6719 16.6282L92.9831 16.6268L92.9867 16.9284L92.6755 16.9298ZM92.9772 14.8243L93.4013 14.8903L93.2666 15.633L92.8433 15.5678L92.9772 14.8243ZM93.2522 13.7385L93.6379 13.7981L93.4736 14.7092L93.0879 14.6496L93.2522 13.7385ZM94.0809 14.8629L93.947 15.605L93.5229 15.5398L93.6576 14.797L94.0809 14.8629ZM93.9326 13.7104L94.3183 13.7701L94.1533 14.6812L93.7676 14.6215L93.9326 13.7104ZM94.6864 14.839L94.5525 15.5818L94.1284 15.5158L94.263 14.7731L94.6864 14.839ZM94.5381 13.6866L94.9238 13.7463L94.7595 14.6581L94.373 14.5984L94.5381 13.6866ZM95.1282 13.6685L95.5139 13.7281L95.3496 14.6392L94.9639 14.5796L95.1282 13.6685ZM95.8086 13.6404L96.1943 13.7L96.0293 14.6118L95.6436 14.5515L95.8086 13.6404ZM96.5624 14.7689L96.4285 15.5117L96.0044 15.4458L96.139 14.703L96.5624 14.7689ZM96.414 13.6166L96.7998 13.6762L96.6348 14.588L96.249 14.5284L96.414 13.6166ZM97.332 13.639L97.167 14.5501L96.7812 14.4904L96.9463 13.5793L97.332 13.639ZM97.6257 13.5513L98.0115 13.6109L97.8472 14.5227L97.4614 14.4631L97.6257 13.5513ZM98.3803 14.6798L98.2456 15.4226L97.8223 15.3567L97.9562 14.6139L98.3803 14.6798ZM98.2312 13.5275L98.6169 13.5878L98.4526 14.4989L98.0669 14.4393L98.2312 13.5275ZM98.8217 13.5092L99.2075 13.5688L99.0425 14.4799L98.6567 14.4203L98.8217 13.5092ZM99.5017 13.4812L99.8874 13.5408L99.7231 14.4526L99.3374 14.3923L99.5017 13.4812ZM100.256 14.6096L100.122 15.3524L99.6982 15.2865L99.8321 14.5437L100.256 14.6096ZM100.107 13.4573L100.493 13.5176L100.329 14.4287L99.9429 14.3691L100.107 13.4573ZM100.698 13.4391L101.083 13.4987L100.918 14.4098L100.533 14.3502L100.698 13.4391ZM101.377 13.411L101.763 13.4706L101.599 14.3824L101.213 14.3221L101.377 13.411ZM102.132 14.5396L101.998 15.2823L101.574 15.2164L101.708 14.4736L102.132 14.5396ZM101.983 13.3872L102.369 13.4475L102.205 14.3586L101.819 14.299L101.983 13.3872ZM102.574 13.3689L102.959 13.4285L102.794 14.3396L102.409 14.28L102.574 13.3689ZM103.253 13.3408L103.639 13.4004L103.475 14.3122L103.089 14.2526L103.253 13.3408ZM103.859 13.317L104.245 13.3766L104.081 14.2884L103.695 14.2288L103.859 13.317ZM104.634 14.428L104.499 15.1708L104.076 15.1055L104.21 14.3621L104.634 14.428ZM104.485 13.2764L104.871 13.336L104.706 14.2471L104.32 14.1875L104.485 13.2764ZM105.075 13.2574L105.46 13.3171L105.295 14.2289L104.91 14.1685L105.075 13.2574ZM105.755 13.2301L106.141 13.2897L105.976 14.2008L105.59 14.1412L105.755 13.2301ZM93.1632 13.6902L92.5632 16.3119C91.9748 16.4606 92.0002 16.7272 92.0002 16.7272L92.4988 16.6837L92.3765 17L106.509 16.1296L107 13C104.974 13.2799 93.1632 13.6902 93.1632 13.6902Z" fill="#7A7A7A"/>
<mask id="mask3" mask-type="alpha" maskUnits="userSpaceOnUse" x="0" y="0" width="216" height="74">
<path fill-rule="evenodd" clip-rule="evenodd" d="M0 74H216V0H0V74Z" fill="white"/>
</mask>
<g mask="url(#mask3)">
<path fill-rule="evenodd" clip-rule="evenodd" d="M100 30.364H111V30H100V30.364Z" fill="#7A7A7A"/>
<path fill-rule="evenodd" clip-rule="evenodd" d="M103 20.281H112V20H103V20.281Z" fill="#7A7A7A"/>
<path fill-rule="evenodd" clip-rule="evenodd" d="M5.37771 52.7625V59.9244C5.37771 60.0151 5.38468 60.09 5.39861 60.149C5.41254 60.208 5.44737 60.2602 5.5031 60.3056C5.55882 60.351 5.63777 60.3896 5.73994 60.4213C5.84211 60.4531 5.98607 60.4826 6.17183 60.5098C6.31115 60.5363 6.38081 60.6142 6.38081 60.7413C6.38081 60.7685 6.37848 60.8094 6.37384 60.8638C6.36919 60.9183 6.36223 60.9637 6.35294 61C6.05573 60.9811 5.73762 60.966 5.39861 60.9523C5.0596 60.9387 4.76006 60.9319 4.5 60.9319C4.23065 60.9319 3.93111 60.9387 3.60139 60.9523C3.27167 60.966 2.9582 60.9811 2.66099 61C2.64241 60.9637 2.63081 60.9183 2.62616 60.8638C2.62152 60.8094 2.61919 60.7685 2.61919 60.7413C2.61919 60.6778 2.63081 60.6256 2.65402 60.5847C2.67724 60.5439 2.73994 60.5144 2.84211 60.4962C3.18576 60.4508 3.4017 60.3896 3.48994 60.3116C3.57817 60.2352 3.62229 60.1059 3.62229 59.9244V52.7625H2.39628C2.13622 52.7625 1.91563 52.7874 1.73452 52.8374C1.55341 52.8873 1.39551 52.9644 1.26084 53.0688C1.12616 53.1732 1.00542 53.3094 0.898607 53.4766C0.791796 53.6452 0.682662 53.8472 0.571207 54.0832C0.534056 54.1649 0.464396 54.2057 0.362229 54.2057C0.306502 54.2057 0.241486 54.1944 0.167183 54.1717C0.0928793 54.149 0.0371517 54.1286 0 54.1104C0.0650155 53.8926 0.120743 53.6997 0.167183 53.5318C0.213622 53.3638 0.250774 53.1982 0.278638 53.034C0.315789 52.826 0.343653 52.6399 0.362229 52.4766C0.380805 52.3132 0.404025 52.1952 0.431889 52.1218C0.46904 52.0408 0.543344 52 0.654799 52C0.756966 52 0.958978 52.0136 1.26084 52.0408C1.56269 52.0681 1.92724 52.0817 2.35449 52.0817H6.64551C7.06347 52.0817 7.42337 52.0681 7.72523 52.0408C8.02709 52.0136 8.23375 52 8.3452 52C8.44737 52 8.52167 52.0408 8.56811 52.1218C8.59597 52.1952 8.61687 52.3132 8.63081 52.4766C8.64474 52.6399 8.67492 52.826 8.72136 53.034C8.74923 53.1982 8.78406 53.3638 8.82585 53.5318C8.86765 53.6997 8.9257 53.8926 9 54.1104C8.95356 54.1286 8.89551 54.149 8.82585 54.1717C8.75619 54.1944 8.6935 54.2057 8.63777 54.2057C8.5356 54.2057 8.4613 54.1649 8.41486 54.0832C8.30341 53.8472 8.19427 53.6452 8.08746 53.4766C7.98065 53.3094 7.85991 53.1732 7.72523 53.0688C7.59056 52.9644 7.43266 52.8873 7.25155 52.8374C7.07043 52.7874 6.85449 52.7625 6.60371 52.7625H5.37771Z" fill="#7A7A7A"/>
<path fill-rule="evenodd" clip-rule="evenodd" d="M23.027 59.9227C23.027 60.0136 23.0338 60.0886 23.0473 60.1477C23.0608 60.2068 23.0968 60.2591 23.1554 60.3045C23.214 60.35 23.2995 60.3886 23.4122 60.4205C23.5248 60.4523 23.6757 60.4818 23.8649 60.5091C23.955 60.5273 24 60.6045 24 60.7409C24 60.7682 23.9977 60.8091 23.9932 60.8636C23.9887 60.9182 23.9812 60.9636 23.973 61C23.6839 60.9811 23.3784 60.9659 23.0541 60.9523C22.7297 60.9386 22.4414 60.9318 22.1892 60.9318C21.9279 60.9318 21.6329 60.9386 21.3041 60.9523C20.9752 60.9659 20.6667 60.9811 20.3784 61C20.3604 60.9636 20.3514 60.9182 20.3514 60.8636V60.7409C20.3514 60.5962 20.3964 60.5182 20.4865 60.5091C20.6757 60.4818 20.8266 60.4523 20.9392 60.4205C21.0518 60.3886 21.1351 60.35 21.1892 60.3045C21.2432 60.2591 21.2793 60.2068 21.2973 60.1477C21.3153 60.0886 21.3243 60.0136 21.3243 59.9227V56.7189H17.6757V59.9227C17.6757 60.0136 17.6824 60.0886 17.6959 60.1477C17.7095 60.2068 17.7455 60.2591 17.8041 60.3045C17.8626 60.35 17.9482 60.3886 18.0608 60.4205C18.1734 60.4523 18.3243 60.4818 18.5135 60.5091C18.6036 60.5273 18.6486 60.6045 18.6486 60.7409C18.6486 60.7682 18.6464 60.8091 18.6419 60.8636C18.6374 60.9182 18.6306 60.9636 18.6216 61C18.3333 60.9811 18.0218 60.9659 17.6892 60.9523C17.3559 60.9386 17.0631 60.9318 16.8108 60.9318C16.5586 60.9318 16.2703 60.9386 15.9459 60.9523C15.6216 60.9659 15.3153 60.9811 15.027 61C15.009 60.9636 15 60.9182 15 60.8636V60.7409C15 60.5962 15.045 60.5182 15.1351 60.5091C15.3243 60.4818 15.4752 60.4523 15.5878 60.4205C15.7005 60.3886 15.7838 60.35 15.8378 60.3045C15.8919 60.2591 15.9279 60.2068 15.9459 60.1477C15.964 60.0886 15.973 60.0136 15.973 59.9227V53.0909C15.973 53 15.964 52.9258 15.9459 52.8659C15.9279 52.8068 15.8919 52.7545 15.8378 52.7098C15.7838 52.6636 15.7005 52.625 15.5878 52.5932C15.4752 52.5614 15.3243 52.5318 15.1351 52.5045C15.045 52.4773 15 52.4 15 52.2727V52.15C15 52.0955 15.009 52.0462 15.027 52C15.3153 52.0182 15.6216 52.0341 15.9459 52.0477C16.2703 52.0614 16.5586 52.0682 16.8108 52.0682C17.0631 52.0682 17.3559 52.0614 17.6892 52.0477C18.0218 52.0341 18.3333 52.0182 18.6216 52C18.6306 52.0462 18.6374 52.0955 18.6419 52.15C18.6464 52.2045 18.6486 52.2455 18.6486 52.2727C18.6486 52.4 18.6036 52.4773 18.5135 52.5045C18.3243 52.5318 18.1734 52.5614 18.0608 52.5932C17.9482 52.625 17.8626 52.6636 17.8041 52.7098C17.7455 52.7545 17.7095 52.8068 17.6959 52.8659C17.6824 52.9258 17.6757 53 17.6757 53.0909V55.9955H21.3243V53.0909C21.3243 53 21.3153 52.9258 21.2973 52.8659C21.2793 52.8068 21.2432 52.7545 21.1892 52.7098C21.1351 52.6636 21.0518 52.625 20.9392 52.5932C20.8266 52.5614 20.6757 52.5318 20.4865 52.5045C20.3964 52.4773 20.3514 52.4 20.3514 52.2727V52.15C20.3514 52.0955 20.3604 52.0462 20.3784 52C20.6667 52.0182 20.9752 52.0341 21.3041 52.0477C21.6329 52.0614 21.9279 52.0682 22.1892 52.0682C22.4414 52.0682 22.7297 52.0614 23.0541 52.0477C23.3784 52.0341 23.6839 52.0182 23.973 52C23.9812 52.0462 23.9887 52.0955 23.9932 52.15C23.9977 52.2045 24 52.2455 24 52.2727C24 52.4 23.955 52.4773 23.8649 52.5045C23.6757 52.5318 23.5248 52.5614 23.4122 52.5932C23.2995 52.625 23.214 52.6636 23.1554 52.7098C23.0968 52.7545 23.0608 52.8068 23.0473 52.8659C23.0338 52.9258 23.027 53 23.027 53.0909V59.9227Z" fill="#7A7A7A"/>
<path fill-rule="evenodd" clip-rule="evenodd" d="M33.5097 57.2033L31.1942 53.0653C31.0874 52.8741 30.9539 52.742 30.7937 52.6684C30.6335 52.5964 30.4272 52.541 30.1748 52.5053C30.0583 52.4962 30 52.4052 30 52.2314V52.17C30 52.148 30.0049 52.1229 30.0146 52.0956L30.0291 52C30.2419 52.0182 30.517 52.0341 30.8519 52.0478C31.1869 52.0615 31.5534 52.0675 31.9515 52.0675C32.0874 52.0675 32.25 52.066 32.4393 52.0615C32.6286 52.0569 32.8196 52.0524 33.0146 52.0478C33.2087 52.0432 33.3908 52.0357 33.5607 52.0273C33.7298 52.0182 33.8689 52.0083 33.9757 52C33.9951 52.0819 34.0049 52.1388 34.0049 52.17V52.2458C34.0049 52.4006 33.9466 52.4871 33.8301 52.5053C33.5769 52.5326 33.4029 52.5713 33.3058 52.6214C33.2087 52.6707 33.1602 52.7367 33.1602 52.8194C33.1602 52.8915 33.1942 52.9871 33.2621 53.1062L34.966 56.2739L36.6408 53.3247C36.7476 53.1517 36.801 53.0061 36.801 52.8877C36.801 52.7785 36.7476 52.6988 36.6408 52.6487C36.534 52.5986 36.3495 52.5508 36.0874 52.5053C35.9612 52.4871 35.8981 52.4006 35.8981 52.2458C35.8981 52.2094 35.9126 52.1275 35.9417 52C36.1456 52.0182 36.4005 52.0341 36.7063 52.0478C37.0121 52.0615 37.2816 52.0675 37.5146 52.0675C37.7379 52.0675 37.9733 52.0637 38.2209 52.0546C38.4684 52.0455 38.7176 52.0273 38.9709 52C38.9903 52.0637 39 52.1161 39 52.1571V52.2458C39 52.4097 38.9417 52.4962 38.8252 52.5053C38.4757 52.5508 38.233 52.6093 38.0971 52.6829C37.9604 52.7557 37.8439 52.8695 37.7476 53.0235L35.3447 57.176V59.8938C35.3447 59.9939 35.3592 60.0759 35.3883 60.1396C35.4175 60.2033 35.4709 60.2572 35.5485 60.3035C35.6262 60.349 35.7306 60.387 35.8617 60.4188C35.9927 60.4514 36.165 60.4803 36.3786 60.5076C36.4272 60.5175 36.4684 60.5379 36.5024 60.5698C36.5364 60.6017 36.5534 60.6669 36.5534 60.7671C36.5534 60.786 36.551 60.8065 36.5461 60.8285C36.5413 60.852 36.5388 60.8771 36.5388 60.9044L36.5243 61C36.3689 61 36.2233 60.9977 36.0874 60.9932C35.9515 60.9879 35.8155 60.981 35.6796 60.9727C35.4466 60.9537 35.2063 60.9431 34.9587 60.9385C34.7112 60.934 34.5049 60.9317 34.3398 60.9317C34.165 60.9317 33.9636 60.934 33.7354 60.9385C33.5073 60.9431 33.2864 60.9537 33.0728 60.9727C32.9466 60.981 32.8228 60.9879 32.7015 60.9932C32.5801 60.9977 32.4563 61 32.3301 61L32.3155 60.9044C32.3058 60.8771 32.301 60.852 32.301 60.8285V60.7671C32.301 60.6669 32.318 60.6017 32.3519 60.5698C32.3859 60.5379 32.4272 60.5175 32.4757 60.5076C32.6796 60.4719 32.8495 60.4378 32.9854 60.4059C33.1214 60.3741 33.2282 60.3376 33.3058 60.2959C33.3835 60.2549 33.4369 60.2033 33.466 60.1396C33.4951 60.0759 33.5097 59.9939 33.5097 59.8938V57.2033Z" fill="#7A7A7A"/>
<path fill-rule="evenodd" clip-rule="evenodd" d="M50.6579 54.3234C50.5789 54.3501 50.4956 54.3635 50.4079 54.3635C50.2851 54.3635 50.1974 54.339 50.1447 54.2901C50.0921 54.2418 50.057 54.1899 50.0395 54.1365C49.8377 53.6291 49.5768 53.2641 49.2566 53.0415C48.9364 52.8197 48.5088 52.7077 47.9737 52.7077C47.5526 52.7077 47.1952 52.8123 46.9013 53.0215C46.6075 53.2307 46.4605 53.549 46.4605 53.9763C46.4605 54.3064 46.5724 54.5705 46.7961 54.7715C47.0197 54.9711 47.3004 55.1469 47.6382 55.2982C47.9759 55.4503 48.3399 55.5972 48.7303 55.7389C49.1206 55.882 49.4846 56.0593 49.8224 56.273C50.1601 56.4866 50.4408 56.7582 50.6645 57.0883C50.8882 57.4169 51 57.8398 51 58.3568C51 58.6951 50.943 59.0237 50.8289 59.345C50.7149 59.6647 50.5351 59.9473 50.2895 60.1921C50.0439 60.4369 49.7325 60.6328 49.3553 60.7797C48.9781 60.9266 48.5263 61 48 61C47.4211 61 46.9035 60.9369 46.4474 60.8101C45.9912 60.684 45.614 60.5467 45.3158 60.3976C45.2895 60.0163 45.2478 59.6402 45.1908 59.2708C45.1338 58.9013 45.0702 58.543 45 58.1958C45.0877 58.161 45.1886 58.1424 45.3026 58.1424C45.4079 58.1424 45.4868 58.1625 45.5395 58.2025C45.5921 58.2426 45.636 58.3116 45.6711 58.4095C45.7851 58.7485 45.9123 59.0393 46.0526 59.2841C46.193 59.5297 46.3553 59.7292 46.5395 59.885C46.7237 60.0408 46.9364 60.1543 47.1776 60.2255C47.4189 60.2975 47.6974 60.3331 48.0132 60.3331C48.2851 60.3331 48.5175 60.2945 48.7105 60.2188C48.9035 60.1432 49.0614 60.043 49.1842 59.9177C49.307 59.793 49.3991 59.6461 49.4605 59.4763C49.5219 59.3071 49.5526 59.1328 49.5526 58.9547C49.5526 58.572 49.4452 58.2708 49.2303 58.0519C49.0154 57.8331 48.7478 57.6506 48.4276 57.5037C48.1075 57.3568 47.761 57.2181 47.3882 57.0898C47.0154 56.9599 46.6689 56.7953 46.3487 56.595C46.0285 56.3939 45.761 56.135 45.5461 55.819C45.3311 55.5022 45.2237 55.0764 45.2237 54.5415C45.2237 54.1847 45.2873 53.8524 45.4145 53.5445C45.5417 53.2374 45.7281 52.9703 45.9737 52.7426C46.2193 52.5148 46.5154 52.3346 46.8618 52.201C47.2083 52.0668 47.6053 52 48.0526 52C48.4211 52 48.7917 52.0401 49.1645 52.1202C49.5373 52.2003 49.9605 52.3338 50.4342 52.5208C50.4518 52.7886 50.4803 53.0883 50.5197 53.4221C50.5592 53.7559 50.6053 54.0571 50.6579 54.3234Z" fill="#7A7A7A"/>
<path fill-rule="evenodd" clip-rule="evenodd" d="M63.6579 54.3234C63.5789 54.3501 63.4956 54.3635 63.4079 54.3635C63.2851 54.3635 63.1974 54.339 63.1447 54.2901C63.0921 54.2418 63.057 54.1899 63.0395 54.1365C62.8377 53.6291 62.5768 53.2641 62.2566 53.0415C61.9364 52.8197 61.5088 52.7077 60.9737 52.7077C60.5526 52.7077 60.1952 52.8123 59.9013 53.0215C59.6075 53.2307 59.4605 53.549 59.4605 53.9763C59.4605 54.3064 59.5724 54.5705 59.7961 54.7715C60.0197 54.9711 60.3004 55.1469 60.6382 55.2982C60.9759 55.4503 61.3399 55.5972 61.7303 55.7389C62.1206 55.882 62.4846 56.0593 62.8224 56.273C63.1601 56.4866 63.4408 56.7582 63.6645 57.0883C63.8882 57.4169 64 57.8398 64 58.3568C64 58.6951 63.943 59.0237 63.8289 59.345C63.7149 59.6647 63.5351 59.9473 63.2895 60.1921C63.0439 60.4369 62.7325 60.6328 62.3553 60.7797C61.9781 60.9266 61.5263 61 61 61C60.4211 61 59.9035 60.9369 59.4474 60.8101C58.9912 60.684 58.614 60.5467 58.3158 60.3976C58.2895 60.0163 58.2478 59.6402 58.1908 59.2708C58.1338 58.9013 58.0702 58.543 58 58.1958C58.0877 58.161 58.1886 58.1424 58.3026 58.1424C58.4079 58.1424 58.4868 58.1625 58.5395 58.2025C58.5921 58.2426 58.636 58.3116 58.6711 58.4095C58.7851 58.7485 58.9123 59.0393 59.0526 59.2841C59.193 59.5297 59.3553 59.7292 59.5395 59.885C59.7237 60.0408 59.9364 60.1543 60.1776 60.2255C60.4189 60.2975 60.6974 60.3331 61.0132 60.3331C61.2851 60.3331 61.5175 60.2945 61.7105 60.2188C61.9035 60.1432 62.0614 60.043 62.1842 59.9177C62.307 59.793 62.3991 59.6461 62.4605 59.4763C62.5219 59.3071 62.5526 59.1328 62.5526 58.9547C62.5526 58.572 62.4452 58.2708 62.2303 58.0519C62.0154 57.8331 61.7478 57.6506 61.4276 57.5037C61.1075 57.3568 60.761 57.2181 60.3882 57.0898C60.0154 56.9599 59.6689 56.7953 59.3487 56.595C59.0285 56.3939 58.761 56.135 58.5461 55.819C58.3311 55.5022 58.2237 55.0764 58.2237 54.5415C58.2237 54.1847 58.2873 53.8524 58.4145 53.5445C58.5417 53.2374 58.7281 52.9703 58.9737 52.7426C59.2193 52.5148 59.5154 52.3346 59.8618 52.201C60.2083 52.0668 60.6053 52 61.0526 52C61.4211 52 61.7917 52.0401 62.1645 52.1202C62.5373 52.2003 62.9605 52.3338 63.4342 52.5208C63.4518 52.7886 63.4803 53.0883 63.5197 53.4221C63.5592 53.7559 63.6053 54.0571 63.6579 54.3234Z" fill="#7A7A7A"/>
<path fill-rule="evenodd" clip-rule="evenodd" d="M73.6734 52.7625V56.0439H75.4945C75.6581 56.0439 75.77 55.9735 75.8303 55.8328C75.8905 55.6921 75.9422 55.4629 75.9852 55.1445C75.9939 55.0726 76.0197 55.025 76.0627 55.0023C76.1058 54.9796 76.1617 54.9682 76.2306 54.9682C76.2565 54.9682 76.2974 54.9705 76.3533 54.975C76.4093 54.9796 76.4502 54.9864 76.476 54.9955C76.4588 55.2042 76.4437 55.447 76.4308 55.7239C76.4179 56.0008 76.4114 56.2345 76.4114 56.4251C76.4114 56.5885 76.4157 56.7806 76.4244 57.003C76.433 57.2262 76.4502 57.4781 76.476 57.7587C76.4502 57.7776 76.4093 57.789 76.3533 57.7927C76.2974 57.798 76.2565 57.8003 76.2306 57.8003C76.0756 57.8003 75.9939 57.7368 75.9852 57.6097C75.9336 57.2648 75.8755 57.031 75.8109 56.9077C75.7463 56.7852 75.6408 56.7247 75.4945 56.7247H73.6734V59.7746C73.6734 59.9644 73.7854 60.0923 74.0092 60.1551C74.2331 60.2186 74.6119 60.2504 75.1458 60.2504H75.6882C75.9465 60.2504 76.1639 60.2148 76.3404 60.1422C76.5169 60.0696 76.674 59.9667 76.8118 59.8359C76.9496 59.7042 77.0701 59.5499 77.1734 59.3729C77.2768 59.1959 77.3801 58.9985 77.4834 58.7806C77.5092 58.7171 77.5695 58.6853 77.6642 58.6853C77.7073 58.6853 77.7589 58.6989 77.8192 58.7262C77.8795 58.7534 77.9397 58.7806 78 58.8079C77.9828 58.8805 77.9634 58.9486 77.9419 59.0121C77.9204 59.0756 77.901 59.1392 77.8838 59.2027C77.8407 59.3026 77.8063 59.4115 77.7804 59.5295C77.7546 59.6475 77.7288 59.7428 77.703 59.8154C77.6857 59.9062 77.6664 60.0083 77.6448 60.1218C77.6233 60.2352 77.6018 60.3442 77.5803 60.4486C77.5587 60.5529 77.5372 60.646 77.5157 60.7277C77.4942 60.8094 77.4791 60.8638 77.4705 60.8911C77.436 60.9637 77.3672 61 77.2638 61C77.195 61 77.0959 60.9955 76.9668 60.9864C76.8376 60.9766 76.6977 60.9705 76.547 60.966C76.3964 60.9614 76.2435 60.9546 76.0886 60.9448C75.9336 60.9365 75.8001 60.9319 75.6882 60.9319H72.7565C72.5068 60.9319 72.2205 60.9387 71.8976 60.9523C71.5747 60.966 71.2841 60.9811 71.0258 61C71.0086 60.9637 71 60.916 71 60.857V60.7277C71 60.5915 71.0431 60.5189 71.1292 60.5098C71.4563 60.4463 71.691 60.3782 71.833 60.3056C71.9751 60.233 72.0461 60.1059 72.0461 59.9244V53.1029C72.0461 53.0121 72.0332 52.9372 72.0074 52.8775C71.9815 52.8192 71.932 52.7693 71.8589 52.7284C71.7857 52.6868 71.691 52.6513 71.5747 52.6195C71.4585 52.5877 71.31 52.5537 71.1292 52.5174C71.0431 52.4902 71 52.4085 71 52.2723V52.143C71 52.1021 71.0086 52.059 71.0258 52.0136C71.3961 52.0408 71.7232 52.059 72.0074 52.0681C72.2915 52.0772 72.5369 52.0817 72.7435 52.0817H75.3911C75.7786 52.0817 76.1122 52.0681 76.3921 52.0408C76.6719 52.0136 76.8635 52 76.9668 52C77.0615 52 77.1304 52.0408 77.1734 52.1218C77.1993 52.1952 77.2208 52.329 77.238 52.5242C77.2552 52.7194 77.2854 52.9213 77.3284 53.1293C77.3542 53.2844 77.3844 53.4342 77.4188 53.5794C77.4533 53.7239 77.5049 53.9017 77.5738 54.1104C77.5308 54.1286 77.4834 54.1467 77.4317 54.1649C77.3801 54.1831 77.3284 54.1921 77.2768 54.1921C77.182 54.1921 77.1132 54.1513 77.0701 54.0696C76.9668 53.8336 76.8656 53.6316 76.7666 53.4637C76.6676 53.2958 76.5557 53.1589 76.4308 53.0552C76.306 52.9508 76.1596 52.8759 75.9917 52.8306C75.8238 52.7852 75.6236 52.7625 75.3911 52.7625H73.6734Z" fill="#7A7A7A"/>
<path fill-rule="evenodd" clip-rule="evenodd" d="M92.2221 57.8966V53.1057C92.2221 52.9085 92.1531 52.7691 92.0153 52.6882C91.8775 52.6064 91.634 52.5442 91.2848 52.4993C91.1654 52.4723 91.1057 52.3868 91.1057 52.2429V52.1342C91.1057 52.09 91.1149 52.045 91.1332 52C91.3629 52.027 91.5881 52.045 91.8086 52.054C92.0291 52.063 92.2864 52.0675 92.5804 52.0675C92.8744 52.0675 93.1271 52.063 93.3384 52.054C93.5498 52.045 93.7611 52.027 93.9724 52C93.9816 52.045 93.9885 52.09 93.9931 52.1342C93.9977 52.1799 94 52.2159 94 52.2429C94 52.3958 93.9449 52.4813 93.8346 52.4993C93.5314 52.5442 93.3247 52.6064 93.2144 52.6882C93.1041 52.7691 93.049 52.8996 93.049 53.0795V60.973C93.0123 60.9813 92.9502 60.9888 92.8629 60.9933C92.7757 60.9978 92.7182 61 92.6907 61C92.6263 61 92.5574 60.9843 92.4839 60.9528C92.4104 60.9205 92.3323 60.8553 92.2496 60.7564L86.8193 54.0097V59.8396C86.8193 59.9295 86.8262 60.0037 86.84 60.0622C86.8538 60.1207 86.8905 60.1702 86.9502 60.2106C87.01 60.2511 87.0972 60.2864 87.2121 60.3178C87.327 60.3501 87.4809 60.3838 87.6738 60.4198C87.7198 60.4288 87.7588 60.449 87.791 60.4805C87.8231 60.512 87.8392 60.5772 87.8392 60.6762C87.8392 60.7391 87.83 60.8156 87.8116 60.9055C87.5819 60.8868 87.366 60.8718 87.1639 60.8583C86.9617 60.8448 86.7274 60.8381 86.4609 60.8381C86.1945 60.8381 85.9395 60.8448 85.696 60.8583C85.4525 60.8718 85.2297 60.8868 85.0276 60.9055C85.0092 60.8696 85 60.8291 85 60.7841V60.6762C85 60.5862 85.0161 60.5232 85.0482 60.4873C85.0804 60.4513 85.1194 60.4288 85.1654 60.4198C85.4962 60.3658 85.7167 60.2984 85.827 60.2174C85.9372 60.1364 85.9923 60.0105 85.9923 59.8396V53.0112C85.9923 52.8681 85.9441 52.7579 85.8476 52.6814C85.7511 52.6049 85.5329 52.5442 85.193 52.4993C85.0827 52.4723 85.0276 52.3868 85.0276 52.2429V52.1822C85.0276 52.1597 85.0322 52.1342 85.0413 52.1072L85.0551 52C85.1838 52.009 85.3078 52.0157 85.4273 52.0202C85.5467 52.0247 85.6662 52.0315 85.7856 52.0405C85.9877 52.0495 86.1922 52.0562 86.3989 52.0607C86.6057 52.0652 86.7734 52.0675 86.902 52.0675C87.1685 52.0675 87.343 52.0787 87.4257 52.1012C87.5084 52.1237 87.5819 52.1664 87.6462 52.2286L92.2221 57.8966Z" fill="#7A7A7A"/>
<path fill-rule="evenodd" clip-rule="evenodd" d="M124.378 52.7625V59.9244C124.378 60.0151 124.385 60.09 124.399 60.149C124.413 60.208 124.447 60.2602 124.503 60.3056C124.559 60.351 124.638 60.3896 124.74 60.4213C124.842 60.4531 124.986 60.4826 125.172 60.5098C125.311 60.5363 125.381 60.6142 125.381 60.7413C125.381 60.7685 125.378 60.8094 125.374 60.8638C125.369 60.9183 125.361 60.9637 125.353 61C125.056 60.9811 124.738 60.966 124.399 60.9523C124.06 60.9387 123.76 60.9319 123.5 60.9319C123.231 60.9319 122.931 60.9387 122.601 60.9523C122.272 60.966 121.958 60.9811 121.661 61C121.642 60.9637 121.631 60.9183 121.626 60.8638C121.621 60.8094 121.62 60.7685 121.62 60.7413C121.62 60.6778 121.631 60.6256 121.654 60.5847C121.677 60.5439 121.74 60.5144 121.842 60.4962C122.186 60.4508 122.402 60.3896 122.491 60.3116C122.578 60.2352 122.622 60.1059 122.622 59.9244V52.7625H121.396C121.136 52.7625 120.916 52.7874 120.735 52.8374C120.553 52.8873 120.395 52.9644 120.261 53.0688C120.126 53.1732 120.005 53.3094 119.899 53.4766C119.792 53.6452 119.683 53.8472 119.571 54.0832C119.534 54.1649 119.464 54.2057 119.363 54.2057C119.307 54.2057 119.241 54.1944 119.168 54.1717C119.093 54.149 119.037 54.1286 119 54.1104C119.065 53.8926 119.121 53.6997 119.168 53.5318C119.214 53.3638 119.251 53.1982 119.279 53.034C119.316 52.826 119.344 52.6399 119.363 52.4766C119.381 52.3132 119.404 52.1952 119.432 52.1218C119.469 52.0408 119.543 52 119.655 52C119.757 52 119.959 52.0136 120.261 52.0408C120.563 52.0681 120.927 52.0817 121.354 52.0817H125.646C126.063 52.0817 126.423 52.0681 126.725 52.0408C127.027 52.0136 127.234 52 127.345 52C127.447 52 127.522 52.0408 127.568 52.1218C127.596 52.1952 127.618 52.3132 127.631 52.4766C127.645 52.6399 127.675 52.826 127.721 53.034C127.749 53.1982 127.784 53.3638 127.826 53.5318C127.868 53.6997 127.926 53.8926 128 54.1104C127.954 54.1286 127.896 54.149 127.826 54.1717C127.756 54.1944 127.693 54.2057 127.638 54.2057C127.536 54.2057 127.461 54.1649 127.415 54.0832C127.303 53.8472 127.194 53.6452 127.087 53.4766C126.981 53.3094 126.86 53.1732 126.725 53.0688C126.591 52.9644 126.433 52.8873 126.252 52.8374C126.071 52.7874 125.854 52.7625 125.604 52.7625H124.378Z" fill="#7A7A7A"/>
<path fill-rule="evenodd" clip-rule="evenodd" d="M138.328 56.276C138.618 56.276 138.881 56.2488 139.115 56.1953C139.349 56.1402 139.549 56.0475 139.718 55.9163C139.887 55.7858 140.015 55.6108 140.104 55.3936C140.193 55.1764 140.237 54.9004 140.237 54.5656C140.237 54.0045 140.098 53.5611 139.816 53.2353C139.536 52.9095 139.039 52.7466 138.328 52.7466H137.907V56.276H138.328ZM138.51 56.9548H137.907V59.7919C137.907 60 137.998 60.1471 138.181 60.233C138.363 60.319 138.674 60.3891 139.115 60.4434C139.246 60.4623 139.311 60.552 139.311 60.7149C139.311 60.7873 139.302 60.8688 139.283 60.9593C139.011 60.9412 138.672 60.9253 138.265 60.9118C137.857 60.8982 137.416 60.8914 136.938 60.8914C136.601 60.8914 136.275 60.8982 135.963 60.9118C135.648 60.9253 135.356 60.9412 135.085 60.9593C135.066 60.9231 135.057 60.8824 135.057 60.8371V60.7285C135.057 60.5747 135.108 60.4887 135.211 60.4706C135.408 60.4351 135.567 60.4012 135.688 60.3688C135.81 60.3371 135.904 60.3009 135.97 60.2602C136.035 60.2195 136.079 60.1697 136.102 60.1109C136.126 60.052 136.137 59.9774 136.137 59.8869V53.0867C136.137 52.905 136.069 52.7738 135.934 52.6923C135.799 52.6109 135.539 52.5483 135.155 52.5023C135.108 52.4849 135.07 52.4578 135.043 52.4208C135.015 52.3846 135 52.3213 135 52.2308V52.1086C135 52.0633 135.009 52.0271 135.029 52C135.29 52.0181 135.592 52.0339 135.934 52.0483C136.275 52.0611 136.583 52.0679 136.853 52.0679H138.974C139.47 52.0679 139.914 52.1267 140.308 52.2443C140.701 52.3627 141.036 52.5294 141.311 52.7466C141.588 52.9638 141.798 53.2217 141.944 53.5204C142.088 53.819 142.161 54.1501 142.161 54.5113C142.161 54.991 142.009 55.4276 141.705 55.8213C141.4 56.2149 140.981 56.5113 140.449 56.7104L142.653 59.819C142.821 60.0551 143.016 60.2179 143.236 60.3077C143.455 60.3982 143.658 60.4668 143.846 60.5113C143.893 60.5204 143.931 60.5407 143.959 60.5724C143.987 60.6041 144 60.6606 144 60.7421V60.8643C144 60.9095 143.991 60.9548 143.972 61C143.87 60.991 143.725 60.9842 143.537 60.9796C143.349 60.9744 143.155 60.9683 142.955 60.9593C142.754 60.9502 142.552 60.9434 142.35 60.9397C142.149 60.9344 141.984 60.9321 141.853 60.9321C141.656 60.9321 141.459 60.8529 141.263 60.6946C141.066 60.5362 140.874 60.3258 140.686 60.0633L138.51 56.9548Z" fill="#7A7A7A"/>
<path fill-rule="evenodd" clip-rule="evenodd" d="M155.181 57.2894L154.057 54.2534L152.908 57.2894H155.181ZM155.432 57.964H152.656L151.969 59.8396C151.943 59.8853 151.924 59.934 151.916 59.9888C151.907 60.042 151.903 60.0832 151.903 60.1102C151.903 60.2091 151.949 60.2901 152.042 60.3523C152.134 60.416 152.321 60.4693 152.604 60.515C152.727 60.5322 152.789 60.6177 152.789 60.7714C152.789 60.8343 152.779 60.91 152.762 61C152.524 60.982 152.273 60.9663 152.009 60.9535C151.744 60.9393 151.485 60.9325 151.229 60.9325C151.053 60.9325 150.868 60.937 150.674 60.946C150.48 60.9558 150.264 60.973 150.026 61C150.009 60.964 150 60.9243 150 60.8786V60.7714C150 60.6004 150.057 60.5105 150.172 60.5007C150.445 60.4468 150.641 60.3891 150.76 60.3261C150.879 60.2631 150.974 60.1544 151.044 60.0015L154.229 52.2294C154.3 52.0772 154.405 52 154.546 52C154.59 52 154.634 52.0022 154.678 52.0067C154.722 52.012 154.771 52.0187 154.824 52.027L158.01 60.042C158.062 60.1777 158.163 60.2781 158.313 60.3456C158.463 60.413 158.625 60.4603 158.802 60.488C158.934 60.515 159 60.6049 159 60.7571C159 60.8298 158.991 60.91 158.974 61C158.692 60.982 158.414 60.9663 158.141 60.9535C157.868 60.9393 157.613 60.9325 157.374 60.9325C157.251 60.9325 157.101 60.9348 156.925 60.9393C156.749 60.9438 156.568 60.9505 156.383 60.9595C156.198 60.9685 156.015 60.9753 155.835 60.9805C155.654 60.985 155.501 60.991 155.38 61C155.361 60.964 155.352 60.9243 155.352 60.8786V60.7714C155.352 60.6897 155.368 60.6289 155.399 60.5885C155.43 60.5487 155.463 60.5232 155.498 60.515C155.727 60.4693 155.896 60.4183 156.007 60.3598C156.117 60.3013 156.172 60.2129 156.172 60.096C156.172 60.042 156.159 59.9745 156.132 59.8943L155.432 57.964Z" fill="#7A7A7A"/>
<path fill-rule="evenodd" clip-rule="evenodd" d="M173.163 56.7591C173.163 56.0492 173.083 55.4409 172.924 54.9318C172.764 54.4227 172.531 54.0068 172.224 53.6833C171.918 53.3614 171.537 53.125 171.08 52.975C170.622 52.825 170.1 52.75 169.515 52.75H168.69V59.7591C168.69 59.85 168.703 59.9273 168.73 59.9909C168.757 60.0545 168.809 60.1045 168.89 60.1409C168.97 60.1773 169.08 60.2045 169.222 60.2227C169.364 60.2409 169.555 60.2492 169.794 60.2492C170.949 60.2492 171.798 59.9356 172.345 59.3091C172.89 58.6818 173.163 57.8318 173.163 56.7591ZM175 56.5C175 57.0364 174.911 57.5682 174.734 58.0955C174.557 58.6227 174.282 59.0977 173.909 59.5205C173.536 59.9432 173.061 60.2833 172.484 60.5432C171.908 60.8023 171.224 60.9318 170.434 60.9318H167.705C167.474 60.9318 167.205 60.9386 166.899 60.9523C166.593 60.9659 166.303 60.9811 166.027 61C166.009 60.9636 166 60.9227 166 60.8773V60.7682C166 60.6682 166.016 60.6023 166.047 60.5705C166.078 60.5386 166.116 60.5182 166.16 60.5091C166.418 60.4636 166.624 60.4023 166.78 60.325C166.934 60.2477 167.013 60.1136 167.013 59.9227V53.0909C167.013 52.9091 166.948 52.7795 166.82 52.7023C166.691 52.625 166.47 52.5591 166.16 52.5045C166.089 52.4864 166.045 52.4568 166.027 52.4159C166.009 52.375 166 52.3182 166 52.2455V52.1356C166 52.0909 166.009 52.0455 166.027 52C166.214 52.0182 166.38 52.0295 166.526 52.0341C166.673 52.0386 166.808 52.0455 166.933 52.0545C167.056 52.0636 167.18 52.0682 167.305 52.0682H167.692H170.394C171.148 52.0682 171.812 52.1864 172.384 52.422C172.957 52.6591 173.436 52.9773 173.822 53.3773C174.209 53.7773 174.501 54.2455 174.701 54.7818C174.901 55.3182 175 55.8909 175 56.5Z" fill="#7A7A7A"/>
<path fill-rule="evenodd" clip-rule="evenodd" d="M183.933 59.9227C183.933 60.0136 183.941 60.0886 183.955 60.1477C183.97 60.2068 184.01 60.2591 184.074 60.3045C184.138 60.35 184.231 60.3886 184.356 60.4205C184.479 60.4523 184.644 60.4818 184.852 60.5091C184.95 60.5273 185 60.6045 185 60.7409C185 60.7682 184.998 60.8091 184.993 60.8636C184.987 60.9182 184.979 60.9636 184.97 61C184.654 60.9811 184.316 60.9659 183.955 60.9523C183.595 60.9386 183.276 60.9318 183 60.9318C182.714 60.9318 182.393 60.9386 182.037 60.9523C181.681 60.9659 181.345 60.9811 181.03 61C181.009 60.9636 181 60.9182 181 60.8636V60.7409C181 60.5962 181.049 60.5182 181.148 60.5091C181.356 60.4818 181.52 60.4523 181.644 60.4205C181.768 60.3886 181.858 60.35 181.919 60.3045C181.978 60.2591 182.017 60.2068 182.037 60.1477C182.057 60.0886 182.066 60.0136 182.066 59.9227V53.0909C182.066 53 182.057 52.9258 182.037 52.8659C182.017 52.8068 181.978 52.7545 181.919 52.7098C181.858 52.6636 181.768 52.625 181.644 52.5932C181.52 52.5614 181.356 52.5318 181.148 52.5045C181.049 52.4773 181 52.4 181 52.2727V52.15C181 52.0955 181.009 52.0462 181.03 52C181.345 52.0182 181.681 52.0341 182.037 52.0477C182.393 52.0614 182.714 52.0682 183 52.0682C183.276 52.0682 183.595 52.0614 183.955 52.0477C184.316 52.0341 184.654 52.0182 184.97 52C184.979 52.0462 184.987 52.0955 184.993 52.15C184.998 52.2045 185 52.2455 185 52.2727C185 52.4 184.95 52.4773 184.852 52.5045C184.644 52.5318 184.479 52.5614 184.356 52.5932C184.231 52.625 184.138 52.6636 184.074 52.7098C184.01 52.7545 183.97 52.8068 183.955 52.8659C183.941 52.9258 183.933 53 183.933 53.0909V59.9227Z" fill="#7A7A7A"/>
<path fill-rule="evenodd" clip-rule="evenodd" d="M199.223 57.8966V53.1057C199.223 52.9085 199.153 52.7691 199.015 52.6882C198.878 52.6064 198.634 52.5442 198.285 52.4993C198.165 52.4723 198.106 52.3868 198.106 52.2429V52.1342C198.106 52.09 198.116 52.045 198.134 52C198.364 52.027 198.589 52.045 198.809 52.054C199.03 52.063 199.286 52.0675 199.581 52.0675C199.875 52.0675 200.128 52.063 200.339 52.054C200.55 52.045 200.762 52.027 200.973 52C200.982 52.045 200.989 52.09 200.994 52.1342C200.998 52.1799 201 52.2159 201 52.2429C201 52.3958 200.946 52.4813 200.835 52.4993C200.532 52.5442 200.325 52.6064 200.215 52.6882C200.104 52.7691 200.05 52.8996 200.05 53.0795V60.973C200.012 60.9813 199.95 60.9888 199.864 60.9933C199.776 60.9978 199.718 61 199.691 61C199.626 61 199.557 60.9843 199.485 60.9528C199.41 60.9205 199.333 60.8553 199.25 60.7564L193.819 54.0097V59.8396C193.819 59.9295 193.827 60.0037 193.841 60.0622C193.854 60.1207 193.891 60.1702 193.95 60.2106C194.01 60.2511 194.098 60.2864 194.213 60.3178C194.327 60.3501 194.482 60.3838 194.675 60.4198C194.72 60.4288 194.76 60.449 194.792 60.4805C194.824 60.512 194.839 60.5772 194.839 60.6762C194.839 60.7391 194.831 60.8156 194.812 60.9055C194.582 60.8868 194.366 60.8718 194.165 60.8583C193.962 60.8448 193.727 60.8381 193.462 60.8381C193.195 60.8381 192.94 60.8448 192.697 60.8583C192.453 60.8718 192.23 60.8868 192.028 60.9055C192.009 60.8696 192 60.8291 192 60.7841V60.6762C192 60.5862 192.017 60.5232 192.049 60.4873C192.081 60.4513 192.12 60.4288 192.165 60.4198C192.497 60.3658 192.717 60.2984 192.827 60.2174C192.938 60.1364 192.992 60.0105 192.992 59.8396V53.0112C192.992 52.8681 192.945 52.7579 192.848 52.6814C192.752 52.6049 192.534 52.5442 192.193 52.4993C192.083 52.4723 192.028 52.3868 192.028 52.2429V52.1822C192.028 52.1597 192.032 52.1342 192.042 52.1072L192.056 52C192.185 52.009 192.309 52.0157 192.428 52.0202C192.547 52.0247 192.666 52.0315 192.786 52.0405C192.988 52.0495 193.193 52.0562 193.4 52.0607C193.606 52.0652 193.774 52.0675 193.903 52.0675C194.168 52.0675 194.344 52.0787 194.426 52.1012C194.509 52.1237 194.582 52.1664 194.646 52.2286L199.223 57.8966Z" fill="#7A7A7A"/>
<path fill-rule="evenodd" clip-rule="evenodd" d="M214.583 60.773C214.36 60.8086 214.15 60.8398 213.956 60.8665C213.762 60.8932 213.56 60.9169 213.351 60.9399C213.143 60.9622 212.915 60.977 212.67 60.9866C212.424 60.9955 212.138 61 211.813 61C210.978 61 210.258 60.8932 209.65 60.6795C209.042 60.4659 208.544 60.161 208.154 59.7648C207.765 59.3687 207.475 58.8947 207.285 58.3427C207.095 57.7901 207 57.1766 207 56.5C207 55.9748 207.093 55.4444 207.278 54.911C207.462 54.3769 207.748 53.8939 208.132 53.4622C208.516 53.0297 208.998 52.6788 209.576 52.4073C210.155 52.1358 210.833 52 211.61 52C212.148 52 212.697 52.0378 213.257 52.1135C213.817 52.1892 214.347 52.2886 214.847 52.4132C214.866 52.6543 214.903 52.9614 214.958 53.3353C215.014 53.7092 215.093 54.0742 215.194 54.4303C215.147 54.4392 215.093 54.4503 215.028 54.4636C214.963 54.477 214.912 54.4829 214.875 54.4829C214.8 54.4829 214.738 54.4726 214.688 54.4503C214.636 54.428 214.601 54.3813 214.583 54.3101C214.389 53.6958 214.069 53.2752 213.625 53.0482C213.181 52.8212 212.63 52.7077 211.972 52.7077C211.472 52.7077 211.03 52.7901 210.645 52.9547C210.261 53.1194 209.941 53.3553 209.688 53.6625C209.432 53.9696 209.238 54.339 209.103 54.7708C208.97 55.2025 208.903 55.6899 208.903 56.2329C208.903 56.8294 208.976 57.3769 209.125 57.8754C209.272 58.3739 209.49 58.8034 209.777 59.1639C210.065 59.5237 210.419 59.8049 210.84 60.0052C211.261 60.2047 211.745 60.3056 212.292 60.3056C212.486 60.3056 212.66 60.2967 212.812 60.2789C212.965 60.2611 213.124 60.23 213.292 60.1855V58.2626C213.292 58.0223 213.222 57.8546 213.083 57.7611C212.944 57.6677 212.699 57.5994 212.347 57.5549C212.273 57.5371 212.221 57.4993 212.194 57.4414C212.167 57.3835 212.153 57.3272 212.153 57.2745C212.153 57.2478 212.155 57.207 212.159 57.1543C212.164 57.1009 212.171 57.0608 212.181 57.0341C212.319 57.043 212.475 57.0519 212.646 57.0608C212.817 57.0697 212.993 57.0764 213.174 57.0801C213.355 57.0853 213.53 57.0898 213.698 57.0942C213.865 57.0987 214.01 57.1009 214.132 57.1009C214.252 57.1009 214.395 57.0987 214.559 57.0942C214.722 57.0898 214.889 57.0853 215.061 57.0801C215.233 57.0764 215.4 57.0697 215.562 57.0608C215.724 57.0519 215.861 57.043 215.972 57.0341C215.991 57.0794 216 57.1231 216 57.1677V57.2745C216 57.3546 215.983 57.4147 215.951 57.454C215.918 57.4948 215.88 57.5237 215.833 57.5415C215.536 57.5772 215.331 57.635 215.215 57.7151C215.1 57.7953 215.042 57.9288 215.042 58.1157V60.4392C215.042 60.5193 215.018 60.5861 214.972 60.6395C214.925 60.6929 214.796 60.7374 214.583 60.773Z" fill="#7A7A7A"/>
</g>
</svg>
