<svg width="12" height="12" viewBox="0 0 12 12" fill="none" xmlns="http://www.w3.org/2000/svg">
<mask id="mask0" mask-type="alpha" maskUnits="userSpaceOnUse" x="0" y="0" width="12" height="12">
<path fill-rule="evenodd" clip-rule="evenodd" d="M0 0H12V12H0V0Z" fill="white"/>
</mask>
<g mask="url(#mask0)">
<path fill-rule="evenodd" clip-rule="evenodd" d="M11.9943 9.47038C12.0196 9.66518 11.9604 9.83478 11.8164 9.9788L10.1268 11.6567C10.0506 11.7415 9.95111 11.8135 9.82836 11.8728C9.70553 11.9322 9.58479 11.9703 9.46632 11.9872C9.45781 11.9872 9.43236 11.9894 9.39001 11.9936C9.34775 11.9979 9.29271 12 9.22489 12C9.06404 12 8.80356 11.9724 8.44366 11.9174C8.08365 11.8623 7.64325 11.7267 7.1225 11.5106C6.60164 11.2944 6.01094 10.9703 5.35031 10.5381C4.68978 10.106 3.98678 9.51265 3.24154 8.7585C2.64871 8.1737 2.15753 7.61436 1.76794 7.08049C1.37833 6.5466 1.06505 6.05298 0.827866 5.59955C0.590713 5.1462 0.412822 4.73514 0.294349 4.36645C0.175746 3.9979 0.0952851 3.68005 0.052914 3.41312C0.0105429 3.14616 -0.00637434 2.93642 0.0021362 2.78388C0.0105429 2.63135 0.0147982 2.54658 0.0147982 2.52962C0.0317415 2.41097 0.0698313 2.29029 0.129146 2.16735C0.188434 2.04444 0.260384 1.94494 0.345126 1.86866L2.0347 0.177981C2.15328 0.0593272 2.2888 0 2.44124 0C2.5513 0 2.64871 0.0317277 2.73334 0.0953129C2.81806 0.158924 2.89004 0.237309 2.94933 0.330518L4.3086 2.91098C4.3848 3.04656 4.406 3.19494 4.37214 3.35592C4.33828 3.51697 4.26633 3.65255 4.15616 3.76269L3.53372 4.38554C3.51681 4.40257 3.50191 4.43006 3.48925 4.46818C3.47656 4.50632 3.47018 4.53818 3.47018 4.56352C3.50404 4.74152 3.58025 4.94487 3.69885 5.17367C3.80051 5.37712 3.9572 5.62499 4.16893 5.9174C4.38065 6.2097 4.68127 6.5466 5.07089 6.92796C5.45197 7.3178 5.7907 7.62075 6.08717 7.83687C6.38351 8.05291 6.63122 8.21184 6.83029 8.31356C7.02925 8.41519 7.18179 8.47664 7.2876 8.49783L7.44631 8.52958C7.46326 8.52958 7.49081 8.5232 7.52893 8.51052C7.56705 8.49783 7.5946 8.48303 7.61154 8.466L8.33561 7.72876C8.48816 7.59317 8.66592 7.5253 8.86913 7.5253C9.01316 7.5253 9.12748 7.55078 9.21212 7.60159H9.22489L11.6766 9.05078C11.8545 9.16102 11.9604 9.30078 11.9943 9.47038Z" fill="#fff"/>
</g>
</svg>
