<svg width="22" height="31" viewBox="0 0 22 31" fill="none" xmlns="http://www.w3.org/2000/svg">
<path fill-rule="evenodd" clip-rule="evenodd" d="M18.8753 15.5496L11.139 28.3472L3.20038 15.6723C2.30614 14.2415 1.82129 12.5907 1.82129 10.8985C1.82129 5.89063 5.94568 1.80432 11.0002 1.80432C16.0547 1.80432 20.173 5.89063 20.173 10.8985C20.173 12.5406 19.7201 14.1491 18.8753 15.5496ZM11 0C4.9346 0 0 4.88904 0 10.8984C0 12.9288 0.567661 14.9103 1.64199 16.6293L10.3739 30.5707C10.5411 30.8377 10.8358 31 11.1527 31C11.1552 31 11.1575 31 11.16 31C11.4797 30.9975 11.775 30.8302 11.9392 30.5585L20.4485 16.4821C21.4635 14.7994 22 12.8686 22 10.8984C22 4.88904 17.0654 0 11 0Z" fill="#0A090B"/>
<path fill-rule="evenodd" clip-rule="evenodd" d="M10.5002 14.1789C8.46781 14.1789 6.82129 12.5269 6.82129 10.5001C6.82129 8.47826 8.47838 6.82117 10.5002 6.82117C12.522 6.82117 14.173 8.47826 14.173 10.5001C14.173 12.4974 12.5648 14.1789 10.5002 14.1789ZM10.5 5C7.4673 5 5 7.4673 5 10.5C5 13.5133 7.42715 16 10.5 16C13.6107 16 16 13.4802 16 10.5C16 7.4673 13.5327 5 10.5 5Z" fill="#0A090B"/>
</svg>
