<svg xmlns="http://www.w3.org/2000/svg" width="75.2" height="73.431" viewBox="0 0 75.2 73.431">
  <g id="Group_19" data-name="Group 19" transform="translate(-358.452 -857.05)">
    <path id="Path_46" data-name="Path 46" d="M393.122,885.42a1.011,1.011,0,0,1-.365-.069,1,1,0,0,1-.635-.931V870.5a1.477,1.477,0,0,0-1.035-1.408L359.151,859a1,1,0,0,1,.3-1.953H408.8a4.105,4.105,0,0,1,4.1,4.1v18.88a1,1,0,0,1-1.357.934,16.237,16.237,0,0,0-17.69,4.136A1,1,0,0,1,393.122,885.42Zm-27.185-26.37,25.756,8.137a3.471,3.471,0,0,1,2.429,3.313v11.6a18.294,18.294,0,0,1,11.64-4.2,18.107,18.107,0,0,1,5.14.738V861.15a2.1,2.1,0,0,0-2.1-2.1Z" fill="#4fa206"/>
    <path id="Path_47" data-name="Path 47" d="M408.8,921.04h-22.85a1,1,0,0,1-1-1v-4.55a10.309,10.309,0,0,1,2.161-6.295l3.263-4.153.83.5,0,0-.771-.578a.925.925,0,0,1,.815-.507,1.049,1.049,0,0,1,.869.494,16.244,16.244,0,0,0,19.423,6.36,1,1,0,0,1,1.357.934v4.7A4.1,4.1,0,0,1,408.8,921.04Zm-21.85-2H408.8a2.1,2.1,0,0,0,2.1-2.1v-3.307a18.254,18.254,0,0,1-19.659-6.46l-2.555,3.255a8.288,8.288,0,0,0-1.736,5.062Z" fill="#4fa206"/>
    <path id="Path_48" data-name="Path 48" d="M383.483,930.481a3.493,3.493,0,0,1-1.306-.254l-23.1-9.259a1,1,0,0,1-.628-.928V858.05a1,1,0,0,1,1.3-.953l31.94,10.09a3.471,3.471,0,0,1,2.429,3.313v29.48a10.067,10.067,0,0,1-2.008,6.068c-.034.054-.072.106-.113.159l-3.313,4.221a8.288,8.288,0,0,0-1.736,5.062v11.52a3.471,3.471,0,0,1-3.469,3.471Zm-23.031-11.118,22.472,9.009a1.471,1.471,0,0,0,2.028-1.362V915.49a10.309,10.309,0,0,1,2.161-6.295l3.263-4.153.862.517-.8-.6a8.185,8.185,0,0,0,1.684-4.979V870.5a1.477,1.477,0,0,0-1.035-1.408l-30.635-9.678Z" fill="#4fa206"/>
    <rect id="Rectangle_26" data-name="Rectangle 26" width="2" height="21.221" transform="translate(366.523 868.78)" fill="#4fa206"/>
    <rect id="Rectangle_27" data-name="Rectangle 27" width="2" height="7.632" transform="translate(366.523 895.986)" fill="#4fa206"/>
    <path id="Path_49" data-name="Path 49" d="M405.762,914.37a18.186,18.186,0,0,1-15.319-8.336,1,1,0,0,1,.058-1.169,3.7,3.7,0,0,0,.333-.481,3.976,3.976,0,0,0,.317-.547,5.961,5.961,0,0,0,.366-.772c.071-.174.134-.333.187-.491a8.207,8.207,0,0,0,.418-2.594V884.42a1,1,0,0,1,.267-.68,18.236,18.236,0,1,1,13.373,30.63ZM392.5,905.5a16.238,16.238,0,1,0,1.626-20.682V899.98a10.171,10.171,0,0,1-.521,3.226c-.067.2-.145.4-.224.594a6.952,6.952,0,0,1-.442.937,4.651,4.651,0,0,1-.4.7C392.522,905.456,392.51,905.478,392.5,905.5Z" fill="#4fa206"/>
    <path id="Path_50" data-name="Path 50" d="M405.76,909.694a13.563,13.563,0,0,1-8.089-24.449l1.194,1.606a11.563,11.563,0,1,0,16.687,15.433l1.692,1.067A13.5,13.5,0,0,1,405.76,909.694Z" fill="#4fa206"/>
    <path id="Path_51" data-name="Path 51" d="M419.311,896.7l-2-.084c.007-.161.01-.322.01-.485a11.511,11.511,0,0,0-10.438-11.509l.191-1.99a13.5,13.5,0,0,1,12.247,13.5C419.322,896.322,419.318,896.513,419.311,896.7Z" fill="#4fa206"/>
    <rect id="Rectangle_28" data-name="Rectangle 28" width="6.964" height="12.02" rx="1.422" transform="translate(420.002 916.954) rotate(-49.202)" fill="#4fa206"/>
    <path id="Path_52" data-name="Path 52" d="M423.687,918.654l-8.558-8.556,2.982-2.982,8.557,8.557Zm-7.144-8.556,7.144,7.142,1.567-1.567-7.143-7.143Z" fill="#4fa206"/>
  </g>
</svg>
