<svg xmlns="http://www.w3.org/2000/svg" width="65.523" height="75.18" viewBox="0 0 65.523 75.18">
  <g id="Group_2" data-name="Group 2" transform="translate(-425.431 -40.246)">
    <path id="Path_1" data-name="Path 1" d="M458.192,96.606a18.77,18.77,0,1,1,18.77-18.77A18.792,18.792,0,0,1,458.192,96.606Zm0-35.54a16.77,16.77,0,1,0,16.77,16.77A16.789,16.789,0,0,0,458.192,61.066Z" fill="#4fa206"/>
    <path id="Path_2" data-name="Path 2" d="M462.05,103.046l-.3-1.978a23.4,23.4,0,0,0,14.976-8.783l1.576,1.23A25.387,25.387,0,0,1,462.05,103.046Z" fill="#4fa206"/>
    <path id="Path_3" data-name="Path 3" d="M482.068,86.809l-1.872-.7a23.6,23.6,0,0,0-.171-16.98l1.857-.742a25.6,25.6,0,0,1,.186,18.426Z" fill="#4fa206"/>
    <path id="Path_4" data-name="Path 4" d="M476.151,62.678a23.468,23.468,0,0,0-14.4-8.075l.3-1.977a25.47,25.47,0,0,1,15.629,8.761Z" fill="#4fa206"/>
    <path id="Path_5" data-name="Path 5" d="M439.443,63.667l-1.6-1.207a25.457,25.457,0,0,1,15.408-9.647l.385,1.963A23.459,23.459,0,0,0,439.443,63.667Z" fill="#4fa206"/>
    <path id="Path_6" data-name="Path 6" d="M434.778,87.954a25.59,25.59,0,0,1-.462-19.091l1.872.7a23.588,23.588,0,0,0,.426,17.593Z" fill="#4fa206"/>
    <path id="Path_7" data-name="Path 7" d="M454.646,103.091a25.349,25.349,0,0,1-16.611-9.635l1.58-1.227a23.361,23.361,0,0,0,15.306,8.881Z" fill="#4fa206"/>
    <rect id="Rectangle_1" data-name="Rectangle 1" width="2" height="22.419" transform="translate(456.777 45.867)" fill="#4fa206"/>
    <rect id="Rectangle_2" data-name="Rectangle 2" width="2" height="22.419" transform="translate(429.799 63.077) rotate(-60.001)" fill="#4fa206"/>
    <rect id="Rectangle_3" data-name="Rectangle 3" width="22.419" height="2" transform="matrix(0.866, -0.5, 0.5, 0.866, 430.214, 93.312)" fill="#4fa206"/>
    <rect id="Rectangle_4" data-name="Rectangle 4" width="2" height="22.419" transform="translate(457.607 87.385)" fill="#4fa206"/>
    <rect id="Rectangle_5" data-name="Rectangle 5" width="2" height="22.419" transform="translate(466.169 83.117) rotate(-60)" fill="#4fa206"/>
    <rect id="Rectangle_6" data-name="Rectangle 6" width="22.42" height="2" transform="matrix(0.866, -0.5, 0.5, 0.866, 465.753, 71.835)" fill="#4fa206"/>
    <g id="Group_1" data-name="Group 1">
      <path id="Path_8" data-name="Path 8" d="M457.777,40.246l-4.284,7.421h8.569Z" fill="#4fa206"/>
      <path id="Path_9" data-name="Path 9" d="M425.431,59.4l4.284,7.421L434,59.4Z" fill="#4fa206"/>
      <path id="Path_10" data-name="Path 10" d="M425.846,96.99h8.569L430.13,89.57Z" fill="#4fa206"/>
      <path id="Path_11" data-name="Path 11" d="M458.607,115.426l4.284-7.421h-8.569Z" fill="#4fa206"/>
      <path id="Path_12" data-name="Path 12" d="M490.954,96.271l-4.284-7.421-4.284,7.421Z" fill="#4fa206"/>
      <path id="Path_13" data-name="Path 13" d="M490.538,58.681H481.97l4.284,7.421Z" fill="#4fa206"/>
    </g>
  </g>
</svg>
