<svg xmlns="http://www.w3.org/2000/svg" width="66.34" height="69.168" viewBox="0 0 66.34 69.168">
  <g id="Group_18" data-name="Group 18" transform="translate(-275.125 -683.207)">
    <path id="Path_34" data-name="Path 34" d="M275.125,727.969l.782,12.523,10.454-6.939Z" fill="#4fa206"/>
    <path id="Path_35" data-name="Path 35" d="M330.1,696.551a31.451,31.451,0,0,0-8.868-6.154l.841-1.814a33.407,33.407,0,0,1,9.431,6.544Z" fill="#4fa206"/>
    <path id="Path_36" data-name="Path 36" d="M316.314,688.6a31.5,31.5,0,0,0-8.287-1.1v-2a33.529,33.529,0,0,1,8.813,1.174Z" fill="#4fa206"/>
    <path id="Path_37" data-name="Path 37" d="M332.488,721.6l-1.987-.221a22.319,22.319,0,0,0,.135-2.442,21.872,21.872,0,0,0-21.847-21.847v-2a23.857,23.857,0,0,1,23.7,26.51Z" fill="#4fa206"/>
    <path id="Path_38" data-name="Path 38" d="M305.229,731.387a13.287,13.287,0,0,1-6.7-5.305L300.21,725a11.275,11.275,0,0,0,5.686,4.5Z" fill="#4fa206"/>
    <rect id="Rectangle_23" data-name="Rectangle 23" width="2" height="7.761" transform="translate(288.407 683.207)" fill="#4fa206"/>
    <rect id="Rectangle_24" data-name="Rectangle 24" width="2" height="8.819" transform="translate(288.407 695.463)" fill="#4fa206"/>
    <rect id="Rectangle_25" data-name="Rectangle 25" width="2" height="16.403" transform="translate(288.407 709.492)" fill="#4fa206"/>
    <path id="Path_39" data-name="Path 39" d="M294.258,719.134H277.764v-2h16.494a5.791,5.791,0,0,0,0-11.583h-9.7a7.792,7.792,0,1,1,0-15.583h14.553v2H284.556a5.792,5.792,0,1,0,0,11.583h9.7a7.791,7.791,0,0,1,0,15.583Z" fill="#4fa206"/>
    <g id="Group_15" data-name="Group 15">
      <path id="Path_40" data-name="Path 40" d="M336.494,732.258a6.1,6.1,0,0,1,1.734,1.018,33.432,33.432,0,0,0-1.3-31.176l-1.727,1.007a31.423,31.423,0,0,1,1.3,29.151Z" fill="#4fa206"/>
      <path id="Path_41" data-name="Path 41" d="M329.553,741.818a31.408,31.408,0,0,1-47.97-5.871l-1.68,1.084a33.4,33.4,0,0,0,51.156,6.113A6.159,6.159,0,0,1,329.553,741.818Z" fill="#4fa206"/>
    </g>
    <circle id="Ellipse_5" data-name="Ellipse 5" cx="3.499" cy="3.499" r="3.499" transform="translate(330.802 734.465)" fill="#4fa206"/>
    <g id="Group_16" data-name="Group 16">
      <path id="Path_42" data-name="Path 42" d="M299.452,738.7a21.831,21.831,0,0,1-9.039-7.939l-1.681,1.084a23.822,23.822,0,0,0,10.118,8.779A6.1,6.1,0,0,1,299.452,738.7Z" fill="#4fa206"/>
      <path id="Path_43" data-name="Path 43" d="M328.98,727.294a21.773,21.773,0,0,1-18.018,13.369,5.9,5.9,0,0,1-.064,2.019,23.773,23.773,0,0,0,19.93-14.622Z" fill="#4fa206"/>
    </g>
    <circle id="Ellipse_6" data-name="Ellipse 6" cx="3.499" cy="3.499" r="3.499" transform="translate(301.404 737.964)" fill="#4fa206"/>
    <g id="Group_17" data-name="Group 17">
      <path id="Path_44" data-name="Path 44" d="M318.679,712.351a6.091,6.091,0,0,1,2.109-.45,13.193,13.193,0,0,0-11.153-6.169v2A11.185,11.185,0,0,1,318.679,712.351Z" fill="#4fa206"/>
      <path id="Path_45" data-name="Path 45" d="M321.009,724.123a6.1,6.1,0,0,1-1.36-.157,11.171,11.171,0,0,1-8.741,6.1l.224,1.989a13.169,13.169,0,0,0,10.662-7.989A6.143,6.143,0,0,1,321.009,724.123Z" fill="#4fa206"/>
    </g>
    <circle id="Ellipse_7" data-name="Ellipse 7" cx="3.499" cy="3.499" r="3.499" transform="translate(317.51 714.507)" fill="#4fa206"/>
  </g>
</svg>
