<svg xmlns="http://www.w3.org/2000/svg" width="69.112" height="67.168" viewBox="0 0 69.112 67.168">
  <g id="Group_10" data-name="Group 10" transform="translate(-295.673 -210.822)">
    <path id="Path_14" data-name="Path 14" d="M332.329,251.375a9.091,9.091,0,1,1,9.092-9.091A9.1,9.1,0,0,1,332.329,251.375Zm0-16.183a7.091,7.091,0,1,0,7.092,7.092A7.1,7.1,0,0,0,332.329,235.192Z" fill="#4fa206"/>
    <path id="Path_15" data-name="Path 15" d="M332.329,261.869a19.637,19.637,0,0,1-18.435-12.959l1.882-.677A17.609,17.609,0,0,0,335.35,259.61l.342,1.971A19.743,19.743,0,0,1,332.329,261.869Z" fill="#4fa206"/>
    <path id="Path_16" data-name="Path 16" d="M344.893,257.309l-1.284-1.535a17.648,17.648,0,0,0,2.932-3.131l1.615,1.178A19.687,19.687,0,0,1,344.893,257.309Z" fill="#4fa206"/>
    <path id="Path_17" data-name="Path 17" d="M346.124,231.376a17.543,17.543,0,0,0-10.875-6.437l.329-1.972a19.538,19.538,0,0,1,12.114,7.168Z" fill="#4fa206"/>
    <path id="Path_18" data-name="Path 18" d="M328.347,225.151,327.9,223.2a19.666,19.666,0,0,1,4.433-.505v2A17.71,17.71,0,0,0,328.347,225.151Z" fill="#4fa206"/>
    <circle id="Ellipse_1" data-name="Ellipse 1" cx="4.072" cy="4.072" r="4.072" transform="translate(343.877 210.822)" fill="#4fa206"/>
    <path id="Path_19" data-name="Path 19" d="M358.026,248.879a6.759,6.759,0,1,1,6.759-6.759A6.767,6.767,0,0,1,358.026,248.879Zm0-11.519a4.759,4.759,0,1,0,4.759,4.76A4.765,4.765,0,0,0,358.026,237.36Z" fill="#4fa206"/>
    <circle id="Ellipse_2" data-name="Ellipse 2" cx="5.759" cy="5.759" r="5.759" transform="translate(310.887 212.183)" fill="#4fa206"/>
    <path id="Path_20" data-name="Path 20" d="M302.432,247.337a6.759,6.759,0,1,1,6.759-6.759A6.767,6.767,0,0,1,302.432,247.337Zm0-11.518a4.759,4.759,0,1,0,4.759,4.759A4.765,4.765,0,0,0,302.432,235.819Z" fill="#4fa206"/>
    <circle id="Ellipse_3" data-name="Ellipse 3" cx="4.418" cy="4.418" r="4.418" transform="translate(351.586 265.548)" fill="#4fa206"/>
    <path id="Path_21" data-name="Path 21" d="M306.329,277.99a5.418,5.418,0,1,1,5.418-5.418A5.425,5.425,0,0,1,306.329,277.99Zm0-8.836a3.418,3.418,0,1,0,3.418,3.418A3.421,3.421,0,0,0,306.329,269.154Z" fill="#4fa206"/>
    <rect id="Rectangle_7" data-name="Rectangle 7" width="23.47" height="2" transform="matrix(0.486, -0.874, 0.874, 0.486, 335.682, 234.902)" fill="#4fa206"/>
    <rect id="Rectangle_8" data-name="Rectangle 8" width="12.114" height="2" transform="translate(340.391 241.645) rotate(-1.707)" fill="#4fa206"/>
    <rect id="Rectangle_9" data-name="Rectangle 9" width="2" height="28.262" transform="translate(336.582 249.3) rotate(-41.201)" fill="#4fa206"/>
    <rect id="Rectangle_10" data-name="Rectangle 10" width="27.835" height="1.999" transform="translate(308.331 268.71) rotate(-47.811)" fill="#4fa206"/>
    <rect id="Rectangle_11" data-name="Rectangle 11" width="2" height="16.334" transform="translate(307.74 242.294) rotate(-85.64)" fill="#4fa206"/>
    <rect id="Rectangle_12" data-name="Rectangle 12" width="2" height="21.521" transform="matrix(0.846, -0.533, 0.533, 0.846, 315.584, 218.131)" fill="#4fa206"/>
  </g>
</svg>
