<svg xmlns="http://www.w3.org/2000/svg" width="54.982" height="57.078" viewBox="0 0 54.982 57.078">
  <g id="Group_11" data-name="Group 11" transform="translate(-285.399 -358.884)">
    <rect id="Rectangle_13" data-name="Rectangle 13" width="7.014" height="2" transform="translate(319.688 413.962)" fill="#4fa206"/>
    <path id="Path_22" data-name="Path 22" d="M340.381,415.962h-9.389v-2h7.389V380.636h2Z" fill="#4fa206"/>
    <path id="Path_23" data-name="Path 23" d="M314.951,415.962H285.4V380.636h2v33.325h27.552Z" fill="#4fa206"/>
    <rect id="Rectangle_14" data-name="Rectangle 14" width="6.293" height="2" transform="translate(297.33 379.636)" fill="#4fa206"/>
    <rect id="Rectangle_15" data-name="Rectangle 15" width="20.837" height="2" transform="translate(302.472 364.788)" fill="#4fa206"/>
    <path id="Path_24" data-name="Path 24" d="M340.381,381.636h-33.1v-2h31.1V366.788h-9.754v-2h11.754Z" fill="#4fa206"/>
    <path id="Path_25" data-name="Path 25" d="M292.058,381.636H285.4V364.788h11.753v2H287.4v12.849h4.659Z" fill="#4fa206"/>
    <path id="Path_26" data-name="Path 26" d="M303.472,371.967h-7.319V358.884h7.319Zm-5.319-2h3.319v-9.083h-3.319Z" fill="#4fa206"/>
    <path id="Path_27" data-name="Path 27" d="M329.627,371.967h-7.318V358.884h7.318Zm-5.318-2h3.318v-9.083h-3.318Z" fill="#4fa206"/>
    <rect id="Rectangle_16" data-name="Rectangle 16" width="4.949" height="6.29" transform="translate(295.959 390.305)" fill="#4fa206"/>
    <rect id="Rectangle_17" data-name="Rectangle 17" width="4.949" height="6.29" transform="translate(307.941 400.322)" fill="#4fa206"/>
    <rect id="Rectangle_18" data-name="Rectangle 18" width="4.949" height="6.29" transform="translate(319.688 391.943)" fill="#4fa206"/>
    <rect id="Rectangle_19" data-name="Rectangle 19" width="16.345" height="2" transform="translate(322.82 404.552)" fill="#4fa206"/>
  </g>
</svg>
