<svg xmlns="http://www.w3.org/2000/svg" width="93.938" height="77.422" viewBox="0 0 93.938 77.422">
  <g id="Group_33" data-name="Group 33" transform="translate(-751.339 -661.6)">
    <rect id="Rectangle_29" data-name="Rectangle 29" width="2" height="18.909" transform="translate(826.291 712.29) rotate(-68.721)" fill="#4fa206"/>
    <rect id="Rectangle_30" data-name="Rectangle 30" width="2" height="9.568" transform="translate(797.481 661.6)" fill="#4fa206"/>
    <rect id="Rectangle_31" data-name="Rectangle 31" width="19.531" height="2" transform="translate(753.345 717.548) rotate(-21.479)" fill="#4fa206"/>
    <g id="Group_20" data-name="Group 20">
      <path id="Path_53" data-name="Path 53" d="M762.49,697.021l-.258-.144a30.1,30.1,0,0,0-8.87-3.139l-1.946-.393,48.959-19.962.165.025a33.307,33.307,0,0,1,8.69,2.48l1.239.562Zm-7.016-4.035a29.806,29.806,0,0,1,7.085,2.7l44.89-19.248a33.58,33.58,0,0,0-6.93-1.819Z" fill="#4fa206"/>
      <path id="Path_54" data-name="Path 54" d="M795.113,726.995l-.22-.045c-13.315-2.7-17.374-9.958-21.3-16.978-3.944-7.053-7.67-13.715-20.3-16.248l-1.954-.392,8.721-3.554.176.035c13.042,2.536,17.122,9.552,21.069,16.338,4.005,6.887,7.788,13.391,20.4,15.864l1.582.31Zm-39.7-34.025c11.689,2.928,15.52,9.78,19.232,16.416,3.945,7.055,7.674,13.721,20.27,16.343l5.02-2.869c-11.931-2.811-15.859-9.565-19.662-16.1-3.969-6.824-7.719-13.272-20.087-15.731Z" fill="#4fa206"/>
      <path id="Path_55" data-name="Path 55" d="M801.691,723.235l-.218-.043c-13.145-2.577-17.243-9.624-21.205-16.437-3.988-6.857-7.753-13.332-20.262-15.765l-1.976-.384,8.738-3.562.174.032c12.914,2.432,17.038,9.248,21.028,15.84,4.04,6.677,7.856,12.984,20.3,15.34l1.6.3Zm-39.556-33.006c11.553,2.825,15.422,9.477,19.17,15.922,3.981,6.847,7.744,13.316,20.18,15.821l5.007-2.863c-11.756-2.692-15.715-9.235-19.549-15.572-4.01-6.628-7.8-12.891-20.05-15.248Z" fill="#4fa206"/>
      <path id="Path_56" data-name="Path 56" d="M808.269,719.477l-.217-.041c-12.975-2.457-17.11-9.29-21.109-15.9-4.03-6.659-7.836-12.949-20.223-15.281l-2-.377,8.759-3.57.171.032c12.786,2.325,16.955,8.941,20.987,15.339,4.076,6.467,7.926,12.577,20.212,14.817l1.618.295Zm-39.4-31.992c11.415,2.723,15.322,9.178,19.106,15.431,4.016,6.639,7.811,12.911,20.088,15.3l5-2.857c-11.58-2.574-15.571-8.906-19.436-15.039-4.054-6.432-7.885-12.509-20.014-14.766Z" fill="#4fa206"/>
      <path id="Path_57" data-name="Path 57" d="M814.847,715.717l-.215-.04c-12.8-2.334-16.978-8.954-21.013-15.358-4.072-6.463-7.92-12.566-20.185-14.8l-2.028-.369,8.779-3.577.169.03c12.656,2.221,16.87,8.634,20.944,14.837,4.112,6.259,8,12.172,20.121,14.295l1.638.287Zm-39.253-30.975c11.277,2.619,15.22,8.876,19.041,14.938,4.052,6.429,7.882,12.506,20,14.777l4.984-2.849c-11.4-2.457-15.426-8.579-19.321-14.507-4.1-6.236-7.968-12.127-19.979-14.284Z" fill="#4fa206"/>
      <path id="Path_58" data-name="Path 58" d="M821.425,711.956l-.213-.037c-12.636-2.213-16.846-8.621-20.917-14.818-4.116-6.265-8-12.183-20.148-14.314l-2.051-.36,8.8-3.586.168.028c12.525,2.115,16.784,8.327,20.9,14.335,4.147,6.051,8.065,11.767,20.028,13.774l1.657.278ZM782.324,682c11.138,2.516,15.118,8.574,18.974,14.443,4.088,6.223,7.951,12.1,19.908,14.257l4.971-2.841c-11.228-2.338-15.281-8.251-19.2-13.975-4.141-6.04-8.051-11.747-19.945-13.8Z" fill="#4fa206"/>
      <path id="Path_59" data-name="Path 59" d="M828,708.2l-.211-.035c-12.465-2.091-16.712-8.287-20.818-14.278-4.16-6.069-8.088-11.8-20.112-13.83l-2.08-.352,8.821-3.595.166.028c12.4,2.009,16.7,8.018,20.857,13.831,4.184,5.844,8.135,11.363,19.937,13.254l1.68.269Zm-38.946-28.941c11,2.413,15.015,8.272,18.906,13.949,4.124,6.016,8.018,11.7,19.817,13.737l4.957-2.832c-11.051-2.221-15.133-7.923-19.087-13.446-4.182-5.844-8.134-11.364-19.907-13.318Z" fill="#4fa206"/>
      <path id="Path_60" data-name="Path 60" d="M834.581,704.438l-.209-.034c-12.3-1.97-16.58-7.954-20.723-13.741-4.2-5.871-8.171-11.416-20.073-13.346l-2.109-.341,8.843-3.6.164.025c12.264,1.9,16.611,7.71,20.814,13.327,4.219,5.636,8.2,10.96,19.845,12.735l1.7.259Zm-38.792-27.927c10.858,2.309,14.91,7.969,18.836,13.454,4.159,5.808,8.089,11.3,19.729,13.221l4.941-2.826c-10.874-2.1-14.985-7.6-18.967-12.916-4.226-5.647-8.22-10.982-19.874-12.835Z" fill="#4fa206"/>
      <path id="Path_61" data-name="Path 61" d="M768.271,701.818l-.292-.327a22.144,22.144,0,0,0-5.747-4.614l-1.062-.6,47.819-20.5.241.109a23.948,23.948,0,0,1,5.965,3.833l.7.614Zm-4.424-5.379a23.254,23.254,0,0,1,4.728,3.926l45.109-20.347a22.77,22.77,0,0,0-4.71-2.927Z" fill="#4fa206"/>
      <path id="Path_62" data-name="Path 62" d="M772.208,707.525l-.279-.47a34.1,34.1,0,0,0-3.95-5.564l-.548-.61L814.9,679.467l.29.253a33.086,33.086,0,0,1,4.26,4.6l.465.591Zm-2.8-6.219a35.774,35.774,0,0,1,3.274,4.668l45.36-21.5a30.968,30.968,0,0,0-3.349-3.591Z" fill="#4fa206"/>
      <path id="Path_63" data-name="Path 63" d="M775.619,713.5l-.284-.479c-.6-1.008-1.172-2.031-1.743-3.052-.546-.976-1.093-1.952-1.663-2.916l-.335-.567,47.563-22.548.3.376c.628.8,1.233,1.605,1.836,2.413.592.79,1.183,1.58,1.8,2.358l.456.58Zm-2.325-6.491c.457.787.9,1.581,1.346,2.375.475.85.951,1.7,1.444,2.545l45.606-22.684c-.46-.6-.91-1.2-1.36-1.8-.5-.673-1.007-1.345-1.524-2.011Z" fill="#4fa206"/>
      <path id="Path_64" data-name="Path 64" d="M779.77,719.129l-.312-.344a34.892,34.892,0,0,1-4.123-5.762l-.331-.555,47.78-23.765.3.384a31.725,31.725,0,0,0,4.088,4.419l.661.578Zm-3.07-6.164a33.493,33.493,0,0,0,3.341,4.67l45.7-23.811a33.731,33.731,0,0,1-3.291-3.612Z" fill="#4fa206"/>
      <path id="Path_65" data-name="Path 65" d="M785.866,723.82l-.289-.161a23.594,23.594,0,0,1-6.119-4.874l-.521-.576,47.928-24.973.31.271a22.427,22.427,0,0,0,5.634,3.611l1.1.5Zm-4.986-5.269a22.317,22.317,0,0,0,4.995,3.9l45.37-24.749a23.517,23.517,0,0,1-4.549-3.021Z" fill="#4fa206"/>
      <path id="Path_66" data-name="Path 66" d="M795.113,726.995l-.22-.045a31.871,31.871,0,0,1-9.316-3.291l-.95-.53,47.909-26.134.273.123a31.568,31.568,0,0,0,8.324,2.342l1.7.259Zm-7.975-3.869a31.582,31.582,0,0,0,7.772,2.6l44.384-25.369a31.425,31.425,0,0,1-6.705-2.026Z" fill="#4fa206"/>
    </g>
    <g id="Group_32" data-name="Group 32">
      <g id="Group_21" data-name="Group 21">
        <path id="Path_67" data-name="Path 67" d="M798.062,662.283l-.092-.232.466-.183.092.232Z" fill="#4fa206"/>
        <path id="Path_68" data-name="Path 68" d="M753.308,679.747l-.091-.232.932-.365.091.233Zm1.865-.727-.091-.233.932-.364.091.232Zm1.865-.728-.091-.232.932-.365.091.233Zm1.864-.729-.09-.232.932-.363.09.232Zm1.865-.727-.091-.232.932-.364.091.233Zm1.864-.728-.09-.232.932-.363.091.232Zm1.865-.727-.091-.233.933-.364.091.233Zm1.865-.728-.091-.232.933-.364.09.232Zm1.865-.727-.091-.233.932-.364.091.233Zm1.864-.728-.09-.232.932-.364.09.232Zm1.864-.728-.09-.233.933-.363.09.232Zm1.865-.728-.09-.232.933-.364.09.233Zm1.865-.727-.09-.233.932-.363.09.232Zm1.866-.728-.092-.232.933-.365.091.233Zm1.864-.727-.092-.233.933-.364.092.232Zm1.865-.728-.092-.232.932-.365.092.233Zm1.865-.728-.092-.232.932-.364.092.232Zm1.865-.728-.091-.232.932-.364.09.233Zm1.863-.728-.09-.232.933-.363.09.232Zm1.864-.727-.09-.233.933-.363.09.233Zm1.867-.728-.092-.232.932-.364.092.232Zm1.864-.727-.092-.233.933-.364.091.233Zm1.865-.728-.092-.232.933-.364.092.232Zm1.864-.727-.092-.233.933-.364.092.232Z" fill="#4fa206"/>
        <rect id="Rectangle_32" data-name="Rectangle 32" width="0.5" height="0.25" transform="matrix(0.931, -0.364, 0.364, 0.931, 751.819, 680.06)" fill="#4fa206"/>
      </g>
      <g id="Group_22" data-name="Group 22">
        <rect id="Rectangle_33" data-name="Rectangle 33" width="0.5" height="0.25" transform="matrix(0.931, -0.364, 0.364, 0.931, 797.971, 668.722)" fill="#4fa206"/>
        <path id="Path_69" data-name="Path 69" d="M753.308,686.418l-.091-.232.932-.365.091.233Zm1.864-.728-.09-.232.932-.364.091.232Zm1.865-.727-.091-.233.933-.364.091.233Zm1.865-.728-.091-.232.933-.364.09.232Zm1.865-.727-.091-.233.932-.364.091.233Zm1.864-.729-.09-.232.932-.363.09.232Zm1.865-.727-.091-.233.932-.363.091.232Zm1.865-.728-.091-.232.932-.363.091.232Zm1.865-.727-.091-.233.932-.363.091.232Zm1.864-.728-.09-.232.932-.365.09.233Zm1.865-.727-.092-.233.933-.364.092.232Zm1.865-.728-.091-.232.931-.365.092.233Zm1.865-.727-.092-.233.932-.364.092.232Zm1.865-.728-.092-.232.932-.365.091.233Zm1.864-.728-.092-.232.933-.364.092.232Zm1.865-.728-.091-.232.932-.364.091.233Zm1.864-.728-.09-.232.932-.363.09.232Zm1.864-.727-.09-.233.933-.363.089.233Zm1.865-.728-.09-.232.933-.363.09.232Zm1.865-.727-.091-.233.932-.364.092.233Zm1.866-.728-.092-.232.932-.364.092.232Zm1.864-.727-.092-.233.933-.364.091.232Zm1.865-.728-.092-.232.933-.365.092.233Zm1.864-.727-.092-.233.933-.364.092.232Z" fill="#4fa206"/>
        <rect id="Rectangle_34" data-name="Rectangle 34" width="0.5" height="0.25" transform="matrix(0.931, -0.364, 0.364, 0.931, 751.819, 686.732)" fill="#4fa206"/>
      </g>
      <g id="Group_23" data-name="Group 23">
        <rect id="Rectangle_35" data-name="Rectangle 35" width="0.5" height="0.25" transform="matrix(0.931, -0.364, 0.364, 0.931, 759.26, 697.17)" fill="#4fa206"/>
        <path id="Path_70" data-name="Path 70" d="M753.372,699.735l-.091-.232,1-.389.091.233Zm1.993-.777-.091-.232,1-.39.091.232Zm1.993-.778-.091-.233,1-.388.09.232Z" fill="#4fa206"/>
        <path id="Path_71" data-name="Path 71" d="M751.91,700.307l-.091-.232.466-.183.091.232Z" fill="#4fa206"/>
      </g>
      <g id="Group_24" data-name="Group 24">
        <rect id="Rectangle_36" data-name="Rectangle 36" width="0.5" height="0.25" transform="matrix(0.931, -0.364, 0.364, 0.931, 766.043, 701.195)" fill="#4fa206"/>
        <path id="Path_72" data-name="Path 72" d="M753.293,706.438l-.091-.233.917-.358.091.232Zm1.834-.716-.09-.233.917-.358.09.232Zm1.835-.716-.091-.233.917-.357.091.232Zm1.834-.716-.09-.232.917-.358.09.233Zm1.835-.716-.091-.232.917-.358.091.233Zm1.834-.716-.09-.232.917-.357.09.232Zm1.835-.715-.091-.233.917-.357.091.232Z" fill="#4fa206"/>
        <rect id="Rectangle_37" data-name="Rectangle 37" width="0.5" height="0.25" transform="matrix(0.931, -0.364, 0.364, 0.931, 751.819, 706.745)" fill="#4fa206"/>
      </g>
      <g id="Group_25" data-name="Group 25">
        <rect id="Rectangle_38" data-name="Rectangle 38" width="0.5" height="0.25" transform="matrix(0.931, -0.364, 0.364, 0.931, 769.057, 706.69)" fill="#4fa206"/>
        <path id="Path_73" data-name="Path 73" d="M753.259,713.123l-.091-.232.883-.345.091.232Zm1.765-.689-.091-.233.883-.345.091.233Zm1.766-.689-.091-.232.883-.345.09.232Zm1.765-.689-.091-.233.883-.344.09.232Zm1.765-.689-.091-.232.883-.345.091.232Zm1.766-.689-.091-.233.882-.344.091.232Zm1.765-.689-.091-.232.883-.345.091.233Zm1.766-.689-.091-.233.882-.344.091.232Zm1.765-.689-.091-.232.883-.345.091.233Z" fill="#4fa206"/>
        <rect id="Rectangle_39" data-name="Rectangle 39" width="0.5" height="0.25" transform="matrix(0.931, -0.364, 0.364, 0.931, 751.819, 713.416)" fill="#4fa206"/>
      </g>
      <g id="Group_26" data-name="Group 26">
        <path id="Path_74" data-name="Path 74" d="M799.034,662.283l-.466-.183.092-.232.466.183Z" fill="#4fa206"/>
        <path id="Path_75" data-name="Path 75" d="M843.787,679.747l-.933-.364.092-.233.933.365Zm-1.864-.727-.933-.365.092-.232.933.364Zm-1.865-.728-.933-.364.092-.233.932.365Zm-1.864-.729-.932-.363.09-.232.932.363Zm-1.866-.727-.932-.363.091-.233.932.364Zm-1.863-.728-.933-.363.09-.232.933.363Zm-1.866-.727-.932-.364.092-.233.931.364Zm-1.865-.728-.932-.364.092-.232.932.364Zm-1.865-.727-.932-.364.092-.233.932.364Zm-1.864-.728-.933-.364.092-.232.933.364Zm-1.863-.728-.933-.364.09-.232.932.363Zm-1.866-.728-.932-.363.09-.233.932.364Zm-1.864-.727-.933-.364.09-.232.933.363Zm-1.866-.728-.933-.364.092-.233.933.365Zm-1.864-.727-.933-.365.092-.232.932.364Zm-1.866-.728-.931-.364.092-.233.931.365Zm-1.864-.728-.932-.364.091-.232.933.364Zm-1.865-.728-.932-.363.091-.233.932.364Zm-1.863-.728-.933-.363.09-.232.932.363Zm-1.865-.727-.932-.363.09-.233.932.363Zm-1.866-.728-.932-.364.091-.232.933.364Zm-1.864-.727-.933-.364.092-.233.933.364Zm-1.865-.728-.933-.364.092-.232.932.364Zm-1.865-.727-.932-.365.092-.232.932.364Z" fill="#4fa206"/>
        <rect id="Rectangle_40" data-name="Rectangle 40" width="0.25" height="0.5" transform="translate(844.721 680.11) rotate(-68.697)" fill="#4fa206"/>
      </g>
      <g id="Group_27" data-name="Group 27">
        <rect id="Rectangle_41" data-name="Rectangle 41" width="0.25" height="0.5" transform="translate(798.568 668.772) rotate(-68.697)" fill="#4fa206"/>
        <path id="Path_76" data-name="Path 76" d="M843.787,686.418l-.932-.364.092-.233.932.365Zm-1.864-.728-.933-.364.092-.232.933.364Zm-1.865-.727-.932-.364.092-.233.931.364Zm-1.865-.728-.932-.364.092-.232.932.364Zm-1.864-.727-.933-.364.092-.233.933.364Zm-1.864-.729-.933-.363.09-.232.933.363Zm-1.864-.727-.933-.364.09-.232.932.363Zm-1.866-.728-.932-.363.09-.232.932.363Zm-1.864-.727-.933-.364.09-.232.933.363Zm-1.866-.728-.933-.364.092-.233.933.365Zm-1.864-.727-.933-.365.092-.232.932.364Zm-1.866-.728-.931-.364.092-.233.931.365Zm-1.864-.727-.932-.365.091-.232.933.364Zm-1.865-.728-.932-.364.092-.233.932.365Zm-1.864-.728-.933-.364.092-.232.932.364Zm-1.866-.728-.931-.363.091-.233.931.364Zm-1.863-.728-.932-.363.089-.232.933.363Zm-1.864-.727-.933-.363.09-.233.933.363Zm-1.865-.728-.933-.363.09-.232.932.363Zm-1.866-.727-.932-.364.092-.233.932.364Zm-1.865-.728-.932-.364.091-.232.933.364Zm-1.864-.727-.933-.365.092-.232.933.364Zm-1.865-.728-.933-.364.092-.233.932.365Zm-1.865-.727-.932-.365.092-.232.932.364Z" fill="#4fa206"/>
        <rect id="Rectangle_42" data-name="Rectangle 42" width="0.25" height="0.5" transform="translate(844.721 686.782) rotate(-68.697)" fill="#4fa206"/>
      </g>
      <g id="Group_28" data-name="Group 28">
        <path id="Path_77" data-name="Path 77" d="M822.146,684.645l-.466-.183.092-.232.466.183Z" fill="#4fa206"/>
        <path id="Path_78" data-name="Path 78" d="M843.817,693.1l-.9-.352.09-.232.9.351Zm-1.806-.705-.9-.352.092-.232.9.352Zm-1.806-.705-.9-.352.092-.233.9.353Zm-1.806-.7-.9-.352.092-.233.9.353Zm-1.806-.7-.9-.352.092-.233.9.353Zm-1.806-.7-.9-.352.092-.233.9.353Zm-1.806-.705-.9-.352.092-.233.9.353Zm-1.8-.7-.9-.353.092-.232.9.353Zm-1.807-.705-.9-.353.092-.232.9.352Zm-1.806-.705-.9-.353.092-.232.9.352Zm-1.8-.7-.9-.353.092-.232.9.352Zm-1.806-.705-.9-.353.092-.232.9.352Z" fill="#4fa206"/>
        <rect id="Rectangle_43" data-name="Rectangle 43" width="0.25" height="0.5" transform="translate(844.721 693.453) rotate(-68.697)" fill="#4fa206"/>
      </g>
      <g id="Group_29" data-name="Group 29">
        <rect id="Rectangle_44" data-name="Rectangle 44" width="0.25" height="0.5" transform="translate(830.258 694.481) rotate(-68.697)" fill="#4fa206"/>
        <path id="Path_79" data-name="Path 79" d="M843.787,699.761l-.933-.365.091-.232.934.364Zm-1.866-.729-.934-.364.092-.232.934.364Zm-1.865-.728-.933-.364.09-.232.933.363Zm-1.868-.728-.932-.364.092-.233.932.365Zm-1.866-.728-.932-.365.091-.232.933.364Zm-1.865-.729-.933-.363.09-.233.933.364Zm-1.867-.727-.933-.365.092-.232.933.364Z" fill="#4fa206"/>
        <path id="Path_80" data-name="Path 80" d="M845.186,700.307l-.466-.183.092-.232.466.183Z" fill="#4fa206"/>
      </g>
      <g id="Group_30" data-name="Group 30">
        <rect id="Rectangle_45" data-name="Rectangle 45" width="0.25" height="0.5" transform="translate(839.436 704.733) rotate(-68.697)" fill="#4fa206"/>
        <path id="Path_81" data-name="Path 81" d="M843.756,706.419l-.964-.376.092-.232.964.376Zm-1.928-.752-.964-.376.092-.232.964.376Z" fill="#4fa206"/>
        <rect id="Rectangle_46" data-name="Rectangle 46" width="0.25" height="0.5" transform="translate(844.721 706.796) rotate(-68.697)" fill="#4fa206"/>
      </g>
      <g id="Group_31" data-name="Group 31">
        <rect id="Rectangle_47" data-name="Rectangle 47" width="0.25" height="0.5" transform="translate(831.986 708.498) rotate(-68.697)" fill="#4fa206"/>
        <path id="Path_82" data-name="Path 82" d="M843.775,713.1l-.943-.369.092-.232.943.368Zm-1.885-.737-.945-.368.09-.232.944.368ZM840,711.626l-.943-.368.091-.233.944.369Zm-1.888-.736-.943-.369.092-.233.943.369Zm-1.886-.738-.944-.368.092-.232.943.368Zm-1.888-.736-.943-.368.091-.233.944.369Z" fill="#4fa206"/>
        <rect id="Rectangle_48" data-name="Rectangle 48" width="0.25" height="0.5" transform="translate(844.721 713.467) rotate(-68.697)" fill="#4fa206"/>
      </g>
      <path id="Path_83" data-name="Path 83" d="M839.3,720.341l-.935-.357.09-.234.935.356Zm-1.869-.713-.934-.357.09-.234.934.357Zm-1.869-.713-.934-.356.09-.235.934.357Zm-1.869-.713-.934-.356.09-.235.934.357Zm-1.868-.712-.934-.356.089-.235.935.357Zm-1.869-.713-.935-.356.09-.234.935.356Zm-1.868-.713-.935-.356.09-.234.935.356Zm-1.869-.712-.935-.357.09-.234.935.356Zm-1.869-.712-.934-.357.09-.234.933.356Zm-1.869-.713-.934-.357.09-.234.934.356Z" fill="#4fa206"/>
      <path id="Path_84" data-name="Path 84" d="M833.753,723.294l-.581-.222.09-.234.581.222Zm-1.516-.578-.934-.357.09-.234.934.356ZM830.369,722l-.934-.356.089-.234.935.356Zm-1.869-.712-.935-.356.09-.235.935.357Zm-1.868-.713-.935-.356.09-.235.935.357Zm-1.869-.713-.935-.356.09-.235.935.357Zm-1.869-.713-.934-.356.09-.234.933.356Zm-1.869-.713-.934-.355.09-.234.934.355Zm-1.869-.711-.933-.357.089-.234.934.356Zm-1.868-.713-.934-.357.089-.234.935.356Z" fill="#4fa206"/>
      <path id="Path_85" data-name="Path 85" d="M827.337,725.916l-.336-.128.09-.234.336.128Zm-1.271-.484-.934-.357.09-.234.934.356Zm-1.869-.713-.933-.357.09-.234.933.356Zm-1.868-.713-.934-.356.089-.234.935.355Zm-1.869-.712-.935-.356.09-.235.935.357Zm-1.868-.713-.935-.356.09-.235.935.357Zm-1.869-.713-.935-.356.09-.235.934.357Zm-1.869-.712-.934-.356.09-.235.933.357Zm-1.869-.713-.934-.356.09-.234.934.356Z" fill="#4fa206"/>
      <path id="Path_86" data-name="Path 86" d="M820.431,728.353,819.5,728l.09-.234.935.356Zm-1.869-.713-.934-.357.09-.234.934.356Zm-1.869-.713-.934-.357.09-.234.934.356Zm-1.869-.713-.933-.357.089-.234.934.356Zm-1.868-.713-.935-.355.09-.235.935.356Zm-1.869-.712-.934-.356.09-.235.934.357Zm-1.868-.713-.935-.356.09-.235.935.357Z" fill="#4fa206"/>
      <path id="Path_87" data-name="Path 87" d="M814.505,731.161l-.245-.094.09-.234.245.094Zm-1.18-.45-.934-.357.089-.234.935.357ZM811.456,730l-.935-.356.09-.235.935.357Zm-1.868-.713-.935-.356.09-.235.935.357Zm-1.869-.713-.935-.356.09-.235.935.357Zm-1.869-.712-.934-.356.09-.234.933.356Zm-1.869-.713-.934-.356.09-.234.934.356Z" fill="#4fa206"/>
      <path id="Path_88" data-name="Path 88" d="M808.072,733.777l-.934-.356.09-.234.934.356Zm-1.869-.713-.933-.355.089-.234.934.355Zm-1.868-.711L803.4,732l.09-.234.935.356Zm-1.869-.713-.935-.357.09-.234.935.356Zm-1.868-.713-.935-.357.09-.234.934.356Zm-1.869-.713-.935-.356.09-.234.934.355Zm-1.869-.712-.934-.356.09-.235.934.357Zm-1.869-.713-.934-.356.089-.235.935.357Zm-1.869-.713-.934-.356.09-.235.934.357Zm-1.868-.713-.935-.355.09-.235.935.356Zm-1.869-.712-.935-.356.09-.234.935.356Zm-1.868-.713-.935-.356.09-.234.934.356Zm-1.87-.712-.934-.357.09-.234.934.356Zm-1.868-.712-.934-.357.09-.234.934.356Zm-1.869-.713-.934-.357.089-.234.935.356Zm-1.869-.713-.934-.357.09-.234.934.357Zm-1.868-.713-.935-.356.09-.235.935.357Zm-1.869-.712-.935-.356.09-.235.935.357Zm-1.868-.713-.935-.356.09-.235.934.357Zm-1.87-.713-.934-.356.09-.235.934.357Zm-1.868-.713-.934-.356.089-.234.934.356Zm-1.868-.711-.935-.357.089-.234.934.356Zm-1.869-.713-.935-.357.089-.234.935.356Z" fill="#4fa206"/>
      <path id="Path_89" data-name="Path 89" d="M801.656,736.4l-.934-.356.09-.234.934.356Zm-1.869-.712-.933-.356.089-.234.934.355Zm-1.868-.712-.935-.357.09-.234.935.356Zm-1.869-.713-.935-.357.09-.234.935.356Zm-1.868-.713-.935-.357.09-.234.934.356Zm-1.87-.713-.934-.356.09-.234.934.356Zm-1.868-.712-.934-.356.09-.235.934.357Zm-1.869-.713-.934-.356.089-.235.935.357Zm-1.869-.713-.934-.356.09-.235.934.357Zm-1.868-.713-.935-.355.09-.234.935.355Zm-1.869-.712-.935-.356.09-.234.935.356Zm-1.868-.712-.935-.357.09-.234.934.356Zm-1.87-.713-.934-.357.09-.234.934.356Zm-1.868-.712-.934-.357.09-.234.934.356Zm-1.869-.713-.934-.357.089-.234.935.356Zm-1.869-.713-.934-.356.09-.235.934.357ZM771.757,725l-.934-.356.089-.235.935.357Zm-1.869-.712-.934-.356.089-.235.934.357Zm-1.868-.713-.935-.356.089-.235.934.357Zm-1.869-.713-.935-.356.089-.234.935.356Zm-1.869-.713-.934-.356.089-.234.934.356Zm-1.868-.711-.935-.357.089-.234.934.356Zm-1.869-.713-.935-.357.089-.234.935.356Z" fill="#4fa206"/>
      <path id="Path_90" data-name="Path 90" d="M795.24,739.022l-.934-.356.09-.234.934.356Zm-1.869-.712-.934-.356.09-.234.934.355ZM791.5,737.6l-.935-.357.09-.234.935.356Zm-1.869-.713-.935-.357.09-.234.935.356Zm-1.868-.713-.935-.357.09-.234.934.357Zm-1.87-.713-.934-.355.09-.235.934.356Zm-1.868-.712-.934-.356.09-.235.934.357Zm-1.869-.713-.934-.356.089-.235.935.357Zm-1.869-.713-.934-.356.09-.235.934.357Zm-1.868-.713-.935-.355.09-.234.935.355Zm-1.869-.712-.935-.356.09-.234.935.356Zm-1.868-.712-.935-.357.09-.234.934.356Zm-1.87-.713-.934-.357.09-.234.934.356Zm-1.868-.712-.934-.357.089-.234.934.356Zm-1.868-.713-.935-.357.089-.234.934.357Zm-1.869-.713-.935-.356.089-.235.935.357Zm-1.869-.713-.934-.356.089-.235.934.357Zm-1.869-.712-.934-.356.089-.235.934.357ZM761.6,726.2l-.935-.356.089-.235.934.357Zm-1.869-.713-.935-.356.089-.234.935.356Zm-1.869-.712-.934-.357.089-.234.934.356ZM756,724.058l-.935-.357.089-.234.934.356Zm-1.869-.713-.935-.357.089-.234.935.356Z" fill="#4fa206"/>
      <path id="Path_91" data-name="Path 91" d="M760.575,687.675l-.056-.8.249-.018.056.8Zm-.126-1.793-.069-1,.249-.018.069,1Zm-.139-1.995-.07-1,.249-.018.07,1Zm-.139-1.995-.07-1,.249-.018.07,1Zm-.14-2-.07-1,.249-.017.07,1Zm-.139-1.995-.07-1,.249-.017.07,1Z" fill="#4fa206"/>
      <path id="Path_92" data-name="Path 92" d="M770.481,683.516l-.028-.354.249-.019.028.353Zm-.107-1.351-.08-1,.249-.02.08,1Zm-.159-1.994-.08-1,.249-.02.08,1Zm-.159-1.993-.079-1,.249-.02.079,1Zm-.159-1.994-.08-1,.249-.02.08,1Zm-.159-1.994-.079-1,.249-.019.079,1Z" fill="#4fa206"/>
      <path id="Path_93" data-name="Path 93" d="M779.291,680.13l-.018-.58.25-.008.018.58Zm-.048-1.579-.03-1,.25-.008.03,1Zm-.061-2-.031-1,.25-.008.031,1Zm-.061-2-.03-1,.25-.008.03,1Zm-.06-2-.032-1,.25-.008.032,1Zm-.062-2-.03-1,.25-.008.03,1Z" fill="#4fa206"/>
      <path id="Path_94" data-name="Path 94" d="M787.925,676.166h-.25l.25-.013Zm0-1.013h-.25v-1h.25Zm0-2h-.25v-1h.25Zm0-2h-.25v-1h.25Zm0-2h-.25v-1h.25Zm0-2h-.25v-1h.25Z" fill="#4fa206"/>
      <path id="Path_95" data-name="Path 95" d="M761.719,714.657h-.25v-1h.25Zm0-2h-.25v-1h.25Zm0-2h-.25v-1h.25Zm0-2h-.25v-1h.25Zm0-2h-.25v-1h.25Zm0-2h-.25v-1h.25Zm0-2h-.25v-1h.25Zm0-2h-.25v-1h.25Z" fill="#4fa206"/>
      <path id="Path_96" data-name="Path 96" d="M808.563,672.818h-.25v-1h.25Zm0-2h-.25v-1h.25Zm0-2h-.25v-1h.25Zm0-2h-.25v-1h.25Z" fill="#4fa206"/>
      <path id="Path_97" data-name="Path 97" d="M817.888,680.122h-.25v-.665h.25Zm0-1.665h-.25v-1h.25Zm0-2h-.25v-1h.25Zm0-2h-.25v-1h.25Zm0-2h-.25v-1h.25Zm0-2h-.25v-1h.25Z" fill="#4fa206"/>
      <path id="Path_98" data-name="Path 98" d="M827.325,692.14h-.25v-1h.25Zm0-2h-.25v-1h.25Zm0-2h-.25v-1h.25Zm0-2h-.25v-1h.25Zm0-2h-.25v-1h.25Zm0-2h-.25v-1h.25Zm0-2h-.25v-1h.25Zm0-2h-.25v-1h.25Zm0-2h-.25v-1h.25Zm0-2h-.25v-1h.25Z" fill="#4fa206"/>
      <path id="Path_99" data-name="Path 99" d="M836.743,693.815h-.25v-1h.25Zm0-2h-.25v-1h.25Zm0-2h-.25v-1h.25Zm0-2h-.25v-1h.25Zm0-2h-.25v-1h.25Zm0-2h-.25v-1h.25Zm0-2h-.25v-1h.25Zm0-2h-.25v-1h.25Zm0-2h-.25v-1h.25Z" fill="#4fa206"/>
      <path id="Path_100" data-name="Path 100" d="M836.743,714.943h-.25v-.293h.25Zm0-1.293h-.25v-1h.25Zm0-2h-.25v-1h.25Zm0-2h-.25v-1h.25Zm0-2h-.25v-1h.25Z" fill="#4fa206"/>
    </g>
  </g>
</svg>
