<svg xmlns="http://www.w3.org/2000/svg" width="111.79" height="57.355" viewBox="0 0 111.79 57.355">
  <g id="Group_611" data-name="Group 611" transform="translate(-4604.721 -1596.022)">
    <path id="Path_419" data-name="Path 419" d="M280.263,94.618H348.9c1.761,0,3.188,1.9,3.188,4.246v31.49c0,2.345-1.427,4.246-3.188,4.246h-82.94Z" transform="translate(4358.988 1518.776)" fill="#e6e6e6"/>
    <g id="Group_580" data-name="Group 580" transform="translate(4613.829 1605.097)">
      <path id="Path_420" data-name="Path 420" d="M251.072,75.18A12.026,12.026,0,0,1,253.39,70a10.787,10.787,0,0,1,4.774-3.308,23.2,23.2,0,0,1,8.047-1.159,24.579,24.579,0,0,1,7.774,1.023,11.672,11.672,0,0,1,4.739,2.83,9.6,9.6,0,0,1,2.387,4.194,19.487,19.487,0,0,1,.648,5.114,18.666,18.666,0,0,1-1.637,8.252,22.612,22.612,0,0,1-4.364,6.069l-7.5,7.3q-.819.819-1.807,1.841a5.385,5.385,0,0,0-1.33,2.114h16.639v9.547H249.981a29.914,29.914,0,0,1,1.534-9.649,23.844,23.844,0,0,1,5.694-8.831l8.456-8.592a12.89,12.89,0,0,0,2.625-3.512,10.444,10.444,0,0,0,.784-4.4q0-3.069-.886-4.228a2.851,2.851,0,0,0-2.387-1.16,3.547,3.547,0,0,0-1.3.239,2.643,2.643,0,0,0-1.125.921,5.372,5.372,0,0,0-.818,1.943,14.468,14.468,0,0,0-.307,3.308V81.9H250.39A37.41,37.41,0,0,1,251.072,75.18Z" transform="translate(-249.981 -65.531)" fill="#01acb4"/>
    </g>
    <g id="Group_581" data-name="Group 581" transform="translate(4649.823 1616.779)">
      <path id="Path_421" data-name="Path 421" d="M357.17,111.5h.032l1.673-4.377,2.49.044-3.073,6.859-.078,4.485-2.3-.04.078-4.485-2.832-6.962,2.585.045Z" transform="translate(-353.161 -106.871)" fill="#01acb4"/>
      <path id="Path_422" data-name="Path 422" d="M402.888,109.085l-4.07-.071-.047,2.682,3.83.067-.033,1.883-3.83-.067-.053,3.064,4.229.074-.033,1.883-6.528-.114.2-11.4,6.368.111Z" transform="translate(-384.032 -106.918)" fill="#01acb4"/>
      <path id="Path_423" data-name="Path 423" d="M438.692,107.239l2.818,11.449-2.394-.042-.484-2.419-3.033-.053-.569,2.4-2.394-.042,3.216-11.343Zm-.427,7.1-1.012-5.143h-.032l-1.19,5.1Z" transform="translate(-409.963 -106.988)" fill="#01acb4"/>
      <path id="Path_424" data-name="Path 424" d="M483.153,107.128a3.2,3.2,0,0,1,2.222.765,2.845,2.845,0,0,1,.759,2.225,3.435,3.435,0,0,1-.5,1.867,2.142,2.142,0,0,1-1.452.909v.032a2.085,2.085,0,0,1,1.251.581,2.369,2.369,0,0,1,.471,1.4q.026.32.036.7t.017.838q.016.91.072,1.39a.892.892,0,0,0,.4.662v.1l-2.49-.044a1.229,1.229,0,0,1-.214-.555,6.071,6.071,0,0,1-.053-.647l-.025-2.188a1.8,1.8,0,0,0-.317-1.059,1.23,1.23,0,0,0-1.015-.4l-1.229-.021-.084,4.82-2.3-.04.2-11.4Zm-1.077,4.962a1.878,1.878,0,0,0,1.284-.369,1.674,1.674,0,0,0,.47-1.309,1.4,1.4,0,0,0-1.568-1.608l-1.085-.019-.057,3.288Z" transform="translate(-442.893 -106.891)" fill="#01acb4"/>
      <path id="Path_425" data-name="Path 425" d="M522.9,114.856a3.823,3.823,0,0,0,.051.727,1.258,1.258,0,0,0,.23.555,1.169,1.169,0,0,0,.465.359,1.86,1.86,0,0,0,.74.141,1.467,1.467,0,0,0,.956-.326,1.286,1.286,0,0,0,.442-1.054,1.92,1.92,0,0,0-.092-.664,1.316,1.316,0,0,0-.334-.509,2.454,2.454,0,0,0-.624-.418,9.077,9.077,0,0,0-.959-.392,8.222,8.222,0,0,1-1.315-.582,3.562,3.562,0,0,1-.921-.727,2.541,2.541,0,0,1-.534-.951,3.96,3.96,0,0,1-.154-1.24,3.188,3.188,0,0,1,.986-2.506,3.776,3.776,0,0,1,2.6-.785,5.634,5.634,0,0,1,1.41.192,2.96,2.96,0,0,1,1.107.562,2.545,2.545,0,0,1,.718.97,3.375,3.375,0,0,1,.239,1.4l-.006.32-2.2-.039a2.289,2.289,0,0,0-.266-1.258,1.058,1.058,0,0,0-.95-.456,1.6,1.6,0,0,0-.64.1,1.073,1.073,0,0,0-.412.288,1.01,1.01,0,0,0-.215.419,2.171,2.171,0,0,0-.065.494,1.648,1.648,0,0,0,.208.89,2,2,0,0,0,.946.679l1.758.8a5.435,5.435,0,0,1,1.059.618,2.928,2.928,0,0,1,.651.682,2.239,2.239,0,0,1,.329.8,4.423,4.423,0,0,1,.079.959,3.138,3.138,0,0,1-1.091,2.607,4.606,4.606,0,0,1-2.927.771,3.816,3.816,0,0,1-2.771-.894,3.3,3.3,0,0,1-.8-2.441l.008-.463,2.3.04Z" transform="translate(-472.836 -106.484)" fill="#01acb4"/>
    </g>
    <g id="Group_609" data-name="Group 609" transform="translate(4650.779 1641.516)">
      <path id="Path_426" data-name="Path 426" d="M360.211,161.3a1.55,1.55,0,0,0-.168-.446,1.08,1.08,0,0,0-.3-.336.71.71,0,0,0-.435-.133.907.907,0,0,0-.869.672,6.6,6.6,0,0,0-.266,2.224q0,.742.046,1.344a5.169,5.169,0,0,0,.168,1.025,1.473,1.473,0,0,0,.347.649.791.791,0,0,0,.585.226.809.809,0,0,0,.33-.081,1.088,1.088,0,0,0,.336-.243,1.317,1.317,0,0,0,.261-.411,1.5,1.5,0,0,0,.1-.585v-.846h-1.1v-1.228h2.7v4.459h-1.228v-.765H360.7a1.756,1.756,0,0,1-.724.689,2.33,2.33,0,0,1-1.013.2,2.557,2.557,0,0,1-1.246-.266,1.817,1.817,0,0,1-.753-.822,4.2,4.2,0,0,1-.365-1.372,17.033,17.033,0,0,1-.092-1.894,11.063,11.063,0,0,1,.133-1.83,3.666,3.666,0,0,1,.457-1.315,2.092,2.092,0,0,1,.857-.793,2.966,2.966,0,0,1,1.332-.266,2.518,2.518,0,0,1,1.969.678,2.831,2.831,0,0,1,.6,1.94h-1.6A2.254,2.254,0,0,0,360.211,161.3Z" transform="translate(-356.511 -159.161)" fill="#01acb4"/>
      <path id="Path_427" data-name="Path 427" d="M380.672,165.5a3.7,3.7,0,0,0,.041.573,1.293,1.293,0,0,0,.15.452.808.808,0,0,0,.3.3,1.117,1.117,0,0,0,.967,0,.82.82,0,0,0,.3-.3,1.3,1.3,0,0,0,.151-.452,3.806,3.806,0,0,0,.04-.573V159.73h1.668V165.5a3.342,3.342,0,0,1-.22,1.3,2.08,2.08,0,0,1-.591.816,2,2,0,0,1-.846.405,4.572,4.572,0,0,1-.984.1,5.139,5.139,0,0,1-.984-.092,2,2,0,0,1-.846-.376,1.928,1.928,0,0,1-.59-.805A3.518,3.518,0,0,1,379,165.5V159.73h1.668Z" transform="translate(-372.587 -159.568)" fill="#01acb4"/>
      <path id="Path_428" data-name="Path 428" d="M403.433,159.73l2.189,8.27h-1.737l-.382-1.749h-2.2L400.919,168h-1.737l2.189-8.27Zm-.22,5.154-.8-3.718h-.023l-.8,3.718Z" transform="translate(-387.009 -159.568)" fill="#01acb4"/>
      <path id="Path_429" data-name="Path 429" d="M426.868,159.73a2.323,2.323,0,0,1,1.621.527,2.064,2.064,0,0,1,.579,1.6,2.491,2.491,0,0,1-.336,1.361,1.555,1.555,0,0,1-1.042.678v.023a1.51,1.51,0,0,1,.915.405,1.716,1.716,0,0,1,.359,1.008q.023.232.035.5t.023.608q.023.66.069,1.008a.649.649,0,0,0,.3.475V168h-1.807a.9.9,0,0,1-.162-.4,4.5,4.5,0,0,1-.046-.469l-.046-1.587a1.3,1.3,0,0,0-.243-.764.892.892,0,0,0-.741-.278h-.892V168h-1.668v-8.27Zm-.718,3.614a1.363,1.363,0,0,0,.927-.284,1.215,1.215,0,0,0,.324-.956,1.019,1.019,0,0,0-1.158-1.147h-.788v2.386Z" transform="translate(-404.595 -159.568)" fill="#01acb4"/>
      <path id="Path_430" data-name="Path 430" d="M448.581,159.73,450.77,168h-1.737l-.382-1.749h-2.2L446.067,168H444.33l2.189-8.27Zm-.22,5.154-.8-3.718h-.023l-.8,3.718Z" transform="translate(-419.278 -159.568)" fill="#01acb4"/>
      <path id="Path_431" data-name="Path 431" d="M472.872,165.394h.023V159.73h1.529V168h-1.9l-2.039-5.791h-.023V168h-1.529v-8.27h1.923Z" transform="translate(-436.863 -159.568)" fill="#01acb4"/>
      <path id="Path_432" data-name="Path 432" d="M495.977,161.1H494.17V168H492.5v-6.9H490.7V159.73h5.281Z" transform="translate(-452.417 -159.568)" fill="#01acb4"/>
      <path id="Path_433" data-name="Path 433" d="M516.348,161.1h-2.953v1.946h2.78v1.367h-2.78v2.224h3.069V168h-4.737v-8.27h4.621Z" transform="translate(-467.448 -159.568)" fill="#01acb4"/>
      <path id="Path_434" data-name="Path 434" d="M535.876,161.1h-2.953v1.946h2.78v1.367h-2.78v2.224h3.069V168h-4.737v-8.27h4.621Z" transform="translate(-481.405 -159.568)" fill="#01acb4"/>
    </g>
    <g id="Group_608" data-name="Group 608" transform="matrix(0.309, 0.951, -0.951, 0.309, 4631.862, 1595.12)">
      <path id="Path_435" data-name="Path 435" d="M.115,4.575,0,0,.9.215l-.017.957,1.145.273L2.448.582l.9.215L1.188,4.83ZM.868,1.92.823,3.954l.012,0,.876-1.836Z" transform="translate(20.34 29.809)" fill="#5c5e5f"/>
      <path id="Path_436" data-name="Path 436" d="M.83,4.167a1.6,1.6,0,0,1-.612-.458A1.081,1.081,0,0,1,0,3.127a1.936,1.936,0,0,1,.1-.7A6.4,6.4,0,0,1,.43,1.6a6.247,6.247,0,0,1,.5-.885A1.943,1.943,0,0,1,1.453.176,1.075,1.075,0,0,1,2.051,0a1.742,1.742,0,0,1,.725.192l1.271.6-1.894,4ZM2.6.836A.765.765,0,0,0,2.225.747a.55.55,0,0,0-.319.144,1.562,1.562,0,0,0-.31.395q-.155.263-.349.671-.161.342-.261.61a1.624,1.624,0,0,0-.111.472.6.6,0,0,0,.085.356.754.754,0,0,0,.326.26l.341.162L2.959,1.006Z" transform="translate(14.862 28.574)" fill="#5c5e5f"/>
      <path id="Path_437" data-name="Path 437" d="M.592,3.825a1.6,1.6,0,0,1-.5-.582,1.079,1.079,0,0,1-.082-.615,1.938,1.938,0,0,1,.25-.666,6.434,6.434,0,0,1,.5-.732,6.269,6.269,0,0,1,.68-.754,1.942,1.942,0,0,1,.63-.408A1.072,1.072,0,0,1,2.7.028a1.741,1.741,0,0,1,.665.347l1.108.866L1.744,4.726ZM3.05.965A.762.762,0,0,0,2.7.8.552.552,0,0,0,2.36.866a1.563,1.563,0,0,0-.39.317q-.209.222-.487.579-.233.3-.389.537a1.626,1.626,0,0,0-.211.437.587.587,0,0,0,0,.365.751.751,0,0,0,.261.326l.3.233,1.916-2.45Z" transform="translate(10.233 26.039)" fill="#5c5e5f"/>
      <path id="Path_438" data-name="Path 438" d="M.61,3.677,0,3.026,3.227,0l.61.651Z" transform="translate(7.221 23.625)" fill="#5c5e5f"/>
      <path id="Path_439" data-name="Path 439" d="M.6,1.275l.543.8L4.2,0l.5.738L1.649,2.813l.543.8-.6.411L0,1.686Z" transform="translate(4.077 20.912)" fill="#5c5e5f"/>
      <path id="Path_440" data-name="Path 440" d="M.381,2.693,0,1.886,4,0l.381.807Z" transform="translate(2.562 17.901)" fill="#5c5e5f"/>
      <path id="Path_441" data-name="Path 441" d="M1.8,3.348a2.046,2.046,0,0,1-.756,0,1.143,1.143,0,0,1-.58-.309,1.607,1.607,0,0,1-.382-.723A1.608,1.608,0,0,1,.032,1.5,1.143,1.143,0,0,1,.364.934,2.046,2.046,0,0,1,1.009.539a8.642,8.642,0,0,1,.879-.3A8.518,8.518,0,0,1,2.795.035a2.056,2.056,0,0,1,.753,0,1.089,1.089,0,0,1,.571.312,1.677,1.677,0,0,1,.372.726,1.682,1.682,0,0,1,.062.813,1.09,1.09,0,0,1-.323.565,2.051,2.051,0,0,1-.642.394,8.435,8.435,0,0,1-.882.3A8.575,8.575,0,0,1,1.8,3.348ZM3.188,2.055a2.117,2.117,0,0,0,.466-.221.569.569,0,0,0,.224-.256.524.524,0,0,0,0-.331A.526.526,0,0,0,3.7.963a.566.566,0,0,0-.325-.1,2.122,2.122,0,0,0-.513.055Q2.559.98,2.13,1.1t-.721.226a2.156,2.156,0,0,0-.465.221.568.568,0,0,0-.227.257.523.523,0,0,0,0,.331.524.524,0,0,0,.173.283.566.566,0,0,0,.328.1,2.133,2.133,0,0,0,.512-.055q.3-.063.734-.184T3.188,2.055Z" transform="translate(0.969 13.782)" fill="#5c5e5f"/>
      <path id="Path_442" data-name="Path 442" d="M3.079.924V.912L.056,1.121,0,.3,4.413,0l.07,1.014-3.016,1.3v.013l3.09-.213.056.816L.2,3.235.131,2.209Z" transform="translate(0 8.865)" fill="#5c5e5f"/>
      <path id="Path_443" data-name="Path 443" d="M.152.552,4.694,0,4.567.921,3.612.995,3.45,2.16l.9.331-.128.921L0,1.645Zm2.715.5L.838,1.2l0,.013,1.911.7Z" transform="translate(0.125 4.001)" fill="#5c5e5f"/>
      <path id="Path_444" data-name="Path 444" d="M0,1.137.29.293l3.492,1.2L4.3,0l.692.238-.8,2.338Z" transform="translate(0.949 0)" fill="#5c5e5f"/>
    </g>
    <text id="DOG_DAMAGE" data-name="DOG DAMAGE" transform="translate(4651.511 1637.9)" fill="#646464" font-size="8" font-family="HelveticaNeue, Helvetica Neue" letter-spacing="0.14em"><tspan x="0" y="0">DOG DAMAGE</tspan></text>
  </g>
</svg>
