<svg xmlns="http://www.w3.org/2000/svg" width="21" height="21" viewBox="0 0 21 21">
  <path id="arrow-circle-left" d="M21,10.5A10.5,10.5,0,1,0,10.5,21,10.5,10.5,0,0,0,21,10.5ZM10.5,19.645A9.145,9.145,0,1,1,19.645,10.5,9.145,9.145,0,0,1,10.5,19.645Zm-.529-3.916L5.1,10.86a.509.509,0,0,1,0-.72L9.971,5.271a.509.509,0,0,1,.72,0l.292.292a.506.506,0,0,1-.008.724L7.354,9.78h8.057a.51.51,0,0,1,.508.508v.423a.51.51,0,0,1-.508.508H7.354l3.624,3.493a.51.51,0,0,1,.008.724l-.292.292A.514.514,0,0,1,9.971,15.729Z" transform="translate(21) rotate(90)" fill="#646464"/>
</svg>
