<svg xmlns="http://www.w3.org/2000/svg" width="43.059" height="26.869" viewBox="0 0 43.059 26.869">
  <path id="Path_721" data-name="Path 721" d="M-359.987,276.512l1.749-8.539h2.868l-1.749,8.539Zm8.64-2.778h1.819l-.49-3.151-1.329,3.151Zm-4.023,2.778,4.337-8.539h2.833l1.749,8.539h-2.624l-.175-1.016h-2.8l-.455,1.016Zm11.543,0,1.014-6.4h-2.519l.42-2.169h7.7l-.42,2.169h-2.379l-.979,6.4Zm9.619-2.778h1.819l-.455-3.151-1.364,3.151Zm-3.988,2.778,4.3-8.539h2.833l1.784,8.539h-2.693l-.1-1.016h-2.833l-.455,1.016Zm15.146-18.2h-13.432c-.49,2.406-2.2,4.4-5.632,5.794a3.45,3.45,0,0,0,3.078,2.2h7.31a2.8,2.8,0,0,0,2.344-1.66H-336.8c-.455-.068-.455-.407-.035-.474h7.311a2.909,2.909,0,0,0,2.274-1.626h-8.465c-.455-.068-.455-.406,0-.474h8.535c.874,0,1.644-.983,1.959-1.626h-9.374c-.455-.068-.455-.475,0-.508h9.549c.77,0,1.469-.779,1.994-1.627Zm-43.059,0h13.432c.49,2.406,2.2,4.4,5.632,5.794a3.451,3.451,0,0,1-3.078,2.2h-7.31a2.8,2.8,0,0,1-2.344-1.66h7.415c.455-.068.455-.407.035-.474h-7.311a2.908,2.908,0,0,1-2.274-1.626h8.465c.455-.068.455-.406,0-.474h-8.535c-.874,0-1.644-.983-1.959-1.626h9.374c.455-.068.455-.475,0-.508h-9.549c-.769,0-1.469-.779-1.994-1.627Zm17.174-7.183a6.28,6.28,0,0,0,1.644,1.016,8.429,8.429,0,0,1,2.029-2.507,6.882,6.882,0,0,0-3.673,1.491Zm-2.378,4.778h3.008a8.457,8.457,0,0,1,.8-3.355,7.533,7.533,0,0,1-1.819-1.084,6.494,6.494,0,0,0-1.994,4.439Zm6.506-2.745v2.745h-3.008a7.9,7.9,0,0,1,.77-3.185,7.079,7.079,0,0,0,2.239.44Zm4.582-2.033a6.276,6.276,0,0,1-1.644,1.016,8.873,8.873,0,0,0-2.029-2.507,6.881,6.881,0,0,1,3.673,1.491Zm2.379,4.778h-3.008a9.226,9.226,0,0,0-.769-3.355,8.043,8.043,0,0,0,1.784-1.084,6.539,6.539,0,0,1,1.994,4.439Zm-6.471-2.745v2.745h2.973a7.253,7.253,0,0,0-.77-3.185,7.064,7.064,0,0,1-2.2.44Zm-4.617,7.963a6.161,6.161,0,0,1,1.644-.983,8.428,8.428,0,0,0,2.029,2.507,6.924,6.924,0,0,1-3.673-1.525Zm-2.378-4.744h3.008a8.743,8.743,0,0,0,.8,3.354,7.534,7.534,0,0,0-1.819,1.084,6.65,6.65,0,0,1-1.994-4.439Zm6.506,2.745v-2.745h-3.008a7.488,7.488,0,0,0,.77,3.151,7.056,7.056,0,0,1,2.239-.407Zm4.582,2a6.521,6.521,0,0,0-1.644-.983,8.429,8.429,0,0,1-2.029,2.507,6.924,6.924,0,0,0,3.673-1.525Zm2.379-4.744h-3.008a8.561,8.561,0,0,1-.769,3.354,8.045,8.045,0,0,1,1.784,1.084,6.722,6.722,0,0,0,1.994-4.439Zm-6.471,2.745v-2.745h2.973a7.11,7.11,0,0,1-.77,3.151,6.847,6.847,0,0,0-2.2-.407Zm-.49-9.216a7.623,7.623,0,0,0-2.029,2.406,6.91,6.91,0,0,0,2.029.373v-2.778Zm.49,0a8.008,8.008,0,0,1,1.994,2.406,5.926,5.926,0,0,1-1.994.373v-2.778Zm-.49,12.469a7.625,7.625,0,0,1-2.029-2.406,5.965,5.965,0,0,1,2.029-.373v2.779Zm.49.034a8.592,8.592,0,0,0,1.994-2.44,6.9,6.9,0,0,0-1.994-.373v2.812Z" transform="translate(366.108 -249.643)" fill="#646464" fill-rule="evenodd"/>
</svg>
