<?xml version="1.0" encoding="utf-8"?>
<!-- Generator: Adobe Illustrator 17.0.0, SVG Export Plug-In . SVG Version: 6.00 Build 0)  -->
<!DOCTYPE svg PUBLIC "-//W3C//DTD SVG 1.1//EN" "http://www.w3.org/Graphics/SVG/1.1/DTD/svg11.dtd">
<svg version="1.1" id="Calque_1" xmlns="http://www.w3.org/2000/svg" xmlns:xlink="http://www.w3.org/1999/xlink" x="0px" y="0px"
	 width="27.667px" height="28.667px" viewBox="0 0 27.667 28.667" enable-background="new 0 0 27.667 28.667" xml:space="preserve">
<line fill="none" stroke="#D9D9D9" stroke-width="2" stroke-linecap="round" stroke-linejoin="round" stroke-miterlimit="10" x1="187.479" y1="-32.303" x2="182.043" y2="-26.868"/>
<line fill="none" stroke="#D9D9D9" stroke-width="2" stroke-linecap="round" stroke-linejoin="round" stroke-miterlimit="10" x1="176.609" y1="-32.303" x2="182.044" y2="-26.868"/>
<g>
	<path fill="none" stroke="#D9D9D9" stroke-width="2" stroke-linecap="round" stroke-linejoin="round" stroke-miterlimit="10" d="
		M194-42.419v18.479c0,0.6-0.5,1.086-1.087,1.086H171.15c-0.587,0-1.063-0.486-1.063-1.086v-18.479"/>
	
		<line fill="none" stroke="#D9D9D9" stroke-width="2" stroke-linecap="round" stroke-linejoin="round" stroke-miterlimit="10" x1="182.043" y1="-47.976" x2="182.043" y2="-27.324"/>
</g>
<g>
	
		<polyline fill="none" stroke="#D9D9D9" stroke-width="2" stroke-linecap="round" stroke-linejoin="round" stroke-miterlimit="10" points="
		91.786,-58.189 101.568,-49.494 116.786,-66.884 	"/>
</g>
<g>
	
		<line fill="none" stroke="#D9D9D9" stroke-width="2" stroke-linecap="round" stroke-linejoin="round" stroke-miterlimit="10" x1="45.899" y1="-59.992" x2="30.681" y2="-59.992"/>
	
		<line fill="none" stroke="#D9D9D9" stroke-width="2" stroke-linecap="round" stroke-linejoin="round" stroke-miterlimit="10" x1="25.247" y1="-59.992" x2="20.899" y2="-59.992"/>
	
		<line fill="none" stroke="#D9D9D9" stroke-width="2" stroke-linecap="round" stroke-linejoin="round" stroke-miterlimit="10" x1="45.899" y1="-51.296" x2="42.638" y2="-51.296"/>
	
		<line fill="none" stroke="#D9D9D9" stroke-width="2" stroke-linecap="round" stroke-linejoin="round" stroke-miterlimit="10" x1="37.204" y1="-51.296" x2="20.899" y2="-51.296"/>
	
		<line fill="none" stroke="#D9D9D9" stroke-width="2" stroke-linecap="round" stroke-linejoin="round" stroke-miterlimit="10" x1="45.899" y1="-42.601" x2="27.42" y2="-42.601"/>
	
		<line fill="none" stroke="#D9D9D9" stroke-width="2" stroke-linecap="round" stroke-linejoin="round" stroke-miterlimit="10" x1="21.986" y1="-42.601" x2="20.899" y2="-42.601"/>
	<path fill="none" stroke="#D9D9D9" stroke-width="2" stroke-linecap="round" stroke-linejoin="round" stroke-miterlimit="10" d="
		M26.878-56.731L26.878-56.731c-0.9,0-1.631-0.73-1.631-1.631v-3.261c0-0.9,0.731-1.629,1.631-1.629s1.63,0.729,1.63,1.629v3.261
		C28.508-57.461,27.778-56.731,26.878-56.731z"/>
	<path fill="none" stroke="#D9D9D9" stroke-width="2" stroke-linecap="round" stroke-linejoin="round" stroke-miterlimit="10" d="
		M38.834-48.036L38.834-48.036c-0.9,0-1.63-0.729-1.63-1.63v-3.262c0-0.9,0.73-1.629,1.63-1.629c0.9,0,1.631,0.729,1.631,1.629
		v3.262C40.465-48.765,39.734-48.036,38.834-48.036z"/>
	<path fill="none" stroke="#D9D9D9" stroke-width="2" stroke-linecap="round" stroke-linejoin="round" stroke-miterlimit="10" d="
		M23.617-39.34L23.617-39.34c-0.9,0-1.631-0.729-1.631-1.63v-3.261c0-0.9,0.731-1.63,1.631-1.63s1.63,0.73,1.63,1.63v3.261
		C25.247-40.069,24.517-39.34,23.617-39.34z"/>
</g>
<g>
	<path fill="none" stroke="#D9D9D9" stroke-width="2" stroke-linecap="round" stroke-linejoin="round" stroke-miterlimit="10" d="
		M-103.722-37.231l10.61,10.61c0.433,0.433,1.133,0.433,1.566,0l12.176-12.175c0.208-0.208,0.324-0.49,0.324-0.784v-10.61
		c0-0.611-0.495-1.106-1.107-1.106h-10.61c-0.294,0-0.575,0.116-0.783,0.324l-12.176,12.176
		C-104.155-38.364-104.155-37.664-103.722-37.231z"/>
	
		<circle fill="none" stroke="#D9D9D9" stroke-width="2" stroke-linecap="round" stroke-linejoin="round" stroke-miterlimit="10" cx="-84.581" cy="-45.762" r="2.214"/>
</g>
<g>
	<defs>
		<rect id="SVGID_1_" x="0.333" y="0.833" width="27" height="27"/>
	</defs>
	<clipPath id="SVGID_2_">
		<use xlink:href="#SVGID_1_"  overflow="visible"/>
	</clipPath>
	
		<path clip-path="url(#SVGID_2_)" fill="none" stroke="#D6D9DF" stroke-width="2" stroke-linecap="round" stroke-linejoin="round" stroke-miterlimit="10" d="
		M5.763,9.845L3.841,6.648l2.307-2.307l3.197,1.922L9.344,6.268c0.608-0.348,1.261-0.619,1.957-0.816l0.901-3.619h3.262l0.902,3.619
		c0.696,0.197,1.348,0.468,1.957,0.816l-0.001-0.005l3.197-1.922l2.306,2.307l-1.921,3.197l-0.005-0.001
		c0.347,0.608,0.619,1.261,0.815,1.957l3.619,0.901v3.262l-3.619,0.902c-0.196,0.696-0.468,1.348-0.815,1.957l0.005-0.001
		l1.921,3.197l-2.306,2.306l-3.197-1.921l0.001-0.005c-0.609,0.347-1.261,0.619-1.957,0.815l-0.902,3.619h-3.262l-0.901-3.619
		c-0.696-0.196-1.349-0.468-1.957-0.815l0.001,0.005l-3.197,1.921l-2.307-2.306l1.922-3.197l0.005,0.001
		c-0.348-0.609-0.619-1.261-0.816-1.957l-3.619-0.902v-3.262l3.619-0.901c0.197-0.696,0.468-1.349,0.816-1.957L5.763,9.845z"/>
	
		<circle clip-path="url(#SVGID_2_)" fill="none" stroke="#D6D9DF" stroke-width="2" stroke-linecap="round" stroke-linejoin="round" stroke-miterlimit="10" cx="13.833" cy="14.333" r="4.891"/>
</g>
</svg>
