<?xml version="1.0" encoding="utf-8"?>
<!-- Generator: Adobe Illustrator 17.0.0, SVG Export Plug-In . SVG Version: 6.00 Build 0)  -->
<!DOCTYPE svg PUBLIC "-//W3C//DTD SVG 1.1//EN" "http://www.w3.org/Graphics/SVG/1.1/DTD/svg11.dtd">
<svg version="1.1" id="Calque_1" xmlns="http://www.w3.org/2000/svg" xmlns:xlink="http://www.w3.org/1999/xlink" x="0px" y="0px"
	 width="27.667px" height="28.667px" viewBox="0 0 27.667 28.667" enable-background="new 0 0 27.667 28.667" xml:space="preserve">
<line fill="none" stroke="#D9D9D9" stroke-width="2" stroke-linecap="round" stroke-linejoin="round" stroke-miterlimit="10" x1="-34.275" y1="12.58" x2="-39.71" y2="18.015"/>
<line fill="none" stroke="#D9D9D9" stroke-width="2" stroke-linecap="round" stroke-linejoin="round" stroke-miterlimit="10" x1="-45.144" y1="12.58" x2="-39.709" y2="18.015"/>
<g>
	<path fill="none" stroke="#D9D9D9" stroke-width="2" stroke-linecap="round" stroke-linejoin="round" stroke-miterlimit="10" d="
		M-27.754,2.464v18.479c0,0.6-0.5,1.086-1.087,1.086h-21.763c-0.587,0-1.063-0.486-1.063-1.086V2.464"/>
	
		<line fill="none" stroke="#D9D9D9" stroke-width="2" stroke-linecap="round" stroke-linejoin="round" stroke-miterlimit="10" x1="-39.71" y1="-3.094" x2="-39.71" y2="17.558"/>
</g>
<g>
	
		<polyline fill="none" stroke="#D9D9D9" stroke-width="2" stroke-linecap="round" stroke-linejoin="round" stroke-miterlimit="10" points="
		71.677,-14.331 81.459,-5.636 96.677,-23.026 	"/>
</g>
<g>
	
		<line fill="none" stroke="#D9D9D9" stroke-width="2" stroke-linecap="round" stroke-linejoin="round" stroke-miterlimit="10" x1="105.917" y1="5.638" x2="90.699" y2="5.638"/>
	
		<line fill="none" stroke="#D9D9D9" stroke-width="2" stroke-linecap="round" stroke-linejoin="round" stroke-miterlimit="10" x1="85.265" y1="5.638" x2="80.917" y2="5.638"/>
	
		<line fill="none" stroke="#D9D9D9" stroke-width="2" stroke-linecap="round" stroke-linejoin="round" stroke-miterlimit="10" x1="105.917" y1="14.333" x2="102.656" y2="14.333"/>
	
		<line fill="none" stroke="#D9D9D9" stroke-width="2" stroke-linecap="round" stroke-linejoin="round" stroke-miterlimit="10" x1="97.222" y1="14.333" x2="80.917" y2="14.333"/>
	
		<line fill="none" stroke="#D9D9D9" stroke-width="2" stroke-linecap="round" stroke-linejoin="round" stroke-miterlimit="10" x1="105.917" y1="23.028" x2="87.438" y2="23.028"/>
	
		<line fill="none" stroke="#D9D9D9" stroke-width="2" stroke-linecap="round" stroke-linejoin="round" stroke-miterlimit="10" x1="82.004" y1="23.028" x2="80.917" y2="23.028"/>
	<path fill="none" stroke="#D9D9D9" stroke-width="2" stroke-linecap="round" stroke-linejoin="round" stroke-miterlimit="10" d="
		M86.895,8.899L86.895,8.899c-0.9,0-1.631-0.73-1.631-1.631V4.007c0-0.9,0.731-1.629,1.631-1.629s1.63,0.729,1.63,1.629v3.261
		C88.525,8.169,87.795,8.899,86.895,8.899z"/>
	<path fill="none" stroke="#D9D9D9" stroke-width="2" stroke-linecap="round" stroke-linejoin="round" stroke-miterlimit="10" d="
		M98.851,17.594L98.851,17.594c-0.9,0-1.63-0.729-1.63-1.63v-3.262c0-0.9,0.73-1.629,1.63-1.629s1.631,0.729,1.631,1.629v3.262
		C100.482,16.865,99.751,17.594,98.851,17.594z"/>
	<path fill="none" stroke="#D9D9D9" stroke-width="2" stroke-linecap="round" stroke-linejoin="round" stroke-miterlimit="10" d="
		M83.635,26.289L83.635,26.289c-0.9,0-1.631-0.729-1.631-1.63v-3.261c0-0.9,0.731-1.63,1.631-1.63s1.63,0.73,1.63,1.63v3.261
		C85.265,25.56,84.535,26.289,83.635,26.289z"/>
</g>
<g>
	<path fill="none" stroke="#D9D9D9" stroke-width="2" stroke-linecap="round" stroke-linejoin="round" stroke-miterlimit="10" d="
		M1.657,15.899l10.61,10.61c0.433,0.433,1.133,0.433,1.566,0l12.176-12.175c0.208-0.208,0.324-0.49,0.324-0.784V2.94
		c0-0.611-0.495-1.106-1.107-1.106h-10.61c-0.294,0-0.575,0.116-0.783,0.324L1.657,14.334C1.224,14.766,1.224,15.466,1.657,15.899z"
		/>
	
		<circle fill="none" stroke="#D9D9D9" stroke-width="2" stroke-linecap="round" stroke-linejoin="round" stroke-miterlimit="10" cx="20.799" cy="7.367" r="2.214"/>
</g>
<g>
	<defs>
		<rect id="SVGID_1_" x="121.75" y="10.833" width="27" height="27"/>
	</defs>
	<clipPath id="SVGID_2_">
		<use xlink:href="#SVGID_1_"  overflow="visible"/>
	</clipPath>
	
		<path clip-path="url(#SVGID_2_)" fill="none" stroke="#D6D9DF" stroke-width="2" stroke-linecap="round" stroke-linejoin="round" stroke-miterlimit="10" d="
		M127.18,19.845l-1.922-3.197l2.307-2.307l3.197,1.922l-0.001,0.005c0.608-0.348,1.261-0.619,1.957-0.816l0.901-3.619h3.262
		l0.902,3.619c0.696,0.197,1.348,0.468,1.957,0.816l-0.001-0.005l3.197-1.922l2.306,2.307l-1.921,3.197l-0.005-0.001
		c0.347,0.608,0.619,1.261,0.815,1.957l3.619,0.901v3.262l-3.619,0.902c-0.196,0.696-0.468,1.348-0.815,1.957l0.005-0.001
		l1.921,3.197l-2.306,2.306l-3.197-1.921l0.001-0.005c-0.609,0.347-1.261,0.619-1.957,0.815l-0.902,3.619h-3.262l-0.901-3.619
		c-0.696-0.196-1.349-0.468-1.957-0.815l0.001,0.005l-3.197,1.921l-2.307-2.306l1.922-3.197l0.005,0.001
		c-0.348-0.609-0.619-1.261-0.816-1.957l-3.619-0.902v-3.262l3.619-0.901c0.197-0.696,0.468-1.349,0.816-1.957L127.18,19.845z"/>
	
		<circle clip-path="url(#SVGID_2_)" fill="none" stroke="#D6D9DF" stroke-width="2" stroke-linecap="round" stroke-linejoin="round" stroke-miterlimit="10" cx="135.25" cy="24.333" r="4.891"/>
</g>
</svg>
