<?xml version="1.0" encoding="utf-8"?>
<!-- Generator: Adobe Illustrator 16.0.0, SVG Export Plug-In . SVG Version: 6.00 Build 0)  -->
<!DOCTYPE svg PUBLIC "-//W3C//DTD SVG 1.1//EN" "http://www.w3.org/Graphics/SVG/1.1/DTD/svg11.dtd">
<svg version="1.1" id="Layer_1" xmlns="http://www.w3.org/2000/svg" xmlns:xlink="http://www.w3.org/1999/xlink" x="0px" y="0px"
	 width="23.75px" height="23.802px" viewBox="1.155 -3.129 23.75 23.802" enable-background="new 1.155 -3.129 23.75 23.802"
	 xml:space="preserve">
<polygon fill="#FFFFFF" points="20.868,10.919 20.868,1.919 6.868,1.919 6.868,-2.081 1.868,-2.081 1.868,4.919 2.868,4.919 
	2.868,13.919 17.868,13.919 17.868,19.919 23.868,19.919 23.868,10.919 "/>
<polygon fill="#FFF219" points="23.868,10.919 23.868,17.919 17.868,17.919 "/>
<polygon fill="#FFF219" points="2.868,10.919 20.868,10.919 20.868,1.919 "/>
<polygon fill="#FFF219" points="6.868,-2.081 6.868,2.919 1.868,2.919 "/>
<g>
	<polyline fill="none" stroke="#0B00EA" stroke-linecap="round" stroke-linejoin="round" stroke-miterlimit="10" points="
		15.868,13.919 2.868,13.919 2.868,6.919 	"/>
	<polyline fill="none" stroke="#0B00EA" stroke-linecap="round" stroke-linejoin="round" stroke-miterlimit="10" points="
		8.868,1.919 20.868,1.919 20.868,8.919 	"/>
	
		<line fill="none" stroke="#0B00EA" stroke-linejoin="round" stroke-miterlimit="10" x1="11.868" y1="13.919" x2="11.868" y2="17.919"/>
	
		<line fill="none" stroke="#0B00EA" stroke-linecap="round" stroke-linejoin="round" stroke-miterlimit="10" x1="7.868" y1="17.919" x2="15.868" y2="17.919"/>
	
		<line fill="none" stroke="#0B00EA" stroke-linecap="round" stroke-linejoin="round" stroke-miterlimit="10" x1="2.868" y1="10.919" x2="15.868" y2="10.919"/>
	<rect x="1.868" y="-2.081" fill="none" stroke="#0B00EA" stroke-linejoin="round" stroke-miterlimit="10" width="5" height="7"/>
	<rect x="17.868" y="10.919" fill="none" stroke="#0B00EA" stroke-linejoin="round" stroke-miterlimit="10" width="6" height="9"/>
	
		<line fill="none" stroke="#0B00EA" stroke-linecap="round" stroke-linejoin="round" stroke-miterlimit="10" x1="3.868" y1="2.919" x2="4.868" y2="2.919"/>
	
		<line fill="none" stroke="#0B00EA" stroke-linejoin="round" stroke-miterlimit="10" x1="17.868" y1="17.919" x2="23.868" y2="17.919"/>
	<g>
		
			<line fill="none" stroke="#0B00EA" stroke-linecap="round" stroke-linejoin="round" stroke-miterlimit="10" x1="15.368" y1="4.419" x2="18.368" y2="7.419"/>
		
			<line fill="none" stroke="#0B00EA" stroke-linecap="round" stroke-linejoin="round" stroke-miterlimit="10" x1="17.868" y1="3.919" x2="18.868" y2="4.919"/>
	</g>
</g>
</svg>
