<?xml version="1.0" encoding="utf-8"?>
<!-- Generator: Adobe Illustrator 16.0.0, SVG Export Plug-In . SVG Version: 6.00 Build 0)  -->
<!DOCTYPE svg PUBLIC "-//W3C//DTD SVG 1.1//EN" "http://www.w3.org/Graphics/SVG/1.1/DTD/svg11.dtd">
<svg version="1.1" id="Layer_1" xmlns="http://www.w3.org/2000/svg" xmlns:xlink="http://www.w3.org/1999/xlink" x="0px" y="0px"
	 width="23.868px" height="24.917px" viewBox="0 -3.129 23.868 24.917" enable-background="new 0 -3.129 23.868 24.917"
	 xml:space="preserve">
<polygon fill="#FFFFFF" points="20.928,-0.619 18.928,2.881 18.928,17.88 22.928,17.88 22.928,2.881 "/>
<polygon fill="#FFFFFF" points="15.928,20.88 0.929,20.88 0.929,-1.119 13.929,-1.119 15.929,0.881 "/>
<polygon fill="#FFF219" points="18.928,17.88 18.928,19.88 20.928,20.88 22.928,19.88 22.928,17.88 "/>
<rect x="0.929" y="13.88" fill="#FFF219" width="15" height="3"/>
<line fill="none" stroke="#0B00EA" stroke-linecap="round" stroke-linejoin="round" stroke-miterlimit="10" x1="20.928" y1="-2.119" x2="20.928" y2="-0.619"/>
<polygon fill="none" stroke="#0B00EA" stroke-linecap="round" stroke-linejoin="round" stroke-miterlimit="10" points="
	20.928,-0.619 18.928,2.882 20.928,4.881 22.928,2.882 "/>
<polyline fill="none" stroke="#0B00EA" stroke-linecap="round" stroke-linejoin="round" stroke-miterlimit="10" points="
	18.928,2.882 18.928,17.88 22.928,17.88 22.928,2.882 "/>
<line fill="none" stroke="#0B00EA" stroke-linecap="round" stroke-linejoin="round" stroke-miterlimit="10" x1="20.928" y1="4.881" x2="20.928" y2="15.88"/>
<polygon fill="none" stroke="#0B00EA" stroke-linecap="round" stroke-linejoin="round" stroke-miterlimit="10" points="
	18.928,17.88 18.928,19.88 20.928,20.88 22.928,19.88 22.928,17.88 "/>
<line fill="none" stroke="#0B00EA" stroke-linecap="round" stroke-linejoin="round" stroke-miterlimit="10" x1="0.929" y1="13.88" x2="15.928" y2="13.88"/>
<line fill="none" stroke="#0B00EA" stroke-linecap="round" stroke-linejoin="round" stroke-miterlimit="10" x1="0.929" y1="16.88" x2="15.928" y2="16.88"/>
<polygon fill="none" stroke="#0B00EA" stroke-linecap="round" stroke-linejoin="round" stroke-miterlimit="10" points="
	11.928,7.881 8.428,9.88 4.928,7.881 4.928,3.881 8.428,1.881 11.928,3.881 "/>
<polygon fill="none" stroke="#0B00EA" stroke-linecap="round" stroke-linejoin="round" stroke-miterlimit="10" points="
	15.928,20.88 0.929,20.88 0.929,-1.119 13.929,-1.119 15.929,0.881 "/>
</svg>
