<?xml version="1.0" encoding="utf-8"?>
<!-- Generator: Adobe Illustrator 16.0.0, SVG Export Plug-In . SVG Version: 6.00 Build 0)  -->
<!DOCTYPE svg PUBLIC "-//W3C//DTD SVG 1.1//EN" "http://www.w3.org/Graphics/SVG/1.1/DTD/svg11.dtd">
<svg version="1.1" id="Layer_1" xmlns="http://www.w3.org/2000/svg" xmlns:xlink="http://www.w3.org/1999/xlink" x="0px" y="0px"
	 width="24.66px" height="26.239px" viewBox="0 -2.714 24.66 26.239" enable-background="new 0 -2.714 24.66 26.239"
	 xml:space="preserve">
<polygon fill="#FFFFFF" points="22.37,16.286 12.37,21.786 2.37,16.286 2.37,5.286 12.37,-0.214 22.37,5.286 "/>
<polygon fill="#FFF219" points="2.37,16.286 12.37,21.786 22.37,16.286 20.254,14.949 12.37,19.286 4.485,14.949 "/>
<polygon fill="#FFF219" points="14.37,6.786 12.87,9.786 13.87,10.786 12.37,12.286 11.87,11.786 10.37,14.786 14.37,14.786 
	19.37,10.786 "/>
<polygon fill="none" stroke="#0B00EA" stroke-linecap="round" stroke-linejoin="round" stroke-miterlimit="10" points="
	22.37,16.286 12.37,21.786 2.37,16.286 2.37,5.286 12.37,-0.214 22.37,5.286 "/>
<rect x="11.309" y="9.725" transform="matrix(-0.7071 0.7071 -0.7071 -0.7071 28.7429 9.6656)" fill="none" stroke="#0B00EA" stroke-linecap="round" stroke-linejoin="round" stroke-miterlimit="10" width="2.121" height="2.121"/>
<polygon fill="none" stroke="#0B00EA" stroke-linecap="round" stroke-linejoin="round" stroke-miterlimit="10" points="
	14.37,14.786 10.37,14.786 5.37,10.786 10.37,6.786 14.37,6.786 19.37,10.786 "/>
</svg>
