<?xml version="1.0" encoding="utf-8"?>
<!-- Generator: Adobe Illustrator 16.0.0, SVG Export Plug-In . SVG Version: 6.00 Build 0)  -->
<!DOCTYPE svg PUBLIC "-//W3C//DTD SVG 1.1//EN" "http://www.w3.org/Graphics/SVG/1.1/DTD/svg11.dtd">
<svg version="1.1" id="Layer_1" xmlns="http://www.w3.org/2000/svg" xmlns:xlink="http://www.w3.org/1999/xlink" x="0px" y="0px"
	 width="26.124px" height="23.62px" viewBox="0 -1.159 26.124 23.62" enable-background="new 0 -1.159 26.124 23.62"
	 xml:space="preserve">
<path fill="#FFFFFF" d="M24.16,15.286l-1-5.5h-1v4.5l-1.691-5.5h4.191l-2-9h-19l-2,9h4.193l-1.693,5.5v-4.5h-1l-1,5.5l0.5,3.5l-1,3
	h6l0.5-2l4-5l-1-0.5l-2.5,1.5l1.75-7h5.5l1.75,7l-2.5-1.5l-1,0.5l4,5l0.5,2h6l-1-3L24.16,15.286z M6.66,14.286l0.847-5.5h1.269
	L6.66,14.286z M17.544,8.786h1.27l0.846,5.5L17.544,8.786z"/>
<polygon fill="#FFF219" points="6.16,7.786 7.66,7.786 7.506,8.786 8.775,8.786 9.16,7.786 10.66,7.786 10.41,8.786 15.91,8.786 
	15.66,7.786 17.16,7.786 17.544,8.786 18.814,8.786 18.66,7.786 20.16,7.786 20.468,8.786 24.66,8.786 24.216,6.786 2.104,6.786 
	1.66,8.786 5.853,8.786 "/>
<g>
	
		<line fill="none" stroke="#0B00EA" stroke-linecap="round" stroke-linejoin="round" stroke-miterlimit="10" x1="13.66" y1="8.786" x2="12.66" y2="8.786"/>
	
		<line fill="none" stroke="#0B00EA" stroke-linecap="round" stroke-linejoin="round" stroke-miterlimit="10" x1="6.66" y1="2.786" x2="7.16" y2="2.786"/>
	
		<line fill="none" stroke="#0B00EA" stroke-linecap="round" stroke-linejoin="round" stroke-miterlimit="10" x1="9.16" y1="2.786" x2="9.66" y2="2.786"/>
	
		<line fill="none" stroke="#0B00EA" stroke-linecap="round" stroke-linejoin="round" stroke-miterlimit="10" x1="11.66" y1="2.786" x2="12.16" y2="2.786"/>
	
		<line fill="none" stroke="#0B00EA" stroke-linecap="round" stroke-linejoin="round" stroke-miterlimit="10" x1="14.16" y1="2.786" x2="14.66" y2="2.786"/>
	
		<line fill="none" stroke="#0B00EA" stroke-linecap="round" stroke-linejoin="round" stroke-miterlimit="10" x1="16.66" y1="2.786" x2="17.16" y2="2.786"/>
	
		<line fill="none" stroke="#0B00EA" stroke-linecap="round" stroke-linejoin="round" stroke-miterlimit="10" x1="19.16" y1="2.786" x2="19.66" y2="2.786"/>
	
		<line fill="none" stroke="#0B00EA" stroke-linecap="round" stroke-linejoin="round" stroke-miterlimit="10" x1="5.66" y1="4.786" x2="6.16" y2="4.786"/>
	
		<line fill="none" stroke="#0B00EA" stroke-linecap="round" stroke-linejoin="round" stroke-miterlimit="10" x1="8.16" y1="4.786" x2="8.66" y2="4.786"/>
	
		<line fill="none" stroke="#0B00EA" stroke-linecap="round" stroke-linejoin="round" stroke-miterlimit="10" x1="10.66" y1="4.786" x2="11.16" y2="4.786"/>
	
		<line fill="none" stroke="#0B00EA" stroke-linecap="round" stroke-linejoin="round" stroke-miterlimit="10" x1="13.16" y1="4.786" x2="13.66" y2="4.786"/>
	
		<line fill="none" stroke="#0B00EA" stroke-linecap="round" stroke-linejoin="round" stroke-miterlimit="10" x1="15.66" y1="4.786" x2="16.16" y2="4.786"/>
	
		<line fill="none" stroke="#0B00EA" stroke-linecap="round" stroke-linejoin="round" stroke-miterlimit="10" x1="18.16" y1="4.786" x2="18.66" y2="4.786"/>
	
		<line fill="none" stroke="#0B00EA" stroke-linecap="round" stroke-linejoin="round" stroke-miterlimit="10" x1="20.66" y1="4.786" x2="21.16" y2="4.786"/>
	<polyline fill="none" stroke="#0B00EA" stroke-linecap="round" stroke-linejoin="round" stroke-miterlimit="10" points="
		1.66,8.786 3.66,-0.214 22.66,-0.214 24.66,8.786 	"/>
	<polyline fill="none" stroke="#0B00EA" stroke-linecap="round" stroke-linejoin="round" stroke-miterlimit="10" points="
		1.66,21.786 2.66,18.786 2.16,15.286 3.16,9.786 4.16,9.786 4.16,14.286 6.16,7.786 7.66,7.786 6.66,14.286 9.16,7.786 
		10.66,7.786 8.66,15.786 11.16,14.286 12.16,14.786 8.16,19.786 7.66,21.786 	"/>
	<polyline fill="none" stroke="#0B00EA" stroke-linecap="round" stroke-linejoin="round" stroke-miterlimit="10" points="
		24.66,21.786 23.66,18.786 24.16,15.286 23.16,9.786 22.16,9.786 22.16,14.286 20.16,7.786 18.66,7.786 19.66,14.286 17.16,7.786 
		15.66,7.786 17.66,15.786 15.16,14.286 14.16,14.786 18.16,19.786 18.66,21.786 	"/>
</g>
</svg>
