<?xml version="1.0" encoding="utf-8"?>
<!-- Generator: Adobe Illustrator 16.0.0, SVG Export Plug-In . SVG Version: 6.00 Build 0)  -->
<!DOCTYPE svg PUBLIC "-//W3C//DTD SVG 1.1//EN" "http://www.w3.org/Graphics/SVG/1.1/DTD/svg11.dtd">
<svg version="1.1" id="Layer_1" xmlns="http://www.w3.org/2000/svg" xmlns:xlink="http://www.w3.org/1999/xlink" x="0px" y="0px"
	 width="24.049px" height="25.877px" viewBox="0 -2.119 24.049 25.877" enable-background="new 0 -2.119 24.049 25.877"
	 xml:space="preserve">
<polygon fill="#FFFFFF" points="5.388,17.027 3.451,4.263 12.07,1.482 20.986,4.263 18.753,17.027 12.07,20.171 "/>
<path fill="#FFF219" d="M12.07-0.619l-10.851,3.5l2.351,15.5l8.5,4l8.5-4l2.648-15.5L12.07-0.619z M18.753,17.027l-6.684,3.145
	l-6.682-3.145L3.451,4.263l8.619-2.78l8.916,2.78L18.753,17.027z"/>
<polygon fill="#FFF219" points="12.07,1.482 8.857,2.519 19.439,13.101 20.109,9.271 12.439,1.602 "/>
<g>
	<polygon fill="#FFF219" points="5.388,17.027 12.07,20.171 12.708,19.871 4.587,11.75 	"/>
	<polygon fill="#FFF219" points="5.455,3.616 3.451,4.263 3.783,6.444 15.769,18.431 18.753,17.027 18.767,16.929 	"/>
</g>
<g>
	<polygon fill="none" stroke="#0B00EA" stroke-linecap="round" stroke-linejoin="round" stroke-miterlimit="10" points="
		12.07,-0.619 23.218,2.881 20.57,18.38 12.07,22.38 3.57,18.38 1.219,2.881 	"/>
	<polygon fill="none" stroke="#0B00EA" stroke-linecap="round" stroke-linejoin="round" stroke-miterlimit="10" points="
		5.388,17.027 3.451,4.263 12.07,1.482 20.986,4.263 18.753,17.027 12.07,20.171 	"/>
	
		<line fill="none" stroke="#0B00EA" stroke-linecap="round" stroke-linejoin="round" stroke-miterlimit="10" x1="12.439" y1="1.602" x2="20.109" y2="9.271"/>
	
		<line fill="none" stroke="#0B00EA" stroke-linecap="round" stroke-linejoin="round" stroke-miterlimit="10" x1="8.857" y1="2.519" x2="19.439" y2="13.101"/>
	
		<line fill="none" stroke="#0B00EA" stroke-linecap="round" stroke-linejoin="round" stroke-miterlimit="10" x1="5.455" y1="3.616" x2="18.767" y2="16.929"/>
	
		<line fill="none" stroke="#0B00EA" stroke-linecap="round" stroke-linejoin="round" stroke-miterlimit="10" x1="3.783" y1="6.444" x2="15.767" y2="18.429"/>
	
		<line fill="none" stroke="#0B00EA" stroke-linecap="round" stroke-linejoin="round" stroke-miterlimit="10" x1="4.587" y1="11.75" x2="12.708" y2="19.871"/>
</g>
</svg>
