<svg width="22" height="16" viewBox="0 0 22 16" fill="none" xmlns="http://www.w3.org/2000/svg">
<path d="M18.835 11.658H6.48699L3.133 1H0V0H3.86699L7.22099 10.658H18.059L20.224 2.267L21.193 2.517L18.835 11.658Z" fill="#F18070"/>
<path d="M9.54153 15.0509C9.07155 15.0503 8.62099 14.8633 8.28876 14.5309C7.95654 14.1985 7.7698 13.7478 7.76953 13.2779C7.7698 12.808 7.95657 12.3574 8.28883 12.0252C8.62108 11.6929 9.07164 11.5061 9.54153 11.5059C10.0114 11.5061 10.462 11.6929 10.7942 12.0252C11.1265 12.3574 11.3133 12.808 11.3135 13.2779C11.3133 13.7478 11.1265 14.1985 10.7943 14.5309C10.4621 14.8633 10.0115 15.0503 9.54153 15.0509ZM9.54153 12.5059C9.33686 12.5061 9.14065 12.5875 8.99593 12.7323C8.85121 12.877 8.7698 13.0732 8.76953 13.2779C8.76953 13.4827 8.85083 13.6792 8.99558 13.8241C9.14033 13.969 9.33669 14.0506 9.54153 14.0509C9.74637 14.0506 9.94273 13.969 10.0875 13.8241C10.2322 13.6792 10.3135 13.4827 10.3135 13.2779C10.3133 13.0732 10.2318 12.877 10.0871 12.7323C9.9424 12.5875 9.74619 12.5061 9.54153 12.5059Z" fill="#F18070"/>
<path d="M16.0435 15.0509C15.5735 15.0503 15.1229 14.8633 14.7907 14.5309C14.4585 14.1985 14.2717 13.7478 14.2715 13.2779C14.2717 12.808 14.4585 12.3574 14.7908 12.0252C15.123 11.6929 15.5736 11.5061 16.0435 11.5059C16.5134 11.5061 16.9639 11.6929 17.2962 12.0252C17.6284 12.3574 17.8152 12.808 17.8155 13.2779C17.8152 13.7478 17.6285 14.1985 17.2962 14.5309C16.964 14.8633 16.5135 15.0503 16.0435 15.0509ZM16.0435 12.5059C15.8388 12.5061 15.6426 12.5875 15.4979 12.7323C15.3532 12.877 15.2717 13.0732 15.2715 13.2779C15.2715 13.4827 15.3528 13.6792 15.4975 13.8241C15.6423 13.969 15.8386 14.0506 16.0435 14.0509C16.2483 14.0506 16.4447 13.969 16.5894 13.8241C16.7342 13.6792 16.8155 13.4827 16.8155 13.2779C16.8152 13.0732 16.7338 12.877 16.5891 12.7323C16.4444 12.5875 16.2481 12.5061 16.0435 12.5059Z" fill="#F18070"/>
<path d="M12.7922 9.31869C15.2123 9.31869 17.1742 7.3568 17.1742 4.93669C17.1742 2.51658 15.2123 0.554688 12.7922 0.554688C10.372 0.554688 8.41016 2.51658 8.41016 4.93669C8.41016 7.3568 10.372 9.31869 12.7922 9.31869Z" fill="#FF6E5C"/>
</svg>
