<svg xmlns="http://www.w3.org/2000/svg" xmlns:xlink="http://www.w3.org/1999/xlink" width="378" height="68" viewBox="0 0 378 68"><defs><style>.a,.h{fill:#fff;}.b,.f{fill:#f18070;}.b{font-size:14px;}.b,.h{font-family:ProximaNova-Semibold, Proxima Nova;font-weight:600;}.c{fill:#7c726c;}.d{fill:#cae9df;}.e{fill:#f48574;}.g{fill:#ff6e5c;}.h{font-size:9px;}.i{filter:url(#a);}</style><filter id="a" x="0" y="0" width="378" height="68" filterUnits="userSpaceOnUse"><feOffset dy="2" input="SourceAlpha"/><feGaussianBlur stdDeviation="3" result="b"/><feFlood flood-opacity="0.149"/><feComposite operator="in" in2="b"/><feComposite in="SourceGraphic"/></filter></defs><g transform="translate(9 7)"><g class="i" transform="matrix(1, 0, 0, 1, -9, -7)"><rect class="a" width="360" height="50" transform="translate(9 7)"/></g><text class="b" transform="translate(322 30)"><tspan x="-16.975" y="0">HELP</tspan></text><g transform="translate(5.395 8.395)"><rect class="c" width="15" height="1" transform="translate(10.605 9.605)"/><rect class="c" width="15" height="1" transform="translate(10.605 15.605)"/><rect class="c" width="15" height="1" transform="translate(10.605 21.605)"/></g><g transform="translate(63 -24.696)"><g transform="translate(82 33)"><g transform="translate(14.611)"><path class="d" d="M102.688,78.967c-4.208,0-6.306-3.579-8.156-6.737-1.758-3-3.42-5.833-6.579-5.833s-4.823,2.833-6.582,5.834c-1.851,3.157-3.949,6.735-8.158,6.735s-6.305-3.579-8.156-6.737c-1.758-3-3.42-5.833-6.579-5.833V64.569c4.207,0,6.305,3.579,8.156,6.736,1.758,3,3.42,5.833,6.579,5.833s4.822-2.833,6.58-5.832c1.851-3.159,3.951-6.737,8.16-6.737s6.305,3.579,8.156,6.736c1.758,3,3.42,5.833,6.579,5.833Z" transform="translate(-58.478 -64.569)"/></g><g transform="translate(0 0.206)"><path class="e" d="M46.211,78.848c-3.945,0-5.885-3.309-7.762-6.508-1.828-3.116-3.553-6.061-6.977-6.061s-5.147,2.944-6.973,6.059c-1.877,3.2-3.816,6.51-7.763,6.51s-5.886-3.309-7.763-6.51C7.147,69.223,5.422,66.279,2,66.279v-.913c3.945,0,5.885,3.309,7.762,6.51,1.827,3.116,3.553,6.059,6.974,6.059s5.148-2.944,6.974-6.059c1.877-3.2,3.817-6.51,7.762-6.51s5.889,3.31,7.766,6.512c1.826,3.113,3.551,6.057,6.973,6.057Z" transform="translate(-2 -65.366)"/></g><path class="e" d="M202.742,149.09a5.916,5.916,0,0,0-3.174-3.171,5.89,5.89,0,0,0-2.32-.467,5.811,5.811,0,0,0-2.308.467,5.942,5.942,0,0,0-3.159,3.171,5.894,5.894,0,0,0-.468,2.321,5.814,5.814,0,0,0,.468,2.309,5.981,5.981,0,0,0,3.159,3.16,5.789,5.789,0,0,0,2.308.466,5.892,5.892,0,0,0,2.72-.638A5.7,5.7,0,0,0,202,154.981l.017-.025v2.391H203.2v-5.935a5.9,5.9,0,0,0-.463-2.321m-1.1,4.169a4.963,4.963,0,0,1-1.016,1.519,4.748,4.748,0,0,1-3.378,1.4,4.624,4.624,0,0,1-1.848-.377,4.82,4.82,0,0,1-2.545-2.546,4.61,4.61,0,0,1-.377-1.848,4.679,4.679,0,0,1,.377-1.859,4.73,4.73,0,0,1,1.025-1.518,5,5,0,0,1,1.52-1.018,4.64,4.64,0,0,1,1.848-.376,4.733,4.733,0,0,1,1.861.376,4.833,4.833,0,0,1,1.517,1.018,4.781,4.781,0,0,1,1.016,1.518,4.659,4.659,0,0,1,.376,1.859,4.586,4.586,0,0,1-.376,1.848" transform="translate(-142.337 -124.527)"/><path class="e" d="M145.6,145.452v5.927a4.724,4.724,0,0,1-1.4,3.369,4.943,4.943,0,0,1-1.513,1.015,4.566,4.566,0,0,1-1.847.377,4.659,4.659,0,0,1-1.859-.377,4.8,4.8,0,0,1-1.514-1.015,4.751,4.751,0,0,1-1.012-1.514,4.637,4.637,0,0,1-.375-1.855v-5.927H134.89v5.927a5.871,5.871,0,0,0,.465,2.323,5.93,5.93,0,0,0,3.167,3.177,5.953,5.953,0,0,0,4.626,0,6.069,6.069,0,0,0,1.891-1.274,6.008,6.008,0,0,0,1.275-1.9,5.872,5.872,0,0,0,.466-2.323v-5.927Z" transform="translate(-100.511 -124.527)"/><path class="e" d="M89.076,149.151a5.942,5.942,0,0,0-3.167-3.175,5.959,5.959,0,0,0-4.626,0,6.057,6.057,0,0,0-1.891,1.274,5.84,5.84,0,0,0-.557.657v-2.4H77.649v11.881h1.186v-5.915a4.71,4.71,0,0,1,1.4-3.368,4.9,4.9,0,0,1,1.511-1.015,4.571,4.571,0,0,1,1.847-.377,4.668,4.668,0,0,1,1.859.377,4.695,4.695,0,0,1,2.526,2.528,4.637,4.637,0,0,1,.375,1.855v5.915h1.184v-5.915a5.9,5.9,0,0,0-.465-2.323" transform="translate(-58.078 -124.569)"/><g transform="translate(62.225 20.927)"><path class="e" d="M243.218,146.966h-.21v-1.319h-.482v-.184H243.7v.184h-.482Z" transform="translate(-242.526 -145.462)"/><path class="e" d="M248.779,146.618h0l.444-1.156h.327v1.5h-.21v-1.258h0l-.5,1.258h-.133l-.5-1.258h0v1.258H248v-1.5h.326Z" transform="translate(-246.585 -145.462)"/></g></g></g><g transform="translate(-0.399 -1)"><g transform="translate(407.799 -222.285)"><path class="f" d="M-114.565,252.943h-12.348l-3.354-10.658H-133.4v-1h3.867l3.354,10.658h10.838l2.165-8.391.969.25Z"/><path class="f" d="M-123.859,256.336a1.774,1.774,0,0,1-1.772-1.773,1.773,1.773,0,0,1,1.772-1.772,1.773,1.773,0,0,1,1.772,1.772A1.774,1.774,0,0,1-123.859,256.336Zm0-2.545a.773.773,0,0,0-.772.772.773.773,0,0,0,.772.773.773.773,0,0,0,.772-.773A.773.773,0,0,0-123.859,253.791Z"/><path class="f" d="M-117.356,256.336a1.774,1.774,0,0,1-1.772-1.773,1.773,1.773,0,0,1,1.772-1.772,1.773,1.773,0,0,1,1.772,1.772A1.774,1.774,0,0,1-117.356,256.336Zm0-2.545a.773.773,0,0,0-.772.772.773.773,0,0,0,.772.773.773.773,0,0,0,.772-.773A.773.773,0,0,0-117.356,253.791Z"/><circle class="g" cx="4.382" cy="4.382" r="4.382" transform="translate(-124.99 241.84)"/></g><text class="h" transform="translate(285.399 27)"><tspan x="0" y="0">1</tspan></text></g></g></svg>