<svg width="66" height="34" viewBox="0 0 66 34" fill="none" xmlns="http://www.w3.org/2000/svg">
<path d="M58.8213 14.7017C54.6133 14.7017 52.5153 11.1227 50.6653 7.96471C48.9073 4.96471 47.2453 2.13171 44.0863 2.13171C40.9273 2.13171 39.2633 4.96471 37.5043 7.96571C35.6533 11.1227 33.5553 14.7007 29.3463 14.7007C25.1373 14.7007 23.0413 11.1217 21.1903 7.96371C19.4323 4.96371 17.7703 2.13071 14.6113 2.13071V0.303711C18.8183 0.303711 20.9163 3.88271 22.7673 7.03971C24.5253 10.0397 26.1873 12.8727 29.3463 12.8727C32.5053 12.8727 34.1683 10.0397 35.9263 7.04071C37.7773 3.88171 39.8773 0.303711 44.0863 0.303711C48.2953 0.303711 50.3913 3.88271 52.2423 7.03971C54.0003 10.0397 55.6623 12.8727 58.8213 12.8727V14.7017Z" fill="#CAE9DF"/>
<path d="M44.211 13.9918C40.266 13.9918 38.326 10.6828 36.449 7.48376C34.621 4.36776 32.896 1.42277 29.472 1.42277C26.048 1.42277 24.325 4.36677 22.499 7.48177C20.622 10.6818 18.683 13.9918 14.736 13.9918C10.789 13.9918 8.85 10.6828 6.973 7.48177C5.147 4.36677 3.422 1.42277 0 1.42277V0.509766C3.945 0.509766 5.885 3.81877 7.762 7.01977C9.589 10.1358 11.315 13.0788 14.736 13.0788C18.157 13.0788 19.884 10.1348 21.71 7.01977C23.587 3.81977 25.527 0.509766 29.472 0.509766C33.417 0.509766 35.361 3.81977 37.238 7.02177C39.064 10.1348 40.789 13.0788 44.211 13.0788V13.9918Z" fill="#F48574"/>
<path d="M60.4056 24.8666C59.805 23.4338 58.6649 22.2948 57.2316 21.6956C56.4978 21.3846 55.7086 21.2257 54.9116 21.2286C54.1185 21.2251 53.333 21.384 52.6036 21.6956C51.1775 22.3004 50.044 23.4382 49.4446 24.8666C49.1332 25.6006 48.974 26.3902 48.9766 27.1876C48.9734 27.9811 49.1327 28.7669 49.4446 29.4966C50.0498 30.9185 51.1819 32.0509 52.6036 32.6566C53.3329 32.9684 54.1185 33.127 54.9116 33.1226C55.8563 33.131 56.7892 32.9122 57.6316 32.4846C58.436 32.0777 59.1324 31.4858 59.6636 30.7576L59.6806 30.7326V33.1236H60.8636V27.1886C60.8676 26.3916 60.7101 25.602 60.4006 24.8676L60.4056 24.8666ZM59.3006 29.0366C59.0589 29.6014 58.7144 30.1165 58.2846 30.5556C57.842 31.0006 57.3156 31.3535 56.7358 31.5938C56.156 31.8341 55.5342 31.9571 54.9066 31.9556C54.2712 31.9582 53.6422 31.8299 53.0586 31.5786C51.9133 31.0904 51.0013 30.1781 50.5136 29.0326C50.2619 28.4491 50.1336 27.82 50.1366 27.1846C50.134 26.5457 50.2623 25.913 50.5136 25.3256C50.7531 24.7576 51.1013 24.242 51.5386 23.8076C51.9784 23.3777 52.4936 23.0325 53.0586 22.7896C53.6424 22.5391 54.2714 22.4111 54.9066 22.4136C55.546 22.4119 56.179 22.5398 56.7676 22.7896C57.3334 23.0294 57.8483 23.3749 58.2846 23.8076C58.7177 24.2436 59.0626 24.759 59.3006 25.3256C59.5521 25.9129 59.6801 26.5457 59.6766 27.1846C59.6807 27.82 59.5526 28.4493 59.3006 29.0326" fill="#F48574"/>
<path d="M45.089 21.2285V27.1555C45.0906 27.7818 44.9677 28.4022 44.7274 28.9806C44.487 29.559 44.134 30.0838 43.689 30.5245C43.2519 30.9537 42.7389 31.2979 42.176 31.5395C41.5933 31.7923 40.9642 31.9207 40.329 31.9165C39.69 31.9197 39.0573 31.7913 38.47 31.5395C37.9051 31.301 37.3912 30.9564 36.956 30.5245C36.5242 30.0898 36.1806 29.5757 35.944 29.0105C35.6928 28.4245 35.5651 27.7931 35.569 27.1555V21.2285H34.379V27.1555C34.3745 27.9534 34.5328 28.7438 34.844 29.4785C35.4429 30.9114 36.5801 32.0521 38.011 32.6555C38.7431 32.9642 39.5295 33.1232 40.324 33.1232C41.1185 33.1232 41.9049 32.9642 42.637 32.6555C43.3422 32.3541 43.9838 31.9218 44.528 31.3815C45.0708 30.8357 45.5036 30.1907 45.803 29.4815C46.1146 28.7469 46.2731 27.9565 46.269 27.1585V21.2315L45.089 21.2285Z" fill="#F48574"/>
<path d="M30.9973 24.8862C30.3969 23.4548 29.2601 22.3152 27.8303 21.7112C27.0982 21.4028 26.3117 21.244 25.5173 21.244C24.7229 21.244 23.9365 21.4028 23.2043 21.7112C22.499 22.0123 21.8573 22.4446 21.3133 22.9852C21.1117 23.1902 20.9256 23.4098 20.7563 23.6422V21.2422H19.5703V33.1232H20.7563V27.2082C20.754 26.5819 20.8767 25.9615 21.1171 25.3832C21.3574 24.8049 21.7108 24.2803 22.1563 23.8402C22.5922 23.4104 23.1047 23.0662 23.6673 22.8252C24.2501 22.5725 24.8791 22.4442 25.5143 22.4482C26.1533 22.4453 26.786 22.5736 27.3733 22.8252C28.5156 23.3019 29.4235 24.2105 29.8993 25.3532C30.1505 25.9392 30.2782 26.5707 30.2743 27.2082V33.1232H31.4583V27.2082C31.462 26.4104 31.3038 25.6201 30.9933 24.8852" fill="#F48574"/>
<path d="M62.9166 22.7345H62.7066V21.4155H62.2246V21.2314H63.3986V21.4155H62.9166V22.7345Z" fill="#F48574"/>
<path d="M64.4177 22.3865L64.8617 21.2305H65.1887V22.7305H64.9787V21.4725L64.4787 22.7305H64.3457L63.8457 21.4725V22.7305H63.6387V21.2305H63.9647L64.4177 22.3865Z" fill="#F48574"/>
</svg>
