<svg viewBox="0 0 531 595" xmlns="http://www.w3.org/2000/svg"><defs><linearGradient x1="1.799%" y1="107.376%" x2="102.424%" y2="7.581%" id="a"><stop stop-color="#FF4361" stop-opacity="0" offset="0%"/><stop stop-color="#B44DFF" offset="100%"/></linearGradient><linearGradient x1="100%" y1="100%" x2="0%" y2="0%" id="b"><stop stop-color="#FF4361" offset="0%"/><stop stop-color="#B44DFF" offset="100%"/></linearGradient><filter x="-6.2%" y="-5.5%" width="112.5%" height="111%" filterUnits="objectBoundingBox" id="c"><feGaussianBlur stdDeviation="10" in="SourceGraphic"/></filter></defs><g fill="none" fill-rule="evenodd"><path d="M935.266 8.823l189.07 110.304a50 50 0 0 1 24.804 43.188v221.517a50 50 0 0 1-24.804 43.187l-189.07 110.305a50 50 0 0 1-50.392 0l-189.07-110.305A50 50 0 0 1 671 383.832V162.315a50 50 0 0 1 24.804-43.188L884.874 8.823a50 50 0 0 1 50.392 0z" stroke="url(#a)" stroke-width="3" stroke-linecap="square" transform="translate(-638 24)"/><path d="M926.32 6.164l195.218 113.904A45.283 45.283 0 0 1 1144 159.181v228.638a45.283 45.283 0 0 1-22.462 39.113L926.32 540.836a45.283 45.283 0 0 1-45.642 0L685.462 426.932A45.283 45.283 0 0 1 663 387.819V159.181a45.283 45.283 0 0 1 22.462-39.113L880.68 6.164a45.283 45.283 0 0 1 45.642 0z" fill="url(#b)" opacity=".3" style="mix-blend-mode:overlay" filter="url(#c)" transform="translate(-638 24)"/></g></svg>