<svg xmlns="http://www.w3.org/2000/svg" xmlns:xlink="http://www.w3.org/1999/xlink" width="416" height="383" viewBox="0 0 416 383">
  <defs>
    <radialGradient id="radial-gradient" cx="0.353" cy="0.228" r="0.781" gradientTransform="matrix(0.62, 0.732, -0.666, 0.682, 0.286, -0.186)" gradientUnits="objectBoundingBox">
      <stop offset="0" stop-color="#828282"/>
      <stop offset="0.301" stop-color="#838384" stop-opacity="0.98"/>
      <stop offset="0.469" stop-color="#8a8a8a" stop-opacity="0.918"/>
      <stop offset="0.604" stop-color="#959696" stop-opacity="0.812"/>
      <stop offset="0.721" stop-color="#a6a6a7" stop-opacity="0.663"/>
      <stop offset="0.828" stop-color="#bbbbbc" stop-opacity="0.467"/>
      <stop offset="0.924" stop-color="#d4d5d6" stop-opacity="0.231"/>
      <stop offset="1" stop-color="#edeef0" stop-opacity="0"/>
    </radialGradient>
    <radialGradient id="radial-gradient-2" cx="202.59" cy="358.252" r="353.728" gradientTransform="translate(0.017 0.003)" gradientUnits="userSpaceOnUse">
      <stop offset="0" stop-color="#f7f7f8"/>
      <stop offset="0.505" stop-color="#fafafb"/>
      <stop offset="0.715" stop-color="#fff"/>
    </radialGradient>
  </defs>
  <g id="Group_191" data-name="Group 191" transform="translate(-71.001 -2519)">
    <g id="Vector_Smart_Object" data-name="Vector Smart Object" transform="translate(-8.446 2237.65)">
      <path id="Path_133" data-name="Path 133" d="M214.928,557.138l101.7,101.727c4.4.366,4.747.748,9.19.029,74.437-12.06,154.669-72.537,162.757-167.4.215-2.529-.428.747-.548-1.766l-79.481-79.5Z" fill="url(#radial-gradient)"/>
      <path id="Path_134" data-name="Path 134" d="M303.993,281.35a191.493,191.493,0,0,0-123.971,45.564l6.578,7.736a181.331,181.331,0,0,1,117.392-43.143c99.969,0,181.3,81.35,181.3,181.343s-81.331,181.343-181.3,181.343A182.967,182.967,0,0,1,170.251,595.31H89.6V552.6H141.69V416.785H95.73V385.414c24.587-5.1,41.806-11.674,59.949-22.834h41.735V552.6h48.741V542.441H207.567V352.423H152.776l-1.234.772c-18.452,11.537-35.8,18-61.859,23.075l-4.107.8v49.874h45.961v115.5H79.447v63.025h86.447a192.016,192.016,0,0,0,138.1,58.883c105.568,0,191.454-85.907,191.454-191.5S409.56,281.35,303.993,281.35Z" fill="#a8e6ce"/>
      <g id="Group_167" data-name="Group 167">
        <g id="Group_166" data-name="Group 166">
          <g id="Group_164" data-name="Group 164">
            <g id="Group_163" data-name="Group 163">
              <g id="Group_162" data-name="Group 162">
                <path id="Path_135" data-name="Path 135" d="M425.672,472.677A122.291,122.291,0,1,1,303.383,350.356,122.3,122.3,0,0,1,425.672,472.677Z" fill="#fff"/>
              </g>
            </g>
          </g>
          <path id="Path_136" data-name="Path 136" d="M425.672,472.677A122.281,122.281,0,1,0,303.383,595,121.863,121.863,0,0,0,425.672,472.677Z" fill="url(#radial-gradient-2)"/>
          <g id="Group_165" data-name="Group 165">
            <path id="Path_137" data-name="Path 137" d="M413.307,419.03A122.31,122.31,0,0,1,202.756,540.843a122.505,122.505,0,0,0,12.172,16.295A122.32,122.32,0,0,0,413.307,419.03Z" fill="#edeef0"/>
          </g>
        </g>
      </g>
    </g>
    <ellipse id="Ellipse_2" data-name="Ellipse 2" cx="110.42" cy="110.41" rx="110.42" ry="110.41" transform="translate(185.6 2600.81)" fill="#a8e6ce"/>
  </g>
</svg>
