<svg xmlns="http://www.w3.org/2000/svg" xmlns:xlink="http://www.w3.org/1999/xlink" width="409.999" height="375" viewBox="0 0 409.999 375">
  <defs>
    <radialGradient id="radial-gradient" cx="0.353" cy="0.228" r="0.757" gradientTransform="matrix(0.594, 0.759, -0.692, 0.652, 0.301, -0.188)" gradientUnits="objectBoundingBox">
      <stop offset="0" stop-color="#828282"/>
      <stop offset="0.301" stop-color="#838384" stop-opacity="0.98"/>
      <stop offset="0.469" stop-color="#8a8a8a" stop-opacity="0.918"/>
      <stop offset="0.604" stop-color="#959696" stop-opacity="0.812"/>
      <stop offset="0.721" stop-color="#a6a6a7" stop-opacity="0.663"/>
      <stop offset="0.828" stop-color="#bbbbbc" stop-opacity="0.467"/>
      <stop offset="0.924" stop-color="#d4d5d6" stop-opacity="0.231"/>
      <stop offset="1" stop-color="#edeef0" stop-opacity="0"/>
    </radialGradient>
    <radialGradient id="radial-gradient-2" cx="1144.274" cy="350.769" r="345.601" gradientTransform="translate(-0.003 -0.006)" gradientUnits="userSpaceOnUse">
      <stop offset="0" stop-color="#f7f7f8"/>
      <stop offset="0.505" stop-color="#fafafb"/>
      <stop offset="0.715" stop-color="#fff"/>
    </radialGradient>
  </defs>
  <g id="Group_193" data-name="Group 193" transform="translate(-71.001 -2974)">
    <g id="Vector_Smart_Object" data-name="Vector Smart Object" transform="translate(-949.103 2698.527)">
      <path id="Path_123" data-name="Path 123" d="M1156.341,545.5l99.471,99.6c4.3.358,4.641.733,8.987.028,72.8-11.808,151.279-71.022,159.188-163.9.212-2.476-.417.731-.535-1.729l-77.739-77.838Z" fill="url(#radial-gradient)"/>
      <path id="Path_124" data-name="Path 124" d="M1242.848,275.473a185.358,185.358,0,0,0-113.874,38.644l6.045,7.891a175.521,175.521,0,0,1,107.829-36.59c97.776,0,177.323,79.651,177.323,177.555s-79.547,177.555-177.323,177.555c-46.924,0-92.922-20.153-126.317-53.153h-5.451c-33.338,0-60.307-10.054-78.289-29.127l23.671-32.819c15.5,13.018,32.335,20.127,47.874,20.127,24.689,0,39.431-10.271,39.431-27.477,0-23.523-16.149-32.8-59.188-33.444V449.48c23.532-.505,51.695-5.178,51.695-31.928,0-16.986-10.822-26.728-29.689-26.728-15.967,0-27.643,6.348-41.3,17.465l-25.859-31.309c22.726-18.04,45.131-26.475,70.158-26.475,50.842,0,81.2,23.243,81.2,62.171,0,21.04-11.531,36.361-35.249,46.84l-2.961,1.308v8.422l3.514,1.076c27.206,8.322,42.187,26.882,42.187,52.258h9.932c0-27-14.05-47.431-39.823-58.366,21.468-12.051,32.333-29.35,32.333-51.537,0-22.513-8.775-41.085-25.376-53.708-15.838-12.041-38.575-18.408-65.751-18.408-28.5,0-54.782,10.442-80.361,31.921l-3.779,3.174,38.568,46.7,3.835-3.264c13.961-11.882,24.268-18.322,38.74-18.322,8.482,0,19.757,1.74,19.757,16.783,0,10.9-5.552,22.034-46.729,22.034h-4.966v54.956h4.966c54.222,0,54.222,13.051,54.222,23.536,0,15.255-18.481,17.533-29.5,17.533-14.447,0-30.547-7.525-45.33-21.186l-4.115-3.8-34.788,48.23,2.546,2.973c19.875,23.221,50.455,35.495,88.431,35.495h1.162a185.981,185.981,0,0,0,130.606,53.153c103.252,0,187.255-84.113,187.255-187.5S1346.1,275.473,1242.848,275.473Z" fill="#ffd3b5"/>
      <g id="Group_155" data-name="Group 155">
        <g id="Group_153" data-name="Group 153">
          <g id="Group_152" data-name="Group 152">
            <g id="Group_151" data-name="Group 151">
              <path id="Path_125" data-name="Path 125" d="M1362.464,462.8a119.609,119.609,0,1,1-119.606-119.766A119.685,119.685,0,0,1,1362.464,462.8Z" fill="#fff"/>
            </g>
          </g>
        </g>
        <path id="Path_126" data-name="Path 126" d="M1362.464,462.8A119.574,119.574,0,1,0,1242.858,582.57,119.383,119.383,0,0,0,1362.464,462.8Z" fill="url(#radial-gradient-2)"/>
        <g id="Group_154" data-name="Group 154">
          <path id="Path_127" data-name="Path 127" d="M1350.369,410.277a119.648,119.648,0,0,1-205.933,119.269,119.287,119.287,0,0,0,205.933-119.269Z" fill="#edeef0"/>
        </g>
      </g>
    </g>
    <ellipse id="Ellipse_2_copy_3" data-name="Ellipse 2 copy 3" cx="110.42" cy="110.41" rx="110.42" ry="110.41" transform="translate(183.41 3051.12)" fill="#ffd3b5"/>
  </g>
</svg>
