<svg xmlns="http://www.w3.org/2000/svg" xmlns:xlink="http://www.w3.org/1999/xlink" width="412" height="363" viewBox="0 0 412 363">
  <defs>
    <radialGradient id="radial-gradient" cx="0.353" cy="0.228" r="0.792" gradientTransform="matrix(0.625, 0.727, -0.663, 0.687, 0.283, -0.185)" gradientUnits="objectBoundingBox">
      <stop offset="0" stop-color="#828282"/>
      <stop offset="0.301" stop-color="#838384" stop-opacity="0.98"/>
      <stop offset="0.469" stop-color="#8a8a8a" stop-opacity="0.918"/>
      <stop offset="0.604" stop-color="#959696" stop-opacity="0.812"/>
      <stop offset="0.721" stop-color="#a6a6a7" stop-opacity="0.663"/>
      <stop offset="0.828" stop-color="#bbbbbc" stop-opacity="0.467"/>
      <stop offset="0.924" stop-color="#d4d5d6" stop-opacity="0.231"/>
      <stop offset="1" stop-color="#edeef0" stop-opacity="0"/>
    </radialGradient>
    <radialGradient id="radial-gradient-2" cx="1551.913" cy="333.478" r="349.11" gradientTransform="translate(0.028 -0.033) scale(0.99 0.982)" gradientUnits="userSpaceOnUse">
      <stop offset="0" stop-color="#f7f7f8"/>
      <stop offset="0.505" stop-color="#fafafb"/>
      <stop offset="0.715" stop-color="#fff"/>
    </radialGradient>
  </defs>
  <g id="Group_160" data-name="Group 160" transform="translate(-1436.516 -265.91)">
    <path id="Path_128" data-name="Path 128" d="M1516.848,428.889l-24.788,46.2h52.035V444.132c0-11.773.826-27.819,1.557-41.976.226-4.385.441-8.542.614-12.266l.234-5.038h-9.685l-1.239,2.946C1529.812,401.5,1523.223,415.421,1516.848,428.889Zm17.628,15.244V465.46h-26.332l17.235-32.124.109-.215c3.338-7.05,6.733-14.225,10.048-21.441C1534.971,423.116,1534.476,434.86,1534.476,444.132Zm314.04,3.278c0,100.079-81.356,181.5-181.356,181.5A180.217,180.217,0,0,1,1539.774,576.6c-1.38-1.365-3.963-4.476-5.3-5.885V522.288h-97.96V472.608l.649-1.121,79.756-137.467h85.221V465.46h24.669v56.829h-29.479v-9.627h19.86V475.086h-24.669V343.646H1522.46L1446.135,475.2v37.462h97.96v54.6c.808.831,1.611,1.67,2.437,2.485a170.65,170.65,0,0,0,120.628,49.538c94.7,0,171.737-77.1,171.737-171.874s-77.039-171.873-171.737-171.873a170.045,170.045,0,0,0-104.432,35.419l-5.856-7.639A179.585,179.585,0,0,1,1667.16,265.91C1767.159,265.91,1848.516,347.331,1848.516,447.41Z" fill="#ff8c94"/>
    <path id="Path_129" data-name="Path 129" d="M1578.229,528.045l96.338,96.414c4.168.347,4.5.709,8.7.027,70.513-11.43,146.513-68.749,154.174-158.655.2-2.4-.406.708-.519-1.673l-75.29-75.347Z" fill="url(#radial-gradient)"/>
    <g id="Group_158" data-name="Group 158" transform="translate(2.958 -2.8)">
      <g id="Group_157" data-name="Group 157" transform="translate(1546.177 332.06)">
        <g id="Group_156" data-name="Group 156">
          <path id="Path_130" data-name="Path 130" d="M1782.365,452.009c0,66.245-52.867,119.949-118.092,119.949s-118.1-53.7-118.1-119.949,52.874-119.949,118.1-119.949S1782.365,385.763,1782.365,452.009Z" transform="translate(-1546.177 -332.06)" fill="#fff"/>
        </g>
      </g>
    </g>
    <path id="Path_131" data-name="Path 131" d="M1785.322,450.573a117.544,117.544,0,0,0-30.037-78.579,119.763,119.763,0,0,0-86.526-36.705c-66.064,0-119.625,53.092-119.625,118.586a117.542,117.542,0,0,0,30.043,78.58,119.779,119.779,0,0,0,86.526,36.7C1731.772,569.159,1785.322,516.065,1785.322,450.573Z" fill="url(#radial-gradient-2)"/>
    <g id="Group_159" data-name="Group 159">
      <path id="Path_132" data-name="Path 132" d="M1773.2,397.148a118.859,118.859,0,0,1,10.321,48.585c0,66.037-53.695,119.572-119.933,119.572a119.885,119.885,0,0,1-96.883-49.083,111.815,111.815,0,0,0,98.689,52.937c66.241,0,119.933-53.534,119.933-119.57A118.756,118.756,0,0,0,1773.2,397.148Z" transform="translate(0 0)" fill="#edeef0"/>
    </g>
    <ellipse id="Ellipse_2_copy_2" data-name="Ellipse 2 copy 2" cx="110.44" cy="111.39" rx="110.44" ry="111.39" transform="translate(1556.916 338.321)" fill="#ff8c94"/>
  </g>
</svg>
