<svg xmlns="http://www.w3.org/2000/svg" width="705.999" height="849.999" viewBox="0 0 705.999 849.999">
  <g id="Vector_Smart_Object2_copy_2" data-name="Vector Smart Object2 copy 2" transform="translate(-1640.298 -71.518)" opacity="0.6">
    <path id="Path_117" data-name="Path 117" d="M2159.921,921.517H1824.768V800.254a1471.608,1471.608,0,0,0-108.925-158.742C1666.422,578.891,1640.3,503.7,1640.3,424.058c0-194.391,158.361-352.541,353.019-352.541,194.634,0,352.98,158.149,352.98,352.541,0,79.683-26.136,154.9-75.584,217.508-35.223,44.627-76.51,104.914-110.792,161.745ZM1845.88,900.433H2138.81V797.468l1.5-2.506c35.005-58.28,77.557-120.5,113.82-166.45a326.812,326.812,0,0,0,71.051-204.454c0-182.765-148.874-331.457-331.869-331.457-183.016,0-331.908,148.692-331.908,331.457a326.876,326.876,0,0,0,71.015,204.4,1492.26,1492.26,0,0,1,112,163.565l1.46,2.476Z" fill="#00587c"/>
  </g>
</svg>
