<?xml version="1.0" standalone="no"?>
<!DOCTYPE svg PUBLIC "-//W3C//DTD SVG 1.1//EN" "http://www.w3.org/Graphics/SVG/1.1/DTD/svg11.dtd" >
<svg>
<metadata>
Created by FontForge 20090622 at Thu Nov 15 13:15:23 2018
 By deploy user
Copyright (c) 2010 by Rian Hughes / Device. All rights reserved.
</metadata>
<defs>
<font id="Korolev-Bold" horiz-adv-x="554" >
  <font-face 
    font-family="Korolev Bold"
    font-weight="700"
    font-stretch="normal"
    units-per-em="1000"
    panose-1="2 0 0 0 0 0 0 0 0 0"
    ascent="750"
    descent="-250"
    x-height="562"
    cap-height="705"
    bbox="-44 -280 1554 981"
    underline-thickness="50"
    underline-position="-50"
    unicode-range="U+0020-U+FB02"
  />
<missing-glyph horiz-adv-x="496" 
d="M60 0v700h376v-700h-376zM82 680v-658l154 328zM415 22v658l-155 -330zM248 325l-142 -303h284zM106 680l142 -305l142 305h-284z" />
    <glyph glyph-name="fi" unicode="fi" horiz-adv-x="564" 
d="M210 561h98v-115h-98v-446h-131v446h-56v115h56q0 50 8 84t30 63t65.5 43.5t110.5 14.5q68 0 113.5 -14t65.5 -38.5t27 -47t7 -51.5h-131q0 2 -0.5 5t-5 10t-12 13t-24.5 10.5t-40 4.5q-53 0 -68 -20.5t-15 -76.5zM506 561v-561h-131v561h131z" />
    <glyph glyph-name="fl" unicode="fl" horiz-adv-x="564" 
d="M210 561h98v-115h-98v-446h-131v446h-56v115h56q0 54 8 88.5t30 62.5t65.5 41t110.5 13q68 0 113 -17.5t65.5 -50t27.5 -63.5t7 -74v-561h-131v561q0 26 -1.5 38.5t-8.5 29t-25 23t-47 6.5q-58 0 -70.5 -19t-12.5 -78z" />
    <glyph glyph-name=".notdef" horiz-adv-x="496" 
d="M60 0v700h376v-700h-376zM82 680v-658l154 328zM415 22v658l-155 -330zM248 325l-142 -303h284zM106 680l142 -305l142 305h-284z" />
    <glyph glyph-name=".null" horiz-adv-x="0" 
 />
    <glyph glyph-name="nonmarkingreturn" horiz-adv-x="333" 
 />
    <glyph glyph-name="space" unicode=" " horiz-adv-x="220" 
 />
    <glyph glyph-name="exclam" unicode="!" horiz-adv-x="265" 
d="M95 217l-48 315q-13 87 -13 102q0 34 21 56t57 22t57 -22t21 -56q0 -22 -12 -102l-49 -315h-34zM192 71q0 -33 -23.5 -56t-56.5 -23q-32 0 -55.5 23t-23.5 56t23.5 56.5t55.5 23.5q33 0 56.5 -23.5t23.5 -56.5z" />
    <glyph glyph-name="quotedbl" unicode="&#x22;" horiz-adv-x="432" 
d="M268 372l-19 333h140l-21 -333h-100zM63 372l-20 333h140l-20 -333h-100z" />
    <glyph glyph-name="numbersign" unicode="#" horiz-adv-x="702" 
d="M399 759l-64 -241h96l64 241h125l-64 -241h78v-119h-109l-24 -91h133v-119h-164l-62 -240h-125l62 240h-96l-62 -240h-125l62 240h-76v119h107l24 91h-131v119h162l64 241h125zM304 399l-24 -91h96l24 91h-96z" />
    <glyph glyph-name="dollar" unicode="$" horiz-adv-x="534" 
d="M507 199q0 -80 -42.5 -133t-116.5 -71v-76h-51v67q-5 0 -15 -0.5t-15 -0.5t-14.5 0.5t-13.5 0.5v-67h-51v78q-74 21 -116.5 82t-43.5 150h136q0 -112 101 -112q44 0 74 20t30 61q0 28 -18.5 47.5t-47.5 32.5t-64.5 24.5t-71 27.5t-64.5 37.5t-47.5 58.5t-18.5 86
q0 77 40 127t111 68v82h51v-72q4 0 14 0.5t16 0.5q5 0 14.5 -0.5t13.5 -0.5v72h51v-83q69 -22 109 -80.5t41 -144.5h-136q0 106 -93 106q-41 0 -69 -19.5t-28 -57.5q0 -32 25 -54.5t62 -34t80.5 -28.5t80.5 -36.5t62 -60t25 -97.5z" />
    <glyph glyph-name="percent" unicode="%" horiz-adv-x="1144" 
d="M891 -8q-94 0 -146.5 59t-52.5 163v41q0 102 52.5 161t146.5 59q93 0 146.5 -59.5t53.5 -160.5v-41q0 -103 -53.5 -162.5t-146.5 -59.5zM891 358q-76 0 -76 -103v-43q0 -103 76 -103t76 103v43q0 103 -76 103zM728 759l-202 -810h-125l202 810h125zM237 232
q-95 0 -147 59.5t-52 163.5v40q0 102 52.5 161t146.5 59q92 0 145.5 -59.5t53.5 -160.5v-40q0 -104 -53 -163.5t-146 -59.5zM237 598q-76 0 -76 -103v-43q0 -103 76 -103t76 103v43q0 103 -76 103z" />
    <glyph glyph-name="ampersand" unicode="&#x26;" horiz-adv-x="623" 
d="M596 289h-63q0 -303 -253 -303q-119 0 -183 60t-64 163q0 61 31 100.5t75 52.5q-44 18 -69 58.5t-25 97.5q0 86 64.5 143t165.5 57q102 0 166.5 -64.5t64.5 -170.5h-136q0 106 -94 106q-39 0 -67.5 -19.5t-28.5 -61.5t26.5 -67.5t72.5 -25.5h41v-119h-45q-53 0 -79 -22.5
t-26 -61.5q0 -47 32 -70t79 -23t82 29t35 93v174h198v-126z" />
    <glyph glyph-name="quotesingle" unicode="'" horiz-adv-x="226" 
d="M62 372l-19 333h140l-21 -333h-100z" />
    <glyph glyph-name="parenleft" unicode="(" horiz-adv-x="305" 
d="M262 67v-118q-123 0 -171 53.5t-48 176.5v349q0 123 48 176.5t171 53.5v-118q-53 0 -71 -19t-18 -66v-403q0 -48 17 -66.5t72 -18.5z" />
    <glyph glyph-name="parenright" unicode=")" horiz-adv-x="305" 
d="M33 -51v118q55 0 72 18.5t17 66.5v403q0 47 -18 66t-71 19v118q123 0 171 -53.5t48 -176.5v-349q0 -123 -48 -176.5t-171 -53.5z" />
    <glyph glyph-name="asterisk" unicode="*" horiz-adv-x="544" 
d="M469 568l-121 -62l121 -63l-49 -78l-117 69l6 -130h-93l3 130l-117 -69l-47 77l119 64l-119 62l47 79l117 -70l-3 136h93l-6 -135l117 68z" />
    <glyph glyph-name="plus" unicode="+" horiz-adv-x="544" 
d="M470 294h-154v-157h-119v157h-154v119h154v156h119v-156h154v-119z" />
    <glyph glyph-name="comma" unicode="," horiz-adv-x="273" 
d="M93 -129h-100l90 324h141z" />
    <glyph glyph-name="hyphen" unicode="-" horiz-adv-x="333" 
d="M298 233h-265v103h265v-103z" />
    <glyph glyph-name="period" unicode="." horiz-adv-x="234" 
d="M196 71q0 -33 -23 -56t-56 -23t-56 23t-23 56t23 56.5t56 23.5t56 -23.5t23 -56.5z" />
    <glyph glyph-name="slash" unicode="/" horiz-adv-x="387" 
d="M346 759l-211 -810h-132l210 810h133z" />
    <glyph glyph-name="zero" unicode="0" 
d="M277 -10q-103 0 -168.5 68t-65.5 175v240q0 108 65.5 176.5t168.5 68.5q104 0 169.5 -68.5t65.5 -176.5v-240q0 -107 -65.5 -175t-169.5 -68zM277 122q44 0 71 27.5t27 89.5v228q0 118 -98 118q-97 0 -97 -118v-227q0 -118 97 -118z" />
    <glyph glyph-name="one" unicode="1" horiz-adv-x="319" 
d="M33 504v133q55 0 73.5 14t18.5 54h126v-705h-137v514q-29 -10 -81 -10z" />
    <glyph glyph-name="two" unicode="2" horiz-adv-x="536" 
d="M485 132v-132h-452v106q0 70 33.5 120.5t81.5 78.5t96 52.5t81.5 58t33.5 79.5q0 43 -28.5 68t-67.5 25q-41 0 -68.5 -28t-27.5 -77h-134q0 106 64 170.5t165 64.5q103 0 167.5 -61.5t64.5 -160.5q0 -49 -17.5 -89t-46 -66t-62.5 -47.5t-68.5 -39t-63.5 -34.5t-47 -39
t-19 -49h315z" />
    <glyph glyph-name="three" unicode="3" horiz-adv-x="544" 
d="M405 362q44 -13 75.5 -51t31.5 -98q0 -101 -66.5 -162.5t-173.5 -61.5q-106 0 -172.5 66t-66.5 178q23 0 69 -0.5t68 -0.5q0 -58 30 -85t76 -27q44 0 71.5 22.5t27.5 69.5q0 84 -105 84h-80v118q28 0 43 0.5t39.5 2.5t37.5 8t27.5 15t21 25t6.5 37q0 45 -27 67.5
t-70 22.5q-46 0 -70.5 -29t-24.5 -80h-134q0 106 63 170.5t167 64.5q101 0 166 -57t65 -143q0 -57 -25.5 -97.5t-69.5 -58.5z" />
    <glyph glyph-name="four" unicode="4" horiz-adv-x="552" 
d="M450 705v-426h76v-126h-76v-153h-132v153h-295v126l296 426h131zM149 279h169v245z" />
    <glyph glyph-name="five" unicode="5" horiz-adv-x="549" 
d="M174 232q0 -109 101 -109q41 0 68 30.5t27 75.5v29q0 42 -26.5 70t-72.5 28q-59 0 -91 -57l-131 29l67 377h356v-132h-245q-18 -93 -26 -139q11 13 40 25t66 12q92 0 146 -54t54 -159v-31q0 -107 -65 -172.5t-170 -65.5q-103 0 -168.5 68t-65.5 175h136z" />
    <glyph glyph-name="six" unicode="6" horiz-adv-x="534" 
d="M90 475l121 230h147l-117 -215q20 4 46 4q101 0 157.5 -59t56.5 -164v-40q0 -108 -65 -175t-169 -67q-105 0 -169.5 67t-64.5 175v32q0 104 57 212zM267 382q-97 0 -97 -106v-36q0 -67 25 -93t72 -26q45 0 71 26.5t26 92.5v36q0 106 -97 106z" />
    <glyph glyph-name="seven" unicode="7" horiz-adv-x="469" 
d="M235 0h-137l184 572h-249v133h423z" />
    <glyph glyph-name="eight" unicode="8" horiz-adv-x="544" 
d="M272 -12q-107 0 -173 54.5t-66 146.5q0 116 99 157q-87 46 -87 163q0 90 62.5 143t164.5 53t165 -53t63 -144q0 -118 -86 -162q98 -40 98 -157q0 -92 -67 -146.5t-173 -54.5zM286 296h-32q-81 0 -81 -93q0 -90 99 -90q100 0 100 94q0 89 -86 89zM272 580q-94 0 -94 -89
q0 -51 24.5 -70t69.5 -19t70 19t25 68q0 91 -95 91z" />
    <glyph glyph-name="nine" unicode="9" horiz-adv-x="534" 
d="M445 232l-122 -232h-147l116 215q-21 -4 -49 -4q-100 0 -155 59.5t-55 163.5v39q0 109 64.5 176t169.5 67q106 0 170 -67t64 -176v-34q0 -100 -56 -207zM267 324q97 0 97 105v45q0 110 -97 110t-97 -110v-45q0 -105 97 -105z" />
    <glyph glyph-name="colon" unicode=":" horiz-adv-x="241" 
d="M196 487q0 -32 -23 -55.5t-56 -23.5t-56 23.5t-23 55.5q0 33 23 56.5t56 23.5t56 -23.5t23 -56.5zM196 71q0 -33 -23 -56t-56 -23t-56 23t-23 56t23 56.5t56 23.5t56 -23.5t23 -56.5z" />
    <glyph glyph-name="semicolon" unicode=";" horiz-adv-x="269" 
d="M93 -129h-100l90 324h141zM217 487q0 -32 -23.5 -55.5t-56.5 -23.5t-56 23.5t-23 55.5q0 33 23 56.5t56 23.5t56.5 -23.5t23.5 -56.5z" />
    <glyph glyph-name="less" unicode="&#x3c;" horiz-adv-x="441" 
d="M43 349l356 154v-126l-238 -91l238 -90v-125l-356 154v124z" />
    <glyph glyph-name="equal" unicode="=" horiz-adv-x="504" 
d="M435 191h-392v119h392v-119zM435 397h-392v119h392v-119z" />
    <glyph glyph-name="greater" unicode="&#x3e;" horiz-adv-x="441" 
d="M43 503l356 -153v-124l-356 -155v125l235 90l-235 91v126z" />
    <glyph glyph-name="question" unicode="?" horiz-adv-x="496" 
d="M297 71q0 -33 -23 -55.5t-56 -22.5t-56.5 22.5t-23.5 55.5t23.5 56.5t56.5 23.5t56 -23.5t23 -56.5zM243 588q-96 0 -96 -105h-134q0 112 61.5 173.5t168.5 61.5q101 0 165.5 -55.5t64.5 -137.5q0 -61 -24.5 -101.5t-59.5 -60t-70 -36t-59.5 -43t-24.5 -67.5h-37
q-12 38 -12 65q0 38 15.5 65.5t38 44t45 31t38 36t15.5 50.5q0 37 -26.5 58t-68.5 21z" />
    <glyph glyph-name="at" unicode="@" horiz-adv-x="629" 
d="M285 123q-59 0 -87 37t-28 121v150q0 75 30.5 111.5t84.5 36.5q36 0 58 -16t30 -32v43h87v-394q36 0 51.5 15.5t15.5 59.5v190q0 103 -57 162t-153 59t-155 -59t-59 -162v-187q0 -103 63.5 -160t174.5 -57h184v-50h-184q-134 0 -211 70t-77 197v187q0 126 72.5 198.5
t191.5 72.5q118 0 189 -72.5t71 -198.5v-190q0 -42 -11.5 -69t-34.5 -39t-44.5 -15.5t-53.5 -3.5h-60v42q-8 -16 -30.5 -31.5t-57.5 -15.5zM316 204q52 0 52 73v148q0 72 -52 72t-52 -72v-148q0 -73 52 -73z" />
    <glyph glyph-name="A" unicode="A" horiz-adv-x="559" 
d="M283 534l-74 -276h145zM420 0l-37 139h-203l-38 -139h-139l205 705h149l202 -705h-139z" />
    <glyph glyph-name="B" unicode="B" horiz-adv-x="555" 
d="M63 0v705h214q107 0 169.5 -48.5t62.5 -143.5v-10q0 -111 -88 -149q95 -42 95 -152v-9q0 -95 -62.5 -144t-169.5 -49h-221zM200 131h79q47 0 74 17.5t27 64.5v11q0 76 -96 76h-84v-169zM200 407h84q89 0 89 80v11q0 75 -101 75h-72v-166z" />
    <glyph glyph-name="C" unicode="C" horiz-adv-x="544" 
d="M375 451v10q0 125 -98 125q-41 0 -69 -25.5t-28 -81.5v-250q0 -57 28 -82.5t69 -25.5q50 0 74 30t24 104v9h137q0 -275 -235 -275q-104 0 -169 68t-65 176v242q0 107 65.5 175t168.5 68q115 0 175 -71t60 -196h-137z" />
    <glyph glyph-name="D" unicode="D" horiz-adv-x="575" 
d="M293 0h-230v705h230q108 0 171.5 -66t63.5 -192v-186q0 -125 -64 -193t-171 -68zM277 573h-77v-442h77q56 0 85.5 34t29.5 130v137q0 66 -24.5 103.5t-90.5 37.5z" />
    <glyph glyph-name="E" unicode="E" horiz-adv-x="494" 
d="M455 705v-133h-255v-160h189v-120h-189v-160h255v-132h-392v705h392z" />
    <glyph glyph-name="F" unicode="F" horiz-adv-x="469" 
d="M440 705v-133h-240v-160h175v-120h-175v-290h-137v703h377z" />
    <glyph glyph-name="G" unicode="G" horiz-adv-x="553" 
d="M277 361h234v-128q0 -108 -65.5 -175.5t-169.5 -67.5q-103 0 -168 67.5t-65 175.5v241q0 108 65 176t168 68q102 0 167.5 -66.5t67.5 -171.5h-137q0 106 -96 106q-48 0 -73 -29t-25 -97v-232q0 -53 25.5 -79.5t70.5 -26.5q42 0 70 25.5t28 80.5v12h-97v121z" />
    <glyph glyph-name="H" unicode="H" horiz-adv-x="588" 
d="M200 292v-292h-137v705h137v-293h184v293h137v-705h-137v292h-184z" />
    <glyph glyph-name="I" unicode="I" horiz-adv-x="273" 
d="M205 705v-705h-137v705h137z" />
    <glyph glyph-name="J" unicode="J" horiz-adv-x="544" 
d="M345 705h137v-473q0 -109 -63 -176t-167 -67q-103 0 -166 67.5t-63 175.5v31h137v-36q0 -57 27 -81.5t65 -24.5q49 0 71 32.5t22 121.5v430z" />
    <glyph glyph-name="K" unicode="K" horiz-adv-x="569" 
d="M369 355l175 -355h-154l-139 293h-51v-293h-137v705h137v-290h51l139 290h154z" />
    <glyph glyph-name="L" unicode="L" horiz-adv-x="446" 
d="M432 132v-132h-369v705h137v-573h232z" />
    <glyph glyph-name="M" unicode="M" horiz-adv-x="710" 
d="M308 132l-108 263v-395h-137v705h136l156 -391l156 391h136v-705h-137v397l-109 -265h-93z" />
    <glyph glyph-name="N" unicode="N" horiz-adv-x="597" 
d="M535 703v-703h-129l-206 408v-408h-137v705h129l205 -410v408h138z" />
    <glyph glyph-name="O" unicode="O" 
d="M277 -10q-103 0 -168.5 68t-65.5 175v240q0 108 65.5 176.5t168.5 68.5q104 0 169.5 -68.5t65.5 -176.5v-240q0 -107 -65.5 -175t-169.5 -68zM277 122q41 0 69.5 25t28.5 81v250q0 56 -27.5 82t-70.5 26q-41 0 -69 -25.5t-28 -81.5v-250q0 -55 27.5 -81t69.5 -26z" />
    <glyph glyph-name="P" unicode="P" horiz-adv-x="556" 
d="M200 0h-137v705h219q106 0 171.5 -67.5t65.5 -188.5v-28q0 -121 -65 -187t-172 -66h-82v-168zM268 573h-68v-274h68q51 0 83.5 28.5t32.5 94.5v26q0 125 -116 125z" />
    <glyph glyph-name="Q" unicode="Q" 
d="M277 718q104 0 169.5 -68.5t65.5 -176.5v-244q0 -86 -44 -148t-118 -82l82 -135h-142l-73 132q-79 17 -126.5 80t-47.5 153v244q0 108 65.5 176.5t168.5 68.5zM180 479v-231q0 -129 97 -129q98 0 98 128v210q0 129 -98 129q-41 0 -69 -25.5t-28 -81.5z" />
    <glyph glyph-name="R" unicode="R" horiz-adv-x="556" 
d="M200 0h-137v705h222q107 0 170.5 -67t63.5 -188v-20q0 -80 -32 -135t-90 -81l118 -214h-150l-94 182h-71v-182zM268 573h-68v-260h68q115 0 115 119v20q0 121 -115 121z" />
    <glyph glyph-name="S" unicode="S" horiz-adv-x="534" 
d="M366 201q0 31 -24.5 52.5t-61 32t-79 27t-79 36.5t-61 61.5t-24.5 100.5q0 96 62.5 151.5t166.5 55.5q102 0 165 -64t63 -172h-135q0 110 -95 110q-91 0 -91 -81q0 -38 34 -61t82.5 -37t97 -33t82.5 -63.5t34 -114.5q0 -99 -64.5 -156.5t-172.5 -57.5q-107 0 -172.5 66
t-65.5 178h136q0 -59 27.5 -87.5t74.5 -28.5q45 0 72.5 21.5t27.5 63.5z" />
    <glyph glyph-name="T" unicode="T" horiz-adv-x="453" 
d="M446 705v-133h-146v-572h-137v572h-145v133h428z" />
    <glyph glyph-name="U" unicode="U" horiz-adv-x="574" 
d="M385 228v477h137v-472q0 -111 -65 -177t-170 -66t-169.5 65.5t-64.5 177.5v472h137v-477q0 -55 27 -81t70 -26q42 0 70 26t28 81z" />
    <glyph glyph-name="V" unicode="V" horiz-adv-x="515" 
d="M190 0l-187 705h140l119 -488l120 488h140l-188 -705h-144z" />
    <glyph glyph-name="W" unicode="W" horiz-adv-x="802" 
d="M166 0l-163 705h137l102 -460l98 460h122l98 -460l102 460h138l-164 -705h-140l-95 447l-95 -447h-140z" />
    <glyph glyph-name="X" unicode="X" horiz-adv-x="539" 
d="M531 0h-146l-118 235l-118 -235h-146l190 362l-181 343h148l107 -213l107 213h147l-181 -343z" />
    <glyph glyph-name="Y" unicode="Y" horiz-adv-x="535" 
d="M200 0v254l-197 451h143l123 -298l125 298h142l-199 -451v-254h-137z" />
    <glyph glyph-name="Z" unicode="Z" horiz-adv-x="459" 
d="M437 132v-132h-424l239 572h-215v133h404l-240 -573h236z" />
    <glyph glyph-name="bracketleft" unicode="[" horiz-adv-x="345" 
d="M63 758h229v-118h-99v-573h99v-117h-229v808z" />
    <glyph glyph-name="backslash" unicode="\" horiz-adv-x="387" 
d="M213 -51l-210 810h132l211 -810h-133z" />
    <glyph glyph-name="bracketright" unicode="]" horiz-adv-x="345" 
d="M262 758v-808h-229v117h99v573h-99v118h229z" />
    <glyph glyph-name="asciicircum" unicode="^" horiz-adv-x="496" 
d="M310 705l154 -353h-126l-91 237l-90 -237h-124l153 353h124z" />
    <glyph glyph-name="underscore" unicode="_" horiz-adv-x="522" 
d="M489 -168h-456v103h456v-103z" />
    <glyph glyph-name="grave" unicode="`" 
d="M317 581h-101l-103 157h140z" />
    <glyph glyph-name="a" unicode="a" horiz-adv-x="511" 
d="M204 -9q-78 0 -122 51.5t-44 156.5v163q0 105 44.5 156t121.5 51q53 0 88 -24t45 -46v63h122v-562h-122v62q-9 -22 -44 -46.5t-89 -24.5zM249 108q37 0 58.5 25.5t21.5 75.5v145q0 49 -22 73.5t-58 24.5q-37 0 -58.5 -25t-21.5 -75v-143q0 -101 80 -101z" />
    <glyph glyph-name="b" unicode="b" horiz-adv-x="511" 
d="M308 -9q-53 0 -88.5 24t-44.5 46v-61h-122v755h130v-244q4 6 13 15.5t41 25.5t71 16q79 0 123 -51t44 -155v-164q0 -105 -44 -156t-123 -51zM263 107q37 0 59 25.5t22 75.5v143q0 50 -21.5 75t-59.5 25q-36 0 -58 -24.5t-22 -72.5v-146q0 -50 21.5 -75.5t58.5 -25.5z" />
    <glyph glyph-name="c" unicode="c" horiz-adv-x="491" 
d="M329 218h130q0 -108 -54 -168t-156 -60q-100 0 -155.5 59t-55.5 161v136q0 104 55.5 163.5t155.5 59.5q103 0 156.5 -60t53.5 -171h-130q0 112 -80 112q-81 0 -81 -97v-132q0 -113 81 -113q37 0 58.5 27.5t21.5 82.5z" />
    <glyph glyph-name="d" unicode="d" horiz-adv-x="511" 
d="M205 -9q-79 0 -123 51t-44 156v164q0 104 44 155t123 51q39 0 69.5 -14t41.5 -28l12 -15v244h132v-755h-122v61q-9 -22 -44.5 -46t-88.5 -24zM250 107q37 0 58.5 25.5t21.5 75.5v146q0 48 -22 72.5t-58 24.5q-38 0 -59.5 -25t-21.5 -75v-143q0 -50 22 -75.5t59 -25.5z
" />
    <glyph glyph-name="e" unicode="e" horiz-adv-x="491" 
d="M329 180h130v-4q0 -80 -57 -133t-153 -53q-100 0 -155.5 59t-55.5 161v137q0 103 55.5 162.5t155.5 59.5q99 0 154.5 -57t55.5 -160v-110h-291v-61q0 -36 24.5 -60t56.5 -24q34 0 57 19t23 52v12zM168 375v-41h161v27q0 100 -80 100q-37 0 -59 -21.5t-22 -64.5z" />
    <glyph glyph-name="f" unicode="f" horiz-adv-x="337" 
d="M309 755v-113q-56 9 -77.5 -9.5t-21.5 -71.5h98v-115h-98v-446h-131v446h-56v115h56q1 106 41.5 151.5t138.5 45.5q17 0 50 -3z" />
    <glyph glyph-name="g" unicode="g" horiz-adv-x="511" 
d="M169 352v-128q0 -63 19 -90.5t61 -27.5q40 0 60 27.5t20 88.5v123q0 107 -80 107q-37 0 -58.5 -25t-21.5 -75zM329 -36v98q-6 -13 -17.5 -27t-41 -28.5t-66.5 -14.5q-78 0 -122 51t-44 156v163q0 103 43 154.5t119 51.5q54 0 91 -23.5t46 -45.5v63h122v-569
q0 -107 -46 -157.5t-163 -50.5q-205 0 -205 168h126q0 -30 20 -48t59 -18q79 0 79 77z" />
    <glyph glyph-name="h" unicode="h" horiz-adv-x="516" 
d="M183 350v-350h-130v755h130v-247q4 7 13.5 17t42.5 27t73 17q163 0 163 -202v-367h-131v317q0 74 -16.5 104t-64.5 30q-42 0 -61 -23.5t-19 -77.5z" />
    <glyph glyph-name="i" unicode="i" horiz-adv-x="244" 
d="M186 562v-562h-130v562h130zM201 709q0 -33 -23 -56t-56 -23t-56 23t-23 56t23 56.5t56 23.5t56 -23.5t23 -56.5z" />
    <glyph glyph-name="j" unicode="j" horiz-adv-x="247" 
d="M-10 -211v118q36 0 52.5 18.5t16.5 66.5v570h130v-543q0 -118 -47 -174t-152 -56zM204 709q0 -33 -23.5 -56t-56.5 -23t-56 23t-23 56t23 56.5t56 23.5t56.5 -23.5t23.5 -56.5z" />
    <glyph glyph-name="k" unicode="k" horiz-adv-x="513" 
d="M336 282l153 -282h-148l-113 226h-44v-226h-131v755h131v-421h44l112 228h148z" />
    <glyph glyph-name="l" unicode="l" horiz-adv-x="247" 
d="M189 755v-755h-131v755h131z" />
    <glyph glyph-name="m" unicode="m" horiz-adv-x="753" 
d="M183 378v-378h-130v562h122v-58q5 11 16 23.5t38.5 26.5t61.5 14q93 0 132 -77q16 30 51 53.5t87 23.5q149 0 149 -197v-371h-131v376q0 40 -18.5 58.5t-47.5 18.5q-28 0 -47 -19t-19 -56v-378h-131v376q0 77 -67 77q-28 0 -47 -18.5t-19 -56.5z" />
    <glyph glyph-name="n" unicode="n" horiz-adv-x="516" 
d="M183 350v-350h-130v562h122v-64q9 21 44.5 45.5t88.5 24.5q79 0 123 -51t44 -155v-362h-131v352q0 99 -81 99q-41 0 -60.5 -24t-19.5 -77z" />
    <glyph glyph-name="o" unicode="o" horiz-adv-x="495" 
d="M248 -10q-100 0 -155.5 59.5t-55.5 163.5v135q0 101 55.5 160.5t155.5 59.5q98 0 154 -59.5t56 -160.5v-135q0 -104 -56 -163.5t-154 -59.5zM248 450q-37 0 -59 -21.5t-22 -64.5v-170q0 -43 22.5 -65t58.5 -22q35 0 57.5 22t22.5 65v170q0 43 -22.5 64.5t-57.5 21.5z" />
    <glyph glyph-name="p" unicode="p" horiz-adv-x="516" 
d="M308 571q79 0 123 -51t44 -156v-164q0 -104 -44 -155t-123 -51q-39 0 -69.5 14t-42.5 28l-11 15v-244h-132v755h122v-61q9 22 44.5 46t88.5 24zM263 455q-37 0 -58.5 -25.5t-21.5 -75.5v-146q0 -48 22 -72.5t58 -24.5q38 0 59.5 25t21.5 75v143q0 50 -22 75.5t-59 25.5z
" />
    <glyph glyph-name="q" unicode="q" horiz-adv-x="516" 
d="M209 571q53 0 88.5 -24t44.5 -46v61h122v-755h-132v244q-4 -6 -12.5 -15.5t-40 -25.5t-70.5 -16q-79 0 -123 51t-44 155v164q0 105 44 156t123 51zM254 455q-37 0 -59 -25.5t-22 -75.5v-143q0 -50 21.5 -75t59.5 -25q36 0 58 24.5t22 72.5v146q0 50 -21.5 75.5
t-58.5 25.5z" />
    <glyph glyph-name="r" unicode="r" horiz-adv-x="353" 
d="M323 568v-129q-140 11 -140 -130v-309h-130v562h122v-76q12 45 54.5 66.5t93.5 15.5z" />
    <glyph glyph-name="s" unicode="s" horiz-adv-x="486" 
d="M239 572q102 0 156 -48.5t54 -143.5h-127q0 44 -21.5 62t-60.5 18q-34 0 -52.5 -14t-18.5 -40q0 -28 29.5 -46.5t71.5 -31t84 -29t71.5 -52.5t29.5 -90q0 -82 -54 -126t-156 -44q-101 0 -159 53t-58 146h130q0 -44 23.5 -66t63.5 -22q36 0 57.5 17.5t21.5 42.5
q0 26 -29 43.5t-71 30t-83.5 29.5t-70.5 53.5t-29 91.5q0 77 52.5 121.5t145.5 44.5z" />
    <glyph glyph-name="t" unicode="t" horiz-adv-x="347" 
d="M24 446q0 18 -0.5 53t-0.5 53q55 0 76.5 27t21.5 97h87v-115h103v-115h-103v-241q0 -52 14 -73.5t59 -21.5q20 0 32 2v-117q-25 -3 -47 -3q-107 0 -147.5 53t-40.5 163v238h-54z" />
    <glyph glyph-name="u" unicode="u" horiz-adv-x="506" 
d="M334 188v374h131v-355q0 -100 -57 -158.5t-154 -58.5q-99 0 -155 58.5t-56 158.5v355h130v-374q0 -40 24.5 -60.5t56.5 -20.5q29 0 54.5 20.5t25.5 60.5z" />
    <glyph glyph-name="v" unicode="v" horiz-adv-x="481" 
d="M171 0l-168 562h140l98 -371l97 371h140l-168 -562h-139z" />
    <glyph glyph-name="w" unicode="w" horiz-adv-x="716" 
d="M149 0l-146 562h134l82 -353l82 353h114l82 -354l84 354h133l-147 -562h-130l-79 340l-79 -340h-130z" />
    <glyph glyph-name="x" unicode="x" horiz-adv-x="517" 
d="M490 562l-164 -273l174 -289h-146l-101 181l-100 -181h-145l174 289l-164 273h147l89 -163l88 163h148z" />
    <glyph glyph-name="y" unicode="y" horiz-adv-x="480" 
d="M115 -192l60 193l-172 561h140l99 -364l99 364h139l-232 -754h-133z" />
    <glyph glyph-name="z" unicode="z" horiz-adv-x="421" 
d="M397 117v-117h-384l207 444h-187v118h371l-207 -445h200z" />
    <glyph glyph-name="braceleft" unicode="{" horiz-adv-x="347" 
d="M212 539q0 -164 -68 -188q33 -14 50.5 -56t17.5 -97q0 -33 2.5 -53.5t10.5 -40.5t25.5 -29.5t45.5 -9.5v-117q-116 0 -165 53.5t-49 175.5v63q0 32 -12 44.5t-47 12.5v110q35 0 47 13t12 45v63q0 122 49 176t165 54v-118q-50 0 -67 -23.5t-17 -77.5z" />
    <glyph glyph-name="bar" unicode="|" horiz-adv-x="247" 
d="M189 759v-810h-131v810h131z" />
    <glyph glyph-name="braceright" unicode="}" horiz-adv-x="347" 
d="M117 507q0 32 -2.5 52t-10 40.5t-25.5 30.5t-46 10v118q116 0 165 -54t49 -176v-63q0 -33 11.5 -45.5t47.5 -12.5v-110q-34 0 -46.5 -13.5t-12.5 -43.5v-63q0 -122 -49 -175.5t-165 -53.5v117q41 0 59.5 13.5t22.5 44.5l3 79q4 123 67 149q-32 12 -50 55.5t-18 100.5z
" />
    <glyph glyph-name="nbspace" unicode="&#xa0;" horiz-adv-x="500" 
 />
    <glyph glyph-name="exclamdown" unicode="&#xa1;" horiz-adv-x="234" 
d="M196 633q0 -33 -23 -56.5t-56 -23.5t-56 23.5t-23 56.5q0 32 23 55.5t56 23.5t56 -23.5t23 -55.5zM51 172l48 315h34l49 -315q12 -80 12 -103q0 -33 -21 -55t-57 -22q-35 0 -56.5 22t-21.5 55q0 16 13 103z" />
    <glyph glyph-name="cent" unicode="&#xa2;" horiz-adv-x="491" 
d="M459 337h-130q0 112 -80 112q-81 0 -81 -97v-132q0 -113 81 -113q37 0 58.5 27.5t21.5 82.5h130q0 -175 -131 -216v-82h-51v73q-18 -2 -28 -2q-12 0 -30 2v-73h-51v83q-63 21 -96.5 75t-33.5 133v136q0 80 33.5 134.5t96.5 74.5v84h51v-72q18 2 30 2q10 0 28 -2v72h51
v-83q131 -42 131 -219z" />
    <glyph glyph-name="sterling" unicode="&#xa3;" horiz-adv-x="535" 
d="M491 132v-132h-448v132h169q-3 51 -42 115h-127v51h102q-24 38 -35 58h-67v51h47q-18 50 -18 97q0 98 60.5 156t158.5 58q96 0 156 -64.5t60 -170.5h-132q0 105 -84 105q-38 0 -61 -21t-23 -65q0 -45 24 -95h161v-51h-138q3 -6 14 -26t17 -32h107v-51h-89q33 -63 35 -115
h153z" />
    <glyph glyph-name="yen" unicode="&#xa5;" horiz-adv-x="535" 
d="M121 254h79l-197 451h143l123 -299l125 299h142l-199 -451h79v-50h-79v-59h78v-50h-78v-95h-137v95h-79v50h79v59h-79v50z" />
    <glyph glyph-name="brokenbar" unicode="&#xa6;" horiz-adv-x="247" 
d="M58 302h131v-353h-131v353zM58 410v349h131v-349h-131z" />
    <glyph glyph-name="dieresis" unicode="&#xa8;" 
d="M409 638q0 -26 -17.5 -43.5t-43.5 -17.5q-25 0 -42.5 18t-17.5 43t17.5 43t42.5 18t43 -18t18 -43zM227 638q0 -26 -17.5 -43.5t-43.5 -17.5q-25 0 -42.5 18t-17.5 43t17.5 43t42.5 18t43 -18t18 -43z" />
    <glyph glyph-name="copyright" unicode="&#xa9;" horiz-adv-x="629" 
d="M317 -9q-119 0 -191.5 71t-72.5 196v187q0 126 72.5 198.5t191.5 72.5q118 0 189 -72.5t71 -198.5v-187q0 -126 -70.5 -196.5t-189.5 -70.5zM317 41q96 0 153 57t57 160v187q0 103 -57 162t-153 59t-155 -59t-59 -162v-187q0 -102 58.5 -159.5t155.5 -57.5zM372 306h96
v-46q0 -73 -39 -113t-112 -40q-72 0 -111.5 41.5t-39.5 114.5v175q0 75 39.5 117.5t111.5 42.5q73 0 112 -41t39 -115v-42h-96v51q0 32 -16 46t-39 14q-55 0 -55 -66v-193q0 -28 15.5 -42.5t39.5 -14.5q55 0 55 56v55z" />
    <glyph glyph-name="ordfeminine" unicode="&#xaa;" horiz-adv-x="516" 
d="M207 234q-78 0 -121 51.5t-43 156.5v64q0 103 42 154.5t117 51.5q54 0 90.5 -23.5t44.5 -45.5v63h122v-463h-122v62q-10 -23 -43.5 -47t-86.5 -24zM252 351q36 0 56.5 22.5t20.5 68.5v66q0 44 -21 66t-56 22q-78 0 -78 -90v-64q0 -91 78 -91zM332 71q0 -33 -23.5 -56
t-56.5 -23t-56 23t-23 56t23 56.5t56 23.5t56.5 -23.5t23.5 -56.5z" />
    <glyph glyph-name="guillemotleft" unicode="&#xab;" horiz-adv-x="517" 
d="M384 489h100l-91 -203l91 -203h-100l-131 203zM163 489h100l-90 -203l90 -203h-100l-130 203z" />
    <glyph glyph-name="registered" unicode="&#xae;" horiz-adv-x="629" 
d="M317 -9q-119 0 -191.5 71t-72.5 196v187q0 126 72.5 198.5t191.5 72.5q118 0 189 -72.5t71 -198.5v-187q0 -126 -70.5 -196.5t-189.5 -70.5zM317 41q96 0 153 57t57 160v187q0 103 -57 162t-153 59t-155 -59t-59 -162v-187q0 -102 58.5 -159.5t155.5 -57.5zM268 131h-92
v444h130q77 0 118 -43.5t41 -126.5v-6q0 -109 -84 -142l29.5 -44.5l34 -51.5t17.5 -30h-103l-62 105h-29v-105zM299 487h-31v-164h31q37 0 55.5 17t18.5 61v5q0 45 -18.5 63t-55.5 18z" />
    <glyph glyph-name="macron" unicode="&#xaf;" 
d="M417 584h-283v93h283v-93z" />
    <glyph glyph-name="degree" unicode="&#xb0;" horiz-adv-x="390" 
d="M196 388q-73 0 -113 43t-40 119v5q0 74 40 117t113 43q72 0 112.5 -43t40.5 -117v-5q0 -76 -40.5 -119t-112.5 -43zM196 629q-26 0 -42 -15.5t-16 -46.5v-31q0 -31 16 -46.5t42 -15.5q25 0 41.5 15.5t16.5 46.5v31q0 31 -16 46.5t-42 15.5z" />
    <glyph glyph-name="acute" unicode="&#xb4;" 
d="M306 581h-100l63 157h141z" />
    <glyph glyph-name="paragraph" unicode="&#xb6;" horiz-adv-x="377" 
d="M319 705v-755h-123v430h-48q-46 0 -73 29t-27 86v99q0 38 9 61.5t28.5 33.5t37.5 13t49 3h147z" />
    <glyph glyph-name="periodcentered" unicode="&#xb7;" horiz-adv-x="234" 
d="M196 285q0 -32 -23 -55.5t-56 -23.5t-56 23.5t-23 55.5q0 33 23 56.5t56 23.5t56 -23.5t23 -56.5z" />
    <glyph glyph-name="cedilla" unicode="&#xb8;" 
d="M240 25h78l-44 -196h-140z" />
    <glyph glyph-name="ordmasculine" unicode="&#xba;" horiz-adv-x="496" 
d="M246 232q-100 0 -154 59t-54 164v40q0 102 54.5 161t153.5 59q98 0 153 -59t55 -161v-40q0 -104 -55 -163.5t-153 -59.5zM246 598q-36 0 -57 -21.5t-21 -64.5v-76q0 -43 21.5 -65t56.5 -22t56.5 22t21.5 65v76q0 43 -21.5 64.5t-56.5 21.5zM326 71q0 -33 -23.5 -56
t-56.5 -23t-56 23t-23 56t23 56.5t56 23.5t56.5 -23.5t23.5 -56.5z" />
    <glyph glyph-name="guillemotright" unicode="&#xbb;" horiz-adv-x="517" 
d="M253 489h100l131 -203l-131 -203h-100l90 203zM33 489h100l131 -203l-131 -203h-100l90 203z" />
    <glyph glyph-name="questiondown" unicode="&#xbf;" horiz-adv-x="496" 
d="M199 638q0 33 23 56t56 23q32 0 55.5 -23t23.5 -56t-23.5 -56.5t-55.5 -23.5q-33 0 -56 23.5t-23 56.5zM252 121q43 0 69.5 26t26.5 78h135q0 -111 -62 -172.5t-169 -61.5q-101 0 -165 55.5t-64 137.5q0 61 24.5 101.5t59.5 60t69.5 35.5t59 43t24.5 68h37q11 -36 11 -68
q0 -37 -15.5 -64t-37.5 -43l-44.5 -31t-38 -36.5t-15.5 -49.5q0 -37 26.5 -58t68.5 -21z" />
    <glyph glyph-name="Agrave" unicode="&#xc0;" horiz-adv-x="559" 
d="M283 534l-74 -276h145zM420 0l-37 139h-203l-38 -139h-139l205 705h149l202 -705h-139zM333 781h-101l-103 157h140z" />
    <glyph glyph-name="Aacute" unicode="&#xc1;" horiz-adv-x="559" 
d="M283 534l-74 -276h145zM420 0l-37 139h-203l-38 -139h-139l205 705h149l202 -705h-139zM324 781h-100l63 157h141z" />
    <glyph glyph-name="Acircumflex" unicode="&#xc2;" horiz-adv-x="559" 
d="M283 534l-74 -276h145zM420 0l-37 139h-203l-38 -139h-139l205 705h149l202 -705h-139zM216 762h-101l102 155h127l102 -155h-102l-64 75z" />
    <glyph glyph-name="Atilde" unicode="&#xc3;" horiz-adv-x="559" 
d="M283 534l-74 -276h145zM420 0l-37 139h-203l-38 -139h-139l205 705h149l202 -705h-139zM447 911v-104q-44 -31 -89 -31q-27 0 -75 16.5t-76 16.5q-46 0 -93 -31v105q46 27 90 27q27 0 75 -14t74 -14q49 0 94 29z" />
    <glyph glyph-name="Adieresis" unicode="&#xc4;" horiz-adv-x="559" 
d="M283 534l-74 -276h145zM420 0l-37 139h-203l-38 -139h-139l205 705h149l202 -705h-139zM435 838q0 -26 -17.5 -43.5t-43.5 -17.5q-25 0 -42.5 18t-17.5 43t17.5 43t42.5 18t43 -18t18 -43zM253 838q0 -26 -17.5 -43.5t-43.5 -17.5q-25 0 -42.5 18t-17.5 43t17.5 43
t42.5 18t43 -18t18 -43z" />
    <glyph glyph-name="Aring" unicode="&#xc5;" horiz-adv-x="559" 
d="M283 534l-74 -276h145zM420 0l-37 139h-203l-38 -139h-139l205 705h149l202 -705h-139zM374 868q0 -38 -26.5 -64.5t-63.5 -26.5t-63.5 26.5t-26.5 64.5t26 64t64 26t64 -26t26 -64zM312 869q0 12 -8 20t-19 8q-12 0 -20.5 -8t-8.5 -20t8.5 -20.5t20.5 -8.5q11 0 19 8.5
t8 20.5z" />
    <glyph glyph-name="AE" unicode="&#xc6;" horiz-adv-x="858" 
d="M819 705v-133h-255v-160h189v-120h-189v-160h255v-132h-392v139h-197l-74 -139h-153l385 705h431zM286 258h140v263z" />
    <glyph glyph-name="Ccedilla" unicode="&#xc7;" horiz-adv-x="544" 
d="M375 451v10q0 125 -98 125q-41 0 -69 -25.5t-28 -81.5v-250q0 -57 28 -82.5t69 -25.5q50 0 74 30t24 104v9h137q0 -248 -192 -272l-35 -162h-141l87 163q-85 14 -136.5 79t-51.5 161v242q0 107 65.5 175t168.5 68q115 0 175 -71t60 -196h-137z" />
    <glyph glyph-name="Egrave" unicode="&#xc8;" horiz-adv-x="494" 
d="M455 705v-133h-255v-160h189v-120h-189v-160h255v-132h-392v705h392zM318 781h-101l-103 157h140z" />
    <glyph glyph-name="Eacute" unicode="&#xc9;" horiz-adv-x="494" 
d="M455 705v-133h-255v-160h189v-120h-189v-160h255v-132h-392v705h392zM282 781h-100l63 157h141z" />
    <glyph glyph-name="Ecircumflex" unicode="&#xca;" horiz-adv-x="494" 
d="M455 705v-133h-255v-160h189v-120h-189v-160h255v-132h-392v705h392zM193 782h-101l102 155h127l102 -155h-102l-64 75z" />
    <glyph glyph-name="Edieresis" unicode="&#xcb;" horiz-adv-x="494" 
d="M455 705v-133h-255v-160h189v-120h-189v-160h255v-132h-392v705h392zM407 838q0 -26 -17.5 -43.5t-43.5 -17.5q-25 0 -42.5 18t-17.5 43t17.5 43t42.5 18t43 -18t18 -43zM225 838q0 -26 -17.5 -43.5t-43.5 -17.5q-25 0 -42.5 18t-17.5 43t17.5 43t42.5 18t43 -18t18 -43z
" />
    <glyph glyph-name="Igrave" unicode="&#xcc;" horiz-adv-x="265" 
d="M205 705v-705h-137v705h137zM194 781h-101l-103 157h140z" />
    <glyph glyph-name="Iacute" unicode="&#xcd;" horiz-adv-x="274" 
d="M205 705v-705h-137v705h137zM166 781h-100l63 157h141z" />
    <glyph glyph-name="Icircumflex" unicode="&#xce;" horiz-adv-x="266" 
d="M205 705v-705h-137v705h137zM86 782h-101l102 155h127l102 -155h-102l-64 75z" />
    <glyph glyph-name="Idieresis" unicode="&#xcf;" horiz-adv-x="262" 
d="M205 705v-705h-137v705h137zM290 838q0 -26 -18 -43.5t-43 -17.5t-42.5 18t-17.5 43t17.5 43t42.5 18t43 -18t18 -43zM108 838q0 -26 -18 -43.5t-43 -17.5t-42.5 18t-17.5 43t17.5 43t42.5 18t43 -18t18 -43z" />
    <glyph glyph-name="Eth" unicode="&#xd0;" horiz-adv-x="572" 
d="M290 0h-230v330h-60v49h60v326h230q108 0 171.5 -66t63.5 -192v-186q0 -125 -64 -193t-171 -68zM274 573h-77v-194h77v-49h-77v-199h77q56 0 85.5 34t29.5 130v137q0 66 -24.5 103.5t-90.5 37.5z" />
    <glyph glyph-name="Ntilde" unicode="&#xd1;" horiz-adv-x="598" 
d="M535 703v-703h-129l-206 408v-408h-137v705h129l205 -410v408h138zM466 911v-104q-44 -31 -89 -31q-27 0 -75 16.5t-76 16.5q-46 0 -93 -31v105q46 27 90 27q27 0 75 -14t74 -14q49 0 94 29z" />
    <glyph glyph-name="Ograve" unicode="&#xd2;" 
d="M277 -10q-103 0 -168.5 68t-65.5 175v240q0 108 65.5 176.5t168.5 68.5q104 0 169.5 -68.5t65.5 -176.5v-240q0 -107 -65.5 -175t-169.5 -68zM277 122q41 0 69.5 25t28.5 81v250q0 56 -27.5 82t-70.5 26q-41 0 -69 -25.5t-28 -81.5v-250q0 -55 27.5 -81t69.5 -26z
M327 781h-101l-103 157h140z" />
    <glyph glyph-name="Oacute" unicode="&#xd3;" horiz-adv-x="548" 
d="M277 -10q-103 0 -168.5 68t-65.5 175v240q0 108 65.5 176.5t168.5 68.5q104 0 169.5 -68.5t65.5 -176.5v-240q0 -107 -65.5 -175t-169.5 -68zM277 122q41 0 69.5 25t28.5 81v250q0 56 -27.5 82t-70.5 26q-41 0 -69 -25.5t-28 -81.5v-250q0 -55 27.5 -81t69.5 -26z
M315 781h-100l63 157h141z" />
    <glyph glyph-name="Ocircumflex" unicode="&#xd4;" 
d="M277 -10q-103 0 -168.5 68t-65.5 175v240q0 108 65.5 176.5t168.5 68.5q104 0 169.5 -68.5t65.5 -176.5v-240q0 -107 -65.5 -175t-169.5 -68zM277 122q41 0 69.5 25t28.5 81v250q0 56 -27.5 82t-70.5 26q-41 0 -69 -25.5t-28 -81.5v-250q0 -55 27.5 -81t69.5 -26z
M213 782h-101l102 155h127l102 -155h-102l-64 75z" />
    <glyph glyph-name="Otilde" unicode="&#xd5;" 
d="M277 -10q-103 0 -168.5 68t-65.5 175v240q0 108 65.5 176.5t168.5 68.5q104 0 169.5 -68.5t65.5 -176.5v-240q0 -107 -65.5 -175t-169.5 -68zM277 122q41 0 69.5 25t28.5 81v250q0 56 -27.5 82t-70.5 26q-41 0 -69 -25.5t-28 -81.5v-250q0 -55 27.5 -81t69.5 -26z
M445 911v-104q-44 -31 -89 -31q-27 0 -75 16.5t-76 16.5q-46 0 -93 -31v105q46 27 90 27q27 0 75 -14t74 -14q49 0 94 29z" />
    <glyph glyph-name="Odieresis" unicode="&#xd6;" 
d="M277 -10q-103 0 -168.5 68t-65.5 175v240q0 108 65.5 176.5t168.5 68.5q104 0 169.5 -68.5t65.5 -176.5v-240q0 -107 -65.5 -175t-169.5 -68zM277 122q41 0 69.5 25t28.5 81v250q0 56 -27.5 82t-70.5 26q-41 0 -69 -25.5t-28 -81.5v-250q0 -55 27.5 -81t69.5 -26z
M428 838q0 -26 -18 -43.5t-43 -17.5t-42.5 18t-17.5 43t17.5 43t42.5 18t43 -18t18 -43zM246 838q0 -26 -18 -43.5t-43 -17.5t-42.5 18t-17.5 43t17.5 43t42.5 18t43 -18t18 -43z" />
    <glyph glyph-name="multiply" unicode="&#xd7;" horiz-adv-x="518" 
d="M360 154l-117 116l-116 -116l-84 85l116 116l-116 116l84 85l116 -117l116 117l85 -85l-117 -116l117 -116z" />
    <glyph glyph-name="Oslash" unicode="&#xd8;" 
d="M450 789l-37 -112q99 -67 99 -204v-240q0 -107 -65.5 -175t-169.5 -68q-45 0 -85 14l-27 -82h-52l34 104q-49 31 -76.5 85t-27.5 122v240q0 108 65.5 176.5t168.5 68.5q52 0 94 -18l29 89h50zM180 229q0 -38 14 -63l135 407q-23 13 -52 13q-41 0 -69 -25.5t-28 -81.5
v-250zM277 122q41 0 69.5 25t28.5 81v250q0 29 -10 54l-132 -402q19 -8 44 -8z" />
    <glyph glyph-name="Ugrave" unicode="&#xd9;" horiz-adv-x="574" 
d="M385 228v477h137v-472q0 -111 -65 -177t-170 -66t-169.5 65.5t-64.5 177.5v472h137v-477q0 -55 27 -81t70 -26q42 0 70 26t28 81zM348 781h-101l-103 157h140z" />
    <glyph glyph-name="Uacute" unicode="&#xda;" horiz-adv-x="574" 
d="M385 228v477h137v-472q0 -111 -65 -177t-170 -66t-169.5 65.5t-64.5 177.5v472h137v-477q0 -55 27 -81t70 -26q42 0 70 26t28 81zM340 781h-100l63 157h141z" />
    <glyph glyph-name="Ucircumflex" unicode="&#xdb;" horiz-adv-x="574" 
d="M385 228v477h137v-472q0 -111 -65 -177t-170 -66t-169.5 65.5t-64.5 177.5v472h137v-477q0 -55 27 -81t70 -26q42 0 70 26t28 81zM223 782h-101l102 155h127l102 -155h-102l-64 75z" />
    <glyph glyph-name="Udieresis" unicode="&#xdc;" horiz-adv-x="574" 
d="M385 228v477h137v-472q0 -111 -65 -177t-170 -66t-169.5 65.5t-64.5 177.5v472h137v-477q0 -55 27 -81t70 -26q42 0 70 26t28 81zM440 838q0 -26 -18 -43.5t-43 -17.5t-42.5 18t-17.5 43t17.5 43t42.5 18t43 -18t18 -43zM258 838q0 -26 -18 -43.5t-43 -17.5t-42.5 18
t-17.5 43t17.5 43t42.5 18t43 -18t18 -43z" />
    <glyph glyph-name="Yacute" unicode="&#xdd;" horiz-adv-x="536" 
d="M200 0v254l-197 451h143l123 -298l125 298h142l-199 -451v-254h-137zM320 781h-100l63 157h141z" />
    <glyph glyph-name="Thorn" unicode="&#xde;" horiz-adv-x="556" 
d="M200 705v-79h86q105 0 169 -67.5t64 -188.5v-28q0 -121 -63.5 -187t-169.5 -66h-86v-89h-137v705h137zM246 494h-46v-274h68q51 0 83.5 28.5t32.5 94.5v26q0 75 -36.5 100t-101.5 25z" />
    <glyph glyph-name="germandbls" unicode="&#xdf;" horiz-adv-x="555" 
d="M386 506q132 -22 132 -190v-99q0 -31 -2.5 -56.5t-9.5 -52t-18.5 -45t-29.5 -36t-43 -25t-59 -11.5t-78 5v114q66 -6 87.5 25t21.5 101v42q0 38 -1 58.5t-7 45t-17.5 36.5t-32 20t-51.5 8v115q39 0 52.5 10t13.5 28v7q0 39 -65 39h-16q-36 0 -48 -21t-12 -63v-561h-131
v446h-52v115h52q0 107 40 152t155 45h12q197 0 197 -134v-10q0 -50 -21.5 -75.5t-68.5 -32.5z" />
    <glyph glyph-name="agrave" unicode="&#xe0;" horiz-adv-x="511" 
d="M204 -9q-78 0 -122 51.5t-44 156.5v163q0 105 44.5 156t121.5 51q53 0 88 -24t45 -46v63h122v-562h-122v62q-9 -22 -44 -46.5t-89 -24.5zM249 108q37 0 58.5 25.5t21.5 75.5v145q0 49 -22 73.5t-58 24.5q-37 0 -58.5 -25t-21.5 -75v-143q0 -101 80 -101zM308 631h-101
l-103 157h140z" />
    <glyph glyph-name="aacute" unicode="&#xe1;" horiz-adv-x="511" 
d="M204 -9q-78 0 -122 51.5t-44 156.5v163q0 105 44.5 156t121.5 51q53 0 88 -24t45 -46v63h122v-562h-122v62q-9 -22 -44 -46.5t-89 -24.5zM249 108q37 0 58.5 25.5t21.5 75.5v145q0 49 -22 73.5t-58 24.5q-37 0 -58.5 -25t-21.5 -75v-143q0 -101 80 -101zM279 632h-100
l63 157h141z" />
    <glyph glyph-name="acircumflex" unicode="&#xe2;" horiz-adv-x="511" 
d="M204 -9q-78 0 -122 51.5t-44 156.5v163q0 105 44.5 156t121.5 51q53 0 88 -24t45 -46v63h122v-562h-122v62q-9 -22 -44 -46.5t-89 -24.5zM249 108q37 0 58.5 25.5t21.5 75.5v145q0 49 -22 73.5t-58 24.5q-37 0 -58.5 -25t-21.5 -75v-143q0 -101 80 -101zM192 632h-101
l102 155h127l102 -155h-102l-64 75z" />
    <glyph glyph-name="atilde" unicode="&#xe3;" horiz-adv-x="511" 
d="M204 -9q-78 0 -122 51.5t-44 156.5v163q0 105 44.5 156t121.5 51q53 0 88 -24t45 -46v63h122v-562h-122v62q-9 -22 -44 -46.5t-89 -24.5zM249 108q37 0 58.5 25.5t21.5 75.5v145q0 49 -22 73.5t-58 24.5q-37 0 -58.5 -25t-21.5 -75v-143q0 -101 80 -101zM424 758v-104
q-44 -31 -89 -31q-27 0 -75 16.5t-76 16.5q-46 0 -93 -31v105q46 27 90 27q27 0 75 -14t74 -14q49 0 94 29z" />
    <glyph glyph-name="adieresis" unicode="&#xe4;" horiz-adv-x="511" 
d="M204 -9q-78 0 -122 51.5t-44 156.5v163q0 105 44.5 156t121.5 51q53 0 88 -24t45 -46v63h122v-562h-122v62q-9 -22 -44 -46.5t-89 -24.5zM249 108q37 0 58.5 25.5t21.5 75.5v145q0 49 -22 73.5t-58 24.5q-37 0 -58.5 -25t-21.5 -75v-143q0 -101 80 -101zM412 688
q0 -26 -18 -43.5t-43 -17.5t-42.5 18t-17.5 43t17.5 43t42.5 18t43 -18t18 -43zM230 688q0 -26 -18 -43.5t-43 -17.5t-42.5 18t-17.5 43t17.5 43t42.5 18t43 -18t18 -43z" />
    <glyph glyph-name="aring" unicode="&#xe5;" horiz-adv-x="511" 
d="M204 -9q-78 0 -122 51.5t-44 156.5v163q0 105 44.5 156t121.5 51q53 0 88 -24t45 -46v63h122v-562h-122v62q-9 -22 -44 -46.5t-89 -24.5zM249 108q37 0 58.5 25.5t21.5 75.5v145q0 49 -22 73.5t-58 24.5q-37 0 -58.5 -25t-21.5 -75v-143q0 -101 80 -101zM356 718
q0 -38 -26.5 -64.5t-63.5 -26.5t-63.5 26.5t-26.5 64.5t26 64t64 26t64 -26t26 -64zM294 719q0 12 -8 20t-19 8q-12 0 -20.5 -8t-8.5 -20t8.5 -20.5t20.5 -8.5q11 0 19 8.5t8 20.5z" />
    <glyph glyph-name="ae" unicode="&#xe6;" horiz-adv-x="783" 
d="M751 180v-4q0 -91 -41.5 -136.5t-117.5 -45.5q-54 0 -89 24.5t-44 46.5v-62v-3h-122v62q-9 -22 -44 -46.5t-89 -24.5q-78 0 -122 51.5t-44 156.5v163q0 105 44.5 156t121.5 51q53 0 88 -24t45 -46v63h122v-63q10 22 44 46t86 24q75 0 118.5 -51t43.5 -156v-120h-291v-61
q0 -36 24.5 -60t56.5 -24q34 0 57 19t23 52v12h130zM249 108q37 0 58.5 25.5t21.5 75.5v145q0 49 -22 73.5t-58 24.5q-37 0 -58.5 -25t-21.5 -75v-143q0 -101 80 -101zM460 375v-41h161v27q0 100 -80 100q-37 0 -59 -21.5t-22 -64.5z" />
    <glyph glyph-name="ccedilla" unicode="&#xe7;" horiz-adv-x="491" 
d="M329 218h130q0 -95 -42.5 -153.5t-123.5 -71.5l-37 -164h-140l89 165q-80 12 -123.5 69t-43.5 147v136q0 104 55.5 163.5t155.5 59.5q103 0 156.5 -60t53.5 -171h-130q0 112 -80 112q-81 0 -81 -97v-132q0 -113 81 -113q37 0 58.5 27.5t21.5 82.5z" />
    <glyph glyph-name="egrave" unicode="&#xe8;" horiz-adv-x="491" 
d="M329 180h130v-4q0 -80 -57 -133t-153 -53q-100 0 -155.5 59t-55.5 161v137q0 103 55.5 162.5t155.5 59.5q99 0 154.5 -57t55.5 -160v-110h-291v-61q0 -36 24.5 -60t56.5 -24q34 0 57 19t23 52v12zM168 375v-41h161v27q0 100 -80 100q-37 0 -59 -21.5t-22 -64.5zM295 632
h-101l-103 157h140z" />
    <glyph glyph-name="eacute" unicode="&#xe9;" horiz-adv-x="491" 
d="M329 180h130v-4q0 -80 -57 -133t-153 -53q-100 0 -155.5 59t-55.5 161v137q0 103 55.5 162.5t155.5 59.5q99 0 154.5 -57t55.5 -160v-110h-291v-61q0 -36 24.5 -60t56.5 -24q34 0 57 19t23 52v12zM168 375v-41h161v27q0 100 -80 100q-37 0 -59 -21.5t-22 -64.5zM283 632
h-100l63 157h141z" />
    <glyph glyph-name="ecircumflex" unicode="&#xea;" horiz-adv-x="491" 
d="M329 180h130v-4q0 -80 -57 -133t-153 -53q-100 0 -155.5 59t-55.5 161v137q0 103 55.5 162.5t155.5 59.5q99 0 154.5 -57t55.5 -160v-110h-291v-61q0 -36 24.5 -60t56.5 -24q34 0 57 19t23 52v12zM168 375v-41h161v27q0 100 -80 100q-37 0 -59 -21.5t-22 -64.5zM182 631
h-101l102 155h127l102 -155h-102l-64 75z" />
    <glyph glyph-name="edieresis" unicode="&#xeb;" horiz-adv-x="491" 
d="M329 180h130v-4q0 -80 -57 -133t-153 -53q-100 0 -155.5 59t-55.5 161v137q0 103 55.5 162.5t155.5 59.5q99 0 154.5 -57t55.5 -160v-110h-291v-61q0 -36 24.5 -60t56.5 -24q34 0 57 19t23 52v12zM168 375v-41h161v27q0 100 -80 100q-37 0 -59 -21.5t-22 -64.5zM403 689
q0 -25 -17.5 -43t-43.5 -18q-25 0 -42.5 18t-17.5 43t17.5 43t42.5 18t43 -18t18 -43zM221 689q0 -25 -17.5 -43t-43.5 -18q-25 0 -42.5 18t-17.5 43t17.5 43t42.5 18t43 -18t18 -43z" />
    <glyph glyph-name="igrave" unicode="&#xec;" horiz-adv-x="242" 
d="M186 562v-562h-130v562h130zM181 632h-101l-103 157h140z" />
    <glyph glyph-name="iacute" unicode="&#xed;" horiz-adv-x="246" 
d="M186 562v-562h-130v562h130zM158 632h-100l63 157h141z" />
    <glyph glyph-name="icircumflex" unicode="&#xee;" horiz-adv-x="243" 
d="M186 562v-562h-130v562h130zM57 633h-101l102 155h127l102 -155h-102l-64 75z" />
    <glyph glyph-name="idieresis" unicode="&#xef;" horiz-adv-x="238" 
d="M186 562v-562h-130v562h130zM272 689q0 -25 -18 -43t-43 -18t-42.5 18t-17.5 43t17.5 43t42.5 18t43 -18t18 -43zM90 689q0 -25 -18 -43t-43 -18t-42.5 18t-17.5 43t17.5 43t42.5 18t43 -18t18 -43z" />
    <glyph glyph-name="eth" unicode="&#xf0;" horiz-adv-x="494" 
d="M305 759l43 -89h86v-50h-61l36 -72q48 -96 48 -205v-126q0 -103 -58 -162.5t-153 -59.5q-94 0 -152.5 59.5t-58.5 162.5v129q0 109 65.5 171.5t177.5 45.5l-30 57h-91v50h66l-47 89h129zM249 450q-37 0 -59 -21.5t-22 -64.5v-170q0 -43 22.5 -65t58.5 -22q35 0 57.5 22
t22.5 65v170q0 43 -22.5 64.5t-57.5 21.5z" />
    <glyph glyph-name="ntilde" unicode="&#xf1;" horiz-adv-x="516" 
d="M183 350v-350h-130v562h122v-64q9 21 44.5 45.5t88.5 24.5q79 0 123 -51t44 -155v-362h-131v352q0 99 -81 99q-41 0 -60.5 -24t-19.5 -77zM427 763v-104q-44 -31 -89 -31q-27 0 -75 16.5t-76 16.5q-46 0 -93 -31v105q46 27 90 27q27 0 75 -14t74 -14q49 0 94 29z" />
    <glyph glyph-name="ograve" unicode="&#xf2;" horiz-adv-x="496" 
d="M249 -10q-100 0 -155.5 59.5t-55.5 163.5v135q0 101 55.5 160.5t155.5 59.5q98 0 154 -59.5t56 -160.5v-135q0 -104 -56 -163.5t-154 -59.5zM249 450q-37 0 -59 -21.5t-22 -64.5v-170q0 -43 22.5 -65t58.5 -22q35 0 57.5 22t22.5 65v170q0 43 -22.5 64.5t-57.5 21.5z
M293 624h-101l-103 157h140z" />
    <glyph glyph-name="oacute" unicode="&#xf3;" horiz-adv-x="496" 
d="M249 -10q-100 0 -155.5 59.5t-55.5 163.5v135q0 101 55.5 160.5t155.5 59.5q98 0 154 -59.5t56 -160.5v-135q0 -104 -56 -163.5t-154 -59.5zM249 450q-37 0 -59 -21.5t-22 -64.5v-170q0 -43 22.5 -65t58.5 -22q35 0 57.5 22t22.5 65v170q0 43 -22.5 64.5t-57.5 21.5z
M290 631h-100l63 157h141z" />
    <glyph glyph-name="ocircumflex" unicode="&#xf4;" horiz-adv-x="496" 
d="M249 -10q-100 0 -155.5 59.5t-55.5 163.5v135q0 101 55.5 160.5t155.5 59.5q98 0 154 -59.5t56 -160.5v-135q0 -104 -56 -163.5t-154 -59.5zM249 450q-37 0 -59 -21.5t-22 -64.5v-170q0 -43 22.5 -65t58.5 -22q35 0 57.5 22t22.5 65v170q0 43 -22.5 64.5t-57.5 21.5z
M185 631h-101l102 155h127l102 -155h-102l-64 75z" />
    <glyph glyph-name="otilde" unicode="&#xf5;" horiz-adv-x="496" 
d="M249 -10q-100 0 -155.5 59.5t-55.5 163.5v135q0 101 55.5 160.5t155.5 59.5q98 0 154 -59.5t56 -160.5v-135q0 -104 -56 -163.5t-154 -59.5zM249 450q-37 0 -59 -21.5t-22 -64.5v-170q0 -43 22.5 -65t58.5 -22q35 0 57.5 22t22.5 65v170q0 43 -22.5 64.5t-57.5 21.5z
M416 759v-104q-44 -31 -89 -31q-27 0 -75 16.5t-76 16.5q-46 0 -93 -31v105q46 27 90 27q27 0 75 -14t74 -14q49 0 94 29z" />
    <glyph glyph-name="odieresis" unicode="&#xf6;" horiz-adv-x="496" 
d="M249 -10q-100 0 -155.5 59.5t-55.5 163.5v135q0 101 55.5 160.5t155.5 59.5q98 0 154 -59.5t56 -160.5v-135q0 -104 -56 -163.5t-154 -59.5zM249 450q-37 0 -59 -21.5t-22 -64.5v-170q0 -43 22.5 -65t58.5 -22q35 0 57.5 22t22.5 65v170q0 43 -22.5 64.5t-57.5 21.5z
M400 687q0 -25 -18 -43t-43 -18t-42.5 18t-17.5 43t17.5 43t42.5 18t43 -18t18 -43zM218 687q0 -25 -18 -43t-43 -18t-42.5 18t-17.5 43t17.5 43t42.5 18t43 -18t18 -43z" />
    <glyph glyph-name="divide" unicode="&#xf7;" horiz-adv-x="504" 
d="M310 531q0 -29 -21.5 -50.5t-50.5 -21.5q-30 0 -51 21.5t-21 50.5q0 30 21 51t51 21q29 0 50.5 -21t21.5 -51zM310 177q0 -29 -21.5 -50.5t-50.5 -21.5q-30 0 -51 21.5t-21 50.5q0 30 21 51t51 21q29 0 50.5 -21t21.5 -51zM440 294h-397v119h397v-119z" />
    <glyph glyph-name="oslash" unicode="&#xf8;" horiz-adv-x="496" 
d="M249 -10q-35 0 -62 7l-23 -75h-52l30 91q-104 52 -104 200v135q0 101 55.5 160.5t155.5 59.5q28 0 61 -7l24 78h50l-29 -95q104 -55 104 -196v-135q0 -104 -56 -163.5t-154 -59.5zM249 450q-37 0 -59 -21.5t-22 -64.5v-170q0 -35 15 -56l93 308q-12 4 -27 4zM329 364
q0 30 -13 53l-94 -307q12 -3 27 -3q35 0 57.5 22t22.5 65v170z" />
    <glyph glyph-name="ugrave" unicode="&#xf9;" horiz-adv-x="506" 
d="M334 188v374h131v-355q0 -100 -57 -158.5t-154 -58.5q-99 0 -155 58.5t-56 158.5v355h130v-374q0 -40 24.5 -60.5t56.5 -20.5q29 0 54.5 20.5t25.5 60.5zM307 623h-101l-103 157h140z" />
    <glyph glyph-name="uacute" unicode="&#xfa;" horiz-adv-x="506" 
d="M334 188v374h131v-355q0 -100 -57 -158.5t-154 -58.5q-99 0 -155 58.5t-56 158.5v355h130v-374q0 -40 24.5 -60.5t56.5 -20.5q29 0 54.5 20.5t25.5 60.5zM304 633h-100l63 157h141z" />
    <glyph glyph-name="ucircumflex" unicode="&#xfb;" horiz-adv-x="506" 
d="M334 188v374h131v-355q0 -100 -57 -158.5t-154 -58.5q-99 0 -155 58.5t-56 158.5v355h130v-374q0 -40 24.5 -60.5t56.5 -20.5q29 0 54.5 20.5t25.5 60.5zM190 630h-101l102 155h127l102 -155h-102l-64 75z" />
    <glyph glyph-name="udieresis" unicode="&#xfc;" horiz-adv-x="506" 
d="M334 188v374h131v-355q0 -100 -57 -158.5t-154 -58.5q-99 0 -155 58.5t-56 158.5v355h130v-374q0 -40 24.5 -60.5t56.5 -20.5q29 0 54.5 20.5t25.5 60.5zM406 689q0 -25 -18 -43t-43 -18t-42.5 18t-17.5 43t17.5 43t42.5 18t43 -18t18 -43zM224 689q0 -25 -18 -43
t-43 -18t-42.5 18t-17.5 43t17.5 43t42.5 18t43 -18t18 -43z" />
    <glyph glyph-name="yacute" unicode="&#xfd;" horiz-adv-x="480" 
d="M115 -192l60 193l-172 561h140l99 -364l99 364h139l-232 -754h-133zM293 632h-100l63 157h141z" />
    <glyph glyph-name="thorn" unicode="&#xfe;" horiz-adv-x="516" 
d="M308 569q167 0 167 -224v-146q0 -104 -44.5 -155.5t-122.5 -51.5q-53 0 -84.5 22.5t-40.5 44.5v-252h-130v948h130v-257q10 23 41 47t84 24zM263 452q-36 0 -58 -25t-22 -74v-144q0 -50 21.5 -75t58.5 -25q38 0 59.5 25t21.5 75v142q0 50 -22 75.5t-59 25.5z" />
    <glyph glyph-name="ydieresis" unicode="&#xff;" horiz-adv-x="480" 
d="M115 -192l60 193l-172 561h140l99 -364l99 364h139l-232 -754h-133zM393 686q0 -26 -17.5 -43.5t-43.5 -17.5q-25 0 -42.5 18t-17.5 43t17.5 43t42.5 18t43 -18t18 -43zM211 686q0 -26 -17.5 -43.5t-43.5 -17.5q-25 0 -42.5 18t-17.5 43t17.5 43t42.5 18t43 -18t18 -43z
" />
    <glyph glyph-name="Amacron" unicode="&#x100;" horiz-adv-x="559" 
d="M283 534l-74 -276h145zM420 0l-37 139h-203l-38 -139h-139l205 705h149l202 -705h-139zM423 784h-283v93h283v-93z" />
    <glyph glyph-name="amacron" unicode="&#x101;" horiz-adv-x="511" 
d="M204 -9q-78 0 -122 51.5t-44 156.5v163q0 105 44.5 156t121.5 51q53 0 88 -24t45 -46v63h122v-562h-122v62q-9 -22 -44 -46.5t-89 -24.5zM249 108q37 0 58.5 25.5t21.5 75.5v145q0 49 -22 73.5t-58 24.5q-37 0 -58.5 -25t-21.5 -75v-143q0 -101 80 -101zM400 633h-283v93
h283v-93z" />
    <glyph glyph-name="Abreve" unicode="&#x102;" horiz-adv-x="559" 
d="M283 534l-74 -276h145zM420 0l-37 139h-203l-38 -139h-139l205 705h149l202 -705h-139zM128 926v14h101v-23q0 -25 15.5 -37.5t38.5 -12.5q22 0 38.5 12t16.5 37v24h101v-17q0 -69 -40.5 -106.5t-115.5 -37.5q-73 0 -114 40t-41 107z" />
    <glyph glyph-name="abreve" unicode="&#x103;" horiz-adv-x="511" 
d="M204 -9q-78 0 -122 51.5t-44 156.5v163q0 105 44.5 156t121.5 51q53 0 88 -24t45 -46v63h122v-562h-122v62q-9 -22 -44 -46.5t-89 -24.5zM249 108q37 0 58.5 25.5t21.5 75.5v145q0 49 -22 73.5t-58 24.5q-37 0 -58.5 -25t-21.5 -75v-143q0 -101 80 -101zM101 774v14h101
v-23q0 -25 15.5 -37.5t38.5 -12.5q22 0 38.5 12t16.5 37v24h101v-17q0 -69 -40.5 -106.5t-115.5 -37.5q-73 0 -114 40t-41 107z" />
    <glyph glyph-name="Aogonek" unicode="&#x104;" horiz-adv-x="559" 
d="M283 534l-74 -276h145zM420 0l-37 139h-203l-38 -139h-139l205 705h149l202 -705q-10 -16 -13 -32t5.5 -27.5t29.5 -11.5q13 0 35 5v-106q-36 -8 -70 -8q-136 0 -136 121q0 19 10 59z" />
    <glyph glyph-name="aogonek" unicode="&#x105;" horiz-adv-x="504" 
d="M249 108q37 0 58.5 25.5t21.5 75.5v145q0 49 -22 73.5t-58 24.5q-37 0 -58.5 -25t-21.5 -75v-143q0 -101 80 -101zM337 0v62q-9 -22 -44 -46.5t-89 -24.5q-78 0 -122 51.5t-44 156.5v163q0 105 44.5 156t121.5 51q53 0 88 -24t45 -46v63h122v-562q-10 -16 -13 -32
t5.5 -27.5t29.5 -11.5q13 0 35 5v-106q-36 -8 -70 -8q-132 0 -132 109q0 39 23 71z" />
    <glyph glyph-name="Cacute" unicode="&#x106;" horiz-adv-x="544" 
d="M375 451v10q0 125 -98 125q-41 0 -69 -25.5t-28 -81.5v-250q0 -57 28 -82.5t69 -25.5q50 0 74 30t24 104v9h137q0 -275 -235 -275q-104 0 -169 68t-65 176v242q0 107 65.5 175t168.5 68q115 0 175 -71t60 -196h-137zM318 785h-100l63 157h141z" />
    <glyph glyph-name="cacute" unicode="&#x107;" horiz-adv-x="491" 
d="M329 218h130q0 -108 -54 -168t-156 -60q-100 0 -155.5 59t-55.5 161v136q0 104 55.5 163.5t155.5 59.5q103 0 156.5 -60t53.5 -171h-130q0 112 -80 112q-81 0 -81 -97v-132q0 -113 81 -113q37 0 58.5 27.5t21.5 82.5zM295 634h-100l63 157h141z" />
    <glyph glyph-name="Ccircumflex" unicode="&#x108;" horiz-adv-x="544" 
d="M375 451v10q0 125 -98 125q-41 0 -69 -25.5t-28 -81.5v-250q0 -57 28 -82.5t69 -25.5q50 0 74 30t24 104v9h137q0 -275 -235 -275q-104 0 -169 68t-65 176v242q0 107 65.5 175t168.5 68q115 0 175 -71t60 -196h-137zM209 782h-101l102 155h127l102 -155h-102l-64 75z" />
    <glyph glyph-name="ccircumflex" unicode="&#x109;" horiz-adv-x="491" 
d="M329 218h130q0 -108 -54 -168t-156 -60q-100 0 -155.5 59t-55.5 161v136q0 104 55.5 163.5t155.5 59.5q103 0 156.5 -60t53.5 -171h-130q0 112 -80 112q-81 0 -81 -97v-132q0 -113 81 -113q37 0 58.5 27.5t21.5 82.5zM182 632h-101l102 155h127l102 -155h-102l-64 75z
" />
    <glyph glyph-name="Cdotaccent" unicode="&#x10a;" horiz-adv-x="544" 
d="M375 451v10q0 125 -98 125q-41 0 -69 -25.5t-28 -81.5v-250q0 -57 28 -82.5t69 -25.5q50 0 74 30t24 104v9h137q0 -275 -235 -275q-104 0 -169 68t-65 176v242q0 107 65.5 175t168.5 68q115 0 175 -71t60 -196h-137zM339 848q0 -26 -18.5 -44t-44.5 -18t-44 18t-18 44
t18 44.5t44 18.5t44.5 -18.5t18.5 -44.5z" />
    <glyph glyph-name="cdotaccent" unicode="&#x10b;" horiz-adv-x="485" 
d="M329 218h130q0 -108 -54 -168t-156 -60q-100 0 -155.5 59t-55.5 161v136q0 104 55.5 163.5t155.5 59.5q103 0 156.5 -60t53.5 -171h-130q0 112 -80 112q-81 0 -81 -97v-132q0 -113 81 -113q37 0 58.5 27.5t21.5 82.5zM297 691q0 -26 -18.5 -44t-44.5 -18t-44 18t-18 44
t18 44.5t44 18.5t44.5 -18.5t18.5 -44.5z" />
    <glyph glyph-name="Ccaron" unicode="&#x10c;" horiz-adv-x="544" 
d="M375 451v10q0 125 -98 125q-41 0 -69 -25.5t-28 -81.5v-250q0 -57 28 -82.5t69 -25.5q50 0 74 30t24 104v9h137q0 -275 -235 -275q-104 0 -169 68t-65 176v242q0 107 65.5 175t168.5 68q115 0 175 -71t60 -196h-137zM108 937h101l64 -76l64 76h102l-102 -155h-127z" />
    <glyph glyph-name="ccaron" unicode="&#x10d;" horiz-adv-x="491" 
d="M329 218h130q0 -108 -54 -168t-156 -60q-100 0 -155.5 59t-55.5 161v136q0 104 55.5 163.5t155.5 59.5q103 0 156.5 -60t53.5 -171h-130q0 112 -80 112q-81 0 -81 -97v-132q0 -113 81 -113q37 0 58.5 27.5t21.5 82.5zM81 786h101l64 -76l64 76h102l-102 -155h-127z" />
    <glyph glyph-name="Dcaron" unicode="&#x10e;" horiz-adv-x="575" 
d="M293 0h-230v705h230q108 0 171.5 -66t63.5 -192v-186q0 -125 -64 -193t-171 -68zM277 573h-77v-442h77q56 0 85.5 34t29.5 130v137q0 66 -24.5 103.5t-90.5 37.5zM118 937h101l64 -76l64 76h102l-102 -155h-127z" />
    <glyph glyph-name="dcaron" unicode="&#x10f;" horiz-adv-x="652" 
d="M205 -9q-79 0 -123 51t-44 156v164q0 104 44 155t123 51q39 0 69.5 -14t41.5 -28l12 -15v244h132v-755h-122v61q-9 -22 -44.5 -46t-88.5 -24zM250 107q37 0 58.5 25.5t21.5 75.5v146q0 48 -22 72.5t-58 24.5q-38 0 -59.5 -25t-21.5 -75v-143q0 -50 22 -75.5t59 -25.5z
M572 438h-85l76 317h120z" />
    <glyph glyph-name="Dcroat" unicode="&#x110;" horiz-adv-x="572" 
d="M290 0h-230v330h-60v49h60v326h230q108 0 171.5 -66t63.5 -192v-186q0 -125 -64 -193t-171 -68zM274 573h-77v-194h77v-49h-77v-199h77q56 0 85.5 34t29.5 130v137q0 66 -24.5 103.5t-90.5 37.5z" />
    <glyph glyph-name="dcroat" unicode="&#x111;" horiz-adv-x="520" 
d="M205 -9q-79 0 -123 51t-44 156v164q0 104 44 155t123 51q53 0 84.5 -21t40.5 -42v124h-80v50h80v76h130v-76h63v-50h-63v-629h-122v61q-9 -22 -44.5 -46t-88.5 -24zM250 107q37 0 58.5 25.5t21.5 75.5v146q0 48 -22 72.5t-58 24.5q-38 0 -59.5 -25t-21.5 -75v-143
q0 -50 22 -75.5t59 -25.5z" />
    <glyph glyph-name="Emacron" unicode="&#x112;" horiz-adv-x="494" 
d="M455 705v-133h-255v-160h189v-120h-189v-160h255v-132h-392v705h392zM394 784h-283v93h283v-93z" />
    <glyph glyph-name="emacron" unicode="&#x113;" horiz-adv-x="491" 
d="M329 180h130v-4q0 -80 -57 -133t-153 -53q-100 0 -155.5 59t-55.5 161v137q0 103 55.5 162.5t155.5 59.5q99 0 154.5 -57t55.5 -160v-110h-291v-61q0 -36 24.5 -60t56.5 -24q34 0 57 19t23 52v12zM168 375v-41h161v27q0 100 -80 100q-37 0 -59 -21.5t-22 -64.5zM390 635
h-283v93h283v-93z" />
    <glyph glyph-name="Ebreve" unicode="&#x114;" horiz-adv-x="494" 
d="M455 705v-133h-255v-160h189v-120h-189v-160h255v-132h-392v705h392zM93 926v14h101v-23q0 -25 15.5 -37.5t38.5 -12.5q22 0 38.5 12t16.5 37v24h101v-17q0 -69 -40.5 -106.5t-115.5 -37.5q-73 0 -114 40t-41 107z" />
    <glyph glyph-name="ebreve" unicode="&#x115;" horiz-adv-x="491" 
d="M329 180h130v-4q0 -80 -57 -133t-153 -53q-100 0 -155.5 59t-55.5 161v137q0 103 55.5 162.5t155.5 59.5q99 0 154.5 -57t55.5 -160v-110h-291v-61q0 -36 24.5 -60t56.5 -24q34 0 57 19t23 52v12zM168 375v-41h161v27q0 100 -80 100q-37 0 -59 -21.5t-22 -64.5zM91 774
v14h101v-23q0 -25 15.5 -37.5t38.5 -12.5q22 0 38.5 12t16.5 37v24h101v-17q0 -69 -40.5 -106.5t-115.5 -37.5q-73 0 -114 40t-41 107z" />
    <glyph glyph-name="Edotaccent" unicode="&#x116;" horiz-adv-x="494" 
d="M455 705v-133h-255v-160h189v-120h-189v-160h255v-132h-392v705h392zM309 842q0 -26 -18.5 -44t-44.5 -18t-44 18t-18 44t18 44.5t44 18.5t44.5 -18.5t18.5 -44.5z" />
    <glyph glyph-name="edotaccent" unicode="&#x117;" horiz-adv-x="491" 
d="M329 180h130v-4q0 -80 -57 -133t-153 -53q-100 0 -155.5 59t-55.5 161v137q0 103 55.5 162.5t155.5 59.5q99 0 154.5 -57t55.5 -160v-110h-291v-61q0 -36 24.5 -60t56.5 -24q34 0 57 19t23 52v12zM168 375v-41h161v27q0 100 -80 100q-37 0 -59 -21.5t-22 -64.5zM308 691
q0 -26 -18.5 -44t-44.5 -18t-44 18t-18 44t18 44.5t44 18.5t44.5 -18.5t18.5 -44.5z" />
    <glyph glyph-name="Eogonek" unicode="&#x118;" horiz-adv-x="494" 
d="M63 0v705h392v-133h-255v-160h189v-120h-189v-160h255v-132q-10 -16 -13 -32t5.5 -27.5t29.5 -11.5q13 0 35 5v-106q-36 -8 -70 -8q-136 0 -136 121q0 19 10 59h-253z" />
    <glyph glyph-name="eogonek" unicode="&#x119;" horiz-adv-x="490" 
d="M329 180h130v-4q0 -63 -37 -110.5t-102 -65.5q-10 -16 -12.5 -32t6 -27.5t29.5 -11.5q13 0 35 5v-106q-36 -8 -70 -8q-136 0 -136 121q0 22 9 58q-69 18 -106 73t-37 138v137q0 103 55.5 162.5t155.5 59.5q99 0 154.5 -57t55.5 -160v-110h-291v-61q0 -36 24.5 -60
t56.5 -24q34 0 57 19t23 52v12zM168 375v-41h161v27q0 100 -80 100q-37 0 -59 -21.5t-22 -64.5z" />
    <glyph glyph-name="Ecaron" unicode="&#x11a;" horiz-adv-x="494" 
d="M455 705v-133h-255v-160h189v-120h-189v-160h255v-132h-392v705h392zM94 937h101l64 -76l64 76h102l-102 -155h-127z" />
    <glyph glyph-name="ecaron" unicode="&#x11b;" horiz-adv-x="491" 
d="M329 180h130v-4q0 -80 -57 -133t-153 -53q-100 0 -155.5 59t-55.5 161v137q0 103 55.5 162.5t155.5 59.5q99 0 154.5 -57t55.5 -160v-110h-291v-61q0 -36 24.5 -60t56.5 -24q34 0 57 19t23 52v12zM168 375v-41h161v27q0 100 -80 100q-37 0 -59 -21.5t-22 -64.5zM81 785
h101l64 -76l64 76h102l-102 -155h-127z" />
    <glyph glyph-name="Gcircumflex" unicode="&#x11c;" horiz-adv-x="553" 
d="M277 361h234v-128q0 -108 -65.5 -175.5t-169.5 -67.5q-103 0 -168 67.5t-65 175.5v241q0 108 65 176t168 68q102 0 167.5 -66.5t67.5 -171.5h-137q0 106 -96 106q-48 0 -73 -29t-25 -97v-232q0 -53 25.5 -79.5t70.5 -26.5q42 0 70 25.5t28 80.5v12h-97v121zM213 774h-101
l102 155h127l102 -155h-102l-64 75z" />
    <glyph glyph-name="gcircumflex" unicode="&#x11d;" horiz-adv-x="511" 
d="M169 352v-128q0 -63 19 -90.5t61 -27.5q40 0 60 27.5t20 88.5v123q0 107 -80 107q-37 0 -58.5 -25t-21.5 -75zM329 -36v98q-6 -13 -17.5 -27t-41 -28.5t-66.5 -14.5q-78 0 -122 51t-44 156v163q0 103 43 154.5t119 51.5q54 0 91 -23.5t46 -45.5v63h122v-569
q0 -107 -46 -157.5t-163 -50.5q-205 0 -205 168h126q0 -30 20 -48t59 -18q79 0 79 77zM192 632h-101l102 155h127l102 -155h-102l-64 75z" />
    <glyph glyph-name="Gbreve" unicode="&#x11e;" horiz-adv-x="553" 
d="M277 361h234v-128q0 -108 -65.5 -175.5t-169.5 -67.5q-103 0 -168 67.5t-65 175.5v241q0 108 65 176t168 68q102 0 167.5 -66.5t67.5 -171.5h-137q0 106 -96 106q-48 0 -73 -29t-25 -97v-232q0 -53 25.5 -79.5t70.5 -26.5q42 0 70 25.5t28 80.5v12h-97v121zM120 926v14
h101v-23q0 -25 15.5 -37.5t38.5 -12.5q22 0 38.5 12t16.5 37v24h101v-17q0 -69 -40.5 -106.5t-115.5 -37.5q-73 0 -114 40t-41 107z" />
    <glyph glyph-name="gbreve" unicode="&#x11f;" horiz-adv-x="511" 
d="M169 352v-128q0 -63 19 -90.5t61 -27.5q40 0 60 27.5t20 88.5v123q0 107 -80 107q-37 0 -58.5 -25t-21.5 -75zM329 -36v98q-6 -13 -17.5 -27t-41 -28.5t-66.5 -14.5q-78 0 -122 51t-44 156v163q0 103 43 154.5t119 51.5q54 0 91 -23.5t46 -45.5v63h122v-569
q0 -107 -46 -157.5t-163 -50.5q-205 0 -205 168h126q0 -30 20 -48t59 -18q79 0 79 77zM109 768v14h101v-23q0 -25 15.5 -37.5t38.5 -12.5q22 0 38.5 12t16.5 37v24h101v-17q0 -69 -40.5 -106.5t-115.5 -37.5q-73 0 -114 40t-41 107z" />
    <glyph glyph-name="Gdotaccent" unicode="&#x120;" horiz-adv-x="553" 
d="M277 361h234v-128q0 -108 -65.5 -175.5t-169.5 -67.5q-103 0 -168 67.5t-65 175.5v241q0 108 65 176t168 68q102 0 167.5 -66.5t67.5 -171.5h-137q0 106 -96 106q-48 0 -73 -29t-25 -97v-232q0 -53 25.5 -79.5t70.5 -26.5q42 0 70 25.5t28 80.5v12h-97v121zM336 842
q0 -26 -18.5 -44t-44.5 -18t-44 18t-18 44t18 44.5t44 18.5t44.5 -18.5t18.5 -44.5z" />
    <glyph glyph-name="gdotaccent" unicode="&#x121;" horiz-adv-x="511" 
d="M169 352v-128q0 -63 19 -90.5t61 -27.5q40 0 60 27.5t20 88.5v123q0 107 -80 107q-37 0 -58.5 -25t-21.5 -75zM329 -36v98q-6 -13 -17.5 -27t-41 -28.5t-66.5 -14.5q-78 0 -122 51t-44 156v163q0 103 43 154.5t119 51.5q54 0 91 -23.5t46 -45.5v63h122v-569
q0 -107 -46 -157.5t-163 -50.5q-205 0 -205 168h126q0 -30 20 -48t59 -18q79 0 79 77zM311 692q0 -26 -18.5 -44t-44.5 -18t-44 18t-18 44t18 44.5t44 18.5t44.5 -18.5t18.5 -44.5z" />
    <glyph glyph-name="Gcommaaccent" unicode="&#x122;" horiz-adv-x="553" 
d="M277 361h234v-128q0 -108 -65.5 -175.5t-169.5 -67.5q-103 0 -168 67.5t-65 175.5v241q0 108 65 176t168 68q102 0 167.5 -66.5t67.5 -171.5h-137q0 106 -96 106q-48 0 -73 -29t-25 -97v-232q0 -53 25.5 -79.5t70.5 -26.5q42 0 70 25.5t28 80.5v12h-97v121zM245 -280h-77
l42 206h140z" />
    <glyph glyph-name="gcommaaccent" unicode="&#x123;" horiz-adv-x="511" 
d="M258 839h77l-42 -206h-140zM169 352v-128q0 -63 19 -90.5t61 -27.5q40 0 60 27.5t20 88.5v123q0 107 -80 107q-37 0 -58.5 -25t-21.5 -75zM329 -36v98q-6 -13 -17.5 -27t-41 -28.5t-66.5 -14.5q-78 0 -122 51t-44 156v163q0 103 43 154.5t119 51.5q54 0 91 -23.5
t46 -45.5v63h122v-569q0 -107 -46 -157.5t-163 -50.5q-205 0 -205 168h126q0 -30 20 -48t59 -18q79 0 79 77z" />
    <glyph glyph-name="Hcircumflex" unicode="&#x124;" horiz-adv-x="574" 
d="M186 292v-292h-137v705h137v-293h184v293h137v-705h-137v292h-184zM215 782h-101l102 155h127l102 -155h-102l-64 75z" />
    <glyph glyph-name="hcircumflex" unicode="&#x125;" horiz-adv-x="516" 
d="M183 350v-350h-130v755h130v-247q4 7 13.5 17t42.5 27t73 17q163 0 163 -202v-367h-131v317q0 74 -16.5 104t-64.5 30q-42 0 -61 -23.5t-19 -77.5zM177 809h-101l102 155h127l102 -155h-102l-64 75z" />
    <glyph glyph-name="Hbar" unicode="&#x126;" horiz-adv-x="580" 
d="M197 292v-292h-137v524h-60v50h60v131h137v-131h184v131h137v-131h63v-50h-63v-524h-137v292h-184zM197 412h184v112h-184v-112z" />
    <glyph glyph-name="hbar" unicode="&#x127;" horiz-adv-x="516" 
d="M53 680v75h130v-75h86v-50h-86v-132q33 71 129 71q163 0 163 -202v-367h-131v317q0 74 -16.5 104t-64.5 30q-42 0 -61 -23.5t-19 -77.5v-350h-130v630h-60v50h60z" />
    <glyph glyph-name="Itilde" unicode="&#x128;" horiz-adv-x="265" 
d="M205 705v-705h-137v705h137zM303 911v-104q-44 -31 -89 -31q-27 0 -75 16.5t-76 16.5q-46 0 -93 -31v105q46 27 90 27q27 0 75 -14t74 -14q49 0 94 29z" />
    <glyph glyph-name="itilde" unicode="&#x129;" horiz-adv-x="238" 
d="M186 562v-562h-130v562h130zM289 762v-104q-44 -31 -89 -31q-27 0 -75 16.5t-76 16.5q-46 0 -93 -31v105q46 27 90 27q27 0 75 -14t74 -14q49 0 94 29z" />
    <glyph glyph-name="Imacron" unicode="&#x12a;" horiz-adv-x="262" 
d="M205 705v-705h-137v705h137zM277 784h-283v93h283v-93z" />
    <glyph glyph-name="imacron" unicode="&#x12b;" horiz-adv-x="238" 
d="M186 562v-562h-130v562h130zM262 630h-283v93h283v-93z" />
    <glyph glyph-name="Ibreve" unicode="&#x12c;" horiz-adv-x="266" 
d="M205 705v-705h-137v705h137zM-19 926v14h101v-23q0 -25 15.5 -37.5t38.5 -12.5q22 0 38.5 12t16.5 37v24h101v-17q0 -69 -40.5 -106.5t-115.5 -37.5q-73 0 -114 40t-41 107z" />
    <glyph glyph-name="ibreve" unicode="&#x12d;" horiz-adv-x="235" 
d="M186 562v-562h-130v562h130zM-34 774v14h101v-23q0 -25 15.5 -37.5t38.5 -12.5q22 0 38.5 12t16.5 37v24h101v-17q0 -69 -40.5 -106.5t-115.5 -37.5q-73 0 -114 40t-41 107z" />
    <glyph glyph-name="Iogonek" unicode="&#x12e;" horiz-adv-x="258" 
d="M205 28v-28q-17 -22 -12 -46.5t36 -24.5q13 0 35 5v-106q-36 -8 -70 -8q-136 0 -136 121q0 19 10 59v705h137v-677z" />
    <glyph glyph-name="iogonek" unicode="&#x12f;" horiz-adv-x="244" 
d="M201 709q0 -33 -23 -56t-56 -23t-56 23t-23 56t23 56.5t56 23.5t56 -23.5t23 -56.5zM56 0v562h130v-562q-17 -22 -9.5 -46.5t40.5 -24.5q13 0 35 5v-106q-36 -8 -70 -8q-136 0 -136 121q0 19 10 59z" />
    <glyph glyph-name="Idotaccent" unicode="&#x130;" horiz-adv-x="265" 
d="M205 705v-705h-137v705h137zM199 842q0 -26 -18.5 -44t-44.5 -18t-44 18t-18 44t18 44.5t44 18.5t44.5 -18.5t18.5 -44.5z" />
    <glyph glyph-name="dotlessi" unicode="&#x131;" horiz-adv-x="244" 
d="M186 562v-562h-130v562h130z" />
    <glyph glyph-name="Jcircumflex" unicode="&#x134;" horiz-adv-x="544" 
d="M345 705h137v-473q0 -109 -63 -176t-167 -67q-103 0 -166 67.5t-63 175.5v31h137v-36q0 -57 27 -81.5t65 -24.5q49 0 71 32.5t22 121.5v430zM219 782h-101l102 155h127l102 -155h-102l-64 75z" />
    <glyph glyph-name="jcircumflex" unicode="&#x135;" horiz-adv-x="238" 
d="M-10 -211v118q36 0 52.5 18.5t16.5 66.5v570h130v-543q0 -118 -47 -174t-152 -56zM63 634h-101l102 155h127l102 -155h-102l-64 75z" />
    <glyph glyph-name="Kcommaaccent" unicode="&#x136;" horiz-adv-x="569" 
d="M369 355l175 -355h-154l-139 293h-51v-293h-137v705h137v-290h51l139 290h154zM271 -280h-77l42 206h140z" />
    <glyph glyph-name="kcommaaccent" unicode="&#x137;" horiz-adv-x="513" 
d="M336 282l153 -282h-148l-113 226h-44v-226h-131v755h131v-421h44l112 228h148zM224 -280h-77l42 206h140z" />
    <glyph glyph-name="kgreenlandic" unicode="&#x138;" horiz-adv-x="513" 
d="M336 282l153 -282h-148l-113 226h-44v-226h-131v562h131v-228h44l112 228h148z" />
    <glyph glyph-name="Lacute" unicode="&#x139;" horiz-adv-x="446" 
d="M432 132v-132h-369v705h137v-573h232zM176 781h-100l63 157h141z" />
    <glyph glyph-name="lacute" unicode="&#x13a;" horiz-adv-x="242" 
d="M189 755v-755h-131v755h131zM167 824h-100l63 157h141z" />
    <glyph glyph-name="Lcommaaccent" unicode="&#x13b;" horiz-adv-x="446" 
d="M432 132v-132h-369v705h137v-573h232zM221 -280h-77l42 206h140z" />
    <glyph glyph-name="lcommaaccent" unicode="&#x13c;" horiz-adv-x="270" 
d="M189 755v-755h-131v755h131zM92 -280h-77l42 206h140z" />
    <glyph glyph-name="Lcaron" unicode="&#x13d;" horiz-adv-x="464" 
d="M432 132v-132h-369v705h137v-573h232zM362 374h-100l90 331h141z" />
    <glyph glyph-name="lcaron" unicode="&#x13e;" horiz-adv-x="407" 
d="M189 755v-755h-131v755h131zM308 425h-85l77 333h120z" />
    <glyph glyph-name="Ldot" unicode="&#x13f;" horiz-adv-x="453" 
d="M432 132v-132h-369v705h137v-573h232zM385 351q0 -24 -17.5 -42t-42.5 -18t-42.5 18t-17.5 42q0 26 17.5 43.5t42.5 17.5t42.5 -18t17.5 -43z" />
    <glyph glyph-name="ldot" unicode="&#x140;" horiz-adv-x="375" 
d="M189 755v-755h-131v755h131zM348 278q0 -25 -17.5 -42.5t-42.5 -17.5t-42.5 17.5t-17.5 42.5t17.5 43t42.5 18t42.5 -18t17.5 -43z" />
    <glyph glyph-name="Lslash" unicode="&#x141;" horiz-adv-x="446" 
d="M432 132v-132h-369v330l-63 -20v50l63 20v325h137v-280l66 22v-50l-66 -22v-243h232z" />
    <glyph glyph-name="lslash" unicode="&#x142;" horiz-adv-x="250" 
d="M189 755v-449h63v-50h-63v-256h-131v256h-60v50h60v449h131z" />
    <glyph glyph-name="Nacute" unicode="&#x143;" horiz-adv-x="598" 
d="M535 703v-703h-129l-206 408v-408h-137v705h129l205 -410v408h138zM327 781h-100l63 157h141z" />
    <glyph glyph-name="nacute" unicode="&#x144;" horiz-adv-x="516" 
d="M183 350v-350h-130v562h122v-64q9 21 44.5 45.5t88.5 24.5q79 0 123 -51t44 -155v-362h-131v352q0 99 -81 99q-41 0 -60.5 -24t-19.5 -77zM303 632h-100l63 157h141z" />
    <glyph glyph-name="Ncommaaccent" unicode="&#x145;" horiz-adv-x="598" 
d="M535 703v-703h-129l-206 408v-408h-137v705h129l205 -410v408h138zM298 -280h-77l42 206h140z" />
    <glyph glyph-name="ncommaaccent" unicode="&#x146;" horiz-adv-x="516" 
d="M183 350v-350h-130v562h122v-64q9 21 44.5 45.5t88.5 24.5q79 0 123 -51t44 -155v-362h-131v352q0 99 -81 99q-41 0 -60.5 -24t-19.5 -77zM244 -280h-77l42 206h140z" />
    <glyph glyph-name="Ncaron" unicode="&#x147;" horiz-adv-x="598" 
d="M535 703v-703h-129l-206 408v-408h-137v705h129l205 -410v408h138zM134 937h101l64 -76l64 76h102l-102 -155h-127z" />
    <glyph glyph-name="ncaron" unicode="&#x148;" horiz-adv-x="516" 
d="M183 350v-350h-130v562h122v-64q9 21 44.5 45.5t88.5 24.5q79 0 123 -51t44 -155v-362h-131v352q0 99 -81 99q-41 0 -60.5 -24t-19.5 -77zM94 786h101l64 -76l64 76h102l-102 -155h-127z" />
    <glyph glyph-name="Eng" unicode="&#x14a;" horiz-adv-x="598" 
d="M336 -211v118q36 0 52.5 18.5t16.5 66.5v10l-205 406v-408h-137v705h129l205 -410v408h138v-703v-5q0 -106 -48.5 -156t-150.5 -50z" />
    <glyph glyph-name="eng" unicode="&#x14b;" horiz-adv-x="515" 
d="M276 -211v118q36 0 52 18.5t16 66.5v8v352q0 99 -81 99q-41 0 -60.5 -24t-19.5 -77v-350h-130v562h122v-64q9 21 44.5 45.5t88.5 24.5q78 0 122 -51t44 -155v-362q0 -107 -48 -159t-150 -52z" />
    <glyph glyph-name="Omacron" unicode="&#x14c;" 
d="M277 -10q-103 0 -168.5 68t-65.5 175v240q0 108 65.5 176.5t168.5 68.5q104 0 169.5 -68.5t65.5 -176.5v-240q0 -107 -65.5 -175t-169.5 -68zM277 122q41 0 69.5 25t28.5 81v250q0 56 -27.5 82t-70.5 26q-41 0 -69 -25.5t-28 -81.5v-250q0 -55 27.5 -81t69.5 -26z
M421 784h-283v93h283v-93z" />
    <glyph glyph-name="omacron" unicode="&#x14d;" horiz-adv-x="496" 
d="M249 -10q-100 0 -155.5 59.5t-55.5 163.5v135q0 101 55.5 160.5t155.5 59.5q98 0 154 -59.5t56 -160.5v-135q0 -104 -56 -163.5t-154 -59.5zM249 450q-37 0 -59 -21.5t-22 -64.5v-170q0 -43 22.5 -65t58.5 -22q35 0 57.5 22t22.5 65v170q0 43 -22.5 64.5t-57.5 21.5z
M387 632h-283v93h283v-93z" />
    <glyph glyph-name="Obreve" unicode="&#x14e;" 
d="M277 -10q-103 0 -168.5 68t-65.5 175v240q0 108 65.5 176.5t168.5 68.5q104 0 169.5 -68.5t65.5 -176.5v-240q0 -107 -65.5 -175t-169.5 -68zM277 122q41 0 69.5 25t28.5 81v250q0 56 -27.5 82t-70.5 26q-41 0 -69 -25.5t-28 -81.5v-250q0 -55 27.5 -81t69.5 -26z
M120 926v14h101v-23q0 -25 15.5 -37.5t38.5 -12.5q22 0 38.5 12t16.5 37v24h101v-17q0 -69 -40.5 -106.5t-115.5 -37.5q-73 0 -114 40t-41 107z" />
    <glyph glyph-name="obreve" unicode="&#x14f;" horiz-adv-x="496" 
d="M249 -10q-100 0 -155.5 59.5t-55.5 163.5v135q0 101 55.5 160.5t155.5 59.5q98 0 154 -59.5t56 -160.5v-135q0 -104 -56 -163.5t-154 -59.5zM249 450q-37 0 -59 -21.5t-22 -64.5v-170q0 -43 22.5 -65t58.5 -22q35 0 57.5 22t22.5 65v170q0 43 -22.5 64.5t-57.5 21.5z
M93 774v14h101v-23q0 -25 15.5 -37.5t38.5 -12.5q22 0 38.5 12t16.5 37v24h101v-17q0 -69 -40.5 -106.5t-115.5 -37.5q-73 0 -114 40t-41 107z" />
    <glyph glyph-name="Ohungarumlaut" unicode="&#x150;" 
d="M277 -10q-103 0 -168.5 68t-65.5 175v240q0 108 65.5 176.5t168.5 68.5q104 0 169.5 -68.5t65.5 -176.5v-240q0 -107 -65.5 -175t-169.5 -68zM277 122q41 0 69.5 25t28.5 81v250q0 56 -27.5 82t-70.5 26q-41 0 -69 -25.5t-28 -81.5v-250q0 -55 27.5 -81t69.5 -26z
M385 779h-75l52 148h105zM234 779h-76l52 148h106z" />
    <glyph glyph-name="ohungarumlaut" unicode="&#x151;" horiz-adv-x="496" 
d="M249 -10q-100 0 -155.5 59.5t-55.5 163.5v135q0 101 55.5 160.5t155.5 59.5q98 0 154 -59.5t56 -160.5v-135q0 -104 -56 -163.5t-154 -59.5zM249 450q-37 0 -59 -21.5t-22 -64.5v-170q0 -43 22.5 -65t58.5 -22q35 0 57.5 22t22.5 65v170q0 43 -22.5 64.5t-57.5 21.5z
M344 633h-75l52 148h105zM193 633h-76l52 148h106z" />
    <glyph glyph-name="OE" unicode="&#x152;" horiz-adv-x="807" 
d="M768 705v-133h-256v-160h190v-120h-190v-160h256v-132h-393v36q-40 -40 -110 -40q-99 0 -160.5 65.5t-61.5 174.5v246q0 99 56 164t145 65q92 0 131 -46v40h393zM277 588q-41 0 -69 -25.5t-28 -81.5v-253q0 -57 28 -82t69 -25q40 0 69 25t29 82v253q0 107 -98 107z" />
    <glyph glyph-name="oe" unicode="&#x153;" horiz-adv-x="785" 
d="M620 180h130v-4q0 -80 -55 -133t-151 -53q-103 0 -151 61q-47 -61 -149 -61q-100 0 -153.5 59t-53.5 164v135q0 102 54 161t153 59q100 0 148 -61q48 62 152 62q99 0 152.5 -56.5t53.5 -160.5v-110h-291v-61q0 -36 24.5 -60t56.5 -24q34 0 57 19t23 52v12zM248 450
q-37 0 -59 -21.5t-22 -64.5v-170q0 -43 22.5 -65t58.5 -22q35 0 57.5 22t22.5 65v170q0 43 -22.5 64.5t-57.5 21.5zM459 375v-41h161v27q0 100 -80 100q-37 0 -59 -21.5t-22 -64.5z" />
    <glyph glyph-name="Racute" unicode="&#x154;" horiz-adv-x="556" 
d="M200 0h-137v705h222q107 0 170.5 -67t63.5 -188v-20q0 -80 -32 -135t-90 -81l118 -214h-150l-94 182h-71v-182zM268 573h-68v-260h68q115 0 115 119v20q0 121 -115 121zM283 781h-100l63 157h141z" />
    <glyph glyph-name="racute" unicode="&#x155;" horiz-adv-x="369" 
d="M323 568v-129q-140 11 -140 -130v-309h-130v562h122v-76q12 45 54.5 66.5t93.5 15.5zM222 632h-100l63 157h141z" />
    <glyph glyph-name="Rcommaaccent" unicode="&#x156;" horiz-adv-x="556" 
d="M200 0h-137v705h222q107 0 170.5 -67t63.5 -188v-20q0 -80 -32 -135t-90 -81l118 -214h-150l-94 182h-71v-182zM268 573h-68v-260h68q115 0 115 119v20q0 121 -115 121zM268 -280h-77l42 206h140z" />
    <glyph glyph-name="rcommaaccent" unicode="&#x157;" horiz-adv-x="360" 
d="M323 568v-129q-140 11 -140 -130v-309h-130v562h122v-76q12 45 54.5 66.5t93.5 15.5zM87 -280h-77l42 206h140z" />
    <glyph glyph-name="Rcaron" unicode="&#x158;" horiz-adv-x="556" 
d="M200 0h-137v705h222q107 0 170.5 -67t63.5 -188v-20q0 -80 -32 -135t-90 -81l118 -214h-150l-94 182h-71v-182zM268 573h-68v-260h68q115 0 115 119v20q0 121 -115 121zM104 937h101l64 -76l64 76h102l-102 -155h-127z" />
    <glyph glyph-name="rcaron" unicode="&#x159;" horiz-adv-x="366" 
d="M323 568v-129q-140 11 -140 -130v-309h-130v562h122v-76q12 45 54.5 66.5t93.5 15.5zM22 788h101l64 -76l64 76h102l-102 -155h-127z" />
    <glyph glyph-name="Sacute" unicode="&#x15a;" horiz-adv-x="534" 
d="M366 201q0 31 -24.5 52.5t-61 32t-79 27t-79 36.5t-61 61.5t-24.5 100.5q0 96 62.5 151.5t166.5 55.5q102 0 165 -64t63 -172h-135q0 110 -95 110q-91 0 -91 -81q0 -38 34 -61t82.5 -37t97 -33t82.5 -63.5t34 -114.5q0 -99 -64.5 -156.5t-172.5 -57.5q-107 0 -172.5 66
t-65.5 178h136q0 -59 27.5 -87.5t74.5 -28.5q45 0 72.5 21.5t27.5 63.5zM302 781h-100l63 157h141z" />
    <glyph glyph-name="sacute" unicode="&#x15b;" horiz-adv-x="480" 
d="M239 572q102 0 156 -48.5t54 -143.5h-127q0 44 -21.5 62t-60.5 18q-34 0 -52.5 -14t-18.5 -40q0 -28 29.5 -46.5t71.5 -31t84 -29t71.5 -52.5t29.5 -90q0 -82 -54 -126t-156 -44q-101 0 -159 53t-58 146h130q0 -44 23.5 -66t63.5 -22q36 0 57.5 17.5t21.5 42.5
q0 26 -29 43.5t-71 30t-83.5 29.5t-70.5 53.5t-29 91.5q0 77 52.5 121.5t145.5 44.5zM288 632h-100l63 157h141z" />
    <glyph glyph-name="Scircumflex" unicode="&#x15c;" horiz-adv-x="534" 
d="M366 201q0 31 -24.5 52.5t-61 32t-79 27t-79 36.5t-61 61.5t-24.5 100.5q0 96 62.5 151.5t166.5 55.5q102 0 165 -64t63 -172h-135q0 110 -95 110q-91 0 -91 -81q0 -38 34 -61t82.5 -37t97 -33t82.5 -63.5t34 -114.5q0 -99 -64.5 -156.5t-172.5 -57.5q-107 0 -172.5 66
t-65.5 178h136q0 -59 27.5 -87.5t74.5 -28.5q45 0 72.5 21.5t27.5 63.5zM206 782h-101l102 155h127l102 -155h-102l-64 75z" />
    <glyph glyph-name="scircumflex" unicode="&#x15d;" horiz-adv-x="480" 
d="M239 572q102 0 156 -48.5t54 -143.5h-127q0 44 -21.5 62t-60.5 18q-34 0 -52.5 -14t-18.5 -40q0 -28 29.5 -46.5t71.5 -31t84 -29t71.5 -52.5t29.5 -90q0 -82 -54 -126t-156 -44q-101 0 -159 53t-58 146h130q0 -44 23.5 -66t63.5 -22q36 0 57.5 17.5t21.5 42.5
q0 26 -29 43.5t-71 30t-83.5 29.5t-70.5 53.5t-29 91.5q0 77 52.5 121.5t145.5 44.5zM180 632h-101l102 155h127l102 -155h-102l-64 75z" />
    <glyph glyph-name="Scedilla" unicode="&#x15e;" horiz-adv-x="534" 
d="M366 201q0 31 -24.5 52.5t-61 32t-79 27t-79 36.5t-61 61.5t-24.5 100.5q0 96 62.5 151.5t166.5 55.5q102 0 165 -64t63 -172h-135q0 110 -95 110q-91 0 -91 -81q0 -38 34 -61t82.5 -37t97 -33t82.5 -63.5t34 -114.5q0 -89 -52 -144.5t-141 -66.5l-36 -162h-140l88 163
q-89 13 -141.5 76.5t-52.5 163.5h136q0 -59 27.5 -87.5t74.5 -28.5q45 0 72.5 21.5t27.5 63.5z" />
    <glyph glyph-name="scedilla" unicode="&#x15f;" horiz-adv-x="480" 
d="M239 572q102 0 156 -48.5t54 -143.5h-127q0 44 -21.5 62t-60.5 18q-34 0 -52.5 -14t-18.5 -40q0 -28 29.5 -46.5t71.5 -31t84 -29t71.5 -52.5t29.5 -90q0 -72 -42 -115t-122 -52l-36 -161h-140l87 161q-82 11 -128 62t-46 134h130q0 -44 23.5 -66t63.5 -22
q36 0 57.5 17.5t21.5 42.5q0 26 -29 43.5t-71 30t-83.5 29.5t-70.5 53.5t-29 91.5q0 77 52.5 121.5t145.5 44.5z" />
    <glyph glyph-name="Scaron" unicode="&#x160;" horiz-adv-x="534" 
d="M366 201q0 31 -24.5 52.5t-61 32t-79 27t-79 36.5t-61 61.5t-24.5 100.5q0 96 62.5 151.5t166.5 55.5q102 0 165 -64t63 -172h-135q0 110 -95 110q-91 0 -91 -81q0 -38 34 -61t82.5 -37t97 -33t82.5 -63.5t34 -114.5q0 -99 -64.5 -156.5t-172.5 -57.5q-107 0 -172.5 66
t-65.5 178h136q0 -59 27.5 -87.5t74.5 -28.5q45 0 72.5 21.5t27.5 63.5zM105 937h101l64 -76l64 76h102l-102 -155h-127z" />
    <glyph glyph-name="scaron" unicode="&#x161;" horiz-adv-x="480" 
d="M239 572q102 0 156 -48.5t54 -143.5h-127q0 44 -21.5 62t-60.5 18q-34 0 -52.5 -14t-18.5 -40q0 -28 29.5 -46.5t71.5 -31t84 -29t71.5 -52.5t29.5 -90q0 -82 -54 -126t-156 -44q-101 0 -159 53t-58 146h130q0 -44 23.5 -66t63.5 -22q36 0 57.5 17.5t21.5 42.5
q0 26 -29 43.5t-71 30t-83.5 29.5t-70.5 53.5t-29 91.5q0 77 52.5 121.5t145.5 44.5zM74 787h101l64 -76l64 76h102l-102 -155h-127z" />
    <glyph glyph-name="Tcommaaccent" unicode="&#x162;" horiz-adv-x="447" 
d="M446 705v-133h-146v-572h-137v572h-145v133h428zM192 -280h-77l42 206h140z" />
    <glyph glyph-name="tcommaaccent" unicode="&#x163;" horiz-adv-x="348" 
d="M24 446q0 18 -0.5 53t-0.5 53q55 0 76.5 27t21.5 97h87v-115h103v-115h-103v-241q0 -52 14 -73.5t59 -21.5q20 0 32 2v-117q-25 -3 -47 -3q-107 0 -147.5 53t-40.5 163v238h-54zM184 -280h-77l42 206h140z" />
    <glyph glyph-name="Tcaron" unicode="&#x164;" horiz-adv-x="447" 
d="M446 705v-133h-146v-572h-137v572h-145v133h428zM62 937h101l64 -76l64 76h102l-102 -155h-127z" />
    <glyph glyph-name="tcaron" unicode="&#x165;" horiz-adv-x="351" 
d="M342 615h-89l40 173h126zM24 446q0 18 -0.5 53t-0.5 53q55 0 76.5 27t21.5 97h87v-115h103v-115h-103v-241q0 -52 14 -73.5t59 -21.5q20 0 32 2v-117q-25 -3 -47 -3q-107 0 -147.5 53t-40.5 163v238h-54z" />
    <glyph glyph-name="Tbar" unicode="&#x166;" horiz-adv-x="453" 
d="M446 705v-133h-146v-193h63v-50h-63v-329h-137v329h-60v50h60v193h-145v133h428z" />
    <glyph glyph-name="tbar" unicode="&#x167;" horiz-adv-x="348" 
d="M24 446q0 18 -0.5 53t-0.5 53q55 0 76.5 27t21.5 97h87v-115h103v-115h-103v-128h95v-50h-95v-63q0 -52 14 -73.5t59 -21.5q20 0 32 2v-117q-25 -3 -47 -3q-107 0 -147.5 53t-40.5 163v60h-54v50h54v128h-54z" />
    <glyph glyph-name="Utilde" unicode="&#x168;" horiz-adv-x="574" 
d="M385 228v477h137v-472q0 -111 -65 -177t-170 -66t-169.5 65.5t-64.5 177.5v472h137v-477q0 -55 27 -81t70 -26q42 0 70 26t28 81zM455 911v-104q-44 -31 -89 -31q-27 0 -75 16.5t-76 16.5q-46 0 -93 -31v105q46 27 90 27q27 0 75 -14t74 -14q49 0 94 29z" />
    <glyph glyph-name="utilde" unicode="&#x169;" horiz-adv-x="506" 
d="M334 188v374h131v-355q0 -100 -57 -158.5t-154 -58.5q-99 0 -155 58.5t-56 158.5v355h130v-374q0 -40 24.5 -60.5t56.5 -20.5q29 0 54.5 20.5t25.5 60.5zM422 760v-104q-44 -31 -89 -31q-27 0 -75 16.5t-76 16.5q-46 0 -93 -31v105q46 27 90 27q27 0 75 -14t74 -14
q49 0 94 29z" />
    <glyph glyph-name="Umacron" unicode="&#x16a;" horiz-adv-x="574" 
d="M385 228v477h137v-472q0 -111 -65 -177t-170 -66t-169.5 65.5t-64.5 177.5v472h137v-477q0 -55 27 -81t70 -26q42 0 70 26t28 81zM429 784h-283v93h283v-93z" />
    <glyph glyph-name="umacron" unicode="&#x16b;" horiz-adv-x="506" 
d="M334 188v374h131v-355q0 -100 -57 -158.5t-154 -58.5q-99 0 -155 58.5t-56 158.5v355h130v-374q0 -40 24.5 -60.5t56.5 -20.5q29 0 54.5 20.5t25.5 60.5zM394 634h-283v93h283v-93z" />
    <glyph glyph-name="Ubreve" unicode="&#x16c;" horiz-adv-x="574" 
d="M385 228v477h137v-472q0 -111 -65 -177t-170 -66t-169.5 65.5t-64.5 177.5v472h137v-477q0 -55 27 -81t70 -26q42 0 70 26t28 81zM132 926v14h101v-23q0 -25 15.5 -37.5t38.5 -12.5q22 0 38.5 12t16.5 37v24h101v-17q0 -69 -40.5 -106.5t-115.5 -37.5q-73 0 -114 40
t-41 107z" />
    <glyph glyph-name="ubreve" unicode="&#x16d;" horiz-adv-x="506" 
d="M334 188v374h131v-355q0 -100 -57 -158.5t-154 -58.5q-99 0 -155 58.5t-56 158.5v355h130v-374q0 -40 24.5 -60.5t56.5 -20.5q29 0 54.5 20.5t25.5 60.5zM100 775v14h101v-23q0 -25 15.5 -37.5t38.5 -12.5q22 0 38.5 12t16.5 37v24h101v-17q0 -69 -40.5 -106.5
t-115.5 -37.5q-73 0 -114 40t-41 107z" />
    <glyph glyph-name="Uring" unicode="&#x16e;" horiz-adv-x="574" 
d="M385 228v477h137v-472q0 -111 -65 -177t-170 -66t-169.5 65.5t-64.5 177.5v472h137v-477q0 -55 27 -81t70 -26q42 0 70 26t28 81zM379 868q0 -38 -26.5 -64.5t-63.5 -26.5t-63.5 26.5t-26.5 64.5t26.5 64t63.5 26t63.5 -26t26.5 -64zM317 869q0 12 -8 20t-19 8
q-12 0 -20.5 -8t-8.5 -20t8.5 -20.5t20.5 -8.5q11 0 19 8.5t8 20.5z" />
    <glyph glyph-name="uring" unicode="&#x16f;" horiz-adv-x="506" 
d="M338 188v374h131v-355q0 -100 -57 -158.5t-154 -58.5q-99 0 -155 58.5t-56 158.5v355h130v-374q0 -40 24.5 -60.5t56.5 -20.5q29 0 54.5 20.5t25.5 60.5zM348 718q0 -38 -26.5 -64.5t-63.5 -26.5t-63.5 26.5t-26.5 64.5t26 64t64 26t64 -26t26 -64zM286 719q0 12 -8 20
t-19 8q-12 0 -20.5 -8t-8.5 -20t8.5 -20.5t20.5 -8.5q11 0 19 8.5t8 20.5z" />
    <glyph glyph-name="Uhungarumlaut" unicode="&#x170;" horiz-adv-x="574" 
d="M385 228v477h137v-472q0 -111 -65 -177t-170 -66t-169.5 65.5t-64.5 177.5v472h137v-477q0 -55 27 -81t70 -26q42 0 70 26t28 81zM398 779h-75l52 148h105zM247 779h-76l52 148h106z" />
    <glyph glyph-name="uhungarumlaut" unicode="&#x171;" horiz-adv-x="506" 
d="M334 188v374h131v-355q0 -100 -57 -158.5t-154 -58.5q-99 0 -155 58.5t-56 158.5v355h130v-374q0 -40 24.5 -60.5t56.5 -20.5q29 0 54.5 20.5t25.5 60.5zM351 635h-75l52 148h105zM200 635h-76l52 148h106z" />
    <glyph glyph-name="Uogonek" unicode="&#x172;" horiz-adv-x="574" 
d="M385 228v477h137v-472q0 -91 -44.5 -152.5t-120.5 -81.5q-16 -23 -11.5 -46.5t34.5 -23.5q13 0 35 5v-106q-36 -8 -70 -8q-136 0 -136 121q0 22 9 58q-76 19 -120.5 80.5t-44.5 153.5v472h137v-477q0 -55 27 -81t70 -26q42 0 70 26t28 81z" />
    <glyph glyph-name="uogonek" unicode="&#x173;" horiz-adv-x="506" 
d="M334 188v374h131v-355q0 -80 -38 -134.5t-104 -72.5q-10 -16 -12.5 -32t6 -27.5t29.5 -11.5q13 0 35 5v-106q-36 -8 -70 -8q-136 0 -136 121q0 24 9 58q-68 19 -104.5 73t-36.5 135v355h130v-374q0 -40 24.5 -60.5t56.5 -20.5q29 0 54.5 20.5t25.5 60.5z" />
    <glyph glyph-name="Wcircumflex" unicode="&#x174;" horiz-adv-x="802" 
d="M166 0l-163 705h137l102 -460l98 460h122l98 -460l102 460h138l-164 -705h-140l-95 447l-95 -447h-140zM337 782h-101l102 155h127l102 -155h-102l-64 75z" />
    <glyph glyph-name="wcircumflex" unicode="&#x175;" horiz-adv-x="716" 
d="M149 0l-146 562h134l82 -353l82 353h114l82 -354l84 354h133l-147 -562h-130l-79 340l-79 -340h-130zM294 632h-101l102 155h127l102 -155h-102l-64 75z" />
    <glyph glyph-name="Ycircumflex" unicode="&#x176;" horiz-adv-x="536" 
d="M200 0v254l-197 451h143l123 -298l125 298h142l-199 -451v-254h-137zM207 782h-101l102 155h127l102 -155h-102l-64 75z" />
    <glyph glyph-name="ycircumflex" unicode="&#x177;" horiz-adv-x="480" 
d="M115 -192l60 193l-172 561h140l99 -364l99 364h139l-232 -754h-133zM181 632h-101l102 155h127l102 -155h-102l-64 75z" />
    <glyph glyph-name="Ydieresis" unicode="&#x178;" horiz-adv-x="536" 
d="M200 0v254l-197 451h143l123 -298l125 298h142l-199 -451v-254h-137zM421 838q0 -26 -17.5 -43.5t-43.5 -17.5q-25 0 -42.5 18t-17.5 43t17.5 43t42.5 18t43 -18t18 -43zM239 838q0 -26 -17.5 -43.5t-43.5 -17.5q-25 0 -42.5 18t-17.5 43t17.5 43t42.5 18t43 -18t18 -43z
" />
    <glyph glyph-name="Zacute" unicode="&#x179;" horiz-adv-x="459" 
d="M437 132v-132h-424l239 572h-215v133h404l-240 -573h236zM265 781h-100l63 157h141z" />
    <glyph glyph-name="zacute" unicode="&#x17a;" horiz-adv-x="421" 
d="M397 117v-117h-384l207 444h-187v118h371l-207 -445h200zM251 630h-100l63 157h141z" />
    <glyph glyph-name="Zdotaccent" unicode="&#x17b;" horiz-adv-x="459" 
d="M437 132v-132h-424l239 572h-215v133h404l-240 -573h236zM290 842q0 -26 -18.5 -44t-44.5 -18t-44 18t-18 44t18 44.5t44 18.5t44.5 -18.5t18.5 -44.5z" />
    <glyph glyph-name="zdotaccent" unicode="&#x17c;" horiz-adv-x="421" 
d="M397 117v-117h-384l207 444h-187v118h371l-207 -445h200zM267 690q0 -26 -18.5 -44t-44.5 -18t-44 18t-18 44t18 44.5t44 18.5t44.5 -18.5t18.5 -44.5z" />
    <glyph glyph-name="Zcaron" unicode="&#x17d;" horiz-adv-x="459" 
d="M437 132v-132h-424l239 572h-215v133h404l-240 -573h236zM74 937h101l64 -76l64 76h102l-102 -155h-127z" />
    <glyph glyph-name="zcaron" unicode="&#x17e;" horiz-adv-x="421" 
d="M397 117v-117h-384l207 444h-187v118h371l-207 -445h200zM51 786h101l64 -76l64 76h102l-102 -155h-127z" />
    <glyph glyph-name="florin" unicode="&#x192;" horiz-adv-x="347" 
d="M26 -210v117q54 0 54 65v472h-57v117h57q0 109 41 154t144 45q14 0 44 -2v-114q-64 6 -81.5 -13t-17.5 -70h99v-117h-99v-399q0 -59 -7.5 -102t-26 -79.5t-53.5 -55t-87 -18.5h-10z" />
    <glyph glyph-name="Scommaaccent" unicode="&#x218;" horiz-adv-x="534" 
d="M366 201q0 31 -24.5 52.5t-61 32t-79 27t-79 36.5t-61 61.5t-24.5 100.5q0 96 62.5 151.5t166.5 55.5q102 0 165 -64t63 -172h-135q0 110 -95 110q-91 0 -91 -81q0 -38 34 -61t82.5 -37t97 -33t82.5 -63.5t34 -114.5q0 -99 -64.5 -156.5t-172.5 -57.5q-107 0 -172.5 66
t-65.5 178h136q0 -59 27.5 -87.5t74.5 -28.5q45 0 72.5 21.5t27.5 63.5zM241 -280h-77l42 206h140z" />
    <glyph glyph-name="scommaaccent" unicode="&#x219;" horiz-adv-x="480" 
d="M239 572q102 0 156 -48.5t54 -143.5h-127q0 44 -21.5 62t-60.5 18q-34 0 -52.5 -14t-18.5 -40q0 -28 29.5 -46.5t71.5 -31t84 -29t71.5 -52.5t29.5 -90q0 -82 -54 -126t-156 -44q-101 0 -159 53t-58 146h130q0 -44 23.5 -66t63.5 -22q36 0 57.5 17.5t21.5 42.5
q0 26 -29 43.5t-71 30t-83.5 29.5t-70.5 53.5t-29 91.5q0 77 52.5 121.5t145.5 44.5zM218 -280h-77l42 206h140z" />
    <glyph glyph-name="circumflex" unicode="&#x2c6;" 
d="M213 582h-101l102 155h127l102 -155h-102l-64 75z" />
    <glyph glyph-name="caron" unicode="&#x2c7;" 
d="M112 737h101l64 -76l64 76h102l-102 -155h-127z" />
    <glyph glyph-name="breve" unicode="&#x2d8;" 
d="M114 726v14h101v-23q0 -25 15.5 -37.5t38.5 -12.5q22 0 38.5 12t16.5 37v24h101v-17q0 -69 -40.5 -106.5t-115.5 -37.5q-73 0 -114 40t-41 107z" />
    <glyph glyph-name="dotaccent" unicode="&#x2d9;" 
d="M327 642q0 -26 -18.5 -44t-44.5 -18t-44 18t-18 44t18 44.5t44 18.5t44.5 -18.5t18.5 -44.5z" />
    <glyph glyph-name="ring" unicode="&#x2da;" 
d="M358 668q0 -38 -26.5 -64.5t-63.5 -26.5t-63.5 26.5t-26.5 64.5t26 64t64 26t64 -26t26 -64zM296 669q0 12 -8 20t-19 8q-12 0 -20.5 -8t-8.5 -20t8.5 -20.5t20.5 -8.5q11 0 19 8.5t8 20.5z" />
    <glyph glyph-name="ogonek" unicode="&#x2db;" 
d="M192 2q-1 -6 -1 -18q0 -29 13.5 -41t41.5 -12q13 0 35 5v-106q-36 -8 -70 -8q-133 0 -133 121q0 31 7 59h107z" />
    <glyph glyph-name="tilde" unicode="&#x2dc;" 
d="M443 711v-104q-44 -31 -89 -31q-27 0 -75 16.5t-76 16.5q-46 0 -93 -31v105q46 27 90 27q27 0 75 -14t74 -14q49 0 94 29z" />
    <glyph glyph-name="hungarumlaut" unicode="&#x2dd;" 
d="M374 579h-75l52 148h105zM223 579h-76l52 148h106z" />
    <glyph glyph-name="pi" unicode="&#x3c0;" horiz-adv-x="629" 
d="M317 -9q-119 0 -191.5 71t-72.5 196v187q0 126 72.5 198.5t191.5 72.5q118 0 189 -72.5t71 -198.5v-187q0 -126 -70.5 -196.5t-189.5 -70.5zM317 41q96 0 153 57t57 160v187q0 103 -57 162t-153 59t-155 -59t-59 -162v-187q0 -102 58.5 -159.5t155.5 -57.5zM268 134h-92
v441h101q97 0 146 -37t49 -132v-12q0 -80 -40 -122t-114 -42h-50v-96zM303 487h-35v-169h39q38 0 56.5 17.5t18.5 61.5v8q0 46 -20 64t-59 18z" />
    <glyph glyph-name="Bdotaccent" unicode="&#x1e02;" horiz-adv-x="555" 
d="M63 0v705h214q107 0 169.5 -48.5t62.5 -143.5v-10q0 -111 -88 -149q95 -42 95 -152v-9q0 -95 -62.5 -144t-169.5 -49h-221zM200 131h79q47 0 74 17.5t27 64.5v11q0 76 -96 76h-84v-169zM200 407h84q89 0 89 80v11q0 75 -101 75h-72v-166zM327 852q0 -26 -18.5 -44
t-44.5 -18t-44 18t-18 44t18 44.5t44 18.5t44.5 -18.5t18.5 -44.5z" />
    <glyph glyph-name="bdotaccent" unicode="&#x1e03;" horiz-adv-x="511" 
d="M307 -9q-53 0 -88.5 24t-44.5 46v-61h-122v755h130v-244q4 6 13 15.5t41 25.5t71 16q79 0 123 -51t44 -155v-164q0 -105 -44 -156t-123 -51zM262 107q37 0 59 25.5t22 75.5v143q0 50 -21.5 75t-59.5 25q-36 0 -58 -24.5t-22 -72.5v-146q0 -50 21.5 -75.5t58.5 -25.5z
M365 676q0 -26 -18.5 -44t-44.5 -18t-44 18t-18 44t18 44.5t44 18.5t44.5 -18.5t18.5 -44.5z" />
    <glyph glyph-name="Ddotaccent" unicode="&#x1e0a;" horiz-adv-x="575" 
d="M293 0h-230v705h230q108 0 171.5 -66t63.5 -192v-186q0 -125 -64 -193t-171 -68zM277 573h-77v-442h77q56 0 85.5 34t29.5 130v137q0 66 -24.5 103.5t-90.5 37.5zM334 840q0 -26 -18.5 -44t-44.5 -18t-44 18t-18 44t18 44.5t44 18.5t44.5 -18.5t18.5 -44.5z" />
    <glyph glyph-name="ddotaccent" unicode="&#x1e0b;" horiz-adv-x="511" 
d="M205 -9q-79 0 -123 51t-44 156v164q0 104 44 155t123 51q39 0 69.5 -14t41.5 -28l12 -15v244h132v-755h-122v61q-9 -22 -44.5 -46t-88.5 -24zM250 107q37 0 58.5 25.5t21.5 75.5v146q0 48 -22 72.5t-58 24.5q-38 0 -59.5 -25t-21.5 -75v-143q0 -50 22 -75.5t59 -25.5z
M268 674q0 -26 -18.5 -44t-44.5 -18t-44 18t-18 44t18 44.5t44 18.5t44.5 -18.5t18.5 -44.5z" />
    <glyph glyph-name="Fdotaccent" unicode="&#x1e1e;" horiz-adv-x="459" 
d="M430 705v-133h-240v-160h175v-120h-175v-290h-137v703h377zM309 843q0 -26 -18.5 -44t-44.5 -18t-44 18t-18 44t18 44.5t44 18.5t44.5 -18.5t18.5 -44.5z" />
    <glyph glyph-name="fdotaccent" unicode="&#x1e1f;" horiz-adv-x="337" 
d="M268 887q0 -26 -18.5 -44t-44.5 -18t-44 18t-18 44t18 44.5t44 18.5t44.5 -18.5t18.5 -44.5zM309 755v-113q-56 9 -77.5 -9.5t-21.5 -71.5h98v-115h-98v-446h-131v446h-56v115h56q1 106 41.5 151.5t138.5 45.5q17 0 50 -3z" />
    <glyph glyph-name="Mdotaccent" unicode="&#x1e40;" horiz-adv-x="710" 
d="M418 842q0 -26 -18.5 -44t-44.5 -18t-44 18t-18 44t18 44.5t44 18.5t44.5 -18.5t18.5 -44.5zM308 132l-108 263v-395h-137v705h136l156 -391l156 391h136v-705h-137v397l-109 -265h-93z" />
    <glyph glyph-name="mdotaccent" unicode="&#x1e41;" horiz-adv-x="753" 
d="M183 378v-378h-130v562h122v-58q5 11 16 23.5t38.5 26.5t61.5 14q93 0 132 -77q16 30 51 53.5t87 23.5q149 0 149 -197v-371h-131v376q0 40 -18.5 58.5t-47.5 18.5q-28 0 -47 -19t-19 -56v-378h-131v376q0 77 -67 77q-28 0 -47 -18.5t-19 -56.5zM456 691q0 -26 -18.5 -44
t-44.5 -18t-44 18t-18 44t18 44.5t44 18.5t44.5 -18.5t18.5 -44.5z" />
    <glyph glyph-name="Pdotaccent" unicode="&#x1e56;" horiz-adv-x="556" 
d="M200 0h-137v705h219q106 0 171.5 -67.5t65.5 -188.5v-28q0 -121 -65 -187t-172 -66h-82v-168zM268 573h-68v-274h68q51 0 83.5 28.5t32.5 94.5v26q0 125 -116 125zM326 841q0 -26 -18.5 -44t-44.5 -18t-44 18t-18 44t18 44.5t44 18.5t44.5 -18.5t18.5 -44.5z" />
    <glyph glyph-name="pdotaccent" unicode="&#x1e57;" horiz-adv-x="516" 
d="M308 571q79 0 123 -51t44 -156v-164q0 -104 -44 -155t-123 -51q-39 0 -69.5 14t-42.5 28l-11 15v-244h-132v755h122v-61q9 22 44.5 46t88.5 24zM263 455q-37 0 -58.5 -25.5t-21.5 -75.5v-146q0 -48 22 -72.5t58 -24.5q38 0 59.5 25t21.5 75v143q0 50 -22 75.5t-59 25.5z
M332 690q0 -26 -18.5 -44t-44.5 -18t-44 18t-18 44t18 44.5t44 18.5t44.5 -18.5t18.5 -44.5z" />
    <glyph glyph-name="Sdotaccent" unicode="&#x1e60;" horiz-adv-x="534" 
d="M366 201q0 31 -24.5 52.5t-61 32t-79 27t-79 36.5t-61 61.5t-24.5 100.5q0 96 62.5 151.5t166.5 55.5q102 0 165 -64t63 -172h-135q0 110 -95 110q-91 0 -91 -81q0 -38 34 -61t82.5 -37t97 -33t82.5 -63.5t34 -114.5q0 -99 -64.5 -156.5t-172.5 -57.5q-107 0 -172.5 66
t-65.5 178h136q0 -59 27.5 -87.5t74.5 -28.5q45 0 72.5 21.5t27.5 63.5zM313 839q0 -26 -18.5 -44t-44.5 -18t-44 18t-18 44t18 44.5t44 18.5t44.5 -18.5t18.5 -44.5z" />
    <glyph glyph-name="sdotaccent" unicode="&#x1e61;" horiz-adv-x="480" 
d="M239 572q102 0 156 -48.5t54 -143.5h-127q0 44 -21.5 62t-60.5 18q-34 0 -52.5 -14t-18.5 -40q0 -28 29.5 -46.5t71.5 -31t84 -29t71.5 -52.5t29.5 -90q0 -82 -54 -126t-156 -44q-101 0 -159 53t-58 146h130q0 -44 23.5 -66t63.5 -22q36 0 57.5 17.5t21.5 42.5
q0 26 -29 43.5t-71 30t-83.5 29.5t-70.5 53.5t-29 91.5q0 77 52.5 121.5t145.5 44.5zM305 692q0 -26 -18.5 -44t-44.5 -18t-44 18t-18 44t18 44.5t44 18.5t44.5 -18.5t18.5 -44.5z" />
    <glyph glyph-name="Tdotaccent" unicode="&#x1e6a;" horiz-adv-x="447" 
d="M446 705v-133h-146v-572h-137v572h-145v133h428zM279 842q0 -26 -18.5 -44t-44.5 -18t-44 18t-18 44t18 44.5t44 18.5t44.5 -18.5t18.5 -44.5z" />
    <glyph glyph-name="tdotaccent" unicode="&#x1e6b;" horiz-adv-x="348" 
d="M24 446q0 18 -0.5 53t-0.5 53q55 0 76.5 27t21.5 97h87v-115h103v-115h-103v-241q0 -52 14 -73.5t59 -21.5q20 0 32 2v-117q-25 -3 -47 -3q-107 0 -147.5 53t-40.5 163v238h-54zM236 806q0 -26 -18.5 -44t-44.5 -18t-44 18t-18 44t18 44.5t44 18.5t44.5 -18.5t18.5 -44.5
z" />
    <glyph glyph-name="Wgrave" unicode="&#x1e80;" horiz-adv-x="802" 
d="M166 0l-163 705h137l102 -460l98 460h122l98 -460l102 460h138l-164 -705h-140l-95 447l-95 -447h-140zM439 781h-101l-103 157h140z" />
    <glyph glyph-name="wgrave" unicode="&#x1e81;" horiz-adv-x="716" 
d="M149 0l-146 562h134l82 -353l82 353h114l82 -354l84 354h133l-147 -562h-130l-79 340l-79 -340h-130zM400 628h-101l-103 157h140z" />
    <glyph glyph-name="Wacute" unicode="&#x1e82;" horiz-adv-x="802" 
d="M166 0l-163 705h137l102 -460l98 460h122l98 -460l102 460h138l-164 -705h-140l-95 447l-95 -447h-140zM445 781h-100l63 157h141z" />
    <glyph glyph-name="wacute" unicode="&#x1e83;" horiz-adv-x="716" 
d="M149 0l-146 562h134l82 -353l82 353h114l82 -354l84 354h133l-147 -562h-130l-79 340l-79 -340h-130zM406 632h-100l63 157h141z" />
    <glyph glyph-name="Wdieresis" unicode="&#x1e84;" horiz-adv-x="802" 
d="M166 0l-163 705h137l102 -460l98 460h122l98 -460l102 460h138l-164 -705h-140l-95 447l-95 -447h-140zM554 838q0 -26 -18 -43.5t-43 -17.5t-42.5 18t-17.5 43t17.5 43t42.5 18t43 -18t18 -43zM372 838q0 -26 -18 -43.5t-43 -17.5t-42.5 18t-17.5 43t17.5 43t42.5 18
t43 -18t18 -43z" />
    <glyph glyph-name="wdieresis" unicode="&#x1e85;" horiz-adv-x="716" 
d="M149 0l-146 562h134l82 -353l82 353h114l82 -354l84 354h133l-147 -562h-130l-79 340l-79 -340h-130zM511 689q0 -25 -17.5 -43t-43.5 -18q-25 0 -42.5 18t-17.5 43t17.5 43t42.5 18t43 -18t18 -43zM329 689q0 -25 -17.5 -43t-43.5 -18q-25 0 -42.5 18t-17.5 43t17.5 43
t42.5 18t43 -18t18 -43z" />
    <glyph glyph-name="Ygrave" unicode="&#x1ef2;" horiz-adv-x="536" 
d="M200 0v254l-197 451h143l123 -298l125 298h142l-199 -451v-254h-137zM328 781h-101l-103 157h140z" />
    <glyph glyph-name="ygrave" unicode="&#x1ef3;" horiz-adv-x="480" 
d="M115 -192l60 193l-172 561h140l99 -364l99 364h139l-232 -754h-133zM290 623h-101l-103 157h140z" />
    <glyph glyph-name="endash" unicode="&#x2013;" horiz-adv-x="399" 
d="M366 233h-333v103h333v-103z" />
    <glyph glyph-name="emdash" unicode="&#x2014;" horiz-adv-x="522" 
d="M489 233h-456v103h456v-103z" />
    <glyph glyph-name="quoteleft" unicode="&#x2018;" horiz-adv-x="278" 
d="M154 706h101l-91 -331h-141z" />
    <glyph glyph-name="quoteright" unicode="&#x2019;" horiz-adv-x="277" 
d="M123 375h-100l90 331h141z" />
    <glyph glyph-name="quotesinglbase" unicode="&#x201a;" horiz-adv-x="273" 
d="M93 -128h-100l90 323h141z" />
    <glyph glyph-name="quotedblleft" unicode="&#x201c;" horiz-adv-x="485" 
d="M154 706h101l-91 -331h-141zM361 706h101l-91 -331h-141z" />
    <glyph glyph-name="quotedblright" unicode="&#x201d;" horiz-adv-x="484" 
d="M330 375h-100l90 331h141zM123 375h-100l90 331h141z" />
    <glyph glyph-name="quotedblbase" unicode="&#x201e;" horiz-adv-x="464" 
d="M305 -131h-100l90 323h141zM98 -131h-100l90 323h141z" />
    <glyph glyph-name="dagger" unicode="&#x2020;" horiz-adv-x="412" 
d="M376 475h-121v-526h-102v526h-120v87h120v197h102v-197h121v-87z" />
    <glyph glyph-name="daggerdbl" unicode="&#x2021;" horiz-adv-x="410" 
d="M374 306h-119v-357h-102v357h-120v87h120v82h-120v87h120v197h102v-197h119v-87h-119v-82h119v-87z" />
    <glyph glyph-name="bullet" unicode="&#x2022;" horiz-adv-x="471" 
d="M236 88q-92 0 -142.5 54t-50.5 150v6q0 93 51 147.5t142 54.5q89 0 140.5 -54.5t51.5 -147.5v-6q0 -95 -51 -149.5t-141 -54.5z" />
    <glyph glyph-name="ellipsis" unicode="&#x2026;" horiz-adv-x="707" 
d="M669 71q0 -33 -23.5 -56t-56.5 -23t-56 23t-23 56t23 56.5t56 23.5t56.5 -23.5t23.5 -56.5zM433 71q0 -33 -23.5 -56t-56.5 -23t-56 23t-23 56t23 56.5t56 23.5t56.5 -23.5t23.5 -56.5zM196 71q0 -33 -23 -56t-56 -23t-56 23t-23 56t23 56.5t56 23.5t56 -23.5t23 -56.5z
" />
    <glyph glyph-name="perthousand" unicode="&#x2030;" horiz-adv-x="1599" 
d="M1355 -8q-94 0 -146.5 59t-52.5 163v41q0 102 52.5 161t146.5 59q92 0 145.5 -59.5t53.5 -160.5v-41q0 -103 -53 -162.5t-146 -59.5zM1355 358q-76 0 -76 -103v-43q0 -103 76 -103t76 103v43q0 103 -76 103zM891 -8q-94 0 -146.5 59t-52.5 163v41q0 102 52.5 161
t146.5 59q93 0 146.5 -59.5t53.5 -160.5v-41q0 -103 -53.5 -162.5t-146.5 -59.5zM891 358q-76 0 -76 -103v-43q0 -103 76 -103t76 103v43q0 103 -76 103zM728 759l-202 -810h-125l202 810h125zM237 232q-95 0 -147 59.5t-52 163.5v40q0 102 52.5 161t146.5 59
q92 0 145.5 -59.5t53.5 -160.5v-40q0 -104 -53 -163.5t-146 -59.5zM237 598q-76 0 -76 -103v-43q0 -103 76 -103t76 103v43q0 103 -76 103z" />
    <glyph glyph-name="guilsinglleft" unicode="&#x2039;" horiz-adv-x="296" 
d="M163 489h100l-90 -203l90 -203h-100l-130 203z" />
    <glyph glyph-name="guilsinglright" unicode="&#x203a;" horiz-adv-x="296" 
d="M33 489h100l130 -203l-130 -203h-100l90 203z" />
    <glyph glyph-name="Euro" unicode="&#x20ac;" horiz-adv-x="580" 
d="M23 430h59v44q0 108 65.5 176t169.5 68q114 0 174 -75t60 -200h-137q0 143 -97 143q-42 0 -70 -26.5t-28 -81.5v-48h99v-51h-99v-58h99v-51h-99v-45q0 -109 97 -109q48 0 73 32.5t25 107.5h137q0 -122 -60.5 -196t-173.5 -74q-104 0 -169.5 68t-65.5 175v41h-59v51h59v58
h-59v51z" />
    <glyph glyph-name="trademark" unicode="&#x2122;" horiz-adv-x="727" 
d="M273 705v-78h-80v-285h-81v285h-79v78h240zM463 387l-61 137v-182h-82v363h81l90 -208l90 208h80v-363h-81v183l-62 -138h-55z" />
    <glyph glyph-name="minus" unicode="&#x2212;" horiz-adv-x="504" 
d="M440 294h-397v119h397v-119z" />
    <glyph glyph-name="notequal" unicode="&#x2260;" horiz-adv-x="759" 
d="M106 589q41 -33 81.5 -44t77 -4.5t74 20t79.5 26t86 18t100 -8t115 -48.5q-31 -112 -55 -225.5t-32 -170.5l-8 -58q-48 44 -99 56t-94.5 3.5t-85.5 -18.5t-87 -3.5t-84 42.5l31 -169l-28 -5l-113 616l28 1l60 -328zM415 322l-36 31q35 49 12 99q-17 36 -54 49.5t-73 -3.5
q-12 -6 -17 -10l6 3q29 14 60 2.5t45 -40.5q19 -41 -6 -77l-44 38l34 40l-54 9l-60 -71l35 -30l29 34l45 -37q-6 -6 -18 -11q-35 -17 -69 1q-12 7 -19 14l-12 -14l-29 -34l18 -15l28 32q49 -37 105 -11q14 7 22 15l37 -32zM100 636q2 -9 -7 -10l-33 -6q-9 -2 -10 7q-1 7 7 9
l10 2q-2 6 -12.5 10.5t-12.5 17.5q-2 11 2.5 32.5t4.5 29.5q-9 3 -9 13q0 14 14 14q5 0 9.5 -4t4.5 -10q0 -4 -4 -10q3 -7 15.5 -25.5t14.5 -30.5q3 -13 -5.5 -20.5t-7.5 -13.5l9 2q8 2 10 -7z" />
    <glyph glyph-name="commaaccent" 
d="M211 -280h-77l42 206h140z" />
    <glyph glyph-name="a.salt" horiz-adv-x="501" 
d="M459 0h-122v66q-10 -22 -47 -48t-98 -26q-69 0 -117 39.5t-48 122.5q0 59 31 96t75 52t88.5 25.5t75.5 27t31 45.5q0 30 -21 46t-56 16q-36 0 -61.5 -20.5t-25.5 -64.5h-125q0 195 214 195q97 0 151.5 -48.5t54.5 -149.5v-374zM330 207l-1 69q-18 -16 -50 -28t-57.5 -18
t-45 -23t-19.5 -43q0 -63 76 -63q48 0 72.5 30t24.5 76z" />
    </font>
</defs>
</svg>
