<svg width="74" height="51" viewBox="0 0 74 51" fill="none" xmlns="http://www.w3.org/2000/svg">
<path d="M48.4973 51C62.582 51 74 39.5833 74 25.5C74 11.4167 62.582 0 48.4973 0C34.4125 0 22.9945 11.4167 22.9945 25.5C22.9945 39.5833 34.4125 51 48.4973 51Z" fill="white"/>
<path fill-rule="evenodd" clip-rule="evenodd" d="M50.0294 49.0801H47.1231V9.6499C47.1225 9.52331 47.0971 9.39825 47.0482 9.2815C46.9992 9.16474 46.9278 9.05863 46.8379 8.96948C46.748 8.88034 46.6414 8.80992 46.5243 8.76196C46.4071 8.714 46.2816 8.68942 46.155 8.68994H37.116C36.9894 8.68942 36.8639 8.714 36.7468 8.76196C36.6296 8.80992 36.523 8.88034 36.4331 8.96948C36.3432 9.05863 36.2718 9.16474 36.2228 9.2815C36.1739 9.39825 36.1484 9.52331 36.1479 9.6499V49.0801H30.9823V24.3999C30.9818 24.2733 30.9564 24.1483 30.9075 24.0315C30.8585 23.9147 30.7871 23.8086 30.6972 23.7195C30.6073 23.6303 30.5006 23.5599 30.3835 23.512C30.2663 23.464 30.1408 23.4394 30.0142 23.4399H20.9753C20.8487 23.4394 20.7232 23.464 20.606 23.512C20.4889 23.5599 20.3822 23.6303 20.2924 23.7195C20.2025 23.8086 20.131 23.9147 20.0821 24.0315C20.0331 24.1483 20.0077 24.2733 20.0072 24.3999V49.0801H14.8416V38.5C14.8411 38.3734 14.8156 38.2481 14.7667 38.1314C14.7177 38.0146 14.6463 37.9087 14.5564 37.8196C14.4665 37.7304 14.3599 37.6598 14.2427 37.6118C14.1256 37.5639 14.0001 37.5395 13.8735 37.54H4.83451C4.57872 37.539 4.33298 37.6393 4.15127 37.8193C3.96955 37.9993 3.86673 38.2442 3.86541 38.5V49.0801H0.960126C0.70549 49.0801 0.461274 49.1811 0.281219 49.3611C0.101165 49.5411 0 49.7854 0 50.04C0 50.2947 0.101165 50.5387 0.281219 50.7188C0.461274 50.8988 0.70549 51 0.960126 51H50.0294C50.1555 51 50.2803 50.9753 50.3968 50.927C50.5133 50.8788 50.6191 50.8079 50.7083 50.7188C50.7975 50.6296 50.8682 50.5239 50.9164 50.4075C50.9647 50.291 50.9895 50.1661 50.9895 50.04C50.9895 49.914 50.9647 49.7891 50.9164 49.6726C50.8682 49.5561 50.7975 49.4502 50.7083 49.3611C50.6191 49.2719 50.5133 49.2013 50.3968 49.1531C50.2803 49.1048 50.1555 49.0801 50.0294 49.0801ZM38.0851 10.6201H45.1859V49.0801H38.0851V10.6201ZM21.9433 25.3601H29.0442V49.0801H21.9433V25.3601ZM5.80263 39.46H12.9034V49.0801H5.80263V39.46ZM1.60216 31.1299C1.85823 31.1306 2.10418 31.0301 2.28626 30.8501L29.0421 4.28003V8.37012C29.0421 8.62685 29.1441 8.87291 29.3257 9.05444C29.5072 9.23598 29.7535 9.33789 30.0103 9.33789C30.267 9.33789 30.5132 9.23598 30.6948 9.05444C30.8763 8.87291 30.9783 8.62685 30.9783 8.37012V1.95996C30.9775 1.83981 30.9534 1.7211 30.9073 1.61011C30.8584 1.49126 30.7866 1.38319 30.6958 1.29224C30.605 1.20128 30.497 1.1292 30.3783 1.08008C30.2623 1.02867 30.1371 1.00138 30.0103 1H23.5536C23.2989 1 23.0547 1.10122 22.8747 1.28125C22.6946 1.46128 22.5934 1.70535 22.5934 1.95996C22.5934 2.21457 22.6946 2.45888 22.8747 2.63892C23.0547 2.81895 23.2989 2.91992 23.5536 2.91992H27.673L0.918129 29.49C0.828261 29.579 0.756892 29.6848 0.708206 29.8015C0.659521 29.9182 0.634468 30.0435 0.634468 30.1699C0.634468 30.2964 0.659521 30.4216 0.708206 30.5383C0.756892 30.6551 0.828261 30.7611 0.918129 30.8501C1.10137 31.0308 1.34881 31.1313 1.60619 31.1299H1.60216Z" fill="#00358E"/>
</svg>
