<svg width="67" height="51" viewBox="0 0 67 51" fill="none" xmlns="http://www.w3.org/2000/svg">
<path d="M41.5 51C55.5833 51 67 39.5833 67 25.5001C67 11.4168 55.5833 0.00012207 41.5 0.00012207C27.4167 0.00012207 16 11.4168 16 25.5001C16 39.5833 27.4167 51 41.5 51Z" fill="white"/>
<path fill-rule="evenodd" clip-rule="evenodd" d="M43.73 23.61C43.5698 23.469 43.3608 23.3963 43.1477 23.4075C42.9346 23.4187 42.7344 23.513 42.59 23.6701L35.84 31.03L32.48 27.76C32.3274 27.613 32.1227 27.5326 31.9109 27.5364C31.699 27.5401 31.4973 27.6277 31.35 27.78C31.2747 27.8529 31.2151 27.9402 31.1747 28.0369C31.1343 28.1335 31.1139 28.2374 31.1149 28.3422C31.1158 28.4469 31.138 28.5504 31.1802 28.6462C31.2223 28.7421 31.2835 28.8285 31.36 28.9L35.3101 32.75C35.3836 32.8234 35.4709 32.8815 35.567 32.921C35.6631 32.9605 35.7661 32.9805 35.87 32.98H35.9C36.1164 32.97 36.3205 32.8768 36.47 32.72L43.78 24.74C43.8517 24.6629 43.9072 24.5723 43.9435 24.4735C43.9798 24.3747 43.9961 24.2697 43.9915 24.1646C43.9868 24.0594 43.9613 23.9562 43.9164 23.861C43.8715 23.7658 43.8081 23.6805 43.73 23.61ZM37.62 44.14L42.12 39.66C42.1959 39.5868 42.2562 39.499 42.2975 39.402C42.3387 39.3049 42.36 39.2004 42.36 39.095C42.36 38.9895 42.3387 38.8851 42.2975 38.7881C42.2562 38.691 42.1959 38.6032 42.12 38.53C41.9677 38.381 41.7631 38.2975 41.55 38.2975C41.337 38.2975 41.1323 38.381 40.98 38.53L36.48 43.01L31.98 38.53C31.8277 38.381 31.6231 38.2975 31.41 38.2975C31.1969 38.2975 30.9923 38.381 30.84 38.53C30.6904 38.68 30.6063 38.8831 30.6063 39.095C30.6063 39.3068 30.6904 39.51 30.84 39.66L35.34 44.14L30.8101 48.64C30.7359 48.7145 30.6773 48.803 30.6376 48.9003C30.5979 48.9977 30.5779 49.1019 30.5789 49.207C30.5798 49.3121 30.6015 49.416 30.6429 49.5126C30.6843 49.6093 30.7445 49.6968 30.8199 49.77C30.9711 49.9174 31.1739 50 31.385 50C31.5961 50 31.7988 49.9174 31.95 49.77L36.48 45.27L41.01 49.77C41.1634 49.917 41.3675 49.9994 41.58 50C41.7921 49.9975 41.9956 49.9154 42.15 49.77C42.2996 49.62 42.3837 49.4167 42.3837 49.2049C42.3837 48.9931 42.2996 48.7899 42.15 48.64L37.62 44.14ZM27.9 30.3199C28.1122 30.3199 28.3157 30.2357 28.4657 30.0857C28.6157 29.9357 28.7 29.7322 28.7 29.52C28.7 29.3079 28.6157 29.1044 28.4657 28.9544C28.3157 28.8043 28.1122 28.72 27.9 28.72C26.9403 28.7554 26.0338 29.1703 25.3795 29.8733C24.7252 30.5763 24.3765 31.5101 24.41 32.47V41.4599C24.3765 42.4198 24.7252 43.3537 25.3795 44.0567C26.0338 44.7598 26.9403 45.1745 27.9 45.2099C28.1122 45.2099 28.3157 45.1257 28.4657 44.9757C28.6157 44.8256 28.7 44.6222 28.7 44.41C28.6994 44.3056 28.6783 44.2022 28.6378 44.1059C28.5973 44.0097 28.5382 43.9224 28.4639 43.849C28.3896 43.7756 28.3015 43.7176 28.2047 43.6783C28.1079 43.639 28.0045 43.6192 27.9 43.62C27.3653 43.5802 26.8678 43.3311 26.5157 42.9266C26.1637 42.5221 25.9856 41.995 26.02 41.4599V32.47C25.986 31.936 26.1645 31.4103 26.5167 31.0074C26.8689 30.6046 27.3663 30.3574 27.9 30.3199ZM20.39 41.17H1.62C1.76268 38.4052 2.58535 35.7184 4.01501 33.3477C5.44468 30.9769 7.4372 28.9955 9.81592 27.5791C12.1946 26.1628 14.8861 25.3552 17.6516 25.228C20.4171 25.1009 23.1714 25.6579 25.67 26.85C25.7644 26.8973 25.8671 26.9252 25.9724 26.9321C26.0777 26.9391 26.1833 26.9249 26.283 26.8904C26.3827 26.8559 26.4745 26.8019 26.553 26.7315C26.6315 26.661 26.695 26.5754 26.74 26.48C26.7868 26.3864 26.8144 26.2843 26.821 26.1798C26.8277 26.0754 26.8134 25.9707 26.7789 25.8718C26.7444 25.773 26.6905 25.6821 26.6202 25.6045C26.55 25.5269 26.4649 25.4642 26.37 25.4201C23.5682 24.0765 20.4719 23.464 17.3696 23.6395C14.2673 23.8151 11.26 24.7731 8.62769 26.4242C5.99537 28.0753 3.82375 30.3657 2.31519 33.0821C0.806619 35.7986 0.010152 38.8527 0 41.9599C0 42.1721 0.0843459 42.3756 0.234375 42.5256C0.384404 42.6756 0.587876 42.76 0.800049 42.76H20.39C20.6022 42.76 20.8057 42.6756 20.9557 42.5256C21.1057 42.3756 21.1899 42.1721 21.1899 41.9599C21.1894 41.8555 21.1683 41.7522 21.1278 41.656C21.0873 41.5597 21.0282 41.4724 20.9539 41.399C20.8795 41.3256 20.7916 41.2675 20.6948 41.2282C20.5981 41.1889 20.4945 41.1692 20.39 41.17ZM18.77 7.54971e-05C16.67 0.0198134 14.6228 0.660554 12.8862 1.84162C11.1497 3.02269 9.80148 4.69129 9.01147 6.63714C8.22147 8.583 8.02501 10.7191 8.44678 12.7764C8.86855 14.8337 9.88978 16.7202 11.3817 18.1983C12.8736 19.6763 14.7695 20.6798 16.8307 21.0823C18.8919 21.4848 21.0261 21.2684 22.9645 20.4602C24.9029 19.6521 26.5587 18.2883 27.7235 16.5408C28.8883 14.7933 29.5099 12.7402 29.51 10.6401C29.4941 7.80572 28.3543 5.09352 26.3407 3.0987C24.3271 1.10388 21.6044 -0.0105648 18.77 7.54971e-05ZM18.77 19.6801C16.986 19.6623 15.2472 19.117 13.7725 18.1129C12.2977 17.1089 11.153 15.691 10.4825 14.0376C9.81211 12.3843 9.64585 10.5696 10.0048 8.82195C10.3637 7.07434 11.2317 5.47202 12.4995 4.21674C13.7673 2.96146 15.3782 2.10935 17.1293 1.76777C18.8804 1.42619 20.6934 1.61041 22.34 2.29719C23.9866 2.98397 25.3932 4.14253 26.3826 5.62714C27.372 7.11174 27.8999 8.85598 27.9 10.6401C27.886 13.0489 26.9167 15.3537 25.205 17.0486C23.4932 18.7435 21.1789 19.6899 18.77 19.6801Z" fill="#00358E"/>
</svg>
