<svg width="66" height="51" viewBox="0 0 66 51" fill="none" xmlns="http://www.w3.org/2000/svg">
<path d="M40.5 51C54.5833 51 66 39.5833 66 25.5C66 11.4167 54.5833 0 40.5 0C26.4167 0 15 11.4167 15 25.5C15 39.5833 26.4167 51 40.5 51Z" fill="white"/>
<path fill-rule="evenodd" clip-rule="evenodd" d="M33 33.16C28.858 33.1809 24.8938 34.8452 21.9782 37.7871C19.0625 40.7291 17.4337 44.7082 17.45 48.8501C17.4489 49.0006 17.4776 49.1498 17.5344 49.2891C17.5912 49.4284 17.6749 49.555 17.7809 49.6619C17.8868 49.7688 18.0129 49.8536 18.1517 49.9117C18.2906 49.9697 18.4395 49.9998 18.59 50H47.41C47.5605 49.9998 47.7094 49.9697 47.8483 49.9117C47.9871 49.8536 48.1132 49.7688 48.2191 49.6619C48.3251 49.555 48.4088 49.4284 48.4656 49.2891C48.5224 49.1498 48.5511 49.0006 48.55 48.8501C48.5663 44.7082 46.9375 40.7291 44.0219 37.7871C41.1062 34.8452 37.142 33.1809 33 33.16ZM19.77 47.7C20.0292 44.3702 21.535 41.2607 23.9866 38.9925C26.4382 36.7243 29.6551 35.4644 32.995 35.4644C36.3349 35.4644 39.5519 36.7243 42.0035 38.9925C44.4551 41.2607 45.9608 44.3702 46.22 47.7H19.77ZM33 30.8601C34.5931 30.874 36.1544 30.4141 37.4857 29.5391C38.8171 28.6641 39.8584 27.4134 40.4777 25.9456C41.0969 24.4778 41.2663 22.8592 40.964 21.295C40.6617 19.7308 39.9015 18.2916 38.7799 17.1602C37.6583 16.0288 36.2259 15.2559 34.6644 14.94C33.1029 14.624 31.4828 14.7791 30.0096 15.3855C28.5364 15.992 27.2766 17.0223 26.39 18.346C25.5034 19.6696 25.0301 21.227 25.03 22.8201C25.0213 24.943 25.8559 26.9823 27.3505 28.49C28.845 29.9977 30.8771 30.8504 33 30.8601ZM33 17.0801C34.1373 17.0702 35.252 17.3983 36.2025 18.023C37.153 18.6477 37.8965 19.5407 38.3386 20.5887C38.7807 21.6366 38.9016 22.7923 38.6858 23.909C38.47 25.0257 37.9272 26.0531 37.1265 26.8609C36.3257 27.6686 35.3032 28.2203 34.1884 28.4458C33.0736 28.6714 31.9169 28.5607 30.8651 28.1277C29.8134 27.6948 28.914 26.9592 28.281 26.0142C27.6481 25.0692 27.3101 23.9575 27.3101 22.8201C27.3039 21.3046 27.8998 19.8486 28.9668 18.7723C30.0338 17.6959 31.4844 17.0873 33 17.0801ZM21.23 35.0701C21.2311 34.7682 21.1131 34.4781 20.9015 34.2627C20.6899 34.0474 20.4018 33.9242 20.1 33.92H2.32996C2.6839 30.7336 4.21116 27.7931 6.61426 25.6709C9.01736 23.5488 12.1243 22.397 15.33 22.44C17.0785 22.4318 18.8116 22.7682 20.4301 23.43C20.5697 23.4875 20.7194 23.5168 20.8705 23.5157C21.0215 23.5145 21.1709 23.4832 21.3097 23.4236C21.4485 23.364 21.5739 23.2773 21.6787 23.1685C21.7835 23.0597 21.8656 22.931 21.92 22.7901C22.0336 22.5075 22.0312 22.1915 21.9132 21.9107C21.7953 21.6299 21.5713 21.4068 21.29 21.2901C19.3998 20.5126 17.3738 20.1181 15.33 20.1299C11.3185 20.0869 7.45324 21.6349 4.5802 24.4349C1.70717 27.2348 0.0603345 31.0588 1.79448e-06 35.0701C-0.000534201 35.3735 0.119022 35.6647 0.332643 35.8802C0.546265 36.0957 0.83659 36.2179 1.14002 36.22H20.1C20.4018 36.2158 20.6899 36.0926 20.9015 35.8772C21.1131 35.6619 21.2311 35.372 21.23 35.0701ZM15.5501 17.0801C17.1435 17.096 18.7057 16.638 20.0383 15.7642C21.371 14.8904 22.414 13.6403 23.0348 12.1726C23.6556 10.705 23.8263 9.08588 23.5251 7.52104C23.224 5.95619 22.4647 4.51626 21.3435 3.38383C20.2223 2.2514 18.7899 1.47769 17.2282 1.16093C15.6664 0.844163 14.0458 0.998669 12.572 1.60478C11.0982 2.21088 9.83772 3.24113 8.95069 4.56498C8.06365 5.88883 7.59005 7.44653 7.58997 9.04008C7.5847 10.0907 7.78642 11.1319 8.1836 12.1045C8.58078 13.0772 9.16563 13.9619 9.90479 14.7085C10.6439 15.4551 11.523 16.049 12.4916 16.4558C13.4602 16.8627 14.4995 17.0749 15.5501 17.0801ZM15.5501 3.30009C16.6874 3.29018 17.802 3.61829 18.7524 4.24296C19.7029 4.86763 20.4464 5.7607 20.8886 6.80863C21.3307 7.85657 21.4515 9.01222 21.2357 10.1289C21.0199 11.2457 20.4772 12.2731 19.6765 13.0808C18.8758 13.8886 17.8531 14.4402 16.7383 14.6658C15.6235 14.8914 14.4669 14.7806 13.4152 14.3477C12.3634 13.9148 11.4639 13.1792 10.8309 12.2342C10.198 11.2892 9.86003 10.1775 9.85999 9.04008C9.85387 7.52452 10.4498 6.06857 11.5167 4.99223C12.5837 3.91588 14.0345 3.30723 15.5501 3.30009Z" fill="#00358E"/>
</svg>
