<svg width="66" height="51" viewBox="0 0 66 51" fill="none" xmlns="http://www.w3.org/2000/svg">
<path d="M40.5035 51C54.5848 51 66 39.5833 66 25.5C66 11.4167 54.5848 0 40.5035 0C26.4221 0 15.007 11.4167 15.007 25.5C15.007 39.5833 26.4221 51 40.5035 51Z" fill="white"/>
<path fill-rule="evenodd" clip-rule="evenodd" d="M5.8172 38.85C5.8071 40.0271 6.14684 41.1808 6.79339 42.1644C7.43993 43.1481 8.36411 43.9175 9.44861 44.375C10.5331 44.8325 11.729 44.9575 12.8847 44.734C14.0403 44.5106 15.1035 43.9488 15.9394 43.12C16.7752 42.2912 17.346 41.2327 17.5794 40.0789C17.8128 38.9251 17.6982 37.728 17.2501 36.6394C16.802 35.5509 16.0408 34.6199 15.0628 33.9649C14.0849 33.3098 12.9344 32.96 11.7574 32.96C10.189 32.9541 8.68242 33.5712 7.56861 34.6756C6.45481 35.7799 5.82488 37.2814 5.8172 38.85ZM15.7438 38.85C15.7514 39.6404 15.5239 40.4151 15.0903 41.0759C14.6567 41.7368 14.0366 42.2539 13.3086 42.5615C12.5806 42.8692 11.7776 42.9535 11.0016 42.8039C10.2256 42.6542 9.51162 42.2774 8.9502 41.7211C8.38877 41.1648 8.00527 40.4541 7.84842 39.6795C7.69157 38.9048 7.76841 38.101 8.06921 37.3701C8.37002 36.6392 8.88122 36.0141 9.53789 35.5744C10.1946 35.1346 10.9671 34.8999 11.7574 34.9C12.8089 34.8979 13.8185 35.3122 14.5655 36.0524C15.3125 36.7926 15.7362 37.7983 15.7438 38.85ZM52.6708 16.87C52.4764 16.7004 52.2232 16.6137 51.9656 16.6287C51.708 16.6436 51.4665 16.759 51.293 16.95L37.1149 32.6801L29.8159 25.45C29.6325 25.2674 29.3842 25.1651 29.1255 25.1651C28.8667 25.1651 28.6185 25.2674 28.4351 25.45C28.3446 25.5396 28.2727 25.6464 28.2237 25.7639C28.1747 25.8815 28.1494 26.0076 28.1494 26.135C28.1494 26.2624 28.1747 26.3885 28.2237 26.5061C28.2727 26.6237 28.3446 26.7303 28.4351 26.82L36.465 34.77C36.649 34.9526 36.8967 35.0566 37.1559 35.0601H37.1829C37.3157 35.0547 37.4461 35.0226 37.5664 34.966C37.6866 34.9093 37.7942 34.8291 37.8829 34.73L52.7488 18.24C52.8339 18.1451 52.8994 18.0343 52.9416 17.914C52.9837 17.7936 53.0017 17.6661 52.9944 17.5388C52.9872 17.4115 52.9549 17.2869 52.8994 17.1721C52.8438 17.0574 52.7661 16.9547 52.6708 16.87ZM37.4919 37.47C37.2341 37.4702 36.987 37.5724 36.8043 37.754C36.6215 37.9357 36.5179 38.1822 36.516 38.44V48.07H1.9517V2.93007H36.516V23.2C36.516 23.4588 36.6188 23.7071 36.8018 23.8902C36.9848 24.0732 37.233 24.176 37.4919 24.176C37.7507 24.176 37.9989 24.0732 38.1819 23.8902C38.365 23.7071 38.4677 23.4588 38.4677 23.2V1.96999C38.4677 1.8421 38.4425 1.71551 38.3933 1.59743C38.3442 1.47935 38.2723 1.37215 38.1816 1.282C38.0909 1.19185 37.9832 1.12055 37.8648 1.07216C37.7465 1.02377 37.6197 0.999227 37.4919 1.00002H0.975819C0.847951 0.999227 0.721186 1.02377 0.602823 1.07216C0.48446 1.12055 0.376852 1.19185 0.286155 1.282C0.195458 1.37215 0.123507 1.47935 0.0743917 1.59743C0.0252766 1.71551 -2.4461e-06 1.8421 1.77555e-10 1.96999V49.03C-2.4461e-06 49.1579 0.0252766 49.2845 0.0743917 49.4026C0.123507 49.5207 0.195458 49.6279 0.286155 49.718C0.376852 49.8082 0.48446 49.8795 0.602823 49.9279C0.721186 49.9763 0.847951 50.0008 0.975819 50H37.4919C37.6197 50.0008 37.7465 49.9763 37.8648 49.9279C37.9832 49.8795 38.0909 49.8082 38.1816 49.718C38.2723 49.6279 38.3442 49.5207 38.3933 49.4026C38.4425 49.2845 38.4677 49.1579 38.4677 49.03V38.44C38.4661 38.1822 38.3626 37.9355 38.1798 37.7538C37.997 37.5721 37.7496 37.47 37.4919 37.47ZM26.0814 14.0401C26.3373 14.0401 26.5827 13.9383 26.7637 13.7573C26.9446 13.5764 27.0463 13.3309 27.0463 13.075C27.0463 12.819 26.9446 12.5737 26.7637 12.3927C26.5827 12.2117 26.3373 12.11 26.0814 12.11H6.47111C6.21521 12.11 5.96977 12.2117 5.78882 12.3927C5.60788 12.5737 5.50621 12.819 5.50621 13.075C5.50621 13.3309 5.60788 13.5764 5.78882 13.7573C5.96977 13.9383 6.21521 14.0401 6.47111 14.0401H26.0814ZM27.2983 21.6801C27.2983 21.5522 27.273 21.4255 27.2238 21.3074C27.1747 21.1893 27.1028 21.0821 27.0121 20.992C26.9214 20.9018 26.8138 20.8305 26.6954 20.7821C26.577 20.7337 26.4503 20.7092 26.3224 20.71H6.71607C6.46017 20.71 6.21473 20.8117 6.03379 20.9927C5.85284 21.1737 5.75117 21.4191 5.75117 21.6751C5.75117 21.931 5.85284 22.1763 6.03379 22.3573C6.21473 22.5383 6.46017 22.64 6.71607 22.64H26.3224C26.4495 22.6411 26.5756 22.617 26.6934 22.5694C26.8112 22.5217 26.9185 22.4513 27.0091 22.3622C27.0998 22.2731 27.1719 22.1669 27.2215 22.0498C27.2711 21.9328 27.2972 21.8072 27.2983 21.6801Z" fill="#00358E"/>
</svg>
