<svg width="24" height="16" viewBox="0 0 24 16" fill="none" xmlns="http://www.w3.org/2000/svg">
<path d="M14.0038 3.89277C14.0038 3.89277 20.0845 4.85783 24 0.997603L23.8157 0.976623C22.5259 2.10952 16.9981 1.43817 15.4319 1.12348L9.9501 0.158423C9.9501 0.158423 3.82342 -1.01643 0 3.03261L0.184261 3.05359C1.42802 1.9207 7.00192 2.634 8.52207 2.90674L14.0038 3.89277Z" fill="#00358E"/>
<path d="M14.0038 9.89277C14.0038 9.89277 20.0845 10.8578 24 6.9976L23.8157 6.97662C22.5259 8.10952 16.9981 7.43817 15.4319 7.12348L9.9501 6.15842C9.9501 6.15842 3.82342 4.98357 0 9.03261L0.184261 9.05359C1.42802 7.9207 7.00192 8.634 8.52207 8.90674L14.0038 9.89277Z" fill="#00358E"/>
<path d="M14.0038 15.8928C14.0038 15.8928 20.0845 16.8578 24 12.9976L23.8157 12.9766C22.5259 14.1095 16.9981 13.4382 15.4319 13.1235L9.9501 12.1584C9.9501 12.1584 3.82342 10.9836 0 15.0326L0.184261 15.0536C1.42802 13.9207 7.00192 14.634 8.52207 14.9067L14.0038 15.8928Z" fill="#00358E"/>
</svg>
