<?xml version="1.0" encoding="utf-8"?>
<!-- Generator: Adobe Illustrator 23.0.1, SVG Export Plug-In . SVG Version: 6.00 Build 0)  -->
<svg version="1.1" id="Background" xmlns="http://www.w3.org/2000/svg" xmlns:xlink="http://www.w3.org/1999/xlink" x="0px" y="0px"
	 viewBox="0 0 427.1 93" style="enable-background:new 0 0 427.1 93;" xml:space="preserve">
<style type="text/css">
	.st0{fill:#00358E;}
</style>
<g>
	<path class="st0" d="M94.3,86.8v0.9H64.9v-0.9c4.5-1.3,4.7-6.5,4.7-12.5V50.7c0-6.7-1.2-9.9-5.3-9.9c-2.9,0-5.4,2.5-6.9,5.3
		c0.2,2,0.2,2.7,0.2,4.1v24.1c0,6.5,0.7,11.4,4.8,12.5v0.9H33v-0.9c4.5-1.3,4.7-6.5,4.7-12.5V50.7c0-6.7-1.1-9.9-5.3-9.9
		c-2.6,0-4.8,2-6.3,4.5v29.2c0,6.5,0.6,11.2,4.8,12.3v0.9H1.5v-0.9c4.5-1.3,4.6-6.2,4.6-12.3V45.7c0-4.1-1.3-5.8-6.1-7.5v-0.9
		l26.1-4.9v11.2c2.7-6.1,7.9-11.2,14.2-11.2c8.2,0,15.4,2.9,16.9,12.1c2.6-6.8,8-12.1,14.9-12.1c9.4,0,17.3,3.8,17.3,17.9v24.1
		C89.5,80.8,90.2,85.7,94.3,86.8z"/>
	<path class="st0" d="M158.4,80.2c-1.6,5.2-7.8,8.6-15.2,8.6c0,0-13.1,0-14.1-10.6c-1.5,6.1-7.5,10.6-15.9,10.6
		c-4.5,0-14.7-2-14.7-12c0-11.8,9.5-14,30.5-18.9v-7.5c0-12.2-6.9-18.8-15.1-14.6c0,0-2.6,1.5,1.4,2.9c2,0.7,3.3,2.4,4.2,4.5
		c1.8,4.4-0.2,9.1-4.6,10.9c-4.2,1.6-9.1-0.4-10.8-4.6c-1.2-3.1-0.6-6.6,1.4-8.7c1.4-1.5,3.5-3.6,7.9-6c5.3-2.8,11.1-2.5,11.1-2.5
		c15.4,0,24,9.6,24,23.5v17.5c0,0,0,8.5,5.6,8.2c0,0,2.9,0,3.5-2L158.4,80.2z M129,59c-9.6,2.1-9.5,9.3-9.5,14.8
		c0,0-0.1,7.8,4.6,7.8c2,0,3.6-1.6,4.9-4.5V59z"/>
	<path class="st0" d="M202.4,82.4c0,0-4.5,6.3-18.1,6.3c-14.2,0-20.9-4-20.9-4V69.4h1.1c2.4,10.9,12.1,18.3,19.9,18.3
		c8.3,0,10.2-9.8,1.3-15.6l-11.9-7.2c-11.1-7.3-14-18.9-6.8-26.9c0,0,4.4-5.6,17.8-5.6c13.5,0,19.2,3.3,19.2,3.3v12h-1.1
		c-2.1-10.6-11.3-14.2-18.1-14.2c-7.6,0-11.3,7.6-1.1,14.1l11.9,7.4C206.1,61.4,208.8,74.7,202.4,82.4z"/>
	<path class="st0" d="M365.1,50.6c-4,4.6-10.8,5.1-15.5,1.2c-2.2-2.1-3.8-4.6-3.8-7.3c0-1.5-3.8-0.7-8.6,6.6v23.4
		c0,6.5,0.6,11.2,4.8,12.3v0.9h-29.4v-0.9c4.5-1.3,4.6-6.3,4.6-12.3V45.7c0-4.1-1.4-5.8-6.2-7.5v-0.9l26.2-4.9v16.5
		c8.3-12.6,11.9-14,15.4-15.6c3.3-1.5,8.2-0.8,11.3,1.9C368.5,39,369,46.1,365.1,50.6z"/>
	<path class="st0" d="M427.1,80.2c-1.6,5.2-7.8,8.6-15.2,8.6c0,0-13.1,0-14.1-10.6c-1.5,6.1-7.5,10.6-15.9,10.6
		c-4.5,0-14.7-2-14.7-12c0-11.8,9.5-14,30.5-18.9v-7.5c0-12.2-6.9-18.8-15.1-14.6c0,0-2.6,1.5,1.4,2.9c2,0.7,3.3,2.4,4.2,4.5
		c1.8,4.4-0.2,9.1-4.6,10.9c-4.2,1.6-9.1-0.4-10.8-4.6c-1.2-3.1-0.6-6.6,1.4-8.7c1.4-1.5,3.5-3.6,7.9-6c5.3-2.8,11.1-2.5,11.1-2.5
		c15.4,0,24,9.6,24,23.5v17.5c0,0,0,8.5,5.6,8.2c0,0,2.9,0,3.5-2L427.1,80.2z M397.7,59c-9.6,2.1-9.5,9.3-9.5,14.8
		c0,0-0.1,7.8,4.6,7.8c2,0,3.6-1.6,4.9-4.5V59z"/>
	<path class="st0" d="M307.2,60.6c0-15-8.8-27.4-28.4-28.1c0,0-0.1,0-0.1,0v0.7c2.1,0,3.8,0.5,3.8,0.5c1.7,0.4,2.8,1.7,3.5,4
		c1.1,3.9,1.2,11,1.2,22.9c0,0.7,0,1.4,0,2.1c0,0.7,0,1.5,0,2.3c0,11.9,0,19-1.2,22.9c-0.8,2.9-2.2,4.1-4.6,4.2c0,0-1.9,0.2-2.6,0.2
		c-0.6,0-2.5-0.2-2.5-0.2s-0.8-0.1-1.2-0.2c-1.8-0.4-2.9-1.7-3.6-4.1c0-0.1,0-0.1,0-0.2c0,0,0,0,0,0c-1-3.5-1.1-9.3-1.2-18.6h0v-4.3
		v-10v-4.3c0-7.2-2.5-11.7-6.3-14.4c-0.5-0.4-1-0.7-1.6-1c-3.4-1.9-7.4-2.6-11.4-2.6c-6.7,0-13.2,5.4-16,12V0l-26.2,4.9v0.9
		c4.8,1.8,6.2,3.4,6.2,7.5v61c0,6-0.1,11.1-4.6,12.3v0.9h29.4v-0.9c-4.2-1.2-4.8-5.9-4.8-12.3V46c1.5-2.7,4.5-5.1,7.3-5.1
		c4.1-0.1,6.5,1.7,7.6,5.2c0.4,1.3,0.6,2.8,0.6,4.6v15.9c0.6,12.1,7.1,22.2,20.7,25.4c2.1,0.5,4.5,0.8,7,0.9c0.5,0,1.1,0,1.7,0
		c0.8,0,1.6-0.1,2.3-0.2c0.2,0,0.4,0,0.5-0.1c17-2.1,24.6-13.9,24.6-27.8C307.2,64.2,307.2,61.3,307.2,60.6z"/>
</g>
</svg>
