<svg xmlns="http://www.w3.org/2000/svg" viewBox="0 0 1280 720" width="1280" height="720" preserveAspectRatio="xMidYMid meet" style="width: 100%;height: 758.813px;transform: translate3d(0px, -481px, 0px);left: 0px;"><defs><clipPath id="animationMask_G9NRU7CqOo"><rect width="1280" height="720" x="0" y="0"></rect></clipPath></defs><g clip-path="url(#animationMask_G9NRU7CqOo)"><g transform="matrix(-1,0,0,-1,639.5040283203125,355.90997314453125)" opacity="1" style="display: block;"><path fill="rgb(234,149,127)" fill-opacity="1" d=" M-761.44,196 C-761.44,196 -740.29,309.88 -689.57,341.28 C-639.98,371.97 -568.15,418.03 -474.66,453.34 C-419.8,474.06 -227.45,364.94 -131.44,366.96 C-12.47,369.47 137.27,423.43 231.2,392.35 C383.59,341.93 471.81,419.5 535.72,412.35 C661.3,398.31 697.08,331.74 707.26,293.95 C711.48,278.3 677.27,628.74 677.27,628.74 C677.27,628.74 -726.23,581.71 -726.23,581.71 C-726.23,581.71 -761.44,196 -761.44,196z"></path><g opacity="1" transform="matrix(0.9976300001144409,0,0,1.0012600421905518,-0.0004596710205078125,0.000865936279296875)"><path fill="rgb(234,149,127)" fill-opacity="1" d=" M-763.25,195.75 C-763.25,195.75 -742.0460205078125,309.4909973144531 -691.2039794921875,340.84600830078125 C-641.5,371.5 -569.5,417.5 -475.7900085449219,452.7640075683594 C-420.7929992675781,473.4599914550781 -227.99099731445312,364.48199462890625 -131.75,366.5 C-12.5,369 137.6009979248047,422.89599609375 231.7530059814453,391.85699462890625 C384.5,341.5 472.9320068359375,418.9739990234375 536.9940185546875,411.8349914550781 C662.8690185546875,397.8089904785156 698.7329711914062,331.3210144042969 708.9429931640625,293.5799865722656 C713.1719970703125,277.95001220703125 678.8759765625,627.9500122070312 678.8759765625,627.9500122070312 C678.8759765625,627.9500122070312 -727.9520263671875,580.9749755859375 -727.9520263671875,580.9749755859375 C-727.9520263671875,580.9749755859375 -763.25,195.75 -763.25,195.75z"></path></g></g></g></svg>