<svg xmlns="http://www.w3.org/2000/svg" width="74" height="51" viewBox="0 0 74 51">
  <defs>
    <style>
      .cls-1 {
        fill: #e7ceb5;
      }

      .cls-2 {
        fill: #00358e;
        fill-rule: evenodd;
      }
    </style>
  </defs>
  <circle class="cls-1" cx="48.5" cy="25.5" r="25.5"/>
  <path class="cls-2" d="M706.763,999.272a22.766,22.766,0,0,0-10.3-24.614,0.88,0.88,0,1,0-.922,1.5,21.023,21.023,0,0,1,9.554,22.508A6.163,6.163,0,1,0,706.763,999.272Zm-2.918,9.818a4.4,4.4,0,1,1,4.4-4.4A4.408,4.408,0,0,1,703.845,1009.09Zm-11.281,4.55a21.08,21.08,0,0,1-23.027-4.64,6.15,6.15,0,1,0-4.382,1.84,6.206,6.206,0,0,0,2.973-.76,22.859,22.859,0,0,0,25.109,5.19A0.882,0.882,0,0,0,692.564,1013.64Zm-31.8-8.95a4.4,4.4,0,1,1,4.4,4.4A4.4,4.4,0,0,1,660.759,1004.69Zm1.758-11.244,0.063,0a0.879,0.879,0,0,0,.876-0.818A21,21,0,0,1,678.6,973.888a6.147,6.147,0,1,0-.252-1.755A22.749,22.749,0,0,0,661.7,992.507,0.88,0.88,0,0,0,662.517,993.446ZM684.5,967.758a4.4,4.4,0,1,1-4.4,4.4A4.4,4.4,0,0,1,684.5,967.758Z" transform="translate(-659 -966)"/>
</svg>
