<svg id="icon_2" xmlns="http://www.w3.org/2000/svg" width="71" height="51" viewBox="0 0 71 51">
  <defs>
    <style>
      .cls-1 {
        fill: #e7ceb5;
      }

      .cls-2 {
        fill: #00358e;
        fill-rule: evenodd;
      }
    </style>
  </defs>
  <circle id="Shape_25_copy" data-name="Shape 25 copy" class="cls-1" cx="45.5" cy="25.5" r="25.5"/>
  <path class="cls-2" d="M1083.75,970.49h0m-0.25.735,4.91,15.214a1.606,1.606,0,0,0,1.52,1.108h15.93l-12.89,9.414a1.615,1.615,0,0,0-.58,1.795l4.92,15.224-12.87-9.41a1.58,1.58,0,0,0-1.88,0l-12.88,9.41,4.92-15.224a1.6,1.6,0,0,0-.58-1.794l-12.87-9.415h15.92a1.585,1.585,0,0,0,1.51-1.108l4.92-15.214m0-2.23a1.385,1.385,0,0,0-1.32,1.124l-5.11,15.824h-16.55a1.352,1.352,0,0,0-.81,2.535l13.37,9.782-5.11,15.82a1.549,1.549,0,0,0,.15,1.42,1.228,1.228,0,0,0,1.01.49,1.67,1.67,0,0,0,.99-0.34l13.38-9.78,13.38,9.78a1.654,1.654,0,0,0,.99.36,1.26,1.26,0,0,0,1.01-.51,1.536,1.536,0,0,0,.14-1.42l-5.11-15.82,13.39-9.782a1.411,1.411,0,0,0,.64-1.612,1.383,1.383,0,0,0-1.47-.923h-16.54l-5.11-15.824A1.392,1.392,0,0,0,1083.5,969h0Z" transform="translate(-1059 -966)"/>
</svg>
