<svg id="icon_3" xmlns="http://www.w3.org/2000/svg" width="74" height="51" viewBox="0 0 74 51">
  <defs>
    <style>
      .cls-1 {
        fill: #e7ceb5;
      }

      .cls-2 {
        fill: #00358e;
        fill-rule: evenodd;
      }
    </style>
  </defs>
  <circle id="Shape_25_copy_2" data-name="Shape 25 copy 2" class="cls-1" cx="48.5" cy="25.5" r="25.5"/>
  <path class="cls-2" d="M659.787,1418.01c3.815,0,5.579,4.56,7.286,8.97,1.515,3.92,3.083,7.98,5.822,7.98s4.313-4.06,5.83-7.98c1.707-4.41,3.471-8.97,7.285-8.97s5.58,4.56,7.285,8.98c1.515,3.92,3.081,7.97,5.815,7.97s4.3-4.06,5.821-7.98c1.707-4.41,3.47-8.97,7.286-8.97a0.78,0.78,0,1,1,0,1.56c-2.739,0-4.306,4.05-5.822,7.97-1.707,4.42-3.47,8.98-7.285,8.98s-5.573-4.56-7.278-8.97c-1.515-3.92-3.083-7.98-5.822-7.98s-4.3,4.05-5.822,7.97c-1.708,4.41-3.473,8.98-7.293,8.98s-5.58-4.56-7.286-8.98c-1.516-3.92-3.083-7.97-5.822-7.97A0.78,0.78,0,1,1,659.787,1418.01Zm0,30.5c3.815,0,5.579,4.56,7.286,8.97,1.515,3.91,3.083,7.97,5.822,7.97s4.313-4.06,5.83-7.98c1.707-4.4,3.471-8.96,7.285-8.96s5.58,4.56,7.285,8.97c1.515,3.92,3.081,7.97,5.815,7.97s4.3-4.06,5.821-7.97c1.707-4.41,3.47-8.97,7.286-8.97a0.78,0.78,0,1,1,0,1.56c-2.739,0-4.306,4.05-5.822,7.97-1.707,4.41-3.47,8.97-7.285,8.97s-5.573-4.56-7.278-8.97c-1.515-3.92-3.083-7.97-5.822-7.97s-4.3,4.05-5.822,7.96c-1.708,4.42-3.473,8.98-7.293,8.98s-5.58-4.56-7.286-8.97c-1.516-3.92-3.083-7.97-5.822-7.97A0.78,0.78,0,1,1,659.787,1448.51Z" transform="translate(-659 -1416)"/>
</svg>
