<svg id="icon_4" xmlns="http://www.w3.org/2000/svg" width="71.97" height="51" viewBox="0 0 71.97 51">
  <defs>
    <style>
      .cls-1 {
        fill: #e7ceb5;
      }

      .cls-2 {
        fill: #00358e;
        fill-rule: evenodd;
      }
    </style>
  </defs>
  <circle id="Shape_25_copy_2" data-name="Shape 25 copy 2" class="cls-1" cx="46.47" cy="25.5" r="25.5"/>
  <path class="cls-2" d="M1082.02,1433.66a1.225,1.225,0,0,1-.19-0.02,0.832,0.832,0,0,1-.62-0.99l1.97-8.5a0.828,0.828,0,0,1,.99-0.62,0.837,0.837,0,0,1,.62.99l-1.97,8.5A0.83,0.83,0,0,1,1082.02,1433.66Zm5.99,1.42a1.1,1.1,0,0,1-.18-0.02,0.825,0.825,0,0,1-.62-0.99l1.96-8.53a0.831,0.831,0,0,1,.99-0.61,0.82,0.82,0,0,1,.62.99l-1.96,8.52A0.833,0.833,0,0,1,1088.01,1435.08Zm5.39-7.74a1.124,1.124,0,0,1-.32-0.04l-12.61-2.93a1.487,1.487,0,0,1-.95-0.73,1.6,1.6,0,0,1-.09-1.3,8,8,0,0,1,15.48,3.61,1.583,1.583,0,0,1-.66,1.12A1.53,1.53,0,0,1,1093.4,1427.34Zm-12.38-4.54,12.29,2.86A6.364,6.364,0,0,0,1081.02,1422.8Zm1.01,37.71a1.225,1.225,0,0,1-.19-0.02,0.837,0.837,0,0,1-.62-0.99l1.96-8.49a0.826,0.826,0,0,1,1.61.37l-1.96,8.49A0.83,0.83,0,0,1,1082.03,1460.51Zm-6-1.39a0.68,0.68,0,0,1-.19-0.03,0.808,0.808,0,0,1-.61-0.98l1.96-8.53a0.826,0.826,0,0,1,1.61.37l-1.97,8.53A0.813,0.813,0,0,1,1076.03,1459.12Zm3.03,7.88a8.136,8.136,0,0,1-1.82-.21,8,8,0,0,1-6.14-8.72,1.611,1.611,0,0,1,.66-1.11,1.473,1.473,0,0,1,1.18-.24l12.6,2.94a1.433,1.433,0,0,1,.95.73,1.57,1.57,0,0,1,.1,1.29A7.985,7.985,0,0,1,1079.06,1467Zm-6.35-8.64a6.364,6.364,0,0,0,12.29,2.86Zm27.99-14.57-0.21-.03-8.5-2.03a0.827,0.827,0,0,1,.38-1.61l8.49,2.03a0.844,0.844,0,0,1,.66.81A0.826,0.826,0,0,1,1100.7,1443.79Zm-1.4,5.99a1.355,1.355,0,0,1-.2-0.02l-8.47-2.02a0.831,0.831,0,0,1-.61-0.99,0.84,0.84,0,0,1,1-.62l8.47,2.02a0.836,0.836,0,0,1,.61,1A0.821,0.821,0,0,1,1099.3,1449.78Zm0.71,4.19a7.535,7.535,0,0,1-.94-0.06,1.565,1.565,0,0,1-1.11-.65,1.473,1.473,0,0,1-.24-1.18l2.94-12.6a1.433,1.433,0,0,1,.73-0.95,1.57,1.57,0,0,1,1.29-.1A8,8,0,0,1,1100.01,1453.97Zm-0.65-1.66a6.364,6.364,0,0,0,2.86-12.29Zm2.9-12.46h0Zm-28.42,4.05a0.693,0.693,0,0,1-.2-0.03l-9.3-2.23,1.78-7.6,9.28,2.22a0.827,0.827,0,0,1-.38,1.61l-7.68-1.84-1.02,4.39,7.71,1.85A0.827,0.827,0,0,1,1073.84,1443.9Zm-9.96,1.79a1.487,1.487,0,0,1-.55-0.1,8,8,0,0,1,3.61-15.48,1.609,1.609,0,0,1,1.13.67,1.453,1.453,0,0,1,.23,1.16l-0.77,3.28a0.821,0.821,0,1,1-1.6-.37l0.73-3.14a6.366,6.366,0,0,0-2.87,12.29l0.74-3.15a0.821,0.821,0,1,1,1.6.37l-0.77,3.32a1.5,1.5,0,0,1-.73.96A1.636,1.636,0,0,1,1063.88,1445.69Zm-0.13-1.52h0Zm19.26,7.9a10.055,10.055,0,1,1,10.05-10.06A10.068,10.068,0,0,1,1083.01,1452.07Zm0-18.46a8.405,8.405,0,1,0,8.4,8.4A8.414,8.414,0,0,0,1083.01,1433.61Z" transform="translate(-1058.03 -1416)"/>
</svg>
