<svg xmlns="http://www.w3.org/2000/svg" xmlns:xlink="http://www.w3.org/1999/xlink" width="39.252" height="39.584" viewBox="0 0 39.252 39.584">
  <defs>
    <filter id="Ellipse_172" x="0" y="0" width="39.252" height="39.252" filterUnits="userSpaceOnUse">
      <feOffset dy="1" input="SourceAlpha"/>
      <feGaussianBlur stdDeviation="2.5" result="blur"/>
      <feFlood flood-color="#212730" flood-opacity="0.322"/>
      <feComposite operator="in" in2="blur"/>
      <feComposite in="SourceGraphic"/>
    </filter>
    <filter id="angle-down" x="5.5" y="15.676" width="28.154" height="23.908" filterUnits="userSpaceOnUse">
      <feOffset dy="3" input="SourceAlpha"/>
      <feGaussianBlur stdDeviation="3" result="blur-2"/>
      <feFlood flood-opacity="0.161"/>
      <feComposite operator="in" in2="blur-2"/>
      <feComposite in="SourceGraphic"/>
    </filter>
    <filter id="angle-down-2" x="5.5" y="4.676" width="28.154" height="23.908" filterUnits="userSpaceOnUse">
      <feOffset dy="3" input="SourceAlpha"/>
      <feGaussianBlur stdDeviation="3" result="blur-3"/>
      <feFlood flood-opacity="0.161"/>
      <feComposite operator="in" in2="blur-3"/>
      <feComposite in="SourceGraphic"/>
    </filter>
  </defs>
  <g id="Group_1277" data-name="Group 1277" transform="translate(-24.5 -1144.541)">
    <g id="Group_1276" data-name="Group 1276" transform="translate(27.724 1147.17)">
      <g transform="matrix(1, 0, 0, 1, -3.22, -2.63)" filter="url(#Ellipse_172)">
        <circle id="Ellipse_172-2" data-name="Ellipse 172" cx="12.126" cy="12.126" r="12.126" transform="translate(31.75 6.5) rotate(90)" fill="#01acb4"/>
      </g>
    </g>
    <g transform="matrix(1, 0, 0, 1, 24.5, 1144.54)" filter="url(#angle-down)">
      <path id="angle-down-3" data-name="angle-down" d="M4.715,187.242l-4.6-4.672a.476.476,0,0,1,0-.674l.282-.282a.476.476,0,0,1,.674,0l3.982,4.057,3.982-4.053a.476.476,0,0,1,.674,0l.282.282a.476.476,0,0,1,0,.674l-4.6,4.672A.48.48,0,0,1,4.715,187.242Z" transform="translate(14.53 -159.8)" fill="#e6e6e6"/>
    </g>
    <g transform="matrix(1, 0, 0, 1, 24.5, 1144.54)" filter="url(#angle-down-2)">
      <path id="angle-down-4" data-name="angle-down" d="M4.715,181.615l-4.6,4.672a.476.476,0,0,0,0,.674l.282.282a.476.476,0,0,0,.674,0l3.981-4.057,3.981,4.053a.476.476,0,0,0,.674,0l.282-.282a.476.476,0,0,0,0-.674l-4.6-4.672A.48.48,0,0,0,4.715,181.615Z" transform="translate(14.53 -170.8)" fill="#e6e6e6"/>
    </g>
  </g>
</svg>
