<svg xmlns="http://www.w3.org/2000/svg" width="21" height="21" viewBox="0 0 21 21">
  <path id="user-circle" d="M10.5,8A10.5,10.5,0,1,0,21,18.5,10.5,10.5,0,0,0,10.5,8Zm5.419,17.85a9.078,9.078,0,0,1-10.839,0v-.576a2.712,2.712,0,0,1,2.71-2.71,12.317,12.317,0,0,0,2.71.483,12.317,12.317,0,0,0,2.71-.483,2.712,2.712,0,0,1,2.71,2.71Zm1.3-1.164A4.051,4.051,0,0,0,13.21,21.21c-.868,0-1.287.483-2.71.483s-1.838-.483-2.71-.483a4.051,4.051,0,0,0-4.005,3.476,9.145,9.145,0,1,1,13.43,0ZM10.5,12.742a3.726,3.726,0,1,0,3.726,3.726A3.726,3.726,0,0,0,10.5,12.742Zm0,6.1a2.371,2.371,0,1,1,2.371-2.371A2.372,2.372,0,0,1,10.5,18.839Z" transform="translate(0 -8)" fill="#000000"/>
</svg>
