<?xml version="1.0" encoding="UTF-8"?>
<svg width="80px" height="15px" viewBox="0 0 80 15" version="1.1" xmlns="http://www.w3.org/2000/svg" xmlns:xlink="http://www.w3.org/1999/xlink">
    <!-- Generator: Sketch 49.1 (51147) - http://www.bohemiancoding.com/sketch -->
    <title>Page 1</title>
    <desc>Created with Sketch.</desc>
    <defs>
        <polygon id="path-1" points="0.300667799 0.71025 7.11592661 0.71025 7.11592661 14.2499817 0.300667799 14.2499817"></polygon>
        <polygon id="path-3" points="0 14.290125 79.9853211 14.290125 79.9853211 0.750375 0 0.750375"></polygon>
    </defs>
    <g id="Homepage" stroke="none" stroke-width="1" fill="none" fill-rule="evenodd">
        <g id="Falue-onepager-Copy-19" transform="translate(-654.000000, -1580.000000)">
            <g id="Page-1" transform="translate(654.000000, 1580.000000)">
                <path d="M49.7671193,0.83115 L52.1216147,0.83115 L52.1216147,14.24865 C51.4889541,14.24865 50.7931743,14.29665 50.1120734,14.21865 C49.9087706,14.1954 49.6739083,13.8474 49.5726239,13.59765 C48.7322569,11.52765 47.9205138,9.44565 47.0977615,7.3689 C46.997945,7.1184 46.8841835,6.87315 46.6206972,6.65565 L46.6206972,14.20215 L44.2948257,14.20215 L44.2948257,0.7839 C44.9010642,0.7839 45.5491376,0.7254 46.1773945,0.8139 C46.4115229,0.84615 46.6874862,1.18215 46.7953761,1.4439 C47.6621651,3.5574 48.4922569,5.68665 49.3362936,7.81065 C49.4251009,8.03415 49.5285872,8.25165 49.7671193,8.44215 L49.7671193,0.83115 Z" id="Fill-1" fill="#000000"></path>
                <path d="M20.1435596,6.5448 L20.1435596,14.1828 L17.8242936,14.1828 L17.8242936,0.7818 C18.4753028,0.7818 19.0976881,0.7233 19.7002569,0.81105 C19.9365872,0.8448 20.219156,1.16655 20.324844,1.4238 C21.1798899,3.51255 21.9975046,5.6178 22.8297982,7.71705 C22.9281468,7.9653 23.0426422,8.20605 23.2995229,8.41755 L23.2995229,0.8253 L25.6422752,0.8253 L25.6422752,14.25555 C25.0389725,14.25555 24.365945,14.31255 23.7127339,14.2248 C23.4830092,14.19405 23.2165872,13.8438 23.1079633,13.57905 C22.2338349,11.44305 21.3934679,9.2928 20.5420917,7.14705 C20.4554862,6.92955 20.3615413,6.71505 20.2712661,6.49905 C20.2286972,6.51405 20.1861284,6.5298 20.1435596,6.5448" id="Fill-3" fill="#000000"></path>
                <path d="M6.59552294,6.231825 C7.65313761,4.468575 8.71075229,2.705325 9.83662385,0.827325 L12.461211,0.827325 C12.3107523,1.100325 12.1977248,1.329825 12.0626789,1.545825 C11.1635963,2.983575 10.2373578,4.404075 9.37790826,5.865825 C9.20543119,6.159075 9.14891743,6.660825 9.2692844,6.975075 C10.0311193,8.966325 10.8465321,10.935825 11.6700183,12.901575 C11.8513028,13.334325 12.1331376,13.723575 12.4054312,14.195325 L9.78598165,14.195325 C9.05277064,12.387075 8.35625688,10.668075 7.5826789,8.760075 C7.08873394,9.745575 6.35699083,10.374075 6.39075229,11.415075 C6.42084404,12.324075 6.3973578,13.235325 6.3973578,14.197575 L4.16616514,14.197575 L4.16616514,0.858825 L6.47442202,0.858825 L6.47442202,6.151575 C6.51478899,6.178575 6.55515596,6.204825 6.59552294,6.231825" id="Fill-5" fill="#000000"></path>
                <path d="M70.8687706,0.794475 C69.9087706,2.325975 69.0977615,3.755475 68.1502385,5.082975 C67.5014312,5.991975 67.4008807,6.782475 67.8948257,7.797975 C68.5142752,9.071475 68.9722569,10.425975 69.5263853,11.733975 C69.8706055,12.546225 70.2647339,13.335975 70.6544587,14.174475 L68.0797798,14.174475 C67.3876697,12.423225 66.6984954,10.679475 65.9887706,8.886225 C64.7153761,10.515225 64.5128073,10.655475 64.9135413,14.194725 L62.4915229,14.194725 L62.4915229,0.850725 L64.824,0.850725 L64.824,6.121725 C64.8540917,6.121725 64.9289541,6.140475 64.9414312,6.119475 C65.9146422,4.522725 66.9054679,2.936475 67.8324404,1.311975 C68.0328073,0.960225 68.1693211,0.761475 68.5920734,0.784725 C69.2871193,0.821475 69.9851009,0.794475 70.8687706,0.794475" id="Fill-7" fill="#000000"></path>
                <g id="Group-11" transform="translate(53.577982, 0.040125)">
                    <mask id="mask-2" fill="white">
                        <use xlink:href="#path-1"></use>
                    </mask>
                    <g id="Clip-10"></g>
                    <path d="M7.11574312,4.8852 L4.74436697,4.8852 C4.76124771,4.57695 4.80748624,4.32495 4.78033028,4.08045 C4.74289908,3.7317 4.68638532,3.1047 4.57776147,3.09045 C3.97666055,3.01395 3.35647706,3.0777 2.74436697,3.12345 C2.68491743,3.12795 2.59684404,3.3327 2.5946422,3.44595 C2.57922936,4.2597 2.544,5.0772 2.6093211,5.88645 C2.624,6.06795 2.99537615,6.33645 3.22436697,6.3612 C3.84014679,6.42795 4.47574312,6.4497 5.0893211,6.3717 C6.21959633,6.2277 7.07611009,7.2237 7.09372477,8.2557 C7.1186789,9.7317 7.104,11.2092 7.06436697,12.68445 C7.04455046,13.4232 6.34216514,14.1537 5.52234862,14.19945 C4.28124771,14.2692 3.03207339,14.2617 1.79023853,14.2077 C1.07684404,14.1762 0.381798165,13.3347 0.326752294,12.49545 C0.275376147,11.71545 0.315743119,10.92945 0.315743119,10.09395 L2.73042202,10.09395 C2.68198165,10.52445 2.64455046,10.92195 2.59097248,11.31795 C2.53005505,11.7702 2.72822018,11.9907 3.15977982,12.0192 C3.20968807,12.0222 3.25959633,12.02145 3.30950459,12.02445 C4.82069725,12.11445 4.87354128,12.07095 4.86033028,10.5342 C4.8427156,8.40195 5.15390826,8.6262 2.91831193,8.5977 C2.42510092,8.5917 1.87757798,8.6502 1.45042202,8.45745 C0.660697248,8.10195 0.29959633,7.3722 0.306201835,6.4752 C0.315743119,5.12595 0.317211009,3.7767 0.332623853,2.42745 C0.342165138,1.60245 1.06436697,0.80295 1.97812844,0.7542 C3.19574312,0.68895 4.4199633,0.70245 5.63831193,0.75045 C6.34583486,0.7782 6.98950459,1.6032 7.10033028,2.4672 C7.10987156,2.54295 7.11500917,2.61945 7.11500917,2.69595 C7.11647706,3.4032 7.11574312,4.1097 7.11574312,4.8852" id="Fill-9" fill="#000000" mask="url(#mask-2)"></path>
                </g>
                <path d="M31.0502752,9.327075 C31.5713761,6.517575 32.093211,3.708075 32.6253211,0.840825 L34.8858716,0.840825 C33.972844,5.262075 33.0576147,9.696075 32.1255046,14.208825 L29.7717431,14.208825 C28.866055,9.717825 27.9941284,5.274075 26.893211,0.834075 L29.253578,0.834075 C29.7827523,3.680325 30.306055,6.496575 30.8300917,9.313575 C30.9034862,9.318075 30.9768807,9.322575 31.0502752,9.327075" id="Fill-12" fill="#000000"></path>
                <path d="M36.2321468,0.767325 C38.2857248,0.767325 40.2534312,0.754575 42.2196697,0.787575 C42.4112294,0.790575 42.7150826,1.046325 42.7649908,1.239825 C42.9176514,1.823325 42.9712294,2.433825 43.0519633,2.962575 C41.7859083,2.962575 40.5506789,2.983575 39.3161835,2.952825 C38.7106789,2.937825 38.4354495,3.153075 38.4662752,3.789825 C38.4934312,4.349325 38.4904954,4.911825 38.4640734,5.471325 C38.4339817,6.090075 38.6585688,6.381825 39.2948991,6.298575 C39.7330642,6.240825 40.176367,6.228825 40.668844,6.192825 L40.668844,8.709825 C40.255633,8.669325 39.8915963,8.631825 39.5275596,8.598825 C38.5719633,8.512575 38.4758165,8.598825 38.4714128,9.550575 C38.469945,10.060575 38.5022385,10.572075 38.4648073,11.079075 C38.4148991,11.763075 38.6600367,12.053325 39.3572844,12.030825 C40.5697615,11.993325 41.7829725,12.020325 43.0710459,12.020325 C42.9771009,12.586575 42.9007706,13.237575 42.7407706,13.866825 C42.6989358,14.032575 42.4009541,14.238825 42.2174679,14.241075 C40.2013211,14.268075 38.1837064,14.258325 36.2321468,14.258325 L36.2321468,0.767325 Z" id="Fill-14" fill="#000000"></path>
                <path d="M76.9451743,14.21145 L74.5033394,14.21145 C74.5649908,13.63995 74.656,13.11495 74.6728807,12.58695 C74.7286606,10.80045 74.6237064,9.06045 73.9154495,7.35645 C73.0325138,5.2332 72.3337982,3.03045 71.5462752,0.83595 L74.2369174,0.83595 C74.442422,2.6367 75.1932477,4.28295 75.7275596,6.01245 C76.2978349,4.2957 76.9671927,2.64195 77.2798532,0.81645 L79.9851743,0.81645 C79.6196697,1.75995 79.2438899,2.68095 78.9048073,3.61695 C78.4629725,4.8342 78.1297615,6.09945 77.6071927,7.2777 C76.7815046,9.1407 76.7477431,11.07345 76.8681101,13.0437 C76.8915963,13.41795 76.9172844,13.79295 76.9451743,14.21145" id="Fill-16" fill="#000000"></path>
                <mask id="mask-4" fill="white">
                    <use xlink:href="#path-3"></use>
                </mask>
                <g id="Clip-19"></g>
                <polygon id="Fill-18" fill="#000000" mask="url(#mask-4)" points="13.6968807 14.188875 15.9919266 14.188875 15.9919266 0.832125 13.6968807 0.832125"></polygon>
                <polygon id="Fill-20" fill="#000000" mask="url(#mask-4)" points="0 14.219625 2.29798165 14.219625 2.29798165 0.836625 0 0.836625"></polygon>
            </g>
        </g>
    </g>
</svg>