<svg width="112" height="20" viewBox="0 0 112 20" fill="none" xmlns="http://www.w3.org/2000/svg">
<path fill-rule="evenodd" clip-rule="evenodd" d="M26.9162 18.2319C26.2559 18.2319 25.6422 18.1916 25.0366 18.2425C24.3435 18.3008 24.0013 18.0194 23.7533 17.3847C22.4563 14.0642 21.1185 10.7594 19.7925 7.44994C19.7003 7.21992 19.5893 6.99728 19.2915 6.81013V18.1602H16.7207V0.428221C17.5807 0.428221 18.3984 0.343175 19.1819 0.468324C19.5127 0.521334 19.9003 0.965925 20.0428 1.31925C21.3613 4.58995 22.6311 7.88001 23.9177 11.1634C23.998 11.3687 24.1 11.5658 24.3312 12.0705V0.517416H26.9162V18.2319Z" fill="#1D1D1B"/>
<path fill-rule="evenodd" clip-rule="evenodd" d="M62.3057 15.189C64.7079 15.5298 66.1162 14.7295 66.6353 12.639C67.2094 10.3269 67.2449 7.98562 66.5146 5.6842C65.9078 3.77253 64.4112 3.00183 62.3057 3.50172V15.189ZM59.2017 18.2161V0.454402C61.0723 0.454402 62.8783 0.312968 64.6511 0.486167C67.6077 0.775294 69.1273 2.70598 69.744 5.3174C70.4664 8.37747 70.4847 11.4531 69.3067 14.4359C68.4155 16.6928 66.6929 18.0272 64.1734 18.1957C62.5487 18.3045 60.9098 18.2161 59.2017 18.2161Z" fill="#1D1D1B"/>
<path fill-rule="evenodd" clip-rule="evenodd" d="M81.7849 9.60887C81.5246 8.23482 81.3267 6.68291 80.9144 5.19115C80.6336 4.17542 79.9335 3.40265 78.7131 3.42765C77.4894 3.45289 76.8769 4.28086 76.5697 5.28386C75.6752 8.20368 75.6947 11.1676 76.5512 14.0863C76.8659 15.1589 77.5173 16.0816 78.8676 16.0472C80.2119 16.013 80.8163 15.0631 81.0897 13.9811C81.4325 12.6264 81.5421 11.212 81.7849 9.60887ZM84.6901 9.70063C84.695 12.081 84.3742 14.383 83.2084 16.5128C82.2479 18.2681 80.7821 19.08 78.8234 19.0996C76.8642 19.1194 75.2556 18.3948 74.4028 16.5945C72.2458 12.0411 72.2599 7.42266 74.4438 2.88487C75.3296 1.04424 77.0043 0.343175 78.9976 0.403562C80.8968 0.461119 82.3261 1.25701 83.2517 2.99456C84.3744 5.10246 84.684 7.36274 84.6901 9.70063Z" fill="#1D1D1B"/>
<path fill-rule="evenodd" clip-rule="evenodd" d="M6.62325 5.12921L6.43852 5.14113C6.02645 7.26085 5.61438 9.38056 5.19043 11.5608H8.01996C7.5415 9.35719 7.08237 7.2432 6.62325 5.12921ZM12.4602 18.1381C11.7171 18.1381 11.0264 18.1003 10.3423 18.1493C9.71263 18.1944 9.4338 17.924 9.31663 17.3541C9.11863 16.3903 8.88988 15.4324 8.64972 14.3641C7.42422 14.3641 6.2297 14.3327 5.03938 14.3899C4.79363 14.4016 4.48801 14.7005 4.34754 14.9441C4.18262 15.2298 4.16212 15.5983 4.08875 15.9329C3.55345 18.375 3.22966 18.5693 0.577637 17.9529C1.29696 15.1938 2.0214 12.4371 2.73397 9.6773C3.43815 6.9494 4.16026 4.22516 4.81016 1.48465C5.00257 0.672513 5.3401 0.294859 6.20851 0.425251C6.5875 0.482311 7.00749 0.353524 7.36296 0.459166C7.69699 0.558392 8.1708 0.804737 8.24091 1.07285C9.67676 6.56304 11.0644 12.0656 12.456 17.5672C12.4902 17.7031 12.4602 17.8546 12.4602 18.1381Z" fill="#1D1D1B"/>
<path fill-rule="evenodd" clip-rule="evenodd" d="M108.754 7.30595V10.0669H104.76V15.3674H111.028V18.25H101.683V0.399994H110.82V3.23457H104.745V7.30595H108.754Z" fill="#1D1D1B"/>
<path fill-rule="evenodd" clip-rule="evenodd" d="M35.0564 10.0308V15.4216H41.3595V18.25H32.0137V0.399994H41.1174V3.20033H35.0619V7.28227H39.06V10.0308H35.0564Z" fill="#1D1D1B"/>
<path fill-rule="evenodd" clip-rule="evenodd" d="M54.9533 4.853C53.9443 5.14966 53.0856 5.40229 52.1603 5.67447C51.9545 5.25302 51.7806 4.8676 51.582 4.49512C50.8773 3.17239 49.2677 2.9772 48.3976 4.19399C47.9338 4.84264 47.5875 5.64622 47.4327 6.42766C46.9637 8.79672 46.9824 11.1874 47.551 13.545C47.6854 14.1025 47.9605 14.6563 48.2881 15.1321C49.1719 16.416 50.7619 16.363 51.5917 15.0506C51.8825 14.591 52.1224 14.0994 52.3876 13.6182C52.5336 13.637 52.6571 13.6278 52.7583 13.6704C53.4449 13.9589 54.1271 14.2586 54.7981 14.5491C54.5143 16.8624 53.0467 18.6249 51.1527 18.9647C48.5026 19.44 46.5726 18.6805 45.4977 16.4068C43.3207 11.8015 43.3494 7.15095 45.7729 2.63039C46.7548 0.798856 48.5322 0.270751 50.5222 0.425439C52.3852 0.570002 53.6983 1.49789 54.37 3.25879C54.5504 3.73157 54.7182 4.20929 54.9533 4.853Z" fill="#1D1D1B"/>
<path fill-rule="evenodd" clip-rule="evenodd" d="M91.7133 3.21225H88.0889V0.399994H98.2661C98.2661 1.12711 98.3258 1.89084 98.2292 2.63348C98.2006 2.85298 97.7417 3.15268 97.4612 3.17563C96.5914 3.24632 95.7126 3.20135 94.6297 3.20135C94.6297 3.7136 94.6297 4.15631 94.6297 4.59902C94.63 8.69235 94.5931 12.7864 94.6554 16.8788C94.6719 17.9503 94.3717 18.3615 93.3182 18.2245C92.8385 18.162 92.3443 18.2139 91.7133 18.2139V3.21225Z" fill="#1D1D1B"/>
</svg>
