<?xml version="1.0" encoding="UTF-8"?>
<svg width="147px" height="11px" viewBox="0 0 147 11" version="1.1" xmlns="http://www.w3.org/2000/svg" xmlns:xlink="http://www.w3.org/1999/xlink">
    <!-- Generator: Sketch 49.1 (51147) - http://www.bohemiancoding.com/sketch -->
    <title>Page 1</title>
    <desc>Created with Sketch.</desc>
    <defs>
        <polygon id="path-1" points="0.210569436 0.00101538462 10.2328359 0.00101538462 10.2328359 9.51395077 0.210569436 9.51395077"></polygon>
        <polygon id="path-3" points="0.325630345 0.0907753846 9.95646207 0.0907753846 9.95646207 9.42520615 0.325630345 9.42520615"></polygon>
    </defs>
    <g id="Homepage" stroke="none" stroke-width="1" fill="none" fill-rule="evenodd">
        <g id="Falue-onepager-Copy-19" transform="translate(-271.000000, -1584.000000)">
            <g id="Page-1" transform="translate(271.000000, 1584.000000)">
                <path d="M0,0 L5.49185795,0 C8.46609581,0 9.95369338,1.014501 9.95369338,3.04451548 C9.95369338,4.058004 9.46931476,4.8355856 8.50342934,5.37928524 C8.42780501,5.41978428 8.35409522,5.4612958 8.27942816,5.5038198 L9.38698954,7.78391586 C9.56408449,8.17270666 9.74117944,8.45923738 9.91827439,8.6445205 C10.1470619,8.88143989 10.5022091,9.00091207 10.9827586,9.00091207 L10.9827586,9.30769231 L7.72229703,9.30769231 C7.28865372,9.30769231 6.88181397,8.86625275 6.5046496,7.98438611 L5.62874755,6.08599352 L5.49185795,6.08599352 L4.11817551,6.08599352 L4.11817551,7.74847919 C4.11817551,8.58377193 4.57575056,9.00091207 5.49185795,9.00091207 L5.49185795,9.30769231 L0,9.30769231 L0,9.00091207 C0.915150113,9.00091207 1.37272517,8.58377193 1.37272517,7.74847919 L1.37272517,1.39822942 C1.33826345,0.672284096 0.881645663,0.306780242 0,0.306780242 L0,0 Z M4.11817551,0.306780242 L4.11817551,5.77921328 L5.49185795,5.77921328 C6.63579559,5.77921328 7.20728577,4.95303283 7.20728577,3.04451548 C7.20728577,1.13397317 6.63579559,0.306780242 5.49185795,0.306780242 L4.11817551,0.306780242 Z" id="Fill-1" fill="#12100B"></path>
                <path d="M16.8965517,0 L22.8103448,0 L22.8103448,0.306780242 C21.8228228,0.306780242 21.3290618,0.723920374 21.3290618,1.56022559 L21.3290618,7.74847919 C21.3290618,8.58377193 21.8228228,9.00091207 22.8103448,9.00091207 L22.8103448,9.30769231 L16.8965517,9.30769231 L16.8965517,9.00091207 C17.8809813,9.00091207 18.3737115,8.58377193 18.3737115,7.74847919 L18.3737115,1.56022559 C18.3737115,0.723920374 17.8809813,0.306780242 16.8965517,0.306780242 L16.8965517,0 Z" id="Fill-3" fill="#12100B"></path>
                <path d="M37.5556086,7.23110393 L37.5556086,9.30769231 L35.2887232,9.30769231 L30.4946692,1.43265361 L30.4946692,7.74847919 C30.4946692,8.58377193 30.8336427,9.00091207 31.7981031,9.00091207 L31.7981031,9.30769231 L28.7241379,9.30769231 L28.7241379,9.00091207 C29.6885983,9.00091207 30.0285806,8.58377193 30.0285806,7.74847919 L30.0285806,1.56022559 C30.0285806,0.723920374 29.6885983,0.306780242 28.7241379,0.306780242 L28.7241379,0 L32.826121,0 L37.0885111,6.97697245 L37.0885111,1.56933787 C37.0885111,0.726957802 36.7505465,0.306780242 35.787095,0.306780242 L35.787095,0 L38.862069,0 L38.862069,0.306780242 C37.8965998,0.306780242 37.5556086,0.723920374 37.5556086,1.56022559 L37.5556086,7.23110393 Z" id="Fill-5" fill="#12100B"></path>
                <g id="Group-9" transform="translate(43.931034, 0.000000)">
                    <mask id="mask-2" fill="white">
                        <use xlink:href="#path-1"></use>
                    </mask>
                    <g id="Clip-8"></g>
                    <path d="M5.2227011,9.51395077 C3.61222931,9.51395077 2.37117759,9.10170462 1.49854749,8.27619692 C0.640893887,7.45068923 0.210569436,6.27690462 0.210569436,4.75890462 C0.210569436,3.25105846 0.64588605,2.07727385 1.51851614,1.23958154 C2.38914937,0.415089231 3.62520893,0.000812307692 5.2227011,0.000812307692 C6.82019326,0.000812307692 8.05625282,0.415089231 8.92688605,1.23958154 C9.79851771,2.07727385 10.2328359,3.25105846 10.2328359,4.75890462 C10.2328359,6.27690462 9.80450831,7.45068923 8.94585627,8.27619692 C8.07322618,9.10170462 6.83317288,9.51395077 5.2227011,9.51395077 M5.2227011,9.20730462 C6.1292779,9.20730462 6.7143594,8.89050462 6.97594875,8.25487385 C7.23853652,7.60908923 7.37032962,6.52872 7.37032962,4.75890462 C7.37032962,2.98705846 7.23853652,1.90770462 6.97594875,1.26090462 C6.7143594,0.625273846 6.1292779,0.307458462 5.2227011,0.307458462 C4.19531395,0.307458462 3.57029514,0.703458462 3.34265251,1.49342769 C3.16393307,2.12702769 3.07507257,3.13124308 3.07507257,4.75890462 C3.07507257,6.38555077 3.16393307,7.38875077 3.34265251,8.02235077 C3.57029514,8.81232 4.19531395,9.20730462 5.2227011,9.20730462" id="Fill-7" fill="#12100B" mask="url(#mask-2)"></path>
                </g>
                <path d="M76.0344828,0 L81.4427617,0 C82.8518549,0 83.951796,0.296655482 84.7454123,0.886929018 C85.697375,1.59566225 86.1724138,2.49575346 86.1724138,3.58011531 C86.1724138,4.6665021 85.697375,5.5038198 84.7454123,6.09409333 C83.9847848,6.56489469 82.8839012,6.80080161 81.4427617,6.80080161 L80.0902207,6.80080161 L80.0902207,7.87605118 C80.0902207,8.71033144 80.5416961,8.98471245 81.4427617,8.98471245 L81.4427617,9.30769231 L76.0344828,9.30769231 L76.0344828,8.98471245 C76.9364909,8.98471245 77.3889088,8.71033144 77.3889088,7.87605118 L77.3889088,1.27065744 C77.3530924,0.543699638 76.9025596,0.322979859 76.0344828,0.322979859 L76.0344828,0 Z M80.0902207,0.322979859 L80.0902207,6.47883423 L81.4427617,6.47883423 C82.7924751,6.47883423 83.4701594,5.6091173 83.4701594,3.58011531 C83.4701594,1.31318143 82.7924751,0.322979859 81.4427617,0.322979859 L80.0902207,0.322979859 Z" id="Fill-10" fill="#12100B"></path>
                <path d="M92.0862069,0 L101.20323,0 L101.20323,2.68508648 L100.891178,2.68508648 C100.783574,1.014501 100.19175,0.465738982 98.8369129,0.465738982 L96.2945154,0.465738982 L96.2945154,4.24126216 L97.1524156,4.24126216 C97.9721652,4.24126216 98.2431325,3.90917002 98.2431325,2.95339263 L98.5561633,2.95339263 L98.5561633,5.99689563 L98.2431325,5.99689563 C98.2431325,5.04213072 97.9721652,4.70700115 97.1524156,4.70700115 L96.2945154,4.70700115 L96.2945154,8.84195333 L99.0120145,8.84195333 C100.367829,8.84195333 100.960632,8.29319131 101.065301,6.62260583 L101.37931,6.62260583 L101.37931,9.30769231 L92.0862069,9.30769231 L92.0862069,8.98471245 C92.9871488,8.98471245 93.4537604,8.76399267 93.4879982,8.03703487 L93.4879982,1.43164113 C93.4879982,0.597360868 93.0204083,0.322979859 92.0862069,0.322979859 L92.0862069,0 Z" id="Fill-12" fill="#12100B"></path>
                <path d="M114.133169,8.84195333 C115.536936,8.84195333 116.15045,8.29319131 116.261167,6.62260583 L116.586207,6.62260583 L116.586207,9.30769231 L107.309355,9.30769231 L107.309355,8.98471245 C108.206263,8.98471245 108.693824,8.81157904 108.766958,8.17979399 L108.766958,1.43265361 C108.766958,0.597360868 108.275334,0.322979859 107.293103,0.322979859 L107.293103,0 L113.135702,0 L113.135702,0.322979859 C112.16566,0.322979859 111.679115,0.597360868 111.679115,1.43265361 L111.679115,8.84195333 L114.133169,8.84195333 Z" id="Fill-14" fill="#12100B"></path>
                <path d="M129.340122,8.84195333 C130.745307,8.84195333 131.357537,8.29319131 131.469221,6.62260583 L131.793103,6.62260583 L131.793103,9.30769231 L122.520306,9.30769231 L122.520306,8.98471245 C123.416822,8.98471245 123.902139,8.81157904 123.976256,8.17979399 L123.976256,1.43265361 C123.976256,0.597360868 123.485863,0.322979859 122.5,0.322979859 L122.5,0 L128.343091,0 L128.343091,0.322979859 C127.373473,0.322979859 126.888156,0.597360868 126.888156,1.43265361 L126.888156,8.84195333 L129.340122,8.84195333 Z" id="Fill-16" fill="#12100B"></path>
                <g id="Group-20" transform="translate(136.862069, 0.000000)">
                    <mask id="mask-4" fill="white">
                        <use xlink:href="#path-3"></use>
                    </mask>
                    <g id="Clip-19"></g>
                    <path d="M0.325630345,0.0907753846 L9.77316828,0.0907753846 L9.77316828,2.78357538 L9.44875448,2.78357538 C9.33926483,1.10819077 8.72592,0.557852308 7.31978897,0.557852308 L4.68595448,0.557852308 L4.68595448,4.34422154 L5.57505103,4.34422154 C6.42359586,4.34422154 6.70543034,4.01117538 6.70543034,3.05265231 L7.03085793,3.05265231 L7.03085793,6.10489846 L6.70543034,6.10489846 C6.70543034,5.14739077 6.42359586,4.81129846 5.57505103,4.81129846 L4.68595448,4.81129846 L4.68595448,8.95812923 L7.50328552,8.95812923 C8.90738897,8.95812923 9.52174759,8.40779077 9.63022345,6.73240615 L9.95666483,6.73240615 L9.95666483,9.42520615 L0.325630345,9.42520615 L0.325630345,9.10129846 C1.25527862,9.10129846 1.74088552,8.87994462 1.77738207,8.15089846 L1.77738207,1.52652923 C1.77738207,0.689852308 1.29278897,0.414683077 0.325630345,0.414683077 L0.325630345,0.0907753846 Z" id="Fill-18" fill="#12100B" mask="url(#mask-4)"></path>
                </g>
                <path d="M70.1206897,11 L67.7442513,11 C67.6868056,11 67.3955458,10.9980646 67.2574745,10.9332302 C67.1556847,10.8867817 67.0559106,10.7909815 67.0448246,10.7803371 L66.9470661,10.6767955 C66.830159,10.5277731 66.7041816,10.3448819 66.568126,10.1242513 L65.5089077,8.53338856 C65.0654671,8.64273618 64.686527,8.6949908 64.3478997,8.6949908 C63.257439,8.6949908 62.391722,8.47919859 61.7739287,8.05342023 C61.1460572,7.62377116 60.8275862,7.01510164 60.8275862,6.24579756 C60.8275862,5.58584111 60.9676731,5.04877977 61.2448235,4.64912872 C61.5118956,4.26883124 61.9422346,4.01723493 62.5237464,3.89724285 C62.3443545,3.48791502 62.2576821,3.1221327 62.2576821,2.78151002 C62.2576821,2.16993747 62.5015744,1.6870661 62.9843199,1.34741109 C63.4549716,1.01549751 63.9991941,0.846153846 64.6018702,0.846153846 C65.2902109,0.846153846 65.9190902,1.07065516 66.4723831,1.51385173 L66.5096724,1.54288207 L66.5096724,2.73506147 L66.188178,2.73506147 L66.188178,2.63732598 C66.188178,2.37314987 66.1297245,2.13606873 66.0168487,1.93188866 C65.7245811,1.40837481 65.2609841,1.15387548 64.6018702,1.15387548 C63.8288726,1.15387548 63.7381689,1.48965977 63.7381689,1.7402884 C63.7381689,1.89608457 63.8510447,2.25315778 64.3831733,3.07084577 L67.2514276,7.4186234 C67.7130089,7.03058449 67.9367448,6.57190508 67.9367448,6.01936089 C67.9367448,5.81808385 67.8994555,5.59358253 67.8248769,5.35359837 C67.7502982,5.1136142 67.5940862,4.87459772 67.3632956,4.64235498 C67.1345205,4.41301527 66.8563624,4.30269997 66.5126959,4.30269997 L66.4109061,4.30269997 L66.4109061,3.99594602 L68.4618188,3.99594602 L68.4618188,4.30269997 L68.360029,4.30269997 C68.1846684,4.30269997 67.8934086,4.32108585 67.8934086,4.45269007 C67.8944164,4.46720524 67.9105415,4.55429627 68.0707848,5.01007265 C68.1967623,5.36424283 68.2602549,5.70583319 68.2602549,6.02129625 C68.2602549,6.67351128 67.9820967,7.2376676 67.4338429,7.70215308 L68.9102985,9.93361875 C69.0675183,10.1765059 69.2166756,10.3574618 69.3527312,10.4716478 C69.5119667,10.6051873 69.6067017,10.6487329 69.6601162,10.663248 C69.7407417,10.6835693 69.8626879,10.693246 70.0188999,10.693246 L70.1206897,10.693246 L70.1206897,11 Z M62.7555449,4.33753638 C62.6608098,4.44591633 62.5801843,4.62590445 62.5176995,4.87750075 C62.4864571,4.98878373 62.4501756,5.31295589 62.4501756,6.24579756 C62.4501756,6.98703898 62.6053798,7.5337771 62.9117569,7.87246443 C63.2191418,8.21502247 63.7028952,8.38823685 64.3478997,8.38823685 C64.6129562,8.38823685 64.9485601,8.33985294 65.3456409,8.24502049 L62.8895849,4.5707468 C62.8533034,4.51462147 62.8109749,4.44011026 62.7555449,4.33753638 Z" id="Fill-21" fill="#12100B"></path>
            </g>
        </g>
    </g>
</svg>