<?xml version="1.0" encoding="UTF-8"?>
<svg width="107px" height="40px" viewBox="0 0 107 40" version="1.1" xmlns="http://www.w3.org/2000/svg" xmlns:xlink="http://www.w3.org/1999/xlink">
    <!-- Generator: Sketch 49.1 (51147) - http://www.bohemiancoding.com/sketch -->
    <title>Page 1</title>
    <desc>Created with Sketch.</desc>
    <defs>
        <polygon id="path-1" points="0.772824584 0.706978723 8.58550962 0.706978723 8.58550962 10.4171489 0.772824584 10.4171489"></polygon>
        <polygon id="path-3" points="0.4818142 0.4470781 8.55093922 0.4470781 8.55093922 8.5106383 0.4818142 8.5106383"></polygon>
    </defs>
    <g id="Homepage" stroke="none" stroke-width="1" fill="none" fill-rule="evenodd">
        <g id="Falue-onepager-Copy-19" transform="translate(-473.000000, -1552.000000)">
            <g id="Page-1" transform="translate(473.000000, 1552.000000)">
                <path d="M102.090989,36.0802607 C102.974712,36.1153442 103.84428,36.2494869 104.426688,35.3806552 C104.800804,34.8234473 104.799793,33.966998 104.417587,33.433523 C103.830124,32.6121572 102.985835,32.6338264 102.090989,32.7081208 L102.090989,36.0802607 Z M107,39.9538879 C105.947419,40.1705799 105.364,39.6009895 104.916072,38.7187436 C104.654191,38.2017784 104.308386,37.7250561 103.962581,37.2596842 C103.788668,37.0254505 103.558131,36.8035992 103.30535,36.666361 C102.431738,36.1875749 102.0556,36.418713 102.054589,37.3938269 C102.054589,37.6156782 102.052567,37.8375295 102.0556,38.0593808 C102.0647,38.769305 101.920109,39.5524918 102.852366,39.8826891 L100.275009,39.8826891 C101.171877,39.589639 101.059642,38.8477269 101.061664,38.1718543 C101.06672,36.7179543 101.059642,35.2650862 101.064698,33.8111861 C101.06672,33.2096079 100.99493,32.667878 100.259843,32.4418992 C100.391289,32.4140388 100.521724,32.3624455 100.65317,32.3614136 C101.563182,32.3552224 102.476228,32.3087884 103.381185,32.3779235 C103.896858,32.4171344 104.458032,32.5481815 104.893827,32.8154349 C106.118299,33.5676656 106.027298,35.2857235 104.774514,35.9842972 C104.638013,36.0606553 104.499489,36.1308222 104.422643,36.171065 C104.942361,36.9470287 105.428712,37.7219605 105.966631,38.4576813 C106.266935,38.8693961 106.653184,39.2150714 107,39.5906708 L107,39.9538879 Z" id="Fill-1" fill="#000000"></path>
                <path d="M57.9012716,39.9135866 C58.1380941,39.6054181 58.242988,39.3180128 58.4279041,39.2502594 C60.3938546,38.5235501 61.0643108,37.5127139 60.8869643,35.3380499 C60.6620371,32.5896681 60.3981802,29.8434719 60.1494625,27.0972757 C60.0196968,25.649321 59.8877684,24.2013664 59.7536771,22.7534118 C59.7352937,22.5501517 59.7006895,22.3479845 59.5417265,22.1152189 C59.4444022,22.3359637 59.3395082,22.5534301 59.2486722,22.7774533 C56.9983186,28.3157432 54.7522904,33.8551258 52.4878788,39.3879517 C52.3927173,39.6207172 52.1602204,39.8720603 51.9342118,39.9562056 C51.5286939,40.1070114 51.3113364,39.8512972 51.1502106,39.4502411 C49.8644487,36.2385138 48.5548964,33.0377144 47.2529138,29.8325439 C46.2969731,27.4786615 45.3410324,25.124779 44.3850916,22.7708965 C44.2974998,22.5578013 44.2066638,22.3457989 44.0422939,21.9567635 C43.9665972,22.2780455 43.9146909,22.420109 43.9017144,22.5654509 C43.5113358,26.8448398 43.1101435,31.1242287 42.7435554,35.4058033 C42.5629648,37.5050643 43.2518044,38.5104366 45.2101853,39.2502594 C45.39402,39.3201984 45.4945884,39.6119749 45.6340866,39.8010286 C45.5810989,39.8480188 45.5291926,39.895009 45.4772863,39.943092 L38.8278751,39.943092 C38.6991908,39.5671702 38.7056791,39.31692 39.1631032,39.2316819 C40.4012843,39.0011019 41.1052633,38.1924329 41.2739587,36.9772438 C41.5172694,35.2222135 41.7000228,33.4562553 41.86223,31.6913898 C42.1996208,28.0294306 42.4948378,24.3631002 42.8365542,20.7022338 C42.8852163,20.1875269 42.7781596,19.8050483 42.3456072,19.565726 C41.7205691,19.2204025 41.090124,18.869615 40.4261561,18.6149935 C40.0552425,18.47293 39.9557554,18.323217 40.1071487,17.8860986 C40.8998009,17.8860986 41.7194877,17.8860986 42.538093,17.8860986 C43.3426404,17.8860986 44.1482692,17.9156041 44.9506538,17.8751707 C45.4329497,17.8511292 45.6535514,18.0303477 45.8319793,18.4762084 C47.6833034,23.11622 49.5562551,27.7485821 51.4238,32.3820369 C51.5265312,32.6355655 51.6346693,32.8869086 51.8076902,33.3032639 C51.968816,32.9426412 52.0726285,32.7262676 52.1623831,32.50443 C54.0396604,27.8513049 55.9223446,23.2003653 57.7779942,18.5384978 C57.9737242,18.0456468 58.211628,17.8598715 58.7458301,17.8729851 C60.3289718,17.9101401 61.9142762,17.8860986 63.5103944,17.8860986 C63.6747643,18.2849691 63.6477298,18.5188275 63.1989567,18.6051584 C62.9123908,18.660891 62.6312317,18.7756345 62.3608865,18.8958421 C60.9410334,19.523107 60.7377338,19.8706161 60.8707436,21.4038088 C61.2697732,25.9837166 61.6644772,30.5636244 62.0775647,35.1424394 C62.138122,35.8210657 62.2635622,36.4964136 62.4008976,37.1652047 C62.6301504,38.2787638 63.3038507,38.9617613 64.4057778,39.2404242 C64.5874498,39.2863217 64.7193783,39.5343864 64.8740157,39.6895634 C64.6999134,39.7857294 64.5268925,39.9627624 64.3517088,39.9638552 C62.4052231,39.9835255 60.4576561,39.9769687 58.5111705,39.9747831 C58.3889744,39.9747831 58.2667784,39.9507416 57.9012716,39.9135866" id="Fill-3" fill="#000000"></path>
                <path d="M53.3778182,25.5319149 C53.283533,24.9256165 53.1196562,24.3204007 53.1073093,23.7130196 C53.0713911,21.8497347 53.09384,19.9853671 53.09384,18.1209994 C53.09384,16.0238565 53.1196562,13.9267136 53.0792482,11.8306534 C53.0669013,11.2005361 53.2779207,11.0251426 53.8975097,11.070615 C54.6630164,11.1258315 55.4363802,11.0716977 56.1996419,11.1344929 C56.4207634,11.1518157 56.6228033,11.4040791 56.8282105,11.554571 C56.8596389,11.5762246 56.8663736,11.6292757 56.8843327,11.668252 C57.3321877,12.6805538 58.116776,13.6874423 58.1336126,14.7051575 C58.1493268,15.7228727 57.4073915,16.7546626 56.9797404,17.7734605 C55.9807654,20.1477684 54.970566,22.5188283 53.9637339,24.8898882 C53.8750608,25.0999273 53.7774082,25.3067183 53.6831229,25.5156748 C53.582103,25.5210881 53.4799606,25.5265015 53.3778182,25.5319149" id="Fill-5" fill="#000000"></path>
                <path d="M50.7434338,25.5199862 C50.6613397,25.3529846 50.5712641,25.1881518 50.4994317,25.0168125 C49.1334756,21.771125 47.7606783,18.5286908 46.4255076,15.2721591 C46.2978055,14.9609288 46.3183291,14.5271583 46.4380498,14.2072526 C46.7595853,13.350556 47.2008416,12.5350675 47.5371997,11.683793 C47.7070891,11.2554446 47.9716148,11.096034 48.4265534,11.1014561 C49.1391766,11.1090471 49.8552203,11.1242291 50.5632827,11.0710922 C51.1926715,11.0233774 51.4036079,11.2033922 51.3933462,11.8312749 C51.3545795,14.1823108 51.3785236,16.5344311 51.3785236,18.8865515 C51.3785236,20.4752358 51.4093089,22.0650045 51.3625608,23.6536888 C51.3443177,24.2815715 51.1527646,24.906201 51.0398851,25.5319149 C50.9406879,25.5275772 50.842631,25.5243239 50.7434338,25.5199862" id="Fill-7" fill="#000000"></path>
                <g id="Group-11" transform="translate(47.181102, 0.000000)">
                    <mask id="mask-2" fill="white">
                        <use xlink:href="#path-1"></use>
                    </mask>
                    <g id="Clip-10"></g>
                    <path d="M0.772824584,10.4171489 C2.0569182,7.18651064 3.31011942,4.03553191 4.63437314,0.706425532 C5.98745976,4.03331915 7.27155337,7.18761702 8.58550962,10.4171489 L0.772824584,10.4171489 Z" id="Fill-9" fill="#000000" mask="url(#mask-2)"></path>
                </g>
                <path d="M9.96474957,39.9293577 L7.19398896,39.9293577 C8.26668155,39.4670659 7.94965095,38.6131247 7.891022,37.8516419 C7.79439281,36.600857 7.67930636,35.3511109 7.57181995,34.1013649 C7.51536245,34.0868209 7.45890494,34.0722769 7.40244744,34.0577329 C6.97033038,35.0456867 6.53712761,36.0336406 6.10609627,37.0226333 C5.67506494,38.0095483 5.24511933,38.9975021 4.81517372,39.9844171 C4.75003044,39.9896114 4.68488717,39.9948057 4.61974389,40 C3.76202411,38.0137037 2.90430433,36.0274074 2.04658454,34.0411111 C1.99772709,34.0483831 1.94778391,34.0556551 1.89892646,34.063966 C1.81532592,34.9210238 1.73063966,35.7780815 1.64812485,36.6351393 C1.61446749,36.9800401 1.57755297,37.3239021 1.54932421,37.667764 C1.47875233,38.5383269 1.2008077,39.4909596 2.64264551,39.7776844 C2.58510228,39.8233942 2.52864478,39.8691039 2.47110155,39.9148137 L0,39.9148137 C0.100972076,39.809889 0.149829532,39.7091198 0.222572855,39.6904203 C0.738290446,39.5595243 0.931548827,39.188652 0.977149119,38.7388265 C1.15629312,36.9582241 1.33217997,35.1765828 1.47115229,33.3939027 C1.48526666,33.2141802 1.27137958,32.9825149 1.10526423,32.8370748 C0.946748924,32.6978679 0.712233136,32.6407307 0.511374706,32.5472335 C0.515717591,32.4942517 0.521146197,32.44127 0.525489082,32.3893271 C1.15737885,32.3893271 1.79144005,32.3623168 2.41898693,32.412182 C2.53950199,32.4215317 2.66001705,32.718645 2.73818898,32.8994063 C3.4091647,34.4597709 4.0681975,36.0242908 4.73374462,37.5867331 C4.81191655,37.770611 4.90311714,37.9482557 5.04100373,38.2391359 C5.17671889,37.9669551 5.27334808,37.7976213 5.34934857,37.6199766 C6.03118151,36.0419514 6.72495738,34.4691206 7.37856157,32.879668 C7.54684836,32.4682803 7.77484983,32.3082962 8.22650986,32.345695 C8.63474105,32.3789385 9.04948657,32.3529671 9.53480396,32.4433477 C8.38285372,32.7768211 8.61628379,33.59648 8.67382702,34.3361468 C8.76719904,35.5318722 8.86165679,36.7275976 8.98651473,37.9212454 C9.06577238,38.6754562 8.86925684,39.5771848 10.1102362,39.8067724 C10.0613788,39.8483267 10.013607,39.8888422 9.96474957,39.9293577" id="Fill-12" fill="#000000"></path>
                <path d="M19.6596771,36.0827923 C20.6365464,36.127326 21.568914,36.2474633 22.1821709,35.3681823 C22.5750894,34.8047797 22.5664062,33.9389623 22.1517794,33.414915 C21.5124726,32.6081307 20.6159236,32.6184873 19.6596771,32.709626 L19.6596771,36.0827923 Z M20.4759057,39.9033667 L17.71028,39.9033667 C18.691491,39.597845 18.5547293,38.8345587 18.5579855,38.1416977 C18.5644979,36.745619 18.5612417,35.3495403 18.5590709,33.9534617 C18.5579855,33.3175623 18.5992311,32.6547357 17.6929134,32.445531 C17.7992836,32.414461 17.9056538,32.3564637 18.0131095,32.355428 C19.0518472,32.349214 20.0927558,32.3233223 21.1304082,32.358535 C22.798684,32.4165323 23.8070303,33.433557 23.5508734,34.7436753 C23.3978305,35.530782 22.8008548,35.9243353 21.9965657,36.239178 C23.4325637,37.2168473 23.6398771,39.057227 25.2755906,39.815335 C24.2042905,40.178854 23.6094856,40.0152187 23.0635241,39.2395043 C22.6261037,38.6181043 22.2212456,37.9739197 21.7545192,37.373233 C21.5341808,37.090496 21.2422054,36.813973 20.9176677,36.655516 C19.9863856,36.2008583 19.6292856,36.425598 19.6292856,37.398089 C19.6292856,37.640435 19.6249439,37.8838167 19.6292856,38.1261627 C19.6433959,38.8200593 19.4870968,39.5905953 20.4759057,39.9033667 Z" id="Fill-14" fill="#000000"></path>
                <g id="Group-18" transform="translate(90.992126, 31.489362)">
                    <mask id="mask-4" fill="white">
                        <use xlink:href="#path-3"></use>
                    </mask>
                    <g id="Clip-17"></g>
                    <path d="M1.54245696,4.34819149 C1.71133535,5.09712766 1.78547708,5.76840426 2.01819974,6.37585106 C2.41362231,7.41202128 3.14783141,8.0843617 4.28158206,8.16521277 C5.48535547,8.25138298 6.35755057,7.68968085 6.88478066,6.61308511 C7.5953056,5.16202128 7.5685322,3.66946809 6.85182878,2.23223404 C6.38535372,1.29712766 5.60995477,0.782234043 4.55446483,0.782234043 C3.48970717,0.782234043 2.64943421,1.24819149 2.19016737,2.21946809 C1.87094602,2.89393617 1.74325748,3.66308511 1.54245696,4.34819149 M8.55091015,4.46308511 C8.54164243,6.74925532 6.7787168,8.51095745 4.50194777,8.51095745 C2.22826798,8.50989362 0.478729046,6.73861702 0.481818285,4.44180851 C0.484907524,2.13968085 2.22003001,0.436489362 4.55034584,0.44712766 C6.81578766,0.456702128 8.55914812,2.20776596 8.55091015,4.46308511" id="Fill-16" fill="#000000" mask="url(#mask-4)"></path>
                </g>
                <path d="M12.4528866,36.4361174 L14.5747134,36.4361174 C14.2301433,35.4491325 13.9058419,34.5189302 13.5815406,33.5897604 C13.5282016,33.5969872 13.4748625,33.6042141 13.4225903,33.6124734 C13.1089567,34.5251247 12.7953232,35.4388084 12.4528866,36.4361174 M10.1102362,39.8595921 C11.0287344,39.6396886 11.1855512,38.8963527 11.4234433,38.2149615 C12.0400425,36.4536684 12.6481075,34.6913429 13.2647067,32.9310822 C13.360717,32.6554284 13.3852529,32.34777 13.8397015,32.3405431 C14.3250867,32.3333162 14.3581569,32.6605905 14.4616347,32.9568924 C15.1123709,34.8131673 15.7567064,36.6704747 16.410643,38.5246847 C16.6239991,39.1296776 16.7381447,39.8234577 17.6929134,39.8451384 C17.66091,39.8936617 17.6289065,39.942185 17.5969031,39.9907083 L14.9480867,39.9907083 C15.8793862,39.663434 15.4953452,39.060506 15.2979907,38.5040365 C14.7485987,36.950258 14.7464651,36.9812304 13.0662855,36.9368367 C12.4528866,36.9203181 12.1403199,37.0999576 12.0219072,37.6739781 C11.9611007,37.9682152 11.8245528,38.2479986 11.7285425,38.5360413 C11.546123,39.0821867 11.2890289,39.6489803 12.11045,40 L10.1955787,40 C10.1667756,39.9525091 10.1390393,39.9060506 10.1102362,39.8595921" id="Fill-19" fill="#000000"></path>
                <path d="M77.7901044,36.4409004 C77.4310514,35.4302154 77.1036473,34.5042708 76.775152,33.5783262 C76.721676,33.5783262 76.6692913,33.5783262 76.6158153,33.5772928 C76.2884113,34.5135716 75.9610073,35.4498504 75.613959,36.4409004 L77.7901044,36.4409004 Z M80.8818898,40 L78.1458835,40 C78.3685182,39.7654136 78.6915569,39.5752643 78.7428501,39.3324105 C78.7985088,39.0688883 78.6140712,38.7536951 78.5114846,38.4684711 C77.9669026,36.9514101 77.9636286,36.9865464 76.2665844,36.9359088 C75.607411,36.9162738 75.2843723,37.10849 75.1621415,37.7089072 C75.094478,38.0437354 74.930776,38.3589285 74.8249153,38.6875562 C74.5870018,39.4305854 74.6186508,39.5091254 75.3815022,39.9896658 L73.2992126,39.9896658 C74.2999776,39.5638966 74.4014728,38.6400189 74.6928624,37.8401515 C75.2985598,36.1784117 75.8857044,34.5104713 76.4717576,32.8425309 C76.5710701,32.5593738 76.6758394,32.2441806 77.0567194,32.368191 C77.2837196,32.4425973 77.5456428,32.6596155 77.6242197,32.8683664 C78.3074028,34.6975204 78.9480233,36.5401088 79.6115622,38.3754633 C79.8472931,39.0275515 79.9422402,39.7933159 80.8818898,40 Z" id="Fill-21" fill="#000000"></path>
                <path d="M33.1287781,36.4355652 C32.7776979,35.4445842 32.4452107,34.5083136 32.1127235,33.5710108 C32.0613192,33.5751399 32.0088212,33.579269 31.9563232,33.5833981 C31.6271171,34.5196686 31.2990048,35.4559392 30.9544868,36.4355652 L33.1287781,36.4355652 Z M30.6045002,40 L28.6456693,40 C29.8214053,39.4374118 29.830155,38.2853964 30.1965472,37.3418999 C30.7630879,35.8832998 31.2585376,34.3999251 31.7878922,32.9279054 C31.8863259,32.6512566 31.9136686,32.3477686 32.3774008,32.3405427 C32.8761316,32.3333168 32.9067554,32.6615793 33.0128451,32.9578413 C33.6876629,34.8303825 34.3602933,36.7039559 35.0296426,38.5785616 C35.2418219,39.1731502 35.4015033,39.8069652 36.2283465,39.9834837 L33.4197045,39.9834837 C34.2235798,39.4735413 34.2235798,39.4735413 33.9085919,38.6023039 C33.3103337,36.943443 33.3103337,36.9589271 31.4411868,36.9403462 C30.9599553,36.9351848 30.6810598,37.0446056 30.5695016,37.509128 C30.4852861,37.862165 30.3256047,38.1976533 30.2085779,38.5434644 C30.0237413,39.0874717 29.7623451,39.6562535 30.6045002,40 Z" id="Fill-23" fill="#000000"></path>
                <path d="M72.0096417,40 L69.4044478,40 C70.253741,39.7281656 70.2339415,39.0583247 70.2360257,38.4089996 C70.240194,36.5861706 70.2370678,34.7623159 70.2370678,32.9528222 C68.8479784,32.5866151 68.0455787,32.8615269 67.4015748,34.0001539 L67.4015748,32.3414513 C69.6430836,32.6379047 71.8741716,32.6235436 74.1417323,32.3404255 L74.1417323,33.8021764 C73.5373273,32.4922425 72.3660322,32.929229 71.2947765,32.82665 C71.2812295,33.0913039 71.26143,33.3036424 71.26143,33.5149552 C71.2583038,35.1808382 71.2583038,36.8467213 71.2603879,38.5126044 C71.26143,39.1208979 71.1989053,39.7661199 72.0096417,40" id="Fill-25" fill="#000000"></path>
                <path d="M84.4358928,32.3404255 L86.9656055,32.3404255 C86.06307,32.7383614 86.2057872,33.5468328 86.202772,34.2860067 C86.1987518,35.7633044 86.1977468,37.2395521 86.2037771,38.7168499 C86.2077973,39.4329245 86.3485044,39.5788693 87.0228934,39.6240177 C87.1796813,39.6345174 87.3374743,39.6345174 87.4942622,39.6324175 C88.5184089,39.6208679 89.6671819,39.8865085 89.9697022,38.2569661 C90.0300053,38.3126142 90.0903083,38.3682622 90.1496063,38.4239102 C90.0209598,38.8911437 89.905379,39.363627 89.7495961,39.8203608 C89.7194446,39.9106576 89.5345152,39.9936047 89.4199395,39.9936047 C87.8098482,40.0041043 86.1997569,39.9999044 84.5906706,39.9936047 C84.5263474,39.9936047 84.4630292,39.9369067 84.2519685,39.8371602 C85.2248576,39.6471169 85.2067667,38.9572913 85.2097819,38.2926649 C85.2168172,36.8363664 85.2158122,35.380068 85.2107869,33.9237695 C85.2067667,32.9063555 85.1846556,32.8748566 84.4358928,32.3404255" id="Fill-27" fill="#000000"></path>
                <path d="M83.278762,40 L80.8932538,40 C81.7957506,39.612629 81.6006673,38.7606243 81.6054024,38.012342 C81.6148724,36.6491346 81.6091904,35.2848688 81.6082434,33.9216614 C81.6072964,33.2749846 81.6669578,32.5891474 80.8818898,32.3404255 L83.28255,32.3404255 C82.4046754,32.6907529 82.5599844,33.5120642 82.5580904,34.2518794 C82.5533554,35.6150868 82.5533554,36.9782942 82.5571434,38.34256 C82.5590374,39.0082878 82.492747,39.7216432 83.4094488,39.8497085 C83.3658865,39.8994529 83.3223243,39.9502556 83.278762,40" id="Fill-29" fill="#000000"></path>
                <path d="M28.6367204,32.3404255 C27.875072,32.6087546 27.8661231,33.2429869 27.8671175,33.8857038 C27.8691061,35.3376503 27.8641345,36.7895968 27.8691061,38.2415433 C27.8710947,38.9383503 27.7637083,39.6998533 28.6456693,40 L26.1181102,40 C26.9672587,39.7030351 26.8757814,38.9712286 26.8767757,38.291391 C26.8797586,36.8394445 26.87777,35.3864374 26.87777,33.9344909 C26.87777,33.2843498 26.9205257,32.6098152 26.1191046,32.3404255 L28.6367204,32.3404255 Z" id="Fill-31" fill="#000000"></path>
                <path d="M50.5511811,26.3829787 L53.0787402,26.3829787 C52.666787,27.4909133 52.2769592,28.5356358 51.8102195,29.787234 C51.3561228,28.5597713 50.971563,27.5184967 50.5511811,26.3829787" id="Fill-33" fill="#000000"></path>
            </g>
        </g>
    </g>
</svg>