<?xml version="1.0" encoding="UTF-8"?>
<svg width="16px" height="13px" viewBox="0 0 16 13" version="1.1" xmlns="http://www.w3.org/2000/svg" xmlns:xlink="http://www.w3.org/1999/xlink">
    <!-- Generator: Sketch 49.1 (51147) - http://www.bohemiancoding.com/sketch -->
    <title>002-envelope</title>
    <desc>Created with Sketch.</desc>
    <defs>
        <polygon id="path-1" points="0 0 16.7820513 0 16.7820513 13.3023256 0 13.3023256"></polygon>
    </defs>
    <g id="Homepage" stroke="none" stroke-width="1" fill="none" fill-rule="evenodd">
        <g id="Falue-onepager-Copy-19" transform="translate(-1053.000000, -1445.000000)">
            <g id="Group-2" transform="translate(1036.000000, 1441.000000)">
                <g id="Group-5" transform="translate(16.000000, 0.000000)">
                    <g id="002-envelope" transform="translate(0.000000, 4.837209)">
                        <mask id="mask-2" fill="white">
                            <use xlink:href="#path-1"></use>
                        </mask>
                        <g id="Clip-2"></g>
                        <path d="M2.69441732,3.51476535 C2.89148338,3.64425241 3.48576546,4.02899067 4.47699706,4.66873193 C5.46841902,5.30847319 6.22793809,5.80114097 6.75544006,6.14655799 C6.81346337,6.18439006 6.93659158,6.26679092 7.12501506,6.3936542 C7.31332431,6.52051748 7.46991873,6.62316399 7.59453179,6.70141644 C7.71918292,6.77966889 7.86983794,6.86745913 8.04680143,6.96453897 C8.2236507,7.06165427 8.39037254,7.13462371 8.54681466,7.18298634 C8.70340908,7.231739 8.84827699,7.25581395 8.98168493,7.25581395 L8.99908431,7.25581395 C9.13249224,7.25581395 9.27747437,7.231739 9.43395457,7.18298634 C9.59039669,7.13462371 9.75727082,7.06151245 9.9339678,6.96453897 C10.110779,6.86731731 10.261434,6.77966889 10.3861994,6.70141644 C10.5108505,6.62316399 10.6672926,6.52051748 10.8557542,6.3936542 C11.0441776,6.26664909 11.1674582,6.18439006 11.2253292,6.14655799 C11.7586182,5.80114097 13.1152749,4.92373493 15.2951087,3.5144817 C15.7182144,3.23926851 16.0717606,2.90714766 16.3557855,2.51850919 C16.6400008,2.12987072 16.7820513,1.72226303 16.7820513,1.29582795 C16.7820513,0.939454879 16.6443411,0.634316417 16.3688827,0.38058985 C16.0934623,0.126863283 15.7672905,0 15.3905959,0 L2.59002105,0 C2.1436908,0 1.80015776,0.140301289 1.55953615,0.421045693 C1.31902876,0.701790098 1.19871795,1.05273833 1.19871795,1.47378402 C1.19871795,1.81395349 1.35816784,2.18248814 1.67699148,2.57931705 C1.99573897,2.97611052 2.33496975,3.28802116 2.69441732,3.51476535 Z" id="Fill-1" fill="#FFFFFF" mask="url(#mask-2)"></path>
                        <path d="M15.9123108,4.3998858 C14.0110574,5.71303844 12.5672515,6.7334211 11.581807,7.46126687 C11.2513331,7.7095153 10.9833369,7.90349096 10.7775141,8.04233915 C10.5715389,8.18134273 10.2978699,8.32337658 9.95566943,8.46816874 C9.61373546,8.61323285 9.29502604,8.68560951 8.9992366,8.68560951 L8.98168493,8.68560951 C8.6860097,8.68560951 8.36714799,8.61323285 8.0250998,8.46816874 C7.68316582,8.32337658 7.4092303,8.18134273 7.20340745,8.04233915 C6.99758459,7.90349096 6.72943617,7.7095153 6.39911448,7.46126687 C5.61637085,6.8756492 4.17568702,5.85491689 2.07706298,4.3998858 C1.74662707,4.17514132 1.45376924,3.91760785 1.19871795,3.62790698 L1.19871795,10.6731898 C1.19871795,11.0637829 1.33494329,11.3979665 1.60739396,11.6759737 C1.87988271,11.9539808 2.20750122,12.0930233 2.59017334,12.0930233 L15.3907482,12.0930233 C15.773268,12.0930233 16.1008865,11.9539808 16.3733372,11.6759737 C16.6459782,11.3978111 16.7820513,11.0637829 16.7820513,10.6731898 L16.7820513,3.62790698 C16.5327871,3.91170272 16.242937,4.1692362 15.9123108,4.3998858 Z" id="Fill-3" fill="#FFFFFF" mask="url(#mask-2)"></path>
                    </g>
                </g>
            </g>
        </g>
    </g>
</svg>