<?xml version="1.0" encoding="UTF-8"?>
<svg width="174px" height="10px" viewBox="0 0 174 10" version="1.1" xmlns="http://www.w3.org/2000/svg" xmlns:xlink="http://www.w3.org/1999/xlink">
    <!-- Generator: Sketch 49.1 (51147) - http://www.bohemiancoding.com/sketch -->
    <title>Page 1</title>
    <desc>Created with Sketch.</desc>
    <defs>
        <polygon id="path-1" points="0 10 173.986129 10 173.986129 0.254444444 0 0.254444444"></polygon>
    </defs>
    <g id="Homepage" stroke="none" stroke-width="1" fill="none" fill-rule="evenodd">
        <g id="Falue-onepager-Copy-19" transform="translate(-133.000000, -1691.000000)">
            <g id="Page-1" transform="translate(133.000000, 1691.000000)">
                <polygon id="Fill-1" fill="#12100B" points="0 0 0 1.15989939 3.31279553 1.15989939 3.31279553 9 4.68720447 9 4.68720447 1.15989939 8 1.15989939 8 0"></polygon>
                <g id="Group-25">
                    <path d="M17.8938065,8.668 C20.0084839,8.668 21.5710645,7.15466667 21.5710645,5.12911111 C21.5710645,3.09133333 20.0084839,1.59577778 17.8938065,1.59577778 C15.7971935,1.59577778 14.2323548,3.09133333 14.2323548,5.12911111 C14.2323548,7.15466667 15.7971935,8.668 17.8938065,8.668 M17.8938065,0.371333333 C21.0054194,0.371333333 22.9642903,2.54577778 22.9642903,5.12911111 C22.9642903,7.63466667 21.0584839,9.89244444 17.8689677,9.89244444 C14.7844516,9.89244444 12.8413871,7.64688889 12.8413871,5.12911111 C12.8413871,2.56022222 14.8409032,0.371333333 17.8938065,0.371333333" id="Fill-2" fill="#12100B"></path>
                    <polygon id="Fill-4" fill="#12100B" points="38.1089032 9.77066667 36.7597097 9.77066667 36.7597097 2.54511111 36.7314839 2.54511111 33.8264839 6.13511111 33.6063226 6.13511111 30.7058387 2.54511111 30.6787419 2.54511111 30.6787419 9.77066667 29.3227742 9.77066667 29.3227742 0.492888889 30.5974516 0.492888889 33.7169677 4.30177778 36.8522903 0.492888889 38.1089032 0.492888889"></polygon>
                    <polygon id="Fill-6" fill="#12100B" points="54.5545 9.77066667 53.2030484 9.77066667 53.2030484 2.54511111 53.1736935 2.54511111 50.2709516 6.13511111 50.0496613 6.13511111 47.1457903 2.54511111 47.1220806 2.54511111 47.1220806 9.77066667 45.7661129 9.77066667 45.7661129 0.492888889 47.0374032 0.492888889 50.1591774 4.30177778 53.3024032 0.492888889 54.5545 0.492888889"></polygon>
                    <polygon id="Fill-8" fill="#12100B" points="67.1399355 0.493444444 68.7747742 0.493444444 65.2804194 4.869 65.2804194 9.77122222 63.9267097 9.77122222 63.9267097 4.859 60.4300968 0.493444444 62.0581613 0.493444444 64.5860645 3.68788889"></polygon>
                    <polygon id="Fill-10" fill="#12100B" points="105.411758 9.77066667 104.060306 9.77066667 104.060306 5.73177778 98.7764355 5.73177778 98.7764355 9.77066667 97.4261129 9.77066667 97.4261129 0.492888889 98.7764355 0.492888889 98.7764355 4.53288889 104.060306 4.53288889 104.060306 0.492888889 105.411758 0.492888889"></polygon>
                    <mask id="mask-2" fill="white">
                        <use xlink:href="#path-1"></use>
                    </mask>
                    <g id="Clip-13"></g>
                    <polygon id="Fill-12" fill="#12100B" mask="url(#mask-2)" points="111.016613 9.77111111 112.375968 9.77111111 112.375968 0.494444444 111.016613 0.494444444"></polygon>
                    <polygon id="Fill-14" fill="#12100B" mask="url(#mask-2)" points="119.284855 8.571 123.53679 8.571 123.53679 9.771 117.928887 9.771 117.928887 0.493222222 119.284855 0.493222222"></polygon>
                    <polygon id="Fill-15" fill="#12100B" mask="url(#mask-2)" points="132.459984 1.68833333 128.782726 1.68833333 128.782726 4.26166667 132.459984 4.26166667 132.459984 5.45388889 128.782726 5.45388889 128.782726 9.76944444 127.431274 9.76944444 127.431274 0.493888889 132.459984 0.493888889"></polygon>
                    <polygon id="Fill-16" fill="#12100B" mask="url(#mask-2)" points="137.198871 9.77111111 138.552581 9.77111111 138.552581 0.494444444 137.198871 0.494444444"></polygon>
                    <path d="M151.445226,9.12755556 C150.188613,9.67311111 149.16571,9.892 147.857161,9.892 C144.967968,9.892 142.838613,7.90422222 142.838613,5.18311111 C142.838613,2.45088889 145.024419,0.372 147.889903,0.372 C149.000871,0.372 149.774258,0.546444444 151.25329,1.15977778 L151.25329,2.50422222 C150.14571,1.90866667 149.000871,1.59644444 147.868452,1.59644444 C145.822645,1.59644444 144.232968,3.13088889 144.232968,5.14422222 C144.232968,7.212 145.806839,8.66755556 148.04571,8.66755556 C148.78071,8.66755556 149.442323,8.502 150.091516,8.29977778 L150.091516,6.39755556 L148.280548,6.39755556 L148.280548,5.19977778 L151.445226,5.19977778 L151.445226,9.12755556 Z" id="Fill-17" fill="#12100B" mask="url(#mask-2)"></path>
                    <polygon id="Fill-18" fill="#12100B" mask="url(#mask-2)" points="161.952113 1.68833333 157.955339 1.68833333 157.955339 4.49166667 161.813242 4.49166667 161.813242 5.68611111 157.955339 5.68611111 157.955339 8.57055556 162.076306 8.57055556 162.076306 9.76944444 156.6005 9.76944444 156.6005 0.493888889 161.952113 0.493888889"></polygon>
                    <path d="M168.056226,4.54455556 L168.924452,4.54455556 C170.376387,4.54455556 170.794129,3.81011111 170.780581,3.03566667 C170.764774,2.16788889 170.237516,1.63455556 168.924452,1.63455556 L168.056226,1.63455556 L168.056226,4.54455556 Z M169.076871,0.493444444 C170.986065,0.493444444 172.174935,1.48788889 172.174935,3.09344444 C172.174935,4.169 171.610419,4.969 170.595419,5.36122222 C171.455742,5.92344444 171.980742,6.77677778 172.698806,7.93011111 C173.104129,8.57122222 173.334452,8.88344444 173.985903,9.77011111 L172.368,9.77011111 L171.124935,7.86344444 C169.879613,5.96233333 169.315097,5.74233333 168.626387,5.74233333 L168.056226,5.74233333 L168.056226,9.77011111 L166.702516,9.77011111 L166.702516,0.493444444 L169.076871,0.493444444 Z" id="Fill-19" fill="#12100B" mask="url(#mask-2)"></path>
                    <polygon id="Fill-20" fill="#FFFFFF" mask="url(#mask-2)" points="75.005 10 89.9883871 10 89.9883871 0.254444444 75.005 0.254444444"></polygon>
                    <polygon id="Fill-21" fill="#7F7F7F" mask="url(#mask-2)" points="82.5017742 7.45111111 89.7501613 7.45111111 89.7501613 2.79888889 82.5017742 2.79888889"></polygon>
                    <polygon id="Fill-22" fill="#FFFFFF" mask="url(#mask-2)" points="75.2545161 7.45111111 82.5017742 7.45111111 82.5017742 2.80888889 75.2545161 2.80888889"></polygon>
                    <polygon id="Fill-23" fill="#12100B" mask="url(#mask-2)" points="75.2556452 2.80777778 89.7501613 2.80777778 89.7501613 0.495555556 75.2556452 0.495555556"></polygon>
                    <polygon id="Fill-24" fill="#12100B" mask="url(#mask-2)" points="75.2556452 9.75555556 89.7501613 9.75555556 89.7501613 7.43777778 75.2556452 7.43777778"></polygon>
                </g>
            </g>
        </g>
    </g>
</svg>