<svg width="97" height="17" viewBox="0 0 97 17" fill="none" xmlns="http://www.w3.org/2000/svg">
<path fill-rule="evenodd" clip-rule="evenodd" d="M7.79785 14.4714C4.40723 14.4714 1.51318 11.4592 1.51318 8.17358C1.51318 4.90021 4.34668 1.82812 7.77344 1.82812C10.0259 1.82812 11.6479 2.89557 12.9683 4.56805H14.627C14.1304 3.69025 13.5977 2.88391 12.7866 2.25513C11.3936 1.15216 9.58936 0.5 7.79785 0.5C3.49902 0.5 0 3.97522 0 8.16193C0 12.3603 3.54785 15.8 7.82227 15.8C9.56592 15.8 11.2729 15.1717 12.6416 14.1159C13.5015 13.4399 14.1064 12.5621 14.688 11.6605H13.0293C11.7212 13.3329 10.0503 14.4714 7.79785 14.4714ZM24.9922 6.46564C23.9512 5.14917 22.5342 4.31903 20.7783 4.31903C17.6304 4.31903 15.0391 6.82214 15.0391 9.90588C15.0391 12.9891 17.6426 15.5155 20.7783 15.5155C22.6069 15.5155 23.8779 14.768 24.9922 13.3922V15.266H26.3604V4.57971H24.9922V6.46564ZM16.395 9.91754C16.395 12.23 18.2959 14.2817 20.7061 14.2817C23.103 14.2817 24.9922 12.23 24.9922 9.91754C24.9922 7.61682 23.1152 5.55286 20.7061 5.55286C18.2842 5.55286 16.395 7.61627 16.395 9.91754ZM28.019 15.266H29.4849V0.8078H28.019V15.266ZM31.3125 4.57971L35.0181 13.5698L38.7837 4.57971H40.2124L35.7803 15.2661H34.3032L29.8594 4.57971H31.3125ZM40.8179 15.2661H42.2832V4.57971H40.8179V15.2661ZM42.2832 3.20392H40.8179V0.8078H42.2832V3.20392ZM48.5923 4.31854C47.2114 4.31854 46.231 5.03052 45.3228 5.97931V4.57971H43.9663V15.266H45.4072V8.75421C45.395 7.03461 46.8477 5.55237 48.6157 5.55237C50.8311 5.55237 51.9453 7.43829 51.9453 9.38354V15.2665H53.3013V9.38354C53.3018 6.60815 51.6436 4.31854 48.5923 4.31854ZM60.2397 9.09851L66.8994 0.8078H68.7646L63.0488 7.85309L68.7646 15.266H66.9355L62.1289 8.99207L60.2397 11.2928V15.266H58.7988V0.8078H60.2397V9.09851ZM69.2974 15.266H70.7266V0.8078H69.2974V15.266ZM77.4824 4.31854C79.5776 4.31854 81.5635 5.45703 82.5566 7.27197C83.1138 8.24457 83.2715 9.31207 83.271 10.4267H73.2075C73.3657 11.4937 73.7285 12.3958 74.5527 13.1306C75.3516 13.8542 76.4053 14.2812 77.4819 14.2812C79.2505 14.2812 80.6187 13.2498 81.394 11.767H82.9312C82.5811 12.5616 82.1934 13.3207 81.5391 13.9257C80.4624 14.9338 78.9961 15.515 77.5078 15.515C74.3828 15.515 71.7188 13.0119 71.7188 9.92871C71.7188 6.86877 74.3589 4.31854 77.4824 4.31854ZM73.2568 9.19336C73.6938 7.18927 75.3032 5.55231 77.5078 5.55231C79.3604 5.55231 81.3462 6.66742 81.7822 9.19336H73.2568ZM85.7773 15.2661H84.3369V4.57971H85.7773V15.2661ZM84.3369 3.25159H85.7773V0.8078H84.3369V3.25159ZM88.8042 5.97931C89.7246 5.03052 90.7051 4.31854 92.1108 4.31854C95.1733 4.31854 96.8569 6.60815 96.8569 9.38354V15.2665H95.501V9.38354C95.501 7.43829 94.3384 5.55237 92.1338 5.55237C90.3545 5.55237 88.8652 7.02295 88.877 8.75421V15.266H87.4238V4.57971H88.8042V5.97931Z" fill="black"/>
</svg>
