<svg width="116" height="21" viewBox="0 0 116 21" fill="none" xmlns="http://www.w3.org/2000/svg">
<mask id="mask0" mask-type="alpha" maskUnits="userSpaceOnUse" x="31" y="0" width="84" height="20">
<path fill-rule="evenodd" clip-rule="evenodd" d="M31.915 0.630005H114.17V19.9446H31.915V0.630005Z" fill="white"/>
</mask>
<g mask="url(#mask0)">
<path fill-rule="evenodd" clip-rule="evenodd" d="M88.3879 19.2401C88.3962 19.3225 88.4047 19.4049 88.413 19.4873C91.035 19.4873 93.6579 19.4445 96.2788 19.4996C98.8347 19.5532 100.916 18.6684 102.211 16.4121C103.438 14.2769 103.441 12.101 101.734 10.0684H109.34V19.1091C108.652 19.1577 108.048 19.2004 107.443 19.2429C107.447 19.2982 107.452 19.3532 107.456 19.4085H114.112C114.115 19.3493 114.119 19.2904 114.123 19.2312C113.502 19.1918 112.882 19.1521 112.216 19.1097V1.49178C112.934 1.4295 113.552 1.3756 114.17 1.32197L114.157 1.15356H107.447C107.444 1.21612 107.441 1.27868 107.438 1.34124C108.057 1.38984 108.675 1.43844 109.315 1.48871V9.48857C106.855 9.48857 104.506 9.49387 102.157 9.48438C101.653 9.48214 101.123 9.51622 100.649 9.37853C98.5338 8.7641 96.44 8.07315 94.3272 7.44978C92.6175 6.94539 91.9333 6.21785 91.878 4.71697C91.8216 3.18732 92.6548 1.9702 94.1391 1.41442C96.8507 0.399493 99.3356 1.53591 100.55 4.36228C100.806 4.95855 101.01 5.57801 101.237 6.18685C101.29 6.16451 101.342 6.14217 101.395 6.1201V1.40325C100.546 1.35018 99.8143 1.36247 99.103 1.24517C98.2459 1.10385 97.4168 0.762843 96.5581 0.665093C93.7638 0.346708 91.1623 2.22937 90.582 4.91694C90.0336 7.45732 91.1813 9.06657 94.3236 10.1175C95.6745 10.5694 97.0642 10.9135 98.3914 11.4257C100.225 12.1328 101.207 13.634 101.04 15.2469C100.825 17.3172 99.772 18.5595 97.7208 18.972C96.8286 19.1513 95.8842 19.051 94.9795 19.187C93.7674 19.3694 93.2143 18.8823 92.7945 17.7222C90.9352 12.5814 88.9858 7.4738 87.0189 2.37348C86.8242 1.86826 86.291 1.49597 85.9149 1.06196C85.5698 1.48089 85.0836 1.84535 84.9011 2.32712C82.898 7.61177 80.9607 12.9215 78.9438 18.2006C78.7491 18.7103 78.1404 19.0591 77.7239 19.4825C77.2784 19.0228 76.7626 18.6106 76.4141 18.0853C76.2067 17.7719 76.2416 17.2826 76.2042 16.8693C76.095 15.665 76.069 14.4495 75.8931 13.2561C75.5358 10.8283 73.6732 10.086 71.4583 9.5542C72.0529 9.32826 72.4915 9.19951 72.8964 9.00093C74.3477 8.28904 75.3898 7.27271 75.4207 5.49869C75.4636 3.06053 73.5263 1.10218 70.8922 1.07257C66.9288 1.02844 62.9647 1.05944 59.0011 1.05833C58.1405 1.05805 57.2798 1.05833 56.4471 1.05833V5.60677C57.383 3.17727 58.6427 1.35772 61.5377 1.3904C62.5302 1.40157 62.908 1.60964 62.8964 2.69941C62.8416 7.77236 62.8743 12.8461 62.8671 17.9196C62.8665 18.316 62.7999 18.712 62.7581 19.1722C61.6541 19.1722 60.6889 19.1722 59.7235 19.1722C55.6092 19.1722 55.4728 19.1681 55.2925 14.945C55.1584 11.8019 54.3 10.4613 50.8007 9.55336C51.4799 9.24615 52.1354 9.02328 52.7164 8.67417C54.7187 7.47129 55.3152 5.18338 54.0889 3.26832C53.1177 1.75179 51.6738 1.0519 49.8754 1.05553C44.529 1.06671 39.1824 1.05889 33.836 1.05833C33.2007 1.05833 32.5658 1.05833 31.9308 1.05833C31.9255 1.13737 31.9203 1.2164 31.915 1.29544C32.568 1.37169 33.2209 1.44793 33.8974 1.52697V19.1119C33.1698 19.1591 32.5616 19.1985 31.9532 19.2379C31.9574 19.2848 31.9612 19.3317 31.9654 19.3786H44.8396V13.8879C42.5218 18.9309 41.1542 19.7761 36.7249 19.0044V10.0153C39.5966 9.40897 40.0953 9.73266 42.0654 13.5192V5.59086C40.418 9.38607 39.8505 9.76366 36.7343 9.28832V1.46916C40.7667 1.46916 44.7215 1.37811 48.6693 1.50295C51.1049 1.57975 51.9979 2.95635 51.8807 5.86428C51.7786 8.39265 50.7587 9.41428 48.3031 9.43466C47.2719 9.44332 46.2406 9.43606 45.209 9.43606C45.2132 9.56397 45.2171 9.69217 45.2209 9.82008C46.5008 9.82008 47.781 9.79438 49.0601 9.82566C51.2042 9.87817 52.2731 10.9048 52.4584 13.0333C52.5472 14.0521 52.6307 15.0718 52.7297 16.0895C52.9653 18.5148 54.0016 19.4797 56.3896 19.4859C59.2473 19.4931 62.1049 19.4876 64.9625 19.4876C65.8246 19.4876 66.6869 19.4876 67.5489 19.4876C67.5478 19.3962 67.5467 19.3052 67.5453 19.2141C66.8788 19.1834 66.2123 19.1527 65.5309 19.1211V1.45854C66.8724 1.45854 68.115 1.38006 69.3448 1.47474C71.8623 1.66885 72.69 2.798 72.6298 5.77099C72.5778 8.32786 71.6314 9.32463 69.1582 9.43969C68.9032 9.4517 68.6501 9.50868 68.3962 9.5447C68.6081 9.73937 68.8216 9.80807 69.0379 9.81952C72.406 9.99771 72.8706 10.4328 73.2755 13.7686C73.432 15.0575 73.5042 16.3693 73.8051 17.6244C74.1779 19.1809 75.3096 19.8291 77.1658 19.9383C78.6603 20.0263 79.2632 19.1842 79.6791 17.8993C80.235 16.1816 80.8891 14.4931 81.5829 12.8266C81.7364 12.4577 82.2198 12.0013 82.5716 11.9829C84.2683 11.8952 85.9719 11.9435 87.7144 11.9435C88.6086 14.3392 89.4769 16.6662 90.3818 19.091C89.6224 19.1479 89.0051 19.194 88.3879 19.2401Z" fill="#FEFEFE"/>
</g>
<mask id="mask1" mask-type="alpha" maskUnits="userSpaceOnUse" x="31" y="0" width="84" height="20">
<path fill-rule="evenodd" clip-rule="evenodd" d="M31.915 0.629883H114.17V19.9448H31.915V0.629883Z" fill="white"/>
</mask>
<g mask="url(#mask1)">
<path fill-rule="evenodd" clip-rule="evenodd" d="M84.9527 4.40405C84.8443 4.41858 84.7356 4.43282 84.6272 4.44734C83.7796 6.72659 82.9319 9.00584 82.0483 11.3812H87.5593C86.669 8.99802 85.8109 6.7009 84.9527 4.40405ZM88.3879 19.24C89.0051 19.1939 89.6224 19.1478 90.3818 19.0911C89.4769 16.6661 88.6086 14.3391 87.7144 11.9434C85.9719 11.9434 84.2683 11.895 82.5719 11.983C82.2199 12.0012 81.7364 12.4578 81.5829 12.8267C80.8893 14.493 80.235 16.1815 79.6791 17.8994C79.2632 19.1844 78.6603 20.0264 77.1658 19.9385C75.3096 19.8293 74.1779 19.1811 73.8051 17.6243C73.5042 16.3695 73.432 15.0574 73.2755 13.7688C72.8706 10.4327 72.406 9.99758 69.0379 9.81967C68.8216 9.80822 68.6081 9.73924 68.3962 9.54458C68.6501 9.50855 68.9032 9.45158 69.1582 9.43985C71.6314 9.32478 72.5778 8.32773 72.6298 5.77115C72.69 2.79787 71.8623 1.66872 69.3448 1.4749C68.115 1.38022 66.8724 1.45842 65.5309 1.45842V19.121C66.2123 19.1526 66.8788 19.1833 67.5453 19.2143C67.5467 19.3053 67.5478 19.3964 67.5489 19.4874C66.6869 19.4874 65.8246 19.4874 64.9625 19.4874C62.1049 19.4874 59.2473 19.493 56.3896 19.4858C54.0016 19.4799 52.9653 18.5147 52.7297 16.0896C52.6307 15.0716 52.5472 14.0522 52.4584 13.0331C52.2731 10.905 51.2042 9.87804 49.0601 9.82582C47.781 9.79454 46.5008 9.81995 45.2209 9.81995C45.2171 9.69204 45.2132 9.56413 45.209 9.43621C46.2406 9.43621 47.2719 9.4432 48.3031 9.43482C50.7587 9.41415 51.7789 8.3928 51.8807 5.86415C51.9979 2.95623 51.1049 1.57991 48.6693 1.50282C44.7215 1.37798 40.767 1.46931 36.7343 1.46931V9.28819C39.8505 9.76354 40.418 9.38622 42.0657 5.59073V13.5194C40.0953 9.73281 39.5966 9.40912 36.7249 10.0152V19.0045C41.1542 19.7762 42.5218 18.9308 44.8396 13.888V19.3785H31.9654C31.9612 19.3316 31.9574 19.2849 31.9532 19.238C32.5616 19.1986 33.1698 19.159 33.8974 19.1118V1.52712C33.2209 1.44808 32.568 1.37184 31.915 1.29559C31.9203 1.21656 31.9255 1.13752 31.9308 1.05848C32.5658 1.05848 33.2007 1.05848 33.836 1.05848C39.1824 1.05876 44.529 1.06686 49.8754 1.05569C51.6738 1.05178 53.1177 1.75167 54.0889 3.26819C55.3152 5.18325 54.7187 7.47144 52.7164 8.67404C52.1354 9.02315 51.4799 9.2463 50.8007 9.55324C54.3 10.4612 55.1584 11.802 55.2925 14.9448C55.4728 19.1679 55.6092 19.1721 59.7235 19.1721C60.6889 19.1721 61.6541 19.1721 62.7581 19.1721C62.7999 18.7121 62.8668 18.3158 62.8674 17.9195C62.8743 12.8463 62.8416 7.77223 62.8964 2.69956C62.908 1.60979 62.5302 1.40172 61.5377 1.39027C58.6427 1.3576 57.383 3.17714 56.4471 5.60693V1.0582C57.2798 1.0582 58.1405 1.0582 59.0011 1.05848C62.9647 1.05932 66.9288 1.02832 70.8922 1.07272C73.5263 1.10233 75.4636 3.06068 75.421 5.49884C75.3898 7.27259 74.3477 8.28919 72.8964 9.00081C72.4915 9.19938 72.0529 9.32813 71.4583 9.55407C73.6732 10.0861 75.5358 10.8282 75.8931 13.2563C76.069 14.4497 76.095 15.6651 76.2042 16.8691C76.2416 17.2827 76.2067 17.7721 76.4141 18.0851C76.7626 18.6108 77.2784 19.0227 77.7239 19.4827C78.1404 19.059 78.7491 18.7105 78.9438 18.2005C80.9607 12.9214 82.898 7.61164 84.9011 2.32728C85.0836 1.84551 85.5698 1.48104 85.9149 1.06211C86.291 1.49612 86.8242 1.86841 87.0189 2.37364C88.9858 7.47367 90.9352 12.5815 92.7945 17.7221C93.2143 18.8825 93.7674 19.3696 94.9795 19.1872C95.8842 19.0512 96.8286 19.1512 97.7208 18.9719C99.772 18.5594 100.825 17.3174 101.04 15.2468C101.207 13.6339 100.225 12.1327 98.3914 11.4256C97.0642 10.9136 95.6745 10.5693 94.3236 10.1174C91.1813 9.06644 90.0336 7.45747 90.582 4.91709C91.1623 2.22953 93.7638 0.346581 96.5581 0.664967C97.4168 0.762996 98.2459 1.10372 99.103 1.24504C99.8143 1.36234 100.546 1.35033 101.395 1.4034V6.11998C101.342 6.14232 101.29 6.16466 101.237 6.18672C101.01 5.57788 100.806 4.95843 100.55 4.36215C99.3356 1.53606 96.8507 0.399366 94.1391 1.41457C92.6548 1.97007 91.8216 3.1872 91.878 4.71684C91.9333 6.21773 92.6175 6.94526 94.3272 7.44966C96.44 8.0733 98.5338 8.76425 100.649 9.37868C101.123 9.51637 101.653 9.4823 102.157 9.48425C104.506 9.49403 106.855 9.48872 109.315 9.48872V1.48886C108.675 1.43859 108.057 1.38999 107.438 1.3414C107.441 1.27884 107.444 1.21628 107.447 1.15372H114.157L114.17 1.32185C113.552 1.37575 112.934 1.42937 112.216 1.49193V19.1098C112.882 19.1523 113.502 19.1917 114.123 19.2313C114.119 19.2903 114.115 19.3495 114.112 19.4084H107.456C107.452 19.3534 107.447 19.2981 107.443 19.2431C108.048 19.2003 108.652 19.1576 109.34 19.1093V10.0682H101.734C103.441 12.1009 103.438 14.2768 102.211 16.4119C100.916 18.6686 98.8347 19.5531 96.2788 19.4997C93.6579 19.4447 91.035 19.4874 88.413 19.4874C88.4047 19.405 88.3962 19.3226 88.3879 19.24Z" fill="#1D1D1B"/>
</g>
<mask id="mask2" mask-type="alpha" maskUnits="userSpaceOnUse" x="0" y="1" width="23" height="19">
<path fill-rule="evenodd" clip-rule="evenodd" d="M0.427734 1.3779H22.3834V19.95H0.427734V1.3779Z" fill="white"/>
</mask>
<g mask="url(#mask2)">
<path fill-rule="evenodd" clip-rule="evenodd" d="M11.3624 1.86154C9.25037 1.86154 7.29217 1.70919 5.37787 1.92836C4.47469 2.03176 3.46581 2.68214 2.83918 3.37651C1.57724 4.77461 2.113 7.06069 3.76809 7.60821C6.25309 8.43046 8.78843 9.10669 11.3624 9.86294V1.86154ZM22.3834 18.4251C19.9222 20.7331 15.0531 20.3825 12.2544 17.6355C9.47884 20.4422 6.17678 20.2519 2.69855 19.2358C2.03417 19.0416 1.26101 19.208 0.427734 19.208V14.3102C0.483379 14.2918 0.539304 14.2734 0.595228 14.255C0.822002 14.8567 1.02473 15.4683 1.28002 16.0579C2.59201 19.0897 6.14182 20.4733 9.17545 19.0985C10.653 18.4292 11.3973 17.2453 11.4868 15.6228C11.5763 13.9992 10.8345 12.8456 9.42292 12.1938C8.25549 11.6546 6.97594 11.349 5.74504 10.9431C5.34881 10.8125 4.94616 10.7003 4.55133 10.5658C1.77691 9.61983 0.667091 8.29103 0.830671 6.11853C1.0032 3.82503 2.75531 1.67481 5.2557 1.50046C8.88408 1.24773 12.5443 1.43583 16.2026 1.61706C15.5268 1.66711 14.8512 1.71688 14.2129 1.76391C14.1259 1.88216 14.028 1.95338 14.0277 2.02488C14.0166 6.28353 13.841 10.5507 14.0568 14.7989C14.2886 19.3559 17.9875 21.0087 21.9036 18.5084C22.0185 18.435 22.1522 18.3893 22.2769 18.3305C22.3124 18.3621 22.3479 18.3934 22.3834 18.4251Z" fill="#1D1D1B"/>
</g>
<path fill-rule="evenodd" clip-rule="evenodd" d="M24.103 11.7262C24.9353 11.7262 25.6402 11.7354 26.3446 11.7243C28.2032 11.6958 29.255 10.9734 29.4748 9.10884C29.6718 7.43558 29.6555 5.68434 29.3772 4.02927C29.2491 3.26694 28.3901 2.32748 27.6492 2.04738C26.5888 1.64611 25.3331 1.77543 24.103 1.67328V11.7262ZM22.1407 18.1568C23.3737 16.7522 23.6635 15.0841 23.6286 13.2557C23.5651 9.90948 23.6107 6.56158 23.6109 3.21423C23.6109 2.77357 23.6109 2.33291 23.6109 1.82541C22.8712 1.76048 22.2697 1.70778 21.6685 1.6548C21.6746 1.52005 21.6808 1.38502 21.687 1.25C24.1039 1.41002 26.5717 1.31439 28.9235 1.79852C31.5439 2.3378 32.8497 4.50362 32.7023 7.12287C32.5613 9.62231 30.9102 11.4678 28.2365 11.9392C26.9295 12.1696 25.5861 12.1872 24.1055 12.3144C24.0031 14.4098 24.3084 16.7403 22.2429 18.25C22.2088 18.219 22.1748 18.1878 22.1407 18.1568Z" fill="#1D1D1B"/>
<path fill-rule="evenodd" clip-rule="evenodd" d="M84.6783 4.65002C85.4721 6.88856 86.2659 9.12738 87.0894 11.45H81.9917C82.809 9.135 83.5931 6.91361 84.3772 4.69221C84.4775 4.67806 84.578 4.66418 84.6783 4.65002Z" fill="#FEFEFE"/>
</svg>
