<svg width="63" height="14" viewBox="0 0 63 14" fill="none" xmlns="http://www.w3.org/2000/svg">
<mask id="mask0" mask-type="alpha" maskUnits="userSpaceOnUse" x="0" y="0" width="10" height="14">
<path fill-rule="evenodd" clip-rule="evenodd" d="M0 0.341797H9.70977V13.7653H0V0.341797Z" fill="white"/>
</mask>
<g mask="url(#mask0)">
<path fill-rule="evenodd" clip-rule="evenodd" d="M9.64249 0.453561C9.59163 0.3736 9.4736 0.341797 9.2884 0.341797H3.60759C2.91572 0.341797 2.34284 0.437206 1.888 0.628023C1.43315 0.820657 1.06178 1.0769 0.775825 1.39493C0.488906 1.71477 0.286431 2.08187 0.185673 2.49622C0.067643 2.91147 -0.000488281 3.34308 -0.000488281 3.78923V13.3673C-0.000488281 13.5427 0.0503703 13.6381 0.134815 13.6863C0.202946 13.7508 0.320017 13.7653 0.471633 13.7653H2.00603C2.19123 13.7653 2.32653 13.7508 2.37643 13.7017C2.44456 13.6545 2.47815 13.5427 2.47815 13.3673V3.66111C2.47815 3.24676 2.57891 2.94327 2.78138 2.71974C3.00113 2.51348 3.35426 2.41625 3.87724 2.41625H9.2884C9.4736 2.41625 9.57532 2.38445 9.64249 2.32085C9.69335 2.25633 9.70966 2.12912 9.70966 1.9701V0.788855C9.70966 0.628023 9.69335 0.517167 9.64249 0.453561ZM8.54655 5.89648H3.22559V7.87644H8.54655C8.71543 7.87644 8.83346 7.82828 8.88336 7.76468C8.91791 7.68381 8.9515 7.57295 8.9515 7.42938V6.34354C8.9515 6.16817 8.91791 6.04005 8.88336 5.97645C8.83346 5.92829 8.71543 5.89648 8.54655 5.89648Z" fill="white"/>
</g>
<path fill-rule="evenodd" clip-rule="evenodd" d="M19.4868 11.1662H14.4916L13.6258 13.6838C13.5867 13.7953 13.5297 13.8761 13.4579 13.9262C13.3861 13.9745 13.2713 14 13.1136 14H11.3046C11.1609 14 11.0686 13.9605 11.0294 13.8788C10.9902 13.7988 10.9902 13.7101 11.0294 13.61L15.2781 1.88898C15.3425 1.70363 15.4088 1.55517 15.4741 1.44449C15.5403 1.33293 15.6224 1.24684 15.7204 1.18535C15.8183 1.12298 15.9331 1.0773 16.0646 1.04656C16.1952 1.01493 16.3529 1 16.5358 1H17.382C17.7888 1 18.077 1.05886 18.2478 1.17657C18.4176 1.29428 18.5687 1.5297 18.7003 1.88898L22.9677 13.61C23.0069 13.7101 23.0106 13.7988 22.9779 13.8788C22.9453 13.9605 22.8557 14 22.712 14H20.9021C20.7584 14 20.6436 13.9842 20.5578 13.9526C20.4738 13.9227 20.4048 13.8392 20.3516 13.7031L19.4868 11.1662ZM15.0811 9.24074H18.8568L17.8342 6.13019L17.0086 3.49927H16.9097L16.1036 6.07397L15.0811 9.24074Z" fill="white"/>
<path fill-rule="evenodd" clip-rule="evenodd" d="M26 1.38882C26 1.22872 26.0347 1.12316 26.1032 1.07389C26.1717 1.02551 26.2819 1 26.4314 1H27.8375C28.0127 1 28.131 1.02199 28.1942 1.0651C28.2564 1.10908 28.2876 1.21728 28.2876 1.38882V10.6801C28.2876 11.1621 28.4094 11.5017 28.6531 11.6996C28.8968 11.8967 29.2312 11.997 29.6564 11.997H34.6816C34.8186 11.997 34.9066 12.0216 34.944 12.0708C34.9813 12.1201 35 12.2134 35 12.3488V13.6481C35 13.7713 34.9813 13.861 34.944 13.9164C34.9066 13.9727 34.8186 14 34.6816 14H29.3006C28.6496 14 28.1124 13.9068 27.6872 13.722C27.263 13.5364 26.925 13.2883 26.6751 12.9796C26.4251 12.6699 26.2499 12.3189 26.1503 11.9231C26.0498 11.5272 26 11.1129 26 10.6801V1.38882Z" fill="white"/>
<mask id="mask1" mask-type="alpha" maskUnits="userSpaceOnUse" x="39" y="0" width="11" height="14">
<path fill-rule="evenodd" clip-rule="evenodd" d="M39.1636 0.361084H49.9158V13.9999H39.1636V0.361084Z" fill="white"/>
</mask>
<g mask="url(#mask1)">
<path fill-rule="evenodd" clip-rule="evenodd" d="M49.9158 11.9128C49.9158 12.3971 49.8051 12.8015 49.5826 13.1186C49.3602 13.4384 48.9543 13.6556 48.3661 13.771C48.1166 13.8228 47.8523 13.86 47.5712 13.8864C47.2901 13.9109 47.0118 13.9327 46.7372 13.9527C46.4627 13.9718 46.2011 13.9836 45.9526 13.99C45.7032 13.9963 45.4816 14 45.2852 14C44.1869 14 43.2478 13.9009 42.4697 13.7038C41.6915 13.5057 41.0605 13.1767 40.5765 12.717C40.0925 12.2572 39.7388 11.6438 39.5163 10.8788C39.2939 10.1128 39.1831 9.1614 39.1831 8.02467L39.1636 0.762709C39.1636 0.598243 39.2027 0.489204 39.2809 0.439228C39.359 0.387435 39.4707 0.361084 39.615 0.361084H41.1452C41.3285 0.361084 41.4495 0.384709 41.5082 0.428324C41.5668 0.473757 41.5966 0.585521 41.5966 0.762709V8.06193C41.5966 8.71343 41.645 9.28225 41.7437 9.76747C41.8414 10.2527 42.0248 10.6543 42.2928 10.9742C42.5609 11.2931 42.9341 11.5321 43.4116 11.6929C43.8891 11.8519 44.5136 11.9319 45.2852 11.9319C45.4816 11.9319 45.7925 11.9219 46.2179 11.9028C46.6423 11.8846 47.0844 11.8292 47.5424 11.7402V0.762709C47.5424 0.598243 47.5787 0.489204 47.6503 0.439228C47.722 0.387435 47.8365 0.361084 47.9938 0.361084H49.524C49.7064 0.361084 49.8181 0.384709 49.8581 0.428324C49.8963 0.473757 49.9158 0.585521 49.9158 0.762709V11.9128Z" fill="white"/>
</g>
<mask id="mask2" mask-type="alpha" maskUnits="userSpaceOnUse" x="53" y="0" width="10" height="14">
<path fill-rule="evenodd" clip-rule="evenodd" d="M53.1816 0.343018H62.9721V13.7711H53.1816V0.343018Z" fill="white"/>
</mask>
<g mask="url(#mask2)">
<path fill-rule="evenodd" clip-rule="evenodd" d="M62.8918 13.6557C62.8371 13.732 62.7229 13.7711 62.5473 13.7711H56.783C56.0671 13.7711 55.4808 13.6748 55.0231 13.484C54.5635 13.2922 54.1959 13.036 53.9196 12.7171C53.6432 12.3972 53.4513 12.0347 53.3438 11.6258C53.2354 11.2169 53.1816 10.7889 53.1816 10.3418V3.79136C53.1816 3.34339 53.2459 2.9136 53.3745 2.49925C53.5012 2.08309 53.7104 1.71599 54.0011 1.39706C54.2909 1.07721 54.6652 0.82097 55.1229 0.629244C55.5816 0.439335 56.1343 0.343018 56.783 0.343018H62.4254C62.601 0.343018 62.7123 0.379364 62.7603 0.44933C62.8073 0.519296 62.8313 0.629244 62.8313 0.783715V1.99041C62.8313 2.15578 62.8073 2.26846 62.7603 2.3257C62.7123 2.38385 62.601 2.41111 62.4254 2.41111H57.045C56.5325 2.41111 56.1717 2.52015 55.9625 2.73641C55.7534 2.9554 55.6488 3.26707 55.6488 3.67596V5.6859H61.7585C61.9332 5.6859 62.0445 5.71952 62.0924 5.78313C62.1395 5.84673 62.1635 5.96849 62.1635 6.14568V7.20063C62.1635 7.35419 62.1395 7.46596 62.0924 7.53592C62.0445 7.60589 61.9332 7.64133 61.7585 7.64133H55.6488V10.4236C55.6488 10.8307 55.761 11.1387 55.9837 11.3495C56.2053 11.5585 56.5594 11.663 57.045 11.663H62.5473C62.7363 11.663 62.8534 11.6957 62.9014 11.7593C62.9484 11.8248 62.9724 11.9465 62.9724 12.1273V13.3268C62.9724 13.4685 62.9455 13.5776 62.8918 13.6557Z" fill="white"/>
</g>
</svg>
