<?xml version="1.0" encoding="UTF-8"?>
<svg width="38px" height="30px" viewBox="0 0 38 30" version="1.1" xmlns="http://www.w3.org/2000/svg" xmlns:xlink="http://www.w3.org/1999/xlink">
    <!-- Generator: Sketch 49.1 (51147) - http://www.bohemiancoding.com/sketch -->
    <title>003-tag</title>
    <desc>Created with Sketch.</desc>
    <defs>
        <polygon id="path-1" points="0 0 38 0 38 30 0 30"></polygon>
    </defs>
    <g id="Homepage" stroke="none" stroke-width="1" fill="none" fill-rule="evenodd">
        <g id="Falue-onepager-Copy-19" transform="translate(-431.000000, -939.000000)">
            <g id="Group-4" transform="translate(92.000000, 937.000000)">
                <g id="003-tag" transform="translate(339.000000, 2.000000)">
                    <mask id="mask-2" fill="white">
                        <use xlink:href="#path-1"></use>
                    </mask>
                    <g id="Clip-2"></g>
                    <path d="M10.2493209,29.1374618 C11.3889688,30.2875127 13.2380193,30.2875127 14.3771795,29.1374618 L28.5089504,14.8722018 C28.9147135,14.4625946 29.2268389,13.9741184 29.4295253,13.4541338 C30.8498911,13.8560609 32.2310461,14.0687416 33.4484327,14.0606676 C36.4603455,14.0449135 37.4589517,12.7137885 37.7865859,11.9183038 C38.1147077,11.1305976 38.3486067,9.47641471 36.233957,7.30214881 L36.1639239,7.23135372 C34.852802,5.90820431 32.9489345,4.68706285 30.787466,3.78129924 C30.389311,3.61588095 29.9914486,3.46631524 29.6012919,3.32433121 L29.6012919,3.30089695 C29.5776874,1.55199237 28.1813163,0.141998362 26.4488251,0.118564104 L17.9823256,0.000408181473 C16.8587717,-0.0153459415 15.7820365,0.425474113 14.9937248,1.22893439 L0.854735949,15.4945882 C-0.284911983,16.6445407 -0.284911983,18.5115027 0.854735949,19.6615537 L10.2493209,29.1374618 Z M21.1428881,5.10474404 C22.08697,4.15132421 23.6163845,4.15132421 24.5605639,5.10474404 C25.1221946,5.67169554 25.3484855,6.45172155 25.2395342,7.18399289 C26.1680098,7.84596144 27.276055,8.46017531 28.4621316,8.95633172 C28.8835009,9.129824 29.289264,9.28716831 29.6794208,9.42137374 L29.6326019,5.98667954 C29.7027326,6.01828625 29.7651577,6.04211436 29.8352884,6.0736226 C31.684729,6.85325477 33.3466993,7.90868254 34.4158264,8.98793843 L34.4626452,9.0352008 C35.4769553,10.0829484 35.5862968,10.7525971 35.5005598,10.9572038 C35.2349606,11.5952458 32.3869137,12.1625911 28.0639766,10.3428915 C26.8001613,9.80715283 25.6140847,9.14557813 24.6542991,8.42866707 C24.622989,8.4682493 24.5837782,8.50753614 24.5525657,8.54672453 C23.6083863,9.49984897 22.0789718,9.49984897 21.1348899,8.54672453 C20.1983186,7.60177253 20.1983186,6.05786848 21.1428881,5.10474404 Z" id="Fill-1" fill="#000000" mask="url(#mask-2)"></path>
                </g>
            </g>
        </g>
    </g>
</svg>