<?xml version="1.0" encoding="UTF-8"?>
<svg width="18px" height="42px" viewBox="0 0 18 42" version="1.1" xmlns="http://www.w3.org/2000/svg" xmlns:xlink="http://www.w3.org/1999/xlink">
    <!-- Generator: Sketch 49.1 (51147) - http://www.bohemiancoding.com/sketch -->
    <title>001-mannequin-with-stand</title>
    <desc>Created with Sketch.</desc>
    <defs>
        <polygon id="path-1" points="0 0 18 0 18 42 0 42"></polygon>
    </defs>
    <g id="Homepage" stroke="none" stroke-width="1" fill="none" fill-rule="evenodd">
        <g id="Falue-onepager-Copy-19" transform="translate(-105.000000, -1115.000000)">
            <g id="Group-4" transform="translate(92.000000, 937.000000)">
                <g id="001-mannequin-with-stand" transform="translate(13.000000, 178.000000)">
                    <mask id="mask-2" fill="white">
                        <use xlink:href="#path-1"></use>
                    </mask>
                    <g id="Clip-2"></g>
                    <path d="M17.9953424,38.0393177 C18.0478162,37.504886 17.6508795,37.0286804 17.1087248,36.9777874 C16.8773079,36.9551318 13.8356061,36.6815133 10.1303833,37.0812152 L10.1303833,30.293835 C12.1771919,30.2826714 13.7571728,30.0812881 14.793335,29.8906308 C15.596749,29.7430957 16.2324245,28.9013358 16.2324245,28.094599 L16.2324245,24.2031969 C16.2324245,23.3968979 15.9490885,22.1528094 15.6010756,21.423452 L13.7814683,17.6175283 C13.4334553,16.8890464 13.5041229,15.7449928 13.9408864,15.0639016 L15.4003885,12.7873958 C15.8372629,12.1063047 16.1925977,10.9006322 16.1934852,10.0943332 C16.195593,8.14562236 16.1986993,4.93618696 16.192154,4.93957983 C14.7360909,5.56682285 13.0005747,4.91145185 12.3643445,3.47495479 C12.171534,3.04012029 12.0987586,2.58350576 12.1308197,2.14013436 C12.1858451,1.3864796 12.3825384,0.660952818 12.1733091,0.425750366 C12.1047493,0.348808848 12.0397395,0.275260198 11.9839377,0.212875183 C11.8794339,0.095328681 11.131489,0 10.3146515,0 L7.97230372,0 C7.15590998,0 6.40885257,0.095328681 6.3039051,0.212875183 C6.24799228,0.275260198 6.18342628,0.347933268 6.11408995,0.425750366 C5.90530437,0.660952818 6.10199769,1.3864796 6.157023,2.14013436 C6.18908413,2.58438134 6.11630871,3.04055808 5.92349823,3.47495479 C5.28726802,4.91145185 3.55130807,5.56638506 2.09568879,4.93957983 C2.08958719,4.93618696 2.09213877,8.14562236 2.09347002,10.0943332 C2.09524503,10.9006322 2.44924862,12.1063047 2.88656676,12.7873958 L4.34651263,15.0639016 C4.78327607,15.7449928 4.85483116,16.8881708 4.50548697,17.6175283 L2.68543592,21.423452 C2.33697923,22.1528094 2.05497449,23.3968979 2.05497449,24.2031969 L2.05497449,28.094599 C2.05497449,28.9013358 2.69109376,29.7430957 3.49317648,29.8906308 C4.53022618,30.0812881 6.11020711,30.2826714 8.15657197,30.293835 L8.15657197,37.1145966 C4.32266093,36.6669568 1.12886293,36.9542562 0.891344382,36.9777874 C0.34930065,37.0286804 -0.0481906913,37.5053238 0.00472679957,38.0401933 C0.058088043,38.5741871 0.540779872,38.9718095 1.08115953,38.9135835 C1.10756281,38.9123795 1.83698105,38.8464922 2.98962829,38.82515 C2.08270902,39.2158772 1.21506186,39.6780735 0.418636985,40.2320962 C-0.0264468166,40.5408473 -0.13394587,41.147952 0.180230931,41.5873833 C0.372264844,41.8567334 0.676900965,42 0.987971498,42 C1.18477575,42 1.38191282,41.9426496 1.55486537,41.8225858 C3.66180245,40.3591647 6.41484323,39.5917195 9.00635809,39.199679 C11.5929917,39.5912817 14.3391543,40.3591647 16.4452039,41.8225858 C16.6177127,41.9426496 16.816181,42 17.0120977,42 C17.3223917,42 17.6270278,41.8567334 17.8193945,41.5873833 C18.1322401,41.147952 18.026516,40.5420513 17.5810994,40.2320962 C16.7850074,39.6780735 15.917804,39.216315 15.0116613,38.8269011 C16.1635319,38.8464922 16.8929502,38.9123795 16.9184659,38.9148968 C17.4606206,38.9653521 17.9424249,38.5737493 17.9953424,38.0393177 Z" id="Fill-1" fill="#000000" mask="url(#mask-2)"></path>
                </g>
            </g>
        </g>
    </g>
</svg>