<?xml version="1.0" encoding="UTF-8"?>
<svg width="33px" height="24px" viewBox="0 0 33 24" version="1.1" xmlns="http://www.w3.org/2000/svg" xmlns:xlink="http://www.w3.org/1999/xlink">
    <!-- Generator: Sketch 49.1 (51147) - http://www.bohemiancoding.com/sketch -->
    <title>004-electric-sewing-machine</title>
    <desc>Created with Sketch.</desc>
    <defs>
        <polygon id="path-1" points="0 0 33 0 33 24 0 24"></polygon>
    </defs>
    <g id="Homepage" stroke="none" stroke-width="1" fill="none" fill-rule="evenodd">
        <g id="Falue-onepager-Copy-19" transform="translate(-92.000000, -940.000000)">
            <g id="Group-4" transform="translate(92.000000, 937.000000)">
                <g id="004-electric-sewing-machine" transform="translate(0.000000, 3.000000)">
                    <mask id="mask-2" fill="white">
                        <use xlink:href="#path-1"></use>
                    </mask>
                    <g id="Clip-2"></g>
                    <path d="M32.0918707,10.0785475 L31.5751804,10.0785475 L31.5751804,7.75784298 L31.8419504,7.75784298 C32.2071886,7.75784298 32.5016192,7.17414944 32.5016192,6.4531279 L32.5016192,3.38970288 C32.5016192,2.66828501 32.2075782,2.08459147 31.8419504,2.08459147 L31.5751804,2.08459147 L31.5751804,1.74018157 C31.5751804,0.778390161 30.8085699,0 29.8646971,0 L4.56167861,0 C3.6174162,0 2.85109783,0.778390161 2.85109783,1.74018157 L2.85109783,6.96052811 L3.17036469,9.15510088 C3.30925259,10.1055969 4.18728514,10.8758623 5.13193714,10.8758623 L6.70898685,10.8758623 L6.70898685,13.541373 L6.4110499,13.541373 C6.36692913,13.4187092 6.29203095,13.3324086 6.20145189,13.3324086 C6.06373275,13.3324086 5.95143419,13.5239346 5.95143419,13.7577687 C5.95143419,13.9934853 6.06373275,14.1854077 6.20145189,14.1854077 C6.29125178,14.1854077 6.36692913,14.0983144 6.4110499,13.9760469 L6.70976602,13.9760469 L6.70976602,15.2076392 L7.37742139,15.2076392 L7.37742139,14.7904039 L8.02345466,14.7904039 C8.06757543,14.913464 8.14286319,14.9997647 8.23266308,14.9997647 C8.37038222,14.9997647 8.48229119,14.8089323 8.48229119,14.5744046 C8.48229119,14.3374989 8.37038222,14.1478555 8.23266308,14.1478555 C8.14218141,14.1478555 8.06679626,14.2341561 8.02345466,14.3565227 L7.37742139,14.3565227 L7.37742139,12.0543466 L7.78415061,12.0543466 C7.82982973,12.16086 7.89976067,12.2358653 7.98313237,12.2358653 C8.12163068,12.2358653 8.23266308,12.0447356 8.23266308,11.8086226 C8.23266308,11.5744913 8.12163068,11.3836589 7.98313237,11.3836589 C7.8865147,11.3836589 7.80470135,11.4807595 7.7628207,11.6177902 L7.37742139,11.6177902 L7.37742139,10.875466 L8.41148369,10.875466 C9.35584349,10.875466 10.1102795,10.0761695 10.427501,9.17095404 C10.5995038,8.68089323 10.8228348,8.27614223 11.0465553,7.95333226 C11.4760754,7.33089756 12.7414552,6.95973545 13.6854254,6.95973545 L18.889631,6.95973545 C19.8332117,6.95973545 20.599043,7.73891827 20.599043,8.69991702 L20.599043,15.588016 C20.599043,16.5483212 19.8343804,17.3285939 18.889631,17.3285939 L1.71087297,17.3285939 C0.765831389,17.3285939 0,18.1076776 0,19.0690727 L0,22.2602148 C0,23.2205199 0.765831389,24 1.71087297,24 L29.8643075,24 C30.8085699,24 31.5744987,23.2205199 31.5744987,22.2602148 L31.5744987,14.1470628 L32.0918707,14.1470628 C32.5936592,14.1470628 32.9999989,13.5634684 32.9999989,12.8412578 L32.9999989,11.3828662 C33.0007781,10.6618447 32.5940488,10.0785475 32.0918707,10.0785475 Z M26.2652019,1.6484314 L29.7216211,1.6484314 C29.9579058,1.6484314 30.1489011,1.84461426 30.1489011,2.08379881 C30.1489011,2.32377602 29.9579058,2.51966163 29.7216211,2.51966163 L26.2652019,2.51966163 C26.0285275,2.51966163 25.8375323,2.32456868 25.8375323,2.08379881 C25.8375323,1.84461426 26.0285275,1.6484314 26.2652019,1.6484314 Z M26.2652019,3.18965581 L29.7216211,3.18965581 C29.9579058,3.18965581 30.1489011,3.38464968 30.1489011,3.62423056 C30.1489011,3.86500043 29.9579058,4.05930073 29.7216211,4.05930073 L26.2652019,4.05930073 C26.0285275,4.05930073 25.8375323,3.86500043 25.8375323,3.62423056 C25.8375323,3.38464968 26.0285275,3.18965581 26.2652019,3.18965581 Z M23.8614477,2.08231258 C23.3764115,2.61527601 22.4122801,3.04529297 21.7039128,3.04529297 L9.83630213,3.04529297 C9.60040697,3.04529297 9.40902217,2.84940736 9.40902217,2.60943015 L9.40902217,1.55826656 C9.40902217,1.31868567 9.60040697,1.12280006 9.83630213,1.12280006 L23.4502383,1.12280006 C24.1578263,1.12280006 24.3423934,1.55202437 23.8614477,2.08231258 Z M30.7907463,14.5736119 C30.7907463,15.0535663 30.4079767,15.4436532 29.9354072,15.4436532 L25.6237463,15.4436532 C25.1515664,15.4436532 24.7688941,15.0535663 24.7688941,14.5736119 L24.7688941,9.0265912 C24.7688941,8.54624045 25.1515664,8.15645087 25.6237463,8.15645087 L29.9354072,8.15645087 C30.4079767,8.15645087 30.7907463,8.54624045 30.7907463,9.0265912 L30.7907463,14.5736119 Z" id="Fill-1" fill="#000000" mask="url(#mask-2)"></path>
                </g>
            </g>
        </g>
    </g>
</svg>