<?xml version="1.0" encoding="UTF-8"?>
<svg width="36px" height="19px" viewBox="0 0 36 19" version="1.1" xmlns="http://www.w3.org/2000/svg" xmlns:xlink="http://www.w3.org/1999/xlink">
    <!-- Generator: Sketch 49.1 (51147) - http://www.bohemiancoding.com/sketch -->
    <title>002-measuring-tape-rolled</title>
    <desc>Created with Sketch.</desc>
    <defs></defs>
    <g id="Homepage" stroke="none" stroke-width="1" fill="none" fill-rule="evenodd">
        <g id="Falue-onepager-Copy-19" transform="translate(-433.000000, -1127.000000)" fill="#010002">
            <g id="Group-4" transform="translate(92.000000, 937.000000)">
                <path d="M367.906,198.832 C372.777,198.832 376.723,196.973 376.723,194.672 C376.723,192.372 372.777,190.512 367.906,190.512 C363.043,190.512 359.098,192.372 359.098,194.672 C359.098,196.973 363.043,198.832 367.906,198.832 Z M367.906,192.727 C370.188,192.727 372.027,193.598 372.027,194.672 C372.027,195.747 370.184,196.618 367.906,196.618 C365.637,196.618 363.793,195.747 363.793,194.672 C363.793,193.598 365.637,192.727 367.906,192.727 Z M341,194.672 L357.887,194.672 L357.887,204.575 L356.695,204.575 L356.695,202.364 L356.25,202.364 L356.25,204.575 L354.559,204.575 L354.559,201.391 L354.117,201.391 L354.117,204.575 L352.562,204.575 L352.562,202.364 L352.121,202.364 L352.121,204.575 L350.012,204.575 L350.012,201.391 L349.57,201.391 L349.57,204.575 L347.488,204.575 L347.488,202.364 L347.047,202.364 L347.047,204.575 L345.215,204.575 L345.215,201.391 L344.77,201.391 L344.77,204.575 L342.664,204.575 L342.664,202.86 L342.219,202.86 L342.219,204.575 L341,204.575 L341,194.672 Z M376.809,197.227 L376.809,206.137 L375.098,207.368 L375.098,203.297 L374.496,203.727 L374.496,207.704 C373.977,207.954 372.973,208.258 372.973,208.258 L372.973,205.403 L372.375,205.704 L372.375,208.477 C371.859,208.614 371.281,208.723 370.668,208.813 L370.668,204.747 L370.066,204.895 L370.066,208.895 C369.473,208.957 368.844,209 368.164,209 C368.109,209 368.055,208.997 368.004,208.997 L368.004,206.188 L367.402,206.2 L367.402,208.977 C366.68,208.954 366.008,208.887 365.383,208.786 L365.383,204.813 L364.781,204.665 L364.781,208.684 C364.203,208.567 363.664,208.434 363.172,208.286 L363.172,205.489 L362.574,205.184 L362.574,208.043 C362.574,208.043 361.562,207.704 360.992,207.418 L360.992,203.438 L360.391,203.012 L360.391,207.082 L359.012,206.141 L359.012,197.227 C359.012,197.227 362.48,200.094 367.797,200.094 C373.113,200.094 376.809,197.227 376.809,197.227 Z M363.172,208.286 L363.172,208.293 C363.172,208.293 363.141,208.274 363.172,208.286 Z M374.496,207.727 L374.496,207.704 C374.57,207.665 374.496,207.727 374.496,207.727 Z" id="002-measuring-tape-rolled"></path>
            </g>
        </g>
    </g>
</svg>