<svg width="200" height="72" viewBox="0 0 200 72" fill="none" xmlns="http://www.w3.org/2000/svg">
<g filter="url(#filter0_d)">
<mask id="mask0" mask-type="alpha" maskUnits="userSpaceOnUse" x="18" y="19" width="26" height="36">
<path fill-rule="evenodd" clip-rule="evenodd" d="M18 19.879H43.2454V54.3967H18V19.879Z" fill="white"/>
</mask>
<g mask="url(#mask0)">
<path fill-rule="evenodd" clip-rule="evenodd" d="M43.0708 20.1664C42.9385 19.9608 42.6317 19.879 42.1501 19.879H27.38C25.5812 19.879 24.0917 20.1244 22.9091 20.615C21.7265 21.1104 20.7609 21.7693 20.0174 22.5871C19.2714 23.4095 18.745 24.3535 18.483 25.419C18.1762 26.4868 17.999 27.5966 17.999 28.7439V53.3733C17.999 53.8243 18.1313 54.0696 18.3508 54.1934C18.528 54.3593 18.8323 54.3967 19.2265 54.3967H23.216C23.6975 54.3967 24.0493 54.3593 24.179 54.2332C24.3562 54.1117 24.4435 53.8243 24.4435 53.3733V28.4144C24.4435 27.3489 24.7054 26.5685 25.2319 25.9937C25.8032 25.4634 26.7214 25.2133 28.0811 25.2133H42.1501C42.6317 25.2133 42.8961 25.1316 43.0708 24.968C43.203 24.8021 43.2454 24.475 43.2454 24.0661V21.0286C43.2454 20.615 43.203 20.33 43.0708 20.1664ZM40.2212 34.1622H26.3867V39.2535H40.2212C40.6603 39.2535 40.9672 39.1297 41.0969 38.9662C41.1868 38.7582 41.2741 38.4731 41.2741 38.104V35.3118C41.2741 34.8609 41.1868 34.5314 41.0969 34.3678C40.9672 34.244 40.6603 34.1622 40.2212 34.1622Z" fill="white"/>
</g>
<path fill-rule="evenodd" clip-rule="evenodd" d="M68.2169 47.3704H55.7291L53.5646 54.1486C53.4666 54.4489 53.3244 54.6665 53.1448 54.8013C52.9652 54.9314 52.6783 55 52.2841 55H47.7615C47.4023 55 47.1714 54.8936 47.0735 54.6736C46.9755 54.4584 46.9755 54.2195 47.0735 53.9499L57.6953 22.3934C57.8563 21.8944 58.0219 21.4947 58.1851 21.1967C58.3507 20.8963 58.556 20.6646 58.8009 20.499C59.0458 20.3311 59.3327 20.2081 59.6616 20.1253C59.9881 20.0402 60.3823 20 60.8394 20H62.955C63.9719 20 64.6926 20.1585 65.1194 20.4754C65.5439 20.7923 65.9218 21.4261 66.2507 22.3934L76.9192 53.9499C77.0171 54.2195 77.0265 54.4584 76.9448 54.6736C76.8632 54.8936 76.6393 55 76.2801 55H71.7552C71.396 55 71.1091 54.9574 70.8945 54.8723C70.6846 54.7919 70.512 54.5672 70.3791 54.2006L68.2169 47.3704ZM57.2031 42.1863H66.6424L64.0861 33.8118L62.0219 26.7285H61.7747L59.7595 33.6604L57.2031 42.1863Z" fill="white"/>
<path fill-rule="evenodd" clip-rule="evenodd" d="M85 21.0468C85 20.6158 85.0925 20.3316 85.2751 20.1989C85.4578 20.0687 85.7519 20 86.1503 20H89.9001C90.3673 20 90.6828 20.0592 90.8512 20.1753C91.0172 20.2937 91.1002 20.585 91.1002 21.0468V46.0617C91.1002 47.3596 91.4251 48.2738 92.075 48.8067C92.7249 49.3372 93.6167 49.6072 94.7504 49.6072H108.151C108.516 49.6072 108.751 49.6735 108.851 49.8061C108.95 49.9388 109 50.1898 109 50.5545V54.0526C109 54.3842 108.95 54.6258 108.851 54.775C108.751 54.9266 108.516 55 108.151 55H93.8017C92.0655 55 90.633 54.749 89.4993 54.2516C88.3679 53.7519 87.4666 53.084 86.8002 52.2527C86.1337 51.419 85.6665 50.474 85.4008 49.4082C85.1328 48.3425 85 47.227 85 46.0617V21.0468Z" fill="white"/>
<mask id="mask1" mask-type="alpha" maskUnits="userSpaceOnUse" x="118" y="19" width="27" height="37">
<path fill-rule="evenodd" clip-rule="evenodd" d="M118.401 19.9288H144.793V55H118.401V19.9288Z" fill="white"/>
</mask>
<g mask="url(#mask1)">
<path fill-rule="evenodd" clip-rule="evenodd" d="M144.793 49.6332C144.793 50.8786 144.521 51.9184 143.975 52.7338C143.429 53.5563 142.433 54.1147 140.989 54.4115C140.377 54.5447 139.728 54.6404 139.038 54.7082C138.348 54.7713 137.665 54.8274 136.991 54.8788C136.317 54.9278 135.675 54.9582 135.065 54.9746C134.453 54.9909 133.909 55.0003 133.427 55.0003C130.731 55.0003 128.426 54.7456 126.516 54.2386C124.606 53.7292 123.057 52.8834 121.869 51.7011C120.681 50.5188 119.813 48.9416 119.267 46.9743C118.721 45.0046 118.449 42.5582 118.449 39.6352L118.401 20.9616C118.401 20.5387 118.497 20.2583 118.689 20.1298C118.881 19.9966 119.155 19.9288 119.509 19.9288H123.265C123.715 19.9288 124.012 19.9896 124.156 20.1017C124.3 20.2186 124.373 20.506 124.373 20.9616V39.731C124.373 41.4063 124.492 42.869 124.734 44.1167C124.974 45.3644 125.424 46.3971 126.082 47.2196C126.74 48.0397 127.656 48.6542 128.828 49.0678C130 49.4767 131.533 49.6823 133.427 49.6823C133.909 49.6823 134.672 49.6566 135.716 49.6075C136.758 49.5608 137.843 49.4183 138.967 49.1893V20.9616C138.967 20.5387 139.057 20.2583 139.232 20.1298C139.408 19.9966 139.689 19.9288 140.076 19.9288H143.831C144.279 19.9288 144.553 19.9896 144.652 20.1017C144.745 20.2186 144.793 20.506 144.793 20.9616V49.6332Z" fill="white"/>
</g>
<mask id="mask2" mask-type="alpha" maskUnits="userSpaceOnUse" x="156" y="19" width="26" height="36">
<path fill-rule="evenodd" clip-rule="evenodd" d="M156.473 19.8821H181.928V54.4114H156.473V19.8821Z" fill="white"/>
</mask>
<g mask="url(#mask2)">
<path fill-rule="evenodd" clip-rule="evenodd" d="M181.719 54.1147C181.577 54.311 181.28 54.4114 180.823 54.4114H165.836C163.975 54.4114 162.451 54.1638 161.26 53.6731C160.065 53.1801 159.11 52.5212 158.391 51.7011C157.673 50.8786 157.174 49.9463 156.894 48.8949C156.612 47.8434 156.473 46.7429 156.473 45.5933V28.7492C156.473 27.5973 156.64 26.4921 156.974 25.4267C157.303 24.3566 157.847 23.4126 158.603 22.5925C159.357 21.77 160.33 21.1111 161.52 20.6181C162.713 20.1298 164.15 19.8821 165.836 19.8821H180.507C180.963 19.8821 181.252 19.9755 181.377 20.1555C181.499 20.3354 181.562 20.6181 181.562 21.0153V24.1182C181.562 24.5435 181.499 24.8332 181.377 24.9804C181.252 25.1299 180.963 25.2 180.507 25.2H166.517C165.185 25.2 164.247 25.4804 163.703 26.0365C163.159 26.5996 162.887 27.4011 162.887 28.4525V33.6209H178.773C179.227 33.6209 179.516 33.7074 179.641 33.8709C179.763 34.0345 179.825 34.3476 179.825 34.8032V37.5159C179.825 37.9108 179.763 38.1982 179.641 38.3781C179.516 38.558 179.227 38.6492 178.773 38.6492H162.887V45.8036C162.887 46.8504 163.179 47.6425 163.758 48.1846C164.334 48.722 165.255 48.9907 166.517 48.9907H180.823C181.315 48.9907 181.619 49.0748 181.744 49.2383C181.866 49.4066 181.929 49.7197 181.929 50.1846V53.2689C181.929 53.6334 181.859 53.9138 181.719 54.1147Z" fill="white"/>
</g>
</g>
<defs>
<filter id="filter0_d" x="0" y="0.879028" width="199.928" height="71.121" filterUnits="userSpaceOnUse" color-interpolation-filters="sRGB">
<feFlood flood-opacity="0" result="BackgroundImageFix"/>
<feColorMatrix in="SourceAlpha" type="matrix" values="0 0 0 0 0 0 0 0 0 0 0 0 0 0 0 0 0 0 127 0"/>
<feOffset dy="-1"/>
<feGaussianBlur stdDeviation="9"/>
<feColorMatrix type="matrix" values="0 0 0 0 0 0 0 0 0 0 0 0 0 0 0 0 0 0 0.5 0"/>
<feBlend mode="normal" in2="BackgroundImageFix" result="effect1_dropShadow"/>
<feBlend mode="normal" in="SourceGraphic" in2="effect1_dropShadow" result="shape"/>
</filter>
</defs>
</svg>
