<?xml version="1.0" encoding="UTF-8"?>
<svg width="15px" height="15px" viewBox="0 0 15 15" version="1.1" xmlns="http://www.w3.org/2000/svg" xmlns:xlink="http://www.w3.org/1999/xlink">
    <!-- Generator: Sketch 49.1 (51147) - http://www.bohemiancoding.com/sketch -->
    <title>phone-receiver</title>
    <desc>Created with Sketch.</desc>
    <defs>
        <polygon id="path-1" points="0 0 14.3846154 0 14.3846154 14.5116279 0 14.5116279"></polygon>
    </defs>
    <g id="Homepage" stroke="none" stroke-width="1" fill="none" fill-rule="evenodd">
        <g id="Falue-onepager-Copy-19" transform="translate(-1036.000000, -1467.000000)">
            <g id="Group-2" transform="translate(1036.000000, 1441.000000)">
                <g id="phone-receiver" transform="translate(0.397436, 26.232558)">
                    <mask id="mask-2" fill="white">
                        <use xlink:href="#path-1"></use>
                    </mask>
                    <g id="Clip-2"></g>
                    <path d="M14.3778014,11.4525509 C14.4081577,11.6881302 14.3370877,11.893222 14.1645602,12.0673868 L12.1392358,14.0964834 C12.0478556,14.1989979 11.9285762,14.286096 11.7814286,14.3578404 C11.6341877,14.4295849 11.4894661,14.4757086 11.3474505,14.4961801 C11.3372487,14.4961801 11.3067368,14.4987547 11.255977,14.503904 C11.2053104,14.5090533 11.1393413,14.5116279 11.0580384,14.5116279 C10.8652318,14.5116279 10.5529903,14.4782832 10.1215626,14.411688 C9.69001057,14.3450928 9.16210186,14.181101 8.53786762,13.919744 C7.91350896,13.6583555 7.20542143,13.2663827 6.41351171,12.7437942 C5.6217264,12.2211742 4.77902572,11.5036669 3.8856896,10.5916802 C3.17505163,9.88447131 2.58627463,9.20806392 2.11926531,8.56245797 C1.65222488,7.91682063 1.27668904,7.3198816 0.992377868,6.7715467 C0.708097798,6.22330599 0.494856643,5.72621265 0.35284102,5.28036086 C0.210669882,4.83466606 0.114219938,4.45029159 0.0634289799,4.12748861 C0.0126380222,3.80465424 -0.00764103746,3.55102109 0.00256069807,3.36655776 C0.0126380222,3.18209444 0.01773889,3.07957992 0.01773889,3.05907702 C0.0380490525,2.9155881 0.0837080396,2.76965014 0.15480916,2.62098054 C0.225879177,2.47234235 0.312127386,2.35202516 0.413709302,2.2597778 L2.43903373,0.21523338 C2.58117377,0.07174446 2.74362396,0 2.92635322,0 C3.05829152,0 3.17505163,0.0383683721 3.27650913,0.115262106 C3.37805994,0.192187238 3.46433926,0.28697784 3.53540927,0.399696707 L5.16479439,3.52025104 C5.25614347,3.68421146 5.2815545,3.86365111 5.24096528,4.05831879 C5.20037606,4.25308067 5.11412785,4.41704109 4.98206514,4.55023146 L4.23593881,5.3034384 C4.21565975,5.3240355 4.19780672,5.35728599 4.18262853,5.40337828 C4.16741923,5.44950196 4.15976793,5.48802732 4.15976793,5.51867178 C4.20035715,5.73393656 4.29170623,5.9798458 4.43387737,6.25652509 C4.55573834,6.50255992 4.74356847,6.80231675 4.99736774,7.15592117 C5.25116701,7.50940001 5.61152466,7.91682063 6.07856509,8.37799464 C6.53537268,8.84943581 6.94142042,9.21578783 7.29680161,9.47714489 C7.65202728,9.73840776 7.94896621,9.93059499 8.1875873,10.0536124 C8.42608397,10.1765042 8.60893763,10.2508233 8.73577507,10.2764441 L8.92603121,10.3148439 C8.94634138,10.3148439 8.9793726,10.30712 9.02506269,10.2917977 C9.07075278,10.2764441 9.10378401,10.2585472 9.12409418,10.2379501 L9.99205037,9.34640356 C10.174904,9.18244314 10.3879897,9.10036873 10.6315872,9.10036873 C10.8042392,9.10036873 10.9412783,9.13117018 11.0427358,9.19261609 L13.9970091,10.9451276 C14.2102503,11.0784436 14.3370877,11.2474591 14.3778014,11.4525509 Z" id="Fill-1" fill="#FFFFFF" mask="url(#mask-2)"></path>
                </g>
            </g>
        </g>
    </g>
</svg>