<svg xmlns="http://www.w3.org/2000/svg" width="24.361" height="21.654" viewBox="0 0 24.361 21.654">
  <path id="shopping-cart" d="M23.345,2.707H5.468L5.115.828a1.015,1.015,0,0,0-1-.828H.508A.508.508,0,0,0,0,.508V.846a.508.508,0,0,0,.508.508H3.837L6.794,17.126a2.707,2.707,0,1,0,4.346.468h6.14a2.707,2.707,0,1,0,4.231-.587,1.016,1.016,0,0,0-.985-.767H8.005L7.5,13.534H21.513a1.015,1.015,0,0,0,.994-.808l1.833-8.8A1.015,1.015,0,0,0,23.345,2.707ZM10.15,18.947A1.353,1.353,0,1,1,8.8,17.594,1.355,1.355,0,0,1,10.15,18.947ZM19.624,20.3a1.353,1.353,0,1,1,1.353-1.353A1.355,1.355,0,0,1,19.624,20.3Zm1.614-8.12H7.244L5.721,4.06H22.929Z" fill="#000000"/>
</svg>
