<svg xmlns="http://www.w3.org/2000/svg" width="28.849" height="18.003" viewBox="0 0 28.849 18.003">
  <path id="Path_531" data-name="Path 531" d="M-362.007,267.645l1.172-5.721h1.922l-1.172,5.721Zm5.789-1.861H-355l-.328-2.111-.891,2.111Zm-2.7,1.861,2.906-5.721h1.9l1.172,5.721H-354.7l-.117-.681h-1.875l-.3.681Zm7.734,0,.68-4.29h-1.687l.281-1.453h5.156l-.281,1.453h-1.594l-.656,4.29Zm6.445-1.861h1.219l-.3-2.111-.914,2.111Zm-2.672,1.861,2.883-5.721h1.9l1.2,5.721h-1.8l-.07-.681h-1.9l-.3.681Zm10.148-12.191h-9c-.328,1.612-1.477,2.951-3.773,3.882a2.311,2.311,0,0,0,2.062,1.476h4.9a1.878,1.878,0,0,0,1.57-1.112h-4.968c-.3-.046-.3-.272-.024-.318h4.9a1.949,1.949,0,0,0,1.523-1.09h-5.671c-.3-.045-.3-.272,0-.318h5.718c.586,0,1.1-.658,1.312-1.09h-6.281c-.3-.046-.3-.318,0-.341h6.4c.516,0,.984-.522,1.336-1.09Zm-28.849,0h9c.328,1.612,1.476,2.951,3.773,3.882a2.312,2.312,0,0,1-2.062,1.476h-4.9a1.878,1.878,0,0,1-1.57-1.112h4.968c.3-.046.3-.272.023-.318h-4.9a1.948,1.948,0,0,1-1.523-1.09h5.671c.3-.045.3-.272,0-.318h-5.718c-.586,0-1.1-.658-1.312-1.09h6.281c.3-.046.3-.318,0-.341h-6.4c-.515,0-.984-.522-1.336-1.09Zm11.507-4.813a4.208,4.208,0,0,0,1.1.681,5.647,5.647,0,0,1,1.359-1.68,4.611,4.611,0,0,0-2.461,1Zm-1.594,3.2h2.015a5.665,5.665,0,0,1,.539-2.247,5.048,5.048,0,0,1-1.219-.727,4.351,4.351,0,0,0-1.336,2.974Zm4.359-1.839v1.839h-2.015a5.292,5.292,0,0,1,.516-2.134,4.743,4.743,0,0,0,1.5.3Zm3.07-1.362a4.206,4.206,0,0,1-1.1.681,5.945,5.945,0,0,0-1.359-1.68,4.611,4.611,0,0,1,2.461,1Zm1.594,3.2h-2.015a6.181,6.181,0,0,0-.515-2.247,5.389,5.389,0,0,0,1.2-.727,4.381,4.381,0,0,1,1.336,2.974ZM-351.508,252v1.839h1.992a4.859,4.859,0,0,0-.516-2.134,4.733,4.733,0,0,1-1.477.3Zm-3.093,5.335a4.127,4.127,0,0,1,1.1-.658,5.646,5.646,0,0,0,1.359,1.68,4.64,4.64,0,0,1-2.461-1.022Zm-1.594-3.178h2.015a5.857,5.857,0,0,0,.539,2.247,5.049,5.049,0,0,0-1.219.726,4.455,4.455,0,0,1-1.336-2.974Zm4.359,1.839v-1.839h-2.015a5.017,5.017,0,0,0,.516,2.111,4.727,4.727,0,0,1,1.5-.272Zm3.07,1.339a4.369,4.369,0,0,0-1.1-.658,5.647,5.647,0,0,1-1.359,1.68,4.639,4.639,0,0,0,2.461-1.022Zm1.594-3.178h-2.015a5.735,5.735,0,0,1-.515,2.247,5.39,5.39,0,0,1,1.2.726,4.5,4.5,0,0,0,1.336-2.974ZM-351.508,256v-1.839h1.992a4.764,4.764,0,0,1-.516,2.111,4.587,4.587,0,0,0-1.477-.272Zm-.328-6.175a5.108,5.108,0,0,0-1.359,1.612,4.63,4.63,0,0,0,1.359.25v-1.861Zm.328,0a5.366,5.366,0,0,1,1.336,1.612,3.971,3.971,0,0,1-1.336.25v-1.861Zm-.328,8.354a5.108,5.108,0,0,1-1.359-1.612,4,4,0,0,1,1.359-.25v1.862Zm.328.023a5.756,5.756,0,0,0,1.336-1.635,4.623,4.623,0,0,0-1.336-.25V258.2Z" transform="translate(366.108 -249.643)" fill="#00abb3" fill-rule="evenodd"/>
</svg>
