<svg xmlns="http://www.w3.org/2000/svg" width="156.807" height="48.293" viewBox="0 0 156.807 48.293">
  <g id="Group_1404" data-name="Group 1404" transform="translate(-31.332 -32.808)">
    <g id="Group_1377" data-name="Group 1377" transform="translate(31.332 32.808)">
      <g id="Group_1376" data-name="Group 1376">
        <path id="Path_532" data-name="Path 532" d="M109.329,81.1l-.084-.006L35.769,75.654c-2.491-.019-4.437-1.592-4.437-3.6V40.519c0-2.017,1.969-3.6,4.483-3.6l73.921-4.115.064,0,73.921,4.112h0c2.448,0,4.414,1.58,4.414,3.6V72.056c0,2.006-1.945,3.579-4.437,3.6Zm.407-45.981L35.878,39.229c-1.308,0-2.238.681-2.238,1.29V72.056c0,.609.93,1.289,2.175,1.289l.085,0,73.431,5.438,74.327-5.441c1.244,0,2.174-.681,2.174-1.289V40.519c0-.609-.93-1.289-2.174-1.289Z" transform="translate(-31.332 -32.808)" fill="#000000"/>
      </g>
    </g>
    <g id="Group_1378" data-name="Group 1378" transform="translate(38.237 42.774)">
      <path id="Path_533" data-name="Path 533" d="M54.231,73.083A12.977,12.977,0,1,1,67.208,60.106,12.992,12.992,0,0,1,54.231,73.083Zm0-25.258A12.281,12.281,0,1,0,66.512,60.106,12.295,12.295,0,0,0,54.231,47.825Zm-.016,21.8L45.9,64.96l-.012-9.9,8.3-4.243L62.5,55.04l.012,9.9Zm-7.62-5.075,7.618,4.275,7.607-4.3-.012-9.064L54.192,51.6l-7.609,3.887Z" transform="translate(-41.254 -47.129)" fill="#000000"/>
    </g>
    <g id="Group_1379" data-name="Group 1379" transform="translate(45.696 53.212)">
      <path id="Path_534" data-name="Path 534" d="M56.568,64.558,52.7,62.129l-.724.383,0,0v4.518l0,0L52.7,68.29h0l3.871,2.24,0,0,.725-.383h.018V65.822l-.743-1.263Z" transform="translate(-51.973 -62.129)" fill="#000000"/>
    </g>
    <g id="Group_1380" data-name="Group 1380" transform="translate(51.551 53.212)">
      <path id="Path_535" data-name="Path 535" d="M65,62.129l-3.867,2.429-.744,1.263v4.323h.02l.724.383,0,0L65,68.291h0l.724-1.263V62.512Z" transform="translate(-60.387 -62.129)" fill="#000000"/>
    </g>
    <g id="Group_1381" data-name="Group 1381" transform="translate(46.679 49.445)">
      <path id="Path_536" data-name="Path 536" d="M62.5,60.121l-.154-1.166-3.851-2.239H57.481L53.564,58.96l-.178,1.032L57.217,62.4h1.634Z" transform="translate(-53.386 -56.716)" fill="#000000"/>
    </g>
    <g id="Group_1391" data-name="Group 1391" transform="translate(67.841 47.477)">
      <g id="Group_1388" data-name="Group 1388" transform="translate(0 0)">
        <g id="Group_1382" data-name="Group 1382" transform="translate(0 0.185)">
          <path id="Path_537" data-name="Path 537" d="M88.893,55.3l-1.106-1.107.041-.041H84.906L83.8,55.262h0V69.72l0,0,1.107,1.108h2.88l1.106-1.109.016.015V55.287Z" transform="translate(-83.796 -54.153)" fill="#000000"/>
        </g>
        <g id="Group_1383" data-name="Group 1383" transform="translate(8.562 0.185)">
          <path id="Path_538" data-name="Path 538" d="M114.438,54.195l.042-.041h-6.808l-5.781,10.731L96.113,54.153H96.1v9.734l3.882,6.939H103.8l6.7-11.976h.047V69.762l1.06,1.065H114.5l1.02-1.022V55.281Z" transform="translate(-96.1 -54.153)" fill="#000000"/>
        </g>
        <g id="Group_1384" data-name="Group 1384" transform="translate(71.795)">
          <path id="Path_539" data-name="Path 539" d="M203.594,64.343c0,2.072-.692,2.3-2.994,2.3h-5.457c-2.417,0-2.924-.921-2.924-3.338v-1.8c0-2.073.507-3.338,3.2-3.338h5.574c1.52,0,2.394.344,2.394,1.543v.461h4l1.095-1.1c-.139-3.87-1.481-5.193-8.162-5.193h-6.01c-4.606,0-7.346,1.151-7.346,6.033V64.9c0,4.882,2.74,6.034,7.346,6.034h8.244c5.134,0,6.149-2.21,6.149-5.019v-.6l-.965-.964Z" transform="translate(-186.968 -53.888)" fill="#000000"/>
        </g>
        <g id="Group_1385" data-name="Group 1385" transform="translate(31.463 0.184)">
          <path id="Path_540" data-name="Path 540" d="M143.675,59.864c0-3.269-1.175-5.711-6.033-5.711H129.93l-.921.921V58.3h7.319c1.544,0,2.1.645,2.1,1.773v.644a1.558,1.558,0,0,1-1.657,1.775h-7.758v3.294l.85.849h9.117c3.616,0,4.7-2.854,4.7-5.342Z" transform="translate(-129.009 -54.153)" fill="#000000"/>
        </g>
        <g id="Group_1386" data-name="Group 1386" transform="translate(54.549 0.608)">
          <path id="Path_541" data-name="Path 541" d="M177.385,69.926l-8.337-15.164-2.644,5.2,2.388,4.512h-4.723l-1.884,3.593H170.7l1.588,2.949h4.021Z" transform="translate(-162.186 -54.762)" fill="#000000"/>
        </g>
        <g id="Group_1387" data-name="Group 1387" transform="translate(46.053 0.185)">
          <path id="Path_542" data-name="Path 542" d="M161.765,58.025l1.448-2.846-1.025-1.025h-3.738L149.977,69.8l1.029,1.029h4.126l3.911-7.524h0l2.718-5.281Z" transform="translate(-149.977 -54.153)" fill="#000000"/>
        </g>
      </g>
      <g id="Group_1390" data-name="Group 1390" transform="translate(97.058 0.185)">
        <g id="Group_1389" data-name="Group 1389" transform="translate(0)">
          <path id="Path_543" data-name="Path 543" d="M238.043,55.176l-1.021-1.023H224.278l-1.006,1.005V69.788l1.038,1.039h3.042l1-1V58.3h8.614l1.074-1.074Z" transform="translate(-223.272 -54.153)" fill="#000000"/>
        </g>
      </g>
    </g>
    <g id="Group_1401" data-name="Group 1401" transform="translate(81.881 66.532)">
      <g id="Group_1392" data-name="Group 1392" transform="translate(0 0.062)">
        <path id="Path_544" data-name="Path 544" d="M103.973,81.5a13.947,13.947,0,0,1,2.108-.143,4.436,4.436,0,0,1,2.825.737,3.05,3.05,0,0,1,1.166,2.6,3.5,3.5,0,0,1-1.146,2.794,4.949,4.949,0,0,1-3.182.89,13.44,13.44,0,0,1-1.77-.1Zm1.566,5.628a2.875,2.875,0,0,0,.542.031,2.138,2.138,0,0,0,2.333-2.415,1.979,1.979,0,0,0-2.17-2.191,3.193,3.193,0,0,0-.706.062Z" transform="translate(-103.973 -81.359)" fill="#000000"/>
      </g>
      <g id="Group_1393" data-name="Group 1393" transform="translate(7.552 1.893)">
        <path id="Path_545" data-name="Path 545" d="M120.056,86.55a2.511,2.511,0,0,1-2.64,2.671,2.452,2.452,0,0,1-2.59-2.579,2.5,2.5,0,0,1,2.672-2.651A2.434,2.434,0,0,1,120.056,86.55Zm-3.623.051c0,.86.358,1.5,1.024,1.5.6,0,.993-.6.993-1.5,0-.747-.287-1.5-.993-1.5C116.709,85.1,116.433,85.864,116.433,86.6Z" transform="translate(-114.826 -83.991)" fill="#000000"/>
      </g>
      <g id="Group_1394" data-name="Group 1394" transform="translate(14.255 1.893)">
        <path id="Path_546" data-name="Path 546" d="M129.525,84.1c-.02.317-.041.737-.041,1.484v2.794a2.876,2.876,0,0,1-.758,2.252,3.087,3.087,0,0,1-2.036.614,3.908,3.908,0,0,1-1.8-.389l.307-1.177a3.077,3.077,0,0,0,1.453.379,1.2,1.2,0,0,0,1.3-1.321v-.327h-.02a1.6,1.6,0,0,1-1.351.655,2.2,2.2,0,0,1-2.12-2.446,2.394,2.394,0,0,1,2.273-2.63,1.509,1.509,0,0,1,1.372.706h.021l.05-.594Zm-1.6,2.036a1.21,1.21,0,0,0-.031-.287.852.852,0,0,0-.839-.685c-.563,0-1.023.511-1.023,1.423,0,.747.368,1.33,1.023,1.33a.844.844,0,0,0,.818-.635,1.313,1.313,0,0,0,.051-.409Z" transform="translate(-124.458 -83.991)" fill="#000000"/>
      </g>
      <g id="Group_1395" data-name="Group 1395" transform="translate(23.85)">
        <path id="Path_547" data-name="Path 547" d="M143.629,88.085a4.426,4.426,0,0,1-1.77.3,3.28,3.28,0,0,1-3.613-3.449,3.516,3.516,0,0,1,3.766-3.664,4.062,4.062,0,0,1,1.7.308l-.317,1.238a3.371,3.371,0,0,0-1.31-.256,2.268,2.268,0,0,0,.01,4.534,3.909,3.909,0,0,0,1.3-.225Z" transform="translate(-138.246 -81.27)" fill="#000000"/>
      </g>
      <g id="Group_1396" data-name="Group 1396" transform="translate(30.891 1.893)">
        <path id="Path_548" data-name="Path 548" d="M148.405,85.752c0-.737-.021-1.218-.041-1.648H149.7l.051.921h.04a1.471,1.471,0,0,1,1.351-1.034,1.575,1.575,0,0,1,.328.021v1.463a2.2,2.2,0,0,0-.42-.041,1,1,0,0,0-1.064.788,1.8,1.8,0,0,0-.031.348v2.539h-1.555Z" transform="translate(-148.364 -83.991)" fill="#000000"/>
      </g>
      <g id="Group_1397" data-name="Group 1397" transform="translate(35.147 1.893)">
        <path id="Path_549" data-name="Path 549" d="M157.654,89.109l-.093-.5h-.03a1.807,1.807,0,0,1-1.434.614,1.535,1.535,0,0,1-1.617-1.535c0-1.3,1.167-1.924,2.938-1.914V85.7c0-.266-.143-.644-.912-.644a2.809,2.809,0,0,0-1.381.379l-.287-1a4.131,4.131,0,0,1,1.944-.44,1.946,1.946,0,0,1,2.2,2.159v1.74a7.713,7.713,0,0,0,.072,1.218Zm-.185-2.365c-.818-.01-1.453.184-1.453.788a.559.559,0,0,0,.614.594.85.85,0,0,0,.809-.573,1.132,1.132,0,0,0,.03-.267Z" transform="translate(-154.481 -83.991)" fill="#000000"/>
      </g>
      <g id="Group_1398" data-name="Group 1398" transform="translate(41.114 0.573)">
        <path id="Path_550" data-name="Path 550" d="M165.246,82.094v1.433h1.115v1.146h-1.115v1.811c0,.6.144.88.614.88a2.585,2.585,0,0,0,.461-.04l.01,1.177a3.048,3.048,0,0,1-1.012.133,1.62,1.62,0,0,1-1.168-.43,2.074,2.074,0,0,1-.429-1.484V84.673h-.666V83.527h.666V82.442Z" transform="translate(-163.055 -82.094)" fill="#000000"/>
      </g>
      <g id="Group_1399" data-name="Group 1399" transform="translate(45.751 1.893)">
        <path id="Path_551" data-name="Path 551" d="M171.2,87.1c.051.644.685.952,1.412.952a4.408,4.408,0,0,0,1.381-.205l.2,1.054a4.925,4.925,0,0,1-1.811.307,2.4,2.4,0,0,1-2.67-2.548,2.507,2.507,0,0,1,2.527-2.671,2.22,2.22,0,0,1,2.231,2.5,3.643,3.643,0,0,1-.051.614Zm1.832-1.065a.9.9,0,0,0-.88-1.013,1.021,1.021,0,0,0-.962,1.013Z" transform="translate(-169.718 -83.991)" fill="#000000"/>
      </g>
      <g id="Group_1400" data-name="Group 1400" transform="translate(51.922 1.893)">
        <path id="Path_552" data-name="Path 552" d="M178.862,87.747a3.039,3.039,0,0,0,1.34.379c.471,0,.665-.164.665-.42s-.153-.379-.737-.573c-1.033-.348-1.432-.911-1.422-1.5,0-.931.8-1.637,2.037-1.637a3.351,3.351,0,0,1,1.412.287l-.276,1.074a2.462,2.462,0,0,0-1.085-.287c-.379,0-.594.154-.594.41,0,.235.195.358.808.573.952.328,1.352.809,1.362,1.546,0,.931-.737,1.617-2.17,1.617a3.54,3.54,0,0,1-1.617-.348Z" transform="translate(-178.586 -83.991)" fill="#000000"/>
      </g>
    </g>
    <g id="Group_1403" data-name="Group 1403" transform="translate(175.225 60.122)">
      <g id="Group_1402" data-name="Group 1402">
        <path id="Path_553" data-name="Path 553" d="M242.933,74.464a2.411,2.411,0,1,1-2.4-2.4A2.394,2.394,0,0,1,242.933,74.464ZM238.5,74.45a2.018,2.018,0,1,0,2.024-2.012A2.025,2.025,0,0,0,238.5,74.45Zm3.224,1.363h-.423l-.771-1.178h-.525v1.178h-.376V73.12h1.173c.486,0,.96.132.96.713,0,.53-.36.751-.84.764Zm-1.719-1.5h.708c.543,0,.671-.223.671-.486,0-.356-.373-.388-.658-.388h-.72Z" transform="translate(-238.111 -72.059)" fill="#000000"/>
      </g>
    </g>
  </g>
</svg>
