<?xml version="1.0" encoding="utf-8"?>
<!-- Generator: Adobe Illustrator 18.0.0, SVG Export Plug-In . SVG Version: 6.00 Build 0)  -->
<!DOCTYPE svg PUBLIC "-//W3C//DTD SVG 1.1//EN" "http://www.w3.org/Graphics/SVG/1.1/DTD/svg11.dtd">
<svg version="1.1" id="Layer_1" xmlns="http://www.w3.org/2000/svg" xmlns:xlink="http://www.w3.org/1999/xlink" x="0px" y="0px"
	 width="492.3px" height="202.2px" viewBox="0 0 492.3 202.2" enable-background="new 0 0 492.3 202.2" xml:space="preserve">
<g>
	<g>
		<path fill="#98694C" d="M355.2,92.1h-20.8l-7.7,58h13.5l0.9-10.7h7.2l0.9,10.7h13.4L355.2,92.1z M341.3,130.8l2.4-26.6h1.9
			l2.4,26.6H341.3z"/>
		<polygon fill="none" points="343.7,104.2 341.3,130.8 348,130.8 345.6,104.2 		"/>
	</g>
	<polygon fill="#98694C" points="288.4,92.1 302.8,92.1 306.4,133.4 308.8,133.4 312.4,92.1 326.8,92.1 319,150.2 296.1,150.2 	"/>
	<path fill="#98694C" d="M206.1,160.7h80.9c0,0-9.4,29.3-13.4,34.5c-2.2,2.9-5.8,5.8-12.6,6.5c-6.8,0.8-25.1,0.8-29.9-0.5
		c-3.7-1-9.9-1.9-13.8-10.1C213.4,182.8,206.3,161.9,206.1,160.7"/>
	<g>
		<path fill="#98694C" d="M183.3,0c0,0-40.8,31.7-9.2,58.6c18.7,15.9,48.8-3.5,72.9-3.1c10.2,0.2,0,25,0,25s-63,0.9-69-0.3
			C172,79,138.5,73,136.1,41.7C133.6,8.4,183.3,0,183.3,0"/>
		<path fill="#98694C" d="M309.6,0c0,0,40.8,31.7,9.2,58.6c-18.7,15.9-48.8-3.5-72.9-3.1c-10.2,0.2,0,25,0,25s63,0.9,69-0.3
			c6.1-1.2,39.5-7.2,41.9-38.5C359.4,8.4,309.6,0,309.6,0"/>
	</g>
	<g>
		<path fill="#98694C" d="M40.2,122.2c-0.4-3.1-1.6-4.5-3.6-5.9c-2.6-1.9-5.9-2.3-5.9-2.3l0.2-2.1c0,0,1.7,0.1,5.2-1.2
			c3.8-1.4,4.4-6.2,4.4-14.2c0-7.4-2.4-11.6-4.7-13.8c-2.4-2.3-5.1-2.9-10-3.4C21.4,79,0,79,0,79l0,71.2h17v-33c0,0,4.7-0.3,6.5,1.4
			c1.5,1.4,1.5,4.9,1.5,6.5c0,0.6,0,25.1,0,25.1h15.6C40.5,150.2,40.7,126.1,40.2,122.2z M24.9,102.3c-0.1,1,0,3.3-1.8,4.5
			c-2.2,1.5-6.1,1-6.1,1V89.5c0,0,4.4-0.2,5.8,0.9c0,0,2,1.1,2.1,3.8C24.9,97.6,25,101.3,24.9,102.3z"/>
		<path fill="none" d="M22.8,90.4c-1.3-1.1-5.8-0.9-5.8-0.9v18.3c0,0,3.9,0.4,6.1-1c1.8-1.2,1.7-3.5,1.8-4.5c0.1-1,0-4.7,0-8
			C24.8,91.6,22.8,90.4,22.8,90.4z"/>
	</g>
	<path fill="none" d="M88.4,92.1"/>
	<polygon fill="#98694C" points="87.6,150.2 98.7,150.2 98.7,123.9 100.7,123.6 108.7,150.2 120.5,150.1 120.5,92.1 109.4,92.1 
		109.5,118.2 107.5,118.5 98.9,92.2 87.7,92.2 	"/>
	<path fill="#98694C" d="M148.3,126.9h-3.1v-7h16.2v30.3h-8.1l-2-5.8c0,0-2.7,8.1-11.2,7c-1.6-0.1-5.4-0.9-8.4-3.7
		c-3-2.8-4.3-6.2-4.4-12.4c-0.1-6.2-0.1-23.9-0.1-24.1c0-0.3,0-8.2,1.2-11.8c0.5-1.4,4-8.8,16.1-8.5c4.8,0,12.5,2,15.2,8.1
		c1.9,4,1.6,13.1,1.6,13.1h-13.5c0,0,0-6.9,0-8.5c-0.1-1.6-0.2-4.8-3.5-4.8c-3.3,0-3.5,3.2-3.5,4.8c0,1.6,0,32.8,0,32.8
		s-0.1,2.7,0.4,4.5c0.5,1.8,1.7,2.4,3,2.4c1.3,0,3-0.5,3.6-2.6C148.6,138.4,148.3,126.9,148.3,126.9z"/>
	<polygon fill="#98694C" points="168.3,92.2 192.3,92.2 192.3,102.2 181.8,102.2 181.8,115.7 191.6,115.7 191.6,125 181.8,125 
		181.8,140.3 193.3,140.3 193.3,150.2 168.3,150.2 	"/>
	<g>
		<path fill="#98694C" d="M231.7,127.4c-0.3-2.5-1.3-3.6-2.9-4.8c-2.1-1.5-4.8-1.9-4.8-1.9l0.1-1.7c0,0,1.4,0.1,4.2-1
			c3.1-1.1,3.6-5,3.6-11.6c0-6-2-9.4-3.8-11.2c-2-1.9-4.1-2.4-8.1-2.7c-3.6-0.4-21-0.4-21-0.4l0,58h13.8v-26.9c0,0,3.8-0.2,5.3,1.1
			c1.2,1.2,1.2,4,1.2,5.3c0,0.5,0,20.5,0,20.5h12.7C231.9,150.2,232.1,130.5,231.7,127.4z M219.2,111.2c-0.1,0.8,0,2.7-1.5,3.7
			c-1.8,1.2-4.9,0.8-4.9,0.8v-14.9c0,0,3.6-0.1,4.7,0.8c0,0,1.6,0.9,1.7,3.1C219.2,107.4,219.3,110.4,219.2,111.2z"/>
		<path fill="none" d="M217.5,101.5c-1.1-0.9-4.7-0.8-4.7-0.8v14.9c0,0,3.1,0.3,4.9-0.8c1.5-0.9,1.4-2.9,1.5-3.7
			c0.1-0.8,0-3.8,0-6.5C219.1,102.4,217.5,101.5,217.5,101.5z"/>
	</g>
	<polygon fill="#98694C" points="424,92.2 448.1,92.2 448.1,102.2 437.5,102.2 437.5,115.7 447.3,115.7 447.3,125 437.5,125 
		437.5,140.3 449,140.3 449,150.2 424,150.2 	"/>
	<polygon fill="#98694C" points="367.9,92.2 381.4,92.2 381.4,140.3 391,140.3 391,150.2 367.9,150.2 	"/>
	<polygon fill="#98694C" points="395.9,92.2 409.4,92.2 409.4,140.3 419,140.3 419,150.2 395.9,150.2 	"/>
	<path fill="#98694C" d="M258.3,107.6h12.4c0,0,0-6-0.6-8.8c-0.8-3.8-3.1-6.7-10.6-8.2c-7.1-1-12.1,0.4-13.2,0.9
		c-2.1,0.9-5.5,2.3-6.9,6.6c-1.1,3.4-1.2,9.3-0.6,12.4c0.6,3.3,1.1,5.7,5.9,9.3c4.8,3.6,12.1,7.8,13.3,9.9c1.3,2.4,1.4,6.8,1.2,8.5
		c-0.3,1.8-0.8,4.5-4,4.5c-3.2,0-3.8-2.6-3.8-6c0-3.4,0-6.8,0-6.8h-12.5c0,0-1.1,11.7,3.1,15.9c1.7,1.6,2.9,2.6,5.6,3.6
		c5.8,2.1,12.9,1,14.8,0.4c1-0.4,7.6-1.8,9-8c1.1-4.9,0.8-13.9-1.4-18.1c-2-3.9-10.3-8.7-11.4-9.5c-1.8-1.2-3.7-2-5.5-3.6
		c-1.5-1.4-2.4-3.5-2.1-8.2c0.1-1.9,1.1-4.3,3.6-4.3c3.2,0,3.3,2.7,3.4,3.4C258.3,102.5,258.3,107.6,258.3,107.6z"/>
	<g>
		<path fill="#98694C" d="M74.9,92.1H54l-7.7,58h13.5l0.9-10.7h7.2l0.9,10.7h13.4L74.9,92.1z M61,130.8l2.4-26.6h1.9l2.4,26.6H61z"
			/>
		<polygon fill="none" points="63.4,104.2 61,130.8 67.7,130.8 65.3,104.2 		"/>
	</g>
	<polygon fill="#98694C" points="450.1,79 465.4,79 470.1,106.9 472.4,106.9 477.1,79 492.3,79 478.7,124.4 478.7,150.1 
		463.8,150.1 463.8,124.4 	"/>
</g>
</svg>
