<svg xmlns="http://www.w3.org/2000/svg" width="42" height="42" viewBox="0 0 42 42">
  <defs>
    <style>
      .a {
        fill: #d3d4ed;
      }
    </style>
  </defs>
  <title>16 Handset</title>
  <path class="a" d="M3.63,1.46l.27-.27a4,4,0,0,1,6.18.54l5.5,7.85a4.05,4.05,0,0,1-.45,5.19l-.34.34a3.06,3.06,0,0,0-.49,3.74,25.34,25.34,0,0,0,8.85,8.85,3.06,3.06,0,0,0,3.74-.49l.34-.34a4.05,4.05,0,0,1,5.19-.45l7.85,5.5a4,4,0,0,1,.54,6.18l-.27.27A12.42,12.42,0,0,1,25.17,40.1,73,73,0,0,1,1.9,16.83,12.42,12.42,0,0,1,3.63,1.46Z"/>
</svg>
