<?xml version="1.0" encoding="utf-8"?>
<!-- Generator: Adobe Illustrator 16.0.0, SVG Export Plug-In . SVG Version: 6.00 Build 0)  -->
<!DOCTYPE svg PUBLIC "-//W3C//DTD SVG 1.1//EN" "http://www.w3.org/Graphics/SVG/1.1/DTD/svg11.dtd">
<svg version="1.1" id="Layer_1" xmlns="http://www.w3.org/2000/svg" xmlns:xlink="http://www.w3.org/1999/xlink" x="0px" y="0px"
	 width="88px" height="194px" viewBox="0 0 88 194" enable-background="new 0 0 88 194" xml:space="preserve">
<g>
	<path fill-rule="evenodd" clip-rule="evenodd" d="M85.464,62.158c0,5.794,0.044,11.589-0.009,17.383
		c-0.109,12.039-4.702,22.097-13.632,30.132c-5.981,5.382-13.044,8.611-21.001,9.719c-18.249,2.54-35.594-7.294-42.831-24.217
		c-2.088-4.883-3.14-10-3.144-15.318C4.84,68.208,4.868,56.56,4.833,44.911C4.781,27.47,15.967,12.125,32.442,6.562
		C51.964-0.031,73.81,9.646,82.051,28.521c2.227,5.099,3.4,10.418,3.411,15.984C85.474,50.389,85.465,56.274,85.464,62.158z
		 M16.285,62.04c-0.002,0-0.004,0-0.007,0c0,5.764-0.01,11.528,0.004,17.292c0.007,3.141,0.468,6.215,1.462,9.201
		C22.498,102.816,37.26,111,51.983,107.515c12.547-2.97,21.876-14.458,22.011-27.404c0.125-11.947,0.063-23.896,0.01-35.844
		c-0.021-4.507-1.09-8.82-3.271-12.776c-4.988-9.049-12.614-14.247-22.934-15.332c-6.037-0.634-11.756,0.565-16.944,3.675
		c-9.403,5.636-14.32,14.015-14.549,25.005C16.187,50.569,16.285,56.305,16.285,62.04z"/>
	<path fill-rule="evenodd" clip-rule="evenodd" d="M50.869,44.909c0,1.859,0.016,3.718-0.003,5.577
		c-0.034,3.374-2.504,5.894-5.737,5.877c-3.202-0.017-5.659-2.512-5.683-5.836c-0.027-3.778-0.025-7.556-0.001-11.333
		c0.022-3.305,2.502-5.823,5.69-5.833c3.203-0.011,5.682,2.48,5.728,5.792C50.891,41.071,50.869,42.99,50.869,44.909z"/>
</g>
<g>
	
		<line fill="none" stroke="#000000" stroke-width="10" stroke-linecap="round" stroke-miterlimit="10" x1="25.36" y1="164.627" x2="45.157" y2="184.425"/>
	
		<line fill="none" stroke="#000000" stroke-width="10" stroke-linecap="round" stroke-miterlimit="10" x1="64.955" y1="164.627" x2="45.157" y2="184.425"/>
</g>
</svg>
