<?xml version="1.0" encoding="utf-8"?>
<!-- Generator: Adobe Illustrator 16.0.0, SVG Export Plug-In . SVG Version: 6.00 Build 0)  -->
<!DOCTYPE svg PUBLIC "-//W3C//DTD SVG 1.1//EN" "http://www.w3.org/Graphics/SVG/1.1/DTD/svg11.dtd">
<svg version="1.1" id="Layer_1" xmlns="http://www.w3.org/2000/svg" xmlns:xlink="http://www.w3.org/1999/xlink" x="0px" y="0px"
	 width="21.909px" height="23.854px" viewBox="1.155 -2.118 21.909 23.854" enable-background="new 1.155 -2.118 21.909 23.854"
	 xml:space="preserve">
<polygon fill="#FFFFFF" points="220.905,613.371 218.155,608.371 220.905,603.371 226.405,603.371 229.155,608.371 226.405,613.371 
	"/>
<polygon fill="#FFFFFF" points="232.405,613.371 230.655,610.371 232.405,607.371 235.905,607.371 237.655,610.371 235.905,613.371 
	"/>
<rect x="222.155" y="615.371" fill="#FFFFFF" width="11" height="6"/>
<polygon fill="#FFFFFF" points="233.155,618.369 238.155,615.371 238.155,621.371 "/>
<path fill="#FFF219" d="M238.155,618.371v3l-5-3.002C233.155,618.369,238.124,618.339,238.155,618.371z"/>
<rect x="222.155" y="618.371" fill="#FFF219" width="11" height="3"/>
<polygon fill="#FFF219" points="235.905,607.371 232.405,613.371 235.905,613.371 237.655,610.371 "/>
<polygon fill="#FFF219" points="226.405,603.371 220.905,613.371 226.405,613.371 229.155,608.371 "/>
<polygon fill="none" stroke="#0B00EA" stroke-linejoin="round" stroke-miterlimit="10" points="220.905,613.371 218.155,608.371 
	220.905,603.371 226.405,603.371 229.155,608.371 226.405,613.371 "/>
<polygon fill="none" stroke="#0B00EA" stroke-linejoin="round" stroke-miterlimit="10" points="232.405,613.371 230.655,610.371 
	232.405,607.371 235.905,607.371 237.655,610.371 235.905,613.371 "/>
<rect x="222.155" y="615.371" fill="none" stroke="#0B00EA" stroke-linejoin="round" stroke-miterlimit="10" width="11" height="6"/>
<polyline fill="none" stroke="#0B00EA" stroke-linecap="round" stroke-linejoin="round" stroke-miterlimit="10" points="
	223.155,625.371 227.155,621.371 231.155,625.371 "/>
<polygon fill="none" stroke="#0B00EA" stroke-linejoin="round" stroke-miterlimit="10" points="233.155,618.369 238.155,615.371 
	238.155,621.371 "/>
<g>
	<g>
		<path fill="#0B00EA" d="M223.654,607.372c-0.051,0-0.102,0.02-0.141,0.059l-0.8,0.8c-0.078,0.078-0.078,0.204,0,0.282l0.8,0.8
			c0.039,0.039,0.09,0.059,0.141,0.059s0.103-0.02,0.142-0.059l0.8-0.8c0.078-0.078,0.078-0.204,0-0.282l-0.8-0.8
			C223.756,607.391,223.705,607.372,223.654,607.372L223.654,607.372z"/>
	</g>
</g>
<g>
	<g>
		<path fill="#0B00EA" d="M234.154,609.372c-0.051,0-0.102,0.02-0.141,0.059l-0.8,0.8c-0.078,0.078-0.078,0.204,0,0.282l0.8,0.8
			c0.039,0.039,0.09,0.059,0.141,0.059s0.103-0.02,0.142-0.059l0.8-0.8c0.078-0.078,0.078-0.204,0-0.282l-0.8-0.8
			C234.256,609.391,234.205,609.372,234.154,609.372L234.154,609.372z"/>
	</g>
</g>
<polygon fill="#FFFFFF" points="4.833,8.672 2.083,3.672 4.833,-1.328 10.333,-1.328 13.083,3.672 10.333,8.672 "/>
<polygon fill="#FFFFFF" points="16.333,8.672 14.583,5.672 16.333,2.672 19.833,2.672 21.583,5.672 19.833,8.672 "/>
<rect x="6.083" y="10.672" fill="#FFFFFF" width="11" height="6"/>
<polygon fill="#FFFFFF" points="17.083,13.67 22.083,10.672 22.083,16.672 "/>
<path fill="#FFF219" d="M22.083,13.672v3l-5-3.002C17.083,13.67,22.052,13.641,22.083,13.672z"/>
<rect x="6.083" y="13.672" fill="#FFF219" width="11" height="3"/>
<polygon fill="#FFF219" points="19.833,2.672 16.333,8.672 19.833,8.672 21.583,5.672 "/>
<polygon fill="#FFF219" points="10.333,-1.328 4.833,8.672 10.333,8.672 13.083,3.672 "/>
<polygon fill="none" stroke="#0B00EA" stroke-linejoin="round" stroke-miterlimit="10" points="4.833,8.672 2.083,3.672 
	4.833,-1.328 10.333,-1.328 13.083,3.672 10.333,8.672 "/>
<polygon fill="none" stroke="#0B00EA" stroke-linejoin="round" stroke-miterlimit="10" points="16.333,8.672 14.583,5.672 
	16.333,2.672 19.833,2.672 21.583,5.672 19.833,8.672 "/>
<rect x="6.083" y="10.672" fill="none" stroke="#0B00EA" stroke-linejoin="round" stroke-miterlimit="10" width="11" height="6"/>
<polyline fill="none" stroke="#0B00EA" stroke-linecap="round" stroke-linejoin="round" stroke-miterlimit="10" points="
	7.083,20.672 11.083,16.672 15.083,20.672 "/>
<polygon fill="none" stroke="#0B00EA" stroke-linejoin="round" stroke-miterlimit="10" points="17.083,13.67 22.083,10.672 
	22.083,16.672 "/>
<g>
	<g>
		<path fill="#0B00EA" d="M7.583,2.673c-0.051,0-0.102,0.02-0.141,0.059l-0.8,0.8c-0.078,0.078-0.078,0.204,0,0.282l0.8,0.8
			c0.039,0.039,0.09,0.059,0.141,0.059s0.103-0.02,0.142-0.059l0.8-0.8c0.078-0.078,0.078-0.204,0-0.282l-0.8-0.8
			C7.685,2.693,7.633,2.673,7.583,2.673L7.583,2.673z"/>
	</g>
</g>
<g>
	<g>
		<path fill="#0B00EA" d="M18.083,4.673c-0.051,0-0.102,0.02-0.141,0.059l-0.8,0.8c-0.078,0.078-0.078,0.204,0,0.282l0.8,0.8
			c0.039,0.039,0.09,0.059,0.141,0.059s0.103-0.02,0.142-0.059l0.8-0.8c0.078-0.078,0.078-0.204,0-0.282l-0.8-0.8
			C18.185,4.693,18.133,4.673,18.083,4.673L18.083,4.673z"/>
	</g>
</g>
</svg>
