<?xml version="1.0" encoding="utf-8"?>
<!-- Generator: Adobe Illustrator 16.0.0, SVG Export Plug-In . SVG Version: 6.00 Build 0)  -->
<!DOCTYPE svg PUBLIC "-//W3C//DTD SVG 1.1//EN" "http://www.w3.org/Graphics/SVG/1.1/DTD/svg11.dtd">
<svg version="1.1" id="Layer_1" xmlns="http://www.w3.org/2000/svg" xmlns:xlink="http://www.w3.org/1999/xlink" x="0px" y="0px"
	 width="23.854px" height="23.802px" viewBox="1.155 -3.181 23.854 23.802" enable-background="new 1.155 -3.181 23.854 23.802"
	 xml:space="preserve">
<polygon fill="#FFFFFF" points="220.905,613.371 218.155,608.371 220.905,603.371 226.405,603.371 229.155,608.371 226.405,613.371 
	"/>
<polygon fill="#FFFFFF" points="232.405,613.371 230.655,610.371 232.405,607.371 235.905,607.371 237.655,610.371 235.905,613.371 
	"/>
<rect x="222.155" y="615.371" fill="#FFFFFF" width="11" height="6"/>
<polygon fill="#FFFFFF" points="233.155,618.369 238.155,615.371 238.155,621.371 "/>
<path fill="#FFF219" d="M238.155,618.371v3l-5-3.002C233.155,618.369,238.124,618.339,238.155,618.371z"/>
<rect x="222.155" y="618.371" fill="#FFF219" width="11" height="3"/>
<polygon fill="#FFF219" points="235.905,607.371 232.405,613.371 235.905,613.371 237.655,610.371 "/>
<polygon fill="#FFF219" points="226.405,603.371 220.905,613.371 226.405,613.371 229.155,608.371 "/>
<polygon fill="none" stroke="#0B00EA" stroke-linejoin="round" stroke-miterlimit="10" points="220.905,613.371 218.155,608.371 
	220.905,603.371 226.405,603.371 229.155,608.371 226.405,613.371 "/>
<polygon fill="none" stroke="#0B00EA" stroke-linejoin="round" stroke-miterlimit="10" points="232.405,613.371 230.655,610.371 
	232.405,607.371 235.905,607.371 237.655,610.371 235.905,613.371 "/>
<rect x="222.155" y="615.371" fill="none" stroke="#0B00EA" stroke-linejoin="round" stroke-miterlimit="10" width="11" height="6"/>
<polyline fill="none" stroke="#0B00EA" stroke-linecap="round" stroke-linejoin="round" stroke-miterlimit="10" points="
	223.155,625.371 227.155,621.371 231.155,625.371 "/>
<polygon fill="none" stroke="#0B00EA" stroke-linejoin="round" stroke-miterlimit="10" points="233.155,618.369 238.155,615.371 
	238.155,621.371 "/>
<g>
	<g>
		<path fill="#0B00EA" d="M223.654,607.372c-0.051,0-0.102,0.02-0.141,0.059l-0.8,0.8c-0.078,0.078-0.078,0.204,0,0.282l0.8,0.8
			c0.039,0.039,0.09,0.059,0.141,0.059s0.103-0.02,0.142-0.059l0.8-0.8c0.078-0.078,0.078-0.204,0-0.282l-0.8-0.8
			C223.756,607.391,223.705,607.372,223.654,607.372L223.654,607.372z"/>
	</g>
</g>
<g>
	<g>
		<path fill="#0B00EA" d="M234.154,609.372c-0.051,0-0.102,0.02-0.141,0.059l-0.8,0.8c-0.078,0.078-0.078,0.204,0,0.282l0.8,0.8
			c0.039,0.039,0.09,0.059,0.141,0.059s0.103-0.02,0.142-0.059l0.8-0.8c0.078-0.078,0.078-0.204,0-0.282l-0.8-0.8
			C234.256,609.391,234.205,609.372,234.154,609.372L234.154,609.372z"/>
	</g>
</g>
<polygon fill="#FFFFFF" points="9.172,3.882 9.172,-0.118 5.172,-0.118 5.172,3.882 2.172,3.882 2.172,19.882 12.172,19.882 
	12.172,3.882 "/>
<polygon fill="#FFFFFF" points="21.672,-2.118 18.672,-1.368 17.655,0.666 11.172,1.882 17.655,3.098 18.672,5.132 21.672,5.882 
	24.172,1.882 "/>
<rect x="7.172" y="3.882" fill="#FFF219" width="5" height="16"/>
<rect x="7.172" y="-0.118" fill="#FFF219" width="2" height="4"/>
<polygon fill="#FFF219" points="11.172,1.882 17.655,3.098 18.672,5.132 21.672,5.882 24.172,1.882 "/>
<polyline fill="none" stroke="#0B00EA" stroke-linecap="round" stroke-linejoin="round" stroke-miterlimit="10" points="
	19.172,3.382 11.172,1.882 19.172,0.382 "/>
<polyline fill="none" stroke="#0B00EA" stroke-linecap="round" stroke-linejoin="round" stroke-miterlimit="10" points="
	17.655,0.666 18.672,-1.368 21.672,-2.118 24.172,1.882 21.672,5.882 18.672,5.132 17.655,3.098 "/>
<line fill="none" stroke="#0B00EA" stroke-linecap="round" stroke-linejoin="round" stroke-miterlimit="10" x1="2.172" y1="19.882" x2="12.172" y2="9.882"/>
<rect x="2.172" y="3.882" fill="none" stroke="#0B00EA" stroke-linecap="round" stroke-linejoin="round" stroke-miterlimit="10" width="10" height="16"/>
<polyline fill="none" stroke="#0B00EA" stroke-linecap="round" stroke-linejoin="round" stroke-miterlimit="10" points="
	5.172,3.882 5.172,-0.118 9.172,-0.118 9.172,3.882 "/>
<line fill="none" stroke="#0B00EA" stroke-linecap="round" stroke-linejoin="round" stroke-miterlimit="10" x1="9.172" y1="1.882" x2="7.172" y2="1.882"/>
<line fill="none" stroke="#0B00EA" stroke-linecap="round" stroke-linejoin="round" stroke-miterlimit="10" x1="2.172" y1="13.882" x2="12.172" y2="3.882"/>
</svg>
