<?xml version="1.0" encoding="utf-8"?>
<!-- Generator: Adobe Illustrator 15.0.0, SVG Export Plug-In  -->
<!DOCTYPE svg PUBLIC "-//W3C//DTD SVG 1.1//EN" "http://www.w3.org/Graphics/SVG/1.1/DTD/svg11.dtd" [
	<!ENTITY ns_flows "http://ns.adobe.com/Flows/1.0/">
]>
<svg version="1.1"
	 xmlns="http://www.w3.org/2000/svg" xmlns:xlink="http://www.w3.org/1999/xlink" xmlns:a="http://ns.adobe.com/AdobeSVGViewerExtensions/3.0/"
	 x="0px" y="0px" width="260px" height="252px" viewBox="-0.265 -0.583 260 252"
	 overflow="visible" enable-background="new -0.265 -0.583 260 252" xml:space="preserve">
<defs>
</defs>
<polyline fill="#6A6B70" points="194.468,14.124 64.533,14.124 64.533,26.498 194.468,26.498 194.468,14.124 "/>
<path fill="#6A6B70" d="M15.022,236.877V76.001h228.95v160.876H15.022 M256.345,14.124h-37.126v12.374h24.753v37.125H15.022V26.498
	h24.753V14.124H2.655v235.131h253.69V14.124"/>
<polyline fill="#6A6B70" points="213.033,1.745 200.661,1.745 200.661,38.877 213.033,38.877 213.033,1.745 "/>
<polyline fill="#6A6B70" points="58.34,1.745 45.967,1.745 45.967,38.877 58.34,38.877 58.34,1.745 "/>
<path fill="#6A6B70" d="M115.084,122.182L115.084,122.182v-4.13V122.182h4.13H115.084 M92.083,118.052V99.18h18.871v18.872H92.083
	 M119.214,90.919H83.822v35.393h35.393v-4.13V90.919"/>
<path fill="#6A6B70" d="M166.193,122.182L166.193,122.182v-4.13V122.182h4.13H166.193 M143.197,118.052V99.18h18.865v18.872H143.197
	 M170.323,90.919h-35.387v35.393h35.387v-4.13V90.919"/>
<path fill="#6A6B70" d="M217.302,122.182L217.302,122.182v-4.13V122.182h4.13H217.302 M194.302,118.052V99.18h18.869v18.872H194.302
	 M221.432,90.919h-35.391v35.393h35.391v-4.13V90.919"/>
<path fill="#6A6B70" d="M115.084,171.396L115.084,171.396v-4.13V171.396h4.13H115.084 M92.083,167.266v-18.869h18.871v18.869H92.083
	 M119.214,140.136H83.822v35.39h35.393v-4.13V140.136"/>
<path fill="#6A6B70" d="M166.193,171.396L166.193,171.396v-4.13V171.396h4.13H166.193 M143.197,167.266v-18.87h18.865v18.87H143.197
	 M170.323,140.136h-35.387v35.39h35.387v-4.13V140.136"/>
<path fill="#6A6B70" d="M217.302,171.396L217.302,171.396v-4.13V171.396h4.13H217.302 M194.302,167.266v-18.869h18.869v18.869
	H194.302 M221.432,140.136h-35.391v35.39h35.391v-4.13V140.136"/>
<path fill="#6A6B70" d="M64.614,220.61L64.614,220.61v-4.13V220.61h4.131H64.614 M41.605,216.48v-18.877h18.878v18.877H41.605
	 M68.745,189.344h-35.4v35.396h35.4v-4.13V189.344"/>
<path fill="#6A6B70" d="M115.715,220.61L115.715,220.61v-4.13V220.61h4.131H115.715 M92.714,216.48v-18.877h18.87v18.877H92.714
	 M119.846,189.344H84.454v35.396h35.393v-4.13V189.344"/>
<path fill="#6A6B70" d="M166.825,220.61L166.825,220.61v-4.13V220.61h4.13H166.825 M143.825,216.48v-18.877h18.869v18.877H143.825
	 M170.955,189.344h-35.39v35.396h35.39v-4.13V189.344"/>
<rect id="_x3C_Tranche_x3E__1_" fill="none" width="259" height="251"/>
</svg>
