<?xml version="1.0" encoding="utf-8"?>
<!-- Generator: Adobe Illustrator 15.0.0, SVG Export Plug-In  -->
<!DOCTYPE svg PUBLIC "-//W3C//DTD SVG 1.1//EN" "http://www.w3.org/Graphics/SVG/1.1/DTD/svg11.dtd" [
	<!ENTITY ns_flows "http://ns.adobe.com/Flows/1.0/">
]>
<svg version="1.1"
	 xmlns="http://www.w3.org/2000/svg" xmlns:xlink="http://www.w3.org/1999/xlink" xmlns:a="http://ns.adobe.com/AdobeSVGViewerExtensions/3.0/"
	 x="0px" y="0px" width="249px" height="89px" viewBox="0 0 249 89" overflow="visible" enable-background="new 0 0 249 89"
	 xml:space="preserve">
<defs>
</defs>
<path fill="none" d="M158.368,40.437c-2.501,0-5.114,1.562-5.114,4.83c0.057,3.21,2.33,4.887,5.143,4.887
	c2.983,0,5.057-2.159,5.057-4.858C163.453,42.084,161.01,40.437,158.368,40.437z"/>
<path fill="none" d="M172.09,15.814c-2.443,0-4.574,1.478-4.972,4.177h9.713C176.706,17.282,174.836,15.814,172.09,15.814z"/>
<path fill="none" d="M138.562,70.564c-1.49,0-2.754,0.902-2.995,2.549v0.018l5.889-0.004
	C141.386,71.463,140.242,70.562,138.562,70.564z"/>
<path fill="none" d="M172.449,70.627l-0.018,0.018c-1.697,0.002-3.065,1.216-3.064,3.123c0.002,1.906,1.371,3.136,3.068,3.135
	C176.557,76.898,176.553,70.625,172.449,70.627z"/>
<path fill="none" d="M195.443,50.893c6.763,0,6.763-10.286,0.028-10.286l-0.028,0.029c-2.784,0-5.028,1.989-5.028,5.114
	C190.415,48.875,192.659,50.893,195.443,50.893z"/>
<path fill="none" d="M108.588,67.083c-3.083,0.003-4.674,2.274-4.672,4.927c0.001,2.461,1.492,4.852,4.679,4.85
	c3.187-0.002,4.623-2.465,4.621-4.856C113.231,69.541,111.757,67.115,108.588,67.083z"/>
<path fill="none" d="M120.326,40.607l-0.029,0.029c-2.784,0-5.029,1.989-5.029,5.114c0,3.125,2.245,5.143,5.029,5.143
	C127.06,50.893,127.06,40.607,120.326,40.607z"/>
<path fill="none" d="M149.441,70.557c-1.749,0.001-3.029,1.285-3.028,3.191c0.001,1.803,1.267,3.084,3.015,3.084
	c1.768-0.002,3.03-1.285,3.047-3.088C152.473,71.837,151.156,70.555,149.441,70.557z"/>
<path fill="none" d="M87.656,49.362c-0.058,0.4-0.11,0.804-0.178,1.201C87.542,50.159,87.602,49.759,87.656,49.362z"/>
<path fill="none" d="M161.24,70.705c-1.784,0.001-2.996,1.318-2.994,3.069c0,1.751,1.266,3.067,2.998,3.083
	c1.714,0,3.013-1.162,3.012-3.087C164.254,71.846,162.988,70.703,161.24,70.705z"/>
<path fill="none" d="M131.378,26.27c6.762,0,6.762-10.285,0.028-10.285l-0.028,0.028c-2.784,0-5.029,1.989-5.029,5.114
	C126.349,24.252,128.594,26.27,131.378,26.27z"/>
<path fill="none" d="M241.156,15.814c-2.443,0-4.574,1.478-4.972,4.177h9.713C245.772,17.282,243.902,15.814,241.156,15.814z"/>
<path fill="none" d="M239.18,66.993c-3.083,0.002-4.675,2.274-4.673,4.926c0.001,2.462,1.492,4.853,4.679,4.851
	c3.188-0.002,4.623-2.465,4.621-4.857C243.822,69.451,242.349,67.025,239.18,66.993z"/>
<path fill="none" d="M203.131,70.502c-1.49,0.001-2.789,0.903-3.029,2.551l5.92-0.004C205.943,71.396,204.805,70.5,203.131,70.502z"
	/>
<path fill="none" d="M220.07,67.267l-2.909,0.002l0.007,9.187l2.909-0.002c3.222-0.002,4.587-2.395,4.586-4.719
	C224.662,69.482,223.171,67.265,220.07,67.267z"/>
<polygon fill="#5E5F65" points="101.859,11.694 109.075,21.809 109.587,21.809 116.803,11.751 116.803,28.06 119.247,28.06 
	119.247,8.171 116.292,8.171 109.359,18.399 102.37,8.171 99.415,8.171 99.415,28.06 101.859,28.06 "/>
<path fill="#5E5F65" d="M131.264,28.4c1.933,0,4.063-0.909,5.171-2.841l0.058,2.557l0.057-0.057h2.244V14.024h-2.272l-0.028,2.557
	c-1.023-1.818-3.098-2.784-5.2-2.784c-4.006-0.028-7.216,2.699-7.216,7.245C124.076,25.616,127.229,28.4,131.264,28.4z
	 M131.378,16.013l0.028-0.028c6.733,0,6.733,10.285-0.028,10.285c-2.784,0-5.029-2.017-5.029-5.143
	C126.349,18.002,128.594,16.013,131.378,16.013z"/>
<path fill="#5E5F65" d="M146.663,20.246c0-2.585,1.875-4.176,4.119-4.205c0.966,0,1.705,0.255,2.443,0.767l1.052-1.989
	c-0.853-0.654-2.046-1.08-3.268-1.051c-1.619,0-3.353,0.511-4.318,2.33l-0.171-2.103l-0.028,0.028h-2.159V28.06h2.33V20.246z"/>
<rect x="157.771" y="13.967" fill="#5E5F65" width="2.33" height="14.092"/>
<path fill="#5E5F65" d="M160.498,9.762c0-2.045-3.068-2.045-3.068-0.028C157.43,11.78,160.498,11.78,160.498,9.762z"/>
<path fill="#5E5F65" d="M178.198,25.815h0.029l-1.563-1.42c-0.938,1.136-2.869,1.761-4.46,1.761c-2.699,0-4.83-1.619-5.086-4.205
	h11.933c0.54-5.597-2.728-8.24-7.018-8.24c-4.233,0-7.273,3.04-7.273,7.273c0,4.461,3.04,7.331,7.387,7.331
	C174.335,28.315,176.778,27.491,178.198,25.815z M172.09,15.814c2.746,0,4.616,1.468,4.741,4.177h-9.713
	C167.516,17.292,169.646,15.814,172.09,15.814z"/>
<rect x="183.396" y="18.797" fill="#5E5F65" width="10.172" height="2.216"/>
<polygon fill="#5E5F65" points="213.882,25.701 201.893,25.701 201.893,18.968 212.944,18.968 212.944,16.667 201.893,16.667 
	201.893,10.444 213.428,10.444 213.428,8.171 199.449,8.171 199.449,28.06 213.882,28.06 "/>
<polygon fill="#5E5F65" points="226.326,19.536 223.968,25.588 221.581,19.508 219.309,14.024 216.752,14.024 222.689,28.088 
	225.247,28.088 231.156,14.024 228.6,14.024 "/>
<path fill="#5E5F65" d="M241.1,13.711c-4.233,0-7.273,3.04-7.273,7.273c0,4.461,3.04,7.331,7.387,7.331
	c2.188,0,4.632-0.824,6.052-2.5h0.029l-1.563-1.42c-0.938,1.136-2.869,1.761-4.46,1.761c-2.699,0-4.83-1.619-5.086-4.205h11.933
	C248.657,16.354,245.39,13.711,241.1,13.711z M241.156,15.814c2.746,0,4.616,1.468,4.741,4.177h-9.713
	C236.582,17.292,238.713,15.814,241.156,15.814z"/>
<polygon fill="#5E5F65" points="104.046,52.682 106.49,52.682 106.49,35.01 113.28,35.01 113.28,32.794 97.256,32.794 97.256,35.01 
	104.046,35.01 "/>
<path fill="#5E5F65" d="M127.713,38.646h-2.273l-0.028,2.557c-1.023-1.818-3.097-2.784-5.199-2.784
	c-4.006-0.028-7.217,2.699-7.217,7.245c0,4.574,3.154,7.359,7.188,7.359c1.932,0,4.063-0.91,5.171-2.842l0.057,2.557l0.057-0.057
	h2.244V38.646z M120.297,50.893c-2.784,0-5.029-2.018-5.029-5.143c0-3.125,2.245-5.114,5.029-5.114l0.029-0.029
	C127.06,40.607,127.06,50.893,120.297,50.893z"/>
<path fill="#5E5F65" d="M146.464,52.682v-7.756c0-4.12-2.614-6.506-6.166-6.506c-1.875,0-3.58,0.767-4.802,2.443l-0.113-2.245
	h-2.131v0.028v14.035h2.302v-7.529c0-2.528,1.761-4.545,4.318-4.574c2.671,0,4.262,1.676,4.262,4.375v7.728H146.464z"/>
<path fill="#5E5F65" d="M165.499,38.846l-1.647-1.307l-1.506,1.818c-1.023-0.71-2.699-1.051-3.978-1.051
	c-3.608,0-7.416,2.33-7.416,6.961c0,4.376,3.012,6.933,7.416,6.933c2.613,0,4.915,1.107,4.915,3.381
	c0,2.443-2.528,3.324-4.943,3.324c-2.558-0.028-4.973-1.137-4.973-3.863h-2.244c-0.086,3.778,2.955,5.994,7.188,5.994
	c3.723,0,7.331-1.847,7.331-5.483c0-2.017-1.137-3.778-3.864-4.574c2.728-0.881,3.949-3.324,3.949-5.711
	c0-2.045-0.71-3.296-1.818-4.546L165.499,38.846z M158.396,50.153c-2.812,0-5.086-1.677-5.143-4.887c0-3.268,2.613-4.83,5.114-4.83
	c2.642,0,5.085,1.648,5.085,4.858C163.453,47.994,161.38,50.153,158.396,50.153z"/>
<path fill="#5E5F65" d="M172.572,46.375v-7.729h-2.33v7.757c0,4.091,2.529,6.506,6.109,6.506c1.96-0.028,3.637-0.767,4.887-2.472
	l0.113,2.244h2.131V38.646h-2.33v7.529c0,2.529-1.761,4.546-4.318,4.574C174.163,50.75,172.572,49.074,172.572,46.375z"/>
<path fill="#5E5F65" d="M188.142,45.664c0,4.574,3.154,7.359,7.188,7.359c1.932,0,4.062-0.91,5.171-2.842l0.057,2.557l0.057-0.057
	h2.245V38.646h-2.273l-0.028,2.557c-1.022-1.818-3.097-2.784-5.199-2.784C191.353,38.391,188.142,41.119,188.142,45.664z
	 M195.443,40.636l0.028-0.029c6.734,0,6.734,10.286-0.028,10.286c-2.784,0-5.028-2.018-5.028-5.143
	C190.415,42.625,192.659,40.636,195.443,40.636z"/>
<polygon fill="#5E5F65" points="218.655,38.646 215.559,45.977 214.053,49.955 212.519,45.949 209.763,38.646 207.12,38.646 
	212.773,52.483 209.848,59.303 212.348,59.303 221.212,38.646 "/>
<path fill="#349DD4" d="M108.587,65.696c-3.827,0.003-6.181,2.795-6.178,6.313c0.002,3.189,2.013,6.273,6.169,6.271
	c4.156-0.003,6.129-3.107,6.144-6.279C114.737,68.795,112.691,65.711,108.587,65.696z M108.594,76.859
	c-3.187,0.002-4.677-2.389-4.679-4.85c-0.002-2.652,1.59-4.924,4.672-4.927c3.169,0.032,4.643,2.458,4.627,4.92
	C113.217,74.395,111.781,76.857,108.594,76.859z"/>
<path fill="#349DD4" d="M120.65,73.055c-1.074-0.12-2.113-0.379-2.131-1.264c-0.018-0.85,0.935-1.266,2.112-1.25
	c0.883,0,1.663,0.155,2.408,0.831l0.017-0.017l0.813-0.938c-0.918-0.832-1.975-1.143-3.256-1.142
	c-1.645-0.017-3.48,0.696-3.462,2.516c0.001,1.819,1.768,2.253,3.414,2.46c1.316,0.154,2.321,0.432,2.304,1.367
	c-0.034,1.039-1.229,1.336-2.165,1.336c-1.056,0.001-2.286-0.379-3.048-1.314l-0.813,0.988c0.971,1.212,2.391,1.609,3.829,1.609
	c1.922-0.002,3.55-0.852,3.583-2.568C124.288,73.555,122.209,73.244,120.65,73.055z"/>
<path fill="#349DD4" d="M130.718,76.861c-1.021,0.001-1.351-0.641-1.352-1.646l-0.003-4.524l2.667-0.002l-0.001-1.213l-2.65,0.002
	l-0.001-2.514l-1.42,0.157l0.001,2.357l-1.715,0.001l0.001,1.213l1.715-0.001l0.003,4.524c0.001,1.89,0.868,2.963,2.704,2.928
	c0.571-0.018,1.091-0.156,1.663-0.417l-0.417-1.179C131.532,76.74,131.1,76.861,130.718,76.861z"/>
<path fill="#349DD4" d="M138.51,69.281c-2.563,0.002-4.416,1.857-4.414,4.44c0.002,2.722,1.856,4.472,4.506,4.47
	c1.334-0.002,2.822-0.506,3.688-1.528l-0.952-0.866c-0.571,0.693-1.749,1.076-2.719,1.076c-1.646,0.002-2.91-0.986-3.067-2.58
	l7.24-0.006v0.035C143.117,70.891,141.125,69.279,138.51,69.281z M135.567,73.131v-0.018c0.241-1.646,1.505-2.549,2.995-2.549
	c1.68-0.002,2.823,0.898,2.894,2.562L135.567,73.131z"/>
<polygon fill="#349DD4" points="140.654,65.796 140.654,65.761 138.905,65.762 137.625,67.965 137.625,68.051 138.924,68.051 "/>
<path fill="#349DD4" d="M149.424,69.257c-2.547,0.001-4.434,1.84-4.432,4.492c0.002,2.601,1.874,4.419,4.438,4.417
	c2.58-0.002,4.449-1.823,4.447-4.424C153.875,71.09,152.039,69.255,149.424,69.257z M149.428,76.832
	c-1.748,0-3.014-1.281-3.015-3.084c-0.001-1.906,1.279-3.19,3.028-3.191c1.715-0.002,3.031,1.28,3.033,3.188
	C152.458,75.547,151.195,76.83,149.428,76.832z"/>
<path fill="#349DD4" d="M161.412,69.318c-1.352,0-2.615,0.659-3.289,1.805l-0.07-1.646h-1.352l0.009,12.566h1.386l-0.004-5.582
	c0.676,1.213,2.027,1.732,3.239,1.732c2.563-0.002,4.347-1.754,4.345-4.459C165.674,71.1,163.871,69.367,161.412,69.318z
	 M161.244,76.857c-1.732-0.016-2.998-1.332-2.998-3.083c-0.002-1.751,1.21-3.068,2.994-3.069c1.748-0.002,3.014,1.141,3.016,3.065
	C164.257,75.695,162.958,76.857,161.244,76.857z"/>
<path fill="#349DD4" d="M175.564,69.43l-0.016,1.56c-0.624-1.108-1.889-1.698-3.17-1.696c-2.442-0.016-4.398,1.649-4.396,4.423
	c0.002,2.791,1.926,4.488,4.385,4.486c1.178-0.001,2.476-0.556,3.15-1.735l0.035,1.561l0.035-0.035l1.368-0.001l-0.006-8.563
	L175.564,69.43z M172.436,76.902c-1.697,0.001-3.066-1.229-3.068-3.135c-0.001-1.907,1.367-3.121,3.064-3.123l0.018-0.018
	C176.553,70.625,176.557,76.898,172.436,76.902z"/>
<path fill="#349DD4" d="M184.077,76.824c-1.021,0.001-1.351-0.64-1.352-1.645l-0.003-4.525l2.667-0.002l-0.001-1.213l-2.65,0.002
	l-0.001-2.514l-1.42,0.158l0.001,2.357h-1.715l0.002,1.213h1.715l0.002,4.523c0.002,1.891,0.868,2.963,2.704,2.928
	c0.571-0.018,1.091-0.156,1.663-0.417l-0.417-1.179C184.891,76.703,184.459,76.824,184.077,76.824z"/>
<path fill="#349DD4" d="M192.354,69.313c-1.092,0.019-2.234,0.4-2.961,1.527l-0.004-4.976v-0.017l-1.402,0.001l0.008,12.134
	l1.421-0.001l-0.003-4.541c-0.002-1.561,1.141-2.792,2.699-2.793c1.559-0.002,2.426,0.951,2.426,2.633l0.004,4.697h1.402
	l-0.003-4.715C195.939,70.906,194.76,69.312,192.354,69.313z"/>
<path fill="#349DD4" d="M203.095,69.22c-2.581,0.002-4.433,1.857-4.431,4.44c0.002,2.721,1.855,4.471,4.506,4.469
	c1.334-0.001,2.822-0.504,3.688-1.527h0.018l-0.953-0.866c-0.57,0.694-1.748,1.075-2.719,1.076
	c-1.645,0.001-2.944-0.985-3.102-2.563l7.273-0.005C207.702,70.828,205.709,69.218,203.095,69.22z M203.131,70.502
	c1.674-0.002,2.812,0.895,2.891,2.547l-5.92,0.004C200.342,71.405,201.641,70.503,203.131,70.502z"/>
<path fill="#349DD4" d="M220.07,65.811l-4.416,0.003v0.017l0.008,12.135l4.416-0.004c4.243-0.002,6.094-3.107,6.092-6.209
	C226.168,68.752,224.191,65.808,220.07,65.811z M220.077,76.453l-2.909,0.002l-0.007-9.187l2.909-0.002
	c3.101-0.002,4.592,2.216,4.593,4.468C224.664,74.059,223.299,76.451,220.077,76.453z"/>
<path fill="#349DD4" d="M228.654,77.176c0.002,1.248,1.872,1.246,1.871,0.016C230.524,75.943,228.654,75.945,228.654,77.176z"/>
<path fill="#349DD4" d="M239.178,65.606c-3.826,0.003-6.18,2.795-6.178,6.313c0.002,3.189,2.013,6.273,6.17,6.271
	c4.156-0.004,6.129-3.107,6.144-6.279C245.328,68.705,243.283,65.621,239.178,65.606z M239.186,76.77
	c-3.187,0.002-4.678-2.389-4.679-4.851c-0.002-2.651,1.59-4.924,4.673-4.926c3.169,0.032,4.643,2.458,4.627,4.919
	C243.809,74.305,242.373,76.768,239.186,76.77z"/>
<path fill="#349DD4" d="M87.656,49.362c0.873-6.356,0.314-11.644-7.8-11.797c-0.833,0.021-1.698,0.061-2.633,0.137
	c-1.29,0.106-2.642,0.248-4.054,0.424c0.247,0.212,0.485,0.451,0.715,0.715c0.23,0.265,0.442,0.539,0.637,0.821
	c0.193,0.283,0.344,0.557,0.45,0.822c0.106,0.264,0.14,0.468,0.106,0.609c-0.036,0.354-0.354,1.351-0.954,2.994
	c-0.6,1.643-1.36,3.628-2.278,5.959c-0.919,2.332-1.899,4.867-2.94,7.604c-1.043,2.738-2.006,5.37-2.888,7.896
	c-0.883,2.525-1.625,4.804-2.226,6.835c-0.601,2.031-0.901,3.505-0.901,4.424c0,0.424-0.343,0.59-1.032,0.502
	c-0.689-0.088-1.44-0.352-2.252-0.795c-0.813-0.44-1.563-1.014-2.252-1.721c-0.688-0.705-1.032-1.466-1.032-2.277
	c0-0.566,0.22-1.502,0.663-2.81c0.44-1.306,1.014-2.852,1.721-4.636c0.707-1.782,1.484-3.762,2.332-5.934
	c0.848-2.173,1.677-4.406,2.49-6.703c0.813-2.295,1.545-4.6,2.199-6.914c0.653-2.313,1.157-4.512,1.511-6.596
	c-2.049,0.283-3.965,0.548-5.749,0.794c-1.784,0.247-3.241,0.371-4.37,0.371c-1.201,0-2.191-0.203-2.968-0.609
	c-0.776-0.406-1.386-0.883-1.828-1.431c-0.441-0.547-0.75-1.094-0.928-1.642c-0.085-0.265-0.148-0.492-0.192-0.687
	c-0.024,0.068-0.047,0.133-0.072,0.202c-0.831,2.332-1.626,4.689-2.385,7.074s-1.439,4.725-2.039,7.021
	c-0.601,2.297-1.007,4.344-1.219,6.145c-0.072,0.355-0.105,0.753-0.105,1.192c0,0.443,0.034,0.769,0.105,0.981
	c0.106,0.318-0.045,0.672-0.45,1.059c-0.408,0.391-1.122,0.583-2.146,0.583c-0.354,0-0.848-0.106-1.483-0.317
	c-0.636-0.212-1.246-0.556-1.829-1.033c-0.583-0.478-1.077-1.095-1.482-1.854c-0.408-0.761-0.54-1.67-0.398-2.73
	c0.071-0.67,0.405-1.827,1.007-3.469c0.601-1.644,1.315-3.578,2.146-5.802c0.829-2.226,1.73-4.671,2.701-7.338
	c0.972-2.667,1.863-5.359,2.676-8.08c-0.635,0.954-1.475,2.208-2.516,3.762c-1.043,1.555-2.172,3.268-3.39,5.139
	c-1.22,1.874-2.464,3.814-3.736,5.828c-1.271,2.014-2.455,3.958-3.549,5.829c-1.097,1.871-2.033,3.576-2.809,5.111
	c-0.777,1.537-1.272,2.766-1.483,3.683c0.106,0.317-0.045,0.672-0.452,1.061c-0.405,0.388-1.121,0.581-2.145,0.581
	c-0.318,0-0.751-0.068-1.298-0.211c-0.549-0.141-1.069-0.398-1.563-0.769c-0.496-0.37-0.901-0.892-1.219-1.563
	c-0.318-0.669-0.406-1.536-0.266-2.595c0.071-0.493,0.274-1.325,0.61-2.489c0.335-1.168,0.769-2.57,1.298-4.215
	c0.529-1.641,1.121-3.459,1.775-5.456c0.653-1.996,1.316-4.08,1.987-6.252c0.67-2.171,1.333-4.389,1.987-6.649
	c0.653-2.26,1.245-4.468,1.775-6.623c-1.167,1.907-2.57,4.115-4.212,6.623c-1.643,2.508-3.426,5.104-5.351,7.788
	c-1.927,2.685-3.948,5.325-6.067,7.922c-2.119,2.595-4.221,4.917-6.304,6.966c-2.022,1.987-3.975,3.593-5.865,4.832
	c5.728,17.304,22.024,29.793,41.248,29.793c21.744,0,39.178-15.978,42.786-36.821c0.003-0.021,0.007-0.041,0.01-0.062
	C87.546,50.166,87.598,49.763,87.656,49.362z"/>
<path fill="#349DD4" d="M44.682,0.544C20.685,0.544,1.23,19.997,1.23,43.995c0,3.093,0.329,6.109,0.943,9.019
	c0.905-0.663,1.822-1.406,2.752-2.232c1.891-1.678,3.807-3.62,5.749-5.828c1.942-2.207,3.841-4.495,5.696-6.861
	c1.854-2.368,3.647-4.751,5.378-7.153c1.73-2.402,3.312-4.645,4.742-6.729c1.43-2.083,2.701-3.937,3.814-5.563
	c1.113-1.624,1.988-2.842,2.623-3.656c0-0.01,0.003-0.014,0.003-0.024c0.417-0.368,1.152-0.77,1.956-0.63
	c0.491,0.245,1.025,0.577,1.617,1.025c0.653,0.495,1.246,1.024,1.775,1.589c0.529,0.565,0.971,1.13,1.325,1.695
	c0.354,0.565,0.511,1.043,0.478,1.431c-0.036,0.318-0.223,1.007-0.558,2.067c-0.336,1.059-0.74,2.331-1.218,3.815
	c-0.477,1.483-0.99,3.082-1.536,4.794c-0.548,1.714-1.069,3.383-1.563,5.007c-0.495,1.625-0.928,3.118-1.298,4.477
	c-0.371,1.36-0.592,2.41-0.663,3.152c-0.106,0.177-0.195,0.46-0.265,0.848c1.131-1.729,2.385-3.664,3.762-5.801
	c1.378-2.137,2.773-4.336,4.186-6.598c1.412-2.259,2.809-4.538,4.186-6.834c1.377-2.295,2.649-4.485,3.814-6.57
	c0.007-0.057,0.015-0.101,0.021-0.155c0.416-0.831,1.192-2.098,2.697-1.198c0.013,0.008,0.024,0.012,0.038,0.019
	c0.353,0.23,0.712,0.487,1.086,0.804c0.583,0.495,1.12,1.016,1.616,1.563c0.494,0.548,0.883,1.086,1.166,1.616
	c0.283,0.53,0.406,0.972,0.371,1.325c-0.035,0.318-0.284,1.122-0.741,2.411c-0.459,1.289-1.043,2.879-1.749,4.768
	c-0.504,1.348-1.04,2.812-1.606,4.384c0.064,0.014,0.128,0.027,0.203,0.049c0.424,0.124,1.077,0.292,1.96,0.503
	c0.883,0.212,2.138,0.318,3.762,0.318c1.589,0,3.487-0.17,5.695-0.512s4.495-0.727,6.861-1.157c2.366-0.431,4.68-0.816,6.941-1.157
	c2.26-0.341,4.273-0.512,6.041-0.512c1.371,0,2.528,0.087,3.489,0.254C81.909,12.979,64.612,0.544,44.682,0.544z"/>
<rect id="_x3C_Tranche_x3E__1_" fill="none" width="249" height="89"/>
</svg>
