<?xml version="1.0" encoding="utf-8"?>
<!-- Generator: Adobe Illustrator 15.0.0, SVG Export Plug-In  -->
<!DOCTYPE svg PUBLIC "-//W3C//DTD SVG 1.1//EN" "http://www.w3.org/Graphics/SVG/1.1/DTD/svg11.dtd" [
	<!ENTITY ns_flows "http://ns.adobe.com/Flows/1.0/">
]>
<svg version="1.1"
	 xmlns="http://www.w3.org/2000/svg" xmlns:xlink="http://www.w3.org/1999/xlink" xmlns:a="http://ns.adobe.com/AdobeSVGViewerExtensions/3.0/"
	 x="0px" y="0px" width="32px" height="38px" viewBox="-0.03 -0.059 32 38"
	 overflow="visible" enable-background="new -0.03 -0.059 32 38" xml:space="preserve">
<defs>
</defs>
<g>
	<path fill="#5E5F65" d="M10.335,10.183v8.433c0,1.715,1.39,3.15,3.15,3.15h0.927v3.15c0,0.371,0.186,0.648,0.51,0.788
		c0.093,0.046,0.232,0.093,0.325,0.093c0.232,0,0.417-0.093,0.603-0.232l3.937-3.799h7.46c1.714,0,3.149-1.39,3.149-3.15v-8.433
		c0-1.714-1.389-3.15-3.149-3.15H13.438C11.771,7.079,10.335,8.469,10.335,10.183z M28.728,10.183v8.433
		c0,0.788-0.649,1.391-1.39,1.391h-7.83c-0.232,0-0.417,0.092-0.604,0.231l-2.732,2.641v-1.992c0-0.464-0.37-0.88-0.88-0.88h-1.76
		c-0.788,0-1.391-0.649-1.391-1.391v-8.433c0-0.787,0.649-1.39,1.391-1.39h13.807C28.079,8.793,28.728,9.442,28.728,10.183z
		 M14.18,12.546c0-0.463,0.371-0.88,0.88-0.88h10.286c0.463,0,0.881,0.37,0.881,0.88c0,0.463-0.372,0.881-0.881,0.881H15.06
		C14.597,13.38,14.18,13.009,14.18,12.546z M14.18,16.438c0-0.463,0.371-0.88,0.88-0.88h10.286c0.463,0,0.881,0.37,0.881,0.88
		c0,0.464-0.372,0.881-0.881,0.881H15.06C14.597,17.318,14.18,16.901,14.18,16.438z M0.604,33.627V3.372
		c0-1.528,1.251-2.78,2.78-2.78h16.818c1.529,0,2.78,1.252,2.78,2.78v1.482c0,0.464-0.371,0.881-0.881,0.881
		c-0.463,0-0.88-0.37-0.88-0.881V3.372c0-0.556-0.463-1.02-1.02-1.02H3.384c-0.555,0-1.019,0.464-1.019,1.02v30.255
		c0,0.557,0.464,1.02,1.019,1.02h16.818c0.557,0,1.02-0.463,1.02-1.02v-9.591c0-0.464,0.37-0.88,0.88-0.88
		c0.463,0,0.881,0.371,0.881,0.88v9.591c0,1.529-1.251,2.78-2.78,2.78H3.384C1.856,36.407,0.604,35.156,0.604,33.627z
		 M14.782,31.264c0,0.464-0.371,0.881-0.88,0.881H9.594c-0.464,0-0.881-0.371-0.881-0.881c0-0.463,0.371-0.88,0.881-0.88h4.309
		C14.412,30.384,14.782,30.754,14.782,31.264z"/>
</g>
<rect id="_x3C_Tranche_x3E__1_" fill="none" width="31" height="37"/>
</svg>
