<?xml version="1.0" encoding="UTF-8" standalone="no"?>
<!-- Created with Inkscape (http://www.inkscape.org/) -->

<svg
   xmlns:dc="http://purl.org/dc/elements/1.1/"
   xmlns:cc="http://creativecommons.org/ns#"
   xmlns:rdf="http://www.w3.org/1999/02/22-rdf-syntax-ns#"
   xmlns:svg="http://www.w3.org/2000/svg"
   xmlns="http://www.w3.org/2000/svg"
   xmlns:sodipodi="http://sodipodi.sourceforge.net/DTD/sodipodi-0.dtd"
   xmlns:inkscape="http://www.inkscape.org/namespaces/inkscape"
   width="41.236633mm"
   height="9.0470572mm"
   viewBox="0 0 41.236633 9.0470572"
   version="1.1"
   id="svg2989"
   inkscape:version="0.92.3 (2405546, 2018-03-11)"
   sodipodi:docname="logo-full.svg">
  <defs
     id="defs2983" />
  <sodipodi:namedview
     id="base"
     pagecolor="#ffffff"
     bordercolor="#666666"
     borderopacity="1.0"
     inkscape:pageopacity="0.0"
     inkscape:pageshadow="2"
     inkscape:zoom="0.35"
     inkscape:cx="-184.35824"
     inkscape:cy="-100.04606"
     inkscape:document-units="mm"
     inkscape:current-layer="layer1"
     showgrid="false"
     fit-margin-top="0"
     fit-margin-left="0"
     fit-margin-right="0"
     fit-margin-bottom="0"
     inkscape:window-width="1849"
     inkscape:window-height="1015"
     inkscape:window-x="71"
     inkscape:window-y="31"
     inkscape:window-maximized="1" />
  <metadata
     id="metadata2986">
    <rdf:RDF>
      <cc:Work
         rdf:about="">
        <dc:format>image/svg+xml</dc:format>
        <dc:type
           rdf:resource="http://purl.org/dc/dcmitype/StillImage" />
        <dc:title></dc:title>
      </cc:Work>
    </rdf:RDF>
  </metadata>
  <g
     inkscape:label="Layer 1"
     inkscape:groupmode="layer"
     id="layer1"
     transform="translate(-12.87038,-113.31576)">
    <g
       id="g3259">
      <g
         transform="matrix(0.35277777,0,0,-0.35277777,15.869705,114.19396)"
         id="g204">
        <path
           inkscape:connector-curvature="0"
           id="path206"
           style="fill:#59a745;fill-opacity:1;fill-rule:evenodd;stroke:none"
           d="m 0,0 c 0,0.131 -0.104,0.232 -0.235,0.232 -0.135,0 -0.237,-0.103 -0.236,-0.238 0.001,-0.131 0.104,-0.232 0.236,-0.232 C -0.101,-0.238 0,-0.136 0,0 m 4.431,-2.346 c 0.001,0.133 -0.1,0.237 -0.229,0.238 C 4.065,-2.106 3.96,-2.207 3.96,-2.34 c 0,-0.133 0.1,-0.237 0.229,-0.239 0.137,-10e-4 0.242,0.1 0.242,0.233 m 4.902,-4.013 c 0.132,0 0.234,0.102 0.235,0.232 0.001,0.136 -0.101,0.239 -0.235,0.239 -0.132,0 -0.235,-0.101 -0.236,-0.232 0,-0.136 0.101,-0.239 0.236,-0.239 M 7.94,-2.191 C 7.807,-2.189 7.7,-2.289 7.699,-2.417 7.697,-2.554 7.796,-2.66 7.928,-2.662 8.062,-2.663 8.167,-2.564 8.169,-2.436 8.172,-2.298 8.072,-2.192 7.94,-2.191 M -5.195,-12.493 c -0.131,-10e-4 -0.233,-0.103 -0.233,-0.234 -0.001,-0.135 0.102,-0.237 0.238,-0.237 0.131,0.001 0.232,0.103 0.232,0.235 0.001,0.135 -0.101,0.237 -0.237,0.236 m 11.98,4.831 c 0,0.132 -0.101,0.236 -0.231,0.237 -0.136,10e-4 -0.24,-0.1 -0.24,-0.234 -0.001,-0.132 0.101,-0.236 0.231,-0.237 0.136,-0.001 0.239,0.1 0.24,0.234 m 1.142,-2.435 c -0.159,0 -0.283,-0.124 -0.283,-0.282 0,-0.161 0.122,-0.286 0.28,-0.286 0.163,-0.001 0.287,0.123 0.287,0.286 0,0.158 -0.125,0.282 -0.284,0.282 m -1.654,1.406 c -10e-4,-0.16 0.123,-0.284 0.281,-0.285 0.16,0 0.285,0.122 0.286,0.28 0.001,0.164 -0.122,0.288 -0.284,0.288 -0.159,0 -0.283,-0.124 -0.283,-0.283 m 3.35,1.534 c 0.001,0.16 -0.123,0.285 -0.28,0.286 -0.16,0 -0.287,-0.122 -0.287,-0.278 -10e-4,-0.165 0.121,-0.29 0.283,-0.29 0.16,0 0.284,0.124 0.284,0.282 m -9.29,-5.37 c -0.001,0.159 -0.125,0.283 -0.284,0.283 -0.159,10e-4 -0.284,-0.123 -0.284,-0.281 -0.001,-0.163 0.123,-0.287 0.286,-0.287 0.157,10e-4 0.282,0.126 0.282,0.285 m 7.607,8.785 c 0.16,0 0.285,0.123 0.285,0.281 0,0.161 -0.122,0.287 -0.279,0.287 -0.164,10e-4 -0.289,-0.122 -0.289,-0.284 0,-0.159 0.124,-0.284 0.283,-0.284 m -4.819,1.718 c 0.16,-10e-4 0.285,0.122 0.285,0.28 10e-4,0.161 -0.121,0.286 -0.279,0.287 -0.164,0.001 -0.288,-0.122 -0.288,-0.284 0,-0.159 0.123,-0.283 0.282,-0.283 M 2.293,-13.573 c -0.159,0 -0.285,-0.123 -0.286,-0.281 0,-0.16 0.122,-0.286 0.279,-0.287 0.165,-10e-4 0.289,0.122 0.289,0.284 0,0.159 -0.123,0.284 -0.282,0.284 M -1.38,-0.571 c 0.16,0 0.285,0.123 0.286,0.28 0,0.162 -0.121,0.288 -0.279,0.288 -0.164,0.001 -0.289,-0.122 -0.289,-0.284 0,-0.159 0.124,-0.283 0.282,-0.284 m -4.824,-11.263 c 0,-0.16 0.124,-0.285 0.282,-0.285 0.16,-10e-4 0.286,0.122 0.286,0.279 0.001,0.164 -0.122,0.289 -0.284,0.289 -0.159,0 -0.284,-0.125 -0.284,-0.283 m 7.305,-2.5 c 0.189,0 0.335,0.149 0.34,0.337 0.005,0.186 -0.167,0.346 -0.337,0.342 -0.193,-0.004 -0.343,-0.15 -0.343,-0.342 0,-0.188 0.151,-0.337 0.34,-0.337 m 6.825,9.388 c 0.173,-0.011 0.345,0.154 0.342,0.336 -0.004,0.19 -0.15,0.342 -0.336,0.342 -0.194,0 -0.344,-0.148 -0.344,-0.34 0,-0.188 0.15,-0.338 0.338,-0.338 M 9.321,-8.643 C 9.497,-8.656 9.664,-8.489 9.667,-8.311 9.67,-8.121 9.5,-7.967 9.334,-7.963 9.152,-7.958 8.982,-8.122 8.986,-8.301 8.989,-8.49 9.135,-8.643 9.321,-8.643 M 6.542,-10.18 c 0.189,0 0.34,0.149 0.34,0.336 0,0.19 -0.149,0.342 -0.336,0.342 -0.193,0 -0.343,-0.148 -0.343,-0.34 0,-0.188 0.151,-0.338 0.339,-0.338 m -13.155,-0.194 c -0.188,0 -0.335,-0.15 -0.34,-0.338 -0.004,-0.184 0.166,-0.345 0.338,-0.342 0.193,0.004 0.339,0.15 0.343,0.343 0.004,0.181 -0.167,0.347 -0.341,0.337 m 8.392,8.682 c 0.189,0 0.336,0.149 0.341,0.337 0.005,0.186 -0.168,0.346 -0.337,0.342 C 1.589,-1.017 1.44,-1.162 1.44,-1.354 c 0,-0.188 0.15,-0.338 0.339,-0.338 m -3.967,0.883 c 0,0.187 -0.152,0.335 -0.341,0.335 -0.188,0 -0.334,-0.151 -0.338,-0.339 -0.005,-0.182 0.166,-0.347 0.346,-0.34 0.185,0.006 0.333,0.153 0.333,0.344 M 7.928,-11.316 c -0.189,0 -0.336,-0.149 -0.342,-0.336 -0.004,-0.185 0.166,-0.347 0.337,-0.344 0.194,0.004 0.344,0.15 0.344,0.342 0,0.188 -0.15,0.338 -0.339,0.338 m -8.773,-0.852 c 0.001,0.189 -0.15,0.34 -0.336,0.34 -0.191,0 -0.341,-0.149 -0.342,-0.335 0,-0.194 0.148,-0.344 0.34,-0.344 0.188,0 0.338,0.15 0.338,0.339 m 0.583,-3.45 c 0,0.003 0.001,0.006 0.002,0.01 0.009,0 0.018,0 0.027,0 0.151,-0.011 0.311,0.108 0.342,0.284 0.031,0.17 -0.076,0.333 -0.249,0.38 -0.074,0.021 -0.152,0.031 -0.228,0.041 -0.301,0.041 -0.6,0.098 -0.891,0.189 -0.205,0.063 -0.408,0.134 -0.614,0.193 -0.197,0.055 -0.407,-0.115 -0.413,-0.319 -0.005,-0.155 0.098,-0.293 0.275,-0.355 0.409,-0.143 0.825,-0.256 1.25,-0.34 0.166,-0.032 0.333,-0.055 0.499,-0.083 M 1.685,0.394 C 1.685,0.391 1.684,0.39 1.684,0.387 1.654,0.385 1.623,0.386 1.595,0.378 1.418,0.332 1.318,0.19 1.329,0.008 1.338,-0.141 1.49,-0.288 1.653,-0.308 c 0.113,-0.013 0.226,-0.027 0.34,-0.041 0.3,-0.036 0.593,-0.105 0.88,-0.201 0.195,-0.066 0.387,-0.14 0.582,-0.201 0.138,-0.043 0.284,0.012 0.362,0.13 0.079,0.12 0.085,0.246 0.011,0.373 -0.063,0.105 -0.17,0.147 -0.275,0.189 C 3.147,0.102 2.727,0.216 2.3,0.299 2.097,0.338 1.89,0.362 1.685,0.394 m 5.903,-8.076 v -1.557 c 0,-0.192 0.15,-0.345 0.339,-0.346 0.2,0 0.353,0.148 0.353,0.347 0,1.038 0.001,2.076 0,3.114 0,0.196 -0.152,0.347 -0.347,0.347 -0.195,0 -0.345,-0.152 -0.345,-0.348 z m -7.989,-6.537 c 0.235,-0.015 0.396,0.12 0.414,0.292 0.02,0.195 -0.11,0.353 -0.3,0.383 -0.108,0.017 -0.215,0.037 -0.321,0.063 -0.501,0.121 -0.981,0.302 -1.442,0.531 -0.54,0.268 -1.04,0.593 -1.484,1.003 -0.049,0.045 -0.11,0.079 -0.17,0.107 -0.147,0.064 -0.322,0.008 -0.409,-0.125 -0.089,-0.137 -0.073,-0.311 0.043,-0.425 0.057,-0.057 0.116,-0.111 0.177,-0.164 0.346,-0.304 0.722,-0.567 1.12,-0.797 0.62,-0.358 1.278,-0.62 1.974,-0.786 0.154,-0.037 0.31,-0.064 0.398,-0.082 m 10.745,-1.459 c -0.022,-0.039 -0.04,-0.081 -0.065,-0.118 -0.081,-0.121 -0.227,-0.171 -0.37,-0.131 -0.135,0.038 -0.239,0.17 -0.244,0.31 0,0.019 0,0.037 0,0.055 v 5.671 c 0,0.187 -0.126,0.34 -0.298,0.361 C 9.185,-9.508 9.027,-9.617 8.98,-9.801 8.973,-9.827 8.973,-9.856 8.973,-9.883 c 0,-1.323 0,-2.645 -0.001,-3.967 0,-0.183 -0.102,-0.321 -0.265,-0.36 -0.219,-0.052 -0.425,0.107 -0.426,0.333 -0.002,0.307 0,0.613 -0.001,0.92 0,0.202 -0.15,0.351 -0.348,0.354 -0.186,0.003 -0.352,-0.165 -0.346,-0.355 0.005,-0.122 0.009,-0.247 -0.015,-0.365 -0.041,-0.201 -0.229,-0.281 -0.365,-0.261 -0.19,0.026 -0.308,0.16 -0.309,0.353 -0.004,0.722 -0.001,1.444 -0.002,2.167 0,0.183 -0.124,0.333 -0.294,0.357 -0.183,0.026 -0.347,-0.089 -0.393,-0.274 -0.005,-0.025 -0.005,-0.05 -0.005,-0.076 0,-1.02 0,-2.04 0,-3.06 0,-0.181 -0.105,-0.311 -0.269,-0.358 -0.172,-0.049 -0.409,0.076 -0.423,0.324 -0.001,0.019 0,0.037 0,0.056 0,2.418 0.004,4.837 -0.003,7.255 -0.001,0.722 -0.19,1.404 -0.528,2.042 -0.25,0.474 -0.574,0.892 -0.971,1.254 -0.595,0.542 -1.285,0.903 -2.068,1.085 -0.23,0.054 -0.468,0.076 -0.703,0.101 -0.153,0.016 -0.309,0.018 -0.463,0.014 -0.582,-0.015 -1.142,-0.138 -1.677,-0.367 -0.407,-0.173 -0.783,-0.4 -1.122,-0.683 -0.754,-0.63 -1.265,-1.419 -1.52,-2.37 -0.076,-0.282 -0.133,-0.569 -0.139,-0.862 -0.005,-0.247 -0.019,-0.495 0.003,-0.739 0.076,-0.835 0.36,-1.597 0.851,-2.277 0.485,-0.669 1.105,-1.173 1.859,-1.511 0.374,-0.169 0.763,-0.291 1.172,-0.342 0.231,-0.028 0.465,-0.048 0.698,-0.054 0.523,-0.014 1.001,-0.153 1.425,-0.463 0.402,-0.294 0.69,-0.676 0.858,-1.145 0.071,-0.2 0.111,-0.406 0.128,-0.619 0.052,-0.646 -0.131,-1.22 -0.536,-1.72 -0.355,-0.439 -0.816,-0.713 -1.37,-0.833 -0.279,-0.061 -0.561,-0.066 -0.843,-0.046 -0.311,0.021 -0.622,0.039 -0.93,0.078 -0.487,0.061 -0.966,0.169 -1.438,0.31 -1.183,0.354 -2.256,0.918 -3.213,1.696 -1.55,1.263 -2.606,2.856 -3.156,4.781 -0.073,0.253 -0.132,0.51 -0.183,0.769 -0.04,0.202 0.059,0.389 0.267,0.434 0.172,0.036 0.348,-0.072 0.393,-0.246 0.091,-0.36 0.181,-0.719 0.279,-1.078 0.039,-0.146 0.18,-0.269 0.358,-0.26 0.14,0.008 0.274,0.111 0.308,0.266 0.013,0.066 0.007,0.144 -0.015,0.208 -0.127,0.375 -0.222,0.757 -0.277,1.148 -0.033,0.232 -0.057,0.465 -0.071,0.697 -0.017,0.29 -0.02,0.58 -0.029,0.871 -0.005,0.171 0.116,0.316 0.271,0.347 0.166,0.032 0.344,-0.065 0.391,-0.231 0.011,-0.039 0.015,-0.081 0.016,-0.121 0.006,-0.261 -0.002,-0.522 0.017,-0.781 0.052,-0.717 0.201,-1.413 0.46,-2.084 0.08,-0.205 0.17,-0.406 0.258,-0.607 0.068,-0.155 0.259,-0.236 0.42,-0.181 0.166,0.056 0.271,0.236 0.218,0.403 -0.056,0.173 -0.138,0.338 -0.201,0.51 -0.076,0.208 -0.153,0.416 -0.215,0.629 -0.049,0.166 0.047,0.327 0.21,0.386 0.162,0.059 0.339,-0.004 0.41,-0.162 0.07,-0.154 0.121,-0.316 0.18,-0.475 0.213,-0.573 0.513,-1.097 0.889,-1.579 0.351,-0.452 0.763,-0.84 1.223,-1.178 0.132,-0.096 0.329,-0.087 0.461,0.068 0.103,0.12 0.103,0.327 -0.013,0.437 -0.136,0.127 -0.285,0.239 -0.42,0.365 -0.174,0.162 -0.35,0.321 -0.506,0.498 -0.164,0.187 -0.318,0.386 -0.455,0.594 -0.344,0.518 -0.591,1.084 -0.743,1.687 -0.057,0.229 -0.078,0.468 -0.1,0.704 -0.02,0.218 -0.029,0.437 -0.027,0.656 0.006,0.968 0.295,1.854 0.797,2.675 0.187,0.305 0.411,0.578 0.654,0.839 0.677,0.728 1.504,1.205 2.45,1.483 0.202,0.059 0.413,0.09 0.621,0.126 0.305,0.053 0.417,0.329 0.28,0.54 -0.083,0.128 -0.212,0.179 -0.356,0.15 -0.302,-0.06 -0.607,-0.121 -0.902,-0.207 -0.684,-0.2 -1.306,-0.528 -1.873,-0.96 -0.299,-0.229 -0.574,-0.483 -0.828,-0.761 -0.045,-0.048 -0.087,-0.104 -0.14,-0.141 -0.144,-0.1 -0.343,-0.068 -0.449,0.065 -0.108,0.136 -0.098,0.328 0.024,0.454 0.165,0.169 0.327,0.338 0.493,0.505 0.065,0.064 0.139,0.119 0.207,0.182 0.101,0.095 0.167,0.211 0.138,0.354 -0.029,0.14 -0.118,0.234 -0.26,0.269 -0.132,0.033 -0.245,-0.015 -0.338,-0.104 -0.235,-0.224 -0.471,-0.447 -0.696,-0.682 -0.301,-0.315 -0.554,-0.668 -0.783,-1.039 -0.061,-0.099 -0.13,-0.188 -0.252,-0.218 -0.142,-0.035 -0.258,0.01 -0.349,0.118 -0.092,0.109 -0.102,0.259 -0.023,0.382 0.14,0.22 0.278,0.442 0.433,0.652 0.247,0.334 0.526,0.643 0.822,0.936 0.929,0.918 2.029,1.553 3.268,1.957 0.343,0.112 0.694,0.195 1.052,0.246 C -0.18,1.039 0.053,1.062 0.286,1.076 0.564,1.093 0.843,1.095 1.122,1.104 1.191,1.106 1.264,1.103 1.331,1.12 1.499,1.164 1.599,1.315 1.577,1.489 1.558,1.642 1.437,1.774 1.272,1.781 1.013,1.791 0.753,1.785 0.493,1.787 0.393,1.788 0.29,1.782 0.191,1.799 c -0.155,0.027 -0.26,0.168 -0.26,0.324 0,0.157 0.105,0.298 0.261,0.323 C 0.347,2.471 0.504,2.483 0.66,2.487 2.328,2.522 3.9,2.155 5.373,1.368 5.502,1.298 5.628,1.224 5.755,1.152 5.831,1.271 5.9,1.396 5.986,1.509 6.39,2.043 6.922,2.366 7.588,2.464 8.812,2.643 9.965,1.858 10.267,0.672 10.299,0.546 10.311,0.415 10.332,0.286 10.334,0.268 10.339,0.25 10.344,0.232 Z" />
      </g>
      <g
         transform="matrix(0.35277777,0,0,-0.35277777,13.659692,114.7915)"
         id="g208">
        <path
           inkscape:connector-curvature="0"
           id="path210"
           style="fill:#59a745;fill-opacity:1;fill-rule:evenodd;stroke:none"
           d="m 0,0 c -0.13,0.012 -0.233,0.062 -0.296,0.177 -0.062,0.112 -0.067,0.232 0.007,0.336 0.103,0.144 0.215,0.282 0.331,0.416 C 0.648,1.625 1.339,2.223 2.119,2.718 2.582,3.011 3.064,3.264 3.571,3.471 3.8,3.565 4.027,3.454 4.071,3.218 4.098,3.074 4.026,2.912 3.857,2.843 3.233,2.585 2.646,2.262 2.098,1.87 1.636,1.54 1.206,1.175 0.822,0.756 0.658,0.577 0.504,0.387 0.339,0.208 0.261,0.123 0.187,0.023 0.057,0.009 0.037,0.007 0.017,0.002 0,0" />
      </g>
      <g
         transform="matrix(0.35277777,0,0,-0.35277777,13.862083,116.28343)"
         id="g212">
        <path
           inkscape:connector-curvature="0"
           id="path214"
           style="fill:#59a745;fill-opacity:1;fill-rule:evenodd;stroke:none"
           d="M 0,0 C 0.014,0.273 0.086,0.558 0.172,0.84 0.314,1.299 0.5,1.741 0.729,2.165 0.786,2.271 0.854,2.368 0.979,2.402 1.113,2.438 1.265,2.391 1.341,2.284 1.427,2.162 1.433,2.036 1.361,1.9 1.252,1.692 1.143,1.483 1.05,1.268 0.873,0.864 0.761,0.439 0.678,0.007 0.665,-0.065 0.655,-0.143 0.621,-0.206 0.547,-0.342 0.386,-0.396 0.236,-0.351 0.1,-0.309 -0.001,-0.168 0,0" />
      </g>
      <g
         transform="matrix(0.35277777,0,0,-0.35277777,13.521863,115.98301)"
         id="g216">
        <path
           inkscape:connector-curvature="0"
           id="path218"
           style="fill:#59a745;fill-opacity:1;fill-rule:evenodd;stroke:none"
           d="M 0,0 C 0.184,0.001 0.341,-0.155 0.341,-0.339 0.341,-0.523 0.184,-0.679 0,-0.678 -0.182,-0.677 -0.335,-0.523 -0.337,-0.342 -0.339,-0.158 -0.184,0 0,0" />
      </g>
      <g
         transform="matrix(0.35277777,0,0,-0.35277777,12.98892,116.27119)"
         id="g220">
        <path
           inkscape:connector-curvature="0"
           id="path222"
           style="fill:#59a745;fill-opacity:1;fill-rule:evenodd;stroke:none"
           d="m 0,0 c 0.184,0.002 0.341,-0.153 0.342,-0.338 0.001,-0.183 -0.155,-0.34 -0.339,-0.34 -0.182,0 -0.336,0.153 -0.339,0.334 C -0.338,-0.16 -0.184,-0.001 0,0" />
      </g>
      <g
         transform="matrix(0.35277777,0,0,-0.35277777,12.989275,116.96468)"
         id="g224">
        <path
           inkscape:connector-curvature="0"
           id="path226"
           style="fill:#59a745;fill-opacity:1;fill-rule:evenodd;stroke:none"
           d="m 0,0 c -0.184,0.001 -0.339,0.159 -0.337,0.343 0.002,0.184 0.16,0.338 0.344,0.335 C 0.189,0.675 0.342,0.521 0.341,0.339 0.341,0.154 0.185,-0.001 0,0" />
      </g>
      <g
         transform="matrix(0.35277777,0,0,-0.35277777,14.076887,116.77728)"
         id="g228">
        <path
           inkscape:connector-curvature="0"
           id="path230"
           style="fill:#59a745;fill-opacity:1;fill-rule:evenodd;stroke:none"
           d="m 0,0 c -0.001,-0.184 -0.158,-0.339 -0.342,-0.337 -0.182,0.001 -0.335,0.155 -0.337,0.337 0,0.184 0.155,0.341 0.34,0.341 C -0.155,0.341 0.001,0.185 0,0" />
      </g>
      <g
         transform="matrix(0.35277777,0,0,-0.35277777,17.933316,119.77847)"
         id="g232">
        <path
           inkscape:connector-curvature="0"
           id="path234"
           style="fill:#59a745;fill-opacity:1;fill-rule:evenodd;stroke:none"
           d="M 0,0 C -0.185,0 -0.34,0.158 -0.338,0.342 -0.337,0.526 -0.179,0.681 0.005,0.679 0.187,0.676 0.339,0.521 0.34,0.34 0.34,0.156 0.184,0 0,0" />
      </g>
      <g
         transform="matrix(0.35277777,0,0,-0.35277777,18.909312,119.56832)"
         id="g236">
        <path
           inkscape:connector-curvature="0"
           id="path238"
           style="fill:#59a745;fill-opacity:1;fill-rule:evenodd;stroke:none"
           d="m 0,0 c -0.184,0.001 -0.338,0.16 -0.336,0.344 0.003,0.181 0.158,0.334 0.339,0.334 0.184,0 0.34,-0.157 0.34,-0.341 C 0.342,0.153 0.185,-0.002 0,0" />
      </g>
      <g
         transform="matrix(0.35277777,0,0,-0.35277777,18.421137,119.15317)"
         id="g240">
        <path
           inkscape:connector-curvature="0"
           id="path242"
           style="fill:#59a745;fill-opacity:1;fill-rule:evenodd;stroke:none"
           d="m 0,0 c 0.185,0.001 0.342,-0.154 0.342,-0.338 0,-0.184 -0.157,-0.341 -0.34,-0.34 -0.182,0 -0.343,0.153 -0.337,0.334 0.006,0.197 0.13,0.33 0.335,0.344" />
      </g>
      <g
         transform="matrix(0.35277777,0,0,-0.35277777,15.732934,113.48566)"
         id="g244">
        <path
           inkscape:connector-curvature="0"
           id="path246"
           style="fill:#59a745;fill-opacity:1;fill-rule:evenodd;stroke:none"
           d="m 0,0 c -0.002,-0.15 -0.138,-0.282 -0.289,-0.28 -0.149,0.003 -0.282,0.138 -0.278,0.288 0.002,0.15 0.138,0.282 0.287,0.28 C -0.129,0.286 0.002,0.15 0,0" />
      </g>
      <g
         transform="matrix(0.35277777,0,0,-0.35277777,13.158608,115.94166)"
         id="g248">
        <path
           inkscape:connector-curvature="0"
           id="path250"
           style="fill:#59a745;fill-opacity:1;fill-rule:evenodd;stroke:none"
           d="m 0,0 c -0.001,-0.151 -0.134,-0.284 -0.285,-0.283 -0.151,0.001 -0.283,0.134 -0.282,0.285 0,0.151 0.133,0.283 0.284,0.283 C -0.132,0.284 0,0.15 0,0" />
      </g>
      <g
         transform="matrix(0.35277777,0,0,-0.35277777,18.522279,119.68012)"
         id="g252">
        <path
           inkscape:connector-curvature="0"
           id="path254"
           style="fill:#59a745;fill-opacity:1;fill-rule:evenodd;stroke:none"
           d="m 0,0 c -0.003,-0.15 -0.139,-0.281 -0.289,-0.279 -0.15,0.003 -0.281,0.139 -0.279,0.289 0.003,0.151 0.139,0.282 0.289,0.279 C -0.129,0.286 0.002,0.15 0,0" />
      </g>
      <g
         transform="matrix(0.35277777,0,0,-0.35277777,13.739774,115.69895)"
         id="g256">
        <path
           inkscape:connector-curvature="0"
           id="path258"
           style="fill:#59a745;fill-opacity:1;fill-rule:evenodd;stroke:none"
           d="M 0,0 C -0.003,-0.151 -0.139,-0.282 -0.289,-0.278 -0.44,-0.275 -0.57,-0.14 -0.567,0.01 -0.564,0.161 -0.429,0.292 -0.278,0.289 -0.127,0.286 0.003,0.15 0,0" />
      </g>
      <g
         transform="matrix(0.35277777,0,0,-0.35277777,15.332638,113.4672)"
         id="g260">
        <path
           inkscape:connector-curvature="0"
           id="path262"
           style="fill:#59a745;fill-opacity:1;fill-rule:evenodd;stroke:none"
           d="M 0,0 C 0.125,0 0.236,-0.113 0.234,-0.238 0.233,-0.362 0.119,-0.473 -0.005,-0.471 -0.127,-0.468 -0.236,-0.358 -0.236,-0.236 -0.237,-0.112 -0.125,0 0,0" />
      </g>
      <g
         transform="matrix(0.35277777,0,0,-0.35277777,13.172366,115.64092)"
         id="g264">
        <path
           inkscape:connector-curvature="0"
           id="path266"
           style="fill:#59a745;fill-opacity:1;fill-rule:evenodd;stroke:none"
           d="M 0,0 C -0.125,0.001 -0.236,0.116 -0.233,0.239 -0.23,0.364 -0.116,0.475 0.008,0.471 0.13,0.467 0.238,0.356 0.238,0.235 0.237,0.109 0.125,-0.001 0,0" />
      </g>
      <g
         transform="matrix(0.35277777,0,0,-0.35277777,18.418914,120.0911)"
         id="g268">
        <path
           inkscape:connector-curvature="0"
           id="path270"
           style="fill:#59a745;fill-opacity:1;fill-rule:evenodd;stroke:none"
           d="M 0,0 C -0.125,0.001 -0.236,0.115 -0.233,0.239 -0.231,0.361 -0.122,0.47 0,0.471 0.125,0.472 0.237,0.36 0.237,0.235 0.237,0.111 0.125,-0.001 0,0" />
      </g>
      <g
         transform="matrix(0.35277777,0,0,-0.35277777,24.58685,117.94533)"
         id="g272">
        <path
           inkscape:connector-curvature="0"
           id="path274"
           style="fill:#231f20;fill-opacity:1;fill-rule:evenodd;stroke:none"
           d="m 0,0 c 0.024,-0.233 0.032,-0.469 0.075,-0.699 0.137,-0.742 0.46,-1.39 1.045,-1.883 0.695,-0.585 1.506,-0.751 2.389,-0.614 1.008,0.157 1.735,0.708 2.189,1.613 0.336,0.669 0.433,1.382 0.315,2.119 C 5.872,1.414 5.465,2.141 4.726,2.655 4.131,3.069 3.461,3.21 2.745,3.163 1.868,3.105 1.153,2.742 0.633,2.027 0.194,1.425 0.019,0.738 0,0 M 3.17,-12.522 H 2.037 c -1.271,0.074 -2.507,0.326 -3.702,0.769 -0.137,0.05 -0.274,0.099 -0.41,0.152 -0.676,0.263 -1.154,1.017 -1.072,1.794 0.08,0.754 0.639,1.387 1.384,1.543 0.426,0.089 0.833,0.017 1.213,-0.178 0.691,-0.356 1.419,-0.586 2.187,-0.679 0.711,-0.087 1.418,-0.061 2.11,0.153 1.097,0.338 1.764,1.079 2.048,2.18 0.159,0.612 0.142,1.235 0.129,1.859 0,0.01 -0.018,0.02 -0.036,0.04 C 5.856,-4.917 5.82,-4.939 5.794,-4.97 5.124,-5.764 4.255,-6.228 3.252,-6.429 1.926,-6.697 0.627,-6.576 -0.61,-6.005 c -1.416,0.654 -2.356,1.758 -2.927,3.191 -0.407,1.024 -0.547,2.093 -0.492,3.19 0.064,1.283 0.4,2.485 1.098,3.571 0.879,1.369 2.118,2.233 3.719,2.537 C 1.987,6.712 3.166,6.623 4.289,6.102 4.959,5.79 5.521,5.341 5.956,4.739 5.985,4.699 6.016,4.658 6.05,4.62 6.057,4.612 6.077,4.615 6.107,4.609 6.118,4.638 6.135,4.668 6.142,4.7 6.36,5.688 7.295,6.335 8.282,6.227 9.289,6.116 10.037,5.271 10.037,4.249 10.036,1.035 10.035,-2.18 10.031,-5.395 10.029,-6.511 9.863,-7.602 9.436,-8.639 8.722,-10.375 7.436,-11.494 5.67,-12.08 5,-12.302 4.313,-12.435 3.608,-12.483 3.462,-12.494 3.317,-12.509 3.17,-12.522" />
      </g>
      <g
         transform="matrix(0.35277777,0,0,-0.35277777,51.392598,117.55414)"
         id="g276">
        <path
           inkscape:connector-curvature="0"
           id="path278"
           style="fill:#231f20;fill-opacity:1;fill-rule:evenodd;stroke:none"
           d="M 0,0 C 0.037,0.04 0.078,0.077 0.112,0.119 1.161,1.45 2.209,2.781 3.257,4.111 3.38,4.267 3.493,4.431 3.632,4.57 4.303,5.245 5.348,5.317 6.12,4.752 6.864,4.208 7.113,3.176 6.688,2.352 6.6,2.178 6.481,2.015 6.354,1.866 5.687,1.076 5.012,0.292 4.339,-0.494 4.315,-0.521 4.295,-0.551 4.265,-0.593 4.299,-0.646 4.333,-0.7 4.371,-0.752 5.185,-1.864 6.001,-2.974 6.813,-4.088 7.061,-4.429 7.248,-4.796 7.296,-5.227 7.373,-5.909 7.16,-6.484 6.679,-6.96 6.279,-7.355 5.781,-7.55 5.229,-7.538 4.521,-7.522 3.946,-7.212 3.541,-6.621 2.6,-5.249 1.662,-3.875 0.723,-2.501 0.508,-2.187 0.293,-1.872 0.077,-1.557 0.058,-1.528 0.034,-1.501 0.007,-1.466 -0.08,-1.534 -0.045,-1.62 -0.046,-1.691 -0.048,-2.829 -0.044,-3.966 -0.05,-5.103 -0.051,-5.41 -0.062,-5.716 -0.15,-6.017 -0.406,-6.9 -1.261,-7.561 -2.261,-7.511 c -0.903,0.045 -1.715,0.667 -1.938,1.633 -0.037,0.162 -0.055,0.334 -0.055,0.501 -0.003,4.975 -0.003,9.951 -0.002,14.927 0,1.217 0.947,2.159 2.145,2.141 1.019,-0.015 1.892,-0.792 2.031,-1.813 0.022,-0.166 0.031,-0.335 0.031,-0.503 0.002,-3.045 0.002,-6.091 0.002,-9.136 0,-0.076 0.003,-0.153 0.004,-0.229 C -0.029,0.007 -0.015,0.003 0,0" />
      </g>
      <g
         transform="matrix(0.35277777,0,0,-0.35277777,30.486916,117.96255)"
         id="g280">
        <path
           inkscape:connector-curvature="0"
           id="path282"
           style="fill:#231f20;fill-opacity:1;fill-rule:evenodd;stroke:none"
           d="m 0,0 c 0.042,-0.297 0.064,-0.598 0.132,-0.888 0.153,-0.657 0.461,-1.233 0.976,-1.683 0.663,-0.58 1.441,-0.776 2.307,-0.672 0.748,0.09 1.371,0.415 1.834,1.009 0.762,0.976 0.942,2.077 0.615,3.258 C 5.633,1.859 5.143,2.506 4.363,2.912 3.861,3.171 3.323,3.244 2.766,3.211 1.973,3.165 1.307,2.851 0.795,2.242 0.255,1.597 0.032,0.835 0,0 M 2.987,6.702 C 4.232,6.7 5.422,6.453 6.526,5.88 8.45,4.884 9.611,3.313 9.953,1.165 10.176,-0.234 10.038,-1.602 9.444,-2.898 8.665,-4.603 7.348,-5.725 5.597,-6.354 4.641,-6.696 3.65,-6.834 2.639,-6.784 c -1.64,0.082 -3.127,0.589 -4.394,1.663 -1.039,0.88 -1.724,1.986 -2.052,3.307 -0.36,1.453 -0.318,2.897 0.213,4.302 0.651,1.726 1.877,2.906 3.565,3.62 0.684,0.289 1.399,0.469 2.14,0.533 0.292,0.026 0.584,0.041 0.876,0.061" />
      </g>
      <g
         transform="matrix(0.35277777,0,0,-0.35277777,40.381241,117.46439)"
         id="g284">
        <path
           inkscape:connector-curvature="0"
           id="path286"
           style="fill:#231f20;fill-opacity:1;fill-rule:evenodd;stroke:none"
           d="M 0,0 H 5.347 C 5.351,0.032 5.357,0.053 5.355,0.074 5.348,0.176 5.344,0.279 5.33,0.38 5.248,0.959 5.017,1.461 4.561,1.844 4.16,2.18 3.689,2.333 3.172,2.379 2.438,2.446 1.758,2.294 1.147,1.882 0.486,1.436 0.098,0.813 0,0 M 0.001,-2.609 C 0.084,-3.303 0.405,-3.84 0.924,-4.254 1.656,-4.84 2.5,-5.052 3.432,-4.968 c 0.644,0.059 1.21,0.304 1.759,0.626 0.953,0.56 2.144,0.072 2.447,-0.988 C 7.823,-5.978 7.586,-6.684 7.046,-7.093 6.531,-7.484 5.941,-7.715 5.328,-7.892 4.418,-8.154 3.485,-8.242 2.544,-8.195 c -1.223,0.062 -2.386,0.354 -3.449,0.979 -1.543,0.906 -2.516,2.243 -2.908,3.983 -0.349,1.548 -0.265,3.082 0.352,4.554 0.799,1.908 2.244,3.104 4.215,3.68 C 1.622,5.256 2.513,5.323 3.41,5.261 4.727,5.168 5.929,4.755 6.957,3.9 7.832,3.173 8.418,2.25 8.78,1.179 9.006,0.509 9.157,-0.177 9.171,-0.886 9.188,-1.682 8.691,-2.338 7.921,-2.535 7.719,-2.587 7.502,-2.605 7.292,-2.605 4.951,-2.61 2.609,-2.609 0.269,-2.609 Z" />
      </g>
      <g
         transform="matrix(0.35277777,0,0,-0.35277777,45.72579,117.46439)"
         id="g288">
        <path
           inkscape:connector-curvature="0"
           id="path290"
           style="fill:#231f20;fill-opacity:1;fill-rule:evenodd;stroke:none"
           d="M 0,0 H 5.347 C 5.351,0.031 5.357,0.052 5.355,0.073 5.348,0.176 5.344,0.279 5.33,0.38 5.248,0.958 5.017,1.461 4.562,1.843 4.16,2.18 3.689,2.332 3.172,2.379 2.438,2.446 1.759,2.294 1.147,1.882 0.486,1.436 0.098,0.814 0,0 M 0.001,-2.609 C 0.087,-3.315 0.415,-3.855 0.943,-4.27 1.675,-4.844 2.511,-5.059 3.436,-4.965 3.992,-4.909 4.499,-4.736 4.983,-4.456 6.034,-3.845 7.26,-4.478 7.465,-5.558 7.591,-6.218 7.38,-6.77 6.854,-7.197 6.448,-7.528 5.962,-7.693 5.475,-7.847 4.521,-8.147 3.538,-8.243 2.544,-8.195 1.36,-8.136 0.228,-7.861 -0.81,-7.271 c -1.561,0.887 -2.565,2.206 -2.981,3.954 -0.366,1.539 -0.298,3.064 0.29,4.537 0.783,1.962 2.244,3.192 4.257,3.782 C 1.624,5.256 2.515,5.324 3.412,5.26 4.729,5.167 5.931,4.753 6.959,3.9 7.816,3.188 8.395,2.284 8.762,1.239 8.997,0.565 9.134,-0.129 9.173,-0.844 9.22,-1.696 8.588,-2.467 7.748,-2.568 7.552,-2.592 7.354,-2.607 7.157,-2.607 4.86,-2.61 2.563,-2.609 0.265,-2.609 Z" />
      </g>
      <g
         transform="matrix(0.35277777,0,0,-0.35277777,36.615055,115.60423)"
         id="g292">
        <path
           inkscape:connector-curvature="0"
           id="path294"
           style="fill:#231f20;fill-opacity:1;fill-rule:evenodd;stroke:none"
           d="M 0,0 C 1.074,0.018 2.107,-0.198 3.112,-0.563 3.766,-0.801 4.179,-1.425 4.151,-2.117 4.122,-2.838 3.611,-3.44 2.924,-3.6 2.547,-3.688 2.183,-3.636 1.838,-3.463 c -0.36,0.18 -0.732,0.329 -1.13,0.405 -0.477,0.092 -0.949,0.084 -1.41,-0.072 -0.136,-0.046 -0.269,-0.117 -0.389,-0.197 -0.442,-0.292 -0.523,-1.051 0.055,-1.378 C -0.72,-4.883 -0.377,-4.981 -0.03,-5.07 0.557,-5.218 1.151,-5.347 1.732,-5.515 2.389,-5.706 3.006,-5.99 3.556,-6.406 4.45,-7.085 4.9,-7.988 4.907,-9.112 4.912,-9.89 4.76,-10.627 4.356,-11.299 c -0.472,-0.786 -1.17,-1.3 -2.002,-1.648 -0.672,-0.282 -1.377,-0.428 -2.104,-0.494 -0.58,-0.053 -1.158,-0.045 -1.735,0.014 -0.936,0.097 -1.852,0.3 -2.702,0.711 -0.716,0.346 -1.095,1.093 -0.882,1.885 0.204,0.765 0.932,1.26 1.712,1.177 0.288,-0.031 0.55,-0.146 0.8,-0.281 0.602,-0.325 1.24,-0.518 1.926,-0.526 0.339,-0.004 0.673,0.04 0.979,0.202 0.36,0.191 0.559,0.482 0.554,0.901 -0.003,0.286 -0.124,0.508 -0.346,0.679 -0.217,0.168 -0.465,0.28 -0.726,0.353 -0.548,0.155 -1.099,0.298 -1.65,0.442 -0.603,0.157 -1.191,0.355 -1.733,0.668 -0.644,0.371 -1.164,0.862 -1.468,1.555 -0.211,0.478 -0.292,0.982 -0.28,1.5 0.026,1.108 0.416,2.057 1.25,2.806 0.481,0.432 1.035,0.737 1.64,0.955 C -1.632,-0.12 -0.829,0.018 0,0" />
      </g>
      <g
         transform="matrix(0.35277777,0,0,-0.35277777,20.728834,116.80861)"
         id="g296">
        <path
           inkscape:connector-curvature="0"
           id="path298"
           style="fill:#231f20;fill-opacity:1;fill-rule:evenodd;stroke:none"
           d="M 0,0 C 0,2.48 -0.002,4.96 0.001,7.44 0.003,8.719 1.045,9.625 2.197,9.577 3.25,9.533 4.071,8.725 4.191,7.771 4.22,7.54 4.236,7.304 4.236,7.071 4.239,2.301 4.239,-2.468 4.237,-7.238 4.237,-7.575 4.218,-7.913 4.096,-8.232 3.792,-9.035 3.221,-9.511 2.364,-9.625 1.14,-9.788 0.24,-8.889 0.066,-8.029 0.03,-7.85 0.004,-7.667 0.003,-7.485 -0.001,-4.99 0,-2.495 0,0" />
      </g>
      <g
         transform="matrix(0.35277777,0,0,-0.35277777,48.668732,121.86378)"
         id="g300">
        <path
           inkscape:connector-curvature="0"
           id="path302"
           style="fill:#59a745;fill-opacity:1;fill-rule:evenodd;stroke:none"
           d="M 0,0 C -0.21,0.582 -0.418,1.157 -0.625,1.731 -0.636,1.728 -0.646,1.725 -0.657,1.723 V 0.011 C -0.841,-0.03 -1.036,-0.003 -1.243,-0.005 v 2.609 h 0.902 C -0.148,2.066 0.047,1.524 0.258,0.936 0.461,1.527 0.647,2.068 0.834,2.613 h 0.89 C 1.769,2.46 1.783,0.281 1.74,0 H 1.139 V 1.687 C 1.125,1.69 1.11,1.694 1.095,1.698 0.885,1.134 0.675,0.57 0.463,0 Z" />
      </g>
      <g
         transform="matrix(0.35277777,0,0,-0.35277777,33.566137,120.94204)"
         id="g304">
        <path
           inkscape:connector-curvature="0"
           id="path306"
           style="fill:#59a745;fill-opacity:1;fill-rule:evenodd;stroke:none"
           d="m 0,0 h 0.927 c 0.001,-0.873 0,-1.74 0,-2.612 H 0.303 v 1.686 c -0.014,0.003 -0.028,0.007 -0.042,0.01 -0.21,-0.564 -0.42,-1.129 -0.632,-1.698 h -0.462 c -0.208,0.575 -0.417,1.155 -0.627,1.734 -0.01,-0.004 -0.02,-0.007 -0.031,-0.01 v -1.712 c -0.187,-0.04 -0.381,-0.014 -0.587,-0.016 v 2.611 h 0.902 c 0.195,-0.542 0.39,-1.083 0.601,-1.671 C -0.374,-1.092 -0.19,-0.555 0,0" />
      </g>
      <g
         transform="matrix(0.35277777,0,0,-0.35277777,52.580826,121.86067)"
         id="g308">
        <path
           inkscape:connector-curvature="0"
           id="path310"
           style="fill:#59a745;fill-opacity:1;fill-rule:evenodd;stroke:none"
           d="M 0,0 C -0.34,0.543 -0.679,1.086 -1.018,1.63 -1.028,1.625 -1.038,1.62 -1.049,1.615 V -0.008 H -1.66 V 2.61 c 0.222,0 0.439,0.01 0.656,-0.006 C -0.949,2.601 -0.886,2.528 -0.85,2.473 -0.571,2.033 -0.299,1.589 -0.023,1.147 0.014,1.087 0.053,1.029 0.122,0.98 V 2.599 H 0.731 V 0 Z" />
      </g>
      <g
         transform="matrix(0.35277777,0,0,-0.35277777,47.577518,121.40851)"
         id="g312">
        <path
           inkscape:connector-curvature="0"
           id="path314"
           style="fill:#59a745;fill-opacity:1;fill-rule:evenodd;stroke:none"
           d="M 0,0 C 0.005,0.369 -0.169,0.655 -0.471,0.771 -0.974,0.963 -1.473,0.616 -1.496,0.057 -1.517,-0.407 -1.213,-0.765 -0.786,-0.783 -0.331,-0.802 -0.007,-0.479 0,0 M -0.736,1.429 C -0.523,1.379 -0.302,1.354 -0.101,1.274 0.462,1.048 0.76,0.494 0.69,-0.154 0.627,-0.75 0.201,-1.224 -0.386,-1.339 c -0.5,-0.099 -0.966,-0.021 -1.361,0.322 -0.456,0.397 -0.523,1.038 -0.358,1.538 0.167,0.507 0.641,0.841 1.208,0.872 0.051,0.003 0.103,10e-4 0.154,10e-4 0.003,0.011 0.005,0.023 0.007,0.035" />
      </g>
      <g
         transform="matrix(0.35277777,0,0,-0.35277777,40.774658,121.13084)"
         id="g316">
        <path
           inkscape:connector-curvature="0"
           id="path318"
           style="fill:#59a745;fill-opacity:1;fill-rule:evenodd;stroke:none"
           d="m 0,0 v -1.544 c 0.17,0.009 0.33,0.011 0.487,0.029 0.413,0.049 0.64,0.271 0.671,0.681 0.03,0.399 -0.145,0.707 -0.54,0.785 C 0.421,-0.011 0.216,-0.016 0,0 m -0.627,-2.073 v 2.586 c 0.023,0.012 0.036,0.025 0.049,0.025 C -0.154,0.53 0.27,0.529 0.694,0.51 0.822,0.504 0.953,0.459 1.075,0.413 1.545,0.23 1.793,-0.125 1.83,-0.624 1.887,-1.408 1.456,-1.958 0.647,-2.063 0.232,-2.117 -0.196,-2.073 -0.627,-2.073" />
      </g>
      <g
         transform="matrix(0.35277777,0,0,-0.35277777,35.79908,121.34322)"
         id="g320">
        <path
           inkscape:connector-curvature="0"
           id="path322"
           style="fill:#59a745;fill-opacity:1;fill-rule:evenodd;stroke:none"
           d="m 0,0 c 0.196,0.022 0.372,0.028 0.541,0.066 0.14,0.032 0.206,0.149 0.2,0.28 C 0.735,0.471 0.671,0.563 0.528,0.59 0.359,0.622 0.185,0.625 0,0.641 Z m -0.008,-1.474 h -0.626 v 2.619 h 0.314 c 0.235,0 0.47,0.014 0.704,-0.004 C 0.57,1.126 0.763,1.096 0.938,1.032 1.211,0.934 1.352,0.72 1.372,0.427 1.392,0.115 1.29,-0.133 1.009,-0.292 0.965,-0.317 0.919,-0.339 0.847,-0.377 1.066,-0.739 1.283,-1.097 1.513,-1.476 h -0.75 c -0.162,0.29 -0.332,0.588 -0.492,0.891 -0.062,0.118 -0.136,0.164 -0.279,0.106 z" />
      </g>
      <g
         transform="matrix(0.35277777,0,0,-0.35277777,36.943209,121.29877)"
         id="g324">
        <path
           inkscape:connector-curvature="0"
           id="path326"
           style="fill:#59a745;fill-opacity:1;fill-rule:evenodd;stroke:none"
           d="M 0,0 C 0.212,0.238 0.442,0.464 0.631,0.719 0.807,0.955 1.005,1.068 1.299,1.022 1.413,1.004 1.532,1.019 1.676,1.019 1.583,0.842 1.441,0.731 1.323,0.601 1.206,0.47 1.083,0.344 0.963,0.216 0.838,0.083 0.714,-0.051 0.578,-0.195 0.97,-0.658 1.357,-1.114 1.766,-1.596 1.48,-1.623 1.222,-1.613 0.965,-1.602 0.921,-1.601 0.874,-1.536 0.838,-1.492 0.605,-1.209 0.375,-0.924 0.144,-0.64 0.099,-0.583 0.052,-0.529 -0.033,-0.428 -0.035,-0.661 -0.037,-0.845 -0.038,-1.029 -0.039,-1.212 -0.039,-1.394 -0.039,-1.594 h -0.623 v 2.598 h 0.62 V 0.012 C -0.028,0.008 -0.014,0.004 0,0" />
      </g>
      <g
         transform="matrix(0.35277777,0,0,-0.35277777,29.912452,120.94341)"
         id="g328">
        <path
           inkscape:connector-curvature="0"
           id="path330"
           style="fill:#59a745;fill-opacity:1;fill-rule:evenodd;stroke:none"
           d="M 0,0 H 0.625 V -0.975 H 1.657 V 0 h 0.621 v -2.605 h -0.61 v 1.072 H 0.632 V -2.601 H 0 Z" />
      </g>
      <g
         transform="matrix(0.35277777,0,0,-0.35277777,42.190073,121.21593)"
         id="g332">
        <path
           inkscape:connector-curvature="0"
           id="path334"
           style="fill:#59a745;fill-opacity:1;fill-rule:evenodd;stroke:none"
           d="M 0,0 C -0.137,-0.27 -0.256,-0.528 -0.332,-0.809 H 0.295 C 0.192,-0.526 0.096,-0.263 0,0 m 0.679,-1.83 c -0.053,0.13 -0.111,0.264 -0.161,0.4 -0.027,0.073 -0.071,0.103 -0.147,0.102 -0.293,-0.002 -0.586,0 -0.895,0 -0.069,-0.172 -0.136,-0.339 -0.205,-0.51 h -0.695 c 0.36,0.88 0.731,1.74 1.101,2.622 0.179,0 0.353,-0.005 0.527,0.001 0.123,0.005 0.138,-0.09 0.17,-0.167 0.238,-0.567 0.474,-1.135 0.71,-1.702 0.101,-0.242 0.202,-0.484 0.311,-0.746 z" />
      </g>
      <g
         transform="matrix(0.35277777,0,0,-0.35277777,38.124167,121.48309)"
         id="g336">
        <path
           inkscape:connector-curvature="0"
           id="path338"
           style="fill:#59a745;fill-opacity:1;fill-rule:evenodd;stroke:none"
           d="m 0,0 v -0.536 h 1.2 v -0.538 h -1.825 v 2.6 H 1.138 V 1 H -0.003 V 0.518 H 1.062 V 0 Z" />
      </g>
      <g
         transform="matrix(0.35277777,0,0,-0.35277777,31.799143,120.94394)"
         id="g340">
        <path
           inkscape:connector-curvature="0"
           id="path342"
           style="fill:#59a745;fill-opacity:1;fill-rule:evenodd;stroke:none"
           d="m 0,0 v -0.526 h -1.138 v -0.491 h 1.063 v -0.509 h -1.031 c -0.058,-0.161 -0.062,-0.253 -0.027,-0.532 0.188,-0.023 0.383,-0.007 0.578,-0.01 0.197,-0.003 0.394,-10e-4 0.608,-10e-4 V -2.604 H -1.769 V 0 Z" />
      </g>
      <g
         transform="matrix(0.35277777,0,0,-0.35277777,34.618792,121.50168)"
         id="g344">
        <path
           inkscape:connector-curvature="0"
           id="path346"
           style="fill:#59a745;fill-opacity:1;fill-rule:evenodd;stroke:none"
           d="M 0,0 H 0.639 C 0.534,0.289 0.437,0.557 0.324,0.868 0.208,0.557 0.108,0.292 0,0 M 0.038,1.584 H 0.652 C 1.01,0.727 1.373,-0.142 1.743,-1.027 H 1.028 c -0.069,0.165 -0.139,0.332 -0.211,0.501 h -0.999 c -0.064,-0.158 -0.131,-0.326 -0.202,-0.5 h -0.658 c 0.009,0.144 0.893,2.285 1.08,2.61" />
      </g>
      <g
         transform="matrix(0.35277777,0,0,-0.35277777,44.157234,121.50479)"
         id="g348">
        <path
           inkscape:connector-curvature="0"
           id="path350"
           style="fill:#59a745;fill-opacity:1;fill-rule:evenodd;stroke:none"
           d="M 0,0 C 0.231,-0.003 0.424,-0.013 0.643,0.007 0.536,0.303 0.439,0.569 0.328,0.876 0.212,0.568 0.111,0.297 0,0 M 1.747,-1.02 H 1.032 C 0.961,-0.851 0.89,-0.684 0.82,-0.516 h -1.002 c -0.064,-0.162 -0.13,-0.33 -0.198,-0.502 h -0.697 c 0.363,0.883 0.733,1.746 1.1,2.612 H 0.654 C 1.014,0.733 1.377,-0.135 1.747,-1.02" />
      </g>
      <g
         transform="matrix(0.35277777,0,0,-0.35277777,51.267541,121.50394)"
         id="g352">
        <path
           inkscape:connector-curvature="0"
           id="path354"
           style="fill:#59a745;fill-opacity:1;fill-rule:evenodd;stroke:none"
           d="M 0,0 C -0.109,0.298 -0.206,0.563 -0.32,0.875 -0.438,0.553 -0.537,0.284 -0.641,0 Z M 1.101,-1.021 H 0.387 C 0.316,-0.854 0.246,-0.688 0.175,-0.519 H -0.824 C -0.89,-0.679 -0.956,-0.846 -1.026,-1.02 h -0.659 c 0.011,0.146 0.906,2.31 1.081,2.611 H 0.009 C 0.368,0.732 0.731,-0.137 1.101,-1.021" />
      </g>
      <g
         transform="matrix(0.35277777,0,0,-0.35277777,46.494034,121.05179)"
         id="g356">
        <path
           inkscape:connector-curvature="0"
           id="path358"
           style="fill:#59a745;fill-opacity:1;fill-rule:evenodd;stroke:none"
           d="m 0,0 c -0.144,-0.137 -0.281,-0.267 -0.432,-0.41 -0.177,0.167 -0.404,0.251 -0.665,0.205 -0.179,-0.031 -0.33,-0.119 -0.445,-0.263 -0.246,-0.309 -0.224,-0.838 0.049,-1.115 0.281,-0.287 0.686,-0.276 1.101,0.039 0.135,-0.126 0.274,-0.255 0.41,-0.382 -0.146,-0.327 -0.8,-0.552 -1.361,-0.428 -0.553,0.122 -0.983,0.563 -1.055,1.106 -0.09,0.676 0.182,1.228 0.728,1.49 C -1.121,0.505 -0.322,0.397 0,0" />
      </g>
      <g
         transform="matrix(0.35277777,0,0,-0.35277777,49.977009,121.34495)"
         id="g360">
        <path
           inkscape:connector-curvature="0"
           id="path362"
           style="fill:#59a745;fill-opacity:1;fill-rule:evenodd;stroke:none"
           d="M 0,0 C 0.189,0.024 0.364,0.032 0.531,0.072 0.656,0.103 0.719,0.223 0.714,0.343 0.709,0.467 0.643,0.567 0.508,0.593 0.346,0.625 0.179,0.629 0,0.646 Z M -0.638,-1.462 V 1.146 C -0.181,1.141 0.266,1.189 0.707,1.112 1.106,1.042 1.33,0.787 1.352,0.417 1.377,-0.028 1.196,-0.304 0.779,-0.424 0.634,-0.467 0.478,-0.478 0.325,-0.492 c -0.1,-0.01 -0.202,-0.002 -0.329,-0.002 -0.003,-0.173 -0.007,-0.331 -0.008,-0.489 -10e-4,-0.154 0,-0.307 0,-0.479 z" />
      </g>
      <g
         transform="matrix(0.35277777,0,0,-0.35277777,53.180618,120.93946)"
         id="g364">
        <path
           inkscape:connector-curvature="0"
           id="path366"
           style="fill:#59a745;fill-opacity:1;fill-rule:evenodd;stroke:none"
           d="m 0,0 c 0.235,0 0.434,-0.005 0.631,0.002 0.104,0.005 0.158,-0.04 0.206,-0.126 0.15,-0.268 0.308,-0.532 0.475,-0.821 0.042,0.06 0.078,0.102 0.105,0.149 0.134,0.227 0.262,0.457 0.4,0.682 0.031,0.049 0.094,0.106 0.144,0.109 C 2.17,0.007 2.381,0 2.626,0 2.571,-0.091 2.538,-0.152 2.499,-0.21 2.239,-0.601 1.98,-0.992 1.715,-1.378 1.649,-1.474 1.619,-1.569 1.621,-1.684 1.626,-1.991 1.623,-2.297 1.623,-2.616 H 0.976 c 0,0.177 -0.017,0.352 0.003,0.523 0.046,0.401 -0.07,0.739 -0.316,1.055 C 0.452,-0.767 0.28,-0.466 0.093,-0.177 0.061,-0.127 0.037,-0.072 0,0" />
      </g>
      <g
         transform="matrix(0.35277777,0,0,-0.35277777,39.142214,121.13377)"
         id="g368">
        <path
           inkscape:connector-curvature="0"
           id="path370"
           style="fill:#59a745;fill-opacity:1;fill-rule:evenodd;stroke:none"
           d="M 0,0 H -0.744 V 0.515 C -0.593,0.561 1.131,0.57 1.379,0.524 V 0.004 H 0.646 V -2.065 H 0 Z" />
      </g>
      <g
         transform="matrix(0.35277777,0,0,-0.35277777,42.855836,121.13652)"
         id="g372">
        <path
           inkscape:connector-curvature="0"
           id="path374"
           style="fill:#59a745;fill-opacity:1;fill-rule:evenodd;stroke:none"
           d="M 0,0 V 0.545 H 2.123 V 0.012 H 1.398 c -0.019,-0.694 0,-1.371 -0.011,-2.06 C 1.174,-2.094 0.967,-2.058 0.74,-2.075 V 0 Z" />
      </g>
      <g
         transform="matrix(0.35277777,0,0,-0.35277777,29.547433,120.94359)"
         id="g376">
        <path
           inkscape:connector-curvature="0"
           id="path378"
           style="fill:#59a745;fill-opacity:1;fill-rule:evenodd;stroke:none"
           d="m 0,0 v -0.533 h -0.737 v -2.07 h -0.646 v 2.054 H -2.127 V 0 Z" />
      </g>
    </g>
  </g>
</svg>
