<svg xmlns="http://www.w3.org/2000/svg" viewBox="0 0 41.24 9.05"><path d="M3 .88A.08.08 0 002.92.8a.08.08 0 00-.09.08c0 .05.04.08.09.08.04 0 .08-.03.08-.08m1.56.83a.08.08 0 00-.08-.09.08.08 0 00-.08.08c0 .05.03.09.08.09s.08-.04.08-.08M6.3 3.12c.05 0 .08-.03.08-.08a.08.08 0 00-.08-.08.08.08 0 00-.08.08c0 .05.03.08.08.08M5.8 1.65a.08.08 0 00-.08.08c0 .05.03.09.08.09.04 0 .08-.04.08-.08a.08.08 0 00-.08-.09M1.17 5.3a.08.08 0 00-.09.08c0 .05.04.08.09.08.04 0 .08-.03.08-.08a.08.08 0 00-.08-.08m4.22-1.7a.08.08 0 00-.08-.1.08.08 0 00-.08.09c0 .05.03.08.08.08s.08-.03.08-.08m.4.86a.1.1 0 00-.1.1c0 .06.05.1.1.1a.1.1 0 00.1-.1.1.1 0 00-.1-.1m-.58-.5c0 .06.05.1.1.1a.1.1 0 00.1-.1.1.1 0 00-.1-.1.1.1 0 00-.1.1M6.4 3.4a.1.1 0 00-.1-.1.1.1 0 00-.1.1c0 .06.05.1.1.1a.1.1 0 00.1-.1M3.12 5.3a.1.1 0 00-.1-.1.1.1 0 00-.1.1.1.1 0 10.2 0M5.8 2.2a.1.1 0 00.1-.1.1.1 0 00-.1-.1.1.1 0 00-.1.1c0 .05.04.1.1.1m-1.7-.6a.1.1 0 00.1-.1.1.1 0 00-.1-.1.1.1 0 00-.1.1c0 .05.04.1.1.1m-.3 4.07a.1.1 0 00-.1.1c0 .05.05.1.1.1a.1.1 0 00.1-.1.1.1 0 00-.1-.1M2.52 1.08a.1.1 0 00.1-.1.1.1 0 00-.1-.1.1.1 0 00-.1.1c0 .06.05.1.1.1M.81 5.05c0 .06.04.1.1.1a.1.1 0 00.1-.1.1.1 0 00-.1-.1.1.1 0 00-.1.1m2.58.88c.06 0 .12-.05.12-.11a.12.12 0 00-.12-.12.12.12 0 00-.12.12c0 .06.05.11.12.11m2.4-3.3c.07 0 .13-.06.13-.13a.12.12 0 10-.24 0c0 .07.05.12.12.12m.49 1.3c.06.01.12-.05.12-.11a.13.13 0 00-.12-.12c-.06 0-.12.05-.12.12 0 .06.05.12.12.12m-.98.54c.06 0 .12-.05.12-.12a.12.12 0 00-.12-.12.12.12 0 00-.12.12c0 .07.05.12.12.12m-4.64.07a.12.12 0 00-.12.12c0 .06.06.12.12.12s.12-.06.12-.12c0-.07-.06-.13-.12-.12m2.96-3.06c.06 0 .12-.06.12-.12a.12.12 0 00-.12-.12.12.12 0 100 .24m-1.4-.32a.12.12 0 00-.24 0c0 .07.06.13.12.12.07 0 .12-.05.12-.12M5.8 4.87a.12.12 0 00-.12.12c0 .06.05.12.11.12.07 0 .13-.05.13-.12a.12.12 0 00-.12-.12m-3.1.3a.12.12 0 00-.12-.12.12.12 0 00-.12.12c0 .07.05.12.12.12.07 0 .12-.05.12-.12m.2 1.22h.02c.05 0 .1-.04.12-.1a.12.12 0 00-.09-.14l-.08-.01-.31-.07L2.34 6c-.07-.02-.15.04-.15.11 0 .06.04.1.1.13.14.05.3.09.44.12l.18.03M3.59.74h-.03a.12.12 0 00-.1.14c.01.05.06.1.12.1L3.7 1c.1.01.21.04.31.07l.2.07c.06.02.1 0 .14-.04a.12.12 0 000-.13C4.33.93 4.29.9 4.25.9 4.11.84 3.96.8 3.81.77L3.6.74m2.09 2.85v.55c0 .07.05.12.12.12.07 0 .12-.05.12-.12v-1.1a.12.12 0 00-.12-.12.12.12 0 00-.12.12zm-2.82 2.3c.08.01.14-.04.14-.1a.12.12 0 00-.1-.13l-.12-.03a2.42 2.42 0 01-1.03-.54.24.24 0 00-.06-.03.12.12 0 00-.14.04.12.12 0 00.01.15l.07.06a2.46 2.46 0 001.09.56l.14.02m3.79.52l-.02.04a.12.12 0 01-.14.05.12.12 0 01-.08-.11V4.37c0-.07-.05-.12-.1-.13a.12.12 0 00-.14.1v1.42c0 .07-.04.12-.1.13a.12.12 0 01-.15-.12v-.32a.12.12 0 00-.12-.13.12.12 0 00-.12.13l-.01.13a.12.12 0 01-.13.09.12.12 0 01-.1-.12v-.77a.12.12 0 00-.11-.12.12.12 0 00-.14.1v1.1c0 .06-.04.1-.1.12a.12.12 0 01-.15-.11v-.02V3.3a1.61 1.61 0 00-1.26-1.55l-.24-.03h-.17a1.6 1.6 0 00-.98.37 1.61 1.61 0 00-.59 1.14v.26a1.6 1.6 0 00.96 1.33c.13.06.27.1.41.12l.25.02a.87.87 0 01.8.57.83.83 0 01-.14.83.83.83 0 01-.49.29c-.1.02-.2.02-.3.01-.1 0-.21 0-.32-.02a3.26 3.26 0 01-1.64-.7A3.3 3.3 0 01.05 3.95c-.01-.07.02-.14.1-.15.06-.01.12.02.13.09l.1.38c.02.05.07.1.13.09.05 0 .1-.04.1-.1.01-.02 0-.05 0-.07a2.23 2.23 0 01-.12-.65l-.01-.3c0-.07.04-.12.1-.13a.12.12 0 01.14.12v.28c.02.25.07.5.17.73.02.08.06.15.09.22.02.05.09.08.15.06.05-.02.1-.08.07-.14l-.07-.18L1.06 4c-.02-.06.01-.12.07-.14.06-.02.12 0 .14.06l.07.17a2.08 2.08 0 00.74.97c.05.03.12.03.17-.02.03-.05.03-.12 0-.16l-.16-.13-.18-.17a1.93 1.93 0 01-.42-.8 2.3 2.3 0 01-.04-.48 1.8 1.8 0 01.5-1.25c.25-.25.54-.42.87-.52l.22-.04c.11-.02.15-.12.1-.2a.12.12 0 00-.12-.05c-.11.02-.22.04-.32.08a2.02 2.02 0 00-.96.6l-.05.05a.12.12 0 01-.15-.02.12.12 0 010-.16l.18-.18.07-.06c.04-.04.06-.08.05-.13a.12.12 0 00-.1-.1c-.04 0-.08.01-.11.04l-.25.24c-.1.12-.2.24-.27.37-.02.04-.05.07-.1.08-.04.01-.08 0-.11-.04a.11.11 0 01-.01-.14l.15-.23A2.86 2.86 0 013.1.5l.3-.01h.07c.06-.02.1-.08.09-.14-.01-.05-.05-.1-.11-.1h-.38a.11.11 0 01-.1-.12c0-.06.04-.1.1-.11L3.23 0C3.83 0 4.38.12 4.9.4l.14.07.08-.12c.14-.2.33-.3.57-.34.43-.06.83.21.94.63l.02.14V.8zM.79 1.48c-.05 0-.08-.03-.1-.07-.03-.04-.03-.08 0-.12l.11-.14a3.34 3.34 0 011.25-.9c.08-.03.16 0 .18.1 0 .04-.02.1-.08.12a3.1 3.1 0 00-1.07.74l-.17.2c-.03.02-.05.06-.1.06H.79" fill="#59a745" fill-rule="evenodd"/><path d="M1 2.97c0-.1.02-.2.05-.3.05-.16.12-.32.2-.47.02-.03.04-.07.09-.08.04-.01.1 0 .12.04.04.04.04.09.01.14-.04.07-.08.14-.1.22-.07.14-.11.3-.14.45 0 .02 0 .05-.02.07a.11.11 0 01-.14.05C1.03 3.08 1 3.03 1 2.97M.65 2.67c.07 0 .12.05.12.12 0 .06-.05.12-.12.12a.12.12 0 01-.12-.12c0-.07.06-.12.12-.12M.12 2.96c.06 0 .12.05.12.11 0 .07-.06.12-.12.12A.12.12 0 010 3.08c0-.07.05-.12.12-.12M.12 3.65A.12.12 0 010 3.53c0-.07.06-.12.12-.12.07 0 .12.06.12.12s-.06.12-.12.12M1.2 3.46c0 .07-.05.12-.11.12a.12.12 0 01-.12-.12c0-.06.05-.12.12-.12.06 0 .12.06.12.12M5.06 6.46a.12.12 0 01-.12-.12c0-.06.06-.12.12-.12.07 0 .12.06.12.12 0 .07-.05.12-.12.12M6.04 6.25a.12.12 0 01-.12-.12c0-.06.06-.12.12-.12s.12.06.12.12c0 .07-.06.12-.12.12M5.55 5.84c.07 0 .12.05.12.12 0 .06-.05.12-.12.12-.06 0-.12-.06-.12-.12 0-.07.05-.12.12-.12M2.86.17a.1.1 0 01-.1.1.1.1 0 01-.1-.1c0-.06.05-.1.1-.1.06 0 .1.05.1.1M.29 2.63a.1.1 0 01-.1.1.1.1 0 01-.1-.1c0-.06.05-.1.1-.1s.1.04.1.1M5.65 6.36a.1.1 0 01-.1.1.1.1 0 01-.1-.1c0-.05.05-.1.1-.1.06 0 .1.05.1.1M.87 2.38a.1.1 0 01-.1.1.1.1 0 01-.1-.1c0-.05.05-.1.1-.1s.1.05.1.1M2.46.15c.05 0 .09.04.08.09 0 .04-.04.08-.08.08a.09.09 0 01-.08-.09c0-.04.04-.08.08-.08M.3 2.33a.09.09 0 01-.08-.09c0-.04.04-.08.08-.08.05 0 .09.04.09.08 0 .05-.04.09-.09.09M5.55 6.78a.09.09 0 01-.08-.09c0-.04.04-.08.08-.08s.08.04.08.08c0 .05-.04.09-.08.09" fill="#59a745" fill-rule="evenodd"/><path d="M11.72 4.63c0 .08 0 .17.02.25.05.26.17.49.37.66a1 1 0 00.84.22 1 1 0 00.78-.57c.12-.24.15-.49.1-.75-.04-.3-.19-.57-.45-.75-.2-.14-.44-.2-.7-.18a.95.95 0 00-.74.4c-.16.22-.22.46-.22.72m1.11 4.42h-.4a4.49 4.49 0 01-1.3-.27l-.15-.06a.62.62 0 01-.37-.63.62.62 0 01.91-.48c.25.12.5.2.77.24.25.03.5.02.75-.06.39-.12.62-.38.72-.77.06-.21.05-.43.05-.65l-.02-.02-.03.03c-.24.28-.54.45-.9.52-.46.1-.92.05-1.36-.15a2 2 0 01-1.03-1.13c-.14-.36-.2-.74-.17-1.12.02-.46.14-.88.38-1.26.31-.49.75-.8 1.31-.9.43-.08.84-.05 1.24.14a1.49 1.49 0 01.62.52h.02l.01-.03a.7.7 0 011.38.16v3.4c0 .4-.06.78-.21 1.15-.26.61-.71 1-1.33 1.21-.24.08-.48.13-.73.14l-.16.02M38.52 4.24l.04-.04 1.11-1.41.13-.16a.67.67 0 011.08.78.89.89 0 01-.12.17l-.7.83-.03.04c0 .02.02.04.03.05l.87 1.18c.08.12.15.25.17.4a.7.7 0 01-.22.61.69.69 0 01-.51.2.71.71 0 01-.6-.32l-1-1.45-.22-.33-.03-.03c-.03.02-.01.05-.01.07v1.2c0 .12-.01.22-.04.33a.74.74 0 01-1.45-.22V.87A.74.74 0 0138.5.75l.01.18V4.23h.02M17.62 4.65l.04.31c.06.23.17.44.35.6.23.2.5.27.81.23a.93.93 0 00.65-.36c.27-.34.33-.73.22-1.14a1.03 1.03 0 00-1.1-.78.94.94 0 00-.7.35c-.18.22-.26.5-.27.79m1.05-2.37c.44 0 .86.09 1.25.3.68.34 1.09.9 1.2 1.66.09.49.04.97-.17 1.43-.28.6-.74 1-1.36 1.22-.34.12-.69.17-1.04.15-.58-.03-1.1-.2-1.55-.59-.37-.3-.61-.7-.73-1.16a2.5 2.5 0 01.08-1.52 2.2 2.2 0 011.26-1.28c.24-.1.49-.16.75-.19l.31-.02M27.51 4.15h1.89v-.03-.1a.79.79 0 00-.28-.52.85.85 0 00-.49-.2c-.26-.01-.5.04-.71.18a.9.9 0 00-.4.67m0 .92c.02.24.13.43.32.58.26.2.55.28.88.25.23-.02.43-.1.62-.22.34-.2.76-.03.87.35a.58.58 0 01-.21.62 1.8 1.8 0 01-.61.28 2.99 2.99 0 01-2.2-.24 2.1 2.1 0 01-1.02-1.4 2.6 2.6 0 01.12-1.6c.28-.68.8-1.1 1.49-1.3.3-.1.62-.12.93-.1.47.04.9.18 1.26.48a2.42 2.42 0 01.78 1.69c0 .28-.17.51-.44.58a.9.9 0 01-.23.03h-2.47zM32.86 4.15h1.88v-.03-.1a.79.79 0 00-.28-.52.86.86 0 00-.49-.2c-.25-.01-.5.04-.71.18a.9.9 0 00-.4.67m0 .92c.03.25.14.44.33.58.26.2.55.28.88.25.2-.02.37-.08.54-.18.37-.21.8 0 .88.39a.57.57 0 01-.22.58c-.14.11-.31.17-.48.23a2.95 2.95 0 01-2.22-.2 2.1 2.1 0 01-1.05-1.4 2.6 2.6 0 01.1-1.6c.28-.7.8-1.13 1.5-1.34.3-.09.62-.11.94-.09.46.04.89.18 1.25.48.3.25.5.57.64.94.08.24.13.48.14.74.02.3-.2.57-.5.6l-.21.02h-2.43zM23.74 2.29c.38 0 .75.07 1.1.2a.56.56 0 11-.45 1.02 1.54 1.54 0 00-.4-.14.96.96 0 00-.5.02.6.6 0 00-.13.07c-.16.1-.18.37.02.49.11.06.23.1.35.13l.63.15c.23.07.45.17.64.32.31.24.47.56.48.95 0 .28-.06.54-.2.77-.17.28-.41.46-.7.59a3.17 3.17 0 01-2.3-.08.56.56 0 01-.32-.67.56.56 0 01.6-.42c.1.02.2.06.28.1.21.12.44.19.68.19a.7.7 0 00.35-.07c.12-.07.2-.17.2-.32a.3.3 0 00-.13-.24.74.74 0 00-.26-.12l-.58-.16a2.43 2.43 0 01-.6-.24c-.24-.13-.42-.3-.53-.54-.07-.17-.1-.35-.1-.53.01-.4.15-.73.45-1 .17-.15.36-.25.57-.33.28-.1.56-.15.85-.14M7.86 3.5V.86c0-.45.37-.77.77-.76.37.02.66.3.7.64a4815.36 4815.36 0 01.02 5.3c0 .12 0 .23-.05.35-.1.28-.3.45-.6.49a.73.73 0 01-.82-.56 1 1 0 01-.02-.2V3.5" fill="#231f20" fill-rule="evenodd"/><path d="M35.8 8.55l-.22-.61h-.01v.6c-.07.02-.14 0-.21.01v-.92h.32l.2.59.21-.6h.32c.01.06.02.83 0 .93h-.21v-.6h-.02l-.22.6zM20.7 7.63h.32v.92h-.22v-.6h-.01l-.23.6h-.16l-.22-.61h-.01v.6c-.07.02-.13 0-.2.01v-.92h.31l.21.59.2-.6M39.71 8.54a315.19 315.19 0 01-.37-.56v.57h-.22v-.93h.24c.02 0 .04.03.05.05l.3.47c0 .02.02.04.04.06v-.57h.22v.91zM34.7 8.1c0-.14-.05-.24-.16-.28-.18-.07-.35.06-.36.25 0 .17.1.3.25.3.16 0 .27-.1.28-.28m-.26-.5l.22.05c.2.08.3.28.28.5a.47.47 0 01-.38.43.54.54 0 01-.48-.12c-.16-.14-.18-.36-.13-.54.06-.18.23-.3.43-.3h.06v-.02M27.9 7.82v.54l.18-.01c.14-.02.22-.1.23-.24.01-.14-.05-.25-.19-.28l-.22-.01m-.22.73v-.92H28.15c.04 0 .09.02.13.04a.4.4 0 01.27.37c.02.27-.13.47-.42.5-.14.02-.3 0-.45 0M22.93 8.03c.07-.01.13-.01.19-.03.05 0 .07-.05.07-.1 0-.04-.02-.07-.08-.08l-.18-.02zm0 .52h-.22v-.93h.35l.2.04c.1.04.15.11.15.22.01.1-.03.2-.13.25l-.05.03.23.39h-.26l-.18-.32c-.02-.04-.04-.05-.1-.03zM24.07 7.98l.23-.25c.06-.08.13-.12.23-.1h.13c-.03.06-.08.1-.12.14l-.13.14-.13.14.42.5a2 2 0 01-.29 0l-.04-.04-.25-.3-.06-.08V8.55h-.22v-.92h.22v.35h.01M17.04 7.63h.22v.34h.37v-.34h.22v.92h-.22v-.38h-.36v.38h-.23zM29.32 7.9c-.05.1-.1.19-.12.29h.22l-.1-.29m.24.65l-.06-.15c0-.02-.02-.03-.05-.03h-.32l-.07.18h-.24l.39-.93h.18c.05 0 .05.03.06.06l.25.6.11.27zM25.25 8.17v.19h.43v.19h-.65v-.92h.63v.18h-.4v.17h.37v.19zM18.93 7.63v.18h-.4V8h.37v.18h-.36c-.02.05-.02.09-.01.18H18.95v.2h-.65v-.92zM21.75 8.19h.22l-.1-.31-.12.3m.01-.55h.22l.38.92h-.25l-.07-.18h-.36l-.07.18h-.23c0-.05.32-.8.38-.92M31.29 8.19h.22l-.1-.31-.12.3m.61.37h-.25l-.07-.18h-.36l-.07.18h-.24l.38-.92h.23l.38.92M38.4 8.19l-.12-.31-.1.3zm.39.36h-.26l-.07-.18h-.35l-.07.18h-.24c0-.05.32-.82.38-.92h.22l.39.92M33.62 7.74l-.15.14a.26.26 0 00-.39.02c-.09.11-.08.3.02.4.1.1.24.1.39-.02l.14.14c-.05.11-.28.19-.48.15a.47.47 0 01-.37-.4c-.03-.23.06-.43.25-.52.2-.1.48-.05.6.09M37.1 8.03c.07 0 .14-.01.2-.03.04 0 .06-.05.06-.1 0-.04-.03-.07-.07-.08l-.18-.02zm-.22.51v-.92c.16 0 .32-.01.48.02.14.02.22.11.22.24.01.16-.05.26-.2.3l-.16.02h-.11V8.54zM40.31 7.62h.22c.04 0 .06.02.08.05l.16.29.04-.06.14-.24c.01-.01.03-.03.05-.03h.24l-.05.07-.27.41a.18.18 0 00-.04.1v.34h-.23v-.19a.49.49 0 00-.1-.37c-.08-.1-.14-.2-.2-.3l-.04-.07M26.27 7.82h-.26v-.18c.05-.02.66-.02.75 0v.18h-.26v.73h-.23zM29.99 7.82v-.2h.74v.2h-.25v.72c-.08.02-.15 0-.23.01v-.73zM16.68 7.63v.19h-.26v.73h-.23v-.73h-.26v-.2z" fill="#59a745" fill-rule="evenodd"/></svg>