<svg xmlns="http://www.w3.org/2000/svg" width="65.396" height="92.008" viewBox="0 0 65.396 92.008">
  <g id="Group_41" data-name="Group 41" transform="translate(-1969.216 -387.826)">
    <path id="Path_107" data-name="Path 107" d="M2034.612,460.729h-65.4V446.57h65.4Zm-63.4-2h61.4V448.57h-61.4Z" fill="#fff"/>
    <path id="Path_108" data-name="Path 108" d="M2009.667,479.834h-15.506V465.676h15.506Zm-13.506-2h11.506V467.676h-11.506Z" fill="#fff"/>
    <path id="Path_109" data-name="Path 109" d="M2034.609,442.2h-65.393V428.049h19.342v2h-17.342V440.2h61.393V430.049h-14.417v-2h16.417Z" fill="#fff"/>
    <path id="Path_110" data-name="Path 110" d="M1985.982,423.677h-16.766V409.515h11.729v2h-9.729v10.162h14.766Z" fill="#fff"/>
    <path id="Path_111" data-name="Path 111" d="M2034.609,423.677H2020.78v-2h11.829V411.515H2025.6v-2h9.011Z" fill="#fff"/>
    <rect id="Rectangle_56" data-name="Rectangle 56" width="14.079" height="2" transform="translate(2008.929 471.755)" fill="#fff"/>
    <rect id="Rectangle_57" data-name="Rectangle 57" width="14.079" height="2" transform="translate(1981.249 471.755)" fill="#fff"/>
    <rect id="Rectangle_58" data-name="Rectangle 58" width="2" height="6.948" transform="translate(2000.914 459.729)" fill="#fff"/>
    <rect id="Rectangle_59" data-name="Rectangle 59" width="2.34" height="2.34" transform="translate(2026.398 433.917)" fill="#fff"/>
    <path id="Path_112" data-name="Path 112" d="M2003.221,438.48l-.675-.654a76.089,76.089,0,0,1-7.047-8.177,68.9,68.9,0,0,1-4.356-6.463,42.024,42.024,0,0,1-5.156-12.463,24.937,24.937,0,0,1-.555-5.075,17.815,17.815,0,1,1,35.631,0,26.3,26.3,0,0,1-.5,5.06,39.908,39.908,0,0,1-4.937,12.473,62.763,62.763,0,0,1-4.379,6.477,67.77,67.77,0,0,1-7.328,8.189Zm.021-48.654a15.834,15.834,0,0,0-15.81,15.822,22.957,22.957,0,0,0,.512,4.663,40.112,40.112,0,0,0,4.919,11.856,67.2,67.2,0,0,0,4.234,6.279,79.45,79.45,0,0,0,6.165,7.259,70.787,70.787,0,0,0,6.4-7.264,60.708,60.708,0,0,0,4.239-6.27,37.888,37.888,0,0,0,4.7-11.843,24.335,24.335,0,0,0,.467-4.68A15.839,15.839,0,0,0,2003.242,389.826Zm0,25.1a9.3,9.3,0,0,1-9.278-9.278,9.284,9.284,0,1,1,18.567,0,9.11,9.11,0,0,1-1.794,5.457A9.251,9.251,0,0,1,2003.242,414.926Zm0-16.567a7.292,7.292,0,0,0-7.278,7.289,7.114,7.114,0,0,0,1.394,4.271,7.261,7.261,0,0,0,11.76.012l.008-.011a7.126,7.126,0,0,0,1.405-4.272A7.3,7.3,0,0,0,2003.242,398.359Z" fill="#fff"/>
  </g>
</svg>
