<svg xmlns="http://www.w3.org/2000/svg" width="83.92" height="85.932" viewBox="0 0 83.92 85.932">
  <g id="Group_45" data-name="Group 45" transform="translate(-2015.703 -820.775)">
    <path id="Path_116" data-name="Path 116" d="M2099.623,906.707H2015.7v-8.5h83.92Zm-81.92-2h79.92v-4.5H2017.7Z" fill="#fff"/>
    <path id="Path_117" data-name="Path 117" d="M2095.283,900.2h-75.24V850.863h26.39v2h-24.39V898.2h71.24V851.863h2Z" fill="#fff"/>
    <path id="Path_118" data-name="Path 118" d="M2048.419,875.742l-1.809-.855a11.947,11.947,0,0,1,21.188-.776l-1.74.987a9.947,9.947,0,0,0-17.639.644Z" transform="translate(0 -2)" fill="#fff"/>
    <path id="Path_119" data-name="Path 119" d="M2070.226,880.161l.071-9.043-7.867,4.46Z" transform="translate(0 -2)" fill="#fff"/>
    <path id="Path_120" data-name="Path 120" d="M2058.028,892.759a12.023,12.023,0,0,1-3.2-.437,11.87,11.87,0,0,1-7.21-5.623l1.74-.986a9.947,9.947,0,0,0,18.293-2.459l1.938.492a11.964,11.964,0,0,1-11.561,9.013Z" transform="translate(0 -2)" fill="#fff"/>
    <path id="Path_121" data-name="Path 121" d="M2045.191,880.65l-.071,9.043,7.867-4.46Z" transform="translate(0 -2)" fill="#fff"/>
    <path id="Path_122" data-name="Path 122" d="M2058.441,863.9V852.873h-6.114v-28.1h35.81v28.1h-17.821Zm-4.114-13.029h6.114v8.441l9.09-8.441h16.606v-24.1h-31.81Z" transform="translate(0 -4)" fill="#fff"/>
  </g>
</svg>
