<svg xmlns="http://www.w3.org/2000/svg" width="86.148" height="81.996" viewBox="0 0 86.148 81.996">
  <g id="Group_44" data-name="Group 44" transform="translate(-2238.215 -694.175)">
    <g id="Group_42" data-name="Group 42" transform="translate(2242.372 694.175)">
      <path id="Path_113" data-name="Path 113" d="M2308.771,776.171a15.057,15.057,0,0,1-14.925-17.017l-34.97-34.97a15.06,15.06,0,0,1-16.744-17.755l.4-2.116,9.062,9.064,7.466-2.007,2.006-7.464-9.077-9.064,2.117-.4a15.08,15.08,0,0,1,17.778,16.755l34.959,34.96a15.067,15.067,0,0,1,16.745,17.769l-.4,2.115-9.064-9.064-7.465,1.994-1.994,7.465,9.059,9.059-2.107.407A14.97,14.97,0,0,1,2308.771,776.171Zm-49.109-54.421,36.619,36.618-.1.582a12.778,12.778,0,0,0,12.592,14.943h.131l-6.779-6.778,2.675-10.005,10.005-2.675,6.773,6.773a12.785,12.785,0,0,0-14.938-12.718l-.582.1-36.605-36.605.1-.58a12.8,12.8,0,0,0-12.622-14.953h-.1l6.782,6.772-2.688,10.005-10.005,2.688-6.773-6.774a12.783,12.783,0,0,0,14.937,12.707Z" transform="translate(-2241.865 -694.175)" fill="#fff"/>
      <rect id="Rectangle_60" data-name="Rectangle 60" width="2.278" height="19.183" transform="translate(39.427 41.037) rotate(-45)" fill="#fff"/>
      <rect id="Rectangle_61" data-name="Rectangle 61" width="2.278" height="14.398" transform="translate(24.599 26.209) rotate(-45)" fill="#fff"/>
    </g>
    <g id="Group_43" data-name="Group 43" transform="translate(2238.215 696.28)">
      <path id="Path_114" data-name="Path 114" d="M2248.13,769.872a9.458,9.458,0,0,1-6.755-2.807l-.36-.351A9.576,9.576,0,0,1,2241,753.19l17.409-17.41,2,2a1.812,1.812,0,0,0,2.527.008,1.79,1.79,0,0,0,.008-2.532l-2.23-2.23,7.546-7.53,14.318,14.323-7.543,7.528-2.218-2.216a1.8,1.8,0,0,0-2.534,0,1.79,1.79,0,0,0,0,2.525l2,2-17.4,17.41A9.5,9.5,0,0,1,2248.13,769.872ZM2258.413,739l-15.8,15.8a7.3,7.3,0,0,0,0,10.292l.362.352a7.262,7.262,0,0,0,10.3.011l15.79-15.8-.39-.391a4.065,4.065,0,0,1,0-5.745,4.147,4.147,0,0,1,5.757,0l.606.606,4.323-4.313-11.1-11.1-4.321,4.314.617.617a4.068,4.068,0,0,1,0,5.745,4.153,4.153,0,0,1-5.764-.008Z" transform="translate(-2238.215 -691.929)" fill="#fff"/>
      <path id="Path_115" data-name="Path 115" d="M2282.927,730.036l-6.256-6.257,16.824-17,.346-6.28,10.957-4.476,5.72,5.7-4.492,10.96-6.271.346Zm-3.044-6.266,3.035,3.036,15.837-16,5.709-.314,3.368-8.222-3.574-3.566-8.222,3.359-.316,5.7Z" transform="translate(-2232.874 -696.023)" fill="#fff"/>
      <rect id="Rectangle_62" data-name="Rectangle 62" width="19.186" height="2.278" transform="translate(5.82 66.024) rotate(-45)" fill="#fff"/>
    </g>
  </g>
</svg>
