<svg xmlns="http://www.w3.org/2000/svg" width="99" height="83.059" viewBox="0 0 99 83.059">
  <g id="Group_36" data-name="Group 36" transform="translate(-1943.096 -541.873)">
    <path id="Path_101" data-name="Path 101" d="M2000.68,625.039h-16.417V610.157h16.417Zm-14.423-1.982h12.428V612.139h-12.428Z" transform="translate(-0.105 -0.607)" fill="#fff" stroke="rgba(0,0,0,0)" stroke-width="1"/>
    <path id="Path_102" data-name="Path 102" d="M1971.3,625.039h-27.7V610.157h27.7Zm-25.706-1.982H1969.3V612.139h-23.712Z" transform="translate(0 -0.607)" fill="#fff" stroke="rgba(0,0,0,0)" stroke-width="1"/>
    <path id="Path_103" data-name="Path 103" d="M2041.778,625.039h-27.7V610.157h27.7Zm-25.707-1.982h23.713V612.139h-23.713Z" transform="translate(-0.182 -0.607)" fill="#fff" stroke="rgba(0,0,0,0)" stroke-width="1"/>
    <rect id="Rectangle_50" data-name="Rectangle 50" width="15.034" height="1.982" transform="translate(1999.857 616)" fill="#fff" stroke="rgba(0,0,0,0)" stroke-width="1"/>
    <rect id="Rectangle_51" data-name="Rectangle 51" width="15.034" height="1.982" transform="translate(1970.3 616)" fill="#fff" stroke="rgba(0,0,0,0)" stroke-width="1"/>
    <rect id="Rectangle_52" data-name="Rectangle 52" width="1.995" height="7.372" transform="translate(1991.369 603.169)" fill="#fff" stroke="rgba(0,0,0,0)" stroke-width="1"/>
    <path id="Path_104" data-name="Path 104" d="M2019.733,575.325l-.448-.741c-.795-.938-9.888-11.224-26.685-11.224s-25.89,10.286-26.685,11.224l-.425.7-.839-.342-19.243-8.981,47.192-23.532.447.223,46.744,23.309ZM1992.6,561.378c16.237,0,25.487,8.913,27.791,11.451l14.833-6.923L1992.6,544.65l-42.625,21.256,14.833,6.923C1967.113,570.291,1976.363,561.378,1992.6,561.378Z" transform="translate(-0.005)" fill="#fff" stroke="rgba(0,0,0,0)" stroke-width="1"/>
    <path id="Path_105" data-name="Path 105" d="M1992.649,603.9l-.746-.835c-6.437-7.21-26.545-6.528-26.74-6.519l-1.036.04V573.945l.249-.392c1.015-1.229,10.42-12,28.273-12s27.258,10.775,28.272,12l.249.392v22.642l-1.036-.04c-.2-.006-20.3-.691-26.739,6.519Zm-25.7-9.363c5.128,0,19.354.554,25.7,6.454,6.729-6.253,22.318-6.5,26.526-6.449v-19.97c-1.471-1.663-10.487-11.042-26.526-11.042s-25.055,9.379-26.527,11.042v19.97C1966.36,594.54,1966.638,594.538,1966.946,594.538Z" transform="translate(-0.053 -0.171)" fill="#fff" stroke="rgba(0,0,0,0)" stroke-width="1"/>
    <rect id="Rectangle_53" data-name="Rectangle 53" width="1.995" height="24.035" transform="translate(2010.467 552.95)" fill="#fff" stroke="rgba(0,0,0,0)" stroke-width="1"/>
    <path id="Path_106" data-name="Path 106" d="M2011.628,586.14a5.017,5.017,0,1,1,5.049-5.017A5.04,5.04,0,0,1,2011.628,586.14Zm0-8.052a3.035,3.035,0,1,0,3.054,3.036A3.049,3.049,0,0,0,2011.628,578.088Z" transform="translate(-0.163 -0.302)" fill="#fff" stroke="rgba(0,0,0,0)" stroke-width="1"/>
    <rect id="Rectangle_54" data-name="Rectangle 54" width="2.498" height="2.482" transform="translate(1950.539 615.573)" fill="#fff" stroke="rgba(0,0,0,0)" stroke-width="1"/>
    <rect id="Rectangle_55" data-name="Rectangle 55" width="2.498" height="2.482" transform="translate(2032.499 615.573)" fill="#fff" stroke="rgba(0,0,0,0)" stroke-width="1"/>
  </g>
</svg>
