<svg xmlns="http://www.w3.org/2000/svg" xmlns:xlink="http://www.w3.org/1999/xlink" width="33.417" height="33.417" viewBox="0 0 33.417 33.417">
  <defs>
    <filter id="Path_225" x="0" y="0" width="33.417" height="33.417" filterUnits="userSpaceOnUse">
      <feOffset dy="3" input="SourceAlpha"/>
      <feGaussianBlur stdDeviation="3" result="blur"/>
      <feFlood flood-color="#fff" flood-opacity="0.161"/>
      <feComposite operator="in" in2="blur"/>
      <feComposite in="SourceGraphic"/>
    </filter>
  </defs>
  <g transform="matrix(1, 0, 0, 1, 0, 0)" filter="url(#Path_225)">
    <path id="Path_225-2" data-name="Path 225" d="M7.708,0a7.709,7.709,0,1,0,7.709,7.708A7.709,7.709,0,0,0,7.708,0Zm1.6,11.947q-.6.235-.95.358a2.5,2.5,0,0,1-.824.123,1.641,1.641,0,0,1-1.12-.352,1.135,1.135,0,0,1-.4-.892,3.24,3.24,0,0,1,.029-.43c.02-.146.052-.311.1-.5l.5-1.754c.044-.168.082-.328.112-.477A2.115,2.115,0,0,0,6.8,7.614a.636.636,0,0,0-.138-.468.786.786,0,0,0-.531-.131,1.392,1.392,0,0,0-.395.059c-.134.041-.25.078-.345.115l.131-.54q.487-.2.933-.34A2.757,2.757,0,0,1,7.3,6.166a1.611,1.611,0,0,1,1.1.346,1.149,1.149,0,0,1,.388.9q0,.115-.027.4a2.694,2.694,0,0,1-.1.529l-.494,1.749c-.04.14-.076.3-.109.48a2.54,2.54,0,0,0-.048.409.587.587,0,0,0,.156.475.873.873,0,0,0,.54.127,1.565,1.565,0,0,0,.409-.063,2.323,2.323,0,0,0,.33-.111Zm-.087-7.1a1.179,1.179,0,0,1-.832.321,1.191,1.191,0,0,1-.835-.321,1.025,1.025,0,0,1-.348-.779,1.035,1.035,0,0,1,.348-.78,1.183,1.183,0,0,1,.835-.324,1.17,1.17,0,0,1,.832.324,1.051,1.051,0,0,1,0,1.559Z" transform="translate(9 6)" fill="#e6e6e6"/>
  </g>
</svg>
