<svg xmlns="http://www.w3.org/2000/svg" width="8.981" height="13.022" viewBox="0 0 8.981 13.022">
    <defs>
        <style>
            .cls-1{fill:#212830}
        </style>
    </defs>
    <g id="locked_2_" data-name="locked (2)" transform="translate(-9)">
        <path id="Path_39" d="M25.9 30a.9.9 0 0 0-.9.9v1.347a.9.9 0 0 0 1.8 0V30.9a.9.9 0 0 0-.9-.9zm.449 2.245a.449.449 0 1 1-.9 0V30.9a.449.449 0 0 1 .9 0z" class="cls-1" data-name="Path 39" transform="translate(-12.408 -23.264)"/>
        <path id="Path_40" d="M15.96 4.786V2.295A2.39 2.39 0 0 0 13.491 0a2.39 2.39 0 0 0-2.47 2.295v2.491a4.491 4.491 0 1 0 4.94 0zm-4.491-.26V2.295A1.941 1.941 0 0 1 13.491.449a1.941 1.941 0 0 1 2.021 1.846v2.231c-.042-.021-.085-.04-.128-.06q-.132-.062-.269-.116-.088-.034-.177-.065c-.058-.02-.116-.04-.176-.057-.1-.029-.2-.054-.3-.077l-.131-.027a4.221 4.221 0 0 0-.355-.054l-.076-.008c-.136-.013-.272-.021-.408-.021s-.272.008-.408.021L13 4.069a4.752 4.752 0 0 0-.355.054l-.131.027c-.1.022-.2.047-.3.077-.059.018-.117.038-.176.057s-.118.042-.177.065a3.758 3.758 0 0 0-.269.116c-.037.021-.08.035-.122.061zm2.021 8.048a4.041 4.041 0 0 1-1.433-7.816l.119-.044a3.988 3.988 0 0 1 .417-.12 4.757 4.757 0 0 1 .423-.073l.115-.012c.119-.011.238-.018.359-.018s.241.008.359.018l.115.012c.085.01.168.023.251.038.057.011.115.022.172.035q.117.027.232.06c.062.018.124.039.185.06l.119.044a4.039 4.039 0 0 1-1.433 7.816z" class="cls-1" data-name="Path 40"/>
    </g>
</svg>
