<svg xmlns="http://www.w3.org/2000/svg" width="15.193" height="15.192" viewBox="0 0 15.193 15.192">
    <defs>
        <style>
            .cls-1{fill:#fff;stroke:#fff;stroke-width:.2px}
        </style>
    </defs>
    <g id="user_1_" data-name="user (1)" transform="translate(.099 .1)">
        <path id="Path_119" d="M7.5 0a7.5 7.5 0 0 0 0 14.992q.339 0 .675-.03c.208-.019.414-.047.619-.083l.079-.014A7.5 7.5 0 0 0 7.5 0zm-.6 14.466h-.024a6.973 6.973 0 0 1-.578-.076l-.033-.005q-.28-.05-.555-.123l-.044-.011a5.23 5.23 0 0 1-.529-.167l-.054-.019a6.333 6.333 0 0 1-.5-.209l-.061-.028a6.139 6.139 0 0 1-.476-.248l-.066-.037q-.23-.134-.45-.287l-.067-.046a6.158 6.158 0 0 1-.422-.325L3 12.851v-2.107A2.752 2.752 0 0 1 5.747 8h3.5a2.752 2.752 0 0 1 2.749 2.749v2.107l-.033.028q-.21.175-.43.331l-.059.04q-.223.155-.457.292l-.059.033c-.158.09-.319.175-.483.251l-.057.025a7.222 7.222 0 0 1-.507.211l-.05.018a6.987 6.987 0 0 1-.532.168l-.043.011c-.183.048-.368.09-.556.124l-.032.005a7.453 7.453 0 0 1-.579.077H8.1c-.2.017-.4.026-.6.026s-.407-.013-.606-.03zm5.6-2.078v-1.644A3.252 3.252 0 0 0 9.245 7.5h-3.5A3.252 3.252 0 0 0 2.5 10.744v1.643a7 7 0 1 1 9.995 0zm0 0" class="cls-1" data-name="Path 119"/>
        <path id="Path_120" d="M162.5 64a2.5 2.5 0 1 0 2.5 2.5 2.5 2.5 0 0 0-2.5-2.5zm0 4.5a2 2 0 1 1 2-2 2 2 0 0 1-2 2zm0 0" class="cls-1" data-name="Path 120" transform="translate(-155.003 -62.001)"/>
    </g>
</svg>
