<svg xmlns="http://www.w3.org/2000/svg" width="63.356" height="42.155" viewBox="0 0 63.356 42.155">
  <g id="Group_125" data-name="Group 125" transform="translate(0 0)">
    <g id="Group_124" data-name="Group 124" transform="translate(0 0)">
      <g id="Group_123" data-name="Group 123" transform="translate(0 0)">
        <path id="Path_180" data-name="Path 180" d="M532.107,357.606h-2.764a1.85,1.85,0,0,0-.4-.963,2.078,2.078,0,0,0-1.5-.448,2.234,2.234,0,0,0-1.429.343.886.886,0,0,0-.306.705c0,.419.582.753,1.735,1.01a27.487,27.487,0,0,1,2.841.734c.153.058.286.105.382.152a2.671,2.671,0,0,1,1.754,2.517,3.189,3.189,0,0,1-1.707,3c-.143.077-.277.143-.429.21a6.456,6.456,0,0,1-2.554.476,7.009,7.009,0,0,1-3.489-.763,3.294,3.294,0,0,1-1.252-1.223,3.439,3.439,0,0,1-.416-1.723h2.9a1.371,1.371,0,0,0,.534,1.154,2.976,2.976,0,0,0,1.8.42,2.173,2.173,0,0,0,1.43-.4.893.893,0,0,0,.362-.706c0-.448-.571-.8-1.707-1.048a18.575,18.575,0,0,1-3.2-.868,2.657,2.657,0,0,1-1.735-2.546,3.327,3.327,0,0,1,.905-2.373,4.485,4.485,0,0,1,3.423-1.211,7.153,7.153,0,0,1,3,.534,1.041,1.041,0,0,1,.182.1,3.02,3.02,0,0,1,1.227,1.173A3.494,3.494,0,0,1,532.107,357.606Z" transform="translate(-469.065 -323.353)"/>
        <path id="Path_181" data-name="Path 181" d="M562.875,333.7a.226.226,0,0,0-.038-.143.205.205,0,0,0-.123-.095,1.392,1.392,0,0,0-.182-.03h-.438v.534h.438a.407.407,0,0,0,.257-.076A.241.241,0,0,0,562.875,333.7Zm.229-.287a.419.419,0,0,1,.086.257.464.464,0,0,1-.143.343.551.551,0,0,1-.371.162.482.482,0,0,1,.152.095l.266.354.21.352h-.343l-.162-.285a1.617,1.617,0,0,0-.266-.381.125.125,0,0,0-.038-.029l-.228-.066h-.172v.762h-.287v-1.792h.62c.039,0,.077.009.105.009a1.031,1.031,0,0,1,.343.048A.416.416,0,0,1,563.1,333.413Z" transform="translate(-501.31 -306.197)"/>
        <path id="Path_182" data-name="Path 182" d="M559.649,330.412a1.384,1.384,0,0,0-.182-.7,1.344,1.344,0,0,0-.515-.515,1.474,1.474,0,0,0-.677-.181h-.009a1.469,1.469,0,0,0-.676.181,1.338,1.338,0,0,0-.516.515,1.353,1.353,0,0,0,0,1.383,1.29,1.29,0,0,0,.505.5,1.366,1.366,0,0,0,.686.182h.009a1.374,1.374,0,0,0,.688-.182,1.282,1.282,0,0,0,.5-.5A1.375,1.375,0,0,0,559.649,330.412Zm.276,0a1.631,1.631,0,0,1-.22.82,1.443,1.443,0,0,1-.609.609,1.6,1.6,0,0,1-.821.22h-.009a1.592,1.592,0,0,1-.819-.22,1.443,1.443,0,0,1-.611-.609,1.627,1.627,0,0,1-.219-.82,1.65,1.65,0,0,1,.219-.84,1.533,1.533,0,0,1,.62-.61,1.8,1.8,0,0,1,.81-.219h.009a1.694,1.694,0,0,1,.811.219,1.468,1.468,0,0,1,.62.61A1.653,1.653,0,0,1,559.925,330.412Z" transform="translate(-497.045 -302.547)"/>
        <path id="Path_183" data-name="Path 183" d="M401.613,196.049l7.827,13.042H396.866l-7.474-12.46L383.73,187.2l5.662-3.4,3.565-2.145Z" transform="translate(-354.949 -181.654)"/>
        <path id="Path_184" data-name="Path 184" d="M463.821,360.418v5.349h-2.6v-.591a5.569,5.569,0,0,1-3.05.906h-.029a5.663,5.663,0,0,1,0-11.326h.029a5.579,5.579,0,0,1,3.05.905v-.62h2.6Zm-2.6.592v-1.182a3.119,3.119,0,0,0-3.05-2.517h-.029a3.113,3.113,0,0,0,0,6.226h.029A3.126,3.126,0,0,0,461.218,361.01Z" transform="translate(-411.474 -323.926)"/>
        <path id="Path_185" data-name="Path 185" d="M395.2,344.758v5.349h-2.6v-.591a5.592,5.592,0,0,1-3.051.906h-.028a5.663,5.663,0,0,1,0-11.326h.028A5.6,5.6,0,0,1,392.6,340v-4.3h2.6Zm-2.6.592v-1.182a3.119,3.119,0,0,0-3.051-2.517h-.028a3.113,3.113,0,0,0,0,6.226h.028A3.127,3.127,0,0,0,392.6,345.35Z" transform="translate(-355.08 -308.267)"/>
        <path id="Path_186" data-name="Path 186" d="M338.1,249.005l3.069,5.13H328.6l-6.977-11.611-.3-.506.3-.181,8.932-5.378Z" transform="translate(-303.653 -226.699)"/>
        <rect id="Rectangle_69" data-name="Rectangle 69" width="2.831" height="11.011" transform="translate(24.958 30.829)"/>
        <rect id="Rectangle_70" data-name="Rectangle 70" width="2.831" height="2.488" transform="translate(24.958 27.493)"/>
        <path id="Path_187" data-name="Path 187" d="M302.72,344.758v5.349h-2.6v-.591a5.621,5.621,0,0,1-3.06.906h-.028a5.663,5.663,0,0,1,0-11.326h.028a5.633,5.633,0,0,1,3.06.905v-4.3h2.6Zm-2.6.592v-1.182a3.121,3.121,0,0,0-3.06-2.517h-.028a3.113,3.113,0,0,0,0,6.226h.028A3.129,3.129,0,0,0,300.118,345.35Z" transform="translate(-279.059 -308.267)"/>
        <path id="Path_188" data-name="Path 188" d="M270.368,294.941l2.574,4.291H260.368l-1.411-2.355,9.237-5.548Z" transform="translate(-252.398 -271.795)"/>
        <path id="Path_189" data-name="Path 189" d="M233.448,360.418v5.349h-2.6v-.591a5.627,5.627,0,0,1-3.06.906h-.029a5.663,5.663,0,0,1,0-11.326h.029a5.638,5.638,0,0,1,3.06.905v-.62h2.6Zm-2.6.592v-1.182a3.121,3.121,0,0,0-3.06-2.517h-.029a3.113,3.113,0,0,0,0,6.226h.029A3.129,3.129,0,0,0,230.846,361.01Z" transform="translate(-222.132 -323.926)"/>
      </g>
    </g>
  </g>
</svg>
