<svg xmlns="http://www.w3.org/2000/svg" width="93.657" height="32.745" viewBox="0 0 93.657 32.745">
  <path id="Path_179" data-name="Path 179" d="M-225.74,324.591a16.3,16.3,0,0,0-10.152,3.527,16.3,16.3,0,0,0-10.152-3.527,16.3,16.3,0,0,0-10.152,3.527,16.293,16.293,0,0,0-10.152-3.527,16.3,16.3,0,0,0-10.152,3.527,16.3,16.3,0,0,0-10.152-3.527,16.371,16.371,0,0,0-16.372,16.373,16.371,16.371,0,0,0,16.372,16.372,16.294,16.294,0,0,0,10.152-3.527,16.3,16.3,0,0,0,10.152,3.527,16.293,16.293,0,0,0,10.152-3.527,16.3,16.3,0,0,0,10.152,3.527,16.3,16.3,0,0,0,10.152-3.527,16.294,16.294,0,0,0,10.152,3.527,16.371,16.371,0,0,0,16.373-16.372,16.371,16.371,0,0,0-16.373-16.373Zm-53.439,26.543a12.705,12.705,0,0,1-7.473,2.451,12.615,12.615,0,0,1-12.622-12.622,12.615,12.615,0,0,1,12.622-12.622,12.712,12.712,0,0,1,7.473,2.451,16.278,16.278,0,0,0-3.542,10.171,16.4,16.4,0,0,0,3.542,10.17Zm2.679-2.671a12.546,12.546,0,0,1-2.47-7.5,12.527,12.527,0,0,1,2.47-7.5,12.524,12.524,0,0,1,2.471,7.5,12.546,12.546,0,0,1-2.471,7.5Zm17.625,2.671a12.57,12.57,0,0,1-7.482,2.448,12.524,12.524,0,0,1-7.464-2.448,16.391,16.391,0,0,0,3.542-10.17,16.278,16.278,0,0,0-3.542-10.171,12.524,12.524,0,0,1,7.464-2.448,12.574,12.574,0,0,1,7.482,2.448,16.278,16.278,0,0,0-3.542,10.171,16.391,16.391,0,0,0,3.542,10.17Zm2.678-2.671a12.549,12.549,0,0,1-2.47-7.5,12.527,12.527,0,0,1,2.47-7.5,12.524,12.524,0,0,1,2.471,7.5,12.546,12.546,0,0,1-2.471,7.5Zm17.625,2.671a12.569,12.569,0,0,1-7.482,2.448,12.525,12.525,0,0,1-7.464-2.448,16.392,16.392,0,0,0,3.542-10.17,16.279,16.279,0,0,0-3.542-10.171,12.525,12.525,0,0,1,7.464-2.448,12.572,12.572,0,0,1,7.482,2.448,16.278,16.278,0,0,0-3.542,10.171,16.391,16.391,0,0,0,3.542,10.17Zm2.679-2.671a12.546,12.546,0,0,1-2.47-7.5,12.524,12.524,0,0,1,2.47-7.5,12.523,12.523,0,0,1,2.47,7.5,12.546,12.546,0,0,1-2.47,7.5Zm10.152,5.123a12.707,12.707,0,0,1-7.473-2.451,16.4,16.4,0,0,0,3.542-10.17,16.278,16.278,0,0,0-3.542-10.171,12.714,12.714,0,0,1,7.473-2.451,12.615,12.615,0,0,1,12.622,12.622,12.615,12.615,0,0,1-12.622,12.622Z" transform="translate(303.024 -324.59)" fill="#1a1818" fill-rule="evenodd"/>
</svg>
