<svg id="Symbols" xmlns="http://www.w3.org/2000/svg" width="154.534" height="29.829" viewBox="0 0 154.534 29.829">
  <g id="TM-_-Wht" data-name="TM-/-Wht" transform="translate(0 0)">
    <path id="Fill-1" d="M128.857,8.821a1.359,1.359,0,1,1,1.359-1.358,1.361,1.361,0,0,1-1.359,1.358m0-3.033a1.675,1.675,0,1,0,1.675,1.675,1.676,1.676,0,0,0-1.675-1.675" transform="translate(24.002 1.092)" fill="#111" fill-rule="evenodd"/>
    <path id="Fill-4" d="M127.874,8.121h.352l.144-.676h.372c.267,0,.261.092.212.327a1.146,1.146,0,0,0-.036.348h.4l.009-.046c-.069-.029-.057-.092,0-.344.069-.322,0-.376-.126-.436a.54.54,0,0,0,.354-.411c.032-.149.019-.487-.439-.487h-.872Zm.557-.965.1-.462h.449c.212,0,.223.136.2.227-.037.17-.141.235-.329.235Z" transform="translate(24.133 1.207)" fill="#111" fill-rule="evenodd"/>
    <path id="Fill-6" d="M30.406,17.254a1.33,1.33,0,0,1-1.45-1.144c0-1.012,1.5-1.694,3.543-1.628a7.225,7.225,0,0,1,1.141.066,3.149,3.149,0,0,1-3.234,2.707Zm6.159,2.376c.475-3.454,1.569-6.028,1.569-7.833,0-2.816-2.425-3.894-5.373-3.894a14.351,14.351,0,0,0-4.542.66l-.428,2.882a8.31,8.31,0,0,1,4.018-.9c1.4,0,2.282.66,2.282,1.475a1.527,1.527,0,0,1-.048.462c-.594-.044-1.45-.11-2.306-.11-3.781,0-6.824,1.387-6.824,4.2,0,2.222,1.474,3.322,4.137,3.322a4.858,4.858,0,0,0,4.161-1.87V17.98l.048.044-.19,1.606Z" transform="translate(4.702 1.491)" fill="#111" fill-rule="evenodd"/>
    <path id="Fill-8" d="M46.591,8.125l-4.208,7.239h-.048L41.218,8.125H36.867L39.6,19.544a2.657,2.657,0,0,1-2.5,1.892,6.652,6.652,0,0,1-1.95-.33l-.9,2.882a11.037,11.037,0,0,0,3.352.484c2.735,0,4.138-1.342,5.4-3.366L51.133,8.125Z" transform="translate(6.464 1.533)" fill="#111" fill-rule="evenodd"/>
    <path id="Fill-10" d="M50.7,3.886l-3.709,16.5h4.327l3.71-16.5Z" transform="translate(8.868 0.733)" fill="#111" fill-rule="evenodd"/>
    <path id="Fill-12" d="M59.44,17.121a2.27,2.27,0,0,1-2.33-2.552c0-1.826,1.284-3.894,3.352-3.894a2.077,2.077,0,0,1,2.235,2.31c0,2.6-1.26,4.136-3.257,4.136M60.676,7.9c-4.85,0-7.989,2.728-7.989,6.754,0,2.883,1.855,5.236,6.444,5.236,4.637,0,7.989-2.09,7.989-6.864,0-2.882-2.235-5.126-6.443-5.126" transform="translate(9.943 1.491)" fill="#111" fill-rule="evenodd"/>
    <path id="Fill-14" d="M74.466,7.9a4.509,4.509,0,0,0-3.829,2.618H70.59l.476-2.354H67.094a30.106,30.106,0,0,1-.523,2.992L64.645,19.63h4.28l1.214-5.28c.309-1.694,1.379-3.146,3.186-3.146a3.148,3.148,0,0,1,1.973.485l.975-3.5A5.174,5.174,0,0,0,74.466,7.9" transform="translate(12.2 1.491)" fill="#111" fill-rule="evenodd"/>
    <path id="Fill-16" d="M89.7,4.849,84.49,15.168h-.048L84.181,4.849H77.238L73.623,20.206h4.042L80.543,7.621h.048l.618,12.585h4.185L91.908,7.621h.048L88.937,20.206h4.327L96.783,4.849Z" transform="translate(13.894 0.915)" fill="#111" fill-rule="evenodd"/>
    <path id="Fill-18" d="M97.315,17.254a1.33,1.33,0,0,1-1.451-1.144c0-1.012,1.5-1.694,3.543-1.628a7.223,7.223,0,0,1,1.141.066,3.149,3.149,0,0,1-3.233,2.707M99.669,7.9a14.35,14.35,0,0,0-4.541.66L94.7,11.445a8.31,8.31,0,0,1,4.018-.9c1.4,0,2.282.66,2.282,1.475a1.527,1.527,0,0,1-.048.462c-.595-.044-1.45-.11-2.306-.11-3.781,0-6.824,1.387-6.824,4.2,0,2.222,1.474,3.322,4.137,3.322a4.858,4.858,0,0,0,4.161-1.87V17.98l.048.044-.19,1.606h3.5c.475-3.454,1.568-6.028,1.568-7.833,0-2.816-2.425-3.894-5.373-3.894" transform="translate(17.329 1.491)" fill="#111" fill-rule="evenodd"/>
    <path id="Fill-20" d="M110.148,17.616c-1.355,0-2.044-.946-2.044-2.354a3.37,3.37,0,0,1,3.234-3.564,2.1,2.1,0,0,1,2.045,2.332c0,1.518-1.212,3.586-3.234,3.586Zm5.659-13.73-1.5,6.887h-.048c-.642-1.232-2.139-2.112-4.3-2.112-4.233,0-6.278,3.5-6.278,7.26a4.623,4.623,0,0,0,4.612,4.73,5.1,5.1,0,0,0,4.494-2.09h.048l-.333,1.826h3.923a16.332,16.332,0,0,1,.262-1.716l3.328-14.786Z" transform="translate(19.567 0.733)" fill="#111" fill-rule="evenodd"/>
    <path id="Fill-22" d="M120.642,12.809a3.118,3.118,0,0,1,3.163-2.266c1.569,0,2.092,1.034,2.092,2.266Zm8.821.088c0-3.476-2.449-4.994-5.706-4.994-5.516,0-7.418,4.093-7.418,6.754,0,2.883,2.235,5.236,6.372,5.236a17,17,0,0,0,4.328-.638l.547-2.794a10.354,10.354,0,0,1-3.876.792c-2.615,0-3.281-.968-3.329-2.2h8.774a11.768,11.768,0,0,0,.309-2.156Z" transform="translate(21.956 1.491)" fill="#111" fill-rule="evenodd"/>
    <path id="Fill-24" d="M29.453,3.094C17.987-2.76,6.69.418,1.4,6.6a77.932,77.932,0,0,1,29.236-.406c.029-.207.054-.407.076-.6.005-.048.009-.1.012-.146l.007-.146a2.345,2.345,0,0,0-1.275-2.208" transform="translate(0.264 0)" fill="#111" fill-rule="evenodd"/>
    <path id="Fill-26" d="M24.606,9.953c-2.963.25-4.085,2.271-5.705,4.855-1.259,2.007-5.364,9.216-7.135,12.335a7.887,7.887,0,0,0,6.132.365,9.175,9.175,0,0,0,2.994-1.417,3.049,3.049,0,0,0,.713-.677l.066-.091c.024-.033.047-.068.07-.1,2.663-4.152,4.569-10.5,5.468-13.912.108-.409.211-.818.311-1.221a11.5,11.5,0,0,0-2.913-.134" transform="translate(2.221 1.871)" fill="#111" fill-rule="evenodd"/>
    <path id="Fill-29" d="M11.14,9.913A49.375,49.375,0,0,0,0,12.7a7.883,7.883,0,0,0,.2.769l.029.086c.007.02-.01-.032-.01-.032C1.08,16.458,3.946,19.852,8.736,23.6c.179.14.354.274.526.405a40.861,40.861,0,0,0,5.425-10.688c.958-2.973-.487-3.809-3.547-3.407" transform="translate(0 1.853)" fill="#111" fill-rule="evenodd"/>
  </g>
</svg>
