<svg xmlns="http://www.w3.org/2000/svg" id="play-button" width="59.241" height="59.241" viewBox="0 0 59.241 59.241">
    <defs>
        <style>
            .cls-1{fill:#fff}
        </style>
    </defs>
    <g id="Group_12" data-name="Group 12">
        <g id="Group_11" data-name="Group 11">
            <path id="Path_41" d="M55.262 14.816a29.608 29.608 0 0 0-54.24 7.141 29.608 29.608 0 0 0 20.936 36.262 29.767 29.767 0 0 0 7.711 1.022 29.619 29.619 0 0 0 25.593-44.425zm-.02 21.669a26.524 26.524 0 0 1-48.592 6.4 26.543 26.543 0 0 1 22.928-39.8A26.671 26.671 0 0 1 36.486 4a26.525 26.525 0 0 1 18.756 32.485z" class="cls-1" data-name="Path 41" transform="translate(-.001)"/>
        </g>
    </g>
    <g id="Group_14" data-name="Group 14" transform="translate(19.95 15.398)">
        <g id="Group_13" data-name="Group 13">
            <path id="Path_42" d="M196.3 144.51l-19.037-10.991a3.227 3.227 0 0 0-4.84 2.794V158.3a3.22 3.22 0 0 0 4.84 2.794L196.3 150.1a3.227 3.227 0 0 0 0-5.588zm-1.542 2.918l-19.038 10.991a.143.143 0 0 1-.214-.124v-21.981a.128.128 0 0 1 .071-.124.145.145 0 0 1 .073-.022.135.135 0 0 1 .07.022l19.037 10.991a.143.143 0 0 1 0 .248z" class="cls-1" data-name="Path 42" transform="translate(-172.422 -133.082)"/>
        </g>
    </g>
</svg>
