<svg xmlns="http://www.w3.org/2000/svg" width="13.939" height="15" viewBox="0 0 13.939 15">
    <defs>
        <style>
            .cls-1{fill:#fff}
        </style>
    </defs>
    <g id="shopping-cart" transform="translate(-17.2)">
        <path id="Path_121" d="M21.173 9.877h8.265a1.705 1.705 0 0 0 1.7-1.7V4.66a.039.039 0 0 0 0-.018V4.62v-.018a.2.2 0 0 1-.006-.022c0-.006 0-.012-.006-.018s0-.012-.006-.018a.15.15 0 0 1-.009-.022.067.067 0 0 0-.009-.015l-.009-.018c0-.006-.006-.009-.009-.015l-.012-.018a.054.054 0 0 0-.012-.015c0-.006-.009-.009-.012-.015s-.009-.009-.012-.015-.009-.009-.012-.012L31 4.38c-.006 0-.009-.009-.015-.012l-.018-.012-.015-.009a.064.064 0 0 1-.018-.012l-.019-.009-.018-.009-.018-.009c-.006 0-.012 0-.018-.006a.057.057 0 0 0-.022-.006.134.134 0 0 1-.015 0 .068.068 0 0 0-.025 0h-.012l-10.48-1.457V1.377a.19.19 0 0 0 0-.043.023.023 0 0 0 0-.012v-.028c0-.01 0-.015-.006-.025s0-.009 0-.015l-.009-.028v-.012a.092.092 0 0 0-.012-.025s0-.009-.006-.012a.064.064 0 0 0-.012-.018c0-.006-.006-.009-.009-.015l-.009-.015-.012-.018-.027-.011-.018-.018-.009-.009a.134.134 0 0 0-.022-.018l-.012-.009-.018-.015-.026-.018s-.006 0-.009-.006l-.04-.018-2.272-.956a.417.417 0 1 0-.324.767l2.016.851v9.119a1.7 1.7 0 0 0 1.483 1.686 1.679 1.679 0 1 0 3.12.863 1.648 1.648 0 0 0-.231-.848h3.743a1.657 1.657 0 0 0-.231.848 1.68 1.68 0 1 0 1.68-1.68h-7.862a.87.87 0 0 1-.869-.869V9.642a1.721 1.721 0 0 0 .869.235zm2.072 3.44a.848.848 0 1 1-.848-.848.849.849 0 0 1 .848.848zm6.64 0a.848.848 0 1 1-.848-.848.849.849 0 0 1 .848.848zm-.447-4.273h-8.265a.87.87 0 0 1-.869-.869v-4.5l10 1.378v3.119a.871.871 0 0 1-.866.872z" class="cls-1" data-name="Path 121"/>
    </g>
</svg>
