<svg xmlns="http://www.w3.org/2000/svg" width="15.221" height="15.221" viewBox="0 0 15.221 15.221">
    <defs>
        <style>
            .cls-1{fill:#fff}
        </style>
    </defs>
    <g id="instagram">
        <path id="Path_1" d="M11.1 0H4.12A4.125 4.125 0 0 0 0 4.12v6.98a4.125 4.125 0 0 0 4.12 4.12h6.98a4.125 4.125 0 0 0 4.12-4.12V4.12A4.125 4.125 0 0 0 11.1 0zm3.228 11.1a3.231 3.231 0 0 1-3.228 3.229H4.12A3.231 3.231 0 0 1 .892 11.1V4.12A3.231 3.231 0 0 1 4.12.892h6.98a3.231 3.231 0 0 1 3.229 3.228zm0 0" class="cls-1" data-name="Path 1"/>
        <path id="Path_2" d="M120.166 116a4.162 4.162 0 1 0 4.162 4.162 4.166 4.166 0 0 0-4.162-4.162zm0 7.431a3.27 3.27 0 1 1 3.27-3.27 3.273 3.273 0 0 1-3.27 3.274zm0 0" class="cls-1" data-name="Path 2" transform="translate(-112.555 -112.555)"/>
        <path id="Path_3" d="M359.206 66.285a1.23 1.23 0 1 0 1.23 1.23 1.231 1.231 0 0 0-1.23-1.23zm0 1.567a.337.337 0 1 1 .338-.337.338.338 0 0 1-.338.337zm0 0" class="cls-1" data-name="Path 3" transform="translate(-347.335 -64.315)"/>
    </g>
</svg>
