<svg xmlns="http://www.w3.org/2000/svg" width="8.639" height="15.221" viewBox="0 0 8.639 15.221">
    <defs>
        <style>
            .cls-1{fill:#fff}
        </style>
    </defs>
    <path id="facebook" d="M5.836 15.221H3.4a.739.739 0 0 1-.738-.738v-5.5H1.238A.739.739 0 0 1 .5 8.246V5.89a.739.739 0 0 1 .738-.738H2.66v-1.18a4.017 4.017 0 0 1 1.062-2.877A3.826 3.826 0 0 1 6.543 0H8.4a.739.739 0 0 1 .737.738v2.191a.739.739 0 0 1-.738.738h-1.25c-.382 0-.479.077-.5.1-.034.039-.075.149-.075.453v.932h1.733a.75.75 0 0 1 .365.093.741.741 0 0 1 .38.646v2.355a.739.739 0 0 1-.738.738H6.575v5.5a.739.739 0 0 1-.739.737zm-2.283-.892h2.13V8.585a.494.494 0 0 1 .493-.493h1.983V6.044H6.175a.493.493 0 0 1-.493-.493V4.22a1.52 1.52 0 0 1 .3-1.043 1.512 1.512 0 0 1 1.168-.4h1.1V.9h-1.7a2.817 2.817 0 0 0-2.99 3.08v1.572a.494.494 0 0 1-.493.493H1.392v2.047H3.06a.493.493 0 0 1 .493.493zM8.4.9zm0 0" class="cls-1" transform="translate(-.5)"/>
</svg>
