<svg xmlns="http://www.w3.org/2000/svg" width="20.396" height="15.521" viewBox="0 0 20.396 15.521">
    <defs>
        <style>
            .cls-1{fill:#fff;stroke:#212830;stroke-width:.3px}
        </style>
    </defs>
    <g id="youtube" transform="translate(.15 .15)">
        <path id="Path_4" d="M196.592 109.054l-4.44-2.429a.815.815 0 0 0-1.207.715v4.817a.814.814 0 0 0 1.2.718l4.44-2.387a.815.815 0 0 0 .005-1.434zm-4.469 2.5v-3.6l3.318 1.816zm0 0" class="cls-1" data-name="Path 4" transform="translate(-183.451 -102.342)"/>
        <path id="Path_5" d="M19.948 3.592v-.009a4.6 4.6 0 0 0-.886-2.332A3.27 3.27 0 0 0 16.9.235l-.1-.011h-.035C14.1.027 10.092 0 10.051 0h-.007C10 0 5.992.027 3.311.22h-.035l-.094.015a3.188 3.188 0 0 0-2.153 1.047 4.816 4.816 0 0 0-.879 2.29v.021C.142 3.66 0 5.262 0 6.871v1.5c0 1.609.142 3.211.148 3.278v.01a4.551 4.551 0 0 0 .882 2.3 3.337 3.337 0 0 0 2.238 1c.082.009.152.017.2.026l.048.015c1.534.146 6.343.218 6.547.221h.012c.04 0 4.052-.027 6.709-.22h.035l.113-.013a3.114 3.114 0 0 0 2.135-1.021 4.816 4.816 0 0 0 .879-2.29v-.021c.006-.067.148-1.67.148-3.278v-1.5c.006-1.616-.14-3.218-.146-3.286zm-1.03 4.782c0 1.489-.13 3.022-.142 3.163a3.739 3.739 0 0 1-.578 1.631 1.937 1.937 0 0 1-1.39.645l-.125.014c-2.57.186-6.43.214-6.608.215-.2 0-4.939-.075-6.426-.214a6.203 6.203 0 0 0-.245-.032 2.2 2.2 0 0 1-1.504-.627l-.011-.012a3.392 3.392 0 0 1-.566-1.615c-.009-.106-.143-1.658-.143-3.168v-1.5c0-1.487.13-3.019.142-3.162A3.663 3.663 0 0 1 1.9 2.076 2.032 2.032 0 0 1 3.317 1.4l.1-.011c2.607-.187 6.5-.214 6.635-.216s4.027.029 6.61.216l.1.012a2.109 2.109 0 0 1 1.442.653v.005a3.447 3.447 0 0 1 .571 1.641c.009.1.143 1.655.143 3.168zm0 0" class="cls-1" data-name="Path 5"/>
    </g>
</svg>
