<svg xmlns="http://www.w3.org/2000/svg" width="15.221" height="12.566" viewBox="0 0 15.221 12.566">
    <defs>
        <style>
            .cls-1{fill:#fff}
        </style>
    </defs>
    <path id="twitter" d="M5.792 12.566c-2.54 0-4.548-.444-5.509-1.217l-.019-.015-.017-.017a.781.781 0 0 1-.2-.822l.009-.024a.8.8 0 0 1 .726-.5 6.559 6.559 0 0 0 1.734-.239 3.292 3.292 0 0 1-1.735-2 .711.711 0 0 1 .244-.832.725.725 0 0 1 .216-.111 4.8 4.8 0 0 1-.984-1.765L.251 5v-.02a.74.74 0 0 1 .339-.79.737.737 0 0 1 .351-.1 3.711 3.711 0 0 1-.28-.855 3.579 3.579 0 0 1 .38-2.384l.094-.189a.526.526 0 0 1 .844-.137L2.151.7A8.116 8.116 0 0 0 6.83 3.26a3.728 3.728 0 0 1 1.007-2.149A3.531 3.531 0 0 1 10.357 0h.006a5.05 5.05 0 0 1 2.084.678C12.9.532 13.437.3 14 .064a.708.708 0 0 1 .789.136.7.7 0 0 1 .151.764q-.061.17-.138.334a.709.709 0 0 1 .206.142.766.766 0 0 1 .19.715l-.007.024a2.92 2.92 0 0 1-1.173 1.61c-.091 4.859-3.746 8.777-8.226 8.777zm-4.653-1.715a10.514 10.514 0 0 0 4.653.822 6.97 6.97 0 0 0 5.167-2.351 8.422 8.422 0 0 0 2.169-5.715v-.024a.526.526 0 0 1 .281-.465 1.9 1.9 0 0 0 .82-.908.526.526 0 0 1-.507-.829 2.9 2.9 0 0 0 .2-.315c-.484.2-.944.386-1.343.507a.571.571 0 0 1-.439-.047 4.349 4.349 0 0 0-1.773-.633A2.775 2.775 0 0 0 7.7 3.7a.527.527 0 0 1-.628.517 9.228 9.228 0 0 1-5.359-2.7 2.635 2.635 0 0 0-.174 1.541 3.257 3.257 0 0 0 .773 1.5.526.526 0 0 1-.531.856 2.411 2.411 0 0 1-.491-.189A4.447 4.447 0 0 0 2.812 7a.526.526 0 0 1-.337.959 2.367 2.367 0 0 1-.7-.151 2.4 2.4 0 0 0 1.917 1.357.526.526 0 0 1 .157.984 6.325 6.325 0 0 1-2.71.702zm0 0" class="cls-1"/>
</svg>
