<svg xmlns="http://www.w3.org/2000/svg" width="52.713" height="57.751" viewBox="0 0 52.713 57.751">
  <g id="Group_86" data-name="Group 86" transform="translate(0 0.35)">
    <path id="Path_127" data-name="Path 127" d="M32.707,27.958a.849.849,0,0,0,.6.249h.034a.847.847,0,0,0,.613-.3L53.065,5.475A2.715,2.715,0,0,0,51,1H48.6a2.713,2.713,0,0,0-2.037.921L28.419,22.543a.85.85,0,0,0,.037,1.163l1.6,1.6-2.7,3.151-2.7-3.151,1.6-1.6a.85.85,0,0,0,.037-1.163L8.147,1.922A2.715,2.715,0,0,0,6.109,1H3.715A2.715,2.715,0,0,0,1.648,5.475l19.11,22.433a.851.851,0,0,0,.613.3h.034a.849.849,0,0,0,.6-.249l1.444-1.444,2.787,3.251-15.083,17.6L7.2,43.408a2.532,2.532,0,0,0-1.8-.747H5.251a2.562,2.562,0,0,0-2.041,1.02l-1.7,2.268A2.566,2.566,0,0,0,1,47.478v.258a2.558,2.558,0,0,0,1.068,2.075l4.334,3.1a4.321,4.321,0,0,0,5.568-.461L13.5,50.913a.849.849,0,0,0,0-1.2l-1.144-1.144,15-17.5,15,17.5-1.144,1.144a.849.849,0,0,0,0,1.2l1.534,1.534a4.321,4.321,0,0,0,5.568.461l4.334-3.1a2.555,2.555,0,0,0,1.068-2.075v-.258a2.566,2.566,0,0,0-.51-1.53l-1.7-2.268a2.562,2.562,0,0,0-2.041-1.02h-.145a2.535,2.535,0,0,0-1.8.747l-3.953,3.953-15.083-17.6,2.787-3.251ZM21.455,26.1,2.943,4.373A1.014,1.014,0,0,1,3.715,2.7H6.109a1.014,1.014,0,0,1,.762.344L24.491,23.069ZM10.768,51.245a2.672,2.672,0,0,1-3.378.279l-4.334-3.1a.851.851,0,0,1-.356-.691v-.258a.855.855,0,0,1,.17-.51l1.7-2.268a.853.853,0,0,1,.68-.34H5.4a.846.846,0,0,1,.6.249l5.7,5.7ZM48.715,44.61a.846.846,0,0,1,.6-.249h.145a.853.853,0,0,1,.68.34l1.7,2.268a.855.855,0,0,1,.17.51v.258a.853.853,0,0,1-.355.691l-4.334,3.1a2.672,2.672,0,0,1-3.378-.279l-.933-.933ZM47.843,3.044A1.013,1.013,0,0,1,48.6,2.7H51a1.014,1.014,0,0,1,.772,1.672L33.258,26.1l-3.036-3.035Z" transform="translate(-1 3.689)" fill="#fff"/>
    <g id="world" transform="translate(17.319 0)">
      <g id="Group_85" data-name="Group 85" transform="translate(0 0)">
        <path id="Path_128" data-name="Path 128" d="M17.928,5.96A9.27,9.27,0,0,0,6.746.349l-.012,0A9.209,9.209,0,0,0,1.3,4.541a.31.31,0,0,0-.041.117A2.973,2.973,0,0,0,.9,5.3l-.023.05a9.259,9.259,0,0,0,14.234,11.1.306.306,0,0,0,.31-.189.315.315,0,0,0,.016-.089A9.257,9.257,0,0,0,17.928,5.96ZM6.7,1.009a2.285,2.285,0,0,0,1.659.838,3.806,3.806,0,0,0,.53-.023,1.269,1.269,0,0,1,.844.1.39.39,0,0,1,.2.4,1.013,1.013,0,0,1-.271.317,1.016,1.016,0,0,0-.446.834.712.712,0,0,0,.3.515,1.105,1.105,0,0,0,.867.157,2.811,2.811,0,0,0,.481-.174,1.858,1.858,0,0,1,.443-.152,1.841,1.841,0,0,1,1.205.5c.206.149.541.43.472.644-.053.164-.253.282-.464.408-.085.05-.169.1-.266.167a4.857,4.857,0,0,1-1.115.632,4.129,4.129,0,0,1-.459.124,2.772,2.772,0,0,0-.917.335,1.21,1.21,0,0,0-.456,1.308L9.282,7.93c-.053-.022-.1-.046-.157-.071a1.02,1.02,0,0,0-1.589.9,1.966,1.966,0,0,0,.984,1.507l.152.121a1.858,1.858,0,0,1,.26.3Q8,10.443,7.064,10.216A1.9,1.9,0,0,1,5.8,9.545a1.929,1.929,0,0,1-.166-.555,2.054,2.054,0,0,0-.314-.856A2.113,2.113,0,0,0,4.1,7.462l-.057-.016c-.464-.138-.719-.3-.8-.522A1.263,1.263,0,0,1,3.372,6.1,1.962,1.962,0,0,0,3.54,4.925a1.035,1.035,0,0,0-.555-.7A1.23,1.23,0,0,0,2.45,4.11c-.039,0-.079,0-.12,0A8.572,8.572,0,0,1,6.7,1.009ZM7.973,17.8l0,0a3.918,3.918,0,0,1-.353-.221,1.026,1.026,0,0,1-.47-.7,1.211,1.211,0,0,1,.176-.526,2.022,2.022,0,0,0,.152-.462.946.946,0,0,1,.155-.4,1.011,1.011,0,0,1,.313-.194,2.027,2.027,0,0,0,.367-.211,2.353,2.353,0,0,0,.6-.719c.073-.128.136-.267.2-.4a2.26,2.26,0,0,1,.341-.6c.31-.326.92-.084,1.167.034a4.718,4.718,0,0,1,1.283.852l.036.037a14.206,14.206,0,0,0,1.276,1.193,5.449,5.449,0,0,0,1.212.708A8.633,8.633,0,0,1,7.973,17.8Zm7-2.055A5.366,5.366,0,0,1,13.606,15a13.732,13.732,0,0,1-1.221-1.142l-.036-.036a5.237,5.237,0,0,0-1.455-.975,1.565,1.565,0,0,0-1.885.1,2.707,2.707,0,0,0-.456.769c-.055.122-.109.242-.169.348a1.76,1.76,0,0,1-.441.535,1.494,1.494,0,0,1-.259.145,1.531,1.531,0,0,0-.5.336,1.446,1.446,0,0,0-.3.677,1.528,1.528,0,0,1-.1.322,1.743,1.743,0,0,0-.246.812,1.238,1.238,0,0,0,.19.635A8.654,8.654,0,0,1,1.437,5.61l.024-.051a1.873,1.873,0,0,1,.37-.6.641.641,0,0,1,.2-.134,1.065,1.065,0,0,1,.424-.093.611.611,0,0,1,.263.053.423.423,0,0,1,.225.3,1.478,1.478,0,0,1-.149.8,1.759,1.759,0,0,0-.128,1.26,1.714,1.714,0,0,0,1.207.9l.062.017A1.649,1.649,0,0,1,4.82,8.5a1.555,1.555,0,0,1,.2.609,2.451,2.451,0,0,0,.232.736,2.4,2.4,0,0,0,1.665.97q1.011.245,2.023.5a.647.647,0,0,0,.417-.005.471.471,0,0,0,.295-.367c.071-.469-.577-1.033-.588-1.041L8.9,9.777c-.384-.3-.747-.586-.747-1.022a.458.458,0,0,1,.268-.426c.115-.048.212-.013.437.093.062.029.124.058.181.081a.642.642,0,0,0,.737-.093.628.628,0,0,0,.149-.537c-.051-.413-.031-.583.177-.718a2.279,2.279,0,0,1,.721-.25,4.686,4.686,0,0,0,.526-.145,5.5,5.5,0,0,0,1.279-.721c.062-.044.133-.085.205-.128a1.452,1.452,0,0,0,.739-.749c.146-.448-.089-.9-.7-1.338a2.383,2.383,0,0,0-1.656-.609,2.342,2.342,0,0,0-.6.2,2.33,2.33,0,0,1-.376.139.493.493,0,0,1-.364-.057c-.045-.033-.048-.059-.049-.068-.007-.081.093-.18.248-.323a1.453,1.453,0,0,0,.437-.568A.991.991,0,0,0,10.063,1.4a1.827,1.827,0,0,0-1.23-.192,3.185,3.185,0,0,1-.444.021,1.686,1.686,0,0,1-1-.4,8.638,8.638,0,0,1,7.593,14.921Z" transform="translate(-0.013 0)" fill="#fff" stroke="#fff" stroke-width="0.7"/>
      </g>
    </g>
  </g>
</svg>
