<svg xmlns="http://www.w3.org/2000/svg" width="47.78" height="60.782" viewBox="0 0 47.78 60.782">
    <defs>
        <style>
            .cls-1{fill:#fff;stroke:#212830;stroke-width:.3px}
        </style>
    </defs>
    <g id="premium" transform="translate(.166 .156)">
        <g id="Group_236" data-name="Group 236">
            <g id="Group_235" data-name="Group 235">
                <path id="Path_215" d="M103.461 56.274l-9.215-15.961 2.99-1.44a.892.892 0 0 0 .483-.605l1.059-4.639 2.967-3.72a.891.891 0 0 0 .172-.755l-1.059-4.639 1.059-4.639a.891.891 0 0 0-.172-.755L98.778 15.4l-1.059-4.639a.892.892 0 0 0-.483-.605l-4.287-2.062-2.967-3.72a.892.892 0 0 0-.7-.336h-4.755L80.24 1.973a.892.892 0 0 0-.774 0l-4.287 2.065h-4.758a.891.891 0 0 0-.7.336l-2.967 3.72-4.284 2.064a.892.892 0 0 0-.483.605L60.929 15.4l-2.967 3.72a.891.891 0 0 0-.172.755l1.059 4.639-1.059 4.64a.891.891 0 0 0 .172.755l2.967 3.72 1.059 4.639a.892.892 0 0 0 .483.605l2.99 1.44-9.216 15.961a.9.9 0 0 0 1 1.308l5.637-1.51 1.518 5.636a.9.9 0 0 0 1.634.215l9.638-16.694 3.8 1.829a.9.9 0 0 0 .774 0l3.8-1.829 9.639 16.694a.9.9 0 0 0 1.634-.215l1.511-5.637 5.637 1.51a.9.9 0 0 0 .994-1.307zm-37.9 2.892l-1.184-4.419a.9.9 0 0 0-1.093-.631L58.867 55.3l8.124-14.07 2.733 3.427a.892.892 0 0 0 .7.336h3.324zM83.937 43.3l-4.083 1.966L75.77 43.3a.891.891 0 0 0-.387-.088h-4.532l-2.826-3.543a.889.889 0 0 0-.31-.247l-4.083-1.966-1.008-4.419a.888.888 0 0 0-.172-.358l-2.826-3.543 1.008-4.418a.89.89 0 0 0 0-.4L59.625 19.9l2.826-3.543a.891.891 0 0 0 .172-.357l1.008-4.419 4.083-1.966a.888.888 0 0 0 .31-.247l2.826-3.543h4.532a.893.893 0 0 0 .387-.088l4.083-1.967 4.083 1.966a.891.891 0 0 0 .387.088h4.532l2.826 3.543a.889.889 0 0 0 .31.247l4.083 1.966L97.084 16a.888.888 0 0 0 .172.358l2.826 3.543-1.008 4.418a.889.889 0 0 0 0 .4l1.008 4.418-2.826 3.543a.891.891 0 0 0-.172.358l-1.008 4.419-4.083 1.966a.888.888 0 0 0-.31.247l-2.826 3.543h-4.534a.9.9 0 0 0-.386.087zm12.484 10.817a.9.9 0 0 0-1.093.631l-1.184 4.419-8.182-14.173h3.324a.891.891 0 0 0 .7-.336l2.733-3.427 8.12 14.069z" class="cls-1" data-name="Path 215" transform="translate(-56.128 -1.885)"/>
            </g>
        </g>
        <g id="Group_238" data-name="Group 238" transform="translate(6.658 5.563)">
            <g id="Group_237" data-name="Group 237">
                <path id="Path_216" d="M141.144 53.546a.892.892 0 1 0-1.239 1.283 15.241 15.241 0 1 1-3.422-2.494.892.892 0 1 0 .841-1.573 17.087 17.087 0 1 0 3.82 2.784z" class="cls-1" data-name="Path 216" transform="translate(-112.219 -48.754)"/>
            </g>
        </g>
        <g id="Group_240" data-name="Group 240" transform="translate(11.416 13.175)">
            <g id="Group_239" data-name="Group 239">
                <path id="Path_217" d="M176.738 117.042l-2.854-3.806a.892.892 0 0 0-.714-.357h-17.127a.892.892 0 0 0-.714.357l-2.854 3.806a.9.9 0 0 0-.178.535v3.806a.9.9 0 0 0 .215.581l11.412 13.314a.9.9 0 0 0 1.365 0l11.411-13.314a.9.9 0 0 0 .215-.581v-3.806a.9.9 0 0 0-.177-.535zm-4.014-2.379l1.516 2.022h-3.479l-1.516-2.022zm-3.3 3.806v2.022h-9.634v-2.022zm-7.225-3.806h4.817l1.516 2.022h-7.85zm-5.709 0h3.479l-1.516 2.022h-3.479zm-2.408 3.806h3.925v2.022h-3.925zm1.047 3.806h3.181l3.181 7.423zm9.478 10.164l-4.356-10.164h8.712zm3.116-2.741l3.181-7.423h3.181zm7.41-9.207h-3.925v-2.022h3.925z" class="cls-1" data-name="Path 217" transform="translate(-152.297 -112.879)"/>
            </g>
        </g>
    </g>
</svg>
