<svg xmlns="http://www.w3.org/2000/svg" width="53.807" height="61.014" viewBox="0 0 53.807 61.014">
    <defs>
        <style>
            .cls-1{fill:#fff;stroke:#212830;stroke-width:1.5px}
        </style>
    </defs>
    <g id="like" transform="translate(.75 .75)">
        <g id="Group_226" data-name="Group 226" transform="translate(0 10.578)">
            <g id="Group_225" data-name="Group 225">
                <path id="Path_211" d="M81.971 117.27a5.228 5.228 0 0 0-3.9-8.718H67.924a33.808 33.808 0 0 0 1.434-8.835v-1.743A6.983 6.983 0 0 0 62.384 91h-1.743a1.743 1.743 0 0 0-1.691 1.32l-.95 3.8c-1.331 5.321-5.556 11.193-9.929 12.26a5.238 5.238 0 0 0-4.866-3.315H32.744A1.744 1.744 0 0 0 31 106.808v31.384a1.744 1.744 0 0 0 1.744 1.744H43.2a5.236 5.236 0 0 0 4.722-2.982l5.991 2a19.137 19.137 0 0 0 6.065.985h14.611a5.232 5.232 0 0 0 4.863-7.158 5.228 5.228 0 0 0 2.519-8.534 5.22 5.22 0 0 0 0-6.974zm-37.022 17.435a1.746 1.746 0 0 1-1.744 1.744h-8.718v-27.9H43.2a1.746 1.746 0 0 1 1.744 1.744zm29.641-15.692h3.487a1.744 1.744 0 1 1 0 3.487h-3.488a1.744 1.744 0 1 0 0 3.487h3.487a1.744 1.744 0 1 1 0 3.487h-3.487a1.744 1.744 0 1 0 0 3.487 1.744 1.744 0 1 1 0 3.487H59.983a15.658 15.658 0 0 1-4.963-.806l-6.584-2.195v-21.573c2.735-.52 5.412-2.252 7.829-5.087a25.441 25.441 0 0 0 5.118-9.821L62 94.487h.382a3.491 3.491 0 0 1 3.487 3.487v1.742a27.59 27.59 0 0 1-1.669 8.835h-3.559a1.744 1.744 0 1 0 0 3.487h17.435a1.744 1.744 0 1 1 0 3.487h-3.487a1.744 1.744 0 1 0 0 3.487z" class="cls-1" data-name="Path 211" transform="translate(-31 -91)"/>
            </g>
        </g>
        <g id="Group_228" data-name="Group 228" transform="translate(6.986 49.162)">
            <g id="Group_227" data-name="Group 227">
                <circle id="Ellipse_23" cx="1.5" cy="1.5" r="1.5" class="cls-1" data-name="Ellipse 23" transform="translate(.07 .212)"/>
            </g>
        </g>
        <g id="Group_230" data-name="Group 230" transform="translate(31.384)">
            <g id="Group_229" data-name="Group 229">
                <path id="Path_212" d="M302.744 0A1.744 1.744 0 0 0 301 1.744v3.6a1.744 1.744 0 1 0 3.487 0v-3.6A1.744 1.744 0 0 0 302.744 0z" class="cls-1" data-name="Path 212" transform="translate(-301)"/>
            </g>
        </g>
        <g id="Group_232" data-name="Group 232" transform="translate(20.288 4.712)">
            <g id="Group_231" data-name="Group 231">
                <path id="Path_213" d="M210.983 43.518l-2.466-2.466a1.744 1.744 0 0 0-2.466 2.466l2.466 2.466a1.744 1.744 0 1 0 2.466-2.466z" class="cls-1" data-name="Path 213" transform="translate(-205.54 -40.542)"/>
            </g>
        </g>
        <g id="Group_234" data-name="Group 234" transform="translate(40.014 4.712)">
            <g id="Group_233" data-name="Group 233">
                <path id="Path_214" d="M380.689 41.052a1.744 1.744 0 0 0-2.466 0l-2.466 2.466a1.744 1.744 0 0 0 2.466 2.466l2.466-2.466a1.744 1.744 0 0 0 0-2.466z" class="cls-1" data-name="Path 214" transform="translate(-375.247 -40.542)"/>
            </g>
        </g>
    </g>
</svg>
