<svg xmlns="http://www.w3.org/2000/svg" xmlns:xlink="http://www.w3.org/1999/xlink" viewBox="0 0 639 726">
  <defs>
    <linearGradient id="b" x1="23.06%" x2="78.34%" y1="0%" y2="100%">
      <stop offset="0%" stop-color="#FF4361"/>
      <stop offset="100%" stop-color="#B44DFF"/>
    </linearGradient>
    <path id="a" d="M342.42 7.08L616.1 165.19a45.81 45.81 0 0 1 22.9 39.67v316.28a45.81 45.81 0 0 1-22.9 39.67L342.42 718.92a45.81 45.81 0 0 1-45.84 0L22.9 560.81A45.81 45.81 0 0 1 0 521.14V204.86a45.81 45.81 0 0 1 22.9-39.67L296.58 7.08a45.81 45.81 0 0 1 45.84 0z"/>
  </defs>
  <use fill="url(#b)" fill-rule="evenodd" transform="matrix(-1 0 0 1 639 0)" xlink:href="#a"/>
</svg>
