<svg xmlns="http://www.w3.org/2000/svg" width="18.789" height="12.117" viewBox="0 0 18.789 12.117">
  <g id="technology" transform="translate(0 -90.907)">
    <g id="Group_947" data-name="Group 947" transform="translate(0 90.907)">
      <g id="Group_946" data-name="Group 946" transform="translate(0 0)">
        <path id="Path_557" data-name="Path 557" d="M17.674,90.907H1.116A1.1,1.1,0,0,0,0,92.023v9.886a1.117,1.117,0,0,0,1.116,1.116H17.674a1.117,1.117,0,0,0,1.116-1.116V92.023A1.117,1.117,0,0,0,17.674,90.907Zm-.223,10.778H1.339V92.246H17.45v9.439Z" transform="translate(0 -90.907)" fill="#fff"/>
      </g>
    </g>
    <g id="Group_949" data-name="Group 949" transform="translate(5.914 98.963)">
      <g id="Group_948" data-name="Group 948" transform="translate(0 0)">
        <rect id="Rectangle_896" data-name="Rectangle 896" width="6.962" height="1.339" fill="#fff"/>
      </g>
    </g>
    <g id="Group_951" data-name="Group 951" transform="translate(2.7 93.585)">
      <g id="Group_950" data-name="Group 950" transform="translate(0 0)">
        <rect id="Rectangle_897" data-name="Rectangle 897" width="2.611" height="1.339" fill="#fff"/>
      </g>
    </g>
    <g id="Group_953" data-name="Group 953" transform="translate(6.293 93.585)">
      <g id="Group_952" data-name="Group 952" transform="translate(0 0)">
        <rect id="Rectangle_898" data-name="Rectangle 898" width="2.611" height="1.339" fill="#fff"/>
      </g>
    </g>
    <g id="Group_955" data-name="Group 955" transform="translate(9.886 93.585)">
      <g id="Group_954" data-name="Group 954" transform="translate(0 0)">
        <rect id="Rectangle_899" data-name="Rectangle 899" width="2.611" height="1.339" fill="#fff"/>
      </g>
    </g>
    <g id="Group_957" data-name="Group 957" transform="translate(13.478 93.585)">
      <g id="Group_956" data-name="Group 956" transform="translate(0 0)">
        <rect id="Rectangle_900" data-name="Rectangle 900" width="2.611" height="1.339" fill="#fff"/>
      </g>
    </g>
    <g id="Group_959" data-name="Group 959" transform="translate(2.7 96.397)">
      <g id="Group_958" data-name="Group 958" transform="translate(0 0)">
        <rect id="Rectangle_901" data-name="Rectangle 901" width="2.611" height="1.339" fill="#fff"/>
      </g>
    </g>
    <g id="Group_961" data-name="Group 961" transform="translate(6.293 96.397)">
      <g id="Group_960" data-name="Group 960" transform="translate(0 0)">
        <rect id="Rectangle_902" data-name="Rectangle 902" width="2.611" height="1.339" fill="#fff"/>
      </g>
    </g>
    <g id="Group_963" data-name="Group 963" transform="translate(9.886 96.397)">
      <g id="Group_962" data-name="Group 962" transform="translate(0 0)">
        <rect id="Rectangle_903" data-name="Rectangle 903" width="2.611" height="1.339" fill="#fff"/>
      </g>
    </g>
    <g id="Group_965" data-name="Group 965" transform="translate(13.478 96.397)">
      <g id="Group_964" data-name="Group 964" transform="translate(0 0)">
        <rect id="Rectangle_904" data-name="Rectangle 904" width="2.611" height="1.339" fill="#fff"/>
      </g>
    </g>
  </g>
</svg>
