<svg xmlns="http://www.w3.org/2000/svg" width="16.145" height="16.438" viewBox="0 0 16.145 16.438">
  <g id="arrows" transform="translate(12.266) rotate(73)">
    <path id="Path_481" data-name="Path 481" d="M6.634,17.915A6.632,6.632,0,0,1,1.837,6.7l-.382-.858c-.211-.474.093-.808.679-.747l3.433.36c.586.061.781.5.435.974L3.973,9.224c-.346.477-.774.534-.955.127L2.69,8.615a4.762,4.762,0,1,0,8.087.309A.934.934,0,1,1,12.4,8a6.635,6.635,0,0,1-5.766,9.916Z" transform="translate(0 -5.089)" fill="#4e4e4e"/>
  </g>
</svg>
