<svg xmlns="http://www.w3.org/2000/svg" width="17.397" height="16.508" viewBox="0 0 17.397 16.508">
  <g id="color-wheel_1_" data-name="color-wheel(1)" transform="translate(-36.89 -48)" opacity="0.337">
    <path id="Path_683" data-name="Path 683" d="M306.5,98.825l2.481-1.432a7.647,7.647,0,0,0-3.533-2.966l-.98,2.692A4.794,4.794,0,0,1,306.5,98.825Z" transform="translate(-256.952 -44.584)" fill="#fff"/>
    <path id="Path_684" data-name="Path 684" d="M66.886,187.046a4.8,4.8,0,0,1-.028-.513,4.735,4.735,0,0,1,.489-2.1L64.868,183A7.623,7.623,0,0,0,64,186.533a7.7,7.7,0,0,0,.066,1.009Z" transform="translate(-26.034 -129.641)" fill="#fff"/>
    <path id="Path_685" data-name="Path 685" d="M40.962,300.67l-4.072.718a8.9,8.9,0,0,0,2.743,4.747l2.659-3.168A4.765,4.765,0,0,1,40.962,300.67Z" transform="translate(0 -242.639)" fill="#fff"/>
    <path id="Path_686" data-name="Path 686" d="M138.817,371.022a7.628,7.628,0,0,0,4.334,1.577v-2.862a4.737,4.737,0,0,1-2.493-.909Z" transform="translate(-97.881 -308.092)" fill="#fff"/>
    <path id="Path_687" data-name="Path 687" d="M98.368,97.124l-.98-2.692A7.647,7.647,0,0,0,93.855,97.4l2.481,1.432A4.794,4.794,0,0,1,98.368,97.124Z" transform="translate(-54.704 -44.589)" fill="#fff"/>
    <path id="Path_688" data-name="Path 688" d="M264,369.734V372.6a7.628,7.628,0,0,0,4.334-1.577l-1.841-2.194A4.737,4.737,0,0,1,264,369.734Z" transform="translate(-218.094 -308.089)" fill="#fff"/>
    <path id="Path_689" data-name="Path 689" d="M189.675,52.129a4.751,4.751,0,0,1,1.327.188l1.415-3.886a8.939,8.939,0,0,0-5.484,0l1.415,3.886A4.751,4.751,0,0,1,189.675,52.129Z" transform="translate(-144.087)" fill="#fff"/>
    <path id="Path_690" data-name="Path 690" d="M160.257,172.129a4.129,4.129,0,1,0-4.129,4.129A4.129,4.129,0,0,0,160.257,172.129Zm-4.129,2.858a2.858,2.858,0,1,1,2.858-2.858A2.858,2.858,0,0,1,156.129,174.987Z" transform="translate(-110.54 -115.236)" fill="#fff"/>
    <circle id="Ellipse_58" data-name="Ellipse 58" cx="2.223" cy="2.223" r="2.223" transform="translate(43.365 54.669)" fill="#fff"/>
    <path id="Path_691" data-name="Path 691" d="M339.05,302.967l2.659,3.168a8.9,8.9,0,0,0,2.743-4.747l-4.072-.718A4.766,4.766,0,0,1,339.05,302.967Z" transform="translate(-290.165 -242.639)" fill="#fff"/>
    <path id="Path_692" data-name="Path 692" d="M364.164,186.505a4.794,4.794,0,0,1-.028.513l2.819.5a7.715,7.715,0,0,0,.067-1.01,7.624,7.624,0,0,0-.868-3.534l-2.479,1.433A4.735,4.735,0,0,1,364.164,186.505Z" transform="translate(-313.812 -129.613)" fill="#fff"/>
  </g>
</svg>
