<svg id="interface_1_" data-name="interface(1)" xmlns="http://www.w3.org/2000/svg" width="13.485" height="14.711" viewBox="0 0 13.485 14.711">
  <path id="Path_585" data-name="Path 585" d="M5.363,115.556a2.608,2.608,0,0,1-2.605-2.605v-6.283H1.686A1.687,1.687,0,0,0,0,108.354v8.275a1.687,1.687,0,0,0,1.686,1.686H9.347a1.687,1.687,0,0,0,1.686-1.686v-1.073Zm0,0" transform="translate(0 -103.603)" fill="#4e4e4e"/>
  <path id="Path_586" data-name="Path 586" d="M137.807,1.686A1.685,1.685,0,0,0,136.121,0h-6.436A1.685,1.685,0,0,0,128,1.686V9.347a1.685,1.685,0,0,0,1.686,1.686h6.436a1.685,1.685,0,0,0,1.686-1.686Zm0,0" transform="translate(-124.322)" fill="#4e4e4e"/>
</svg>
