<svg id="home" xmlns="http://www.w3.org/2000/svg" width="15" height="14" viewBox="0 0 15 14">
  <g id="Group_1001" data-name="Group 1001" transform="translate(0 0)">
    <g id="Group_1000" data-name="Group 1000" transform="translate(0 0)">
      <path id="Path_587" data-name="Path 587" d="M14.748,18.9l-6.73-6.022a.776.776,0,0,0-1.036,0L.252,18.9a.741.741,0,0,0-.2.831.764.764,0,0,0,.717.482H1.845v6.033a.437.437,0,0,0,.441.433H5.975a.437.437,0,0,0,.441-.433V22.579H8.584v3.663a.437.437,0,0,0,.441.433h3.689a.437.437,0,0,0,.441-.433V20.209H14.23a.764.764,0,0,0,.717-.482A.742.742,0,0,0,14.748,18.9Z" transform="translate(0 -12.675)" fill="#4e4e4e"/>
    </g>
  </g>
  <g id="Group_1003" data-name="Group 1003" transform="translate(9.983 0.897)">
    <g id="Group_1002" data-name="Group 1002">
      <path id="Path_588" data-name="Path 588" d="M346.992,42.73h-3.019l3.469,3.154v-2.7A.45.45,0,0,0,346.992,42.73Z" transform="translate(-343.973 -42.73)" fill="#4e4e4e"/>
    </g>
  </g>
</svg>
