<svg id="home" xmlns="http://www.w3.org/2000/svg" width="15.288" height="14.531" viewBox="0 0 15.288 14.531">
  <g id="Group_1001" data-name="Group 1001" transform="translate(0 0)">
    <g id="Group_1000" data-name="Group 1000" transform="translate(0 0)">
      <path id="Path_587" data-name="Path 587" d="M15.031,19.132l-6.859-6.25a.78.78,0,0,0-1.056,0L.257,19.132A.784.784,0,0,0,.785,20.5h1.1v6.262a.45.45,0,0,0,.45.45H6.09a.45.45,0,0,0,.45-.45v-3.8h2.21v3.8a.45.45,0,0,0,.45.45h3.76a.45.45,0,0,0,.45-.45V20.5h1.1a.784.784,0,0,0,.528-1.363Z" transform="translate(0 -12.675)" fill="#4e4e4e"/>
    </g>
  </g>
  <g id="Group_1003" data-name="Group 1003" transform="translate(10.271 0.897)">
    <g id="Group_1002" data-name="Group 1002">
      <path id="Path_588" data-name="Path 588" d="M346.992,42.73h-3.019l3.469,3.154v-2.7A.45.45,0,0,0,346.992,42.73Z" transform="translate(-343.973 -42.73)" fill="#4e4e4e"/>
    </g>
  </g>
</svg>
