<svg xmlns="http://www.w3.org/2000/svg" width="162.234" height="65.413" viewBox="0 0 162.234 65.413">
  <g id="Group_847" data-name="Group 847" transform="translate(71 -202.984)">
    <g id="Group_838" data-name="Group 838" transform="translate(-69.811 204.173)">
      <g id="Virtual_Piano_NEW_LOGO_2020_FINAL_Black" data-name="Virtual Piano, NEW LOGO 2020 FINAL, Black" transform="translate(0)">
        <g id="Group_801" data-name="Group 801" transform="translate(0 0.016)">
          <path id="Path_417" data-name="Path 417" d="M61.849,197.669A14.779,14.779,0,0,1,72.7,201.9a3.828,3.828,0,0,1-.319-1.519,3.16,3.16,0,0,1,.3-1.254c.2-.453.476-.677.839-.677a.862.862,0,0,1,.453.185c.182.124.271.239.271.348a.453.453,0,0,1-.16.348q-.158.144-.364.306a3.747,3.747,0,0,0-.364.329.568.568,0,0,0-.16.412c0,.492.121.741.364.741.211,0,.437-.163.68-.492a2.264,2.264,0,0,0,.271-.616,7.365,7.365,0,0,0,.59,1.232,3.77,3.77,0,0,1,.364,1.315,1.234,1.234,0,0,1-.319.9l-.635.74a14.929,14.929,0,0,1-4.5,21.2l-.271-.658a11.116,11.116,0,0,0,3.224-5.011c0-.549-.2-.766-.59-.658a2.468,2.468,0,0,0-.954.533,2.036,2.036,0,0,1-1.408-2.177q.953-.124,1.092-1.274a2.385,2.385,0,0,1,1.408.7,2.014,2.014,0,0,0-1.5-1.44q-1-.244-1-1.069c0-.108.227-.191.68-.246.364-.054.53-.108.5-.163a1.2,1.2,0,0,0-1.044-.782.874.874,0,0,0-.5.2.852.852,0,0,1-.5.2c-.453,0-.68-.15-.68-.453,0-.412.348-.616,1.044-.616a3.225,3.225,0,0,1,2.815,1.807,8.032,8.032,0,0,1,1.044,3.945c.061-.412.105-.808.137-1.191s.045-.753.045-1.111q-.091-6.325-4.631-9.614a8.5,8.5,0,0,1,.364,2.177,7.861,7.861,0,0,1-7.131,6.984q-5.314,0-8.222-2.547a8.41,8.41,0,0,1-2.681-5.71,34.551,34.551,0,0,1-11.944,2.672q-5.994,0-8.312-3.246a5.573,5.573,0,0,1-.91-3.246,4.151,4.151,0,0,1,2.269-4.108,5.685,5.685,0,0,1-.817-2.917,5.123,5.123,0,0,1,1.363-3.473,4.82,4.82,0,0,1,3.543-1.5,7.009,7.009,0,0,1,3.862.945,3.608,3.608,0,0,1,1.682,3.2q0,3.576-3.042,3.575a2.851,2.851,0,0,1-2.02-.843,2.535,2.535,0,0,1-.884-1.87,2.6,2.6,0,0,1,.115-.657,2.579,2.579,0,0,0,.115-.658c-.029-.329-.2-.453-.5-.37a.533.533,0,0,1-.227.041.209.209,0,0,1-.227-.166q0-1.111.772-.862a1.249,1.249,0,0,1,.817,1.274,2.211,2.211,0,0,1-.182.718,2.23,2.23,0,0,0-.182.718,2.076,2.076,0,0,0,.728,1.478,2.191,2.191,0,0,0,1.634.575,2.674,2.674,0,0,0,1.953-.945,3.638,3.638,0,0,0,.68-1.973,3.337,3.337,0,0,0-1.408-2.547,4.513,4.513,0,0,0-2.908-1.232,5.381,5.381,0,0,0-3.952,1.478,4.6,4.6,0,0,0-.453,5.793,2.591,2.591,0,0,1,1.092-.163,4.573,4.573,0,0,1,2.748.741,3.285,3.285,0,0,1,1.43,2.177c.211.029.418.048.613.061s.4.019.613.019a34.057,34.057,0,0,0,8.356-1.232q2.087-.575,4.133-1.13t4.089-1.13a24.023,24.023,0,0,1,5.768-.782h.185Zm-29.113,2.177a3.515,3.515,0,0,0-2.135,3.533,4.856,4.856,0,0,0,2.952,4.682,17.6,17.6,0,0,0,5.723,1.191,19.4,19.4,0,0,0,8.538-1.478c-.575.054-1.136.089-1.682.1s-1.076.006-1.59-.022a10,10,0,0,1-4.861-1.274,1.37,1.37,0,0,1-.772-1.111c0-.575.319-.891.954-.945.121,0,.182.029.182.083a.436.436,0,0,1-.182.287,1.186,1.186,0,0,0-.227.741,1.076,1.076,0,0,0,.271.575c.182.054.364-.1.546-.453.089-.137.153-.191.182-.163a6.686,6.686,0,0,0,2.815,1.4,1.054,1.054,0,0,1,.227-.76,5.241,5.241,0,0,0,.453-.514,1.5,1.5,0,0,0,.227-.74q2.36,0,2.362,1.315a2.389,2.389,0,0,1-.182.9,14.972,14.972,0,0,0,4.679-.741,6.851,6.851,0,0,1,1.634-4.315,12.02,12.02,0,0,1,3.814-3.122q-2.135.574-4.223,1.149c-1.392.383-2.8.766-4.223,1.149a34.01,34.01,0,0,1-8.583,1.274h-.728a4.063,4.063,0,0,1-.728-.083,2.686,2.686,0,0,1-.772,2.094,2.813,2.813,0,0,1-2.18.782,2.834,2.834,0,0,1-2.225-.7,3.944,3.944,0,0,1-.5-2.3q.68.081.68,1.149a.654.654,0,0,0,.2.431,2.621,2.621,0,0,0,.523.431,3.541,3.541,0,0,0,.635.329,1.621,1.621,0,0,0,.59.124,2.5,2.5,0,0,0,1.634-.6,1.778,1.778,0,0,0,.728-1.417.741.741,0,0,0-.045-.246v-.2A7.973,7.973,0,0,1,32.736,199.846Zm4.542,1.89a3.211,3.211,0,0,0-3.316-2.135c-.061,0-.15.006-.271.019s-.259.035-.409.061A7.867,7.867,0,0,0,37.278,201.735Zm33.428,24.079a19.22,19.22,0,0,0,8.359-15.241,18.758,18.758,0,0,0-2.451-9.86,10.407,10.407,0,0,0-9.493-5.219,22.094,22.094,0,0,0-2.656.185q-1.523.187-3.565.514-2.135.412-3.68.6c-1.031.124-1.877.2-2.544.227a12.144,12.144,0,0,1-5.9-1.4q-3.227-1.6-3.224-3.987a3.152,3.152,0,0,1,1.27-2.343,3.846,3.846,0,0,1,2.5-1.111,8.366,8.366,0,0,1,2.589.575,7.959,7.959,0,0,0,2.633.533,1.707,1.707,0,0,0,1.092-.7c.393-.492.756-.7,1.092-.616a8.926,8.926,0,0,1-.68,2.177q-.819,1.436-3.68,1.478a6.258,6.258,0,0,1-2.407-.492,6.455,6.455,0,0,0-2.317-.574,1.771,1.771,0,0,0-1.136.514,1.108,1.108,0,0,0-.5,1.005,2.959,2.959,0,0,0,1.953,2.014,8.716,8.716,0,0,0,3.632.782q2.724,0,8.174-2.135,5.587-2.178,8.312-2.177A15.092,15.092,0,0,1,80.2,195.987a16.6,16.6,0,0,1,3.862,10.888,19.44,19.44,0,0,1-3.68,11.053,30.77,30.77,0,0,1-8.947,8.34ZM57.671,204.653a39.927,39.927,0,0,0-5.5,2.094v.166a7.324,7.324,0,0,0,4.178,6.7,9.6,9.6,0,0,0,3.224,1.069,2.267,2.267,0,0,0-.5-.82c-.089-.083.211-.354.91-.82a3.9,3.9,0,0,1,1.226-.74q1.044.206.91.82c-.061.329-.105.555-.137.677s-.045.156-.045.1a.543.543,0,0,0,.045.246q1.59-.862,1.59-2.014c0-.163-.128-.341-.386-.533s-.386-.37-.386-.533c0-.329.15-.492.453-.492a.98.98,0,0,1,.705.37,1.071,1.071,0,0,1,.342.7q0,2.135-3.09,3.2h.5a6.817,6.817,0,0,0,4.631-1.973,5.881,5.881,0,0,0,2.225-4.4q0-3.083-3.543-3.9a1.887,1.887,0,0,0-.728,1.4,2.158,2.158,0,0,0,.5,1.315,2.577,2.577,0,0,0,1.181.9q-2.408.081-2.407-2.177a2.387,2.387,0,0,1,.772-1.6,17.586,17.586,0,0,0-3.134-.287,8.53,8.53,0,0,0-.884.061l-1.341.144a1.347,1.347,0,0,0-.182.658,2.227,2.227,0,0,0,.862,1.4,9.993,9.993,0,0,1,1.044,1.028,1.857,1.857,0,0,1,.5,1.232,2.047,2.047,0,0,1-1.909,2.343,2.538,2.538,0,0,1,.115-.616,2.538,2.538,0,0,0,.115-.616q0-.656-1.092-1.4a2.946,2.946,0,0,1-1.044-2.464A4.917,4.917,0,0,1,57.671,204.653Zm8.813-1.561a4.173,4.173,0,0,1,1.452-.287,8.131,8.131,0,0,1,6.859,3.862,12.967,12.967,0,0,0-8.675-7.52,18,18,0,0,0-4.906-.616,8.771,8.771,0,0,0-5.63,2.3,8.965,8.965,0,0,0-3.272,5.011,23.082,23.082,0,0,1,5.723-1.89,5.35,5.35,0,0,1,4.587-2.014A6.708,6.708,0,0,1,66.484,203.092Zm18.893,14.341-.137.246a11.835,11.835,0,0,1-1.59,2.177,24.881,24.881,0,0,1-2.407,2.3,27.819,27.819,0,0,1-5.04,3.45,19.307,19.307,0,0,0,1.976-.986,16.953,16.953,0,0,0,1.794-1.191l3.224-2.547q3.725-3,6.722-3a7.564,7.564,0,0,1,4.813,1.685,5.07,5.07,0,0,1,2.135,4.108,5.306,5.306,0,0,1-2.043,4.354,7.771,7.771,0,0,1-4.951,1.685,2.491,2.491,0,0,1-.59-.042h-.227a6.318,6.318,0,0,0-2.362.492c-.97.466-1.452.986-1.452,1.561,0,.274.287.587.862.945.575.383.833.67.772.862a2.63,2.63,0,0,1-1.612-.453,1.444,1.444,0,0,1-.75-1.232q0-1.561,3.179-2.343a9.426,9.426,0,0,1-4.223-1.89,5.858,5.858,0,0,0-3.272-1.357q-1,0-1,1.274a3.182,3.182,0,0,0,.089.658c-.635,0-.954-.287-.954-.862q0-1.479,1.816-1.519a5.68,5.68,0,0,1,2.771.74c.425.275.833.533,1.226.782s.8.508,1.226.782a7.092,7.092,0,0,0,2,.862q-2.633-1.6-2.633-3.779a4.516,4.516,0,0,1,1.226-3.122,4.118,4.118,0,0,1,3.179-1.4,3.49,3.49,0,0,1,1.3.246,4.194,4.194,0,0,1,1.092.638,3.084,3.084,0,0,1,.772.945,2.444,2.444,0,0,1,.294,1.171q.091,1.192.817,1.191a1.933,1.933,0,0,0,.591-.125,1.117,1.117,0,0,1-1.181.862q-1.183-.081-1.181-.862a2.812,2.812,0,0,1,.115-.638,2.754,2.754,0,0,0,.115-.638,1.912,1.912,0,0,0-1.092-1.519,3.114,3.114,0,0,0-2-.616,3.172,3.172,0,0,0-2.317,1.357,4.075,4.075,0,0,0-1,2.506,3.122,3.122,0,0,0,.342,1.417,3.752,3.752,0,0,0,.91,1.171,4.31,4.31,0,0,0,1.341.782,4.517,4.517,0,0,0,1.59.287,4.7,4.7,0,0,1-1.953-1.478,3.332,3.332,0,0,1-.817-2.094,2.479,2.479,0,0,1,.546-1.478,1.641,1.641,0,0,1,1.363-.741.709.709,0,0,1,.523.287.611.611,0,0,1,.2.492c-.089.383-.348.533-.772.453a1,1,0,0,0-.271-.041.42.42,0,0,1-.182-.041c-.121-.026-.182.013-.182.124,0,.163.137.322.409.472s.364.281.271.389a1.567,1.567,0,0,0-.453,1.232A1.093,1.093,0,0,0,89.65,227.5a1.354,1.354,0,0,0,.91-.575,1.526,1.526,0,0,1,1.092.533c.089.192.182.37.271.533s.182.342.271.533q4-1.025,4-4.848a4.311,4.311,0,0,0-2.091-3.492,7.4,7.4,0,0,0-4.223-1.44q-2.317,0-6.313,2.793l-3.272,2.343q-.862.575-1.749,1.069a13.387,13.387,0,0,1-1.886.862l-1.181-.616a29.607,29.607,0,0,0,9.084-7.52h-.045q.91-1.436,1.794-2.917t1.794-2.917q1.044-1.724,2.065-3.1t1.976-2.486a29.461,29.461,0,0,1,3.316-3.329V202.8a6.7,6.7,0,0,1,1.634-4.191,5.164,5.164,0,0,1,4.041-2.26,13.428,13.428,0,0,0-2.269,4.028c.485-.3.967-.616,1.452-.945s.97-.658,1.452-.986q2.317-1.6,2.362-2.135a.47.47,0,0,0-.137-.287,2.273,2.273,0,0,0-.319-.31,1.389,1.389,0,0,1-.294-.306.305.305,0,0,1-.067-.287.661.661,0,0,1,.728-.491q1,0,1,1.4,0,1.274-2.091,2.63-.637.412-1.385.8t-1.612.76c-.182.054-.182.083,0,.083a1.964,1.964,0,0,0,.59,0c.635-.029,1.082-.048,1.341-.061s.326-.019.2-.019q2.451,0,2.407,1.644-.091,1.317-.59,1.149a.711.711,0,0,1-.409-.246l-.182-.166c.393-.246.546-.492.453-.741-.182-.437-.728-.782-1.634-1.028a3.392,3.392,0,0,0-.954-.163q-2.863,0-2.633,2.423a12.45,12.45,0,0,0,.68,3.2.532.532,0,0,0,.227-.042h.182a3.319,3.319,0,0,1,3.406,2.793,2.981,2.981,0,0,0,.319.718c.15.262.348.568.59.926.061.108.105.191.137.246s.061.109.089.163a.674.674,0,0,1-.409.083q-.819-.124-1.682-2.384-.91-2.1-2.589-2.094h-.089q.5,1.029,1.226,2.528t1.682,3.594a17.843,17.843,0,0,1,1.682,7.15q0,6.7-7.357,11.669-.5.33-1.452.843t-2.362,1.171a21.761,21.761,0,0,0-2.2,1.13c-.622.37-1.143.705-1.567,1.005a12.843,12.843,0,0,0-2.407,2.672l-.954-.2c.061-.22.121-.437.182-.658a10.463,10.463,0,0,0-6.269-4.028,20.977,20.977,0,0,0-2.885-.514q-1.839-.225-4.564-.389a21.67,21.67,0,0,1-8.538-2.3,8.98,8.98,0,0,1-2.269-1.685l-.705.124a2.684,2.684,0,0,1-.3.041q-3.634,0-3.632-2.751a1.994,1.994,0,0,1,.364-1.149.984.984,0,0,1,1.044-.616q.728.043.728.287a3.37,3.37,0,0,1-1.044,1.478c-.271.3-.409.492-.409.575q0,1.479,2.5,1.478a4.868,4.868,0,0,0,.91-.083,6.532,6.532,0,0,1-1.5-4.149,7.254,7.254,0,0,1,.319-2.177h-.319a3.692,3.692,0,0,0-2.544,1.028,5.366,5.366,0,0,0-1.59,2.135,5.183,5.183,0,0,0-.364,1.765q.091,3.7,5.95,5.589a33.218,33.218,0,0,0,10.31,1.478,23.874,23.874,0,0,1,14.4,4.315h-.728a25.256,25.256,0,0,0-13.581-3.658A34.77,34.77,0,0,1,60.215,233q-6.133-2.011-6.132-6.575a5.454,5.454,0,0,1,1.452-3.7,4.665,4.665,0,0,1,3.725-1.644h.546a4.17,4.17,0,0,1,4.223-2.793,4.919,4.919,0,0,1,2.589,1.069,5.1,5.1,0,0,0,2.317,1.111.687.687,0,0,0,.613-.329.777.777,0,0,1,.705-.329,2.185,2.185,0,0,1-.546,1.807,2.291,2.291,0,0,1-1.816.782,4.76,4.76,0,0,1-2-.575c-.635-.354-1.27-.693-1.909-1.005a5.314,5.314,0,0,0-1.771-.555,1.6,1.6,0,0,0-1.452.986q3.313.656,3.316,3.492a6.223,6.223,0,0,1-.227,1.357,34.808,34.808,0,0,0,9.856,1.685,14.685,14.685,0,0,1,10.4,5.589,13.957,13.957,0,0,1,2.135,3.329q1.092-2.135,5.86-4.765a26.935,26.935,0,0,0,3.45-2.32,12.622,12.622,0,0,0,2.362-2.445,7.265,7.265,0,0,0,1.363-4.437,10.248,10.248,0,0,0-.409-2.959c-.061-.163-.182-.472-.364-.926s-.44-1.06-.772-1.829a28.553,28.553,0,0,1-2.091-9.489,17.838,17.838,0,0,0-6.042,4.849,5.123,5.123,0,0,1,2.771-.945,3.148,3.148,0,0,1,1.727.491,1.345,1.345,0,0,1,.5.533.692.692,0,0,1-.137.514.507.507,0,0,1-.409.268c-.153,0-.38-.163-.68-.492a5.916,5.916,0,0,1-.635-.7,7.242,7.242,0,0,0-.409.782c-.089.246-.271.274-.546.083a1.349,1.349,0,0,0-.862-.287,2.772,2.772,0,0,0-1.363.453c.243.029.425.048.546.061s.2.019.227.019c.364.083.559.22.59.412.061.246-.089.453-.453.616a3.245,3.245,0,0,0-1.044.533,1.464,1.464,0,0,0-.227.82c0,.274-.166.412-.5.412a3.858,3.858,0,0,1-1.5-.782,15.669,15.669,0,0,1-1.727,2.26h-.1ZM59.305,203.791a14.7,14.7,0,0,1,1.909-.124,17.348,17.348,0,0,1,3.543.37.578.578,0,0,0,.227-.412q0-.369-.91-.7a8.9,8.9,0,0,0-2.407-.329A3.1,3.1,0,0,0,59.305,203.791Zm3.817,22.024v-.2q0-3.246-2.589-3.738a2.11,2.11,0,0,0-.045.575Q60.575,224.54,63.123,225.815Zm17.348-6.2c.029-.029.089-.089.182-.185s.15-.156.182-.185a25.478,25.478,0,0,0,4.587-8.506,2.668,2.668,0,0,0,.115-.616,3.722,3.722,0,0,0-.022-.7,16.89,16.89,0,0,0-.137-2.464c-.061-.163-.128-.377-.2-.638s-.176-.568-.294-.926c-.061-.137-.045-.2.045-.2q.589,0,1.092,1.6a19.284,19.284,0,0,0-3.543-11.095q-2.317-3.2-2.451-3.492a8.849,8.849,0,0,1-1.318-3.945,21.513,21.513,0,0,0-10.763-2.63,13.359,13.359,0,0,0-3.316.453q-2.226.656-2.225,1.848c0,1.015-.153,1.535-.453,1.561-.153,0-.227-.342-.227-1.028a.724.724,0,0,0-.16-.389.876.876,0,0,1-.16-.514q0-1.23,2.362-2.094a12.087,12.087,0,0,1,4.089-.658A21.778,21.778,0,0,1,78.661,187.6a4.8,4.8,0,0,1,1.816-3.575,5.888,5.888,0,0,1,4.041-1.644,10.061,10.061,0,0,1,3.77.658q2.178.948,2.18,2.506,0,3.864-4.041,3.945-3,.081-3.09-2.094-.134-2.629,2.726-2.63a2.288,2.288,0,0,1,1.5.7,2.424,2.424,0,0,1,.453.7.787.787,0,0,1-.182.741,1.25,1.25,0,0,1-.409-.348c-.153-.179-.348-.4-.59-.677a1.6,1.6,0,0,0-.862-.7,1.927,1.927,0,0,0-1.545.431,1.429,1.429,0,0,0-.364,1.417,2.222,2.222,0,0,0,.728,1.417,2.17,2.17,0,0,0,1.545.6,3.8,3.8,0,0,0,2.407-.9,2.532,2.532,0,0,0,1.226-2.014q0-1.192-1.634-2.26a6.228,6.228,0,0,0-3.361-1.069,5.456,5.456,0,0,0-3.68,1.6,4.583,4.583,0,0,0-1.771,3.367q0,.412,2.225,2.3.5.455,1.226,1.149c.485.466,1.028,1.015,1.634,1.644a10.272,10.272,0,0,1,6.677-2.094c.15,0,.31.006.476.019s.326.035.476.061a6.538,6.538,0,0,1,2.771-3.45,8.516,8.516,0,0,1,4.542-1.357,5.337,5.337,0,0,1,2.451.533,2.065,2.065,0,0,1,1.318,1.807,1.95,1.95,0,0,1-.409,1.171,1.247,1.247,0,0,1-1.044.555c-.7.029-1.076-.067-1.136-.287q-.091-.493,1.136-1.357c.332-.22.5-.383.5-.492,0-.466-.335-.836-1-1.111a4.006,4.006,0,0,0-1.727-.412,6.557,6.557,0,0,0-2.043.412,8.239,8.239,0,0,0-1.861.967,7.645,7.645,0,0,0-1.545,1.417,7.757,7.757,0,0,0-1.092,1.727c.243.054.658.179,1.248.37s1.353.466,2.295.82a13.674,13.674,0,0,0,3.588.782,3.308,3.308,0,0,0,1.953-1.069,5.293,5.293,0,0,1,1.59-1.111,4.932,4.932,0,0,1-2.225,3.9,7.464,7.464,0,0,1-4.542,1.685,11.543,11.543,0,0,1-4.4-1.028,36.031,36.031,0,0,1-6.358,18.162q-.273.369-1.181,1.561t-2.451,3.2a27.769,27.769,0,0,1-4.089,4.52,20.765,20.765,0,0,1-5.177,3.288l-.453-.453a19.356,19.356,0,0,0,7.632-5.959Zm-2.544,24.2a2.883,2.883,0,0,1-.546-1.685,3.86,3.86,0,0,1,1.363-2.793,4.351,4.351,0,0,1,3.042-1.274h.409a2.185,2.185,0,0,1,.409.041l.817.083A10.85,10.85,0,0,0,79.1,237.2a16.438,16.438,0,0,0-4.769.862q-1.135.369-2.269.741t-2.317.74a13.884,13.884,0,0,1-1.657.31c-.562.067-1.143.115-1.749.144a5.463,5.463,0,0,1-2.18-.492c-.849-.412-1.27-.919-1.27-1.519s.271-.849.817-.741c.546.137.817.341.817.616a.561.561,0,0,1-.227.37c-.153.137-.227.246-.227.329q.043.986,2.362.986a18.32,18.32,0,0,0,5.5-1.519,19.123,19.123,0,0,1,6.221-1.478,10.807,10.807,0,0,1,6.221,1.727h.137v.083c0,.083.243.287.728.616.061.054.089.1.089.124l-.817-.412v.041c0-.108-.335-.179-1-.2a2.209,2.209,0,0,0-.409-.042h-.728a6.006,6.006,0,0,0-1.727.246,4.826,4.826,0,0,0-1.452.7,3.233,3.233,0,0,0-1,1.13,3.041,3.041,0,0,0-.364,1.459,3.473,3.473,0,0,0,1.771,2.834,6.123,6.123,0,0,0,3.907,1.191,6.058,6.058,0,0,0,3.09-.945q1.68-1.068,1.727-2.218a1.85,1.85,0,0,0-.16-.926,2.744,2.744,0,0,0-.568-.843,3.808,3.808,0,0,0-.839-.638,1.977,1.977,0,0,0-.977-.268,2.73,2.73,0,0,0-1.7.472,1.554,1.554,0,0,0-.75,1.334,1.362,1.362,0,0,0,.364.82,1.485,1.485,0,0,1,.364.945q0,.943-1.452.945a.78.78,0,0,1,.115-.37.78.78,0,0,0,.115-.37,2.175,2.175,0,0,0-.342-1.047,2.148,2.148,0,0,1-.342-1.005,1.819,1.819,0,0,1,1.136-1.6,5.56,5.56,0,0,1,2.135-.533,3.827,3.827,0,0,1,1.27.2,3.245,3.245,0,0,1,1.066.616,3.164,3.164,0,0,1,.75.926,2.364,2.364,0,0,1,.271,1.13,2.921,2.921,0,0,1-.59,1.807l2.451-1.848a4.969,4.969,0,0,1,2.815-1.111q1.681,0,1.771.862c0,.549-.166.753-.5.616a3.15,3.15,0,0,1-1.5-.862,2.805,2.805,0,0,0-1.452.575l-1.909,1.315a13.963,13.963,0,0,1-4.223,2.135,8.021,8.021,0,0,1-1.909.287Q79.613,246.441,77.926,243.811ZM65.437,204.2a4.527,4.527,0,0,0,.91.246.273.273,0,0,0,.137-.083,2.258,2.258,0,0,0-.182-.144c-.089-.067-.243-.172-.453-.31A1.7,1.7,0,0,1,65.437,204.2Zm3.045,1.108q6.042,3.083,6.042,8.794a15.433,15.433,0,0,1-2.589,9.081q4-3.778,4.041-10.725a7.772,7.772,0,0,0-.271-2.751q-2.451-6.449-7.766-6.451a2.494,2.494,0,0,0-1,.163A5.625,5.625,0,0,1,68.482,205.31Zm11.127-16.476a8.076,8.076,0,0,0,1.181,3.329,27.05,27.05,0,0,0,2.18,2.917l-.137-.287c-.032-.083.137-.329.5-.74.061-.054.128-.125.2-.2s.144-.15.2-.2l.227-.2A14.66,14.66,0,0,0,79.609,188.834Zm4.315,5.9c-.211.179-.469.377-.772.6a14.445,14.445,0,0,1,3.361,6.738,18.373,18.373,0,0,1,.227,3.45,9.584,9.584,0,0,0,.137-1.4A22.685,22.685,0,0,0,84.47,194.3Q84.24,194.464,83.924,194.733Zm1.088,19.413q6.583-9.408,6.949-19.106a13.681,13.681,0,0,0-5.27-1.478,4.142,4.142,0,0,0-1.408.329,16.63,16.63,0,0,1,2.544,8.3A25.81,25.81,0,0,1,85.012,214.145Zm2.135,24.322a8.9,8.9,0,0,1,2.589-2.589,10.079,10.079,0,0,1,4.769-1.931q3.768-.455,5.222-1.931a1.554,1.554,0,0,0,.5-1.028.4.4,0,0,0-.137-.268.418.418,0,0,1-.137-.268c0-.22.166-.329.5-.329q.728,0,.728.7,0,1.355-2.451,2.506a19.973,19.973,0,0,1-4.951,1.478,9.771,9.771,0,0,0-6.176,3.862Zm8.312-34.635a40.707,40.707,0,0,0-3.862,4.252,63.328,63.328,0,0,0-3.814,5.4q4.18-5.257,7.814-6.534Q95.458,205.556,95.459,203.833ZM88.1,238.921a10.065,10.065,0,0,1,6.176-3.45q8.082-1.23,9.266-4.561c.061-.137-.045-.281-.319-.431s-.409-.306-.409-.472c0-.495.255-.741.772-.741.575,0,.833.233.772.7a6.417,6.417,0,0,1-2.407,3.575,6.068,6.068,0,0,1-2.225,1.274l1.226.306q.728.187,1.727.431,1.815.493,1.816,1.519c0,.52-.227.782-.68.782-.121,0-.211-.118-.271-.348a1,1,0,0,0-.227-.472,6,6,0,0,0-4.223-1.644q.043,0-4.36.492a8.056,8.056,0,0,0-3.5,1.149,19.525,19.525,0,0,0-2.908,2.135Z" transform="translate(-30.09 -182.38)"/>
        </g>
        <path id="Path_418" data-name="Path 418" d="M370.388,341.075a2.729,2.729,0,0,1-.594-1.685,3.749,3.749,0,0,1,1.484-2.793,4.962,4.962,0,0,1,3.313-1.273h.444a2.583,2.583,0,0,1,.444.041l.891.083a12.7,12.7,0,0,0-4.7-.986,19.358,19.358,0,0,0-5.193.862c-.823.246-1.65.491-2.47.74s-1.666.492-2.522.741a16.287,16.287,0,0,1-1.8.31q-.914.1-1.9.144a6.39,6.39,0,0,1-2.375-.492q-1.384-.618-1.385-1.519c0-.6.3-.849.891-.74.594.137.891.342.891.616,0,.109-.083.233-.246.37s-.246.246-.246.329q.048.986,2.573.986a21.36,21.36,0,0,0,5.982-1.519,22.38,22.38,0,0,1,6.773-1.478,12.548,12.548,0,0,1,6.773,1.727h.147v.083c0,.083.262.287.792.616.067.054.1.1.1.125l-.891-.412v.041c0-.108-.364-.179-1.088-.2a2.609,2.609,0,0,0-.444-.042h-.788a7.075,7.075,0,0,0-1.88.246,5.532,5.532,0,0,0-1.583.7,3.342,3.342,0,0,0-1.088,1.13,2.837,2.837,0,0,0-.4,1.459,3.444,3.444,0,0,0,1.928,2.834,7.086,7.086,0,0,0,4.252,1.191,7,7,0,0,0,3.361-.945q1.829-1.068,1.88-2.218a1.735,1.735,0,0,0-.172-.926,2.69,2.69,0,0,0-.619-.843,4.076,4.076,0,0,0-.916-.638,2.293,2.293,0,0,0-1.063-.268,3.163,3.163,0,0,0-1.854.472,1.536,1.536,0,0,0-.817,1.334,1.3,1.3,0,0,0,.4.82,1.428,1.428,0,0,1,.4.945q0,.943-1.583.945a.737.737,0,0,1,.125-.37.737.737,0,0,0,.124-.37,2.059,2.059,0,0,0-.37-1.047,2.035,2.035,0,0,1-.37-1.005,1.832,1.832,0,0,1,1.235-1.6,6.48,6.48,0,0,1,2.324-.533,4.53,4.53,0,0,1,1.385.2,3.632,3.632,0,0,1,1.162.616,3.274,3.274,0,0,1,.817.926,2.213,2.213,0,0,1,.3,1.13,2.763,2.763,0,0,1-.642,1.807l2.668-1.848a5.694,5.694,0,0,1,3.064-1.111q1.829,0,1.928.862c0,.549-.182.753-.543.616a3.492,3.492,0,0,1-1.631-.862,3.226,3.226,0,0,0-1.583.574l-2.078,1.315a15.8,15.8,0,0,1-4.6,2.135,9.467,9.467,0,0,1-2.078.287Q372.22,343.7,370.388,341.075Z" transform="translate(-250.626 -285.46)"/>
        <path id="Path_419" data-name="Path 419" d="M454.513,322.865a.656.656,0,0,0,.345.172c.594.115,1.222-.284,1.893-1.2a7.4,7.4,0,0,0,1.133-2.493,12.455,12.455,0,0,0-.278-7.23,3.925,3.925,0,0,0,2.869-.648,3.853,3.853,0,0,0,1.835-2.327,5.719,5.719,0,0,0,.131-2.477c-.22-1.009-.705-1.583-1.459-1.73q-2.786-.541-3.5,2-.541,1.886,1.015,2.247a1.7,1.7,0,0,0,2.336-1.357,1.344,1.344,0,0,0-.262-1.047,1.7,1.7,0,0,0-.431-.386.65.65,0,0,0-.562.013.8.8,0,0,0,.185.306q.158.182.393.469a.97.97,0,0,1,.364.645,1.222,1.222,0,0,1-.559.916,1.194,1.194,0,0,1-1.082.032,1.624,1.624,0,0,1-.906-.658,1.258,1.258,0,0,1-.182-1.06,2.455,2.455,0,0,1,1.041-1.395,2.045,2.045,0,0,1,1.65-.495,2,2,0,0,1,1.366,1.35,3.564,3.564,0,0,1,.23,2.276,3.606,3.606,0,0,1-1.746,2.1,3.745,3.745,0,0,1-2.716.648q-.3-.058-1.3-1.73c-.163-.252-.373-.565-.632-.935s-.565-.792-.922-1.264a6.547,6.547,0,0,0,2.586-3.929,2.822,2.822,0,0,0,.06-.3,2.735,2.735,0,0,0,.032-.31,5.144,5.144,0,0,0,2.936-1.27,5.367,5.367,0,0,0,1.708-2.684,3.051,3.051,0,0,0,.01-1.625,1.415,1.415,0,0,0-1.092-1.085,1.615,1.615,0,0,0-.91.1.85.85,0,0,0-.568.584c-.131.437-.125.689.026.759.227.086.613-.093,1.162-.53.211-.179.357-.262.437-.246.335.064.549.329.638.788a2.261,2.261,0,0,1,.019,1.149,4.031,4.031,0,0,1-.626,1.235,5.677,5.677,0,0,1-2.266,1.823,6.092,6.092,0,0,1-1.42.447q0-.24-.067-.843c-.045-.4-.118-.923-.224-1.567a7.715,7.715,0,0,1,.013-2.378q.124-.488,1.085-1.085a3.7,3.7,0,0,0,1.056-.849,3.993,3.993,0,0,0-3.173.862,4.808,4.808,0,0,0-1.944,2.637,6.59,6.59,0,0,0,.032,2.93,30.127,30.127,0,0,0-14.124,1.484c-.208.08-.645.255-1.315.53s-1.574.642-2.707,1.1a21.937,21.937,0,0,0-3.916,1.953,14.639,14.639,0,0,0-3.2,2.815l.357.22a13.448,13.448,0,0,1,5.42-3.865l.022.035c.026-.016.08-.045.163-.089s.137-.073.163-.089a20.98,20.98,0,0,1,6.872-1.714,2.269,2.269,0,0,1,.463.013,3.11,3.11,0,0,1,.5.112,13.993,13.993,0,0,1,1.755.431c.109.061.252.134.428.217s.383.188.619.316c.089.058.14.058.156,0,.064-.249-.265-.552-.98-.913a14.751,14.751,0,0,1,7.434,3.792q1.939,1.915,2.126,2.04A6.757,6.757,0,0,0,457.143,312a12.3,12.3,0,0,1,.166,7.179,8.158,8.158,0,0,1-.859,2.033c-.555.878-1.117,1.261-1.692,1.149-.731-.14-1.13-.118-1.2.07-.025.1.211.192.705.287A.444.444,0,0,1,454.513,322.865Zm-.377-15.825a12.808,12.808,0,0,0-5.579-2.77,21.69,21.69,0,0,0-9.078.108,29.6,29.6,0,0,1,14.9-1.724,7.815,7.815,0,0,1,.22,3.54A2.608,2.608,0,0,1,454.136,307.04Zm-.428.46c-.1.08-.236.176-.4.284s-.348.246-.555.405a10.514,10.514,0,0,0-4.322-3.067,15.071,15.071,0,0,0-2.455-.626,8.115,8.115,0,0,1,1.031.108A17.7,17.7,0,0,1,453.709,307.5Zm3.16,3.837a6.111,6.111,0,0,1-2.212-1.213,18.441,18.441,0,0,1-1.756-1.787l.185.128c.054.032.258-.042.613-.214a2.07,2.07,0,0,1,.182-.1c.07-.035.131-.07.182-.1l.185-.115A9.573,9.573,0,0,1,456.868,311.336Z" transform="translate(-301.68 -259.535)"/>
        <path id="Path_420" data-name="Path 420" d="M378.755,309.667c1.392.045,2.088.067,2.187.077.635.057.843.115.875.035.08-.182-.938-.584-1.979-1.574,0,0-1.66-1.593-1.6-3.217.016-.421.354-.718.926-.613.511.1.795.23.715.661-.025.144-.575.313-.878.351a.387.387,0,0,0-.307.144c-.1.14-.016.348.048.5a5.681,5.681,0,0,0,.849,1.459,6.014,6.014,0,0,0,.61.6,12.007,12.007,0,0,0,2.295,1.484c2.384,1.136,3.719,1.653,4.861,2.129a19.179,19.179,0,0,1,2.263.99,10.715,10.715,0,0,1,3.31,3.192l-.109.07a19.186,19.186,0,0,0-2.681-2.429,11.719,11.719,0,0,0-3.259-1.66,26.911,26.911,0,0,0-4.175-1.334c-1.676-.2-2.608-.619-4.408-.061a4.4,4.4,0,0,0-1.025.437c-.172.131-.243.52-.536.358a1.246,1.246,0,0,1-.469-.374.683.683,0,0,1-.144-.389c.035-.45.993-.788,1.765-.859C377.961,309.641,378.225,309.647,378.755,309.667Z" transform="translate(-265.677 -265.405)"/>
        <path id="Path_421" data-name="Path 421" d="M285.552,237.86h-5.9a1.2,1.2,0,0,0-1.194,1.194v44.112a1.2,1.2,0,0,0,1.194,1.194h5.9a1.2,1.2,0,0,0,1.194-1.194V239.054A1.2,1.2,0,0,0,285.552,237.86Zm.463,44.89a.924.924,0,0,1-.919.919h-4.989a.924.924,0,0,1-.919-.919V239.475a.924.924,0,0,1,.919-.919H285.1a.924.924,0,0,1,.919.919Z" transform="translate(-199.184 -220.136)"/>
        <path id="Path_422" data-name="Path 422" d="M310.5,262.992c-.185,0-.373.01-.559.019v24.127a.924.924,0,0,1-.919.919H304.03a.924.924,0,0,1-.919-.919v-42.8a1.572,1.572,0,0,1-.731-.026v43.247a1.2,1.2,0,0,0,1.194,1.194h5.9a1.2,1.2,0,0,0,1.194-1.194V262.979A1.415,1.415,0,0,1,310.5,262.992Z" transform="translate(-215.469 -224.527)"/>
        <path id="Path_423" data-name="Path 423" d="M300.664,266.875a.638.638,0,0,1-.664.6h-3.616a.636.636,0,0,1-.664-.6v-28.4a.638.638,0,0,1,.664-.6H300a.636.636,0,0,1,.664.6v28.4Z" transform="translate(-210.935 -220.142)"/>
        <g id="Group_802" data-name="Group 802" transform="translate(79.375)">
          <path id="Path_424" data-name="Path 424" d="M281.378,182.35v13.489H278.77V182.35Z" transform="translate(-278.77 -182.344)"/>
          <path id="Path_425" data-name="Path 425" d="M309.1,182.35a4.521,4.521,0,0,1,3.1,1.053,3.479,3.479,0,0,1,1.2,2.742,3.43,3.43,0,0,1-.594,2,3.947,3.947,0,0,1-1.762,1.347,3.938,3.938,0,0,1,1.149.945,12.083,12.083,0,0,1,1.245,2.017q1.235,2.451,1.835,3.38h-2.9a16.135,16.135,0,0,1-.811-1.42,30.657,30.657,0,0,0-1.641-2.9,3.971,3.971,0,0,0-1.005-1.063,2.008,2.008,0,0,0-1.111-.313h-.945v5.7H304.25V182.35Zm-.59,5.755a2.356,2.356,0,0,0,1.609-.511,1.766,1.766,0,0,0,.584-1.4,1.657,1.657,0,0,0-.578-1.385,2.6,2.6,0,0,0-1.65-.46h-1.621V188.1Z" transform="translate(-296.117 -182.344)"/>
          <path id="Path_426" data-name="Path 426" d="M357.933,182.35v2.036h-4.788v11.449h-2.608V184.386H345.75V182.35Z" transform="translate(-324.371 -182.344)"/>
          <path id="Path_427" data-name="Path 427" d="M400.207,182.336v7.849a4.313,4.313,0,0,0,.361,1.922,2.853,2.853,0,0,0,1.181,1.178,3.811,3.811,0,0,0,1.912.463,4.32,4.32,0,0,0,2.033-.44,2.789,2.789,0,0,0,1.223-1.2,4.679,4.679,0,0,0,.386-2.1v-7.676h2.608v8.012a5.321,5.321,0,0,1-1.631,4.185,6.675,6.675,0,0,1-4.615,1.462,7.388,7.388,0,0,1-3.249-.667,4.733,4.733,0,0,1-2.1-1.925,5.841,5.841,0,0,1-.725-2.959V182.33h2.617Z" transform="translate(-359.664 -182.33)"/>
          <path id="Path_428" data-name="Path 428" d="M456.275,182.35l5.956,13.489H459.48l-1.4-3.281h-5.994l-1.3,3.281H448.05l5.56-13.489Zm-3.4,8.225h4.354l-2.279-5.34Z" transform="translate(-394.018 -182.344)"/>
          <path id="Path_429" data-name="Path 429" d="M507.855,182.343v11.449H514.4v2.036H505.25V182.34h2.6Z" transform="translate(-432.961 -182.337)"/>
        </g>
        <g id="Group_803" data-name="Group 803" transform="translate(107.843 17.766)">
          <path id="Path_430" data-name="Path 430" d="M370.568,238.53v13.489H367.96V238.53Z" transform="translate(-367.96 -238.358)"/>
          <path id="Path_431" data-name="Path 431" d="M392.665,238.53l5.956,13.489H395.87l-1.4-3.281h-5.994l-1.3,3.281H384.44L390,238.53Zm-3.4,8.225h4.354l-2.279-5.34Z" transform="translate(-379.18 -238.358)"/>
          <path id="Path_432" data-name="Path 432" d="M439.272,238.53l8.012,9.413V238.53h2.547v13.489H447.59l-8.063-9.566v9.566H436.98V238.53h2.292Z" transform="translate(-414.95 -238.358)"/>
          <path id="Path_433" data-name="Path 433" d="M495.46,237.99a8.078,8.078,0,0,1,3.77.865,6.632,6.632,0,0,1,2.668,2.49,6.806,6.806,0,0,1-2.64,9.588,8.525,8.525,0,0,1-7.625-.013,6.673,6.673,0,0,1-3.623-6.007,6.806,6.806,0,0,1,.954-3.486,6.648,6.648,0,0,1,2.637-2.534A7.994,7.994,0,0,1,495.46,237.99Zm-4.759,6.92a4.8,4.8,0,0,0,.606,2.413,4.221,4.221,0,0,0,1.695,1.66,5.069,5.069,0,0,0,2.458.587,4.683,4.683,0,0,0,3.412-1.3,4.489,4.489,0,0,0,1.337-3.361,4.869,4.869,0,0,0-.6-2.419,4.165,4.165,0,0,0-1.7-1.666,5.45,5.45,0,0,0-4.935.006,4.121,4.121,0,0,0-1.685,1.66A4.958,4.958,0,0,0,490.7,244.91Z" transform="translate(-449.692 -237.99)"/>
        </g>
        <path id="Path_434" data-name="Path 434" d="M317.152,240.438c-.721-.677-2.751-2.569-8.388-2.569-.709,0-4.242-.022-5.024,0a11.208,11.208,0,0,1,0,1.909c.115,0,3.1.029,3.217.029a6.706,6.706,0,0,1,4.51,1.759,8.679,8.679,0,0,1,2.662,6.764c0,4.6-3.517,7.44-6.042,7.44-.948,0-1.264.134-1.264.495,0,.316.316.361.543.405a6.731,6.731,0,0,0,.948.045c6.4,0,11.092-4.51,11.092-10.913A7.836,7.836,0,0,0,317.152,240.438Z" transform="translate(-216.395 -220.135)"/>
      </g>
    </g>
    <g id="Group_839" data-name="Group 839" transform="translate(-71 202.984)">
      <g id="Virtual_Piano_NEW_LOGO_2020_FINAL_Black-2" data-name="Virtual Piano, NEW LOGO 2020 FINAL, Black" transform="translate(0)">
        <g id="Group_801-2" data-name="Group 801" transform="translate(0 0.016)">
          <path id="Path_417-2" data-name="Path 417" d="M61.849,197.669A14.779,14.779,0,0,1,72.7,201.9a3.828,3.828,0,0,1-.319-1.519,3.16,3.16,0,0,1,.3-1.254c.2-.453.476-.677.839-.677a.862.862,0,0,1,.453.185c.182.124.271.239.271.348a.453.453,0,0,1-.16.348q-.158.144-.364.306a3.747,3.747,0,0,0-.364.329.568.568,0,0,0-.16.412c0,.492.121.741.364.741.211,0,.437-.163.68-.492a2.264,2.264,0,0,0,.271-.616,7.365,7.365,0,0,0,.59,1.232,3.77,3.77,0,0,1,.364,1.315,1.234,1.234,0,0,1-.319.9l-.635.74a14.929,14.929,0,0,1-4.5,21.2l-.271-.658a11.116,11.116,0,0,0,3.224-5.011c0-.549-.2-.766-.59-.658a2.468,2.468,0,0,0-.954.533,2.036,2.036,0,0,1-1.408-2.177q.953-.124,1.092-1.274a2.385,2.385,0,0,1,1.408.7,2.014,2.014,0,0,0-1.5-1.44q-1-.244-1-1.069c0-.108.227-.191.68-.246.364-.054.53-.108.5-.163a1.2,1.2,0,0,0-1.044-.782.874.874,0,0,0-.5.2.852.852,0,0,1-.5.2c-.453,0-.68-.15-.68-.453,0-.412.348-.616,1.044-.616a3.225,3.225,0,0,1,2.815,1.807,8.032,8.032,0,0,1,1.044,3.945c.061-.412.105-.808.137-1.191s.045-.753.045-1.111q-.091-6.325-4.631-9.614a8.5,8.5,0,0,1,.364,2.177,7.861,7.861,0,0,1-7.131,6.984q-5.314,0-8.222-2.547a8.41,8.41,0,0,1-2.681-5.71,34.551,34.551,0,0,1-11.944,2.672q-5.994,0-8.312-3.246a5.573,5.573,0,0,1-.91-3.246,4.151,4.151,0,0,1,2.269-4.108,5.685,5.685,0,0,1-.817-2.917,5.123,5.123,0,0,1,1.363-3.473,4.82,4.82,0,0,1,3.543-1.5,7.009,7.009,0,0,1,3.862.945,3.608,3.608,0,0,1,1.682,3.2q0,3.576-3.042,3.575a2.851,2.851,0,0,1-2.02-.843,2.535,2.535,0,0,1-.884-1.87,2.6,2.6,0,0,1,.115-.657,2.579,2.579,0,0,0,.115-.658c-.029-.329-.2-.453-.5-.37a.533.533,0,0,1-.227.041.209.209,0,0,1-.227-.166q0-1.111.772-.862a1.249,1.249,0,0,1,.817,1.274,2.211,2.211,0,0,1-.182.718,2.23,2.23,0,0,0-.182.718,2.076,2.076,0,0,0,.728,1.478,2.191,2.191,0,0,0,1.634.575,2.674,2.674,0,0,0,1.953-.945,3.638,3.638,0,0,0,.68-1.973,3.337,3.337,0,0,0-1.408-2.547,4.513,4.513,0,0,0-2.908-1.232,5.381,5.381,0,0,0-3.952,1.478,4.6,4.6,0,0,0-.453,5.793,2.591,2.591,0,0,1,1.092-.163,4.573,4.573,0,0,1,2.748.741,3.285,3.285,0,0,1,1.43,2.177c.211.029.418.048.613.061s.4.019.613.019a34.057,34.057,0,0,0,8.356-1.232q2.087-.575,4.133-1.13t4.089-1.13a24.023,24.023,0,0,1,5.768-.782h.185Zm-29.113,2.177a3.515,3.515,0,0,0-2.135,3.533,4.856,4.856,0,0,0,2.952,4.682,17.6,17.6,0,0,0,5.723,1.191,19.4,19.4,0,0,0,8.538-1.478c-.575.054-1.136.089-1.682.1s-1.076.006-1.59-.022a10,10,0,0,1-4.861-1.274,1.37,1.37,0,0,1-.772-1.111c0-.575.319-.891.954-.945.121,0,.182.029.182.083a.436.436,0,0,1-.182.287,1.186,1.186,0,0,0-.227.741,1.076,1.076,0,0,0,.271.575c.182.054.364-.1.546-.453.089-.137.153-.191.182-.163a6.686,6.686,0,0,0,2.815,1.4,1.054,1.054,0,0,1,.227-.76,5.241,5.241,0,0,0,.453-.514,1.5,1.5,0,0,0,.227-.74q2.36,0,2.362,1.315a2.389,2.389,0,0,1-.182.9,14.972,14.972,0,0,0,4.679-.741,6.851,6.851,0,0,1,1.634-4.315,12.02,12.02,0,0,1,3.814-3.122q-2.135.574-4.223,1.149c-1.392.383-2.8.766-4.223,1.149a34.01,34.01,0,0,1-8.583,1.274h-.728a4.063,4.063,0,0,1-.728-.083,2.686,2.686,0,0,1-.772,2.094,2.813,2.813,0,0,1-2.18.782,2.834,2.834,0,0,1-2.225-.7,3.944,3.944,0,0,1-.5-2.3q.68.081.68,1.149a.654.654,0,0,0,.2.431,2.621,2.621,0,0,0,.523.431,3.541,3.541,0,0,0,.635.329,1.621,1.621,0,0,0,.59.124,2.5,2.5,0,0,0,1.634-.6,1.778,1.778,0,0,0,.728-1.417.741.741,0,0,0-.045-.246v-.2A7.973,7.973,0,0,1,32.736,199.846Zm4.542,1.89a3.211,3.211,0,0,0-3.316-2.135c-.061,0-.15.006-.271.019s-.259.035-.409.061A7.867,7.867,0,0,0,37.278,201.735Zm33.428,24.079a19.22,19.22,0,0,0,8.359-15.241,18.758,18.758,0,0,0-2.451-9.86,10.407,10.407,0,0,0-9.493-5.219,22.094,22.094,0,0,0-2.656.185q-1.523.187-3.565.514-2.135.412-3.68.6c-1.031.124-1.877.2-2.544.227a12.144,12.144,0,0,1-5.9-1.4q-3.227-1.6-3.224-3.987a3.152,3.152,0,0,1,1.27-2.343,3.846,3.846,0,0,1,2.5-1.111,8.366,8.366,0,0,1,2.589.575,7.959,7.959,0,0,0,2.633.533,1.707,1.707,0,0,0,1.092-.7c.393-.492.756-.7,1.092-.616a8.926,8.926,0,0,1-.68,2.177q-.819,1.436-3.68,1.478a6.258,6.258,0,0,1-2.407-.492,6.455,6.455,0,0,0-2.317-.574,1.771,1.771,0,0,0-1.136.514,1.108,1.108,0,0,0-.5,1.005,2.959,2.959,0,0,0,1.953,2.014,8.716,8.716,0,0,0,3.632.782q2.724,0,8.174-2.135,5.587-2.178,8.312-2.177A15.092,15.092,0,0,1,80.2,195.987a16.6,16.6,0,0,1,3.862,10.888,19.44,19.44,0,0,1-3.68,11.053,30.77,30.77,0,0,1-8.947,8.34ZM57.671,204.653a39.927,39.927,0,0,0-5.5,2.094v.166a7.324,7.324,0,0,0,4.178,6.7,9.6,9.6,0,0,0,3.224,1.069,2.267,2.267,0,0,0-.5-.82c-.089-.083.211-.354.91-.82a3.9,3.9,0,0,1,1.226-.74q1.044.206.91.82c-.061.329-.105.555-.137.677s-.045.156-.045.1a.543.543,0,0,0,.045.246q1.59-.862,1.59-2.014c0-.163-.128-.341-.386-.533s-.386-.37-.386-.533c0-.329.15-.492.453-.492a.98.98,0,0,1,.705.37,1.071,1.071,0,0,1,.342.7q0,2.135-3.09,3.2h.5a6.817,6.817,0,0,0,4.631-1.973,5.881,5.881,0,0,0,2.225-4.4q0-3.083-3.543-3.9a1.887,1.887,0,0,0-.728,1.4,2.158,2.158,0,0,0,.5,1.315,2.577,2.577,0,0,0,1.181.9q-2.408.081-2.407-2.177a2.387,2.387,0,0,1,.772-1.6,17.586,17.586,0,0,0-3.134-.287,8.53,8.53,0,0,0-.884.061l-1.341.144a1.347,1.347,0,0,0-.182.658,2.227,2.227,0,0,0,.862,1.4,9.993,9.993,0,0,1,1.044,1.028,1.857,1.857,0,0,1,.5,1.232,2.047,2.047,0,0,1-1.909,2.343,2.538,2.538,0,0,1,.115-.616,2.538,2.538,0,0,0,.115-.616q0-.656-1.092-1.4a2.946,2.946,0,0,1-1.044-2.464A4.917,4.917,0,0,1,57.671,204.653Zm8.813-1.561a4.173,4.173,0,0,1,1.452-.287,8.131,8.131,0,0,1,6.859,3.862,12.967,12.967,0,0,0-8.675-7.52,18,18,0,0,0-4.906-.616,8.771,8.771,0,0,0-5.63,2.3,8.965,8.965,0,0,0-3.272,5.011,23.082,23.082,0,0,1,5.723-1.89,5.35,5.35,0,0,1,4.587-2.014A6.708,6.708,0,0,1,66.484,203.092Zm18.893,14.341-.137.246a11.835,11.835,0,0,1-1.59,2.177,24.881,24.881,0,0,1-2.407,2.3,27.819,27.819,0,0,1-5.04,3.45,19.307,19.307,0,0,0,1.976-.986,16.953,16.953,0,0,0,1.794-1.191l3.224-2.547q3.725-3,6.722-3a7.564,7.564,0,0,1,4.813,1.685,5.07,5.07,0,0,1,2.135,4.108,5.306,5.306,0,0,1-2.043,4.354,7.771,7.771,0,0,1-4.951,1.685,2.491,2.491,0,0,1-.59-.042h-.227a6.318,6.318,0,0,0-2.362.492c-.97.466-1.452.986-1.452,1.561,0,.274.287.587.862.945.575.383.833.67.772.862a2.63,2.63,0,0,1-1.612-.453,1.444,1.444,0,0,1-.75-1.232q0-1.561,3.179-2.343a9.426,9.426,0,0,1-4.223-1.89,5.858,5.858,0,0,0-3.272-1.357q-1,0-1,1.274a3.182,3.182,0,0,0,.089.658c-.635,0-.954-.287-.954-.862q0-1.479,1.816-1.519a5.68,5.68,0,0,1,2.771.74c.425.275.833.533,1.226.782s.8.508,1.226.782a7.092,7.092,0,0,0,2,.862q-2.633-1.6-2.633-3.779a4.516,4.516,0,0,1,1.226-3.122,4.118,4.118,0,0,1,3.179-1.4,3.49,3.49,0,0,1,1.3.246,4.194,4.194,0,0,1,1.092.638,3.084,3.084,0,0,1,.772.945,2.444,2.444,0,0,1,.294,1.171q.091,1.192.817,1.191a1.933,1.933,0,0,0,.591-.125,1.117,1.117,0,0,1-1.181.862q-1.183-.081-1.181-.862a2.812,2.812,0,0,1,.115-.638,2.754,2.754,0,0,0,.115-.638,1.912,1.912,0,0,0-1.092-1.519,3.114,3.114,0,0,0-2-.616,3.172,3.172,0,0,0-2.317,1.357,4.075,4.075,0,0,0-1,2.506,3.122,3.122,0,0,0,.342,1.417,3.752,3.752,0,0,0,.91,1.171,4.31,4.31,0,0,0,1.341.782,4.517,4.517,0,0,0,1.59.287,4.7,4.7,0,0,1-1.953-1.478,3.332,3.332,0,0,1-.817-2.094,2.479,2.479,0,0,1,.546-1.478,1.641,1.641,0,0,1,1.363-.741.709.709,0,0,1,.523.287.611.611,0,0,1,.2.492c-.089.383-.348.533-.772.453a1,1,0,0,0-.271-.041.42.42,0,0,1-.182-.041c-.121-.026-.182.013-.182.124,0,.163.137.322.409.472s.364.281.271.389a1.567,1.567,0,0,0-.453,1.232A1.093,1.093,0,0,0,89.65,227.5a1.354,1.354,0,0,0,.91-.575,1.526,1.526,0,0,1,1.092.533c.089.192.182.37.271.533s.182.342.271.533q4-1.025,4-4.848a4.311,4.311,0,0,0-2.091-3.492,7.4,7.4,0,0,0-4.223-1.44q-2.317,0-6.313,2.793l-3.272,2.343q-.862.575-1.749,1.069a13.387,13.387,0,0,1-1.886.862l-1.181-.616a29.607,29.607,0,0,0,9.084-7.52h-.045q.91-1.436,1.794-2.917t1.794-2.917q1.044-1.724,2.065-3.1t1.976-2.486a29.461,29.461,0,0,1,3.316-3.329V202.8a6.7,6.7,0,0,1,1.634-4.191,5.164,5.164,0,0,1,4.041-2.26,13.428,13.428,0,0,0-2.269,4.028c.485-.3.967-.616,1.452-.945s.97-.658,1.452-.986q2.317-1.6,2.362-2.135a.47.47,0,0,0-.137-.287,2.273,2.273,0,0,0-.319-.31,1.389,1.389,0,0,1-.294-.306.305.305,0,0,1-.067-.287.661.661,0,0,1,.728-.491q1,0,1,1.4,0,1.274-2.091,2.63-.637.412-1.385.8t-1.612.76c-.182.054-.182.083,0,.083a1.964,1.964,0,0,0,.59,0c.635-.029,1.082-.048,1.341-.061s.326-.019.2-.019q2.451,0,2.407,1.644-.091,1.317-.59,1.149a.711.711,0,0,1-.409-.246l-.182-.166c.393-.246.546-.492.453-.741-.182-.437-.728-.782-1.634-1.028a3.392,3.392,0,0,0-.954-.163q-2.863,0-2.633,2.423a12.45,12.45,0,0,0,.68,3.2.532.532,0,0,0,.227-.042h.182a3.319,3.319,0,0,1,3.406,2.793,2.981,2.981,0,0,0,.319.718c.15.262.348.568.59.926.061.108.105.191.137.246s.061.109.089.163a.674.674,0,0,1-.409.083q-.819-.124-1.682-2.384-.91-2.1-2.589-2.094h-.089q.5,1.029,1.226,2.528t1.682,3.594a17.843,17.843,0,0,1,1.682,7.15q0,6.7-7.357,11.669-.5.33-1.452.843t-2.362,1.171a21.761,21.761,0,0,0-2.2,1.13c-.622.37-1.143.705-1.567,1.005a12.843,12.843,0,0,0-2.407,2.672l-.954-.2c.061-.22.121-.437.182-.658a10.463,10.463,0,0,0-6.269-4.028,20.977,20.977,0,0,0-2.885-.514q-1.839-.225-4.564-.389a21.67,21.67,0,0,1-8.538-2.3,8.98,8.98,0,0,1-2.269-1.685l-.705.124a2.684,2.684,0,0,1-.3.041q-3.634,0-3.632-2.751a1.994,1.994,0,0,1,.364-1.149.984.984,0,0,1,1.044-.616q.728.043.728.287a3.37,3.37,0,0,1-1.044,1.478c-.271.3-.409.492-.409.575q0,1.479,2.5,1.478a4.868,4.868,0,0,0,.91-.083,6.532,6.532,0,0,1-1.5-4.149,7.254,7.254,0,0,1,.319-2.177h-.319a3.692,3.692,0,0,0-2.544,1.028,5.366,5.366,0,0,0-1.59,2.135,5.183,5.183,0,0,0-.364,1.765q.091,3.7,5.95,5.589a33.218,33.218,0,0,0,10.31,1.478,23.874,23.874,0,0,1,14.4,4.315h-.728a25.256,25.256,0,0,0-13.581-3.658A34.77,34.77,0,0,1,60.215,233q-6.133-2.011-6.132-6.575a5.454,5.454,0,0,1,1.452-3.7,4.665,4.665,0,0,1,3.725-1.644h.546a4.17,4.17,0,0,1,4.223-2.793,4.919,4.919,0,0,1,2.589,1.069,5.1,5.1,0,0,0,2.317,1.111.687.687,0,0,0,.613-.329.777.777,0,0,1,.705-.329,2.185,2.185,0,0,1-.546,1.807,2.291,2.291,0,0,1-1.816.782,4.76,4.76,0,0,1-2-.575c-.635-.354-1.27-.693-1.909-1.005a5.314,5.314,0,0,0-1.771-.555,1.6,1.6,0,0,0-1.452.986q3.313.656,3.316,3.492a6.223,6.223,0,0,1-.227,1.357,34.808,34.808,0,0,0,9.856,1.685,14.685,14.685,0,0,1,10.4,5.589,13.957,13.957,0,0,1,2.135,3.329q1.092-2.135,5.86-4.765a26.935,26.935,0,0,0,3.45-2.32,12.622,12.622,0,0,0,2.362-2.445,7.265,7.265,0,0,0,1.363-4.437,10.248,10.248,0,0,0-.409-2.959c-.061-.163-.182-.472-.364-.926s-.44-1.06-.772-1.829a28.553,28.553,0,0,1-2.091-9.489,17.838,17.838,0,0,0-6.042,4.849,5.123,5.123,0,0,1,2.771-.945,3.148,3.148,0,0,1,1.727.491,1.345,1.345,0,0,1,.5.533.692.692,0,0,1-.137.514.507.507,0,0,1-.409.268c-.153,0-.38-.163-.68-.492a5.916,5.916,0,0,1-.635-.7,7.242,7.242,0,0,0-.409.782c-.089.246-.271.274-.546.083a1.349,1.349,0,0,0-.862-.287,2.772,2.772,0,0,0-1.363.453c.243.029.425.048.546.061s.2.019.227.019c.364.083.559.22.59.412.061.246-.089.453-.453.616a3.245,3.245,0,0,0-1.044.533,1.464,1.464,0,0,0-.227.82c0,.274-.166.412-.5.412a3.858,3.858,0,0,1-1.5-.782,15.669,15.669,0,0,1-1.727,2.26h-.1ZM59.305,203.791a14.7,14.7,0,0,1,1.909-.124,17.348,17.348,0,0,1,3.543.37.578.578,0,0,0,.227-.412q0-.369-.91-.7a8.9,8.9,0,0,0-2.407-.329A3.1,3.1,0,0,0,59.305,203.791Zm3.817,22.024v-.2q0-3.246-2.589-3.738a2.11,2.11,0,0,0-.045.575Q60.575,224.54,63.123,225.815Zm17.348-6.2c.029-.029.089-.089.182-.185s.15-.156.182-.185a25.478,25.478,0,0,0,4.587-8.506,2.668,2.668,0,0,0,.115-.616,3.722,3.722,0,0,0-.022-.7,16.89,16.89,0,0,0-.137-2.464c-.061-.163-.128-.377-.2-.638s-.176-.568-.294-.926c-.061-.137-.045-.2.045-.2q.589,0,1.092,1.6a19.284,19.284,0,0,0-3.543-11.095q-2.317-3.2-2.451-3.492a8.849,8.849,0,0,1-1.318-3.945,21.513,21.513,0,0,0-10.763-2.63,13.359,13.359,0,0,0-3.316.453q-2.226.656-2.225,1.848c0,1.015-.153,1.535-.453,1.561-.153,0-.227-.342-.227-1.028a.724.724,0,0,0-.16-.389.876.876,0,0,1-.16-.514q0-1.23,2.362-2.094a12.087,12.087,0,0,1,4.089-.658A21.778,21.778,0,0,1,78.661,187.6a4.8,4.8,0,0,1,1.816-3.575,5.888,5.888,0,0,1,4.041-1.644,10.061,10.061,0,0,1,3.77.658q2.178.948,2.18,2.506,0,3.864-4.041,3.945-3,.081-3.09-2.094-.134-2.629,2.726-2.63a2.288,2.288,0,0,1,1.5.7,2.424,2.424,0,0,1,.453.7.787.787,0,0,1-.182.741,1.25,1.25,0,0,1-.409-.348c-.153-.179-.348-.4-.59-.677a1.6,1.6,0,0,0-.862-.7,1.927,1.927,0,0,0-1.545.431,1.429,1.429,0,0,0-.364,1.417,2.222,2.222,0,0,0,.728,1.417,2.17,2.17,0,0,0,1.545.6,3.8,3.8,0,0,0,2.407-.9,2.532,2.532,0,0,0,1.226-2.014q0-1.192-1.634-2.26a6.228,6.228,0,0,0-3.361-1.069,5.456,5.456,0,0,0-3.68,1.6,4.583,4.583,0,0,0-1.771,3.367q0,.412,2.225,2.3.5.455,1.226,1.149c.485.466,1.028,1.015,1.634,1.644a10.272,10.272,0,0,1,6.677-2.094c.15,0,.31.006.476.019s.326.035.476.061a6.538,6.538,0,0,1,2.771-3.45,8.516,8.516,0,0,1,4.542-1.357,5.337,5.337,0,0,1,2.451.533,2.065,2.065,0,0,1,1.318,1.807,1.95,1.95,0,0,1-.409,1.171,1.247,1.247,0,0,1-1.044.555c-.7.029-1.076-.067-1.136-.287q-.091-.493,1.136-1.357c.332-.22.5-.383.5-.492,0-.466-.335-.836-1-1.111a4.006,4.006,0,0,0-1.727-.412,6.557,6.557,0,0,0-2.043.412,8.239,8.239,0,0,0-1.861.967,7.645,7.645,0,0,0-1.545,1.417,7.757,7.757,0,0,0-1.092,1.727c.243.054.658.179,1.248.37s1.353.466,2.295.82a13.674,13.674,0,0,0,3.588.782,3.308,3.308,0,0,0,1.953-1.069,5.293,5.293,0,0,1,1.59-1.111,4.932,4.932,0,0,1-2.225,3.9,7.464,7.464,0,0,1-4.542,1.685,11.543,11.543,0,0,1-4.4-1.028,36.031,36.031,0,0,1-6.358,18.162q-.273.369-1.181,1.561t-2.451,3.2a27.769,27.769,0,0,1-4.089,4.52,20.765,20.765,0,0,1-5.177,3.288l-.453-.453a19.356,19.356,0,0,0,7.632-5.959Zm-2.544,24.2a2.883,2.883,0,0,1-.546-1.685,3.86,3.86,0,0,1,1.363-2.793,4.351,4.351,0,0,1,3.042-1.274h.409a2.185,2.185,0,0,1,.409.041l.817.083A10.85,10.85,0,0,0,79.1,237.2a16.438,16.438,0,0,0-4.769.862q-1.135.369-2.269.741t-2.317.74a13.884,13.884,0,0,1-1.657.31c-.562.067-1.143.115-1.749.144a5.463,5.463,0,0,1-2.18-.492c-.849-.412-1.27-.919-1.27-1.519s.271-.849.817-.741c.546.137.817.341.817.616a.561.561,0,0,1-.227.37c-.153.137-.227.246-.227.329q.043.986,2.362.986a18.32,18.32,0,0,0,5.5-1.519,19.123,19.123,0,0,1,6.221-1.478,10.807,10.807,0,0,1,6.221,1.727h.137v.083c0,.083.243.287.728.616.061.054.089.1.089.124l-.817-.412v.041c0-.108-.335-.179-1-.2a2.209,2.209,0,0,0-.409-.042h-.728a6.006,6.006,0,0,0-1.727.246,4.826,4.826,0,0,0-1.452.7,3.233,3.233,0,0,0-1,1.13,3.041,3.041,0,0,0-.364,1.459,3.473,3.473,0,0,0,1.771,2.834,6.123,6.123,0,0,0,3.907,1.191,6.058,6.058,0,0,0,3.09-.945q1.68-1.068,1.727-2.218a1.85,1.85,0,0,0-.16-.926,2.744,2.744,0,0,0-.568-.843,3.808,3.808,0,0,0-.839-.638,1.977,1.977,0,0,0-.977-.268,2.73,2.73,0,0,0-1.7.472,1.554,1.554,0,0,0-.75,1.334,1.362,1.362,0,0,0,.364.82,1.485,1.485,0,0,1,.364.945q0,.943-1.452.945a.78.78,0,0,1,.115-.37.78.78,0,0,0,.115-.37,2.175,2.175,0,0,0-.342-1.047,2.148,2.148,0,0,1-.342-1.005,1.819,1.819,0,0,1,1.136-1.6,5.56,5.56,0,0,1,2.135-.533,3.827,3.827,0,0,1,1.27.2,3.245,3.245,0,0,1,1.066.616,3.164,3.164,0,0,1,.75.926,2.364,2.364,0,0,1,.271,1.13,2.921,2.921,0,0,1-.59,1.807l2.451-1.848a4.969,4.969,0,0,1,2.815-1.111q1.681,0,1.771.862c0,.549-.166.753-.5.616a3.15,3.15,0,0,1-1.5-.862,2.805,2.805,0,0,0-1.452.575l-1.909,1.315a13.963,13.963,0,0,1-4.223,2.135,8.021,8.021,0,0,1-1.909.287Q79.613,246.441,77.926,243.811ZM65.437,204.2a4.527,4.527,0,0,0,.91.246.273.273,0,0,0,.137-.083,2.258,2.258,0,0,0-.182-.144c-.089-.067-.243-.172-.453-.31A1.7,1.7,0,0,1,65.437,204.2Zm3.045,1.108q6.042,3.083,6.042,8.794a15.433,15.433,0,0,1-2.589,9.081q4-3.778,4.041-10.725a7.772,7.772,0,0,0-.271-2.751q-2.451-6.449-7.766-6.451a2.494,2.494,0,0,0-1,.163A5.625,5.625,0,0,1,68.482,205.31Zm11.127-16.476a8.076,8.076,0,0,0,1.181,3.329,27.05,27.05,0,0,0,2.18,2.917l-.137-.287c-.032-.083.137-.329.5-.74.061-.054.128-.125.2-.2s.144-.15.2-.2l.227-.2A14.66,14.66,0,0,0,79.609,188.834Zm4.315,5.9c-.211.179-.469.377-.772.6a14.445,14.445,0,0,1,3.361,6.738,18.373,18.373,0,0,1,.227,3.45,9.584,9.584,0,0,0,.137-1.4A22.685,22.685,0,0,0,84.47,194.3Q84.24,194.464,83.924,194.733Zm1.088,19.413q6.583-9.408,6.949-19.106a13.681,13.681,0,0,0-5.27-1.478,4.142,4.142,0,0,0-1.408.329,16.63,16.63,0,0,1,2.544,8.3A25.81,25.81,0,0,1,85.012,214.145Zm2.135,24.322a8.9,8.9,0,0,1,2.589-2.589,10.079,10.079,0,0,1,4.769-1.931q3.768-.455,5.222-1.931a1.554,1.554,0,0,0,.5-1.028.4.4,0,0,0-.137-.268.418.418,0,0,1-.137-.268c0-.22.166-.329.5-.329q.728,0,.728.7,0,1.355-2.451,2.506a19.973,19.973,0,0,1-4.951,1.478,9.771,9.771,0,0,0-6.176,3.862Zm8.312-34.635a40.707,40.707,0,0,0-3.862,4.252,63.328,63.328,0,0,0-3.814,5.4q4.18-5.257,7.814-6.534Q95.458,205.556,95.459,203.833ZM88.1,238.921a10.065,10.065,0,0,1,6.176-3.45q8.082-1.23,9.266-4.561c.061-.137-.045-.281-.319-.431s-.409-.306-.409-.472c0-.495.255-.741.772-.741.575,0,.833.233.772.7a6.417,6.417,0,0,1-2.407,3.575,6.068,6.068,0,0,1-2.225,1.274l1.226.306q.728.187,1.727.431,1.815.493,1.816,1.519c0,.52-.227.782-.68.782-.121,0-.211-.118-.271-.348a1,1,0,0,0-.227-.472,6,6,0,0,0-4.223-1.644q.043,0-4.36.492a8.056,8.056,0,0,0-3.5,1.149,19.525,19.525,0,0,0-2.908,2.135Z" transform="translate(-30.09 -182.38)" fill="#454545"/>
        </g>
        <path id="Path_418-2" data-name="Path 418" d="M370.388,341.075a2.729,2.729,0,0,1-.594-1.685,3.749,3.749,0,0,1,1.484-2.793,4.962,4.962,0,0,1,3.313-1.273h.444a2.583,2.583,0,0,1,.444.041l.891.083a12.7,12.7,0,0,0-4.7-.986,19.358,19.358,0,0,0-5.193.862c-.823.246-1.65.491-2.47.74s-1.666.492-2.522.741a16.287,16.287,0,0,1-1.8.31q-.914.1-1.9.144a6.39,6.39,0,0,1-2.375-.492q-1.384-.618-1.385-1.519c0-.6.3-.849.891-.74.594.137.891.342.891.616,0,.109-.083.233-.246.37s-.246.246-.246.329q.048.986,2.573.986a21.36,21.36,0,0,0,5.982-1.519,22.38,22.38,0,0,1,6.773-1.478,12.548,12.548,0,0,1,6.773,1.727h.147v.083c0,.083.262.287.792.616.067.054.1.1.1.125l-.891-.412v.041c0-.108-.364-.179-1.088-.2a2.609,2.609,0,0,0-.444-.042h-.788a7.075,7.075,0,0,0-1.88.246,5.532,5.532,0,0,0-1.583.7,3.342,3.342,0,0,0-1.088,1.13,2.837,2.837,0,0,0-.4,1.459,3.444,3.444,0,0,0,1.928,2.834,7.086,7.086,0,0,0,4.252,1.191,7,7,0,0,0,3.361-.945q1.829-1.068,1.88-2.218a1.735,1.735,0,0,0-.172-.926,2.69,2.69,0,0,0-.619-.843,4.076,4.076,0,0,0-.916-.638,2.293,2.293,0,0,0-1.063-.268,3.163,3.163,0,0,0-1.854.472,1.536,1.536,0,0,0-.817,1.334,1.3,1.3,0,0,0,.4.82,1.428,1.428,0,0,1,.4.945q0,.943-1.583.945a.737.737,0,0,1,.125-.37.737.737,0,0,0,.124-.37,2.059,2.059,0,0,0-.37-1.047,2.035,2.035,0,0,1-.37-1.005,1.832,1.832,0,0,1,1.235-1.6,6.48,6.48,0,0,1,2.324-.533,4.53,4.53,0,0,1,1.385.2,3.632,3.632,0,0,1,1.162.616,3.274,3.274,0,0,1,.817.926,2.213,2.213,0,0,1,.3,1.13,2.763,2.763,0,0,1-.642,1.807l2.668-1.848a5.694,5.694,0,0,1,3.064-1.111q1.829,0,1.928.862c0,.549-.182.753-.543.616a3.492,3.492,0,0,1-1.631-.862,3.226,3.226,0,0,0-1.583.574l-2.078,1.315a15.8,15.8,0,0,1-4.6,2.135,9.467,9.467,0,0,1-2.078.287Q372.22,343.7,370.388,341.075Z" transform="translate(-250.626 -285.46)" fill="#454545"/>
        <path id="Path_419-2" data-name="Path 419" d="M454.513,322.865a.656.656,0,0,0,.345.172c.594.115,1.222-.284,1.893-1.2a7.4,7.4,0,0,0,1.133-2.493,12.455,12.455,0,0,0-.278-7.23,3.925,3.925,0,0,0,2.869-.648,3.853,3.853,0,0,0,1.835-2.327,5.719,5.719,0,0,0,.131-2.477c-.22-1.009-.705-1.583-1.459-1.73q-2.786-.541-3.5,2-.541,1.886,1.015,2.247a1.7,1.7,0,0,0,2.336-1.357,1.344,1.344,0,0,0-.262-1.047,1.7,1.7,0,0,0-.431-.386.65.65,0,0,0-.562.013.8.8,0,0,0,.185.306q.158.182.393.469a.97.97,0,0,1,.364.645,1.222,1.222,0,0,1-.559.916,1.194,1.194,0,0,1-1.082.032,1.624,1.624,0,0,1-.906-.658,1.258,1.258,0,0,1-.182-1.06,2.455,2.455,0,0,1,1.041-1.395,2.045,2.045,0,0,1,1.65-.495,2,2,0,0,1,1.366,1.35,3.564,3.564,0,0,1,.23,2.276,3.606,3.606,0,0,1-1.746,2.1,3.745,3.745,0,0,1-2.716.648q-.3-.058-1.3-1.73c-.163-.252-.373-.565-.632-.935s-.565-.792-.922-1.264a6.547,6.547,0,0,0,2.586-3.929,2.822,2.822,0,0,0,.06-.3,2.735,2.735,0,0,0,.032-.31,5.144,5.144,0,0,0,2.936-1.27,5.367,5.367,0,0,0,1.708-2.684,3.051,3.051,0,0,0,.01-1.625,1.415,1.415,0,0,0-1.092-1.085,1.615,1.615,0,0,0-.91.1.85.85,0,0,0-.568.584c-.131.437-.125.689.026.759.227.086.613-.093,1.162-.53.211-.179.357-.262.437-.246.335.064.549.329.638.788a2.261,2.261,0,0,1,.019,1.149,4.031,4.031,0,0,1-.626,1.235,5.677,5.677,0,0,1-2.266,1.823,6.092,6.092,0,0,1-1.42.447q0-.24-.067-.843c-.045-.4-.118-.923-.224-1.567a7.715,7.715,0,0,1,.013-2.378q.124-.488,1.085-1.085a3.7,3.7,0,0,0,1.056-.849,3.993,3.993,0,0,0-3.173.862,4.808,4.808,0,0,0-1.944,2.637,6.59,6.59,0,0,0,.032,2.93,30.127,30.127,0,0,0-14.124,1.484c-.208.08-.645.255-1.315.53s-1.574.642-2.707,1.1a21.937,21.937,0,0,0-3.916,1.953,14.639,14.639,0,0,0-3.2,2.815l.357.22a13.448,13.448,0,0,1,5.42-3.865l.022.035c.026-.016.08-.045.163-.089s.137-.073.163-.089a20.98,20.98,0,0,1,6.872-1.714,2.269,2.269,0,0,1,.463.013,3.11,3.11,0,0,1,.5.112,13.993,13.993,0,0,1,1.755.431c.109.061.252.134.428.217s.383.188.619.316c.089.058.14.058.156,0,.064-.249-.265-.552-.98-.913a14.751,14.751,0,0,1,7.434,3.792q1.939,1.915,2.126,2.04A6.757,6.757,0,0,0,457.143,312a12.3,12.3,0,0,1,.166,7.179,8.158,8.158,0,0,1-.859,2.033c-.555.878-1.117,1.261-1.692,1.149-.731-.14-1.13-.118-1.2.07-.025.1.211.192.705.287A.444.444,0,0,1,454.513,322.865Zm-.377-15.825a12.808,12.808,0,0,0-5.579-2.77,21.69,21.69,0,0,0-9.078.108,29.6,29.6,0,0,1,14.9-1.724,7.815,7.815,0,0,1,.22,3.54A2.608,2.608,0,0,1,454.136,307.04Zm-.428.46c-.1.08-.236.176-.4.284s-.348.246-.555.405a10.514,10.514,0,0,0-4.322-3.067,15.071,15.071,0,0,0-2.455-.626,8.115,8.115,0,0,1,1.031.108A17.7,17.7,0,0,1,453.709,307.5Zm3.16,3.837a6.111,6.111,0,0,1-2.212-1.213,18.441,18.441,0,0,1-1.756-1.787l.185.128c.054.032.258-.042.613-.214a2.07,2.07,0,0,1,.182-.1c.07-.035.131-.07.182-.1l.185-.115A9.573,9.573,0,0,1,456.868,311.336Z" transform="translate(-301.68 -259.535)" fill="#454545"/>
        <path id="Path_420-2" data-name="Path 420" d="M378.755,309.667c1.392.045,2.088.067,2.187.077.635.057.843.115.875.035.08-.182-.938-.584-1.979-1.574,0,0-1.66-1.593-1.6-3.217.016-.421.354-.718.926-.613.511.1.795.23.715.661-.025.144-.575.313-.878.351a.387.387,0,0,0-.307.144c-.1.14-.016.348.048.5a5.681,5.681,0,0,0,.849,1.459,6.014,6.014,0,0,0,.61.6,12.007,12.007,0,0,0,2.295,1.484c2.384,1.136,3.719,1.653,4.861,2.129a19.179,19.179,0,0,1,2.263.99,10.715,10.715,0,0,1,3.31,3.192l-.109.07a19.186,19.186,0,0,0-2.681-2.429,11.719,11.719,0,0,0-3.259-1.66,26.911,26.911,0,0,0-4.175-1.334c-1.676-.2-2.608-.619-4.408-.061a4.4,4.4,0,0,0-1.025.437c-.172.131-.243.52-.536.358a1.246,1.246,0,0,1-.469-.374.683.683,0,0,1-.144-.389c.035-.45.993-.788,1.765-.859C377.961,309.641,378.225,309.647,378.755,309.667Z" transform="translate(-265.677 -265.405)" fill="#454545"/>
        <path id="Path_421-2" data-name="Path 421" d="M285.552,237.86h-5.9a1.2,1.2,0,0,0-1.194,1.194v44.112a1.2,1.2,0,0,0,1.194,1.194h5.9a1.2,1.2,0,0,0,1.194-1.194V239.054A1.2,1.2,0,0,0,285.552,237.86Zm.463,44.89a.924.924,0,0,1-.919.919h-4.989a.924.924,0,0,1-.919-.919V239.475a.924.924,0,0,1,.919-.919H285.1a.924.924,0,0,1,.919.919Z" transform="translate(-199.184 -220.136)" fill="#454545"/>
        <path id="Path_422-2" data-name="Path 422" d="M310.5,262.992c-.185,0-.373.01-.559.019v24.127a.924.924,0,0,1-.919.919H304.03a.924.924,0,0,1-.919-.919v-42.8a1.572,1.572,0,0,1-.731-.026v43.247a1.2,1.2,0,0,0,1.194,1.194h5.9a1.2,1.2,0,0,0,1.194-1.194V262.979A1.415,1.415,0,0,1,310.5,262.992Z" transform="translate(-215.469 -224.527)" fill="#454545"/>
        <path id="Path_423-2" data-name="Path 423" d="M300.664,266.875a.638.638,0,0,1-.664.6h-3.616a.636.636,0,0,1-.664-.6v-28.4a.638.638,0,0,1,.664-.6H300a.636.636,0,0,1,.664.6v28.4Z" transform="translate(-210.935 -220.142)" fill="#454545"/>
        <g id="Group_802-2" data-name="Group 802" transform="translate(79.375)">
          <path id="Path_424-2" data-name="Path 424" d="M281.378,182.35v13.489H278.77V182.35Z" transform="translate(-278.77 -182.344)" fill="#454545"/>
          <path id="Path_425-2" data-name="Path 425" d="M309.1,182.35a4.521,4.521,0,0,1,3.1,1.053,3.479,3.479,0,0,1,1.2,2.742,3.43,3.43,0,0,1-.594,2,3.947,3.947,0,0,1-1.762,1.347,3.938,3.938,0,0,1,1.149.945,12.083,12.083,0,0,1,1.245,2.017q1.235,2.451,1.835,3.38h-2.9a16.135,16.135,0,0,1-.811-1.42,30.657,30.657,0,0,0-1.641-2.9,3.971,3.971,0,0,0-1.005-1.063,2.008,2.008,0,0,0-1.111-.313h-.945v5.7H304.25V182.35Zm-.59,5.755a2.356,2.356,0,0,0,1.609-.511,1.766,1.766,0,0,0,.584-1.4,1.657,1.657,0,0,0-.578-1.385,2.6,2.6,0,0,0-1.65-.46h-1.621V188.1Z" transform="translate(-296.117 -182.344)" fill="#454545"/>
          <path id="Path_426-2" data-name="Path 426" d="M357.933,182.35v2.036h-4.788v11.449h-2.608V184.386H345.75V182.35Z" transform="translate(-324.371 -182.344)" fill="#454545"/>
          <path id="Path_427-2" data-name="Path 427" d="M400.207,182.336v7.849a4.313,4.313,0,0,0,.361,1.922,2.853,2.853,0,0,0,1.181,1.178,3.811,3.811,0,0,0,1.912.463,4.32,4.32,0,0,0,2.033-.44,2.789,2.789,0,0,0,1.223-1.2,4.679,4.679,0,0,0,.386-2.1v-7.676h2.608v8.012a5.321,5.321,0,0,1-1.631,4.185,6.675,6.675,0,0,1-4.615,1.462,7.388,7.388,0,0,1-3.249-.667,4.733,4.733,0,0,1-2.1-1.925,5.841,5.841,0,0,1-.725-2.959V182.33h2.617Z" transform="translate(-359.664 -182.33)" fill="#454545"/>
          <path id="Path_428-2" data-name="Path 428" d="M456.275,182.35l5.956,13.489H459.48l-1.4-3.281h-5.994l-1.3,3.281H448.05l5.56-13.489Zm-3.4,8.225h4.354l-2.279-5.34Z" transform="translate(-394.018 -182.344)" fill="#454545"/>
          <path id="Path_429-2" data-name="Path 429" d="M507.855,182.343v11.449H514.4v2.036H505.25V182.34h2.6Z" transform="translate(-432.961 -182.337)" fill="#454545"/>
        </g>
        <g id="Group_803-2" data-name="Group 803" transform="translate(107.843 17.766)">
          <path id="Path_430-2" data-name="Path 430" d="M370.568,238.53v13.489H367.96V238.53Z" transform="translate(-367.96 -238.358)" fill="#454545"/>
          <path id="Path_431-2" data-name="Path 431" d="M392.665,238.53l5.956,13.489H395.87l-1.4-3.281h-5.994l-1.3,3.281H384.44L390,238.53Zm-3.4,8.225h4.354l-2.279-5.34Z" transform="translate(-379.18 -238.358)" fill="#454545"/>
          <path id="Path_432-2" data-name="Path 432" d="M439.272,238.53l8.012,9.413V238.53h2.547v13.489H447.59l-8.063-9.566v9.566H436.98V238.53h2.292Z" transform="translate(-414.95 -238.358)" fill="#454545"/>
          <path id="Path_433-2" data-name="Path 433" d="M495.46,237.99a8.078,8.078,0,0,1,3.77.865,6.632,6.632,0,0,1,2.668,2.49,6.806,6.806,0,0,1-2.64,9.588,8.525,8.525,0,0,1-7.625-.013,6.673,6.673,0,0,1-3.623-6.007,6.806,6.806,0,0,1,.954-3.486,6.648,6.648,0,0,1,2.637-2.534A7.994,7.994,0,0,1,495.46,237.99Zm-4.759,6.92a4.8,4.8,0,0,0,.606,2.413,4.221,4.221,0,0,0,1.695,1.66,5.069,5.069,0,0,0,2.458.587,4.683,4.683,0,0,0,3.412-1.3,4.489,4.489,0,0,0,1.337-3.361,4.869,4.869,0,0,0-.6-2.419,4.165,4.165,0,0,0-1.7-1.666,5.45,5.45,0,0,0-4.935.006,4.121,4.121,0,0,0-1.685,1.66A4.958,4.958,0,0,0,490.7,244.91Z" transform="translate(-449.692 -237.99)" fill="#454545"/>
        </g>
        <path id="Path_434-2" data-name="Path 434" d="M317.152,240.438c-.721-.677-2.751-2.569-8.388-2.569-.709,0-4.242-.022-5.024,0a11.208,11.208,0,0,1,0,1.909c.115,0,3.1.029,3.217.029a6.706,6.706,0,0,1,4.51,1.759,8.679,8.679,0,0,1,2.662,6.764c0,4.6-3.517,7.44-6.042,7.44-.948,0-1.264.134-1.264.495,0,.316.316.361.543.405a6.731,6.731,0,0,0,.948.045c6.4,0,11.092-4.51,11.092-10.913A7.836,7.836,0,0,0,317.152,240.438Z" transform="translate(-216.395 -220.135)" fill="#454545"/>
      </g>
    </g>
  </g>
</svg>
