<svg xmlns="http://www.w3.org/2000/svg" width="267.189" height="106.553" viewBox="0 0 267.189 106.553">
  <g id="Group_902" data-name="Group 902" transform="translate(71 -202.984)">
    <g id="Group_839" data-name="Group 839" transform="translate(-71 202.984)">
      <g id="Virtual_Piano_NEW_LOGO_2020_FINAL_Black" data-name="Virtual Piano, NEW LOGO 2020 FINAL, Black" transform="translate(0)">
        <g id="Group_801" data-name="Group 801" transform="translate(0 0.026)">
          <path id="Path_417" data-name="Path 417" d="M82.781,207.746q10.922,0,18.01,7.022a6.351,6.351,0,0,1-.53-2.521,5.242,5.242,0,0,1,.492-2.081c.328-.752.789-1.123,1.393-1.123a1.43,1.43,0,0,1,.752.307c.3.207.45.4.45.577a.752.752,0,0,1-.265.577q-.262.238-.6.508a6.218,6.218,0,0,0-.6.545.943.943,0,0,0-.265.683c0,.816.2,1.229.6,1.229.35,0,.725-.27,1.128-.816a3.757,3.757,0,0,0,.45-1.022,12.221,12.221,0,0,0,.98,2.044,6.255,6.255,0,0,1,.6,2.182,2.048,2.048,0,0,1-.53,1.5l-1.054,1.228a23.69,23.69,0,0,1,4.369,13.567q0,14.251-11.83,21.611l-.45-1.091a18.442,18.442,0,0,0,5.349-8.314c0-.911-.328-1.271-.98-1.091a4.094,4.094,0,0,0-1.583.884,3.378,3.378,0,0,1-2.335-3.612q1.581-.206,1.811-2.113a3.957,3.957,0,0,1,2.335,1.16A3.341,3.341,0,0,0,97.99,237.2q-1.66-.405-1.658-1.774c0-.18.376-.318,1.128-.408.6-.09.879-.18.831-.27a2,2,0,0,0-1.732-1.3,1.449,1.449,0,0,0-.831.339,1.414,1.414,0,0,1-.831.339c-.752,0-1.128-.249-1.128-.752,0-.683.577-1.022,1.732-1.022a5.35,5.35,0,0,1,4.671,3A13.327,13.327,0,0,1,101.9,241.9c.1-.683.175-1.34.228-1.975s.074-1.25.074-1.843q-.151-10.493-7.684-15.95a14.1,14.1,0,0,1,.6,3.612q0,4.019-3.765,7.837a11.166,11.166,0,0,1-8.065,3.749q-8.817,0-13.641-4.226a13.953,13.953,0,0,1-4.448-9.474Q53.6,228.06,45.389,228.06q-9.945,0-13.79-5.386a9.247,9.247,0,0,1-1.509-5.385q0-4.973,3.765-6.815a9.432,9.432,0,0,1-1.356-4.84,8.5,8.5,0,0,1,2.261-5.762,8,8,0,0,1,5.878-2.489,11.629,11.629,0,0,1,6.408,1.568,5.986,5.986,0,0,1,2.791,5.317q0,5.934-5.047,5.931a4.73,4.73,0,0,1-3.352-1.4,4.205,4.205,0,0,1-1.467-3.1,4.316,4.316,0,0,1,.191-1.091,4.28,4.28,0,0,0,.191-1.091c-.048-.546-.328-.752-.831-.614a.884.884,0,0,1-.376.069.346.346,0,0,1-.376-.275q0-1.843,1.282-1.43a2.073,2.073,0,0,1,1.356,2.113,3.669,3.669,0,0,1-.3,1.192,3.7,3.7,0,0,0-.3,1.191,3.445,3.445,0,0,0,1.207,2.452,3.635,3.635,0,0,0,2.711.953,4.437,4.437,0,0,0,3.241-1.568,6.035,6.035,0,0,0,1.128-3.273q.079-2.113-2.335-4.226a7.487,7.487,0,0,0-4.824-2.044,8.928,8.928,0,0,0-6.556,2.452,7.637,7.637,0,0,0-.752,9.612,4.3,4.3,0,0,1,1.811-.27,7.587,7.587,0,0,1,4.56,1.229,5.449,5.449,0,0,1,2.372,3.612c.35.048.694.079,1.017.1s.667.032,1.017.032a56.5,56.5,0,0,0,13.864-2.044q3.463-.953,6.858-1.875t6.784-1.875a39.856,39.856,0,0,1,9.569-1.3h.307Zm-48.3,3.611c-2.362,1.049-3.543,3-3.543,5.862a8.056,8.056,0,0,0,4.9,7.769q3.011,1.43,9.5,1.975A32.186,32.186,0,0,0,59.5,224.512c-.953.09-1.885.148-2.791.169s-1.785.011-2.637-.037Q48.643,224.3,46,222.531a2.274,2.274,0,0,1-1.282-1.843c0-.953.53-1.477,1.583-1.567.2,0,.3.048.3.138a.723.723,0,0,1-.3.477,1.968,1.968,0,0,0-.376,1.229,1.785,1.785,0,0,0,.45.953c.3.09.6-.159.906-.752.148-.228.254-.318.3-.27a11.092,11.092,0,0,0,4.671,2.319,1.749,1.749,0,0,1,.376-1.26,8.694,8.694,0,0,0,.752-.853,2.492,2.492,0,0,0,.376-1.229q3.916,0,3.919,2.182a3.964,3.964,0,0,1-.3,1.5,24.841,24.841,0,0,0,7.763-1.229,11.366,11.366,0,0,1,2.711-7.16,19.943,19.943,0,0,1,6.328-5.179q-3.543.953-7.006,1.906c-2.309.635-4.65,1.271-7.006,1.906a56.425,56.425,0,0,1-14.24,2.113H44.722a6.74,6.74,0,0,1-1.207-.138,4.456,4.456,0,0,1-1.282,3.474,4.667,4.667,0,0,1-3.617,1.3c-1.906-.042-3.14-.429-3.691-1.16a6.543,6.543,0,0,1-.831-3.818q1.128.135,1.128,1.906a1.086,1.086,0,0,0,.339.715,4.349,4.349,0,0,0,.868.715,5.875,5.875,0,0,0,1.054.545,2.69,2.69,0,0,0,.98.207,4.139,4.139,0,0,0,2.711-.99,2.95,2.95,0,0,0,1.207-2.351,1.23,1.23,0,0,0-.074-.408v-.339Q36.969,214.432,34.48,211.358Zm7.536,3.135q-1.358-3.543-5.5-3.543c-.1,0-.249.011-.45.032s-.429.058-.678.1A13.051,13.051,0,0,0,42.016,214.493Zm55.461,39.95a31.888,31.888,0,0,0,13.869-25.286q0-9.612-4.067-16.358Q102,204.14,91.53,204.14a36.659,36.659,0,0,0-4.406.307q-2.526.31-5.915.853-3.543.683-6.106.99c-1.71.207-3.114.328-4.221.376a20.149,20.149,0,0,1-9.8-2.32q-5.354-2.661-5.349-6.614a5.229,5.229,0,0,1,2.108-3.887A6.381,6.381,0,0,1,61.991,192a13.881,13.881,0,0,1,4.295.953,13.2,13.2,0,0,0,4.369.884,2.833,2.833,0,0,0,1.811-1.16c.651-.816,1.255-1.16,1.811-1.022a14.809,14.809,0,0,1-1.128,3.612q-1.358,2.383-6.106,2.452a10.382,10.382,0,0,1-3.993-.816,10.71,10.71,0,0,0-3.845-.953,2.939,2.939,0,0,0-1.885.853,1.839,1.839,0,0,0-.831,1.668q.373,2.041,3.241,3.342a14.46,14.46,0,0,0,6.026,1.3q4.52,0,13.562-3.543,9.27-3.614,13.79-3.612,12.511,0,20.118,9a27.546,27.546,0,0,1,6.408,18.063,32.253,32.253,0,0,1-6.106,18.339,51.051,51.051,0,0,1-14.844,13.837Zm-21.627-35.11a66.245,66.245,0,0,0-9.119,3.474v.275q0,7.228,6.932,11.11a15.933,15.933,0,0,0,5.349,1.774,3.761,3.761,0,0,0-.831-1.361c-.148-.138.35-.588,1.509-1.361a6.474,6.474,0,0,1,2.034-1.228q1.732.341,1.509,1.361c-.1.545-.175.921-.228,1.123s-.074.26-.074.169a.9.9,0,0,0,.074.408q2.637-1.43,2.637-3.342c0-.27-.212-.567-.641-.884s-.641-.614-.641-.884c0-.546.249-.816.752-.816a1.626,1.626,0,0,1,1.17.614,1.777,1.777,0,0,1,.567,1.16q0,3.543-5.126,5.317h.831a11.31,11.31,0,0,0,7.684-3.273q3.694-3.336,3.691-7.292,0-5.116-5.878-6.477a3.131,3.131,0,0,0-1.207,2.32,3.581,3.581,0,0,0,.831,2.182,4.276,4.276,0,0,0,1.959,1.5q-4,.135-3.993-3.612a3.961,3.961,0,0,1,1.282-2.658,29.177,29.177,0,0,0-5.2-.477,14.15,14.15,0,0,0-1.467.1q-.945.1-2.224.238a2.235,2.235,0,0,0-.3,1.091,3.7,3.7,0,0,0,1.43,2.319,16.579,16.579,0,0,1,1.732,1.705,3.081,3.081,0,0,1,.831,2.044q.071,3.408-3.167,3.887a4.211,4.211,0,0,1,.191-1.022,4.21,4.21,0,0,0,.191-1.022q0-1.088-1.811-2.319a4.888,4.888,0,0,1-1.732-4.088A8.158,8.158,0,0,1,75.849,219.333Zm14.621-2.59a6.923,6.923,0,0,1,2.41-.477q6.855,0,11.38,6.408-4.067-9.4-14.393-12.476a29.863,29.863,0,0,0-8.139-1.022q-4.75,0-9.341,3.818-4.52,3.821-5.428,8.314a38.3,38.3,0,0,1,9.5-3.135q2.486-3.336,7.61-3.341A11.129,11.129,0,0,1,90.47,216.743Zm31.345,23.793-.228.408a19.635,19.635,0,0,1-2.637,3.612,41.278,41.278,0,0,1-3.993,3.818A46.153,46.153,0,0,1,106.6,254.1a32.031,32.031,0,0,0,3.278-1.636,28.126,28.126,0,0,0,2.976-1.975l5.349-4.226q6.18-4.972,11.153-4.978a12.55,12.55,0,0,1,7.986,2.8,8.411,8.411,0,0,1,3.543,6.815,8.8,8.8,0,0,1-3.389,7.223,12.893,12.893,0,0,1-8.213,2.8,4.134,4.134,0,0,1-.98-.069h-.376a10.481,10.481,0,0,0-3.919.816c-1.61.773-2.41,1.636-2.41,2.59,0,.455.477.974,1.43,1.567.953.636,1.382,1.112,1.282,1.43a4.363,4.363,0,0,1-2.674-.752,2.4,2.4,0,0,1-1.245-2.044q0-2.589,5.274-3.887a15.639,15.639,0,0,1-7.006-3.135,9.72,9.72,0,0,0-5.428-2.251q-1.66,0-1.658,2.113a5.279,5.279,0,0,0,.148,1.091c-1.054,0-1.583-.477-1.583-1.43q0-2.455,3.013-2.521a9.424,9.424,0,0,1,4.6,1.228c.7.455,1.382.884,2.033,1.3s1.329.842,2.033,1.3a11.764,11.764,0,0,0,3.315,1.43q-4.369-2.661-4.369-6.27a7.492,7.492,0,0,1,2.033-5.179,6.832,6.832,0,0,1,5.274-2.319,5.79,5.79,0,0,1,2.15.408,6.957,6.957,0,0,1,1.811,1.059,5.116,5.116,0,0,1,1.281,1.567,4.055,4.055,0,0,1,.487,1.944q.151,1.978,1.356,1.975a3.207,3.207,0,0,0,.98-.207,1.854,1.854,0,0,1-1.959,1.43q-1.962-.135-1.959-1.43a4.664,4.664,0,0,1,.191-1.059,4.569,4.569,0,0,0,.191-1.059c0-.911-.6-1.747-1.811-2.521A5.166,5.166,0,0,0,127.466,247a5.262,5.262,0,0,0-3.845,2.251,6.761,6.761,0,0,0-1.658,4.157,5.18,5.18,0,0,0,.567,2.351,6.225,6.225,0,0,0,1.509,1.943,7.15,7.15,0,0,0,2.224,1.3,7.5,7.5,0,0,0,2.637.477,7.8,7.8,0,0,1-3.241-2.452,5.529,5.529,0,0,1-1.356-3.474,4.114,4.114,0,0,1,.906-2.452,2.723,2.723,0,0,1,2.261-1.229,1.177,1.177,0,0,1,.868.477,1.013,1.013,0,0,1,.339.815c-.148.635-.577.884-1.281.752a1.659,1.659,0,0,0-.45-.069.7.7,0,0,1-.3-.069c-.2-.042-.3.021-.3.207,0,.27.228.535.678.784s.6.466.45.646a2.6,2.6,0,0,0-.752,2.044,1.814,1.814,0,0,0,2.187,1.774,2.247,2.247,0,0,0,1.509-.953,2.532,2.532,0,0,1,1.811.884c.148.318.3.614.45.884s.3.567.45.884q6.633-1.7,6.63-8.044,0-3.273-3.469-5.793a12.281,12.281,0,0,0-7.006-2.388q-3.845,0-10.475,4.634l-5.428,3.887q-1.43.953-2.9,1.774a22.209,22.209,0,0,1-3.13,1.43l-1.959-1.022a49.122,49.122,0,0,0,15.071-12.476h-.074q1.509-2.383,2.976-4.84t2.976-4.84q1.732-2.86,3.426-5.147t3.278-4.125a48.879,48.879,0,0,1,5.5-5.523v-.207a11.113,11.113,0,0,1,2.711-6.953q2.86-3.678,6.7-3.749a22.277,22.277,0,0,0-3.765,6.683c.8-.5,1.6-1.022,2.41-1.568s1.61-1.091,2.41-1.636q3.845-2.661,3.919-3.543a.78.78,0,0,0-.228-.477,3.773,3.773,0,0,0-.53-.514,2.3,2.3,0,0,1-.487-.508.506.506,0,0,1-.111-.477,1.1,1.1,0,0,1,1.207-.815q1.66,0,1.658,2.319,0,2.113-3.469,4.364-1.056.683-2.3,1.329T146,211.967c-.3.09-.3.138,0,.138a3.259,3.259,0,0,0,.98,0c1.054-.048,1.8-.079,2.224-.1s.54-.032.339-.032q4.067,0,3.993,2.727-.151,2.184-.98,1.906a1.18,1.18,0,0,1-.678-.408l-.3-.275c.651-.408.906-.816.752-1.229-.3-.725-1.207-1.3-2.711-1.705a5.627,5.627,0,0,0-1.583-.27q-4.75,0-4.369,4.019a20.656,20.656,0,0,0,1.128,5.317.883.883,0,0,0,.376-.069h.3q4.369,0,5.65,4.634a4.946,4.946,0,0,0,.53,1.192c.249.434.577.943.98,1.536.1.18.175.318.228.408s.1.18.148.27a1.118,1.118,0,0,1-.678.138q-1.358-.206-2.791-3.956-1.509-3.479-4.295-3.474h-.148q.826,1.708,2.034,4.194t2.791,5.963a29.6,29.6,0,0,1,2.791,11.862q0,11.113-12.206,19.361-.826.548-2.41,1.4t-3.919,1.943a36.1,36.1,0,0,0-3.654,1.875c-1.033.614-1.9,1.17-2.6,1.668a21.31,21.31,0,0,0-3.993,4.432l-1.583-.339c.1-.365.2-.726.3-1.091a17.36,17.36,0,0,0-10.4-6.683,34.8,34.8,0,0,0-4.787-.853q-3.05-.373-7.573-.646A35.953,35.953,0,0,1,85.72,262a14.9,14.9,0,0,1-3.765-2.8c-.5.09-.895.159-1.17.206a4.45,4.45,0,0,1-.492.069q-6.029,0-6.026-4.565a3.309,3.309,0,0,1,.6-1.906,1.633,1.633,0,0,1,1.732-1.022q1.207.071,1.207.477a5.591,5.591,0,0,1-1.732,2.452c-.45.5-.678.816-.678.953q0,2.454,4.146,2.452a8.076,8.076,0,0,0,1.509-.138,10.838,10.838,0,0,1-2.489-6.884,12.035,12.035,0,0,1,.53-3.612h-.53a6.125,6.125,0,0,0-4.221,1.705,8.9,8.9,0,0,0-2.637,3.543,8.6,8.6,0,0,0-.6,2.929q.151,6.132,9.871,9.273a55.113,55.113,0,0,0,17.1,2.452q14.012,0,23.888,7.16h-1.207a41.9,41.9,0,0,0-22.533-6.069q-11.375,0-18.159-2.32Q69.894,263.022,69.9,255.449a9.048,9.048,0,0,1,2.409-6.138,7.74,7.74,0,0,1,6.18-2.727h.906A6.919,6.919,0,0,1,86.4,241.95a8.161,8.161,0,0,1,4.295,1.774,8.468,8.468,0,0,0,3.845,1.843,1.14,1.14,0,0,0,1.017-.545,1.289,1.289,0,0,1,1.17-.546,3.625,3.625,0,0,1-.906,3,3.8,3.8,0,0,1-3.013,1.3,7.9,7.9,0,0,1-3.315-.953c-1.054-.588-2.108-1.149-3.167-1.668a8.817,8.817,0,0,0-2.939-.921,2.658,2.658,0,0,0-2.409,1.636q5.5,1.088,5.5,5.793a10.324,10.324,0,0,1-.376,2.251q5.425,2.113,16.353,2.8,9.945.683,17.258,9.273a23.155,23.155,0,0,1,3.543,5.523q1.811-3.543,9.723-7.906a44.69,44.69,0,0,0,5.725-3.85,20.94,20.94,0,0,0,3.919-4.056,12.053,12.053,0,0,0,2.261-7.361,17,17,0,0,0-.678-4.909c-.1-.27-.3-.784-.6-1.536s-.731-1.758-1.282-3.034a47.372,47.372,0,0,1-3.469-15.744q-4.6,1.906-10.025,8.044a8.5,8.5,0,0,1,4.6-1.568,5.224,5.224,0,0,1,2.865.815,2.232,2.232,0,0,1,.831.884,1.149,1.149,0,0,1-.228.853.842.842,0,0,1-.678.445c-.254,0-.63-.27-1.128-.816a9.818,9.818,0,0,1-1.054-1.16,12.012,12.012,0,0,0-.678,1.3c-.148.408-.45.455-.906.138a2.238,2.238,0,0,0-1.43-.477,4.6,4.6,0,0,0-2.261.752c.4.048.7.079.906.1s.328.032.376.032c.6.138.927.365.98.683.1.408-.148.752-.752,1.022a5.383,5.383,0,0,0-1.732.884,2.429,2.429,0,0,0-.376,1.361c0,.455-.275.683-.831.683a6.4,6.4,0,0,1-2.489-1.3,26,26,0,0,1-2.865,3.749h-.159ZM78.561,217.9a24.391,24.391,0,0,1,3.167-.207,28.782,28.782,0,0,1,5.878.614.959.959,0,0,0,.376-.683q0-.612-1.509-1.16a14.765,14.765,0,0,0-3.993-.545A5.143,5.143,0,0,0,78.561,217.9Zm6.334,36.54V254.1q0-5.385-4.295-6.2a3.5,3.5,0,0,0-.074.953Q80.668,252.327,84.894,254.443Zm28.782-10.295c.048-.048.148-.148.3-.307s.249-.259.3-.307a42.271,42.271,0,0,0,7.61-14.113,4.427,4.427,0,0,0,.191-1.022,6.176,6.176,0,0,0-.037-1.16,28.021,28.021,0,0,0-.228-4.088c-.1-.27-.212-.625-.339-1.059s-.291-.943-.487-1.536c-.1-.228-.074-.339.074-.339q.977,0,1.811,2.658A32,32,0,0,0,117,204.468q-3.845-5.314-4.067-5.793a14.682,14.682,0,0,1-2.187-6.545q-7.459-4.3-17.857-4.364a22.164,22.164,0,0,0-5.5.752q-3.694,1.088-3.691,3.066c0,1.684-.254,2.547-.752,2.59-.254,0-.376-.567-.376-1.705a1.2,1.2,0,0,0-.265-.646,1.454,1.454,0,0,1-.265-.853q0-2.041,3.919-3.474a20.054,20.054,0,0,1,6.784-1.091,36.132,36.132,0,0,1,17.936,4.634,7.958,7.958,0,0,1,3.013-5.931,9.768,9.768,0,0,1,6.7-2.727,16.692,16.692,0,0,1,6.254,1.091q3.614,1.573,3.617,4.157,0,6.41-6.7,6.545-4.973.135-5.126-3.474-.222-4.361,4.522-4.364a3.8,3.8,0,0,1,2.489,1.16,4.021,4.021,0,0,1,.752,1.16,1.305,1.305,0,0,1-.3,1.229,2.074,2.074,0,0,1-.678-.577c-.254-.3-.577-.667-.98-1.123a2.653,2.653,0,0,0-1.43-1.16,3.2,3.2,0,0,0-2.563.715,2.371,2.371,0,0,0-.6,2.351,3.687,3.687,0,0,0,1.207,2.351,3.6,3.6,0,0,0,2.563.99,6.307,6.307,0,0,0,3.993-1.5,4.2,4.2,0,0,0,2.033-3.341q0-1.978-2.711-3.749a10.333,10.333,0,0,0-5.576-1.774,9.051,9.051,0,0,0-6.106,2.658q-2.939,2.661-2.939,5.587,0,.683,3.691,3.818.826.754,2.033,1.906c.8.773,1.705,1.684,2.711,2.727q4.3-3.479,11.078-3.474c.249,0,.514.011.789.032s.54.058.789.1a10.848,10.848,0,0,1,4.6-5.724,14.128,14.128,0,0,1,7.536-2.251,8.854,8.854,0,0,1,4.067.884,3.427,3.427,0,0,1,2.187,3,3.236,3.236,0,0,1-.678,1.943,2.068,2.068,0,0,1-1.732.921c-1.154.048-1.785-.111-1.885-.477q-.151-.818,1.885-2.251c.551-.365.831-.635.831-.816,0-.773-.556-1.387-1.658-1.843a6.645,6.645,0,0,0-2.865-.683,10.878,10.878,0,0,0-3.389.683,13.669,13.669,0,0,0-3.087,1.6,12.684,12.684,0,0,0-2.563,2.351,12.869,12.869,0,0,0-1.811,2.865c.4.09,1.091.3,2.071.614s2.245.773,3.808,1.361a22.684,22.684,0,0,0,5.952,1.3c.853,0,1.933-.588,3.241-1.774a8.782,8.782,0,0,1,2.637-1.843q0,3.614-3.691,6.477a12.384,12.384,0,0,1-7.536,2.8,19.151,19.151,0,0,1-7.308-1.705,59.78,59.78,0,0,1-10.549,30.132q-.453.612-1.959,2.59t-4.067,5.317a46.071,46.071,0,0,1-6.784,7.5,34.452,34.452,0,0,1-8.589,5.454l-.752-.752a32.112,32.112,0,0,0,12.662-9.887ZM109.455,284.3a4.783,4.783,0,0,1-.906-2.8,6.4,6.4,0,0,1,2.261-4.634,7.219,7.219,0,0,1,5.047-2.113h.678a3.627,3.627,0,0,1,.678.069l1.356.138a18,18,0,0,0-7.16-1.636,27.273,27.273,0,0,0-7.912,1.43q-1.883.612-3.765,1.229t-3.845,1.228a23.041,23.041,0,0,1-2.748.514c-.932.111-1.9.191-2.9.238a9.064,9.064,0,0,1-3.617-.816c-1.409-.683-2.108-1.525-2.108-2.521s.45-1.409,1.356-1.229c.906.228,1.356.566,1.356,1.022a.931.931,0,0,1-.376.614c-.254.228-.376.408-.376.545q.072,1.636,3.919,1.636,2.637,0,9.119-2.521,6.553-2.455,10.321-2.452a17.93,17.93,0,0,1,10.321,2.865h.228v.138c0,.138.4.477,1.207,1.022.1.09.148.159.148.207l-1.356-.683v.069c0-.18-.556-.3-1.658-.339a3.664,3.664,0,0,0-.678-.069h-1.207a9.966,9.966,0,0,0-2.865.408,8.007,8.007,0,0,0-2.41,1.16,5.364,5.364,0,0,0-1.658,1.875,5.046,5.046,0,0,0-.6,2.42q0,2.661,2.939,4.7A10.159,10.159,0,0,0,118.722,288a10.05,10.05,0,0,0,5.126-1.568q2.788-1.771,2.865-3.68a3.07,3.07,0,0,0-.265-1.536,4.553,4.553,0,0,0-.943-1.4,6.317,6.317,0,0,0-1.393-1.059,3.28,3.28,0,0,0-1.62-.445,4.529,4.529,0,0,0-2.828.784,2.578,2.578,0,0,0-1.244,2.214,2.26,2.26,0,0,0,.6,1.361,2.464,2.464,0,0,1,.6,1.568q0,1.565-2.41,1.568a1.294,1.294,0,0,1,.191-.614,1.294,1.294,0,0,0,.191-.614,3.609,3.609,0,0,0-.567-1.737,3.564,3.564,0,0,1-.567-1.668,3.018,3.018,0,0,1,1.885-2.658,9.224,9.224,0,0,1,3.543-.884,6.349,6.349,0,0,1,2.108.339,5.384,5.384,0,0,1,1.769,1.022,5.25,5.25,0,0,1,1.244,1.536,3.922,3.922,0,0,1,.45,1.875,4.846,4.846,0,0,1-.98,3l4.067-3.066a8.244,8.244,0,0,1,4.671-1.843q2.788,0,2.939,1.43c0,.911-.275,1.25-.831,1.022a5.227,5.227,0,0,1-2.489-1.43,4.655,4.655,0,0,0-2.409.953l-3.167,2.182a23.166,23.166,0,0,1-7.006,3.543,13.31,13.31,0,0,1-3.167.477Q112.254,288.663,109.455,284.3ZM88.734,218.586a7.511,7.511,0,0,0,1.509.408.454.454,0,0,0,.228-.138,3.751,3.751,0,0,0-.3-.238c-.148-.111-.4-.286-.752-.514A2.822,2.822,0,0,1,88.734,218.586Zm5.052,1.838q10.025,5.116,10.025,14.589,0,8.928-4.295,15.066,6.633-6.267,6.7-17.793a12.9,12.9,0,0,0-.45-4.565q-4.067-10.7-12.884-10.7a4.138,4.138,0,0,0-1.658.27A9.333,9.333,0,0,1,93.785,220.424Zm18.461-27.336a13.4,13.4,0,0,0,1.959,5.523,44.88,44.88,0,0,0,3.617,4.84l-.228-.477c-.053-.138.228-.545.831-1.228.1-.09.212-.207.339-.339s.238-.249.339-.339l.376-.339A24.323,24.323,0,0,0,112.246,193.088Zm7.16,9.786c-.35.3-.778.625-1.282.99a23.965,23.965,0,0,1,5.576,11.179,30.483,30.483,0,0,1,.376,5.725,15.9,15.9,0,0,0,.228-2.32,37.636,37.636,0,0,0-3.993-16.289Q119.93,202.429,119.406,202.874Zm1.806,32.208q10.922-15.609,11.528-31.7-5.425-2.455-8.743-2.452a6.872,6.872,0,0,0-2.335.545,27.591,27.591,0,0,1,4.221,13.769A42.821,42.821,0,0,1,121.211,235.082Zm3.543,40.353a14.758,14.758,0,0,1,4.295-4.295,16.722,16.722,0,0,1,7.912-3.2q6.251-.755,8.664-3.2a2.579,2.579,0,0,0,.831-1.705.668.668,0,0,0-.228-.445.693.693,0,0,1-.228-.445c0-.365.275-.545.831-.545q1.207,0,1.207,1.16,0,2.248-4.067,4.157a33.136,33.136,0,0,1-8.214,2.452,16.211,16.211,0,0,0-10.247,6.408Zm13.79-57.463a67.539,67.539,0,0,0-6.408,7.054,105.067,105.067,0,0,0-6.328,8.965q6.935-8.722,12.964-10.84Q138.541,220.831,138.544,217.972Zm-12.206,58.215a16.7,16.7,0,0,1,10.247-5.725q13.409-2.041,15.373-7.567c.1-.228-.074-.466-.53-.715s-.678-.509-.678-.784c0-.821.424-1.229,1.282-1.229.953,0,1.382.387,1.282,1.16q-.381,2.725-3.993,5.931a10.067,10.067,0,0,1-3.691,2.113l2.033.508q1.207.31,2.865.715,3.011.818,3.013,2.521c0,.863-.376,1.3-1.128,1.3-.2,0-.35-.2-.45-.577a1.65,1.65,0,0,0-.376-.784,9.954,9.954,0,0,0-7.006-2.727q.071,0-7.234.816a13.366,13.366,0,0,0-5.8,1.906,32.392,32.392,0,0,0-4.824,3.543Z" transform="translate(-30.09 -182.38)" fill="#ff8300"/>
        </g>
        <path id="Path_418" data-name="Path 418" d="M381.176,345.863a4.527,4.527,0,0,1-.985-2.8,6.22,6.22,0,0,1,2.462-4.634,8.232,8.232,0,0,1,5.5-2.113h.736a4.278,4.278,0,0,1,.736.069l1.478.138a21.063,21.063,0,0,0-7.8-1.637,32.12,32.12,0,0,0-8.616,1.43c-1.366.408-2.738.815-4.1,1.228s-2.764.816-4.183,1.229a27.019,27.019,0,0,1-2.992.514q-1.517.167-3.156.238a10.6,10.6,0,0,1-3.94-.816q-2.3-1.025-2.3-2.521c0-1,.492-1.409,1.478-1.228.985.228,1.477.567,1.477,1.022,0,.18-.138.387-.408.615s-.408.408-.408.545q.079,1.636,4.268,1.636,2.868,0,9.924-2.521,7.133-2.454,11.237-2.452a20.819,20.819,0,0,1,11.237,2.865h.244v.138c0,.138.434.476,1.313,1.022.111.09.164.159.164.207l-1.477-.683v.069c0-.18-.6-.3-1.806-.339a4.332,4.332,0,0,0-.736-.069H389.22a11.737,11.737,0,0,0-3.119.408,9.177,9.177,0,0,0-2.626,1.16,5.543,5.543,0,0,0-1.806,1.875,4.707,4.707,0,0,0-.657,2.42q0,2.661,3.2,4.7a11.757,11.757,0,0,0,7.054,1.975,11.622,11.622,0,0,0,5.576-1.568q3.034-1.771,3.119-3.68a2.877,2.877,0,0,0-.286-1.536,4.462,4.462,0,0,0-1.027-1.4,6.762,6.762,0,0,0-1.52-1.059,3.8,3.8,0,0,0-1.763-.445,5.247,5.247,0,0,0-3.077.784,2.549,2.549,0,0,0-1.356,2.214,2.164,2.164,0,0,0,.657,1.361,2.37,2.37,0,0,1,.657,1.568q0,1.565-2.627,1.568a1.223,1.223,0,0,1,.207-.614,1.223,1.223,0,0,0,.206-.614,3.416,3.416,0,0,0-.614-1.737,3.376,3.376,0,0,1-.614-1.668q0-1.636,2.049-2.659a10.75,10.75,0,0,1,3.855-.884,7.517,7.517,0,0,1,2.3.339,6.026,6.026,0,0,1,1.928,1.022,5.433,5.433,0,0,1,1.356,1.536,3.672,3.672,0,0,1,.492,1.875,4.584,4.584,0,0,1-1.064,3l4.427-3.066a9.448,9.448,0,0,1,5.084-1.843q3.034,0,3.2,1.43c0,.911-.3,1.25-.9,1.022a5.8,5.8,0,0,1-2.706-1.43,5.352,5.352,0,0,0-2.627.953l-3.447,2.182a26.213,26.213,0,0,1-7.631,3.543,15.706,15.706,0,0,1-3.447.476Q384.215,350.226,381.176,345.863Z" transform="translate(-182.479 -253.592)" fill="#ff8300"/>
        <path id="Path_419" data-name="Path 419" d="M471.322,340.749a1.089,1.089,0,0,0,.572.286c.985.191,2.028-.471,3.14-1.991a12.277,12.277,0,0,0,1.88-4.136,20.664,20.664,0,0,0-.46-11.994,6.512,6.512,0,0,0,4.761-1.075,6.393,6.393,0,0,0,3.045-3.861,9.489,9.489,0,0,0,.217-4.109c-.365-1.673-1.17-2.627-2.42-2.87q-4.623-.9-5.8,3.326-.9,3.13,1.684,3.728c2.076.5,3.363-.249,3.876-2.251a2.229,2.229,0,0,0-.434-1.737,2.826,2.826,0,0,0-.715-.641,1.078,1.078,0,0,0-.932.021,1.326,1.326,0,0,0,.307.508q.262.3.652.778a1.609,1.609,0,0,1,.6,1.07,2.028,2.028,0,0,1-.927,1.52,1.981,1.981,0,0,1-1.8.053,2.694,2.694,0,0,1-1.5-1.091,2.088,2.088,0,0,1-.3-1.758,4.073,4.073,0,0,1,1.727-2.314,3.392,3.392,0,0,1,2.738-.821,3.323,3.323,0,0,1,2.267,2.24,5.914,5.914,0,0,1,.381,3.776,5.982,5.982,0,0,1-2.9,3.49,6.213,6.213,0,0,1-4.507,1.075q-.492-.1-2.161-2.87c-.27-.418-.62-.937-1.049-1.552s-.937-1.313-1.53-2.1a10.863,10.863,0,0,0,4.29-6.519,4.67,4.67,0,0,0,.1-.5,4.553,4.553,0,0,0,.053-.514,8.533,8.533,0,0,0,4.872-2.108,8.9,8.9,0,0,0,2.833-4.454,5.062,5.062,0,0,0,.016-2.7,2.347,2.347,0,0,0-1.811-1.8,2.679,2.679,0,0,0-1.509.159,1.411,1.411,0,0,0-.943.969c-.217.725-.207,1.144.042,1.26.376.143,1.017-.154,1.928-.879.35-.3.593-.435.726-.408.556.106.911.546,1.059,1.308a3.751,3.751,0,0,1,.032,1.906,6.689,6.689,0,0,1-1.038,2.049,9.418,9.418,0,0,1-3.76,3.024,10.1,10.1,0,0,1-2.357.742q0-.4-.111-1.4c-.074-.662-.2-1.531-.371-2.6a12.8,12.8,0,0,1,.021-3.945q.206-.81,1.8-1.8a6.147,6.147,0,0,0,1.753-1.409,6.624,6.624,0,0,0-5.264,1.43,7.977,7.977,0,0,0-3.225,4.374,10.934,10.934,0,0,0,.053,4.861,49.984,49.984,0,0,0-23.433,2.463c-.344.132-1.07.424-2.182.879s-2.611,1.065-4.491,1.832a36.394,36.394,0,0,0-6.5,3.241,24.287,24.287,0,0,0-5.317,4.671l.593.366a22.31,22.31,0,0,1,8.992-6.413l.037.058c.042-.027.132-.074.27-.148s.228-.122.27-.148a34.81,34.81,0,0,1,11.4-2.844,3.762,3.762,0,0,1,.768.021,5.161,5.161,0,0,1,.831.185,23.219,23.219,0,0,1,2.913.715c.18.1.418.222.71.36s.635.312,1.027.524c.148.1.233.1.259,0,.106-.413-.44-.916-1.626-1.514a24.473,24.473,0,0,1,12.333,6.291q3.217,3.177,3.527,3.384a11.211,11.211,0,0,0,4.369,2.3,20.4,20.4,0,0,1,.275,11.91,13.536,13.536,0,0,1-1.425,3.373c-.921,1.456-1.853,2.092-2.807,1.907-1.213-.233-1.875-.2-1.991.116-.042.159.349.318,1.17.476A.737.737,0,0,1,471.322,340.749Zm-.625-26.256a21.249,21.249,0,0,0-9.257-4.6,35.986,35.986,0,0,0-15.061.18q13.019-4.726,24.72-2.86a12.965,12.965,0,0,1,.365,5.873A4.326,4.326,0,0,1,470.7,314.493Zm-.71.763c-.169.132-.392.291-.662.471s-.577.408-.921.673a17.445,17.445,0,0,0-7.17-5.089,25.01,25.01,0,0,0-4.072-1.038,13.473,13.473,0,0,1,1.711.18A29.372,29.372,0,0,1,469.987,315.256Zm5.243,6.365a10.137,10.137,0,0,1-3.67-2.012,30.578,30.578,0,0,1-2.913-2.966l.307.212c.09.053.429-.069,1.017-.355a3.44,3.44,0,0,1,.3-.169c.116-.058.217-.117.3-.17l.307-.19A15.882,15.882,0,0,1,475.23,321.621Z" transform="translate(-217.758 -235.679)" fill="#ff8300"/>
        <path id="Path_420" data-name="Path 420" d="M380.487,313.169c2.309.074,3.463.111,3.628.127,1.054.1,1.4.19,1.451.058.132-.3-1.557-.969-3.283-2.611,0,0-2.754-2.642-2.648-5.338.026-.7.588-1.191,1.536-1.017.847.159,1.319.381,1.186,1.1-.042.238-.953.519-1.456.583a.642.642,0,0,0-.509.238c-.159.233-.026.577.079.826a9.428,9.428,0,0,0,1.409,2.42,9.976,9.976,0,0,0,1.011,1,19.919,19.919,0,0,0,3.808,2.462c3.956,1.885,6.17,2.743,8.065,3.532a31.825,31.825,0,0,1,3.755,1.642,17.777,17.777,0,0,1,5.492,5.3l-.18.116a31.823,31.823,0,0,0-4.448-4.03,19.444,19.444,0,0,0-5.407-2.754,44.65,44.65,0,0,0-6.927-2.214c-2.78-.334-4.327-1.027-7.313-.1a7.3,7.3,0,0,0-1.7.725c-.286.217-.4.863-.89.593a2.067,2.067,0,0,1-.779-.62,1.133,1.133,0,0,1-.238-.646c.058-.747,1.647-1.308,2.928-1.424C379.169,313.126,379.608,313.137,380.487,313.169Z" transform="translate(-192.88 -239.734)" fill="#ff8300"/>
        <path id="Path_421" data-name="Path 421" d="M290.227,237.86h-9.786a1.984,1.984,0,0,0-1.981,1.98v73.185a1.984,1.984,0,0,0,1.981,1.981h9.786a1.984,1.984,0,0,0,1.98-1.981V239.84A1.988,1.988,0,0,0,290.227,237.86Zm.768,74.477a1.532,1.532,0,0,1-1.525,1.525h-8.277a1.532,1.532,0,0,1-1.525-1.525v-71.8a1.532,1.532,0,0,1,1.525-1.525h8.277a1.532,1.532,0,0,1,1.525,1.525Z" transform="translate(-146.933 -208.453)" fill="#ff8300"/>
        <path id="Path_422" data-name="Path 422" d="M315.847,275.305c-.307,0-.62.016-.927.032v40.029a1.532,1.532,0,0,1-1.525,1.525h-8.277a1.532,1.532,0,0,1-1.525-1.525V244.352a2.609,2.609,0,0,1-1.213-.042v71.75a1.984,1.984,0,0,0,1.981,1.981h9.786a1.984,1.984,0,0,0,1.981-1.981V275.284A2.346,2.346,0,0,1,315.847,275.305Z" transform="translate(-158.186 -211.488)" fill="#ff8300"/>
        <path id="Path_423" data-name="Path 423" d="M303.923,285.991a1.059,1.059,0,0,1-1.1,1h-6a1.056,1.056,0,0,1-1.1-1v-47.12a1.059,1.059,0,0,1,1.1-1h5.995a1.056,1.056,0,0,1,1.1,1v47.12Z" transform="translate(-155.053 -208.458)" fill="#ff8300"/>
        <g id="Group_802" data-name="Group 802" transform="translate(131.691)">
          <path id="Path_424" data-name="Path 424" d="M283.1,182.35v22.379H278.77V182.35Z" transform="translate(-278.77 -182.339)" fill="#ff8300"/>
          <path id="Path_425" data-name="Path 425" d="M312.3,182.35a7.5,7.5,0,0,1,5.142,1.748,5.771,5.771,0,0,1,1.986,4.549,5.69,5.69,0,0,1-.985,3.326,6.548,6.548,0,0,1-2.923,2.235,6.532,6.532,0,0,1,1.906,1.568,20.046,20.046,0,0,1,2.065,3.347q2.049,4.067,3.045,5.608h-4.819a26.746,26.746,0,0,1-1.345-2.356,50.863,50.863,0,0,0-2.722-4.814,6.588,6.588,0,0,0-1.668-1.763,3.332,3.332,0,0,0-1.843-.519h-1.568v9.453H304.25V182.35Zm-.98,9.548a3.909,3.909,0,0,0,2.669-.847,2.93,2.93,0,0,0,.969-2.325,2.75,2.75,0,0,0-.959-2.3,4.31,4.31,0,0,0-2.738-.762h-2.69V191.9Z" transform="translate(-290.757 -182.339)" fill="#ff8300"/>
          <path id="Path_426" data-name="Path 426" d="M365.963,182.35v3.379H358.02v19h-4.327v-19H345.75V182.35Z" transform="translate(-310.28 -182.339)" fill="#ff8300"/>
          <path id="Path_427" data-name="Path 427" d="M401.932,182.341v13.022a7.155,7.155,0,0,0,.6,3.188,4.734,4.734,0,0,0,1.959,1.954,6.323,6.323,0,0,0,3.172.768,7.167,7.167,0,0,0,3.373-.731,4.628,4.628,0,0,0,2.028-1.986,7.763,7.763,0,0,0,.641-3.484V182.335h4.326v13.292a8.828,8.828,0,0,1-2.706,6.943Q412.617,205,407.668,205a12.258,12.258,0,0,1-5.391-1.107,7.852,7.852,0,0,1-3.485-3.193,9.691,9.691,0,0,1-1.2-4.909V182.33h4.342Z" transform="translate(-334.668 -182.33)" fill="#ff8300"/>
          <path id="Path_428" data-name="Path 428" d="M461.7,182.35l9.881,22.379h-4.565l-2.325-5.444h-9.945l-2.161,5.444H448.05l9.225-22.379ZM456.057,196h7.223l-3.781-8.86Z" transform="translate(-358.406 -182.339)" fill="#ff8300"/>
          <path id="Path_429" data-name="Path 429" d="M509.571,182.345v19h10.861v3.379H505.25V182.34h4.321Z" transform="translate(-385.315 -182.335)" fill="#ff8300"/>
        </g>
        <g id="Group_803" data-name="Group 803" transform="translate(178.923 29.475)">
          <path id="Path_430" data-name="Path 430" d="M372.286,238.53v22.379H367.96V238.53Z" transform="translate(-367.96 -238.244)" fill="#ff8300"/>
          <path id="Path_431" data-name="Path 431" d="M398.087,238.53l9.881,22.379H403.4l-2.325-5.444h-9.945l-2.161,5.444H384.44l9.225-22.379Zm-5.64,13.647h7.223l-3.781-8.859Z" transform="translate(-375.713 -238.244)" fill="#ff8300"/>
          <path id="Path_432" data-name="Path 432" d="M440.782,238.53l13.292,15.617V238.53H458.3v22.379h-3.717l-13.377-15.871v15.871H436.98V238.53h3.8Z" transform="translate(-400.43 -238.244)" fill="#ff8300"/>
          <path id="Path_433" data-name="Path 433" d="M500.37,237.99a13.4,13.4,0,0,1,6.254,1.435,11,11,0,0,1,4.427,4.131,11.291,11.291,0,0,1-4.379,15.908,14.144,14.144,0,0,1-12.651-.021,11.072,11.072,0,0,1-6.01-9.966,11.292,11.292,0,0,1,1.583-5.783,11.03,11.03,0,0,1,4.374-4.2A13.263,13.263,0,0,1,500.37,237.99Zm-7.9,11.481a7.971,7.971,0,0,0,1.006,4,7,7,0,0,0,2.812,2.754,8.41,8.41,0,0,0,4.078.974,7.77,7.77,0,0,0,5.661-2.161,7.447,7.447,0,0,0,2.219-5.576,8.078,8.078,0,0,0-1-4.014,6.91,6.91,0,0,0-2.818-2.764,9.042,9.042,0,0,0-8.187.011,6.837,6.837,0,0,0-2.8,2.754A8.226,8.226,0,0,0,492.474,249.471Z" transform="translate(-424.436 -237.99)" fill="#ff8300"/>
        </g>
        <path id="Path_434" data-name="Path 434" d="M325.992,242.138c-1.2-1.123-4.565-4.263-13.917-4.263-1.176,0-7.038-.037-8.335,0a18.6,18.6,0,0,1,.005,3.167c.191-.005,5.142.048,5.338.048a11.125,11.125,0,0,1,7.483,2.918c4.189,3.739,4.417,8.754,4.417,11.221,0,7.631-5.836,12.344-10.025,12.344-1.573,0-2.1.222-2.1.821,0,.524.524.6.9.673a11.169,11.169,0,0,0,1.573.074c10.623,0,18.4-7.483,18.4-18.106A13,13,0,0,0,325.992,242.138Z" transform="translate(-158.826 -208.453)" fill="#ff8300"/>
      </g>
    </g>
  </g>
</svg>
