<svg xmlns="http://www.w3.org/2000/svg" width="9.584" height="12.899" viewBox="0 0 9.584 12.899">
  <g id="music_1_" data-name="music(1)" transform="translate(-40)">
    <path id="Path_559" data-name="Path 559" d="M49.584,36.159l-.894-.6-5.215,7.823H40v2.15a.537.537,0,0,0,.537.537h6.45a.537.537,0,0,0,.537-.537v-2.15H44.767Z" transform="translate(0 -33.174)" fill="#fff"/>
    <path id="Path_560" data-name="Path 560" d="M127.578,116.008l-.338-2.016-1.344,2.016Z" transform="translate(-80.125 -106.334)" fill="#fff"/>
    <path id="Path_561" data-name="Path 561" d="M44.216,9.674V6.45h-.537V5.375h.537V3.762h-.537V2.687h.537V1.075h1.075V2.687h.537V3.762h-.537V5.375h.537V6.45h-.537V8.005l2.3-3.443L46.9.443A.537.537,0,0,0,46.366,0H43.141a.537.537,0,0,0-.529.443L41.063,9.674Z" transform="translate(-0.992 0)" fill="#fff"/>
  </g>
</svg>
