<svg xmlns="http://www.w3.org/2000/svg" width="13.681" height="16.417" viewBox="0 0 13.681 16.417">
  <g id="signs" transform="translate(-42.667)">
    <g id="Group_936" data-name="Group 936" transform="translate(42.667)">
      <g id="Group_935" data-name="Group 935">
        <path id="Path_546" data-name="Path 546" d="M47.113,0h-3.42a1.027,1.027,0,0,0-1.026,1.026V15.391a1.027,1.027,0,0,0,1.026,1.026h3.42a1.027,1.027,0,0,0,1.026-1.026V1.026A1.027,1.027,0,0,0,47.113,0Z" transform="translate(-42.667)" fill="#fff"/>
      </g>
    </g>
    <g id="Group_938" data-name="Group 938" transform="translate(50.875)">
      <g id="Group_937" data-name="Group 937">
        <path id="Path_547" data-name="Path 547" d="M303.113,0h-3.42a1.027,1.027,0,0,0-1.026,1.026V15.391a1.027,1.027,0,0,0,1.026,1.026h3.42a1.027,1.027,0,0,0,1.026-1.026V1.026A1.027,1.027,0,0,0,303.113,0Z" transform="translate(-298.667)" fill="#fff"/>
      </g>
    </g>
  </g>
</svg>
