<svg xmlns="http://www.w3.org/2000/svg" width="15.835" height="15.835" viewBox="0 0 15.835 15.835">
  <path id="technology" d="M12.268,6.216a2.316,2.316,0,0,1-1.907-.99V6.9a3.553,3.553,0,0,0,1.907.553,2.333,2.333,0,0,1,2.33,2.33v.979H1.237v-7.2a2.333,2.333,0,0,1,2.33-2.33H5.794a2.316,2.316,0,0,1,1.62.649H8.942A3.574,3.574,0,0,0,5.794,0H3.567A3.571,3.571,0,0,0,0,3.567V15.835H15.835V9.783A3.571,3.571,0,0,0,12.268,6.216ZM1.237,14.6V12H2.412v1.546H3.649V12H4.856v1.546H6.093V12H7.3v1.546H8.536V12H9.742v1.546h1.237V12h1.237v1.546h1.237V12H14.6v2.6ZM15.835,0V1.409l-.111.071a3.634,3.634,0,0,1-1.126.338v2.02a1.33,1.33,0,1,1-1.33-1.33c.031,0,.062,0,.093,0V.625h.619A2.818,2.818,0,0,0,15.144.387ZM8.5,3.127A2.82,2.82,0,0,0,9.67,2.889l.907-.508V3.773l-.328.209a3.632,3.632,0,0,1-1.126.338V6.959a1.33,1.33,0,1,1-1.33-1.33c.031,0,.062,0,.093,0V3.127Zm0,0" fill="#fff" opacity="0.34"/>
</svg>
