<svg xmlns="http://www.w3.org/2000/svg" width="13.449" height="12.63" viewBox="0 0 13.449 12.63">
  <g id="_x38_98_x2C__Arrows_x2C__Forward_x2C__Back_x2C__Left" transform="translate(-116 -96)">
    <g id="Group_869" data-name="Group 869" transform="translate(116 96)">
      <g id="Group_868" data-name="Group 868" transform="translate(0 0)">
        <path id="Path_482" data-name="Path 482" d="M116,97.019v10.593a1.019,1.019,0,0,0,2.037,0V97.019a1.019,1.019,0,1,0-2.037,0Z" transform="translate(-116 -96)" fill="#4e4e4e"/>
        <path id="Path_483" data-name="Path 483" d="M207.683,116.38a.374.374,0,0,0,0,.644l8.947,5.313a.373.373,0,0,0,.542-.448l-1.736-4.8a.764.764,0,0,1,0-.521c1.858-5.362,1.789-5.085,1.789-5.2h0a.376.376,0,0,0-.566-.318Z" transform="translate(-203.772 -110.387)" fill="#4e4e4e"/>
      </g>
    </g>
  </g>
</svg>
