<svg xmlns="http://www.w3.org/2000/svg" width="16.64" height="18.152" viewBox="0 0 16.64 18.152">
  <g id="social-media" opacity="0.34">
    <path id="Path_548" data-name="Path 548" d="M319.584,18.458A2.458,2.458,0,1,1,317.126,16,2.458,2.458,0,0,1,319.584,18.458Zm0,0" transform="translate(-303.512 -15.433)" fill="#fff"/>
    <path id="Path_549" data-name="Path 549" d="M301.693,6.051a3.025,3.025,0,1,1,3.025-3.025A3.028,3.028,0,0,1,301.693,6.051Zm0-4.916a1.891,1.891,0,1,0,1.891,1.891A1.893,1.893,0,0,0,301.693,1.135Zm0,0" transform="translate(-288.079 0)" fill="#fff"/>
    <path id="Path_550" data-name="Path 550" d="M319.584,359.79a2.458,2.458,0,1,1-2.458-2.458A2.458,2.458,0,0,1,319.584,359.79Zm0,0" transform="translate(-303.512 -344.663)" fill="#fff"/>
    <path id="Path_551" data-name="Path 551" d="M301.693,347.383a3.025,3.025,0,1,1,3.025-3.025A3.028,3.028,0,0,1,301.693,347.383Zm0-4.916a1.891,1.891,0,1,0,1.891,1.891A1.893,1.893,0,0,0,301.693,342.467Zm0,0" transform="translate(-288.079 -329.231)" fill="#fff"/>
    <path id="Path_552" data-name="Path 552" d="M20.916,189.126a2.458,2.458,0,1,1-2.458-2.458A2.458,2.458,0,0,1,20.916,189.126Zm0,0" transform="translate(-15.433 -180.05)" fill="#fff"/>
    <path id="Path_553" data-name="Path 553" d="M3.025,176.719a3.025,3.025,0,1,1,3.025-3.025A3.028,3.028,0,0,1,3.025,176.719Zm0-4.916a1.891,1.891,0,1,0,1.891,1.891A1.893,1.893,0,0,0,3.025,171.8Zm0,0" transform="translate(0 -164.617)" fill="#fff"/>
    <path id="Path_554" data-name="Path 554" d="M115.106,95.729a.756.756,0,0,1-.375-1.414l7.018-4a.756.756,0,1,1,.749,1.315l-7.018,4A.752.752,0,0,1,115.106,95.729Zm0,0" transform="translate(-110.294 -87.016)" fill="#fff"/>
    <path id="Path_555" data-name="Path 555" d="M122.145,271.733a.751.751,0,0,1-.374-.1l-7.018-4a.756.756,0,0,1,.749-1.315l7.018,4a.756.756,0,0,1-.375,1.414Zm0,0" transform="translate(-110.316 -256.78)" fill="#fff"/>
  </g>
</svg>
