<svg xmlns="http://www.w3.org/2000/svg" width="17.168" height="14.047" viewBox="0 0 17.168 14.047">
  <g id="interface" transform="translate(0 -42.664)">
    <g id="Group_989" data-name="Group 989" transform="translate(0 42.664)">
      <g id="Group_988" data-name="Group 988">
        <path id="Path_572" data-name="Path 572" d="M7.568,42.7a.389.389,0,0,0-.422.075l-4.018,3.8H.39a.39.39,0,0,0-.39.39v5.462a.39.39,0,0,0,.39.39H3.127l4.018,3.8a.389.389,0,0,0,.268.107.384.384,0,0,0,.154-.032.389.389,0,0,0,.236-.358V43.055A.389.389,0,0,0,7.568,42.7Z" transform="translate(0 -42.664)" fill="#fff"/>
        <path id="Path_573" data-name="Path 573" d="M244.673,171.9l-.556.556a.376.376,0,0,0-.055.482,1.947,1.947,0,0,1,0,2.3.377.377,0,0,0,.055.482l.556.556a.4.4,0,0,0,.6-.047,3.505,3.505,0,0,0,0-4.28A.4.4,0,0,0,244.673,171.9Z" transform="translate(-235.073 -167.06)" fill="#fff"/>
        <path id="Path_574" data-name="Path 574" d="M306.079,111.28a.39.39,0,0,0-.564-.009l-.552.552a.393.393,0,0,0-.01.538,5.063,5.063,0,0,1,0,6.622.393.393,0,0,0,.01.538l.552.552a.39.39,0,0,0,.564-.009,6.621,6.621,0,0,0,0-8.786Z" transform="translate(-293.699 -108.649)" fill="#fff"/>
        <path id="Path_575" data-name="Path 575" d="M366.418,50.922a.393.393,0,0,0-.564-.006l-.553.553a.386.386,0,0,0-.006.537,8.179,8.179,0,0,1,0,11.039.386.386,0,0,0,.006.537l.553.553a.393.393,0,0,0,.564-.006,9.737,9.737,0,0,0,0-13.207Z" transform="translate(-351.831 -50.503)" fill="#fff"/>
      </g>
    </g>
  </g>
</svg>
