<svg xmlns="http://www.w3.org/2000/svg" width="22.493" height="12.652" viewBox="0 0 22.493 12.652">
  <g id="logotype" transform="translate(0 -112)" opacity="0.34">
    <path id="Path_539" data-name="Path 539" d="M263.732,117.623a3.5,3.5,0,0,0-.732.077,6.338,6.338,0,0,0-6.3-5.7.7.7,0,0,0-.7.7v11.247a.7.7,0,0,0,.7.7h7.029a3.515,3.515,0,0,0,0-7.029Z" transform="translate(-244.753)" fill="#fff"/>
    <path id="Path_540" data-name="Path 540" d="M192.7,144a.7.7,0,0,0-.7.7v9.841a.7.7,0,1,0,1.406,0V144.7A.7.7,0,0,0,192.7,144Z" transform="translate(-183.565 -30.594)" fill="#fff"/>
    <path id="Path_541" data-name="Path 541" d="M128.7,208a.7.7,0,0,0-.7.7v7.029a.7.7,0,1,0,1.406,0V208.7A.7.7,0,0,0,128.7,208Z" transform="translate(-122.377 -91.783)" fill="#fff"/>
    <path id="Path_542" data-name="Path 542" d="M64.7,208a.7.7,0,0,0-.7.7v7.029a.7.7,0,1,0,1.406,0V208.7A.7.7,0,0,0,64.7,208Z" transform="translate(-61.188 -91.783)" fill="#fff"/>
    <path id="Path_543" data-name="Path 543" d="M.7,256a.7.7,0,0,0-.7.7v4.217a.7.7,0,1,0,1.406,0V256.7A.7.7,0,0,0,.7,256Z" transform="translate(0 -137.674)" fill="#fff"/>
  </g>
</svg>
