<svg xmlns="http://www.w3.org/2000/svg" width="983.367" height="156.643" viewBox="0 0 983.367 156.643">
  <g id="Group_906" data-name="Group 906" transform="translate(-150.414 -243.352)" opacity="0.301">
    <g id="Group_903" data-name="Group 903" transform="translate(888 346.274)">
      <g id="Group_905" data-name="Group 905" transform="translate(0 0.003)">
        <path id="Path_534" data-name="Path 534" d="M13.713,6.978A20.027,20.027,0,0,1,8.83,2.139L7.7.44A.983.983,0,0,0,5.9.985V16.4a3.886,3.886,0,0,0-1.966-.547,3.931,3.931,0,1,0,3.931,3.931V4.212a24.225,24.225,0,0,0,4.688,4.352,2.948,2.948,0,0,1-1.74,5.329.983.983,0,0,0,0,1.966,4.914,4.914,0,0,0,2.9-8.88Z" transform="translate(0 -0.003)" fill="#fff"/>
      </g>
    </g>
    <g id="Group_904" data-name="Group 904" transform="translate(-29.586 131.724)">
      <g id="Group_903-2" data-name="Group 903" transform="translate(180 121.991)">
        <path id="Path_533" data-name="Path 533" d="M212.863,122.052l-22.267,6.3a1.577,1.577,0,0,0-1.143,1.516v21.358a6.229,6.229,0,0,0-3.151-.876,6.3,6.3,0,1,0,6.3,6.3V137.36l19.116-5.4v12.967a6.229,6.229,0,0,0-3.151-.876,6.3,6.3,0,1,0,6.3,6.3V123.568A1.577,1.577,0,0,0,212.863,122.052Z" transform="translate(-180 -121.991)" fill="#fff"/>
      </g>
    </g>
    <g id="Group_907" data-name="Group 907" transform="translate(447.102 386.989)">
      <g id="Group_905-2" data-name="Group 905" transform="translate(0 0)">
        <path id="Path_534-2" data-name="Path 534" d="M7.519,3.828A10.981,10.981,0,0,1,4.842,1.174L4.221.242a.539.539,0,0,0-.987.3V9a2.131,2.131,0,0,0-1.078-.3,2.156,2.156,0,1,0,2.156,2.156V2.311A13.283,13.283,0,0,0,6.882,4.7a1.617,1.617,0,0,1-.954,2.922.539.539,0,0,0,0,1.078A2.695,2.695,0,0,0,7.519,3.828Z" transform="translate(0 -0.003)" fill="#fff"/>
      </g>
    </g>
    <g id="Group_908" data-name="Group 908" transform="translate(1102.658 333.07)">
      <g id="Group_903-3" data-name="Group 903" transform="translate(0 0)">
        <path id="Path_533-2" data-name="Path 533" d="M209.332,122.046l-19.874,5.625a1.407,1.407,0,0,0-1.02,1.353v19.063a5.56,5.56,0,0,0-2.812-.782,5.625,5.625,0,1,0,5.625,5.625V135.709l17.062-4.821v11.573a5.56,5.56,0,0,0-2.812-.782,5.625,5.625,0,1,0,5.625,5.625V123.4A1.407,1.407,0,0,0,209.332,122.046Z" transform="translate(-180 -121.991)" fill="#fff"/>
      </g>
    </g>
    <g id="Group_909" data-name="Group 909" transform="translate(257.012 131.234)">
      <g id="Group_903-4" data-name="Group 903" transform="translate(180 121.991)">
        <path id="Path_533-3" data-name="Path 533" d="M189.189,122.008l-6.226,1.762a.441.441,0,0,0-.32.424v5.972a1.742,1.742,0,0,0-.881-.245,1.762,1.762,0,1,0,1.762,1.762v-5.394l5.345-1.51V128.4a1.742,1.742,0,0,0-.881-.245,1.762,1.762,0,1,0,1.762,1.762v-7.489A.441.441,0,0,0,189.189,122.008Z" transform="translate(-180 -121.991)" fill="#fff"/>
      </g>
    </g>
    <g id="Group_910" data-name="Group 910" transform="translate(642.012 147.234)">
      <g id="Group_903-5" data-name="Group 903" transform="translate(180 121.991)">
        <path id="Path_533-4" data-name="Path 533" d="M189.189,122.008l-6.226,1.762a.441.441,0,0,0-.32.424v5.972a1.742,1.742,0,0,0-.881-.245,1.762,1.762,0,1,0,1.762,1.762v-5.394l5.345-1.51V128.4a1.742,1.742,0,0,0-.881-.245,1.762,1.762,0,1,0,1.762,1.762v-7.489A.441.441,0,0,0,189.189,122.008Z" transform="translate(-180 -121.991)" fill="#fff"/>
      </g>
    </g>
    <g id="Group_911" data-name="Group 911" transform="translate(804.881 312.352)">
      <g id="Group_905-3" data-name="Group 905" transform="translate(0 0)">
        <path id="Path_534-3" data-name="Path 534" d="M5.992,3.051A8.751,8.751,0,0,1,3.858.936L3.364.194a.429.429,0,0,0-.787.238V7.17a1.7,1.7,0,0,0-.859-.239A1.718,1.718,0,1,0,3.436,8.649V1.842a10.586,10.586,0,0,0,2.049,1.9,1.288,1.288,0,0,1-.76,2.329.429.429,0,0,0,0,.859,2.147,2.147,0,0,0,1.268-3.88Z" transform="translate(0 -0.003)" fill="#fff"/>
      </g>
    </g>
    <g id="Group_912" data-name="Group 912" transform="translate(773.012 327.674)">
      <g id="Group_903-6" data-name="Group 903" transform="translate(0 0)">
        <path id="Path_533-5" data-name="Path 533" d="M184.015,122l-2.721.77a.193.193,0,0,0-.14.185v2.61a.761.761,0,0,0-.385-.107.77.77,0,1,0,.77.77v-2.357l2.336-.66v1.584a.761.761,0,0,0-.385-.107.77.77,0,1,0,.77.77v-3.272A.193.193,0,0,0,184.015,122Z" transform="translate(-180 -121.991)" fill="#fff"/>
      </g>
    </g>
    <g id="Group_913" data-name="Group 913" transform="translate(491.909 313.989)">
      <g id="Group_905-4" data-name="Group 905" transform="translate(0 0)">
        <path id="Path_534-4" data-name="Path 534" d="M4.2,2.139A6.133,6.133,0,0,1,2.7.657L2.357.137A.3.3,0,0,0,1.806.3V5.026a1.19,1.19,0,0,0-.6-.167,1.2,1.2,0,1,0,1.2,1.2V1.292A7.419,7.419,0,0,0,3.844,2.625a.9.9,0,0,1-.533,1.632.3.3,0,0,0,0,.6A1.505,1.505,0,0,0,4.2,2.139Z" transform="translate(0 -0.003)" fill="#fff"/>
      </g>
    </g>
    <g id="Group_914" data-name="Group 914" transform="translate(479.012 334.787)">
      <g id="Group_903-7" data-name="Group 903" transform="translate(0 0)">
        <path id="Path_533-6" data-name="Path 533" d="M185.132,122l-3.477.984a.246.246,0,0,0-.179.237v3.335a.973.973,0,0,0-.492-.137.984.984,0,1,0,.984.984v-3.013l2.985-.844v2.025a.973.973,0,0,0-.492-.137.984.984,0,1,0,.984.984v-4.183A.246.246,0,0,0,185.132,122Z" transform="translate(-180 -121.991)" fill="#fff"/>
      </g>
    </g>
    <g id="Group_915" data-name="Group 915" transform="translate(126.012 188.234)">
      <g id="Group_903-8" data-name="Group 903" transform="translate(180 121.991)">
        <path id="Path_533-7" data-name="Path 533" d="M192.056,122.014l-8.169,2.312a.578.578,0,0,0-.419.556v7.835a2.285,2.285,0,0,0-1.156-.322,2.312,2.312,0,1,0,2.312,2.312V127.63l7.013-1.982V130.4a2.286,2.286,0,0,0-1.156-.322,2.312,2.312,0,1,0,2.312,2.312V122.57A.579.579,0,0,0,192.056,122.014Z" transform="translate(-180 -121.991)" fill="#fff"/>
      </g>
    </g>
    <g id="Group_916" data-name="Group 916" transform="translate(771.153 171.774)">
      <g id="Group_903-9" data-name="Group 903" transform="translate(180 121.991)">
        <path id="Path_533-8" data-name="Path 533" d="M196.224,122.021l-10.993,3.111a.778.778,0,0,0-.564.748v10.544a3.076,3.076,0,0,0-1.556-.433,3.111,3.111,0,1,0,3.111,3.111v-9.525l9.438-2.667v6.4a3.076,3.076,0,0,0-1.556-.433,3.111,3.111,0,1,0,3.111,3.111V122.77A.779.779,0,0,0,196.224,122.021Z" transform="translate(-180 -121.991)" fill="#fff"/>
      </g>
    </g>
    <g id="Group_917" data-name="Group 917" transform="translate(1045.182 253.209)">
      <g id="Group_905-5" data-name="Group 905" transform="translate(0 0.003)">
        <path id="Path_534-5" data-name="Path 534" d="M17.394,8.851A25.4,25.4,0,0,1,11.2,2.712L9.763.557a1.247,1.247,0,0,0-2.284.692V20.807a4.929,4.929,0,0,0-2.493-.693A4.986,4.986,0,1,0,9.973,25.1V5.342a30.726,30.726,0,0,0,5.947,5.52,3.74,3.74,0,0,1-2.207,6.759,1.247,1.247,0,1,0,0,2.493A6.233,6.233,0,0,0,17.394,8.851Z" transform="translate(0 -0.003)" fill="#fff"/>
      </g>
    </g>
    <g id="Group_918" data-name="Group 918" transform="translate(561.909 383.989)">
      <g id="Group_905-6" data-name="Group 905" transform="translate(0 0)">
        <path id="Path_534-6" data-name="Path 534" d="M4.2,2.139A6.133,6.133,0,0,1,2.7.657L2.357.137A.3.3,0,0,0,1.806.3V5.026a1.19,1.19,0,0,0-.6-.167,1.2,1.2,0,1,0,1.2,1.2V1.292A7.419,7.419,0,0,0,3.844,2.625a.9.9,0,0,1-.533,1.632.3.3,0,0,0,0,.6A1.505,1.505,0,0,0,4.2,2.139Z" transform="translate(0 -0.003)" fill="#fff"/>
      </g>
    </g>
    <g id="Group_919" data-name="Group 919" transform="translate(666.88 243.352)">
      <g id="Group_905-7" data-name="Group 905" transform="translate(0 0)">
        <path id="Path_534-7" data-name="Path 534" d="M5.992,3.051A8.751,8.751,0,0,1,3.858.936L3.364.194a.429.429,0,0,0-.787.238V7.17a1.7,1.7,0,0,0-.859-.239A1.718,1.718,0,1,0,3.436,8.649V1.842a10.586,10.586,0,0,0,2.049,1.9,1.288,1.288,0,0,1-.76,2.329.429.429,0,0,0,0,.859,2.147,2.147,0,0,0,1.268-3.88Z" transform="translate(0 -0.003)" fill="#fff"/>
      </g>
    </g>
    <g id="Group_920" data-name="Group 920" transform="translate(635.012 258.674)">
      <g id="Group_903-10" data-name="Group 903" transform="translate(0 0)">
        <path id="Path_533-9" data-name="Path 533" d="M184.015,122l-2.721.77a.193.193,0,0,0-.14.185v2.61a.761.761,0,0,0-.385-.107.77.77,0,1,0,.77.77v-2.357l2.336-.66v1.584a.761.761,0,0,0-.385-.107.77.77,0,1,0,.77.77v-3.272A.193.193,0,0,0,184.015,122Z" transform="translate(-180 -121.991)" fill="#fff"/>
      </g>
    </g>
    <g id="Group_921" data-name="Group 921" transform="translate(701.909 376.989)">
      <g id="Group_905-8" data-name="Group 905" transform="translate(0 0)">
        <path id="Path_534-8" data-name="Path 534" d="M4.2,2.139A6.133,6.133,0,0,1,2.7.657L2.357.137A.3.3,0,0,0,1.806.3V5.026a1.19,1.19,0,0,0-.6-.167,1.2,1.2,0,1,0,1.2,1.2V1.292A7.419,7.419,0,0,0,3.844,2.625a.9.9,0,0,1-.533,1.632.3.3,0,0,0,0,.6A1.505,1.505,0,0,0,4.2,2.139Z" transform="translate(0 -0.003)" fill="#fff"/>
      </g>
    </g>
    <g id="Group_922" data-name="Group 922" transform="translate(407.012 346.603)">
      <g id="Group_905-9" data-name="Group 905" transform="translate(0 0)">
        <path id="Path_534-9" data-name="Path 534" d="M8.47,4.311A12.37,12.37,0,0,1,5.454,1.322L4.754.273A.607.607,0,0,0,3.642.609v9.524A2.4,2.4,0,0,0,2.428,9.8a2.428,2.428,0,1,0,2.428,2.428V2.6a14.963,14.963,0,0,0,2.9,2.688A1.821,1.821,0,0,1,6.678,8.582a.607.607,0,0,0,0,1.214A3.035,3.035,0,0,0,8.47,4.311Z" transform="translate(0 -0.003)" fill="#fff"/>
      </g>
    </g>
    <g id="Group_923" data-name="Group 923" transform="translate(446.624 304.787)">
      <g id="Group_903-11" data-name="Group 903" transform="translate(0 0)">
        <path id="Path_533-10" data-name="Path 533" d="M187.382,122.005l-5,1.416a.354.354,0,0,0-.257.34v4.8a1.4,1.4,0,0,0-.708-.2,1.416,1.416,0,1,0,1.416,1.416v-4.334l4.294-1.213v2.913a1.4,1.4,0,0,0-.708-.2,1.416,1.416,0,1,0,1.416,1.416v-6.017A.354.354,0,0,0,187.382,122.005Z" transform="translate(-180 -121.991)" fill="#fff"/>
      </g>
    </g>
    <g id="Group_924" data-name="Group 924" transform="translate(521.607 354.787)">
      <g id="Group_903-12" data-name="Group 903" transform="translate(0 0)">
        <path id="Path_533-11" data-name="Path 533" d="M182.686,122l-1.82.515a.129.129,0,0,0-.093.124v1.746a.509.509,0,0,0-.258-.072.515.515,0,1,0,.515.515v-1.577l1.563-.442v1.06a.509.509,0,0,0-.258-.072.515.515,0,1,0,.515.515V122.12A.129.129,0,0,0,182.686,122Z" transform="translate(-180 -121.991)" fill="#fff"/>
      </g>
    </g>
    <g id="Group_925" data-name="Group 925" transform="translate(783.909 282.989)">
      <g id="Group_905-10" data-name="Group 905" transform="translate(0 0)">
        <path id="Path_534-10" data-name="Path 534" d="M4.2,2.139A6.133,6.133,0,0,1,2.7.657L2.357.137A.3.3,0,0,0,1.806.3V5.026a1.19,1.19,0,0,0-.6-.167,1.2,1.2,0,1,0,1.2,1.2V1.292A7.419,7.419,0,0,0,3.844,2.625a.9.9,0,0,1-.533,1.632.3.3,0,0,0,0,.6A1.505,1.505,0,0,0,4.2,2.139Z" transform="translate(0 -0.003)" fill="#fff"/>
      </g>
    </g>
    <g id="Group_926" data-name="Group 926" transform="translate(789.012 354.787)">
      <g id="Group_903-13" data-name="Group 903" transform="translate(0 0)">
        <path id="Path_533-12" data-name="Path 533" d="M185.132,122l-3.477.984a.246.246,0,0,0-.179.237v3.335a.973.973,0,0,0-.492-.137.984.984,0,1,0,.984.984v-3.013l2.985-.844v2.025a.973.973,0,0,0-.492-.137.984.984,0,1,0,.984.984v-4.183A.246.246,0,0,0,185.132,122Z" transform="translate(-180 -121.991)" fill="#fff"/>
      </g>
    </g>
  </g>
</svg>
