<svg xmlns="http://www.w3.org/2000/svg" width="184" height="84" viewBox="0 0 184 84">
  <g id="Group_853" data-name="Group 853" transform="translate(-886 -637)">
    <rect id="Rectangle_254" data-name="Rectangle 254" width="4" height="4" transform="translate(886 647)"/>
    <rect id="Rectangle_264" data-name="Rectangle 264" width="4" height="4" transform="translate(896 647)"/>
    <rect id="Rectangle_265" data-name="Rectangle 265" width="4" height="4" transform="translate(896 637)"/>
    <rect id="Rectangle_266" data-name="Rectangle 266" width="4" height="4" transform="translate(896 717)"/>
    <rect id="Rectangle_480" data-name="Rectangle 480" width="4" height="4" transform="translate(906 647)"/>
    <rect id="Rectangle_481" data-name="Rectangle 481" width="4" height="4" transform="translate(906 637)"/>
    <rect id="Rectangle_482" data-name="Rectangle 482" width="4" height="4" transform="translate(906 717)"/>
    <rect id="Rectangle_492" data-name="Rectangle 492" width="4" height="4" transform="translate(916 647)"/>
    <rect id="Rectangle_493" data-name="Rectangle 493" width="4" height="4" transform="translate(916 637)"/>
    <rect id="Rectangle_494" data-name="Rectangle 494" width="4" height="4" transform="translate(916 717)"/>
    <rect id="Rectangle_504" data-name="Rectangle 504" width="4" height="4" transform="translate(926 647)"/>
    <rect id="Rectangle_505" data-name="Rectangle 505" width="4" height="4" transform="translate(926 637)"/>
    <rect id="Rectangle_506" data-name="Rectangle 506" width="4" height="4" transform="translate(926 717)"/>
    <rect id="Rectangle_516" data-name="Rectangle 516" width="4" height="4" transform="translate(936 647)"/>
    <rect id="Rectangle_517" data-name="Rectangle 517" width="4" height="4" transform="translate(936 637)"/>
    <rect id="Rectangle_518" data-name="Rectangle 518" width="4" height="4" transform="translate(936 717)"/>
    <rect id="Rectangle_528" data-name="Rectangle 528" width="4" height="4" transform="translate(946 647)"/>
    <rect id="Rectangle_529" data-name="Rectangle 529" width="4" height="4" transform="translate(946 637)"/>
    <rect id="Rectangle_530" data-name="Rectangle 530" width="4" height="4" transform="translate(946 717)"/>
    <rect id="Rectangle_540" data-name="Rectangle 540" width="4" height="4" transform="translate(956 647)"/>
    <rect id="Rectangle_541" data-name="Rectangle 541" width="4" height="4" transform="translate(956 637)"/>
    <rect id="Rectangle_542" data-name="Rectangle 542" width="4" height="4" transform="translate(956 717)"/>
    <rect id="Rectangle_552" data-name="Rectangle 552" width="4" height="4" transform="translate(966 647)"/>
    <rect id="Rectangle_553" data-name="Rectangle 553" width="4" height="4" transform="translate(966 637)"/>
    <rect id="Rectangle_554" data-name="Rectangle 554" width="4" height="4" transform="translate(966 717)"/>
    <rect id="Rectangle_564" data-name="Rectangle 564" width="4" height="4" transform="translate(976 647)"/>
    <rect id="Rectangle_565" data-name="Rectangle 565" width="4" height="4" transform="translate(976 637)"/>
    <rect id="Rectangle_566" data-name="Rectangle 566" width="4" height="4" transform="translate(976 717)"/>
    <rect id="Rectangle_576" data-name="Rectangle 576" width="4" height="4" transform="translate(986 647)"/>
    <rect id="Rectangle_577" data-name="Rectangle 577" width="4" height="4" transform="translate(986 637)"/>
    <rect id="Rectangle_578" data-name="Rectangle 578" width="4" height="4" transform="translate(986 717)"/>
    <rect id="Rectangle_588" data-name="Rectangle 588" width="4" height="4" transform="translate(996 647)"/>
    <rect id="Rectangle_589" data-name="Rectangle 589" width="4" height="4" transform="translate(996 637)"/>
    <rect id="Rectangle_590" data-name="Rectangle 590" width="4" height="4" transform="translate(996 717)"/>
    <rect id="Rectangle_600" data-name="Rectangle 600" width="4" height="4" transform="translate(1006 647)"/>
    <rect id="Rectangle_601" data-name="Rectangle 601" width="4" height="4" transform="translate(1006 637)"/>
    <rect id="Rectangle_602" data-name="Rectangle 602" width="4" height="4" transform="translate(1006 717)"/>
    <rect id="Rectangle_612" data-name="Rectangle 612" width="4" height="4" transform="translate(1016 647)"/>
    <rect id="Rectangle_613" data-name="Rectangle 613" width="4" height="4" transform="translate(1016 637)"/>
    <rect id="Rectangle_614" data-name="Rectangle 614" width="4" height="4" transform="translate(1016 717)"/>
    <rect id="Rectangle_624" data-name="Rectangle 624" width="4" height="4" transform="translate(1026 647)"/>
    <rect id="Rectangle_625" data-name="Rectangle 625" width="4" height="4" transform="translate(1026 637)"/>
    <rect id="Rectangle_626" data-name="Rectangle 626" width="4" height="4" transform="translate(1026 717)"/>
    <rect id="Rectangle_636" data-name="Rectangle 636" width="4" height="4" transform="translate(1036 647)"/>
    <rect id="Rectangle_637" data-name="Rectangle 637" width="4" height="4" transform="translate(1036 637)"/>
    <rect id="Rectangle_638" data-name="Rectangle 638" width="4" height="4" transform="translate(1036 717)"/>
    <rect id="Rectangle_648" data-name="Rectangle 648" width="4" height="4" transform="translate(1046 647)"/>
    <rect id="Rectangle_649" data-name="Rectangle 649" width="4" height="4" transform="translate(1046 637)"/>
    <rect id="Rectangle_650" data-name="Rectangle 650" width="4" height="4" transform="translate(1046 717)"/>
    <rect id="Rectangle_660" data-name="Rectangle 660" width="4" height="4" transform="translate(1056 647)"/>
    <rect id="Rectangle_661" data-name="Rectangle 661" width="4" height="4" transform="translate(1056 637)"/>
    <rect id="Rectangle_662" data-name="Rectangle 662" width="4" height="4" transform="translate(1056 717)"/>
    <rect id="Rectangle_672" data-name="Rectangle 672" width="4" height="4" transform="translate(1066 647)"/>
    <rect id="Rectangle_702" data-name="Rectangle 702" width="4" height="4" transform="translate(886 657)"/>
    <rect id="Rectangle_703" data-name="Rectangle 703" width="4" height="4" transform="translate(886 667)"/>
    <rect id="Rectangle_704" data-name="Rectangle 704" width="4" height="4" transform="translate(896 657)"/>
    <rect id="Rectangle_705" data-name="Rectangle 705" width="4" height="4" transform="translate(896 667)"/>
    <rect id="Rectangle_706" data-name="Rectangle 706" width="4" height="4" transform="translate(906 657)"/>
    <rect id="Rectangle_707" data-name="Rectangle 707" width="4" height="4" transform="translate(906 667)"/>
    <rect id="Rectangle_708" data-name="Rectangle 708" width="4" height="4" transform="translate(916 657)"/>
    <rect id="Rectangle_709" data-name="Rectangle 709" width="4" height="4" transform="translate(916 667)"/>
    <rect id="Rectangle_710" data-name="Rectangle 710" width="4" height="4" transform="translate(926 657)"/>
    <rect id="Rectangle_711" data-name="Rectangle 711" width="4" height="4" transform="translate(926 667)"/>
    <rect id="Rectangle_712" data-name="Rectangle 712" width="4" height="4" transform="translate(936 657)"/>
    <rect id="Rectangle_713" data-name="Rectangle 713" width="4" height="4" transform="translate(936 667)"/>
    <rect id="Rectangle_714" data-name="Rectangle 714" width="4" height="4" transform="translate(946 657)"/>
    <rect id="Rectangle_715" data-name="Rectangle 715" width="4" height="4" transform="translate(946 667)"/>
    <rect id="Rectangle_716" data-name="Rectangle 716" width="4" height="4" transform="translate(956 657)"/>
    <rect id="Rectangle_717" data-name="Rectangle 717" width="4" height="4" transform="translate(956 667)"/>
    <rect id="Rectangle_718" data-name="Rectangle 718" width="4" height="4" transform="translate(966 657)"/>
    <rect id="Rectangle_719" data-name="Rectangle 719" width="4" height="4" transform="translate(966 667)"/>
    <rect id="Rectangle_720" data-name="Rectangle 720" width="4" height="4" transform="translate(976 657)"/>
    <rect id="Rectangle_721" data-name="Rectangle 721" width="4" height="4" transform="translate(976 667)"/>
    <rect id="Rectangle_722" data-name="Rectangle 722" width="4" height="4" transform="translate(986 657)"/>
    <rect id="Rectangle_723" data-name="Rectangle 723" width="4" height="4" transform="translate(986 667)"/>
    <rect id="Rectangle_724" data-name="Rectangle 724" width="4" height="4" transform="translate(996 657)"/>
    <rect id="Rectangle_725" data-name="Rectangle 725" width="4" height="4" transform="translate(996 667)"/>
    <rect id="Rectangle_726" data-name="Rectangle 726" width="4" height="4" transform="translate(1006 657)"/>
    <rect id="Rectangle_727" data-name="Rectangle 727" width="4" height="4" transform="translate(1006 667)"/>
    <rect id="Rectangle_728" data-name="Rectangle 728" width="4" height="4" transform="translate(1016 657)"/>
    <rect id="Rectangle_729" data-name="Rectangle 729" width="4" height="4" transform="translate(1016 667)"/>
    <rect id="Rectangle_730" data-name="Rectangle 730" width="4" height="4" transform="translate(1026 657)"/>
    <rect id="Rectangle_731" data-name="Rectangle 731" width="4" height="4" transform="translate(1026 667)"/>
    <rect id="Rectangle_732" data-name="Rectangle 732" width="4" height="4" transform="translate(1036 657)"/>
    <rect id="Rectangle_733" data-name="Rectangle 733" width="4" height="4" transform="translate(1036 667)"/>
    <rect id="Rectangle_734" data-name="Rectangle 734" width="4" height="4" transform="translate(1046 657)"/>
    <rect id="Rectangle_735" data-name="Rectangle 735" width="4" height="4" transform="translate(1046 667)"/>
    <rect id="Rectangle_736" data-name="Rectangle 736" width="4" height="4" transform="translate(1056 657)"/>
    <rect id="Rectangle_737" data-name="Rectangle 737" width="4" height="4" transform="translate(1056 667)"/>
    <rect id="Rectangle_738" data-name="Rectangle 738" width="4" height="4" transform="translate(1066 657)"/>
    <rect id="Rectangle_739" data-name="Rectangle 739" width="4" height="4" transform="translate(1066 667)"/>
    <rect id="Rectangle_740" data-name="Rectangle 740" width="4" height="4" transform="translate(886 677)"/>
    <rect id="Rectangle_741" data-name="Rectangle 741" width="4" height="4" transform="translate(886 687)"/>
    <rect id="Rectangle_742" data-name="Rectangle 742" width="4" height="4" transform="translate(896 677)"/>
    <rect id="Rectangle_743" data-name="Rectangle 743" width="4" height="4" transform="translate(896 687)"/>
    <rect id="Rectangle_744" data-name="Rectangle 744" width="4" height="4" transform="translate(906 677)"/>
    <rect id="Rectangle_745" data-name="Rectangle 745" width="4" height="4" transform="translate(906 687)"/>
    <rect id="Rectangle_746" data-name="Rectangle 746" width="4" height="4" transform="translate(916 677)"/>
    <rect id="Rectangle_747" data-name="Rectangle 747" width="4" height="4" transform="translate(916 687)"/>
    <rect id="Rectangle_748" data-name="Rectangle 748" width="4" height="4" transform="translate(926 677)"/>
    <rect id="Rectangle_749" data-name="Rectangle 749" width="4" height="4" transform="translate(926 687)"/>
    <rect id="Rectangle_750" data-name="Rectangle 750" width="4" height="4" transform="translate(936 677)"/>
    <rect id="Rectangle_751" data-name="Rectangle 751" width="4" height="4" transform="translate(936 687)"/>
    <rect id="Rectangle_752" data-name="Rectangle 752" width="4" height="4" transform="translate(946 677)"/>
    <rect id="Rectangle_753" data-name="Rectangle 753" width="4" height="4" transform="translate(946 687)"/>
    <rect id="Rectangle_754" data-name="Rectangle 754" width="4" height="4" transform="translate(956 677)"/>
    <rect id="Rectangle_755" data-name="Rectangle 755" width="4" height="4" transform="translate(956 687)"/>
    <rect id="Rectangle_756" data-name="Rectangle 756" width="4" height="4" transform="translate(966 677)"/>
    <rect id="Rectangle_757" data-name="Rectangle 757" width="4" height="4" transform="translate(966 687)"/>
    <rect id="Rectangle_758" data-name="Rectangle 758" width="4" height="4" transform="translate(976 677)"/>
    <rect id="Rectangle_759" data-name="Rectangle 759" width="4" height="4" transform="translate(976 687)"/>
    <rect id="Rectangle_760" data-name="Rectangle 760" width="4" height="4" transform="translate(986 677)"/>
    <rect id="Rectangle_761" data-name="Rectangle 761" width="4" height="4" transform="translate(986 687)"/>
    <rect id="Rectangle_762" data-name="Rectangle 762" width="4" height="4" transform="translate(996 677)"/>
    <rect id="Rectangle_763" data-name="Rectangle 763" width="4" height="4" transform="translate(996 687)"/>
    <rect id="Rectangle_764" data-name="Rectangle 764" width="4" height="4" transform="translate(1006 677)"/>
    <rect id="Rectangle_765" data-name="Rectangle 765" width="4" height="4" transform="translate(1006 687)"/>
    <rect id="Rectangle_766" data-name="Rectangle 766" width="4" height="4" transform="translate(1016 677)"/>
    <rect id="Rectangle_767" data-name="Rectangle 767" width="4" height="4" transform="translate(1016 687)"/>
    <rect id="Rectangle_768" data-name="Rectangle 768" width="4" height="4" transform="translate(1026 677)"/>
    <rect id="Rectangle_769" data-name="Rectangle 769" width="4" height="4" transform="translate(1026 687)"/>
    <rect id="Rectangle_770" data-name="Rectangle 770" width="4" height="4" transform="translate(1036 677)"/>
    <rect id="Rectangle_771" data-name="Rectangle 771" width="4" height="4" transform="translate(1036 687)"/>
    <rect id="Rectangle_772" data-name="Rectangle 772" width="4" height="4" transform="translate(1046 677)"/>
    <rect id="Rectangle_773" data-name="Rectangle 773" width="4" height="4" transform="translate(1046 687)"/>
    <rect id="Rectangle_774" data-name="Rectangle 774" width="4" height="4" transform="translate(1056 677)"/>
    <rect id="Rectangle_775" data-name="Rectangle 775" width="4" height="4" transform="translate(1056 687)"/>
    <rect id="Rectangle_776" data-name="Rectangle 776" width="4" height="4" transform="translate(1066 677)"/>
    <rect id="Rectangle_777" data-name="Rectangle 777" width="4" height="4" transform="translate(1066 687)"/>
    <rect id="Rectangle_778" data-name="Rectangle 778" width="4" height="4" transform="translate(886 697)"/>
    <rect id="Rectangle_779" data-name="Rectangle 779" width="4" height="4" transform="translate(886 707)"/>
    <rect id="Rectangle_780" data-name="Rectangle 780" width="4" height="4" transform="translate(896 697)"/>
    <rect id="Rectangle_781" data-name="Rectangle 781" width="4" height="4" transform="translate(896 707)"/>
    <rect id="Rectangle_782" data-name="Rectangle 782" width="4" height="4" transform="translate(906 697)"/>
    <rect id="Rectangle_783" data-name="Rectangle 783" width="4" height="4" transform="translate(906 707)"/>
    <rect id="Rectangle_784" data-name="Rectangle 784" width="4" height="4" transform="translate(916 697)"/>
    <rect id="Rectangle_785" data-name="Rectangle 785" width="4" height="4" transform="translate(916 707)"/>
    <rect id="Rectangle_786" data-name="Rectangle 786" width="4" height="4" transform="translate(926 697)"/>
    <rect id="Rectangle_787" data-name="Rectangle 787" width="4" height="4" transform="translate(926 707)"/>
    <rect id="Rectangle_788" data-name="Rectangle 788" width="4" height="4" transform="translate(936 697)"/>
    <rect id="Rectangle_789" data-name="Rectangle 789" width="4" height="4" transform="translate(936 707)"/>
    <rect id="Rectangle_790" data-name="Rectangle 790" width="4" height="4" transform="translate(946 697)"/>
    <rect id="Rectangle_791" data-name="Rectangle 791" width="4" height="4" transform="translate(946 707)"/>
    <rect id="Rectangle_792" data-name="Rectangle 792" width="4" height="4" transform="translate(956 697)"/>
    <rect id="Rectangle_793" data-name="Rectangle 793" width="4" height="4" transform="translate(956 707)"/>
    <rect id="Rectangle_794" data-name="Rectangle 794" width="4" height="4" transform="translate(966 697)"/>
    <rect id="Rectangle_795" data-name="Rectangle 795" width="4" height="4" transform="translate(966 707)"/>
    <rect id="Rectangle_796" data-name="Rectangle 796" width="4" height="4" transform="translate(976 697)"/>
    <rect id="Rectangle_797" data-name="Rectangle 797" width="4" height="4" transform="translate(976 707)"/>
    <rect id="Rectangle_798" data-name="Rectangle 798" width="4" height="4" transform="translate(986 697)"/>
    <rect id="Rectangle_799" data-name="Rectangle 799" width="4" height="4" transform="translate(986 707)"/>
    <rect id="Rectangle_800" data-name="Rectangle 800" width="4" height="4" transform="translate(996 697)"/>
    <rect id="Rectangle_801" data-name="Rectangle 801" width="4" height="4" transform="translate(996 707)"/>
    <rect id="Rectangle_802" data-name="Rectangle 802" width="4" height="4" transform="translate(1006 697)"/>
    <rect id="Rectangle_803" data-name="Rectangle 803" width="4" height="4" transform="translate(1006 707)"/>
    <rect id="Rectangle_804" data-name="Rectangle 804" width="4" height="4" transform="translate(1016 697)"/>
    <rect id="Rectangle_805" data-name="Rectangle 805" width="4" height="4" transform="translate(1016 707)"/>
    <rect id="Rectangle_806" data-name="Rectangle 806" width="4" height="4" transform="translate(1026 697)"/>
    <rect id="Rectangle_807" data-name="Rectangle 807" width="4" height="4" transform="translate(1026 707)"/>
    <rect id="Rectangle_808" data-name="Rectangle 808" width="4" height="4" transform="translate(1036 697)"/>
    <rect id="Rectangle_809" data-name="Rectangle 809" width="4" height="4" transform="translate(1036 707)"/>
    <rect id="Rectangle_810" data-name="Rectangle 810" width="4" height="4" transform="translate(1046 697)"/>
    <rect id="Rectangle_811" data-name="Rectangle 811" width="4" height="4" transform="translate(1046 707)"/>
    <rect id="Rectangle_812" data-name="Rectangle 812" width="4" height="4" transform="translate(1056 697)"/>
    <rect id="Rectangle_813" data-name="Rectangle 813" width="4" height="4" transform="translate(1056 707)"/>
    <rect id="Rectangle_814" data-name="Rectangle 814" width="4" height="4" transform="translate(1066 697)"/>
    <rect id="Rectangle_815" data-name="Rectangle 815" width="4" height="4" transform="translate(1066 707)"/>
  </g>
</svg>
