<svg id="art-and-design" xmlns="http://www.w3.org/2000/svg" width="14.293" height="14.293" viewBox="0 0 14.293 14.293">
  <g id="Group_1020" data-name="Group 1020" transform="translate(0 0)">
    <path id="Path_589" data-name="Path 589" d="M7.146,0a7.146,7.146,0,0,0,0,14.293A1.189,1.189,0,0,0,8.338,13.1a1.164,1.164,0,0,0-.31-.8,1.193,1.193,0,0,1,.893-1.981h1.4a3.972,3.972,0,0,0,3.97-3.97C14.293,2.843,11.093,0,7.146,0ZM2.779,7.146A1.191,1.191,0,1,1,3.97,5.955,1.189,1.189,0,0,1,2.779,7.146ZM5.161,3.97A1.191,1.191,0,1,1,6.352,2.779,1.189,1.189,0,0,1,5.161,3.97Zm3.97,0a1.191,1.191,0,1,1,1.191-1.191A1.189,1.189,0,0,1,9.132,3.97Zm2.382,3.176A1.191,1.191,0,1,1,12.7,5.955,1.189,1.189,0,0,1,11.514,7.146Z" transform="translate(0 0)" fill="#fff"/>
  </g>
</svg>
