<svg xmlns="http://www.w3.org/2000/svg" width="20.42" height="16.412" viewBox="0 0 20.42 16.412">
  <g id="vehicle" transform="translate(-2 -8)" opacity="0.34">
    <path id="Path_564" data-name="Path 564" d="M9,19.628a1.307,1.307,0,0,0,.385.93l1.1,1.1,6.8,6.8,2.47,2.47a1.31,1.31,0,0,0,1.568.178L9.184,18.968A1.3,1.3,0,0,0,9,19.628Z" transform="translate(-3.898 -7.315)" fill="#fff"/>
    <path id="Path_565" data-name="Path 565" d="M9.975,28.113a.611.611,0,0,0-.43-.179H9.53a.609.609,0,0,0-.416,1.039l6.8,6.8a.6.6,0,0,0,.43.179.609.609,0,0,0,.431-1.04Z" transform="translate(-4.959 -12.191)" fill="#fff"/>
    <path id="Path_566" data-name="Path 566" d="M33.109,20.331h3.2l-.534-.909V18h-.407a1.913,1.913,0,0,0-1.343.556l-.357.357a2.544,2.544,0,0,1-1.5.73A1,1,0,0,0,33.109,20.331Z" transform="translate(-19.348 -6.67)" fill="#fff"/>
    <path id="Path_567" data-name="Path 567" d="M7.661,41.8,4.04,38.179a.609.609,0,1,0-.861.861l3.916,3.916a1.306,1.306,0,0,0,1.8,0l1.292-1.292-1.2-1.2Z" transform="translate(-1 -18.905)" fill="#fff"/>
    <path id="Path_568" data-name="Path 568" d="M38.757,36.226l-4.092-2.182A.376.376,0,0,0,34.49,34h-.116a.373.373,0,0,0-.264.637l3.376,3.376a1.08,1.08,0,0,0,1.844-.764v-.071a1.078,1.078,0,0,0-.572-.953Z" transform="translate(-20.572 -17.341)" fill="#fff"/>
    <path id="Path_569" data-name="Path 569" d="M49.97,8l-4.716,4.716,2.982,5.069L50.5,15.522V8Z" transform="translate(-28.078 0)" fill="#fff"/>
    <path id="Path_570" data-name="Path 570" d="M22.562,20.33H18.972a1.666,1.666,0,0,1-1.635-1.362,2.554,2.554,0,0,1-.53-.135l-4.632-1.748A1.3,1.3,0,0,0,11.712,17h-.084a1.3,1.3,0,0,0-.66.184L23.135,29.351l2.791-2.791a1.267,1.267,0,0,0,.373-.9v-1h-1.19Zm2.071,5.581a1.746,1.746,0,0,1-2.981,1.235L18.277,23.77A1.039,1.039,0,0,1,19.012,22h.116a1.043,1.043,0,0,1,.489.122L23.709,24.3a1.742,1.742,0,0,1,.924,1.54Z" transform="translate(-5.211 -6.003)" fill="#fff"/>
  </g>
</svg>
