<svg xmlns="http://www.w3.org/2000/svg" width="16.044" height="16.045" viewBox="0 0 16.044 16.045">
  <g id="tools" transform="translate(-0.005 0)" opacity="0.339">
    <path id="Path_693" data-name="Path 693" d="M173.933,218.578a4.006,4.006,0,0,1,2.714,2.655c.358-.285.8-.64,1.278-1.044l-2.962-2.962C174.563,217.738,174.213,218.2,173.933,218.578Z" transform="translate(-168.478 -210.42)" fill="#fff"/>
    <path id="Path_694" data-name="Path 694" d="M232.648.011c-2.275.239-5.655,4.281-7.085,6.055l3.092,3.092c1.741-1.5,5.759-5.093,5.881-7.375A1.651,1.651,0,0,0,232.648.011Z" transform="translate(-218.49 0)" fill="#fff"/>
    <path id="Path_695" data-name="Path 695" d="M1.649,286.894c-1.37,1.712-.223,3.24-1.515,4.6a.47.47,0,0,0,.156.756,5.817,5.817,0,0,0,6.083-1,3.433,3.433,0,0,0,.113-4.794A3.307,3.307,0,0,0,1.649,286.894Z" transform="translate(0 -276.649)" fill="#fff"/>
  </g>
</svg>
