<svg xmlns="http://www.w3.org/2000/svg" width="19.641" height="16.122" viewBox="0 0 19.641 16.122">
  <g id="engine" transform="translate(0 -0.5)" opacity="0.34">
    <path id="Path_576" data-name="Path 576" d="M174,161.02h6.6v9.964H174Zm0,0" transform="translate(-167.325 -154.362)" fill="#fff"/>
    <path id="Path_577" data-name="Path 577" d="M376,176.21l1.87-1.406v-6.718L376,166.68Zm0,0" transform="translate(-361.576 -159.805)" fill="#fff"/>
    <path id="Path_578" data-name="Path 578" d="M87.266,162.643v6.718l2.158,1.623h.018V161.02h-.018Zm0,0" transform="translate(-83.918 -154.362)" fill="#fff"/>
    <path id="Path_579" data-name="Path 579" d="M0,212.363H2.2v6.025H0Zm0,0" transform="translate(0 -203.736)" fill="#fff"/>
    <path id="Path_580" data-name="Path 580" d="M454.734,212.363h2.2v6.025h-2.2Zm0,0" transform="translate(-437.29 -203.736)" fill="#fff"/>
    <path id="Path_581" data-name="Path 581" d="M170.2,4.4l0,0,.9.714a2.058,2.058,0,0,0-.044-2.751.634.634,0,0,1-.193-.672,1.278,1.278,0,0,1,.222-.431l0,0L170.221.5a2.415,2.415,0,0,0-.445.824,1.782,1.782,0,0,0,.472,1.845C170.739,3.661,170.258,4.322,170.2,4.4Zm0,0" transform="translate(-163.181)" fill="#fff"/>
    <path id="Path_582" data-name="Path 582" d="M231.356,4.4l0,0,.9.714a2.058,2.058,0,0,0-.044-2.751.634.634,0,0,1-.193-.672,1.276,1.276,0,0,1,.222-.431l0,0L231.376.5a2.418,2.418,0,0,0-.445.824,1.783,1.783,0,0,0,.472,1.845C231.894,3.661,231.412,4.322,231.356,4.4Zm0,0" transform="translate(-221.989)" fill="#fff"/>
    <path id="Path_583" data-name="Path 583" d="M292.51,4.4l0,0,.9.713a2.058,2.058,0,0,0-.044-2.751.634.634,0,0,1-.193-.672,1.276,1.276,0,0,1,.222-.431l0,0L292.53.5a2.415,2.415,0,0,0-.445.824,1.782,1.782,0,0,0,.472,1.845C293.048,3.661,292.566,4.322,292.51,4.4Zm0,0" transform="translate(-280.797)" fill="#fff"/>
  </g>
</svg>
