<svg xmlns="http://www.w3.org/2000/svg" width="18.818" height="15.396" viewBox="0 0 18.818 15.396">
  <g id="interface" transform="translate(0 -42.664)" opacity="0.341">
    <g id="Group_989" data-name="Group 989" transform="translate(0 42.664)">
      <g id="Group_988" data-name="Group 988">
        <path id="Path_572" data-name="Path 572" d="M8.295,42.7a.426.426,0,0,0-.463.082l-4.4,4.16h-3A.427.427,0,0,0,0,47.369v5.987a.427.427,0,0,0,.428.428h3l4.4,4.16a.426.426,0,0,0,.294.117.42.42,0,0,0,.169-.035.427.427,0,0,0,.259-.393V43.092A.427.427,0,0,0,8.295,42.7Z" transform="translate(0 -42.664)" fill="#fff"/>
        <path id="Path_573" data-name="Path 573" d="M244.738,171.907l-.609.609a.413.413,0,0,0-.061.528,2.134,2.134,0,0,1,0,2.519.413.413,0,0,0,.061.528l.609.609a.435.435,0,0,0,.653-.051,3.842,3.842,0,0,0,0-4.692A.435.435,0,0,0,244.738,171.907Z" transform="translate(-234.215 -166.606)" fill="#fff"/>
        <path id="Path_574" data-name="Path 574" d="M306.2,111.292a.427.427,0,0,0-.619-.009l-.605.605a.431.431,0,0,0-.011.59,5.549,5.549,0,0,1,0,7.258.431.431,0,0,0,.011.59l.605.605a.427.427,0,0,0,.619-.009,7.258,7.258,0,0,0,0-9.63Z" transform="translate(-292.628 -108.408)" fill="#fff"/>
        <path id="Path_575" data-name="Path 575" d="M366.536,50.934a.43.43,0,0,0-.618-.006l-.606.606a.423.423,0,0,0-.007.589,8.965,8.965,0,0,1,0,12.1.423.423,0,0,0,.007.589l.606.606a.431.431,0,0,0,.618-.006,10.673,10.673,0,0,0,0-14.477Z" transform="translate(-350.547 -50.474)" fill="#fff"/>
      </g>
    </g>
  </g>
</svg>
