<svg width="953" height="1100" viewBox="0 0 953 1100" fill="none" xmlns="http://www.w3.org/2000/svg">
<path d="M451.314 14.4337C466.784 5.50211 485.844 5.50212 501.314 14.4338L927.628 260.566C943.098 269.498 952.628 286.004 952.628 303.868V796.133C952.628 813.996 943.098 830.502 927.628 839.434L501.314 1085.57C485.844 1094.5 466.784 1094.5 451.314 1085.57L25 839.434C9.52993 830.502 0 813.996 0 796.133V303.867C0 286.004 9.52995 269.498 25 260.566L451.314 14.4337Z" fill="url(#paint0_linear)"/>
<path d="M451.314 14.4337C466.784 5.50211 485.844 5.50212 501.314 14.4338L927.628 260.566C943.098 269.498 952.628 286.004 952.628 303.868V796.133C952.628 813.996 943.098 830.502 927.628 839.434L501.314 1085.57C485.844 1094.5 466.784 1094.5 451.314 1085.57L25 839.434C9.52993 830.502 0 813.996 0 796.132V303.867C0 286.004 9.52995 269.498 25 260.566L451.314 14.4337Z" fill="url(#paint1_linear)"/>
<defs>
<linearGradient id="paint0_linear" x1="476.314" y1="7.48477e-07" x2="476.314" y2="820" gradientUnits="userSpaceOnUse">
<stop stop-color="#1C014F"/>
<stop offset="1" stop-color="#150143" stop-opacity="0"/>
</linearGradient>
<linearGradient id="paint1_linear" x1="476.314" y1="7.48477e-07" x2="476.314" y2="820" gradientUnits="userSpaceOnUse">
<stop stop-color="#1C014F"/>
<stop offset="1" stop-color="#150143" stop-opacity="0"/>
</linearGradient>
</defs>
</svg>
