<svg width="1440" height="1586" viewBox="0 0 1440 1586" fill="none" xmlns="http://www.w3.org/2000/svg">
<g filter="url(#filter0_d)">
<path d="M696.389 357.584C711.915 348.567 731.085 348.567 746.611 357.584L1170.11 603.545C1185.52 612.493 1195 628.965 1195 646.782V1139.22C1195 1157.04 1185.52 1173.51 1170.11 1182.45L746.611 1428.42C731.085 1437.43 711.915 1437.43 696.389 1428.42L272.889 1182.45C257.481 1173.51 248 1157.04 248 1139.22V646.782C248 628.965 257.481 612.493 272.889 603.545L696.389 357.584Z" fill="url(#paint0_linear)"/>
</g>
<path d="M696.389 357.584C711.915 348.567 731.085 348.567 746.611 357.584L1170.11 603.545C1185.52 612.493 1195 628.965 1195 646.782V1139.22C1195 1157.04 1185.52 1173.51 1170.11 1182.45L746.611 1428.42C731.085 1437.43 711.915 1437.43 696.389 1428.42L272.889 1182.45C257.481 1173.51 248 1157.04 248 1139.22V646.782C248 628.965 257.481 612.493 272.889 603.545L696.389 357.584Z" fill="url(#paint1_linear)"/>
<defs>
<filter id="filter0_d" x="-2" y="0.821045" width="1447" height="1584.36" filterUnits="userSpaceOnUse" color-interpolation-filters="sRGB">
<feFlood flood-opacity="0" result="BackgroundImageFix"/>
<feColorMatrix in="SourceAlpha" type="matrix" values="0 0 0 0 0 0 0 0 0 0 0 0 0 0 0 0 0 0 127 0"/>
<feOffset dy="-100"/>
<feGaussianBlur stdDeviation="125"/>
<feColorMatrix type="matrix" values="0 0 0 0 0.705882 0 0 0 0 0.301961 0 0 0 0 1 0 0 0 0.2 0"/>
<feBlend mode="normal" in2="BackgroundImageFix" result="effect1_dropShadow"/>
<feBlend mode="normal" in="SourceGraphic" in2="effect1_dropShadow" result="shape"/>
</filter>
<linearGradient id="paint0_linear" x1="721.5" y1="343" x2="721.5" y2="1163" gradientUnits="userSpaceOnUse">
<stop stop-color="#35015F"/>
<stop offset="1" stop-color="#150143" stop-opacity="0"/>
</linearGradient>
<linearGradient id="paint1_linear" x1="721.5" y1="343" x2="721.5" y2="1163" gradientUnits="userSpaceOnUse">
<stop stop-color="#35015F"/>
<stop offset="1" stop-color="#150143" stop-opacity="0"/>
</linearGradient>
</defs>
</svg>
