<svg width="12" height="16" viewBox="0 0 12 16" fill="none" xmlns="http://www.w3.org/2000/svg">
<path fill-rule="evenodd" clip-rule="evenodd" d="M3.29061 12.6755C3.88138 13.5171 4.57357 14.5032 5.38337 15.6772C5.68131 16.1076 6.31865 16.1076 6.61662 15.6772C7.42643 14.5032 8.11862 13.5171 8.70938 12.6755C11.431 8.79828 12 7.9877 12 6C12 2.68628 9.31372 0 6 0C2.68628 0 0 2.68628 0 6C0 7.9877 0.56899 8.79828 3.29061 12.6755ZM8.5 6C8.5 7.38072 7.38072 8.5 6 8.5C4.61928 8.5 3.5 7.38072 3.5 6C3.5 4.61928 4.61928 3.5 6 3.5C7.38072 3.5 8.5 4.61928 8.5 6Z" fill="white"/>
</svg>
