<svg width="25" height="25" viewBox="0 0 25 25" fill="none" xmlns="http://www.w3.org/2000/svg">
<mask id="mask0" mask-type="alpha" maskUnits="userSpaceOnUse" x="0" y="0" width="25" height="25">
<path fill-rule="evenodd" clip-rule="evenodd" d="M0 0H25V25H0V0Z" fill="white"/>
</mask>
<g mask="url(#mask0)">
<path fill-rule="evenodd" clip-rule="evenodd" d="M16.9308 5.11656C16.8784 5.03317 16.7569 5 16.5662 5H10.7158C10.0033 5 9.41328 5.09951 8.94486 5.29852C8.47643 5.49942 8.09398 5.76667 7.79949 6.09836C7.504 6.43194 7.29548 6.8148 7.19172 7.24694C7.07017 7.68002 7 8.13017 7 8.59548V18.5849C7 18.7678 7.05238 18.8673 7.13934 18.9176C7.20951 18.9848 7.33007 19 7.48621 19H9.06641C9.25714 19 9.39648 18.9848 9.44787 18.9337C9.51804 18.8844 9.55262 18.7678 9.55262 18.5849V8.46186C9.55262 8.02972 9.65639 7.71319 9.86491 7.48006C10.0912 7.26494 10.4549 7.16354 10.9935 7.16354H16.5662C16.7569 7.16354 16.8616 7.13037 16.9308 7.06404C16.9832 6.99675 17 6.86408 17 6.69823V5.46626C17 5.29852 16.9832 5.1829 16.9308 5.11656V5.11656ZM16.5049 11H10V13H16.5049C16.7114 13 16.8557 12.9514 16.9167 12.8871C16.9589 12.8054 17 12.6934 17 12.5484V11.4516C17 11.2744 16.9589 11.145 16.9167 11.0808C16.8557 11.0321 16.7114 11 16.5049 11V11Z" fill="#292929"/>
</g>
</svg>
