<svg xmlns="http://www.w3.org/2000/svg" xmlns:xlink="http://www.w3.org/1999/xlink" width="411" height="370" viewBox="0 0 411 370">
  <defs>
    <radialGradient id="radial-gradient" cx="0.353" cy="0.228" r="0.787" gradientTransform="matrix(0.638, 0.713, -0.65, 0.701, 0.276, -0.184)" gradientUnits="objectBoundingBox">
      <stop offset="0" stop-color="#828282"/>
      <stop offset="0.301" stop-color="#838384" stop-opacity="0.98"/>
      <stop offset="0.469" stop-color="#8a8a8a" stop-opacity="0.918"/>
      <stop offset="0.604" stop-color="#959696" stop-opacity="0.812"/>
      <stop offset="0.721" stop-color="#a6a6a7" stop-opacity="0.663"/>
      <stop offset="0.828" stop-color="#bbbbbc" stop-opacity="0.467"/>
      <stop offset="0.924" stop-color="#d4d5d6" stop-opacity="0.231"/>
      <stop offset="1" stop-color="#edeef0" stop-opacity="0"/>
    </radialGradient>
    <radialGradient id="radial-gradient-2" cx="661.543" cy="346.092" r="341.619" gradientTransform="translate(0.014 0.002)" gradientUnits="userSpaceOnUse">
      <stop offset="0" stop-color="#f7f7f8"/>
      <stop offset="0.505" stop-color="#fafafb"/>
      <stop offset="0.715" stop-color="#fff"/>
    </radialGradient>
  </defs>
  <g id="Group_192" data-name="Group 192" transform="translate(-1019 -2526)">
    <g id="Vector_Smart_Object" data-name="Vector Smart Object" transform="translate(486.181 2254.2)">
      <path id="Path_118" data-name="Path 118" d="M673.459,538.228,771.695,636.5c4.25.353,4.584.723,8.875.028,71.9-11.65,149.4-70.075,157.21-161.714.209-2.443-.412.721-.528-1.706l-76.773-76.8Z" fill="url(#radial-gradient)"/>
      <path id="Path_119" data-name="Path 119" d="M758.892,271.8a183.177,183.177,0,0,0-112.433,38.107l5.97,7.788a173.441,173.441,0,0,1,106.463-36.083c96.561,0,175.12,78.589,175.12,175.188s-78.558,175.188-175.12,175.188c-48.327,0-96.282-21.541-129.292-56.884H547.519V545.893c57.142-52.59,98.407-90.609,98.407-124.286,0-22.539-12.622-35.994-33.76-35.994C595.9,385.613,583.3,396.4,573.7,405.8l-27.177-27.188c23.475-23.821,44.085-32.781,74.517-32.781,45.306,0,75.746,28.965,75.746,72.075,0,36.2-35.236,76.914-65.935,108.339l-9.805,10.036,13.92-1.74c11.263-1.406,28.15-2.921,38.607-2.921h34.311V580.01H717.7v-58.2H673.577c-7.137,0-17.081.669-26.342,1.539,29.387-31.219,59.363-69.532,59.363-105.441,0-24.1-8.337-44.693-24.111-59.55-15.513-14.614-36.76-22.337-61.444-22.337-34.488,0-58.307,11.017-84.958,39.291l-3.266,3.467,40.871,40.886,3.467-3.469c11.36-11.364,21.833-20.769,35.008-20.769,15.669,0,23.952,9.053,23.952,26.182,0,29.414-42.123,68.181-95.456,117.265l-2.951,2.715v43.329h87.8A185.581,185.581,0,0,0,758.892,641.8c101.969,0,184.928-82.991,184.928-185S860.861,271.8,758.892,271.8Z" fill="#c7f0fc"/>
      <g id="Group_150" data-name="Group 150">
        <g id="Group_149" data-name="Group 149">
          <g id="Group_147" data-name="Group 147">
            <g id="Group_146" data-name="Group 146">
              <g id="Group_145" data-name="Group 145">
                <path id="Path_120" data-name="Path 120" d="M877.021,456.633A118.122,118.122,0,1,1,758.9,338.464,118.144,118.144,0,0,1,877.021,456.633Z" fill="#fff"/>
              </g>
            </g>
          </g>
          <path id="Path_121" data-name="Path 121" d="M877.021,456.633A118.11,118.11,0,1,0,758.9,574.8,117.729,117.729,0,0,0,877.021,456.633Z" fill="url(#radial-gradient-2)"/>
          <g id="Group_148" data-name="Group 148">
            <path id="Path_122" data-name="Path 122" d="M865.077,404.807A118.144,118.144,0,0,1,661.7,522.486,117.774,117.774,0,0,0,865.077,404.807Z" fill="#edeef0"/>
          </g>
        </g>
      </g>
    </g>
    <ellipse id="Ellipse_2_copy" data-name="Ellipse 2 copy" cx="110.42" cy="110.41" rx="110.42" ry="110.41" transform="translate(1135.5 2600.81)" fill="#c7f0fc"/>
  </g>
</svg>
