<svg xmlns="http://www.w3.org/2000/svg" xmlns:xlink="http://www.w3.org/1999/xlink" width="224" height="182" viewBox="0 0 224 182">
  <defs>
    <linearGradient id="linear-gradient" x1="0.571" y1="1.795" x2="0.493" y2="0.379" gradientUnits="objectBoundingBox">
      <stop offset="0" stop-color="#d1d7e0"/>
      <stop offset="1" stop-color="#ebebff"/>
    </linearGradient>
    <linearGradient id="linear-gradient-2" x1="0.5" y1="1.147" x2="0.5" y2="0.24" xlink:href="#linear-gradient"/>
    <linearGradient id="linear-gradient-3" y1="0.5" x2="1" y2="0.5" gradientUnits="objectBoundingBox">
      <stop offset="0.005" stop-color="#1a2257"/>
      <stop offset="1" stop-color="#5e60f2"/>
    </linearGradient>
    <linearGradient id="linear-gradient-4" x1="0.5" y1="2.165" x2="0.5" y2="0.322" xlink:href="#linear-gradient"/>
    <linearGradient id="linear-gradient-5" x1="-34.651" y1="0.5" x2="-33.651" y2="0.5" xlink:href="#linear-gradient-3"/>
    <linearGradient id="linear-gradient-6" x1="-17.756" y1="0.5" x2="-16.756" y2="0.5" xlink:href="#linear-gradient-3"/>
    <linearGradient id="linear-gradient-7" x1="-23.761" y1="0.5" x2="-22.761" y2="0.5" xlink:href="#linear-gradient-3"/>
    <linearGradient id="linear-gradient-8" x1="-17.099" y1="0.5" x2="-16.099" y2="0.5" xlink:href="#linear-gradient-3"/>
    <linearGradient id="linear-gradient-9" x1="0.983" y1="0.961" x2="0.233" y2="0.108" xlink:href="#linear-gradient-3"/>
    <linearGradient id="linear-gradient-10" x1="0.079" y1="2.027" x2="0.485" y2="0.07" gradientUnits="objectBoundingBox">
      <stop offset="0" stop-color="#c9c4c1"/>
      <stop offset="1" stop-color="#fff6de"/>
    </linearGradient>
    <linearGradient id="linear-gradient-11" x1="-0.105" y1="0.5" x2="0.895" y2="0.5" xlink:href="#linear-gradient-10"/>
    <linearGradient id="linear-gradient-13" x1="0" y1="0.5" x2="1" y2="0.5" xlink:href="#linear-gradient"/>
  </defs>
  <g id="Vector_Smart_Object" data-name="Vector Smart Object" transform="translate(-53.278 -23.831)">
    <rect id="Rectangle_1" data-name="Rectangle 1" width="56.336" height="56.558" rx="6.279" transform="translate(134.572 53.234)" opacity="0.95" fill="url(#linear-gradient)"/>
    <rect id="Rectangle_2" data-name="Rectangle 2" width="26.083" height="1.294" transform="translate(149.699 96.916)" fill="#96bfe6"/>
    <rect id="Rectangle_3" data-name="Rectangle 3" width="18.694" height="1.294" transform="translate(153.393 100.992)" fill="#96bfe6"/>
    <path id="Rectangle_4" data-name="Rectangle 4" d="M7.4,0H69.706a7.4,7.4,0,0,1,7.4,7.4V83.461a7.4,7.4,0,0,1-7.4,7.4H7.4a7.4,7.4,0,0,1-7.4-7.4V7.4A7.4,7.4,0,0,1,7.4,0Z" transform="translate(200.176 72.85)" opacity="0.95" fill="url(#linear-gradient-2)"/>
    <g id="Group_6" data-name="Group 6">
      <rect id="Rectangle_5" data-name="Rectangle 5" width="6.115" height="1.137" transform="translate(235.135 126.45)" fill="#4598e6"/>
    </g>
    <g id="Group_7" data-name="Group 7">
      <rect id="Rectangle_6" data-name="Rectangle 6" width="35.584" height="2.201" transform="translate(211.919 136.869)" fill="#96bfe6"/>
      <rect id="Rectangle_7" data-name="Rectangle 7" width="28.775" height="2.201" transform="translate(211.919 147.438)" fill="#96bfe6"/>
      <rect id="Rectangle_8" data-name="Rectangle 8" width="16.869" height="2.201" transform="translate(211.919 142.153)" fill="#96bfe6"/>
    </g>
    <g id="Group_8" data-name="Group 8">
      <path id="Path_8" data-name="Path 8" d="M256.811,81.911v1.112h6.521v6.144h1.107V81.911Zm-44.28,7.256h1.107V83.022h6.521V81.911h-7.628Zm50.8,31.7v6.146h-6.521v1.112h7.628v-7.258Zm-49.693,0h-1.107v7.258h7.628v-1.112h-6.521Z" fill="#4598e6"/>
    </g>
    <g id="Group_11" data-name="Group 11">
      <g id="Group_9" data-name="Group 9">
        <path id="Path_9" data-name="Path 9" d="M260.987,149.8a6.547,6.547,0,1,1,6.521-6.547A6.541,6.541,0,0,1,260.987,149.8Zm0-11.827a5.28,5.28,0,1,0,5.259,5.28A5.275,5.275,0,0,0,260.987,137.974Z" fill="#4598e6"/>
      </g>
      <g id="Group_10" data-name="Group 10">
        <path id="Path_10" data-name="Path 10" d="M260.571,145.831l-2.963-2.974.892-.9,2.07,2.078,2.9-2.913.893.9Z" fill="#4598e6"/>
      </g>
    </g>
    <path id="Path_11" data-name="Path 11" d="M264.909,200.859c0,2.746-47.375,4.972-105.815,4.972s-105.815-2.226-105.815-4.972,47.375-4.972,105.815-4.972S264.909,198.113,264.909,200.859Z" fill="url(#linear-gradient-3)"/>
    <rect id="Rectangle_9" data-name="Rectangle 9" width="37.972" height="32.709" transform="translate(143.754 55.349)" opacity="0.95" fill="url(#linear-gradient-4)"/>
    <g id="Group_17" data-name="Group 17">
      <g id="Group_12" data-name="Group 12">
        <path id="Path_12" data-name="Path 12" d="M87.947,186.365c3.161-2.232,6.861-17.787,7.082-27.052a13.082,13.082,0,0,1,2.743-8.468,7.177,7.177,0,0,0,1.6-6.414c-1.133-6.319,1.846-9.047,1.876-9.074l-.345-.395c-.133.117-3.235,2.93-2.046,9.562.554,3.09-.359,4.382-1.515,6.018a13.69,13.69,0,0,0-2.84,8.759c-.237,9.943-4.02,24.63-6.86,26.635Z" fill="url(#linear-gradient-5)"/>
      </g>
      <g id="Group_13" data-name="Group 13">
        <path id="Path_13" data-name="Path 13" d="M81.321,181.828c-.3-.679-.607-1.381-.957-2.122-1.806-3.827-3.406-4.458-6.056-5.5-.648-.255-1.382-.544-2.188-.908-3.8-1.713-3.062-4.237-2.413-6.465.091-.312.181-.622.26-.93.334-1.31-.308-1.967-1.279-2.962a11.117,11.117,0,0,1-2.312-3.113c-.758-1.59-.372-2.443.086-2.879.963-.917,3.184-.748,5.281.4a7.635,7.635,0,0,1,1.755,1.518,8.684,8.684,0,0,0,7.208,3.174c2.4.011,3.713.344,4.394,1.112.772.871.627,2.176.425,3.981-.07.624-.149,1.332-.2,2.1a12.262,12.262,0,0,0,2.423,7.885c1.6,1.916,3.577,5.891,2.725,8.338a2.919,2.919,0,0,1-2.375,1.918,6.731,6.731,0,0,1-1.337.145C83.821,187.518,82.744,185.068,81.321,181.828ZM71.491,157.81c-1.872-1.026-3.88-1.233-4.671-.481-.6.571-.317,1.55.026,2.271a10.523,10.523,0,0,0,2.214,2.972c1.016,1.041,1.819,1.863,1.412,3.459-.08.313-.172.629-.264.947-.646,2.218-1.256,4.313,2.126,5.839.794.358,1.522.645,2.164.9,2.675,1.054,4.443,1.75,6.338,5.766.353.747.663,1.453.963,2.135,1.636,3.721,2.623,5.968,6.2,5.242a2.428,2.428,0,0,0,1.985-1.577c.751-2.156-1.046-5.931-2.632-7.828a12.567,12.567,0,0,1-2.544-8.255c.049-.777.128-1.492.2-2.122.186-1.67.321-2.877-.3-3.574-.564-.637-1.8-.925-4.006-.936a9.135,9.135,0,0,1-7.584-3.336,7.165,7.165,0,0,0-1.628-1.419Z" fill="url(#linear-gradient-6)"/>
      </g>
      <g id="Group_14" data-name="Group 14">
        <path id="Path_14" data-name="Path 14" d="M88.045,190.548l.522-.028c-.026-.492-.684-12.1-5.327-15.5A18.655,18.655,0,0,1,75.775,164.6c-.9-3.168-5.488-4.015-5.683-4.049l-.091.517c.045.008,4.46.825,5.271,3.677a19.154,19.154,0,0,0,7.659,10.7C87.375,178.7,88.038,190.43,88.045,190.548Z" fill="url(#linear-gradient-7)"/>
      </g>
      <g id="Group_15" data-name="Group 15">
        <path id="Path_15" data-name="Path 15" d="M87.161,193.159c-1.092-.546-1.053-2.742-.993-6.066.076-4.2.179-9.953-2.011-15.244-2.327-5.621-.252-7.264,1.755-8.852,2.248-1.779,4.37-3.46.3-11.046-1.871-3.484-2.465-5.841-1.87-7.416.589-1.557,2.241-2.164,3.99-2.807,3.019-1.109,6.44-2.366,6-8.781-.135-1.966.095-3.176.725-3.805.685-.684,1.693-.61,2.86-.524,1.764.13,3.763.276,5.5-2,.181-.57,1.845-5.655,3.836-6.526a1.4,1.4,0,0,1,1.218.007h0a4.081,4.081,0,0,1,2.438,2.393c.463,1.653-.742,3.517-2.139,5.675-2.194,3.392-4.681,7.237-2.1,11.812,3.411,6.049,1.609,8.166-.884,11.1a19.732,19.732,0,0,0-4.13,6.684c-.871,2.5.614,4.875,2.05,7.177,1.8,2.887,3.664,5.872-.258,8.462-6.484,4.283-12.887,18.262-12.951,18.4l-.026.058-.05.04a5.112,5.112,0,0,1-2.719,1.388A1.185,1.185,0,0,1,87.161,193.159Zm16-20.205c3.494-2.308,1.922-4.827.1-7.745-1.432-2.294-3.054-4.895-2.1-7.629a20.179,20.179,0,0,1,4.225-6.852c2.443-2.871,4.057-4.767.827-10.5-2.736-4.852-.044-9.013,2.118-12.356,1.327-2.051,2.473-3.823,2.074-5.247a3.61,3.61,0,0,0-2.16-2.062h0a.893.893,0,0,0-.784,0c-1.847.808-3.543,6.192-3.56,6.246l-.014.044-.027.036c-1.919,2.545-4.173,2.38-5.985,2.246-1.083-.08-1.938-.143-2.453.373s-.695,1.619-.572,3.4c.469,6.808-3.306,8.2-6.34,9.31-1.7.626-3.177,1.167-3.68,2.5-.538,1.423.047,3.641,1.841,6.981,4.283,7.974,1.886,9.872-.433,11.707-1.939,1.535-3.771,2.985-1.6,8.239,2.232,5.392,2.127,11.208,2.051,15.455-.052,2.9-.094,5.189.7,5.587.466.233,1.358-.161,2.652-1.171C90.564,190.387,96.7,177.221,103.158,172.954Z" fill="url(#linear-gradient-8)"/>
      </g>
      <path id="Path_16" data-name="Path 16" d="M76.927,132.229c3.3-1.136,2.614,5.249,4.009,9.974s15.512,2.061,9.586,13.891,7.494,3.956,3.486,14.28-.349,21.365-4.706,18.556-2.448-15.809-6.979-17.353-5.271-3.346-.784-7.546-11.757-8.368-7.748-16.848S73.114,133.541,76.927,132.229Z" fill="url(#linear-gradient-9)"/>
      <g id="Group_16" data-name="Group 16">
        <path id="Path_17" data-name="Path 17" d="M87.782,188.252c.415-1.767,3.959-17.32.652-19.2-2.914-1.657-2.843-8.1-2.388-14.187.4-5.387-6.489-7.905-6.783-8.01l-.175.495c.068.024,6.809,2.489,6.436,7.476-.467,6.25-.517,12.882,2.652,14.684,2.511,1.427.2,13.927-.9,18.623Z" fill="#fff"/>
      </g>
      <path id="Path_18" data-name="Path 18" d="M100.232,182.714l-4.711,17.945H84.992l-4.711-17.945Z" fill="url(#linear-gradient-10)"/>
      <path id="Path_19" data-name="Path 19" d="M100.232,182.714s-10.372,1.955-10.372,17.945H84.992l-4.711-17.945Z" fill="url(#linear-gradient-11)"/>
    </g>
    <rect id="Rectangle_10" data-name="Rectangle 10" width="41.39" height="37.424" rx="5.162" transform="translate(196.442 32.29)" opacity="0.95" fill="url(#linear-gradient-2)"/>
    <g id="Group_18" data-name="Group 18">
      <rect id="Rectangle_11" data-name="Rectangle 11" width="3.283" height="0.61" transform="translate(215.339 62.636)" fill="#4598e6"/>
    </g>
    <g id="Group_19" data-name="Group 19">
      <path id="Path_20" data-name="Path 20" d="M226.975,39.062v.6h3.5v3.3h.595v-3.9Zm-23.771,3.9h.594v-3.3h3.5v-.6H203.2Zm27.271,17.018v3.3h-3.5v.6h4.095v-3.9Zm-26.676,0H203.2v3.9H207.3v-.6h-3.5Z" fill="#4598e6"/>
    </g>
    <g id="Group_20" data-name="Group 20">
      <rect id="Rectangle_12" data-name="Rectangle 12" width="4.385" height="0.815" transform="translate(160.548 90.596)" fill="#4598e6"/>
    </g>
    <g id="Group_21" data-name="Group 21">
      <path id="Path_21" data-name="Path 21" d="M175.881,59.109v.8h4.676v4.405h.794v-5.2Zm-31.75,5.2h.794V59.906H149.6v-.8h-5.47Zm36.426,22.732V91.45h-4.676v.8h5.469v-5.2Zm-35.632,0h-.794v5.2h5.47v-.8h-4.676Z" fill="#4598e6"/>
    </g>
    <g id="Group_32" data-name="Group 32">
      <g id="Group_22" data-name="Group 22">
        <path id="Path_22" data-name="Path 22" d="M262.011,116.3H254.7c-.481-3.516-1.073-7.53-1.073-7.53s-.3,3.312-.655,7.53H223.7a51.8,51.8,0,0,0-.7-6.688c-.168-.084-1.212,3.28-2.079,6.688h-7.923c2.038-8.813,5.839-22.953,8.036-23.8,3.128-1.208,15.884-5.155,15.884-5.155h7.28s12.936,3.705,14.139,7.733A143.12,143.12,0,0,1,262.011,116.3Z" fill="#e65353"/>
      </g>
      <g id="Group_23" data-name="Group 23">
        <path id="Path_23" data-name="Path 23" d="M240.888,63.633s6.8,1.075,5.762,11.752-7.034,9.8-7.435,9.791-6.023.195-6.461-12.841C232.754,72.335,232.563,62.695,240.888,63.633Z" fill="#eea987"/>
      </g>
      <g id="Group_24" data-name="Group 24">
        <path id="Path_24" data-name="Path 24" d="M244.061,82.031s-.186,4.392.237,5.342-5.609,4-9.289.6c0,0,.889-4.773.641-6.464S244.061,82.031,244.061,82.031Z" fill="#eea987"/>
      </g>
      <g id="Group_25" data-name="Group 25">
        <path id="Path_25" data-name="Path 25" d="M246.755,72.369s.744-.8,1.017.01-1.155,4.419-1.061,4.581c0,0-.136.313-.315.141A39.261,39.261,0,0,1,246.755,72.369Z" fill="#eea987"/>
      </g>
      <g id="Group_26" data-name="Group 26">
        <path id="Path_26" data-name="Path 26" d="M232.831,72.234s-.729-.813-1.017-.01,1.069,4.44.973,4.6c0,0,.13.316.312.147A39.274,39.274,0,0,0,232.831,72.234Z" fill="#eea987"/>
      </g>
      <g id="Group_27" data-name="Group 27">
        <path id="Path_27" data-name="Path 27" d="M246.752,74.007l-.973,1.306A26.17,26.17,0,0,0,245.65,72c-.156-.449-.395-1.821-.525-2.144s-5.837-1.929-10.878.469c0,0,.222,2.059-.261,2.242s-.246,3.354-.246,3.354l-.8-.906s-1.225-8.215-.922-9.071,1.266-6,11.608-2.948c0,0,3.224-.686,3.871,1.549S246.752,74.007,246.752,74.007Z" fill="#d98b52"/>
      </g>
      <g id="Group_28" data-name="Group 28">
        <path id="Path_28" data-name="Path 28" d="M244.3,87.374s1.534.329-4.884,6.5c0,0-4.552-5.055-4.4-5.9S244.3,87.374,244.3,87.374Z" fill="#eea987"/>
      </g>
      <g id="Group_29" data-name="Group 29">
        <path id="Path_29" data-name="Path 29" d="M239.414,93.877l1.752,3.007,5.2-8.856-2.25-1.575Z" fill="#b84343"/>
      </g>
      <g id="Group_30" data-name="Group 30">
        <path id="Path_30" data-name="Path 30" d="M239.414,93.877l-4.25-6.79-2.41,1.555,4.32,8.242Z" fill="#b84343"/>
      </g>
      <g id="Group_31" data-name="Group 31">
        <path id="Path_31" data-name="Path 31" d="M238.1,112.687c.052,1,.075,2.229.078,3.609h-.241c0-1.374-.026-2.6-.078-3.6-.394-7.533,1.423-16.7,1.435-18.846l.235.047C239.514,96.047,237.7,105.186,238.1,112.687Z" fill="#b84343"/>
      </g>
      <path id="Path_32" data-name="Path 32" d="M236.284,83.919a4.516,4.516,0,0,0,3.9,1.257,6.56,6.56,0,0,0,3.294-1.506,4.243,4.243,0,0,1-3.538,2.475A3.756,3.756,0,0,1,236.284,83.919Z" fill="#c78d71"/>
    </g>
    <g id="Group_51" data-name="Group 51">
      <g id="Group_34" data-name="Group 34">
        <g id="Group_33" data-name="Group 33">
          <path id="Path_33" data-name="Path 33" d="M157.523,59.412l-.015,0c-.154-.037-.4-.776-.444-.923-.011-.041-.035-.115-.068-.218a6.284,6.284,0,0,1-.462-2.5c.055-.167.14-.264.254-.288.244-.051.523.26.535.274l.006.007v.009a26.186,26.186,0,0,1,.239,3.626A.064.064,0,0,1,157.523,59.412Zm-.679-3.885a.224.224,0,0,0-.045,0c-.093.019-.164.1-.212.25a6.422,6.422,0,0,0,.463,2.47c.033.1.057.178.068.219a2.566,2.566,0,0,0,.4.885s0,0,.008,0a28.06,28.06,0,0,0-.254-3.571A.761.761,0,0,0,156.844,55.527Z" fill="#eea886"/>
        </g>
      </g>
      <g id="Group_36" data-name="Group 36">
        <g id="Group_35" data-name="Group 35">
          <path id="Path_34" data-name="Path 34" d="M162.576,47.808a5,5,0,0,1,5.09,3.234c1.348,3.628,2.618,4.815,2.777,6.721.643,7.708,4.228,5.965,3.22,10.408s-1.707,5.115-1.707,5.115L163.384,71.6l-8.683.028s3.4-1.7,2.641-5.331-2.641-9.573-1.577-13.623S160.34,48.117,162.576,47.808Z" fill="#16202e"/>
        </g>
      </g>
      <g id="Group_38" data-name="Group 38">
        <g id="Group_37" data-name="Group 37">
          <path id="Path_35" data-name="Path 35" d="M167.146,59.412a.064.064,0,0,1-.045-.02,26.207,26.207,0,0,1,.239-3.626v-.009l.006-.007c.012-.013.291-.325.535-.274.114.024.2.121.254.288a6.286,6.286,0,0,1-.463,2.5c-.033.1-.057.177-.068.216-.048.149-.29.887-.444.924Zm.249-3.631a27.931,27.931,0,0,0-.254,3.572s.005,0,.007,0a2.568,2.568,0,0,0,.4-.886c.011-.039.035-.114.068-.218a6.424,6.424,0,0,0,.463-2.47c-.048-.147-.12-.231-.212-.25C167.675,55.491,167.435,55.737,167.394,55.781Z" fill="#eea886"/>
        </g>
      </g>
      <g id="Group_40" data-name="Group 40">
        <g id="Group_39" data-name="Group 39">
          <path id="Path_36" data-name="Path 36" d="M180.169,82.465h-5.341c-1.108-2.026-2.007-3.612-2.007-3.612a16.241,16.241,0,0,0-1.278,3.612H153.561a15.655,15.655,0,0,1-.234-3.777s-.961,1.743-2.076,3.777H145.21a105.586,105.586,0,0,1,5.29-9.216,33.021,33.021,0,0,1,9.373-5.474c3.549-1.125,5.566-.039,5.566-.039a41.909,41.909,0,0,1,7.013,2C173.776,70.263,177.435,77.047,180.169,82.465Z" fill="#faa146"/>
        </g>
      </g>
      <g id="Group_42" data-name="Group 42">
        <g id="Group_41" data-name="Group 41">
          <path id="Path_37" data-name="Path 37" d="M163.07,49.93s4.955.718,4.23,8.062-5.1,6.761-5.391,6.755-4.388.153-4.742-8.809C157.167,55.938,157,49.311,163.07,49.93Z" fill="#8e4f3a"/>
        </g>
      </g>
      <g id="Group_44" data-name="Group 44">
        <g id="Group_43" data-name="Group 43">
          <path id="Path_38" data-name="Path 38" d="M165.271,63.444s-.307,3.82.426,4.965-.627,2.7-3.428,2.167-2.639-2.126-2.639-2.126a11.7,11.7,0,0,0,.555-4.245C159.956,62.318,165.271,63.444,165.271,63.444Z" fill="#8e4f3a"/>
        </g>
      </g>
      <g id="Group_46" data-name="Group 46">
        <g id="Group_45" data-name="Group 45">
          <path id="Path_39" data-name="Path 39" d="M162.5,52.591s2.315,2.444,3.391,3.681a7.153,7.153,0,0,1,1.2,3.628,5.744,5.744,0,0,0,1.054-4.809c-.758-2.587-2.55-7.621-7.088-6.074s-4.706,8.352-4.174,11.727C156.885,60.744,158.922,53.294,162.5,52.591Z" fill="#16202e"/>
        </g>
      </g>
      <g id="Group_48" data-name="Group 48">
        <g id="Group_47" data-name="Group 47">
          <path id="Path_40" data-name="Path 40" d="M167.011,68.072s-3.437,8.739-5.525,10.257c0,0-2.744-8.912-2.552-10.217A12.116,12.116,0,0,1,167.011,68.072Z" fill="#8e4f3a"/>
        </g>
      </g>
      <g id="Group_49" data-name="Group 49">
        <path id="Path_41" data-name="Path 41" d="M159.749,65.958s-6.126,5.472-4.536,8.886c1.357,2.914,6.168,1.127,5.375-1.926A34.5,34.5,0,0,1,159.749,65.958Z" fill="#16202e"/>
      </g>
      <g id="Group_50" data-name="Group 50">
        <path id="Path_42" data-name="Path 42" d="M160.55,64.414a4.314,4.314,0,0,0,4.166-.478,2.682,2.682,0,0,1-2.083,1.352A2.051,2.051,0,0,1,160.55,64.414Z" fill="#633029"/>
      </g>
    </g>
    <g id="Group_60" data-name="Group 60">
      <g id="Group_52" data-name="Group 52">
        <path id="Path_43" data-name="Path 43" d="M214.925,44.2s-2.032,7.677-2.456,9.407a14.406,14.406,0,0,1-1.051,2.449c0,.007-.007.015-.013.024a1.961,1.961,0,0,0-.19.624c-.082.64.163,1.145-.261,1.9l-.077.319h-4.022c.47-1.4,1.065-3.181,1.542-4.615.4-1.211.716-2.174.8-2.453.248-.833,1.16-3.529,1.935-5.32a4.926,4.926,0,0,1,2.234-1.686C214.194,44.458,214.925,44.2,214.925,44.2Z" fill="#323657"/>
      </g>
      <g id="Group_53" data-name="Group 53">
        <path id="Path_44" data-name="Path 44" d="M212.235,33.234s-1.282-8.326,5.587-8.172,6.777,4.271,6.654,8.357-2.754,3.779.214,9.463-2.571,5.684-2.571,5.684l-4.3-5.93Z" fill="#fccca2"/>
      </g>
      <g id="Group_54" data-name="Group 54">
        <path id="Path_45" data-name="Path 45" d="M217.07,25.86s-4.652.737-4.835,7.374,1.255,8.05,5.325,6.667,5.355-8.326,5.447-9.4S223.344,25.061,217.07,25.86Z" fill="#eea886"/>
      </g>
      <g id="Group_55" data-name="Group 55">
        <path id="Path_46" data-name="Path 46" d="M225.239,48.943c.016,2.284-2.6,7.746-3,9.434-.048.2-.1.378-.15.548H209.393c-.066-.787-.128-1.46-.159-1.84-.1-1.247-1.359-3.935-1.317-5.186a7.528,7.528,0,0,1,1.539-3.737c.27-.422.555-.851.839-1.269a24.138,24.138,0,0,1,2.3-3.023,7.383,7.383,0,0,1,.926-.741l0,0a4.271,4.271,0,0,1,.954-.5l4-.642s2.492.906,3.926,1.242C222.4,43.224,225.2,43.635,225.239,48.943Z" fill="#e55353"/>
      </g>
      <g id="Group_56" data-name="Group 56">
        <path id="Path_47" data-name="Path 47" d="M213.523,43.128l-2.317,3.667-2.139,3.384c.005-.018.147-.531.389-2.014.046-.282.1-.6.148-.953a2.543,2.543,0,0,1,.067-.312h0c.915-2.119,3.746-3.716,3.849-3.769Z" fill="#e55353"/>
      </g>
      <g id="Group_57" data-name="Group 57">
        <path id="Path_48" data-name="Path 48" d="M220.177,36.912c-.4.764-.829,5.51-.829,5.51s-5.689,2.159-5.107.938a4.684,4.684,0,0,0,.347-1.893,9.225,9.225,0,0,0-.063-1.153c-.015-.125-.026-.2-.026-.2S220.58,36.147,220.177,36.912Z" fill="#eea886"/>
      </g>
      <g id="Group_58" data-name="Group 58">
        <path id="Path_49" data-name="Path 49" d="M215.173,30.622s2.387,3.9,4.56,5.438,1.071,2.765,1.071,2.765,5.669-11.982.279-12.812-8.7-.891-8.848,7.22C212.235,33.234,214.683,30.561,215.173,30.622Z" fill="#fccca2"/>
      </g>
      <g id="Group_59" data-name="Group 59">
        <path id="Path_50" data-name="Path 50" d="M217.768,39.824c-.873,1.293-3.181,1.641-3.181,1.641h0a9.225,9.225,0,0,0-.063-1.153A6.475,6.475,0,0,0,217.768,39.824Z" fill="#a77860"/>
      </g>
      <path id="Path_51" data-name="Path 51" d="M209.681,46.874h0a4.807,4.807,0,0,0-.225,1.291l.838-1.27s1.5-2.154,2.009-2.715a8.523,8.523,0,0,1,1.217-1.051S210.575,44.55,209.681,46.874Z" fill="#ebeeff"/>
      <path id="Path_52" data-name="Path 52" d="M221,50.086a32.034,32.034,0,0,1,4.732-1.522S225,42.678,221.413,43.3,221,50.086,221,50.086Z" fill="#e55353"/>
      <path id="Path_53" data-name="Path 53" d="M214.476,42.623s-2.681,4.139-1.773,4.5,5.82-.483,7.908-4.413A7.334,7.334,0,0,0,214.476,42.623Z" fill="#eea886"/>
      <path id="Path_54" data-name="Path 54" d="M225.735,48.565a45.31,45.31,0,0,1-1.86,9.148c-.11.409-.216.814-.314,1.213h-7.435c-.018-1.119-.015-2.106.02-2.929.375-9.007,3.218-13.743,3.218-13.743s.908.306,3.521,1.049c1.791.508,2.467,2.8,2.713,4.182a.116.116,0,0,1,0,.017A9.942,9.942,0,0,1,225.735,48.565Z" fill="#323657"/>
      <path id="Path_55" data-name="Path 55" d="M214.474,42.626a21.627,21.627,0,0,0-1.105,2.227,24.263,24.263,0,0,0-2.074,8.774,51.826,51.826,0,0,1-.6,5.3h-1.484a23.737,23.737,0,0,0-.817-4.615c-.2-.725-.389-1.266-.49-1.609-.473-1.616,1.04-3.768,1.546-4.538S211.176,43.858,214.474,42.626Z" fill="#323657"/>
      <path id="Path_56" data-name="Path 56" d="M228.1,58.926H224.11a5.332,5.332,0,0,0-.236-1.213c-.725-2.588-2.872-7.627-2.872-7.627s-3.212-5.27-.168-6.613,4.354,2.41,4.763,4.012a.116.116,0,0,1,0,.017C225.7,47.885,227.514,54.822,228.1,58.926Z" fill="#323657"/>
    </g>
    <g id="Group_92" data-name="Group 92">
      <g id="Group_61" data-name="Group 61">
        <path id="Path_57" data-name="Path 57" d="M162.992,134.066s1.4-.02,1.892-.559a6.518,6.518,0,0,1,1.655-1.161c.376-.184,1.417-1.2,1.548-.7s-1.657,1.755-2,2.094,1.486.488,1.753.817-.664,3.8-1.881,3.529-2.213-1.5-2.443-1.5a6.442,6.442,0,0,1-.9-.154Z" fill="#eea886"/>
      </g>
      <g id="Group_62" data-name="Group 62">
        <path id="Path_58" data-name="Path 58" d="M167.584,134.412s3.631,1.114,3.781,1.429.048.546-.3.459-3.555-.955-3.555-.955,3.969,2.179,4.147,2.4c.1.128-.07.583-.262.557s-4.278-1.908-4.278-1.908a40.74,40.74,0,0,1,3.793,2.285c.081.212-.167.6-.454.475s-3.854-1.784-3.854-1.784,2.579,1.7,2.539,1.975c-.024.171-.16.569-.809.105s-2.314-1.354-2.314-1.354Z" fill="#eea886"/>
      </g>
      <g id="Group_63" data-name="Group 63">
        <path id="Path_59" data-name="Path 59" d="M155.353,195.57a5.511,5.511,0,0,0,2.8,2.128c1.634.378,3.244.979,3.256,2.015s-4.725,1.653-6.595.609c-2.791-1.558-3.075-1.088-3.384-1.867s.372-2.861.352-3.108C151.756,195.04,155.353,195.57,155.353,195.57Z" fill="#353a3d"/>
      </g>
      <g id="Group_64" data-name="Group 64">
        <path id="Path_60" data-name="Path 60" d="M155.172,194.707a7.5,7.5,0,0,1,.181.863c-.032.018-3.683.455-3.572-.224.09-.55.217-1.148.217-1.148Z" fill="#81807e"/>
      </g>
      <g id="Group_65" data-name="Group 65">
        <path id="Path_61" data-name="Path 61" d="M132.427,195.454a5.142,5.142,0,0,0,2.251,2.244c1.518.61,2.735,1.31,2.707,2.319s-3.71,2.031-6.389.1c-1.693-1.223-2.229-1.229-2.5-2s.472-2.772.461-3.014C128.944,194.8,132.427,195.454,132.427,195.454Z" fill="#353a3d"/>
      </g>
      <g id="Group_66" data-name="Group 66">
        <path id="Path_62" data-name="Path 62" d="M132.468,194.584a8.217,8.217,0,0,1-.041.869c-.031.016-3.56.308-3.471-.356a5.474,5.474,0,0,1,.343-1.164Z" fill="#81807e"/>
      </g>
      <g id="Group_67" data-name="Group 67">
        <path id="Path_63" data-name="Path 63" d="M145.406,143.452s4.635,17.825,6.4,21.946c1.635,3.818,2.174,9.158,2.4,11.84.283,3.373,1.968,16.509,2.167,17.495s-5.452.546-5.452.546-3.9-22.712-5.513-26.026c-1.079-2.212-7.342-18.073-8.059-17.16s-1.605,16.806-2.136,19.444-2.16,23.484-2.16,23.484-3.643.54-4.616-.287c0,0-.443-17.8-.1-22.745.129-1.885-2.2-22.6.786-30.941C130.695,136.639,145.406,143.452,145.406,143.452Z" fill="#2d3133"/>
      </g>
      <g id="Group_68" data-name="Group 68">
        <path id="Path_64" data-name="Path 64" d="M119.591,130.669a10.819,10.819,0,0,0,1,2.192c.9-1.8,1.6-3.273,1.828-3.816.754-1.789,4.641-5.888,4.641-5.888a.032.032,0,0,0,0,.009.017.017,0,0,0,0,.005.01.01,0,0,1,0,0c0,.006,0,.011,0,.017l.01.035a.2.2,0,0,1,.006.022.145.145,0,0,1,0,.017,48.288,48.288,0,0,1,1.559,8.176c.053,2.653.742,7.561.742,7.561h0l.812.114,1.8.254.215.03.523.074,4.762.673,1.689.238.228.033.965.136,2.666.376.68.1h.006l.509.072.7.1h0a4.8,4.8,0,0,0,.582-2.972c-.065-1.311-.223-3.776-.157-6.062,0-.012,0-.024,0-.035,0-.029,0-.058,0-.087,0-.01,0-.019,0-.029v-.005a16.384,16.384,0,0,1,.385-3.351,13.921,13.921,0,0,0,.331-1.786l.01-.083c.012-.106.023-.21.033-.312a15.823,15.823,0,0,0,.025-2.863l0,.006c.048.105.4,1.384.851,2.963.77,2.669,1.848,6.2,2.308,6.365.668.247,11.487,3.464,13.824,3.793.27.038.427.038.442-.01s.022-.069.032-.106c.284-.94.674-2.537.737-2.794.006-.023.009-.036.009-.036l-.419-.126-11.773-3.542-5.382-15.58c-.112-.09-1.434-.733-2.4-1.193-.984-.47-2.171-1.161-3.246-1.753-.548-.3-1.067-.576-1.515-.782l-.069-.031h0l-1.234-.566h0l-.322-.031c-1.034-.1-4.246-.4-5.322-.464-.089-.006-.163-.009-.22-.01s-.086,0-.109,0a13.393,13.393,0,0,0-1.669.572h0l-.1.038-.123.047-.23.089-.478.188-.17.067a34.182,34.182,0,0,0-4.211,1.894,25.982,25.982,0,0,0-2.42,4.354c-1.457,4.685-3.3,11.857-3.36,13.625C119.592,130.617,119.591,130.644,119.591,130.669Z" fill="#decbc4"/>
      </g>
      <g id="Group_69" data-name="Group 69">
        <path id="Path_65" data-name="Path 65" d="M144.944,141.2a4.452,4.452,0,0,1,.462,2.253s-14.732-1.725-16.29-2.405c0,0-.061-2.008.27-2.043C129.749,138.965,144.944,141.2,144.944,141.2Z" fill="#495055"/>
      </g>
      <g id="Group_70" data-name="Group 70">
        <path id="Path_66" data-name="Path 66" d="M132.381,109.212c.046,2.321,4.522,3.591,4.522,3.591s1.873-2.357,1.425-2.583c-.176-.089-.247-.44-.269-.835a8.185,8.185,0,0,1,.026-1.053c.013-.164.026-.27.026-.27s-.64-.678-1.453-1.485c-1.422-1.412-3.377-3.22-3.38-2.5a.634.634,0,0,0,.017.136C133.638,105.834,132.381,109.212,132.381,109.212Z" fill="#eea886"/>
      </g>
      <g id="Group_71" data-name="Group 71">
        <path id="Path_67" data-name="Path 67" d="M132.752,139.359s-.321,2.036-.349,2.566l-.682-.136s.188-2.154.3-2.515Z" fill="#353a3d"/>
      </g>
      <g id="Group_72" data-name="Group 72">
        <path id="Path_68" data-name="Path 68" d="M143.715,140.962s.258,1.85.264,2.549l-.721-.094s-.148-2.311-.23-2.552Z" fill="#353a3d"/>
      </g>
      <g id="Group_73" data-name="Group 73">
        <path id="Path_69" data-name="Path 69" d="M134.105,105.811h0c.009.014.2.3.523.708a9.387,9.387,0,0,0,3.432,2.866,8.185,8.185,0,0,1,.026-1.053,2.32,2.32,0,0,0,.445-.054,13.823,13.823,0,0,0-.973-1.431l-.9-.27Z" fill="#a77860"/>
      </g>
      <g id="Group_74" data-name="Group 74">
        <path id="Path_70" data-name="Path 70" d="M133.246,104.11c.387.846.755,1.459.859,1.7h0a3.006,3.006,0,0,0,.523.708,5.154,5.154,0,0,0,3.457,1.813,2.32,2.32,0,0,0,.445-.054,2.115,2.115,0,0,0,1.541-1.069,12.2,12.2,0,0,0,.771-9.979s-7.636-2.168-8.831.14C131.172,98.991,132.336,102.123,133.246,104.11Z" fill="#eea886"/>
      </g>
      <g id="Group_75" data-name="Group 75">
        <path id="Path_71" data-name="Path 71" d="M140.841,97.232s.709-.039.885-1.389c.173-1.334-.177-1.7-.177-1.7a31.494,31.494,0,0,0-4.285-1.5c-1.132-.172-3.916-.338-4.569.411,0,0-1.585-.37-2.017,2.273-.685,4.192,2.335,8.262,2.335,8.262s-.026-2.738.576-3.1,1.121.5,1.121.5l1.23.221s-1.869-4.052.373-4.2S139.558,97.467,140.841,97.232Z" fill="#252e3b"/>
      </g>
      <g id="Group_76" data-name="Group 76">
        <path id="Path_72" data-name="Path 72" d="M134.676,99.9c-.117-1.207-2.29-1.667-2.145-.4s1.216,2.48,1.71,2.437S134.765,100.815,134.676,99.9Z" fill="#eea886"/>
      </g>
      <g id="Group_77" data-name="Group 77">
        <path id="Path_73" data-name="Path 73" d="M120.587,132.861c.947,1.813,2.44,4.481,3.915,7.068-.194.364-.384.725-.566,1.081a21.7,21.7,0,0,0-1.117,2.5c-.336.945-.8,3.367.091,3.817l4.713,2.611s.033-.092.1-.263c.156-.425.495-1.334.963-2.511.015-.038.062-.151.132-.316.094-.222.229-.539.383-.9l.218-.509c.085-.2.174-.408.262-.614l.374-.874c.321-.751.573-1.336.573-1.336l.048-.1q.23-.5.471-1c.248-.516.5-1.03.763-1.532l.079-.153.14-.264.087-.16.019-.036.035-.063c1.363-2.495,2.9-4.581,3.387-7.641q.071-.443.135-.88c.071-.486.136-.965.2-1.435.022-.178.044-.354.065-.528.245-2.041.392-3.86.51-5.127.369-3.947-2.039-8.22-3.888-10.86a29.209,29.209,0,0,0-1.976-2.535l-.01-.01-.1.038-.123.047-.23.089-.478.188-.17.067c-1.79.7-5.56,1.746-6.034,2.087a19.152,19.152,0,0,0-1.593,4.273,68.58,68.58,0,0,0-2.363,13.513c0,.028,0,.055,0,.08A10.819,10.819,0,0,0,120.587,132.861Zm7.161-.881a8.19,8.19,0,0,1-.724,2.962l-.034.081c-.3-.647-.587-1.267-.842-1.841a.006.006,0,0,1,0,0,14.832,14.832,0,0,1-1.21-3.292c-.173-3.125,2.12-6.722,2.12-6.722a.017.017,0,0,0,0,.005.01.01,0,0,1,0,0c0,.006,0,.011,0,.017s.007.023.01.035a.2.2,0,0,1,.006.022.145.145,0,0,1,0,.017A75.793,75.793,0,0,1,127.748,131.98Z" fill="#3c4145"/>
      </g>
      <path id="Path_74" data-name="Path 74" d="M136.7,143.755l-13.433,6a1.5,1.5,0,0,1-1.988-.767L117.6,140.7a1.515,1.515,0,0,1,.764-2l13.433-6a1.5,1.5,0,0,1,1.988.766l3.678,8.295A1.514,1.514,0,0,1,136.7,143.755Z" fill="#b3a5a0"/>
      <g id="Group_78" data-name="Group 78">
        <path id="Path_75" data-name="Path 75" d="M139.6,110.845a63.423,63.423,0,0,1,1.445,7.361,0,0,0,0,0,0,0c.028.177.055.356.083.54,0,.021.006.043.01.064.018.121.037.245.055.369l.007.044c.012.084.025.168.037.254q.046.312.092.635c.363,2.558.873,6.912,1.364,11.308v0c.387,3.464,1.27,7.019,1.55,9.672,0,0,0,0,0,.005a18.376,18.376,0,0,0,.367,1.994c.02.088.041.178.062.268.789,3.349,2.322,8.088,2.322,8.088l.446-.414,1.322-1.225a1.079,1.079,0,0,0,.3-1.11c-.733-2.375-3.225-10.779-3.682-16.688a.018.018,0,0,1,0-.005c.224-2.076.8-4.862.711-5.263l.016.043c.262.733.553,1.529.846,2.3h0c.787,2.082,1.591,4.012,1.926,4.135.746.275,14.14,4.243,14.237,3.689.01-.056.021-.115.034-.178s.026-.127.04-.195c.165-.758.466-1.845.675-2.578l.086-.3c.088-.3.145-.5.145-.5l-11.327-3.732-5.715-15c-.112-.089-1.571-.878-2.536-1.339-1.005-.481-2.277-1.073-3.406-1.6-.539-.25-1.047-.484-1.475-.682Z" fill="#3c4145"/>
      </g>
      <g id="Group_79" data-name="Group 79">
        <path id="Path_76" data-name="Path 76" d="M131.927,116.047l2.178,1.233-.93.953,2.478,13.43c.505-3.148.735-6.137.906-7.97.57-6.1-5.5-12.984-5.874-13.406-.291.111-.606.234-.931.363Z" fill="#51565c"/>
      </g>
      <g id="Group_80" data-name="Group 80">
        <path id="Path_77" data-name="Path 77" d="M139.563,110.786a71,71,0,0,1,1.762,9.328c.364,2.558.874,6.912,1.364,11.307l.507-12.577-1.038-1.128.922-1.157-1.974-5.059c-.539-.25-1.047-.484-1.476-.682Z" fill="#51565c"/>
      </g>
      <g id="Group_81" data-name="Group 81">
        <path id="Path_78" data-name="Path 78" d="M130.563,110.333l1.818-1.12s.051.994,4.522,3.591l-1.27,3.591Z" fill="#f5e2d9"/>
      </g>
      <g id="Group_82" data-name="Group 82">
        <path id="Path_79" data-name="Path 79" d="M138.093,109.713a8.472,8.472,0,0,1-1.189,3.09l2.479,3.244.181-5.261Z" fill="#f5e2d9"/>
      </g>
      <g id="Group_83" data-name="Group 83">
        <path id="Path_80" data-name="Path 80" d="M136.9,112.8a8.5,8.5,0,0,0-.307,2.469,2.337,2.337,0,0,0,1.815-.1A8.481,8.481,0,0,0,136.9,112.8Z" fill="#faa146"/>
      </g>
      <g id="Group_85" data-name="Group 85">
        <g id="Group_84" data-name="Group 84">
          <path id="Path_81" data-name="Path 81" d="M139.38,140.622a36.68,36.68,0,0,0,0-5.612l-.23.015a37.517,37.517,0,0,1,0,5.552Z" fill="#ad9f99"/>
        </g>
      </g>
      <g id="Group_86" data-name="Group 86">
        <path id="Path_82" data-name="Path 82" d="M137.5,140s2.168.26,2.884.439l-.094,2.439-2.839-.3Z" fill="#69737a"/>
      </g>
      <g id="Group_87" data-name="Group 87">
        <path id="Path_83" data-name="Path 83" d="M137.973,115A34.367,34.367,0,0,1,140,127.993a58.43,58.43,0,0,1-1.08,9.693l-1.491,1.877-.657-2.307a56.807,56.807,0,0,0,.709-17.894c-.234-1.6-.582-4.629-.582-4.629Z" fill="#faa146"/>
      </g>
      <g id="Group_88" data-name="Group 88">
        <path id="Path_84" data-name="Path 84" d="M130.709,143.949s.519,1.042,1.038,1.215a4.5,4.5,0,0,1,1.275,1.02l-3.653,1.931a10.067,10.067,0,0,1-1.016-3.125C128.309,143.776,130.709,143.949,130.709,143.949Z" fill="#eea886"/>
      </g>
      <g id="Group_89" data-name="Group 89">
        <path id="Path_85" data-name="Path 85" d="M131.055,144.047l.242.488a16.717,16.717,0,0,1-2.945,1.812l-.215-.651Z" fill="#decbc4"/>
      </g>
      <g id="Group_90" data-name="Group 90">
        <path id="Path_86" data-name="Path 86" d="M131.3,144.069a17.8,17.8,0,0,1-3.2,2.109l-6.563-11.554,4.189-2.3S131.182,143.2,131.3,144.069Z" fill="#3c4145"/>
      </g>
      <g id="Group_91" data-name="Group 91">
        <path id="Path_87" data-name="Path 87" d="M146.016,123.637c.081,1.646.069,3.108.069,3.108h0c0,.008,0,.052.006.126l.01-.083c.262.733.553,1.529.846,2.3a24.777,24.777,0,0,0,.066-2.512,15.452,15.452,0,0,0-1.564-7.036A15.729,15.729,0,0,1,146.016,123.637Z" fill="#2d3133"/>
      </g>
    </g>
    <g id="Group_135" data-name="Group 135">
      <g id="Group_93" data-name="Group 93">
        <path id="Path_88" data-name="Path 88" d="M203.048,108.422a5.455,5.455,0,0,1,.031-1.244c.172-.684-.081-1.791.775-2.328s3.319,1.712,3.512,2.34-.727,1.7-2.652,2.6S203.048,108.422,203.048,108.422Z" fill="#eea886"/>
      </g>
      <g id="Group_94" data-name="Group 94">
        <path id="Path_89" data-name="Path 89" d="M203.592,105.072a29.248,29.248,0,0,1,1.929-2.539c.963-1.126,2.314-2.388,2.6-2.148.433.364-.793,1.272-1.672,2.452-.809,1.087-.466,1.01-.466,1.01s-.1.017,1.015-.995c1.2-1.087,2.53-2.2,2.767-2.012.294.238.311.292-.059.759.271-.222.37-.179.475-.073.539.544-.969,2.418-1.569,3.162.464-.569.866-.936.982-.389.132.626-2.121,3.178-2.84,4.17C205.969,109.552,203.592,105.072,203.592,105.072Z" fill="#eea886"/>
      </g>
      <g id="Group_98" data-name="Group 98">
        <g id="Group_97" data-name="Group 97">
          <g id="Group_96" data-name="Group 96">
            <g id="Group_95" data-name="Group 95">
              <path id="Path_90" data-name="Path 90" d="M174.793,195.252s2.343,1.391,3.4,1.908,5.183.665,5.59,1.054.258,1.625-.425,1.752-5.693.581-7.365.189-4.8.268-5.49.032-.246-3.983.022-4.824S174.793,195.252,174.793,195.252Z" fill="#181929"/>
            </g>
          </g>
        </g>
      </g>
      <g id="Group_102" data-name="Group 102">
        <g id="Group_101" data-name="Group 101">
          <g id="Group_100" data-name="Group 100">
            <g id="Group_99" data-name="Group 99">
              <path id="Path_91" data-name="Path 91" d="M174.988,193.72l-.2,1.532s-3.132.588-4.082.1l.235-1.592Z" fill="#22243b"/>
            </g>
          </g>
        </g>
      </g>
      <g id="Group_103" data-name="Group 103">
        <path id="Path_92" data-name="Path 92" d="M187.555,141.386c-.033,1.061-.226,3.363-.45,5.78-.05.537-.1,1.08-.154,1.617-.313,3.253-.628,6.262-.628,6.262-.4,2.59-1.212,7.086-2.124,10.485h0c-.263.981-.534,1.871-.806,2.6a6.419,6.419,0,0,1-.787,1.589c-1.941,2.489-6.392,24.559-6.392,24.559l-6.076-.047s1.336-14.944,2.679-18.732c1.5-4.231,4.1-9.932,3.455-14.012-.4-2.561-.926-10.711-.926-10.711s-.508-9.158,1.878-15.866C177.82,133.232,187.555,141.386,187.555,141.386Z" fill="#292c47"/>
      </g>
      <g id="Group_107" data-name="Group 107">
        <g id="Group_106" data-name="Group 106">
          <g id="Group_105" data-name="Group 105">
            <g id="Group_104" data-name="Group 104">
              <path id="Path_93" data-name="Path 93" d="M191.866,195.825s2.326,1.419,3.381,1.948,5.175.727,5.577,1.121.239,1.628-.446,1.746-5.7.513-7.366.1-4.8.21-5.49-.034-.2-3.986.08-4.824S191.866,195.825,191.866,195.825Z" fill="#181929"/>
            </g>
          </g>
        </g>
      </g>
      <g id="Group_111" data-name="Group 111">
        <g id="Group_110" data-name="Group 110">
          <g id="Group_109" data-name="Group 109">
            <g id="Group_108" data-name="Group 108">
              <path id="Path_94" data-name="Path 94" d="M192.08,194.3l-.213,1.529s-3.139.55-4.083.055l.254-1.589Z" fill="#22243b"/>
            </g>
          </g>
        </g>
      </g>
      <g id="Group_112" data-name="Group 112">
        <path id="Path_95" data-name="Path 95" d="M184.817,172.411c-.158-4.881-.588-8.124-1.839-10.944-1.051-2.368-1.95-9.805-1.95-9.805s-2.847-8.715-2.27-15.814c.145-1.773,11.15,2.685,11.15,2.685a65.564,65.564,0,0,1,1.238,6.7A148.589,148.589,0,0,1,192.08,168c-.851,3.044,1.3,26.994,1.3,26.994h-6.195a116.055,116.055,0,0,1-1.795-13.819S184.756,173.255,184.817,172.411Z" fill="#292c47"/>
      </g>
      <g id="Group_114" data-name="Group 114">
        <g id="Group_113" data-name="Group 113">
          <path id="Path_96" data-name="Path 96" d="M184.679,109.25a48.98,48.98,0,0,1,3.73,7.4c.844,2.651.164,10.358.313,11.907.462,4.806,1.136,10.1,1.136,10.1l-9.676,6.2a96.309,96.309,0,0,1-3.251-9.143,42.8,42.8,0,0,1-1.622-12.687c.044-9.569,5.2-14.972,5.2-14.972Z" fill="#cfbeb6"/>
        </g>
      </g>
      <g id="Group_116" data-name="Group 116">
        <g id="Group_115" data-name="Group 115">
          <path id="Path_97" data-name="Path 97" d="M188.235,96.509s1.984,2.132,1.423,2.692c-.463.463,1.361,2.587,1.62,2.945s-.81.948-.986,1.269-.072,3.664-.991,4.007-5.555-.02-7.028-.922-3.849-6.108-3.678-8.612S184.746,92.791,188.235,96.509Z" fill="#eea886"/>
        </g>
      </g>
      <g id="Group_118" data-name="Group 118">
        <g id="Group_117" data-name="Group 117">
          <path id="Path_98" data-name="Path 98" d="M186.359,106.7s-.034.284-.079.724c-.017.185-.04.395-.059.625-.011.136-.023.281-.037.429,0,.04-.008.079-.011.119-.006.068-.011.136-.017.207-.023.321-.045.653-.062.983a10.4,10.4,0,0,0,.042,2.114c.243,1.239-5.071-3.989-5.071-3.989A61.315,61.315,0,0,0,181.3,99.3C181.076,94.745,186.359,106.7,186.359,106.7Z" fill="#eea886"/>
        </g>
      </g>
      <g id="Group_120" data-name="Group 120">
        <g id="Group_119" data-name="Group 119">
          <path id="Path_99" data-name="Path 99" d="M188.642,96.977s.938-2.223-1.956-3.766c-3.407-1.817-7.02,2.744-7.5,3.013s-2.658,2.73-.526,5.993c2.69,4.117,2.548,3.979,2.548,3.979s.27-3.037.252-3.623c-.032-1.071,2.766-1.2,2.766-1.2s-1.149-1.536.128-2.225S187.128,96.826,188.642,96.977Z" fill="#3a3f47"/>
        </g>
      </g>
      <g id="Group_122" data-name="Group 122">
        <g id="Group_121" data-name="Group 121">
          <path id="Path_100" data-name="Path 100" d="M182.758,100.985c-.2-.287-.951-1.556-1.913-.442s1.617,3.2,1.83,3.177S184.472,103.4,182.758,100.985Z" fill="#eea886"/>
        </g>
      </g>
      <g id="Group_123" data-name="Group 123">
        <path id="Path_101" data-name="Path 101" d="M190.386,140.7s-.481-2.272-.574-2.612l-14.15,2.364.145,1.836S186,141.677,190.386,140.7Z" fill="#23263d"/>
      </g>
      <g id="Group_124" data-name="Group 124">
        <path id="Path_102" data-name="Path 102" d="M174.4,130.691a43.122,43.122,0,0,1-1.231,20.419c-.416,1.342,9.423-.209,9.423-.209Z" fill="#faa146"/>
      </g>
      <g id="Group_126" data-name="Group 126">
        <g id="Group_125" data-name="Group 125">
          <path id="Path_103" data-name="Path 103" d="M186.9,150.211s-6.989,1.54-8.952.844a141.455,141.455,0,0,1-3.852-21.019q-.116-1.228-.2-2.451v0c-.556-8.614,1.628-17.352,6.6-19.525.14.1,7.148,6.3,7.015,11.976q-.014.576-.018,1.156c0,.7,0,1.4.016,2.1h0c.045,2.16.178,4.314.368,6.406.019.218.04.436.061.652q.051.528.107,1.048.075.694.156,1.375A47.033,47.033,0,0,1,186.9,150.211Z" fill="#faa146"/>
        </g>
      </g>
      <g id="Group_127" data-name="Group 127">
        <path id="Path_104" data-name="Path 104" d="M186.614,113.4a78.33,78.33,0,0,1,1.818,11.816c.42,5.508.981,9.4.981,9.4l.84,2.727.345-2.63s-.308-7.109-.719-10c-.414-2.916-.6-6.617-2.917-11.419Z" fill="#d44040"/>
      </g>
      <g id="Group_128" data-name="Group 128">
        <path id="Path_105" data-name="Path 105" d="M186.467,113.4a.779.779,0,0,0,.383.186c.225.033.546-.327-.6-1.848Z" fill="#d44040"/>
      </g>
      <g id="Group_130" data-name="Group 130">
        <g id="Group_129" data-name="Group 129">
          <path id="Path_106" data-name="Path 106" d="M181.126,107.272s3.254,3.077,5.191,3.756l.369,2.947-6.18-5.917Z" fill="#eddad3"/>
        </g>
      </g>
      <g id="Group_131" data-name="Group 131">
        <path id="Path_107" data-name="Path 107" d="M183.311,119.183c-1.283-.458-6.614-3.056-5.2-6.088s5.073-1.42,7.824-.186c2.879,1.291,9.674,5.258,10.212,4.888a32.753,32.753,0,0,0,3.313-4.5c.425-.753,2.99-5.563,3.232-5.925s3.963,2.788,3.963,2.788-6.692,11.932-8.493,13.831S183.311,119.183,183.311,119.183Z" fill="#faa146"/>
      </g>
      <g id="Group_132" data-name="Group 132">
        <path id="Path_108" data-name="Path 108" d="M184.2,165.53h0c-.263.981-.534,1.871-.806,2.6h0l-2.119-12.69C181.809,156.64,184.2,165.53,184.2,165.53Z" fill="#181929"/>
      </g>
      <g id="Group_133" data-name="Group 133">
        <path id="Path_109" data-name="Path 109" d="M187.519,123.286l-6.132-5.028c1.624.874,5.616,2.7,6.116,2.932C187.5,121.888,187.5,122.588,187.519,123.286Z" fill="#8f5c28"/>
      </g>
      <g id="Group_134" data-name="Group 134">
        <path id="Path_110" data-name="Path 110" d="M186.28,107.424c-.017.185-.04.395-.059.625-.011.136-.023.281-.037.429a6.337,6.337,0,0,1-3.7-1.861C183.311,107.276,186.28,107.424,186.28,107.424Z" fill="#a77860"/>
      </g>
    </g>
    <g id="Group_136" data-name="Group 136" opacity="0.95">
      <path id="Path_111" data-name="Path 111" d="M265.908,60.66h3.219l-.985-2.052h-3.219Z" fill="url(#linear-gradient-13)"/>
      <path id="Path_112" data-name="Path 112" d="M264.4,60.66h.767l-.985-2.052h-.767Z" fill="url(#linear-gradient-13)"/>
      <path id="Path_113" data-name="Path 113" d="M253.279,58.217h13.036l-.433-1.026H252.847Z" fill="url(#linear-gradient-13)"/>
    </g>
    <g id="Group_143" data-name="Group 143">
      <g id="Group_137" data-name="Group 137">
        <path id="Rectangle_13" data-name="Rectangle 13" d="M.3,0H5.223a.3.3,0,0,1,.3.3V1.37a.3.3,0,0,1-.3.3H.3a.3.3,0,0,1-.3-.3V.3A.3.3,0,0,1,.3,0Z" transform="translate(178.047 23.831)" fill="url(#linear-gradient-13)"/>
      </g>
      <g id="Group_138" data-name="Group 138">
        <path id="Rectangle_14" data-name="Rectangle 14" d="M.3,0H5.223a.3.3,0,0,1,.3.3V1.37a.3.3,0,0,1-.3.3H.3a.3.3,0,0,1-.3-.3V.3A.3.3,0,0,1,.3,0Z" transform="translate(178.047 27.839)" fill="url(#linear-gradient-13)"/>
      </g>
      <g id="Group_139" data-name="Group 139">
        <path id="Rectangle_15" data-name="Rectangle 15" d="M.3,0H5.223a.3.3,0,0,1,.3.3V1.37a.3.3,0,0,1-.3.3H.3a.3.3,0,0,1-.3-.3V.3A.3.3,0,0,1,.3,0Z" transform="translate(178.047 31.847)" fill="url(#linear-gradient-13)"/>
      </g>
      <g id="Group_140" data-name="Group 140">
        <path id="Rectangle_16" data-name="Rectangle 16" d="M.3,0H1.27a.3.3,0,0,1,.3.3V1.37a.3.3,0,0,1-.3.3H.3a.3.3,0,0,1-.3-.3V.3A.3.3,0,0,1,.3,0Z" transform="translate(185.852 23.831)" fill="url(#linear-gradient-13)"/>
      </g>
      <g id="Group_141" data-name="Group 141">
        <rect id="Rectangle_17" data-name="Rectangle 17" width="1.572" height="1.671" rx="0.302" transform="translate(185.852 27.839)" fill="url(#linear-gradient-13)"/>
      </g>
      <g id="Group_142" data-name="Group 142">
        <path id="Rectangle_18" data-name="Rectangle 18" d="M.3,0H1.27a.3.3,0,0,1,.3.3V1.37a.3.3,0,0,1-.3.3H.3a.3.3,0,0,1-.3-.3V.3A.3.3,0,0,1,.3,0Z" transform="translate(185.852 31.847)" fill="url(#linear-gradient-13)"/>
      </g>
    </g>
    <g id="Group_144" data-name="Group 144">
      <path id="Path_114" data-name="Path 114" d="M162.315,120.277h5.779l-1.769-3.683h-5.779Z" fill="url(#linear-gradient-13)"/>
      <path id="Path_115" data-name="Path 115" d="M159.611,120.277h1.377l-1.769-3.683h-1.377Z" fill="url(#linear-gradient-13)"/>
    </g>
  </g>
</svg>
