<svg width="20" height="14" viewBox="0 0 20 14" fill="none" xmlns="http://www.w3.org/2000/svg">
<path fill-rule="evenodd" clip-rule="evenodd" d="M8.23191 9.36285L8.23132 4.01486L13.3379 6.69807L8.23191 9.36285ZM19.4443 3.08814C19.4443 3.08814 19.2595 1.77658 18.6931 1.19901C17.9743 0.440623 17.1687 0.437054 16.7995 0.393037C14.1547 0.200317 10.1875 0.200317 10.1875 0.200317H10.1792C10.1792 0.200317 6.21197 0.200317 3.56716 0.393037C3.19742 0.437054 2.3924 0.440623 1.67302 1.19901C1.10661 1.77658 0.922337 3.08814 0.922337 3.08814C0.922337 3.08814 0.733337 4.62871 0.733337 6.16869V7.6129C0.733337 9.15347 0.922337 10.6934 0.922337 10.6934C0.922337 10.6934 1.10661 12.005 1.67302 12.5826C2.3924 13.341 3.33681 13.3172 3.75734 13.3963C5.26934 13.5426 10.1833 13.5878 10.1833 13.5878C10.1833 13.5878 14.1547 13.5819 16.7995 13.3891C17.1687 13.3445 17.9743 13.341 18.6931 12.5826C19.2595 12.005 19.4443 10.6934 19.4443 10.6934C19.4443 10.6934 19.6333 9.15347 19.6333 7.6129V6.16869C19.6333 4.62871 19.4443 3.08814 19.4443 3.08814V3.08814Z" fill="white"/>
</svg>
