<svg width="18" height="18" viewBox="0 0 18 18" fill="none" xmlns="http://www.w3.org/2000/svg">
<path fill-rule="evenodd" clip-rule="evenodd" d="M9.34732 17.5H0.965866C0.432276 17.5 0 17.0675 0 16.5341V0.965858C0 0.432341 0.432344 0 0.965866 0H16.5342C17.0676 0 17.5 0.432341 17.5 0.965858V16.5341C17.5 17.0675 17.0675 17.5 16.5342 17.5H12.0747V10.723H14.3495L14.6901 8.08193H12.0747V6.39575C12.0747 5.63109 12.2871 5.11 13.3836 5.11L14.7821 5.10939V2.74717C14.5403 2.71498 13.7101 2.64307 12.7442 2.64307C10.7278 2.64307 9.34732 3.87389 9.34732 6.13419V8.08193H7.06676V10.723H9.34732V17.5V17.5Z" fill="white"/>
</svg>
