<?xml version="1.0" encoding="utf-8"?>
<!-- Generator: Adobe Illustrator 17.0.0, SVG Export Plug-In . SVG Version: 6.00 Build 0)  -->
<!DOCTYPE svg PUBLIC "-//W3C//DTD SVG 1.1//EN" "http://www.w3.org/Graphics/SVG/1.1/DTD/svg11.dtd">
<svg version="1.1" id="Calque_1" xmlns="http://www.w3.org/2000/svg" xmlns:xlink="http://www.w3.org/1999/xlink" x="0px" y="0px"
	 width="351.435px" height="226.771px" viewBox="0 0 351.435 226.771" enable-background="new 0 0 351.435 226.771"
	 xml:space="preserve">
<g>
	<rect x="-0.022" y="0" fill="#FFFFFF" width="351.435" height="226.771"/>
	<polygon fill="#00529B" points="146.241,0 146.241,75.555 33.055,0 	"/>
	<polygon fill="#CE1141" points="158.004,136.062 -0.039,136.062 0.023,90.709 158.004,90.709 158.029,0 193.19,0 193.217,90.709 
		351.413,90.709 351.413,136.062 193.217,136.062 193.19,226.771 158.029,226.771 	"/>
	<polygon fill="#00529B" points="96.799,76.222 -0.057,76.222 -0.057,15.493 	"/>
	<polygon fill="#00529B" points="204.978,226.771 204.978,151.215 318.163,226.771 	"/>
	<polygon fill="#00529B" points="253.563,150.903 351.389,150.882 351.389,212.271 	"/>
	<polygon fill="#00529B" points="146.241,226.771 146.241,151.215 33.055,226.771 	"/>
	<polygon fill="#00529B" points="97.194,150.896 0.001,150.896 0.001,211.994 	"/>
	<polygon fill="#CE1141" points="134.439,150.896 21.332,226.771 9.625,226.771 122.724,150.896 	"/>
	<polygon fill="#00529B" points="204.978,0 204.978,75.555 318.163,0 	"/>
	<polygon fill="#00529B" points="253.384,76.263 351.435,76.263 351.435,14.777 	"/>
	<polygon fill="#CE1141" points="216.529,76 329.887,0 341.591,0 228.244,76 	"/>
	<polygon fill="#CE1141" points="-0.012,7.557 108.404,76.245 120.215,76.225 -0.022,0 	"/>
	<polygon fill="#CE1141" points="351.421,220.5 240.975,150.888 228.729,150.846 349.449,226.73 351.382,226.76 	"/>
	<path fill="none" stroke="#000000" d="M-0.022,0"/>
</g>
</svg>
