<?xml version="1.0" encoding="utf-8"?>
<!-- Generator: Adobe Illustrator 15.0.0, SVG Export Plug-In  -->
<!DOCTYPE svg PUBLIC "-//W3C//DTD SVG 1.1//EN" "http://www.w3.org/Graphics/SVG/1.1/DTD/svg11.dtd" [
	<!ENTITY ns_flows "http://ns.adobe.com/Flows/1.0/">
]>
<svg version="1.1"
	 xmlns="http://www.w3.org/2000/svg" xmlns:xlink="http://www.w3.org/1999/xlink" xmlns:a="http://ns.adobe.com/AdobeSVGViewerExtensions/3.0/"
	 x="0px" y="0px" width="21px" height="19px" viewBox="0 98 21 19" enable-background="new 0 98 21 19" xml:space="preserve">
<defs>
</defs>
<path fill="#FFFFFF" d="M10.561,99.865c2.453,0,2.742,0.01,3.713,0.055c0.895,0.041,1.381,0.189,1.705,0.316
	c0.43,0.166,0.736,0.365,1.057,0.686c0.322,0.322,0.521,0.629,0.688,1.059c0.127,0.325,0.275,0.811,0.316,1.706
	c0.045,0.969,0.055,1.26,0.055,3.713s-0.01,2.744-0.055,3.713c-0.041,0.896-0.189,1.383-0.316,1.707
	c-0.166,0.428-0.365,0.734-0.688,1.055c-0.32,0.322-0.627,0.521-1.057,0.689c-0.324,0.125-0.811,0.275-1.705,0.316
	c-0.969,0.043-1.26,0.053-3.713,0.053c-2.455,0-2.746-0.01-3.715-0.053c-0.895-0.041-1.381-0.191-1.705-0.316
	c-0.43-0.168-0.736-0.367-1.057-0.689c-0.322-0.32-0.521-0.627-0.688-1.055c-0.125-0.324-0.276-0.811-0.317-1.707
	c-0.044-0.969-0.052-1.26-0.052-3.713s0.008-2.744,0.052-3.713c0.041-0.895,0.192-1.381,0.317-1.706
	c0.166-0.43,0.365-0.736,0.688-1.059c0.32-0.32,0.627-0.52,1.057-0.686c0.324-0.127,0.811-0.275,1.705-0.316
	C7.817,99.875,8.106,99.865,10.561,99.865 M10.561,98.21c-2.496,0-2.809,0.01-3.789,0.055c-0.979,0.045-1.646,0.199-2.23,0.428
	c-0.605,0.234-1.117,0.549-1.629,1.059c-0.51,0.512-0.824,1.023-1.059,1.629c-0.229,0.584-0.383,1.252-0.428,2.231
	s-0.056,1.291-0.056,3.787s0.011,2.809,0.056,3.789c0.045,0.977,0.199,1.645,0.428,2.23c0.234,0.604,0.549,1.115,1.059,1.627
	c0.512,0.512,1.023,0.824,1.629,1.061c0.584,0.227,1.252,0.381,2.23,0.426c0.98,0.045,1.293,0.057,3.789,0.057
	c2.494,0,2.809-0.012,3.787-0.057s1.646-0.199,2.23-0.426c0.605-0.236,1.117-0.549,1.629-1.061c0.51-0.512,0.824-1.023,1.059-1.627
	c0.229-0.586,0.383-1.254,0.428-2.23c0.045-0.98,0.055-1.293,0.055-3.789s-0.01-2.809-0.055-3.787s-0.199-1.647-0.428-2.231
	c-0.234-0.605-0.549-1.117-1.059-1.629c-0.512-0.51-1.023-0.824-1.629-1.059c-0.584-0.229-1.252-0.383-2.23-0.428
	S13.055,98.21,10.561,98.21L10.561,98.21z"/>
<path fill="#FFFFFF" d="M10.561,102.68c-2.607,0-4.719,2.113-4.719,4.719s2.111,4.719,4.719,4.719c2.605,0,4.717-2.113,4.717-4.719
	S13.167,102.68,10.561,102.68z M10.561,110.461c-1.693,0-3.064-1.371-3.064-3.062s1.371-3.062,3.064-3.062
	c1.691,0,3.062,1.371,3.062,3.062S12.252,110.461,10.561,110.461z"/>
<circle fill="#FFFFFF" cx="15.465" cy="102.494" r="1.104"/>
<rect id="_x3C_Tranche_x3E__6_" fill="none" width="21" height="117"/>
<rect id="_x3C_Tranche_x3E__5_" y="98" fill="none" width="21" height="19"/>
</svg>
