<?xml version="1.0" encoding="utf-8"?>
<!-- Generator: Adobe Illustrator 15.0.0, SVG Export Plug-In  -->
<!DOCTYPE svg PUBLIC "-//W3C//DTD SVG 1.1//EN" "http://www.w3.org/Graphics/SVG/1.1/DTD/svg11.dtd" [
	<!ENTITY ns_flows "http://ns.adobe.com/Flows/1.0/">
]>
<svg version="1.1"
	 xmlns="http://www.w3.org/2000/svg" xmlns:xlink="http://www.w3.org/1999/xlink" xmlns:a="http://ns.adobe.com/AdobeSVGViewerExtensions/3.0/"
	 x="0px" y="0px" width="21px" height="19px" viewBox="0 66 21 19" overflow="visible" enable-background="new 0 66 21 19"
	 xml:space="preserve">
<defs>
</defs>
<path fill="#FFFFFF" d="M10.993,66.71c-5.051,0.002-7.599,3.506-7.599,6.428c0,0.541,0.065,1.062,0.198,1.543
	c0.299,1.096,0.949,1.98,1.979,2.389c0.244,0.096,0.463,0.002,0.533-0.258c0.049-0.182,0.166-0.637,0.217-0.828
	c0.07-0.258,0.045-0.348-0.152-0.572c-0.258-0.291-0.457-0.639-0.578-1.062c-0.078-0.281-0.125-0.596-0.125-0.955
	c0-2.6,2.012-4.928,5.236-4.928c2.855,0,4.426,1.688,4.426,3.943c0,0.664-0.07,1.305-0.197,1.898
	c-0.445,2.062-1.611,3.57-3.174,3.57c-1.115,0-1.947-0.889-1.68-1.98c0.152-0.621,0.373-1.266,0.562-1.871
	c0.207-0.668,0.377-1.289,0.377-1.779c0-0.842-0.467-1.545-1.434-1.545c-1.139,0-2.053,1.139-2.053,2.662
	c0,0.289,0.031,0.547,0.072,0.77c0.1,0.533,0.268,0.861,0.268,0.861s-1.164,4.768-1.367,5.605c-0.406,1.664-0.062,3.705-0.031,3.908
	c0.016,0.123,0.18,0.152,0.254,0.061c0.104-0.133,1.457-1.75,1.918-3.367c0.129-0.459,0.748-2.828,0.748-2.828
	c0.369,0.684,1.449,1.281,2.598,1.281c2.783,0,4.84-2,5.506-4.924c0.152-0.666,0.23-1.379,0.23-2.127
	C17.725,69.552,15.055,66.71,10.993,66.71"/>
<rect id="_x3C_Tranche_x3E__6_" fill="none" width="21" height="117"/>
<rect id="_x3C_Tranche_x3E__5_" y="66" fill="none" width="21" height="19"/>
</svg>
