<?xml version="1.0" encoding="utf-8"?>
<!-- Generator: Adobe Illustrator 15.0.0, SVG Export Plug-In  -->
<!DOCTYPE svg PUBLIC "-//W3C//DTD SVG 1.1//EN" "http://www.w3.org/Graphics/SVG/1.1/DTD/svg11.dtd" [
	<!ENTITY ns_flows "http://ns.adobe.com/Flows/1.0/">
]>
<svg version="1.1"
	 xmlns="http://www.w3.org/2000/svg" xmlns:xlink="http://www.w3.org/1999/xlink" xmlns:a="http://ns.adobe.com/AdobeSVGViewerExtensions/3.0/"
	 x="0px" y="0px" width="21px" height="17px" viewBox="0 34 21 17" overflow="visible" enable-background="new 0 34 21 17"
	 xml:space="preserve">
<defs>
</defs>
<path fill="#FFFFFF" d="M20.336,37.018c-0.717,0.314-1.49,0.525-2.303,0.621c0.83-0.488,1.465-1.264,1.766-2.186
	c-0.775,0.453-1.635,0.781-2.549,0.961c-0.73-0.77-1.773-1.25-2.928-1.25c-2.215,0-4.01,1.771-4.01,3.949
	c0,0.311,0.033,0.611,0.102,0.9c-3.334-0.162-6.289-1.736-8.27-4.125c-0.346,0.584-0.543,1.262-0.543,1.984
	c0,1.371,0.709,2.578,1.785,3.287c-0.656-0.021-1.277-0.199-1.816-0.494c0,0.016,0,0.033,0,0.049c0,0.506,0.098,0.988,0.273,1.432
	c0.488,1.238,1.592,2.174,2.943,2.443c-0.336,0.088-0.689,0.139-1.059,0.139c-0.256,0-0.508-0.025-0.754-0.072
	c0.512,1.568,1.992,2.711,3.748,2.742C5.35,48.459,3.62,49.09,1.74,49.09c-0.326,0-0.643-0.018-0.957-0.055
	c1.775,1.119,3.885,1.773,6.148,1.773c6.271,0,10.127-4.346,11.143-8.854c0.182-0.795,0.273-1.598,0.273-2.385
	c0-0.166-0.004-0.34-0.01-0.508C19.119,38.504,19.799,37.809,20.336,37.018"/>
<rect id="_x3C_Tranche_x3E__6_" fill="none" width="21" height="117"/>
<rect id="_x3C_Tranche_x3E__5_" y="34" fill="none" width="21" height="17"/>
</svg>
