<svg width="200" height="64" viewBox="0 0 200 64" fill="none" xmlns="http://www.w3.org/2000/svg">
<path fill-rule="evenodd" clip-rule="evenodd" d="M18.8679 43.7895L37.7234 32.2972L18.8679 0L0 32.2972L18.8679 43.7895ZM0 35.9876L18.8679 47.4799L37.7358 35.9876L18.8679 63.4056L0 35.9876Z" fill="#000000"/>
<path fill-rule="evenodd" clip-rule="evenodd" d="M145.721 16.397C145.721 13.9166 146.279 11.9412 147.395 10.4706C148.51 8.99996 150.036 8.26468 151.971 8.26468C153.524 8.26468 154.807 8.8431 155.819 9.99997V1.88232H160.094V24.4706H156.246L156.04 22.7794C154.979 24.1029 153.613 24.7647 151.942 24.7647C150.065 24.7647 148.559 24.0269 147.424 22.5514C146.289 21.0759 145.721 19.0245 145.721 16.397ZM63.3773 22.5514C64.4927 21.0759 65.0504 19.1127 65.0504 16.6617V16.4411C65.0504 13.8921 64.505 11.8921 63.4142 10.4411C62.3233 8.99016 60.7953 8.26468 58.8298 8.26468C57.1691 8.26468 55.8228 8.88232 54.7909 10.1176L54.6435 8.55879H50.693V30.5882H54.9531V23.0882C55.9456 24.2059 57.2477 24.7647 58.8593 24.7647C60.7559 24.7647 62.2619 24.0269 63.3773 22.5514ZM60.0017 12.9264C60.5275 13.7304 60.7903 14.8725 60.7903 16.3529C60.7903 19.6765 59.7732 21.3382 57.739 21.3382C56.4026 21.3382 55.4739 20.8137 54.9531 19.7647V13.25C55.4543 12.2304 56.3731 11.7206 57.7096 11.7206C58.7119 11.7206 59.476 12.1225 60.0017 12.9264ZM66.3714 16.3676C66.3714 14.7892 66.6761 13.3823 67.2853 12.147C67.8946 10.9117 68.7717 9.95586 69.9165 9.27938C71.0614 8.60291 72.3905 8.26468 73.9039 8.26468C76.056 8.26468 77.8126 8.92153 79.1736 10.2353C80.5347 11.549 81.2938 13.3333 81.451 15.5882L81.4805 16.6764C81.4805 19.1176 80.7975 21.0759 79.4316 22.5514C78.0656 24.0269 76.2329 24.7647 73.9333 24.7647C71.6338 24.7647 69.7986 24.0294 68.4277 22.5588C67.0569 21.0882 66.3714 19.0882 66.3714 16.5588V16.3676ZM71.4864 20.1397C70.9164 19.3407 70.6315 18.1863 70.6315 16.6764C70.6315 14.9804 70.9164 13.7279 71.4864 12.9191C72.0564 12.1103 72.8622 11.7059 73.9039 11.7059C74.9554 11.7059 75.771 12.1127 76.3508 12.9264C76.9306 13.7402 77.2205 14.8872 77.2205 16.3676C77.2205 18.1029 76.9306 19.3652 76.3508 20.1544C75.771 20.9436 74.9652 21.3382 73.9333 21.3382C72.872 21.3382 72.0564 20.9387 71.4864 20.1397ZM97.321 18.6911L99.4142 8.55879H103.527L99.4584 24.4706H95.8912L92.8694 14.4559L89.8476 24.4706H86.2951L82.2267 8.55879H86.3393L88.4177 18.6764L91.3364 8.55879H94.4171L97.321 18.6911ZM106.609 22.6176C108.079 24.049 109.983 24.7647 112.321 24.7647C113.648 24.7647 114.857 24.5122 115.948 24.0073C117.038 23.5024 117.903 22.799 118.542 21.897L116.449 19.5588C115.525 20.7451 114.243 21.3382 112.601 21.3382C111.54 21.3382 110.663 21.0245 109.97 20.397C109.277 19.7696 108.862 18.9363 108.725 17.897H118.881V16.1617C118.881 13.6421 118.254 11.6961 117.001 10.3235C115.749 8.95094 114.031 8.26468 111.85 8.26468C110.395 8.26468 109.101 8.60536 107.966 9.28674C106.83 9.96811 105.953 10.9387 105.334 12.1985C104.715 13.4583 104.406 14.8872 104.406 16.4853V16.897C104.406 19.2794 105.14 21.1862 106.609 22.6176ZM111.835 11.7059C110.99 11.7059 110.304 11.9902 109.779 12.5588C109.253 13.1274 108.916 13.9411 108.769 15H114.695V14.6617C114.675 13.7206 114.419 12.9926 113.928 12.4779C113.437 11.9632 112.739 11.7059 111.835 11.7059ZM128.073 12.4264C128.516 12.4264 129.027 12.4657 129.606 12.5441L129.665 8.45585C129.253 8.3284 128.81 8.26468 128.339 8.26468C126.825 8.26468 125.641 8.99506 124.786 10.4559L124.668 8.55879H120.644V24.4706H124.904V14.0588C125.405 12.9706 126.462 12.4264 128.073 12.4264ZM138.062 24.7647C135.723 24.7647 133.819 24.049 132.35 22.6176C130.881 21.1862 130.146 19.2794 130.146 16.897V16.4853C130.146 14.8872 130.456 13.4583 131.075 12.1985C131.694 10.9387 132.571 9.96811 133.706 9.28674C134.841 8.60536 136.136 8.26468 137.59 8.26468C139.772 8.26468 141.489 8.95094 142.742 10.3235C143.995 11.6961 144.622 13.6421 144.622 16.1617V17.897H134.465C134.603 18.9363 135.018 19.7696 135.711 20.397C136.404 21.0245 137.281 21.3382 138.342 21.3382C139.983 21.3382 141.266 20.7451 142.189 19.5588L144.282 21.897C143.644 22.799 142.779 23.5024 141.688 24.0073C140.597 24.5122 139.389 24.7647 138.062 24.7647ZM135.519 12.5588C136.045 11.9902 136.73 11.7059 137.576 11.7059C138.48 11.7059 139.177 11.9632 139.669 12.4779C140.16 12.9926 140.416 13.7206 140.435 14.6617V15H134.509C134.657 13.9411 134.993 13.1274 135.519 12.5588ZM150.763 20.1323C150.242 19.3382 149.982 18.1961 149.982 16.7059C149.982 13.3823 151.008 11.7206 153.062 11.7206C154.369 11.7206 155.288 12.2745 155.819 13.3823V19.6617C155.278 20.7696 154.35 21.3235 153.033 21.3235C152.04 21.3235 151.284 20.9264 150.763 20.1323ZM183.977 16.6617C183.977 19.2108 183.431 21.1985 182.341 22.625C181.25 24.0514 179.727 24.7647 177.771 24.7647C176.041 24.7647 174.661 24.1029 173.629 22.7794L173.437 24.4706H169.605V1.88232H173.865V9.98527C174.848 8.8382 176.14 8.26468 177.742 8.26468C179.687 8.26468 181.213 8.97791 182.319 10.4044C183.424 11.8309 183.977 13.8382 183.977 16.4264V16.6617ZM178.95 12.8309C179.461 13.5711 179.717 14.7451 179.717 16.3529C179.717 17.6764 179.614 18.6617 179.407 19.3088C178.975 20.6617 178.071 21.3382 176.695 21.3382C175.329 21.3382 174.386 20.7794 173.865 19.6617V13.3823C174.376 12.2745 175.309 11.7206 176.666 11.7206C177.678 11.7206 178.439 12.0907 178.95 12.8309ZM191.74 18.4559L194.688 8.55879H199.257L192.845 26.9411L192.491 27.7794C191.538 29.8578 189.966 30.897 187.774 30.897C187.155 30.897 186.526 30.8039 185.888 30.6176V27.397L186.536 27.4117C187.342 27.4117 187.944 27.2892 188.342 27.0441C188.74 26.799 189.052 26.3921 189.278 25.8235L189.779 24.5147L184.192 8.55879H188.777L191.74 18.4559ZM52.3219 52.7353C53.791 54.1666 55.695 54.8823 58.0338 54.8823C59.3605 54.8823 60.5692 54.6299 61.66 54.125C62.7508 53.6201 63.6156 52.9166 64.2544 52.0147L62.1612 49.6764C61.2375 50.8627 59.955 51.4559 58.3139 51.4559C57.2526 51.4559 56.3755 51.1421 55.6827 50.5147C54.9899 49.8872 54.5747 49.0539 54.4372 48.0147H64.5934V46.2794C64.5934 43.7598 63.9669 41.8137 62.714 40.4411C61.461 39.0686 59.7438 38.3823 57.5622 38.3823C56.1077 38.3823 54.813 38.723 53.678 39.4044C52.543 40.0858 51.6659 41.0563 51.0468 42.3161C50.4277 43.576 50.1182 45.0049 50.1182 46.6029V47.0147C50.1182 49.397 50.8527 51.3039 52.3219 52.7353ZM57.5474 41.8235C56.7023 41.8235 56.0168 42.1078 55.4911 42.6764C54.9654 43.2451 54.6288 44.0588 54.4814 45.1176H60.4071V44.7794C60.3874 43.8382 60.1319 43.1103 59.6406 42.5956C59.1492 42.0809 58.4515 41.8235 57.5474 41.8235ZM71.4569 38.6764V34.7647H67.1969V38.6764H64.8679V41.7941H67.1969V50.3676C67.2559 53.3774 68.779 54.8823 71.7665 54.8823C72.6509 54.8823 73.5108 54.7549 74.3461 54.5V51.2794C73.9825 51.348 73.5648 51.3823 73.0931 51.3823C72.4544 51.3823 72.022 51.2549 71.796 51C71.5699 50.7451 71.4569 50.3235 71.4569 49.7353V41.7941H74.1839V38.6764H71.4569ZM80.0598 40.4117C81.19 39.0588 82.6099 38.3823 84.3199 38.3823C87.779 38.3823 89.5331 40.3872 89.5822 44.397V54.5882H85.3222V44.5147C85.3222 43.6029 85.1257 42.9289 84.7326 42.4926C84.3395 42.0563 83.686 41.8382 82.7721 41.8382C81.5241 41.8382 80.62 42.3186 80.0598 43.2794V54.5882H75.7998V32H80.0598V40.4117ZM93.7704 52.7353C95.2395 54.1666 97.1435 54.8823 99.4823 54.8823C100.809 54.8823 102.018 54.6299 103.109 54.125C104.199 53.6201 105.064 52.9166 105.703 52.0147L103.61 49.6764C102.686 50.8627 101.404 51.4559 99.7624 51.4559C98.7011 51.4559 97.824 51.1421 97.1312 50.5147C96.4384 49.8872 96.0232 49.0539 95.8856 48.0147H106.042V46.2794C106.042 43.7598 105.415 41.8137 104.162 40.4411C102.91 39.0686 101.192 38.3823 99.0106 38.3823C97.5562 38.3823 96.2615 38.723 95.1265 39.4044C93.9915 40.0858 93.1144 41.0563 92.4953 42.3161C91.8762 43.576 91.5666 45.0049 91.5666 46.6029V47.0147C91.5666 49.397 92.3012 51.3039 93.7704 52.7353ZM98.9959 41.8235C98.1508 41.8235 97.4653 42.1078 96.9396 42.6764C96.4138 43.2451 96.0773 44.0588 95.9298 45.1176H101.856V44.7794C101.836 43.8382 101.58 43.1103 101.089 42.5956C100.598 42.0809 99.9 41.8235 98.9959 41.8235ZM115.234 42.5441C115.677 42.5441 116.188 42.5833 116.767 42.6617L116.826 38.5735C116.414 38.446 115.971 38.3823 115.5 38.3823C113.986 38.3823 112.802 39.1127 111.947 40.5735L111.829 38.6764H107.805V54.5882H112.065V44.1764C112.566 43.0882 113.623 42.5441 115.234 42.5441ZM125.223 54.8823C122.884 54.8823 120.98 54.1666 119.511 52.7353C118.042 51.3039 117.307 49.397 117.307 47.0147V46.6029C117.307 45.0049 117.617 43.576 118.236 42.3161C118.855 41.0563 119.732 40.0858 120.867 39.4044C122.002 38.723 123.297 38.3823 124.751 38.3823C126.933 38.3823 128.65 39.0686 129.903 40.4411C131.156 41.8137 131.782 43.7598 131.782 46.2794V48.0147H121.626C121.764 49.0539 122.179 49.8872 122.872 50.5147C123.565 51.1421 124.442 51.4559 125.503 51.4559C127.144 51.4559 128.427 50.8627 129.35 49.6764L131.443 52.0147C130.805 52.9166 129.94 53.6201 128.849 54.125C127.758 54.6299 126.55 54.8823 125.223 54.8823ZM122.68 42.6764C123.206 42.1078 123.891 41.8235 124.736 41.8235C125.641 41.8235 126.338 42.0809 126.83 42.5956C127.321 43.1103 127.577 43.8382 127.596 44.7794V45.1176H121.67C121.818 44.0588 122.154 43.2451 122.68 42.6764ZM143.098 52.9706C142.046 54.2451 140.592 54.8823 138.734 54.8823C137.025 54.8823 135.72 54.3921 134.821 53.4117C133.922 52.4313 133.462 50.9951 133.443 49.1029V38.6764H137.703V48.9559C137.703 50.6127 138.459 51.4411 139.973 51.4411C141.417 51.4411 142.41 50.9412 142.95 49.9411V38.6764H147.225V54.5882H143.216L143.098 52.9706ZM153.912 40.4559L153.779 38.6764H149.784V54.5882H154.044V43.3382C154.585 42.3382 155.459 41.8382 156.668 41.8382C157.543 41.8382 158.162 42.0441 158.525 42.4559C158.889 42.8676 159.071 43.5343 159.071 44.4559V54.5882H163.331L163.316 43.6617C163.807 42.446 164.692 41.8382 165.969 41.8382C166.864 41.8382 167.488 42.0465 167.841 42.4632C168.195 42.8799 168.372 43.5392 168.372 44.4411V54.5882H172.647V44.4264C172.647 42.4068 172.224 40.8946 171.379 39.8897C170.534 38.8848 169.247 38.3823 167.517 38.3823C165.444 38.3823 163.847 39.1911 162.727 40.8088C161.96 39.1911 160.55 38.3823 158.496 38.3823C156.57 38.3823 155.042 39.0735 153.912 40.4559Z" fill="#000000"/>
</svg>
