<svg viewBox="0 0 156 28" fill="none" xmlns="http://www.w3.org/2000/svg">
<path fill-rule="evenodd" clip-rule="evenodd" d="M17.4125 9.72C16.9376 9.29333 16.344 8.96667 15.6317 8.74C14.9193 8.51333 14.2202 8.4 13.5342 8.4C12.7691 8.4 12.07 8.54 11.4368 8.82C10.8036 9.1 10.2562 9.48666 9.79452 9.98C9.33282 10.4733 8.97007 11.0667 8.70624 11.76C8.44241 12.4533 8.3105 13.2 8.3105 14C8.3105 14.8 8.4556 15.5467 8.74581 16.24C9.03602 16.9333 9.43176 17.5267 9.93303 18.02C10.4343 18.5133 11.0213 18.9 11.6941 19.18C12.3668 19.46 13.0857 19.6 13.8508 19.6C14.7478 19.6 15.5657 19.4067 16.3044 19.02C17.0431 18.6333 17.6763 18.1067 18.204 17.44H12.5593L16.3956 11.84H26V20.72C25.3932 21.8133 24.6677 22.8067 23.8234 23.7C22.9792 24.5933 22.036 25.36 20.9939 26C19.9518 26.64 18.824 27.1333 17.6103 27.48C16.3967 27.8267 15.1436 28 13.8508 28C11.9513 28 10.1573 27.64 8.4688 26.92C6.78031 26.2 5.30949 25.2133 4.05632 23.96C2.80314 22.7067 1.8138 21.2267 1.08828 19.52C0.362756 17.8133 0 15.9733 0 14C0 12.08 0.34297 10.2667 1.02892 8.56C1.71487 6.85333 2.65804 5.36667 3.85845 4.1C5.05886 2.83333 6.4835 1.83334 8.13242 1.1C9.78134 0.366663 11.5555 0 13.4551 0C14.9325 0 16.2121 0.146665 17.2938 0.44C18.3755 0.733335 19.2856 1.06666 20.0244 1.44C20.895 1.86667 21.6205 2.33333 22.2009 2.84L17.4125 9.72ZM35.8769 0H42.1231L52 27H43.8018L39.0342 12.1205L34.1982 27H26L35.8769 0ZM53 0H61.5194V19.916H70L67.4827 27H53V0ZM78.8769 0H85.1231L95 27H86.8018L82.0342 12.1205L77.1982 27H69L78.8769 0ZM103.439 13.0345L96.509 0H105.631L107.98 4.41229L110.33 0H119.491L112.561 13.0345L120 27H110.878L107.98 21.6162L105.122 27H96L103.439 13.0345ZM120 0H129V27H120V0ZM139.877 0H146.123L156 27H147.802L143.034 12.1205L138.198 27H130L139.877 0Z" fill="white"/>
</svg>
