<svg width="50" height="40" viewBox="0 0 50 40" fill="none" xmlns="http://www.w3.org/2000/svg">
<path fill-rule="evenodd" clip-rule="evenodd" d="M5.92917 8.09792C5.99167 7.48333 5.75625 6.87708 5.29792 6.46458L0.63125 0.839583V0H15.1271L26.3312 24.5729L36.1813 0H50V0.839583L46.0083 4.66667C45.6646 4.92917 45.4937 5.36042 45.5646 5.7875V33.9083C45.4937 34.3333 45.6646 34.7646 46.0083 35.0271L49.9062 38.8542V39.6937H30.2979V38.8542L34.3375 34.9333C34.7333 34.5375 34.7333 34.4208 34.7333 33.8146V11.0854L23.5063 39.6021H21.9896L8.91667 11.0854V30.1979C8.80833 31 9.075 31.8104 9.63958 32.3896L14.8917 38.7604V39.6021H0V38.7604L5.25208 32.3896C5.81458 31.8083 6.06458 30.9937 5.92917 30.1979V8.09792Z" fill="white"/>
</svg>
