<svg width="23" height="25" viewBox="0 0 23 25" fill="none" xmlns="http://www.w3.org/2000/svg">
<path fill-rule="evenodd" clip-rule="evenodd" d="M1.33481 10.5979C2.24463 7.36247 4.79599 4.67259 8.28786 3.73695C13.5475 2.32764 18.9492 5.43199 20.3529 10.6707C21.7566 15.9094 18.6308 21.2987 13.3711 22.708C10.5453 23.4652 7.67852 22.9195 5.41274 21.4399C7.21599 22.2762 9.33808 22.5061 11.4411 21.9426C16.0796 20.6997 18.8687 16.0676 17.6707 11.5966C16.4727 7.12547 11.7412 4.50851 7.10264 5.7514C4.42934 6.46771 2.37033 8.30973 1.33481 10.5979Z" fill="#000000"/>
<path fill-rule="evenodd" clip-rule="evenodd" d="M5.60938 10.3496H7.96694L9.63449 13.8643L11.2925 10.3496H13.65L13.65 17.0813H11.7046L11.7046 13.3938L10.3533 16.4283H8.90614L7.55485 13.3938L7.55485 17.0813H5.60937L5.60938 10.3496Z" fill="#000000"/>
</svg>
