<svg width="50" height="41" viewBox="0 0 50 41" fill="none" xmlns="http://www.w3.org/2000/svg">
<path fill-rule="evenodd" clip-rule="evenodd" d="M44.8605 10.1205C44.8923 10.5647 44.8923 11.0089 44.8923 11.4531C44.8923 25 34.5814 40.6092 15.7361 40.6092C9.93021 40.6092 4.53683 38.9277 0 36.009C0.824906 36.1041 1.61798 36.1359 2.47462 36.1359C7.26517 36.1359 11.6751 34.5179 15.1967 31.7577C10.6916 31.6625 6.91624 28.712 5.61545 24.6511C6.25002 24.7462 6.8845 24.8097 7.55081 24.8097C8.47083 24.8097 9.39095 24.6827 10.2475 24.4607C5.55207 23.5089 2.03038 19.3845 2.03038 14.4036V14.2767C3.39454 15.0381 4.98098 15.514 6.66233 15.5774C3.90216 13.7373 2.09386 10.5964 2.09386 7.04309C2.09386 5.13957 2.60138 3.39464 3.48976 1.87178C8.53421 8.09007 16.1168 12.1509 24.6192 12.5952C24.4606 11.8337 24.3654 11.0407 24.3654 10.2475C24.3654 4.60021 28.934 0 34.6129 0C37.5634 0 40.2284 1.23731 42.1003 3.23605C44.4162 2.79191 46.637 1.93526 48.6041 0.761429C47.8426 3.14093 46.2246 5.13967 44.099 6.40862C46.1612 6.18665 48.16 5.61545 50 4.82238C48.6043 6.85276 46.8593 8.66107 44.8605 10.1205Z" fill="#000000"/>
</svg>
