<svg width="1401" height="2033" viewBox="0 0 1401 2033" fill="none" xmlns="http://www.w3.org/2000/svg">
<path d="M463.516 1241C584.859 1429 1423.17 1070.08 1397.42 1439.4C1371.68 1808.72 917.561 1859.52 519.995 1751.82C122.428 1644.12 -159.379 2030 -159.379 2030" stroke="black" stroke-opacity="0.1" stroke-width="6" stroke-linecap="round" stroke-linejoin="round" stroke-dasharray="12 24"/>
<path d="M380.671 301C297.019 301 93.3271 430.596 221.003 600.689C348.679 770.782 1142.15 451.704 1116.39 821.189C1104.54 991.092 925.825 1018.07 753.662 1031.35C551.426 1046.96 358.234 1043.68 455.19 1231" stroke="black" stroke-opacity="0.1" stroke-width="6" stroke-linecap="round" stroke-linejoin="round" stroke-dasharray="12 24"/>
<path fill-rule="evenodd" clip-rule="evenodd" d="M308 1126C324.569 1126 338 1112.57 338 1096C338 1079.43 324.569 1066 308 1066C291.431 1066 278 1079.43 278 1096C278 1112.57 291.431 1126 308 1126Z" stroke="black" stroke-opacity="0.1" stroke-width="7" stroke-linecap="round" stroke-linejoin="round" stroke-dasharray="6 24"/>
<path fill-rule="evenodd" clip-rule="evenodd" d="M307 64C323.569 64 337 50.5685 337 34C337 17.4315 323.569 4 307 4C290.431 4 277 17.4315 277 34C277 50.5685 290.431 64 307 64Z" stroke="black" stroke-opacity="0.1" stroke-width="7" stroke-linecap="round" stroke-linejoin="round" stroke-dasharray="6 24"/>
<path fill-rule="evenodd" clip-rule="evenodd" d="M108 753C116.284 753 123 746.284 123 738C123 729.716 116.284 723 108 723C99.7157 723 93 729.716 93 738C93 746.284 99.7157 753 108 753Z" stroke="black" stroke-opacity="0.1" stroke-width="7" stroke-linecap="round" stroke-linejoin="round" stroke-dasharray="6 24"/>
<path fill-rule="evenodd" clip-rule="evenodd" d="M1281 424C1289.28 424 1296 417.284 1296 409C1296 400.716 1289.28 394 1281 394C1272.72 394 1266 400.716 1266 409C1266 417.284 1272.72 424 1281 424Z" stroke="black" stroke-opacity="0.1" stroke-width="7" stroke-linecap="round" stroke-linejoin="round" stroke-dasharray="6 24"/>
</svg>
