<svg width="27" height="16" viewBox="0 0 27 16" fill="none" xmlns="http://www.w3.org/2000/svg">
<path fill-rule="evenodd" clip-rule="evenodd" d="M16.5412 8.1855C16.5412 7.66167 16.4837 7.25783 16.4031 6.854V6.85396H8.4375V9.60433H13.226C13.0304 10.7722 11.7756 13.0532 8.4375 13.0532C5.55978 13.0532 3.21152 10.794 3.21152 8C3.21152 5.206 5.55978 2.94679 8.4375 2.94679C10.0836 2.94679 11.1771 3.61254 11.7987 4.18008L14.0894 2.0955C12.616 0.785792 10.7167 0 8.4375 0C3.77561 0 0 3.57979 0 8C0 12.4202 3.77561 16 8.4375 16C13.3066 16 16.5412 12.7585 16.5412 8.1855ZM24.5508 4.8V7.12221H27V9.45558H24.5508V11.7778H22.0898V9.45558H19.6406V7.12221H22.0898V4.8H24.5508Z" fill="#333333"/>
</svg>
