<svg width="170" height="170" viewBox="0 0 170 170" fill="none" xmlns="http://www.w3.org/2000/svg">
<path fill-rule="evenodd" clip-rule="evenodd" d="M85 163.5C73.6789 163.5 72.1703 172.131 62.3578 169.502C52.5454 166.872 55.5544 158.644 45.75 152.983C35.9457 147.322 30.3237 154.043 23.1405 146.86C15.9572 139.676 22.6776 134.054 17.017 124.25C11.3565 114.446 3.12759 117.455 0.49834 107.642C-2.13091 97.8297 6.50003 96.3211 6.50003 85C6.50003 73.6789 -2.13091 72.1703 0.49834 62.3578C3.12759 52.5454 11.3565 55.5544 17.017 45.75C22.6776 35.9457 15.9572 30.3237 23.1405 23.1405C30.3237 15.9572 35.9457 22.6776 45.75 17.017C55.5544 11.3565 52.5454 3.12759 62.3578 0.49834C72.1703 -2.13091 73.6789 6.50003 85 6.50003C96.3211 6.50003 97.8297 -2.13091 107.642 0.49834C117.455 3.12759 114.446 11.3565 124.25 17.017C134.054 22.6776 139.676 15.9572 146.86 23.1405C154.043 30.3237 147.322 35.9457 152.983 45.75C158.644 55.5544 166.872 52.5454 169.502 62.3578C172.131 72.1703 163.5 73.6789 163.5 85C163.5 96.3211 172.131 97.8297 169.502 107.642C166.872 117.455 158.644 114.446 152.983 124.25C147.322 134.054 154.043 139.676 146.86 146.86C139.676 154.043 134.054 147.322 124.25 152.983C114.446 158.644 117.455 166.872 107.642 169.502C97.8297 172.131 96.3211 163.5 85 163.5ZM12.7962 86C12.7962 45.6832 45.4795 13 85.7962 13C126.113 13 158.796 45.6832 158.796 86C158.796 126.317 126.113 159 85.7962 159C45.4795 159 12.7962 126.317 12.7962 86ZM85.7962 19C48.7932 19 18.7962 48.9969 18.7962 86C18.7962 123.003 48.7932 153 85.7962 153C122.799 153 152.796 123.003 152.796 86C152.796 48.9969 122.799 19 85.7962 19Z" fill="#00B67A"/>
</svg>
