<svg width="15" height="15" viewBox="0 0 15 15" fill="none" xmlns="http://www.w3.org/2000/svg">
<path d="M14.4551 0.721005L11.4083 0.0178946C11.0772 -0.0582757 10.7374 0.114572 10.6026 0.425113L9.19641 3.70629C9.07336 3.9934 9.15539 4.3303 9.39855 4.52659L11.1739 5.97968C10.1192 8.22671 8.2765 10.0958 5.98261 11.171L4.52951 9.39563C4.3303 9.15247 3.99632 9.07044 3.70921 9.19348L0.428031 10.5997C0.114561 10.7374 -0.0582874 11.0772 0.0178829 11.4083L0.720994 14.4551C0.794234 14.7715 1.07548 15 1.40653 15C8.9093 15 15 8.92103 15 1.40654C15 1.07842 14.7744 0.794245 14.4551 0.721005Z" fill="#333"/>
</svg>
