<svg width="1074" height="799" viewBox="0 0 1074 799" fill="none" xmlns="http://www.w3.org/2000/svg">
<path d="M84.5 63C193.921 597.595 578.295 442.717 777.024 319.868C908.59 238.538 1070.5 309.122 1070.5 403C1070.5 866.544 412.197 445.19 121.377 657" stroke="black" stroke-opacity="0.1" stroke-width="6" stroke-linecap="round" stroke-linejoin="round" stroke-dasharray="12 24"/>
<path fill-rule="evenodd" clip-rule="evenodd" d="M34 558C50.5685 558 64 544.569 64 528C64 511.431 50.5685 498 34 498C17.4315 498 4 511.431 4 528C4 544.569 17.4315 558 34 558Z" stroke="black" stroke-opacity="0.1" stroke-width="7" stroke-linecap="round" stroke-linejoin="round" stroke-dasharray="6 24"/>
<path fill-rule="evenodd" clip-rule="evenodd" d="M110 440C118.284 440 125 433.284 125 425C125 416.716 118.284 410 110 410C101.716 410 95 416.716 95 425C95 433.284 101.716 440 110 440Z" stroke="black" stroke-opacity="0.1" stroke-width="7" stroke-linecap="round" stroke-linejoin="round" stroke-dasharray="6 24"/>
<path fill-rule="evenodd" clip-rule="evenodd" d="M946 88C969.196 88 988 69.196 988 46C988 22.804 969.196 4 946 4C922.804 4 904 22.804 904 46C904 69.196 922.804 88 946 88Z" stroke="black" stroke-opacity="0.1" stroke-width="7" stroke-linecap="round" stroke-linejoin="round" stroke-dasharray="6 24"/>
<path fill-rule="evenodd" clip-rule="evenodd" d="M935.5 795.5C941.299 795.5 946 790.799 946 785C946 779.201 941.299 774.5 935.5 774.5C929.701 774.5 925 779.201 925 785C925 790.799 929.701 795.5 935.5 795.5Z" stroke="black" stroke-opacity="0.1" stroke-width="7" stroke-linecap="round" stroke-linejoin="round" stroke-dasharray="6 24"/>
</svg>
