<svg width="14" height="12" viewBox="0 0 14 12" fill="none" xmlns="http://www.w3.org/2000/svg">
<path d="M10.5987 7.4233C10.5987 7.28781 10.4933 7.18243 10.3578 7.18243H9.87603C9.74053 7.18243 9.63515 7.28781 9.63515 7.4233V9.83209C9.63515 10.4945 9.09317 11.0365 8.43076 11.0365H2.16791C1.50549 11.0365 0.963515 10.4945 0.963515 9.83209V3.56924C0.963515 2.90683 1.50549 2.36485 2.16791 2.36485H7.46724C7.60273 2.36485 7.70812 2.25947 7.70812 2.12397V1.64221C7.70812 1.50672 7.60273 1.40134 7.46724 1.40134H2.16791C0.971042 1.40134 0 2.37238 0 3.56924V9.83209C0 11.029 0.971042 12 2.16791 12H8.43076C9.62762 12 10.5987 11.029 10.5987 9.83209V7.4233ZM13.4892 0.919579C13.4892 0.656118 13.2709 0.437821 13.0075 0.437821H9.15339C8.88993 0.437821 8.67163 0.656118 8.67163 0.919579C8.67163 1.04755 8.72433 1.16798 8.81466 1.25831L10.1395 2.58315L5.23159 7.49105C5.18642 7.53622 5.15631 7.60396 5.15631 7.66418C5.15631 7.7244 5.18642 7.79215 5.23159 7.83731L6.08972 8.69545C6.13488 8.74061 6.20263 8.77072 6.26285 8.77072C6.32307 8.77072 6.39081 8.74061 6.43598 8.69545L11.3439 3.78754L12.6687 5.11237C12.759 5.2027 12.8795 5.2554 13.0075 5.2554C13.2709 5.2554 13.4892 5.0371 13.4892 4.77364V0.919579Z" fill="#9B9B9B"/>
</svg>
