<svg xmlns="http://www.w3.org/2000/svg" width="255.571" height="77.383" viewBox="0 0 255.571 77.383">
  <g id="Royce-Investment-Partners-color_Copy" data-name="Royce-Investment-Partners-color Copy" transform="translate(-0.429)">
    <path id="Shape" d="M27.843,54a31.034,31.034,0,0,1-11.674-2.158,25.754,25.754,0,0,1-8.757-5.8,25.317,25.317,0,0,1-5.5-8.432A26.953,26.953,0,0,1,0,27.556,27.429,27.429,0,0,1,7.9,7.937a26.555,26.555,0,0,1,8.818-5.822A29.418,29.418,0,0,1,27.843,0c8.439,0,15.485,2.845,20.378,8.226A27.391,27.391,0,0,1,55,26.786,27.112,27.112,0,0,1,47.094,46.3,27.153,27.153,0,0,1,27.843,54ZM26.555,2.31A18.685,18.685,0,0,0,20.17,3.448a17.394,17.394,0,0,0-6.087,3.794,19.086,19.086,0,0,0-4.556,7.019A30.251,30.251,0,0,0,7.735,25.075a33.514,33.514,0,0,0,4.78,17.714,19.7,19.7,0,0,0,6.567,6.451,19.254,19.254,0,0,0,9.879,2.535A17.1,17.1,0,0,0,41.669,46.3c3.718-4.015,5.683-9.9,5.683-17.03,0-7.079-1.69-13.587-4.759-18.325a18.85,18.85,0,0,0-6.444-6.238A19.071,19.071,0,0,0,26.555,2.31Z" transform="translate(61)"/>
    <path id="Shape-2" data-name="Shape" d="M26.571,40.178c0,8.4,1.2,9.595,5.486,9.852h1.971V52h-21V50.03H15c4.543-.514,5.057-1.456,5.057-9.852V36.152c0-4.283-.257-5.311-2.486-9.766L8.314,8.31c-2.657-5.226-3.857-5.568-6.171-6L0,1.97V0H18V1.97l-1.2.171c-2.743.428-3.343.771-3.343,1.456,0,.771,2.057,5.226,2.4,6.082,2.914,5.825,5.829,11.993,8.914,17.476,2.4-4.2,5.057-8.738,7.371-13.278,2.229-4.112,5.143-9.423,5.143-10.366,0-.514-1.457-1.028-3.343-1.285l-1.971-.086V0H48V1.97l-2.486.343C41.4,3,39.086,7.967,35.143,14.735L30.171,23.3c-3.429,6-3.686,6.682-3.686,12.764l.086,4.112Z" transform="translate(114 1)"/>
    <path id="Shape-3" data-name="Shape" d="M9.948,6.6C15.744,2.143,23.01,0,31.228,0c4.239,0,15.657,1.971,15.657,1.971.433,1.714,1.557,7.114,2.163,11.829h-1.99C45.848,8.486,41.609,2.4,30.19,2.4,18.166,2.4,7.872,9.943,7.872,26.143,7.872,42.514,18.339,51.6,31.315,51.6c10.208,0,14.879-7.114,16.7-11.743H50c-.519,4.029-2.855,10.029-4.066,11.486l-2.682.857A48.076,48.076,0,0,1,30.8,54c-7.093,0-13.841-1.371-19.637-5.229A25.073,25.073,0,0,1,0,27.257,25.9,25.9,0,0,1,9.948,6.6Z" transform="translate(159)"/>
    <path id="Shape-4" data-name="Shape" d="M7.1,13.015c0-8.134.427-10.36-4.189-10.96l-.769-.086V0H36.076a111.149,111.149,0,0,1,1.966,10.96H36.076a8.786,8.786,0,0,0-6.5-8.477,33.092,33.092,0,0,0-7.523-.514H16.072c-1.966,0-1.966,2.055-1.966,4.966V21.919c0,2.226.684,1.969,2.992,1.969h10c1.026,0,2.992-.171,2.992-1.969v-3h1.966V31.937H30.091V29.968a3.031,3.031,0,0,0-2.992-3h-10c-2.394,0-2.992.942-2.992,3V41.013c0,4.2.256,6.422,1.539,7.792.94.942,2.565,2.226,9.489,2.226,6.07,0,8.292-1.113,10-1.969,1.453-.771,3.932-2.911,5.9-7.021H43A63.392,63.392,0,0,1,38.982,53H0V51.031H2.736c4.445-.428,4.274-1.8,4.274-10.018l.085-28Z" transform="translate(213 1)"/>
    <g id="Group" transform="translate(0 1)">
      <path id="Shape-5" data-name="Shape" d="M18,57.982V7.173c0-3.16.514-3.587,7.543-3.587,12.6,0,18.086,8.454,18.086,17.335,0,7.685-2.571,11.613-5.657,14-3.257,2.476-7.886,3.16-12,3.16H21v2.9h4.971a42.4,42.4,0,0,0,7.971-.854c10.371-2.22,19.971-10.247,19.971-21.007,0-7.856-3.943-12.98-9.429-15.8C39.257.512,32.571,0,25.629,0H0V1.964H1.971C9,1.964,9,6.234,9,16.908v40.9c0,11.87-.429,14-7.029,14H0v3.33H27.171L27,71.9H25.029C18.514,71.9,18,69.766,18,57.982Z" transform="translate(0.429)"/>
      <path id="Shape-6" data-name="Shape" d="M40.029,32.962a14.3,14.3,0,0,1-7.971-3.245C24.429,23.312,18.943,14.346,9.943,0A27.15,27.15,0,0,1,5.4,1.964,33.835,33.835,0,0,1,0,3.074a5.991,5.991,0,0,1,.514.769C4.029,8.881,8.657,16.652,11.571,20.836c8.057,11.357,13.8,14.09,23.4,14.09a17.952,17.952,0,0,0,4.971-.512Z" transform="translate(31.457 40.989)"/>
    </g>
    <g id="Group-2" data-name="Group" transform="translate(83 63)">
      <path id="Shape-7" data-name="Shape" d="M0,13.412V0H1.971V13.412Z" transform="translate(0.343 0.618)" fill="#46747a"/>
      <path id="Shape-8" data-name="Shape" d="M3.686,9.794,0,0H2.057L4.714,7.324,7.371,0H9.514L5.829,9.794Z" transform="translate(14.571 4.235)" fill="#46747a"/>
      <path id="Shape-9" data-name="Shape" d="M4.714,10.412A4.7,4.7,0,0,1,1.328,8.89,5.515,5.515,0,0,1,0,5.117,5.45,5.45,0,0,1,1.286,1.5,4.387,4.387,0,0,1,4.629,0,4.04,4.04,0,0,1,7.885,1.533a6.142,6.142,0,0,1,1.2,3.849v.53H2.057a3.255,3.255,0,0,0,.878,1.93,2.8,2.8,0,0,0,2.036.805A3.6,3.6,0,0,0,7.543,7.588L8.4,9A4.8,4.8,0,0,1,4.714,10.412ZM4.543,1.765A2.6,2.6,0,0,0,1.971,4.324H7.029A2.44,2.44,0,0,0,6.4,2.51,2.457,2.457,0,0,0,4.543,1.765Z" transform="translate(24.514 3.971)" fill="#46747a"/>
      <path id="Shape-10" data-name="Shape" d="M1.457,9.971V4.324H0V2.471H1.457V0H3.429V2.471H4.971V4.324H3.429V9.441c0,.706.343,1.147.857,1.147a1.127,1.127,0,0,0,.857-.353l.429,1.588a2.541,2.541,0,0,1-1.886.618A2.159,2.159,0,0,1,1.457,9.971Z" transform="translate(43.971 1.765)" fill="#46747a"/>
      <path id="Shape-11" data-name="Shape" d="M1.457,9.971V4.324H0V2.471H1.457V0H3.429V2.471H4.971V4.324H3.429V9.441c0,.706.343,1.147.857,1.147a1.127,1.127,0,0,0,.857-.353l.429,1.588a2.541,2.541,0,0,1-1.886.618A2.159,2.159,0,0,1,1.457,9.971Z" transform="translate(87 1.765)" fill="#46747a"/>
      <path id="Shape-12" data-name="Shape" d="M1.543,10.147V4.5H0V2.647H1.543V0H3.514V2.647H5.057V4.5H3.514V9.618c0,.706.343,1.147.857,1.147a1.127,1.127,0,0,0,.857-.353L5.657,12a2.541,2.541,0,0,1-1.886.618A2.2,2.2,0,0,1,1.543,10.147Z" transform="translate(126.943 1.588)" fill="#46747a"/>
      <path id="Shape-13" data-name="Shape" d="M11.057,10.059V3.706c0-1.059-.343-1.765-1.371-1.765A2.648,2.648,0,0,0,7.629,3.265v6.882H5.657V3.794c0-1.059-.429-1.765-1.457-1.765A2.8,2.8,0,0,0,2.143,3.353v6.882H0V.265H1.971V1.588A3.683,3.683,0,0,1,4.886,0,2.392,2.392,0,0,1,7.371,1.765,3.746,3.746,0,0,1,10.457,0c1.629,0,2.571.971,2.571,3v7.059Z" transform="translate(51.429 3.971)" fill="#46747a"/>
      <path id="Shape-14" data-name="Shape" d="M4.714,10.412A4.707,4.707,0,0,1,1.361,8.89,5.474,5.474,0,0,1,0,5.117,5.45,5.45,0,0,1,1.286,1.5,4.387,4.387,0,0,1,4.629,0,4.04,4.04,0,0,1,7.885,1.533a6.142,6.142,0,0,1,1.2,3.849v.53H2.057a3.255,3.255,0,0,0,.878,1.93,2.8,2.8,0,0,0,2.036.805A3.6,3.6,0,0,0,7.543,7.588L8.4,9A4.8,4.8,0,0,1,4.714,10.412ZM4.629,1.765A2.6,2.6,0,0,0,2.057,4.324H7.115a2.777,2.777,0,0,0-.568-1.71A2.353,2.353,0,0,0,4.629,1.765Z" transform="translate(66.257 3.971)" fill="#46747a"/>
      <path id="Shape-15" data-name="Shape" d="M6,10.059V3.971c0-1.5-.6-2.029-1.714-2.029A2.767,2.767,0,0,0,1.971,3.265v6.882H0V.265H1.971V1.588A4.013,4.013,0,0,1,5.143,0C7.114,0,7.971,1.147,7.971,3.176v6.882Z" transform="translate(77.486 3.971)" fill="#46747a"/>
      <path id="Shape-16" data-name="Shape" d="M2.057,13.325H0V0H5.485A4.1,4.1,0,0,1,8.54,1.169,4.078,4.078,0,0,1,9.6,4.059,4.271,4.271,0,0,1,8.54,6.993,4.034,4.034,0,0,1,5.485,8.206H2.057v5.117ZM1.971,2.03V6.177h3A2.126,2.126,0,0,0,7.286,4.059,2.047,2.047,0,0,0,4.972,2.03Z" transform="translate(99.514 0.618)" fill="#46747a"/>
      <path id="Shape-17" data-name="Shape" d="M3.172,10.412a3.257,3.257,0,0,1-2.132-.805A3.156,3.156,0,0,1,0,7.147,3.08,3.08,0,0,1,1.007,4.7a3.339,3.339,0,0,1,2.164-.728A3.762,3.762,0,0,1,6.086,5.206v-1.5A1.886,1.886,0,0,0,3.943,1.853,3.609,3.609,0,0,0,1.286,3.088l-.772-1.5A5.212,5.212,0,0,1,4.286,0,4.187,4.187,0,0,1,6.91.772,3.317,3.317,0,0,1,8.057,3.53v6.529l-1.971.089V9.088A3.845,3.845,0,0,1,3.172,10.412Zm.771-5.03A1.815,1.815,0,0,0,1.971,7.147,1.815,1.815,0,0,0,3.943,8.912a2.634,2.634,0,0,0,2.143-.97v-1.5A2.47,2.47,0,0,0,3.943,5.382Z" transform="translate(109.8 3.882)" fill="#46747a"/>
      <path id="Shape-18" data-name="Shape" d="M0,10.059V.265H1.971V1.676A3.791,3.791,0,0,1,4.971,0V2.118c-.171,0-.429-.088-.686-.088A3.025,3.025,0,0,0,1.971,3.353v6.706Z" transform="translate(120.514 3.971)" fill="#46747a"/>
      <path id="Shape-19" data-name="Shape" d="M6.086,10.059V3.971c0-1.5-.686-2.029-1.8-2.029A2.767,2.767,0,0,0,1.971,3.265v6.882H0V.265H1.971V1.588A4.153,4.153,0,0,1,5.143,0C7.114,0,8.057,1.147,8.057,3.176v6.882Z" transform="translate(134.486 3.971)" fill="#46747a"/>
      <path id="Shape-20" data-name="Shape" d="M4.714,10.412A4.7,4.7,0,0,1,1.328,8.89,5.515,5.515,0,0,1,0,5.117,5.45,5.45,0,0,1,1.286,1.5,4.387,4.387,0,0,1,4.629,0,4.04,4.04,0,0,1,7.885,1.533a6.142,6.142,0,0,1,1.2,3.849v.53H2.057a3.255,3.255,0,0,0,.878,1.93,2.8,2.8,0,0,0,2.036.805A3.6,3.6,0,0,0,7.543,7.588L8.4,9A4.8,4.8,0,0,1,4.714,10.412ZM4.543,1.765A2.6,2.6,0,0,0,1.971,4.324H7.029a2.777,2.777,0,0,0-.568-1.71A2.353,2.353,0,0,0,4.543,1.765Z" transform="translate(143.914 3.971)" fill="#46747a"/>
      <path id="Shape-21" data-name="Shape" d="M0,10.059V.265H1.971V1.676A3.791,3.791,0,0,1,4.971,0V2.118c-.171,0-.429-.088-.686-.088A3.025,3.025,0,0,0,1.971,3.353v6.706Z" transform="translate(154.543 3.971)" fill="#46747a"/>
      <path id="Shape-22" data-name="Shape" d="M0,8.735l.857-1.5A4.46,4.46,0,0,0,3.943,8.647c1.2,0,1.8-.529,1.8-1.324C5.743,5.382.257,6.794.257,3c0-1.588,1.286-3,3.6-3A4.983,4.983,0,0,1,7.371,1.412l-.857,1.5A3.3,3.3,0,0,0,3.857,1.765c-1.029,0-1.714.529-1.714,1.235,0,1.765,5.486.441,5.486,4.324,0,1.765-1.371,3.088-3.771,3.088A5.588,5.588,0,0,1,0,8.735Z" transform="translate(160.2 3.971)" fill="#46747a"/>
      <path id="Shape-23" data-name="Shape" d="M6.086,10.059V3.971c0-1.5-.686-2.029-1.8-2.029A2.89,2.89,0,0,0,1.971,3.265v6.882H0V.265H1.971V1.588A4.013,4.013,0,0,1,5.143,0C7.114,0,8.057,1.147,8.057,3.176v6.882Z" transform="translate(5.4 3.971)" fill="#46747a"/>
      <path id="Shape-24" data-name="Shape" d="M0,8.735l.857-1.5A4.46,4.46,0,0,0,3.943,8.647c1.2,0,1.8-.529,1.8-1.324C5.743,5.382.257,6.794.257,3c0-1.588,1.286-3,3.6-3A4.983,4.983,0,0,1,7.371,1.412l-.857,1.5A3.3,3.3,0,0,0,3.857,1.765c-1.029,0-1.714.529-1.714,1.235,0,1.765,5.486.441,5.486,4.324,0,1.765-1.371,3.088-3.771,3.088A5.429,5.429,0,0,1,0,8.735Z" transform="translate(35.143 3.971)" fill="#46747a"/>
    </g>
  </g>
</svg>
