<svg width="18" height="17" viewBox="0 0 18 17" fill="none" xmlns="http://www.w3.org/2000/svg">
<path d="M3.89509 5.83259H0.212054V16.8929H3.89509V5.83259ZM4.12946 2.41741C4.1183 1.33482 3.33705 0.508928 2.07589 0.508928C0.825893 0.508928 0 1.33482 0 2.41741C0 3.47768 0.792411 4.32589 2.03125 4.32589H2.05357C3.33705 4.32589 4.14063 3.47768 4.12946 2.41741ZM17.1429 10.5536C17.1429 7.16071 15.3348 5.57589 12.9129 5.57589C10.9263 5.57589 10.0558 6.6808 9.57589 7.43973H9.59821V5.83259H5.92634C5.92634 5.83259 5.97098 6.87054 5.92634 16.8929H9.59821V10.721C9.59821 10.3862 9.6317 10.0625 9.72098 9.81696C9.98884 9.15848 10.5915 8.47768 11.6071 8.47768C12.9353 8.47768 13.471 9.4933 13.471 10.9777V16.8929H17.1429V10.5536Z" fill="#777777"/>
</svg>
