<?xml version="1.0" encoding="UTF-8"?>
<svg width="25px" height="15px" viewBox="0 0 25 15" version="1.1" xmlns="http://www.w3.org/2000/svg" xmlns:xlink="http://www.w3.org/1999/xlink">
    <!-- Generator: Sketch 52.5 (67469) - http://www.bohemiancoding.com/sketch -->
    <title>right-arrow copy 2</title>
    <desc>Created with Sketch.</desc>
    <g id="Desktop" stroke="none" stroke-width="1" fill="none" fill-rule="evenodd">
        <g id="Homepage-Copy" transform="translate(-1330.000000, -4917.000000)" fill="#FFA300" fill-rule="nonzero">
            <g id="Group-25" transform="translate(1010.000000, 4841.000000)">
                <g id="Group-24" transform="translate(31.000000, 28.000000)">
                    <g id="right-arrow-copy-2" transform="translate(301.589888, 55.083333) rotate(-360.000000) translate(-301.589888, -55.083333) translate(289.000000, 48.000000)">
                        <path d="M17.9755006,0.213056634 C17.720056,-0.0710188782 17.2949104,-0.0710188782 17.0305342,0.213056634 C16.7750895,0.487535001 16.7750895,0.944359136 17.0305342,1.21819769 L21.8220559,6.36674645 L0.661536054,6.35913272 C0.292957461,6.35977253 0,6.67455891 0,7.07060112 C0,7.46664333 0.292957461,7.79166667 0.661536054,7.79166667 L21.8220559,7.7992804 L17.0305342,12.938232 C16.7750895,13.2223075 16.7750895,13.6797715 17.0305342,13.95361 C17.2949104,14.2376855 17.7206514,14.2376855 17.9755006,13.95361 L23.9013393,7.58622377 C24.1657156,7.3117454 24.1657156,6.85492127 23.9013393,6.58108271 L17.9755006,0.213056634 Z" id="Shape"></path>
                    </g>
                </g>
            </g>
        </g>
        <g id="001-favorite-heart-button"></g>
    </g>
</svg>