<?xml version="1.0" encoding="UTF-8"?>
<svg width="22px" height="22px" viewBox="0 0 22 22" version="1.1" xmlns="http://www.w3.org/2000/svg" xmlns:xlink="http://www.w3.org/1999/xlink">
    <!-- Generator: Sketch 52.5 (67469) - http://www.bohemiancoding.com/sketch -->
    <title>001-discord</title>
    <desc>Created with Sketch.</desc>
    <defs>
        <polygon id="path-1" points="0.002578125 0 22 0 22 22 0.002578125 22"></polygon>
    </defs>
    <g id="Desktop" stroke="none" stroke-width="1" fill="none" fill-rule="evenodd">
        <g id="Homepage-Copy" transform="translate(-692.000000, -6245.000000)">
            <g id="001-discord" transform="translate(692.000000, 6245.000000)">
                <g id="Group-3">
                    <mask id="mask-2" fill="white">
                        <use xlink:href="#path-1"></use>
                    </mask>
                    <g id="Clip-2"></g>
                    <path d="M11,0 C17.0751367,0 22,4.92486328 22,11 C22,17.0751367 17.0751367,22 11,22 C4.92486328,22 0,17.0751367 0,11 C0,4.92486328 4.92486328,0 11,0" id="Fill-1" fill="#000000" mask="url(#mask-2)"></path>
                </g>
                <path d="M10.8096036,0 C10.3149094,0 9.82777747,0.03196875 9.35,0.0931132812 C14.8405942,0.796210937 19.0807491,5.41118359 19.0807491,11 C19.0807491,16.5888164 14.8405942,21.2037891 9.35,21.9068867 C9.82777747,21.9680313 10.3149094,22 10.8096036,22 C16.9898934,22 22,17.0750938 22,11 C22,4.92490625 16.9898934,0 10.8096036,0" id="Fill-4" fill="#4F4F4F"></path>
                <path d="M14.5407109,11.8229894 C13.3285103,11.9307808 12.3172784,10.9223029 12.4252301,9.71339495 C12.5080174,8.78666456 13.2562116,8.04043308 14.1854331,7.95778154 C15.3975473,7.84994711 16.4088224,8.85846809 16.3008707,10.067376 C16.2180834,10.9940633 15.4698892,11.7403379 14.5407109,11.8229894 Z M7.81473269,11.8229894 C6.60253208,11.9307808 5.59130021,10.9223029 5.69925185,9.71339495 C5.78203923,8.78666456 6.53023341,8.04043308 7.45945484,7.95778154 C8.67161228,7.84994711 9.68284416,8.85846809 9.57489252,10.067376 C9.49210514,10.9940633 8.74391096,11.7403379 7.81473269,11.8229894 Z M17.9991343,4.74328235 L17.9445757,4.60527149 C17.9429787,4.60131111 17.9399141,4.59803948 17.9359862,4.59627453 L17.8005395,4.53493159 C16.6855429,4.02985319 15.1127985,3.90523017 13.7212971,3.85 L12.1540345,3.85 C12.1363375,3.85 12.1308989,3.87384841 12.1468694,3.88146785 L15.3661675,5.42072364 C15.3843393,5.42937623 15.3742823,5.45632407 15.3547724,5.45124444 C13.906986,5.07414679 12.4443083,4.88327339 11.0000613,4.88327339 C9.56038962,4.88327339 8.10254617,5.07294146 6.65916245,5.44762844 C6.63947994,5.45270807 6.62955236,5.42545889 6.64793997,5.41697849 L9.98019674,3.88159699 C9.99633985,3.87414975 9.99103075,3.85 9.97320427,3.85 L8.27873912,3.85 C6.88728096,3.90523017 5.3144934,4.02985319 4.19949674,4.53493159 L4.06405003,4.59627453 C4.06012216,4.59803948 4.05705756,4.60122501 4.05546051,4.60527149 L4.00090199,4.74328235 C2.85987781,7.62696014 2.53563443,12.5222989 2.88141634,15.5890585 L2.8995018,15.7499277 L3.02778339,15.8491526 C4.81034502,17.2277114 7.19387051,17.9364483 8.69332347,18.1245667 L8.88721341,18.1489317 C8.95023196,18.1568094 9.01044489,18.1204771 9.03276036,18.0612005 L10.0086846,15.4607764 C10.0390716,15.3797176 9.9873187,15.2912116 9.90159621,15.2778238 L9.60212862,15.2309018 C8.55787676,15.0672776 7.07836528,14.6335292 5.8280514,13.5026667 C5.80137642,13.478517 5.8271018,13.4350819 5.86085557,13.4476088 C5.96246219,13.4852755 6.07451435,13.5289258 6.18989009,13.5738676 C6.47265345,13.6839835 6.76504224,13.7978877 6.95582442,13.8431308 C8.29660876,14.161081 9.65634184,14.3222945 10.9999318,14.3222945 L10.9999318,14.2984461 L11.0027374,14.2984461 L11.0029101,14.3222945 C12.3438239,14.3222945 13.7035138,14.161081 15.0441687,13.8431308 C15.2350372,13.7978877 15.527426,13.6839835 15.8102325,13.5737815 C15.9255219,13.5288397 16.0375309,13.4851894 16.1390944,13.4476088 C16.1728481,13.4350819 16.1985735,13.47856 16.1718985,13.5026667 C14.9257715,14.6285357 13.444404,15.0611648 12.3977781,15.2246169 L12.0983969,15.2714097 C12.0126744,15.2847545 11.960792,15.3732174 11.991179,15.4542762 L12.9672327,18.0610714 C12.989505,18.1204341 13.049718,18.1568094 13.1127797,18.1489317 L13.3067991,18.1245667 C14.8061657,17.9364914 17.1895186,17.2277114 18.9721665,15.8491526 L19.1004481,15.7499277 L19.1185336,15.5890585 C19.4644018,12.5222989 19.1401584,7.62691709 17.9991343,4.74328235 Z" id="Fill-5" fill="#FFFFFE"></path>
            </g>
        </g>
        <g id="001-favorite-heart-button"></g>
    </g>
</svg>