<svg id="Layer_1" data-name="Layer 1" xmlns="http://www.w3.org/2000/svg" viewBox="0 0 1157.86 899.88"><defs><style>.cls-1{fill:#fff;}</style></defs><title>Aavio - logo - white</title><polygon class="cls-1" points="647.15 613.69 682.29 613.69 635.26 737.45 598.88 737.45 551.85 613.69 586.99 613.69 616.94 700.32 647.15 613.69"/><rect class="cls-1" x="697.64" y="613.69" width="31.93" height="123.77"/><path class="cls-1" d="M817.7,709.73c9.66,0,17.58-3.22,24-9.65s9.65-14.61,9.65-24.51-3.21-18.07-9.65-24.5-14.35-9.66-24-9.66-17.57,3.22-24,9.66c-6.19,6.43-9.4,14.6-9.4,24.5s3.21,18.07,9.4,24.51c6.44,6.43,14.36,9.65,24,9.65m0,31.19c-18.32,0-33.91-6.19-46.53-18.81s-18.82-28.22-18.82-46.54,6.19-33.66,18.82-46.29,28.21-19.06,46.53-19.06,33.91,6.44,46.54,19.06,19.06,28,19.06,46.29-6.44,33.91-19.06,46.54S836,740.92,817.7,740.92"/><path class="cls-1" d="M510.26,700.09c-6.45,6.42-14.34,9.64-24,9.64s-17.57-3.22-24-9.64c-6.18-6.45-9.4-14.62-9.4-24.53s3.22-18,9.4-24.5c6.45-6.42,14.37-9.64,24-9.64s17.56,3.22,24,9.64,9.64,14.61,9.64,24.5-3.19,18.08-9.64,24.53m22.54-70.81a66.87,66.87,0,0,0-12.9-10.13,64.42,64.42,0,0,0-33.65-8.92c-18.32,0-33.91,6.42-46.53,19s-18.83,28-18.83,46.28,6.2,33.93,18.83,46.55,28.21,18.81,46.53,18.81c12.51,0,23.77-2.88,33.65-8.73v5.26h31.94V675.56c0-18.29-6.42-33.66-19-46.28"/><path class="cls-1" d="M362.58,700.09c-6.45,6.42-14.35,9.64-24,9.64s-17.56-3.22-24-9.64c-6.18-6.45-9.4-14.62-9.4-24.53s3.22-18,9.4-24.5c6.45-6.42,14.37-9.64,24-9.64s17.57,3.22,24,9.64,9.64,14.61,9.64,24.5-3.19,18.08-9.64,24.53m22.54-70.81a67.18,67.18,0,0,0-12.9-10.13,64.43,64.43,0,0,0-33.66-8.92c-18.32,0-33.9,6.42-46.52,19s-18.83,28-18.83,46.28,6.2,33.93,18.83,46.55,28.2,18.81,46.52,18.81c12.52,0,23.78-2.88,33.66-8.73v5.26h31.94V675.56c0-18.29-6.42-33.66-19-46.28"/><path class="cls-1" d="M1000.86,546.15H927.28c-85.34-121.53-198.56-253.6-282.84-303.61-25.14-14.9-47.69-22.51-66.19-20.43-18.5-2.08-41.1,5.53-66.24,20.43-84.37,50.07-197.59,182.08-282.83,303.61H155.64c26.2-38.62,81.9-117.72,148.14-194.4C417,220.59,507.2,157.85,578.2,161.25c70.95-3.4,161.21,59.34,274.43,190.5,66.23,76.68,121.93,155.78,148.23,194.4"/><path class="cls-1" d="M795.05,480.2H729.47c-34.67-45.77-68.72-83.57-98.32-105.52-20.07-14.89-38.11-22.5-52.91-20.42-14.8-2.08-32.89,5.53-53,20.42-29.59,22-63.65,59.75-98.31,105.52H361.34C450.63,351.57,522,290.05,578.19,293.4c56.2-3.35,127.56,58.17,216.86,186.8"/></svg>