<svg width="79" height="17" viewBox="0 0 79 17" fill="none" xmlns="http://www.w3.org/2000/svg">
<path fill-rule="evenodd" clip-rule="evenodd" d="M48.3944 0.509033H52.9359L46.8583 16.541H42.1572L36.0806 0.509033H40.6221L44.4923 11.731L48.3944 0.509033Z" fill="#232323"/>
<rect x="54.9189" y="0.509033" width="4.12655" height="16.032" fill="#232323"/>
<path fill-rule="evenodd" clip-rule="evenodd" d="M64.4189 14.5539C66.0498 16.1909 68.0657 16.9909 70.4317 16.9909L70.4307 16.9899C72.7977 16.9899 74.8126 16.1889 76.4434 14.5529C78.0743 12.9169 78.9062 10.9019 78.9062 8.52491C78.9062 6.14791 78.0743 4.15991 76.4434 2.52491C74.8126 0.889908 72.7967 0.0559082 70.4307 0.0559082C68.0647 0.0559082 66.0498 0.885908 64.4179 2.52491C62.786 4.16391 61.988 6.14991 61.988 8.52491C61.988 10.8999 62.788 12.9169 64.4189 14.5539ZM73.5328 11.6989C72.7019 12.5329 71.6785 12.9499 70.4307 12.9499L70.4317 12.9509C69.1848 12.9509 68.1614 12.5339 67.3295 11.6999C66.5315 10.8649 66.1136 9.80791 66.1136 8.52491C66.1136 7.24191 66.5305 6.18391 67.3285 5.35091C68.1604 4.51691 69.1828 4.09991 70.4307 4.09991C71.6785 4.09991 72.7009 4.51791 73.5328 5.35091C74.3647 6.18391 74.7807 7.24291 74.7807 8.52491C74.7807 9.80691 74.3637 10.8649 73.5328 11.6989Z" fill="#232323"/>
<path fill-rule="evenodd" clip-rule="evenodd" d="M31.954 1.21506C32.5604 1.58289 33.1198 2.02347 33.6198 2.52706V2.52806C35.2517 4.16406 36.0806 6.15406 36.0806 8.52306V16.5391H31.954V15.8571C30.6772 16.6161 29.2229 16.9881 27.605 16.9881C25.238 16.9881 23.2301 16.1841 21.5942 14.5531C19.9584 12.9221 19.1604 10.8911 19.1604 8.52206C19.1604 6.15306 19.9634 4.16206 21.5942 2.52706C23.2251 0.892059 25.238 0.0600586 27.605 0.0600586C29.2229 0.0600586 30.6772 0.450059 31.954 1.21506ZM27.605 12.9491C28.8549 12.9491 29.8753 12.5321 30.7082 11.7001V11.6991C31.5411 10.8641 31.954 9.80206 31.954 8.52206C31.954 7.24206 31.5411 6.18106 30.7082 5.34906C29.8753 4.51706 28.8509 4.10006 27.605 4.10006C26.3592 4.10006 25.3358 4.51806 24.5019 5.35006C23.7039 6.18506 23.288 7.23906 23.288 8.52306C23.288 9.80706 23.7039 10.8651 24.5019 11.7001C25.3358 12.5321 26.3552 12.9491 27.605 12.9491Z" fill="#232323"/>
<path fill-rule="evenodd" clip-rule="evenodd" d="M12.8734 1.21506C13.4797 1.58314 14.039 2.02371 14.5392 2.52706V2.52806C16.1701 4.16406 17 6.15406 17 8.52306V16.5391H12.8734V15.8571C11.5957 16.6161 10.1414 16.9881 8.52446 16.9881C6.15745 16.9881 4.14754 16.1841 2.51267 14.5531C0.877814 12.9221 0.079834 10.8911 0.079834 8.52206C0.079834 6.15306 0.881804 4.16206 2.51267 2.52706C4.14355 0.892059 6.15745 0.0600586 8.52446 0.0600586C10.1414 0.0600586 11.5957 0.450059 12.8734 1.21506ZM8.52446 12.9491C9.77329 12.9491 10.7937 12.5321 11.6266 11.7001V11.6991C12.4605 10.8641 12.8734 9.80206 12.8734 8.52206C12.8734 7.24206 12.4595 6.18106 11.6266 5.34906C10.7937 4.51706 9.76731 4.10006 8.52446 4.10006C7.2816 4.10006 6.2542 4.51806 5.42131 5.35006C4.62333 6.18506 4.20639 7.23906 4.20639 8.52306C4.20639 9.80706 4.62333 10.8651 5.42131 11.7001C6.2542 12.5321 7.27562 12.9491 8.52446 12.9491Z" fill="#232323"/>
</svg>
