<?xml version="1.0" encoding="UTF-8"?>
<svg width="20px" height="20px" viewBox="0 0 20 20" version="1.1" xmlns="http://www.w3.org/2000/svg" xmlns:xlink="http://www.w3.org/1999/xlink">
    <!-- Generator: Sketch 52.5 (67469) - http://www.bohemiancoding.com/sketch -->
    <title>Group 3</title>
    <desc>Created with Sketch.</desc>
    <defs>
        <polygon id="path-1" points="0 0.0103671706 19.9896069 0.0103671706 19.9896069 20 0 20"></polygon>
    </defs>
    <g id="Desktop" stroke="none" stroke-width="1" fill="none" fill-rule="evenodd">
        <g id="Homepage-Copy" transform="translate(-727.000000, -6245.000000)">
            <g id="Group-3" transform="translate(727.000000, 6245.000000)">
                <mask id="mask-2" fill="white">
                    <use xlink:href="#path-1"></use>
                </mask>
                <g id="Clip-2"></g>
                <path d="M15.3944017,7.01511879 C15.4531058,8.87559395 15.4544449,10.7403888 15.3944017,12.600432 C15.3667127,13.4544276 15.5313348,14.1352052 16.2522419,14.637149 C16.3978143,14.7382289 16.4993693,14.9015119 16.7049849,15.1291577 L11.2531058,15.1291577 C11.4077495,14.9352052 11.5040778,14.7403888 11.6600605,14.6302376 C12.3728035,14.1278618 12.5576847,13.4612959 12.5222635,12.6051836 C12.4557408,10.9935205 12.5028251,9.37667387 12.4181598,7.74470842 C12.0751793,8.60902808 11.7312916,9.47295896 11.3900821,10.3382289 C10.8086566,11.8138229 10.2328467,13.2915767 9.641054,14.7632829 C9.5797149,14.9157235 9.42982289,15.0328294 9.32053564,15.1658747 C9.18442333,15.0410367 8.9921987,14.9425918 8.92049244,14.787905 C7.91358099,12.6224622 6.9235162,10.4488121 5.92787905,8.27818575 C5.84619438,8.09935205 5.75293305,7.92526998 5.5697797,7.76669546 C5.5697797,8.78012959 5.65617279,9.80302376 5.54947732,10.8051836 C5.38831102,12.3213823 5.75120518,13.587905 6.9084406,14.6073434 C7.03803024,14.7213391 7.11444492,14.8954644 7.27297624,15.124838 L3.12092441,15.124838 C3.24796544,14.9200864 3.31574082,14.7235421 3.45180994,14.6051836 C4.60558963,13.599568 4.91876458,12.3403888 4.79008207,10.8475162 C4.68036285,9.57580994 4.79090281,8.28596112 4.75116199,7.00604752 C4.74122678,6.67943844 4.58917495,6.32008639 4.40131317,6.04492441 C4.07215551,5.56112311 3.6647689,5.13045356 3.21422894,4.58531317 C3.49327862,4.54946004 3.6172527,4.52008639 3.74165875,4.51961123 C4.76675594,4.51615551 5.7921987,4.53041037 6.81686393,4.51015119 C7.13522246,4.50367171 7.29327862,4.6 7.42632397,4.89892009 C8.25876458,6.76889849 9.11487689,8.62807775 9.96502808,10.4902808 C10.0397149,10.6535205 10.1274039,10.8112311 10.2487862,11.0492441 C10.3689158,10.7775378 10.4621771,10.5844492 10.5417019,10.3857451 C11.2712916,8.5650108 12.003905,6.74557235 12.7201037,4.91965443 C12.8354384,4.62634989 12.977987,4.50151188 13.3118531,4.5088121 C14.3995853,4.53222462 15.4881382,4.5174946 16.753797,4.5174946 C16.5079654,4.79693305 16.3883542,4.9987041 16.213365,5.12051836 C15.5417019,5.5887257 15.3689158,6.20950324 15.3944017,7.01511879 Z M-2.59179266e-05,20 L19.9896069,20 L19.9896069,0.0103671706 L-2.59179266e-05,0.0103671706 L-2.59179266e-05,20 Z" id="Fill-1" fill="#000000" mask="url(#mask-2)"></path>
            </g>
        </g>
        <g id="001-favorite-heart-button"></g>
    </g>
</svg>