<svg width="37" height="32" viewBox="0 0 37 32" fill="none" xmlns="http://www.w3.org/2000/svg">
<path opacity="0.327842" fill-rule="evenodd" clip-rule="evenodd" d="M20.8946 11.6386C22.2101 10.1054 23.7069 7.67 25.6117 6.36227C27.4258 5.23488 30.1017 4.82906 32.1426 5.77613C34.5012 6.85838 35.9526 9.06828 36.1794 11.6386V31.3459H31.2358L31.1904 12.4505C31.145 11.5934 30.5098 10.8719 29.739 10.5563C28.7865 10.2857 27.834 10.827 27.1991 11.4131L20.8946 19.26V31.3459H15.951V25.8892C14.7264 27.1518 13.5471 28.685 12.277 29.7675C10.6899 31.0752 8.60327 31.5713 6.33555 31.3007C5.74605 31.1204 5.11088 31.0752 4.56678 30.8049C-1.4655 28.054 0.439483 19.8464 0.122153 13.6679C0.39433 10.827 0.983836 7.62486 3.47833 6.31738V6.22684C4.02268 6.0919 4.43082 5.68583 4.97492 5.64094C5.42846 5.5055 5.83685 5.37031 6.38096 5.37031C6.83425 5.18998 7.46966 5.28002 8.01402 5.28002V5.32492C10.9166 5.73098 12.9122 7.98578 14.7264 10.1054C15.0893 10.6017 15.4067 11.0522 15.7697 11.5934L15.8602 11.5034V7.53482L20.8946 0.860474V11.6386ZM7.74184 10.4661C6.83425 10.376 5.97282 10.827 5.60983 11.5486C4.65759 14.7504 5.11088 18.6736 5.06573 22.1912C5.2471 23.7244 5.15654 25.3479 6.42661 26.2047C6.56258 26.2953 6.74394 26.2047 6.78935 26.3853C7.78724 26.5207 8.60327 26.2953 9.28384 25.7538C11.7329 23.9048 13.2298 21.3796 14.9985 19.1248C13.9098 17.1404 12.6854 15.3817 11.3248 13.5776C10.2812 12.3602 9.37465 11.0073 7.74184 10.4661Z" fill="#282828"/>
</svg>
