<svg width="97" height="29" viewBox="0 0 97 29" fill="none" xmlns="http://www.w3.org/2000/svg">
<g opacity="0.329087">
<path fill-rule="evenodd" clip-rule="evenodd" d="M47.4061 20.1813C47.1943 20.1813 46.7471 20.1287 46.3563 20.0767V11.2856C46.9775 11.1348 47.8127 11.0924 47.8127 11.0924C47.8127 11.0924 51.3693 10.6123 51.3693 15.6546C51.3693 20.6959 47.4061 20.1813 47.4061 20.1813ZM50.2518 7.90312C49.999 7.90312 48.616 7.94137 46.3563 9.01329V0.906982H41.8174V22.0332C41.8174 22.0332 45.0013 23.0279 47.6097 23.0279C50.2177 23.0279 55.976 21.8618 55.976 14.8658C55.976 7.8688 50.5904 7.90312 50.2518 7.90312Z" fill="#282828"/>
<path fill-rule="evenodd" clip-rule="evenodd" d="M62.686 18.2679C62.686 17.0087 63.2427 16.048 66.6185 16.0246L66.6269 19.8955C66.4059 19.9731 65.8685 20.1203 64.967 20.1203C63.7427 20.1203 62.686 19.5425 62.686 18.2679ZM65.772 8.01729C63.2563 8.01729 59.6001 8.98629 59.6001 8.98629V11.3658C59.6001 11.3658 61.1431 11.1279 63.9271 10.9239C66.7113 10.72 66.6106 12.3348 66.6106 12.3348L66.614 13.872C65.6644 13.7787 58.0904 13.2039 58.3418 18.5737C58.3418 18.5737 58.1911 23.0269 62.7364 23.0269C62.7364 23.0269 64.8695 23.1051 66.7615 21.863V22.857H70.9211V13.032C70.9211 8.76534 68.2878 8.01729 65.772 8.01729Z" fill="#282828"/>
<mask id="mask0" mask-type="alpha" maskUnits="userSpaceOnUse" x="74" y="8" width="23" height="15">
<path fill-rule="evenodd" clip-rule="evenodd" d="M74.2002 8.01947H96.8528V22.9349H74.2002V8.01947Z" fill="white"/>
</mask>
<g mask="url(#mask0)">
<path fill-rule="evenodd" clip-rule="evenodd" d="M92.5444 8.01947C89.8425 8.01947 87.2429 9.10613 86.7172 9.33862C85.8766 8.41153 84.6494 8.01947 83.4665 8.01947C81.8118 8.01947 79.5822 8.87686 78.7307 9.2314V8.32808H74.2002V22.9349H78.7307V11.5463C79.3601 11.3327 80.9191 11.2594 80.9191 11.2594C83.3467 11.2594 83.1587 12.8541 83.1587 12.8541V22.9349H87.7746V12.4598C87.7746 12.1293 87.751 11.8207 87.7067 11.5316C88.6551 11.3731 89.997 11.2594 89.997 11.2594C92.4246 11.2594 92.2366 12.8541 92.2366 12.8541V22.9349H96.8528V12.4598C96.8528 9.23658 94.6302 8.01947 92.5444 8.01947Z" fill="#282828"/>
</g>
<mask id="mask1" mask-type="alpha" maskUnits="userSpaceOnUse" x="0" y="1" width="37" height="28">
<path fill-rule="evenodd" clip-rule="evenodd" d="M0.914795 1.01068H36.2127V28.5582H0.914795V1.01068Z" fill="white"/>
</mask>
<g mask="url(#mask1)">
<path fill-rule="evenodd" clip-rule="evenodd" d="M29.4893 8.25425L31.5267 1.92869L25.007 1.01053L21.2191 2.69495L28.4706 3.86711L26.5011 10.873L24.4977 10.3288L25.5504 5.73764L17.8361 4.1991L13.0007 6.34915L21.2124 8.56036L19.8117 16.9018L17.0358 15.6775L17.4941 10.907L9.16872 8.05307L0.914795 11.7231L9.47189 16.0092L9.98124 25.5993L13.4448 22.5896L23.0714 28.5582L36.2127 9.78463L29.4893 8.25425Z" fill="#282828"/>
</g>
</g>
</svg>
