<svg width="125" height="17" viewBox="0 0 125 17" fill="none" xmlns="http://www.w3.org/2000/svg">
<g opacity="0.327842">
<mask id="mask0" mask-type="alpha" maskUnits="userSpaceOnUse" x="0" y="0" width="125" height="17">
<path fill-rule="evenodd" clip-rule="evenodd" d="M0.186768 0.441864H124.655V16.6512H0.186768V0.441864Z" fill="white"/>
</mask>
<g mask="url(#mask0)">
<path fill-rule="evenodd" clip-rule="evenodd" d="M106.944 6.77113V16.5844H110.013V10.0501H121.177V16.5844H124.241V6.78962L106.944 6.77113ZM58.1255 3.64738H69.0781C70.7262 3.16267 71.9413 1.89806 72.2781 0.476452H55.0544V10.027H69.2938V13.3856H58.2724C56.6494 14.0199 55.4492 15.107 55.1128 16.5197L55.0544 16.6512H72.358V6.84924H58.1255V3.64738ZM95.2556 16.5245C96.7897 15.8625 97.6203 14.6911 97.939 13.3481H84.248L84.2588 0.458919L81.1904 0.468801V16.487L95.2556 16.5245ZM109.617 3.68149H121.485C123.147 3.04807 124.318 1.92038 124.655 0.488247H106.347C106.677 1.92038 107.955 3.04807 109.617 3.68149ZM31.0537 3.74876H42.9219C44.5912 3.11438 45.799 1.93169 46.1413 0.499086H27.8333C28.1738 1.93169 29.3902 3.11438 31.0537 3.74876ZM31.0537 16.6252H42.9219C44.5912 15.9975 45.799 14.8035 46.1413 13.3784H27.8333C28.1738 14.8035 29.3902 15.9975 31.0537 16.6252ZM0.186768 0.476452C0.543628 1.89376 1.7512 3.07262 3.40102 3.70429H8.39394L8.65025 3.80901V16.6512H11.7694V3.80901L12.0531 3.70429H17.0524C18.6888 3.07262 19.9012 1.89376 20.2523 0.476452V0.441864H0.186768V0.476452ZM31.0537 10.0355H42.9219C44.5912 9.42006 45.799 8.21952 46.1413 6.80158H27.8333C28.1738 8.21952 29.3902 9.42006 31.0537 10.0355Z" fill="#282828"/>
</g>
</g>
</svg>
