<svg width="124" height="123" viewBox="0 0 124 123" fill="none" xmlns="http://www.w3.org/2000/svg">
<g opacity="0.327842">
<path fill-rule="evenodd" clip-rule="evenodd" d="M0.439697 123H123.007V0H0.439697V123Z" fill="#FFFFFE"/>
<path fill-rule="evenodd" clip-rule="evenodd" d="M63.4776 62.16L63.5159 62.2035L66.7781 58.2664H69.6149L66.2007 62.0709L70.0804 68.4886H67.1075L64.5427 63.7738L63.4232 64.8766V68.4886H61.0271V54.5114H63.4776V62.16Z" fill="#1A1919"/>
<path fill-rule="evenodd" clip-rule="evenodd" d="M71.05 63.2664C71.05 64.5631 71.5014 66.6448 73.5247 66.6448C75.5492 66.6448 76.0393 64.4561 76.0393 63.2664C76.0393 61.8682 75.6365 59.9193 73.549 59.8898C71.5245 59.8898 71.05 61.969 71.05 63.2664C71.05 61.969 71.05 63.2664 71.05 63.2664ZM78.3824 63.9361C78.0445 66.5781 76.2612 68.4886 73.5508 68.4886C70.6104 68.4886 68.6875 66.2495 68.6875 63.2468C68.6875 60.2492 70.621 58.0183 73.5508 58.0057C76.0686 58.0132 77.8568 59.6638 78.3051 62.0313C78.4965 63.041 78.4398 63.4923 78.3824 63.9361Z" fill="#1A1919"/>
<path fill-rule="evenodd" clip-rule="evenodd" d="M78.4418 58.2759L80.8366 58.2869L80.8819 59.5831H80.9219C81.6931 58.0591 83.2052 57.9072 84.0085 58.0461V60.225H83.5036C81.9022 60.249 80.9737 61.5107 80.9311 62.9107V68.4886H78.4373L78.4418 58.2759Z" fill="#1A1919"/>
<path fill-rule="evenodd" clip-rule="evenodd" d="M89.5448 56.458C88.0783 56.445 87.6775 56.8512 87.7554 58.2483H89.5798V59.9529H87.7729V68.4886H85.2733V59.9529H84.0085V58.2483H85.3148C85.2389 55.4858 86.4472 54.4831 88.7911 54.5137C88.9124 54.5176 89.2594 54.5007 89.5448 54.5241V56.458Z" fill="#1A1919"/>
<path fill-rule="evenodd" clip-rule="evenodd" d="M34.5637 67.7898H36.6529V58.0057H34.5637V67.7898Z" fill="#1A1919"/>
<path fill-rule="evenodd" clip-rule="evenodd" d="M34.5637 56.608H36.6529V54.5114H34.5637V56.608Z" fill="#1A1919"/>
<path fill-rule="evenodd" clip-rule="evenodd" d="M41.5276 69.207C41.5122 70.467 40.7826 71.2841 39.498 71.2841C39.1552 71.2841 38.4456 71.2841 37.3491 71.2783V69.3408C38.7611 69.3325 38.9805 68.8112 38.9871 68.4638V58.0057H41.5276V69.207Z" fill="#1A1919"/>
<path fill-rule="evenodd" clip-rule="evenodd" d="M38.7419 56.608H40.8312V54.5114H38.7419V56.608Z" fill="#1A1919"/>
<path fill-rule="evenodd" clip-rule="evenodd" d="M53.7165 59.4611L53.7736 59.5215C54.0066 59.1461 55.0012 58.0057 56.3132 58.0057C58.4754 58.0057 59.6342 59.4196 59.6342 61.8401V68.4886H57.3004V62.348C57.2836 61.2484 56.9465 60.2048 55.567 60.2048C54.6895 60.2048 53.6614 60.862 53.6254 62.348V68.4886H51.2773V58.296H53.7165V59.4611Z" fill="#1A1919"/>
<path fill-rule="evenodd" clip-rule="evenodd" d="M12.2674 66.2699C12.2674 66.8947 12.2412 67.5361 12.2785 68.161H9.76116C9.72652 67.7086 9.70364 67.594 9.70364 67.141H9.66507C9.20749 67.7359 8.30803 68.4886 6.83135 68.4886C4.08261 68.4886 2.52881 65.8531 2.52881 63.4155C2.52881 59.8861 4.47875 57.9626 6.77644 57.9626C8.49563 57.9626 9.50884 58.8235 9.77555 59.225H9.8115V54.5114H12.2674V66.2699ZM9.91609 63.2374C9.91413 61.8878 9.3232 59.9853 7.56152 59.9853C5.5449 59.9853 5.07556 61.8878 5.07556 63.2374C5.07556 64.6697 5.624 66.4926 7.56152 66.4926C9.3232 66.4926 9.91413 64.5889 9.91609 63.2374C9.91413 64.5889 9.91609 63.2374 9.91609 63.2374Z" fill="#1A1919"/>
<path fill-rule="evenodd" clip-rule="evenodd" d="M19.3879 62.2066C19.3879 60.9772 18.5834 59.9487 17.1706 59.9487C15.4436 59.9487 14.8813 61.2484 14.8327 62.2066H19.3879ZM14.7881 63.8999C14.72 65.3771 15.8958 66.4905 17.2826 66.4905C18.2187 66.4905 18.8827 66.0887 19.3542 65.282H21.8955C21.8249 65.6128 21.087 68.4886 17.1259 68.4886C14.4519 68.4886 12.2786 66.0799 12.2786 63.3834C12.2786 60.5412 13.8896 58.0057 17.1414 58.0057C19.1366 58.0057 20.4982 58.9981 21.3772 60.7338C21.6564 61.2611 21.8695 62.0735 21.9486 62.6768C22.0283 63.2611 22.0244 63.5615 22.0283 63.8999H14.7881Z" fill="#1A1919"/>
<path fill-rule="evenodd" clip-rule="evenodd" d="M26.6317 65.785H29.494C30.753 65.785 31.9913 65.2838 31.9913 63.7864C31.9913 62.21 30.7152 61.786 29.494 61.786H26.6317V65.785ZM24.1174 54.5307H29.0022C31.4396 54.377 34.1411 55.1073 34.1411 57.8623C34.1411 59.3864 33.2383 60.2263 31.8639 60.6989V60.7338C33.4684 61.0768 34.5635 62.3351 34.5635 64.211C34.5635 66.1591 33.3499 68.068 29.1498 67.7561H24.1174V54.5307ZM26.6317 59.8982H29.3931C30.84 59.8982 31.6981 59.3242 31.6981 58.2097C31.6981 57.0573 30.8766 56.5231 29.3931 56.5231H26.6317V59.8982Z" fill="#1A1919"/>
<path fill-rule="evenodd" clip-rule="evenodd" d="M48.637 62.2066C48.637 60.9772 47.8333 59.9487 46.4202 59.9487C44.6944 59.9487 44.1297 61.2484 44.083 62.2066H48.637ZM44.039 63.8999C43.9684 65.3771 45.1438 66.4905 46.5323 66.4905C47.4661 66.4905 48.1319 66.0887 48.6014 65.282H51.1439C51.0713 65.6128 50.3337 68.4886 46.3756 68.4886C43.7022 68.4886 41.5276 66.0799 41.5276 63.3834C41.5276 60.5412 43.1401 58.0057 46.3892 58.0057C48.3838 58.0057 49.747 58.9981 50.6258 60.7338C50.9049 61.2611 51.118 62.0735 51.197 62.6768C51.2773 63.2611 51.2727 63.5615 51.2773 63.8999H44.039Z" fill="#1A1919"/>
<path fill-rule="evenodd" clip-rule="evenodd" d="M118.522 53.8248L108.191 47.6209V51.6262C108.191 51.6262 107.689 51.6262 107.243 51.6262C104.662 51.6262 103.062 53.632 103.062 55.6949C103.062 56.9189 103.062 63.7411 103.062 63.7411H99.1898V64.9358H108.191V73.975L118.522 67.7762V53.8248ZM95.4561 67.7375L105.795 73.9452V67.4458H96.793V61.2311H100.665C100.665 61.2311 100.665 58.0286 100.665 55.6055C100.665 52.143 103.575 49.6121 105.795 49.2919V47.6551L95.4561 53.8629V67.7375ZM93.0618 52.4075L107.022 44.0284L120.918 52.3713V69.229L107.022 77.5739L93.0618 69.1904V52.4075Z" fill="#1A1919"/>
</g>
</svg>
