<svg width="64" height="23" viewBox="0 0 64 23" fill="none" xmlns="http://www.w3.org/2000/svg">
<g opacity="0.327842">
<mask id="mask0" mask-type="alpha" maskUnits="userSpaceOnUse" x="0" y="0" width="64" height="23">
<path fill-rule="evenodd" clip-rule="evenodd" d="M0.619141 0.58139H63.3281V22.5116H0.619141V0.58139Z" fill="white"/>
</mask>
<g mask="url(#mask0)">
<path fill-rule="evenodd" clip-rule="evenodd" d="M63.3281 0.911969C58.6915 2.872 54.0563 4.83529 49.418 6.79147C38.4956 11.3984 27.5807 16.0231 16.6425 20.5933C13.5807 21.8726 10.395 22.7079 7.01003 22.4717C3.28809 22.212 0.675333 19.6214 0.620272 16.0265C0.588364 13.9401 1.2345 11.9933 2.15069 10.1326C3.95971 6.45897 6.7071 3.48414 9.36966 0.58139C8.79318 2.23775 8.03634 3.93485 7.62504 5.71017C7.04641 8.20777 7.51161 10.5182 9.80314 12.1073C11.3478 13.1782 13.1675 13.3861 14.9339 13.0648C17.9502 12.5159 20.9452 11.8197 23.9129 11.0483C36.8685 7.68019 49.8108 4.26273 62.7582 0.86392C62.938 0.816832 63.1207 0.781083 63.3018 0.739953C63.3106 0.79742 63.3194 0.854695 63.3281 0.911969Z" fill="black"/>
</g>
</g>
</svg>
