<svg width="81" height="17" viewBox="0 0 81 17" fill="none" xmlns="http://www.w3.org/2000/svg">
<g opacity="0.334862">
<path fill-rule="evenodd" clip-rule="evenodd" d="M66.9398 2.57027C65.9635 1.60312 64.6072 0.973656 62.3569 0.918004C60.8921 0.881263 60.7135 0.937996 56.2854 1.00283V16.0553H60.2892L60.2881 12.8399C61.2152 12.8194 61.7578 12.8675 62.3934 12.8118C67.8205 12.5406 68.5717 8.17221 68.5921 6.98353C68.627 4.9217 67.8808 3.50177 66.9398 2.57027ZM64.2321 6.94841C64.1425 8.94161 62.4382 9.60403 60.2875 9.42951V9.98387L60.2853 4.35438C62.3049 4.00372 64.3317 4.71206 64.2321 6.94841Z" fill="#282828"/>
<path fill-rule="evenodd" clip-rule="evenodd" d="M74.6604 6.30436L77.9417 7.4482C80.1272 8.29324 80.5908 10.0039 80.5703 11.4773C80.5205 14.8974 77.7326 16.1796 75.5106 16.3633C72.9821 16.573 71.0266 16.1585 70.3684 16.0543V12.3331C72.3686 12.9296 74.6963 12.9053 75.4829 12.6049C76.0764 12.3769 76.5289 12.0322 76.4919 11.5767C76.4742 11.3292 76.4482 11.0153 75.6964 10.7025L72.6723 9.62781C70.7279 8.94377 69.9778 7.1386 70.0597 5.53118C70.224 2.28283 72.8759 0.639208 75.5227 0.734843C76.3409 0.764019 77.4416 0.745109 79.0436 0.961233V4.64723C77.2497 4.23821 76.4072 4.2447 75.4829 4.3587C74.4479 4.48351 73.9833 5.00761 74.0038 5.56521C74.0154 5.85104 74.3041 6.16172 74.6604 6.30004V6.30436Z" fill="#282828"/>
<path fill-rule="evenodd" clip-rule="evenodd" d="M18.5521 6.61395H22.8563L22.8551 1.01849H26.8528V16.058H22.8563V10.019H18.5521V16.058H14.5505V1.01849H18.5521V6.61395Z" fill="#282828"/>
<path fill-rule="evenodd" clip-rule="evenodd" d="M30.6187 16.0575H34.6186V1.01849H30.6187V16.0575Z" fill="#282828"/>
<path fill-rule="evenodd" clip-rule="evenodd" d="M48.4919 16.0575H52.4935V1.01849H48.4919V16.0575Z" fill="#282828"/>
<path fill-rule="evenodd" clip-rule="evenodd" d="M42.3839 12.6438H46.5083V16.0564L38.3823 16.058V1.01849H42.3839V12.6438Z" fill="#282828"/>
<path fill-rule="evenodd" clip-rule="evenodd" d="M10.9515 2.57027C9.97572 1.60312 8.61937 0.973656 6.36966 0.918004C4.90489 0.881263 4.72566 0.937996 0.297607 1.00283V16.0553H4.30139L4.30084 12.8399C5.22738 12.8194 5.76948 12.8675 6.40562 12.8118C11.8332 12.5406 12.5833 8.17221 12.6043 6.98353C12.6386 4.9217 11.893 3.50177 10.9515 2.57027ZM8.24432 6.94841C8.15471 8.94161 6.45097 9.60403 4.30028 9.42951L4.29973 9.98387L4.29807 4.35438C6.31711 4.00372 8.34389 4.71206 8.24432 6.94841Z" fill="#282828"/>
</g>
</svg>
