<svg width="110" height="28" viewBox="0 0 110 28" fill="none" xmlns="http://www.w3.org/2000/svg">
<g opacity="0.327842">
<path fill-rule="evenodd" clip-rule="evenodd" d="M53.8929 3.06744L57.027 10.8811V3.06744H59.1564V14.1279H56.1435L52.9504 5.89233L52.9532 14.1279H50.8049L50.814 3.06744H53.8929Z" fill="#282828"/>
<path fill-rule="evenodd" clip-rule="evenodd" d="M80.9651 3.06744L82.8457 10.7982L84.7288 3.06744H88.3868V14.1279H86.1253V5.4153L83.8507 14.1279H81.7016L79.4992 5.45621V14.1279H77.2515V3.06744H80.9651Z" fill="#282828"/>
<path fill-rule="evenodd" clip-rule="evenodd" d="M95.6804 3.11075C96.5561 3.19627 97.3451 3.7236 97.6693 4.54582C98.0521 5.57493 98.0568 7.10469 97.3316 7.99023C96.9532 8.37344 96.4471 8.61836 95.8241 8.72027C95.9749 8.74859 96.154 8.81829 96.3723 8.85828C97.036 8.9774 97.4299 9.33201 97.6591 9.84267C98.0705 10.9007 97.7838 12.2549 97.9915 13.4026L98.1302 14.1279H95.8942C95.5114 12.923 95.9906 11.2472 95.4726 10.1445C95.1237 9.48834 94.1324 9.54166 93.3626 9.56387V14.1279H91.1806L91.1707 3.09242C91.1707 3.09242 94.8058 3.0255 95.6804 3.11075ZM93.3626 4.73687V7.88749C93.3626 7.88749 94.8452 8.09797 95.3746 7.4157C95.7162 6.85616 95.6911 5.93619 95.4845 5.31945C95.1022 4.55554 94.0925 4.74659 93.3626 4.73687Z" fill="#282828"/>
<path fill-rule="evenodd" clip-rule="evenodd" d="M33.8732 3.06744L36.8859 14.1279H34.5578L33.8995 11.6941H30.7219L30.0545 14.1279H27.8384L30.8674 3.06744H33.8732ZM32.2924 5.06685L31.1847 9.99996H31.1783H33.406L32.3437 5.31427L32.2924 5.06685Z" fill="#282828"/>
<path fill-rule="evenodd" clip-rule="evenodd" d="M10.5146 7.27145V27.9535L0 17.5742V0.302322H20.8788V17.5614L10.5146 7.27145Z" fill="#282828"/>
<path fill-rule="evenodd" clip-rule="evenodd" d="M45.3318 3.21815C45.9993 3.32989 46.7656 3.97812 46.9796 4.74392C47.2239 5.68568 47.229 6.84871 46.5065 7.66149C46.1765 8.01591 45.7234 8.19492 45.2711 8.37282C45.6237 8.48234 45.9674 8.60604 46.3002 8.78171C47.3701 9.41938 47.4251 10.8693 47.2478 12.0481C47.0814 12.9615 46.2327 13.8099 45.3555 14.0131C45.0092 14.0929 44.5646 14.1279 44.1494 14.1279C43.9607 14.1279 39.6697 14.1279 39.6697 14.1279V3.08111C41.3833 3.07833 44.0773 3.00744 45.3318 3.21815ZM43.6379 7.57115C44.4429 7.55448 44.7242 7.07831 44.8428 6.66525C44.9611 6.10653 44.9063 5.48054 44.429 5.03246L44.2021 4.87123C43.8761 4.64469 42.7641 4.70028 42.01 4.71279C42.0091 5.62648 42.0317 6.62828 42.01 7.57115H43.6379ZM42.01 9.24926C42.01 9.24926 42.01 11.4077 42.01 12.4495V12.4776C42.9305 12.4262 43.867 12.6777 44.5606 12.1754C45.1323 11.672 45.1175 10.675 44.8844 10.0237C44.3982 9.02383 42.9815 9.2929 42.01 9.24926Z" fill="#282828"/>
<path fill-rule="evenodd" clip-rule="evenodd" d="M62.6299 9.28895L64.0282 7.90073L62.6424 6.52383L61.2444 7.91313L62.6299 9.28895Z" fill="#282828"/>
<path fill-rule="evenodd" clip-rule="evenodd" d="M71.6291 2.79488L74.6842 14.2948H72.3239L71.6564 11.7643H68.4315L67.7558 14.2948H65.5073L68.5788 2.79488H71.6291ZM70.0248 4.87489L68.9025 10.0029H68.8952H71.1552L70.0765 5.13098L70.0248 4.87489Z" fill="#282828"/>
<path fill-rule="evenodd" clip-rule="evenodd" d="M108.498 4.27213C109.248 6.01617 109.073 8.22553 109.084 10.1883C109.088 11.0967 108.885 13.01 107.786 13.8425C107.013 14.397 106.09 14.5726 105.078 14.5567C103.738 14.5362 102.402 14.0419 101.854 12.6671C101.298 11.1899 101.421 9.0815 101.419 7.24109C101.418 5.90361 101.587 4.20412 102.776 3.28045C103.993 2.4783 105.959 2.50261 107.271 3.0802C107.743 3.28565 108.265 3.76312 108.498 4.27213ZM106.711 6.53213C106.626 4.27502 105.594 4.32855 105.165 4.32855C104.701 4.32855 103.897 4.57857 103.816 6.47541V10.5191C103.945 12.5109 104.421 12.8957 105.278 12.8957C106.171 12.8957 106.703 12.4727 106.711 10.3652V6.53213Z" fill="#282828"/>
<path fill-rule="evenodd" clip-rule="evenodd" d="M10.4395 27.9535V7.21512L20.8788 17.5272L10.4395 27.9535Z" fill="#D2D2D2"/>
</g>
</svg>
