<?xml version="1.0" encoding="UTF-8"?>
<svg width="411px" height="180px" viewBox="0 0 411 180" version="1.1" xmlns="http://www.w3.org/2000/svg" xmlns:xlink="http://www.w3.org/1999/xlink">
    <!-- Generator: Sketch 52.5 (67469) - http://www.bohemiancoding.com/sketch -->
    <title>Group</title>
    <desc>Created with Sketch.</desc>
    <defs>
        <filter x="-32.4%" y="-31.6%" width="164.9%" height="163.2%" filterUnits="objectBoundingBox" id="filter-1">
            <feOffset dx="0" dy="2" in="SourceAlpha" result="shadowOffsetOuter1"></feOffset>
            <feGaussianBlur stdDeviation="2" in="shadowOffsetOuter1" result="shadowBlurOuter1"></feGaussianBlur>
            <feColorMatrix values="0 0 0 0 0   0 0 0 0 0   0 0 0 0 0  0 0 0 0.5 0" type="matrix" in="shadowBlurOuter1" result="shadowMatrixOuter1"></feColorMatrix>
            <feMerge>
                <feMergeNode in="shadowMatrixOuter1"></feMergeNode>
                <feMergeNode in="SourceGraphic"></feMergeNode>
            </feMerge>
        </filter>
        <path d="M37.5033599,85.4964422 C37.5033599,85.4964422 184.333159,-48.2861465 386.467551,53.1021904" id="path-2"></path>
        <filter x="-3.8%" y="-11.4%" width="107.7%" height="143.2%" filterUnits="objectBoundingBox" id="filter-3">
            <feMorphology radius="1" operator="dilate" in="SourceAlpha" result="shadowSpreadOuter1"></feMorphology>
            <feOffset dx="0" dy="9" in="shadowSpreadOuter1" result="shadowOffsetOuter1"></feOffset>
            <feMorphology radius="1" operator="erode" in="SourceAlpha" result="shadowInner"></feMorphology>
            <feOffset dx="0" dy="9" in="shadowInner" result="shadowInner"></feOffset>
            <feComposite in="shadowOffsetOuter1" in2="shadowInner" operator="out" result="shadowOffsetOuter1"></feComposite>
            <feGaussianBlur stdDeviation="2.5" in="shadowOffsetOuter1" result="shadowBlurOuter1"></feGaussianBlur>
            <feColorMatrix values="0 0 0 0 0   0 0 0 0 0   0 0 0 0 0  0 0 0 0.5 0" type="matrix" in="shadowBlurOuter1"></feColorMatrix>
        </filter>
        <path d="M216.200295,19.84862 C215.012497,19.8484623 213.823274,19.882836 212.63722,19.8375826 C211.69183,19.8016321 211.064898,20.1519913 210.56313,20.9660798 C208.343595,24.5669588 206.079857,28.1407174 203.828794,31.7222021 C203.25969,32.6277435 201.398222,33.1576973 200.454417,32.6808808 C200.0184,32.4606054 200.111719,32.1058313 200.230546,31.730086 C201.060594,29.1071222 201.880819,26.4810049 202.702311,23.8553607 C203.015382,22.8552129 203.331304,21.8556958 203.631541,20.851606 C203.861273,20.0835593 203.719314,19.8557155 202.944877,19.8503544 C200.622042,19.8342713 198.299207,19.8408938 195.976214,19.849093 C195.358788,19.8513005 194.860822,20.1103645 194.491666,20.6163513 C194.135184,21.1049936 193.743688,21.5690382 193.399881,22.0658797 C192.891617,22.8006565 192.226818,23.1467584 191.316602,23.0840028 C190.445043,23.0240854 190.258405,22.8069636 190.500338,21.9354805 C190.808655,20.8246432 191.108892,19.7104946 191.460462,18.6129021 C191.719347,17.8043323 191.714752,17.0255636 191.465373,16.2203051 C191.116496,15.0943307 190.794237,13.9598417 190.478473,12.8240913 C190.253652,12.0155215 190.460728,11.7862586 191.287132,11.7329636 C192.222382,11.6725731 192.882269,12.0333391 193.434103,12.7832528 C195.288125,15.3029379 194.773207,14.9254581 197.766703,14.9579397 C199.429492,14.9759149 201.092757,14.9685041 202.755546,14.9539978 C203.763518,14.9451678 203.888049,14.7745609 203.592248,13.8256582 C202.500147,10.3238006 201.398539,6.82478111 200.300734,3.3248156 C199.961363,2.24314856 200.092073,2.1430234 201.210792,2.04526341 C202.609151,1.92290574 203.485621,2.40776378 204.223459,3.64978875 C206.289468,7.12689104 208.512964,10.511279 210.641081,13.9524308 C211.098962,14.692884 211.683275,14.9718153 212.531543,14.9633007 C215.038956,14.9383877 217.547162,14.943118 220.054575,14.9711846 C221.315411,14.9852179 222.266505,15.7064344 222.558344,16.7713876 C222.835133,17.7811538 222.413692,18.8473684 221.504901,19.4432313 C221.023413,19.7589015 220.488057,19.8560308 219.922281,19.8506698 C219.288694,19.8445204 218.655107,19.8487777 218.02152,19.84862 C217.414551,19.8484623 216.807423,19.84862 216.200295,19.84862" id="path-4"></path>
        <filter x="-38.8%" y="-73.0%" width="177.5%" height="197.3%" filterUnits="objectBoundingBox" id="filter-5">
            <feOffset dx="0" dy="-10" in="SourceAlpha" result="shadowOffsetOuter1"></feOffset>
            <feGaussianBlur stdDeviation="2.5" in="shadowOffsetOuter1" result="shadowBlurOuter1"></feGaussianBlur>
            <feColorMatrix values="0 0 0 0 0   0 0 0 0 0   0 0 0 0 0  0 0 0 0.5 0" type="matrix" in="shadowBlurOuter1"></feColorMatrix>
        </filter>
    </defs>
    <g id="Desktop" stroke="none" stroke-width="1" fill="none" fill-rule="evenodd">
        <g id="Homepage-Copy" transform="translate(-215.000000, -499.000000)">
            <g id="Group" transform="translate(407.621795, 568.632375) scale(-1, 1) rotate(27.000000) translate(-407.621795, -568.632375) translate(192.621795, 504.632375)">
                <g id="Group-3" filter="url(#filter-1)" transform="translate(0.000000, 90.000000)" fill="#FFA700">
                    <circle id="Oval-1" opacity="0.41120569" cx="18.2943219" cy="18.8512154" r="18.2943219"></circle>
                    <circle id="Oval-2" cx="17.8369639" cy="18.8512154" r="10.0618771"></circle>
                </g>
                <circle id="Oval-4" fill="#FFA700" opacity="0.41120569" cx="411.622243" cy="66.774275" r="18.2943219"></circle>
                <circle id="Oval-3" fill="#FFA700" cx="411.164885" cy="66.774275" r="10.0618771"></circle>
                <g id="Path-16" transform="translate(211.985455, 50.317281) rotate(-1.000000) translate(-211.985455, -50.317281) ">
                    <use fill="black" fill-opacity="1" filter="url(#filter-3)" xlink:href="#path-2"></use>
                    <use stroke="#FFA700" stroke-width="2" xlink:href="#path-2"></use>
                </g>
                <g id="Imported-Layers" transform="translate(206.518056, 17.443327) rotate(-186.000000) translate(-206.518056, -17.443327) ">
                    <use fill="black" fill-opacity="1" filter="url(#filter-5)" xlink:href="#path-4"></use>
                    <use fill="#FFFFFF" fill-rule="evenodd" xlink:href="#path-4"></use>
                </g>
            </g>
        </g>
        <g id="001-favorite-heart-button"></g>
    </g>
</svg>