<svg width="56" height="56" viewBox="0 0 56 56" fill="none" xmlns="http://www.w3.org/2000/svg">
<path fill-rule="evenodd" clip-rule="evenodd" d="M39.1562 22.5036C38.004 23.4364 36.8778 24.4041 35.6916 25.2913C34.7461 25.9987 34.4157 26.834 34.5743 28.025C35.2755 33.2928 35.9125 38.5687 36.5678 43.8423C36.7335 45.1756 35.3481 47.1564 34.0547 47.431C33.4572 47.5579 33.2665 47.1373 33.084 46.6762C31.8101 43.457 30.5242 40.2423 29.2399 37.0271C28.7508 35.8023 28.265 34.5759 27.7604 33.3573C27.3744 32.4251 27.0561 32.3135 26.3007 32.9166C24.035 34.7253 21.7872 36.5562 19.5406 38.3888C18.9435 38.8759 18.6658 39.5206 18.7088 40.3058C18.7503 41.0641 18.7384 41.8258 18.7987 42.5821C18.8882 43.7005 18.5177 44.5614 17.5851 45.2149C16.6922 45.8408 16.3391 45.7749 15.883 44.7319C15.3016 43.4024 14.7097 42.0761 14.1808 40.7257C13.791 39.7309 13.1693 38.9723 12.2892 38.38C11.0583 37.5519 9.84655 36.6946 8.64008 35.8309C7.78114 35.2161 7.80027 34.8291 8.55959 34.1278C9.41885 33.3341 10.3448 33.1689 11.4745 33.4695C15.2699 34.4795 14.4712 34.5145 17.4005 32.1951C19.0275 30.9066 20.6349 29.593 22.2362 28.2728C23.2069 27.4724 23.1924 27.2076 22.1534 26.5112C18.3186 23.9414 14.4767 21.3819 10.6378 18.8184C9.45134 18.0262 9.49876 17.8256 10.5064 16.8512C11.7657 15.6331 13.0001 15.4193 14.7002 16.0554C19.4601 17.836 24.2992 19.4022 29.0908 21.0989C30.1218 21.464 30.9096 21.2781 31.7257 20.6035C34.1379 18.6097 36.5745 16.6442 39.0288 14.7023C40.2628 13.7257 41.757 13.6846 42.8841 14.4978C43.9529 15.2687 44.3892 16.6433 43.9801 17.9403C43.7632 18.6275 43.321 19.1431 42.768 19.5822C42.1485 20.0738 41.5374 20.5756 40.9227 21.0731C40.3339 21.5497 39.7451 22.0267 39.1562 22.5036Z" fill="white"/>
</svg>
