<svg width="98" height="101" viewBox="0 0 98 101" fill="none" xmlns="http://www.w3.org/2000/svg">
<g filter="url(#filter0_d)">
<path fill-rule="evenodd" clip-rule="evenodd" d="M28.8339 44.6419C31.806 44.6411 34.7817 44.7257 37.7495 44.6134C40.1151 44.5242 41.6837 45.3902 42.939 47.4028C48.4915 56.305 54.1546 65.1401 59.786 73.9943C61.2097 76.233 65.8674 77.5426 68.2292 76.3634C69.3203 75.8186 69.0869 74.9415 68.7897 74.0125C66.7136 67.5277 64.6622 61.035 62.6076 54.5436C61.8246 52.0709 61.0344 49.5997 60.2835 47.1173C59.7089 45.2184 60.0642 44.655 62.0021 44.6415C67.8143 44.6009 73.6266 44.6165 79.4393 44.6359C80.9842 44.6411 82.2302 45.2815 83.1537 46.5324C84.0455 47.7404 85.025 48.8876 85.8851 50.1159C87.1566 51.9324 88.82 52.7879 91.0976 52.6324C93.2784 52.4839 93.7455 51.947 93.1405 49.7924C92.3694 47.046 91.6185 44.2915 90.7392 41.5779C90.0917 39.5788 90.1035 37.6534 90.7278 35.6623C91.6012 32.8783 92.408 30.0732 93.1985 27.265C93.7613 25.2658 93.2433 24.699 91.1754 24.5676C88.8352 24.4186 87.1839 25.3108 85.8028 27.1651C81.1627 33.3955 82.4513 32.4621 74.9608 32.5434C70.8001 32.5885 66.6383 32.5707 62.4776 32.5355C59.9554 32.514 59.6439 32.0922 60.3844 29.746C63.1183 21.0875 65.8761 12.436 68.6243 3.78211C69.4739 1.10763 69.1468 0.86012 66.3476 0.618813C62.8486 0.316789 60.6553 1.51589 58.8086 4.58699C53.6377 13.1847 48.0728 21.5532 42.7465 30.062C41.6005 31.8929 40.1383 32.5827 38.0157 32.562C31.7416 32.5013 25.4655 32.5139 19.1913 32.5841C16.0364 32.6193 13.6563 34.4028 12.9257 37.0359C12.2327 39.5326 13.2869 42.1686 15.5607 43.6415C16.7653 44.4218 18.1049 44.6618 19.5206 44.6483C21.106 44.6329 22.6914 44.6432 24.2767 44.6426C25.7955 44.642 27.3147 44.6422 28.8339 44.6419" fill="#FFA700"/>
</g>
<defs>
<filter id="filter0_d" x="0.715088" y="0.573608" width="96.6954" height="100.232" filterUnits="userSpaceOnUse" color-interpolation-filters="sRGB">
<feFlood flood-opacity="0" result="BackgroundImageFix"/>
<feColorMatrix in="SourceAlpha" type="matrix" values="0 0 0 0 0 0 0 0 0 0 0 0 0 0 0 0 0 0 127 0"/>
<feOffset dx="-4" dy="16"/>
<feGaussianBlur stdDeviation="4"/>
<feColorMatrix type="matrix" values="0 0 0 0 0.663292 0 0 0 0 0.287794 0 0 0 0 0.0188566 0 0 0 0.358809 0"/>
<feBlend mode="normal" in2="BackgroundImageFix" result="effect1_dropShadow"/>
<feBlend mode="normal" in="SourceGraphic" in2="effect1_dropShadow" result="shape"/>
</filter>
</defs>
</svg>
