<?xml version="1.0" encoding="UTF-8"?>
<svg width="40px" height="7px" viewBox="0 0 40 7" version="1.1" xmlns="http://www.w3.org/2000/svg" xmlns:xlink="http://www.w3.org/1999/xlink">
    <!-- Generator: Sketch 52.5 (67469) - http://www.bohemiancoding.com/sketch -->
    <title>Group 15</title>
    <desc>Created with Sketch.</desc>
    <g id="Desktop" stroke="none" stroke-width="1" fill="none" fill-rule="evenodd">
        <g id="Homepage-Copy" transform="translate(-364.000000, -3326.000000)" fill="#FFFFFF">
            <g id="Group-18" transform="translate(166.000000, 3279.000000)">
                <g id="Group-17" transform="translate(197.000000, 14.000000)">
                    <g id="Group-15" transform="translate(1.540000, 33.189999)">
                        <path d="M0,2.35234443 L1.67989934,3.88295265 C1.71257813,3.91300621 1.72760688,3.95628987 1.71939349,3.99908353 L1.32287923,6.15999985 L3.4001666,5.13915881 C3.44035976,5.11939532 3.4887663,5.11939532 3.52983323,5.13915881 L5.60642159,6.15999985 L5.20973257,3.99908353 C5.2022182,3.95628987 5.21724695,3.91300621 5.24992573,3.88295265 L6.92999983,2.35234443 L4.60840795,2.03710872 C4.56262269,2.03139201 4.5236528,2.00460514 4.50320672,1.96573151 L3.46499991,0 L2.42661836,1.96573151 C2.40617227,2.00460514 2.36650337,2.03139201 2.32159188,2.03776205 L0,2.35234443 Z" id="Path"></path>
                        <path d="M8.0849998,2.35234443 L9.76489914,3.88295265 C9.79757793,3.91300621 9.81260668,3.95628987 9.80439329,3.99908353 L9.40787903,6.15999985 L11.4851664,5.13915881 C11.5253596,5.11939532 11.5737661,5.11939532 11.614833,5.13915881 L13.6914214,6.15999985 L13.2947324,3.99908353 C13.287218,3.95628987 13.3022467,3.91300621 13.3349255,3.88295265 L15.0149996,2.35234443 L12.6934077,2.03710872 C12.6476225,2.03139201 12.6086526,2.00460514 12.5882065,1.96573151 L11.5499997,0 L10.5116182,1.96573151 C10.4911721,2.00460514 10.4515032,2.03139201 10.4065917,2.03776205 L8.0849998,2.35234443 Z" id="Path-Copy"></path>
                        <path d="M16.1699996,2.35234443 L17.8498989,3.88295265 C17.8825777,3.91300621 17.8976065,3.95628987 17.8893931,3.99908353 L17.4928788,6.15999985 L19.5701662,5.13915881 C19.6103594,5.11939532 19.6587659,5.11939532 19.6998328,5.13915881 L21.7764212,6.15999985 L21.3797322,3.99908353 C21.3722178,3.95628987 21.3872465,3.91300621 21.4199253,3.88295265 L23.0999994,2.35234443 L20.7784075,2.03710872 C20.7326223,2.03139201 20.6936524,2.00460514 20.6732063,1.96573151 L19.6349995,0 L18.596618,1.96573151 C18.5761719,2.00460514 18.536503,2.03139201 18.4915915,2.03776205 L16.1699996,2.35234443 Z" id="Path-Copy-2"></path>
                        <path d="M24.2549994,2.35234443 L25.9348987,3.88295265 C25.9675775,3.91300621 25.9826063,3.95628987 25.9743929,3.99908353 L25.5778786,6.15999985 L27.655166,5.13915881 C27.6953592,5.11939532 27.7437657,5.11939532 27.7848326,5.13915881 L29.861421,6.15999985 L29.464732,3.99908353 C29.4572176,3.95628987 29.4722463,3.91300621 29.5049251,3.88295265 L31.1849992,2.35234443 L28.8634073,2.03710872 C28.8176221,2.03139201 28.7786522,2.00460514 28.7582061,1.96573151 L27.7199993,0 L26.6816178,1.96573151 C26.6611717,2.00460514 26.6215028,2.03139201 26.5765913,2.03776205 L24.2549994,2.35234443 Z" id="Path-Copy-3"></path>
                        <path d="M32.3399992,2.35234443 L34.0198985,3.88295265 C34.0525773,3.91300621 34.0676061,3.95628987 34.0593927,3.99908353 L33.6628784,6.15999985 L35.7401658,5.13915881 C35.780359,5.11939532 35.8287655,5.11939532 35.8698324,5.13915881 L37.9464208,6.15999985 L37.5497318,3.99908353 C37.5422174,3.95628987 37.5572461,3.91300621 37.5899249,3.88295265 L39.269999,2.35234443 L36.9484071,2.03710872 C36.9026219,2.03139201 36.863652,2.00460514 36.8432059,1.96573151 L35.8049991,0 L34.7666176,1.96573151 C34.7461715,2.00460514 34.7065026,2.03139201 34.6615911,2.03776205 L32.3399992,2.35234443 Z" id="Path-Copy-4"></path>
                    </g>
                </g>
            </g>
        </g>
        <g id="001-favorite-heart-button"></g>
    </g>
</svg>