<?xml version="1.0" encoding="UTF-8"?>
<svg width="20px" height="20px" viewBox="0 0 20 20" version="1.1" xmlns="http://www.w3.org/2000/svg" xmlns:xlink="http://www.w3.org/1999/xlink">
    <!-- Generator: Sketch 52.5 (67469) - http://www.bohemiancoding.com/sketch -->
    <title>003-telegram</title>
    <desc>Created with Sketch.</desc>
    <defs>
        <polygon id="path-1" points="0 0 20 0 20 19.996875 0 19.996875"></polygon>
    </defs>
    <g id="Desktop" stroke="none" stroke-width="1" fill="none" fill-rule="evenodd">
        <g id="Homepage-Copy" transform="translate(-659.000000, -6245.000000)">
            <g id="003-telegram" transform="translate(659.000000, 6245.000000)">
                <g id="Group-3">
                    <mask id="mask-2" fill="white">
                        <use xlink:href="#path-1"></use>
                    </mask>
                    <g id="Clip-2"></g>
                    <path d="M0,20 L20,20 L20,0 L0,0 L0,20 Z M16.9148958,4.42546875 L14.565,15.728125 C14.5096875,15.9950521 14.1967708,16.1159375 13.9760417,15.955625 L10.7684375,13.6267187 C10.5735417,13.4853125 10.3080208,13.4928125 10.1216667,13.6447917 L8.34328125,15.0945833 C8.13682292,15.2632812 7.82572917,15.1692708 7.74677083,14.9149479 L6.51182292,10.9435937 L3.32135417,9.7528125 C2.99723958,9.63135417 2.99458333,9.17401042 3.31765625,9.04947917 L16.4113542,3.99822917 C16.6890625,3.89078125 16.9753125,4.13411458 16.9148958,4.42546875 Z" id="Fill-1" fill="#000000" mask="url(#mask-2)"></path>
                </g>
                <path d="M13.7831771,6.46932292 L7.5478125,10.3096354 C7.30875,10.4571354 7.19645833,10.7458333 7.27333333,11.0160417 L7.94760417,13.3847917 C7.995625,13.5526562 8.23911458,13.5355729 8.26234375,13.3620312 L8.43770833,12.0629687 C8.47067708,11.8184375 8.58723958,11.5930208 8.76833333,11.4247396 L13.9141667,6.64145833 C14.0104167,6.55213542 13.8952604,6.40057292 13.7831771,6.46932292 Z" id="Fill-4" fill="#000000"></path>
            </g>
        </g>
        <g id="001-favorite-heart-button"></g>
    </g>
</svg>