<?xml version="1.0" encoding="UTF-8"?>
<svg width="76px" height="76px" viewBox="0 0 76 76" version="1.1" xmlns="http://www.w3.org/2000/svg" xmlns:xlink="http://www.w3.org/1999/xlink">
    <!-- Generator: Sketch 52.5 (67469) - http://www.bohemiancoding.com/sketch -->
    <title>004-compass</title>
    <desc>Created with Sketch.</desc>
    <defs>
        <polygon id="path-1" points="0 0 76 0 76 75.988125 0 75.988125"></polygon>
    </defs>
    <g id="Desktop" stroke="none" stroke-width="1" fill="none" fill-rule="evenodd">
        <g id="Homepage-Copy" transform="translate(-255.000000, -1711.000000)">
            <g id="004-compass" transform="translate(255.000000, 1711.000000)">
                <g id="Group-3">
                    <mask id="mask-2" fill="white">
                        <use xlink:href="#path-1"></use>
                    </mask>
                    <g id="Clip-2"></g>
                    <path d="M38,0 C17.0131146,0 0,17.0131146 0,38 C0,58.9868854 17.0131146,76 38,76 C58.9868854,76 76,58.9868854 76,38 C75.9768438,17.0232083 58.9767917,0.02315625 38,0 Z M38,73.4664688 C18.4123854,73.4664688 2.53353125,57.5876146 2.53353125,38 C2.53353125,18.4123854 18.4123854,2.53353125 38,2.53353125 C57.5876146,2.53353125 73.4664688,18.4123854 73.4664688,38 C73.4441042,57.5783125 57.5783125,73.4441042 38,73.4664688 Z" id="Fill-1" fill="#FFA700" mask="url(#mask-2)"></path>
                </g>
                <path d="M38,6.51428571 C20.6106368,6.51428571 6.51428571,20.6106368 6.51428571,38 C6.51428571,55.3893632 20.6106368,69.4857143 38,69.4857143 C55.3893632,69.4857143 69.4857143,55.3893632 69.4857143,38 C69.4656421,20.6190986 55.3809014,6.53435786 38,6.51428571 Z M38,66.9666604 C22.0019118,66.9666604 9.03333964,53.9980882 9.03333964,38 C9.03333964,22.0019118 22.0019118,9.03333964 38,9.03333964 C53.9980882,9.03333964 66.9666604,22.0019118 66.9666604,38 C66.9489496,53.9904136 53.9904136,66.9489496 38,66.9666604 Z" id="Fill-4" fill="#FFA700"></path>
                <path d="M57.1710295,18.8262462 C56.7688334,18.4248115 56.1480481,18.3414017 55.653159,18.6224652 L33.0712784,31.5108695 C33.0574436,31.5201593 33.0513168,31.5347856 33.0372844,31.5432847 C32.8922171,31.6676089 32.7570318,31.802804 32.6329142,31.9478819 C32.6244157,31.960927 32.6095928,31.9678449 32.6010943,31.9818783 L19.7090773,54.5653939 C19.426453,55.0609117 19.5106474,55.6833232 19.9128435,56.0871297 C20.3166208,56.4893549 20.9389872,56.5735554 21.4344691,56.2909106 L44.0125946,43.4025063 C44.0264294,43.3932166 44.0325562,43.3785902 44.0465886,43.3700911 C44.1916559,43.2457669 44.3268413,43.1105718 44.4509588,42.965494 C44.4594573,42.9524488 44.4742802,42.945531 44.4827787,42.9314976 L57.3747957,20.351935 C57.6595941,19.8554289 57.5763879,19.2300527 57.1710295,18.8262462 Z M24.2030016,51.796661 L33.9760715,34.6802465 L41.3250943,42.0228835 L24.2030016,51.796661 Z M43.1078015,40.2400472 L35.7718229,32.9029445 L52.8869982,23.129167 L43.1078015,40.2400472 Z" id="Fill-5" fill="#FFA700"></path>
                <path d="M17.1908061,35.8285714 L12.1234796,35.8285714 C11.4238078,35.8285714 10.8571429,36.5573304 10.8571429,37.4571429 C10.8571429,38.3569553 11.4238078,39.0857143 12.1234796,39.0857143 L17.1908061,39.0857143 C17.8896862,39.0857143 18.4571429,38.3569553 18.4571429,37.4571429 C18.4571429,36.5573304 17.8896862,35.8285714 17.1908061,35.8285714 Z" id="Fill-6" fill="#FFA700"></path>
                <path d="M63.8765204,35.8285714 L58.8091939,35.8285714 C58.1103138,35.8285714 57.5428571,36.5573304 57.5428571,37.4571429 C57.5428571,38.3569553 58.1103138,39.0857143 58.8091939,39.0857143 L63.8765204,39.0857143 C64.5761922,39.0857143 65.1428571,38.3569553 65.1428571,37.4571429 C65.1428571,36.5573304 64.5761922,35.8285714 63.8765204,35.8285714 Z" id="Fill-7" fill="#FFA700"></path>
                <path d="M38.5428571,18.4571429 C39.4426696,18.4571429 40.1714286,17.8896862 40.1714286,17.1908061 L40.1714286,12.1234796 C40.1714286,11.4238078 39.4426696,10.8571429 38.5428571,10.8571429 C37.6430447,10.8571429 36.9142857,11.4238078 36.9142857,12.1234796 L36.9142857,17.1908061 C36.9142857,17.8896862 37.6430447,18.4571429 38.5428571,18.4571429 Z" id="Fill-8" fill="#FFA700"></path>
                <path d="M38.5428571,57.5428571 C37.6430447,57.5428571 36.9142857,58.1103138 36.9142857,58.8091939 L36.9142857,63.8765204 C36.9142857,64.5761922 37.6430447,65.1428571 38.5428571,65.1428571 C39.4426696,65.1428571 40.1714286,64.5761922 40.1714286,63.8765204 L40.1714286,58.8091939 C40.1714286,58.1103138 39.4426696,57.5428571 38.5428571,57.5428571 Z" id="Fill-9" fill="#FFA700"></path>
            </g>
        </g>
        <g id="001-favorite-heart-button"></g>
    </g>
</svg>