<?xml version="1.0" encoding="UTF-8"?>
<svg width="63px" height="61px" viewBox="0 0 63 61" version="1.1" xmlns="http://www.w3.org/2000/svg" xmlns:xlink="http://www.w3.org/1999/xlink">
    <!-- Generator: Sketch 52.5 (67469) - http://www.bohemiancoding.com/sketch -->
    <title>airport</title>
    <desc>Created with Sketch.</desc>
    <defs>
        <polygon id="path-1" points="0 0 63 0 63 60.992375 0 60.992375"></polygon>
    </defs>
    <g id="Desktop" stroke="none" stroke-width="1" fill="none" fill-rule="evenodd">
        <g id="Homepage-Copy" transform="translate(-262.000000, -1406.000000)">
            <g id="airport" transform="translate(262.000000, 1406.000000)">
                <g id="Group-3">
                    <mask id="mask-2" fill="white">
                        <use xlink:href="#path-1"></use>
                    </mask>
                    <g id="Clip-2"></g>
                    <path d="M61.95,35.5833333 L58.8,35.5833333 L58.8,30.5 C58.8,29.9385458 58.3298625,29.4833333 57.75,29.4833333 L36.75,29.4833333 C36.1701375,29.4833333 35.7,29.9385458 35.7,30.5 L35.7,35.5833333 L23.1,35.5833333 L23.1,16.2666667 L25.2,16.2666667 C25.6516312,16.2661583 26.0526,15.9861938 26.1956625,15.5711396 L28.2956625,9.47113958 C28.3314937,9.36794792 28.349475,9.25916458 28.35,9.15 L28.35,4.06666667 C28.35,3.5052125 27.8798625,3.05 27.3,3.05 L15.75,3.05 L15.75,1.01666667 C15.75,0.4552125 15.2798625,0 14.7,0 C14.1201375,0 13.65,0.4552125 13.65,1.01666667 L13.65,3.05 L2.1,3.05 C1.5201375,3.05 1.05,3.5052125 1.05,4.06666667 L1.05,9.15 C1.050525,9.25916458 1.06850625,9.36794792 1.1043375,9.47113958 L3.2043375,15.5711396 C3.3474,15.9861938 3.74836875,16.2661583 4.2,16.2666667 L6.3,16.2666667 L6.3,35.5833333 L1.05,35.5833333 C0.4701375,35.5833333 0,36.0385458 0,36.6 L0,59.9833333 C0,60.5447875 0.4701375,61 1.05,61 L61.95,61 C62.5298625,61 63,60.5447875 63,59.9833333 L63,36.6 C63,36.0385458 62.5298625,35.5833333 61.95,35.5833333 Z M37.8,35.5833333 L56.7,35.5833333 L56.7,31.5166667 L37.8,31.5166667 L37.8,35.5833333 Z M3.15,8.13333333 L26.25,8.13333333 L26.25,5.08333333 L3.15,5.08333333 L3.15,8.13333333 Z M4.9573125,14.2333333 L3.5566125,10.1666667 L25.8433875,10.1666667 L24.4426875,14.2333333 L4.9573125,14.2333333 Z M8.4,24.4 L21,24.4 L21,20.3333333 L8.4,20.3333333 L8.4,24.4 Z M8.4,35.5833333 L21,35.5833333 L21,26.4333333 L8.4,26.4333333 L8.4,35.5833333 Z M8.4,18.3 L21,18.3 L21,16.2666667 L8.4,16.2666667 L8.4,18.3 Z M2.1,58.9666667 L60.9,58.9666667 L60.9,37.6166667 L2.1,37.6166667 L2.1,58.9666667 Z" id="Fill-1" fill="#FFA700" mask="url(#mask-2)"></path>
                </g>
                <path d="M18.9285714,44 L6.07142857,44 C5.47973214,44 5,44.44775 5,45 L5,56 C5,56.55225 5.47973214,57 6.07142857,57 L18.9285714,57 C19.5202679,57 20,56.55225 20,56 L20,45 C20,44.44775 19.5202679,44 18.9285714,44 Z M7.14285714,55 L17.8571429,55 L17.8571429,46 L7.14285714,46 L7.14285714,55 Z" id="Fill-4" fill="#FFA700"></path>
                <path d="M37.9285714,44 L25.0714286,44 C24.4797321,44 24,44.44775 24,45 L24,56 C24,56.55225 24.4797321,57 25.0714286,57 L37.9285714,57 C38.5202679,57 39,56.55225 39,56 L39,45 C39,44.44775 38.5202679,44 37.9285714,44 Z M26.1428571,55 L36.8571429,55 L36.8571429,46 L26.1428571,46 L26.1428571,55 Z" id="Fill-5" fill="#FFA700"></path>
                <path d="M56.9285714,44 L44.0714286,44 C43.4797321,44 43,44.44775 43,45 L43,56 C43,56.55225 43.4797321,57 44.0714286,57 L56.9285714,57 C57.5202679,57 58,56.55225 58,56 L58,45 C58,44.44775 57.5202679,44 56.9285714,44 Z M45.1428571,55 L55.8571429,55 L55.8571429,46 L45.1428571,46 L45.1428571,55 Z" id="Fill-6" fill="#FFA700"></path>
                <path d="M6.96149224,42 L10.0385078,42 C10.5694919,42 11,41.328375 11,40.5 C11,39.671625 10.5694919,39 10.0385078,39 L6.96149224,39 C6.43050815,39 6,39.671625 6,40.5 C6,41.328375 6.43050815,42 6.96149224,42 Z" id="Fill-7" fill="#FFA700"></path>
                <path d="M13.9614922,42 L17.0385078,42 C17.5694919,42 18,41.328375 18,40.5 C18,39.671625 17.5694919,39 17.0385078,39 L13.9614922,39 C13.4305081,39 13,39.671625 13,40.5 C13,41.328375 13.4305081,42 13.9614922,42 Z" id="Fill-8" fill="#FFA700"></path>
                <path d="M26,40.5 C26,39.671625 25.5699209,39 25.0383922,39 L21.9616078,39 C21.4305599,39 21,39.671625 21,40.5 C21,41.328375 21.4305599,42 21.9616078,42 L25.0383922,42 C25.5699209,42 26,41.328375 26,40.5 Z" id="Fill-9" fill="#FFA700"></path>
                <path d="M29.9614922,42 L33.0385078,42 C33.5694919,42 34,41.328375 34,40.5 C34,39.671625 33.5694919,39 33.0385078,39 L29.9614922,39 C29.4305081,39 29,39.671625 29,40.5 C29,41.328375 29.4305081,42 29.9614922,42 Z" id="Fill-10" fill="#FFA700"></path>
                <path d="M41.0383922,39 L37.9616078,39 C37.4300791,39 37,39.671625 37,40.5 C37,41.328375 37.4300791,42 37.9616078,42 L41.0383922,42 C41.5694401,42 42,41.328375 42,40.5 C42,39.671625 41.5694401,39 41.0383922,39 Z" id="Fill-11" fill="#FFA700"></path>
                <path d="M45.9614922,42 L49.0385078,42 C49.5694919,42 50,41.328375 50,40.5 C50,39.671625 49.5694919,39 49.0385078,39 L45.9614922,39 C45.4305081,39 45,39.671625 45,40.5 C45,41.328375 45.4305081,42 45.9614922,42 Z" id="Fill-12" fill="#FFA700"></path>
                <path d="M56.0385078,39 L52.9614922,39 C52.4305081,39 52,39.671625 52,40.5 C52,41.328375 52.4305081,42 52.9614922,42 L56.0385078,42 C56.5694919,42 57,41.328375 57,40.5 C57,39.671625 56.5694919,39 56.0385078,39 Z" id="Fill-13" fill="#FFA700"></path>
                <g id="Group-17" transform="translate(26.000000, 0.000000)" fill="#FFA700">
                    <path d="M0,22.9166667 C0.00449652778,23.3611979 0.0677048611,23.8027344 0.188211806,24.2304688 C0.309104167,24.6841146 0.715076389,24.9994792 1.17886111,25 L25.5433611,25 C26.0071458,24.9994792 26.4131181,24.6841146 26.5340104,24.2304688 C26.6545174,23.8027344 26.7177257,23.3611979 26.7222222,22.9166667 C26.697684,21.3800781 26.0166528,19.9295573 24.8559063,18.941276 C23.6946458,17.9529948 22.1674965,17.5236979 20.6695104,17.7648437 C19.3611493,15.1351563 16.684816,13.4949219 13.7791597,13.5427083 C10.8740174,13.5910156 8.25138542,15.3183594 7.02781597,17.9895833 C6.47628472,17.8033854 5.8991875,17.7083333 5.31759375,17.7083333 C2.43300694,17.6651042 0.0562708333,19.993099 0,22.9166667 Z M5.31759375,19.7916667 C5.94530903,19.7921875 6.56004861,19.9696615 7.09359375,20.3044271 C7.37404861,20.4808594 7.72092361,20.5104167 8.02604514,20.3832031 C8.33168056,20.2565104 8.55792014,19.9885417 8.63526042,19.6635417 C9.28712847,17.3411458 11.3431979,15.7109375 13.7239167,15.6290365 C16.1051493,15.5471354 18.2656667,17.031901 19.0715729,19.3044271 C19.2462951,19.8516927 19.8253194,20.1518229 20.3654167,19.9747396 C20.7000868,19.859375 21.050816,19.7972656 21.4046285,19.7916667 C23.1555764,19.7449219 24.6139931,21.1420573 24.6666667,22.9166667 L2.05555556,22.9166667 C2.10822917,21.1420573 3.56664583,19.7449219 5.31759375,19.7916667 Z" id="Fill-14"></path>
                    <path d="M30.9472882,4.22317708 C29.6389271,1.59348958 26.9625937,-0.0467447917 24.0569375,0.00104166667 C21.1517951,0.0493489583 18.5291632,1.77669271 17.3055938,4.44791667 C16.7540625,4.26171875 16.1769653,4.16666667 15.5953715,4.16666667 C12.7107847,4.1234375 10.3340486,6.45143229 10.2777778,9.375 C10.2822743,9.81953125 10.3454826,10.2610677 10.4659896,10.6888021 C10.5868819,11.1424479 10.9928542,11.4578125 11.4566389,11.4583333 L35.8211389,11.4583333 C36.2849236,11.4578125 36.6908958,11.1424479 36.8117882,10.6888021 C36.9322951,10.2610677 36.9955035,9.81953125 37,9.375 C36.9754618,7.83841146 36.2944306,6.38789062 35.133684,5.39960937 C33.9724236,4.41132812 32.4452743,3.98203125 30.9472882,4.22317708 Z M12.3333333,9.375 C12.3860069,7.60039062 13.8444236,6.20325521 15.5953715,6.25 C16.2230868,6.25052083 16.8378264,6.42799479 17.3713715,6.76276042 C17.6518264,6.93919271 17.9987014,6.96875 18.3038229,6.84153646 C18.6094583,6.71484375 18.8356979,6.446875 18.9130382,6.121875 C19.5649062,3.79947917 21.6209757,2.16927083 24.0016944,2.08736979 C26.3829271,2.00546875 28.5434444,3.49023438 29.3493507,5.76276042 C29.5240729,6.31002604 30.1030972,6.61015625 30.6431944,6.43307292 C30.9778646,6.31770833 31.3285938,6.25559896 31.6824063,6.25 C33.4333542,6.20325521 34.8917708,7.60039062 34.9444444,9.375 L12.3333333,9.375 Z" id="Fill-16"></path>
                </g>
            </g>
        </g>
        <g id="001-favorite-heart-button"></g>
    </g>
</svg>