<?xml version="1.0" encoding="UTF-8"?>
<svg width="69px" height="69px" viewBox="0 0 69 69" version="1.1" xmlns="http://www.w3.org/2000/svg" xmlns:xlink="http://www.w3.org/1999/xlink">
    <!-- Generator: Sketch 52.5 (67469) - http://www.bohemiancoding.com/sketch -->
    <title>001-airplane</title>
    <desc>Created with Sketch.</desc>
    <defs>
        <polygon id="path-1" points="0 0.0896169632 68.9999518 0.0896169632 68.9999518 68.9892187 0 68.9892187"></polygon>
    </defs>
    <g id="Desktop" stroke="none" stroke-width="1" fill="none" fill-rule="evenodd">
        <g id="Homepage-Copy" transform="translate(-550.000000, -1716.000000)">
            <g id="001-airplane" transform="translate(550.000000, 1716.000000)">
                <g id="Group-3">
                    <mask id="mask-2" fill="white">
                        <use xlink:href="#path-1"></use>
                    </mask>
                    <g id="Clip-2"></g>
                    <path d="M58.2643906,24.4698437 L63.4429844,19.8660703 L63.46275,19.8498984 C67.62575,15.9929062 69.629625,10.3376016 68.8251641,4.71967187 L68.6370312,3.3853125 C68.4111641,1.86910937 67.2207344,0.677960937 65.7045312,0.451375 L64.3800547,0.264679687 C58.7508047,-0.5419375 53.0843594,1.4705625 49.2232344,5.64685937 L44.62,10.8254531 L42.1318672,9.39424219 C35.5817187,5.63769531 28.1611641,3.66670312 20.6099766,3.67730469 L18.4691797,3.68503125 C16.4167891,3.69473437 14.5230625,4.79190625 13.4941719,6.56847656 L13.0905937,7.26889844 C12.7732656,7.82 12.9621172,8.52455469 13.5123203,8.84260156 L35.4854062,21.5294375 L18.3148281,40.9834844 L17.0000547,42.673625 C13.4345156,40.7202422 9.4343125,39.6940469 5.36816406,39.6906328 L3.63094531,39.6829062 C2.40188281,39.6969219 1.26895312,40.3524219 0.645078125,41.4123984 L0.155070312,42.2518984 C0.0014375,42.5171172 -0.0400703125,42.8322891 0.0393515625,43.127875 C0.117875,43.4232812 0.311578125,43.6759219 0.576976562,43.8282969 L11.7639609,50.2871641 C11.4466328,50.9000781 11.1461953,51.5155078 10.8725312,52.1472891 C10.2709375,53.5722109 10.4182812,55.2026953 11.2662266,56.4962656 C12.1134531,57.7898359 13.5495156,58.5766875 15.0959062,58.5942969 C15.7311016,58.5935781 16.3585703,58.4629453 16.9411172,58.2117422 C16.9705859,58.1998828 17.0000547,58.1864062 17.0275469,58.1709531 C17.6045234,57.9231641 18.1982109,57.6311719 18.8012422,57.3203125 L25.2601094,68.5065781 C25.4124844,68.7732344 25.6636875,68.968375 25.9599922,69.0485156 C26.2561172,69.1291953 26.5720078,69.0876875 26.8379453,68.9347734 L27.6858906,68.4447656 L27.6921797,68.4447656 C28.7514375,67.8158594 29.4049609,66.6780781 29.4132266,65.4463203 L29.4055,63.7308437 C29.4006484,59.6611016 28.3717578,55.6574844 26.4133437,52.0897891 L28.0797656,50.7933437 L47.5490859,33.6022812 L60.2423906,55.5782422 C60.5609766,56.1291641 61.2657109,56.3180156 61.8166328,56.0006875 L62.5172344,55.5978281 C64.2938047,54.5689375 65.3915156,52.6744922 65.3999609,50.6206641 L65.4069687,48.4818437 C65.437875,40.9293984 63.4654453,33.5025547 59.6920078,26.9601328 L58.2643906,24.4698437 Z M18.477625,5.9915 L20.6184219,5.98377344 C27.7624375,5.96760156 34.7849844,7.83329687 40.9798906,11.3925469 L43.0836719,12.6027422 L37.0240703,19.76275 L15.6770156,7.43457031 C16.3262266,6.53397656 17.3671562,5.99778906 18.477625,5.9915 Z M3.63651562,41.989375 L5.36672656,41.9971016 C8.92328125,41.9978203 12.4264687,42.8617578 15.5760312,44.5147031 L14.8515312,45.4483594 C14.4325,45.9775391 14.0352109,46.5361875 13.6478047,47.1111875 C13.5320859,47.2766797 13.4287656,47.4466641 13.3186172,47.61575 C13.1768437,47.8362266 13.0280625,48.0487969 12.8904219,48.274125 L2.74167187,42.4188281 C2.96125,42.1492969 3.28917969,41.9920703 3.63651562,41.989375 Z M27.0927422,63.7322812 L27.1011875,65.4364375 C27.1011875,65.7895234 26.9425234,66.1235625 26.6695781,66.3467344 L20.815,56.1979844 C21.0388906,56.0617812 21.2487656,55.9165937 21.4670859,55.7753594 C21.6383281,55.6603594 21.8131641,55.5550625 21.9815312,55.4406016 C22.5408984,55.0650547 23.0842734,54.6790859 23.5958437,54.2762266 L23.6303437,54.2508906 L24.5763984,53.51525 C26.2302422,56.6667891 27.0934609,60.1728516 27.0927422,63.7322812 Z M26.6070469,49.0174922 L24.2331953,50.8627031 C24.227625,50.8627031 24.2198984,50.8627031 24.2143281,50.8725859 L22.2025469,52.4414375 C21.0915391,53.3131016 19.91225,54.0951016 18.6763594,54.7793516 C17.822125,55.2630703 16.9432734,55.7009687 16.0433984,56.0919687 C16.0175234,56.1018516 15.9929062,56.1129922 15.9675703,56.1262891 C15.1000391,56.4612266 14.1160703,56.2443437 13.4688359,55.5768047 C12.8210625,54.9078281 12.635625,53.9173906 12.9985937,53.0604609 C13.3915703,52.1535781 13.8318047,51.2684375 14.3189375,50.4079141 C15.004625,49.1662734 15.7878828,47.9814141 16.6624219,46.865375 L18.2194141,44.8670703 C18.2194141,44.8670703 18.2194141,44.8552109 18.2283984,44.8496406 L20.0912187,42.4504531 L50.9308047,7.19738281 C53.7659141,4.13910156 57.7456328,2.39846875 61.9163594,2.3934375 C62.6302578,2.3934375 63.3434375,2.44464844 64.0494297,2.54796875 L65.3739062,2.73538281 C65.8793672,2.80977344 66.2780937,3.205625 66.3544609,3.71234375 L66.5425937,5.04526562 C67.2374453,9.910125 65.5023828,14.8066094 61.89875,18.1477187 L26.6070469,49.0174922 Z M63.0983437,50.6136562 C63.0920547,51.7234062 62.5551484,52.7628984 61.6538359,53.4113906 L49.3278125,32.0587656 L56.4899766,26.0049141 L57.7014297,28.1112109 C61.272,34.3034219 63.1362578,41.3322578 63.1046328,48.4798672 L63.0983437,50.6136562 Z" id="Fill-1" fill="#FFA700" mask="url(#mask-2)"></path>
                </g>
                <path d="M55.7363768,8.30849527 C57.1581394,7.46675511 58.9703886,7.69594458 60.1382785,8.86501769 C61.3061683,10.0357829 61.5337329,11.8484291 60.6903718,13.2701935 C60.3504341,13.8438252 60.5398521,14.5840376 61.1124282,14.9249076 C61.6850043,15.2642734 62.4255761,15.0762591 62.7655137,14.5026274 C64.170364,12.1325187 63.7924675,9.11112845 61.8456713,7.16047976 C59.8998147,5.2113352 56.8798377,4.82797398 54.5089181,6.2307489 C54.1330887,6.44734141 53.9034569,6.84988009 53.9062757,7.28306511 C53.9085306,7.71794225 54.1441757,8.11672065 54.5228238,8.32898883 C54.9016598,8.54050495 55.3648695,8.53317239 55.7363768,8.30849527 Z" id="Fill-4" fill="#FFA700"></path>
            </g>
        </g>
        <g id="001-favorite-heart-button"></g>
    </g>
</svg>