<?xml version="1.0" encoding="UTF-8"?>
<svg width="55px" height="70px" viewBox="0 0 55 70" version="1.1" xmlns="http://www.w3.org/2000/svg" xmlns:xlink="http://www.w3.org/1999/xlink">
    <!-- Generator: Sketch 52.5 (67469) - http://www.bohemiancoding.com/sketch -->
    <title>tourist</title>
    <desc>Created with Sketch.</desc>
    <g id="Desktop" stroke="none" stroke-width="1" fill="none" fill-rule="evenodd">
        <g id="Homepage-Copy" transform="translate(-549.000000, -1399.000000)" fill="#FFA700">
            <g id="tourist" transform="translate(549.000000, 1399.000000)">
                <path d="M51.4130221,41.2555208 L51.4130221,32.6666667 C51.4071933,28.1589583 47.6631613,24.5056875 43.0434643,24.5 L37.1246925,24.5 C37.503116,23.7577083 37.7897734,22.9744375 37.9800314,22.1666667 L38.2608599,22.1666667 C40.2417549,22.1666667 41.8478132,20.5995417 41.8478132,18.6666667 C41.8379491,16.7377292 40.2377196,15.1762917 38.2608599,15.1666667 L38.2608599,11.6666667 C38.9211583,11.6666667 39.456511,11.1442917 39.456511,10.5 C39.4500844,4.70370833 34.6359447,0.00627083333 28.6956511,0 L26.3043489,0 C20.8275196,0.0074375 16.2277003,4.02295833 15.6141818,9.33333333 L11.9565357,9.33333333 C11.2962373,9.33333333 10.7608846,9.85570833 10.7608846,10.5 C10.7608846,11.1442917 11.2962373,11.6666667 11.9565357,11.6666667 L16.7391401,11.6666667 L16.7391401,15.1666667 C14.7622804,15.1762917 13.1620509,16.7377292 13.1521868,18.6666667 C13.1521868,20.5995417 14.7582451,22.1666667 16.7391401,22.1666667 L17.0199686,22.1666667 C17.2102266,22.9744375 17.4974818,23.7577083 17.8753075,24.5 L11.9565357,24.5 C7.33683872,24.5056875 3.59280674,28.1589583 3.58697794,32.6666667 L3.58697794,41.2531875 C1.24469743,44.5577708 -0.00640198931,48.4821458 2.463537e-05,52.5 L2.463537e-05,68.8333333 C2.463537e-05,69.477625 0.535377417,70 1.19567574,70 L53.8043243,70 C54.4646226,70 54.9999754,69.477625 54.9999754,68.8333333 L54.9999754,52.5 C55.006402,48.4827292 53.7547048,44.5595208 51.4130221,41.2555208 Z M52.5735294,62.8409091 L44.0808872,62.8409091 L44.0808872,49.7744657 C44.0833137,48.8436232 43.6993273,47.9503536 43.0146122,47.2936324 L42.9280181,47.2108843 C41.3309561,45.6785834 40.4352911,43.594239 40.4412056,41.4223219 L40.4411765,35.7954545 C47.7217821,38.2488027 52.5918278,44.8791729 52.5734777,52.3146554 L52.5735294,62.8409091 Z M13.75,56.1694531 L18.7596297,51.3944673 C20.8283854,49.4158097 21.9992207,46.6960653 22.0067402,43.8524183 L22.0067402,35 L23.1862745,35 L23.1862745,38.4943182 C23.1862745,41.0673011 25.2988205,43.1534091 27.9044118,43.1534091 C30.5100031,43.1534091 32.622549,41.0673011 32.622549,38.4943182 L32.622549,35 L33.8020833,35 L33.8020833,43.8524183 C33.8084233,46.6972301 34.9798483,49.418576 37.0491939,51.3978161 L42.0588235,56.1694531 L42.0588235,67.6136364 L13.75,67.6136364 L13.75,56.1694531 Z M16.337556,41.7291727 L16.337556,35.3261357 L16.4442589,35.3011285 C16.6542684,35.2570682 16.8659761,35.2238741 17.0776837,35.1878518 C17.2286811,35.1628446 17.3789709,35.1332229 17.5311004,35.1116393 C17.7947444,35.0750216 18.0583883,35.0512052 18.3231644,35.0273889 C18.4171309,35.0186066 18.5101068,35.0058052 18.6029412,35 L18.6029412,44.0073594 C18.5985542,46.2697678 17.7239865,48.434529 16.1777847,50.0078993 L12.9411765,53.2954545 L12.9411765,50.2329643 C12.9411765,49.9172482 13.0606158,49.6143335 13.2728895,49.3910548 L13.3535536,49.3060601 C15.2706683,47.3013153 16.3453394,44.5731476 16.337556,41.7291727 Z M23.4558824,11.9318182 C22.5276209,13.3589925 21.0502682,14.2390858 19.450271,14.3181818 L19.4117647,14.3181818 L19.4117647,11.9318182 L23.4558824,11.9318182 Z M35.5882353,11.9318182 C35.0873078,13.3569247 33.7508589,14.3117685 32.2486695,14.3181818 L31.086411,14.3181818 C29.3323495,14.2524077 27.7085974,13.370348 26.6911765,11.9318182 L35.5882353,11.9318182 Z M19.4117647,16.292818 L19.4117647,16.2838725 L19.4763695,16.2838725 C21.7968336,16.2111538 23.9768658,15.2078093 25.4779412,13.5227273 C26.9991866,15.2310389 29.2154642,16.2387119 31.5683824,16.292818 L32.7573529,16.292818 C34.0743199,16.2883453 35.3532215,15.8723772 36.3970588,15.1086868 L36.3970588,19.7556119 C36.3940257,21.5913254 35.7353906,23.3716343 34.5286765,24.8043653 C32.5653585,27.1557465 29.3871369,28.2688905 26.2895956,27.6900268 C26.0229871,27.6415477 25.7575919,27.5806602 25.4950781,27.5075087 C25.2349908,27.43479 24.9779366,27.3518272 24.7243704,27.2550133 C23.3772243,26.7296786 22.1918934,25.8876426 21.2801471,24.8078281 C20.0728263,23.37452 19.4141912,21.5923354 19.4117647,19.7556119 L19.4117647,16.292818 Z M25.0735294,34.1205712 L25.0735294,30.2272727 C25.1243979,30.2396463 25.1752663,30.2432678 25.2261348,30.2538306 C25.4863814,30.3080027 25.7482934,30.3505557 26.0120221,30.3852621 C26.1261733,30.4012572 26.2385078,30.4229864 26.352659,30.4347564 C26.4431928,30.4448665 26.5331209,30.4507515 26.6235033,30.4578436 C26.7146426,30.4653885 26.7814074,30.4578436 26.8660368,30.46901 C27.0776859,30.48078 27.2888808,30.4990386 27.501741,30.4990386 C27.7442745,30.4990386 27.992561,30.48078 28.2369113,30.4643322 C28.2930785,30.4643322 28.3486402,30.4643322 28.4042019,30.4554293 C28.4839866,30.4554293 28.5639228,30.4436593 28.6467354,30.4347564 C28.7672452,30.4229864 28.8779143,30.4012572 28.9938823,30.3852621 C29.2545831,30.3493486 29.5136186,30.3080027 29.7714429,30.2538306 C29.8223114,30.2432678 29.8756021,30.2396463 29.9264706,30.2272727 L29.9264706,38.9492813 C29.9264706,40.2826089 28.8424881,41.3636364 27.5041633,41.3636364 C26.1664442,41.3636364 25.0818561,40.2826089 25.0818561,38.9492813 L25.0735294,34.1205712 Z M37.1230386,35.0457753 C37.2065496,35.0546166 37.2904853,35.0601781 37.3739963,35.0718715 C37.8092445,35.1264882 38.2348676,35.219037 38.6617647,35.3070225 L38.6617647,41.4205217 C38.6539798,44.1449368 39.7288658,46.7586926 41.6469301,48.6792591 L41.7270441,48.760685 C41.9393603,48.9745883 42.0588235,49.2647838 42.0588235,49.5672431 L42.0588235,52.5 L38.8227004,49.3516285 C37.2761893,47.8437528 36.4008805,45.7698889 36.3970588,43.6019076 L36.3970588,35 C36.6392408,35.0173975 36.8831213,35.0183957 37.1230386,35.0457753 Z M49.3382353,33.0348152 L49.3382353,38.9772727 C49.3115441,38.9508991 49.2813649,38.9281219 49.2534605,38.9017483 C48.8359559,38.4979021 48.4028309,38.1133866 47.9537822,37.7474525 C47.8596048,37.6708791 47.7636075,37.5953546 47.6676103,37.5198302 C47.2044577,37.1526973 46.7287178,36.8003996 46.2346278,36.4767233 C46.2020221,36.4537962 46.1671415,36.4346154 46.1339292,36.4128871 C45.6559145,36.1026973 45.1636443,35.8134865 44.6624265,35.5454046 C44.5676425,35.4932567 44.4746783,35.4406593 44.3798943,35.3915085 C43.8656342,35.1238761 43.339545,34.8793207 42.8022335,34.6567932 C42.6944072,34.6112388 42.5865809,34.568981 42.4789062,34.5262737 C41.9243061,34.3055445 41.3621232,34.0995005 40.7887178,33.9268731 L40.7318474,33.9111389 C40.4888971,33.8378621 40.2389706,33.7735764 39.9913189,33.7097403 C39.9694807,33.7026973 39.9540119,33.6892108 39.9321737,33.6833666 C39.8663557,33.6664336 39.7999311,33.6559441 39.7342647,33.6400599 C39.5583456,33.5955544 39.3787868,33.5598901 39.2004412,33.52003 C39.115818,33.5024975 39.0316498,33.4809191 38.9458134,33.4638362 C38.8877298,33.4521479 38.8302528,33.4364136 38.7721691,33.4257742 L38.5405928,33.3824675 C38.2976425,33.337962 38.0554504,33.3046953 37.8125,33.2684316 C37.6412822,33.2432567 37.4730974,33.2122378 37.3018796,33.1917083 C37.1804044,33.1776224 37.0701517,33.1689311 36.9535294,33.156044 C36.8367555,33.1425574 36.7242279,33.1355145 36.6098805,33.1260739 L36.4174311,33.1079421 C36.2959559,33.0986513 36.1744807,33.0827672 36.0436029,33.0746753 C35.6289798,33.0495005 35.2041958,33.0348152 34.7794118,33.0348152 L32.3529412,33.0348152 L32.3529412,29.497003 C32.4998943,29.4249251 32.6491222,29.3594406 32.7919807,29.2803197 C32.9133042,29.2118382 33.0347794,29.1304695 33.1562546,29.0573427 C33.411034,28.9028472 33.6633869,28.7465534 33.9043658,28.577972 C34.0441912,28.4784715 34.1740074,28.3677323 34.3073116,28.2623876 C34.5187178,28.0956044 34.7260294,27.9264236 34.9239384,27.7443556 C35.0572426,27.6244755 35.1822059,27.495005 35.3083824,27.3668831 C35.4162086,27.2579421 35.5329825,27.1584416 35.6348943,27.0454545 L43.2720588,27.0454545 C46.6184651,27.0496503 49.3317142,29.7282218 49.3382353,33.0348152 Z M39.400094,17.8664577 C39.5505285,18.0837657 39.6343392,18.3826575 39.6323172,18.6931828 C39.6323172,19.3521169 39.2701825,19.8863636 38.8235294,19.8863636 L38.8235294,17.5 C39.0419021,17.4994054 39.2504683,17.6316993 39.400094,17.8664577 Z M26.7313537,2.38636364 L29.0774698,2.38636364 C33.1573657,2.39158381 36.6170072,5.43867187 37.2058824,9.54545455 L18.6029412,9.54545455 C19.1918163,5.43867187 22.6514578,2.39158381 26.7313537,2.38636364 Z M15.3676484,18.6932082 C15.367244,18.3710562 15.4573266,18.0633713 15.6160579,17.8426375 C15.7633647,17.6207106 15.9659746,17.4970699 16.1764706,17.5000527 L16.1764706,19.8863636 C15.7297985,19.8863636 15.3676484,19.3521283 15.3676484,18.6932082 Z M5.66176471,33.0377296 C5.66585853,29.7296942 8.37855054,27.0494993 11.7266957,27.0454545 L19.3682055,27.0454545 C19.4973885,27.1882205 19.6390047,27.3175038 19.7751624,27.4527794 C19.848548,27.5258852 19.9190529,27.6025863 19.995471,27.6732952 C20.299324,27.9589769 20.6186427,28.2275806 20.9526687,28.4774585 C21.0046755,28.5159589 21.0592599,28.5481673 21.1114183,28.5856191 C21.4026866,28.7940004 21.7036588,28.9882999 22.0140317,29.1679184 C22.1147095,29.2252944 22.2166003,29.2808728 22.3183396,29.3358519 C22.4202304,29.390831 22.5345544,29.4628881 22.6470588,29.5178673 L22.6470588,33.0377296 L20.2175991,33.0377296 C18.4786318,33.0395273 16.7461842,33.2571967 15.0624077,33.6860938 C14.5394591,33.8177741 14.0265175,33.9764195 13.5182763,34.1483978 C13.3631657,34.2017291 13.2115424,34.2589553 13.0587062,34.3151329 C12.6945071,34.4498093 12.3307628,34.591976 11.9730835,34.7464269 C11.8167599,34.8136902 11.6608912,34.8799048 11.5082066,34.9518121 C11.0953364,35.1408684 10.6908055,35.3444559 10.2952204,35.5616759 C10.2210766,35.6025732 10.1446584,35.6371786 10.0724858,35.6815214 C9.60396985,35.9442827 9.14728055,36.2241219 8.7013565,36.5201403 C8.58051275,36.6008862 8.46740178,36.6858267 8.3495905,36.7671719 C8.02132611,36.9977246 7.69806529,37.2369662 7.37935316,37.4862449 C7.2460763,37.5915591 7.11401243,37.6974726 6.98255505,37.8063822 C6.65914261,38.072589 6.34588892,38.3488329 6.04264237,38.6355632 C5.95015217,38.721103 5.85599412,38.8022983 5.76486853,38.8894859 C5.73454388,38.9200465 5.70088351,38.9474612 5.67010399,38.9772727 L5.66176471,33.0377296 Z M5.8369117,42.0925284 C8.01161956,39.1873665 11.0542391,36.9910016 14.5588235,35.7954545 L14.5587944,41.4390971 C14.5647089,43.609313 13.6690447,45.692025 12.0719841,47.2231258 L11.9853901,47.305809 C11.3006756,47.9615777 10.9160829,48.8540016 10.919116,49.7846994 L10.919116,62.8409091 L2.42647059,62.8409091 L2.42653302,52.3228996 C2.41652391,48.6519682 3.61018678,45.0711703 5.8369117,42.0925284 Z M2.42647059,67.6136364 L10.5147059,67.6136364 L10.5147059,65.2272727 L2.42647059,65.2272727 L2.42647059,67.6136364 Z M44.4852941,67.6136364 L52.5735294,67.6136364 L52.5735294,65.2272727 L44.4852941,65.2272727 L44.4852941,67.6136364 Z" id="Fill-1" transform="translate(27.500000, 35.000000) scale(-1, 1) translate(-27.500000, -35.000000) "></path>
            </g>
        </g>
        <g id="001-favorite-heart-button"></g>
    </g>
</svg>