<?xml version="1.0" encoding="utf-8"?>
<!-- Generator: Adobe Illustrator 16.0.0, SVG Export Plug-In . SVG Version: 6.00 Build 0)  -->
<!DOCTYPE svg PUBLIC "-//W3C//DTD SVG 1.1//EN" "http://www.w3.org/Graphics/SVG/1.1/DTD/svg11.dtd">
<svg version="1.1" id="Layer_1" xmlns="http://www.w3.org/2000/svg" xmlns:xlink="http://www.w3.org/1999/xlink" x="0px" y="0px"
	 width="24.66px" height="26.239px" viewBox="0 -2.714 24.66 26.239" enable-background="new 0 -2.714 24.66 26.239"
	 xml:space="preserve">
<g>
	<polygon fill="#FFFFFF" points="16.925,8.9 20.925,4.9 16.925,0.9 7.925,0.9 3.925,4.9 7.925,8.9 	"/>
</g>
<polygon fill="#FFFFFF" points="16.425,21.9 8.425,21.9 6.925,14.4 9.425,11.9 15.425,11.9 17.925,14.4 "/>
<polygon fill="#FFF219" points="8.025,19.9 8.425,21.9 16.425,21.9 16.826,19.9 "/>
<g>
	<polygon fill="#FFF219" points="3.925,4.9 7.925,8.9 16.925,8.9 20.925,4.9 18.925,4.9 16.425,7.4 8.425,7.4 5.925,4.9 	"/>
</g>
<polygon fill="#FFF219" points="11.425,5.4 9.925,6.4 8.425,5.4 8.425,3.9 9.925,2.9 11.425,3.9 "/>
<polygon fill="#FFF219" points="13.425,5.4 14.925,6.4 16.425,5.4 16.425,3.9 14.925,2.9 13.425,3.9 "/>
<g>
	<g>
		<polygon fill="none" stroke="#0B00EA" stroke-linecap="round" stroke-linejoin="round" stroke-miterlimit="10" points="
			16.925,8.9 20.925,4.9 16.925,0.9 7.925,0.9 3.925,4.9 7.925,8.9 		"/>
	</g>
	<polygon fill="none" stroke="#0B00EA" stroke-linecap="round" stroke-linejoin="round" stroke-miterlimit="10" points="11.425,5.4 
		9.925,6.4 8.425,5.4 8.425,3.9 9.925,2.9 11.425,3.9 	"/>
	<polygon fill="none" stroke="#0B00EA" stroke-linecap="round" stroke-linejoin="round" stroke-miterlimit="10" points="13.425,5.4 
		14.925,6.4 16.425,5.4 16.425,3.9 14.925,2.9 13.425,3.9 	"/>
	
		<line fill="none" stroke="#0B00EA" stroke-linecap="round" stroke-linejoin="round" stroke-miterlimit="10" x1="12.425" y1="-1.1" x2="12.425" y2="0.9"/>
	<polygon fill="none" stroke="#0B00EA" stroke-linecap="round" stroke-linejoin="round" stroke-miterlimit="10" points="
		16.425,21.9 8.425,21.9 6.925,14.4 9.425,11.9 15.425,11.9 17.925,14.4 	"/>
	
		<line fill="none" stroke="#0B00EA" stroke-linecap="round" stroke-linejoin="round" stroke-miterlimit="10" x1="12.425" y1="8.9" x2="12.425" y2="11.9"/>
	
		<line fill="none" stroke="#0B00EA" stroke-linecap="round" stroke-linejoin="round" stroke-miterlimit="10" x1="8.025" y1="19.9" x2="16.826" y2="19.9"/>
	<polyline fill="none" stroke="#0B00EA" stroke-linecap="round" stroke-linejoin="round" stroke-miterlimit="10" points="
		3.425,14.4 3.925,17.4 7.332,16.427 	"/>
	<polyline fill="none" stroke="#0B00EA" stroke-linecap="round" stroke-linejoin="round" stroke-miterlimit="10" points="
		1.426,10.9 1.426,12.4 3.425,14.4 5.425,12.4 5.425,10.9 	"/>
	<polyline fill="none" stroke="#0B00EA" stroke-linecap="round" stroke-linejoin="round" stroke-miterlimit="10" points="
		21.425,14.4 20.925,17.4 17.55,16.275 	"/>
	<polyline fill="none" stroke="#0B00EA" stroke-linecap="round" stroke-linejoin="round" stroke-miterlimit="10" points="
		23.425,10.9 23.425,12.4 21.425,14.4 19.425,12.4 19.425,10.9 	"/>
</g>
</svg>
