<?xml version="1.0" encoding="utf-8"?>
<!-- Generator: Adobe Illustrator 16.0.0, SVG Export Plug-In . SVG Version: 6.00 Build 0)  -->
<!DOCTYPE svg PUBLIC "-//W3C//DTD SVG 1.1//EN" "http://www.w3.org/Graphics/SVG/1.1/DTD/svg11.dtd">
<svg version="1.1" id="Layer_1" xmlns="http://www.w3.org/2000/svg" xmlns:xlink="http://www.w3.org/1999/xlink" x="0px" y="0px"
	 width="24.66px" height="26.239px" viewBox="0 -2.714 24.66 26.239" enable-background="new 0 -2.714 24.66 26.239"
	 xml:space="preserve">
<polygon fill="#FFFFFF" points="14.389,11.465 12.389,12.715 10.389,11.465 10.389,9.465 12.389,8.215 14.389,9.465 "/>
<polygon fill="#FFF219" points="14.389,11.465 14.389,9.465 12.389,8.215 12.389,12.715 "/>
<line fill="none" stroke="#0B00EA" stroke-linecap="round" stroke-linejoin="round" stroke-miterlimit="10" x1="12.389" y1="18.215" x2="12.389" y2="22.215"/>
<line fill="none" stroke="#0B00EA" stroke-linecap="round" stroke-linejoin="round" stroke-miterlimit="10" x1="23.389" y1="11.215" x2="19.389" y2="11.215"/>
<line fill="none" stroke="#0B00EA" stroke-linecap="round" stroke-linejoin="round" stroke-miterlimit="10" x1="5.389" y1="11.215" x2="1.39" y2="11.215"/>
<line fill="none" stroke="#0B00EA" stroke-linecap="round" stroke-linejoin="round" stroke-miterlimit="10" x1="12.389" y1="-0.785" x2="12.389" y2="3.215"/>
<polygon fill="none" stroke="#0B00EA" stroke-linecap="round" stroke-linejoin="round" stroke-miterlimit="10" points="4.389,5.715 
	12.389,1.715 20.389,5.715 20.389,15.715 12.389,19.715 4.389,15.715 "/>
<polygon fill="none" stroke="#0B00EA" stroke-linecap="round" stroke-linejoin="round" stroke-miterlimit="10" points="
	14.389,11.465 12.389,12.715 10.389,11.465 10.389,9.465 12.389,8.215 14.389,9.465 "/>
</svg>
