<?xml version="1.0" encoding="utf-8"?>
<!-- Generator: Adobe Illustrator 16.0.0, SVG Export Plug-In . SVG Version: 6.00 Build 0)  -->
<!DOCTYPE svg PUBLIC "-//W3C//DTD SVG 1.1//EN" "http://www.w3.org/Graphics/SVG/1.1/DTD/svg11.dtd">
<svg version="1.1" id="Layer_1" xmlns="http://www.w3.org/2000/svg" xmlns:xlink="http://www.w3.org/1999/xlink" x="0px" y="0px"
	 width="24.66px" height="23.958px" viewBox="0 -1.6 24.66 23.958" enable-background="new 0 -1.6 24.66 23.958"
	 xml:space="preserve">
<polygon fill="#FFFFFF" points="19.129,9.5 19.129,-0.5 1.13,-0.5 1.13,12.5 3.129,12.5 3.129,16.5 7.629,12.5 9.129,12.5 
	11.129,12.5 11.129,18.5 18.129,18.5 21.129,21.5 21.129,18.5 23.129,18.5 23.129,9.5 "/>
<polygon fill="#FFF219" points="23.129,18.5 23.129,17 11.129,17 11.129,18.5 18.129,18.5 21.129,21.5 21.129,18.5 "/>
<g>
	<g>
		<g>
			<polyline fill="none" stroke="#0B00EA" stroke-linecap="round" stroke-linejoin="round" stroke-miterlimit="10" points="6.629,6 
				8.129,7.5 12.129,7.5 13.629,6 			"/>
			
				<line fill="none" stroke="#0B00EA" stroke-linecap="round" stroke-linejoin="round" stroke-miterlimit="10" x1="8.129" y1="2.5" x2="8.129" y2="3.378"/>
			
				<line fill="none" stroke="#0B00EA" stroke-linecap="round" stroke-linejoin="round" stroke-miterlimit="10" x1="12.129" y1="2.5" x2="12.129" y2="3.378"/>
		</g>
		<g>
			<polyline fill="none" stroke="#0B00EA" stroke-linecap="round" stroke-linejoin="round" stroke-miterlimit="10" points="
				9.129,12.5 7.629,12.5 3.129,16.5 3.129,12.5 1.13,12.5 1.13,-0.5 19.129,-0.5 19.129,7.5 			"/>
			<polygon fill="none" stroke="#0B00EA" stroke-linecap="round" stroke-linejoin="round" stroke-miterlimit="10" points="
				23.129,18.5 23.129,9.5 11.129,9.5 11.129,18.5 18.129,18.5 21.129,21.5 21.129,18.5 			"/>
		</g>
	</g>
	<g>
		<g>
			<path fill="#0B00EA" d="M15.196,13.267H15.2H15.196 M14.629,12.5c-0.051,0-0.102,0.02-0.141,0.059l-0.801,0.8
				c-0.076,0.078-0.076,0.205,0,0.283l0.801,0.799c0.039,0.039,0.09,0.059,0.141,0.059c0.053,0,0.104-0.02,0.143-0.059l0.799-0.799
				c0.078-0.078,0.078-0.205,0-0.283l-0.799-0.8C14.733,12.52,14.682,12.5,14.629,12.5L14.629,12.5z"/>
		</g>
	</g>
	<g>
		<g>
			<path fill="#0B00EA" d="M18.196,13.267H18.2H18.196 M17.629,12.5c-0.051,0-0.102,0.02-0.141,0.059l-0.801,0.8
				c-0.076,0.078-0.076,0.205,0,0.283l0.801,0.799c0.039,0.039,0.09,0.059,0.141,0.059c0.053,0,0.104-0.02,0.143-0.059l0.799-0.799
				c0.078-0.078,0.078-0.205,0-0.283l-0.799-0.8C17.733,12.52,17.682,12.5,17.629,12.5L17.629,12.5z"/>
		</g>
	</g>
	<g>
		<g>
			<path fill="#0B00EA" d="M21.196,13.267H21.2H21.196 M20.629,12.5c-0.051,0-0.102,0.02-0.141,0.059l-0.801,0.8
				c-0.076,0.078-0.076,0.205,0,0.283l0.801,0.799c0.039,0.039,0.09,0.059,0.141,0.059c0.053,0,0.104-0.02,0.143-0.059l0.799-0.799
				c0.078-0.078,0.078-0.205,0-0.283l-0.799-0.8C20.733,12.52,20.682,12.5,20.629,12.5L20.629,12.5z"/>
		</g>
	</g>
</g>
</svg>
