<svg xmlns="http://www.w3.org/2000/svg" width="30" height="30" viewBox="0 0 30 30">
  <path id="arrow-circle-left" d="M30,15A15,15,0,1,1,15,0,15,15,0,0,1,30,15ZM15,1.935A13.065,13.065,0,1,0,28.065,15,13.064,13.064,0,0,0,15,1.935ZM14.244,7.53,7.282,14.486a.726.726,0,0,0,0,1.028l6.962,6.956a.726.726,0,0,0,1.028,0l.417-.417a.723.723,0,0,0-.012-1.034l-5.171-4.99h11.51a.728.728,0,0,0,.726-.726v-.6a.728.728,0,0,0-.726-.726H10.506l5.177-4.99A.728.728,0,0,0,15.7,7.948l-.417-.417A.734.734,0,0,0,14.244,7.53Z"/>
</svg>
