<svg xmlns="http://www.w3.org/2000/svg" width="17.144" height="14.852" viewBox="0 0 17.144 14.852">
  <g id="Group_206" data-name="Group 206" transform="translate(-146.84 -516.181)">
    <g id="Group_205" data-name="Group 205" transform="translate(146.84 516.181)">
      <path id="Path_88" data-name="Path 88" d="M39.169,52.157v1.47H38.6v-1.47h-.574v1.47h-.564v-1.47h-.574v1.47h-.564v-1.47H35.75v1.47h-.564v-1.47h-.574v1.47h-.564v-1.47h-.333V46.251h.333V43.913h.564v2.338h.574V43.913h.564v2.338h.574V43.913h.564v2.338h.574V43.913h.564v2.338H38.6V43.913h.569v2.338h.569V43.284h-7.4V54.256h7.4v-2.1Zm-5.7,1.47H32.9V43.913h.569Z" transform="translate(-30.502 -41.794)" fill="#01acb4"/>
      <path id="Path_89" data-name="Path 89" d="M59.028,69.2H45.015a.3.3,0,0,0-.3.3v5.32a.3.3,0,0,0,.3.3H59.027a.3.3,0,0,0,.3-.3V69.5A.3.3,0,0,0,59.028,69.2Zm-.294,5.32H57.557c0-.006,0-.011,0-.017v-1.8a.3.3,0,0,0-.591,0v1.8a.13.13,0,0,0,0,.017H55.491c0-.006,0-.011,0-.017v-1.8a.3.3,0,0,0-.591,0v1.8a.134.134,0,0,0,0,.017H53.427c0-.006,0-.011,0-.017v-1.8a.3.3,0,0,0-.591,0v1.8a.134.134,0,0,0,0,.017H51.364V72.707a.3.3,0,0,0-.591,0v1.8a.133.133,0,0,0,0,.017H49.295c0-.006,0-.011,0-.017v-1.8a.3.3,0,0,0-.591,0v1.8a.119.119,0,0,0,0,.017H47.229c0-.006,0-.011,0-.017v-1.8a.3.3,0,0,0-.591,0v1.8a.133.133,0,0,0,0,.017H45.314V69.794H58.733Z" transform="translate(-42.179 -64.733)" fill="#01acb4"/>
      <path id="Path_90" data-name="Path 90" d="M23.484,37.8v3.6a.386.386,0,0,1-.371.4h-9.19a.386.386,0,0,1-.371-.4V28.572a.386.386,0,0,1,.371-.4h9.19a.386.386,0,0,1,.371.4v3.479h.569V28.572a.978.978,0,0,0-.94-1.011h-9.19a.978.978,0,0,0-.94,1.011V41.4a.978.978,0,0,0,.94,1.011h9.19a.978.978,0,0,0,.94-1.011V37.8Z" transform="translate(-12.983 -27.561)" fill="#01acb4"/>
    </g>
  </g>
</svg>
