<svg xmlns="http://www.w3.org/2000/svg" width="25.512" height="25.512" viewBox="0 0 25.512 25.512">
  <g id="Group_1288" data-name="Group 1288" transform="translate(-853.582 -5778)">
    <g id="Group_1287" data-name="Group 1287" transform="translate(853.582 5778)">
      <g id="Group_198" data-name="Group 198" transform="translate(0 0)">
        <path id="Path_75" data-name="Path 75" d="M12.756,25.512A12.756,12.756,0,1,1,25.512,12.756,12.771,12.771,0,0,1,12.756,25.512Zm0-24.829A12.073,12.073,0,1,0,24.83,12.756,12.091,12.091,0,0,0,12.756.682Z" transform="translate(0)" fill="#01acb4"/>
      </g>
    </g>
    <path id="lock-alt" d="M6.412,12.022a.574.574,0,0,1-.573-.573V9.617a.573.573,0,0,1,1.145,0v1.832A.574.574,0,0,1,6.412,12.022Zm6.412-4.237v5.5a1.374,1.374,0,0,1-1.374,1.374H1.374A1.374,1.374,0,0,1,0,13.281v-5.5A1.374,1.374,0,0,1,1.374,6.411h.458V4.579a4.58,4.58,0,1,1,9.16.043V6.411h.458A1.374,1.374,0,0,1,12.824,7.785ZM2.748,6.411h7.328V4.579a3.664,3.664,0,0,0-7.328,0Zm9.16,6.87v-5.5a.459.459,0,0,0-.458-.458H1.374a.459.459,0,0,0-.458.458v5.5a.459.459,0,0,0,.458.458H11.45A.459.459,0,0,0,11.908,13.281Z" transform="translate(860.131 5782.448)" fill="#01acb4"/>
  </g>
</svg>
