<svg xmlns="http://www.w3.org/2000/svg" width="25.514" height="25.514" viewBox="0 0 25.514 25.514">
  <g id="Group_1296" data-name="Group 1296" transform="translate(-32 -4903)">
    <path id="Subtraction_4" data-name="Subtraction 4" d="M6.529,15.058H6.513A6.494,6.494,0,0,1,1.734,12.4,8.619,8.619,0,0,1,0,9.368V1.809L6.586,0l6.588,1.809-.15,7.6a14.525,14.525,0,0,1-1.738,2.826C10.265,13.521,8.609,15.058,6.529,15.058ZM2.519,7.237c.015.036,1.481,3.591,2.8,3.716l.037,0c1.342,0,5.213-6.688,5.3-6.841a.712.712,0,0,1-.052.049c-1.019.928-4.4,3.966-5.121,4.076a.956.956,0,0,1-.143.01A9.416,9.416,0,0,1,2.519,7.237Z" transform="translate(38.17 4908.228)" fill="#ffffff"/>
    <g id="Group_1293" data-name="Group 1293" transform="translate(32 4903)">
      <g id="Group_198" data-name="Group 198">
        <path id="Path_75" data-name="Path 75" d="M12.757,25.514A12.757,12.757,0,1,1,25.514,12.757,12.772,12.772,0,0,1,12.757,25.514Zm0-24.831A12.074,12.074,0,1,0,24.832,12.757,12.092,12.092,0,0,0,12.757.683Z" transform="translate(0)" fill="#ffffff"/>
      </g>
    </g>
  </g>
</svg>
