<svg xmlns="http://www.w3.org/2000/svg" width="25.513" height="25.513" viewBox="0 0 25.513 25.513">
  <g id="Group_1292" data-name="Group 1292" transform="translate(-137.582 -5778)">
    <path id="shipping-fast" d="M7.147,36.084a.2.2,0,0,0,.2-.2v-.408a.2.2,0,0,0-.2-.2H1.021a.2.2,0,0,0-.2.2v.408a.2.2,0,0,0,.2.2Zm8.984,4.9h-.613V38.225a1.635,1.635,0,0,0-.48-1.154L12.9,34.93a1.626,1.626,0,0,0-1.154-.48H10.618V33.189A1.229,1.229,0,0,0,9.357,32H2.894a1.229,1.229,0,0,0-1.261,1.189v.444H.2a.2.2,0,0,0-.2.2v.408a.2.2,0,0,0,.2.2H6.33a.2.2,0,0,0,.2-.2v-.408a.2.2,0,0,0-.2-.2H2.45v-.444a.413.413,0,0,1,.444-.373H9.357a.413.413,0,0,1,.444.373v7.795H5.3a2.035,2.035,0,0,0-1.623-.817,2.012,2.012,0,0,0-1.225.419V38.534H1.634V42.21a2.042,2.042,0,0,0,4.084,0,2.151,2.151,0,0,0-.041-.408h4.982a1.962,1.962,0,0,0-.041.408,2.042,2.042,0,0,0,4.084,0,2.151,2.151,0,0,0-.041-.408h1.47a.2.2,0,0,0,.2-.2v-.408A.2.2,0,0,0,16.131,40.984ZM3.675,43.435A1.225,1.225,0,1,1,4.9,42.21,1.225,1.225,0,0,1,3.675,43.435Zm6.942-8.168h1.126a.815.815,0,0,1,.577.24l2.141,2.141a.683.683,0,0,1,.046.071h-3.89Zm2.042,8.168a1.225,1.225,0,1,1,1.225-1.225A1.225,1.225,0,0,1,12.66,43.435Zm2.042-2.45h-.419a2.022,2.022,0,0,0-3.247,0h-.419v-2.45H14.7ZM6.534,37.513V37.1a.2.2,0,0,0-.2-.2H.2a.2.2,0,0,0-.2.2v.408a.2.2,0,0,0,.2.2H6.33A.2.2,0,0,0,6.534,37.513Z" transform="translate(142.431 5752.712)" fill="#fff"/>
    <g id="Group_1291" data-name="Group 1291" transform="translate(137.582 5778)">
      <path id="Path_75" data-name="Path 75" d="M12.757,25.513A12.756,12.756,0,1,1,25.513,12.756,12.772,12.772,0,0,1,12.757,25.513Zm0-24.83A12.074,12.074,0,1,0,24.831,12.756,12.091,12.091,0,0,0,12.757.683Z" transform="translate(0)" fill="#fff"/>
    </g>
  </g>
</svg>
