<svg xmlns="http://www.w3.org/2000/svg" width="207.016" height="63.756" viewBox="0 0 207.016 63.756">
  <g id="Group_1406" data-name="Group 1406" transform="translate(-31.332 -32.808)">
    <g id="Group_1377" data-name="Group 1377" transform="translate(31.332 32.808)">
      <g id="Group_1376" data-name="Group 1376">
        <path id="Path_532" data-name="Path 532" d="M134.3,96.565l-.111-.008-97-7.183c-3.289-.026-5.858-2.1-5.858-4.75V42.988c0-2.663,2.6-4.748,5.918-4.748l97.59-5.432.085,0,97.59,5.429h.006c3.232,0,5.827,2.085,5.827,4.747V84.623c0,2.648-2.568,4.725-5.858,4.75Zm.537-60.7L37.334,41.285c-1.727,0-2.955.9-2.955,1.7V84.623c0,.8,1.227,1.7,2.871,1.7l.112,0,96.943,7.18,98.126-7.183c1.643,0,2.87-.9,2.87-1.7V42.988c0-.8-1.227-1.7-2.87-1.7Z" transform="translate(-31.332 -32.808)" fill="#01acb4"/>
      </g>
    </g>
    <g id="Group_1378" data-name="Group 1378" transform="translate(40.447 45.965)">
      <path id="Path_533" data-name="Path 533" d="M58.386,81.394A17.132,17.132,0,1,1,75.518,64.261,17.152,17.152,0,0,1,58.386,81.394Zm0-33.346A16.214,16.214,0,1,0,74.6,64.261,16.232,16.232,0,0,0,58.386,48.048ZM58.365,76.83,47.386,70.669,47.371,57.6,58.334,52l10.976,5.574.016,13.066Zm-10.06-6.7,10.058,5.644L68.406,70.1,68.39,58.136,58.335,53.031,48.289,58.163Z" transform="translate(-41.254 -47.129)" fill="#01acb4"/>
    </g>
    <g id="Group_1379" data-name="Group 1379" transform="translate(50.295 59.745)">
      <path id="Path_534" data-name="Path 534" d="M58.039,65.336l-5.107-3.207-.956.506,0,0V68.6l0,0,.956,1.668h0l5.111,2.957,0,0,.957-.506h.024V67l-.982-1.668Z" transform="translate(-51.973 -62.129)" fill="#01acb4"/>
    </g>
    <g id="Group_1380" data-name="Group 1380" transform="translate(58.025 59.745)">
      <path id="Path_535" data-name="Path 535" d="M66.475,62.129,61.37,65.336,60.387,67v5.708h.027l.956.506,0,0,5.11-2.957h0l.956-1.668v-5.96Z" transform="translate(-60.387 -62.129)" fill="#01acb4"/>
    </g>
    <g id="Group_1381" data-name="Group 1381" transform="translate(51.593 54.772)">
      <path id="Path_536" data-name="Path 536" d="M65.415,61.212l-.2-1.539-5.084-2.956H58.792l-5.171,2.962-.235,1.362,5.058,3.178H60.6Z" transform="translate(-53.386 -56.716)" fill="#01acb4"/>
    </g>
    <g id="Group_1391" data-name="Group 1391" transform="translate(79.531 52.174)">
      <g id="Group_1388" data-name="Group 1388" transform="translate(0 0)">
        <g id="Group_1382" data-name="Group 1382" transform="translate(0 0.244)">
          <path id="Path_537" data-name="Path 537" d="M90.524,55.67l-1.461-1.462.054-.055H85.261L83.8,55.617h0V74.7l0,0,1.462,1.462v0h3.8L90.524,74.7l.022.02V55.65Z" transform="translate(-83.796 -54.153)" fill="#01acb4"/>
        </g>
        <g id="Group_1383" data-name="Group 1383" transform="translate(11.303 0.244)">
          <path id="Path_538" data-name="Path 538" d="M120.31,54.208l.056-.055h-8.988l-7.632,14.167-7.63-14.167H96.1V67l5.125,9.161h5.047l8.845-15.81h.062v14.4l1.4,1.405H120.4l1.346-1.349V55.642Z" transform="translate(-96.1 -54.153)" fill="#01acb4"/>
        </g>
        <g id="Group_1384" data-name="Group 1384" transform="translate(94.784)">
          <path id="Path_539" data-name="Path 539" d="M208.918,67.691c0,2.736-.913,3.039-3.953,3.039h-7.2c-3.191,0-3.86-1.215-3.86-4.407V63.951c0-2.737.67-4.407,4.225-4.407h7.359c2.006,0,3.16.454,3.16,2.037v.608h5.287l1.445-1.446c-.184-5.109-1.955-6.855-10.775-6.855h-7.934c-6.081,0-9.7,1.52-9.7,7.965V68.42c0,6.445,3.618,7.966,9.7,7.966h10.884c6.778,0,8.118-2.918,8.118-6.627v-.8l-1.274-1.273Z" transform="translate(-186.968 -53.888)" fill="#01acb4"/>
        </g>
        <g id="Group_1385" data-name="Group 1385" transform="translate(41.537 0.243)">
          <path id="Path_540" data-name="Path 540" d="M148.371,61.693c0-4.316-1.551-7.54-7.965-7.54H130.224l-1.215,1.215v4.256h9.663c2.039,0,2.767.852,2.767,2.341v.851a2.057,2.057,0,0,1-2.187,2.344H129.009v4.349l1.123,1.121h12.037c4.774,0,6.2-3.768,6.2-7.052Z" transform="translate(-129.009 -54.153)" fill="#01acb4"/>
        </g>
        <g id="Group_1386" data-name="Group 1386" transform="translate(72.016 0.803)">
          <path id="Path_541" data-name="Path 541" d="M182.252,74.782l-11.006-20.02-3.491,6.86,3.153,5.956h-6.236l-2.487,4.744h11.247l2.1,3.893h5.308Z" transform="translate(-162.186 -54.762)" fill="#01acb4"/>
        </g>
        <g id="Group_1387" data-name="Group 1387" transform="translate(60.8 0.244)">
          <path id="Path_542" data-name="Path 542" d="M165.54,59.264l1.911-3.757L166.1,54.153h-4.935L149.977,74.806l1.359,1.359h5.448l5.164-9.933h0l3.588-6.972Z" transform="translate(-149.977 -54.153)" fill="#01acb4"/>
        </g>
      </g>
      <g id="Group_1390" data-name="Group 1390" transform="translate(128.136 0.244)">
        <g id="Group_1389" data-name="Group 1389" transform="translate(0)">
          <path id="Path_543" data-name="Path 543" d="M242.772,55.5l-1.348-1.35H224.6l-1.328,1.327V74.794l1.37,1.371h4.017l1.322-1.324V59.625h11.373l1.419-1.418Z" transform="translate(-223.272 -54.153)" fill="#01acb4"/>
        </g>
      </g>
    </g>
    <g id="Group_1401" data-name="Group 1401" transform="translate(98.067 77.33)">
      <g id="Group_1392" data-name="Group 1392" transform="translate(0 0.082)">
        <path id="Path_544" data-name="Path 544" d="M103.973,81.548a18.411,18.411,0,0,1,2.783-.189,5.857,5.857,0,0,1,3.729.973,4.027,4.027,0,0,1,1.54,3.431,4.619,4.619,0,0,1-1.513,3.689,6.534,6.534,0,0,1-4.2,1.175,17.744,17.744,0,0,1-2.337-.135Zm2.067,7.43a3.8,3.8,0,0,0,.716.04c1.865.014,3.08-1.013,3.08-3.188a2.612,2.612,0,0,0-2.865-2.892,4.214,4.214,0,0,0-.932.082Z" transform="translate(-103.973 -81.359)" fill="#01acb4"/>
      </g>
      <g id="Group_1393" data-name="Group 1393" transform="translate(9.971 2.5)">
        <path id="Path_545" data-name="Path 545" d="M121.731,87.369a3.315,3.315,0,0,1-3.486,3.526,3.237,3.237,0,0,1-3.419-3.4,3.3,3.3,0,0,1,3.527-3.5A3.214,3.214,0,0,1,121.731,87.369Zm-4.784.067c0,1.136.473,1.986,1.351,1.986.8,0,1.311-.8,1.311-1.986,0-.987-.378-1.985-1.311-1.985C117.312,85.451,116.947,86.463,116.947,87.436Z" transform="translate(-114.826 -83.991)" fill="#01acb4"/>
      </g>
      <g id="Group_1394" data-name="Group 1394" transform="translate(18.82 2.5)">
        <path id="Path_546" data-name="Path 546" d="M131.147,84.14c-.027.419-.054.973-.054,1.959v3.689a3.8,3.8,0,0,1-1,2.973,4.076,4.076,0,0,1-2.688.81,5.159,5.159,0,0,1-2.378-.514l.405-1.554a4.062,4.062,0,0,0,1.918.5,1.577,1.577,0,0,0,1.716-1.744v-.432h-.027a2.113,2.113,0,0,1-1.783.865c-1.635,0-2.8-1.323-2.8-3.229,0-2.12,1.379-3.472,3-3.472a1.993,1.993,0,0,1,1.811.932h.028l.066-.784Zm-2.107,2.688a1.6,1.6,0,0,0-.041-.379,1.125,1.125,0,0,0-1.107-.9c-.743,0-1.35.675-1.35,1.879,0,.986.486,1.756,1.35,1.756a1.114,1.114,0,0,0,1.08-.838,1.733,1.733,0,0,0,.068-.54Z" transform="translate(-124.458 -83.991)" fill="#01acb4"/>
      </g>
      <g id="Group_1395" data-name="Group 1395" transform="translate(31.487)">
        <path id="Path_547" data-name="Path 547" d="M145.352,90.268a5.843,5.843,0,0,1-2.336.392c-3.148,0-4.77-1.959-4.77-4.553a4.642,4.642,0,0,1,4.972-4.837,5.363,5.363,0,0,1,2.243.406l-.419,1.634a4.45,4.45,0,0,0-1.73-.338,2.994,2.994,0,0,0,.014,5.985,5.16,5.16,0,0,0,1.716-.3Z" transform="translate(-138.246 -81.27)" fill="#01acb4"/>
      </g>
      <g id="Group_1396" data-name="Group 1396" transform="translate(40.782 2.5)">
        <path id="Path_548" data-name="Path 548" d="M148.418,86.315c0-.973-.028-1.608-.054-2.175h1.77l.067,1.216h.053a1.942,1.942,0,0,1,1.784-1.365,2.079,2.079,0,0,1,.433.028v1.932a2.9,2.9,0,0,0-.554-.054,1.319,1.319,0,0,0-1.4,1.04,2.379,2.379,0,0,0-.041.459v3.351h-2.053Z" transform="translate(-148.364 -83.991)" fill="#01acb4"/>
      </g>
      <g id="Group_1397" data-name="Group 1397" transform="translate(46.402 2.5)">
        <path id="Path_549" data-name="Path 549" d="M158.67,90.747l-.122-.662h-.04a2.385,2.385,0,0,1-1.893.81,2.026,2.026,0,0,1-2.135-2.027c0-1.715,1.541-2.54,3.879-2.526v-.095c0-.351-.189-.851-1.2-.851a3.709,3.709,0,0,0-1.823.5l-.378-1.325a5.453,5.453,0,0,1,2.566-.581,2.569,2.569,0,0,1,2.9,2.851v2.3a10.183,10.183,0,0,0,.1,1.609Zm-.244-3.122c-1.079-.014-1.918.243-1.918,1.04a.739.739,0,0,0,.811.785,1.122,1.122,0,0,0,1.068-.757,1.5,1.5,0,0,0,.04-.352Z" transform="translate(-154.481 -83.991)" fill="#01acb4"/>
      </g>
      <g id="Group_1398" data-name="Group 1398" transform="translate(54.278 0.757)">
        <path id="Path_550" data-name="Path 550" d="M165.947,82.094v1.892h1.473V85.5h-1.473V87.89c0,.8.19,1.161.81,1.161a3.413,3.413,0,0,0,.609-.053l.013,1.554a4.024,4.024,0,0,1-1.337.175,2.139,2.139,0,0,1-1.542-.568,2.739,2.739,0,0,1-.567-1.959V85.5h-.879V83.986h.879V82.553Z" transform="translate(-163.055 -82.094)" fill="#01acb4"/>
      </g>
      <g id="Group_1399" data-name="Group 1399" transform="translate(60.4 2.5)">
        <path id="Path_551" data-name="Path 551" d="M171.677,88.1c.067.851.9,1.257,1.864,1.257a5.82,5.82,0,0,0,1.824-.271l.27,1.392a6.5,6.5,0,0,1-2.391.405c-2.243,0-3.525-1.3-3.525-3.363a3.309,3.309,0,0,1,3.337-3.527c2.134,0,2.945,1.662,2.945,3.3a4.81,4.81,0,0,1-.068.81Zm2.418-1.406a1.192,1.192,0,0,0-1.162-1.337,1.347,1.347,0,0,0-1.27,1.337Z" transform="translate(-169.718 -83.991)" fill="#01acb4"/>
      </g>
      <g id="Group_1400" data-name="Group 1400" transform="translate(68.547 2.5)">
        <path id="Path_552" data-name="Path 552" d="M178.951,88.949a4.012,4.012,0,0,0,1.769.5c.622,0,.878-.217.878-.554s-.2-.5-.973-.757c-1.364-.459-1.891-1.2-1.878-1.986,0-1.229,1.054-2.162,2.689-2.162a4.424,4.424,0,0,1,1.864.379l-.365,1.418a3.25,3.25,0,0,0-1.432-.378c-.5,0-.784.2-.784.541,0,.311.257.473,1.067.756,1.257.433,1.785,1.068,1.8,2.04,0,1.229-.973,2.134-2.865,2.134a4.674,4.674,0,0,1-2.134-.459Z" transform="translate(-178.586 -83.991)" fill="#01acb4"/>
      </g>
    </g>
    <g id="Group_1403" data-name="Group 1403" transform="translate(221.299 68.868)">
      <g id="Group_1402" data-name="Group 1402">
        <path id="Path_553" data-name="Path 553" d="M244.477,75.234a3.183,3.183,0,1,1-3.174-3.175A3.161,3.161,0,0,1,244.477,75.234Zm-5.847-.018a2.664,2.664,0,1,0,2.673-2.657A2.673,2.673,0,0,0,238.63,75.216Zm4.256,1.8h-.559L241.31,75.46h-.693v1.555h-.5V73.459h1.549c.641,0,1.267.175,1.267.942,0,.7-.476.991-1.109,1.009Zm-2.269-1.98h.934c.717,0,.886-.294.886-.641,0-.47-.492-.512-.869-.512h-.951Z" transform="translate(-238.111 -72.059)" fill="#01acb4"/>
      </g>
    </g>
  </g>
</svg>
