<svg xmlns="http://www.w3.org/2000/svg" width="51.022" height="44.644" viewBox="0 0 51.022 44.644">
  <path id="quote-left" d="M44.644,51.133H38.266V48.741a5.584,5.584,0,0,1,5.58-5.58h1.594a3.985,3.985,0,0,0,3.986-3.986V35.986A3.985,3.985,0,0,0,45.441,32H43.847A16.765,16.765,0,0,0,27.105,48.741V70.266a6.384,6.384,0,0,0,6.378,6.378H44.644a6.384,6.384,0,0,0,6.378-6.378V57.511A6.384,6.384,0,0,0,44.644,51.133Zm3.189,19.133a3.185,3.185,0,0,1-3.189,3.189H33.483a3.185,3.185,0,0,1-3.189-3.189V48.741A13.554,13.554,0,0,1,43.847,35.189h1.594a.8.8,0,0,1,.8.8v3.189a.8.8,0,0,1-.8.8H43.847a8.769,8.769,0,0,0-8.769,8.769v5.58h9.567a3.185,3.185,0,0,1,3.189,3.189ZM17.539,51.133H11.161V48.741a5.584,5.584,0,0,1,5.58-5.58h1.594a3.985,3.985,0,0,0,3.986-3.986V35.986A3.985,3.985,0,0,0,18.336,32H16.741A16.765,16.765,0,0,0,0,48.741V70.266a6.384,6.384,0,0,0,6.378,6.378H17.539a6.384,6.384,0,0,0,6.378-6.378V57.511A6.384,6.384,0,0,0,17.539,51.133Zm3.189,19.133a3.185,3.185,0,0,1-3.189,3.189H6.378a3.185,3.185,0,0,1-3.189-3.189V48.741A13.554,13.554,0,0,1,16.741,35.189h1.594a.8.8,0,0,1,.8.8v3.189a.8.8,0,0,1-.8.8H16.741a8.769,8.769,0,0,0-8.769,8.769v5.58h9.567a3.185,3.185,0,0,1,3.189,3.189Z" transform="translate(0 -32)" fill="#01acb4"/>
</svg>
