<svg width="22" height="13" viewBox="0 0 22 13" fill="none" xmlns="http://www.w3.org/2000/svg">
<path fill-rule="evenodd" clip-rule="evenodd" d="M13.4397 6.65072C13.4397 6.2251 13.393 5.89699 13.3275 5.56887V5.56884H6.85547V7.80352H10.7461C10.5872 8.75239 9.5677 10.6057 6.85547 10.6057C4.51733 10.6057 2.60936 8.77012 2.60936 6.5C2.60936 4.22988 4.51733 2.39427 6.85547 2.39427C8.19289 2.39427 9.08135 2.93519 9.58641 3.39632L11.4476 1.70259C10.2505 0.638456 8.7073 0 6.85547 0C3.06768 0 0 2.90858 0 6.5C0 10.0914 3.06768 13 6.85547 13C10.8116 13 13.4397 10.3663 13.4397 6.65072ZM19.9475 3.9V5.78679H21.9375V7.68266H19.9475V9.56946H17.948V7.68266H15.958V5.78679H17.948V3.9H19.9475Z" fill="white"/>
</svg>
