<svg width="13" height="13" viewBox="0 0 13 13" fill="none" xmlns="http://www.w3.org/2000/svg">
<path fill-rule="evenodd" clip-rule="evenodd" d="M1.56081 3.13683C0.699174 3.13683 0 2.42299 0 1.56116C0 0.69933 0.699174 0 1.56081 0C2.42245 0 3.12162 0.69933 3.12162 1.56116C3.12162 2.42299 2.42245 3.13683 1.56081 3.13683ZM2.90984 13H0.214684V4.32076H2.90984V13ZM10.3077 13H12.9971H13V8.23237C13 5.89933 12.4981 4.10313 9.77103 4.10313C8.45972 4.10313 7.58067 4.82277 7.22093 5.50469H7.18322V4.32076H4.5983V13H7.29056V8.70246C7.29056 7.57076 7.50524 6.47679 8.90649 6.47679C10.2874 6.47679 10.3077 7.76808 10.3077 8.775V13Z" fill="white"/>
</svg>
