<svg width="17" height="13" viewBox="0 0 17 13" fill="none" xmlns="http://www.w3.org/2000/svg">
<path d="M14.5797 3.23983C14.59 3.38201 14.59 3.52422 14.59 3.66641C14.59 8.0031 11.239 13 5.11423 13C3.22732 13 1.47447 12.4617 0 11.5274C0.268094 11.5578 0.525842 11.568 0.804251 11.568C2.36118 11.568 3.79442 11.05 4.93894 10.1664C3.47478 10.1359 2.24778 9.19141 1.82502 7.8914C2.03126 7.92185 2.23746 7.94217 2.45401 7.94217C2.75302 7.94217 3.05206 7.90153 3.33044 7.83047C1.80442 7.52576 0.659873 6.20546 0.659873 4.61093V4.57032C1.10323 4.81407 1.61882 4.96641 2.16526 4.9867C1.2682 4.39763 0.680503 3.39217 0.680503 2.25466C0.680503 1.6453 0.845448 1.08671 1.13417 0.599204C2.77362 2.58983 5.23795 3.88981 8.00125 4.03202C7.94971 3.78827 7.91876 3.53438 7.91876 3.28047C7.91876 1.47264 9.40355 0 11.2492 0C12.2081 0 13.0742 0.396093 13.6826 1.03594C14.4353 0.893757 15.157 0.619524 15.7963 0.243752C15.5488 1.00549 15.023 1.64533 14.3322 2.05155C15.0024 1.98049 15.652 1.79764 16.25 1.54376C15.7964 2.19373 15.2293 2.77262 14.5797 3.23983Z" fill="white"/>
</svg>
