<svg width="66" height="66" viewBox="0 0 66 66" fill="none" xmlns="http://www.w3.org/2000/svg">
<g id="Group 4">
<path id="Oval" fill-rule="evenodd" clip-rule="evenodd" d="M33 66C51.2254 66 66 51.2254 66 33C66 14.7746 51.2254 0 33 0C14.7746 0 0 14.7746 0 33C0 51.2254 14.7746 66 33 66Z" fill="#FF6B01"/>
<g id="001-personality-search">
<path id="Shape" fill-rule="evenodd" clip-rule="evenodd" d="M43.9918 22.2039H54.2394C55.9012 22.2039 57.2534 23.576 57.2534 25.2623C57.2534 26.9486 55.9012 28.3207 54.2394 28.3207H43.9918V27.0973H41.3805C40.8168 29.7056 39.0779 31.8647 36.7582 32.9877V33.9599L44.1196 35.8272C45.4638 36.1685 46.403 37.3883 46.403 38.7944V48.506H19.8799V38.7944C19.8799 37.3883 20.8191 36.1685 22.1633 35.8272L29.5247 33.9599V32.9877C26.6781 31.6096 24.7023 28.6698 24.7023 25.2623C24.7023 20.54 28.4877 16.6988 33.1414 16.6988C37.1735 16.6988 40.5499 19.5845 41.3805 23.4272H43.9918V22.2039ZM32.1957 37.4011L29.9429 35.1151L29.092 35.3311L29.7581 39.0501L32.1957 37.4011ZM34.262 38.9889L33.8764 40.5542H32.4065L32.0203 38.9889L33.1414 38.2312L34.262 38.9889ZM31.3198 41.1874L30.9557 39.7096L29.9929 40.361L30.7303 44.477L31.3198 41.1874ZM33.8443 41.7776L34.8303 47.2827H31.4517L32.4386 41.7776H33.8443ZM35.3272 39.7096L34.9631 41.1874L35.5526 44.477L36.2905 40.361L35.3272 39.7096ZM21.0855 38.7944C21.0855 37.951 21.6491 37.2187 22.455 37.0138L27.9199 35.6276L30.008 47.2827H24.7023V39.9425H23.4967V47.2827H21.0855V38.7944ZM45.1974 47.2827V38.7944C45.1974 37.951 44.6338 37.2187 43.8279 37.0138L38.3629 35.6276L36.2749 47.2827H41.5806V39.9425H42.7862V47.2827H45.1974ZM37.1918 35.3311L36.5254 39.0501L34.0877 37.4011L36.3406 35.1151L37.1918 35.3311ZM33.1414 36.6309L35.5526 34.1842V33.465C34.7877 33.6973 33.9794 33.8258 33.1414 33.8258C32.3035 33.8258 31.4952 33.6973 30.7303 33.465V34.1842L33.1414 36.6309ZM33.1414 32.6024C29.1526 32.6024 25.9079 29.3099 25.9079 25.2623C25.9079 21.2147 29.1526 17.9221 33.1414 17.9221C37.1303 17.9221 40.375 21.2147 40.375 25.2623C40.375 29.3099 37.1303 32.6024 33.1414 32.6024ZM41.5544 25.8125L41.55 25.874H43.9918V24.6506H41.55L41.5544 24.712C41.5675 24.8945 41.5806 25.0764 41.5806 25.2623C41.5806 25.4481 41.5675 25.6301 41.5544 25.8125ZM45.1974 23.4272H46.403V27.0973H45.1974V23.4272ZM47.6086 27.0973H54.2394C55.2363 27.0973 56.0478 26.2739 56.0478 25.2623C56.0478 24.2507 55.2363 23.4272 54.2394 23.4272H47.6086V27.0973Z" fill="white"/>
<path id="Path" fill-rule="evenodd" clip-rule="evenodd" d="M33.1413 30.1557C30.4822 30.1557 28.3189 27.9605 28.3189 25.2623C28.3189 24.0201 28.7836 22.8326 29.6257 21.9201L28.7463 21.0839C27.6931 22.2242 27.1133 23.708 27.1133 25.2623C27.1133 28.6352 29.8173 31.379 33.1413 31.379C34.6724 31.379 36.1347 30.7907 37.259 29.722L36.4349 28.8296C35.5351 29.6841 34.3648 30.1557 33.1413 30.1557Z" fill="white"/>
<path id="Path_2" fill-rule="evenodd" clip-rule="evenodd" d="M33.1412 19.1455C31.9303 19.1455 30.7626 19.509 29.7637 20.195L30.4395 21.2081C31.2389 20.6595 32.1725 20.3689 33.1412 20.3689C35.8002 20.3689 37.9636 22.5641 37.9636 25.2623C37.9636 26.2452 37.6772 27.1926 37.1365 28.0032L38.1349 28.6889C38.8109 27.6758 39.1692 26.491 39.1692 25.2623C39.1692 21.8894 36.4651 19.1455 33.1412 19.1455Z" fill="white"/>
<path id="Path_3" fill-rule="evenodd" clip-rule="evenodd" d="M53.6367 24.6506H54.8423V25.8739H53.6367V24.6506Z" fill="white"/>
</g>
</g>
</svg>
