<svg width="66" height="66" viewBox="0 0 66 66" fill="none" xmlns="http://www.w3.org/2000/svg">
<g id="Group 20">
<g id="Group 6">
<path id="Oval Copy" fill-rule="evenodd" clip-rule="evenodd" d="M33 66C51.2254 66 66 51.2254 66 33C66 14.7746 51.2254 0 33 0C14.7746 0 0 14.7746 0 33C0 51.2254 14.7746 66 33 66Z" fill="#FF6B01"/>
</g>
<g id="001-padlock">
<mask id="mask0" mask-type="alpha" maskUnits="userSpaceOnUse" x="22" y="16" width="24" height="32">
<path id="Clip 2" fill-rule="evenodd" clip-rule="evenodd" d="M22.0498 16H45.95V47.995H22.0498V16Z" fill="white"/>
</mask>
<g mask="url(#mask0)">
<path id="Fill 1" fill-rule="evenodd" clip-rule="evenodd" d="M33.9999 33.292C32.1989 33.292 30.7334 34.7165 30.7334 36.4677C30.7334 37.3362 31.1047 38.1757 31.7529 38.7734V41.6407C31.7529 42.8451 32.7611 43.8252 33.9999 43.8252C35.2387 43.8252 36.2469 42.8451 36.2469 41.6407V38.7734C36.8947 38.1761 37.2664 37.3362 37.2664 36.4677C37.2664 34.7165 35.8009 33.292 33.9999 33.292ZM35.1557 37.6598C34.844 37.9457 34.6652 38.3447 34.6652 38.7555V41.6407C34.6652 41.9971 34.3668 42.2871 33.9999 42.2871C33.6333 42.2871 33.3349 41.9971 33.3349 41.6407V38.7555C33.3349 38.3447 33.1561 37.9457 32.8445 37.6602C32.5036 37.3473 32.3158 36.9238 32.3158 36.4677C32.3158 35.5647 33.0714 34.8301 34.0002 34.8301C34.9287 34.8301 35.6843 35.5647 35.6843 36.4677C35.6843 36.9238 35.4965 37.3473 35.1557 37.6598Z" fill="white"/>
<path id="Fill 3" fill-rule="evenodd" clip-rule="evenodd" d="M43.5771 29.1172H28.3772V23.0046C28.3772 19.9903 30.8995 17.5381 33.9999 17.5381C37.1004 17.5381 39.6226 19.9903 39.6226 23.0046V25.7712C39.6226 26.196 39.9768 26.5403 40.4134 26.5403C40.8504 26.5403 41.2046 26.196 41.2046 25.7712V23.0046C41.2046 19.1423 37.9726 16 33.9999 16C30.0272 16 26.7952 19.1423 26.7952 23.0046V29.1172H24.4227C23.1142 29.1172 22.0498 30.1523 22.0498 31.4242V45.693C22.0498 46.9652 23.1142 48 24.4227 48H43.5771C44.8856 48 45.95 46.9652 45.95 45.693V31.4242C45.95 30.1523 44.8856 29.1172 43.5771 29.1172ZM44.368 45.693C44.368 46.1172 44.0131 46.4619 43.5771 46.4619H24.4227C23.9868 46.4619 23.6318 46.1172 23.6318 45.693V31.4242C23.6318 31.0003 23.9868 30.6552 24.4227 30.6552H43.5771C44.0131 30.6552 44.368 31.0003 44.368 31.4242V45.693Z" fill="white"/>
</g>
</g>
</g>
</svg>
