<svg width="66" height="66" viewBox="0 0 66 66" fill="none" xmlns="http://www.w3.org/2000/svg">
<g id="Group 19">
<g id="Group 6 Copy">
<path id="Oval Copy" fill-rule="evenodd" clip-rule="evenodd" d="M33 66C51.2254 66 66 51.2254 66 33C66 14.7746 51.2254 0 33 0C14.7746 0 0 14.7746 0 33C0 51.2254 14.7746 66 33 66Z" fill="#FF6B01"/>
</g>
<g id="001-win">
<g id="Group 4">
<path id="Fill 1" fill-rule="evenodd" clip-rule="evenodd" d="M21.7412 44.2798C21.3314 44.2798 20.999 44.6118 20.999 45.022V48.2517C20.999 48.6618 21.3314 48.9939 21.7412 48.9939C22.1509 48.9939 22.4834 48.6618 22.4834 48.2517V45.022C22.4834 44.6118 22.1509 44.2798 21.7412 44.2798Z" fill="white"/>
<path id="Fill 3" fill-rule="evenodd" clip-rule="evenodd" d="M48.4511 30.2458H47.0764C47.458 29.6939 47.6822 29.0251 47.6822 28.305V27.8175C47.6822 25.93 46.1468 24.3945 44.2592 24.3945C42.3717 24.3945 40.8363 25.93 40.8363 27.8175V28.305C40.8363 28.9807 41.0338 29.6107 41.3732 30.1419C38.6305 29.6251 36.5489 27.2126 36.5489 24.3219V23.9713C36.5489 23.3838 36.3159 22.8352 35.8933 22.427C35.4705 22.0192 34.9139 21.8066 34.3258 21.8271C34.1222 21.8344 33.9265 21.8704 33.7422 21.9303V18.1822L41.4169 15.4025C41.7106 15.2962 41.9062 15.0175 41.9062 14.7048C41.9062 14.3924 41.7106 14.1134 41.4169 14.0071L33.2528 11.0503C33.0251 10.968 32.7719 11.0016 32.5736 11.1407C32.3757 11.2795 32.2578 11.5064 32.2578 11.7484V21.9303C32.0735 21.8704 31.8778 21.8344 31.6742 21.8271C31.0861 21.8066 30.5295 22.0192 30.1067 22.4274C29.6837 22.8352 29.4511 23.3838 29.4511 23.9713V24.3223C29.4511 27.213 27.3695 29.6251 24.6268 30.1419C24.9662 29.6107 25.1637 28.9807 25.1637 28.305V27.8175C25.1637 25.93 23.6283 24.3945 21.7408 24.3945C19.8532 24.3945 18.3178 25.93 18.3178 27.8175V28.305C18.3178 29.0251 18.542 29.6939 18.9236 30.2458H17.5489C15.5922 30.2458 14 31.8381 14 33.7949V42.2392C14 43.5283 15.0492 44.5775 16.3383 44.5775C16.7484 44.5775 17.0805 44.245 17.0805 43.8353C17.0805 43.4255 16.7484 43.0931 16.3383 43.0931C15.8674 43.0931 15.4844 42.71 15.4844 42.2392V33.7949C15.4844 32.6565 16.4105 31.7302 17.5489 31.7302H23.527C27.6122 31.7302 30.9354 28.407 30.9354 24.3223V23.9713C30.9354 23.7904 31.0073 23.6211 31.1376 23.4955C31.2678 23.3698 31.4406 23.3053 31.6215 23.3106C31.9721 23.323 32.2578 23.6346 32.2578 24.0049V24.3219C32.2578 28.2705 29.5933 31.7399 25.7776 32.7589C25.4528 32.8455 25.2271 33.1397 25.2271 33.4759V40.4575H18.2911V34.1494C18.2911 33.7396 17.9587 33.4072 17.5489 33.4072C17.1393 33.4072 16.8068 33.7396 16.8068 34.1494V41.1997C16.8068 41.6094 17.1393 41.9419 17.5489 41.9419H17.6367V48.2517C17.6367 48.6618 17.9687 48.9939 18.3789 48.9939C18.7887 48.9939 19.1211 48.6618 19.1211 48.2517V41.9419H24.3728V48.2517C24.3728 48.6618 24.7053 48.9939 25.115 48.9939C25.5248 48.9939 25.8572 48.6618 25.8572 48.2517V41.9419H25.9693C26.3791 41.9419 26.7115 41.6094 26.7115 41.1997V34.0291C29.0745 33.2537 31.0178 31.6596 32.2578 29.6174V37.4482C32.2578 37.8579 32.5902 38.1904 33 38.1904C33.4102 38.1904 33.7422 37.8579 33.7422 37.4482V29.6174C34.9826 31.6596 36.9255 33.2537 39.2889 34.0291V41.1997C39.2889 41.6094 39.6209 41.9419 40.0311 41.9419H40.1428V48.2517C40.1428 48.6618 40.4752 48.9939 40.885 48.9939C41.2951 48.9939 41.6272 48.6618 41.6272 48.2517V41.9419H46.8793V48.2517C46.8793 48.6618 47.2113 48.9939 47.6215 48.9939C48.0313 48.9939 48.3637 48.6618 48.3637 48.2517V41.9419H48.4511C48.8611 41.9419 49.1932 41.6094 49.1932 41.1997V34.1494C49.1932 33.7396 48.8611 33.4072 48.4511 33.4072C48.0413 33.4072 47.7089 33.7396 47.7089 34.1494V40.4575H40.7733V33.4759C40.7733 33.1397 40.5472 32.8455 40.2224 32.7589C36.4067 31.7399 33.7422 28.2705 33.7422 24.3219V24.0049C33.7422 23.6346 34.0279 23.323 34.3785 23.3106C34.5602 23.3045 34.7322 23.3698 34.8624 23.4955C34.9927 23.6211 35.0646 23.7904 35.0646 23.9713V24.3223C35.0646 28.407 38.3878 31.7302 42.473 31.7302H48.4511C49.5895 31.7302 50.5156 32.6565 50.5156 33.7949V35.0655C50.5156 35.4756 50.848 35.8077 51.2578 35.8077C51.6676 35.8077 52 35.4756 52 35.0655V33.7949C52 31.8381 50.4078 30.2458 48.4511 30.2458ZM33.7422 14.2595V12.8064L38.9847 14.7048L33.7422 16.6035V14.2595ZM23.6793 28.305C23.6793 29.3738 22.8096 30.2436 21.7408 30.2436C20.672 30.2436 19.8022 29.3738 19.8022 28.305V27.8175C19.8022 26.7488 20.672 25.8789 21.7408 25.8789C22.8096 25.8789 23.6793 26.7488 23.6793 27.8175V28.305ZM46.1978 28.305C46.1978 29.3738 45.328 30.2436 44.2592 30.2436C43.1904 30.2436 42.3207 29.3738 42.3207 28.305V27.8175C42.3207 26.7488 43.1904 25.8789 44.2592 25.8789C45.328 25.8789 46.1978 26.7488 46.1978 27.8175V28.305Z" fill="white"/>
</g>
<path id="Fill 5" fill-rule="evenodd" clip-rule="evenodd" d="M51.7824 37.5089C51.6443 37.3708 51.4531 37.2913 51.2578 37.2913C51.0626 37.2913 50.8713 37.3704 50.7332 37.5089C50.5949 37.6468 50.5156 37.8382 50.5156 38.0334C50.5156 38.2286 50.5949 38.42 50.7332 38.5579C50.8713 38.696 51.0626 38.7756 51.2578 38.7756C51.4531 38.7756 51.6443 38.6964 51.7824 38.5579C51.9207 38.42 52 38.2286 52 38.0334C52 37.8382 51.9207 37.6468 51.7824 37.5089Z" fill="white"/>
<path id="Fill 6" fill-rule="evenodd" clip-rule="evenodd" d="M51.2582 40.1618C50.8484 40.1618 50.516 40.4942 50.516 40.904V42.2391C50.516 42.71 50.133 43.093 49.6621 43.093C49.252 43.093 48.9199 43.4255 48.9199 43.8352C48.9199 44.2449 49.252 44.5774 49.6621 44.5774C50.9512 44.5774 52.0004 43.5283 52.0004 42.2391V40.904C52.0004 40.4942 51.668 40.1618 51.2582 40.1618Z" fill="white"/>
<path id="Fill 7" fill-rule="evenodd" clip-rule="evenodd" d="M44.2588 44.2798C43.8491 44.2798 43.5166 44.6118 43.5166 45.022V48.2517C43.5166 48.6618 43.8491 48.9939 44.2588 48.9939C44.6686 48.9939 45.001 48.6618 45.001 48.2517V45.022C45.001 44.6118 44.6686 44.2798 44.2588 44.2798Z" fill="white"/>
<path id="Fill 8" fill-rule="evenodd" clip-rule="evenodd" d="M33.5246 39.6136C33.3865 39.4757 33.1952 39.396 33 39.396C32.8048 39.396 32.6135 39.4757 32.4754 39.6136C32.3371 39.7524 32.2578 39.943 32.2578 40.1382C32.2578 40.3342 32.3371 40.5251 32.4754 40.6632C32.6135 40.8019 32.8048 40.8812 33 40.8812C33.1952 40.8812 33.3865 40.8019 33.5246 40.6632C33.6629 40.5251 33.7422 40.3342 33.7422 40.1382C33.7422 39.943 33.6629 39.7524 33.5246 39.6136Z" fill="white"/>
</g>
</g>
</svg>
