<svg width="66" height="66" viewBox="0 0 66 66" fill="none" xmlns="http://www.w3.org/2000/svg">
<g id="Group 10">
<path id="Oval Copy 2" fill-rule="evenodd" clip-rule="evenodd" d="M33 66C51.2254 66 66 51.2254 66 33C66 14.7746 51.2254 0 33 0C14.7746 0 0 14.7746 0 33C0 51.2254 14.7746 66 33 66Z" fill="#FF6B01"/>
<g id="002-achievement">
<path id="Shape" fill-rule="evenodd" clip-rule="evenodd" d="M46.3502 19.2059C46.3502 21.027 44.8721 22.5083 43.0545 22.5083C41.2369 22.5083 39.7588 21.027 39.7588 19.2059C39.7588 17.3847 41.2369 15.9036 43.0545 15.9036C44.8721 15.9036 46.3502 17.3847 46.3502 19.2059ZM45.2516 19.2059C45.2516 17.9918 44.2662 17.0044 43.0545 17.0044C41.8427 17.0044 40.8574 17.9918 40.8574 19.2059C40.8574 20.4199 41.8427 21.4075 43.0545 21.4075C44.2662 21.4075 45.2516 20.4199 45.2516 19.2059Z" fill="white"/>
<path id="Shape_2" fill-rule="evenodd" clip-rule="evenodd" d="M48.5014 25.6678C48.5885 25.7546 48.6441 25.8691 48.6583 25.9925L49.7568 35.3496C49.7751 35.5054 49.7263 35.6621 49.6219 35.7796C49.5181 35.8967 49.3685 35.9639 49.2116 35.9639H46.5322L48.1095 49.6607C48.1272 49.8166 48.0784 49.9732 47.9741 50.0901C47.8695 50.2068 47.7201 50.274 47.5637 50.274H44.268C43.9824 50.274 43.7445 50.0549 43.7204 49.7698L43.1695 43.1421L42.6186 49.7693C42.5942 50.0549 42.3566 50.274 42.0709 50.274H38.7752C38.6186 50.274 38.4692 50.2068 38.3649 50.0896C38.2605 49.9722 38.2115 49.816 38.2292 49.6602L39.8067 35.9639H37.1274C36.9702 35.9639 36.8208 35.8967 36.717 35.7787C36.6127 35.6616 36.5636 35.5054 36.5819 35.349L37.6804 25.9925C37.6946 25.8696 37.7502 25.7552 37.8376 25.6678L39.4854 24.0167C39.5882 23.9132 39.7282 23.8554 39.8738 23.8554H46.4652C46.6105 23.8554 46.7508 23.9132 46.8535 24.0167L48.5014 25.6678ZM46.4652 27.1577V34.8631H48.5936L47.5895 26.3106L46.2377 24.9562H40.1012L38.7492 26.3106L37.7453 34.8631H39.8738V27.1577H40.9724V35.4135C40.9724 35.4342 40.9713 35.4557 40.9689 35.4767L39.3916 49.1732H41.5656L42.6218 36.4686C42.6459 36.1829 42.8838 35.9639 43.1695 35.9639C43.4551 35.9639 43.6927 36.1829 43.7172 36.4686L44.7733 49.1732H46.9474L45.3698 35.4767C45.3677 35.4557 45.3666 35.4342 45.3666 35.4135V27.1577H46.4652Z" fill="white"/>
<path id="Shape_3" fill-rule="evenodd" clip-rule="evenodd" d="M34.0727 31.9685L35.1712 33.0693C35.2479 33.1461 35.3002 33.2437 35.3211 33.3504L36.4197 38.8542C36.4522 39.016 36.4103 39.184 36.306 39.3111C36.2017 39.4388 36.0461 39.5127 35.8814 39.5127H33.6843V39.9991L35.8669 49.2936C35.9056 49.457 35.8669 49.6292 35.7626 49.7612C35.6583 49.8929 35.5 49.97 35.3321 49.97H32.5857C32.3216 49.97 32.0947 49.7811 32.0458 49.5207L30.9379 43.5997L29.8299 49.5207C29.7811 49.7811 29.5542 49.97 29.29 49.97H26.5436C26.3755 49.97 26.2172 49.8929 26.1129 49.7612C26.0086 49.6292 25.9702 49.457 26.0086 49.2936L28.1915 39.9991V39.5127H25.9944C25.8294 39.5127 25.6741 39.4388 25.5698 39.3111C25.4655 39.184 25.4236 39.016 25.4561 38.8542L26.5546 33.3504C26.5756 33.2437 26.6276 33.1461 26.7046 33.0693L27.8031 31.9685C27.9058 31.865 28.0458 31.8073 28.1915 31.8073H33.6843C33.8297 31.8073 33.9699 31.865 34.0727 31.9685ZM33.6843 34.5592V38.4119H35.2112L34.277 33.7296L33.4569 32.908H28.4189L27.5993 33.7296L26.6643 38.4119H28.1915V34.5592H29.29V40.0631C29.29 40.1052 29.2849 40.1477 29.2756 40.1891L27.2372 48.8692H28.8341L30.398 40.5121C30.4468 40.2517 30.6737 40.0631 30.9379 40.0631C31.2021 40.0631 31.429 40.2517 31.4778 40.5121L33.0417 48.8692H34.6383L32.5999 40.1891C32.5906 40.1477 32.5857 40.1052 32.5857 40.0631V34.5592H33.6843Z" fill="white"/>
<path id="Shape_4" fill-rule="evenodd" clip-rule="evenodd" d="M22.2507 39.0563L23.8985 40.1571C24.031 40.2455 24.119 40.3877 24.1391 40.5468L24.6884 44.9499C24.7077 45.1065 24.6594 45.264 24.5551 45.3823C24.4507 45.5008 24.3008 45.5685 24.1431 45.5685H22.7501L23.0429 49.3793C23.055 49.5317 23.0022 49.6824 22.8984 49.7953C22.794 49.9076 22.6479 49.9716 22.4953 49.9716H18.101C17.9481 49.9716 17.8022 49.9076 17.6979 49.7948C17.5938 49.6824 17.5418 49.5317 17.5533 49.3788L17.846 45.5685H16.4532C16.2955 45.5685 16.1455 45.5008 16.0412 45.3823C15.9369 45.264 15.8878 45.1065 15.9076 44.9499L16.4569 40.5468C16.4773 40.3877 16.5645 40.2455 16.6975 40.1571L18.3454 39.0563C18.4355 38.9961 18.5419 38.9639 18.6503 38.9639H21.946C22.0541 38.9639 22.1608 38.9961 22.2507 39.0563ZM22.4937 42.2237L22.6661 44.4677H23.5206L23.0802 40.933L21.78 40.0646H18.8166L17.5166 40.933L17.0754 44.4677H17.9302L18.1026 42.2243L19.198 42.3084L18.6943 48.8708H19.7489V45.5685H20.8474V48.8708H21.902L21.3983 42.3078L22.4937 42.2237Z" fill="white"/>
<path id="Shape_5" fill-rule="evenodd" clip-rule="evenodd" d="M30.5775 30.9497C29.0629 30.9497 27.8311 29.7151 27.8311 28.1977C27.8311 26.6801 29.0629 25.4458 30.5775 25.4458C32.0917 25.4458 33.3239 26.6801 33.3239 28.1977C33.3239 29.7151 32.0917 30.9497 30.5775 30.9497ZM30.5775 29.8489C31.4859 29.8489 32.2253 29.108 32.2253 28.1977C32.2253 27.2872 31.4859 26.5466 30.5775 26.5466C29.6688 26.5466 28.9296 27.2872 28.9296 28.1977C28.9296 29.108 29.6688 29.8489 30.5775 29.8489Z" fill="white"/>
<path id="Shape_6" fill-rule="evenodd" clip-rule="evenodd" d="M20.4862 37.8007C19.2744 37.8007 18.2891 36.813 18.2891 35.5991C18.2891 34.3849 19.2744 33.3976 20.4862 33.3976C21.6979 33.3976 22.6833 34.3849 22.6833 35.5991C22.6833 36.813 21.6979 37.8007 20.4862 37.8007ZM20.4862 36.6999C21.0921 36.6999 21.5848 36.2062 21.5848 35.5991C21.5848 34.992 21.0921 34.4984 20.4862 34.4984C19.8803 34.4984 19.3876 34.992 19.3876 35.5991C19.3876 36.2062 19.8803 36.6999 20.4862 36.6999Z" fill="white"/>
<path id="Path" fill-rule="evenodd" clip-rule="evenodd" d="M29.3135 19.9176C29.0987 19.7023 28.7516 19.7023 28.5368 19.9176L15.9033 32.5765L16.68 33.3548L28.9252 21.0847L30.1846 22.347C30.3418 22.5042 30.5773 22.551 30.7833 22.4663C30.9882 22.3811 31.1223 22.1801 31.1223 21.9579V16.454C31.1223 16.1501 30.8761 15.9036 30.573 15.9036H25.0802C24.8581 15.9036 24.6578 16.0377 24.5725 16.243C24.4875 16.4489 24.5347 16.6857 24.6918 16.8432L25.9513 18.1052L15.9033 28.1734L16.68 28.9517L27.1164 18.4943C27.3309 18.279 27.3309 17.931 27.1164 17.716L26.4062 17.0044H30.0237V20.6292L29.3135 19.9176Z" fill="white"/>
</g>
</g>
</svg>
