<svg width="66" height="66" viewBox="0 0 66 66" fill="none" xmlns="http://www.w3.org/2000/svg">
<g id="Group 18">
<g id="Group 8 Copy">
<path id="Oval Copy 3" fill-rule="evenodd" clip-rule="evenodd" d="M33 66C51.2254 66 66 51.2254 66 33C66 14.7746 51.2254 0 33 0C14.7746 0 0 14.7746 0 33C0 51.2254 14.7746 66 33 66Z" fill="#FF6B01"/>
</g>
<g id="clipboard">
<g id="Group 3">
<mask id="mask0" mask-type="alpha" maskUnits="userSpaceOnUse" x="20" y="14" width="28" height="35">
<path id="Clip 2" fill-rule="evenodd" clip-rule="evenodd" d="M20.0049 14.0087H47.9851V48.9952H20.0049V14.0087Z" fill="white"/>
</mask>
<g mask="url(#mask0)">
<path id="Fill 1" fill-rule="evenodd" clip-rule="evenodd" d="M46.289 45.8344C46.289 46.7508 45.3562 47.3339 44.4234 47.3339H23.5618C22.6289 47.3339 21.6961 46.7508 21.6961 45.8344V21.9672C21.7826 21.0133 22.587 20.2769 23.5618 20.2594H26.7843V22.3837C26.8291 22.8504 27.2405 23.1995 27.7171 23.1751H40.2256C40.7109 23.2012 41.1353 22.8568 41.2008 22.3837V20.2594H44.4234C45.398 20.2769 46.2026 21.0133 46.289 21.9672V45.8344ZM28.4803 18.1767H30.8124C31.2196 18.128 31.5465 17.8237 31.6181 17.427C31.8692 16.3528 32.8285 15.5816 33.9502 15.5526C35.0614 15.5857 36.0063 16.3592 36.2398 17.427C36.3159 17.8373 36.6645 18.1456 37.0879 18.1767H39.5048V21.509H28.4803V18.1767ZM44.4234 18.5932H41.2008V17.1771C41.2008 16.7189 40.692 16.5106 40.2256 16.5106H37.7239C37.1302 14.8445 35.6462 14.0114 33.9502 14.0114C32.2728 13.9495 30.747 14.9599 30.1764 16.5106H27.7171C27.2507 16.5106 26.7843 16.7189 26.7843 17.1771V18.5932H23.5618C21.652 18.6132 20.0898 20.0931 20 21.9672V45.8344C20 47.6672 21.6961 49 23.5618 49H44.4234C46.289 49 47.9851 47.6672 47.9851 45.8344V21.9672C47.8953 20.0931 46.3331 18.6132 44.4234 18.5932Z" fill="white"/>
</g>
</g>
<path id="Fill 4" fill-rule="evenodd" clip-rule="evenodd" d="M29.5401 32.5887L26.8264 35.1295L25.6816 33.9632C25.3635 33.6339 24.8355 33.6153 24.4944 33.9215C24.1659 34.2596 24.1659 34.7915 24.4944 35.1295L26.2328 36.8789C26.3833 37.0444 26.6006 37.136 26.8264 37.1289C27.0501 37.1257 27.2635 37.0359 27.4201 36.8789L30.7274 33.7966C31.0552 33.5011 31.0771 33.0005 30.7764 32.6784C30.7608 32.6617 30.7444 32.6457 30.7274 32.6304C30.4093 32.3009 29.8813 32.2824 29.5401 32.5887Z" fill="white"/>
<path id="Fill 5" fill-rule="evenodd" clip-rule="evenodd" d="M42.8973 34.4214H33.1449C32.6765 34.4214 32.2969 34.7944 32.2969 35.2545C32.2969 35.7146 32.6765 36.0876 33.1449 36.0876H42.8973C43.3656 36.0876 43.7453 35.7146 43.7453 35.2545C43.7453 34.7944 43.3656 34.4214 42.8973 34.4214Z" fill="white"/>
<path id="Fill 6" fill-rule="evenodd" clip-rule="evenodd" d="M29.5401 25.9241L26.8264 28.465L25.6816 27.2987C25.3635 26.9694 24.8355 26.9509 24.4944 27.2571C24.1659 27.5951 24.1659 28.127 24.4944 28.465L26.2328 30.2145C26.3833 30.3799 26.6006 30.4714 26.8264 30.4643C27.0501 30.4612 27.2635 30.3714 27.4201 30.2145L30.7274 27.1321C31.0552 26.8366 31.0771 26.336 30.7764 26.0139C30.7608 25.9972 30.7444 25.9812 30.7274 25.9658C30.4093 25.6365 29.8813 25.6179 29.5401 25.9241Z" fill="white"/>
<path id="Fill 7" fill-rule="evenodd" clip-rule="evenodd" d="M42.8973 27.7569H33.1449C32.6765 27.7569 32.2969 28.1299 32.2969 28.59C32.2969 29.0501 32.6765 29.423 33.1449 29.423H42.8973C43.3656 29.423 43.7453 29.0501 43.7453 28.59C43.7453 28.1299 43.3656 27.7569 42.8973 27.7569Z" fill="white"/>
<path id="Fill 8" fill-rule="evenodd" clip-rule="evenodd" d="M29.5401 39.2532L26.8264 41.794L25.6816 40.6277C25.3635 40.2984 24.8355 40.2798 24.4944 40.586C24.1659 40.9241 24.1659 41.456 24.4944 41.794L26.2328 43.5434C26.3833 43.7089 26.6006 43.8005 26.8264 43.7934C27.0501 43.7902 27.2635 43.7004 27.4201 43.5434L30.7274 40.4611C31.0552 40.1656 31.0771 39.665 30.7764 39.3429C30.7608 39.3262 30.7444 39.3102 30.7274 39.2948C30.4093 38.9654 29.8813 38.9469 29.5401 39.2532Z" fill="white"/>
<path id="Fill 9" fill-rule="evenodd" clip-rule="evenodd" d="M42.8973 41.0859H33.1449C32.6765 41.0859 32.2969 41.4589 32.2969 41.919C32.2969 42.379 32.6765 42.7521 33.1449 42.7521H42.8973C43.3656 42.7521 43.7453 42.379 43.7453 41.919C43.7453 41.4589 43.3656 41.0859 42.8973 41.0859Z" fill="white"/>
</g>
</g>
</svg>
