<svg width="69" height="69" viewBox="0 0 69 69" fill="none" xmlns="http://www.w3.org/2000/svg">
<g id="001-airplane">
<g id="Group 3">
<mask id="mask0" mask-type="alpha" maskUnits="userSpaceOnUse" x="0" y="0" width="69" height="69">
<path id="Clip 2" fill-rule="evenodd" clip-rule="evenodd" d="M0 0.0895996H69V68.9892H0V0.0895996Z" fill="white"/>
</mask>
<g mask="url(#mask0)">
<path id="Fill 1" fill-rule="evenodd" clip-rule="evenodd" d="M58.2645 24.4698L63.4431 19.8661L63.4628 19.8499C67.6258 15.9929 69.6297 10.3376 68.8252 4.71965L68.6371 3.3853C68.4112 1.86909 67.2208 0.677944 65.7046 0.451358L64.3801 0.264662C58.7509 -0.541955 53.0844 1.47055 49.2233 5.64684L44.6201 10.8254L42.132 9.39423C35.5818 5.63768 28.1613 3.66669 20.6101 3.67729L18.4693 3.68501C16.4169 3.69472 14.5231 4.79189 13.4943 6.56846L13.0907 7.26888C12.7734 7.81998 12.9622 8.52454 13.5124 8.84258L35.4855 21.5294L18.3149 40.9835L17.0001 42.6736C13.4346 40.7202 9.4344 39.694 5.36825 39.6906L3.63103 39.6829C2.40197 39.6969 1.26904 40.3524 0.645165 41.4124L0.155157 42.2519C0.00152431 42.5171 -0.0399835 42.8323 0.0394384 43.1279C0.117962 43.4233 0.311665 43.6759 0.577063 43.8283L11.764 50.2871C11.4467 50.9001 11.1463 51.5155 10.8726 52.1473C10.271 53.5722 10.4184 55.2027 11.2663 56.4963C12.1135 57.7898 13.5496 58.5767 15.096 58.5943C15.7312 58.5936 16.3587 58.4629 16.9412 58.2117C16.9707 58.1999 17.0001 58.1864 17.0276 58.1709C17.6046 57.9231 18.1983 57.6312 18.8013 57.3203L25.2602 68.5066C25.4126 68.7732 25.6638 68.9684 25.9601 69.0485C26.2562 69.1292 26.5721 69.0877 26.838 68.9348L27.686 68.4447H27.6923C28.7515 67.8158 29.405 66.6781 29.4133 65.4463L29.4056 63.7308C29.4007 59.6611 28.3718 55.6575 26.4134 52.0898L28.0799 50.7933L47.5492 33.6023L60.2425 55.5782C60.5611 56.1291 61.2658 56.318 61.8167 56.0007L62.5173 55.5978C64.2939 54.5689 65.3916 52.6745 65.4 50.6206L65.4071 48.4818C65.438 40.9294 63.4655 33.5025 59.6921 26.9601L58.2645 24.4698ZM18.4777 5.99148L20.6185 5.98376C27.7625 5.96758 34.7851 7.83328 40.98 11.3925L43.0838 12.6027L37.0242 19.7627L15.6771 7.43455C16.3263 6.53396 17.3672 5.99777 18.4777 5.99148ZM3.6366 41.9894L5.36681 41.9971C8.92337 41.9978 12.4266 42.8617 15.5761 44.5147L14.8516 45.4483C14.4326 45.9775 14.0353 46.5362 13.6479 47.1112C13.5322 47.2767 13.4289 47.4466 13.3187 47.6157C13.1769 47.8362 13.0281 48.0488 12.8905 48.2741L2.74176 42.4188C2.96134 42.1493 3.28927 41.9921 3.6366 41.9894ZM27.0928 63.7323L27.1013 65.4364C27.1013 65.7895 26.9426 66.1235 26.6697 66.3467L20.8151 56.198C21.039 56.0618 21.2489 55.9166 21.4672 55.7753C21.6384 55.6603 21.8133 55.555 21.9816 55.4406C22.541 55.065 23.0844 54.6791 23.5959 54.2762L23.6304 54.2509L24.5765 53.5152C26.2303 56.6668 27.0935 60.1728 27.0928 63.7323ZM26.6071 49.0175L24.2333 50.8627C24.2277 50.8627 24.22 50.8627 24.2144 50.8726L22.2026 52.4414C21.0916 53.3131 19.9123 54.0951 18.6764 54.7793C17.8222 55.2631 16.9434 55.701 16.0435 56.092C16.0176 56.1018 15.993 56.113 15.9677 56.1263C15.1001 56.4612 14.1162 56.2443 13.4689 55.5768C12.8211 54.9078 12.6357 53.9174 12.9987 53.0604C13.3917 52.1536 13.8319 51.2684 14.319 50.4079C15.0047 49.1663 15.788 47.9814 16.6625 46.8654L18.2195 44.8671C18.2195 44.8671 18.2195 44.8552 18.2285 44.8496L20.0913 42.4504L50.9309 7.19737C53.766 4.13908 57.7457 2.39845 61.9164 2.39342C62.6303 2.39342 63.3435 2.44463 64.0495 2.54795L65.374 2.73537C65.8795 2.80976 66.2782 3.20561 66.3545 3.71233L66.5427 5.04525C67.2375 9.91011 65.5025 14.8066 61.8988 18.1477L26.6071 49.0175ZM63.0984 50.6136C63.0921 51.7234 62.5552 52.7629 61.6539 53.4114L49.3279 32.0587L56.4901 26.0049L57.7015 28.1112C61.2721 34.3034 63.1363 41.3322 63.1047 48.4798L63.0984 50.6136Z" fill="#FF6B01"/>
</g>
</g>
<path id="Fill 4" fill-rule="evenodd" clip-rule="evenodd" d="M55.7364 8.3085C57.1581 7.46676 58.9704 7.69594 60.1383 8.86502C61.3062 10.0358 61.5337 11.8484 60.6904 13.2702C60.3504 13.8438 60.5399 14.584 61.1124 14.9249C61.685 15.2643 62.4256 15.0763 62.7655 14.5026C64.1704 12.1325 63.7925 9.11113 61.8457 7.16048C59.8998 5.21134 56.8798 4.82797 54.5089 6.23075C54.1331 6.44734 53.9035 6.84988 53.9063 7.28307C53.9085 7.71794 54.1442 8.11672 54.5228 8.32899C54.9017 8.5405 55.3649 8.53317 55.7364 8.3085Z" fill="#FF6B01"/>
</g>
</svg>
