<svg width="23" height="18" viewBox="0 0 23 18" fill="none" xmlns="http://www.w3.org/2000/svg">
<path fill-rule="evenodd" clip-rule="evenodd" d="M2.20746 5.55159C2.49855 5.75597 3.37543 6.36272 4.83869 7.37156C6.30194 8.38057 7.42265 9.15755 8.20154 9.70232C8.28689 9.76192 8.46873 9.89186 8.74665 10.0918C9.02487 10.2921 9.256 10.4539 9.4397 10.5773C9.62382 10.7007 9.84634 10.8392 10.1072 10.9924C10.3683 11.1454 10.6144 11.2606 10.8453 11.3367C11.0765 11.4136 11.2904 11.4518 11.4871 11.4518H11.5129C11.7096 11.4518 11.9237 11.4136 12.1549 11.3367C12.3858 11.2606 12.6319 11.1454 12.8928 10.9924C13.1537 10.8389 13.3762 10.7007 13.5601 10.5773C13.744 10.4539 13.9749 10.2921 14.2531 10.0918C14.531 9.89162 14.7131 9.76192 14.7987 9.70232C15.5858 9.15755 17.5881 7.77364 20.8054 5.55135C21.4298 5.11733 21.9518 4.59348 22.3709 3.98047C22.7904 3.36769 23 2.72464 23 2.05202C23 1.48997 22.7967 1.00898 22.3903 0.608744C21.9836 0.208512 21.5024 0.00854492 20.9465 0.00854492H2.05353C1.39467 0.00854492 0.887656 0.229909 0.532534 0.672518C0.177591 1.11537 0 1.66878 0 2.33305C0 2.86947 0.235391 3.4506 0.705872 4.07643C1.17641 4.70225 1.67708 5.19398 2.20746 5.55159Z" fill="black"/>
<path fill-rule="evenodd" clip-rule="evenodd" d="M21.7164 6.91812C18.91 8.80818 16.7793 10.2771 15.3249 11.3245C14.8371 11.6822 14.4414 11.9611 14.1375 12.1611C13.8338 12.3611 13.4298 12.5655 12.9249 12.7741C12.4199 12.9829 11.9497 13.087 11.5131 13.087H11.4871C11.0508 13.087 10.5801 12.9829 10.0754 12.7741C9.57069 12.5655 9.16616 12.3611 8.86249 12.1611C8.55882 11.9611 8.1629 11.6822 7.67535 11.3245C6.5202 10.4817 4.3939 9.01262 1.29645 6.91812C0.808594 6.59478 0.376445 6.22411 0 5.80713V15.9477C0 16.51 0.200951 16.991 0.603151 17.3912C1.00535 17.7914 1.48871 17.9914 2.05353 17.9914H20.9465C21.5113 17.9914 21.9946 17.7914 22.3968 17.3912C22.7992 16.9907 23 16.5102 23 15.9477V5.80713C22.6319 6.21547 22.2043 6.58614 21.7164 6.91812Z" fill="black"/>
</svg>
