<svg width="76" height="76" viewBox="0 0 76 76" fill="none" xmlns="http://www.w3.org/2000/svg">
<g id="004-compass">
<g id="Group 3">
<mask id="mask0" mask-type="alpha" maskUnits="userSpaceOnUse" x="0" y="0" width="76" height="76">
<path id="Clip 2" fill-rule="evenodd" clip-rule="evenodd" d="M0 0H76V75.9881H0V0Z" fill="white"/>
</mask>
<g mask="url(#mask0)">
<path id="Fill 1" fill-rule="evenodd" clip-rule="evenodd" d="M38 0C17.0131 0 0 17.0131 0 38C0 58.9869 17.0131 76 38 76C58.9869 76 76 58.9869 76 38C75.9768 17.0232 58.9768 0.0231562 38 0ZM38 73.4665C18.4124 73.4665 2.53353 57.5876 2.53353 38C2.53353 18.4124 18.4124 2.53353 38 2.53353C57.5876 2.53353 73.4665 18.4124 73.4665 38C73.4441 57.5783 57.5783 73.4441 38 73.4665Z" fill="#FF6B01"/>
</g>
</g>
<path id="Fill 4" fill-rule="evenodd" clip-rule="evenodd" d="M38.0004 6.51428C20.611 6.51428 6.51465 20.6106 6.51465 38C6.51465 55.3894 20.611 69.4857 38.0004 69.4857C55.3897 69.4857 69.4861 55.3894 69.4861 38C69.466 20.6191 55.3813 6.53435 38.0004 6.51428ZM38.0004 66.9667C22.0023 66.9667 9.0337 53.9981 9.0337 38C9.0337 22.0019 22.0023 9.03334 38.0004 9.03334C53.9984 9.03334 66.967 22.0019 66.967 38C66.9493 53.9904 53.9908 66.9489 38.0004 66.9667Z" fill="#FF6B01"/>
<path id="Fill 5" fill-rule="evenodd" clip-rule="evenodd" d="M57.1711 18.8263C56.7689 18.4248 56.1482 18.3414 55.6533 18.6225L33.0714 31.5109C33.0576 31.5202 33.0514 31.5348 33.0374 31.5433C32.8923 31.6676 32.7571 31.8028 32.633 31.9479C32.6245 31.9609 32.6097 31.9679 32.6012 31.9819L19.7092 54.5654C19.4266 55.0609 19.5108 55.6833 19.913 56.0871C20.3167 56.4894 20.9391 56.5736 21.4346 56.2909L44.0127 43.4025C44.0265 43.3932 44.0327 43.3786 44.0467 43.3701C44.1918 43.2458 44.327 43.1106 44.4511 42.9655C44.4596 42.9525 44.4744 42.9455 44.4829 42.9315L57.3749 20.3519C57.6597 19.8554 57.5765 19.2301 57.1711 18.8263ZM24.2031 51.7967L33.9762 34.6803L41.3252 42.0229L24.2031 51.7967ZM43.1079 40.2401L35.7719 32.903L52.8871 23.1292L43.1079 40.2401Z" fill="#FF6B01"/>
<path id="Fill 6" fill-rule="evenodd" clip-rule="evenodd" d="M17.1911 35.8286H12.1238C11.4241 35.8286 10.8574 36.5574 10.8574 37.4572C10.8574 38.357 11.4241 39.0858 12.1238 39.0858H17.1911C17.89 39.0858 18.4574 38.357 18.4574 37.4572C18.4574 36.5574 17.89 35.8286 17.1911 35.8286Z" fill="#FF6B01"/>
<path id="Fill 7" fill-rule="evenodd" clip-rule="evenodd" d="M63.8766 35.8286H58.8093C58.1104 35.8286 57.543 36.5574 57.543 37.4572C57.543 38.357 58.1104 39.0858 58.8093 39.0858H63.8766C64.5763 39.0858 65.143 38.357 65.143 37.4572C65.143 36.5574 64.5763 35.8286 63.8766 35.8286Z" fill="#FF6B01"/>
<path id="Fill 8" fill-rule="evenodd" clip-rule="evenodd" d="M38.5426 18.4572C39.4424 18.4572 40.1712 17.8897 40.1712 17.1908V12.1235C40.1712 11.4238 39.4424 10.8572 38.5426 10.8572C37.6428 10.8572 36.9141 11.4238 36.9141 12.1235V17.1908C36.9141 17.8897 37.6428 18.4572 38.5426 18.4572Z" fill="#FF6B01"/>
<path id="Fill 9" fill-rule="evenodd" clip-rule="evenodd" d="M38.5426 57.5428C37.6428 57.5428 36.9141 58.1103 36.9141 58.8092V63.8765C36.9141 64.5762 37.6428 65.1428 38.5426 65.1428C39.4424 65.1428 40.1712 64.5762 40.1712 63.8765V58.8092C40.1712 58.1103 39.4424 57.5428 38.5426 57.5428Z" fill="#FF6B01"/>
</g>
</svg>
