<svg width="10" height="18" viewBox="0 0 10 18" fill="none" xmlns="http://www.w3.org/2000/svg">
<path id="004-facebook-logo" fill-rule="evenodd" clip-rule="evenodd" d="M9.62336 0.00351114L7.22473 0C4.53028 0 2.78946 1.73895 2.78946 4.42989V6.47268H0.377604C0.16908 6.47268 0 6.6363 0 6.83924V9.79914C0 10.0011 0.16908 10.1657 0.377604 10.1657H2.78946V17.6334C2.78946 17.8354 2.95757 18 3.1661 18H6.31247C6.521 18 6.68935 17.8354 6.68935 17.6334V10.1657H9.50863C9.71716 10.1657 9.88648 10.0011 9.88648 9.79914L9.88744 6.83924C9.88744 6.74233 9.84776 6.64917 9.77656 6.57965C9.70609 6.51107 9.61013 6.47268 9.5096 6.47268H6.68935V4.74098C6.68935 3.90884 6.89307 3.48633 8.00736 3.48633L9.6224 3.4854C9.83092 3.4854 10 3.32084 10 3.11883V0.371245C10 0.168067 9.83092 0.00444745 9.62336 0.00351114Z" fill="black"/>
</svg>
