<svg width="19" height="18" viewBox="0 0 19 18" fill="none" xmlns="http://www.w3.org/2000/svg">
<g id="009-linkedin-logo">
<mask id="mask0" mask-type="alpha" maskUnits="userSpaceOnUse" x="0" y="0" width="19" height="18">
<path id="Clip 2" fill-rule="evenodd" clip-rule="evenodd" d="M0 0H19V18H0V0Z" fill="white"/>
</mask>
<g mask="url(#mask0)">
<path id="Fill 1" fill-rule="evenodd" clip-rule="evenodd" d="M19 11.0358V18H14.9277V11.5021C14.9277 9.8699 14.3387 8.75598 12.8646 8.75598C11.7393 8.75598 11.0698 9.50657 10.7752 10.2328C10.6677 10.4924 10.6401 10.8538 10.6401 11.2173V18H6.56635C6.56635 18 6.62113 6.99499 6.56635 5.85478H10.6397V7.5762C10.6313 7.58906 10.6207 7.60297 10.613 7.61556H10.6397V7.5762C11.1809 6.74995 12.1474 5.56929 14.3106 5.56929C16.9908 5.56929 19 7.30527 19 11.0358ZM2.30511 0C0.91153 0 0 0.906282 0 2.098C0 3.26387 0.885191 4.19775 2.251 4.19775H2.27838C3.69891 4.19775 4.58239 3.26409 4.58239 2.098C4.55566 0.906282 3.69891 0 2.30511 0ZM0.242018 18H4.31409V5.85478H0.242018V18Z" fill="black"/>
</g>
</g>
</svg>
