<svg width="169" height="46" viewBox="0 0 169 46" fill="none" xmlns="http://www.w3.org/2000/svg">
<g id="Group 26">
<path id="Fill 1" fill-rule="evenodd" clip-rule="evenodd" d="M60.548 7.16943H63.5174L59.6015 17.8599C58.4825 20.9387 56.6752 22.2856 53.9211 22.1359V19.5704C55.406 19.5916 56.2235 18.9716 56.7399 17.5176L52.3291 7.16943H55.3629L58.1599 14.3534L60.548 7.16943Z" fill="#1C1C1C"/>
<path id="Fill 3" fill-rule="evenodd" clip-rule="evenodd" d="M69.521 15.4651C70.3602 15.4651 71.0486 15.1871 71.608 14.6312C72.1675 14.0752 72.4473 13.3698 72.4473 12.5146C72.4473 11.6594 72.1675 10.9538 71.608 10.3978C71.0486 9.84203 70.3602 9.56385 69.521 9.56385C68.682 9.56385 67.9934 9.84203 67.4339 10.3978C66.8962 10.9538 66.6163 11.6594 66.6163 12.5146C66.6163 13.3698 66.8962 14.0752 67.4339 14.6312C67.9934 15.1871 68.682 15.4651 69.521 15.4651ZM69.521 18.1591C67.9289 18.1591 66.5736 17.6246 65.4761 16.5342C64.3787 15.4437 63.8408 14.0968 63.8408 12.5146C63.8408 10.9323 64.3787 9.60667 65.4761 8.51636C66.5736 7.42584 67.9289 6.86987 69.521 6.86987C71.1132 6.86987 72.4686 7.42584 73.566 8.51636C74.6632 9.60667 75.2227 10.9323 75.2227 12.5146C75.2227 14.0968 74.6632 15.4437 73.566 16.5342C72.4686 17.6246 71.1132 18.1591 69.521 18.1591Z" fill="#1C1C1C"/>
<path id="Fill 5" fill-rule="evenodd" clip-rule="evenodd" d="M84.281 7.16943H87.0566V17.8599H84.281V16.6625C83.614 17.6673 82.5383 18.1593 81.0752 18.1593C79.8918 18.1593 78.9235 17.7742 78.1491 16.9833C77.3959 16.1922 77.0088 15.1231 77.0088 13.7334V7.16943H79.7842V13.3913C79.7842 14.8237 80.6232 15.5934 81.9144 15.5934C83.3558 15.5934 84.281 14.7168 84.281 12.9422V7.16943Z" fill="#1C1C1C"/>
<path id="Fill 7" fill-rule="evenodd" clip-rule="evenodd" d="M92.3711 9.00812C92.8875 7.63982 94.1787 6.95557 95.6416 6.95557V10.0346C94.8026 9.92752 94.028 10.0986 93.361 10.5477C92.694 10.9966 92.3711 11.7235 92.3711 12.7498V17.8599H89.5957V7.16951H92.3711V9.00812Z" fill="#1C1C1C"/>
<mask id="mask0" mask-type="alpha" maskUnits="userSpaceOnUse" x="0" y="0" width="169" height="46">
<path id="Clip 10" fill-rule="evenodd" clip-rule="evenodd" d="M0 45.9615H168.818V0H84.4088H0V45.9615Z" fill="white"/>
</mask>
<g mask="url(#mask0)">
<path id="Fill 9" fill-rule="evenodd" clip-rule="evenodd" d="M102.634 17.8598H105.409V2.25171H102.634V17.8598Z" fill="#1C1C1C"/>
<path id="Fill 11" fill-rule="evenodd" clip-rule="evenodd" d="M115.737 11.5098C115.414 10.0558 114.338 9.35015 113.069 9.35015C111.584 9.35015 110.573 10.1415 110.25 11.5098H115.737ZM110.293 13.6478C110.659 14.9947 111.67 15.6577 113.327 15.6577C114.381 15.6577 115.199 15.2941 115.737 14.5884L117.974 15.8714C116.92 17.3894 115.35 18.1592 113.284 18.1592C111.498 18.1592 110.078 17.6246 109.002 16.5555C107.926 15.4866 107.389 14.1397 107.389 12.5146C107.389 10.911 107.926 9.56409 108.981 8.49499C110.035 7.40467 111.412 6.87012 113.069 6.87012C114.64 6.87012 115.952 7.40467 116.963 8.49499C117.996 9.58551 118.512 10.911 118.512 12.5146C118.512 12.8781 118.469 13.2415 118.405 13.6478H110.293Z" fill="#1C1C1C"/>
<path id="Fill 12" fill-rule="evenodd" clip-rule="evenodd" d="M127.743 10.2695C127.184 9.71355 126.474 9.43576 125.591 9.43576C124.709 9.43576 123.999 9.71355 123.418 10.2695C122.859 10.8041 122.579 11.5097 122.579 12.3435C122.579 14.054 123.849 15.2726 125.591 15.2726C127.334 15.2726 128.603 14.054 128.603 12.3435C128.603 11.5097 128.324 10.8041 127.743 10.2695ZM128.603 7.16927H131.315V17.3466C131.315 18.9929 130.755 20.2543 129.658 21.1311C128.561 22.0076 127.248 22.4351 125.699 22.4351C123.375 22.4351 121.546 21.5373 120.6 19.8268L122.967 18.4797C123.504 19.4848 124.451 19.9765 125.785 19.9765C127.528 19.9765 128.603 19.0357 128.603 17.3466V16.192C127.786 17.2825 126.646 17.8169 125.161 17.8169C123.633 17.8169 122.364 17.2825 121.331 16.2348C120.32 15.1657 119.804 13.8615 119.804 12.3435C119.804 10.8255 120.32 9.54263 121.353 8.47353C122.386 7.40462 123.655 6.86987 125.161 6.86987C126.646 6.86987 127.786 7.40462 128.603 8.49494V7.16927Z" fill="#1C1C1C"/>
<path id="Fill 13" fill-rule="evenodd" clip-rule="evenodd" d="M139.017 15.5292C139.878 15.5292 140.588 15.2514 141.147 14.6954C141.728 14.118 142.008 13.3912 142.008 12.5146C142.008 11.6378 141.728 10.9109 141.147 10.355C140.588 9.77779 139.878 9.4998 139.017 9.4998C138.157 9.4998 137.447 9.77779 136.887 10.355C136.328 10.9109 136.048 11.6378 136.048 12.5146C136.048 13.3912 136.328 14.118 136.887 14.6954C137.447 15.2514 138.157 15.5292 139.017 15.5292ZM142.008 7.16927H144.783V17.8597H142.008V16.5983C141.169 17.646 140.007 18.1591 138.501 18.1591C137.059 18.1591 135.833 17.6244 134.8 16.534C133.789 15.4435 133.272 14.0966 133.272 12.5146C133.272 10.9321 133.789 9.60667 134.8 8.51636C135.833 7.42584 137.059 6.86987 138.501 6.86987C140.007 6.86987 141.169 7.38301 142.008 8.4307V7.16927Z" fill="#1C1C1C"/>
<path id="Fill 14" fill-rule="evenodd" clip-rule="evenodd" d="M148.356 16.5343C147.28 15.4438 146.742 14.1181 146.742 12.5148C146.742 10.9112 147.28 9.58551 148.356 8.49499C149.453 7.40467 150.809 6.87012 152.422 6.87012C154.509 6.87012 156.36 7.93902 157.242 9.62833L154.854 11.018C154.423 10.1415 153.498 9.58551 152.401 9.58551C150.744 9.58551 149.518 10.8043 149.518 12.5148C149.518 13.3486 149.798 14.054 150.335 14.61C150.873 15.1444 151.562 15.4225 152.401 15.4225C153.52 15.4225 154.445 14.8878 154.875 14.0112L157.285 15.3797C156.338 17.0686 154.509 18.1592 152.422 18.1592C150.809 18.1592 149.453 17.6246 148.356 16.5343Z" fill="#1C1C1C"/>
<path id="Fill 15" fill-rule="evenodd" clip-rule="evenodd" d="M165.848 7.16943H168.817L164.901 17.8599C163.782 20.9387 161.975 22.2856 159.221 22.1359V19.5704C160.706 19.5916 161.523 18.9716 162.04 17.5176L157.629 7.16943H160.663L163.46 14.3534L165.848 7.16943Z" fill="#1C1C1C"/>
<path id="Fill 16" fill-rule="evenodd" clip-rule="evenodd" d="M58.7836 38.3599C59.967 38.3599 60.9782 37.9537 61.7959 37.1413C62.6133 36.3074 63.0222 35.3025 63.0222 34.1265C63.0222 32.9506 62.6133 31.9457 61.7959 31.1332C60.9782 30.2994 59.967 29.8932 58.7836 29.8932C57.6002 29.8932 56.589 30.2994 55.7713 31.1332C54.9539 31.9457 54.545 32.9506 54.545 34.1265C54.545 35.3025 54.9539 36.3074 55.7713 37.1413C56.589 37.9537 57.6002 38.3599 58.7836 38.3599ZM63.0222 28.7812H64.4422V39.4717H63.0222V37.3765C62.0325 38.9371 60.5909 39.7282 58.6761 39.7282C57.1485 39.7282 55.836 39.1939 54.7388 38.1034C53.6627 37.0128 53.125 35.6874 53.125 34.1265C53.125 32.5657 53.6627 31.2402 54.7388 30.1497C55.836 29.0594 57.1485 28.5247 58.6761 28.5247C60.5909 28.5247 62.0325 29.316 63.0222 30.8766V28.7812Z" fill="#1C1C1C"/>
<path id="Fill 17" fill-rule="evenodd" clip-rule="evenodd" d="M68.4234 38.1248C67.3473 37.0345 66.8096 35.7088 66.8096 34.1268C66.8096 32.5444 67.3473 31.2189 68.4234 30.1498C69.4992 29.0595 70.8546 28.5249 72.4682 28.5249C74.5983 28.5249 76.4057 29.6154 77.1802 31.3257L76.0182 31.9886C75.4374 30.7057 74.0818 29.8932 72.4682 29.8932C71.285 29.8932 70.2736 30.2995 69.4561 31.1332C68.6384 31.946 68.2296 32.9506 68.2296 34.1268C68.2296 35.3028 68.6384 36.3076 69.4561 37.1414C70.2736 37.9539 71.285 38.3602 72.4682 38.3602C74.0818 38.3602 75.3945 37.5476 76.1044 36.2648L77.2878 36.9489C76.4057 38.6594 74.5552 39.7285 72.4682 39.7285C70.8546 39.7285 69.4992 39.1941 68.4234 38.1248Z" fill="#1C1C1C"/>
<path id="Fill 18" fill-rule="evenodd" clip-rule="evenodd" d="M84.2377 38.3599C85.4211 38.3599 86.4323 37.9537 87.25 37.1413C88.0674 36.3074 88.4763 35.3025 88.4763 34.1265C88.4763 32.9506 88.0674 31.9457 87.25 31.1332C86.4323 30.2994 85.4211 29.8932 84.2377 29.8932C83.0543 29.8932 82.0431 30.2994 81.2254 31.1332C80.408 31.9457 79.9991 32.9506 79.9991 34.1265C79.9991 35.3025 80.408 36.3074 81.2254 37.1413C82.0431 37.9537 83.0543 38.3599 84.2377 38.3599ZM88.4763 28.7812H89.8963V39.4717H88.4763V37.3765C87.4866 38.9371 86.045 39.7282 84.1302 39.7282C82.6026 39.7282 81.2901 39.1939 80.1929 38.1034C79.1168 37.0128 78.5791 35.6874 78.5791 34.1265C78.5791 32.5657 79.1168 31.2402 80.1929 30.1497C81.2901 29.0594 82.6026 28.5247 84.1302 28.5247C86.045 28.5247 87.4866 29.316 88.4763 30.8766V28.7812Z" fill="#1C1C1C"/>
<path id="Fill 19" fill-rule="evenodd" clip-rule="evenodd" d="M97.9213 38.3601C99.1047 38.3601 100.116 37.9538 100.934 37.1415C101.751 36.3075 102.16 35.3027 102.16 34.1267C102.16 32.9507 101.751 31.9459 100.934 31.1333C100.116 30.2996 99.1047 29.8933 97.9213 29.8933C96.7379 29.8933 95.7267 30.2996 94.909 31.1333C94.0916 31.9459 93.6827 32.9507 93.6827 34.1267C93.6827 35.3027 94.0916 36.3075 94.909 37.1415C95.7267 37.9538 96.7379 38.3601 97.9213 38.3601ZM102.16 24.5054H103.58V39.4718H102.16V37.3766C101.17 38.9373 99.7286 39.7284 97.8138 39.7284C96.2862 39.7284 94.9737 39.194 93.8765 38.1035C92.8004 37.013 92.2627 35.6875 92.2627 34.1267C92.2627 32.5659 92.8004 31.2404 93.8765 30.1499C94.9737 29.0596 96.2862 28.5248 97.8138 28.5248C99.7286 28.5248 101.17 29.3161 102.16 30.8768V24.5054Z" fill="#1C1C1C"/>
<path id="Fill 20" fill-rule="evenodd" clip-rule="evenodd" d="M107.41 33.4638H115.436C115.285 32.3306 114.855 31.454 114.123 30.834C113.392 30.2138 112.531 29.8932 111.563 29.8932C109.325 29.8932 107.69 31.3472 107.41 33.4638ZM115.414 30.2138C116.404 31.3257 116.899 32.6512 116.899 34.1694C116.899 34.3189 116.877 34.5543 116.856 34.8321H107.41C107.69 36.9917 109.39 38.36 111.692 38.36C113.327 38.36 114.554 37.6331 115.156 36.5426L116.404 37.2697C115.457 38.7877 113.758 39.7285 111.671 39.7285C109.971 39.7285 108.594 39.1939 107.539 38.1462C106.485 37.0985 105.947 35.7517 105.947 34.1268C105.947 32.5231 106.464 31.1975 107.518 30.1286C108.572 29.0595 109.906 28.5249 111.563 28.5249C113.155 28.5249 114.446 29.0809 115.414 30.2138Z" fill="#1C1C1C"/>
<path id="Fill 21" fill-rule="evenodd" clip-rule="evenodd" d="M134.65 32.8009V39.4719H133.229V32.8009C133.229 30.9409 132.175 29.8932 130.605 29.8932C128.819 29.8932 127.614 31.0478 127.614 33.5492V39.4719H126.194V32.8009C126.194 30.9195 125.226 29.8932 123.677 29.8932C121.955 29.8932 120.578 31.0692 120.578 33.5492V39.4719H119.158V28.7815H120.578V30.3423C121.353 29.1235 122.45 28.5249 123.87 28.5249C125.419 28.5249 126.517 29.1663 127.141 30.4704C127.915 29.1663 129.077 28.5249 130.626 28.5249C133.036 28.5249 134.65 30.171 134.65 32.8009Z" fill="#1C1C1C"/>
<path id="Fill 22" fill-rule="evenodd" clip-rule="evenodd" d="M144.934 28.7815H146.44L141.836 40.4554C140.997 42.5722 139.383 43.8976 137.489 43.748V42.4225C138.781 42.5722 139.77 41.8237 140.437 40.1988L140.717 39.536L135.897 28.7815H137.404L141.449 37.7402L144.934 28.7815Z" fill="#1C1C1C"/>
<path id="Fill 23" fill-rule="evenodd" clip-rule="evenodd" d="M29.7362 16.2397C30.3785 16.8727 30.9064 17.5774 31.3177 18.3293C31.3211 18.3342 31.3237 18.3402 31.3263 18.3461C32.9101 21.2471 32.7798 24.8375 30.93 27.6292L30.9715 27.6703L33.5043 30.1652L33.5159 30.1771C34.291 29.1462 34.8946 28.0067 35.3208 26.7758C35.4072 26.5252 35.5451 26.3073 35.7171 26.1265L35.7236 26.1197C35.9377 25.8971 36.2077 25.7363 36.5012 25.6465C36.849 25.543 37.2323 25.5422 37.6022 25.6675C38.3636 25.928 38.8359 26.6479 38.8121 27.4079C38.8129 27.4155 38.8129 27.424 38.8121 27.4315C38.8046 27.5989 38.7732 27.7696 38.7158 27.9361C37.9179 30.2443 36.6309 32.3002 34.891 34.0442C34.8675 34.0676 34.8445 34.0902 34.8208 34.1122C34.8192 34.1156 34.8166 34.1182 34.8132 34.1216C34.7555 34.1787 34.6989 34.2368 34.6406 34.2913C33.4981 35.3862 32.2205 36.2909 30.8548 36.9956C30.8033 37.0215 30.7516 37.0493 30.7007 37.0747C28.973 37.9423 26.5587 38.5116 25.1982 38.7134C23.8382 38.9143 21.6096 38.7327 21.6096 38.7327C20.4139 38.6075 19.2235 38.3512 18.0632 37.9566C18.0261 37.9449 17.9888 37.9314 17.9515 37.9197C17.4074 37.7306 16.8709 37.5119 16.3421 37.262C15.4468 36.8399 15.0653 35.7746 15.4901 34.8867C15.5739 34.7108 15.6821 34.5546 15.8116 34.4208C16.1721 34.0442 16.6823 33.8432 17.2019 33.8684C17.4311 33.8793 17.6612 33.9348 17.8813 34.0391C21.5233 35.7595 25.6974 35.6241 29.1522 33.8541C29.1616 33.8497 29.1702 33.8448 29.1785 33.8398C29.7741 33.5339 30.3488 33.1782 30.8947 32.7737C30.9106 32.7626 30.9276 32.7509 30.9428 32.7392C30.9581 32.7291 30.9715 32.719 30.9861 32.708L30.9607 32.6829L28.4018 30.162C25.4859 32.1077 21.6757 32.1975 18.6776 30.4225C18.6327 30.3964 18.587 30.368 18.5421 30.34C17.9693 29.9879 17.4285 29.5666 16.9301 29.0762C15.1888 27.3594 14.292 25.1091 14.2453 22.8448L14.2461 22.8405L14.2453 22.8397C14.2419 22.712 14.2429 22.5849 14.2461 22.457C14.2622 22.3099 14.297 22.1677 14.346 22.0333C14.4332 21.7987 14.5669 21.5868 14.7377 21.4101L14.7463 21.4018C15.0711 21.0687 15.5247 20.8619 16.0273 20.8603C17.0014 20.8559 17.7985 21.6228 17.8332 22.5841C17.8322 22.6287 17.8322 22.6757 17.8332 22.7203V22.7338C17.8517 24.1162 18.3933 25.4934 19.4585 26.5419C19.6074 26.6882 19.7616 26.8246 19.923 26.9499C19.9408 26.9642 19.9596 26.9793 19.9791 26.9933C22.1071 28.6222 25.1652 28.4911 27.141 26.6085C27.1485 26.6025 27.1569 26.5942 27.1645 26.5867L27.2425 26.5092C29.1067 24.6398 29.3334 21.7591 27.9305 19.6452C27.9201 19.6302 27.9093 19.6157 27.8992 19.6006C27.7012 19.3082 27.4708 19.0306 27.2096 18.7722C26.1713 17.7489 24.8216 17.2235 23.4637 17.1926C23.3366 17.189 23.2097 17.1908 23.0836 17.1965C23.0826 17.1975 23.0818 17.1965 23.0812 17.1957C22.6799 17.1571 22.289 16.9856 21.982 16.6804C21.2778 15.9807 21.277 14.8466 21.981 14.1467C22.1679 13.9611 22.3862 13.8247 22.6191 13.7382C22.7901 13.6726 22.9694 13.6355 23.1504 13.6254C23.169 13.6254 23.1885 13.6248 23.2071 13.6248C23.2292 13.623 23.2512 13.623 23.2739 13.6238C23.2969 13.623 23.3196 13.6238 23.3425 13.6248C25.6543 13.6248 27.9678 14.4958 29.7362 16.2397Z" fill="#FF6B01"/>
<path id="Fill 24" fill-rule="evenodd" clip-rule="evenodd" d="M39.9345 6.27457C47.8013 14.0922 48.8828 26.1434 43.1839 35.1213C42.6567 35.9529 41.5507 36.2011 40.7137 35.6771C39.8753 35.1517 39.6273 34.0526 40.1546 33.2226C44.6689 26.1115 44.1611 16.7376 38.6103 10.1082L36.0675 12.6349C37.2166 14.0559 38.1025 15.6477 38.7126 17.3857C39.0377 18.3143 38.545 19.3283 37.6108 19.6511C36.6769 19.9758 35.6555 19.4855 35.3304 18.5572C34.7025 16.7661 33.6955 15.1736 32.3375 13.8239C27.4034 8.92096 19.375 8.92096 14.4403 13.8247C10.6469 17.5943 9.661 23.3602 11.9855 28.1724C12.4127 29.0579 12.0372 30.1208 11.1453 30.5461C10.255 30.9718 9.18472 30.5975 8.75734 29.712C5.77539 23.54 7.0414 16.1437 11.9075 11.3082C17.8105 5.44221 27.164 5.04704 33.5341 10.1191L36.0777 7.59152C33.6754 5.60122 30.8365 4.201 27.7715 3.51675C26.807 3.30142 26.2003 2.34871 26.4177 1.38925C26.6344 0.430586 27.593 -0.172371 28.5577 0.044741C32.8691 1.00757 36.8038 3.16184 39.9345 6.27457Z" fill="#FF6B01"/>
<path id="Fill 25" fill-rule="evenodd" clip-rule="evenodd" d="M18.2202 0.0438588C13.909 1.00827 9.97514 3.16195 6.84255 6.27488C-2.28085 15.3408 -2.28085 30.0932 6.84255 39.1591C14.5166 46.785 26.6032 48.1975 35.8712 42.3881C36.7081 41.8642 36.9587 40.7644 36.4307 39.9338C35.9026 39.1028 34.7976 38.854 33.9608 39.3778C31.3164 41.035 28.2914 42.0367 25.1792 42.3175L25.18 38.7447C28.7661 38.3478 32.2049 36.7755 34.8702 34.1267C36.6135 32.3943 37.9062 30.3495 38.7127 28.0479C38.784 27.8445 38.8161 27.6359 38.8117 27.4317C38.8125 27.4242 38.8125 27.4156 38.8117 27.4081C38.7889 26.6925 38.332 26.0315 37.6111 25.7826C36.6769 25.4583 35.6556 25.9484 35.3305 26.8767C34.8999 28.1037 34.2924 29.237 33.5154 30.2629L30.9457 27.7091C30.9541 27.6958 30.9627 27.6839 30.971 27.6704C32.8267 24.8678 32.9462 21.253 31.3258 18.3463C31.3232 18.3402 31.3206 18.3344 31.3172 18.3295C30.9178 17.6163 30.4144 16.9461 29.8052 16.3405C27.8403 14.3883 25.1909 13.5197 22.6186 13.7382C22.3858 13.8248 22.1675 13.961 21.9805 14.1468C21.2764 14.8465 21.2774 15.9809 21.9815 16.6804C22.2886 16.9855 22.6795 17.1572 23.0805 17.1959C23.0813 17.1967 23.0821 17.1977 23.0831 17.1967C23.2092 17.1908 23.3361 17.1892 23.463 17.1925C24.8212 17.2237 26.1708 17.7491 27.2092 18.7724C27.4703 19.0308 27.7008 19.3081 27.8987 19.6008C27.9089 19.6159 27.9197 19.6301 27.93 19.6452C29.3854 21.7693 29.1661 24.6947 27.2724 26.5765C25.2823 28.5541 22.132 28.6929 19.9787 26.9935C19.9591 26.9794 19.9404 26.9642 19.9226 26.9499C19.7612 26.8246 19.6069 26.6884 19.4581 26.542C18.3928 25.4934 17.8511 24.1161 17.8327 22.734V22.7203C17.8317 22.6759 17.8317 22.6287 17.8327 22.5843C17.798 21.623 17.0009 20.8561 16.0268 20.8602C15.5242 20.862 15.0707 21.0688 14.7458 21.4019L14.7373 21.4103C14.5665 21.5867 14.4328 21.7989 14.3456 22.0332C14.1542 24.5644 15.0292 27.1611 16.973 29.0925C17.4578 29.5743 17.9848 29.9905 18.5417 30.3402C18.5866 30.368 18.632 30.3965 18.6771 30.4227C21.6659 32.227 25.4844 32.1624 28.4131 30.226L30.9794 32.7762C27.2463 35.5561 22.1954 36.0985 17.8996 34.0494C17.0077 33.6237 15.938 33.997 15.5098 34.8835C15.0825 35.7688 15.4582 36.8318 16.3501 37.2573C16.8756 37.5085 17.4103 37.7288 17.9511 37.9197C17.9884 37.9316 18.0255 37.9449 18.0628 37.9568C19.2187 38.3553 20.4059 38.6168 21.598 38.7471L21.599 42.32C16.961 41.9072 12.6219 39.8688 9.37516 36.6424C1.64785 28.9636 1.64785 16.4702 9.37516 8.79139C12.0271 6.15611 15.3584 4.33237 19.007 3.51686C19.9709 3.30074 20.5774 2.34782 20.361 1.38936C20.1435 0.431488 19.1857 -0.172262 18.2202 0.0438588Z" fill="#FF6B01"/>
</g>
</g>
</svg>
