<svg width="47" height="46" viewBox="0 0 47 46" fill="none" xmlns="http://www.w3.org/2000/svg">
<path fill-rule="evenodd" clip-rule="evenodd" d="M39.9345 6.27457C47.8013 14.0922 48.8828 26.1434 43.1839 35.1213C42.6567 35.9529 41.5507 36.2011 40.7137 35.6771C39.8753 35.1517 39.6273 34.0526 40.1546 33.2226C44.6689 26.1115 44.1611 16.7376 38.6103 10.1082L36.0675 12.6349C37.2166 14.0559 38.1025 15.6477 38.7126 17.3857C39.0377 18.3143 38.545 19.3283 37.6108 19.6511C36.6769 19.9758 35.6555 19.4855 35.3304 18.5572C34.7025 16.7661 33.6955 15.1736 32.3375 13.8239C27.4034 8.92096 19.375 8.92096 14.4403 13.8247C10.6469 17.5943 9.661 23.3602 11.9855 28.1724C12.4127 29.0579 12.0372 30.1208 11.1453 30.5461C10.255 30.9718 9.18472 30.5975 8.75734 29.712C5.77539 23.54 7.0414 16.1437 11.9075 11.3082C17.8105 5.44221 27.164 5.04704 33.5341 10.1191L36.0777 7.59152C33.6754 5.60122 30.8365 4.201 27.7715 3.51675C26.807 3.30142 26.2003 2.34871 26.4177 1.38925C26.6344 0.430586 27.593 -0.172371 28.5577 0.044741C32.8691 1.00757 36.8038 3.16184 39.9345 6.27457" fill="#FF6B01"/>
<path fill-rule="evenodd" clip-rule="evenodd" d="M18.2202 0.0438588C13.909 1.00827 9.97514 3.16195 6.84255 6.27488C-2.28085 15.3408 -2.28085 30.0932 6.84255 39.1591C14.5166 46.785 26.6032 48.1975 35.8712 42.3881C36.7081 41.8642 36.9587 40.7644 36.4307 39.9338C35.9026 39.1028 34.7976 38.854 33.9608 39.3778C31.3164 41.035 28.2914 42.0367 25.1792 42.3175L25.18 38.7447C28.7661 38.3478 32.2049 36.7755 34.8702 34.1267C36.6135 32.3943 37.9062 30.3495 38.7127 28.0479C38.784 27.8445 38.8161 27.6359 38.8117 27.4317C38.8125 27.4242 38.8125 27.4156 38.8117 27.4081C38.7889 26.6925 38.332 26.0315 37.6111 25.7826C36.6769 25.4583 35.6556 25.9484 35.3305 26.8767C34.8999 28.1037 34.2924 29.237 33.5154 30.2629L30.9457 27.7091C30.9541 27.6958 30.9627 27.6839 30.971 27.6704C32.8267 24.8678 32.9462 21.253 31.3258 18.3463C31.3232 18.3402 31.3206 18.3344 31.3172 18.3295C30.9178 17.6163 30.4144 16.9461 29.8052 16.3405C27.8403 14.3883 25.1909 13.5197 22.6186 13.7382C22.3858 13.8248 22.1675 13.961 21.9805 14.1468C21.2764 14.8465 21.2774 15.9809 21.9815 16.6804C22.2886 16.9855 22.6795 17.1572 23.0805 17.1959C23.0813 17.1967 23.0821 17.1977 23.0831 17.1967C23.2092 17.1908 23.3361 17.1892 23.463 17.1925C24.8212 17.2237 26.1708 17.7491 27.2092 18.7724C27.4703 19.0308 27.7008 19.3081 27.8987 19.6008C27.9089 19.6159 27.9197 19.6301 27.93 19.6452C29.3854 21.7693 29.1661 24.6947 27.2724 26.5765C25.2823 28.5541 22.132 28.6929 19.9787 26.9935C19.9591 26.9794 19.9404 26.9642 19.9226 26.9499C19.7612 26.8246 19.6069 26.6884 19.4581 26.542C18.3928 25.4934 17.8511 24.1161 17.8327 22.734V22.7203C17.8317 22.6759 17.8317 22.6287 17.8327 22.5843C17.798 21.623 17.0009 20.8561 16.0268 20.8602C15.5242 20.862 15.0707 21.0688 14.7458 21.4019L14.7373 21.4103C14.5665 21.5867 14.4328 21.7989 14.3456 22.0332C14.1542 24.5644 15.0292 27.1611 16.973 29.0925C17.4578 29.5743 17.9848 29.9905 18.5417 30.3402C18.5866 30.368 18.632 30.3965 18.6771 30.4227C21.6659 32.227 25.4844 32.1624 28.4131 30.226L30.9794 32.7762C27.2463 35.5561 22.1954 36.0985 17.8996 34.0494C17.0077 33.6237 15.938 33.997 15.5098 34.8835C15.0825 35.7688 15.4582 36.8318 16.3501 37.2573C16.8756 37.5085 17.4103 37.7288 17.9511 37.9197C17.9884 37.9316 18.0255 37.9449 18.0628 37.9568C19.2187 38.3553 20.4059 38.6168 21.598 38.7471L21.599 42.32C16.961 41.9072 12.6219 39.8688 9.37516 36.6424C1.64785 28.9636 1.64785 16.4702 9.37516 8.79139C12.0271 6.15611 15.3584 4.33237 19.007 3.51686C19.9709 3.30074 20.5774 2.34782 20.361 1.38936C20.1435 0.431488 19.1857 -0.172262 18.2202 0.0438588" fill="#FF6B01"/>
<path fill-rule="evenodd" clip-rule="evenodd" d="M29.7362 16.2397C30.3785 16.8727 30.9064 17.5774 31.3177 18.3293C31.3211 18.3342 31.3237 18.3402 31.3263 18.3461C32.9101 21.2471 32.7798 24.8375 30.93 27.6292L30.9715 27.6703L33.5043 30.1652L33.5159 30.1771C34.291 29.1462 34.8946 28.0067 35.3208 26.7758C35.4072 26.5252 35.5451 26.3073 35.7171 26.1265L35.7236 26.1197C35.9377 25.8971 36.2077 25.7363 36.5012 25.6465C36.849 25.543 37.2323 25.5422 37.6022 25.6675C38.3636 25.928 38.8359 26.6479 38.8121 27.4079C38.8129 27.4155 38.8129 27.424 38.8121 27.4315C38.8046 27.5989 38.7732 27.7696 38.7158 27.9361C37.9178 30.2443 36.6309 32.3002 34.891 34.0442C34.8675 34.0676 34.8445 34.0902 34.8208 34.1122C34.8192 34.1156 34.8166 34.1182 34.8132 34.1216C34.7555 34.1787 34.6989 34.2368 34.6406 34.2913C33.4981 35.3862 32.2205 36.2909 30.8548 36.9956C30.8033 37.0215 30.7516 37.0493 30.7007 37.0747C28.973 37.9423 26.5587 38.5116 25.1982 38.7134C23.8382 38.9143 21.6096 38.7327 21.6096 38.7327C20.4139 38.6075 19.2235 38.3512 18.0632 37.9566C18.0261 37.9449 17.9888 37.9314 17.9515 37.9197C17.4074 37.7306 16.8709 37.5119 16.3421 37.262C15.4468 36.8399 15.0653 35.7746 15.4901 34.8867C15.5739 34.7108 15.6821 34.5546 15.8116 34.4208C16.1721 34.0442 16.6823 33.8432 17.2019 33.8684C17.4311 33.8793 17.6612 33.9348 17.8813 34.0391C21.5233 35.7595 25.6974 35.6241 29.1522 33.8541C29.1616 33.8497 29.1702 33.8448 29.1785 33.8398C29.7741 33.5339 30.3488 33.1782 30.8947 32.7737C30.9106 32.7626 30.9276 32.7509 30.9428 32.7392C30.9581 32.7291 30.9715 32.719 30.9861 32.708L30.9607 32.6829L28.4018 30.162C25.4859 32.1077 21.6757 32.1975 18.6776 30.4225C18.6327 30.3964 18.587 30.368 18.5421 30.34C17.9693 29.9879 17.4285 29.5666 16.9301 29.0762C15.1888 27.3594 14.292 25.1091 14.2453 22.8448L14.2461 22.8405L14.2453 22.8397C14.2419 22.712 14.2429 22.5849 14.2461 22.457C14.2622 22.3099 14.297 22.1677 14.346 22.0333C14.4332 21.7987 14.5669 21.5868 14.7377 21.4101L14.7463 21.4018C15.0711 21.0687 15.5247 20.8619 16.0273 20.8603C17.0014 20.8559 17.7985 21.6228 17.8332 22.5841C17.8322 22.6287 17.8322 22.6757 17.8332 22.7203V22.7338C17.8517 24.1162 18.3933 25.4934 19.4585 26.5419C19.6074 26.6882 19.7616 26.8246 19.923 26.9499C19.9408 26.9642 19.9596 26.9793 19.9791 26.9933C22.1071 28.6222 25.1652 28.4911 27.141 26.6085C27.1485 26.6025 27.1569 26.5942 27.1645 26.5867L27.2425 26.5092C29.1067 24.6398 29.3334 21.7591 27.9305 19.6452C27.9201 19.6302 27.9093 19.6157 27.8992 19.6006C27.7012 19.3082 27.4708 19.0306 27.2096 18.7722C26.1713 17.7489 24.8216 17.2235 23.4637 17.1926C23.3366 17.189 23.2097 17.1908 23.0836 17.1965C23.0826 17.1975 23.0818 17.1965 23.0812 17.1957C22.6799 17.1571 22.289 16.9856 21.982 16.6804C21.2778 15.9807 21.277 14.8466 21.981 14.1467C22.1679 13.9611 22.3862 13.8247 22.6191 13.7382C22.7901 13.6726 22.9694 13.6355 23.1504 13.6254C23.169 13.6254 23.1885 13.6248 23.2071 13.6248C23.2292 13.623 23.2512 13.623 23.2739 13.6238C23.2969 13.623 23.3196 13.6238 23.3425 13.6248C25.6543 13.6248 27.9678 14.4958 29.7362 16.2397" fill="#FF6B01"/>
</svg>
