<svg width="72" height="72" viewBox="0 0 72 72" fill="none" xmlns="http://www.w3.org/2000/svg">
<mask id="mask0" mask-type="alpha" maskUnits="userSpaceOnUse" x="0" y="0" width="72" height="72">
<path fill-rule="evenodd" clip-rule="evenodd" d="M0 0H72V71.9887H0V0Z" fill="white"/>
</mask>
<g mask="url(#mask0)">
<path fill-rule="evenodd" clip-rule="evenodd" d="M69.996 69.5998L47.7276 42.4395C47.4997 42.1618 47.16 42 46.8004 42H46.5711L45.8533 38.6507C46.6129 38.7553 47.3687 38.8256 48.1179 38.8256C50.3679 38.8256 52.5615 38.2185 54.6686 36.1875C55.4062 35.4771 56.1086 34.5 56.8521 33.4644C57.9982 31.872 59.2969 30.066 60.5229 29.6462C60.5244 29.6447 60.5259 29.6447 60.528 29.6434C61.1557 29.4302 61.4904 28.7497 61.278 28.1207C61.0642 27.4944 60.3816 27.1537 59.7553 27.372C59.7553 27.372 59.754 27.372 59.7525 27.372C58.1331 27.9272 56.3518 26.9554 55.3213 25.9599C54.186 24.8642 53.3856 23.4412 52.5381 21.9345L52.0643 21.0996C51.3647 19.8831 50.5269 18.5829 49.4436 17.4998C51.4761 15.9675 52.8004 13.5381 52.8004 10.8004V1.19963C52.8004 0.536063 52.2626 0 51.5998 0H46.8004C46.1374 0 45.5998 0.536063 45.5998 1.19963V10.8004C45.5998 11.4624 45.0615 12 44.4002 12H41.3518C42.4965 10.7241 43.1996 9.04537 43.1996 7.19963C43.1996 3.22931 39.9705 0 36 0C32.0295 0 28.8004 3.22931 28.8004 7.19963C28.8004 9.04537 29.5035 10.7241 30.6482 12H27.5998C26.9385 12 26.4002 11.4624 26.4002 10.8004V1.19963C26.4002 0.536063 25.8626 0 25.1996 0H20.4002C19.7374 0 19.1996 0.536063 19.1996 1.19963V10.8004C19.1996 15.4307 22.968 19.1996 27.5998 19.1996H28.8004V26.2742L25.4289 42H25.1996C24.84 42 24.5003 42.1618 24.2724 42.4395L2.004 69.5998H0V72H72V69.5998H69.996ZM49.9826 22.2971L50.4456 23.1144C51.3397 24.7046 52.2649 26.3481 53.6522 27.6885C54.4665 28.4751 55.5579 29.2054 56.7825 29.6104C56.1255 30.3662 55.5096 31.2217 54.9037 32.064C54.2241 33.0081 53.5832 33.9002 53.0025 34.4604C50.8609 36.5244 48.6686 36.6915 45.3135 36.1356L43.1996 26.2742V19.1996H44.4002C45.3853 19.1996 46.3271 19.0209 47.2069 18.7082C48.3478 19.6369 49.2157 20.9642 49.9826 22.2971ZM36 2.40019C38.6469 2.40019 40.8004 4.55269 40.8004 7.19963C40.8004 9.8475 38.6469 12 36 12C33.3531 12 31.1996 9.8475 31.1996 7.19963C31.1996 4.55269 33.3531 2.40019 36 2.40019ZM31.1734 26.6522C31.1916 26.5693 31.1996 26.4836 31.1996 26.4002V18C31.1996 17.3364 30.6621 16.8004 30 16.8004H27.5998C24.2916 16.8004 21.5998 14.1086 21.5998 10.8004V2.40019H24V10.8004C24 12.7852 25.6149 14.4002 27.5998 14.4002H44.4002C46.3851 14.4002 48 12.7852 48 10.8004V2.40019H50.4002V10.8004C50.4002 14.1086 47.7084 16.8004 44.4002 16.8004H42C41.3379 16.8004 40.8004 17.3364 40.8004 18V26.4002C40.8004 26.4836 40.8084 26.5693 40.8266 26.6522L44.1152 42H40.5373L37.1638 28.5096C37.0305 27.9741 36.5509 27.5998 36 27.5998C35.4491 27.5998 34.9695 27.9741 34.8362 28.5096L31.4627 42H27.8848L31.1734 26.6522ZM38.0625 42H33.9375L36 33.7477L38.0625 42ZM25.7674 44.4002H46.2326L52.2107 51.6921L48 55.9035L42.8481 50.7518C42.3793 50.2823 41.6207 50.2823 41.1519 50.7518L36 55.9035L30.8481 50.7518C30.3793 50.2823 29.6207 50.2823 29.1519 50.7518L24 55.9035L19.7893 51.6921L25.7674 44.4002ZM5.10712 69.5998L18.2608 53.5569L23.1519 58.4488C23.6207 58.9176 24.3793 58.9176 24.8481 58.4488L30 53.2969L35.1519 58.4488C35.6207 58.9176 36.3793 58.9176 36.8481 58.4488L42 53.2969L47.1519 58.4488C47.3856 58.6824 47.6931 58.8004 48 58.8004C48.3069 58.8004 48.6144 58.6824 48.8481 58.4488L53.7392 53.5569L66.8929 69.5998H5.10712Z" fill="#FF6B01"/>
</g>
<path fill-rule="evenodd" clip-rule="evenodd" d="M34.8008 67.1999H37.2002V64.8004H34.8008V67.1999Z" fill="white"/>
<path fill-rule="evenodd" clip-rule="evenodd" d="M39.5996 67.1999H41.9998V64.8004H39.5996V67.1999Z" fill="white"/>
<path fill-rule="evenodd" clip-rule="evenodd" d="M30 67.1999H32.4002V64.8004H30V67.1999Z" fill="white"/>
<path fill-rule="evenodd" clip-rule="evenodd" d="M15.5998 7.19963C12.2916 7.19963 9.59981 4.50806 9.59981 1.19963C9.59981 0.536063 9.06225 0 8.40019 0C7.73738 0 7.19963 0.536063 7.19963 1.19963C7.19963 4.50806 4.50806 7.19963 1.19963 7.19963C0.537562 7.19963 0 7.73663 0 8.40019C0 9.06375 0.537562 9.59981 1.19963 9.59981C4.50806 9.59981 7.19963 12.2916 7.19963 15.5998C7.19963 16.2634 7.73738 16.8004 8.40019 16.8004C9.06225 16.8004 9.59981 16.2634 9.59981 15.5998C9.59981 12.2916 12.2916 9.59981 15.5998 9.59981C16.2626 9.59981 16.8004 9.06375 16.8004 8.40019C16.8004 7.73663 16.2626 7.19963 15.5998 7.19963ZM8.40019 11.2764C7.69125 10.1001 6.69938 9.10913 5.52394 8.40019C6.69938 7.69125 7.69125 6.69938 8.40019 5.52394C9.10913 6.69938 10.1001 7.69125 11.2764 8.40019C10.1001 9.10913 9.10913 10.1001 8.40019 11.2764Z" fill="#FF6B01"/>
<path fill-rule="evenodd" clip-rule="evenodd" d="M70.8 43.1996C67.4915 43.1996 64.8 40.5081 64.8 37.1996C64.8 36.5361 64.2622 36 63.5994 36C62.9373 36 62.3998 36.5361 62.3998 37.1996C62.3998 40.5081 59.708 43.1996 56.3998 43.1996C55.737 43.1996 55.1992 43.7366 55.1992 44.4002C55.1992 45.0637 55.737 45.5998 56.3998 45.5998C59.708 45.5998 62.3998 48.2916 62.3998 51.5998C62.3998 52.2634 62.9373 52.8004 63.5994 52.8004C64.2622 52.8004 64.8 52.2634 64.8 51.5998C64.8 48.2916 67.4915 45.5998 70.8 45.5998C71.462 45.5998 71.9996 45.0637 71.9996 44.4002C71.9996 43.7366 71.462 43.1996 70.8 43.1996ZM63.5994 47.2764C62.8905 46.1001 61.8995 45.1076 60.7232 44.4002C61.9003 43.6913 62.8905 42.6994 63.5994 41.5239C64.3083 42.6994 65.3002 43.6918 66.4757 44.4002C65.3002 45.1091 64.3083 46.1001 63.5994 47.2764Z" fill="#FF6B01"/>
<path fill-rule="evenodd" clip-rule="evenodd" d="M14.4002 28.8004C11.9949 28.8004 9.72225 29.833 8.13713 31.6069C7.45088 31.339 6.72581 31.1997 6 31.1997C2.69156 31.1997 0 33.8914 0 37.1997C0 37.6714 0.0680625 38.1621 0.208687 38.7027C0.34575 39.2307 0.823313 39.5999 1.37044 39.5999H21.4922C22.0774 39.5999 22.5776 39.1765 22.6751 38.5979C22.7593 38.0999 22.8004 37.6414 22.8004 37.1997C22.8004 32.5694 19.032 28.8004 14.4002 28.8004ZM2.40019 37.1997C2.40019 35.2148 4.01513 33.5999 6 33.5999C6.64669 33.5999 7.27219 33.78 7.85663 34.1339C8.40019 34.4648 9.10481 34.3125 9.46575 33.7919C10.5887 32.1694 12.4329 31.1997 14.4002 31.1997C17.7084 31.1997 20.4002 33.8914 20.4002 37.1997H2.40019Z" fill="#FF6B01"/>
</svg>
