<svg width="55" height="70" viewBox="0 0 55 70" fill="none" xmlns="http://www.w3.org/2000/svg">
<g id="tourist">
<path id="Fill 1" fill-rule="evenodd" clip-rule="evenodd" d="M3.58698 41.2555V32.6667C3.59281 28.159 7.33684 24.5057 11.9565 24.5H17.8753C17.4969 23.7577 17.2102 22.9744 17.02 22.1667H16.7391C14.7582 22.1667 13.1522 20.5995 13.1522 18.6667C13.1621 16.7377 14.7623 15.1763 16.7391 15.1667V11.6667C16.0788 11.6667 15.5435 11.1443 15.5435 10.5C15.5499 4.70371 20.3641 0.00627083 26.3043 0H28.6957C34.1725 0.0074375 38.7723 4.02296 39.3858 9.33333H43.0435C43.7038 9.33333 44.2391 9.85571 44.2391 10.5C44.2391 11.1443 43.7038 11.6667 43.0435 11.6667H38.2609V15.1667C40.2377 15.1763 41.8379 16.7377 41.8478 18.6667C41.8478 20.5995 40.2418 22.1667 38.2609 22.1667H37.98C37.7898 22.9744 37.5025 23.7577 37.1247 24.5H43.0435C47.6632 24.5057 51.4072 28.159 51.413 32.6667V41.2532C53.7553 44.5578 55.0064 48.4821 55 52.5V68.8333C55 69.4776 54.4646 70 53.8043 70H1.19567C0.535377 70 2.28882e-05 69.4776 2.28882e-05 68.8333V52.5C-0.00640374 48.4827 1.2453 44.5595 3.58698 41.2555ZM2.42652 62.8409H10.9191V49.7745C10.9167 48.8436 11.3007 47.9504 11.9854 47.2936L12.072 47.2109C13.669 45.6786 14.5647 43.5942 14.5588 41.4223V35.7955C7.27822 38.2488 2.40817 44.8792 2.42652 52.3147V62.8409ZM41.25 56.1695L36.2404 51.3945C34.1716 49.4158 33.0008 46.6961 32.9933 43.8524V35H31.8137V38.4943C31.8137 41.0673 29.7012 43.1534 27.0956 43.1534C24.49 43.1534 22.3775 41.0673 22.3775 38.4943V35H21.1979V43.8524C21.1916 46.6972 20.0202 49.4186 17.9508 51.3978L12.9412 56.1695V67.6136H41.25V56.1695ZM38.6624 41.7292V35.3261L38.5557 35.3011C38.3457 35.2571 38.134 35.2239 37.9223 35.1879C37.7713 35.1628 37.621 35.1332 37.4689 35.1116C37.2053 35.075 36.9416 35.0512 36.6768 35.0274C36.5829 35.0186 36.4899 35.0058 36.3971 35V44.0074C36.4014 46.2698 37.276 48.4345 38.8222 50.0079L42.0588 53.2955V50.233C42.0588 49.9172 41.9394 49.6143 41.7271 49.3911L41.6464 49.3061C39.7293 47.3013 38.6547 44.5731 38.6624 41.7292ZM31.5441 11.9318C32.4724 13.359 33.9497 14.2391 35.5497 14.3182H35.5882V11.9318H31.5441ZM19.4118 11.9318C19.9127 13.3569 21.2491 14.3118 22.7513 14.3182H23.9136C25.6676 14.2524 27.2914 13.3703 28.3088 11.9318H19.4118ZM35.5882 16.2928V16.2839H35.5236C33.2032 16.2112 31.0231 15.2078 29.5221 13.5227C28.0008 15.231 25.7845 16.2387 23.4316 16.2928H22.2426C20.9257 16.2883 19.6468 15.8724 18.6029 15.1087V19.7556C18.606 21.5913 19.2646 23.3716 20.4713 24.8044C22.4346 27.1557 25.6129 28.2689 28.7104 27.69C28.977 27.6415 29.2424 27.5807 29.5049 27.5075C29.765 27.4348 30.0221 27.3518 30.2756 27.255C31.6228 26.7297 32.8081 25.8876 33.7199 24.8078C34.9272 23.3745 35.5858 21.5923 35.5882 19.7556V16.2928ZM29.9265 34.1206V30.2273C29.8756 30.2396 29.8247 30.2433 29.7739 30.2538C29.5136 30.308 29.2517 30.3506 28.988 30.3853C28.8738 30.4013 28.7615 30.423 28.6473 30.4348C28.5568 30.4449 28.4669 30.4508 28.3765 30.4578C28.2854 30.4654 28.2186 30.4578 28.134 30.469C27.9223 30.4808 27.7111 30.499 27.4983 30.499C27.2557 30.499 27.0074 30.4808 26.7631 30.4643C26.7069 30.4643 26.6514 30.4643 26.5958 30.4554C26.516 30.4554 26.4361 30.4437 26.3533 30.4348C26.2328 30.423 26.1221 30.4013 26.0061 30.3853C25.7454 30.3493 25.4864 30.308 25.2286 30.2538C25.1777 30.2433 25.1244 30.2396 25.0735 30.2273V38.9493C25.0735 40.2826 26.1575 41.3636 27.4958 41.3636C28.8336 41.3636 29.9181 40.2826 29.9181 38.9493L29.9265 34.1206ZM17.877 35.0458C17.7934 35.0546 17.7095 35.0602 17.626 35.0719C17.1908 35.1265 16.7651 35.219 16.3382 35.307V41.4205C16.346 44.1449 15.2711 46.7587 13.3531 48.6793L13.273 48.7607C13.0606 48.9746 12.9412 49.2648 12.9412 49.5672V52.5L16.1773 49.3516C17.7238 47.8438 18.5991 45.7699 18.6029 43.6019V35C18.3608 35.0174 18.1169 35.0184 17.877 35.0458ZM5.66177 33.0348V38.9773C5.68846 38.9509 5.71864 38.9281 5.74654 38.9017C6.16405 38.4979 6.59717 38.1134 7.04622 37.7475C7.1404 37.6709 7.23639 37.5954 7.33239 37.5198C7.79554 37.1527 8.27128 36.8004 8.76537 36.4767C8.79798 36.4538 8.83286 36.4346 8.86607 36.4129C9.34409 36.1027 9.83636 35.8135 10.3376 35.5454C10.4324 35.4933 10.5253 35.4407 10.6201 35.3915C11.1344 35.1239 11.6605 34.8793 12.1978 34.6568C12.3056 34.6112 12.4134 34.569 12.5211 34.5263C13.0757 34.3055 13.6379 34.0995 14.2113 33.9269L14.2682 33.9111C14.5111 33.8379 14.761 33.7736 15.0087 33.7097C15.0305 33.7027 15.046 33.6892 15.0678 33.6834C15.1336 33.6664 15.2001 33.6559 15.2657 33.6401C15.4417 33.5956 15.6212 33.5599 15.7996 33.52C15.8842 33.5025 15.9684 33.4809 16.0542 33.4638C16.1123 33.4521 16.1697 33.4364 16.2278 33.4258L16.4594 33.3825C16.7024 33.338 16.9446 33.3047 17.1875 33.2684C17.3587 33.2433 17.5269 33.2122 17.6981 33.1917C17.8196 33.1776 17.9298 33.1689 18.0465 33.156C18.1632 33.1426 18.2758 33.1355 18.3901 33.1261L18.5826 33.1079C18.704 33.0987 18.8255 33.0828 18.9564 33.0747C19.371 33.0495 19.7958 33.0348 20.2206 33.0348H22.6471V29.497C22.5001 29.4249 22.3509 29.3594 22.208 29.2803C22.0867 29.2118 21.9652 29.1305 21.8437 29.0573C21.589 28.9028 21.3366 28.7466 21.0956 28.578C20.9558 28.4785 20.826 28.3677 20.6927 28.2624C20.4813 28.0956 20.274 27.9264 20.0761 27.7444C19.9428 27.6245 19.8178 27.495 19.6916 27.3669C19.5838 27.2579 19.467 27.1584 19.3651 27.0455H11.7279C8.38154 27.0496 5.66829 29.7282 5.66177 33.0348ZM15.5999 17.8665C15.4495 18.0838 15.3657 18.3827 15.3677 18.6932C15.3677 19.3521 15.7298 19.8864 16.1765 19.8864V17.5C15.9581 17.4994 15.7495 17.6317 15.5999 17.8665ZM28.2686 2.38636H25.9225C21.8426 2.39158 18.383 5.43867 17.7941 9.54545H36.3971C35.8082 5.43867 32.3485 2.39158 28.2686 2.38636ZM39.6324 18.6932C39.6328 18.3711 39.5427 18.0634 39.3839 17.8426C39.2366 17.6207 39.034 17.4971 38.8235 17.5001V19.8864C39.2702 19.8864 39.6324 19.3521 39.6324 18.6932ZM49.3382 33.0377C49.3341 29.7297 46.6214 27.0495 43.2733 27.0455H35.6318C35.5026 27.1882 35.361 27.3175 35.2248 27.4528C35.1515 27.5259 35.0809 27.6026 35.0045 27.6733C34.7007 27.959 34.3814 28.2276 34.0473 28.4775C33.9953 28.516 33.9407 28.5482 33.8886 28.5856C33.5973 28.794 33.2963 28.9883 32.986 29.1679C32.8853 29.2253 32.7834 29.2809 32.6817 29.3359C32.5798 29.3908 32.4654 29.4629 32.3529 29.5179V33.0377H34.7824C36.5214 33.0395 38.2538 33.2572 39.9376 33.6861C40.4605 33.8178 40.9735 33.9764 41.4817 34.1484C41.6368 34.2017 41.7885 34.259 41.9413 34.3151C42.3055 34.4498 42.6692 34.592 43.0269 34.7464C43.1832 34.8137 43.3391 34.8799 43.4918 34.9518C43.9047 35.1409 44.3092 35.3445 44.7048 35.5617C44.7789 35.6026 44.8553 35.6372 44.9275 35.6815C45.396 35.9443 45.8527 36.2241 46.2986 36.5201C46.4195 36.6009 46.5326 36.6858 46.6504 36.7672C46.9787 36.9977 47.3019 37.237 47.6206 37.4862C47.7539 37.5916 47.886 37.6975 48.0174 37.8064C48.3409 38.0726 48.6541 38.3488 48.9574 38.6356C49.0498 38.7211 49.144 38.8023 49.2351 38.8895C49.2655 38.92 49.2991 38.9475 49.3299 38.9773L49.3382 33.0377ZM49.1631 42.0925C46.9884 39.1874 43.9458 36.991 40.4412 35.7955V41.4391C40.4353 43.6093 41.331 45.692 42.928 47.2231L43.0146 47.3058C43.6993 47.9616 44.0839 48.854 44.0809 49.7847V62.8409H52.5735V52.3229C52.5835 48.652 51.3898 45.0712 49.1631 42.0925ZM52.5735 67.6136H44.4853V65.2273H52.5735V67.6136ZM10.5147 67.6136H2.42647V65.2273H10.5147V67.6136Z" fill="#FF6B01"/>
</g>
</svg>
