<svg width="13" height="15" viewBox="0 0 13 15" fill="none" xmlns="http://www.w3.org/2000/svg">
<path fill-rule="evenodd" clip-rule="evenodd" d="M10.9107 6.5625H11.6071C12.3761 6.5625 13 7.19238 13 7.96875V13.5938C13 14.3701 12.3761 15 11.6071 15H1.39286C0.623884 15 0 14.3701 0 13.5938V7.96875C0 7.19238 0.623884 6.5625 1.39286 6.5625H2.08929V4.45312C2.08929 1.99805 4.0683 0 6.5 0C8.9317 0 10.9107 1.99805 10.9107 4.45312V6.5625ZM4.41071 4.45312V6.5625H8.58918V4.45312C8.58918 3.29004 7.65193 2.34375 6.49995 2.34375C5.34797 2.34375 4.41071 3.29004 4.41071 4.45312Z" fill="#333"/>
</svg>
