<?xml version="1.0" standalone="no"?>
<!DOCTYPE svg PUBLIC "-//W3C//DTD SVG 1.1//EN" "http://www.w3.org/Graphics/SVG/1.1/DTD/svg11.dtd" >
<svg>
<metadata>
Created by FontForge 20090622 at Sat Aug 31 02:59:44 2019
 By deploy user
Copyright (c) 1991 Adobe Systems Incorporated.  All Rights Reserved.ITC Avant Garde Gothic is a registered trademark of International Typeface Corporation.
</metadata>
<defs>
<font id="AvantGarde-Bold" horiz-adv-x="555" >
  <font-face 
    font-family="ITC Avant Garde Gothic"
    font-weight="700"
    font-stretch="normal"
    units-per-em="1000"
    panose-1="2 0 8 3 0 0 0 0 0 0"
    ascent="800"
    descent="-200"
    x-height="555"
    cap-height="740"
    bbox="-118 -271 1222 1017"
    underline-thickness="50"
    underline-position="-100"
    unicode-range="U+0020-U+FFFD"
  />
<missing-glyph horiz-adv-x="309" 
 />
    <glyph glyph-name=".notdef" unicode="&#xfffd;" horiz-adv-x="309" 
 />
    <glyph glyph-name=".null" horiz-adv-x="0" 
 />
    <glyph glyph-name="nonmarkingreturn" horiz-adv-x="333" 
 />
    <glyph glyph-name="space" unicode=" " horiz-adv-x="309" 
 />
    <glyph glyph-name="exclam" unicode="!" horiz-adv-x="333" 
d="M252 740v-496h-171v496h171zM252 170v-170h-171v170h171z" />
    <glyph glyph-name="quotedbl" unicode="&#x22;" horiz-adv-x="463" 
d="M174 443h-107l-33 297h174zM395 443h-107l-33 297h174z" />
    <glyph glyph-name="numbersign" unicode="#" horiz-adv-x="618" 
d="M435 219l-24 -174h-113l24 174h-78l-24 -174h-114l24 174h-99l15 111h100l10 73h-100l15 111h100l22 158h114l-22 -158h78l22 158h114l-22 -158h111l-15 -111h-112l-10 -73h111l-15 -111h-112zM338 330l10 73h-78l-10 -73h78z" />
    <glyph glyph-name="dollar" unicode="$" horiz-adv-x="618" 
d="M381 811v-101q63 -15 101.5 -64.5t37.5 -125.5h-155q-4 63 -55 63q-24 0 -39 -16.5t-15 -39.5q0 -35 28.5 -54t106.5 -49q44 -17 75 -42t45.5 -53t20.5 -51t6 -46q0 -11 -1 -23.5t-10 -40.5t-23.5 -51t-46.5 -48.5t-76 -39.5v-105h-135v101q-83 19 -122 68
q-44 56 -44 120v11h171q1 -9 3 -17.5t7.5 -22.5t18 -22.5t30.5 -8.5q21 0 39 16t18 43q0 28 -19.5 48.5t-72.5 40.5q-34 12 -52.5 20t-48.5 26t-46 37.5t-29 51.5t-13 72q0 84 46.5 133.5t113.5 68.5v101h135z" />
    <glyph glyph-name="percent" unicode="%" horiz-adv-x="858" 
d="M36 574q0 75 53 128t127 53q75 0 127.5 -53t52.5 -128t-53 -127.5t-127 -52.5t-127 52.5t-53 127.5zM147 574q0 -28 20.5 -48.5t48.5 -20.5t48.5 20.5t20.5 49.5t-20 49t-49 20t-49 -20t-20 -50zM461 166q0 75 53 128t128 53q74 0 127 -53t53 -128t-53.5 -128t-126.5 -53
q-74 0 -127.5 52.5t-53.5 128.5zM572 166q0 -29 20.5 -49.5t49.5 -20.5q28 0 48.5 20.5t20.5 49.5q0 30 -20.5 50t-48.5 20q-30 0 -50 -20.5t-20 -49.5zM216 0l306 740h116l-307 -740h-115z" />
    <glyph glyph-name="ampersand" unicode="&#x26;" horiz-adv-x="758" 
d="M554 435h175l-57 -137q-23 -55 -56 -98l101 -104l-113 -111l-87 90q-105 -90 -221 -90q-104 0 -175.5 62.5t-71.5 152.5q0 39 12.5 72t37.5 59t42 39.5t45 32.5q-70 71 -70 160q0 81 59.5 136t145.5 55q84 0 139 -53t55 -129q0 -34 -10.5 -63t-29.5 -51t-31 -32.5
t-31 -23.5l87 -88zM406 184l-118 119q-17 -14 -26.5 -22.5t-20 -26.5t-10.5 -37q0 -34 24.5 -53.5t60.5 -19.5q55 0 90 40zM319 491q46 46 46 82q0 20 -11.5 33.5t-31.5 13.5q-18 0 -31.5 -13t-13.5 -36q0 -36 42 -80z" />
    <glyph glyph-name="quoteright" unicode="&#x2019;" horiz-adv-x="314" 
d="M244 740v-210q0 -66 -33 -93.5t-69 -27.5h-72v89h36q24 0 33.5 12.5t9.5 25.5v34h-79v170h174z" />
    <glyph glyph-name="parenleft" unicode="(" horiz-adv-x="473" 
d="M430 -91v-173q-96 36 -168.5 94.5t-114 128t-62 141.5t-20.5 145t20 144.5t61.5 141t114.5 128.5t169 95v-174q-70 -39 -125 -129.5t-55 -207.5q0 -112 53.5 -203t126.5 -131z" />
    <glyph glyph-name="parenright" unicode=")" horiz-adv-x="473" 
d="M43 580v174q96 -36 168.5 -95t114 -128.5t62 -141.5t20.5 -145t-20 -144.5t-61.5 -141t-114.5 -128t-169 -94.5v173q70 39 125 129.5t55 207.5q0 112 -53.5 203t-126.5 131z" />
    <glyph glyph-name="asterisk" unicode="*" horiz-adv-x="670" 
d="M555 539l-131 -41l83 -110l-93 -70l-82 115l-79 -115l-93 70l86 110l-131 41l36 109l128 -48l-3 140h119l-7 -140l129 48z" />
    <glyph glyph-name="plus" unicode="+" horiz-adv-x="600" 
d="M220 333v173h160v-173h172v-160h-172v-173h-160v173h-172v160h172z" />
    <glyph glyph-name="comma" unicode="," horiz-adv-x="314" 
d="M244 170v-210q0 -65 -33 -93t-69 -28h-71v89h35q24 0 33.5 12.5t9.5 25.5v34h-78v170h173z" />
    <glyph glyph-name="hyphen" unicode="-" horiz-adv-x="281" 
d="M281 370v-163h-281v163h281z" />
    <glyph glyph-name="period" unicode="." horiz-adv-x="314" 
d="M244 170v-170h-173v170h173z" />
    <glyph glyph-name="slash" unicode="/" horiz-adv-x="593" 
d="M72 -100l265 840h184l-264 -840h-185z" />
    <glyph glyph-name="zero" unicode="0" horiz-adv-x="618" 
d="M33 267v206q0 76 28 133.5t72.5 88t89.5 45t89 14.5q31 0 65 -8t72 -28.5t67.5 -51t49 -80.5t19.5 -113v-206q0 -73 -26 -130t-67.5 -88.5t-87.5 -47t-92 -15.5q-35 0 -71 9t-74 30t-67.5 52.5t-48 80.5t-18.5 109zM222 478v-216q0 -43 19 -76.5t68 -33.5q87 0 87 110
v216q0 110 -87 110q-35 0 -55.5 -20.5t-26 -42.5t-5.5 -47z" />
    <glyph glyph-name="one" unicode="1" horiz-adv-x="618" 
d="M414 740v-740h-189v581h-121v159h310z" />
    <glyph glyph-name="two" unicode="2" horiz-adv-x="618" 
d="M322 159h251v-159h-522v147l87 58.5t67 52t72 69.5q102 115 102 189q0 27 -17 49.5t-53 22.5q-26 0 -43.5 -11.5t-26 -32t-11 -36t-4.5 -37.5h-180q1 34 3 53.5t12.5 54t28.5 62.5q29 45 76 72t82 34t70 7q117 0 184.5 -65t67.5 -150q0 -56 -20 -109t-61 -103.5
t-75.5 -84.5t-89.5 -83z" />
    <glyph glyph-name="three" unicode="3" horiz-adv-x="618" 
d="M33 221h191q16 -68 85 -69q40 0 60.5 23t20.5 60q0 75 -99 75h-67v139h32q93 0 93 74q0 27 -13 46t-39 19q-54 0 -58 -64h-186q1 63 26 110t64.5 72t80.5 36.5t82 11.5q104 0 168 -60t64 -142q0 -101 -98 -155q139 -47 139 -179q0 -96 -81 -164t-193 -68q-69 0 -133 26.5
t-98 77.5q-32 46 -41 131z" />
    <glyph glyph-name="four" unicode="4" horiz-adv-x="618" 
d="M341 130h-326v138l331 472h176v-462h82v-148h-82v-130h-181v130zM205 278h148v232h-2z" />
    <glyph glyph-name="five" unicode="5" horiz-adv-x="618" 
d="M52 321l64 419h409v-159h-264l-16 -101q40 22 100 22q62 0 111.5 -24t78 -62t43 -80t14.5 -82q0 -45 -17 -90.5t-50 -86t-89.5 -66.5t-127.5 -26q-115 0 -190 60.5t-92 152.5h190q23 -31 52 -40q16 -6 35 -6q41 0 70.5 29t29.5 69q0 39 -27 68t-74 29q-69 0 -97 -64z" />
    <glyph glyph-name="six" unicode="6" horiz-adv-x="618" 
d="M492 740l-163 -223l2 -2q9 4 36 4q57 0 108.5 -26.5t88 -85.5t36.5 -139q0 -124 -83.5 -203t-203.5 -79q-71 0 -131.5 25.5t-97.5 74.5q-63 71 -63 186q0 93 68 198l184 270h219zM207 255q0 -48 31 -75.5t69 -27.5q43 0 73.5 28.5t30.5 71.5q0 39 -28 70t-76 31
q-44 0 -72 -29t-28 -69z" />
    <glyph glyph-name="seven" unicode="7" horiz-adv-x="618" 
d="M65 740h482v-145l-260 -595h-208l273 581h-287v159z" />
    <glyph glyph-name="eight" unicode="8" horiz-adv-x="618" 
d="M463 407q38 -16 63.5 -43t35.5 -57t13.5 -49.5t3.5 -37.5q0 -96 -77 -165t-192 -69t-193 69t-78 165q0 17 3 35.5t13 49t35.5 58t64.5 44.5q-72 57 -72 139q0 85 61.5 146.5t164.5 61.5q104 0 165 -62.5t61 -143.5q0 -82 -72 -141zM241 533q0 -34 21.5 -51t45.5 -17
q27 0 48 20t21 50q0 28 -20.5 47t-46.5 19q-27 0 -48 -19t-21 -49zM228 237q0 -35 23 -60t61 -25q34 0 56 26t22 58q0 33 -22 59t-59 26q-33 0 -57 -23t-24 -61z" />
    <glyph glyph-name="nine" unicode="9" horiz-adv-x="618" 
d="M128 0l163 224l-2 2q-9 -4 -36 -4q-88 0 -160.5 68t-72.5 183q0 124 83.5 202.5t203.5 78.5q151 0 233 -97q62 -63 62 -184q-1 -97 -71 -202l-184 -271h-219zM413 486q0 48 -31 75t-71 27q-42 0 -72 -28t-30 -71q0 -39 27.5 -70t74.5 -31q45 0 73.5 29t28.5 69z" />
    <glyph glyph-name="colon" unicode=":" horiz-adv-x="314" 
d="M244 170v-170h-173v170h173zM244 555v-170h-173v170h173z" />
    <glyph glyph-name="semicolon" unicode=";" horiz-adv-x="314" 
d="M244 170v-210q0 -65 -33 -93t-69 -28h-71v89h35q24 0 33.5 12.5t9.5 25.5v34h-78v170h173zM244 555v-170h-173v170h173z" />
    <glyph glyph-name="less" unicode="&#x3c;" horiz-adv-x="600" 
d="M214 252l340 -115v-175l-508 214v154l508 214v-175l-340 -115v-2z" />
    <glyph glyph-name="equal" unicode="=" horiz-adv-x="600" 
d="M552 465v-160h-504v160h504zM552 201v-160h-504v160h504z" />
    <glyph glyph-name="greater" unicode="&#x3e;" horiz-adv-x="600" 
d="M46 137l340 115v2l-340 115v175l508 -214v-154l-508 -214v175z" />
    <glyph glyph-name="question" unicode="?" horiz-adv-x="592" 
d="M232 487h-183q-1 9 -1 18q0 108 74 178.5t189 70.5q110 0 175 -65.5t65 -146.5q0 -43 -19.5 -82.5t-38 -59.5t-55.5 -54q-46 -43 -60.5 -64.5t-16.5 -46.5h-174q1 49 24.5 86t79.5 90q68 67 68 110q0 62 -58 62q-19 0 -32.5 -7t-20.5 -15.5t-10.5 -24t-4.5 -24.5t-1 -25z
M361 170v-170h-174v170h174z" />
    <glyph glyph-name="at" unicode="@" horiz-adv-x="748" 
d="M480 548h104l-37 -218q-5 -33 -7 -48q-1 -29 27 -29q29 0 55.5 52t26.5 122q0 104 -72.5 171t-183.5 67q-128 0 -211 -91t-83 -211q0 -29 6 -61t25 -74t49 -74.5t85.5 -55.5t127.5 -23q110 0 211 37l21 -92q-100 -36 -232 -36q-84 0 -153 25t-113 64.5t-74 90.5
t-42.5 101.5t-12.5 99.5q0 101 47 189.5t138 145t207 56.5q155 0 254.5 -94.5t99.5 -233.5q0 -108 -59 -188.5t-137 -80.5q-73 0 -98 72q-25 -41 -53 -56.5t-66 -15.5q-64 0 -109 50.5t-45 126.5q0 83 56 153.5t139 70.5q38 0 64 -17t35 -42h2zM450 385q0 32 -16 56.5
t-50 24.5q-42 0 -71.5 -38.5t-29.5 -87.5q0 -44 22.5 -65.5t52.5 -21.5q41 0 66.5 37.5t25.5 94.5z" />
    <glyph glyph-name="A" unicode="A" horiz-adv-x="758" 
d="M508 107h-257l-39 -107h-203l297 740h149l294 -740h-205zM379 510l-76 -253h155l-76 253h-1h-2z" />
    <glyph glyph-name="B" unicode="B" horiz-adv-x="647" 
d="M67 0v740h228q98 0 148 -14.5t89 -57.5q44 -45 44 -122q0 -100 -86 -149q122 -43 122 -172q0 -46 -17.5 -90t-50.5 -71q-49 -41 -96 -52.5t-146 -11.5h-235zM248 574v-115h67q15 0 24.5 1t24.5 6t23 18t8 34q0 16 -6 27.5t-13.5 16.5t-20.5 8t-20.5 3.5t-19.5 0.5h-67z
M248 301v-135h89q94 0 94 71q0 22 -9.5 36.5t-27 19.5t-29 6.5t-28.5 1.5h-89z" />
    <glyph glyph-name="C" unicode="C" horiz-adv-x="832" 
d="M603 277h198q-32 -131 -135.5 -211t-238.5 -80q-169 0 -279.5 115t-110.5 270q0 96 45.5 182.5t136 143.5t206.5 57q82 0 153 -29.5t115.5 -75t72 -95t35.5 -95.5h-198q-19 51 -64.5 90t-114.5 39q-90 0 -144 -65.5t-54 -150.5q0 -88 55 -154t144 -66q120 0 178 125z" />
    <glyph glyph-name="D" unicode="D" horiz-adv-x="742" 
d="M57 0v740h245q29 0 47 -1t52.5 -4t60.5 -12t57 -23.5t59 -39.5t51 -58q68 -93 68 -230q0 -79 -20.5 -144t-64 -117.5t-119 -81.5t-177.5 -29h-259zM246 574v-408h81q51 0 87.5 16.5t56 46t28.5 64t9 76.5q0 81 -36 137q-45 68 -144 68h-82z" />
    <glyph glyph-name="E" unicode="E" horiz-adv-x="528" 
d="M67 0v740h411v-166h-230v-115h223v-166h-223v-127h230v-166h-411z" />
    <glyph glyph-name="F" unicode="F" horiz-adv-x="506" 
d="M67 0v740h404v-166h-223v-126h215v-166h-215v-282h-181z" />
    <glyph glyph-name="G" unicode="G" horiz-adv-x="854" 
d="M383 421h439q1 -13 1 -39q0 -120 -56.5 -212t-145.5 -138.5t-193 -46.5q-167 0 -280 113.5t-113 274.5q0 164 115 272.5t281 108.5q130 0 234.5 -76t135.5 -186h-212q-54 96 -163 96q-78 0 -140 -56.5t-62 -158.5q0 -108 62 -165t141 -57q69 0 115.5 32t61.5 87h-221v151
z" />
    <glyph glyph-name="H" unicode="H" horiz-adv-x="754" 
d="M67 0v740h189v-278h242v278h189v-740h-189v296h-242v-296h-189z" />
    <glyph glyph-name="I" unicode="I" horiz-adv-x="323" 
d="M67 0v740h189v-740h-189z" />
    <glyph glyph-name="J" unicode="J" horiz-adv-x="578" 
d="M321 740h189v-447q0 -91 -10.5 -134.5t-35.5 -75.5q-36 -47 -93 -72t-116 -25q-16 0 -34 1.5t-60 15t-73 37.5t-56.5 75.5t-25.5 122.5h201q1 -23 4 -38.5t16.5 -31.5t36.5 -16q20 0 32.5 9t17.5 26.5t6 28.5t1 30v494z" />
    <glyph glyph-name="K" unicode="K" horiz-adv-x="707" 
d="M87 0v740h189v-333h2l209 333h198l-245 -369l261 -371h-221l-202 320h-2v-320h-189z" />
    <glyph glyph-name="L" unicode="L" horiz-adv-x="487" 
d="M72 0v740h189v-574h219v-166h-408z" />
    <glyph glyph-name="M" unicode="M" horiz-adv-x="915" 
d="M67 0v740h243l147 -487h2l145 487h244v-740h-174l6 554l-2 2l-158 -556h-125l-158 556l-2 -2l6 -554h-174z" />
    <glyph glyph-name="N" unicode="N" horiz-adv-x="759" 
d="M67 0v740h163l286 -465l2 2l-8 463h181v-740h-164l-282 450l-2 -1l5 -449h-181z" />
    <glyph glyph-name="O" unicode="O" horiz-adv-x="851" 
d="M64 519q16 40 44.5 78t72 75t107 59.5t137.5 22.5q168 0 279.5 -113t111.5 -271t-111.5 -271t-280.5 -113q-112 0 -203 54.5t-138.5 139.5t-47.5 181q0 87 29 158zM224 372q0 -90 56 -155t148 -65q93 0 146 68t53 149q0 82 -53.5 150.5t-147.5 68.5q-93 0 -147.5 -65.5
t-54.5 -150.5z" />
    <glyph glyph-name="P" unicode="P" horiz-adv-x="636" 
d="M67 0v740h242q96 0 145.5 -13.5t82.5 -40.5q87 -72 87 -196q0 -57 -21.5 -110.5t-56.5 -83.5q-41 -34 -87.5 -49t-128.5 -15h-82v-232h-181zM248 574v-176h77q16 0 26.5 0.5t30 5t31 13.5t21 27t9.5 43t-9.5 42.5t-22 26t-32.5 13t-31.5 5t-29.5 0.5h-70z" />
    <glyph glyph-name="Q" unicode="Q" horiz-adv-x="866" 
d="M855 137v-150q-28 -2 -47 -2q-119 0 -174 58q-94 -58 -208 -58q-115 0 -206 56.5t-138 142.5t-47 182q0 99 46.5 186.5t137 144.5t205.5 57t207 -55.5t140 -141t48 -181.5q0 -121 -61 -214q27 -26 81 -26q9 0 16 1zM605 270q22 40 25 106q0 95 -59.5 153.5t-145.5 58.5
q-77 0 -131 -50t-69 -137q62 25 105 25q147 0 275 -156zM510 170q-21 25 -31 36t-38.5 35t-61 35.5t-69.5 11.5q-32 0 -66 -12q26 -62 77.5 -94t102.5 -31q47 -2 86 19z" />
    <glyph glyph-name="R" unicode="R" horiz-adv-x="653" 
d="M67 0v740h234q94 0 142 -12t86 -41q44 -35 67.5 -89t23.5 -113q0 -35 -9.5 -70t-29.5 -69.5t-57.5 -60t-87.5 -33.5l201 -252h-216l-171 239h-2v-239h-181zM248 574v-206h67q39 0 66 11t38.5 29t15.5 33.5t4 32.5q0 49 -33 74.5t-89 25.5h-69z" />
    <glyph glyph-name="S" unicode="S" horiz-adv-x="573" 
d="M544 524h-187q-2 15 -4.5 23t-9 21.5t-20.5 20.5t-34 7q-26 0 -45.5 -16.5t-19.5 -41.5q0 -32 24 -49t129 -64q98 -44 135.5 -93.5t37.5 -118.5q0 -43 -13.5 -81.5t-41.5 -72t-80.5 -53.5t-122.5 -20q-61 0 -109.5 15.5t-77.5 39.5t-47.5 56.5t-25.5 62.5t-7 61v24h188
q0 -56 25 -78.5t52 -22.5q32 0 52 22t20 49q0 34 -25.5 51.5t-119.5 57.5l-40 17t-45.5 26.5t-47.5 40t-33 55t-15 73.5q0 66 39.5 117.5t97.5 76t122 24.5q58 0 111.5 -21.5t88.5 -62.5q45 -55 49 -146z" />
    <glyph glyph-name="T" unicode="T" horiz-adv-x="499" 
d="M156 0v574h-146v166h480v-166h-145v-574h-189z" />
    <glyph glyph-name="U" unicode="U" horiz-adv-x="698" 
d="M65 740h189v-447q0 -26 2.5 -44.5t10.5 -43.5t29 -39t54 -14q27 0 46 10t28 22t14 34.5t5.5 36t0.5 38.5v447h189v-447q0 -88 -18 -138t-56 -89q-78 -80 -207 -80q-140 0 -213 79q-45 49 -59.5 96.5t-14.5 131.5v447z" />
    <glyph glyph-name="V" unicode="V" horiz-adv-x="722" 
d="M16 740h194l149 -519h2l150 519h195l-248 -740h-195z" />
    <glyph glyph-name="W" unicode="W" horiz-adv-x="981" 
d="M16 740h192l99 -481h2l109 481h145l107 -483h2l101 483h191l-196 -740h-166l-111 479h-2l-111 -479h-171z" />
    <glyph glyph-name="X" unicode="X" horiz-adv-x="759" 
d="M505 740h213l-226 -350l256 -390h-214l-160 262l-152 -262h-211l259 394l-229 346h214l127 -211z" />
    <glyph glyph-name="Y" unicode="Y" horiz-adv-x="647" 
d="M230 0v269l-221 471h205l110 -297l111 297h203l-219 -471v-269h-189z" />
    <glyph glyph-name="Z" unicode="Z" horiz-adv-x="499" 
d="M16 0v124l255 450h-255v166h467v-153l-236 -421h236v-166h-467z" />
    <glyph glyph-name="bracketleft" unicode="[" horiz-adv-x="473" 
d="M401 754v-174q-29 -1 -50 -10.5t-32 -22t-17.5 -31.5t-8 -34t-1.5 -36v-402q0 -27 3.5 -46.5t13.5 -40.5t33 -33t59 -14v-174q-110 6 -186 60q-38 27 -63 61.5t-34 74t-11.5 63.5t-2.5 56v388q0 35 3 61.5t13 63t34 70t61 60.5q72 53 186 60z" />
    <glyph glyph-name="backslash" unicode="\" horiz-adv-x="593" 
d="M521 -100h-185l-264 840h184z" />
    <glyph glyph-name="bracketright" unicode="]" horiz-adv-x="473" 
d="M72 -264v174q29 1 50 10.5t32 22t17.5 31.5t8 34t1.5 36v402q0 27 -3.5 46.5t-13.5 40.5t-33 33t-59 14v174q110 -6 186 -60q38 -27 63 -61.5t34 -74t11.5 -63.5t2.5 -56v-388q0 -35 -3 -61.5t-13 -63t-34 -70t-61 -60.5q-72 -53 -186 -60z" />
    <glyph glyph-name="asciicircum" unicode="^" horiz-adv-x="600" 
d="M222 375h-179l174 365h166l174 -365h-180l-76 223h-2z" />
    <glyph glyph-name="underscore" unicode="_" horiz-adv-x="500" 
d="M500 -125h-500v50h500v-50z" />
    <glyph glyph-name="quoteleft" unicode="&#x2018;" horiz-adv-x="314" 
d="M70 409v210q0 65 33 93t69 28h72v-89h-36q-23 0 -32.5 -13t-9.5 -25v-34h78v-170h-174z" />
    <glyph glyph-name="a" unicode="a" horiz-adv-x="704" 
d="M643 555v-555h-166v60h-2q-20 -39 -65 -59t-97 -20q-127 0 -203 86.5t-76 210.5q0 132 82 214t197 82q62 0 103 -23.5t59 -54.5h2v59h166zM200 276q0 -21 8 -44t23.5 -45t43.5 -36.5t63 -14.5q70 0 104.5 45.5t34.5 96.5q0 55 -37 98t-103 43t-101.5 -44.5t-35.5 -98.5z
" />
    <glyph glyph-name="b" unicode="b" horiz-adv-x="693" 
d="M60 0v740h166v-229q59 63 161 63q46 0 92 -17t87.5 -50t67.5 -92t26 -134q0 -142 -83 -221t-197 -79q-56 0 -99 23t-60 55h-2v-59h-159zM220 279q0 -60 37.5 -101.5t97.5 -41.5q61 0 100 42.5t39 99.5q0 56 -38.5 98.5t-97.5 42.5q-63 0 -100.5 -42.5t-37.5 -97.5z" />
    <glyph glyph-name="c" unicode="c" horiz-adv-x="652" 
d="M452 211h169q-23 -98 -102.5 -163.5t-188.5 -65.5q-125 0 -211 86.5t-86 210.5q0 123 84.5 209t208.5 86q110 0 191.5 -65t102.5 -168h-168q-37 78 -120 78q-58 3 -95 -38.5t-37 -102.5t36.5 -101t95.5 -40q81 0 120 74z" />
    <glyph glyph-name="d" unicode="d" horiz-adv-x="698" 
d="M638 740v-740h-158v60h-2q-47 -78 -166 -78q-124 0 -201 85t-77 212q0 135 81.5 215t193.5 80q97 0 163 -66v232h166zM200 280q0 -64 40 -103.5t99 -39.5q71 0 106.5 45t35.5 98q0 55 -37.5 97t-102.5 42q-67 0 -104 -42.5t-37 -96.5z" />
    <glyph glyph-name="e" unicode="e" horiz-adv-x="646" 
d="M425 174h170q-40 -92 -113 -142q-70 -50 -158 -50q-120 0 -207 85.5t-87 208.5q0 119 83.5 208.5t207.5 89.5q126 0 209.5 -87.5t83.5 -215.5q0 -18 -4 -44h-416q7 -48 43.5 -76.5t86.5 -28.5q60 0 101 52zM196 339h252q-7 34 -38 64.5t-88 30.5t-88 -30.5t-38 -64.5z
" />
    <glyph glyph-name="f" unicode="f" horiz-adv-x="314" 
d="M66 0v429h-62v126h62v29q0 170 212 170h24v-125h-19q-10 0 -20 -2.5t-20.5 -15.5t-10.5 -34v-22h70v-126h-70v-429h-166z" />
    <glyph glyph-name="g" unicode="g" horiz-adv-x="693" 
d="M635 555v-488q0 -126 -33 -183q-35 -56 -109 -93.5t-172 -37.5q-69 0 -122.5 19t-85 49.5t-48 62.5t-21.5 64h192q24 -55 97 -55q12 0 23 1t33 9.5t38 23t28.5 45t12.5 72.5v17h-2q-16 -30 -54.5 -54.5t-97.5 -24.5q-117 0 -198.5 81t-81.5 211q0 136 83 217.5t197 81.5
q109 0 153 -70h2v52h166zM200 280q0 -64 39.5 -103.5t93.5 -39.5q60 0 98 39t38 99q0 65 -39 104t-96 39q-55 0 -94.5 -39.5t-39.5 -98.5z" />
    <glyph glyph-name="h" unicode="h" horiz-adv-x="632" 
d="M60 0v740h166v-236h2q39 70 143 70q43 0 84.5 -15.5t66.5 -45.5q33 -39 42.5 -80.5t9.5 -122.5v-310h-166v302q0 116 -89 116q-93 0 -93 -110v-308h-166z" />
    <glyph glyph-name="i" unicode="i" horiz-adv-x="286" 
d="M226 555v-555h-166v555h166zM226 740v-126h-166v126h166z" />
    <glyph glyph-name="j" unicode="j" horiz-adv-x="321" 
d="M253 555v-543q0 -54 -7 -89t-27.5 -66.5t-63 -46t-108.5 -14.5h-41v126h22q17 0 28.5 5.5t17.5 12.5t9 20t3.5 21.5t0.5 24.5v549h166zM253 740v-126h-166v126h166z" />
    <glyph glyph-name="k" unicode="k" horiz-adv-x="591" 
d="M66 0v740h166v-386h2l154 201h197l-209 -244l203 -311h-188l-157 267h-2v-267h-166z" />
    <glyph glyph-name="l" unicode="l" horiz-adv-x="286" 
d="M60 0v740h166v-740h-166z" />
    <glyph glyph-name="m" unicode="m" horiz-adv-x="969" 
d="M60 0v555h155v-59h2q44 78 153 78q107 0 160 -99q62 99 176 99q92 0 146 -56q38 -41 49 -81t11 -134v-303h-166v295q0 19 -0.5 30.5t-5 31.5t-13 31.5t-25.5 20.5t-41 9q-92 0 -92 -115v-303h-166v302q0 116 -83 116q-94 0 -94 -123v-295h-166z" />
    <glyph glyph-name="n" unicode="n" horiz-adv-x="632" 
d="M60 0v555h155v-59h2q49 78 151 78q39 0 79 -14t63 -34q64 -55 64 -179v-347h-166v303q0 22 -1.5 35.5t-9 35t-26.5 33t-50 11.5q-27 0 -46 -9.5t-28.5 -21t-14.5 -30.5t-5.5 -29t-0.5 -26v-302h-166z" />
    <glyph glyph-name="o" unicode="o" horiz-adv-x="666" 
d="M34 278q0 53 19 104t54.5 94.5t94 70t131.5 26.5t131.5 -26.5t94 -70t54.5 -94.5t19 -104t-19 -104t-54.5 -94.5t-94 -70t-131.5 -26.5t-131.5 26.5t-94 70t-54.5 94.5t-19 104zM200 278q0 -60 39 -100t94 -40t94 40t39 100t-39 100t-94 40t-94 -40t-39 -100z" />
    <glyph glyph-name="p" unicode="p" horiz-adv-x="697" 
d="M60 -185v740h156v-61h1h2q63 80 173 80q70 0 124.5 -28.5t85.5 -74.5t46 -97t15 -102q0 -122 -76.5 -206.5t-193.5 -84.5q-101 0 -167 69v-235h-166zM358 136q62 0 100.5 42.5t38.5 98.5q0 55 -37.5 98.5t-101.5 43.5t-101.5 -43.5t-37.5 -98.5q0 -56 38.5 -98.5
t100.5 -42.5z" />
    <glyph glyph-name="q" unicode="q" horiz-adv-x="698" 
d="M638 555v-740h-166v242h-2q-55 -75 -168 -75q-116 0 -192 82t-76 203q0 140 80.5 223.5t198.5 83.5q38 0 69 -9t50 -24t29 -25.5t16 -21.5h2v61h159zM200 274q0 -50 37 -93.5t103 -43.5q62 0 100 43t38 97q0 52 -36 97t-104 45q-63 0 -100.5 -43t-37.5 -102z" />
    <glyph glyph-name="r" unicode="r" horiz-adv-x="363" 
d="M59 0v555h156v-59h2q40 78 139 78v-167q-65 -2 -98 -23t-33 -79v-305h-166z" />
    <glyph glyph-name="s" unicode="s" horiz-adv-x="499" 
d="M459 399h-163q-1 7 -2 12t-5.5 13t-16 12.5t-28.5 4.5q-24 0 -35.5 -11.5t-11.5 -25.5q0 -35 85 -60q38 -10 57.5 -16.5t50 -21t46 -31t28 -43.5t12.5 -62q0 -85 -65.5 -137t-160.5 -52q-35 0 -69.5 8.5t-69 28t-58.5 57.5t-29 90h165q7 -51 63 -51q23 0 40.5 12t17.5 31
q0 9 -2 16t-9 13.5t-13.5 10.5t-20.5 10.5t-26 10.5t-35 12.5l-41 15.5q-59 19 -95.5 55.5t-36.5 89.5q0 80 63 131.5t152 51.5q32 0 63 -7.5t65 -25t57 -54t28 -88.5z" />
    <glyph glyph-name="t" unicode="t" horiz-adv-x="351" 
d="M259 740v-185h80v-126h-80v-429h-166v429h-82v126h82v185h166z" />
    <glyph glyph-name="u" unicode="u" horiz-adv-x="634" 
d="M574 555v-555h-157v59h-2q-37 -77 -144 -77q-108 0 -163 70q-31 39 -40.5 74.5t-9.5 96.5v332h166v-307q0 -21 1.5 -34.5t9 -34t27.5 -31.5t51 -11q41 0 68 26t27 87v305h166z" />
    <glyph glyph-name="v" unicode="v" horiz-adv-x="592" 
d="M575 555l-200 -555h-159l-199 555h172l106 -346h2l106 346h172z" />
    <glyph glyph-name="w" unicode="w" horiz-adv-x="850" 
d="M7 555h172l83 -345h2l91 345h140l92 -345h2l83 345h171l-170 -555h-154l-93 359h-2l-93 -359h-154z" />
    <glyph glyph-name="x" unicode="x" horiz-adv-x="630" 
d="M403 555h197l-187 -258l215 -297h-203l-111 172l-113 -172h-200l211 297l-187 258h199l90 -146z" />
    <glyph glyph-name="y" unicode="y" horiz-adv-x="574" 
d="M397 555h176l-278 -740h-176l88 213l-206 527h177l111 -322h2z" />
    <glyph glyph-name="z" unicode="z" horiz-adv-x="444" 
d="M211 126h217v-126h-413v114l234 315h-234v126h413v-126z" />
    <glyph glyph-name="braceleft" unicode="{" horiz-adv-x="554" 
d="M483 614h-55q-58 0 -58 -65v-209q0 -27 -8.5 -47t-19 -30t-28 -17t-27.5 -8.5t-25 -2.5v-4q38 -2 72.5 -23t35.5 -69v-212q0 -65 58 -65h55v-126h-128q-64 0 -108.5 35t-44.5 103v212q0 19 -11 32.5t-29 19t-31.5 7.5t-25.5 2v172q12 0 25.5 2.5t31.5 8.5t29 20.5
t11 35.5v216q0 68 44.5 103t108.5 35h128v-126z" />
    <glyph glyph-name="bar" unicode="|" 
d="M186 740h183v-840h-183v840z" />
    <glyph glyph-name="braceright" unicode="}" horiz-adv-x="554" 
d="M126 614h-55v126h128q64 0 108.5 -35t44.5 -103v-216q0 -21 11 -35.5t29 -20.5t31.5 -8.5t25.5 -2.5v-172q-12 0 -25.5 -2t-31.5 -7.5t-29 -19t-11 -32.5v-212q0 -68 -44.5 -103t-108.5 -35h-128v126h55q58 0 58 65v212q1 48 35.5 69t72.5 23v4q-15 1 -25 2.5t-27.5 8.5
t-28 17t-19 30t-8.5 47v209q0 65 -58 65z" />
    <glyph glyph-name="asciitilde" unicode="~" horiz-adv-x="600" 
d="M497 377l36 -158q-22 -29 -34.5 -43.5t-38 -29.5t-54.5 -15q-42 0 -102 33q-62 35 -115 35q-30 0 -49.5 -18.5t-36.5 -50.5l-36 156q49 89 127 89q39 0 111 -32l21.5 -9.5t23 -10l20 -8t20.5 -6.5t17 -2q19 0 37 12t26.5 23z" />
    <glyph glyph-name="exclamdown" unicode="&#xa1;" horiz-adv-x="333" 
d="M252 555v-170h-171v170h171zM252 311v-496h-171v496h171z" />
    <glyph glyph-name="cent" unicode="&#xa2;" horiz-adv-x="618" 
d="M372 720v-101q83 -23 131 -82.5t53 -116.5h-172q-22 40 -71 40q-35 0 -60.5 -24.5t-25.5 -60.5q0 -35 25 -59.5t61 -24.5q40 0 67 34h176q-12 -63 -58 -117.5t-120 -71.5v-105h-137v105q-51 17 -88.5 47t-55.5 64.5t-26.5 65t-8.5 60.5q0 47 17 92.5t59 88t103 61.5v105
h131z" />
    <glyph glyph-name="sterling" unicode="&#xa3;" horiz-adv-x="618" 
d="M446 252h161q11 -35 11 -64q0 -26 -11 -55.5t-34 -60.5t-68.5 -51.5t-105.5 -20.5h-355v148h49q43 0 67 10.5t24 43.5q0 28 -18 50l-24 32h-128v133h48q-28 42 -28 94q0 93 73.5 168.5t192.5 75.5q73 0 132 -31.5t92 -86.5q29 -47 38 -129h-174q-9 81 -85 81
q-35 0 -57.5 -25.5t-22.5 -57.5q0 -48 34 -89h156v-133h-77q33 -39 33 -69q0 -32 -39 -67h41q82 0 82 68q0 14 -7 36z" />
    <glyph glyph-name="fraction" unicode="&#x2044;" horiz-adv-x="211" 
d="M192 740h137l-311 -740h-136z" />
    <glyph glyph-name="yen" unicode="&#xa5;" horiz-adv-x="618" 
d="M215 0v167h-196v139h196v27l-26 52h-168v138h99l-119 217h200l109 -237l111 237h197l-117 -217h97v-138h-170l-26 -49v-30h196v-139h-197v-167h-186z" />
    <glyph glyph-name="florin" unicode="&#x192;" horiz-adv-x="618" 
d="M434 591h73l-23 -125h-72l-57 -326q-10 -53 -15.5 -78.5t-20 -60t-35.5 -61.5q-38 -47 -93 -69.5t-112 -22.5q-36 0 -54 6l26 148q16 -2 18 -2q58 0 80.5 28.5t32.5 89.5l60 348h-72l21 125h73l6 32q10 54 37.5 94t63 61t69 30.5t65.5 9.5q28 0 42 -3l-22 -133
q-47 0 -65.5 -23t-25.5 -68z" />
    <glyph glyph-name="section" unicode="&#xa7;" horiz-adv-x="670" 
d="M584 548h-163q-16 58 -87 58q-70 0 -70 -53q0 -33 59 -59l182 -82q25 -11 41.5 -21t38.5 -29.5t33.5 -49t11.5 -66.5q0 -36 -14.5 -68t-29 -48t-42.5 -42q15 -21 23.5 -34.5t18 -43.5t9.5 -63q0 -88 -65 -153t-185 -65q-25 0 -54 4.5t-68.5 19.5t-71.5 39.5t-56.5 69.5
t-29.5 103h164q14 -85 113 -85q46 0 68 20.5t22 44.5q0 27 -22.5 44t-65.5 36l-171 79q-27 12 -43 22t-40.5 31t-37 53t-12.5 74q0 91 95 161q-31 49 -31 111q0 67 37 113.5t89.5 65.5t112.5 19q109 0 173.5 -61t67.5 -145zM415 284l-185 83q-39 -19 -39 -55q0 -18 10.5 -32
t19 -19t23.5 -12l202 -93q37 24 37 62q0 21 -16.5 36t-51.5 30z" />
    <glyph glyph-name="currency" unicode="&#xa4;" horiz-adv-x="618" 
d="M309 451q-45 0 -76.5 -32.5t-31.5 -77.5t31.5 -77.5t76.5 -32.5q44 0 76 32t32 78q0 45 -31.5 77.5t-76.5 32.5zM88 483l-88 86l82 82l88 -88q63 40 139 40t137 -39l88 86l80 -81l-85 -85q43 -67 43 -144q0 -74 -38 -136l84 -84l-81 -82l-82 83q-66 -44 -146 -44
q-77 0 -145 44l-83 -82l-81 80l85 85q-39 62 -39 136q0 78 42 143z" />
    <glyph glyph-name="quotesingle" unicode="'" horiz-adv-x="242" 
d="M174 443h-107l-33 297h174z" />
    <glyph glyph-name="quotedblleft" unicode="&#x201c;" 
d="M314 409v210q0 65 33 93t69 28h72v-90h-36q-24 0 -33.5 -12.5t-9.5 -24.5v-34h79v-170h-174zM67 409v210q0 65 33 93t69 28h72v-90h-36q-25 0 -34 -12.5t-9 -24.5v-34h79v-170h-174z" />
    <glyph glyph-name="guillemotleft" unicode="&#xab;" horiz-adv-x="422" 
d="M176 474v-140l-51 -45l51 -47v-139l-129 127v114zM375 474v-140l-51 -45l51 -47v-139l-129 127v114z" />
    <glyph glyph-name="guilsinglleft" unicode="&#x2039;" horiz-adv-x="222" 
d="M175 474v-140l-51 -45l51 -47v-139l-128 127v114z" />
    <glyph glyph-name="guilsinglright" unicode="&#x203a;" horiz-adv-x="222" 
d="M47 103v140l51 45l-51 47v139l128 -131v-113z" />
    <glyph glyph-name="fi" unicode="&#xfb01;" horiz-adv-x="601" 
d="M4 555h62v29q0 170 212 170h25v-125h-19q-11 0 -21 -2.5t-20.5 -15.5t-10.5 -34v-22h309v-555h-166v429h-143v-429h-166v429h-62v126zM541 740v-126h-166v126h166z" />
    <glyph glyph-name="fl" unicode="&#xfb02;" horiz-adv-x="601" 
d="M4 555h62v29q0 170 212 170h25v-125h-19q-11 0 -21 -2.5t-20.5 -15.5t-10.5 -34v-22h143v184h166v-739h-166v429h-143v-429h-166v429h-62v126z" />
    <glyph glyph-name="endash" unicode="&#x2013;" horiz-adv-x="500" 
d="M465 370v-163h-430v163h430z" />
    <glyph glyph-name="dagger" unicode="&#x2020;" horiz-adv-x="670" 
d="M418 740v-177h154v-140h-154v-667h-165v667h-155v140h155v177h165z" />
    <glyph glyph-name="daggerdbl" unicode="&#x2021;" horiz-adv-x="670" 
d="M418 740v-147h154v-140h-154v-326h154v-140h-154v-231h-165v231h-155v140h155v326h-155v140h155v147h165z" />
    <glyph glyph-name="periodcentered" unicode="&#xb7;" horiz-adv-x="314" 
d="M244 338v-170h-173v170h173z" />
    <glyph glyph-name="paragraph" unicode="&#xb6;" horiz-adv-x="701" 
d="M205 -103v458h-14q-34 0 -67 10t-63.5 31t-49 59t-18.5 89q0 196 254 196h360v-118h-49v-725h-128v725h-97v-725h-128z" />
    <glyph glyph-name="bullet" unicode="&#x2022;" horiz-adv-x="739" 
d="M371 532q62 0 106.5 -45.5t44.5 -109.5t-45 -109.5t-107 -45.5q-63 0 -108 46t-45 109t44.5 109t109.5 46z" />
    <glyph glyph-name="quotesinglbase" unicode="&#x201a;" horiz-adv-x="314" 
d="M244 170v-210q0 -65 -33 -93t-69 -28h-72v89h36q24 0 33.5 13t9.5 25v34h-79v170h174z" />
    <glyph glyph-name="quotedblbase" unicode="&#x201e;" 
d="M241 170v-210q1 -65 -32.5 -93t-70.5 -28h-71v89h35q24 0 33.5 13t9.5 25v34h-78v170h174zM488 170v-210q0 -65 -33 -93t-69 -28h-72v89h36q23 0 32.5 13t9.5 25v34h-78v170h174z" />
    <glyph glyph-name="quotedblright" unicode="&#x201d;" 
d="M241 740v-210q0 -35 -10.5 -60.5t-27.5 -37.5t-33 -17.5t-31 -5.5h-72v89h36q24 0 33.5 12.5t9.5 25.5v34h-79v170h174zM488 740v-210q0 -66 -33 -93.5t-69 -27.5h-72v89h36q24 0 33 12.5t9 25.5v34h-78v170h174z" />
    <glyph glyph-name="guillemotright" unicode="&#xbb;" horiz-adv-x="422" 
d="M246 103v140l52 45l-52 47v139l129 -131v-113zM47 103v140l51 45l-51 47v139l129 -131v-113z" />
    <glyph glyph-name="ellipsis" unicode="&#x2026;" horiz-adv-x="1000" 
d="M254 170v-170h-173v170h173zM587 170v-170h-173v170h173zM920 170v-170h-173v170h173z" />
    <glyph glyph-name="perthousand" unicode="&#x2030;" horiz-adv-x="1258" 
d="M36 574q0 75 53 128t127 53q75 0 127.5 -53t52.5 -128t-53 -127.5t-127 -52.5t-127 52.5t-53 127.5zM147 574q0 -28 20.5 -48.5t48.5 -20.5t48.5 20.5t20.5 49.5t-20 49t-49 20t-49 -20t-20 -50zM461 166q0 75 53 128t128 53q74 0 127 -53t53 -128t-53.5 -128t-126.5 -53
q-74 0 -127.5 52.5t-53.5 128.5zM572 166q0 -29 20.5 -49.5t49.5 -20.5q28 0 48.5 20.5t20.5 49.5q0 30 -20.5 50t-48.5 20q-30 0 -50 -20.5t-20 -49.5zM861 166q0 75 53 128t128 53q74 0 127 -53t53 -128t-53.5 -128t-126.5 -53q-74 0 -127.5 52.5t-53.5 128.5zM972 166
q0 -29 20.5 -49.5t49.5 -20.5q28 0 48.5 20.5t20.5 49.5q0 30 -20.5 50t-48.5 20q-30 0 -50 -20.5t-20 -49.5zM216 0l306 740h116l-307 -740h-115z" />
    <glyph glyph-name="questiondown" unicode="&#xbf;" horiz-adv-x="592" 
d="M359 67h183q1 -9 1 -18q0 -108 -74 -178.5t-189 -70.5q-109 0 -174 65.5t-65 146.5q0 33 9 61.5t28.5 54.5t34 41t41.5 40q46 42 60.5 64t16.5 46h174q-1 -48 -24.5 -85t-79.5 -91q-38 -37 -53 -61.5t-15 -48.5q0 -62 57 -62q19 0 32.5 7t20.5 15.5t10.5 24t4.5 24.5
t1 25zM231 385v170h174v-170h-174z" />
    <glyph glyph-name="grave" unicode="`" 
d="M162 839l242 -128l-46 -97l-247 108z" />
    <glyph glyph-name="acute" unicode="&#xb4;" 
d="M391 848l53 -118l-246 -109l-47 98z" />
    <glyph glyph-name="circumflex" unicode="&#x2c6;" 
d="M278 698l-46 -58h-162l156 166h108l150 -166h-160z" />
    <glyph glyph-name="tilde" unicode="&#x2dc;" 
d="M420 773l60 -85q-59 -37 -113 -37q-17 0 -81 13t-79 13q-23 0 -72 -19l-60 88q63 35 110 35q22 0 105 -18q27 -7 57 -7q31 0 73 17z" />
    <glyph glyph-name="macron" unicode="&#xaf;" 
d="M457 784v-126h-359v126h359z" />
    <glyph glyph-name="breve" unicode="&#x2d8;" 
d="M71 788h113q15 -17 26 -23q24 -12 72 -12q65 0 88 35h113q-4 -69 -60 -107q-55 -37 -146 -37t-146 37t-60 107z" />
    <glyph glyph-name="dotaccent" unicode="&#x2d9;" 
d="M198 644v151h159v-151h-159z" />
    <glyph glyph-name="dieresis" unicode="&#xa8;" 
d="M81 644v151h159v-151h-159zM314 644v151h159v-151h-159z" />
    <glyph glyph-name="ring" unicode="&#x2da;" 
d="M403 726q0 -52 -37 -89t-89 -37t-89 37t-37 89t37 89t89 37t89 -37t37 -89zM233 726q0 -18 13 -30.5t31 -12.5t31 12.5t13 31.5q0 18 -12.5 31t-31.5 13t-31.5 -13.5t-12.5 -31.5z" />
    <glyph glyph-name="cedilla" unicode="&#xb8;" 
d="M311 0l-29 -53q9 3 21 3q33 0 59 -23.5t26 -67.5q0 -41 -29.5 -72.5t-82.5 -31.5q-11 0 -23.5 2.5t-32 10.5t-34.5 29t-19 52h76l6 -13.5t9 -9.5t18 -5q17 0 26.5 10.5t9.5 27.5q0 15 -9.5 24.5t-24.5 9.5q-16 0 -27 -15l-65 35l42 87h83z" />
    <glyph glyph-name="hungarumlaut" unicode="&#x2dd;" 
d="M176 832l118 -57l-86 -175l-106 47zM376 832l117 -57l-86 -175l-106 47z" />
    <glyph glyph-name="ogonek" unicode="&#x2db;" 
d="M380 -104v-86q-50 -16 -86 -16q-57 0 -88 28t-31 69q0 28 17.5 52.5t65.5 56.5h84q-57 -32 -57 -68q0 -19 14.5 -33.5t33.5 -14.5q17 0 47 12z" />
    <glyph glyph-name="caron" unicode="&#x2c7;" 
d="M277 741l46 58h161l-155 -166h-108l-151 166h161z" />
    <glyph glyph-name="emdash" unicode="&#x2014;" horiz-adv-x="1000" 
d="M965 370v-163h-930v163h930z" />
    <glyph glyph-name="AE" unicode="&#xc6;" horiz-adv-x="975" 
d="M514 124h-215l-80 -124h-229l514 740h421v-166h-228v-115h221v-166h-221v-127h228v-166h-411v124zM376 270h138v201h-2z" />
    <glyph glyph-name="ordfeminine" unicode="&#xaa;" horiz-adv-x="385" 
d="M333 744v-286h-99v29h-2q-19 -39 -73 -39q-60 0 -100 44t-40 109q0 70 42 111.5t100 41.5q51 0 72 -39h-1h2v29h99zM118 601q0 -21 15 -40t43 -19q30 0 44.5 19t14.5 40q0 24 -15.5 41.5t-43.5 17.5t-43 -18.5t-15 -40.5z" />
    <glyph glyph-name="Lslash" unicode="&#x141;" horiz-adv-x="487" 
d="M72 205l-65 -47v188l65 47v347h189v-211l109 78v-188l-109 -78v-175h219v-166h-408v205z" />
    <glyph glyph-name="Oslash" unicode="&#xd8;" horiz-adv-x="851" 
d="M593 719l64 87l118 -86l-64 -86q105 -114 105 -264q0 -157 -111.5 -270.5t-280.5 -113.5q-85 0 -167 35l-63 -84l-118 87l62 83q-103 111 -103 263q0 162 112.5 273t278.5 111q92 0 167 -35zM251 259l237 319q-28 10 -62 10q-95 0 -148.5 -66.5t-53.5 -148.5
q0 -64 27 -114zM598 483l-237 -320q33 -11 66 -11q49 0 89 20.5t63 53.5t35.5 70t12.5 73q0 60 -29 114z" />
    <glyph glyph-name="OE" unicode="&#x152;" horiz-adv-x="1085" 
d="M1035 740v-166h-230v-115h222v-166h-222v-127h230v-166h-412v49q-87 -63 -204 -63q-163 0 -273.5 113t-110.5 269q0 154 107 270t282 116q51 0 95 -12.5t62 -23t42 -27.5v49h412zM224 368q0 -47 19 -94.5t66 -84.5t113 -37q93 0 146.5 66t53.5 155q0 91 -55 153t-144 62
q-64 0 -110.5 -34t-67.5 -82.5t-21 -103.5z" />
    <glyph glyph-name="ordmasculine" unicode="&#xba;" horiz-adv-x="385" 
d="M37 601q0 59 41 106t114 47t114 -47t41 -106t-41 -106t-114 -47t-114 47t-41 106zM136 601q0 -25 16.5 -42t39.5 -17t39.5 17t16.5 42t-16.5 42t-39.5 17t-39.5 -17t-16.5 -42z" />
    <glyph glyph-name="ae" unicode="&#xe6;" horiz-adv-x="1091" 
d="M1055 226h-417q8 -55 46 -79.5t81 -24.5q27 0 50 9.5t33.5 18.5t24.5 25h167q-84 -193 -263 -193q-102 4 -148 73h-2v-55h-151v55h-2q-16 -31 -61 -53t-97 -20q-66 0 -121.5 28t-89.5 72t-52.5 95t-18.5 100q0 126 80.5 211.5t205.5 85.5q49 0 94 -21t60 -52h2v54h151
v-53h2q51 68 152 72q110 0 194 -83.5t84 -223.5q0 -25 -4 -41zM642 336h253q-27 97 -124 97q-58 0 -90.5 -31t-38.5 -66zM200 281q0 -64 40.5 -104t100.5 -40q57 0 96 40t39 99q0 62 -38 102.5t-103 40.5q-67 0 -101 -47t-34 -91z" />
    <glyph glyph-name="dotlessi" unicode="&#x131;" horiz-adv-x="286" 
d="M226 555v-555h-166v555h166z" />
    <glyph glyph-name="lslash" unicode="&#x142;" horiz-adv-x="342" 
d="M86 226l-61 -39v172l61 39v342h166v-235l65 42v-172l-65 -42v-333h-166v226z" />
    <glyph glyph-name="oslash" unicode="&#xf8;" horiz-adv-x="666" 
d="M455 550l61 83l107 -77l-62 -83q71 -85 71 -195q0 -54 -19 -105.5t-55 -94.5t-94.5 -69.5t-129.5 -26.5q-66 0 -121 23l-65 -88l-105 80l61 82q-70 80 -70 197q0 73 31.5 139t102 112t166.5 46q67 0 121 -23zM213 216l148 199q-18 3 -27 3q-56 0 -95 -40.5t-39 -99.5
q0 -33 13 -62zM454 336l-146 -196q18 -3 25 -3q60 0 96.5 42t36.5 99q0 28 -12 58z" />
    <glyph glyph-name="oe" unicode="&#x153;" horiz-adv-x="1076" 
d="M856 173h170q-30 -70 -86 -121q-80 -71 -188 -71q-135 0 -208 100q-79 -100 -216 -100q-122 0 -208 85t-86 210q0 122 83 210t219 88q65 0 122.5 -27.5t85.5 -67.5q28 40 85.5 67.5t122.5 27.5q122 0 207.5 -87t85.5 -215q0 -21 -5 -46h-416q5 -46 38 -75t86 -29
q27 0 49 8.5t33 17.5t26 25zM629 337h250q-10 45 -44.5 70.5t-80.5 25.5t-81.5 -26t-43.5 -70zM200 277q0 -58 39.5 -99.5t95.5 -41.5q61 0 96.5 44.5t35.5 97.5q0 56 -38 98.5t-95 42.5q-52 0 -93 -38.5t-41 -103.5z" />
    <glyph glyph-name="germandbls" unicode="&#xdf;" horiz-adv-x="694" 
d="M224 0h-166v427q0 92 13 142t51 93q42 47 101 72t118 25q102 0 168.5 -63t66.5 -146q0 -82 -71 -129q64 -16 109.5 -69t45.5 -124q0 -96 -72.5 -171t-185.5 -75q-46 0 -84 15.5t-54 29t-40 37.5v-64zM224 474v-265h93q4 -13 8 -22t13 -22.5t25.5 -20.5t39.5 -7
q41 0 66 27.5t25 62.5q0 9 -1.5 18.5t-8.5 24t-18.5 25t-33 18t-50.5 7.5h-90v125h34q38 0 61 21t23 55q0 37 -24.5 60t-63.5 23q-98 0 -98 -130z" />
    <glyph glyph-name="divide" unicode="&#xf7;" horiz-adv-x="600" 
d="M552 173h-504v160h504v-160zM378 563v-160h-157v160h157zM378 103v-160h-157v160h157z" />
    <glyph glyph-name="threequarters" unicode="&#xbe;" horiz-adv-x="1000" 
d="M702 171h84v121h-2zM784 77h-209v86l214 281h118v-273h52v-94h-52v-77h-123v77zM611 740h137l-311 -740h-136zM41 433h129q3 -11 6 -17.5t14.5 -13.5t29.5 -7q48 0 48 43q0 15 -12 26.5t-37 11.5h-55v90h24q60 0 60 42q0 33 -32 33q-16 0 -24.5 -7t-9.5 -12.5t-2 -15.5
h-126q0 43 18 73t46.5 44t53 20t48.5 6q68 0 110 -36.5t42 -86.5q0 -61 -57 -92q39 -13 61 -41.5t22 -64.5q0 -58 -53 -99.5t-126 -41.5q-46 0 -87 16t-63 46q-23 31 -28 84z" />
    <glyph glyph-name="onequarter" unicode="&#xbc;" horiz-adv-x="900" 
d="M498 740h137l-311 -740h-136zM249 740v-444h-123v338h-78v106h201zM676 77h-209v86l214 281h118v-273h52v-94h-52v-77h-123v77zM676 288l-77 -117h79v117h-2z" />
    <glyph glyph-name="onesuperior" unicode="&#xb9;" horiz-adv-x="407" 
d="M270 740v-444h-123v338h-78v106h201z" />
    <glyph glyph-name="multiply" unicode="&#xd7;" horiz-adv-x="600" 
d="M299 356l131 131l114 -114l-131 -130l129 -130l-113 -113l-129 129l-131 -129l-113 113l130 130l-130 130l113 113z" />
    <glyph glyph-name="registered" unicode="&#xae;" horiz-adv-x="800" 
d="M237 587h180q67 0 111.5 -29.5t44.5 -90.5q0 -72 -69 -103q27 -11 42.5 -32.5t18.5 -66.5q6 -84 13 -104h-103q-4 7 -6.5 28.5t-5 46t-2.5 27.5q-2 12 -4.5 20t-9.5 19.5t-22.5 17t-39.5 5.5h-42v-164h-106v426zM400 514h-57v-120h51q73 0 73 65q0 55 -67 55zM403 754
q158 0 269 -113.5t111 -270.5q0 -159 -112 -271.5t-270 -112.5t-270.5 113t-112.5 271q0 157 111.5 270.5t273.5 113.5zM402 677q-127 0 -214 -90t-87 -217t88.5 -217t211.5 -90q124 0 211.5 89.5t87.5 217.5q0 125 -86.5 216t-211.5 91z" />
    <glyph glyph-name="Thorn" unicode="&#xde;" horiz-adv-x="636" 
d="M67 0v740h181v-97l61 1q96 0 145.5 -13.5t82.5 -40.5q87 -72 87 -196q0 -57 -21.5 -110.5t-56.5 -83.5q-41 -34 -87.5 -49t-128.5 -15h-82v-136h-181zM248 478v-176h77q16 0 26.5 0.5t30 5t31 13.5t21 27t9.5 43t-9.5 42.5t-22 26t-32.5 13t-31.5 5t-29.5 0.5h-70z" />
    <glyph glyph-name="brokenbar" unicode="&#xa6;" 
d="M186 740h183v-336h-183v336zM186 236h183v-336h-183v336z" />
    <glyph glyph-name="Eth" unicode="&#xd0;" horiz-adv-x="742" 
d="M0 296v166h67v278h249q36 0 57.5 -1t62.5 -8t71.5 -20.5t67 -41.5t64.5 -67q68 -93 68 -230q0 -161 -93 -266.5t-268 -105.5h-279v296h-67zM364 462v-166h-108v-130h81q51 0 87.5 16.5t56 46t28.5 64t9 76.5q0 81 -36 137q-45 68 -144 68h-82v-112h108z" />
    <glyph glyph-name="onehalf" unicode="&#xbd;" horiz-adv-x="920" 
d="M498 740h137l-311 -740h-136zM249 740v-444h-123v338h-78v106h201zM719 106h153v-106h-341v97q38 24 58.5 38t51.5 38t47.5 42t29.5 42t13 47q0 42 -35 42q-43 0 -47 -68h-123q2 67 29 106q48 69 150 69q76 0 120.5 -39.5t44.5 -91.5q0 -98 -151 -214v-2z" />
    <glyph glyph-name="minus" unicode="&#x2212;" horiz-adv-x="600" 
d="M552 173h-504v160h504v-160z" />
    <glyph glyph-name="ccedilla" unicode="&#xe7;" horiz-adv-x="652" 
d="M298 -122l-65 35l36 75q-103 21 -169.5 102.5t-66.5 188.5q0 123 84.5 209t208.5 86q110 0 191.5 -65t102.5 -168h-168q-39 74 -120 74q-58 3 -95 -37t-37 -100q0 -61 36.5 -101t95.5 -40q81 0 120 74h169q-22 -94 -96 -158t-176 -69l-20 -37q9 3 21 3q30 0 57.5 -23.5
t27.5 -67.5q0 -41 -29.5 -72.5t-82.5 -31.5q-11 0 -23.5 2.5t-32 10.5t-34.5 29t-19 52h76l6 -13.5t9 -9.5t18 -5q17 0 26.5 10.5t9.5 27.5q0 15 -9.5 24.5t-24.5 9.5q-16 0 -27 -15z" />
    <glyph glyph-name="eth" unicode="&#xf0;" horiz-adv-x="666" 
d="M338 420q-67 0 -102.5 -45t-35.5 -96q0 -54 35 -97.5t100 -43.5t98 44.5t33 96.5q0 53 -33.5 97t-94.5 44zM593 692l-121 -37q71 -58 112 -137q48 -91 48 -216q0 -135 -83.5 -227t-215.5 -92q-125 0 -212 84t-87 209q0 132 81 209.5t185 75.5q73 -1 117 -47l2 2
q-26 46 -97 93l-150 -45l-93 60l140 43q-57 26 -99 36l160 53q52 -13 101 -39l129 39z" />
    <glyph glyph-name="plusminus" unicode="&#xb1;" horiz-adv-x="600" 
d="M220 420v136h160v-136h172v-160h-172v-130h-160v130h-172v160h172zM48 -82v160h504v-160h-504z" />
    <glyph glyph-name="Ccedilla" unicode="&#xc7;" horiz-adv-x="832" 
d="M391 -122l-65 35l38 78q-145 21 -236 130.5t-91 249.5q0 96 45.5 182.5t136 143.5t206.5 57q82 0 153 -29.5t115.5 -75t72 -95t35.5 -95.5h-198q-19 51 -64.5 90t-114.5 39q-90 0 -144 -65.5t-54 -150.5q0 -88 55 -154t144 -66q120 0 178 125h198q-31 -126 -129 -205.5
t-228 -84.5l-22 -40q9 3 21 3q30 0 57.5 -23.5t27.5 -67.5q0 -41 -29.5 -72.5t-82.5 -31.5q-11 0 -23.5 2.5t-32 10.5t-34.5 29t-19 52h76l6 -13.5t9 -9.5t18 -5q17 0 26.5 10.5t9.5 27.5q0 15 -9.5 24.5t-24.5 9.5q-16 0 -27 -15z" />
    <glyph glyph-name="thorn" unicode="&#xfe;" horiz-adv-x="695" 
d="M59 -185v925h166v-234q20 19 34.5 30t50.5 24t80 13q57 0 104 -19t78 -49.5t52 -71t30 -81t9 -80.5q0 -122 -77 -206.5t-194 -84.5q-101 0 -167 69v-235h-166zM357 136q63 0 101.5 42.5t38.5 98.5q0 54 -37.5 97.5t-102.5 43.5t-102.5 -43.5t-37.5 -97.5
q0 -56 38.5 -98.5t101.5 -42.5z" />
    <glyph glyph-name="copyright" unicode="&#xa9;" horiz-adv-x="800" 
d="M595 436h-105q-18 68 -84 68q-57 0 -82 -40t-25 -92q0 -56 27 -93t80 -37q8 0 16.5 2t24 8.5t28 26.5t18.5 50h106q-7 -83 -60 -131t-137 -48q-96 0 -153 62.5t-57 160.5q0 92 57 157.5t156 65.5q84 0 135 -48.5t55 -111.5zM403 754q158 0 269 -113.5t111 -270.5
q0 -159 -112 -271.5t-270 -112.5t-270.5 113t-112.5 271q0 157 111.5 270.5t273.5 113.5zM402 677q-127 0 -214 -90t-87 -217q0 -128 88 -217.5t212 -89.5t211.5 89.5t87.5 217.5q0 126 -86.5 216.5t-211.5 90.5z" />
    <glyph glyph-name="logicalnot" unicode="&#xac;" horiz-adv-x="600" 
d="M397 108v177h-364v160h524v-337h-160z" />
    <glyph glyph-name="twosuperior" unicode="&#xb2;" horiz-adv-x="407" 
d="M223 402h153v-106h-341v97q38 24 58.5 38t51.5 38t47.5 42t29.5 42t13 47q0 42 -35 42q-43 0 -47 -68h-123q2 67 29 106q48 69 150 69q76 0 120.5 -39.5t44.5 -91.5q0 -98 -151 -214v-2z" />
    <glyph glyph-name="threesuperior" unicode="&#xb3;" horiz-adv-x="407" 
d="M22 433h129q3 -11 6 -17.5t14.5 -13.5t29.5 -7q48 0 48 43q0 15 -12 26.5t-37 11.5h-55v90h24q60 0 60 42q0 33 -32 33q-16 0 -24.5 -7t-9.5 -12.5t-2 -15.5h-126q0 43 18 73t46.5 44t53 20t48.5 6q68 0 110 -36.5t42 -86.5q0 -61 -57 -92q39 -13 61 -41.5t22 -64.5
q0 -58 -53 -99.5t-126 -41.5q-46 0 -87 16t-63 46q-23 31 -28 84z" />
    <glyph glyph-name="trademark" unicode="&#x2122;" horiz-adv-x="990" 
d="M112 296v338h-91v106h307v-106h-90v-338h-126zM386 296v444h159l87 -277h2l86 277h159v-444h-117l2 301h-2l-87 -301h-84l-90 301l-2 -2l4 -299h-117z" />
    <glyph glyph-name="degree" unicode="&#xb0;" horiz-adv-x="400" 
d="M200 508q24 0 41.5 18t17.5 43q0 24 -17.5 42.5t-41.5 18.5t-41.5 -18.5t-17.5 -42.5q0 -25 17.5 -43t41.5 -18zM200 426q-60 0 -101.5 41.5t-41.5 101.5t41.5 101.5t101.5 41.5t101.5 -41.5t41.5 -101.5t-41.5 -101.5t-101.5 -41.5z" />
    <glyph glyph-name="mu" unicode="&#x3bc;" horiz-adv-x="634" 
d="M52 -190v745h166v-274q0 -62 22.5 -103t75.5 -41t76 41t23 103v274h166v-555h-158v69h-1h-2q-8 -26 -34 -52.5t-68 -26.5q-37 0 -62 16.5t-36 37.5h-2v-234h-166z" />
    <glyph glyph-name="Aacute" unicode="&#xc1;" horiz-adv-x="758" 
d="M508 107h-257l-39 -107h-203l297 740h149l294 -740h-205zM379 510l-76 -253h155l-76 253h-1h-2zM493 993l53 -118l-246 -109l-47 98z" />
    <glyph glyph-name="Acircumflex" unicode="&#xc2;" horiz-adv-x="758" 
d="M508 107h-257l-39 -107h-203l297 740h149l294 -740h-205zM379 510l-76 -253h155l-76 253h-1h-2zM380 843l-46 -58h-162l156 166h108l150 -166h-160z" />
    <glyph glyph-name="Adieresis" unicode="&#xc4;" horiz-adv-x="758" 
d="M508 107h-257l-39 -107h-203l297 740h149l294 -740h-205zM379 510l-76 -253h155l-76 253h-1h-2zM183 789v151h159v-151h-159zM416 789v151h159v-151h-159z" />
    <glyph glyph-name="Agrave" unicode="&#xc0;" horiz-adv-x="758" 
d="M508 107h-257l-39 -107h-203l297 740h149l294 -740h-205zM379 510l-76 -253h155l-76 253h-1h-2zM264 984l242 -128l-46 -97l-247 108z" />
    <glyph glyph-name="Aring" unicode="&#xc5;" horiz-adv-x="758" 
d="M508 107h-257l-39 -107h-203l297 740h149l294 -740h-205zM379 510l-76 -253h155l-76 253h-1h-2zM505 891q0 -52 -37 -89t-89 -37t-89 37t-37 89t37 89t89 37t89 -37t37 -89zM335 891q0 -18 13 -30.5t31 -12.5t31 12.5t13 31.5q0 18 -12.5 31t-31.5 13t-31.5 -13.5
t-12.5 -31.5z" />
    <glyph glyph-name="Atilde" unicode="&#xc3;" horiz-adv-x="758" 
d="M508 107h-257l-39 -107h-203l297 740h149l294 -740h-205zM379 510l-76 -253h155l-76 253h-1h-2zM522 938l60 -85q-59 -37 -113 -37q-17 0 -81 13t-79 13q-23 0 -72 -19l-60 88q63 35 110 35q22 0 105 -18q27 -7 57 -7q31 0 73 17z" />
    <glyph glyph-name="Eacute" unicode="&#xc9;" horiz-adv-x="528" 
d="M67 0v740h411v-166h-230v-115h223v-166h-223v-127h230v-166h-411zM378 1013l53 -118l-246 -109l-47 98z" />
    <glyph glyph-name="Ecircumflex" unicode="&#xca;" horiz-adv-x="528" 
d="M67 0v740h411v-166h-230v-115h223v-166h-223v-127h230v-166h-411zM265 863l-46 -58h-162l156 166h108l150 -166h-160z" />
    <glyph glyph-name="Edieresis" unicode="&#xcb;" horiz-adv-x="528" 
d="M67 0v740h411v-166h-230v-115h223v-166h-223v-127h230v-166h-411zM68 809v151h159v-151h-159zM301 809v151h159v-151h-159z" />
    <glyph glyph-name="Egrave" unicode="&#xc8;" horiz-adv-x="528" 
d="M67 0v740h411v-166h-230v-115h223v-166h-223v-127h230v-166h-411zM149 1004l242 -128l-46 -97l-247 108z" />
    <glyph glyph-name="Iacute" unicode="&#xcd;" horiz-adv-x="323" 
d="M67 0v740h189v-740h-189zM300 1013l53 -118l-246 -109l-47 98z" />
    <glyph glyph-name="Icircumflex" unicode="&#xce;" horiz-adv-x="323" 
d="M67 0v740h189v-740h-189zM162 863l-46 -58h-162l156 166h108l150 -166h-160z" />
    <glyph glyph-name="Idieresis" unicode="&#xcf;" horiz-adv-x="323" 
d="M67 0v740h189v-740h-189zM-35 809v151h159v-151h-159zM198 809v151h159v-151h-159z" />
    <glyph glyph-name="Igrave" unicode="&#xcc;" horiz-adv-x="323" 
d="M67 0v740h189v-740h-189zM21 1004l242 -128l-46 -97l-247 108z" />
    <glyph glyph-name="Ntilde" unicode="&#xd1;" horiz-adv-x="759" 
d="M67 0v740h163l286 -465l2 2l-8 463h181v-740h-164l-282 450l-2 -1l5 -449h-181zM522 938l60 -85q-59 -37 -113 -37q-17 0 -81 13t-79 13q-23 0 -72 -19l-60 88q63 35 110 35q22 0 105 -18q27 -7 57 -7q31 0 73 17z" />
    <glyph glyph-name="Oacute" unicode="&#xd3;" horiz-adv-x="851" 
d="M64 519q16 40 44.5 78t72 75t107 59.5t137.5 22.5q168 0 279.5 -113t111.5 -271t-111.5 -271t-280.5 -113q-112 0 -203 54.5t-138.5 139.5t-47.5 181q0 87 29 158zM224 372q0 -90 56 -155t148 -65q93 0 146 68t53 149q0 82 -53.5 150.5t-147.5 68.5q-93 0 -147.5 -65.5
t-54.5 -150.5zM539 1013l53 -118l-246 -109l-47 98z" />
    <glyph glyph-name="Ocircumflex" unicode="&#xd4;" horiz-adv-x="851" 
d="M64 519q16 40 44.5 78t72 75t107 59.5t137.5 22.5q168 0 279.5 -113t111.5 -271t-111.5 -271t-280.5 -113q-112 0 -203 54.5t-138.5 139.5t-47.5 181q0 87 29 158zM224 372q0 -90 56 -155t148 -65q93 0 146 68t53 149q0 82 -53.5 150.5t-147.5 68.5q-93 0 -147.5 -65.5
t-54.5 -150.5zM426 863l-46 -58h-162l156 166h108l150 -166h-160z" />
    <glyph glyph-name="Odieresis" unicode="&#xd6;" horiz-adv-x="851" 
d="M64 519q16 40 44.5 78t72 75t107 59.5t137.5 22.5q168 0 279.5 -113t111.5 -271t-111.5 -271t-280.5 -113q-112 0 -203 54.5t-138.5 139.5t-47.5 181q0 87 29 158zM224 372q0 -90 56 -155t148 -65q93 0 146 68t53 149q0 82 -53.5 150.5t-147.5 68.5q-93 0 -147.5 -65.5
t-54.5 -150.5zM229 809v151h159v-151h-159zM462 809v151h159v-151h-159z" />
    <glyph glyph-name="Ograve" unicode="&#xd2;" horiz-adv-x="851" 
d="M64 519q16 40 44.5 78t72 75t107 59.5t137.5 22.5q168 0 279.5 -113t111.5 -271t-111.5 -271t-280.5 -113q-112 0 -203 54.5t-138.5 139.5t-47.5 181q0 87 29 158zM224 372q0 -90 56 -155t148 -65q93 0 146 68t53 149q0 82 -53.5 150.5t-147.5 68.5q-93 0 -147.5 -65.5
t-54.5 -150.5zM310 1004l242 -128l-46 -97l-247 108z" />
    <glyph glyph-name="Otilde" unicode="&#xd5;" horiz-adv-x="851" 
d="M64 519q16 40 44.5 78t72 75t107 59.5t137.5 22.5q168 0 279.5 -113t111.5 -271t-111.5 -271t-280.5 -113q-112 0 -203 54.5t-138.5 139.5t-47.5 181q0 87 29 158zM224 372q0 -90 56 -155t148 -65q93 0 146 68t53 149q0 82 -53.5 150.5t-147.5 68.5q-93 0 -147.5 -65.5
t-54.5 -150.5zM568 938l60 -85q-59 -37 -113 -37q-17 0 -81 13t-79 13q-23 0 -72 -19l-60 88q63 35 110 35q22 0 105 -18q27 -7 57 -7q31 0 73 17z" />
    <glyph glyph-name="Scaron" unicode="&#x160;" horiz-adv-x="573" 
d="M544 524h-187q-2 15 -4.5 23t-9 21.5t-20.5 20.5t-34 7q-26 0 -45.5 -16.5t-19.5 -41.5q0 -32 24 -49t129 -64q98 -44 135.5 -93.5t37.5 -118.5q0 -43 -13.5 -81.5t-41.5 -72t-80.5 -53.5t-122.5 -20q-61 0 -109.5 15.5t-77.5 39.5t-47.5 56.5t-25.5 62.5t-7 61v24h188
q0 -56 25 -78.5t52 -22.5q32 0 52 22t20 49q0 34 -25.5 51.5t-119.5 57.5l-40 17t-45.5 26.5t-47.5 40t-33 55t-15 73.5q0 66 39.5 117.5t97.5 76t122 24.5q58 0 111.5 -21.5t88.5 -62.5q45 -55 49 -146zM286 906l46 58h161l-155 -166h-108l-151 166h161z" />
    <glyph glyph-name="Uacute" unicode="&#xda;" horiz-adv-x="698" 
d="M65 740h189v-447q0 -26 2.5 -44.5t10.5 -43.5t29 -39t54 -14q27 0 46 10t28 22t14 34.5t5.5 36t0.5 38.5v447h189v-447q0 -88 -18 -138t-56 -89q-78 -80 -207 -80q-140 0 -213 79q-45 49 -59.5 96.5t-14.5 131.5v447zM498 1013l53 -118l-246 -109l-47 98z" />
    <glyph glyph-name="Ucircumflex" unicode="&#xdb;" horiz-adv-x="698" 
d="M65 740h189v-447q0 -26 2.5 -44.5t10.5 -43.5t29 -39t54 -14q27 0 46 10t28 22t14 34.5t5.5 36t0.5 38.5v447h189v-447q0 -88 -18 -138t-56 -89q-78 -80 -207 -80q-140 0 -213 79q-45 49 -59.5 96.5t-14.5 131.5v447zM350 863l-46 -58h-162l156 166h108l150 -166h-160z
" />
    <glyph glyph-name="Udieresis" unicode="&#xdc;" horiz-adv-x="698" 
d="M65 740h189v-447q0 -26 2.5 -44.5t10.5 -43.5t29 -39t54 -14q27 0 46 10t28 22t14 34.5t5.5 36t0.5 38.5v447h189v-447q0 -88 -18 -138t-56 -89q-78 -80 -207 -80q-140 0 -213 79q-45 49 -59.5 96.5t-14.5 131.5v447zM153 809v151h159v-151h-159zM386 809v151h159v-151
h-159z" />
    <glyph glyph-name="Ugrave" unicode="&#xd9;" horiz-adv-x="698" 
d="M65 740h189v-447q0 -26 2.5 -44.5t10.5 -43.5t29 -39t54 -14q27 0 46 10t28 22t14 34.5t5.5 36t0.5 38.5v447h189v-447q0 -88 -18 -138t-56 -89q-78 -80 -207 -80q-140 0 -213 79q-45 49 -59.5 96.5t-14.5 131.5v447zM199 1004l242 -128l-46 -97l-247 108z" />
    <glyph glyph-name="Yacute" unicode="&#xdd;" horiz-adv-x="647" 
d="M230 0v269l-221 471h205l110 -297l111 297h203l-219 -471v-269h-189zM472 1013l53 -118l-246 -109l-47 98z" />
    <glyph glyph-name="Ydieresis" unicode="&#x178;" horiz-adv-x="647" 
d="M230 0v269l-221 471h205l110 -297l111 297h203l-219 -471v-269h-189zM127 809v151h159v-151h-159zM360 809v151h159v-151h-159z" />
    <glyph glyph-name="Zcaron" unicode="&#x17d;" horiz-adv-x="499" 
d="M16 0v124l255 450h-255v166h467v-153l-236 -421h236v-166h-467zM274 906l46 58h161l-155 -166h-108l-151 166h161z" />
    <glyph glyph-name="aacute" unicode="&#xe1;" horiz-adv-x="704" 
d="M643 555v-555h-166v60h-2q-20 -39 -65 -59t-97 -20q-127 0 -203 86.5t-76 210.5q0 132 82 214t197 82q62 0 103 -23.5t59 -54.5h2v59h166zM200 276q0 -21 8 -44t23.5 -45t43.5 -36.5t63 -14.5q70 0 104.5 45.5t34.5 96.5q0 55 -37 98t-103 43t-101.5 -44.5t-35.5 -98.5z
M466 848l53 -118l-246 -109l-47 98z" />
    <glyph glyph-name="acircumflex" unicode="&#xe2;" horiz-adv-x="704" 
d="M643 555v-555h-166v60h-2q-20 -39 -65 -59t-97 -20q-127 0 -203 86.5t-76 210.5q0 132 82 214t197 82q62 0 103 -23.5t59 -54.5h2v59h166zM200 276q0 -21 8 -44t23.5 -45t43.5 -36.5t63 -14.5q70 0 104.5 45.5t34.5 96.5q0 55 -37 98t-103 43t-101.5 -44.5t-35.5 -98.5z
M353 698l-46 -58h-162l156 166h108l150 -166h-160z" />
    <glyph glyph-name="adieresis" unicode="&#xe4;" horiz-adv-x="704" 
d="M643 555v-555h-166v60h-2q-20 -39 -65 -59t-97 -20q-127 0 -203 86.5t-76 210.5q0 132 82 214t197 82q62 0 103 -23.5t59 -54.5h2v59h166zM200 276q0 -21 8 -44t23.5 -45t43.5 -36.5t63 -14.5q70 0 104.5 45.5t34.5 96.5q0 55 -37 98t-103 43t-101.5 -44.5t-35.5 -98.5z
M156 644v151h159v-151h-159zM389 644v151h159v-151h-159z" />
    <glyph glyph-name="agrave" unicode="&#xe0;" horiz-adv-x="704" 
d="M643 555v-555h-166v60h-2q-20 -39 -65 -59t-97 -20q-127 0 -203 86.5t-76 210.5q0 132 82 214t197 82q62 0 103 -23.5t59 -54.5h2v59h166zM200 276q0 -21 8 -44t23.5 -45t43.5 -36.5t63 -14.5q70 0 104.5 45.5t34.5 96.5q0 55 -37 98t-103 43t-101.5 -44.5t-35.5 -98.5z
M237 839l242 -128l-46 -97l-247 108z" />
    <glyph glyph-name="aring" unicode="&#xe5;" horiz-adv-x="704" 
d="M643 555v-555h-166v60h-2q-20 -39 -65 -59t-97 -20q-127 0 -203 86.5t-76 210.5q0 132 82 214t197 82q62 0 103 -23.5t59 -54.5h2v59h166zM200 276q0 -21 8 -44t23.5 -45t43.5 -36.5t63 -14.5q70 0 104.5 45.5t34.5 96.5q0 55 -37 98t-103 43t-101.5 -44.5t-35.5 -98.5z
M478 726q0 -52 -37 -89t-89 -37t-89 37t-37 89t37 89t89 37t89 -37t37 -89zM308 726q0 -18 13 -30.5t31 -12.5t31 12.5t13 31.5q0 18 -12.5 31t-31.5 13t-31.5 -13.5t-12.5 -31.5z" />
    <glyph glyph-name="atilde" unicode="&#xe3;" horiz-adv-x="704" 
d="M643 555v-555h-166v60h-2q-20 -39 -65 -59t-97 -20q-127 0 -203 86.5t-76 210.5q0 132 82 214t197 82q62 0 103 -23.5t59 -54.5h2v59h166zM200 276q0 -21 8 -44t23.5 -45t43.5 -36.5t63 -14.5q70 0 104.5 45.5t34.5 96.5q0 55 -37 98t-103 43t-101.5 -44.5t-35.5 -98.5z
M495 773l60 -85q-59 -37 -113 -37q-17 0 -81 13t-79 13q-23 0 -72 -19l-60 88q63 35 110 35q22 0 105 -18q27 -7 57 -7q31 0 73 17z" />
    <glyph glyph-name="eacute" unicode="&#xe9;" horiz-adv-x="646" 
d="M425 174h170q-40 -92 -113 -142q-70 -50 -158 -50q-120 0 -207 85.5t-87 208.5q0 119 83.5 208.5t207.5 89.5q126 0 209.5 -87.5t83.5 -215.5q0 -18 -4 -44h-416q7 -48 43.5 -76.5t86.5 -28.5q60 0 101 52zM196 339h252q-7 34 -38 64.5t-88 30.5t-88 -30.5t-38 -64.5z
M437 848l53 -118l-246 -109l-47 98z" />
    <glyph glyph-name="ecircumflex" unicode="&#xea;" horiz-adv-x="646" 
d="M425 174h170q-40 -92 -113 -142q-70 -50 -158 -50q-120 0 -207 85.5t-87 208.5q0 119 83.5 208.5t207.5 89.5q126 0 209.5 -87.5t83.5 -215.5q0 -18 -4 -44h-416q7 -48 43.5 -76.5t86.5 -28.5q60 0 101 52zM196 339h252q-7 34 -38 64.5t-88 30.5t-88 -30.5t-38 -64.5z
M324 698l-46 -58h-162l156 166h108l150 -166h-160z" />
    <glyph glyph-name="edieresis" unicode="&#xeb;" horiz-adv-x="646" 
d="M425 174h170q-40 -92 -113 -142q-70 -50 -158 -50q-120 0 -207 85.5t-87 208.5q0 119 83.5 208.5t207.5 89.5q126 0 209.5 -87.5t83.5 -215.5q0 -18 -4 -44h-416q7 -48 43.5 -76.5t86.5 -28.5q60 0 101 52zM196 339h252q-7 34 -38 64.5t-88 30.5t-88 -30.5t-38 -64.5z
M127 644v151h159v-151h-159zM360 644v151h159v-151h-159z" />
    <glyph glyph-name="egrave" unicode="&#xe8;" horiz-adv-x="646" 
d="M425 174h170q-40 -92 -113 -142q-70 -50 -158 -50q-120 0 -207 85.5t-87 208.5q0 119 83.5 208.5t207.5 89.5q126 0 209.5 -87.5t83.5 -215.5q0 -18 -4 -44h-416q7 -48 43.5 -76.5t86.5 -28.5q60 0 101 52zM196 339h252q-7 34 -38 64.5t-88 30.5t-88 -30.5t-38 -64.5z
M208 839l242 -128l-46 -97l-247 108z" />
    <glyph glyph-name="iacute" unicode="&#xed;" horiz-adv-x="286" 
d="M226 555v-555h-166v555h166zM282 848l53 -118l-246 -109l-47 98z" />
    <glyph glyph-name="icircumflex" unicode="&#xee;" horiz-adv-x="286" 
d="M226 555v-555h-166v555h166zM144 698l-46 -58h-162l156 166h108l150 -166h-160z" />
    <glyph glyph-name="idieresis" unicode="&#xef;" horiz-adv-x="286" 
d="M226 555v-555h-166v555h166zM-53 644v151h159v-151h-159zM180 644v151h159v-151h-159z" />
    <glyph glyph-name="igrave" unicode="&#xec;" horiz-adv-x="286" 
d="M226 555v-555h-166v555h166zM3 839l242 -128l-46 -97l-247 108z" />
    <glyph glyph-name="ntilde" unicode="&#xf1;" horiz-adv-x="632" 
d="M60 0v555h155v-59h2q49 78 151 78q39 0 79 -14t63 -34q64 -55 64 -179v-347h-166v303q0 22 -1.5 35.5t-9 35t-26.5 33t-50 11.5q-27 0 -46 -9.5t-28.5 -21t-14.5 -30.5t-5.5 -29t-0.5 -26v-302h-166zM459 773l60 -85q-59 -37 -113 -37q-17 0 -81 13t-79 13q-23 0 -72 -19
l-60 88q63 35 110 35q22 0 105 -18q27 -7 57 -7q31 0 73 17z" />
    <glyph glyph-name="oacute" unicode="&#xf3;" horiz-adv-x="666" 
d="M34 278q0 53 19 104t54.5 94.5t94 70t131.5 26.5t131.5 -26.5t94 -70t54.5 -94.5t19 -104t-19 -104t-54.5 -94.5t-94 -70t-131.5 -26.5t-131.5 26.5t-94 70t-54.5 94.5t-19 104zM200 278q0 -60 39 -100t94 -40t94 40t39 100t-39 100t-94 40t-94 -40t-39 -100zM447 848
l53 -118l-246 -109l-47 98z" />
    <glyph glyph-name="ocircumflex" unicode="&#xf4;" horiz-adv-x="666" 
d="M34 278q0 53 19 104t54.5 94.5t94 70t131.5 26.5t131.5 -26.5t94 -70t54.5 -94.5t19 -104t-19 -104t-54.5 -94.5t-94 -70t-131.5 -26.5t-131.5 26.5t-94 70t-54.5 94.5t-19 104zM200 278q0 -60 39 -100t94 -40t94 40t39 100t-39 100t-94 40t-94 -40t-39 -100zM334 698
l-46 -58h-162l156 166h108l150 -166h-160z" />
    <glyph glyph-name="odieresis" unicode="&#xf6;" horiz-adv-x="666" 
d="M34 278q0 53 19 104t54.5 94.5t94 70t131.5 26.5t131.5 -26.5t94 -70t54.5 -94.5t19 -104t-19 -104t-54.5 -94.5t-94 -70t-131.5 -26.5t-131.5 26.5t-94 70t-54.5 94.5t-19 104zM200 278q0 -60 39 -100t94 -40t94 40t39 100t-39 100t-94 40t-94 -40t-39 -100zM137 644
v151h159v-151h-159zM370 644v151h159v-151h-159z" />
    <glyph glyph-name="ograve" unicode="&#xf2;" horiz-adv-x="666" 
d="M34 278q0 53 19 104t54.5 94.5t94 70t131.5 26.5t131.5 -26.5t94 -70t54.5 -94.5t19 -104t-19 -104t-54.5 -94.5t-94 -70t-131.5 -26.5t-131.5 26.5t-94 70t-54.5 94.5t-19 104zM200 278q0 -60 39 -100t94 -40t94 40t39 100t-39 100t-94 40t-94 -40t-39 -100zM218 839
l242 -128l-46 -97l-247 108z" />
    <glyph glyph-name="otilde" unicode="&#xf5;" horiz-adv-x="666" 
d="M34 278q0 53 19 104t54.5 94.5t94 70t131.5 26.5t131.5 -26.5t94 -70t54.5 -94.5t19 -104t-19 -104t-54.5 -94.5t-94 -70t-131.5 -26.5t-131.5 26.5t-94 70t-54.5 94.5t-19 104zM200 278q0 -60 39 -100t94 -40t94 40t39 100t-39 100t-94 40t-94 -40t-39 -100zM476 773
l60 -85q-59 -37 -113 -37q-17 0 -81 13t-79 13q-23 0 -72 -19l-60 88q63 35 110 35q22 0 105 -18q27 -7 57 -7q31 0 73 17z" />
    <glyph glyph-name="scaron" unicode="&#x161;" horiz-adv-x="499" 
d="M459 399h-163q-1 7 -2 12t-5.5 13t-16 12.5t-28.5 4.5q-24 0 -35.5 -11.5t-11.5 -25.5q0 -35 85 -60q38 -10 57.5 -16.5t50 -21t46 -31t28 -43.5t12.5 -62q0 -85 -65.5 -137t-160.5 -52q-35 0 -69.5 8.5t-69 28t-58.5 57.5t-29 90h165q7 -51 63 -51q23 0 40.5 12t17.5 31
q0 9 -2 16t-9 13.5t-13.5 10.5t-20.5 10.5t-26 10.5t-35 12.5l-41 15.5q-59 19 -95.5 55.5t-36.5 89.5q0 80 63 131.5t152 51.5q32 0 63 -7.5t65 -25t57 -54t28 -88.5zM249 741l46 58h161l-155 -166h-108l-151 166h161z" />
    <glyph glyph-name="uacute" unicode="&#xfa;" horiz-adv-x="634" 
d="M574 555v-555h-157v59h-2q-37 -77 -144 -77q-108 0 -163 70q-31 39 -40.5 74.5t-9.5 96.5v332h166v-307q0 -21 1.5 -34.5t9 -34t27.5 -31.5t51 -11q41 0 68 26t27 87v305h166zM466 848l53 -118l-246 -109l-47 98z" />
    <glyph glyph-name="ucircumflex" unicode="&#xfb;" horiz-adv-x="634" 
d="M574 555v-555h-157v59h-2q-37 -77 -144 -77q-108 0 -163 70q-31 39 -40.5 74.5t-9.5 96.5v332h166v-307q0 -21 1.5 -34.5t9 -34t27.5 -31.5t51 -11q41 0 68 26t27 87v305h166zM318 698l-46 -58h-162l156 166h108l150 -166h-160z" />
    <glyph glyph-name="udieresis" unicode="&#xfc;" horiz-adv-x="634" 
d="M574 555v-555h-157v59h-2q-37 -77 -144 -77q-108 0 -163 70q-31 39 -40.5 74.5t-9.5 96.5v332h166v-307q0 -21 1.5 -34.5t9 -34t27.5 -31.5t51 -11q41 0 68 26t27 87v305h166zM121 644v151h159v-151h-159zM354 644v151h159v-151h-159z" />
    <glyph glyph-name="ugrave" unicode="&#xf9;" horiz-adv-x="634" 
d="M574 555v-555h-157v59h-2q-37 -77 -144 -77q-108 0 -163 70q-31 39 -40.5 74.5t-9.5 96.5v332h166v-307q0 -21 1.5 -34.5t9 -34t27.5 -31.5t51 -11q41 0 68 26t27 87v305h166zM167 839l242 -128l-46 -97l-247 108z" />
    <glyph glyph-name="yacute" unicode="&#xfd;" horiz-adv-x="574" 
d="M397 555h176l-278 -740h-176l88 213l-206 527h177l111 -322h2zM436 848l53 -118l-246 -109l-47 98z" />
    <glyph glyph-name="ydieresis" unicode="&#xff;" horiz-adv-x="574" 
d="M397 555h176l-278 -740h-176l88 213l-206 527h177l111 -322h2zM91 644v151h159v-151h-159zM324 644v151h159v-151h-159z" />
    <glyph glyph-name="zcaron" unicode="&#x17e;" horiz-adv-x="444" 
d="M211 126h217v-126h-413v114l234 315h-234v126h413v-126zM247 741l46 58h161l-155 -166h-108l-151 166h161z" />
  </font>
</defs>
</svg>
