<svg width="11" height="18" viewBox="0 0 11 18" fill="none" xmlns="http://www.w3.org/2000/svg">
<path d="M10.6042 9.89109L2.30684 17.6306C1.77902 18.1231 0.923259 18.1231 0.395701 17.6306C-0.1319 17.1384 -0.1319 16.3402 0.395701 15.8481L7.73762 8.99987L0.395914 2.15186C-0.131687 1.65952 -0.131687 0.861394 0.395914 0.369254C0.923516 -0.123085 1.77923 -0.123085 2.30705 0.369254L10.6044 8.10885C10.8682 8.35504 11 8.67735 11 8.99983C11 9.32247 10.868 9.64502 10.6042 9.89109Z" fill="white"/>
<path d="M10.6042 9.89109L2.30684 17.6306C1.77902 18.1231 0.923259 18.1231 0.395701 17.6306C-0.1319 17.1384 -0.1319 16.3402 0.395701 15.8481L7.73762 8.99987L0.395914 2.15186C-0.131687 1.65952 -0.131687 0.861394 0.395914 0.369254C0.923516 -0.123085 1.77923 -0.123085 2.30705 0.369254L10.6044 8.10885C10.8682 8.35504 11 8.67735 11 8.99983C11 9.32247 10.868 9.64502 10.6042 9.89109Z" fill="white"/>
</svg>
