<svg xmlns="http://www.w3.org/2000/svg" xmlns:xlink="http://www.w3.org/1999/xlink" width="31.921" height="31.921" viewBox="0 0 31.921 31.921">
  <defs>
    <filter id="Ellipse_193" x="0" y="0" width="31.921" height="31.921" filterUnits="userSpaceOnUse">
      <feOffset dy="2" input="SourceAlpha"/>
      <feGaussianBlur stdDeviation="2" result="blur"/>
      <feFlood flood-opacity="0.322"/>
      <feComposite operator="in" in2="blur"/>
      <feComposite in="SourceGraphic"/>
    </filter>
  </defs>
  <g id="Group_1299" data-name="Group 1299" transform="translate(-1054 -200)">
    <g transform="matrix(1, 0, 0, 1, 1054, 200)" filter="url(#Ellipse_193)">
      <circle id="Ellipse_193-2" data-name="Ellipse 193" cx="9.96" cy="9.96" r="9.96" transform="translate(25.92 4) rotate(90)" fill="#01acb4"/>
    </g>
    <g id="Group_1298" data-name="Group 1298" transform="translate(1062.41 206.767)">
      <path id="play-circle" d="M15.467,22.934A7.467,7.467,0,1,0,8,15.467,7.466,7.466,0,0,0,15.467,22.934Zm-6.5-7.467a6.5,6.5,0,1,1,6.5,6.5A6.5,6.5,0,0,1,8.963,15.467Zm9.987-.542-5.3-3.222a.724.724,0,0,0-1.075.632V18.6a.724.724,0,0,0,1.075.632l5.3-3.041A.725.725,0,0,0,18.951,14.925ZM13.54,17.87V13.085a.179.179,0,0,1,.274-.154l4.05,2.46a.181.181,0,0,1,0,.31l-4.05,2.324A.181.181,0,0,1,13.54,17.87Z" transform="translate(-8 -8)" fill="#e6e6e6"/>
    </g>
  </g>
</svg>
