<svg xmlns="http://www.w3.org/2000/svg" width="21" height="21" viewBox="0 0 21 21">
  <path id="play-circle" d="M18.5,29A10.5,10.5,0,1,0,8,18.5,10.5,10.5,0,0,0,18.5,29ZM9.355,18.5A9.145,9.145,0,1,1,18.5,27.645,9.145,9.145,0,0,1,9.355,18.5ZM23.4,17.738l-7.452-4.53a1.018,1.018,0,0,0-1.511.889V22.9a1.019,1.019,0,0,0,1.511.889L23.4,19.516A1.019,1.019,0,0,0,23.4,17.738ZM15.79,21.879V15.151a.252.252,0,0,1,.385-.216l5.695,3.459a.254.254,0,0,1,0,.436L16.171,22.1A.254.254,0,0,1,15.79,21.879Z" transform="translate(-8 -8)" fill="#e6e6e6"/>
</svg>
