<svg xmlns="http://www.w3.org/2000/svg" width="185.416" height="126.248" viewBox="0 0 185.416 126.248">
  <path id="Path_738" data-name="Path 738" d="M-49.88-72.928c-6.02,0-12.556,2.236-18.748,6.364V-98.04c0-5.16,2.236-9.116,8.6-9.116s8.6,3.956,8.6,9.116v5.332c0,4.472,2.58,7.052,7.052,7.052H-34.4c4.472,0,7.052-2.58,7.052-7.052V-98.04c0-18.748-10.492-27.348-32.68-27.348s-32.68,8.6-32.68,27.348v71.552C-92.708-7.74-82.216.86-60.028.86s32.68-8.6,32.68-27.348V-49.88C-27.348-66.048-37.5-72.928-49.88-72.928Zm-18.748,46.44V-45.58c0-5.16,2.236-9.116,8.6-9.116s8.6,3.956,8.6,9.116v19.092c0,5.16-2.236,9.116-8.6,9.116S-68.628-21.328-68.628-26.488ZM54.18-22.7c4.128,0,6.364-2.236,6.88-5.16l9.632-57.1h1.72l-1.72,24.08V-7.052C70.692-2.58,73.272,0,77.744,0h7.912c4.472,0,7.052-2.58,7.052-7.052V-117.476c0-4.644-2.752-7.052-7.052-7.052H66.564c-4.472,0-6.536,2.236-7.224,6.708L52.976-87.2,49.02-57.62H47.3L43.344-87.2,36.98-117.82c-.688-4.472-2.752-6.708-7.224-6.708H10.664c-4.3,0-7.052,2.408-7.052,7.052V-7.052C3.612-2.58,6.192,0,10.664,0h7.912c4.472,0,7.052-2.58,7.052-7.052V-60.888l-1.72-24.08h1.72l9.632,57.1c.516,2.924,2.752,5.16,6.88,5.16Z" transform="translate(92.708 125.388)" fill="#01acb4" opacity="0.771"/>
</svg>
