<svg xmlns="http://www.w3.org/2000/svg" width="290.68" height="126.248" viewBox="0 0 290.68 126.248">
  <path id="Path_739" data-name="Path 739" d="M-104.06-87.892a19.285,19.285,0,0,1-3.784,12.384l-35.432,52.46a9.167,9.167,0,0,0-2.064,6.708v9.288c0,4.472,2.58,7.052,7.052,7.052h51.256c4.472,0,7.052-2.58,7.052-7.052V-14.62c0-4.472-2.58-7.052-7.052-7.052h-30.96l31.132-44.2C-80.84-74.3-79.98-81.7-79.98-90.3v-7.74c0-18.748-10.492-27.348-32.68-27.348s-32.68,8.6-32.68,27.348v13.932c0,4.472,2.58,7.052,7.052,7.052h9.976c4.472,0,7.052-2.58,7.052-7.052V-98.04c0-5.16,2.236-9.116,8.6-9.116s8.6,3.956,8.6,9.116ZM-66.22-13.76C-66.22-5.16-60.2.86-51.6.86c8.944,0,14.964-6.02,14.964-14.62,0-8.944-6.02-14.964-14.964-14.964C-60.2-28.724-66.22-22.7-66.22-13.76Zm43.344-43c0,4.472,2.58,7.052,7.052,7.052h9.976c4.472,0,6.364-2.752,7.052-5.676l.172-.688C2.58-60.716,5.332-63.3,9.8-63.3c6.364,0,8.6,3.956,8.6,9.116v27.692c0,5.16-2.236,9.116-8.6,9.116s-8.6-3.956-8.6-9.116V-31.82c0-4.472-2.58-7.052-7.052-7.052h-9.976c-4.472,0-7.052,2.58-7.052,7.052v5.332C-22.876-7.74-12.384.86,9.8.86s32.68-8.6,32.68-27.348V-58.48c0-16.168-10.148-23.048-22.532-23.048-6.536,0-13.244,2.408-20.468,7.568v-28.9H33.712c4.472,0,7.052-2.58,7.052-7.052v-7.568c0-4.472-2.58-7.052-7.052-7.052H-15.824c-4.472,0-7.052,2.58-7.052,7.052ZM106.812-22.7c4.128,0,6.364-2.236,6.88-5.16l9.632-57.1h1.72l-1.72,24.08V-7.052C123.324-2.58,125.9,0,130.376,0h7.912c4.472,0,7.052-2.58,7.052-7.052V-117.476c0-4.644-2.752-7.052-7.052-7.052H119.2c-4.472,0-6.536,2.236-7.224,6.708L105.608-87.2,101.652-57.62h-1.72L95.976-87.2,89.612-117.82c-.688-4.472-2.752-6.708-7.224-6.708H63.3c-4.3,0-7.052,2.408-7.052,7.052V-7.052C56.244-2.58,58.824,0,63.3,0h7.912C75.68,0,78.26-2.58,78.26-7.052V-60.888l-1.72-24.08h1.72l9.632,57.1c.516,2.924,2.752,5.16,6.88,5.16Z" transform="translate(145.34 125.388)" fill="#0a9198" opacity="0.995"/>
</svg>
