<svg id="Group_716" data-name="Group 716" xmlns="http://www.w3.org/2000/svg" width="61.373" height="61.371" viewBox="0 0 61.373 61.371">
  <path id="flag-usa" d="M33.888,0a3.728,3.728,0,0,0-1.52.33A20.7,20.7,0,0,1,23.826,2.5C19.085,2.5,16.331.029,10.859.029A25.3,25.3,0,0,0,3.364,1.32,1.7,1.7,0,0,0,1.721,0,1.717,1.717,0,0,0,0,1.721V35.86a.863.863,0,0,0,.861.861H2.582a.863.863,0,0,0,.861-.861V28.552a23.266,23.266,0,0,1,7.065-1.183c5.824,0,9.883,2.467,15.714,2.467a24.537,24.537,0,0,0,8.872-1.793,2.448,2.448,0,0,0,1.635-2.238V2.4A2.6,2.6,0,0,0,33.888,0ZM12.623,2.869a1.148,1.148,0,1,1-1.148,1.148A1.151,1.151,0,0,1,12.623,2.869Zm0,4.016a1.148,1.148,0,1,1-1.148,1.148A1.151,1.151,0,0,1,12.623,6.885ZM7.459,2.869A1.148,1.148,0,1,1,6.311,4.016,1.151,1.151,0,0,1,7.459,2.869Zm0,4.016A1.148,1.148,0,1,1,6.311,8.033,1.151,1.151,0,0,1,7.459,6.885Zm25.82,18.153c-5.666,2.037-9.022,1.485-14.086.222-5.236-1.305-9.482-2.066-15.75-.316V20.978c6.641-2.331,10.471-1.391,14.5-.373,3.887.983,8.147,2.159,15.334-.093Zm0-8.147c-6.634,2.324-10.471,1.391-14.495.373-4.124-1.04-8.42-2.08-15.341.093V12.938c6.641-2.331,10.471-1.391,14.5-.373,3.887.99,8.147,2.166,15.334-.086Zm0-8.033c-6.921,2.424-10.823,1.3-14.918.265V5.092a19.2,19.2,0,0,0,5.465.853,23.5,23.5,0,0,0,9.453-2.259Z" transform="translate(12.18 12.181)" fill="#01acb4"/>
  <g id="Group_715" data-name="Group 715" transform="translate(0 0)">
    <g id="Group_198" data-name="Group 198" transform="translate(0 0)">
      <path id="Path_75" data-name="Path 75" d="M30.686,61.371A30.686,30.686,0,1,1,61.373,30.686,30.722,30.722,0,0,1,30.686,61.371Zm0-59.729A29.044,29.044,0,1,0,59.731,30.686,29.086,29.086,0,0,0,30.686,1.642Z" transform="translate(0)" fill="#01acb4"/>
    </g>
  </g>
</svg>
