<svg width="11" height="16" viewBox="0 0 11 16" fill="none" xmlns="http://www.w3.org/2000/svg">
<path fill-rule="evenodd" clip-rule="evenodd" d="M9.82743 6.52305V4.84024H8.59475V3.93265H7.72378V4.84024H6.49107V6.52305H5.83549V3.3168H4.77817V1.65742H3.36525V0.701172H2.49429V1.65742H1.0814V3.3168H0.0240479V15.1012H10.776V6.52305H9.82743ZM2.53784 13.5637H1.66687V12.7105H2.53784V13.5637ZM1.66687 11.9887H2.53784V11.1355H1.66687V11.9887ZM2.53784 10.4137H1.66687V9.56055H2.53784V10.4137ZM1.66687 8.83866H2.53784V7.98555H1.66687V8.83866ZM2.53784 7.26366H1.66687V6.41055H2.53784V7.26366ZM1.66687 5.68866H2.53784V4.83555H1.66687V5.68866ZM4.19267 13.5637H3.32171V12.7105H4.19267V13.5637ZM3.32171 11.9887H4.19267V11.1355H3.32171V11.9887ZM4.19267 10.4137H3.32171V9.56055H4.19267V10.4137ZM3.32171 8.83866H4.19267V7.98555H3.32171V8.83866ZM4.19267 7.26366H3.32171V6.41055H4.19267V7.26366ZM3.32171 5.68866H4.19267V4.83555H3.32171V5.68866ZM7.69121 13.5637H6.82024V12.7105H7.69121V13.5637ZM6.82024 11.9887H7.69121V11.1355H6.82024V11.9887ZM7.69121 10.4137H6.82024V9.56055H7.69121V10.4137ZM6.82024 8.83866H7.69121V7.98555H6.82024V8.83866ZM9.34604 13.5637H8.47508V12.7105H9.34604V13.5637ZM8.47508 11.9887H9.34604V11.1355H8.47508V11.9887ZM9.34604 10.4137H8.47508V9.56055H9.34604V10.4137ZM8.47508 8.83866H9.34604V7.98555H8.47508V8.83866Z" fill="white"/>
</svg>
