<svg width="15" height="16" viewBox="0 0 15 16" fill="none" xmlns="http://www.w3.org/2000/svg">
<path fill-rule="evenodd" clip-rule="evenodd" d="M0.299988 7.88667C0.299988 3.91932 3.51814 0.701172 7.48549 0.701172C11.4528 0.701172 14.671 3.91932 14.671 7.88667C14.671 11.854 11.4528 15.0722 7.48549 15.0722C3.51814 15.0722 0.299988 11.854 0.299988 7.88667ZM7.24711 8.8402H10.1417C10.4142 8.8402 10.6526 8.61884 10.6526 8.32938C10.6526 8.03992 10.4312 7.81856 10.1417 7.81856H7.5536L5.83384 4.73663C5.69763 4.48122 5.39114 4.39609 5.13573 4.5323C4.88032 4.66852 4.79518 4.99204 4.9314 5.23042L6.8044 8.58479C6.90656 8.73803 7.05981 8.8402 7.24711 8.8402Z" fill="white"/>
</svg>
