<svg width="11" height="16" viewBox="0 0 11 16" fill="none" xmlns="http://www.w3.org/2000/svg">
<path fill-rule="evenodd" clip-rule="evenodd" d="M0.0339455 5.88352C0.291484 3.03598 2.52071 0.805163 5.2041 0.704835C8.26687 0.589753 10.7841 3.20123 10.7841 6.44123C10.7841 6.81303 10.7509 7.17598 10.6872 7.53008C10.6872 7.53008 10.6761 7.595 10.6512 7.71008C10.5681 8.10844 10.4463 8.4891 10.2884 8.8491C9.74564 10.2183 8.49671 12.4993 5.69425 14.9779C5.51979 15.1314 5.26779 15.1314 5.0961 14.9779C2.29364 12.4963 1.04471 10.2153 0.504715 8.85205C0.349638 8.49205 0.225022 8.10844 0.141946 7.71303C0.114253 7.595 0.105946 7.53303 0.105946 7.53303C0.0117917 7.00483 -0.0186699 6.45303 0.0339455 5.88352ZM2.77825 6.5091C2.77825 8.04943 3.94964 9.29762 5.39518 9.29762C6.84071 9.29762 8.0121 8.04943 8.0121 6.5091C8.0121 4.96877 6.84071 3.72057 5.39518 3.72057C3.94964 3.72057 2.77825 4.96877 2.77825 6.5091Z" fill="white"/>
</svg>
