<svg width="26" height="27" viewBox="0 0 26 27" fill="none" xmlns="http://www.w3.org/2000/svg">
<path fill-rule="evenodd" clip-rule="evenodd" d="M0 13.998C0 21.178 5.82008 26.998 13 26.998C20.1799 26.998 26 21.178 26 13.998C26 6.81813 20.1799 0.998047 13 0.998047C5.82008 0.998047 0 6.81813 0 13.998ZM1.41423 13.998C1.41423 7.63403 6.63598 2.41227 13 2.41227C19.364 2.41227 24.5858 7.63403 24.5858 13.998C24.5858 20.3621 19.364 25.5838 13 25.5838C6.63598 25.5838 1.41423 20.3621 1.41423 13.998Z" fill="#BCBCBC"/>
<path d="M6 12.998H19.4815V14.924H6V12.998Z" fill="#BCBCBC"/>
<path d="M12 6.99805H13.9259V20.4795H12V6.99805Z" fill="#BCBCBC"/>
</svg>
