<?xml version="1.0" encoding="UTF-8"?>
<svg width="28.749mm" height="34.587mm" version="1.1" viewBox="0 0 28.749 34.587" xmlns="http://www.w3.org/2000/svg" xmlns:cc="http://creativecommons.org/ns#" xmlns:dc="http://purl.org/dc/elements/1.1/" xmlns:rdf="http://www.w3.org/1999/02/22-rdf-syntax-ns#">
 <metadata>
  <rdf:RDF>
   <cc:Work rdf:about="">
    <dc:format>image/svg+xml</dc:format>
    <dc:type rdf:resource="http://purl.org/dc/dcmitype/StillImage"/>
    <dc:title/>
   </cc:Work>
  </rdf:RDF>
 </metadata>
 <g transform="translate(97.541 -129.93)">
  <g fill="#59a745" stroke-width=".26458" aria-label="CSV">
   <path d="m-90.052 155.03q-0.36518 0.18948-0.76137 0.28594-0.39619 0.0965-0.82682 0.0965-1.285 0-2.0361-0.71658-0.75103-0.72002-0.75103-1.9499 0-1.2333 0.75103-1.9499 0.75103-0.72003 2.0361-0.72003 0.43064 0 0.82682 0.0965t0.76137 0.28595v1.0645q-0.36862-0.25149-0.72692-0.36862-0.35829-0.11714-0.75448-0.11714-0.70969 0-1.1162 0.45476-0.40652 0.45475-0.40652 1.254 0 0.79582 0.40652 1.2506t1.1162 0.45475q0.39619 0 0.75448-0.11713t0.72692-0.36863z"/>
   <path d="m-85.232 150.33v1.0886q-0.42375-0.18948-0.82682-0.28594-0.40308-0.0965-0.76137-0.0965-0.47542 0-0.7028 0.13092-0.22738 0.13091-0.22738 0.40652 0 0.2067 0.15158 0.32384 0.15503 0.11369 0.5581 0.19637l0.565 0.11369q0.85783 0.17225 1.2196 0.52365t0.36174 0.99908q0 0.85094-0.50643 1.2678-0.50298 0.41341-1.54 0.41341-0.4892 0-0.98185-0.093-0.49265-0.093-0.9853-0.27561v-1.1197q0.49265 0.26183 0.95085 0.39619 0.46164 0.13091 0.88883 0.13091 0.43408 0 0.6649-0.14469 0.23082-0.14469 0.23082-0.41341 0-0.24116-0.15847-0.37207-0.15503-0.13092-0.62356-0.23427l-0.51332-0.11369q-0.7717-0.16536-1.13-0.5271-0.35484-0.36173-0.35484-0.97496 0-0.76826 0.49609-1.1817t1.4263-0.41341q0.42375 0 0.87161 0.0655 0.44786 0.062 0.92673 0.18948z"/>
   <path d="m-84.34 150.17h1.3333l1.3643 3.7965 1.3608-3.7965h1.3333l-1.9051 5.1435h-1.5813z"/>
  </g>
  <g fill="none" stroke="#59a745">
   <path d="m-93.378 146.21v-13.495c0-1.1726 0.94403-2.1167 2.1167-2.1167h13.605v7.0398c0 0.97837 0.80557 1.463 1.7713 1.463h6.4256v22.638c0 1.1726-0.94403 2.1167-2.1167 2.1167h-19.685c-1.1726 0-2.1167-0.94403-2.1167-2.1167v-2.9849m15.721-28.156 8.1969 8.5028" stroke-linecap="round" stroke-linejoin="bevel" stroke-width="1.3229" style="paint-order:normal"/>
   <g>
    <path d="m-94.763 146.21 16.15-3.2e-4c1.1726-2e-5 2.1167 0.94403 2.1167 2.1167v8.3113c0 1.1726-0.94404 2.1164-2.1167 2.1164l-16.15 2.7e-4c-1.1726 3e-5 -2.1167-0.94402-2.1167-2.1166v-8.3113c0-1.1726 0.94404-2.1163 2.1167-2.1163z" stroke-width="1.3229"/>
    <g stroke-width="2.1167">
     <path d="m-91.124 135.21h9.3544"/>
     <path d="m-91.124 138.92h9.3544"/>
     <path d="m-91.124 142.62h16.234"/>
    </g>
   </g>
  </g>
 </g>
</svg>
