<?xml version="1.0" encoding="UTF-8"?>
<!-- Created with Inkscape (http://www.inkscape.org/) -->
<svg width="25.248mm" height="34.587mm" version="1.1" viewBox="0 0 25.248 34.587" xmlns="http://www.w3.org/2000/svg" xmlns:cc="http://creativecommons.org/ns#" xmlns:dc="http://purl.org/dc/elements/1.1/" xmlns:rdf="http://www.w3.org/1999/02/22-rdf-syntax-ns#">
 <metadata>
  <rdf:RDF>
   <cc:Work rdf:about="">
    <dc:format>image/svg+xml</dc:format>
    <dc:type rdf:resource="http://purl.org/dc/dcmitype/StillImage"/>
    <dc:title/>
   </cc:Work>
  </rdf:RDF>
 </metadata>
 <g transform="translate(252.08 -170.38)" fill="none" stroke="#59a745">
  <path d="m-251.42 173.17c0-1.1726 0.94403-2.1167 2.1167-2.1167h13.605v7.0398c0 0.97837 0.80557 1.463 1.7713 1.463h6.4256v22.638c0 1.1726-0.94404 2.1167-2.1167 2.1167h-19.685c-1.1726 0-2.1167-0.94403-2.1167-2.1167v-9.2569zm15.721-2.1167 8.1969 8.5028" stroke-linecap="round" stroke-linejoin="bevel" stroke-width="1.323" style="paint-order:normal"/>
  <path d="m-248.09 198.03c-0.27221-0.48243 0.14532-1.011 0.42798-1.3903 1.2574-1.4652 3.0449-2.3519 4.8283-3.0094 2.9663-1.0211 6.2283-1.3555 9.3018-0.63688 1.0098 0.27649 2.1088 0.6089 2.8034 1.441 0.25394 0.27432 0.13785 0.74667-0.24965 0.81411-0.98728 0.2229-1.985-0.18559-2.8816-0.56578-2.7725-1.3205-5.0332-3.5659-6.6834-6.1297-1.0645-1.7304-1.9606-3.6637-2.043-5.7242 0.0192-0.50767 7e-3 -1.2101 0.53117-1.4706 0.52236-0.0551 0.79043 0.53392 0.97555 0.93111 0.65338 1.7024 0.57666 3.5874 0.31745 5.3627-0.52104 3.1692-1.8553 6.2496-4.01 8.6516-0.7723 0.79408-1.6376 1.6357-2.7571 1.8736-0.34907 0.0955-0.75929-0.1764-0.64662-0.56582 0.24388-0.92582 1.0438-1.5672 1.7648-2.1358 2.3576-1.6994 5.2429-2.5556 8.1157-2.8067 2.1811-0.15703 4.4634-0.0105 6.4691 0.92987 0.49331 0.27818 1.1214 0.59291 1.2392 1.2008-0.0402 0.51262-0.69694 0.53486-1.0904 0.5135-1.7108-0.18182-3.2388-1.1028-4.6007-2.0996-2.6233-2.0165-4.7364-4.7589-5.8294-7.8955-0.34604-1.1174-0.67219-2.3414-0.34159-3.5002 0.0781-0.34179 0.48367-0.63882 0.79517-0.36315 0.6707 0.60106 0.83055 1.5578 0.98024 2.4039 0.35161 2.8686-0.31384 5.7874-1.4827 8.403-0.9487 2.0344-2.2273 4.0008-4.0704 5.3305-0.50204 0.31046-1.0938 0.71297-1.7104 0.54823-0.0577-0.0263-0.11162-0.0618-0.15298-0.11033" stroke-linecap="square" stroke-linejoin="round" stroke-miterlimit="10" stroke-width="1.1221"/>
 </g>
</svg>
