<?xml version="1.0" encoding="UTF-8" standalone="no"?>
<!-- Created with Inkscape (http://www.inkscape.org/) -->

<svg
   xmlns:dc="http://purl.org/dc/elements/1.1/"
   xmlns:cc="http://creativecommons.org/ns#"
   xmlns:rdf="http://www.w3.org/1999/02/22-rdf-syntax-ns#"
   xmlns:svg="http://www.w3.org/2000/svg"
   xmlns="http://www.w3.org/2000/svg"
   xmlns:sodipodi="http://sodipodi.sourceforge.net/DTD/sodipodi-0.dtd"
   xmlns:inkscape="http://www.inkscape.org/namespaces/inkscape"
   width="28.749mm"
   height="34.587mm"
   version="1.1"
   viewBox="0 0 28.749 34.587"
   id="svg16"
   sodipodi:docname="filetype-tar-black.svg"
   inkscape:version="0.92.3 (2405546, 2018-03-11)">
  <defs
     id="defs20" />
  <sodipodi:namedview
     pagecolor="#ffffff"
     bordercolor="#666666"
     borderopacity="1"
     objecttolerance="10"
     gridtolerance="10"
     guidetolerance="10"
     inkscape:pageopacity="0"
     inkscape:pageshadow="2"
     inkscape:window-width="1849"
     inkscape:window-height="1015"
     id="namedview18"
     showgrid="false"
     inkscape:zoom="1.8053507"
     inkscape:cx="54.32882"
     inkscape:cy="65.361263"
     inkscape:window-x="1991"
     inkscape:window-y="31"
     inkscape:window-maximized="1"
     inkscape:current-layer="text1401" />
  <metadata
     id="metadata2">
    <rdf:RDF>
      <cc:Work
         rdf:about="">
        <dc:format>image/svg+xml</dc:format>
        <dc:type
           rdf:resource="http://purl.org/dc/dcmitype/StillImage" />
        <dc:title></dc:title>
      </cc:Work>
    </rdf:RDF>
  </metadata>
  <path
     d="m4.16 16.281v-13.495c0-1.1726 0.94403-2.1167 2.1167-2.1167h13.605v7.0398c0 0.97837 0.80557 1.463 1.7713 1.463h6.4256v22.638c0 1.1726-0.94404 2.1167-2.1167 2.1167h-19.685c-1.1726 0-2.1167-0.94403-2.1167-2.1167v-2.9849m15.721-28.156 8.1969 8.5028"
     fill="none"
     stroke="#000"
     stroke-linecap="round"
     stroke-linejoin="bevel"
     stroke-width="1.3229"
     style="paint-order:normal"
     id="path12" />
  <path
     d="m2.78 16.281 16.15-3.3e-4c1.1726-2e-5 2.1167 0.94403 2.1167 2.1167v8.3113c0 1.1726-0.94404 2.1164-2.1167 2.1164l-16.15 2.9e-4c-1.1726 2e-5 -2.1167-0.94403-2.1167-2.1167v-8.3113c0-1.1726 0.94404-2.1163 2.1167-2.1163z"
     fill="none"
     stroke="#000"
     stroke-width="1.3229"
     id="path14" />
  <g
     transform="translate(0.8221455,-0.12708943)"
     style="fill:#59a745;stroke-width:0.26458001"
     aria-label="ZIP"
     id="g30">
    <g
       aria-label="TAR"
       style="font-style:normal;font-weight:normal;font-size:10.58333302px;line-height:1.25;font-family:sans-serif;letter-spacing:0px;word-spacing:0px;fill:#000000;fill-opacity:1;stroke:none;stroke-width:0.26458332"
       id="text1401">
      <path
         d="m 1.7980425,19.851164 h 5.2144967 v 1.102775 H 5.1366846 v 4.555106 H 3.6776867 V 20.953939 H 1.7980425 Z"
         style="font-style:normal;font-variant:normal;font-weight:bold;font-stretch:normal;font-size:7.76111126px;font-family:OpenSymbol;-inkscape-font-specification:'OpenSymbol Bold';stroke-width:0.26458332"
         id="path1457" />
      <path
         d="M 10.589926,24.478272 H 8.3085841 L 7.9485716,25.509045 H 6.4819944 L 8.577646,19.851164 h 1.739429 l 2.095651,5.657881 H 10.946149 Z M 8.6723862,23.428551 H 10.222335 L 9.4492552,21.177526 Z"
         style="font-style:normal;font-variant:normal;font-weight:bold;font-stretch:normal;font-size:7.76111126px;font-family:OpenSymbol;-inkscape-font-specification:'OpenSymbol Bold';stroke-width:0.26458332"
         id="path1459" />
      <path
         d="m 15.232193,22.359883 q 0.458542,0 0.655601,-0.170532 0.20085,-0.170533 0.20085,-0.560862 0,-0.38654 -0.20085,-0.553282 -0.197059,-0.166743 -0.655601,-0.166743 h -0.613916 v 1.451419 z m -0.613916,1.008035 v 2.141127 h -1.458998 v -5.657881 h 2.228288 q 1.117933,0 1.637109,0.375171 0.522965,0.375171 0.522965,1.186147 0,0.560861 -0.272851,0.920874 -0.269062,0.360012 -0.814765,0.530544 0.299379,0.06821 0.534334,0.310748 0.238745,0.238745 0.48128,0.727604 l 0.792027,1.606793 H 16.713928 L 16.02422,24.103101 q -0.208428,-0.424436 -0.424436,-0.579809 -0.212217,-0.155374 -0.56844,-0.155374 z"
         style="font-style:normal;font-variant:normal;font-weight:bold;font-stretch:normal;font-size:7.76111126px;font-family:OpenSymbol;-inkscape-font-specification:'OpenSymbol Bold';stroke-width:0.26458332"
         id="path1461" />
    </g>
  </g>
</svg>
