<?xml version="1.0" encoding="UTF-8"?>
<!-- Created with Inkscape (http://www.inkscape.org/) -->
<svg width="28.749mm" height="34.587mm" version="1.1" viewBox="0 0 28.749 34.587" xmlns="http://www.w3.org/2000/svg" xmlns:cc="http://creativecommons.org/ns#" xmlns:dc="http://purl.org/dc/elements/1.1/" xmlns:rdf="http://www.w3.org/1999/02/22-rdf-syntax-ns#">
 <metadata>
  <rdf:RDF>
   <cc:Work rdf:about="">
    <dc:format>image/svg+xml</dc:format>
    <dc:type rdf:resource="http://purl.org/dc/dcmitype/StillImage"/>
    <dc:title/>
   </cc:Work>
  </rdf:RDF>
 </metadata>
 <g stroke-width=".26458" aria-label="ZIP">
  <path d="m3.4982 19.539h5.1883v0.96325l-3.3114 4.006h3.4065v1.203h-5.3785v-0.96325l3.3114-4.006h-3.2164z"/>
  <path d="m9.935 19.539h1.5916v6.1723h-1.5916z"/>
  <path d="m13.093 19.539h2.6417q1.1782 0 1.8066 0.52504 0.63252 0.5209 0.63252 1.4883 0 0.97152-0.63252 1.4966-0.62839 0.5209-1.8066 0.5209h-1.0501v2.1415h-1.5916zm1.5916 1.1534v1.7239h0.88057q0.46302 0 0.7152-0.22324 0.25218-0.22738 0.25218-0.64079t-0.25218-0.63666-0.7152-0.22324z"/>
 </g>
 <path d="m4.16 16.281v-13.495c0-1.1726 0.94403-2.1167 2.1167-2.1167h13.605v7.0398c0 0.97837 0.80557 1.463 1.7713 1.463h6.4256v22.638c0 1.1726-0.94404 2.1167-2.1167 2.1167h-19.685c-1.1726 0-2.1167-0.94403-2.1167-2.1167v-2.9849m15.721-28.156 8.1969 8.5028" fill="none" stroke="#000" stroke-linecap="round" stroke-linejoin="bevel" stroke-width="1.3229" style="paint-order:normal"/>
 <path d="m2.78 16.281 16.15-3.3e-4c1.1726-2e-5 2.1167 0.94403 2.1167 2.1167v8.3113c0 1.1726-0.94404 2.1164-2.1167 2.1164l-16.15 2.9e-4c-1.1726 2e-5 -2.1167-0.94403-2.1167-2.1167v-8.3113c0-1.1726 0.94404-2.1163 2.1167-2.1163z" fill="none" stroke="#000" stroke-width="1.3229"/>
</svg>
