<?xml version="1.0" encoding="utf-8"?>
<!-- Generator: Adobe Illustrator 16.0.0, SVG Export Plug-In . SVG Version: 6.00 Build 0)  -->
<!DOCTYPE svg PUBLIC "-//W3C//DTD SVG 1.1//EN" "http://www.w3.org/Graphics/SVG/1.1/DTD/svg11.dtd">
<svg version="1.1" id="Layer_1" xmlns="http://www.w3.org/2000/svg" xmlns:xlink="http://www.w3.org/1999/xlink" x="0px" y="0px"
	 width="24px" height="24px" viewBox="0 0 24 24" enable-background="new 0 0 24 24" xml:space="preserve">
<path fill="#0a5bf8" d="M19,0H5C2.239,0,0,2.239,0,5v14c0,2.761,2.239,5,5,5h14c2.762,0,5-2.239,5-5V5C24,2.239,21.762,0,19,0z M8,19H5V8h3V19z
	 M6.5,6.732c-0.966,0-1.75-0.79-1.75-1.764c0-0.974,0.784-1.764,1.75-1.764s1.75,0.79,1.75,1.764C8.25,5.942,7.467,6.732,6.5,6.732z
	 M20,19h-3v-5.604c0-3.369-4-3.113-4,0V19h-3V8h3v1.765c1.396-2.586,7-2.777,7,2.476V19z"/>
</svg>
