<?xml version="1.0" encoding="utf-8"?>
<!-- Generator: Adobe Illustrator 16.0.0, SVG Export Plug-In . SVG Version: 6.00 Build 0)  -->
<!DOCTYPE svg PUBLIC "-//W3C//DTD SVG 1.1//EN" "http://www.w3.org/Graphics/SVG/1.1/DTD/svg11.dtd">
<svg version="1.1" id="Layer_1" xmlns="http://www.w3.org/2000/svg" xmlns:xlink="http://www.w3.org/1999/xlink" x="0px" y="0px"
	 width="24px" height="24px" viewBox="0 0 24 24" enable-background="new 0 0 24 24" xml:space="preserve">
<path d="M19,0H5C2.239,0,0,2.239,0,5v14c0,2.761,2.239,5,5,5h14c2.762,0,5-2.239,5-5V5C24,2.239,21.762,0,19,0z M16,7h-1.924
	C13.461,7,13,7.252,13,7.889V9h3l-0.238,3H13v8h-3v-8H8V9h2V7.077C10,5.055,11.064,4,13.461,4H16V7z"/>
</svg>
