<?xml version="1.0" encoding="iso-8859-1"?>
<!-- Generator: Adobe Illustrator 19.0.0, SVG Export Plug-In . SVG Version: 6.00 Build 0)  -->
<svg version="1.1" id="Capa_1" xmlns="http://www.w3.org/2000/svg" xmlns:xlink="http://www.w3.org/1999/xlink" x="0px" y="0px"
	 viewBox="0 0 512 512" style="enable-background:new 0 0 512 512;" xml:space="preserve">
<g>
	<g>
		<path d="M325.12,252.778C364.546,229.005,391,185.559,391,136C391,61.009,330.439,0,256,0S121,61.009,121,136
			c0,49.559,26.454,93.005,65.88,116.777C98.31,281.249,31,364.896,31,467c0,24.813,20.187,45,45,45c4.216,0,349.128,0,360,0
			c24.813,0,45-20.187,45-45C481,364.91,413.705,281.254,325.12,252.778z M151,136c0-58.449,47.103-106,105-106
			c57.897,0,105,47.551,105,106c0,58.448-47.103,106-105,106C198.103,242,151,194.448,151,136z M284.049,274.025L256,297.455
			l-28.049-23.43C237.113,272.7,246.476,272,256,272S274.887,272.7,284.049,274.025z M213.293,482H76c-8.271,0-15-6.729-15-15
			c0-62.178,29.252-117.651,74.717-153.383l47.802,71.703c5.243,7.863,16.386,8.987,23.087,2.286l5.285-5.285l13.511,27.023
			L213.293,482z M205.618,346.169c-0.014,0.013-0.027,0.027-0.041,0.041l-7.245,7.245l-37.67-56.505
			c9.99-5.623,20.522-10.392,31.498-14.206c1.448,1.877-1.242-0.564,41.633,35.25L205.618,346.169z M243.707,482l12.089-72.534
			c0.136-0.816,0.204-1.639,0.204-2.458c0,0.82,0.068,1.642,0.204,2.458L268.293,482H243.707z M257.583,400.292
			c-1.045,2.091-1.583,4.386-1.583,6.701c-0.001-2.315-0.538-4.61-1.583-6.701l-20.165-40.331L256,338.213l21.748,21.748
			L257.583,400.292z M319.84,282.744c12.507,4.346,24.437,9.931,35.646,16.608l-41.109,54.812l-7.957-7.957
			c-0.012-0.012-0.023-0.024-0.036-0.036l-28.177-28.177C321.15,282.123,318.41,284.597,319.84,282.744z M436,482H298.707
			l-12.109-72.655l13.511-27.023l5.285,5.285c6.443,6.443,17.127,5.699,22.606-1.607l52.025-69.367
			C423.346,352.429,451,406.545,451,467C451,475.271,444.271,482,436,482z"/>
	</g>
</g>
<g>
</g>
<g>
</g>
<g>
</g>
<g>
</g>
<g>
</g>
<g>
</g>
<g>
</g>
<g>
</g>
<g>
</g>
<g>
</g>
<g>
</g>
<g>
</g>
<g>
</g>
<g>
</g>
<g>
</g>
</svg>
