<svg height="384pt" viewBox="0 0 384 384" width="384pt" xmlns="http://www.w3.org/2000/svg"><path d="m328 49.128906v-1.128906c0-26.472656-21.527344-48-48-48h-232c-26.472656 0-48 21.527344-48 48v32c0 26.472656 21.527344 48 48 48h232c25.734375 0 46.734375-20.367188 47.886719-45.824219 13.992187 4.9375 24.113281 18.160157 24.113281 33.824219 0 19.847656-16.152344 36-36 36h-124c-26.472656 0-48 21.527344-48 48v8h-16c-8.832031 0-16 7.167969-16 16v128c0 17.648438 14.351562 32 32 32h32c17.648438 0 32-14.351562 32-32v-128c0-8.832031-7.167969-16-16-16h-16v-8c0-8.824219 7.175781-16 16-16h124c37.496094 0 68-30.503906 68-68 0-33.390625-24.214844-61.183594-56-66.871094zm-32 30.871094c0 8.824219-7.175781 16-16 16h-232c-8.824219 0-16-7.175781-16-16v-32c0-8.824219 7.175781-16 16-16h232c8.824219 0 16 7.175781 16 16zm-120 272h-32v-112h32zm0 0"/></svg>