<svg height="512pt" viewBox="-55 0 511 512" width="512pt" xmlns="http://www.w3.org/2000/svg"><path d="m312.402344 273.246094c15.460937-22.015625 24.554687-48.8125 24.554687-77.699219v-60.046875c0-74.714844-60.785156-135.5-135.5-135.5-74.714843 0-135.5 60.785156-135.5 135.5v60.046875c0 28.886719 9.089844 55.683594 24.554688 77.699219-51.28125 10.359375-90.011719 55.769531-90.011719 110.054687v128.699219h401.910156v-128.699219c0-54.289062-38.726562-99.695312-90.007812-110.054687zm-216.445313-127.847656c18.957031 9.9375 40.203125 15.25 61.851563 15.25 33.265625 0 65.070312-12.414063 89.4375-34.507813 16.925781 15.367187 37.460937 26.070313 59.710937 31.144531v38.261719c0 58.175781-47.328125 105.5-105.5 105.5-58.175781 0-105.5-47.324219-105.5-105.5zm25.675781 159.570312c12.53125 9.164062 26.683594 16.234375 41.949219 20.683594l-41.949219 31.390625zm62.054688 108.59375h35.535156l13.917969 68.4375h-63.367187zm36.980469-30h-38.425781l-9.175782-27.539062 28.386719-21.242188 28.394531 21.246094zm18.660156-57.910156c15.265625-4.449219 29.417969-11.515625 41.949219-20.683594v52.074219zm-37.871094-295.652344c55.019531 0 100.332031 42.339844 105.078125 96.152344-18.457031-5.632813-35.082031-16.378906-47.9375-31.253906l-11.347656-13.132813-11.351562 13.132813c-19.632813 22.71875-48.097657 35.75-78.089844 35.75-21.226563 0-41.941406-6.589844-59.203125-18.683594 10.722656-46.882813 52.765625-81.964844 102.851562-81.964844zm-170.957031 353.300781c0-38.058593 25.980469-70.152343 61.132812-79.507812v113.164062l56.121094-41.992187 8.179688 24.535156-16.773438 82.5h-108.660156zm341.910156 98.699219h-108.65625l-16.777344-82.5 8.179688-24.535156 56.121094 41.992187v-113.164062c35.15625 9.355469 61.132812 41.449219 61.132812 79.507812zm0 0"/></svg>