<svg height="384pt" viewBox="0 0 384 384.13017" width="384pt" xmlns="http://www.w3.org/2000/svg"><path d="m82 14.1875c-13.984375-13.992188-34.023438-17.984375-52.304688-10.410156-18.277343 7.578125-29.6289058 24.570312-29.6289058 44.351562v288c0 26.472656 21.5273438 48 47.9999998 48h288c19.789063 0 36.78125-11.359375 44.351563-29.628906 7.558593-18.28125 3.574219-38.320312-10.417969-52.304688zm268.847656 328.0625c-.957031 2.320312-4.863281 9.878906-14.78125 9.878906h-288c-8.824218 0-16-7.175781-16-16v-288c0-9.917968 7.558594-13.824218 9.871094-14.78125 1.09375-.457031 3.472656-1.265625 6.414062-1.265625 3.304688 0 7.3125 1.023438 11.027344 4.726563l288 288c7.015625 7.027344 4.429688 15.128906 3.46875 17.441406zm0 0"/><path d="m126.6875 153.507812c-9.167969-9.175781-22.863281-11.90625-34.863281-6.945312-12 4.976562-19.757813 16.574219-19.757813 29.566406v104c0 17.648438 14.351563 32 32 32h104c12.992188 0 24.589844-7.75 29.558594-19.75s2.25-25.6875-6.9375-34.871094zm-22.621094 126.621094v-104l104 104zm0 0"/></svg>