<svg width="52" height="21" viewBox="0 0 52 21" fill="none" xmlns="http://www.w3.org/2000/svg">
<path fill-rule="evenodd" clip-rule="evenodd" d="M18.4636 4.16781C18.4636 4.77738 18.2131 5.4913 17.7122 6.30959C17.6871 6.35145 17.6349 6.43702 17.5557 6.56636C17.4761 6.69585 17.4219 6.78362 17.3929 6.82932C17.3634 6.87538 17.328 6.94835 17.2864 7.04851C17.2445 7.14874 17.2153 7.23857 17.1987 7.31773C17.1818 7.39718 17.1736 7.48687 17.1736 7.5871C17.1736 7.82088 17.2592 8.01913 17.4304 8.18201C17.6014 8.34481 17.783 8.42625 17.9752 8.42625C18.1506 8.42625 18.3196 8.36788 18.4824 8.25085C18.6452 8.13403 18.7643 8.00468 18.8394 7.86267C19.0981 7.40359 19.2277 6.45168 19.2277 5.00695C19.2277 4.36414 19.1607 3.8422 19.0273 3.44142C18.9688 3.27449 18.8957 3.12008 18.8081 2.97792C18.7204 2.83612 18.6472 2.7297 18.5889 2.65858C18.5304 2.58775 18.5012 2.5355 18.5012 2.50211C18.5012 2.42694 18.5242 2.35796 18.5701 2.29539C18.6159 2.23274 18.6723 2.20135 18.7392 2.20135C18.7809 2.20135 18.8539 2.22235 18.9584 2.26414C19.0627 2.306 19.238 2.34757 19.4845 2.38935C19.7306 2.43121 20.05 2.45193 20.4426 2.45193C20.7347 2.45193 20.9956 2.43313 21.2253 2.39555C21.4549 2.35796 21.6324 2.32038 21.7577 2.28293C21.8829 2.24534 21.9622 2.22655 21.9956 2.22655C22.0539 2.22655 22.1083 2.25581 22.1584 2.31411C22.2085 2.37277 22.2335 2.43534 22.2335 2.50211C22.2335 2.55216 22.171 2.64819 22.0457 2.79006C21.9205 2.93215 21.8203 3.11168 21.7451 3.32866C21.5698 3.87146 21.4821 4.68562 21.4821 5.771C21.4821 6.73963 21.5529 7.47022 21.695 7.9629C21.7367 8.09644 21.8118 8.24266 21.9205 8.40119C22.0289 8.55987 22.0833 8.66003 22.0833 8.70181C22.0833 8.76866 22.0583 8.83956 22.0082 8.91466C21.958 8.98983 21.8995 9.02742 21.8328 9.02742C21.7993 9.02742 21.6387 8.98983 21.3506 8.91466C21.0625 8.83956 20.7598 8.80197 20.4426 8.80197C20.2003 8.80197 19.7891 8.84995 19.2089 8.94598C18.6284 9.04194 18.1462 9.08999 17.7623 9.08999C17.1944 9.08999 16.6996 9.01681 16.2781 8.87081C15.8564 8.72488 15.5348 8.5326 15.3137 8.2947C15.0924 8.05665 14.9317 7.81675 14.8315 7.5745C14.7313 7.33254 14.6812 7.08616 14.6812 6.83559C14.6812 6.05902 15.0444 5.37854 15.7709 4.7941C15.8125 4.76079 16.0026 4.62717 16.3407 4.39325C16.6789 4.15962 16.9231 3.95923 17.0734 3.79208C17.2238 3.62508 17.2989 3.45829 17.2989 3.29107C17.2989 3.17426 17.2632 3.08036 17.1924 3.00932C17.1214 2.93849 17.0359 2.90289 16.9357 2.90289C16.8104 2.90289 16.7018 2.95094 16.61 3.04683C16.518 3.14293 16.445 3.24729 16.3908 3.36005C16.3364 3.47267 16.251 3.57724 16.1341 3.67306C16.017 3.76923 15.8711 3.81721 15.6957 3.81721C15.1528 3.81721 14.8816 3.31613 14.8816 2.31411C14.8816 2.23082 14.9067 2.18896 14.9567 2.18896L15.1822 2.25154C15.3325 2.2934 15.491 2.31411 15.6581 2.31411C15.7665 2.31411 15.919 2.29966 16.1153 2.27033C16.3114 2.24122 16.518 2.22655 16.7353 2.22655C17.328 2.22655 17.7642 2.42061 18.0441 2.80893C18.3238 3.19711 18.4636 3.65021 18.4636 4.16781" fill="white"/>
<path fill-rule="evenodd" clip-rule="evenodd" d="M22.5967 7.42427C22.5967 7.06534 22.7282 6.79605 22.9912 6.61637C23.2542 6.43698 23.5693 6.34714 23.9368 6.34714C24.1873 6.34714 24.4795 6.41185 24.8136 6.5412C25.1474 6.67083 25.3146 6.79398 25.3146 6.91073C25.3146 6.9276 25.304 6.94419 25.2832 6.96077C25.2623 6.97764 25.2373 6.99644 25.2081 7.01715C25.1787 7.03815 25.16 7.05282 25.1517 7.06093C24.9846 7.22815 24.9012 7.40355 24.9012 7.58707C24.9012 8.2217 25.3186 8.53898 26.1537 8.53898C26.496 8.53898 26.7819 8.45149 27.0117 8.27637C27.2412 8.10111 27.3561 7.88 27.3561 7.61305C27.3561 7.27129 27.1305 6.99601 26.6792 6.7875C26.6373 6.77063 26.1173 6.60043 25.1196 6.27703C24.8734 6.19659 24.6689 6.12967 24.5063 6.07649C24.3437 6.02325 24.1475 5.9359 23.918 5.81481C23.6883 5.69387 23.5088 5.56651 23.3794 5.43283C23.2499 5.29935 23.1353 5.12594 23.035 4.91309C22.9348 4.7001 22.8848 4.46021 22.8848 4.19283C22.8848 3.63352 23.1247 3.14084 23.605 2.71493C24.085 2.28916 24.7133 2.07617 25.4899 2.07617C25.7987 2.07617 26.3019 2.15134 26.9991 2.30169C27.6962 2.45189 28.1659 2.52714 28.4081 2.52714C28.5415 2.52714 28.6564 2.52087 28.7526 2.50827C28.8485 2.49574 28.9133 2.47916 28.9467 2.45816C28.9799 2.43744 29.0093 2.42057 29.0344 2.40811C29.0595 2.39551 29.0845 2.38932 29.1095 2.38932C29.1846 2.38932 29.2223 2.43531 29.2223 2.52714C29.2223 2.86114 29.1596 3.17842 29.0344 3.47904C28.9674 3.6627 28.8485 3.81305 28.6774 3.92987C28.5062 4.0469 28.3162 4.1052 28.1076 4.1052C27.9238 4.1052 27.7547 4.07188 27.6003 4.00497C27.4457 3.93827 27.3226 3.86943 27.2308 3.79839C27.1389 3.72748 26.9928 3.60006 26.7925 3.41626C26.7841 3.40814 26.7486 3.37689 26.686 3.32243C26.6233 3.26826 26.5796 3.23067 26.5544 3.20967C26.5295 3.18889 26.4855 3.15329 26.423 3.10325C26.3604 3.05313 26.3103 3.01548 26.2727 2.99049C26.2351 2.9655 26.185 2.93632 26.1224 2.90286C26.0598 2.86954 26.0054 2.84235 25.9595 2.82149C25.9135 2.80071 25.8613 2.78384 25.8031 2.77131C25.7445 2.75871 25.686 2.75251 25.6277 2.75251C25.4439 2.75251 25.2936 2.81317 25.1768 2.93411C25.0597 3.05527 25.0014 3.19515 25.0014 3.35368C25.0014 3.6039 25.1455 3.80814 25.4335 3.96667C25.7216 4.1252 26.25 4.32111 27.0185 4.55431C27.05 4.56492 27.1664 4.60322 27.3678 4.66978C27.569 4.73641 27.713 4.78389 27.7998 4.81265C27.8868 4.84148 28.0308 4.88896 28.2321 4.95559C28.4332 5.02208 28.5839 5.08857 28.684 5.15548C28.7842 5.22247 28.9074 5.31231 29.0534 5.42507C29.1994 5.5379 29.3099 5.655 29.385 5.77602C29.4603 5.89746 29.5269 6.04161 29.5854 6.20876C29.6438 6.37583 29.6731 6.55572 29.6731 6.748C29.6731 6.89001 29.65 7.05061 29.6042 7.23007C29.5582 7.40974 29.4603 7.61832 29.3099 7.8563C29.1596 8.09427 28.9674 8.30947 28.7337 8.50139C28.4999 8.69352 28.1721 8.85618 27.7506 8.9898C27.3289 9.12334 26.8467 9.19019 26.304 9.19019C25.2686 9.19019 24.3919 9.01479 23.6738 8.66419C22.9556 8.31346 22.5967 7.90015 22.5967 7.42427" fill="white"/>
<path fill-rule="evenodd" clip-rule="evenodd" d="M30.1488 7.42427C30.1488 7.06534 30.2804 6.79605 30.5433 6.61637C30.8064 6.43698 31.1214 6.34714 31.4889 6.34714C31.7394 6.34714 32.0316 6.41185 32.3657 6.5412C32.6996 6.67083 32.8667 6.79398 32.8667 6.91073C32.8667 6.9276 32.856 6.94419 32.8353 6.96077C32.8144 6.97764 32.7894 6.99644 32.7602 7.01715C32.7308 7.03815 32.7121 7.05282 32.7038 7.06093C32.5367 7.22815 32.4533 7.40355 32.4533 7.58707C32.4533 8.2217 32.8708 8.53898 33.7058 8.53898C34.048 8.53898 34.334 8.45149 34.5638 8.27637C34.7933 8.10111 34.9082 7.88 34.9082 7.61305C34.9082 7.27129 34.6825 6.99601 34.2313 6.7875C34.1894 6.77063 33.6694 6.60043 32.6717 6.27703C32.4256 6.19659 32.221 6.12967 32.0584 6.07649C31.8958 6.02325 31.6997 5.9359 31.4702 5.81481C31.2404 5.69387 31.0609 5.56651 30.9316 5.43283C30.802 5.29935 30.6873 5.12594 30.5872 4.91309C30.487 4.7001 30.4369 4.46021 30.4369 4.19283C30.4369 3.63352 30.6768 3.14084 31.157 2.71493C31.637 2.28916 32.2655 2.07617 33.042 2.07617C33.3508 2.07617 33.854 2.15134 34.5513 2.30169C35.2483 2.45189 35.7179 2.52714 35.9603 2.52714C36.0937 2.52714 36.2086 2.52087 36.3047 2.50827C36.4005 2.49574 36.4653 2.47916 36.4988 2.45816C36.5321 2.43744 36.5614 2.42057 36.5865 2.40811C36.6115 2.39551 36.6366 2.38932 36.6617 2.38932C36.7368 2.38932 36.7743 2.43531 36.7743 2.52714C36.7743 2.86114 36.7118 3.17842 36.5865 3.47904C36.5196 3.6627 36.4005 3.81305 36.2295 3.92987C36.0583 4.0469 35.8683 4.1052 35.6596 4.1052C35.4759 4.1052 35.3068 4.07188 35.1524 4.00497C34.9977 3.93827 34.8747 3.86943 34.783 3.79839C34.691 3.72748 34.545 3.60006 34.3445 3.41626C34.3361 3.40814 34.3008 3.37689 34.238 3.32243C34.1755 3.26826 34.1317 3.23067 34.1066 3.20967C34.0816 3.18889 34.0377 3.15329 33.9751 3.10325C33.9125 3.05313 33.8624 3.01548 33.8248 2.99049C33.7872 2.9655 33.7371 2.93632 33.6745 2.90286C33.6118 2.86954 33.5575 2.84235 33.5117 2.82149C33.4657 2.80071 33.4134 2.78384 33.3551 2.77131C33.2967 2.75871 33.2381 2.75251 33.1798 2.75251C32.996 2.75251 32.8457 2.81317 32.7289 2.93411C32.6119 3.05527 32.5535 3.19515 32.5535 3.35368C32.5535 3.6039 32.6976 3.80814 32.9857 3.96667C33.2737 4.1252 33.8021 4.32111 34.5705 4.55431C34.6022 4.56492 34.7185 4.60322 34.9199 4.66978C35.1211 4.73641 35.2651 4.78389 35.352 4.81265C35.4389 4.84148 35.583 4.88896 35.7841 4.95559C35.9853 5.02208 36.1359 5.08857 36.2362 5.15548C36.3364 5.22247 36.4595 5.31231 36.6054 5.42507C36.7515 5.5379 36.862 5.655 36.9371 5.77602C37.0123 5.89746 37.0791 6.04161 37.1375 6.20876C37.1959 6.37583 37.2252 6.55572 37.2252 6.748C37.2252 6.89001 37.2022 7.05061 37.1563 7.23007C37.1104 7.40974 37.0123 7.61832 36.862 7.8563C36.7118 8.09427 36.5196 8.30947 36.2859 8.50139C36.052 8.69352 35.7242 8.85618 35.3027 8.9898C34.881 9.12334 34.3988 9.19019 33.8561 9.19019C32.8206 9.19019 31.944 9.01479 31.2259 8.66419C30.5077 8.31346 30.1488 7.90015 30.1488 7.42427" fill="white"/>
<path fill-rule="evenodd" clip-rule="evenodd" d="M41.4835 2.71493C41.2414 2.71493 41.0368 2.80477 40.8698 2.98423C40.7028 3.1639 40.5796 3.39967 40.5003 3.69182C40.4209 3.98425 40.3668 4.27434 40.3375 4.56236C40.3082 4.85038 40.2979 5.14473 40.3063 5.44528C40.9325 5.30348 41.3937 5.1678 41.6902 5.03831C41.9865 4.90889 42.1724 4.77955 42.2476 4.64999C42.3227 4.52057 42.3603 4.33058 42.3603 4.08014C42.3603 3.73788 42.2768 3.42473 42.1098 3.14084C41.9427 2.85694 41.7341 2.71493 41.4835 2.71493M41.7091 8.52638C42.0429 8.52638 42.2996 8.40543 42.4793 8.16325C42.6588 7.92108 42.7486 7.62893 42.7486 7.28652C42.7486 7.0778 42.7173 6.90033 42.6546 6.75419C42.592 6.60819 42.5272 6.49735 42.4605 6.42225C42.3935 6.34714 42.3603 6.29696 42.3603 6.27197C42.3603 6.1968 42.4793 6.11344 42.7173 6.02147C42.9552 5.92964 43.1701 5.88365 43.3623 5.88365C43.8382 5.88365 44.2202 6.00068 44.5083 6.23439C44.7963 6.46823 44.9404 6.78551 44.9404 7.18629C44.9404 7.75414 44.6752 8.2301 44.1451 8.61401C43.6147 8.99806 42.8613 9.19019 41.8843 9.19019C40.6401 9.19019 39.6318 8.8791 38.8597 8.25708C38.0872 7.63512 37.701 6.78551 37.701 5.70825C37.701 4.69818 38.0267 3.84024 38.678 3.1345C39.3293 2.42897 40.2895 2.07617 41.5588 2.07617C42.427 2.07617 43.1825 2.35601 43.8256 2.91532C44.0762 3.13251 44.3017 3.42886 44.502 3.80458C44.7024 4.18037 44.8026 4.46839 44.8026 4.66878C44.8026 4.72737 44.7963 4.77528 44.7837 4.81286C44.7714 4.85038 44.7441 4.8817 44.7024 4.90676C44.6605 4.93189 44.6314 4.94655 44.6147 4.95054C44.5979 4.95495 44.5604 4.96527 44.502 4.98193L40.3438 6.14668C40.352 6.41399 40.3771 6.67083 40.4189 6.91692C40.4607 7.16337 40.5274 7.41601 40.6193 7.6747C40.7111 7.93368 40.8511 8.14026 41.0389 8.29466C41.2268 8.44928 41.4501 8.52638 41.7091 8.52638" fill="white"/>
<path fill-rule="evenodd" clip-rule="evenodd" d="M50.8855 0.107919C50.9413 0.107919 50.9695 0.211851 50.9695 0.419715C50.9695 0.707451 50.8855 1.0154 50.7176 1.34307C50.5497 1.67103 50.3018 1.83476 49.9741 1.83476C49.5104 1.83476 49.1587 1.63885 48.9188 1.24712C48.8948 1.20725 48.8568 1.13927 48.8048 1.04331C48.7529 0.94742 48.7109 0.877515 48.6791 0.833451C48.647 0.7896 48.605 0.737492 48.5531 0.677553C48.501 0.617542 48.447 0.575542 48.3912 0.551624C48.3352 0.527634 48.2713 0.515675 48.1994 0.515675C47.9835 0.515675 47.8756 0.619607 47.8756 0.8274C47.8756 0.955464 47.9236 1.08531 48.0194 1.21715C48.1154 1.34905 48.2234 1.46715 48.3432 1.57087C48.4632 1.67487 48.5711 1.8428 48.667 2.07452C48.763 2.30658 48.8109 2.57823 48.8109 2.89003V3.05796C48.8268 3.05796 48.9009 3.06394 49.0328 3.07589C49.1647 3.08785 49.2625 3.09383 49.3266 3.09383C49.6624 3.09383 49.946 3.02194 50.178 2.87807C50.2419 2.8382 50.2978 2.79827 50.3459 2.75812C50.3939 2.71818 50.4277 2.68821 50.4478 2.66814C50.4677 2.64828 50.4898 2.63212 50.5137 2.62023C50.5377 2.60827 50.5617 2.60229 50.5857 2.60229C50.6097 2.60229 50.6377 2.62614 50.6696 2.67412C50.7015 2.7221 50.7296 2.80218 50.7535 2.91395C50.7775 3.02614 50.7895 3.15392 50.7895 3.29778C50.7895 3.6335 50.6955 3.96323 50.5078 4.28699C50.3198 4.61075 50.0701 4.7727 49.7582 4.7727C49.5583 4.7727 49.3464 4.70877 49.1227 4.58085C48.8988 4.45314 48.7709 4.389 48.739 4.389V6.3556C48.739 7.29903 48.8109 7.90255 48.9548 8.16637C49.0187 8.29443 49.0826 8.3963 49.1467 8.47218C49.2106 8.54821 49.2586 8.59619 49.2906 8.61612C49.3224 8.63613 49.3484 8.66012 49.3685 8.68795C49.3884 8.71614 49.3985 8.75401 49.3985 8.80192C49.3985 8.88983 49.3644 8.96978 49.2966 9.04175C49.2286 9.11379 49.1666 9.14966 49.1107 9.14966C49.0706 9.14966 48.9866 9.11977 48.8589 9.05968C48.7309 8.99975 48.537 8.94166 48.2773 8.88592C48.0174 8.82989 47.6997 8.80192 47.3239 8.80192C47.068 8.80192 46.8402 8.82384 46.6404 8.86784C46.4405 8.91169 46.2867 8.95575 46.1788 8.99975C46.0708 9.0436 46.0007 9.06581 45.9689 9.06581C45.9209 9.06581 45.871 9.03762 45.819 8.98181C45.767 8.92585 45.741 8.86186 45.741 8.78989C45.741 8.70204 45.7549 8.64211 45.783 8.61014C45.811 8.57825 45.861 8.53212 45.9329 8.47218C46.0048 8.41217 46.0727 8.32639 46.1368 8.21435C46.3925 7.77477 46.5205 6.81126 46.5205 5.32432C46.5205 4.90076 46.5085 4.41299 46.4845 3.86137C46.2846 3.82143 46.0408 3.80143 45.753 3.80143C45.6251 3.80143 45.5612 3.68952 45.5612 3.46557C45.5612 3.28177 45.6649 3.17385 45.873 3.14181C45.9689 3.12594 46.1527 3.10992 46.4246 3.09383C46.4246 2.68608 46.3686 2.35841 46.2567 2.11054C46.2246 2.03074 46.1686 1.95279 46.0888 1.87676C46.0088 1.8008 45.9689 1.73488 45.9689 1.67879C45.9689 1.51905 46.0667 1.29922 46.2628 1.01932C46.4585 0.739627 46.6924 0.515675 46.9642 0.347746C47.3239 0.115963 47.7356 0 48.1994 0C48.575 0 48.9188 0.0479797 49.2306 0.143868C49.5425 0.239827 49.8341 0.287807 50.1061 0.287807C50.2898 0.287807 50.4376 0.271932 50.5497 0.239827C50.6616 0.208007 50.7395 0.177966 50.7835 0.149847C50.8274 0.121942 50.8615 0.107919 50.8855 0.107919" fill="white"/>
<path fill-rule="evenodd" clip-rule="evenodd" d="M16.0236 10.7301C15.553 10.7301 15.2127 10.9925 15.0028 11.5174C14.7928 12.0423 14.6879 12.9779 14.6879 14.3244C14.6879 16.0113 14.8291 17.0248 15.1114 17.365C15.2489 17.5461 15.3883 17.6691 15.5296 17.7341C15.6706 17.7993 15.857 17.8319 16.0888 17.8319C16.4798 17.8319 16.7656 17.6727 16.9467 17.3541C17.2869 16.746 17.457 15.6709 17.457 14.129C17.457 13.3834 17.4334 12.8367 17.3865 12.4893C17.3393 12.1417 17.2578 11.8197 17.1421 11.5228C17.0406 11.2767 16.8924 11.0829 16.6969 10.9418C16.5014 10.8006 16.2769 10.7301 16.0236 10.7301M16.3168 18.4726C15.9547 18.4726 15.5241 18.4165 15.0246 18.3043C14.525 18.192 13.9784 18.136 13.3849 18.136C13.0227 18.136 12.6644 18.1865 12.3098 18.288L11.7777 18.4508C11.7269 18.4508 11.6727 18.4109 11.6147 18.3314C11.5567 18.2517 11.528 18.183 11.528 18.1252C11.528 18.0673 11.5551 18.0148 11.6093 17.9677C11.6636 17.9206 11.7397 17.8411 11.8374 17.7287C11.9351 17.6166 12.0238 17.4735 12.1035 17.2998C12.2121 17.061 12.2971 16.652 12.3587 16.0727C12.4201 15.4936 12.451 14.9216 12.451 14.3569C12.451 13.4231 12.4238 12.7572 12.3695 12.3589C12.3152 11.9608 12.2265 11.6169 12.1035 11.3274C12.031 11.168 11.9586 11.0287 11.8862 10.9093C11.8138 10.7898 11.7595 10.7048 11.7234 10.6541C11.6871 10.6034 11.6691 10.56 11.6691 10.5237C11.6691 10.4659 11.7016 10.3972 11.7669 10.3174C11.832 10.2378 11.8971 10.198 11.9623 10.198C11.9767 10.198 12.1288 10.2451 12.4184 10.3391C12.7078 10.4333 13.0192 10.4802 13.3522 10.4802C13.5983 10.4802 14.0581 10.4151 14.7314 10.2848C15.4046 10.1546 15.9222 10.0894 16.2842 10.0894C17.3919 10.0894 18.2786 10.455 18.9447 11.1861C19.7554 12.0765 20.1609 13.1554 20.1609 14.4221C20.1609 15.0014 20.0578 15.5805 19.8514 16.1596C19.6451 16.7389 19.2994 17.2275 18.8144 17.6257C18.4379 17.9369 18.0669 18.1558 17.7013 18.2826C17.3357 18.4091 16.8742 18.4726 16.3168 18.4726" fill="white"/>
<path fill-rule="evenodd" clip-rule="evenodd" d="M24.4402 14.6541C23.7805 14.6541 23.4508 15.1051 23.4508 16.0068C23.4508 17.1675 23.789 17.7476 24.4653 17.7476C24.816 17.7476 25.0664 17.6183 25.2167 17.3595C25.367 17.1007 25.4422 16.6999 25.4422 16.157C25.4422 15.155 25.1081 14.6541 24.4402 14.6541M25.4923 14.3911C25.5173 14.3911 25.5299 14.3369 25.5299 14.2283V13.5394C25.5299 13.0468 25.488 12.6858 25.4046 12.4561C25.3211 12.2265 25.1498 12.1115 24.8911 12.1115C24.7575 12.1115 24.6384 12.1409 24.5341 12.1993C24.4296 12.2577 24.3545 12.3141 24.3087 12.3684C24.2627 12.4227 24.1772 12.5291 24.0519 12.6877C23.6343 13.2222 23.1752 13.4894 22.6742 13.4894C22.2399 13.4894 21.9121 13.3349 21.691 13.0258C21.4697 12.7171 21.3592 12.3204 21.3592 11.8361C21.3592 11.5353 21.4008 11.3851 21.4844 11.3851C21.501 11.3851 21.572 11.4312 21.6973 11.5229C21.9645 11.7068 22.3443 11.7985 22.837 11.7985C23.1459 11.7985 23.5175 11.7421 23.9518 11.6294C24.3858 11.5168 24.8492 11.4604 25.342 11.4604C26.1017 11.4604 26.7112 11.667 27.1705 12.0803C27.6297 12.4936 27.8594 13.1305 27.8594 13.9903V14.629V15.2614C27.8594 15.3826 27.8614 15.5622 27.8657 15.8002C27.8698 16.0379 27.8782 16.2134 27.8908 16.3261C27.9033 16.4389 27.9178 16.5725 27.9346 16.7269C27.9512 16.8815 27.9763 17.0087 28.0097 17.1089C28.043 17.2091 28.0806 17.2927 28.1225 17.3595C28.1891 17.4764 28.2684 17.587 28.3604 17.6913C28.4522 17.7959 28.5189 17.8751 28.5609 17.9292C28.6025 17.9836 28.6234 18.0358 28.6234 18.0858C28.6234 18.161 28.5941 18.2382 28.5357 18.3176C28.4772 18.3968 28.4231 18.4366 28.3729 18.4366C28.3228 18.4366 28.2559 18.4115 28.1725 18.3614C28.089 18.3114 27.9365 18.2612 27.7154 18.2112C27.4941 18.161 27.1912 18.136 26.8074 18.136C26.2645 18.136 25.7594 18.1797 25.2919 18.2674C24.8242 18.3551 24.4108 18.3989 24.0519 18.3989C23.5341 18.3989 23.077 18.3404 22.6805 18.2237C22.2838 18.1068 21.9707 17.9649 21.7411 17.7978C21.5113 17.6308 21.3257 17.4346 21.1837 17.2091C21.0417 16.9837 20.9458 16.7771 20.8957 16.5891C20.8456 16.4013 20.8206 16.2156 20.8206 16.0318C20.8206 15.439 21.0084 14.9547 21.3841 14.5789C21.9269 14.0363 22.7368 13.7648 23.8139 13.7648C24.1897 13.7648 24.5611 13.8694 24.9287 14.0779C24.987 14.1114 25.0643 14.1552 25.1604 14.2095C25.2563 14.2638 25.3314 14.3078 25.3858 14.3409C25.44 14.3745 25.4754 14.3911 25.4923 14.3911" fill="white"/>
<mask id="mask0" mask-type="alpha" maskUnits="userSpaceOnUse" x="28" y="11" width="8" height="10">
<path fill-rule="evenodd" clip-rule="evenodd" d="M28.5233 11.5856H35.9755V20.9666H28.5233V11.5856Z" fill="white"/>
</mask>
<g mask="url(#mask0)">
<path fill-rule="evenodd" clip-rule="evenodd" d="M30.4271 20.2151C30.7192 20.2151 31.1285 19.9937 31.6545 19.5513C31.9383 19.309 32.1449 19.138 32.2745 19.0378C32.4038 18.9376 32.6064 18.8267 32.8819 18.7059C33.1574 18.5848 33.433 18.5242 33.7085 18.5242C34.1677 18.5242 34.5246 18.6953 34.7794 19.0378C35.034 19.3801 35.1615 19.8518 35.1615 20.4531C35.1615 20.5532 35.1239 20.6034 35.0487 20.6034C35.0318 20.6034 34.9003 20.5802 34.6542 20.5344C34.4078 20.4884 34.1301 20.4657 33.8213 20.4657C33.3535 20.4657 32.815 20.5489 32.2056 20.716C31.596 20.883 31.0783 20.9666 30.6525 20.9666C30.1516 20.9666 29.7527 20.837 29.4564 20.5783C29.1599 20.3194 29.0117 19.9771 29.0117 19.5513C29.0117 19.092 29.1599 18.7182 29.4566 18.4304C29.7531 18.142 30.1979 17.9062 30.791 17.7224C30.7077 17.4422 30.5736 16.9918 30.3893 16.3709C30.205 15.7503 30.0503 15.2297 29.9255 14.8092C29.8006 14.3885 29.638 13.907 29.4376 13.3641C29.3374 13.0885 29.2267 12.8527 29.1057 12.6564C28.9845 12.4603 28.8844 12.3288 28.8051 12.2619C28.7257 12.1951 28.6589 12.1347 28.6047 12.0804C28.5504 12.0261 28.5233 11.9782 28.5233 11.9363C28.5233 11.878 28.544 11.8109 28.586 11.736C28.6277 11.6607 28.6778 11.6232 28.7362 11.6232C28.7528 11.6232 28.8405 11.6378 28.9992 11.667C29.1578 11.6964 29.3562 11.7255 29.5942 11.7546C29.8322 11.784 30.0595 11.7986 30.2768 11.7986C30.7277 11.7986 31.1598 11.763 31.5731 11.692C31.9864 11.6212 32.1971 11.5856 32.2056 11.5856C32.2556 11.5856 32.3036 11.6232 32.3496 11.6983C32.3954 11.7734 32.4185 11.8445 32.4185 11.9112C32.4185 11.9614 32.3808 12.0261 32.3058 12.1053C32.2306 12.1847 32.1555 12.308 32.0804 12.4749C32.0052 12.6419 31.9676 12.859 31.9676 13.126C31.9676 13.2443 31.9754 13.3753 31.9911 13.5189C32.0067 13.6626 32.0304 13.8295 32.0618 14.0195C32.093 14.2096 32.1328 14.3844 32.1807 14.5442C32.2285 14.704 32.2895 14.9077 32.3635 15.1554C32.4374 15.4031 32.4974 15.6028 32.5428 15.7545C32.5881 15.9064 32.6531 16.1242 32.7381 16.4079C32.823 16.6916 32.887 16.9053 32.93 17.0488C34.1922 16.4533 34.8232 15.5893 34.8232 14.4569C34.8232 14.2638 34.7709 14.1025 34.6667 13.9726C34.5621 13.8425 34.435 13.7774 34.2846 13.7774C34.1426 13.7774 34.032 13.8193 33.9527 13.9026C33.8733 13.9862 33.815 14.0676 33.7774 14.1469C33.7399 14.2264 33.696 14.266 33.6459 14.266C33.5457 14.266 33.4161 14.1218 33.2576 13.8338C33.0989 13.5457 33.0197 13.2388 33.0197 12.9133C33.0197 12.6044 33.1303 12.3226 33.3516 12.0678C33.5727 11.8132 33.9089 11.6858 34.3598 11.6858C34.6604 11.6858 34.9213 11.7652 35.1426 11.9237C35.3638 12.0824 35.5308 12.2807 35.6436 12.5187C35.7563 12.7567 35.8397 12.9905 35.8941 13.22C35.9483 13.4499 35.9755 13.6646 35.9755 13.865C35.9755 14.4246 35.8418 14.9985 35.5748 15.5872C35.3074 16.1758 34.9359 16.6624 34.46 17.0463C34.2261 17.2386 33.986 17.4076 33.7399 17.5536C33.4934 17.6997 33.2263 17.8313 32.9382 17.9481C32.6501 18.0651 32.4226 18.1526 32.2556 18.2112C32.0885 18.2694 31.8339 18.3489 31.4916 18.449C31.1492 18.5492 30.9406 18.612 30.8654 18.6369C30.1723 18.8456 29.8259 19.1837 29.8259 19.6515C29.8259 19.81 29.8801 19.9436 29.9887 20.0523C30.0971 20.1606 30.2433 20.2151 30.4271 20.2151" fill="white"/>
</g>
<path fill-rule="evenodd" clip-rule="evenodd" d="M40.2465 12.0489C40.0042 12.0489 39.7997 12.1387 39.6328 12.3183C39.4656 12.498 39.3426 12.7337 39.2633 13.0259C39.1838 13.3182 39.1296 13.6083 39.1005 13.8963C39.0711 14.1844 39.0607 14.4787 39.0692 14.7793C39.6954 14.6375 40.1566 14.5018 40.4531 14.3724C40.7493 14.2429 40.9354 14.1136 41.0105 13.984C41.0856 13.8546 41.1231 13.6646 41.1231 13.4142C41.1231 13.0719 41.0397 12.7587 40.8727 12.4748C40.7056 12.191 40.497 12.0489 40.2465 12.0489M40.4719 17.8604C40.8057 17.8604 41.0626 17.7395 41.2422 17.4972C41.4216 17.2551 41.5115 16.9629 41.5115 16.6205C41.5115 16.4118 41.4801 16.2344 41.4176 16.0882C41.3549 15.9422 41.2901 15.8314 41.2234 15.7562C41.1565 15.6811 41.1231 15.631 41.1231 15.606C41.1231 15.5309 41.2422 15.4475 41.4801 15.3555C41.7181 15.2637 41.933 15.2177 42.1252 15.2177C42.6011 15.2177 42.9831 15.3347 43.2712 15.5684C43.5593 15.8023 43.7033 16.1196 43.7033 16.5203C43.7033 17.0881 43.4381 17.5642 42.908 17.9481C42.3776 18.3321 41.6242 18.5242 40.6473 18.5242C39.403 18.5242 38.3948 18.2132 37.6226 17.5911C36.8501 16.9692 36.464 16.1196 36.464 15.0423C36.464 14.0322 36.7897 13.1743 37.441 12.4686C38.0922 11.763 39.0523 11.4102 40.3217 11.4102C41.19 11.4102 41.9455 11.69 42.5886 12.2493C42.8391 12.4666 43.0645 12.7628 43.2649 13.1386C43.4653 13.5144 43.5655 13.8024 43.5655 14.0028C43.5655 14.0614 43.5593 14.1093 43.5467 14.1469C43.5342 14.1844 43.507 14.2157 43.4653 14.2407C43.4235 14.2659 43.3943 14.2805 43.3776 14.2845C43.3608 14.289 43.3233 14.2993 43.2649 14.316L39.1067 15.4807C39.1149 15.748 39.14 16.0048 39.1819 16.251C39.2235 16.4974 39.2903 16.75 39.3822 17.0088C39.474 17.2677 39.614 17.4743 39.8019 17.6287C39.9897 17.7833 40.213 17.8604 40.4719 17.8604" fill="white"/>
<path fill-rule="evenodd" clip-rule="evenodd" d="M44.0789 16.7583C44.0789 16.3993 44.2103 16.13 44.4733 15.9504C44.7363 15.771 45.0514 15.6811 45.4189 15.6811C45.6694 15.6811 45.9617 15.7458 46.2957 15.8753C46.6296 16.0048 46.7968 16.128 46.7968 16.2447C46.7968 16.2615 46.7861 16.2782 46.7654 16.2948C46.7444 16.3116 46.7194 16.3304 46.6903 16.3511C46.6609 16.3721 46.6421 16.3868 46.6339 16.3949C46.4667 16.5621 46.3834 16.7375 46.3834 16.9211C46.3834 17.5557 46.8007 17.873 47.6359 17.873C47.9781 17.873 48.2641 17.7855 48.4938 17.6104C48.7233 17.4351 48.8382 17.2139 48.8382 16.947C48.8382 16.6053 48.6126 16.33 48.1613 16.1215C48.1195 16.1046 47.5994 15.9344 46.6017 15.611C46.3555 15.5306 46.151 15.4637 45.9884 15.4105C45.8258 15.3572 45.6297 15.2699 45.4002 15.1489C45.1704 15.0279 44.991 14.9004 44.8616 14.7668C44.7321 14.6333 44.6174 14.4599 44.5172 14.2471C44.417 14.0341 44.3669 13.7942 44.3669 13.5267C44.3669 12.9675 44.6068 12.4748 45.0871 12.0489C45.5671 11.6231 46.1954 11.4102 46.972 11.4102C47.2808 11.4102 47.784 11.4853 48.4813 11.6357C49.1784 11.7859 49.648 11.8611 49.8903 11.8611C50.0237 11.8611 50.1386 11.8549 50.2348 11.8423C50.3306 11.8298 50.3954 11.8131 50.4288 11.7921C50.4621 11.7714 50.4914 11.7546 50.5165 11.7421C50.5416 11.7295 50.5666 11.7233 50.5917 11.7233C50.6668 11.7233 50.7044 11.7694 50.7044 11.8611C50.7044 12.1951 50.6417 12.5124 50.5165 12.813C50.4495 12.9967 50.3306 13.147 50.1595 13.2638C49.9883 13.3809 49.7983 13.4392 49.5897 13.4392C49.4059 13.4392 49.2368 13.4059 49.0824 13.339C48.9278 13.2723 48.8048 13.2033 48.713 13.1324C48.6211 13.0615 48.475 12.934 48.2746 12.7502C48.2662 12.7421 48.2308 12.7109 48.1681 12.6564C48.1055 12.6022 48.0617 12.5647 48.0367 12.5437C48.0116 12.5229 47.9678 12.4873 47.9051 12.4372C47.8425 12.3871 47.7924 12.3495 47.7549 12.3245C47.7172 12.2994 47.6672 12.2703 47.6045 12.2368C47.5419 12.2036 47.4875 12.1763 47.4417 12.1555C47.3958 12.1347 47.3434 12.1178 47.2852 12.1053C47.2267 12.0928 47.1681 12.0865 47.1098 12.0865C46.9261 12.0865 46.7758 12.1472 46.6589 12.2681C46.5419 12.3893 46.4835 12.5291 46.4835 12.6877C46.4835 12.9378 46.6276 13.1421 46.9157 13.3007C47.2037 13.4592 47.7321 13.6551 48.5006 13.8883C48.5322 13.8989 48.6486 13.9372 48.8499 14.0038C49.0512 14.0703 49.1952 14.1178 49.282 14.1466C49.3689 14.1755 49.513 14.2229 49.7142 14.2895C49.9154 14.3561 50.066 14.4226 50.1662 14.4895C50.2664 14.5565 50.3895 14.6463 50.5355 14.7591C50.6815 14.872 50.7921 14.989 50.8672 15.1101C50.9424 15.2314 51.0091 15.3756 51.0676 15.5428C51.1259 15.7098 51.1552 15.8897 51.1552 16.0819C51.1552 16.224 51.1322 16.3846 51.0863 16.5641C51.0405 16.7437 50.9424 16.9524 50.7921 17.1903C50.6417 17.4283 50.4495 17.6435 50.2159 17.8354C49.9821 18.0275 49.6543 18.1902 49.2327 18.3238C48.811 18.4573 48.3288 18.5242 47.7861 18.5242C46.7507 18.5242 45.874 18.3488 45.156 17.9982C44.4378 17.6474 44.0789 17.2341 44.0789 16.7583" fill="white"/>
<path fill-rule="evenodd" clip-rule="evenodd" d="M3.01909 19.0563C3.92287 19.0563 6.26896 18.3448 6.73054 18.2678C7.28814 18.1525 7.82659 18.0948 8.32661 18.0948C9.28805 18.0948 10.2689 18.3448 10.4034 18.3448C10.5381 18.3448 10.5957 18.2486 10.5957 18.0756C10.5957 16.353 9.95322 15.6425 9.9372 15.6231C9.47968 15.0652 8.90848 14.768 8.09582 14.768C6.24568 14.768 4.57174 16.5418 4.56106 16.5515C4.31917 16.7737 3.72148 17.3256 3.13448 17.3256C2.88447 17.3256 2.39663 17.1909 2.21546 16.7844C1.93335 16.1513 2.15375 15.7871 2.30758 15.5949C2.51915 15.3449 2.80759 15.191 3.61527 14.8834C5.53823 14.1911 9.03812 12.2297 11.8457 7.99899C12.9803 6.32597 13.8264 5.03756 13.8264 3.38376C13.8264 -0.0949087 11.2496 0.0184912 11.2496 0.0184912C10.6342 0.0184912 10.1733 0.229488 9.8265 0.576166C8.84648 1.55626 9.54745 3.6915 10.2496 3.6915C10.3265 3.6915 10.3899 3.61775 10.4419 3.51837C10.507 3.39401 10.6359 2.98035 11.1534 2.99921C11.7623 3.02135 11.9034 3.63377 11.9034 3.90299C11.9034 4.21066 11.6534 5.49906 8.92272 8.67206C8.92272 8.67206 6.71452 5.24927 6.6728 2.21075C6.65956 1.24567 7.20514 0.699247 7.25603 0.625427C7.29896 0.563139 7.32665 0.514661 7.32665 0.480064C7.32665 0.422332 7.17282 0.0184912 7.01891 0.0184912C6.98047 0.0184912 5.60451 0.333847 4.26905 0.32623C3.40606 0.321247 2.11531 0.0762234 2.11531 0.0762234C2.02711 0.0647624 1.95072 0.131962 1.90374 0.230057C1.83675 0.369868 1.80757 0.441552 1.80757 0.518505C1.80757 0.576166 1.82679 0.633898 1.92303 0.730071C1.99991 0.806952 2.61681 1.1779 3.07682 2.53764C3.34 3.31585 4.17288 5.9222 4.44211 6.80676C4.9229 8.40283 5.67285 9.72967 6.73054 10.8258C5.24979 12.1142 3.94216 12.6719 2.84603 13.1719C1.44224 13.8065 0 14.5757 0 16.3064C0 17.5756 0.928057 19.1256 3.01909 19.0563" fill="white"/>
</svg>
