<svg id="play-button" xmlns="http://www.w3.org/2000/svg" width="155.929" height="155" viewBox="0 0 155.929 155">
  <path id="Shape" d="M2.6,82.665A2.6,2.6,0,0,1,0,80.082V2.582A2.577,2.577,0,0,1,1.382.3a2.621,2.621,0,0,1,2.679.15L61.236,39.2a2.572,2.572,0,0,1,0,4.267L4.062,82.216A2.6,2.6,0,0,1,2.6,82.665ZM4.546,5.225V77.441l53.28-36.108Z" transform="translate(57.174 36.168)" fill="#fff"/>
  <path id="Shape-2" data-name="Shape" d="M77.964,155C34.975,155,0,120.233,0,77.5S34.975,0,77.964,0s77.964,34.766,77.964,77.5S120.954,155,77.964,155Zm0-151.482C36.926,3.518,3.539,36.706,3.539,77.5s33.387,73.983,74.425,73.983S152.39,118.294,152.39,77.5,119,3.518,77.964,3.518Z" fill="#fff"/>
</svg>
