<svg width="18" height="18" viewBox="0 0 18 18" fill="none" xmlns="http://www.w3.org/2000/svg">
<path fill-rule="evenodd" clip-rule="evenodd" d="M14.3792 7.7875C11.5792 6.125 6.89791 5.95 4.22916 6.78125C3.79166 6.9125 3.35416 6.65 3.22291 6.25625C3.09166 5.81875 3.35416 5.38125 3.74791 5.25C6.85416 4.33125 11.9729 4.50625 15.2104 6.43125C15.6042 6.65 15.7354 7.175 15.5167 7.56875C15.2979 7.875 14.7729 8.00625 14.3792 7.7875M14.2917 10.2375C14.0729 10.5438 13.6792 10.675 13.3729 10.4563C11.0104 9.0125 7.42291 8.575 4.66666 9.45C4.31666 9.5375 3.92291 9.3625 3.83541 9.0125C3.74791 8.6625 3.92291 8.26875 4.27291 8.18125C7.46666 7.21875 11.4042 7.7 14.1167 9.3625C14.3792 9.49375 14.5104 9.93125 14.2917 10.2375M13.2417 12.6437C13.0667 12.9062 12.7604 12.9937 12.4979 12.8187C10.4417 11.55 7.86041 11.2875 4.79791 11.9875C4.49166 12.075 4.22916 11.8562 4.14166 11.5937C4.05416 11.2875 4.27291 11.025 4.53541 10.9375C7.86041 10.1937 10.7479 10.5 13.0229 11.9C13.3292 12.0312 13.3729 12.3812 13.2417 12.6437M9.21666 0C4.40416 0 0.46666 3.9375 0.46666 8.75C0.46666 13.5625 4.40416 17.5 9.21666 17.5C14.0292 17.5 17.9667 13.5625 17.9667 8.75C17.9667 3.9375 14.0729 0 9.21666 0" fill="white"/>
</svg>
