<svg width="20" height="17" viewBox="0 0 20 17" fill="none" xmlns="http://www.w3.org/2000/svg">
<path fill-rule="evenodd" clip-rule="evenodd" d="M19.0667 2.43947C18.3722 2.75572 17.6245 2.96959 16.8402 3.06515C17.6412 2.57371 18.2557 1.79445 18.5453 0.866175C17.7954 1.32121 16.9667 1.65225 16.0814 1.82972C15.3759 1.05729 14.3675 0.574951 13.2515 0.574951C11.1115 0.574951 9.37539 2.35529 9.37539 4.55085C9.37539 4.86255 9.40867 5.16515 9.47523 5.45637C6.25257 5.29028 3.39599 3.70902 1.48236 1.30074C1.14845 1.89001 0.957638 2.57371 0.957638 3.30177C0.957638 4.68053 1.64211 5.89776 2.68268 6.61103C2.04813 6.59169 1.44908 6.41081 0.925467 6.11504V6.16395C0.925467 8.09104 2.26223 9.69846 4.03719 10.0625C3.71216 10.1558 3.36937 10.2024 3.01548 10.2024C2.76588 10.2024 2.52182 10.1785 2.28553 10.1319C2.77919 11.7109 4.21025 12.861 5.90756 12.8917C4.58078 13.9588 2.90788 14.5947 1.09187 14.5947C0.779033 14.5947 0.469524 14.5765 0.166672 14.5401C1.88284 15.6663 3.92182 16.325 6.11057 16.325C13.2437 16.325 17.1431 10.2673 17.1431 5.01271C17.1431 4.83979 17.1397 4.66688 17.1331 4.49738C17.8908 3.93654 18.5486 3.23692 19.0667 2.43947" fill="white"/>
</svg>
