<svg width="18" height="18" viewBox="0 0 18 18" fill="none" xmlns="http://www.w3.org/2000/svg">
<path fill-rule="evenodd" clip-rule="evenodd" d="M9.05002 0C6.67365 0 6.37567 0.0100726 5.44239 0.0526555C4.51105 0.0951342 3.87499 0.243063 3.31842 0.459381C2.74303 0.682959 2.25506 0.98215 1.76859 1.46859C1.28215 1.95506 0.982962 2.44303 0.759384 3.01842C0.543066 3.57498 0.395137 4.21105 0.352659 5.14239C0.310076 6.07567 0.300003 6.37364 0.300003 8.75002C0.300003 11.1264 0.310076 11.4243 0.352659 12.3576C0.395137 13.2889 0.543066 13.925 0.759384 14.4816C0.982962 15.057 1.28215 15.5449 1.76859 16.0314C2.25506 16.5178 2.74303 16.817 3.31842 17.0407C3.87499 17.2569 4.51105 17.4049 5.44239 17.4473C6.37567 17.4899 6.67365 17.5 9.05002 17.5C11.4264 17.5 11.7243 17.4899 12.6576 17.4473C13.589 17.4049 14.225 17.2569 14.7816 17.0407C15.357 16.817 15.8449 16.5178 16.3314 16.0314C16.8179 15.5449 17.117 15.057 17.3407 14.4816C17.5569 13.925 17.7049 13.2889 17.7473 12.3576C17.7899 11.4243 17.8 11.1264 17.8 8.75002C17.8 6.37364 17.7899 6.07567 17.7473 5.14239C17.7049 4.21105 17.5569 3.57498 17.3407 3.01842C17.117 2.44303 16.8179 1.95506 16.3314 1.46859C15.8449 0.98215 15.357 0.682959 14.7816 0.459381C14.225 0.243063 13.589 0.0951342 12.6576 0.0526555C11.7243 0.0100726 11.4264 0 9.05002 0ZM9.05002 1.57658C11.3863 1.57658 11.6631 1.5855 12.5858 1.6276C13.4389 1.6665 13.9022 1.80905 14.2105 1.92888C14.6189 2.08761 14.9104 2.27722 15.2166 2.58342C15.5228 2.8896 15.7124 3.18108 15.8711 3.5895C15.991 3.89783 16.1335 4.36114 16.1724 5.21425C16.2145 6.13691 16.2234 6.41366 16.2234 8.75002C16.2234 11.0863 16.2145 11.3631 16.1724 12.2858C16.1335 13.1389 15.991 13.6022 15.8711 13.9105C15.7124 14.3189 15.5228 14.6104 15.2166 14.9166C14.9104 15.2228 14.6189 15.4124 14.2105 15.5711C13.9022 15.691 13.4389 15.8335 12.5858 15.8724C11.6632 15.9145 11.3865 15.9234 9.05002 15.9234C6.71348 15.9234 6.4368 15.9145 5.51425 15.8724C4.66113 15.8335 4.19783 15.691 3.8895 15.5711C3.48108 15.4124 3.18959 15.2228 2.88342 14.9166C2.57725 14.6104 2.38761 14.3189 2.22887 13.9105C2.10905 13.6022 1.9665 13.1389 1.9276 12.2858C1.8855 11.3631 1.87658 11.0863 1.87658 8.75002C1.87658 6.41366 1.8855 6.13691 1.9276 5.21425C1.9665 4.36114 2.10905 3.89783 2.22887 3.5895C2.38761 3.18108 2.57721 2.8896 2.88342 2.58342C3.18959 2.27722 3.48108 2.08761 3.8895 1.92888C4.19783 1.80905 4.66113 1.6665 5.51425 1.6276C6.4369 1.5855 6.71366 1.57658 9.05002 1.57658ZM4.55676 8.75001C4.55676 6.26843 6.56844 4.25675 9.05002 4.25675C11.5316 4.25675 13.5432 6.26843 13.5432 8.75001C13.5432 11.2316 11.5316 13.2432 9.05002 13.2432C6.56844 13.2432 4.55676 11.2316 4.55676 8.75001ZM9.05002 11.6667C7.43917 11.6667 6.13334 10.3608 6.13334 8.75002C6.13334 7.13916 7.43917 5.83333 9.05002 5.83333C10.6608 5.83333 11.9667 7.13916 11.9667 8.75002C11.9667 10.3608 10.6608 11.6667 9.05002 11.6667ZM13.7208 5.12922C14.3007 5.12922 14.7708 4.65914 14.7708 4.07924C14.7708 3.49933 14.3007 3.02922 13.7208 3.02922C13.1409 3.02922 12.6708 3.49933 12.6708 4.07924C12.6708 4.65914 13.1409 5.12922 13.7208 5.12922Z" fill="white"/>
</svg>
