<svg width="18" height="18" viewBox="0 0 18 18" fill="none" xmlns="http://www.w3.org/2000/svg">
<path fill-rule="evenodd" clip-rule="evenodd" d="M17.4732 2.78733C17.5975 3.29784 17.6427 3.81741 17.6433 4.3406C17.6447 5.91069 17.6447 7.48057 17.6447 9.05049C17.6447 10.1723 17.6446 11.2941 17.6451 12.4159C17.6457 12.8999 17.6282 13.3839 17.5474 13.8624C17.4931 14.1847 17.4176 14.5021 17.2855 14.8008C16.9964 15.4537 16.5493 15.9739 15.9531 16.3661C15.4576 16.692 14.9091 16.8658 14.3256 16.9406C13.9557 16.9871 13.5851 17.0106 13.2128 17.0106C10.6065 17.0118 8.00023 17.0118 5.39393 17.0118C4.99988 17.0118 4.60583 17.0058 4.21299 16.9684C3.90281 16.9394 3.59506 16.8966 3.29635 16.8066C2.23549 16.4886 1.46488 15.8272 1.00385 14.8207C0.760659 14.2903 0.687038 13.7164 0.651435 13.1389C0.64701 13.0721 0.643121 13.0053 0.639232 12.9385C0.637287 12.9051 0.635343 12.8718 0.633331 12.8384V4.17345C0.634086 4.1644 0.635364 4.15534 0.636642 4.14629C0.638431 4.13362 0.640221 4.12095 0.640573 4.10828C0.648418 3.82767 0.671349 3.54888 0.71178 3.27129C0.761866 2.92914 0.833073 2.59121 0.968849 2.27259C1.36954 1.33241 2.05264 0.678276 3.00126 0.302931C3.49911 0.106207 4.02531 0.0482759 4.55514 0.0181034L4.87738 0H13.4005C13.4083 0.000816991 13.4163 0.00172247 13.4242 0.00263258C13.4457 0.0050836 13.4675 0.00756818 13.4886 0.00844828C13.8609 0.0193103 14.2308 0.0494828 14.5977 0.115259C15.0745 0.200948 15.521 0.365086 15.9277 0.631207C16.7207 1.15017 17.2487 1.86043 17.4732 2.78733ZM13.0904 8.18142C13.0904 7.84394 13.0903 7.50645 13.0903 7.16896C13.0909 5.81483 13.0909 4.46069 13.0897 3.10595C13.0897 3.05284 13.0867 2.99974 13.0813 2.94724C13.0589 2.72638 12.9081 2.58819 12.6884 2.60569C12.5326 2.61828 12.3756 2.64932 12.2209 2.67989L12.2177 2.68052C11.8554 2.75179 11.4937 2.82517 11.1322 2.89852C11.0193 2.92142 10.9065 2.94432 10.7936 2.96715C10.5251 3.02147 10.2567 3.07562 9.98829 3.12978C9.71991 3.18394 9.45153 3.2381 9.18299 3.29241L9.18213 3.29259C8.66285 3.39693 8.14357 3.50126 7.62429 3.60621C7.57897 3.61545 7.53362 3.6244 7.48828 3.63334C7.35009 3.6606 7.21207 3.68783 7.07575 3.72328C6.88265 3.77336 6.73842 3.88862 6.68894 4.09078C6.66842 4.17586 6.65937 4.26578 6.65937 4.35328C6.65816 6.45147 6.65816 8.55026 6.65816 10.6484C6.65816 10.6576 6.6582 10.6665 6.65824 10.6755C6.65835 10.7021 6.65846 10.7282 6.65756 10.7553C6.6461 11.0322 6.50429 11.2024 6.23334 11.2616C6.12417 11.2849 6.01464 11.3069 5.90506 11.3289C5.81111 11.3478 5.71712 11.3667 5.62325 11.3865C5.35653 11.442 5.09101 11.5005 4.83816 11.6067C4.18403 11.8837 3.92032 12.5022 4.0211 13.0785C4.13756 13.7472 4.70179 14.1985 5.38127 14.1732C5.63954 14.1641 5.8948 14.1231 6.14342 14.0513C6.61411 13.9143 6.96291 13.6313 7.16023 13.1763C7.27972 12.8993 7.31291 12.6048 7.31291 12.3067C7.31363 11.2005 7.3137 10.0938 7.31378 8.98708C7.31382 8.24947 7.31387 7.51184 7.31411 6.77431C7.31411 6.76644 7.31407 6.7586 7.31404 6.75079C7.31392 6.72749 7.31381 6.70443 7.31472 6.68138C7.32377 6.47862 7.39498 6.38871 7.5911 6.3344C7.59395 6.3336 7.59684 6.33277 7.59977 6.33193C7.60798 6.32956 7.61644 6.32712 7.62489 6.32534C7.78723 6.29245 7.94957 6.25971 8.11191 6.22697C8.27423 6.19424 8.43654 6.16151 8.59886 6.12862C8.80549 6.08693 9.01204 6.04516 9.21854 6.00339C9.56202 5.93392 9.90535 5.86448 10.2487 5.79552C10.3354 5.77801 10.4222 5.76048 10.509 5.74296C10.9605 5.65176 11.4121 5.56055 11.8641 5.47147C11.9758 5.44914 12.0874 5.43103 12.2008 5.4244C12.3107 5.41836 12.3885 5.48353 12.4163 5.59034C12.4271 5.63259 12.4344 5.67724 12.4344 5.72129C12.4356 7.00724 12.4356 8.29319 12.435 9.57974C12.435 9.6256 12.4314 9.67207 12.4223 9.71672C12.3843 9.91888 12.2545 10.0378 12.0602 10.0824C11.8995 10.1195 11.7379 10.1527 11.5762 10.1858C11.4696 10.2077 11.3629 10.2296 11.2564 10.2526C11.009 10.3057 10.764 10.3691 10.5347 10.4825C9.95963 10.7643 9.69773 11.3678 9.79791 11.9151C9.9186 12.5783 10.5015 13.0357 11.1762 13.0037C11.4339 12.9922 11.6867 12.9518 11.9341 12.8812C12.3783 12.7551 12.7132 12.492 12.9177 12.0732C13.0493 11.8041 13.0897 11.5138 13.0897 11.2181C13.0906 10.2061 13.0905 9.19382 13.0904 8.18142Z" fill="white"/>
</svg>
