<svg xmlns="http://www.w3.org/2000/svg" xmlns:xlink="http://www.w3.org/1999/xlink" width="97.206" height="27.834" viewBox="0 0 97.206 27.834">
  <defs>
    <clipPath id="clip-path">
      <path id="Clip_2" data-name="Clip 2" d="M0,0H97.206V27.834H0Z" transform="translate(0 -0.001)" fill="none"/>
    </clipPath>
  </defs>
  <g id="Group_3" data-name="Group 3" transform="translate(0 0.001)">
    <path id="Clip_2-2" data-name="Clip 2" d="M0,0H97.206V27.834H0Z" transform="translate(0 -0.001)" fill="none"/>
    <g id="Group_3-2" data-name="Group 3" clip-path="url(#clip-path)">
      <path id="Fill_1" data-name="Fill 1" d="M34.826,27.835a12.507,12.507,0,0,1-9.553-3.963,12.892,12.892,0,0,1-2.6-4.409,16.566,16.566,0,0,1-.907-5.543,16.572,16.572,0,0,1,.907-5.544,12.9,12.9,0,0,1,2.6-4.41A12.506,12.506,0,0,1,34.826,0a12.5,12.5,0,0,1,9.552,3.965,12.9,12.9,0,0,1,2.6,4.41,16.58,16.58,0,0,1,.907,5.544,16.574,16.574,0,0,1-.907,5.543,12.891,12.891,0,0,1-2.6,4.409A12.5,12.5,0,0,1,34.826,27.835Zm0-24.923a8.935,8.935,0,0,0-7.165,3.152A12.163,12.163,0,0,0,25.2,13.919a12.1,12.1,0,0,0,2.463,7.835,8.952,8.952,0,0,0,7.165,3.134,8.95,8.95,0,0,0,7.163-3.134,12.1,12.1,0,0,0,2.464-7.835,12.163,12.163,0,0,0-2.464-7.855A8.932,8.932,0,0,0,34.826,2.912ZM61.787,27.686a11.5,11.5,0,0,1-7.294-2.094c-1.943-1.542-2.929-3.875-2.929-6.935V.6h3.357V18.321a6.3,6.3,0,0,0,1.836,4.954A7.583,7.583,0,0,0,61.9,24.814c4.482,0,6.754-2.184,6.754-6.493V.6h3.36V18.657c0,3.05-1,5.383-2.971,6.935A11.634,11.634,0,0,1,61.787,27.686Zm17.991-.407H76.422V.6H88.884a8.178,8.178,0,0,1,5.7,2.02,7.01,7.01,0,0,1,2.174,5.294c0,3.382-1.556,5.6-4.626,6.6v.113c2.6.925,3.568,2.639,3.842,6.791.313,4.5.8,5.409,1.235,5.709v.148H93.582c-.552-.481-.668-1.488-.967-5.97-.132-1.984-.6-3.294-1.46-4.121a5.445,5.445,0,0,0-3.95-1.181H79.778V27.278Zm0-23.77v9.775H87.69a6.08,6.08,0,0,0,4.2-1.311,4.6,4.6,0,0,0,1.4-3.576,4.788,4.788,0,0,0-1.236-3.662,5.887,5.887,0,0,0-4.175-1.226ZM12.239,27.278H8.882V3.547H0V.6H21.121V3.547H12.239v23.73Z" transform="translate(-0.001 -0.002)" fill="#00b640"/>
    </g>
  </g>
</svg>
