<svg xmlns="http://www.w3.org/2000/svg" xmlns:xlink="http://www.w3.org/1999/xlink" width="256.401" height="61.082" viewBox="0 0 256.401 61.082">
  <defs>
    <clipPath id="clip-path">
      <path id="Clip_2" data-name="Clip 2" d="M0,0H149.734V27.553H0Z" transform="translate(0.001 0.001)" fill="none"/>
    </clipPath>
    <clipPath id="clip-path-2">
      <path id="Clip_2-2" data-name="Clip 2" d="M0,0H256.4V27.393H0Z" transform="translate(0.001 0)" fill="none"/>
    </clipPath>
  </defs>
  <g id="Group_2" data-name="Group 2" transform="translate(-0.001 -0.312)">
    <g id="Group_3" data-name="Group 3" transform="translate(54.158 0.311)">
      <path id="Clip_2-3" data-name="Clip 2" d="M0,0H149.734V27.553H0Z" transform="translate(0.001 0.001)" fill="none"/>
      <g id="Group_3-2" data-name="Group 3" clip-path="url(#clip-path)">
        <path id="Fill_1" data-name="Fill 1" d="M35.917,27.553a11.691,11.691,0,0,1-7.42-2.131c-1.977-1.569-2.979-3.943-2.979-7.056V0h3.415V18.025a6.4,6.4,0,0,0,1.87,5.039,7.717,7.717,0,0,0,5.228,1.565c4.559,0,6.871-2.222,6.871-6.6V0h3.415V18.366c0,3.1-1.017,5.477-3.022,7.056A11.828,11.828,0,0,1,35.917,27.553ZM51.4,27.137h-3.49L57.892,0h3.832L71.745,27.135H68.024L65.141,18.86H54.325L51.4,27.136ZM59.79,3.149c-.03.094-.734,2.314-1.253,3.832l-3.228,9.11h8.883l-3.11-9.11c-.526-1.5-1.208-3.809-1.215-3.832Zm80,23.987h-3.415v-11.5L126.548,0h3.794l7.781,12.9h.073L146.092,0h3.646l-9.946,15.711V27.135Zm-24.2,0h-3.417V3H103.14V0h21.484V3h-9.031V27.135Zm-16.07,0H96.109V0h3.414V27.135Zm-7.037,0H74.84V0h3.415V23.984H92.486v3.151Zm-82.885,0H0V0H9.867c3.942,0,7,1.274,9.076,3.786A12.052,12.052,0,0,1,21.166,8.1a19.711,19.711,0,0,1,.732,5.56,18.545,18.545,0,0,1-.774,5.532,11.737,11.737,0,0,1-2.314,4.251,10.151,10.151,0,0,1-3.844,2.728A14.123,14.123,0,0,1,9.6,27.136ZM3.415,2.959v21.18H9.487c5.918,0,8.918-3.525,8.918-10.478,0-3.372-.651-5.977-1.935-7.742-1.428-1.964-3.688-2.96-6.717-2.96Z" transform="translate(0.001 0.001)" fill="#e83323"/>
      </g>
    </g>
    <g id="Group_3-3" data-name="Group 3" transform="translate(0 34)">
      <path id="Clip_2-4" data-name="Clip 2" d="M0,0H256.4V27.393H0Z" transform="translate(0.001 0)" fill="none"/>
      <g id="Group_3-4" data-name="Group 3" clip-path="url(#clip-path-2)">
        <path id="Fill_1-2" data-name="Fill 1" d="M246.7,27.394c-3.529,0-6.319-.918-8.291-2.728a9.581,9.581,0,0,1-2.954-6.71h3.247a7.24,7.24,0,0,0,2.371,5.065,8.782,8.782,0,0,0,5.775,1.719,7.525,7.525,0,0,0,4.5-1.24,4.413,4.413,0,0,0,1.765-3.7,3.951,3.951,0,0,0-2.175-3.716,21.21,21.21,0,0,0-5.714-1.777,17.4,17.4,0,0,1-6.057-2.19A5.807,5.807,0,0,1,236.6,6.97a6.2,6.2,0,0,1,2.475-5.116A10.614,10.614,0,0,1,245.561,0c3.127,0,5.557.769,7.223,2.285a9.482,9.482,0,0,1,2.768,5.935h-3.129c-.474-3.689-2.82-5.639-6.785-5.639a7.6,7.6,0,0,0-4.31,1.1A3.672,3.672,0,0,0,239.7,6.822a3.386,3.386,0,0,0,1.967,3.152,17.224,17.224,0,0,0,4.925,1.493,19.82,19.82,0,0,1,6.826,2.273,6.564,6.564,0,0,1,2.982,5.948,6.9,6.9,0,0,1-2.719,5.707A11.412,11.412,0,0,1,246.7,27.394Zm-163.851,0c-3.528,0-6.317-.918-8.29-2.728a9.58,9.58,0,0,1-2.955-6.71h3.246a7.25,7.25,0,0,0,2.373,5.065A8.78,8.78,0,0,0,83,24.741a7.523,7.523,0,0,0,4.5-1.24,4.413,4.413,0,0,0,1.764-3.7,3.951,3.951,0,0,0-2.175-3.716,21.214,21.214,0,0,0-5.716-1.777,17.4,17.4,0,0,1-6.054-2.19A5.807,5.807,0,0,1,72.751,6.97a6.2,6.2,0,0,1,2.476-5.116A10.613,10.613,0,0,1,81.709,0c3.126,0,5.556.769,7.223,2.285A9.478,9.478,0,0,1,91.7,8.221H88.568c-.471-3.689-2.816-5.639-6.782-5.639a7.593,7.593,0,0,0-4.31,1.1A3.672,3.672,0,0,0,75.85,6.822a3.386,3.386,0,0,0,1.967,3.152,17.219,17.219,0,0,0,4.925,1.493,19.831,19.831,0,0,1,6.826,2.273,6.564,6.564,0,0,1,2.983,5.948,6.9,6.9,0,0,1-2.719,5.707A11.416,11.416,0,0,1,82.853,27.394Zm-23.247,0c-3.528,0-6.317-.918-8.29-2.728a9.58,9.58,0,0,1-2.955-6.71h3.246a7.25,7.25,0,0,0,2.373,5.065,8.78,8.78,0,0,0,5.774,1.719,7.523,7.523,0,0,0,4.5-1.24,4.413,4.413,0,0,0,1.765-3.7,3.951,3.951,0,0,0-2.175-3.716,21.214,21.214,0,0,0-5.716-1.777,17.4,17.4,0,0,1-6.054-2.19A5.807,5.807,0,0,1,49.5,6.97a6.2,6.2,0,0,1,2.476-5.116A10.613,10.613,0,0,1,58.462,0c3.126,0,5.556.769,7.223,2.285a9.477,9.477,0,0,1,2.771,5.935H65.321c-.471-3.689-2.816-5.639-6.782-5.639a7.6,7.6,0,0,0-4.31,1.1A3.672,3.672,0,0,0,52.6,6.822,3.386,3.386,0,0,0,54.57,9.974,17.226,17.226,0,0,0,59.5,11.467a19.831,19.831,0,0,1,6.826,2.273A6.564,6.564,0,0,1,69.3,19.688a6.9,6.9,0,0,1-2.719,5.707A11.416,11.416,0,0,1,59.606,27.394Zm-24.569-.111a11.364,11.364,0,0,1-7.208-2.069c-1.92-1.523-2.894-3.829-2.894-6.853V.517h3.32V18.031a6.22,6.22,0,0,0,1.815,4.894,7.493,7.493,0,0,0,5.078,1.521c4.428,0,6.673-2.158,6.673-6.415V.517h3.317V18.362A8.226,8.226,0,0,1,42.2,25.215,11.5,11.5,0,0,1,35.037,27.284Zm136.534-.405H168.18L177.88.517h3.72l9.732,26.36h-3.609l-2.8-8.036H174.412l-2.84,8.036Zm8.15-23.3c-.03.093-.719,2.262-1.218,3.722l-3.136,8.848H184L180.972,7.3c-.509-1.454-1.171-3.7-1.177-3.722Zm53.881,23.3H214.539V.517h18.62V3.428h-15.3v8.334h13.9v2.8h-13.9v9.256H233.6v3.058Zm-31.726,0H198.56V15.71L189.011.517H192.7l7.559,12.536h.071L208,.517h3.542L201.876,15.78v11.1Zm-46.208,0h-9.328V.517h9.586c3.829,0,6.8,1.237,8.816,3.678a11.711,11.711,0,0,1,2.16,4.193,19.149,19.149,0,0,1,.712,5.4c0,3.968-1.038,7.253-3,9.5a9.866,9.866,0,0,1-3.735,2.65A13.718,13.718,0,0,1,155.669,26.878Zm-6.01-23.484V23.966h5.9c5.749,0,8.663-3.424,8.663-10.175,0-3.275-.633-5.806-1.881-7.521-1.388-1.908-3.583-2.875-6.524-2.875h-6.158ZM122.47,26.878h-3.317V.517h17.879V3.428H122.47v8.223H134.6v2.8H122.47V26.877Zm-7.2,0H96.207V.517h18.617V3.428h-15.3v8.334h13.9v2.8h-13.9v9.256h15.744v3.058Zm-102.4,0H9.548V15.71L0,.517H3.686l7.556,12.536h.073L18.986.517h3.538L12.865,15.78v11.1Z" transform="translate(0.001 -0.001)" fill="#fff"/>
      </g>
    </g>
  </g>
</svg>
