<svg xmlns="http://www.w3.org/2000/svg" xmlns:xlink="http://www.w3.org/1999/xlink" width="136.26" height="27.797" viewBox="0 0 136.26 27.797">
  <defs>
    <clipPath id="clip-path">
      <path id="Clip_2" data-name="Clip 2" d="M0,0H136.26V27.8H0Z" transform="translate(0.002 0)" fill="none"/>
    </clipPath>
  </defs>
  <g id="Group_3" data-name="Group 3" transform="translate(-0.002 0)">
    <path id="Clip_2-2" data-name="Clip 2" d="M0,0H136.26V27.8H0Z" transform="translate(0.002 0)" fill="none"/>
    <g id="Group_3-2" data-name="Group 3" clip-path="url(#clip-path)">
      <path id="Fill_1" data-name="Fill 1" d="M45.089,27.8a12.806,12.806,0,0,1-5.123-1.018,11.385,11.385,0,0,1-3.958-2.848,12.846,12.846,0,0,1-2.552-4.365,16.736,16.736,0,0,1-.9-5.572A17.711,17.711,0,0,1,33.376,8.5a12.922,12.922,0,0,1,2.445-4.443A12.141,12.141,0,0,1,45.388,0a11.44,11.44,0,0,1,7.43,2.333,9.948,9.948,0,0,1,3.428,6.25H52.774a6.888,6.888,0,0,0-2.429-4.165,7.967,7.967,0,0,0-5.032-1.506,9.78,9.78,0,0,0-4.165.85A7.815,7.815,0,0,0,38.241,6.1a12.839,12.839,0,0,0-2.258,7.892,11.949,11.949,0,0,0,2.58,7.9A8.419,8.419,0,0,0,41.479,24.1a8.885,8.885,0,0,0,3.723.784,7.862,7.862,0,0,0,6.087-2.424,8.516,8.516,0,0,0,1.973-5.783v-.637H45.239V13.136h11.38V27.241H54.454l-.97-3.51h-.072a9.364,9.364,0,0,1-3.574,3.055A10.833,10.833,0,0,1,45.089,27.8Zm-33.709-.034c-3.571,0-6.394-.929-8.391-2.762A9.7,9.7,0,0,1,0,18.21H3.282a7.337,7.337,0,0,0,2.4,5.126,8.89,8.89,0,0,0,5.846,1.74,7.613,7.613,0,0,0,4.556-1.255,4.465,4.465,0,0,0,1.787-3.744,4,4,0,0,0-2.2-3.759,21.554,21.554,0,0,0-5.784-1.8A17.59,17.59,0,0,1,3.759,12.3a5.877,5.877,0,0,1-2.6-5.21,6.272,6.272,0,0,1,2.5-5.177A10.74,10.74,0,0,1,10.223.037c3.163,0,5.622.779,7.309,2.314a9.6,9.6,0,0,1,2.8,6.008H17.164a6.318,6.318,0,0,0-2.146-4.281A7.277,7.277,0,0,0,10.3,2.651a7.682,7.682,0,0,0-4.36,1.11A3.715,3.715,0,0,0,4.29,6.941a3.427,3.427,0,0,0,1.991,3.19,17.43,17.43,0,0,0,4.987,1.51,20.054,20.054,0,0,1,6.908,2.3,6.646,6.646,0,0,1,3.018,6.022,6.983,6.983,0,0,1-2.751,5.775A11.546,11.546,0,0,1,11.381,27.763Zm91.156-.115a11.512,11.512,0,0,1-7.3-2.093c-1.945-1.541-2.931-3.875-2.931-6.935V.56H95.67V18.284a6.3,6.3,0,0,0,1.837,4.954,7.582,7.582,0,0,0,5.138,1.539c4.482,0,6.755-2.184,6.755-6.493V.56h3.36V18.62c0,3.05-1,5.383-2.971,6.935A11.635,11.635,0,0,1,102.536,27.648Zm-38.3-.406H61.106V.56h3.543L76.813,19.105c.885,1.364,1.931,3.411,1.941,3.432h.072V.56h3.136V27.24H78.53L66.291,8.658c-.844-1.284-1.967-3.3-1.978-3.319h-.075v21.9Zm56.128,0h-3.357V.56h11.119a7.942,7.942,0,0,1,6.34,2.576A7.652,7.652,0,0,1,136.26,8.21a7.563,7.563,0,0,1-2.126,5.75c-1.464,1.383-3.648,2.084-6.492,2.084h-7.276v11.2Zm0-23.769v9.85h7.016a5.959,5.959,0,0,0,4.192-1.333,4.742,4.742,0,0,0,1.367-3.629c0-3.151-1.909-4.887-5.376-4.887ZM28.479,27.238H25.123V.56h3.356V27.237Z" transform="translate(0.002 -0.001)" fill="#e83323"/>
    </g>
  </g>
</svg>
