<svg xmlns="http://www.w3.org/2000/svg" viewBox="0 0 266 266">
  <defs>
    <filter id="a" width="201.4" height="201.4" x="32.6" y="35.6" filterUnits="userSpaceOnUse">
      <feOffset dy="3"/>
      <feGaussianBlur result="blur" stdDeviation="3"/>
      <feFlood flood-color="#100d0d" flood-opacity=".8"/>
      <feComposite in2="blur" operator="in"/>
      <feComposite in="SourceGraphic"/>
    </filter>
  </defs>
  <g data-name="Group 304">
    <g data-name="Group 303">
      <g data-name="noun_pause button_901855">
        <g data-name="Group 302" opacity=".7">
          <g filter="url(#a)">
            <path fill="#fff" d="M133.4 41.6a91.7 91.7 0 1091.7 91.8 91.7 91.7 0 00-91.7-91.8zM124.7 157a17.3 17.3 0 11-34.5 0v-47a17.3 17.3 0 0134.5 0zm51.9 0a17.3 17.3 0 11-34.5 0v-47a17.3 17.3 0 0134.5 0z" data-name="Path 925"/>
          </g>
          <path fill="#fff" d="M133.4 226.7a93.4 93.4 0 1193.3-93.3 93.5 93.5 0 01-93.3 93.3zm0-184.6a91.3 91.3 0 1091.3 91.3A91.4 91.4 0 00133.4 42zm26 133.3a18.4 18.4 0 01-18.3-18.4v-47.3a18.4 18.4 0 0136.8 0V157a18.4 18.4 0 01-18.4 18.4zm0-82a16.4 16.4 0 00-16.3 16.3V157a16.3 16.3 0 0032.7 0v-47.3a16.4 16.4 0 00-16.3-16.3zm-52.2 82A18.4 18.4 0 0188.8 157v-47.3a18.4 18.4 0 0136.8 0V157a18.4 18.4 0 01-18.4 18.4zm0-82A16.4 16.4 0 0091 109.7V157a16.3 16.3 0 0032.7 0v-47.3a16.4 16.4 0 00-16.4-16.3z" data-name="Path 926"/>
        </g>
      </g>
      <g fill="none" stroke="#fff" stroke-width="14" data-name="Ellipse 820">
        <circle cx="133" cy="133" r="133" stroke="none"/>
        <circle cx="133" cy="133" r="126"/>
      </g>
    </g>
  </g>
</svg>
