<svg xmlns="http://www.w3.org/2000/svg" xmlns:xlink="http://www.w3.org/1999/xlink" width="266" height="266" viewBox="0 0 266 266">
  <defs>
    <filter id="Path_925" x="32.65" y="35.65" width="201.44" height="201.44" filterUnits="userSpaceOnUse">
      <feOffset dy="3" input="SourceAlpha"/>
      <feGaussianBlur stdDeviation="3" result="blur"/>
      <feFlood flood-color="#100d0d" flood-opacity="0.757"/>
      <feComposite operator="in" in2="blur"/>
      <feComposite in="SourceGraphic"/>
    </filter>
  </defs>
  <g id="Group_304" data-name="Group 304" transform="translate(-3290 -2461)">
    <g id="Group_303" data-name="Group 303">
      <g id="noun_pause_button_901855" data-name="noun_pause button_901855" transform="translate(3325.5 2496.5)" opacity="0.675">
        <g id="Group_302" data-name="Group 302" transform="translate(4.5 4.5)">
          <g transform="matrix(1, 0, 0, 1, -40, -40)" filter="url(#Path_925)">
            <path id="Path_925-2" data-name="Path 925" d="M96.72,5a91.72,91.72,0,1,0,91.72,91.72A91.72,91.72,0,0,0,96.72,5ZM88.031,120.229a17.256,17.256,0,1,1-34.511,0V73.209a17.256,17.256,0,0,1,34.511,0Zm51.887,0a17.256,17.256,0,1,1-34.511,0V73.209a17.256,17.256,0,0,1,34.511,0Z" transform="translate(36.65 36.65)" fill="#fff"/>
          </g>
          <path id="Path_926" data-name="Path 926" d="M97.87,191.24a93.37,93.37,0,1,1,93.37-93.37A93.475,93.475,0,0,1,97.87,191.24Zm0-184.688A91.318,91.318,0,1,0,189.188,97.87,91.422,91.422,0,0,0,97.87,6.552Zm26.121,133.386a18.421,18.421,0,0,1-18.4-18.4V74.2a18.4,18.4,0,0,1,36.8,0v47.34A18.422,18.422,0,0,1,123.991,139.938Zm0-82.084A16.364,16.364,0,0,0,107.644,74.2v47.34a16.347,16.347,0,0,0,32.694,0V74.2A16.366,16.366,0,0,0,123.991,57.854ZM71.749,139.938a18.421,18.421,0,0,1-18.4-18.4V74.2a18.4,18.4,0,0,1,36.8,0v47.34A18.42,18.42,0,0,1,71.749,139.938Zm0-82.084A16.364,16.364,0,0,0,55.4,74.2v47.34a16.347,16.347,0,0,0,32.694,0V74.2A16.364,16.364,0,0,0,71.749,57.854Z" transform="translate(-4.5 -4.5)" fill="#fff"/>
        </g>
      </g>
      <g id="Ellipse_820" data-name="Ellipse 820" transform="translate(3290 2461)" fill="none" stroke="#fff" stroke-width="14">
        <circle cx="133" cy="133" r="133" stroke="none"/>
        <circle cx="133" cy="133" r="126" fill="none"/>
      </g>
    </g>
  </g>
</svg>
