<?xml version="1.0" encoding="utf-8"?>
<!-- Generator: Adobe Illustrator 15.0.0, SVG Export Plug-In . SVG Version: 6.00 Build 0)  -->
<!DOCTYPE svg PUBLIC "-//W3C//DTD SVG 1.1//EN" "http://www.w3.org/Graphics/SVG/1.1/DTD/svg11.dtd">
<svg version="1.1" id="Ebene_1" xmlns="http://www.w3.org/2000/svg" xmlns:xlink="http://www.w3.org/1999/xlink" x="0px" y="0px"
	 width="600px" height="800px" viewBox="0 0 600 800" enable-background="new 0 0 600 800" xml:space="preserve">
<path fill="#0083CA" d="M600,663c0,75.663-61.337,137-137,137H137C61.337,800,0,738.663,0,663V137C0,61.337,61.337,0,137,0h208
	l255,255V663z"/>
<g>
	<defs>
		<rect id="SVGID_1_" x="0" y="0" width="600" height="800"/>
	</defs>
	<clipPath id="SVGID_2_">
		<use xlink:href="#SVGID_1_"  overflow="visible"/>
	</clipPath>
</g>
<g>
	<defs>
		<rect id="SVGID_3_" x="0" y="0" width="600" height="800"/>
	</defs>
	<clipPath id="SVGID_4_">
		<use xlink:href="#SVGID_3_"  overflow="visible"/>
	</clipPath>
	<path clip-path="url(#SVGID_4_)" fill="#FFFFFF" d="M442.997,471.593v-79.5h64.75v-22h-64.75v-51h67.75v-22h-92.75v174.5H442.997z
		 M291.752,319.092c18.5,0,33.664,5.669,45.5,17c12.164,12,18.25,27.919,18.25,47.75c0,43.837-22.25,65.75-66.75,65.75h-26.25
		v-130.5H291.752z M289.002,471.593c29.164,0,51.957-7.582,68.375-22.75c16.414-15.164,24.625-37.164,24.625-66
		c0-26.164-9-47.164-27-63c-17.336-15.164-39.336-22.75-66-22.75h-51.5v174.5H289.002z M123.502,471.593v-69.75h24.5
		c17.664,0,31.914-3.914,42.75-11.75c12.664-9.164,19-22.75,19-40.75c0-34.832-21.836-52.25-65.5-52.25h-45.75v174.5H123.502z
		 M144.752,319.092c9.5,0,17.832,2.25,25,6.75c9,5.5,13.5,13.25,13.5,23.25c0,10.5-3.918,18.5-11.75,24
		c-6.336,4.5-14.086,6.75-23.25,6.75h-24.75v-60.75H144.752z"/>
</g>
<g>
	<defs>
		<rect id="SVGID_5_" x="0" y="0" width="600" height="800"/>
	</defs>
	<clipPath id="SVGID_6_">
		<use xlink:href="#SVGID_5_"  overflow="visible"/>
	</clipPath>
	<path clip-path="url(#SVGID_6_)" fill="#FFFFFF" d="M502.213,606.094c0,0-11.202,1.921-34.067,3.08V523.54c0,0,0-12-12-12h-47.498
		c0,0-12,0-12,12v85.331c-23.11-1.628-34.135-4.391-34.135-4.391c-17.942-1.436-7.481,13.213-7.481,13.213l66.771,93.491
		c10.461,14.646,20.922,0,20.922,0l66.77-93.491C519.952,603.046,502.213,606.094,502.213,606.094"/>
</g>
<g>
	<defs>
		<rect id="SVGID_7_" x="0" y="0" width="600" height="800"/>
	</defs>
	<clipPath id="SVGID_8_">
		<use xlink:href="#SVGID_7_"  overflow="visible"/>
	</clipPath>
</g>
<path fill="#004E79" d="M345,0L345,0v118c0,75.663,61.337,137,137,137h118L345,0z"/>
</svg>
