<?xml version="1.0" encoding="utf-8"?>
<!-- Generator: Adobe Illustrator 16.0.0, SVG Export Plug-In . SVG Version: 6.00 Build 0)  -->
<!DOCTYPE svg PUBLIC "-//W3C//DTD SVG 1.1//EN" "http://www.w3.org/Graphics/SVG/1.1/DTD/svg11.dtd">
<svg version="1.1" id="Layer_1" xmlns="http://www.w3.org/2000/svg" xmlns:xlink="http://www.w3.org/1999/xlink" x="0px" y="0px"
	 width="27.854px" height="24.865px" viewBox="-1.242 -3.802 27.854 24.865" enable-background="new -1.242 -3.802 27.854 24.865"
	 xml:space="preserve">
<polygon fill="#FFFFFF" points="22.66,9.668 22.66,4.668 18.66,3.168 14.66,4.668 14.66,9.668 "/>
<polygon fill="#FFFFFF" points="20.66,1.168 18.66,2.168 16.66,1.168 16.66,-1.332 18.66,-2.332 20.66,-1.332 "/>
<polygon fill="#FFFFFF" points="8.66,4.668 6.16,6.168 3.66,4.668 3.66,1.668 6.16,0.168 8.66,1.668 "/>
<polygon fill="#FFFFFF" points="8.66,19.667 8.66,13.667 10.66,13.667 10.66,8.668 6.16,7.168 1.66,8.668 1.66,13.667 3.66,13.667 
	3.66,19.667 "/>
<polygon fill="#FFF219" points="18.66,-2.332 18.66,2.168 20.66,1.168 20.66,-1.332 "/>
<polygon fill="#FFF219" points="18.66,3.168 18.66,9.668 22.66,9.668 22.66,4.668 "/>
<polygon fill="#FFF219" points="8.66,4.668 6.16,6.168 6.16,0.168 8.66,1.668 "/>
<polygon fill="#FFF219" points="6.16,7.168 6.16,19.667 8.66,19.667 8.66,13.667 10.66,13.667 10.66,8.668 "/>
<line fill="none" stroke="#0B00EA" stroke-linecap="round" stroke-linejoin="round" stroke-miterlimit="10" x1="24.66" y1="9.668" x2="12.66" y2="9.668"/>
<line fill="none" stroke="#0B00EA" stroke-linecap="round" stroke-linejoin="round" stroke-miterlimit="10" x1="24.66" y1="11.667" x2="12.66" y2="11.667"/>
<polygon fill="none" stroke="#0B00EA" stroke-linecap="round" stroke-linejoin="round" stroke-miterlimit="10" points="20.66,1.168 
	18.66,2.168 16.66,1.168 16.66,-1.332 18.66,-2.332 20.66,-1.332 "/>
<polygon fill="none" stroke="#0B00EA" stroke-linecap="round" stroke-linejoin="round" stroke-miterlimit="10" points="8.66,4.668 
	6.16,6.168 3.66,4.668 3.66,1.668 6.16,0.168 8.66,1.668 "/>
<polygon fill="none" stroke="#0B00EA" stroke-linecap="round" stroke-linejoin="round" stroke-miterlimit="10" points="8.66,19.667 
	8.66,13.667 10.66,13.667 10.66,8.668 6.16,7.168 1.66,8.668 1.66,13.667 3.66,13.667 3.66,19.667 "/>
<polyline fill="none" stroke="#0B00EA" stroke-linecap="round" stroke-linejoin="round" stroke-miterlimit="10" points="
	22.66,9.668 22.66,4.668 18.66,3.168 14.66,4.668 14.66,9.668 "/>
<line fill="none" stroke="#0B00EA" stroke-linecap="round" stroke-linejoin="round" stroke-miterlimit="10" x1="18.66" y1="5.668" x2="18.66" y2="7.668"/>
</svg>
