<?xml version="1.0" encoding="utf-8"?>
<!-- Generator: Adobe Illustrator 16.0.0, SVG Export Plug-In . SVG Version: 6.00 Build 0)  -->
<!DOCTYPE svg PUBLIC "-//W3C//DTD SVG 1.1//EN" "http://www.w3.org/Graphics/SVG/1.1/DTD/svg11.dtd">
<svg version="1.1" id="Layer_1" xmlns="http://www.w3.org/2000/svg" xmlns:xlink="http://www.w3.org/1999/xlink" x="0px" y="0px"
	 width="26.77px" height="34.131px" viewBox="-4.844 -4.844 26.77 34.131" enable-background="new -4.844 -4.844 26.77 34.131"
	 xml:space="preserve">
<g>
	<g>
		<path fill="none" stroke="#0B00EA" stroke-linecap="round" stroke-linejoin="round" d="M6.479,5.195
			c0.163-0.03,0.328-0.057,0.493-0.081"/>
		<path fill="none" stroke="#0B00EA" stroke-linecap="round" stroke-linejoin="round" stroke-dasharray="1.0128,2.0256" d="
			M8.995,5.002c6.455,0.193,11.572,5.544,11.458,12.018c-0.087,4.956-3.213,9.146-7.57,10.823"/>
		<path fill="none" stroke="#0B00EA" stroke-linecap="round" stroke-linejoin="round" d="M11.92,28.168
			c-0.16,0.046-0.321,0.089-0.483,0.128"/>
	</g>
</g>
<g>
	<g>
		<path fill="none" stroke="#0B00EA" stroke-linecap="round" stroke-linejoin="round" d="M5.601,28.234
			c-0.162-0.043-0.322-0.089-0.48-0.139"/>
		<path fill="none" stroke="#0B00EA" stroke-linecap="round" stroke-linejoin="round" stroke-dasharray="1.0239,2.0479" d="
			M3.225,27.318c-3.867-1.998-6.48-6.065-6.398-10.712c0.045-2.568,0.906-4.93,2.331-6.843"/>
		<path fill="none" stroke="#0B00EA" stroke-linecap="round" stroke-linejoin="round" d="M-0.195,8.968
			c0.111-0.125,0.224-0.247,0.34-0.366"/>
	</g>
</g>
<g>
	<polygon fill="#FFFFFF" points="2.24,8.849 6.24,2.349 6.24,-1.651 2.24,-4.151 -1.76,-1.651 -1.76,2.349 	"/>
	<polygon fill="#FFF219" points="2.24,-4.151 2.24,-1.651 4.24,-0.401 4.24,1.599 2.24,2.849 2.24,8.849 6.24,2.349 6.24,-1.651 	
		"/>
	<polygon fill="none" stroke="#0B00EA" stroke-linecap="round" stroke-linejoin="round" stroke-miterlimit="10" points="2.24,8.849 
		6.24,2.349 6.24,-1.651 2.24,-4.151 -1.76,-1.651 -1.76,2.349 	"/>
	<polygon fill="none" stroke="#0B00EA" stroke-linecap="round" stroke-linejoin="round" stroke-miterlimit="10" points="4.24,1.599 
		2.24,2.849 0.24,1.599 0.24,-0.401 2.24,-1.651 4.24,-0.401 	"/>
</g>
<g>
	<polygon fill="#FFFFFF" points="8.64,28.452 12.132,22.776 12.132,19.283 8.64,17.101 5.147,19.283 5.147,22.776 	"/>
	<polygon fill="#FFF219" points="8.64,17.101 8.64,19.283 10.386,20.375 10.386,22.122 8.64,23.213 8.64,28.452 12.132,22.776 
		12.132,19.283 	"/>
	<polygon fill="none" stroke="#0B00EA" stroke-linecap="round" stroke-linejoin="round" stroke-miterlimit="10" points="
		8.64,28.452 12.132,22.776 12.132,19.283 8.64,17.101 5.147,19.283 5.147,22.776 	"/>
	<polygon fill="none" stroke="#0B00EA" stroke-linecap="round" stroke-linejoin="round" stroke-miterlimit="10" points="
		10.386,22.122 8.64,23.213 6.893,22.122 6.893,20.375 8.64,19.283 10.386,20.375 	"/>
</g>
<circle fill="#FFFFFF" cx="17.516" cy="9.016" r="3.692"/>
<path fill="#FFF219" d="M20.126,11.627c-1.441,1.441-3.779,1.441-5.223-0.001c-1.441-1.441-1.441-3.779,0-5.222"/>
<circle fill="none" stroke="#0B00EA" stroke-linecap="round" stroke-linejoin="round" stroke-miterlimit="10" cx="17.516" cy="9.016" r="3.692"/>
</svg>
