<?xml version="1.0" encoding="utf-8"?>
<!-- Generator: Adobe Illustrator 16.0.0, SVG Export Plug-In . SVG Version: 6.00 Build 0)  -->
<!DOCTYPE svg PUBLIC "-//W3C//DTD SVG 1.1//EN" "http://www.w3.org/Graphics/SVG/1.1/DTD/svg11.dtd">
<svg version="1.1" id="Layer_1" xmlns="http://www.w3.org/2000/svg" xmlns:xlink="http://www.w3.org/1999/xlink" x="0px" y="0px"
	 width="25.19px" height="20.042px" viewBox="0 -2.119 25.19 20.042" enable-background="new 0 -2.119 25.19 20.042"
	 xml:space="preserve">
<rect x="1.05" y="-0.953" fill="#FFFFFF" width="23" height="17.999"/>
<polygon fill="#FFF219" points="14.192,9.047 16.049,9.047 16.049,15.046 8.049,15.046 8.049,12.787 1.05,17.046 24.049,17.046 
	24.049,3.047 "/>
<g>
	<line fill="none" stroke="#0B00EA" stroke-linecap="round" stroke-miterlimit="10" x1="3.049" y1="1.047" x2="4.049" y2="1.047"/>
	<line fill="none" stroke="#0B00EA" stroke-linecap="round" stroke-miterlimit="10" x1="6.049" y1="1.047" x2="7.049" y2="1.047"/>
	<line fill="none" stroke="#0B00EA" stroke-linecap="round" stroke-miterlimit="10" x1="9.049" y1="1.047" x2="10.049" y2="1.047"/>
	
		<rect x="1.05" y="-0.953" fill="none" stroke="#0B00EA" stroke-linecap="round" stroke-linejoin="round" stroke-miterlimit="10" width="23" height="17.999"/>
	
		<line fill="none" stroke="#0B00EA" stroke-linecap="round" stroke-linejoin="round" stroke-miterlimit="10" x1="1.05" y1="3.047" x2="24.049" y2="3.047"/>
	<g>
		
			<rect x="8.049" y="9.047" fill="none" stroke="#0B00EA" stroke-linecap="round" stroke-linejoin="round" stroke-miterlimit="10" width="8" height="6"/>
		<polyline fill="none" stroke="#0B00EA" stroke-linecap="round" stroke-linejoin="round" stroke-miterlimit="10" points="
			9.049,9.047 9.049,7.547 12.049,6.047 15.049,7.547 15.049,9.047 		"/>
		
			<line fill="none" stroke="#0B00EA" stroke-linecap="round" stroke-linejoin="round" stroke-miterlimit="10" x1="12.049" y1="13.046" x2="12.049" y2="11.046"/>
	</g>
</g>
</svg>
