<?xml version="1.0" encoding="utf-8"?>
<!-- Generator: Adobe Illustrator 16.0.0, SVG Export Plug-In . SVG Version: 6.00 Build 0)  -->
<!DOCTYPE svg PUBLIC "-//W3C//DTD SVG 1.1//EN" "http://www.w3.org/Graphics/SVG/1.1/DTD/svg11.dtd">
<svg version="1.1" id="Layer_1" xmlns="http://www.w3.org/2000/svg" xmlns:xlink="http://www.w3.org/1999/xlink" x="0px" y="0px"
	 width="26.124px" height="24.581px" viewBox="0 -2.119 26.124 24.581" enable-background="new 0 -2.119 26.124 24.581"
	 xml:space="preserve">
<polygon fill="#FFFFFF" points="6.974,20.38 1.225,10.38 6.974,0.381 18.474,0.381 24.224,10.38 18.474,20.38 "/>
<polygon fill="#FFF219" points="6.974,20.38 18.474,0.381 24.224,10.38 18.474,20.38 "/>
<polygon fill="none" stroke="#0B00EA" stroke-linecap="round" stroke-linejoin="round" stroke-miterlimit="10" points="6.974,20.38 
	1.225,10.38 6.974,0.381 18.474,0.381 24.224,10.38 18.474,20.38 "/>
<polygon fill="none" stroke="#0B00EA" stroke-linecap="round" stroke-linejoin="round" stroke-miterlimit="10" points="
	24.224,10.38 6.974,0.381 6.224,11.88 6.974,20.38 16.224,17.88 "/>
<polyline fill="none" stroke="#0B00EA" stroke-linecap="round" stroke-linejoin="round" stroke-miterlimit="10" points="
	18.474,20.38 16.224,17.88 6.224,11.88 1.225,10.38 "/>
<polyline fill="none" stroke="#0B00EA" stroke-linecap="round" stroke-linejoin="round" stroke-miterlimit="10" points="
	6.224,11.88 16.324,5.801 18.474,0.381 "/>
<line fill="none" stroke="#0B00EA" stroke-linecap="round" stroke-linejoin="round" stroke-miterlimit="10" x1="16.224" y1="17.88" x2="16.324" y2="5.801"/>
</svg>
