<?xml version="1.0" encoding="utf-8"?>
<!-- Generator: Adobe Illustrator 16.0.0, SVG Export Plug-In . SVG Version: 6.00 Build 0)  -->
<!DOCTYPE svg PUBLIC "-//W3C//DTD SVG 1.1//EN" "http://www.w3.org/Graphics/SVG/1.1/DTD/svg11.dtd">
<svg version="1.1" id="Layer_1" xmlns="http://www.w3.org/2000/svg" xmlns:xlink="http://www.w3.org/1999/xlink" x="0px" y="0px"
	 width="24.049px" height="25.877px" viewBox="0 -2.119 24.049 25.877" enable-background="new 0 -2.119 24.049 25.877"
	 xml:space="preserve">
<g>
	<polygon fill="#FFFFFF" points="4.006,14.38 2.006,14.38 2.006,17.38 4.006,17.38 7.006,21.38 9.006,21.38 9.006,10.38 
		7.006,10.38 	"/>
	<polygon fill="#FFFFFF" points="20.006,14.38 17.006,10.38 15.006,10.38 15.006,21.38 17.006,21.38 20.006,17.38 22.006,17.38 
		22.006,14.38 	"/>
	<polygon fill="#FFFFFF" points="19.506,2.881 12.006,-0.619 4.506,2.881 5.506,5.381 12.006,2.381 18.506,5.381 	"/>
</g>
<g>
	<polygon fill="#FFF219" points="2.006,15.88 2.006,17.38 4.006,17.38 7.006,21.38 9.006,21.38 9.006,15.88 	"/>
	<polygon fill="#FFF219" points="22.006,15.88 22.006,17.38 20.006,17.38 17.006,21.38 15.006,21.38 15.006,15.88 	"/>
	<polygon fill="#FFF219" points="5.012,4.145 5.506,5.381 12.006,2.381 18.506,5.381 19,4.145 12.006,0.881 	"/>
</g>
<polygon fill="none" stroke="#0B00EA" stroke-linejoin="round" stroke-miterlimit="10" points="7.006,10.38 7.006,21.38 
	4.006,17.38 4.006,14.38 "/>
<polyline fill="none" stroke="#0B00EA" stroke-linejoin="round" stroke-miterlimit="10" points="5.01,4.14 1.007,5.881 
	4.006,10.822 4.006,14.38 "/>
<polyline fill="none" stroke="#0B00EA" stroke-linejoin="round" stroke-miterlimit="10" points="4.006,14.38 2.006,14.38 
	2.006,17.38 4.006,17.38 "/>
<polyline fill="none" stroke="#0B00EA" stroke-linejoin="round" stroke-miterlimit="10" points="7.006,10.38 9.006,10.38 
	9.006,21.38 7.006,21.38 "/>
<polygon fill="none" stroke="#0B00EA" stroke-linejoin="round" stroke-miterlimit="10" points="17.006,10.38 17.006,21.38 
	20.006,17.38 20.006,14.38 "/>
<polyline fill="none" stroke="#0B00EA" stroke-linejoin="round" stroke-miterlimit="10" points="19.002,4.14 23.006,5.881 
	20.006,10.822 20.006,14.38 "/>
<polyline fill="none" stroke="#0B00EA" stroke-linejoin="round" stroke-miterlimit="10" points="20.006,14.38 22.006,14.38 
	22.006,17.38 20.006,17.38 "/>
<polyline fill="none" stroke="#0B00EA" stroke-linejoin="round" stroke-miterlimit="10" points="17.006,10.38 15.006,10.38 
	15.006,21.38 17.006,21.38 "/>
<polygon fill="none" stroke="#0B00EA" stroke-linejoin="round" stroke-miterlimit="10" points="12.006,2.381 18.506,5.381 
	19.506,2.881 12.006,-0.619 4.506,2.881 5.506,5.381 "/>
</svg>
