<svg xmlns="http://www.w3.org/2000/svg" viewBox="0 0 1540 2707">
  <defs>
    <linearGradient id="a" x1="50%" x2="50%" y1="0%" y2="95.73%">
      <stop offset="0%" stop-color="#440087"/>
      <stop offset="100%" stop-color="#2D0058"/>
    </linearGradient>
    <linearGradient id="b" x1="1.8%" x2="102.42%" y1="107.38%" y2="7.58%">
      <stop offset="0%" stop-color="#FF4361" stop-opacity="0"/>
      <stop offset="53.14%" stop-color="#B44DFF"/>
      <stop offset="100%" stop-color="#B44DFF" stop-opacity="0"/>
    </linearGradient>
  </defs>
  <g fill="none" fill-rule="evenodd">
    <path fill="url(#a)" d="M1210.5 8.88L2331 655.7a60 60 0 0 1 30 51.96v1293.66a60 60 0 0 1-30 51.96l-1120.5 646.83a60 60 0 0 1-60 0L30 2053.3a60 60 0 0 1-30-51.96V707.67a60 60 0 0 1 30-51.96L1150.5 8.88a60 60 0 0 1 60 0z" transform="translate(-821)"/>
    <path stroke="url(#b)" stroke-linecap="square" stroke-width="3" d="M1963.49 6.51L1203.5 442.5" transform="matrix(-1 0 0 1 2346 0)"/>
  </g>
</svg>