<svg xmlns="http://www.w3.org/2000/svg" xmlns:xlink="http://www.w3.org/1999/xlink" viewBox="0 0 877 1000">
  <defs>
    <linearGradient id="b" x1="88.59%" x2="9.84%" y1="93.41%" y2="5.1%">
      <stop offset="0%" stop-color="#FF4361"/>
      <stop offset="100%" stop-color="#B44DFF"/>
    </linearGradient>
    <path id="a" d="M461.4 6.82l392.7 226.75a45.81 45.81 0 0 1 22.9 39.67v453.52a45.81 45.81 0 0 1-22.9 39.67L461.4 993.18a45.81 45.81 0 0 1-45.8 0L22.9 766.43A45.81 45.81 0 0 1 0 726.76V273.24a45.81 45.81 0 0 1 22.9-39.67L415.6 6.82a45.81 45.81 0 0 1 45.8 0z"/>
  </defs>
  <use fill="url(#b)" fill-rule="evenodd" transform="matrix(-1 0 0 1 877 0)" xlink:href="#a"/>
</svg>
