<svg xmlns="http://www.w3.org/2000/svg" xmlns:xlink="http://www.w3.org/1999/xlink" width="806.86" height="688.5" viewBox="0 0 806.86 688.5">
  <defs>
    <style>
      .cls-1, .cls-5, .cls-6 {
        fill: none;
      }

      .cls-2 {
        isolation: isolate;
      }

      .cls-3 {
        clip-path: url(#clip-path);
      }

      .cls-4 {
        clip-path: url(#clip-path-2);
      }

      .cls-5 {
        stroke: #10416a;
      }

      .cls-5, .cls-6 {
        stroke-linecap: round;
        stroke-linejoin: round;
      }

      .cls-6 {
        stroke: #ff665e;
      }

      .cls-7 {
        fill: #2a93be;
      }

      .cls-8 {
        fill: #fff;
      }

      .cls-9 {
        mix-blend-mode: multiply;
      }

      .cls-10 {
        clip-path: url(#clip-path-4);
      }

      .cls-11 {
        fill: #99bfd9;
      }

      .cls-12 {
        clip-path: url(#clip-path-5);
      }
    </style>
    <clipPath id="clip-path">
      <rect class="cls-1" width="806.86" height="688.5"/>
    </clipPath>
    <clipPath id="clip-path-2">
      <rect class="cls-1" width="806.86" height="688.5"/>
    </clipPath>
    <clipPath id="clip-path-4">
      <rect class="cls-1" x="305.43" y="-0.5" width="84.18" height="170.63"/>
    </clipPath>
    <clipPath id="clip-path-5">
      <rect class="cls-1" x="305.43" y="76.65" width="84.18" height="143.16"/>
    </clipPath>
  </defs>
  <title>Artboard 1</title>
  <g class="cls-2">
    <g id="Layer_1" data-name="Layer 1">
      <g class="cls-3">
        <g class="cls-4">
          <path class="cls-5" d="M659.5,148.3h0M659.5.5h0"/>
        </g>
        <path class="cls-6" d="M659.5,454.8h0m0-298h0"/>
        <g id="_1" data-name="1">
          <rect class="cls-7" x="380.61" y="0.5" width="271.63" height="70.79"/>
          <rect class="cls-7" x="380.61" y="77.65" width="271.63" height="70.79"/>
          <rect class="cls-7" x="200.15" y="113.45" width="114.28" height="99.36"/>
          <g>
            <path class="cls-8" d="M230.18,150.81a3.15,3.15,0,0,1-.47,1.57,2.79,2.79,0,0,1-1.19,1.06,4,4,0,0,1-1.76.38,3.2,3.2,0,0,1-2.57-1.1,4.58,4.58,0,0,1-.94-3.09v-.43a5.35,5.35,0,0,1,.42-2.19,3.24,3.24,0,0,1,1.22-1.45,3.27,3.27,0,0,1,1.84-.52,3.51,3.51,0,0,1,2.42.82,3.27,3.27,0,0,1,1,2.25h-2a1.54,1.54,0,0,0-.39-1.11,1.5,1.5,0,0,0-1.09-.34,1.19,1.19,0,0,0-1.09.57,3.76,3.76,0,0,0-.36,1.83v.61a4.21,4.21,0,0,0,.33,2,1.2,1.2,0,0,0,1.15.58,1.54,1.54,0,0,0,1.05-.33,1.43,1.43,0,0,0,.38-1.06Z"/>
            <path class="cls-8" d="M237.8,153.7h-2v-3.56h-2.94v3.56h-2v-8.53h2v3.38h2.94v-3.38h2Z"/>
            <path class="cls-8" d="M243.55,152.1h-2.74l-.48,1.6H238.2l3-8.53h1.87l3.06,8.53H244Zm-2.26-1.58h1.78l-.89-3Z"/>
            <path class="cls-8" d="M249.63,150.68h-1.08v3h-2v-8.53h3.26a3.54,3.54,0,0,1,2.3.67,2.32,2.32,0,0,1,.83,1.9,2.87,2.87,0,0,1-.35,1.48,2.57,2.57,0,0,1-1.09.95l1.73,3.44v.09h-2.14Zm-1.08-1.58h1.26a1.12,1.12,0,0,0,.86-.31,1.22,1.22,0,0,0,.28-.86,1.21,1.21,0,0,0-.29-.87,1.1,1.1,0,0,0-.85-.31h-1.26Z"/>
            <path class="cls-8" d="M256,153.7h-2v-8.53h2Z"/>
            <path class="cls-8" d="M263.7,146.75h-2.48v6.95h-2v-6.95h-2.44v-1.58h6.92Z"/>
            <path class="cls-8" d="M266.45,153.7h-2v-8.53h2Z"/>
            <path class="cls-8" d="M272.74,150.08h-3.13v2h3.7v1.58h-5.7v-8.53h5.71v1.58h-3.71v1.8h3.13Z"/>
            <path class="cls-8" d="M278.17,151.43a.84.84,0,0,0-.31-.7,3.68,3.68,0,0,0-1.09-.52,10.43,10.43,0,0,1-1.27-.53,2.47,2.47,0,0,1-1.61-2.23,2.07,2.07,0,0,1,.4-1.25,2.56,2.56,0,0,1,1.14-.85,4.33,4.33,0,0,1,1.65-.3,3.78,3.78,0,0,1,1.6.33,2.64,2.64,0,0,1,1.1.93,2.53,2.53,0,0,1,.39,1.39h-2a1,1,0,0,0-.31-.81,1.21,1.21,0,0,0-.84-.29,1.26,1.26,0,0,0-.84.25.73.73,0,0,0-.31.61.76.76,0,0,0,.34.6,4,4,0,0,0,1.2.55,7.33,7.33,0,0,1,1.41.61,2.46,2.46,0,0,1,1.34,2.2,2.1,2.1,0,0,1-.82,1.76,3.6,3.6,0,0,1-2.25.64,4.33,4.33,0,0,1-1.82-.38,2.66,2.66,0,0,1-1.64-2.51h2a1.31,1.31,0,0,0,.35,1,1.57,1.57,0,0,0,1.11.33,1.28,1.28,0,0,0,.79-.22A.73.73,0,0,0,278.17,151.43Z"/>
            <path class="cls-8" d="M284.79,149.2a6,6,0,0,1-.53-.93,2.48,2.48,0,0,1-.19-.92,2.24,2.24,0,0,1,.65-1.67,2.34,2.34,0,0,1,1.7-.64,2.17,2.17,0,0,1,1.55.59,2,2,0,0,1,.61,1.46,2.4,2.4,0,0,1-1.16,1.94l-.44.31,1.28,1.5a3.27,3.27,0,0,0,.31-1.41h1.61a4.51,4.51,0,0,1-.78,2.77l1.27,1.5h-2.14l-.39-.45a4,4,0,0,1-1,.43,4.29,4.29,0,0,1-1.12.14,2.84,2.84,0,0,1-2-.66,2.27,2.27,0,0,1-.74-1.75,2.1,2.1,0,0,1,.29-1.08,4.62,4.62,0,0,1,1.14-1.11Zm1.38,3.1a2.07,2.07,0,0,0,1-.24l-1.49-1.75-.05,0a1.42,1.42,0,0,0-.33.92,1.09,1.09,0,0,0,.26.73A.83.83,0,0,0,286.17,152.3Zm-.44-5a1.78,1.78,0,0,0,.43,1l.38-.25a1.32,1.32,0,0,0,.38-.36.86.86,0,0,0,.12-.47.67.67,0,0,0-.18-.47.56.56,0,0,0-.45-.2.63.63,0,0,0-.5.21A.78.78,0,0,0,285.73,147.32Z"/>
          </g>
          <g>
            <path class="cls-8" d="M214.2,164.43a.86.86,0,0,0-.31-.71,4,4,0,0,0-1.09-.52,9.92,9.92,0,0,1-1.27-.52,2.48,2.48,0,0,1-1.61-2.24,2.09,2.09,0,0,1,.4-1.25,2.62,2.62,0,0,1,1.14-.84,4.24,4.24,0,0,1,1.64-.3,3.87,3.87,0,0,1,1.6.32,2.48,2.48,0,0,1,1.1.94,2.4,2.4,0,0,1,.4,1.38h-2a1.06,1.06,0,0,0-.31-.8,1.16,1.16,0,0,0-.84-.29,1.36,1.36,0,0,0-.85.24.77.77,0,0,0-.31.62.74.74,0,0,0,.35.59,4,4,0,0,0,1.2.56,6.42,6.42,0,0,1,1.4.61,2.44,2.44,0,0,1,1.35,2.2,2.11,2.11,0,0,1-.82,1.75,3.56,3.56,0,0,1-2.25.64,4.29,4.29,0,0,1-1.82-.37,2.85,2.85,0,0,1-1.23-1,2.75,2.75,0,0,1-.41-1.49h2a1.33,1.33,0,0,0,.35,1,1.57,1.57,0,0,0,1.11.32,1.23,1.23,0,0,0,.78-.22A.7.7,0,0,0,214.2,164.43Z"/>
            <path class="cls-8" d="M224,162.6a5.13,5.13,0,0,1-.45,2.21,3.38,3.38,0,0,1-1.28,1.48,3.43,3.43,0,0,1-1.88.52,3.57,3.57,0,0,1-1.88-.5,3.35,3.35,0,0,1-1.27-1.43,4.88,4.88,0,0,1-.48-2.14v-.48a5.13,5.13,0,0,1,.44-2.21,3.44,3.44,0,0,1,1.28-1.48,3.71,3.71,0,0,1,3.77,0,3.41,3.41,0,0,1,1.28,1.47,5,5,0,0,1,.47,2.18Zm-2-.35a3.61,3.61,0,0,0-.42-1.93,1.29,1.29,0,0,0-1.17-.66c-1,0-1.53.77-1.59,2.32v.62a3.77,3.77,0,0,0,.41,1.93,1.32,1.32,0,0,0,1.2.68,1.28,1.28,0,0,0,1.16-.67,3.74,3.74,0,0,0,.42-1.9Z"/>
            <path class="cls-8" d="M231.51,163.81a3.18,3.18,0,0,1-.47,1.57,2.86,2.86,0,0,1-1.19,1.06,4,4,0,0,1-1.76.37,3.19,3.19,0,0,1-2.57-1.09,4.61,4.61,0,0,1-.94-3.1v-.42A5.28,5.28,0,0,1,225,160a3.2,3.2,0,0,1,3.06-2,3.49,3.49,0,0,1,2.43.82,3.27,3.27,0,0,1,1,2.25h-2a1.63,1.63,0,0,0-.38-1.12,1.54,1.54,0,0,0-1.1-.34,1.18,1.18,0,0,0-1.09.58,3.76,3.76,0,0,0-.36,1.83v.6a4.21,4.21,0,0,0,.33,2,1.22,1.22,0,0,0,1.15.59,1.26,1.26,0,0,0,1.44-1.39Z"/>
            <path class="cls-8" d="M234.35,166.69h-2v-8.53h2Z"/>
            <path class="cls-8" d="M240.21,165.1h-2.73l-.48,1.59h-2.13l3-8.53h1.88l3.06,8.53h-2.15ZM238,163.51h1.78l-.89-3Z"/>
            <path class="cls-8" d="M245.21,165.11h3.48v1.58h-5.47v-8.53h2Z"/>
            <path class="cls-8" d="M254,163.8v2.89h-2v-8.53h3.31a3.7,3.7,0,0,1,1.67.36,2.71,2.71,0,0,1,1.14,1,2.93,2.93,0,0,1,.4,1.51,2.49,2.49,0,0,1-.87,2,3.52,3.52,0,0,1-2.38.75Zm0-1.59h1.31a1.2,1.2,0,0,0,.88-.3,1.14,1.14,0,0,0,.3-.84,1.4,1.4,0,0,0-.31-1,1.1,1.1,0,0,0-.85-.36H254Z"/>
            <path class="cls-8" d="M265.83,158.16v5.59a3.29,3.29,0,0,1-.39,1.64,2.58,2.58,0,0,1-1.13,1.06,3.9,3.9,0,0,1-1.73.36,3.35,3.35,0,0,1-2.38-.81,2.91,2.91,0,0,1-.89-2.21v-5.63h2v5.67c0,.93.44,1.4,1.26,1.4a1.24,1.24,0,0,0,.94-.35,1.71,1.71,0,0,0,.31-1.14v-5.58Z"/>
            <path class="cls-8" d="M269.93,163.68h-1.08v3h-2v-8.53h3.26a3.54,3.54,0,0,1,2.3.68,2.32,2.32,0,0,1,.83,1.9,2.86,2.86,0,0,1-.35,1.47,2.5,2.5,0,0,1-1.09.95l1.72,3.45v.08h-2.13Zm-1.08-1.59h1.26a1.11,1.11,0,0,0,.85-.3,1.2,1.2,0,0,0,.29-.86,1.25,1.25,0,0,0-.29-.87,1.1,1.1,0,0,0-.85-.31h-1.26Z"/>
            <path class="cls-8" d="M276.21,163.8v2.89h-2v-8.53h3.31a3.7,3.7,0,0,1,1.67.36,2.71,2.71,0,0,1,1.14,1,2.93,2.93,0,0,1,.4,1.51,2.49,2.49,0,0,1-.87,2,3.52,3.52,0,0,1-2.38.75Zm0-1.59h1.31a1.2,1.2,0,0,0,.88-.3,1.14,1.14,0,0,0,.3-.84,1.4,1.4,0,0,0-.31-1,1.1,1.1,0,0,0-.85-.36h-1.33Z"/>
            <path class="cls-8" d="M288.58,162.6a5.13,5.13,0,0,1-.45,2.21,3.38,3.38,0,0,1-1.28,1.48,3.43,3.43,0,0,1-1.88.52,3.57,3.57,0,0,1-1.88-.5,3.35,3.35,0,0,1-1.27-1.43,5,5,0,0,1-.49-2.14v-.48a5.13,5.13,0,0,1,.45-2.21,3.37,3.37,0,0,1,1.28-1.48,3.71,3.71,0,0,1,3.77,0,3.41,3.41,0,0,1,1.28,1.47,5,5,0,0,1,.47,2.18Zm-2-.35a3.61,3.61,0,0,0-.42-1.93,1.29,1.29,0,0,0-1.17-.66c-1,0-1.53.77-1.59,2.32v.62a3.77,3.77,0,0,0,.41,1.93,1.32,1.32,0,0,0,1.2.68,1.28,1.28,0,0,0,1.16-.67,3.74,3.74,0,0,0,.42-1.9Z"/>
            <path class="cls-8" d="M293.65,164.43a.86.86,0,0,0-.31-.71,4,4,0,0,0-1.09-.52,9.92,9.92,0,0,1-1.27-.52,2.48,2.48,0,0,1-1.61-2.24,2.09,2.09,0,0,1,.4-1.25,2.62,2.62,0,0,1,1.14-.84,4.29,4.29,0,0,1,1.65-.3,3.86,3.86,0,0,1,1.59.32,2.48,2.48,0,0,1,1.1.94,2.4,2.4,0,0,1,.4,1.38h-2a1.06,1.06,0,0,0-.31-.8,1.16,1.16,0,0,0-.84-.29,1.31,1.31,0,0,0-.84.24.74.74,0,0,0-.31.62.73.73,0,0,0,.34.59,4,4,0,0,0,1.2.56,6.75,6.75,0,0,1,1.41.61,2.45,2.45,0,0,1,1.34,2.2,2.11,2.11,0,0,1-.82,1.75,3.56,3.56,0,0,1-2.25.64,4.32,4.32,0,0,1-1.82-.37,2.85,2.85,0,0,1-1.23-1,2.75,2.75,0,0,1-.41-1.49h2a1.33,1.33,0,0,0,.35,1,1.57,1.57,0,0,0,1.11.32,1.23,1.23,0,0,0,.78-.22A.7.7,0,0,0,293.65,164.43Z"/>
            <path class="cls-8" d="M301.58,163.07h-3.14v2h3.71v1.58h-5.7v-8.53h5.71v1.59h-3.72v1.8h3.14Z"/>
          </g>
          <g>
            <path class="cls-8" d="M217.79,175.6a5.16,5.16,0,0,1-.45,2.21,3.42,3.42,0,0,1-1.27,1.48,3.72,3.72,0,0,1-3.76,0,3.39,3.39,0,0,1-1.28-1.44,4.85,4.85,0,0,1-.48-2.14v-.48A5.16,5.16,0,0,1,211,173a3.35,3.35,0,0,1,1.27-1.48,3.59,3.59,0,0,1,1.9-.52,3.43,3.43,0,0,1,1.88.52,3.52,3.52,0,0,1,1.28,1.46,5.1,5.1,0,0,1,.46,2.19Zm-2-.36a3.74,3.74,0,0,0-.41-1.93,1.32,1.32,0,0,0-1.18-.66c-1,0-1.53.78-1.59,2.32v.63a3.78,3.78,0,0,0,.4,1.93,1.39,1.39,0,0,0,2.37,0,3.67,3.67,0,0,0,.41-1.9Z"/>
            <path class="cls-8" d="M221.67,176.67h-1.08v3h-2v-8.53h3.25a3.57,3.57,0,0,1,2.31.67,2.32,2.32,0,0,1,.83,1.9,2.87,2.87,0,0,1-.35,1.48,2.53,2.53,0,0,1-1.1.95l1.73,3.44v.09h-2.14Zm-1.08-1.58h1.26a1.1,1.1,0,0,0,.86-.31,1.42,1.42,0,0,0,0-1.72,1.12,1.12,0,0,0-.86-.32h-1.26Z"/>
            <path class="cls-8" d="M232.73,178.64a3.09,3.09,0,0,1-1.34.84,5.58,5.58,0,0,1-1.95.33,3.4,3.4,0,0,1-2.6-1,4.27,4.27,0,0,1-1-2.85v-.74a5.2,5.2,0,0,1,.43-2.2,3.28,3.28,0,0,1,1.24-1.45,3.36,3.36,0,0,1,1.86-.5,3.57,3.57,0,0,1,2.4.73,3.13,3.13,0,0,1,1,2.17h-1.92a1.67,1.67,0,0,0-.45-1,1.4,1.4,0,0,0-1-.3,1.3,1.3,0,0,0-1.16.65,3.61,3.61,0,0,0-.42,1.88v.51a3.41,3.41,0,0,0,.43,1.92,1.47,1.47,0,0,0,1.33.65,1.65,1.65,0,0,0,1.16-.36v-1.33h-1.39v-1.41h3.38Z"/>
            <path class="cls-8" d="M238.37,178.1h-2.73l-.48,1.59H233l3-8.53h1.88l3.06,8.53h-2.15Zm-2.25-1.59h1.77l-.89-3Z"/>
            <path class="cls-8" d="M248.29,179.69h-2l-2.94-5.31v5.31h-2v-8.53h2l2.93,5.31v-5.31h2Z"/>
            <path class="cls-8" d="M251.46,179.69h-2v-8.53h2Z"/>
            <path class="cls-8" d="M254.86,178.11h4v1.58h-6.45v-1.08l3.95-5.86h-4v-1.59h6.43v1.05Z"/>
            <path class="cls-8" d="M264.2,178.1h-2.73l-.48,1.59h-2.13l3-8.53h1.88l3.06,8.53h-2.15Zm-2.26-1.59h1.78l-.89-3Z"/>
            <path class="cls-8" d="M272.62,172.75h-2.48v6.94h-2v-6.94H265.7v-1.59h6.92Z"/>
            <path class="cls-8" d="M275.37,179.69h-2v-8.53h2Z"/>
            <path class="cls-8" d="M283.54,175.6a5.16,5.16,0,0,1-.45,2.21,3.42,3.42,0,0,1-1.27,1.48,3.72,3.72,0,0,1-3.76,0,3.39,3.39,0,0,1-1.28-1.44,4.85,4.85,0,0,1-.48-2.14v-.48a5.16,5.16,0,0,1,.45-2.21,3.35,3.35,0,0,1,1.27-1.48,3.59,3.59,0,0,1,1.9-.52,3.43,3.43,0,0,1,1.88.52,3.52,3.52,0,0,1,1.28,1.46,5.1,5.1,0,0,1,.46,2.19Zm-2-.36a3.74,3.74,0,0,0-.41-1.93,1.32,1.32,0,0,0-1.18-.66c-1,0-1.53.78-1.59,2.32v.63a3.78,3.78,0,0,0,.4,1.93,1.39,1.39,0,0,0,2.37,0,3.67,3.67,0,0,0,.41-1.9Z"/>
            <path class="cls-8" d="M291.26,179.69h-2l-2.94-5.31v5.31h-2v-8.53h2l2.93,5.31v-5.31h2Z"/>
            <path class="cls-8" d="M296.57,177.42a.87.87,0,0,0-.31-.7,3.81,3.81,0,0,0-1.09-.52,11.63,11.63,0,0,1-1.27-.52,2.48,2.48,0,0,1-1.61-2.24,2,2,0,0,1,.4-1.25,2.61,2.61,0,0,1,1.13-.85,4.33,4.33,0,0,1,1.65-.3,3.72,3.72,0,0,1,1.6.33,2.58,2.58,0,0,1,1.1.93,2.53,2.53,0,0,1,.39,1.39h-2a1,1,0,0,0-.31-.81,1.16,1.16,0,0,0-.83-.29,1.36,1.36,0,0,0-.85.25.77.77,0,0,0-.31.62.78.78,0,0,0,.34.59,4.27,4.27,0,0,0,1.2.55,7.33,7.33,0,0,1,1.41.61,2.45,2.45,0,0,1,1.34,2.2,2.1,2.1,0,0,1-.82,1.76,3.57,3.57,0,0,1-2.24.64,4.45,4.45,0,0,1-1.82-.37,2.74,2.74,0,0,1-1.23-1,2.79,2.79,0,0,1-.41-1.5h2a1.35,1.35,0,0,0,.34,1,1.63,1.63,0,0,0,1.12.32,1.23,1.23,0,0,0,.78-.22A.74.74,0,0,0,296.57,177.42Z"/>
          </g>
          <g>
            <path class="cls-8" d="M238.93,189.22a9.05,9.05,0,0,1,.37-2.66,6.27,6.27,0,0,1,1-2.09,3.54,3.54,0,0,1,1.44-1.19l.37,1a3.82,3.82,0,0,0-1.23,1.88,9.41,9.41,0,0,0-.44,3v.25a9.61,9.61,0,0,0,.43,3.06,3.79,3.79,0,0,0,1.24,1.9l-.37,1a3.62,3.62,0,0,1-1.44-1.2,6.26,6.26,0,0,1-1-2.07,9,9,0,0,1-.37-2.57Z"/>
            <path class="cls-8" d="M247,190.42a.85.85,0,0,0-.3-.7,3.78,3.78,0,0,0-1.09-.53,10.14,10.14,0,0,1-1.28-.52,2.48,2.48,0,0,1-1.61-2.24,2,2,0,0,1,.41-1.25,2.53,2.53,0,0,1,1.13-.84,4.33,4.33,0,0,1,1.65-.3,3.75,3.75,0,0,1,1.6.33,2.46,2.46,0,0,1,1.49,2.32h-2a1,1,0,0,0-.31-.81,1.21,1.21,0,0,0-.84-.29,1.33,1.33,0,0,0-.84.24.74.74,0,0,0,0,1.22,4.58,4.58,0,0,0,1.2.55,7.33,7.33,0,0,1,1.41.61,2.45,2.45,0,0,1,1.34,2.2,2.08,2.08,0,0,1-.82,1.75,3.51,3.51,0,0,1-2.24.64,4.37,4.37,0,0,1-1.83-.37,2.76,2.76,0,0,1-1.22-1,2.68,2.68,0,0,1-.42-1.49h2a1.33,1.33,0,0,0,.34,1,1.58,1.58,0,0,0,1.12.33,1.29,1.29,0,0,0,.78-.22A.75.75,0,0,0,247,190.42Z"/>
            <path class="cls-8" d="M251.81,189.79v2.9h-2v-8.54h3.3a3.59,3.59,0,0,1,1.68.37,2.61,2.61,0,0,1,1.13,1,2.84,2.84,0,0,1,.4,1.51,2.47,2.47,0,0,1-.86,2,3.52,3.52,0,0,1-2.38.75Zm0-1.59h1.3a1.23,1.23,0,0,0,.89-.3,1.12,1.12,0,0,0,.3-.84,1.36,1.36,0,0,0-.31-.95,1.11,1.11,0,0,0-.85-.37h-1.33Z"/>
            <path class="cls-8" d="M264.17,188.6a5.35,5.35,0,0,1-.44,2.21,3.36,3.36,0,0,1-1.28,1.47,3.43,3.43,0,0,1-1.88.52,3.48,3.48,0,0,1-1.88-.5,3.37,3.37,0,0,1-1.28-1.43,5.14,5.14,0,0,1-.48-2.14v-.48a5.13,5.13,0,0,1,.45-2.21,3.37,3.37,0,0,1,1.28-1.48,3.46,3.46,0,0,1,1.89-.52,3.51,3.51,0,0,1,1.88.51,3.47,3.47,0,0,1,1.28,1.47,4.92,4.92,0,0,1,.46,2.18Zm-2-.36a3.61,3.61,0,0,0-.42-1.93,1.3,1.3,0,0,0-1.18-.66c-1,0-1.52.77-1.58,2.32v.63a3.75,3.75,0,0,0,.41,1.92,1.32,1.32,0,0,0,1.2.68,1.29,1.29,0,0,0,1.16-.66,3.81,3.81,0,0,0,.42-1.91Z"/>
            <path class="cls-8" d="M265.57,186.83l-.84-.47a3.47,3.47,0,0,0,.49-1.65v-1h1.39v.95a2.67,2.67,0,0,1-.3,1.16A3.36,3.36,0,0,1,265.57,186.83Z"/>
            <path class="cls-8" d="M271.85,190.42a.83.83,0,0,0-.31-.7,3.56,3.56,0,0,0-1.08-.53,10.14,10.14,0,0,1-1.28-.52,2.48,2.48,0,0,1-1.61-2.24,2,2,0,0,1,.41-1.25,2.53,2.53,0,0,1,1.13-.84,4.33,4.33,0,0,1,1.65-.3,3.75,3.75,0,0,1,1.6.33,2.46,2.46,0,0,1,1.49,2.32h-2a1,1,0,0,0-.31-.81,1.21,1.21,0,0,0-.84-.29,1.33,1.33,0,0,0-.84.24.74.74,0,0,0,0,1.22,4.58,4.58,0,0,0,1.2.55,7.33,7.33,0,0,1,1.41.61,2.45,2.45,0,0,1,1.34,2.2,2.08,2.08,0,0,1-.82,1.75,3.53,3.53,0,0,1-2.24.64,4.34,4.34,0,0,1-1.83-.37,2.76,2.76,0,0,1-1.22-1,2.68,2.68,0,0,1-.42-1.49h2a1.33,1.33,0,0,0,.35,1,1.58,1.58,0,0,0,1.12.33,1.29,1.29,0,0,0,.78-.22A.75.75,0,0,0,271.85,190.42Z"/>
            <path class="cls-8" d="M277.58,189.38a8.59,8.59,0,0,1-.39,2.61,6.67,6.67,0,0,1-1.08,2.13,3.64,3.64,0,0,1-1.49,1.2l-.37-1a3.8,3.8,0,0,0,1.22-1.87,9.28,9.28,0,0,0,.45-2.92v-.35a9.61,9.61,0,0,0-.43-3.06,3.74,3.74,0,0,0-1.24-1.9l.37-1a3.66,3.66,0,0,1,1.48,1.19,7,7,0,0,1,1.08,2.09,8.36,8.36,0,0,1,.4,2.56Z"/>
          </g>
          <g>
            <path class="cls-8" d="M451.55,36.78a3.4,3.4,0,0,1-1.49,1.07,6.19,6.19,0,0,1-2.18.36,4.25,4.25,0,0,1-2.21-.57A3.77,3.77,0,0,1,444.18,36a5.65,5.65,0,0,1-.54-2.47v-.78a5.27,5.27,0,0,1,1.08-3.52,3.72,3.72,0,0,1,3-1.27,4,4,0,0,1,2.64.83,3.55,3.55,0,0,1,1.18,2.36h-1.7a1.91,1.91,0,0,0-2.08-1.79,2.05,2.05,0,0,0-1.77.83,4.36,4.36,0,0,0-.63,2.46v.76a4.09,4.09,0,0,0,.68,2.51,2.27,2.27,0,0,0,1.89.89,2.49,2.49,0,0,0,1.89-.6V34.28h-2.05V33h3.77Z"/>
            <path class="cls-8" d="M457.3,32.19a4.8,4.8,0,0,0-.67,0,1.52,1.52,0,0,0-1.54.87v5.06h-1.66V30.68H455l.05.82a1.86,1.86,0,0,1,1.66-1,1.63,1.63,0,0,1,.59.09Z"/>
            <path class="cls-8" d="M462.9,38.07a2.48,2.48,0,0,1-.19-.69,2.78,2.78,0,0,1-3.76.19,2,2,0,0,1-.71-1.57,2.1,2.1,0,0,1,.88-1.81,4.21,4.21,0,0,1,2.51-.64h1v-.48a1.17,1.17,0,0,0-1.3-1.27,1.49,1.49,0,0,0-.93.29.88.88,0,0,0-.36.72H458.4a1.88,1.88,0,0,1,.4-1.14,2.74,2.74,0,0,1,1.1-.83,3.86,3.86,0,0,1,1.55-.3,3.11,3.11,0,0,1,2.07.65,2.31,2.31,0,0,1,.79,1.84v3.33a3.93,3.93,0,0,0,.28,1.6v.11Zm-1.83-1.19a1.9,1.9,0,0,0,.93-.24,1.57,1.57,0,0,0,.65-.65V34.6h-.89a2.48,2.48,0,0,0-1.39.32,1,1,0,0,0-.46.91,1,1,0,0,0,.31.76A1.25,1.25,0,0,0,461.07,36.88Z"/>
            <path class="cls-8" d="M467.72,30.68l0,.85a2.66,2.66,0,0,1,2.15-1c1.54,0,2.33.88,2.35,2.64v4.89h-1.66V33.28a1.52,1.52,0,0,0-.3-1,1.27,1.27,0,0,0-1-.34,1.59,1.59,0,0,0-1.49.91v5.26h-1.66V30.68Z"/>
            <path class="cls-8" d="M476.19,28.88v1.8h1.3v1.23h-1.3V36a.88.88,0,0,0,.17.62.79.79,0,0,0,.59.18,3,3,0,0,0,.59-.06v1.28a4,4,0,0,1-1.1.16c-1.27,0-1.91-.71-1.91-2.11V31.91h-1.22V30.68h1.22v-1.8Z"/>
            <path class="cls-8" d="M483,36.06a.75.75,0,0,0-.36-.67,3.64,3.64,0,0,0-1.21-.41,5.92,5.92,0,0,1-1.42-.46,1.88,1.88,0,0,1-1.24-1.74,2,2,0,0,1,.8-1.6,3.18,3.18,0,0,1,2-.64,3.38,3.38,0,0,1,2.15.65,2.1,2.1,0,0,1,.81,1.71H483a1,1,0,0,0-.35-.8,1.4,1.4,0,0,0-1-.32,1.47,1.47,0,0,0-.89.26.77.77,0,0,0-.34.67.66.66,0,0,0,.32.6,4.28,4.28,0,0,0,1.3.42,6.27,6.27,0,0,1,1.53.52,2.18,2.18,0,0,1,.83.71,1.84,1.84,0,0,1,.27,1,1.93,1.93,0,0,1-.83,1.62,3.54,3.54,0,0,1-2.17.62,3.84,3.84,0,0,1-1.62-.33A2.67,2.67,0,0,1,479,37a2.11,2.11,0,0,1-.4-1.24h1.61a1.2,1.2,0,0,0,.45.91,1.71,1.71,0,0,0,1.08.31,1.66,1.66,0,0,0,1-.25A.75.75,0,0,0,483,36.06Z"/>
            <path class="cls-8" d="M489.55,34.31a4.31,4.31,0,0,1,.44-2A3.09,3.09,0,0,1,491.2,31a3.3,3.3,0,0,1,1.79-.47,3.26,3.26,0,0,1,2.43,1,3.77,3.77,0,0,1,1,2.56v.39A4.37,4.37,0,0,1,496,36.4a3.13,3.13,0,0,1-1.2,1.34,3.49,3.49,0,0,1-1.81.47,3.21,3.21,0,0,1-2.5-1,4,4,0,0,1-.95-2.78Zm1.67.14a3,3,0,0,0,.47,1.79,1.65,1.65,0,0,0,2.62,0,3.32,3.32,0,0,0,.47-1.92,3,3,0,0,0-.48-1.78,1.63,1.63,0,0,0-2.61,0A3.29,3.29,0,0,0,491.22,34.45Z"/>
            <path class="cls-8" d="M499.5,30.68l.05.85a2.68,2.68,0,0,1,2.16-1c1.54,0,2.32.88,2.35,2.64v4.89H502.4V33.28a1.52,1.52,0,0,0-.31-1,1.25,1.25,0,0,0-1-.34,1.6,1.6,0,0,0-1.5.91v5.26h-1.66V30.68Z"/>
            <path class="cls-8" d="M507.66,38.07H506V27.57h1.66Z"/>
            <path class="cls-8" d="M512.18,35.69l1.5-5h1.77l-2.94,8.51a2.38,2.38,0,0,1-2.29,1.87,3,3,0,0,1-.8-.12v-1.3l.31,0a1.65,1.65,0,0,0,.95-.22,1.54,1.54,0,0,0,.5-.77l.24-.64-2.6-7.35h1.79Z"/>
            <path class="cls-8" d="M517.53,30.52a1,1,0,0,1,.72.26.92.92,0,0,1,.25.66.88.88,0,0,1-.25.65,1,1,0,0,1-.72.25,1,1,0,0,1-.7-.25.87.87,0,0,1-.26-.65.92.92,0,0,1,.25-.66A1,1,0,0,1,517.53,30.52Zm0,5.8a1,1,0,0,1,.72.26.92.92,0,0,1,.25.66.88.88,0,0,1-.25.65,1,1,0,0,1-.72.26,1,1,0,0,1-.7-.26.86.86,0,0,1-.26-.65.92.92,0,0,1,.25-.66A1,1,0,0,1,517.53,36.32Z"/>
            <path class="cls-8" d="M525.52,30.68l.05.85a2.67,2.67,0,0,1,2.15-1c1.54,0,2.33.88,2.36,2.64v4.89h-1.66V33.28a1.52,1.52,0,0,0-.31-1,1.25,1.25,0,0,0-1-.34,1.6,1.6,0,0,0-1.5.91v5.26H524V30.68Z"/>
            <path class="cls-8" d="M531.6,34.31a4.31,4.31,0,0,1,.43-2A3.09,3.09,0,0,1,533.24,31a3.32,3.32,0,0,1,1.79-.47,3.23,3.23,0,0,1,2.43,1,3.83,3.83,0,0,1,1,2.56v.39a4.37,4.37,0,0,1-.42,1.95,3.13,3.13,0,0,1-1.2,1.34,3.46,3.46,0,0,1-1.81.47,3.21,3.21,0,0,1-2.5-1,4,4,0,0,1-.94-2.78Zm1.66.14a3,3,0,0,0,.47,1.79,1.65,1.65,0,0,0,2.62,0,3.32,3.32,0,0,0,.47-1.92,3,3,0,0,0-.48-1.78,1.62,1.62,0,0,0-2.6,0A3.21,3.21,0,0,0,533.26,34.45Z"/>
            <path class="cls-8" d="M545.7,28.88v1.8H547v1.23h-1.3V36a.88.88,0,0,0,.17.62.79.79,0,0,0,.59.18,2.78,2.78,0,0,0,.58-.06v1.28a3.84,3.84,0,0,1-1.09.16c-1.28,0-1.91-.71-1.91-2.11V31.91h-1.22V30.68H544v-1.8Z"/>
            <path class="cls-8" d="M552.27,32.19a4.94,4.94,0,0,0-.68,0,1.51,1.51,0,0,0-1.53.87v5.06h-1.67V30.68H550l0,.82a1.88,1.88,0,0,1,1.67-1,1.66,1.66,0,0,1,.59.09Z"/>
            <path class="cls-8" d="M557.87,38.07a2.42,2.42,0,0,1-.2-.69,2.78,2.78,0,0,1-3.76.19,2,2,0,0,1-.7-1.57,2.08,2.08,0,0,1,.88-1.81,4.17,4.17,0,0,1,2.51-.64h1v-.48a1.32,1.32,0,0,0-.32-.92,1.29,1.29,0,0,0-1-.35,1.46,1.46,0,0,0-.93.29.88.88,0,0,0-.36.72h-1.66a1.82,1.82,0,0,1,.4-1.14,2.74,2.74,0,0,1,1.1-.83,3.86,3.86,0,0,1,1.55-.3,3.15,3.15,0,0,1,2.07.65,2.34,2.34,0,0,1,.79,1.84v3.33a3.76,3.76,0,0,0,.28,1.6v.11ZM556,36.88a1.9,1.9,0,0,0,.93-.24,1.63,1.63,0,0,0,.65-.65V34.6h-.9a2.47,2.47,0,0,0-1.38.32,1,1,0,0,0-.47.91,1,1,0,0,0,.32.76A1.22,1.22,0,0,0,556,36.88Z"/>
            <path class="cls-8" d="M560.83,34.32a4.4,4.4,0,0,1,.8-2.75,2.54,2.54,0,0,1,2.12-1,2.39,2.39,0,0,1,1.9.82V27.57h1.67v10.5h-1.51l-.08-.76a2.46,2.46,0,0,1-2,.9,2.51,2.51,0,0,1-2.1-1.05A4.5,4.5,0,0,1,560.83,34.32Zm1.67.14a3.08,3.08,0,0,0,.43,1.76,1.41,1.41,0,0,0,1.23.63,1.57,1.57,0,0,0,1.49-.9V32.79a1.53,1.53,0,0,0-1.47-.89,1.43,1.43,0,0,0-1.25.64A3.43,3.43,0,0,0,562.5,34.46Z"/>
            <path class="cls-8" d="M569.18,28.75a.88.88,0,0,1,.24-.63,1.09,1.09,0,0,1,1.39,0,.92.92,0,0,1,0,1.26,1.09,1.09,0,0,1-1.39,0A.88.88,0,0,1,569.18,28.75Zm1.76,9.32h-1.66V30.68h1.66Z"/>
            <path class="cls-8" d="M574.42,30.68l0,.85a2.68,2.68,0,0,1,2.16-1c1.54,0,2.32.88,2.35,2.64v4.89h-1.66V33.28a1.47,1.47,0,0,0-.31-1,1.25,1.25,0,0,0-1-.34,1.6,1.6,0,0,0-1.5.91v5.26h-1.66V30.68Z"/>
            <path class="cls-8" d="M580.51,34.32a4.31,4.31,0,0,1,.81-2.75,2.59,2.59,0,0,1,2.15-1,2.43,2.43,0,0,1,2,.88l.08-.74H587v7.17a3,3,0,0,1-.9,2.29,3.47,3.47,0,0,1-2.45.84,4,4,0,0,1-1.59-.33,2.86,2.86,0,0,1-1.17-.89l.78-1a2.37,2.37,0,0,0,1.89.91,1.82,1.82,0,0,0,1.3-.45,1.68,1.68,0,0,0,.48-1.31v-.5a2.45,2.45,0,0,1-1.91.8,2.59,2.59,0,0,1-2.12-1A4.47,4.47,0,0,1,580.51,34.32Zm1.66.14a3,3,0,0,0,.45,1.76,1.46,1.46,0,0,0,1.26.63,1.58,1.58,0,0,0,1.49-.86V32.74a1.56,1.56,0,0,0-1.47-.84,1.48,1.48,0,0,0-1.28.65A3.35,3.35,0,0,0,582.17,34.46Z"/>
          </g>
          <g>
            <path class="cls-8" d="M437.68,112.18h-3.11v8.56h-1.71v-8.56h-3.08v-1.4h7.9Z"/>
            <path class="cls-8" d="M442.82,114.86a3.74,3.74,0,0,0-.68-.06,1.53,1.53,0,0,0-1.54.88v5.06h-1.66v-7.4h1.59l0,.83a1.87,1.87,0,0,1,1.67-1,1.65,1.65,0,0,1,.59.1Z"/>
            <path class="cls-8" d="M448.41,120.74a2.89,2.89,0,0,1-.19-.69,2.58,2.58,0,0,1-1.94.82,2.63,2.63,0,0,1-1.82-.63,2,2,0,0,1-.7-1.57,2.1,2.1,0,0,1,.88-1.82,4.25,4.25,0,0,1,2.51-.63h1v-.49a1.32,1.32,0,0,0-.32-.92,1.28,1.28,0,0,0-1-.34,1.45,1.45,0,0,0-.93.28.88.88,0,0,0-.36.72h-1.66a1.86,1.86,0,0,1,.4-1.14,2.76,2.76,0,0,1,1.1-.83,3.85,3.85,0,0,1,1.54-.3,3.11,3.11,0,0,1,2.08.66,2.31,2.31,0,0,1,.79,1.83V119a3.75,3.75,0,0,0,.28,1.59v.12Zm-1.82-1.2a1.83,1.83,0,0,0,.92-.24,1.63,1.63,0,0,0,.66-.64v-1.4h-.9a2.42,2.42,0,0,0-1.39.33,1,1,0,0,0-.46.9,1,1,0,0,0,.32.77A1.21,1.21,0,0,0,446.59,119.54Z"/>
            <path class="cls-8" d="M451.38,117a4.37,4.37,0,0,1,.8-2.74,2.53,2.53,0,0,1,2.12-1,2.42,2.42,0,0,1,1.9.82v-3.78h1.66v10.5h-1.5l-.08-.77a2.46,2.46,0,0,1-2,.9,2.52,2.52,0,0,1-2.1-1A4.55,4.55,0,0,1,451.38,117Zm1.66.15a3.07,3.07,0,0,0,.44,1.76,1.41,1.41,0,0,0,1.23.63,1.56,1.56,0,0,0,1.49-.91v-3.16a1.53,1.53,0,0,0-1.47-.89,1.44,1.44,0,0,0-1.25.64A3.46,3.46,0,0,0,453,117.13Z"/>
            <path class="cls-8" d="M459.73,111.42a.89.89,0,0,1,.24-.64.94.94,0,0,1,.69-.25,1,1,0,0,1,.7.25.9.9,0,0,1,.25.64.85.85,0,0,1-.25.62.92.92,0,0,1-.7.25A.9.9,0,0,1,460,112,.84.84,0,0,1,459.73,111.42Zm1.76,9.32h-1.66v-7.4h1.66Z"/>
            <path class="cls-8" d="M465,113.34l0,.85a2.68,2.68,0,0,1,2.16-1c1.54,0,2.32.89,2.35,2.65v4.89h-1.66v-4.8a1.5,1.5,0,0,0-.31-1,1.29,1.29,0,0,0-1-.34,1.62,1.62,0,0,0-1.5.91v5.27H463.4v-7.4Z"/>
            <path class="cls-8" d="M471.06,117a4.35,4.35,0,0,1,.81-2.75,2.62,2.62,0,0,1,2.15-1,2.44,2.44,0,0,1,2,.89l.07-.75h1.5v7.17a3,3,0,0,1-.91,2.3,3.43,3.43,0,0,1-2.44.84,3.89,3.89,0,0,1-1.59-.34,2.88,2.88,0,0,1-1.18-.88l.79-1a2.4,2.4,0,0,0,1.89.91,1.82,1.82,0,0,0,1.3-.45,1.72,1.72,0,0,0,.48-1.32v-.5a2.43,2.43,0,0,1-1.91.8,2.6,2.6,0,0,1-2.13-1A4.47,4.47,0,0,1,471.06,117Zm1.65.15a3,3,0,0,0,.46,1.75,1.45,1.45,0,0,0,1.26.64,1.6,1.6,0,0,0,1.49-.86V115.4a1.58,1.58,0,0,0-1.48-.84,1.47,1.47,0,0,0-1.27.65A3.38,3.38,0,0,0,472.71,117.13Z"/>
            <path class="cls-8" d="M486.9,114.86a3.82,3.82,0,0,0-.68-.06,1.53,1.53,0,0,0-1.54.88v5.06H483v-7.4h1.59l0,.83a1.87,1.87,0,0,1,1.67-1,1.69,1.69,0,0,1,.59.1Z"/>
            <path class="cls-8" d="M491.33,120.87a3.44,3.44,0,0,1-2.56-1,3.63,3.63,0,0,1-1-2.65V117a4.35,4.35,0,0,1,.43-2,3.12,3.12,0,0,1,1.2-1.36,3.19,3.19,0,0,1,1.72-.49,2.87,2.87,0,0,1,2.33,1,4.07,4.07,0,0,1,.83,2.73v.66h-4.84a2.19,2.19,0,0,0,.62,1.45,1.8,1.8,0,0,0,1.35.54,2.25,2.25,0,0,0,1.86-.93l.89.86a3,3,0,0,1-1.18,1A3.79,3.79,0,0,1,491.33,120.87Zm-.2-6.33a1.4,1.4,0,0,0-1.1.48,2.46,2.46,0,0,0-.54,1.33h3.17v-.12a2.07,2.07,0,0,0-.45-1.27A1.4,1.4,0,0,0,491.13,114.54Z"/>
            <path class="cls-8" d="M498.32,118.63l1.57-5.29h1.71l-2.56,7.4H497.6l-2.59-7.4h1.72Z"/>
            <path class="cls-8" d="M506,120.87a3.46,3.46,0,0,1-2.56-1,3.63,3.63,0,0,1-1-2.65V117a4.49,4.49,0,0,1,.43-2,3.25,3.25,0,0,1,1.2-1.36,3.19,3.19,0,0,1,1.72-.49,2.89,2.89,0,0,1,2.34,1,4.07,4.07,0,0,1,.82,2.73v.66h-4.83a2.18,2.18,0,0,0,.61,1.45,1.83,1.83,0,0,0,1.35.54,2.25,2.25,0,0,0,1.86-.93l.89.86a3,3,0,0,1-1.18,1A3.79,3.79,0,0,1,506,120.87Zm-.19-6.33a1.4,1.4,0,0,0-1.11.48,2.38,2.38,0,0,0-.53,1.33h3.16v-.12a2.07,2.07,0,0,0-.44-1.27A1.4,1.4,0,0,0,505.84,114.54Z"/>
            <path class="cls-8" d="M512,113.34l0,.85a2.68,2.68,0,0,1,2.16-1c1.54,0,2.32.89,2.35,2.65v4.89h-1.66v-4.8a1.5,1.5,0,0,0-.31-1,1.29,1.29,0,0,0-1-.34,1.62,1.62,0,0,0-1.5.91v5.27h-1.66v-7.4Z"/>
            <path class="cls-8" d="M522.82,120a2.56,2.56,0,0,1-2.08.86,2.29,2.29,0,0,1-1.82-.7,3,3,0,0,1-.62-2v-4.79H520v4.77q0,1.41,1.17,1.41a1.64,1.64,0,0,0,1.64-.87v-5.31h1.66v7.4h-1.57Z"/>
            <path class="cls-8" d="M529.52,120.87a3.44,3.44,0,0,1-2.56-1,3.59,3.59,0,0,1-1-2.65V117a4.48,4.48,0,0,1,.42-2,3.2,3.2,0,0,1,2.93-1.85,2.89,2.89,0,0,1,2.33,1,4.07,4.07,0,0,1,.83,2.73v.66h-4.84a2.23,2.23,0,0,0,.61,1.45,1.83,1.83,0,0,0,1.35.54,2.22,2.22,0,0,0,1.86-.93l.9.86a3.06,3.06,0,0,1-1.19,1A3.74,3.74,0,0,1,529.52,120.87Zm-.2-6.33a1.38,1.38,0,0,0-1.1.48,2.46,2.46,0,0,0-.54,1.33h3.16v-.12a2,2,0,0,0-.44-1.27A1.4,1.4,0,0,0,529.32,114.54Z"/>
            <path class="cls-8" d="M541.93,120.74a2.48,2.48,0,0,1-.19-.69,2.59,2.59,0,0,1-1.94.82,2.63,2.63,0,0,1-1.82-.63,2,2,0,0,1-.7-1.57,2.1,2.1,0,0,1,.88-1.82,4.25,4.25,0,0,1,2.51-.63h1v-.49a1.28,1.28,0,0,0-.33-.92,1.26,1.26,0,0,0-1-.34,1.45,1.45,0,0,0-.93.28.89.89,0,0,0-.37.72h-1.66a1.88,1.88,0,0,1,.41-1.14,2.8,2.8,0,0,1,1.09-.83,3.9,3.9,0,0,1,1.55-.3,3.06,3.06,0,0,1,2.07.66,2.32,2.32,0,0,1,.8,1.83V119a3.75,3.75,0,0,0,.28,1.59v.12Zm-1.82-1.2a1.89,1.89,0,0,0,.92-.24,1.63,1.63,0,0,0,.66-.64v-1.4h-.9a2.4,2.4,0,0,0-1.39.33,1,1,0,0,0-.46.9,1,1,0,0,0,.31.77A1.25,1.25,0,0,0,540.11,119.54Z"/>
            <path class="cls-8" d="M546.75,113.34l0,.85a2.68,2.68,0,0,1,2.16-1c1.54,0,2.32.89,2.35,2.65v4.89h-1.66v-4.8a1.56,1.56,0,0,0-.31-1,1.29,1.29,0,0,0-1-.34,1.62,1.62,0,0,0-1.5.91v5.27h-1.66v-7.4Z"/>
            <path class="cls-8" d="M552.83,117a4.37,4.37,0,0,1,.79-2.74,2.55,2.55,0,0,1,2.13-1,2.45,2.45,0,0,1,1.9.82v-3.78h1.66v10.5H557.8l-.08-.77a2.46,2.46,0,0,1-2,.9,2.55,2.55,0,0,1-2.1-1A4.55,4.55,0,0,1,552.83,117Zm1.66.15a3.08,3.08,0,0,0,.43,1.76,1.41,1.41,0,0,0,1.24.63,1.58,1.58,0,0,0,1.49-.91v-3.16a1.56,1.56,0,0,0-1.48-.89,1.42,1.42,0,0,0-1.24.64A3.38,3.38,0,0,0,554.49,117.13Z"/>
            <path class="cls-8" d="M564.49,117a4.35,4.35,0,0,1,.81-2.75,2.61,2.61,0,0,1,2.15-1,2.45,2.45,0,0,1,2,.89l.07-.75H571v7.17a3,3,0,0,1-.91,2.3,3.43,3.43,0,0,1-2.44.84,3.89,3.89,0,0,1-1.59-.34,2.88,2.88,0,0,1-1.18-.88l.79-1a2.39,2.39,0,0,0,1.88.91,1.83,1.83,0,0,0,1.31-.45,1.72,1.72,0,0,0,.48-1.32v-.5a2.43,2.43,0,0,1-1.92.8,2.59,2.59,0,0,1-2.12-1A4.47,4.47,0,0,1,564.49,117Zm1.65.15a2.93,2.93,0,0,0,.46,1.75,1.45,1.45,0,0,0,1.26.64,1.6,1.6,0,0,0,1.49-.86V115.4a1.59,1.59,0,0,0-1.48-.84,1.47,1.47,0,0,0-1.27.65A3.3,3.3,0,0,0,566.14,117.13Z"/>
            <path class="cls-8" d="M576.71,114.86a3.63,3.63,0,0,0-.67-.06,1.52,1.52,0,0,0-1.54.88v5.06h-1.66v-7.4h1.58l0,.83a1.88,1.88,0,0,1,1.67-1,1.61,1.61,0,0,1,.59.1Z"/>
            <path class="cls-8" d="M582.31,120.74a2.48,2.48,0,0,1-.19-.69,2.81,2.81,0,0,1-3.76.19,2,2,0,0,1-.71-1.57,2.12,2.12,0,0,1,.88-1.82,4.29,4.29,0,0,1,2.51-.63h1v-.49a1.15,1.15,0,0,0-1.3-1.26,1.49,1.49,0,0,0-.93.28.88.88,0,0,0-.36.72h-1.66a1.93,1.93,0,0,1,.4-1.14,2.84,2.84,0,0,1,1.1-.83,3.86,3.86,0,0,1,1.55-.3,3.06,3.06,0,0,1,2.07.66,2.28,2.28,0,0,1,.79,1.83V119a3.91,3.91,0,0,0,.28,1.59v.12Zm-1.83-1.2a1.9,1.9,0,0,0,.93-.24,1.54,1.54,0,0,0,.65-.64v-1.4h-.89a2.4,2.4,0,0,0-1.39.33,1,1,0,0,0-.47.9,1,1,0,0,0,.32.77A1.23,1.23,0,0,0,580.48,119.54Z"/>
            <path class="cls-8" d="M587.13,113.34l0,.85a2.66,2.66,0,0,1,2.15-1c1.54,0,2.33.89,2.35,2.65v4.89H590v-4.8a1.56,1.56,0,0,0-.3-1,1.31,1.31,0,0,0-1-.34,1.59,1.59,0,0,0-1.49.91v5.27h-1.66v-7.4Z"/>
            <path class="cls-8" d="M595.6,111.54v1.8h1.3v1.23h-1.3v4.13a.91.91,0,0,0,.16.61.79.79,0,0,0,.6.19,2.3,2.3,0,0,0,.58-.07v1.29a4.2,4.2,0,0,1-1.09.15c-1.28,0-1.91-.7-1.91-2.11v-4.19h-1.22v-1.23h1.22v-1.8Z"/>
            <path class="cls-8" d="M602.44,118.73a.76.76,0,0,0-.36-.68,4.14,4.14,0,0,0-1.22-.41,6.51,6.51,0,0,1-1.41-.45,1.88,1.88,0,0,1-1.24-1.74,1.94,1.94,0,0,1,.8-1.6,3.18,3.18,0,0,1,2-.65,3.32,3.32,0,0,1,2.15.66,2.08,2.08,0,0,1,.81,1.7h-1.66a1,1,0,0,0-.35-.79,1.35,1.35,0,0,0-1-.32,1.46,1.46,0,0,0-.89.25.79.79,0,0,0-.34.68.66.66,0,0,0,.32.59,4.21,4.21,0,0,0,1.3.43,5.91,5.91,0,0,1,1.53.51,2.2,2.2,0,0,1,.83.72,1.79,1.79,0,0,1,.27,1,1.93,1.93,0,0,1-.83,1.61,3.47,3.47,0,0,1-2.17.62,4,4,0,0,1-1.62-.32,2.61,2.61,0,0,1-1.1-.91,2.08,2.08,0,0,1-.4-1.23h1.61a1.14,1.14,0,0,0,.45.9,1.71,1.71,0,0,0,1.08.32,1.66,1.66,0,0,0,1-.25A.76.76,0,0,0,602.44,118.73Z"/>
          </g>
          <polygon class="cls-7" points="314.43 163.13 314.43 113.45 380.61 0.5 380.61 71.29 314.43 163.13"/>
          <polygon class="cls-7" points="314.43 212.81 314.43 163.13 380.61 77.65 380.61 148.44 314.43 212.81"/>
          <g class="cls-4">
            <g class="cls-9">
              <g class="cls-10">
                <polygon class="cls-11" points="314.43 163.13 314.43 113.45 380.61 0.5 380.61 71.29 314.43 163.13"/>
              </g>
            </g>
            <g class="cls-9">
              <g class="cls-12">
                <polygon class="cls-11" points="314.43 212.81 314.43 163.13 380.61 77.65 380.61 148.44 314.43 212.81"/>
              </g>
            </g>
          </g>
        </g>
      </g>
    </g>
  </g>
</svg>
