<svg id="Layer_1" data-name="Layer 1" xmlns="http://www.w3.org/2000/svg" xmlns:xlink="http://www.w3.org/1999/xlink" width="806.86" height="688.5" viewBox="0 0 806.86 688.5">
  <defs>
    <style>
      .cls-1, .cls-4, .cls-5 {
        fill: none;
      }

      .cls-2 {
        clip-path: url(#clip-path);
      }

      .cls-3 {
        clip-path: url(#clip-path-2);
      }

      .cls-4 {
        stroke: #10416a;
      }

      .cls-4, .cls-5 {
        stroke-linecap: round;
        stroke-linejoin: round;
      }

      .cls-5 {
        stroke: #ff665e;
      }

      .cls-6 {
        fill: #231f20;
      }

      .cls-7 {
        fill: #ceb892;
      }
    </style>
    <clipPath id="clip-path">
      <rect class="cls-1" width="806.86" height="688.5"/>
    </clipPath>
    <clipPath id="clip-path-2">
      <rect class="cls-1" width="806.86" height="688.5"/>
    </clipPath>
  </defs>
  <title>10</title>
  <g class="cls-2">
    <g class="cls-3">
      <path class="cls-4" d="M659.5,148.3h0M659.5.5h0"/>
    </g>
    <path class="cls-5" d="M659.5,454.8h0m0-298h0"/>
    <g id="_11" data-name="11">
      <g class="cls-3">
        <path class="cls-6" d="M162,337.4l-15.77-13.56c-11.36-9.76-18.2-26.31-18.2-44v-.29H40.75v.44C18,282.22,0,306.93,0,337.4s18,55.18,40.75,57.46v.44H128V395c0-17.73,6.84-34.28,18.2-44Z"/>
      </g>
      <g>
        <path class="cls-7" d="M30.58,312.49h3.17a8.29,8.29,0,0,1,1.11.08,2.94,2.94,0,0,1,1,.32,1.88,1.88,0,0,1,.72.68,2.15,2.15,0,0,1,.28,1.15,1.88,1.88,0,0,1-.41,1.23,2.2,2.2,0,0,1-1.06.7v0a2.26,2.26,0,0,1,.76.24,2.08,2.08,0,0,1,.59.46,1.92,1.92,0,0,1,.38.65,2.3,2.3,0,0,1,.13.79A2.1,2.1,0,0,1,37,320a2.31,2.31,0,0,1-.74.75,3.37,3.37,0,0,1-1,.41,5.43,5.43,0,0,1-1.13.12H30.58Zm1.87,3.5h1.36a1.51,1.51,0,0,0,.42-.05,1,1,0,0,0,.38-.16.84.84,0,0,0,.27-.29A.93.93,0,0,0,35,315a.79.79,0,0,0-.11-.45.86.86,0,0,0-.29-.28,1.32,1.32,0,0,0-.41-.14,2.3,2.3,0,0,0-.45-.05H32.45Zm0,3.63h1.68a2.2,2.2,0,0,0,.44-.05,1.12,1.12,0,0,0,.4-.18.93.93,0,0,0,.3-.32,1,1,0,0,0,.11-.48.78.78,0,0,0-.15-.5.9.9,0,0,0-.38-.29,1.86,1.86,0,0,0-.49-.14,4.6,4.6,0,0,0-.49,0H32.45Z"/>
        <path class="cls-7" d="M39.14,312.49H41v7h3.47v1.78H39.14Z"/>
        <path class="cls-7" d="M46.3,312.49h5.77v1.78h-3.9v1.64h3.69v1.78H48.17v1.78h4.12v1.78h-6Z"/>
        <path class="cls-7" d="M54.51,312.49h2.54l3.61,6.09h0v-6.09h1.87v8.76H60.11L56.4,315h0v6.24H54.51Z"/>
        <path class="cls-7" d="M65,312.49h2.81a7.56,7.56,0,0,1,1.93.24,4.28,4.28,0,0,1,1.61.76,3.75,3.75,0,0,1,1.08,1.36,4.75,4.75,0,0,1,.4,2,4.28,4.28,0,0,1-.39,1.87,4,4,0,0,1-1,1.36,4.5,4.5,0,0,1-1.52.84,5.76,5.76,0,0,1-1.81.28H65Zm1.87,7h1a5.15,5.15,0,0,0,1.21-.14,2.51,2.51,0,0,0,1-.45,2.15,2.15,0,0,0,.65-.83,3.1,3.1,0,0,0,.23-1.25,2.57,2.57,0,0,0-.23-1.12,2.35,2.35,0,0,0-.63-.79,2.89,2.89,0,0,0-.93-.46,3.81,3.81,0,0,0-1.13-.16h-1.1Z"/>
        <path class="cls-7" d="M74.91,312.49h5.77v1.78h-3.9v1.64h3.68v1.78H76.78v1.78H80.9v1.78h-6Z"/>
        <path class="cls-7" d="M83.12,312.49h2.8a7.64,7.64,0,0,1,1.94.24,4.24,4.24,0,0,1,1.6.76,3.67,3.67,0,0,1,1.09,1.36,4.75,4.75,0,0,1,.4,2,4.28,4.28,0,0,1-.39,1.87,4,4,0,0,1-1,1.36A4.6,4.6,0,0,1,88,321a5.76,5.76,0,0,1-1.81.28H83.12Zm1.87,7h1a5.21,5.21,0,0,0,1.21-.14,2.51,2.51,0,0,0,1-.45,2.13,2.13,0,0,0,.64-.83A2.93,2.93,0,0,0,89,316.8a2.44,2.44,0,0,0-.24-1.12,2.13,2.13,0,0,0-.63-.79,2.7,2.7,0,0,0-.93-.46,3.75,3.75,0,0,0-1.12-.16H85Z"/>
        <path class="cls-7" d="M34.78,329a1.35,1.35,0,0,0-.62-.44,2.24,2.24,0,0,0-.74-.14,2.18,2.18,0,0,0-.42.05,1.38,1.38,0,0,0-.4.15,1,1,0,0,0-.32.28.73.73,0,0,0-.11.42.7.7,0,0,0,.28.61,2.92,2.92,0,0,0,.73.36l.94.3a3.18,3.18,0,0,1,.94.42,2.21,2.21,0,0,1,.73.73,2.27,2.27,0,0,1,.29,1.22,2.8,2.8,0,0,1-.27,1.27,2.47,2.47,0,0,1-.71.91,3.06,3.06,0,0,1-1.05.53,4.24,4.24,0,0,1-1.25.17,4.33,4.33,0,0,1-1.54-.26,3.78,3.78,0,0,1-1.32-.84l1.34-1.51a2,2,0,0,0,.72.62,2.09,2.09,0,0,0,.91.21,2.49,2.49,0,0,0,.46,0,1.6,1.6,0,0,0,.42-.17,1,1,0,0,0,.3-.29.67.67,0,0,0,.11-.4.73.73,0,0,0-.29-.63,2.85,2.85,0,0,0-.74-.39c-.29-.11-.61-.21-1-.32a4.61,4.61,0,0,1-1-.43,2.42,2.42,0,0,1-.74-.72,2.17,2.17,0,0,1-.29-1.18,2.65,2.65,0,0,1,.27-1.23,2.62,2.62,0,0,1,.72-.89,3.12,3.12,0,0,1,1-.54,4.07,4.07,0,0,1,1.21-.18,4.64,4.64,0,0,1,1.39.21,3.15,3.15,0,0,1,1.21.7Z"/>
        <path class="cls-7" d="M37.73,331.27a5.19,5.19,0,0,1,.34-1.9,4.22,4.22,0,0,1,1-1.46,4.27,4.27,0,0,1,1.45-.92,5.42,5.42,0,0,1,3.67,0,4.12,4.12,0,0,1,2.41,2.38,5,5,0,0,1,.34,1.9,5.07,5.07,0,0,1-.34,1.91,4.18,4.18,0,0,1-1,1.45,4,4,0,0,1-1.45.92,5.42,5.42,0,0,1-3.67,0,4.13,4.13,0,0,1-1.45-.92,4.18,4.18,0,0,1-1-1.45A5.28,5.28,0,0,1,37.73,331.27Zm2,0a3.39,3.39,0,0,0,.18,1.13,2.5,2.5,0,0,0,.54.89,2.46,2.46,0,0,0,.83.59,2.72,2.72,0,0,0,1.09.21,2.67,2.67,0,0,0,1.08-.21,2.47,2.47,0,0,0,1.37-1.48,3.43,3.43,0,0,0,0-2.25,2.45,2.45,0,0,0-1.37-1.49,2.67,2.67,0,0,0-1.08-.21,2.72,2.72,0,0,0-1.09.21,2.46,2.46,0,0,0-.83.59,2.55,2.55,0,0,0-.54.9A3.37,3.37,0,0,0,39.68,331.27Z"/>
        <path class="cls-7" d="M54.45,329.17a1.85,1.85,0,0,0-.68-.53,2.12,2.12,0,0,0-.93-.19,2.3,2.3,0,0,0-1,.21,2.37,2.37,0,0,0-.78.59,2.64,2.64,0,0,0-.51.9,3.43,3.43,0,0,0,0,2.25,2.59,2.59,0,0,0,.51.89,2.3,2.3,0,0,0,.76.59,2.12,2.12,0,0,0,.94.21,2,2,0,0,0,1-.25,1.93,1.93,0,0,0,.73-.69l1.56,1.2a3.24,3.24,0,0,1-1.37,1.15,4.07,4.07,0,0,1-1.7.37,5,5,0,0,1-1.84-.32,4.09,4.09,0,0,1-2.4-2.37,5.07,5.07,0,0,1-.34-1.91,5,5,0,0,1,.34-1.9,4.2,4.2,0,0,1,.95-1.46,4.27,4.27,0,0,1,1.45-.92,5.23,5.23,0,0,1,1.84-.32,4,4,0,0,1,.75.07,3.52,3.52,0,0,1,.77.21,3.2,3.2,0,0,1,.72.4,2.8,2.8,0,0,1,.63.61Z"/>
        <path class="cls-7" d="M57.8,326.89h1.87v8.76H57.8Z"/>
        <path class="cls-7" d="M62.16,326.89h5.78v1.78H64v1.64h3.68v1.78H64v1.78h4.11v1.78h-6Z"/>
        <path class="cls-7" d="M72,328.6H69.59v-1.71h6.72v1.71H73.89v7H72Z"/>
        <path class="cls-7" d="M79.68,326.89h1.55l3.7,8.76H82.82l-.74-1.86h-3.3l-.7,1.86H76Zm.72,2.55-1,2.72h2.08Z"/>
        <path class="cls-7" d="M86.57,326.89h1.87v7h3.47v1.78H86.57Z"/>
        <path class="cls-7" d="M33.38,341.29h1.54l3.7,8.76H36.51l-.73-1.86h-3.3l-.71,1.86H29.7Zm.72,2.55-1,2.72h2.08Z"/>
        <path class="cls-7" d="M39.47,341.29H42l3.61,6.09h0v-6.09h1.87v8.76H45.08l-3.71-6.24h0v6.24H39.47Z"/>
        <path class="cls-7" d="M49.25,341.29h2.81a7.64,7.64,0,0,1,1.94.24,4.31,4.31,0,0,1,1.6.76,3.67,3.67,0,0,1,1.09,1.36,4.86,4.86,0,0,1,.4,2.05,4.28,4.28,0,0,1-.39,1.87,4,4,0,0,1-1.05,1.36,4.55,4.55,0,0,1-1.53.84,5.71,5.71,0,0,1-1.81.28H49.25Zm1.87,7h1a5.06,5.06,0,0,0,1.2-.14,2.55,2.55,0,0,0,1-.45,2.23,2.23,0,0,0,.64-.83,2.94,2.94,0,0,0,.23-1.25,2.44,2.44,0,0,0-.23-1.12,2.35,2.35,0,0,0-.63-.79,2.7,2.7,0,0,0-.93-.46,3.79,3.79,0,0,0-1.12-.16H51.12Z"/>
        <path class="cls-7" d="M62,341.29h5.7v1.78H63.86v1.78H67.4v1.79H63.86v3.41H62Z"/>
        <path class="cls-7" d="M69,341.29h1.88v8.76H69Z"/>
        <path class="cls-7" d="M72.58,341.29h2.54l3.62,6.09h0v-6.09h1.87v8.76H78.18l-3.7-6.24h0v6.24H72.58Z"/>
        <path class="cls-7" d="M85.16,341.29H86.7l3.7,8.76H88.29l-.73-1.86h-3.3l-.71,1.86H81.48Zm.72,2.55-1,2.72h2.08Z"/>
        <path class="cls-7" d="M91.25,341.29H93.8l3.61,6.09h0v-6.09H99.3v8.76H96.86l-3.71-6.24h0v6.24H91.25Z"/>
        <path class="cls-7" d="M106.59,343.57a1.85,1.85,0,0,0-.68-.53,2.12,2.12,0,0,0-.93-.19,2.3,2.3,0,0,0-1,.21,2.37,2.37,0,0,0-.78.59,2.69,2.69,0,0,0-.51.89,3.23,3.23,0,0,0-.19,1.13,3.15,3.15,0,0,0,.19,1.13,2.69,2.69,0,0,0,.51.89,2.3,2.3,0,0,0,.76.59,2.12,2.12,0,0,0,.94.21,2,2,0,0,0,1-.25,1.93,1.93,0,0,0,.73-.69l1.56,1.2a3.24,3.24,0,0,1-1.37,1.15,4.07,4.07,0,0,1-1.7.37,5,5,0,0,1-1.84-.32,4.13,4.13,0,0,1-1.45-.92,4.25,4.25,0,0,1-1-1.45,5.07,5.07,0,0,1-.34-1.91,5,5,0,0,1,.34-1.9,4.2,4.2,0,0,1,1-1.46,4.13,4.13,0,0,1,1.45-.92,5.23,5.23,0,0,1,1.84-.32,4,4,0,0,1,.75.07,3.52,3.52,0,0,1,.77.21,3.2,3.2,0,0,1,.72.4,3,3,0,0,1,.63.6Z"/>
        <path class="cls-7" d="M109.23,341.29h1.87v8.76h-1.87Z"/>
        <path class="cls-7" d="M115.6,341.29h1.55l3.69,8.76h-2.11l-.73-1.86h-3.3l-.71,1.86h-2.06Zm.72,2.55-1,2.72h2.07Z"/>
        <path class="cls-7" d="M121.77,341.29h1.87v7h3.47v1.78h-5.34Z"/>
        <path class="cls-7" d="M29.74,355.69h2.14l2.1,5.74h0l2.14-5.74h2l-3.5,8.76h-1.5Z"/>
        <path class="cls-7" d="M41.82,355.69h1.55l3.7,8.76H45l-.74-1.86h-3.3l-.7,1.86H38.15Zm.72,2.55-1,2.72h2.08Z"/>
        <path class="cls-7" d="M48,355.69h1.87v7h3.47v1.78H48Z"/>
        <path class="cls-7" d="M61.53,361.07a4.44,4.44,0,0,1-.23,1.44,3.21,3.21,0,0,1-.68,1.14,3.07,3.07,0,0,1-1.12.75,4.13,4.13,0,0,1-1.55.27,4.18,4.18,0,0,1-1.56-.27,3.07,3.07,0,0,1-1.12-.75,3.21,3.21,0,0,1-.68-1.14,4.44,4.44,0,0,1-.23-1.44v-5.38h1.88V361a2.27,2.27,0,0,0,.12.75,1.81,1.81,0,0,0,.36.6,1.65,1.65,0,0,0,.54.4,1.77,1.77,0,0,0,1.38,0,1.9,1.9,0,0,0,.54-.4,1.79,1.79,0,0,0,.35-.6,2.27,2.27,0,0,0,.13-.75v-5.31h1.87Z"/>
        <path class="cls-7" d="M63.33,355.69H69.1v1.78H65.2v1.64h3.68v1.78H65.2v1.78h4.12v1.78h-6Z"/>
      </g>
    </g>
  </g>
</svg>
