<svg id="Layer_1" data-name="Layer 1" xmlns="http://www.w3.org/2000/svg" xmlns:xlink="http://www.w3.org/1999/xlink" width="806.86" height="688.5" viewBox="0 0 806.86 688.5">
  <defs>
    <style>
      .cls-1, .cls-5, .cls-7, .cls-8 {
        fill: none;
      }

      .cls-2 {
        clip-path: url(#clip-path);
      }

      .cls-3 {
        fill: #231f20;
      }

      .cls-4 {
        fill: #2a93be;
      }

      .cls-5, .cls-7 {
        stroke: #10416a;
      }

      .cls-5, .cls-7, .cls-8 {
        stroke-linecap: round;
        stroke-linejoin: round;
      }

      .cls-5 {
        stroke-dasharray: 0 2;
      }

      .cls-6 {
        clip-path: url(#clip-path-2);
      }

      .cls-8 {
        stroke: #ff665e;
      }
    </style>
    <clipPath id="clip-path">
      <rect class="cls-1" width="806.86" height="688.5"/>
    </clipPath>
    <clipPath id="clip-path-2">
      <rect class="cls-1" width="806.86" height="688.5"/>
    </clipPath>
  </defs>
  <title>2</title>
  <g class="cls-2">
    <g id="_2" data-name="2">
      <g id="_2-2" data-name="2">
        <g>
          <path class="cls-3" d="M674.81,11.17l2.39,6.54,2.38-6.54h1.86V19.7H680V16.89l.14-3.76-2.44,6.57h-1l-2.44-6.57.14,3.76V19.7H673V11.17Z"/>
          <path class="cls-3" d="M682.78,11.71a.72.72,0,0,1,.78-.76.71.71,0,0,1,.57.22.75.75,0,0,1,.21.54.73.73,0,0,1-.21.54.74.74,0,0,1-.57.21.76.76,0,0,1-.58-.21A.72.72,0,0,1,682.78,11.71Zm1.46,8h-1.38V13.36h1.38Z"/>
          <path class="cls-3" d="M689,18a.64.64,0,0,0-.3-.58,3,3,0,0,0-1-.35,5.43,5.43,0,0,1-1.18-.39,1.61,1.61,0,0,1-1-1.49,1.71,1.71,0,0,1,.67-1.38,2.61,2.61,0,0,1,1.7-.55,2.66,2.66,0,0,1,1.78.57,1.77,1.77,0,0,1,.68,1.45h-1.38a.91.91,0,0,0-.29-.68,1.13,1.13,0,0,0-.79-.27,1.16,1.16,0,0,0-.74.22.68.68,0,0,0-.29.58.58.58,0,0,0,.27.51,3.63,3.63,0,0,0,1.08.36,5.38,5.38,0,0,1,1.28.44,1.94,1.94,0,0,1,.68.61,1.61,1.61,0,0,1,.23.87,1.68,1.68,0,0,1-.69,1.39,2.89,2.89,0,0,1-1.8.53,3.26,3.26,0,0,1-1.35-.28,2.28,2.28,0,0,1-.92-.78,1.87,1.87,0,0,1-.33-1.06h1.34a1,1,0,0,0,.37.78,1.43,1.43,0,0,0,.91.27,1.39,1.39,0,0,0,.83-.21A.67.67,0,0,0,689,18Z"/>
          <path class="cls-3" d="M694.75,18a.63.63,0,0,0-.31-.58,3,3,0,0,0-1-.35,5.16,5.16,0,0,1-1.17-.39,1.62,1.62,0,0,1-1-1.49,1.74,1.74,0,0,1,.67-1.38,3,3,0,0,1,3.49,0,1.8,1.8,0,0,1,.68,1.45h-1.38a.88.88,0,0,0-.3-.68,1.1,1.1,0,0,0-.78-.27,1.16,1.16,0,0,0-.74.22.68.68,0,0,0-.29.58.58.58,0,0,0,.27.51,3.63,3.63,0,0,0,1.08.36,5.28,5.28,0,0,1,1.27.44,1.89,1.89,0,0,1,.69.61,1.61,1.61,0,0,1,.23.87,1.68,1.68,0,0,1-.69,1.39,2.89,2.89,0,0,1-1.8.53,3.19,3.19,0,0,1-1.35-.28,2.28,2.28,0,0,1-.92-.78A1.87,1.87,0,0,1,691,17.7h1.34a1,1,0,0,0,.37.78,1.42,1.42,0,0,0,.9.27,1.37,1.37,0,0,0,.83-.21A.68.68,0,0,0,694.75,18Z"/>
          <path class="cls-3" d="M697.09,11.71a.78.78,0,0,1,.2-.54.87.87,0,0,1,1.16,0,.78.78,0,0,1,.2.54.77.77,0,0,1-.2.54.91.91,0,0,1-1.16,0A.77.77,0,0,1,697.09,11.71Zm1.47,8h-1.39V13.36h1.39Z"/>
          <path class="cls-3" d="M699.58,16.47a3.83,3.83,0,0,1,.36-1.68,2.68,2.68,0,0,1,1-1.15,2.86,2.86,0,0,1,1.49-.4,2.64,2.64,0,0,1,2,.83,3.28,3.28,0,0,1,.84,2.19v.33a3.91,3.91,0,0,1-.35,1.68,2.72,2.72,0,0,1-1,1.14,2.82,2.82,0,0,1-1.51.41,2.62,2.62,0,0,1-2.08-.9,3.48,3.48,0,0,1-.78-2.38Zm1.38.12a2.64,2.64,0,0,0,.39,1.54,1.35,1.35,0,0,0,2.18,0,2.92,2.92,0,0,0,.39-1.65,2.54,2.54,0,0,0-.4-1.52,1.26,1.26,0,0,0-1.09-.56,1.24,1.24,0,0,0-1.07.55A2.79,2.79,0,0,0,701,16.59Z"/>
          <path class="cls-3" d="M707.53,13.36l0,.73a2.19,2.19,0,0,1,1.79-.85c1.28,0,1.93.76,1.95,2.27V19.7h-1.38V15.59a1.37,1.37,0,0,0-.25-.89,1.07,1.07,0,0,0-.83-.29,1.34,1.34,0,0,0-1.25.78V19.7h-1.38V13.36Z"/>
          <path class="cls-3" d="M713.33,13.23a.74.74,0,0,1,.59.22.77.77,0,0,1,.22.57.75.75,0,0,1-.81.77.78.78,0,0,1-.59-.22.75.75,0,0,1-.21-.55.8.8,0,0,1,.21-.57A.76.76,0,0,1,713.33,13.23Zm0,5a.77.77,0,0,1,.81.79.72.72,0,0,1-.22.55.74.74,0,0,1-.59.22.82.82,0,0,1-.59-.21.85.85,0,0,1,0-1.12A.76.76,0,0,1,713.33,18.2Z"/>
        </g>
        <g>
          <path class="cls-4" d="M675.18,37.26h-2V27h2Z"/>
          <path class="cls-4" d="M680.6,27l2.55,7.45L685.7,27h2.69V37.26h-2.06V34.45l.21-4.84-2.69,7.65h-1.41l-2.68-7.64.21,4.83v2.81h-2.05V27Z"/>
          <path class="cls-4" d="M693.07,33.64v3.62H691V27h3.88a4.44,4.44,0,0,1,2,.43,3.11,3.11,0,0,1,1.31,1.2,3.48,3.48,0,0,1,.45,1.77,3,3,0,0,1-1,2.38,4.09,4.09,0,0,1-2.77.87Zm0-1.71h1.83a1.71,1.71,0,0,0,1.24-.4,1.43,1.43,0,0,0,.43-1.12,1.7,1.7,0,0,0-.43-1.22,1.59,1.59,0,0,0-1.19-.48h-1.88Z"/>
          <path class="cls-4" d="M705.49,35.14h-3.6l-.68,2.12H699L702.73,27h1.9l3.73,10.27h-2.18Zm-3-1.71h2.49l-1.26-3.84Z"/>
          <path class="cls-4" d="M717.94,33.84a3.64,3.64,0,0,1-1.18,2.6,4.09,4.09,0,0,1-2.82,1,3.7,3.7,0,0,1-3-1.33,5.52,5.52,0,0,1-1.1-3.65v-.63a6.41,6.41,0,0,1,.5-2.6,3.83,3.83,0,0,1,1.45-1.73,3.91,3.91,0,0,1,2.18-.61,3.71,3.71,0,0,1,4,3.63h-2.05a2.18,2.18,0,0,0-.54-1.45,2,2,0,0,0-1.41-.44,1.73,1.73,0,0,0-1.53.75,4.37,4.37,0,0,0-.52,2.35v.78a4.6,4.6,0,0,0,.49,2.43,1.69,1.69,0,0,0,1.54.77,2,2,0,0,0,1.42-.45,2,2,0,0,0,.53-1.38Z"/>
          <path class="cls-4" d="M727.61,28.71h-3.05v8.55h-2V28.71h-3V27h8.11Z"/>
        </g>
        <g>
          <path class="cls-4" d="M681.17,49.91a6.31,6.31,0,0,1-.52,2.66,4,4,0,0,1-1.48,1.76A4.08,4.08,0,0,1,677,55a4.12,4.12,0,0,1-2.21-.61,4,4,0,0,1-1.5-1.76A6,6,0,0,1,672.7,50v-.51a6.24,6.24,0,0,1,.53-2.67A4,4,0,0,1,674.72,45a4.33,4.33,0,0,1,4.43,0,4,4,0,0,1,1.49,1.77,6.22,6.22,0,0,1,.53,2.66Zm-2.08-.47a4.38,4.38,0,0,0-.56-2.45,1.8,1.8,0,0,0-1.6-.84,1.83,1.83,0,0,0-1.59.83,4.44,4.44,0,0,0-.57,2.43v.5a4.52,4.52,0,0,0,.56,2.44,1.82,1.82,0,0,0,1.62.86,1.76,1.76,0,0,0,1.58-.83,4.42,4.42,0,0,0,.56-2.44Z"/>
          <path class="cls-4" d="M691.6,54.81h-2.05l-4-6.75v6.75h-2V44.55h2l4,6.76V44.55h2.05Z"/>
          <path class="cls-4" d="M696.28,53.11h4.35v1.7h-6.4V44.55h2Z"/>
          <path class="cls-4" d="M704.54,49.17l2.07-4.62h2.24l-3.26,6.54v3.72H703.5V51.09l-3.27-6.54h2.25Z"/>
          <path class="cls-4" d="M714.51,52a2.36,2.36,0,0,1,.39-1.31,5.31,5.31,0,0,1,1.42-1.35,7.09,7.09,0,0,1-.7-1.15,2.62,2.62,0,0,1-.25-1.13,2.54,2.54,0,0,1,2.71-2.69,2.53,2.53,0,0,1,1.83.68,2.23,2.23,0,0,1,.71,1.7,2.73,2.73,0,0,1-1.2,2.17l-.76.57,1.71,2.06a4,4,0,0,0,.4-1.81h1.69a5.36,5.36,0,0,1-.9,3.24l1.49,1.79h-2.24l-.51-.61a4.41,4.41,0,0,1-2.53.75,3.42,3.42,0,0,1-2.37-.8A2.71,2.71,0,0,1,714.51,52Zm3.35,1.27a2.46,2.46,0,0,0,1.35-.41l-2-2.34-.15.11a1.65,1.65,0,0,0-.6,1.26,1.32,1.32,0,0,0,1.36,1.38Zm-.72-6.23a2.46,2.46,0,0,0,.6,1.33l.53-.36a1.85,1.85,0,0,0,.55-.52,1.09,1.09,0,0,0,.16-.61.85.85,0,0,0-.26-.61.84.84,0,0,0-.65-.26.87.87,0,0,0-.68.28A1.08,1.08,0,0,0,717.14,47.08Z"/>
        </g>
        <g>
          <path class="cls-4" d="M680.87,71.06a3.52,3.52,0,0,1-1.56,1.06,6.48,6.48,0,0,1-2.25.38,4.3,4.3,0,0,1-2.26-.58,3.89,3.89,0,0,1-1.51-1.69,6.15,6.15,0,0,1-.54-2.6v-.7a6.58,6.58,0,0,1,.5-2.66,3.85,3.85,0,0,1,1.45-1.72,4.13,4.13,0,0,1,2.22-.59,4.09,4.09,0,0,1,2.77.87,3.76,3.76,0,0,1,1.18,2.53h-2a2.06,2.06,0,0,0-.61-1.29,1.9,1.9,0,0,0-1.29-.41,1.8,1.8,0,0,0-1.59.81,4.38,4.38,0,0,0-.55,2.41v.66a4.15,4.15,0,0,0,.59,2.44,2,2,0,0,0,1.74.82,2.23,2.23,0,0,0,1.65-.51V68.53H677V67h3.91Z"/>
          <path class="cls-4" d="M687,68.6h-1.63v3.76h-2V62.1h3.7a4.11,4.11,0,0,1,2.72.81,2.83,2.83,0,0,1,1,2.29,3.18,3.18,0,0,1-.45,1.75A3,3,0,0,1,689,68.07l2.15,4.19v.1h-2.2Zm-1.63-1.71h1.65a1.66,1.66,0,0,0,1.2-.4,1.49,1.49,0,0,0,.42-1.12,1.58,1.58,0,0,0-.39-1.14,1.64,1.64,0,0,0-1.23-.42h-1.65Z"/>
          <path class="cls-4" d="M698.75,70.25h-3.59l-.69,2.11h-2.18L696,62.1h1.9l3.72,10.26h-2.18Zm-3-1.72h2.49L697,64.69Z"/>
          <path class="cls-4" d="M711.47,72.36h-2.05l-4-6.75v6.75h-2V62.1h2l4,6.76V62.1h2Z"/>
          <path class="cls-4" d="M721.6,63.81h-3.05v8.55h-2V63.81h-3V62.1h8.11Z"/>
        </g>
        <g>
          <path class="cls-4" d="M675.68,79.65l2.55,7.44,2.55-7.44h2.69V89.91h-2.06v-2.8l.21-4.85-2.69,7.65h-1.41l-2.68-7.64.21,4.84v2.8h-2V79.65Z"/>
          <path class="cls-4" d="M691.72,87.8h-3.6l-.68,2.11h-2.18L689,79.65h1.91l3.72,10.26h-2.18Zm-3-1.72h2.49l-1.25-3.84Z"/>
          <path class="cls-4" d="M699.46,85.8,698.4,87v2.93h-2V79.65h2V84.3l.9-1.27,2.54-3.38h2.52l-3.54,4.56,3.64,5.7H702Z"/>
          <path class="cls-4" d="M708.25,89.91h-2V79.65h2Z"/>
          <path class="cls-4" d="M719.09,89.91H717l-4-6.75v6.75h-2V79.65h2l4,6.77V79.65h2.05Z"/>
          <path class="cls-4" d="M729.59,88.61A3.52,3.52,0,0,1,728,89.67a6.2,6.2,0,0,1-2.24.38,4.31,4.31,0,0,1-2.27-.58,3.81,3.81,0,0,1-1.5-1.69,6,6,0,0,1-.55-2.6v-.7a6.58,6.58,0,0,1,.5-2.66,3.85,3.85,0,0,1,1.45-1.72,4.16,4.16,0,0,1,2.22-.59,4.07,4.07,0,0,1,2.77.87,3.72,3.72,0,0,1,1.18,2.53h-2a2.12,2.12,0,0,0-.61-1.29,1.9,1.9,0,0,0-1.29-.41,1.81,1.81,0,0,0-1.59.81,4.42,4.42,0,0,0-.55,2.42v.65a4.2,4.2,0,0,0,.59,2.44,2,2,0,0,0,1.75.82,2.25,2.25,0,0,0,1.64-.5V86.08h-1.86V84.52h3.91Z"/>
        </g>
      </g>
      <line class="cls-5" x1="659.5" y1="2.5" x2="659.5" y2="147.3"/>
    </g>
    <g class="cls-6">
      <path class="cls-7" d="M659.5,148.3h0M659.5.5h0"/>
    </g>
    <path class="cls-8" d="M659.5,454.8h0m0-298h0"/>
  </g>
</svg>
