<svg xmlns="http://www.w3.org/2000/svg" xmlns:xlink="http://www.w3.org/1999/xlink" width="806.86" height="688.5" viewBox="0 0 806.86 688.5">
  <defs>
    <style>
      .cls-1, .cls-12, .cls-13 {
        fill: none;
      }

      .cls-2 {
        isolation: isolate;
      }

      .cls-3 {
        clip-path: url(#clip-path);
      }

      .cls-4 {
        fill: #409b73;
      }

      .cls-5 {
        clip-path: url(#clip-path-2);
      }

      .cls-6 {
        mix-blend-mode: multiply;
      }

      .cls-7 {
        clip-path: url(#clip-path-3);
      }

      .cls-8 {
        fill: #9ecdb8;
      }

      .cls-9 {
        clip-path: url(#clip-path-4);
      }

      .cls-10 {
        clip-path: url(#clip-path-5);
      }

      .cls-11 {
        fill: #fff;
      }

      .cls-12 {
        stroke: #10416a;
      }

      .cls-12, .cls-13 {
        stroke-linecap: round;
        stroke-linejoin: round;
      }

      .cls-13 {
        stroke: #ff665e;
      }
    </style>
    <clipPath id="clip-path">
      <rect class="cls-1" width="806.86" height="688.5"/>
    </clipPath>
    <clipPath id="clip-path-2">
      <rect class="cls-1" width="806.86" height="688.5"/>
    </clipPath>
    <clipPath id="clip-path-3">
      <rect class="cls-1" x="305.28" y="153.8" width="84.33" height="117.63"/>
    </clipPath>
    <clipPath id="clip-path-4">
      <rect class="cls-1" x="305.28" y="308.11" width="84.33" height="78.79"/>
    </clipPath>
    <clipPath id="clip-path-5">
      <rect class="cls-1" x="305.28" y="230.95" width="84.33" height="94.7"/>
    </clipPath>
  </defs>
  <title>3</title>
  <g class="cls-2">
    <g id="Layer_1" data-name="Layer 1">
      <g class="cls-3">
        <g id="_3" data-name="3">
          <rect class="cls-4" x="380.61" y="154.8" width="271.63" height="70.79"/>
          <rect class="cls-4" x="380.61" y="309.11" width="271.63" height="70.79"/>
          <g id="_3-2" data-name="3">
            <rect class="cls-4" x="200.15" y="217.09" width="114.28" height="151.18"/>
            <rect class="cls-4" x="380.61" y="231.95" width="271.63" height="70.79"/>
            <polygon class="cls-4" points="314.28 264.43 314.28 217.36 380.61 154.8 380.61 225.59 314.28 264.43"/>
            <polygon class="cls-4" points="314.28 368.21 314.28 321.13 380.61 309.11 380.61 379.89 314.28 368.21"/>
            <polygon class="cls-4" points="314.28 318.65 314.28 268.66 380.61 231.95 380.61 302.74 314.28 318.65"/>
            <g class="cls-5">
              <g class="cls-6">
                <g class="cls-7">
                  <polygon class="cls-8" points="314.28 264.43 314.28 217.36 380.61 154.8 380.61 225.59 314.28 264.43"/>
                </g>
              </g>
              <g class="cls-6">
                <g class="cls-9">
                  <polygon class="cls-8" points="314.28 368.21 314.28 321.13 380.61 309.11 380.61 379.89 314.28 368.21"/>
                </g>
              </g>
              <g class="cls-6">
                <g class="cls-10">
                  <polygon class="cls-8" points="314.28 318.65 314.28 268.66 380.61 231.95 380.61 302.74 314.28 318.65"/>
                </g>
              </g>
            </g>
            <g>
              <path class="cls-11" d="M234.59,276.78h-1.08v3h-2v-8.53h3.26a3.54,3.54,0,0,1,2.3.68,2.3,2.3,0,0,1,.83,1.9,2.76,2.76,0,0,1-.35,1.47,2.5,2.5,0,0,1-1.09.95l1.73,3.45v.08h-2.14Zm-1.08-1.59h1.26a1.15,1.15,0,0,0,.86-.3,1.24,1.24,0,0,0,.28-.86,1.21,1.21,0,0,0-.29-.87,1.09,1.09,0,0,0-.85-.32h-1.26Z"/>
              <path class="cls-11" d="M244,276.17h-3.14v2h3.7v1.58h-5.7v-8.53h5.72v1.59h-3.72v1.8H244Z"/>
              <path class="cls-11" d="M248.38,277.47l1.65-6.21h2.22l-2.78,8.53h-2.18l-2.77-8.53h2.21Z"/>
              <path class="cls-11" d="M257.77,276.17h-3.14v2h3.71v1.58h-5.71v-8.53h5.72v1.59h-3.72v1.8h3.14Z"/>
              <path class="cls-11" d="M265.84,279.79h-2l-2.93-5.3v5.3h-2v-8.53h2l2.93,5.31v-5.31h2Z"/>
              <path class="cls-11" d="M273.37,271.26v5.59a3.29,3.29,0,0,1-.39,1.64,2.58,2.58,0,0,1-1.13,1.06,3.87,3.87,0,0,1-1.73.36,3.35,3.35,0,0,1-2.38-.81,2.91,2.91,0,0,1-.89-2.21v-5.63h2v5.67c0,.93.44,1.4,1.26,1.4a1.24,1.24,0,0,0,.94-.35,1.72,1.72,0,0,0,.32-1.15v-5.57Z"/>
              <path class="cls-11" d="M279.51,276.17h-3.13v2h3.7v1.58h-5.7v-8.53h5.71v1.59h-3.71v1.8h3.13Z"/>
            </g>
            <g>
              <path class="cls-11" d="M228.08,291.74a3.19,3.19,0,0,1-1.35.84,5.53,5.53,0,0,1-1.94.33,3.4,3.4,0,0,1-2.6-1,4.22,4.22,0,0,1-1-2.85v-.74a5.2,5.2,0,0,1,.43-2.2,3.32,3.32,0,0,1,1.23-1.45,3.42,3.42,0,0,1,1.87-.5,3.57,3.57,0,0,1,2.4.73,3.09,3.09,0,0,1,1,2.17h-1.92a1.62,1.62,0,0,0-.44-1,1.43,1.43,0,0,0-1-.3,1.31,1.31,0,0,0-1.16.65,3.62,3.62,0,0,0-.41,1.88v.51a3.5,3.5,0,0,0,.42,1.92,1.5,1.5,0,0,0,1.34.65,1.66,1.66,0,0,0,1.16-.36v-1.33H224.7v-1.41h3.38Z"/>
              <path class="cls-11" d="M234.15,289.17H231v2h3.71v1.58H229v-8.53h5.71v1.59H231v1.8h3.14Z"/>
              <path class="cls-11" d="M242.22,292.79h-2l-2.93-5.31v5.31h-2v-8.53h2l2.92,5.31v-5.31h2Z"/>
              <path class="cls-11" d="M248.39,289.17h-3.13v2H249v1.58h-5.7v-8.53H249v1.59h-3.71v1.8h3.13Z"/>
              <path class="cls-11" d="M252.63,289.77h-1.08v3h-2v-8.53h3.26a3.54,3.54,0,0,1,2.3.67,2.29,2.29,0,0,1,.83,1.9,2.77,2.77,0,0,1-.35,1.48,2.45,2.45,0,0,1-1.09.95l1.73,3.44v.09h-2.14Zm-1.08-1.58h1.26a1.1,1.1,0,0,0,.86-.31A1.2,1.2,0,0,0,254,287a1.17,1.17,0,0,0-.29-.86,1.09,1.09,0,0,0-.85-.32h-1.26Z"/>
              <path class="cls-11" d="M261.63,291.2h-2.74l-.47,1.59h-2.14l3-8.53h1.88l3.05,8.53h-2.14Zm-2.26-1.59h1.78l-.89-3Z"/>
              <path class="cls-11" d="M270.05,285.85h-2.49v6.94h-2v-6.94h-2.44v-1.59h6.92Z"/>
              <path class="cls-11" d="M272.79,292.79h-2v-8.53h2Z"/>
              <path class="cls-11" d="M280.87,292.79h-2L276,287.48v5.31h-2v-8.53h2l2.93,5.31v-5.31h2Z"/>
              <path class="cls-11" d="M288.69,291.74a3.19,3.19,0,0,1-1.35.84,5.53,5.53,0,0,1-1.94.33,3.39,3.39,0,0,1-2.6-1,4.17,4.17,0,0,1-1-2.85v-.74a5.36,5.36,0,0,1,.43-2.2,3.28,3.28,0,0,1,1.24-1.45,3.41,3.41,0,0,1,1.86-.5,3.57,3.57,0,0,1,2.4.73,3.09,3.09,0,0,1,1,2.17h-1.92a1.73,1.73,0,0,0-.44-1,1.43,1.43,0,0,0-1-.3,1.3,1.3,0,0,0-1.16.65,3.62,3.62,0,0,0-.41,1.88v.51a3.5,3.5,0,0,0,.42,1.92,1.48,1.48,0,0,0,1.33.65,1.63,1.63,0,0,0,1.16-.36v-1.33H285.3v-1.41h3.39Z"/>
            </g>
            <g>
              <path class="cls-11" d="M242.27,303.52a.86.86,0,0,0-.31-.7,3.78,3.78,0,0,0-1.09-.53,10.14,10.14,0,0,1-1.28-.52,2.47,2.47,0,0,1-1.6-2.24,2,2,0,0,1,.4-1.25,2.53,2.53,0,0,1,1.13-.84,4.33,4.33,0,0,1,1.65-.3,3.75,3.75,0,0,1,1.6.33,2.46,2.46,0,0,1,1.49,2.32h-2A1,1,0,0,0,242,299a1.19,1.19,0,0,0-.84-.29,1.35,1.35,0,0,0-.84.24.74.74,0,0,0,0,1.22,4.58,4.58,0,0,0,1.2.55,7.33,7.33,0,0,1,1.41.61,2.45,2.45,0,0,1,1.34,2.2,2.08,2.08,0,0,1-.82,1.75,3.51,3.51,0,0,1-2.24.64,4.29,4.29,0,0,1-1.82-.37,2.74,2.74,0,0,1-1.23-1,2.67,2.67,0,0,1-.41-1.49h2a1.33,1.33,0,0,0,.34,1,1.58,1.58,0,0,0,1.12.33,1.29,1.29,0,0,0,.78-.22A.75.75,0,0,0,242.27,303.52Z"/>
              <path class="cls-11" d="M252.07,301.7a5.19,5.19,0,0,1-.45,2.21,3.34,3.34,0,0,1-1.27,1.47,3.72,3.72,0,0,1-3.76,0,3.3,3.3,0,0,1-1.28-1.43,4.85,4.85,0,0,1-.48-2.14v-.48a5.13,5.13,0,0,1,.45-2.21,3.35,3.35,0,0,1,1.27-1.48,3.73,3.73,0,0,1,3.78,0,3.61,3.61,0,0,1,1.28,1.47,5.06,5.06,0,0,1,.46,2.18Zm-2-.36a3.72,3.72,0,0,0-.41-1.93,1.32,1.32,0,0,0-1.18-.66c-1,0-1.53.77-1.59,2.32v.63a3.76,3.76,0,0,0,.4,1.92,1.38,1.38,0,0,0,2.37,0,3.71,3.71,0,0,0,.41-1.91Z"/>
              <path class="cls-11" d="M259.57,302.9a3.14,3.14,0,0,1-.46,1.57,2.88,2.88,0,0,1-1.2,1.06,4,4,0,0,1-1.76.37,3.21,3.21,0,0,1-2.57-1.09,4.65,4.65,0,0,1-.94-3.1v-.42a5.31,5.31,0,0,1,.43-2.19,3.2,3.2,0,0,1,3.06-2,3.48,3.48,0,0,1,2.42.82,3.25,3.25,0,0,1,1,2.25h-2a1.54,1.54,0,0,0-.38-1.12,1.56,1.56,0,0,0-1.09-.34,1.17,1.17,0,0,0-1.09.58,3.87,3.87,0,0,0-.37,1.83v.6a4.08,4.08,0,0,0,.34,2,1.2,1.2,0,0,0,1.14.58,1.5,1.5,0,0,0,1.05-.33,1.43,1.43,0,0,0,.39-1.06Z"/>
              <path class="cls-11" d="M262.41,305.79h-2v-8.54h2Z"/>
              <path class="cls-11" d="M268.27,304.19h-2.73l-.48,1.6h-2.13l3-8.54h1.87l3.06,8.54h-2.14ZM266,302.6h1.78l-.9-3Z"/>
              <path class="cls-11" d="M273.27,304.2h3.47v1.59h-5.47v-8.54h2Z"/>
            </g>
            <g>
              <path class="cls-11" d="M226.34,315.16h-3.13v2h3.7v1.58h-5.7v-8.53h5.71v1.59h-3.71v1.8h3.13Z"/>
              <path class="cls-11" d="M234.42,318.78h-2l-2.93-5.31v5.31h-2v-8.53h2l2.93,5.31v-5.31h2Z"/>
              <path class="cls-11" d="M242,311.84h-2.48v6.94h-2v-6.94H235v-1.59H242Z"/>
              <path class="cls-11" d="M247.7,315.16h-3.13v2h3.7v1.58h-5.7v-8.53h5.71v1.59h-3.71v1.8h3.13Z"/>
              <path class="cls-11" d="M251.94,315.76h-1.08v3h-2v-8.53h3.26a3.6,3.6,0,0,1,2.3.67,2.31,2.31,0,0,1,.83,1.91,2.76,2.76,0,0,1-.35,1.47,2.45,2.45,0,0,1-1.09.95l1.73,3.44v.09H253.4Zm-1.08-1.58h1.26a1.1,1.1,0,0,0,.86-.31,1.44,1.44,0,0,0,0-1.72,1.09,1.09,0,0,0-.85-.32h-1.26Z"/>
              <path class="cls-11" d="M258.22,315.89v2.89h-2v-8.53h3.3a3.77,3.77,0,0,1,1.68.36,2.68,2.68,0,0,1,1.13,1,2.91,2.91,0,0,1,.4,1.51,2.49,2.49,0,0,1-.87,2,3.52,3.52,0,0,1-2.38.75Zm0-1.59h1.31a1.2,1.2,0,0,0,.88-.3,1.14,1.14,0,0,0,.31-.84,1.41,1.41,0,0,0-.32-1,1.07,1.07,0,0,0-.85-.36h-1.33Z"/>
              <path class="cls-11" d="M266.66,315.76h-1.08v3h-2v-8.53h3.26a3.6,3.6,0,0,1,2.3.67,2.34,2.34,0,0,1,.83,1.91,2.86,2.86,0,0,1-.35,1.47,2.48,2.48,0,0,1-1.1.95l1.73,3.44v.09h-2.13Zm-1.08-1.58h1.26a1.08,1.08,0,0,0,.85-.31A1.21,1.21,0,0,0,268,313a1.24,1.24,0,0,0-.29-.86,1.1,1.1,0,0,0-.85-.32h-1.26Z"/>
              <path class="cls-11" d="M273.08,318.78h-2v-8.53h2Z"/>
              <path class="cls-11" d="M278.51,316.51a.84.84,0,0,0-.31-.7,3.68,3.68,0,0,0-1.09-.52,9.92,9.92,0,0,1-1.27-.52,2.48,2.48,0,0,1-1.61-2.24,2.09,2.09,0,0,1,.4-1.25,2.62,2.62,0,0,1,1.14-.84,4.15,4.15,0,0,1,1.65-.31,3.78,3.78,0,0,1,1.6.33,2.59,2.59,0,0,1,1.1.94,2.48,2.48,0,0,1,.39,1.38h-2a1.08,1.08,0,0,0-.31-.81,1.2,1.2,0,0,0-.84-.28,1.31,1.31,0,0,0-.84.24.73.73,0,0,0,0,1.21,4,4,0,0,0,1.2.55,7.29,7.29,0,0,1,1.41.62,2.45,2.45,0,0,1,1.34,2.19,2.13,2.13,0,0,1-.82,1.76,3.56,3.56,0,0,1-2.25.64,4.32,4.32,0,0,1-1.82-.37,2.85,2.85,0,0,1-1.23-1A2.75,2.75,0,0,1,274,316h2a1.34,1.34,0,0,0,.35,1,1.62,1.62,0,0,0,1.11.32,1.28,1.28,0,0,0,.79-.22A.72.72,0,0,0,278.51,316.51Z"/>
              <path class="cls-11" d="M286.44,315.16H283.3v2H287v1.58h-5.7v-8.53H287v1.59H283.3v1.8h3.14Z"/>
              <path class="cls-11" d="M291.87,316.51a.84.84,0,0,0-.31-.7,3.81,3.81,0,0,0-1.09-.52,9.92,9.92,0,0,1-1.27-.52,2.48,2.48,0,0,1-1.61-2.24,2,2,0,0,1,.4-1.25,2.65,2.65,0,0,1,1.13-.84,4.15,4.15,0,0,1,1.65-.31,3.72,3.72,0,0,1,1.6.33,2.54,2.54,0,0,1,1.1.94,2.48,2.48,0,0,1,.39,1.38h-2a1.08,1.08,0,0,0-.31-.81,1.2,1.2,0,0,0-.84-.28,1.36,1.36,0,0,0-.85.24.73.73,0,0,0,0,1.21,4.27,4.27,0,0,0,1.2.55,6.78,6.78,0,0,1,1.41.62,2.43,2.43,0,0,1,1.34,2.19,2.12,2.12,0,0,1-.81,1.76,3.56,3.56,0,0,1-2.25.64,4.29,4.29,0,0,1-1.82-.37,2.85,2.85,0,0,1-1.23-1,2.75,2.75,0,0,1-.41-1.49h2a1.38,1.38,0,0,0,.34,1,1.65,1.65,0,0,0,1.12.32,1.23,1.23,0,0,0,.78-.22A.73.73,0,0,0,291.87,316.51Z"/>
            </g>
            <g>
              <path class="cls-11" d="M449.05,184.48v3.69h-1.72v-9.95h3.8a3.83,3.83,0,0,1,2.65.87,2.91,2.91,0,0,1,1,2.3,2.83,2.83,0,0,1-1,2.28,4,4,0,0,1-2.69.81Zm0-1.39h2.08a2,2,0,0,0,1.41-.44,1.6,1.6,0,0,0,.49-1.25,1.72,1.72,0,0,0-.5-1.29,1.85,1.85,0,0,0-1.35-.49h-2.13Z"/>
              <path class="cls-11" d="M455.94,184.41a4.31,4.31,0,0,1,.43-2,3.15,3.15,0,0,1,1.21-1.34,3.44,3.44,0,0,1,1.79-.47,3.23,3.23,0,0,1,2.43,1,3.83,3.83,0,0,1,1,2.56v.39a4.44,4.44,0,0,1-.42,2,3.12,3.12,0,0,1-1.21,1.33,3.45,3.45,0,0,1-1.8.47,3.23,3.23,0,0,1-2.51-1,4,4,0,0,1-.94-2.78Zm1.66.14a3,3,0,0,0,.47,1.79,1.55,1.55,0,0,0,1.32.64,1.52,1.52,0,0,0,1.31-.65,3.32,3.32,0,0,0,.46-1.92,3,3,0,0,0-.48-1.78,1.62,1.62,0,0,0-2.6,0A3.21,3.21,0,0,0,457.6,184.55Z"/>
              <path class="cls-11" d="M466.43,179v1.8h1.31V182h-1.31v4.13a.93.93,0,0,0,.17.61.8.8,0,0,0,.6.19,3,3,0,0,0,.58-.07v1.28a4,4,0,0,1-1.1.16c-1.27,0-1.91-.7-1.91-2.11V182h-1.22v-1.23h1.22V179Z"/>
              <path class="cls-11" d="M472.39,188.31a3.43,3.43,0,0,1-2.56-1,3.6,3.6,0,0,1-1-2.65v-.21a4.5,4.5,0,0,1,.42-2,3.29,3.29,0,0,1,1.2-1.35,3.14,3.14,0,0,1,1.73-.49,2.91,2.91,0,0,1,2.33,1,4.1,4.1,0,0,1,.82,2.73V185h-4.83a2.25,2.25,0,0,0,.61,1.45,1.82,1.82,0,0,0,1.35.53,2.24,2.24,0,0,0,1.86-.92l.9.86a3,3,0,0,1-1.19,1A3.62,3.62,0,0,1,472.39,188.31Zm-.2-6.34a1.38,1.38,0,0,0-1.1.48,2.45,2.45,0,0,0-.54,1.34h3.16v-.13a2,2,0,0,0-.44-1.26A1.41,1.41,0,0,0,472.19,182Z"/>
              <path class="cls-11" d="M478.31,180.78l.05.85a2.66,2.66,0,0,1,2.15-1c1.54,0,2.33.88,2.35,2.65v4.88H481.2v-4.79a1.52,1.52,0,0,0-.3-1,1.27,1.27,0,0,0-1-.34,1.58,1.58,0,0,0-1.49.91v5.26h-1.66v-7.39Z"/>
              <path class="cls-11" d="M486.78,179v1.8h1.3V182h-1.3v4.13a.93.93,0,0,0,.16.61.83.83,0,0,0,.6.19,2.87,2.87,0,0,0,.58-.07v1.28a3.84,3.84,0,0,1-1.09.16c-1.28,0-1.91-.7-1.91-2.11V182H483.9v-1.23h1.22V179Z"/>
              <path class="cls-11" d="M489.48,178.86a.89.89,0,0,1,.24-.64.92.92,0,0,1,.7-.25.9.9,0,0,1,.69.25.86.86,0,0,1,.25.64.81.81,0,0,1-.25.62.9.9,0,0,1-.69.25.92.92,0,0,1-.7-.25A.84.84,0,0,1,489.48,178.86Zm1.76,9.31h-1.66v-7.39h1.66Z"/>
              <path class="cls-11" d="M497.6,188.17a2.17,2.17,0,0,1-.19-.69,2.61,2.61,0,0,1-2,.83,2.57,2.57,0,0,1-1.81-.64,2,2,0,0,1-.71-1.57,2.1,2.1,0,0,1,.88-1.81,4.27,4.27,0,0,1,2.51-.63h1v-.49a1.32,1.32,0,0,0-.32-.92,1.27,1.27,0,0,0-1-.34,1.45,1.45,0,0,0-.93.28.88.88,0,0,0-.36.72H493.1a1.82,1.82,0,0,1,.4-1.14,2.74,2.74,0,0,1,1.1-.83,3.86,3.86,0,0,1,1.55-.3,3.13,3.13,0,0,1,2.07.65,2.34,2.34,0,0,1,.79,1.84v3.33a3.93,3.93,0,0,0,.28,1.6v.11ZM495.77,187a1.9,1.9,0,0,0,.93-.24,1.6,1.6,0,0,0,.65-.64v-1.4h-.89a2.48,2.48,0,0,0-1.39.32,1.06,1.06,0,0,0-.47.91,1,1,0,0,0,.32.76A1.23,1.23,0,0,0,495.77,187Z"/>
              <path class="cls-11" d="M502.65,188.17H501v-10.5h1.67Z"/>
              <path class="cls-11" d="M506.35,188.17h-1.66v-10.5h1.66Z"/>
              <path class="cls-11" d="M510.87,185.79l1.5-5h1.77l-2.94,8.51a2.38,2.38,0,0,1-2.29,1.87,3,3,0,0,1-.8-.12v-1.29l.31,0a1.64,1.64,0,0,0,.95-.23,1.5,1.5,0,0,0,.5-.77l.24-.64-2.6-7.35h1.79Z"/>
              <path class="cls-11" d="M523,186.16a.74.74,0,0,0-.37-.67,3.7,3.7,0,0,0-1.21-.41,6.33,6.33,0,0,1-1.41-.45,1.9,1.9,0,0,1-1.25-1.75,2,2,0,0,1,.81-1.6,3.18,3.18,0,0,1,2.05-.64,3.3,3.3,0,0,1,2.14.66,2.05,2.05,0,0,1,.82,1.7H522.9a1,1,0,0,0-.36-.8,1.35,1.35,0,0,0-.94-.32,1.47,1.47,0,0,0-.89.26.8.8,0,0,0-.35.67.68.68,0,0,0,.32.6,4.75,4.75,0,0,0,1.3.43,6,6,0,0,1,1.54.51,2.24,2.24,0,0,1,.82.71,1.85,1.85,0,0,1,.27,1,1.92,1.92,0,0,1-.82,1.61,3.56,3.56,0,0,1-2.17.62A3.78,3.78,0,0,1,520,188a2.76,2.76,0,0,1-1.11-.9,2.17,2.17,0,0,1-.39-1.24h1.61a1.18,1.18,0,0,0,.44.91,1.76,1.76,0,0,0,1.09.32,1.73,1.73,0,0,0,1-.25A.78.78,0,0,0,523,186.16Z"/>
              <path class="cls-11" d="M530.68,187.45a2.59,2.59,0,0,1-2.08.86,2.29,2.29,0,0,1-1.82-.7,3,3,0,0,1-.62-2v-4.79h1.66v4.77q0,1.41,1.17,1.41a1.65,1.65,0,0,0,1.64-.87v-5.31h1.66v7.39h-1.57Z"/>
              <path class="cls-11" d="M538.27,186.16a.76.76,0,0,0-.37-.67,3.79,3.79,0,0,0-1.21-.41,6.43,6.43,0,0,1-1.42-.45,1.89,1.89,0,0,1-1.24-1.75,2,2,0,0,1,.8-1.6,3.2,3.2,0,0,1,2-.64,3.32,3.32,0,0,1,2.15.66,2.07,2.07,0,0,1,.81,1.7h-1.66a1,1,0,0,0-.35-.8,1.38,1.38,0,0,0-1-.32,1.47,1.47,0,0,0-.89.26.79.79,0,0,0-.34.67.66.66,0,0,0,.32.6,4.63,4.63,0,0,0,1.3.43,5.91,5.91,0,0,1,1.53.51,2.27,2.27,0,0,1,.83.71,1.85,1.85,0,0,1,.27,1,1.93,1.93,0,0,1-.83,1.61,3.53,3.53,0,0,1-2.16.62,3.78,3.78,0,0,1-1.62-.33,2.64,2.64,0,0,1-1.11-.9,2.11,2.11,0,0,1-.4-1.24h1.61a1.22,1.22,0,0,0,.45.91,1.72,1.72,0,0,0,1.09.32,1.7,1.7,0,0,0,1-.25A.79.79,0,0,0,538.27,186.16Z"/>
              <path class="cls-11" d="M543.57,179v1.8h1.3V182h-1.3v4.13a.93.93,0,0,0,.16.61.81.81,0,0,0,.6.19,2.87,2.87,0,0,0,.58-.07v1.28a3.84,3.84,0,0,1-1.09.16c-1.28,0-1.91-.7-1.91-2.11V182h-1.22v-1.23h1.22V179Z"/>
              <path class="cls-11" d="M550.69,188.17a2.42,2.42,0,0,1-.2-.69,2.78,2.78,0,0,1-3.76.19,2,2,0,0,1-.7-1.57,2.08,2.08,0,0,1,.88-1.81,4.25,4.25,0,0,1,2.51-.63h1v-.49a1.32,1.32,0,0,0-.32-.92,1.28,1.28,0,0,0-1-.34,1.45,1.45,0,0,0-.93.28.88.88,0,0,0-.36.72h-1.66a1.82,1.82,0,0,1,.4-1.14,2.74,2.74,0,0,1,1.1-.83,3.86,3.86,0,0,1,1.55-.3,3.15,3.15,0,0,1,2.07.65,2.34,2.34,0,0,1,.79,1.84v3.33a3.76,3.76,0,0,0,.28,1.6v.11ZM548.86,187a1.9,1.9,0,0,0,.93-.24,1.67,1.67,0,0,0,.65-.64v-1.4h-.9a2.47,2.47,0,0,0-1.38.32,1.06,1.06,0,0,0-.47.91,1,1,0,0,0,.32.76A1.22,1.22,0,0,0,548.86,187Z"/>
              <path class="cls-11" d="M554,178.86a.89.89,0,0,1,.24-.64.92.92,0,0,1,.7-.25.9.9,0,0,1,.69.25.86.86,0,0,1,.25.64.81.81,0,0,1-.25.62.9.9,0,0,1-.69.25.92.92,0,0,1-.7-.25A.84.84,0,0,1,554,178.86Zm1.76,9.31h-1.66v-7.39h1.66Z"/>
              <path class="cls-11" d="M559.21,180.78l0,.85a2.64,2.64,0,0,1,2.15-1c1.54,0,2.32.88,2.35,2.65v4.88H562.1v-4.79a1.52,1.52,0,0,0-.3-1,1.29,1.29,0,0,0-1-.34,1.6,1.6,0,0,0-1.5.91v5.26h-1.66v-7.39Z"/>
              <path class="cls-11" d="M570,188.17a2.89,2.89,0,0,1-.19-.69,2.78,2.78,0,0,1-3.76.19,2,2,0,0,1-.7-1.57,2.08,2.08,0,0,1,.88-1.81,4.25,4.25,0,0,1,2.51-.63h1v-.49a1.32,1.32,0,0,0-.32-.92,1.28,1.28,0,0,0-1-.34,1.45,1.45,0,0,0-.93.28.88.88,0,0,0-.36.72h-1.67a1.83,1.83,0,0,1,.41-1.14,2.68,2.68,0,0,1,1.1-.83,3.81,3.81,0,0,1,1.54-.3,3.11,3.11,0,0,1,2.07.65,2.35,2.35,0,0,1,.8,1.84v3.33a3.76,3.76,0,0,0,.28,1.6v.11ZM568.19,187a1.86,1.86,0,0,0,.92-.24,1.7,1.7,0,0,0,.66-.64v-1.4h-.9a2.5,2.5,0,0,0-1.39.32,1,1,0,0,0-.46.91.94.94,0,0,0,.32.76A1.22,1.22,0,0,0,568.19,187Z"/>
              <path class="cls-11" d="M579.78,184.55a4.39,4.39,0,0,1-.77,2.74,2.49,2.49,0,0,1-2.11,1,2.39,2.39,0,0,1-2-.94l-.09.8h-1.5v-10.5H575v3.82a2.39,2.39,0,0,1,1.94-.85,2.52,2.52,0,0,1,2.12,1,4.47,4.47,0,0,1,.77,2.81Zm-1.66-.14a3.16,3.16,0,0,0-.42-1.81,1.41,1.41,0,0,0-1.23-.6,1.55,1.55,0,0,0-1.52.94V186a1.56,1.56,0,0,0,1.53,1,1.44,1.44,0,0,0,1.21-.58,3.1,3.1,0,0,0,.43-1.76Z"/>
              <path class="cls-11" d="M583.07,188.17h-1.66v-10.5h1.66Z"/>
              <path class="cls-11" d="M588.26,188.31a3.44,3.44,0,0,1-2.56-1,3.64,3.64,0,0,1-1-2.65v-.21a4.37,4.37,0,0,1,.43-2,3.15,3.15,0,0,1,1.2-1.35,3.11,3.11,0,0,1,1.72-.49,2.9,2.9,0,0,1,2.33,1,4.1,4.1,0,0,1,.83,2.73V185h-4.84a2.21,2.21,0,0,0,.62,1.45,1.79,1.79,0,0,0,1.35.53,2.24,2.24,0,0,0,1.86-.92l.89.86a2.93,2.93,0,0,1-1.18,1A3.66,3.66,0,0,1,588.26,188.31Zm-.2-6.34a1.4,1.4,0,0,0-1.1.48,2.53,2.53,0,0,0-.54,1.34h3.17v-.13a2.06,2.06,0,0,0-.45-1.26A1.41,1.41,0,0,0,588.06,182Z"/>
            </g>
            <g>
              <path class="cls-11" d="M453.09,202.83l-4.23-1.55v-1.63l5.91,2.54v1.32l-5.91,2.54v-1.63Z"/>
              <path class="cls-11" d="M462.78,198.15l-4,9h-1.75l4-8.62h-5.14v-1.33h6.89Z"/>
              <path class="cls-11" d="M464.69,202.25l.54-5h5.34v1.43h-4l-.28,2.38a3.11,3.11,0,0,1,1.56-.39,2.78,2.78,0,0,1,2.22.91,3.61,3.61,0,0,1,.78,2.44,3.32,3.32,0,0,1-.87,2.42,3.18,3.18,0,0,1-2.4.9,3.35,3.35,0,0,1-2.27-.78,2.78,2.78,0,0,1-1-2H466a1.71,1.71,0,0,0,.52,1.11,1.6,1.6,0,0,0,1.1.38,1.46,1.46,0,0,0,1.2-.54,2.42,2.42,0,0,0,.42-1.49,2,2,0,0,0-.47-1.44,1.63,1.63,0,0,0-1.3-.53,2.13,2.13,0,0,0-.76.12,2.23,2.23,0,0,0-.69.46Z"/>
              <path class="cls-11" d="M472.26,199.14a2,2,0,0,1,.58-1.48,2.08,2.08,0,0,1,1.52-.57,2.11,2.11,0,0,1,1.54.57,2.08,2.08,0,0,1,.58,1.52v.49a2,2,0,0,1-.58,1.47,2.33,2.33,0,0,1-3,0,2,2,0,0,1-.6-1.52Zm1.16.53a1.11,1.11,0,0,0,.26.76.92.92,0,0,0,.7.29.88.88,0,0,0,.68-.29,1.16,1.16,0,0,0,.26-.79v-.5a1.14,1.14,0,0,0-.26-.77.89.89,0,0,0-.7-.29.85.85,0,0,0-.68.3,1.08,1.08,0,0,0-.26.78Zm1.3,6.77-.86-.5,4.86-7.77.86.49Zm2.32-1.7a1.94,1.94,0,0,1,.6-1.48,2.31,2.31,0,0,1,3,0,2,2,0,0,1,.59,1.53v.48a2,2,0,0,1-.57,1.47,2,2,0,0,1-1.53.58,2.11,2.11,0,0,1-1.54-.57,2,2,0,0,1-.59-1.51Zm1.17.53a1,1,0,0,0,.27.76,1,1,0,0,0,1.38,0,1.19,1.19,0,0,0,.25-.79v-.52a1.07,1.07,0,0,0-.27-.76.91.91,0,0,0-.68-.29.88.88,0,0,0-.69.29,1.09,1.09,0,0,0-.26.79Z"/>
              <path class="cls-11" d="M488.53,198v1.8h1.31V201h-1.31v4.13a.93.93,0,0,0,.17.61.8.8,0,0,0,.6.18,2.93,2.93,0,0,0,.58-.06v1.28a3.89,3.89,0,0,1-1.09.16c-1.28,0-1.92-.71-1.92-2.11V201h-1.21v-1.23h1.21V198Z"/>
              <path class="cls-11" d="M495.11,201.3a5.06,5.06,0,0,0-.68-.05,1.53,1.53,0,0,0-1.54.87v5.06h-1.66v-7.39h1.59l0,.82a1.86,1.86,0,0,1,1.66-1,1.63,1.63,0,0,1,.59.09Z"/>
              <path class="cls-11" d="M500.7,207.18a2.48,2.48,0,0,1-.19-.69,2.78,2.78,0,0,1-3.76.19,2,2,0,0,1-.7-1.57,2.09,2.09,0,0,1,.87-1.81,4.23,4.23,0,0,1,2.52-.64h1v-.48a1.28,1.28,0,0,0-.33-.92,1.26,1.26,0,0,0-1-.35,1.46,1.46,0,0,0-.93.29.89.89,0,0,0-.37.72H496.2a1.83,1.83,0,0,1,.41-1.14,2.71,2.71,0,0,1,1.09-.83,3.9,3.9,0,0,1,1.55-.3,3.11,3.11,0,0,1,2.07.65,2.35,2.35,0,0,1,.8,1.84v3.33a3.76,3.76,0,0,0,.28,1.6v.11ZM498.88,206a1.89,1.89,0,0,0,.92-.24,1.65,1.65,0,0,0,.66-.65v-1.39h-.9a2.48,2.48,0,0,0-1.39.32,1,1,0,0,0-.46.91,1,1,0,0,0,.31.76A1.26,1.26,0,0,0,498.88,206Z"/>
              <path class="cls-11" d="M503.67,203.43a4.49,4.49,0,0,1,.79-2.75,2.54,2.54,0,0,1,2.13-1,2.4,2.4,0,0,1,1.9.82v-3.79h1.66v10.5h-1.5l-.08-.76a2.46,2.46,0,0,1-2,.9,2.54,2.54,0,0,1-2.11-1A4.56,4.56,0,0,1,503.67,203.43Zm1.66.14a3.07,3.07,0,0,0,.44,1.76A1.42,1.42,0,0,0,507,206a1.57,1.57,0,0,0,1.49-.91V201.9A1.56,1.56,0,0,0,507,201a1.41,1.41,0,0,0-1.24.64A3.43,3.43,0,0,0,505.33,203.57Z"/>
              <path class="cls-11" d="M512,197.86a.85.85,0,0,1,.25-.63A.9.9,0,0,1,513,197a.94.94,0,0,1,.7.25.88.88,0,0,1,.24.63.87.87,0,0,1-.24.63.94.94,0,0,1-.7.25.9.9,0,0,1-.69-.25A.84.84,0,0,1,512,197.86Zm1.77,9.32h-1.66v-7.39h1.66Z"/>
              <path class="cls-11" d="M517.25,199.79l0,.85a2.67,2.67,0,0,1,2.15-1c1.54,0,2.33.88,2.36,2.64v4.89h-1.67v-4.79a1.52,1.52,0,0,0-.3-1,1.25,1.25,0,0,0-1-.34,1.6,1.6,0,0,0-1.5.91v5.26h-1.66v-7.39Z"/>
              <path class="cls-11" d="M523.35,203.43a4.31,4.31,0,0,1,.81-2.75,2.58,2.58,0,0,1,2.15-1,2.44,2.44,0,0,1,2,.88l.07-.74h1.5V207a3,3,0,0,1-.91,2.29,3.44,3.44,0,0,1-2.44.84,4,4,0,0,1-1.59-.33,2.82,2.82,0,0,1-1.18-.89l.79-1a2.36,2.36,0,0,0,1.88.91,1.84,1.84,0,0,0,1.31-.45,1.68,1.68,0,0,0,.48-1.31v-.5a2.47,2.47,0,0,1-1.92.8,2.62,2.62,0,0,1-2.12-1A4.47,4.47,0,0,1,523.35,203.43Zm1.65.14a2.94,2.94,0,0,0,.46,1.76,1.47,1.47,0,0,0,1.26.64,1.6,1.6,0,0,0,1.49-.87v-3.25a1.59,1.59,0,0,0-1.48-.84,1.46,1.46,0,0,0-1.27.65A3.26,3.26,0,0,0,525,203.57Z"/>
              <path class="cls-11" d="M539.2,201.3a5.06,5.06,0,0,0-.68-.05,1.53,1.53,0,0,0-1.54.87v5.06h-1.66v-7.39h1.59l0,.82a1.88,1.88,0,0,1,1.67-1,1.7,1.7,0,0,1,.59.09Z"/>
              <path class="cls-11" d="M543.63,207.32a3.41,3.41,0,0,1-2.56-1,3.6,3.6,0,0,1-1-2.64v-.21a4.37,4.37,0,0,1,.43-2,3.24,3.24,0,0,1,1.2-1.36,3.19,3.19,0,0,1,1.72-.48,2.9,2.9,0,0,1,2.33,1,4.09,4.09,0,0,1,.83,2.73V204h-4.84a2.23,2.23,0,0,0,.62,1.45,1.83,1.83,0,0,0,1.35.53,2.24,2.24,0,0,0,1.86-.92l.89.85a2.88,2.88,0,0,1-1.18,1A3.66,3.66,0,0,1,543.63,207.32Zm-.2-6.34a1.4,1.4,0,0,0-1.1.48,2.5,2.5,0,0,0-.54,1.33H545v-.12a2,2,0,0,0-.45-1.26A1.37,1.37,0,0,0,543.43,201Z"/>
              <path class="cls-11" d="M550.62,205.08l1.57-5.29h1.71l-2.56,7.39H549.9l-2.59-7.39H549Z"/>
              <path class="cls-11" d="M558.33,207.32a3.39,3.39,0,0,1-2.55-1,3.57,3.57,0,0,1-1-2.64v-.21a4.5,4.5,0,0,1,.43-2,3.38,3.38,0,0,1,1.2-1.36,3.21,3.21,0,0,1,1.72-.48,2.92,2.92,0,0,1,2.34,1,4.08,4.08,0,0,1,.82,2.73V204h-4.83a2.22,2.22,0,0,0,.61,1.45,1.86,1.86,0,0,0,1.35.53,2.24,2.24,0,0,0,1.86-.92l.9.85a3,3,0,0,1-1.19,1A3.66,3.66,0,0,1,558.33,207.32Zm-.19-6.34a1.4,1.4,0,0,0-1.11.48,2.41,2.41,0,0,0-.53,1.33h3.16v-.12a2,2,0,0,0-.44-1.26A1.37,1.37,0,0,0,558.14,201Z"/>
              <path class="cls-11" d="M564.26,199.79l0,.85a2.64,2.64,0,0,1,2.15-1c1.54,0,2.32.88,2.35,2.64v4.89h-1.66v-4.79a1.52,1.52,0,0,0-.3-1,1.29,1.29,0,0,0-1-.34,1.6,1.6,0,0,0-1.5.91v5.26h-1.66v-7.39Z"/>
              <path class="cls-11" d="M575.12,206.46a2.58,2.58,0,0,1-2.08.86,2.31,2.31,0,0,1-1.82-.71,3,3,0,0,1-.62-2v-4.79h1.67v4.77c0,.94.39,1.41,1.16,1.41a1.64,1.64,0,0,0,1.64-.87v-5.31h1.66v7.39h-1.57Z"/>
              <path class="cls-11" d="M581.82,207.32a3.41,3.41,0,0,1-2.56-1,3.56,3.56,0,0,1-1-2.64v-.21a4.5,4.5,0,0,1,.42-2,3.38,3.38,0,0,1,1.2-1.36,3.22,3.22,0,0,1,1.73-.48,2.91,2.91,0,0,1,2.33,1,4.09,4.09,0,0,1,.83,2.73V204H580a2.27,2.27,0,0,0,.61,1.45,1.86,1.86,0,0,0,1.35.53,2.24,2.24,0,0,0,1.86-.92l.9.85a2.9,2.9,0,0,1-1.19,1A3.62,3.62,0,0,1,581.82,207.32Zm-.2-6.34a1.38,1.38,0,0,0-1.1.48,2.5,2.5,0,0,0-.54,1.33h3.16v-.12a2,2,0,0,0-.44-1.26A1.37,1.37,0,0,0,581.62,201Z"/>
            </g>
            <g>
              <path class="cls-11" d="M450.41,260.75V250.8h3.41a4.19,4.19,0,0,1,2.57.67,2.39,2.39,0,0,1,.88,2,2.14,2.14,0,0,1-.37,1.23,2.34,2.34,0,0,1-1.08.85,2.17,2.17,0,0,1,1.25.82,2.42,2.42,0,0,1,.44,1.45,2.65,2.65,0,0,1-.9,2.16,3.92,3.92,0,0,1-2.57.75Zm1.73-5.76h1.69a2,2,0,0,0,1.26-.37,1.24,1.24,0,0,0,.46-1,1.26,1.26,0,0,0-.42-1.06,2.12,2.12,0,0,0-1.31-.33h-1.68Zm0,1.27v3.11h1.92a1.86,1.86,0,0,0,1.27-.41,1.58,1.58,0,0,0-1.13-2.7Z"/>
              <path class="cls-11" d="M463.08,254.87a3.82,3.82,0,0,0-.68-.05,1.53,1.53,0,0,0-1.54.87v5.06H459.2v-7.4h1.59l0,.83a1.88,1.88,0,0,1,1.67-1,1.61,1.61,0,0,1,.58.09Z"/>
              <path class="cls-11" d="M467.51,260.89a3.45,3.45,0,0,1-2.56-1,3.61,3.61,0,0,1-1-2.65V257a4.37,4.37,0,0,1,.43-2,3.17,3.17,0,0,1,2.92-1.84,2.9,2.9,0,0,1,2.33,1,4.07,4.07,0,0,1,.83,2.73v.67h-4.84a2.23,2.23,0,0,0,.62,1.45,1.83,1.83,0,0,0,1.35.53,2.23,2.23,0,0,0,1.85-.92l.9.85a3,3,0,0,1-1.19,1A3.75,3.75,0,0,1,467.51,260.89Zm-.2-6.34a1.4,1.4,0,0,0-1.1.48,2.5,2.5,0,0,0-.54,1.33h3.17v-.12a2,2,0,0,0-.45-1.26A1.37,1.37,0,0,0,467.31,254.55Z"/>
              <path class="cls-11" d="M476.31,260.75a2.48,2.48,0,0,1-.19-.69,2.6,2.6,0,0,1-1.94.83,2.64,2.64,0,0,1-1.82-.64,2,2,0,0,1-.7-1.57,2.11,2.11,0,0,1,.87-1.82,4.3,4.3,0,0,1,2.52-.63h1v-.48a1.17,1.17,0,0,0-1.29-1.27,1.51,1.51,0,0,0-.93.28.87.87,0,0,0-.37.73h-1.66a1.83,1.83,0,0,1,.41-1.14,2.62,2.62,0,0,1,1.09-.83,3.9,3.9,0,0,1,1.55-.3,3.06,3.06,0,0,1,2.07.65,2.33,2.33,0,0,1,.8,1.83V259a3.68,3.68,0,0,0,.28,1.59v.12Zm-1.82-1.2a1.89,1.89,0,0,0,.92-.24,1.54,1.54,0,0,0,.65-.64v-1.39h-.89a2.4,2.4,0,0,0-1.39.32,1,1,0,0,0-.46.91,1,1,0,0,0,.31.76A1.25,1.25,0,0,0,474.49,259.55Z"/>
              <path class="cls-11" d="M482,257.58l-.73.76v2.41h-1.67v-10.5h1.67v6.06l.52-.65,2-2.31h2l-2.75,3.09,3,4.31h-1.92Z"/>
              <path class="cls-11" d="M490.28,260.89a3.47,3.47,0,0,1-2.56-1,3.61,3.61,0,0,1-1-2.65V257a4.37,4.37,0,0,1,.43-2,3.17,3.17,0,0,1,2.92-1.84,2.92,2.92,0,0,1,2.34,1,4.12,4.12,0,0,1,.82,2.73v.67h-4.83A2.22,2.22,0,0,0,489,259a1.86,1.86,0,0,0,1.35.53,2.27,2.27,0,0,0,1.86-.92l.89.85a3,3,0,0,1-1.18,1A3.79,3.79,0,0,1,490.28,260.89Zm-.2-6.34a1.4,1.4,0,0,0-1.1.48,2.5,2.5,0,0,0-.54,1.33h3.17v-.12a2,2,0,0,0-.45-1.26A1.37,1.37,0,0,0,490.08,254.55Z"/>
              <path class="cls-11" d="M497.27,258.64l1.57-5.29h1.71l-2.56,7.4h-1.44l-2.59-7.4h1.73Z"/>
              <path class="cls-11" d="M505,260.89a3.43,3.43,0,0,1-2.56-1,3.57,3.57,0,0,1-1-2.65V257a4.5,4.5,0,0,1,.42-2,3.32,3.32,0,0,1,1.2-1.36,3.21,3.21,0,0,1,1.72-.48,2.92,2.92,0,0,1,2.34,1,4.07,4.07,0,0,1,.82,2.73v.67h-4.83a2.22,2.22,0,0,0,.61,1.45,1.86,1.86,0,0,0,1.35.53,2.27,2.27,0,0,0,1.86-.92l.9.85a3,3,0,0,1-1.19,1A3.75,3.75,0,0,1,505,260.89Zm-.2-6.34a1.4,1.4,0,0,0-1.11.48,2.41,2.41,0,0,0-.53,1.33h3.16v-.12a2,2,0,0,0-.44-1.26A1.37,1.37,0,0,0,504.79,254.55Z"/>
              <path class="cls-11" d="M510.91,253.35l0,.86a2.64,2.64,0,0,1,2.15-1c1.54,0,2.32.88,2.35,2.64v4.89H513.8V256a1.57,1.57,0,0,0-.3-1.05,1.32,1.32,0,0,0-1-.33,1.6,1.6,0,0,0-1.5.91v5.26h-1.66v-7.4Z"/>
              <path class="cls-11" d="M525.33,260.75a2.42,2.42,0,0,1-.2-.69,2.59,2.59,0,0,1-1.94.83,2.64,2.64,0,0,1-1.82-.64,2.06,2.06,0,0,1-.7-1.57,2.1,2.1,0,0,1,.88-1.82,4.25,4.25,0,0,1,2.51-.63h1v-.48a1.3,1.3,0,0,0-.32-.92,1.29,1.29,0,0,0-1-.35,1.51,1.51,0,0,0-.93.28.89.89,0,0,0-.36.73h-1.66a1.82,1.82,0,0,1,.4-1.14,2.66,2.66,0,0,1,1.1-.83,3.86,3.86,0,0,1,1.55-.3,3.09,3.09,0,0,1,2.07.65,2.32,2.32,0,0,1,.79,1.83V259a3.68,3.68,0,0,0,.28,1.59v.12Zm-1.83-1.2a1.9,1.9,0,0,0,.93-.24,1.6,1.6,0,0,0,.65-.64v-1.39h-.9a2.39,2.39,0,0,0-1.38.32,1,1,0,0,0-.47.91,1,1,0,0,0,.32.76A1.21,1.21,0,0,0,523.5,259.55Z"/>
              <path class="cls-11" d="M530.37,260.75h-1.66v-10.5h1.66Z"/>
              <path class="cls-11" d="M534.07,260.75h-1.66v-10.5h1.66Z"/>
              <path class="cls-11" d="M539.62,251.43a.88.88,0,0,1,.25-.63.9.9,0,0,1,.69-.26.94.94,0,0,1,.7.26.87.87,0,0,1,.24.63.88.88,0,0,1-.24.63,1,1,0,0,1-.7.25.94.94,0,0,1-.69-.25A.89.89,0,0,1,539.62,251.43Zm1.77,9.32h-1.66v-7.4h1.66Z"/>
              <path class="cls-11" d="M544.86,253.35l0,.86a2.67,2.67,0,0,1,2.15-1c1.54,0,2.33.88,2.36,2.64v4.89h-1.67V256a1.57,1.57,0,0,0-.3-1.05,1.28,1.28,0,0,0-1-.33,1.6,1.6,0,0,0-1.5.91v5.26H543.3v-7.4Z"/>
              <path class="cls-11" d="M554.29,259.56a1.52,1.52,0,0,0,1-.36,1.26,1.26,0,0,0,.44-.9h1.56a2.45,2.45,0,0,1-.43,1.29,2.88,2.88,0,0,1-1.09,1,3.3,3.3,0,0,1-1.49.35,3.14,3.14,0,0,1-2.46-1,4,4,0,0,1-.91-2.77v-.18a3.93,3.93,0,0,1,.9-2.7,3.11,3.11,0,0,1,2.46-1,3,3,0,0,1,2.15.76,2.8,2.8,0,0,1,.87,2h-1.56a1.53,1.53,0,0,0-.44-1,1.39,1.39,0,0,0-1-.41,1.46,1.46,0,0,0-1.25.58,3,3,0,0,0-.44,1.78v.26A3,3,0,0,0,553,259,1.48,1.48,0,0,0,554.29,259.56Z"/>
              <path class="cls-11" d="M558.39,257a4.34,4.34,0,0,1,.43-2,3.21,3.21,0,0,1,1.21-1.34,3.43,3.43,0,0,1,1.79-.46,3.23,3.23,0,0,1,2.43,1,3.79,3.79,0,0,1,1,2.56v.39a4.4,4.4,0,0,1-.42,1.95,3,3,0,0,1-1.21,1.33,3.36,3.36,0,0,1-1.8.48,3.2,3.2,0,0,1-2.51-1.05,4,4,0,0,1-.94-2.78Zm1.66.15a3,3,0,0,0,.47,1.78,1.56,1.56,0,0,0,1.32.65,1.53,1.53,0,0,0,1.31-.66,3.28,3.28,0,0,0,.46-1.92,2.91,2.91,0,0,0-.48-1.77,1.54,1.54,0,0,0-1.31-.66,1.52,1.52,0,0,0-1.29.64A3.26,3.26,0,0,0,560.05,257.13Z"/>
              <path class="cls-11" d="M568.36,253.35l0,.77a2.67,2.67,0,0,1,2.13-.9,2,2,0,0,1,2,1.13,2.62,2.62,0,0,1,2.27-1.13,2.3,2.3,0,0,1,1.82.67,2.93,2.93,0,0,1,.61,2v4.86h-1.66v-4.81a1.52,1.52,0,0,0-.3-1,1.69,1.69,0,0,0-1.95,0,1.55,1.55,0,0,0-.5.8v5.07H571.2v-4.87a1.18,1.18,0,0,0-1.33-1.3,1.45,1.45,0,0,0-1.41.81v5.36h-1.67v-7.4Z"/>
              <path class="cls-11" d="M582.38,260.89a3.45,3.45,0,0,1-2.56-1,3.57,3.57,0,0,1-1-2.65V257a4.5,4.5,0,0,1,.42-2,3.32,3.32,0,0,1,1.2-1.36,3.22,3.22,0,0,1,1.73-.48,2.91,2.91,0,0,1,2.33,1,4.07,4.07,0,0,1,.82,2.73v.67h-4.83a2.27,2.27,0,0,0,.61,1.45,1.86,1.86,0,0,0,1.35.53,2.27,2.27,0,0,0,1.86-.92l.9.85a3,3,0,0,1-1.19,1A3.75,3.75,0,0,1,582.38,260.89Zm-.2-6.34a1.38,1.38,0,0,0-1.1.48,2.42,2.42,0,0,0-.54,1.33h3.16v-.12a2,2,0,0,0-.44-1.26A1.37,1.37,0,0,0,582.18,254.55Z"/>
              <path class="cls-11" d="M481.7,277.55v-6.17h-1.13v-1.23h1.13v-.67a2.55,2.55,0,0,1,.68-1.9,2.6,2.6,0,0,1,1.91-.67,3.83,3.83,0,0,1,.93.12l0,1.3a2.93,2.93,0,0,0-.63-.06c-.8,0-1.19.41-1.19,1.23v.65h1.5v1.23h-1.5v6.17Z"/>
              <path class="cls-11" d="M490.09,271.67a3.82,3.82,0,0,0-.68-.05,1.53,1.53,0,0,0-1.54.87v5.06h-1.66v-7.4h1.59l0,.83a1.88,1.88,0,0,1,1.67-1,1.7,1.7,0,0,1,.59.09Z"/>
              <path class="cls-11" d="M491,273.78a4.48,4.48,0,0,1,.43-2,3.21,3.21,0,0,1,1.21-1.34,3.43,3.43,0,0,1,1.79-.46,3.23,3.23,0,0,1,2.43,1,3.74,3.74,0,0,1,1,2.56v.39a4.4,4.4,0,0,1-.42,1.95,3,3,0,0,1-1.2,1.33,3.42,3.42,0,0,1-1.81.48,3.2,3.2,0,0,1-2.51-1.05,4,4,0,0,1-.94-2.78Zm1.66.15a2.92,2.92,0,0,0,.48,1.78,1.53,1.53,0,0,0,1.31.65,1.51,1.51,0,0,0,1.31-.66,3.27,3.27,0,0,0,.47-1.92,3,3,0,0,0-.49-1.78,1.54,1.54,0,0,0-1.31-.65,1.52,1.52,0,0,0-1.29.64A3.26,3.26,0,0,0,492.61,273.93Z"/>
              <path class="cls-11" d="M500.92,270.15l.05.77a2.67,2.67,0,0,1,2.13-.9,2,2,0,0,1,2,1.13A2.62,2.62,0,0,1,507.4,270a2.29,2.29,0,0,1,1.82.67,3,3,0,0,1,.62,2v4.86h-1.66v-4.81a1.52,1.52,0,0,0-.31-1,1.69,1.69,0,0,0-1.95,0,1.62,1.62,0,0,0-.5.8v5.07h-1.66v-4.87a1.19,1.19,0,0,0-1.34-1.3,1.46,1.46,0,0,0-1.41.81v5.36h-1.66v-7.4Z"/>
              <path class="cls-11" d="M517.11,268.35v1.8h1.31v1.23h-1.31v4.13a.91.91,0,0,0,.17.61.76.76,0,0,0,.6.19,2.36,2.36,0,0,0,.58-.07v1.29a4.37,4.37,0,0,1-1.1.16c-1.27,0-1.91-.71-1.91-2.12v-4.19h-1.22v-1.23h1.22v-1.8Z"/>
              <path class="cls-11" d="M523.56,271.67a3.82,3.82,0,0,0-.68-.05,1.53,1.53,0,0,0-1.54.87v5.06h-1.66v-7.4h1.59l0,.83a1.86,1.86,0,0,1,1.67-1,1.61,1.61,0,0,1,.58.09Z"/>
              <path class="cls-11" d="M529,277.55a2.89,2.89,0,0,1-.19-.69,2.57,2.57,0,0,1-1.94.83,2.64,2.64,0,0,1-1.82-.64,2,2,0,0,1-.7-1.57,2.1,2.1,0,0,1,.88-1.82,4.25,4.25,0,0,1,2.51-.63h1v-.49a1.17,1.17,0,0,0-1.3-1.26,1.51,1.51,0,0,0-.93.28.89.89,0,0,0-.36.73h-1.66a1.82,1.82,0,0,1,.4-1.14,2.66,2.66,0,0,1,1.1-.83,3.86,3.86,0,0,1,1.55-.3,3.09,3.09,0,0,1,2.07.65,2.32,2.32,0,0,1,.79,1.83v3.34a3.68,3.68,0,0,0,.28,1.59v.12Zm-1.82-1.2a1.9,1.9,0,0,0,.93-.24,1.6,1.6,0,0,0,.65-.64v-1.39h-.9a2.39,2.39,0,0,0-1.38.32,1,1,0,0,0-.47.91,1,1,0,0,0,.32.76A1.21,1.21,0,0,0,527.2,276.35Z"/>
              <path class="cls-11" d="M531.87,273.8a4.4,4.4,0,0,1,.79-2.75,2.54,2.54,0,0,1,2.13-1,2.42,2.42,0,0,1,1.9.82v-3.79h1.66v10.5h-1.51l-.08-.77a2.45,2.45,0,0,1-2,.91,2.53,2.53,0,0,1-2.1-1.05A4.6,4.6,0,0,1,531.87,273.8Zm1.66.14a3.08,3.08,0,0,0,.43,1.76,1.41,1.41,0,0,0,1.24.63,1.57,1.57,0,0,0,1.49-.91v-3.16a1.55,1.55,0,0,0-1.48-.88A1.4,1.4,0,0,0,534,272,3.32,3.32,0,0,0,533.53,273.94Z"/>
              <path class="cls-11" d="M540.08,268.23a.88.88,0,0,1,.25-.63.9.9,0,0,1,.69-.26.94.94,0,0,1,.7.26.87.87,0,0,1,.24.63.88.88,0,0,1-.24.63,1,1,0,0,1-.7.25.94.94,0,0,1-.69-.25A.89.89,0,0,1,540.08,268.23Zm1.77,9.32h-1.66v-7.4h1.66Z"/>
              <path class="cls-11" d="M545.2,270.15l0,.86a2.64,2.64,0,0,1,2.15-1c1.54,0,2.32.88,2.35,2.64v4.89h-1.66v-4.79a1.57,1.57,0,0,0-.3-1.05,1.32,1.32,0,0,0-1-.33,1.6,1.6,0,0,0-1.5.91v5.26h-1.66v-7.4Z"/>
              <path class="cls-11" d="M551.15,273.8A4.36,4.36,0,0,1,552,271a2.61,2.61,0,0,1,2.15-1,2.42,2.42,0,0,1,2,.88l.08-.75h1.49v7.17a3,3,0,0,1-.9,2.3,3.47,3.47,0,0,1-2.45.84,3.89,3.89,0,0,1-1.59-.34,2.77,2.77,0,0,1-1.17-.88l.78-1a2.37,2.37,0,0,0,1.89.91,1.82,1.82,0,0,0,1.3-.45,1.72,1.72,0,0,0,.48-1.32v-.49a2.45,2.45,0,0,1-1.91.8,2.59,2.59,0,0,1-2.12-1A4.44,4.44,0,0,1,551.15,273.8Zm1.66.14a3,3,0,0,0,.45,1.75,1.45,1.45,0,0,0,1.26.64,1.6,1.6,0,0,0,1.49-.86v-3.25a1.56,1.56,0,0,0-1.47-.84,1.45,1.45,0,0,0-1.28.65A3.35,3.35,0,0,0,552.81,273.94Z"/>
            </g>
            <g>
              <path class="cls-11" d="M467.25,335.81v3.69h-1.73v-9.95h3.81a3.86,3.86,0,0,1,2.65.87,2.93,2.93,0,0,1,1,2.3,2.81,2.81,0,0,1-1,2.27,4,4,0,0,1-2.69.82Zm0-1.4h2.08a2,2,0,0,0,1.4-.43,1.58,1.58,0,0,0,.49-1.25,1.71,1.71,0,0,0-.49-1.29,1.92,1.92,0,0,0-1.36-.5h-2.12Z"/>
              <path class="cls-11" d="M478.3,333.62a4.8,4.8,0,0,0-.67-.05,1.52,1.52,0,0,0-1.54.87v5.06h-1.66v-7.4H476l.05.83a1.86,1.86,0,0,1,1.66-1,1.63,1.63,0,0,1,.59.09Z"/>
              <path class="cls-11" d="M479.17,335.73a4.3,4.3,0,0,1,.43-2,3.1,3.1,0,0,1,1.21-1.34,3.35,3.35,0,0,1,1.79-.47,3.23,3.23,0,0,1,2.43,1,3.81,3.81,0,0,1,1,2.56v.39a4.24,4.24,0,0,1-.43,1.95,3.07,3.07,0,0,1-1.2,1.34,3.46,3.46,0,0,1-1.81.47,3.2,3.2,0,0,1-2.5-1.05,4,4,0,0,1-.94-2.77Zm1.66.15a3,3,0,0,0,.47,1.78,1.64,1.64,0,0,0,2.62,0,3.2,3.2,0,0,0,.47-1.92,2.93,2.93,0,0,0-.48-1.77,1.62,1.62,0,0,0-2.6,0A3.21,3.21,0,0,0,480.83,335.88Z"/>
              <path class="cls-11" d="M488.16,339.5v-6.17H487V332.1h1.13v-.67a2.55,2.55,0,0,1,.68-1.9,2.63,2.63,0,0,1,1.92-.67,4,4,0,0,1,.93.12l0,1.3a3.1,3.1,0,0,0-.64-.06,1.07,1.07,0,0,0-1.19,1.23v.65h1.51v1.23h-1.51v6.17Z"/>
              <path class="cls-11" d="M492.67,330.18a.88.88,0,0,1,.24-.63,1.06,1.06,0,0,1,1.39,0,.92.92,0,0,1,0,1.26,1.09,1.09,0,0,1-1.39,0A.88.88,0,0,1,492.67,330.18Zm1.76,9.32h-1.66v-7.4h1.66Z"/>
              <path class="cls-11" d="M498.45,330.31v1.79h1.3v1.23h-1.3v4.13a.84.84,0,0,0,.17.61.75.75,0,0,0,.59.19,2.25,2.25,0,0,0,.58-.07v1.29a4.23,4.23,0,0,1-1.09.16c-1.28,0-1.91-.71-1.91-2.12v-4.19h-1.22V332.1h1.22v-1.79Z"/>
              <path class="cls-11" d="M505.57,339.5a2.17,2.17,0,0,1-.19-.69,2.61,2.61,0,0,1-1.95.83,2.57,2.57,0,0,1-1.81-.64,2,2,0,0,1-.71-1.57,2.13,2.13,0,0,1,.88-1.82,4.27,4.27,0,0,1,2.51-.63h1v-.48a1.3,1.3,0,0,0-.32-.92,1.27,1.27,0,0,0-1-.35,1.46,1.46,0,0,0-.93.29.86.86,0,0,0-.36.72h-1.66a1.82,1.82,0,0,1,.4-1.14,2.74,2.74,0,0,1,1.1-.83,3.86,3.86,0,0,1,1.55-.3,3.15,3.15,0,0,1,2.07.65,2.34,2.34,0,0,1,.79,1.84v3.33a3.84,3.84,0,0,0,.28,1.59v.12Zm-1.83-1.2a1.9,1.9,0,0,0,.93-.24,1.49,1.49,0,0,0,.65-.64V336h-.89a2.48,2.48,0,0,0-1.39.32,1,1,0,0,0-.47.91,1,1,0,0,0,.32.76A1.23,1.23,0,0,0,503.74,338.3Z"/>
              <path class="cls-11" d="M515.34,335.88a4.46,4.46,0,0,1-.77,2.74,2.51,2.51,0,0,1-2.12,1,2.42,2.42,0,0,1-2-.94l-.08.8h-1.51V329h1.67v3.81a2.39,2.39,0,0,1,1.93-.84,2.55,2.55,0,0,1,2.13,1,4.56,4.56,0,0,1,.77,2.81Zm-1.66-.15a3.07,3.07,0,0,0-.43-1.8,1.41,1.41,0,0,0-1.23-.6,1.53,1.53,0,0,0-1.51.94v3.05a1.55,1.55,0,0,0,1.53,1,1.38,1.38,0,0,0,1.2-.58,3.06,3.06,0,0,0,.44-1.75Z"/>
              <path class="cls-11" d="M518.62,339.5H517V329h1.66Z"/>
              <path class="cls-11" d="M523.81,339.64a3.43,3.43,0,0,1-2.56-1,3.61,3.61,0,0,1-1-2.65v-.2a4.5,4.5,0,0,1,.43-2,3.38,3.38,0,0,1,1.2-1.36,3.21,3.21,0,0,1,1.72-.48,2.92,2.92,0,0,1,2.34,1,4.07,4.07,0,0,1,.82,2.73v.67H522a2.22,2.22,0,0,0,.61,1.45,1.86,1.86,0,0,0,1.35.53,2.27,2.27,0,0,0,1.86-.92l.9.85a3,3,0,0,1-1.19,1A3.66,3.66,0,0,1,523.81,339.64Zm-.19-6.34a1.4,1.4,0,0,0-1.11.48,2.41,2.41,0,0,0-.53,1.33h3.16V335a2,2,0,0,0-.44-1.26A1.37,1.37,0,0,0,523.62,333.3Z"/>
              <path class="cls-11" d="M536,337.49a.76.76,0,0,0-.36-.68,4.16,4.16,0,0,0-1.21-.41A5.52,5.52,0,0,1,533,336a1.88,1.88,0,0,1-1.24-1.74,2,2,0,0,1,.8-1.6,3.18,3.18,0,0,1,2.05-.64,3.38,3.38,0,0,1,2.15.65,2.1,2.1,0,0,1,.81,1.71h-1.66a1,1,0,0,0-.35-.8,1.4,1.4,0,0,0-.95-.32,1.53,1.53,0,0,0-.89.25.8.8,0,0,0-.34.68.67.67,0,0,0,.32.6,4.28,4.28,0,0,0,1.3.42,6.27,6.27,0,0,1,1.53.52,2.1,2.1,0,0,1,.83.71,1.84,1.84,0,0,1,.27,1,1.93,1.93,0,0,1-.83,1.62,3.54,3.54,0,0,1-2.17.62,3.84,3.84,0,0,1-1.62-.33,2.67,2.67,0,0,1-1.1-.9,2.13,2.13,0,0,1-.4-1.24h1.61a1.17,1.17,0,0,0,.45.9,2,2,0,0,0,2.08.07A.75.75,0,0,0,536,337.49Z"/>
              <path class="cls-11" d="M543.64,338.78a2.59,2.59,0,0,1-2.08.86,2.29,2.29,0,0,1-1.82-.71,3,3,0,0,1-.62-2v-4.8h1.66v4.78c0,.93.39,1.4,1.17,1.4a1.66,1.66,0,0,0,1.64-.86V332.1h1.66v7.4h-1.57Z"/>
              <path class="cls-11" d="M550.94,333.62a5.06,5.06,0,0,0-.68-.05,1.53,1.53,0,0,0-1.54.87v5.06h-1.66v-7.4h1.59l0,.83a1.88,1.88,0,0,1,1.67-1,1.61,1.61,0,0,1,.58.09Z"/>
              <path class="cls-11" d="M558.59,335.88a4.43,4.43,0,0,1-.78,2.74,2.5,2.5,0,0,1-2.09,1,2.53,2.53,0,0,1-2-.8v3.5h-1.66V332.1h1.53l.07.76a2.42,2.42,0,0,1,2-.89,2.5,2.5,0,0,1,2.12,1,4.51,4.51,0,0,1,.77,2.79Zm-1.65-.15a3,3,0,0,0-.45-1.75,1.41,1.41,0,0,0-1.26-.65,1.53,1.53,0,0,0-1.46.84v3.28a1.55,1.55,0,0,0,1.48.86,1.42,1.42,0,0,0,1.24-.64A3.37,3.37,0,0,0,556.94,335.73Z"/>
              <path class="cls-11" d="M561.89,339.5h-1.66V329h1.66Z"/>
              <path class="cls-11" d="M568.3,338.78a2.58,2.58,0,0,1-2.08.86,2.31,2.31,0,0,1-1.82-.71,3,3,0,0,1-.62-2v-4.8h1.67v4.78c0,.93.38,1.4,1.16,1.4a1.65,1.65,0,0,0,1.64-.86V332.1h1.66v7.4h-1.57Z"/>
              <path class="cls-11" d="M575.87,337.49a.76.76,0,0,0-.36-.68,4.14,4.14,0,0,0-1.22-.41,5.57,5.57,0,0,1-1.41-.45,1.89,1.89,0,0,1-1.25-1.74,2,2,0,0,1,.81-1.6,3.18,3.18,0,0,1,2-.64,3.38,3.38,0,0,1,2.15.65,2.1,2.1,0,0,1,.81,1.71h-1.66a1,1,0,0,0-.35-.8,1.4,1.4,0,0,0-1-.32,1.53,1.53,0,0,0-.89.25.81.81,0,0,0-.35.68.68.68,0,0,0,.33.6,4.28,4.28,0,0,0,1.3.42,6.27,6.27,0,0,1,1.53.52,2.1,2.1,0,0,1,.83.71,1.84,1.84,0,0,1,.27,1,1.93,1.93,0,0,1-.83,1.62,3.54,3.54,0,0,1-2.17.62,3.84,3.84,0,0,1-1.62-.33,2.67,2.67,0,0,1-1.1-.9,2.13,2.13,0,0,1-.4-1.24H573a1.14,1.14,0,0,0,.45.9,2,2,0,0,0,2.08.07A.75.75,0,0,0,575.87,337.49Z"/>
              <path class="cls-11" d="M492.68,350.42a3.82,3.82,0,0,0-.68-.05,1.53,1.53,0,0,0-1.54.87v5.06H488.8v-7.4h1.59l0,.83a1.86,1.86,0,0,1,1.66-1,1.63,1.63,0,0,1,.59.09Z"/>
              <path class="cls-11" d="M497.11,356.44a3.45,3.45,0,0,1-2.56-1,3.57,3.57,0,0,1-1-2.65v-.2a4.5,4.5,0,0,1,.42-2,3.38,3.38,0,0,1,1.2-1.36,3.22,3.22,0,0,1,1.73-.48,2.91,2.91,0,0,1,2.33,1,4.07,4.07,0,0,1,.83,2.73v.67h-4.84a2.27,2.27,0,0,0,.61,1.45,1.86,1.86,0,0,0,1.35.53,2.27,2.27,0,0,0,1.86-.92l.9.85a3,3,0,0,1-1.19,1A3.75,3.75,0,0,1,497.11,356.44Zm-.2-6.34a1.38,1.38,0,0,0-1.1.48,2.5,2.5,0,0,0-.54,1.33h3.16v-.12a2,2,0,0,0-.44-1.26A1.37,1.37,0,0,0,496.91,350.1Z"/>
              <path class="cls-11" d="M501.49,347a.85.85,0,0,1,.25-.63.9.9,0,0,1,.69-.26.94.94,0,0,1,.7.26.95.95,0,0,1,0,1.26,1,1,0,0,1-.7.25.94.94,0,0,1-.69-.25A.85.85,0,0,1,501.49,347Zm1.77,9.32H501.6v-7.4h1.66Z"/>
              <path class="cls-11" d="M506.73,348.9l0,.86a2.66,2.66,0,0,1,2.15-1c1.54,0,2.33.88,2.36,2.64v4.89h-1.67v-4.79a1.52,1.52,0,0,0-.3-1,1.25,1.25,0,0,0-1-.34,1.6,1.6,0,0,0-1.5.91v5.26h-1.66v-7.4Z"/>
              <path class="cls-11" d="M515.72,354.19l1.57-5.29H519l-2.57,7.4H515l-2.58-7.4h1.72Z"/>
              <path class="cls-11" d="M523.44,356.44a3.45,3.45,0,0,1-2.56-1,3.61,3.61,0,0,1-1-2.65v-.2a4.37,4.37,0,0,1,.43-2,3.24,3.24,0,0,1,1.2-1.36,3.16,3.16,0,0,1,1.72-.48,2.91,2.91,0,0,1,2.33,1,4.07,4.07,0,0,1,.83,2.73v.67h-4.84a2.27,2.27,0,0,0,.61,1.45,1.87,1.87,0,0,0,1.36.53,2.23,2.23,0,0,0,1.85-.92l.9.85a3,3,0,0,1-1.19,1A3.75,3.75,0,0,1,523.44,356.44Zm-.2-6.34a1.4,1.4,0,0,0-1.1.48,2.5,2.5,0,0,0-.54,1.33h3.17v-.12a2,2,0,0,0-.45-1.26A1.37,1.37,0,0,0,523.24,350.1Z"/>
              <path class="cls-11" d="M532,354.29a.77.77,0,0,0-.37-.68,4.05,4.05,0,0,0-1.21-.41,6.43,6.43,0,0,1-1.42-.45,1.88,1.88,0,0,1-1.24-1.74,2,2,0,0,1,.81-1.6,3.16,3.16,0,0,1,2.05-.64,3.37,3.37,0,0,1,2.14.65,2.11,2.11,0,0,1,.82,1.7h-1.67a1,1,0,0,0-.35-.79,1.37,1.37,0,0,0-.94-.32,1.48,1.48,0,0,0-.9.25.8.8,0,0,0-.34.68.69.69,0,0,0,.32.6,4.38,4.38,0,0,0,1.3.42,6.27,6.27,0,0,1,1.53.52,2,2,0,0,1,.83.71,1.81,1.81,0,0,1,.27,1,1.91,1.91,0,0,1-.83,1.62,3.53,3.53,0,0,1-2.16.62,3.78,3.78,0,0,1-1.62-.33,2.64,2.64,0,0,1-1.11-.9,2.13,2.13,0,0,1-.4-1.24h1.62a1.16,1.16,0,0,0,.44.9,1.68,1.68,0,0,0,1.09.32,1.63,1.63,0,0,0,1-.25A.76.76,0,0,0,532,354.29Z"/>
              <path class="cls-11" d="M537.27,347.11v1.79h1.3v1.23h-1.3v4.13a.91.91,0,0,0,.16.61.79.79,0,0,0,.6.19,2.3,2.3,0,0,0,.58-.07v1.29a4.23,4.23,0,0,1-1.09.16c-1.28,0-1.91-.71-1.91-2.12v-4.19h-1.22V348.9h1.22v-1.79Z"/>
              <path class="cls-11" d="M543.22,356.44a3.43,3.43,0,0,1-2.55-1,3.58,3.58,0,0,1-1-2.65v-.2a4.5,4.5,0,0,1,.43-2,3.38,3.38,0,0,1,1.2-1.36,3.21,3.21,0,0,1,1.72-.48,2.92,2.92,0,0,1,2.34,1,4.07,4.07,0,0,1,.82,2.73v.67h-4.83a2.22,2.22,0,0,0,.61,1.45,1.86,1.86,0,0,0,1.35.53,2.27,2.27,0,0,0,1.86-.92l.9.85a3,3,0,0,1-1.19,1A3.79,3.79,0,0,1,543.22,356.44ZM543,350.1a1.4,1.4,0,0,0-1.11.48,2.41,2.41,0,0,0-.53,1.33h3.16v-.12a2,2,0,0,0-.44-1.26A1.37,1.37,0,0,0,543,350.1Z"/>
              <path class="cls-11" d="M547.29,352.55a4.4,4.4,0,0,1,.8-2.75,2.54,2.54,0,0,1,2.12-1,2.39,2.39,0,0,1,1.9.82V345.8h1.67v10.5h-1.51l-.08-.77a2.44,2.44,0,0,1-2,.91,2.51,2.51,0,0,1-2.1-1.05A4.52,4.52,0,0,1,547.29,352.55Zm1.67.14a3.08,3.08,0,0,0,.43,1.76,1.41,1.41,0,0,0,1.23.63,1.56,1.56,0,0,0,1.49-.91V351a1.52,1.52,0,0,0-1.47-.89,1.43,1.43,0,0,0-1.25.64A3.41,3.41,0,0,0,549,352.69Z"/>
            </g>
          </g>
        </g>
        <g class="cls-5">
          <path class="cls-12" d="M659.5,148.3h0M659.5.5h0"/>
        </g>
        <path class="cls-13" d="M659.5,454.8h0m0-298h0"/>
      </g>
    </g>
  </g>
</svg>
