<svg xmlns="http://www.w3.org/2000/svg" xmlns:xlink="http://www.w3.org/1999/xlink" width="806.86" height="688.5" viewBox="0 0 806.86 688.5">
  <defs>
    <style>
      .cls-1, .cls-10, .cls-11 {
        fill: none;
      }

      .cls-2 {
        isolation: isolate;
      }

      .cls-3 {
        clip-path: url(#clip-path);
      }

      .cls-4 {
        fill: #10416a;
      }

      .cls-5 {
        mix-blend-mode: multiply;
      }

      .cls-6 {
        clip-path: url(#clip-path-2);
      }

      .cls-7 {
        fill: #929497;
      }

      .cls-8 {
        fill: #fff;
      }

      .cls-9 {
        clip-path: url(#clip-path-3);
      }

      .cls-10 {
        stroke: #10416a;
      }

      .cls-10, .cls-11 {
        stroke-linecap: round;
        stroke-linejoin: round;
      }

      .cls-11 {
        stroke: #ff665e;
      }
    </style>
    <clipPath id="clip-path">
      <rect class="cls-1" width="806.86" height="688.5"/>
    </clipPath>
    <clipPath id="clip-path-2">
      <rect class="cls-1" x="305.28" y="371.55" width="84.33" height="92.5"/>
    </clipPath>
    <clipPath id="clip-path-3">
      <rect class="cls-1" width="806.86" height="688.5"/>
    </clipPath>
  </defs>
  <title>4</title>
  <g class="cls-2">
    <g id="Layer_1" data-name="Layer 1">
      <g class="cls-3">
        <g id="_4" data-name="4">
          <rect class="cls-4" x="200.15" y="372.55" width="114.28" height="47.54"/>
          <rect class="cls-4" x="380.61" y="386.26" width="271.63" height="70.79"/>
          <polygon class="cls-4" points="314.43 420.09 314.28 372.55 380.61 386.26 380.61 457.05 314.43 420.09"/>
          <g class="cls-5">
            <g class="cls-6">
              <polygon class="cls-7" points="314.43 420.09 314.28 372.55 380.61 386.26 380.61 457.05 314.43 420.09"/>
            </g>
          </g>
          <g>
            <path class="cls-8" d="M236.25,386a.86.86,0,0,0-.31-.7,3.78,3.78,0,0,0-1.09-.53,9.92,9.92,0,0,1-1.27-.52A2.47,2.47,0,0,1,232,382a2,2,0,0,1,.4-1.25,2.59,2.59,0,0,1,1.13-.84,4.33,4.33,0,0,1,1.65-.3,3.72,3.72,0,0,1,1.6.33,2.46,2.46,0,0,1,1.49,2.32h-2a1,1,0,0,0-.31-.81,1.17,1.17,0,0,0-.84-.29,1.35,1.35,0,0,0-.84.24.74.74,0,0,0,0,1.22,4.58,4.58,0,0,0,1.2.55,7.33,7.33,0,0,1,1.41.61,2.43,2.43,0,0,1,1.34,2.2,2.08,2.08,0,0,1-.82,1.75,3.51,3.51,0,0,1-2.24.64,4.29,4.29,0,0,1-1.82-.37,2.74,2.74,0,0,1-1.23-1,2.67,2.67,0,0,1-.41-1.49h2a1.33,1.33,0,0,0,.34,1,1.58,1.58,0,0,0,1.12.33,1.29,1.29,0,0,0,.78-.22A.75.75,0,0,0,236.25,386Z"/>
            <path class="cls-8" d="M246.05,384.2a5.19,5.19,0,0,1-.45,2.21,3.34,3.34,0,0,1-1.27,1.47,3.72,3.72,0,0,1-3.76,0,3.37,3.37,0,0,1-1.28-1.43,5.14,5.14,0,0,1-.48-2.14v-.48a5.13,5.13,0,0,1,.45-2.21,3.37,3.37,0,0,1,1.28-1.48,3.44,3.44,0,0,1,1.89-.52,3.35,3.35,0,0,1,3.16,2,5.06,5.06,0,0,1,.46,2.18Zm-2-.36a3.62,3.62,0,0,0-.41-1.93,1.31,1.31,0,0,0-1.18-.66c-1,0-1.53.77-1.58,2.32v.63a3.87,3.87,0,0,0,.4,1.92,1.32,1.32,0,0,0,1.2.68,1.29,1.29,0,0,0,1.17-.66,3.71,3.71,0,0,0,.41-1.91Z"/>
            <path class="cls-8" d="M253.56,385.4a3.25,3.25,0,0,1-.47,1.57,2.76,2.76,0,0,1-1.2,1.06,4,4,0,0,1-1.76.37,3.22,3.22,0,0,1-2.57-1.09,4.65,4.65,0,0,1-.93-3.1v-.42a5.31,5.31,0,0,1,.42-2.19,3.2,3.2,0,0,1,3.06-2,3.46,3.46,0,0,1,2.42.82,3.25,3.25,0,0,1,1,2.25h-2a1.54,1.54,0,0,0-.38-1.12,1.56,1.56,0,0,0-1.09-.34,1.17,1.17,0,0,0-1.09.58,3.76,3.76,0,0,0-.36,1.83v.6a4.23,4.23,0,0,0,.33,2,1.2,1.2,0,0,0,1.14.58,1.55,1.55,0,0,0,1.06-.33,1.43,1.43,0,0,0,.38-1.06Z"/>
            <path class="cls-8" d="M256.39,388.29h-2v-8.54h2Z"/>
            <path class="cls-8" d="M262.26,386.69h-2.74l-.47,1.6h-2.14l3-8.54h1.88l3.05,8.54h-2.14ZM260,385.1h1.78l-.89-3Z"/>
            <path class="cls-8" d="M267.25,386.7h3.47v1.59h-5.47v-8.54h2Z"/>
            <path class="cls-8" d="M273.34,386.7h3.47v1.59h-5.47v-8.54h2Z"/>
            <path class="cls-8" d="M279.17,383.46l1.52-3.71h2.15l-2.66,5.47v3.07h-2v-3.07l-2.66-5.47h2.15Z"/>
          </g>
          <g>
            <path class="cls-8" d="M236.91,401.28v-8.53h2.67a3.83,3.83,0,0,1,2,.51,3.61,3.61,0,0,1,1.37,1.45,4.52,4.52,0,0,1,.5,2.1v.39a4.51,4.51,0,0,1-.48,2.1,3.52,3.52,0,0,1-1.36,1.45,3.69,3.69,0,0,1-1.94.53Zm2-6.94v5.36h.69a1.54,1.54,0,0,0,1.32-.63,3.13,3.13,0,0,0,.46-1.87v-.37a3.07,3.07,0,0,0-.46-1.86,1.56,1.56,0,0,0-1.34-.63Z"/>
            <path class="cls-8" d="M247.29,398.26h-1.08v3h-2v-8.53h3.25a3.63,3.63,0,0,1,2.31.67,2.34,2.34,0,0,1,.83,1.91,2.86,2.86,0,0,1-.35,1.47,2.53,2.53,0,0,1-1.1.95l1.73,3.44v.09h-2.14Zm-1.08-1.58h1.26a1.1,1.1,0,0,0,.86-.31,1.21,1.21,0,0,0,.29-.86,1.24,1.24,0,0,0-.29-.86,1.12,1.12,0,0,0-.86-.32h-1.26Z"/>
            <path class="cls-8" d="M253.7,401.28h-2v-8.53h2Z"/>
            <path class="cls-8" d="M258.08,399l1.65-6.21H262l-2.79,8.53H257l-2.76-8.53h2.21Z"/>
            <path class="cls-8" d="M267.47,397.66h-3.14v2H268v1.58h-5.7v-8.53h5.71v1.59h-3.72v1.8h3.14Z"/>
            <path class="cls-8" d="M275.54,401.28h-2L270.63,396v5.31h-2v-8.53h2l2.92,5.31v-5.31h2Z"/>
          </g>
          <g>
            <path class="cls-8" d="M231.33,414.28v-8.53h3a4.15,4.15,0,0,1,2.43.6,2,2,0,0,1,.83,1.75,2.13,2.13,0,0,1-.29,1.13,1.67,1.67,0,0,1-.87.69,1.75,1.75,0,0,1,1,.66,2,2,0,0,1,.35,1.17,2.31,2.31,0,0,1-.77,1.89,3.62,3.62,0,0,1-2.28.64Zm2-5h1a1.4,1.4,0,0,0,.93-.24.88.88,0,0,0,.28-.71.94.94,0,0,0-.3-.78,1.55,1.55,0,0,0-1-.24h-1Zm0,1.35v2.05h1.31a1.21,1.21,0,0,0,.83-.26.92.92,0,0,0,.29-.72.93.93,0,0,0-1-1.07Z"/>
            <path class="cls-8" d="M245.09,405.75v5.58a3.29,3.29,0,0,1-.39,1.64,2.55,2.55,0,0,1-1.12,1.06,3.92,3.92,0,0,1-1.74.37,3.35,3.35,0,0,1-2.38-.81,3,3,0,0,1-.89-2.22v-5.62h2v5.66c0,.94.44,1.4,1.26,1.4a1.17,1.17,0,0,0,.94-.35,1.67,1.67,0,0,0,.32-1.14v-5.57Z"/>
            <path class="cls-8" d="M250.39,412a.87.87,0,0,0-.31-.7,3.81,3.81,0,0,0-1.09-.52,10,10,0,0,1-1.28-.53,2.46,2.46,0,0,1-1.6-2.23,2,2,0,0,1,.4-1.25,2.48,2.48,0,0,1,1.13-.85,4.33,4.33,0,0,1,1.65-.3,3.75,3.75,0,0,1,1.6.33,2.58,2.58,0,0,1,1.1.93,2.53,2.53,0,0,1,.39,1.39h-2a1,1,0,0,0-.31-.81,1.19,1.19,0,0,0-.84-.29,1.29,1.29,0,0,0-.84.25.73.73,0,0,0-.31.61.76.76,0,0,0,.34.6,4.27,4.27,0,0,0,1.2.55,7.33,7.33,0,0,1,1.41.61,2.46,2.46,0,0,1,1.34,2.2,2.1,2.1,0,0,1-.82,1.76,3.57,3.57,0,0,1-2.24.64,4.29,4.29,0,0,1-1.82-.38,2.62,2.62,0,0,1-1.23-1,2.65,2.65,0,0,1-.41-1.49h2a1.31,1.31,0,0,0,.34,1,1.58,1.58,0,0,0,1.12.33,1.23,1.23,0,0,0,.78-.22A.74.74,0,0,0,250.39,412Z"/>
            <path class="cls-8" d="M255.31,414.28h-2v-8.53h2Z"/>
            <path class="cls-8" d="M263.38,414.28h-2L258.47,409v5.31h-2v-8.53h2l2.93,5.31v-5.31h2Z"/>
            <path class="cls-8" d="M269.56,410.66h-3.14v2h3.71v1.58h-5.71v-8.53h5.72v1.58h-3.72v1.8h3.14Z"/>
            <path class="cls-8" d="M275,412a.87.87,0,0,0-.31-.7,3.81,3.81,0,0,0-1.09-.52,10,10,0,0,1-1.28-.53,2.46,2.46,0,0,1-1.6-2.23,2,2,0,0,1,.4-1.25,2.48,2.48,0,0,1,1.13-.85,4.33,4.33,0,0,1,1.65-.3,3.75,3.75,0,0,1,1.6.33,2.58,2.58,0,0,1,1.1.93,2.53,2.53,0,0,1,.39,1.39h-2a1,1,0,0,0-.31-.81,1.17,1.17,0,0,0-.84-.29,1.29,1.29,0,0,0-.84.25.73.73,0,0,0-.31.61.76.76,0,0,0,.34.6,4.27,4.27,0,0,0,1.2.55,7.33,7.33,0,0,1,1.41.61A2.46,2.46,0,0,1,277,412a2.1,2.1,0,0,1-.82,1.76,3.57,3.57,0,0,1-2.24.64,4.29,4.29,0,0,1-1.82-.38,2.62,2.62,0,0,1-1.23-1,2.65,2.65,0,0,1-.41-1.49h2a1.31,1.31,0,0,0,.34,1,1.58,1.58,0,0,0,1.12.33,1.23,1.23,0,0,0,.78-.22A.74.74,0,0,0,275,412Z"/>
            <path class="cls-8" d="M282.05,412a.84.84,0,0,0-.31-.7,3.81,3.81,0,0,0-1.09-.52,9.79,9.79,0,0,1-1.27-.53,2.47,2.47,0,0,1-1.61-2.23,2,2,0,0,1,.4-1.25,2.56,2.56,0,0,1,1.14-.85,4.24,4.24,0,0,1,1.64-.3,3.72,3.72,0,0,1,1.6.33,2.53,2.53,0,0,1,1.1.93,2.46,2.46,0,0,1,.4,1.39h-2a1.07,1.07,0,0,0-.31-.81,1.21,1.21,0,0,0-.84-.29,1.3,1.3,0,0,0-.85.25.75.75,0,0,0-.31.61.77.77,0,0,0,.35.6,4,4,0,0,0,1.19.55,6.81,6.81,0,0,1,1.41.61,2.46,2.46,0,0,1,1.35,2.2,2.13,2.13,0,0,1-.82,1.76,3.62,3.62,0,0,1-2.25.64,4.29,4.29,0,0,1-1.82-.38,2.62,2.62,0,0,1-1.64-2.51h2a1.31,1.31,0,0,0,.35,1,1.55,1.55,0,0,0,1.11.33,1.23,1.23,0,0,0,.78-.22A.72.72,0,0,0,282.05,412Z"/>
          </g>
          <g>
            <path class="cls-8" d="M475.16,412.65v3.69h-1.73v-9.95h3.81a3.82,3.82,0,0,1,2.64.87,2.92,2.92,0,0,1,1,2.3,2.83,2.83,0,0,1-1,2.28,4,4,0,0,1-2.69.81Zm0-1.39h2.08a2.07,2.07,0,0,0,1.4-.43,1.59,1.59,0,0,0,.49-1.26,1.75,1.75,0,0,0-.49-1.29,1.87,1.87,0,0,0-1.36-.49h-2.12Z"/>
            <path class="cls-8" d="M486.21,410.47a3.63,3.63,0,0,0-.67-.06,1.52,1.52,0,0,0-1.54.88v5h-1.66V409h1.58l0,.83a1.88,1.88,0,0,1,1.67-1,1.42,1.42,0,0,1,.59.1Z"/>
            <path class="cls-8" d="M487.08,412.58a4.31,4.31,0,0,1,.43-2,3.15,3.15,0,0,1,1.21-1.34,3.41,3.41,0,0,1,1.79-.47,3.2,3.2,0,0,1,2.43,1,3.78,3.78,0,0,1,1,2.55v.39a4.44,4.44,0,0,1-.43,2,3.1,3.1,0,0,1-1.2,1.33,3.46,3.46,0,0,1-1.81.47,3.21,3.21,0,0,1-2.5-1,4,4,0,0,1-.94-2.78Zm1.66.14a3,3,0,0,0,.47,1.79,1.54,1.54,0,0,0,1.31.65,1.51,1.51,0,0,0,1.31-.66,3.32,3.32,0,0,0,.47-1.92,3,3,0,0,0-.48-1.78,1.62,1.62,0,0,0-2.6,0A3.23,3.23,0,0,0,488.74,412.72Z"/>
            <path class="cls-8" d="M496.07,416.34v-6.16h-1.13V409h1.13v-.68a2.57,2.57,0,0,1,.68-1.9,2.63,2.63,0,0,1,1.92-.67,4,4,0,0,1,.93.12l0,1.3a4.06,4.06,0,0,0-.64-.05,1.07,1.07,0,0,0-1.19,1.22V409h1.51v1.23h-1.51v6.16Z"/>
            <path class="cls-8" d="M500.58,407a.85.85,0,0,1,.93-.89.91.91,0,0,1,.7.25.86.86,0,0,1,.25.64.81.81,0,0,1-.25.62,1.09,1.09,0,0,1-1.39,0A.84.84,0,0,1,500.58,407Zm1.76,9.31h-1.66V409h1.66Z"/>
            <path class="cls-8" d="M506.36,407.15V409h1.3v1.23h-1.3v4.13a.93.93,0,0,0,.16.61.83.83,0,0,0,.6.19,2.87,2.87,0,0,0,.58-.07v1.28a3.84,3.84,0,0,1-1.09.16c-1.28,0-1.91-.7-1.91-2.11v-4.19h-1.22V409h1.22v-1.8Z"/>
            <path class="cls-8" d="M512.36,412.59a4.37,4.37,0,0,1,.79-2.74,2.55,2.55,0,0,1,2.13-1,2.42,2.42,0,0,1,1.9.82v-3.79h1.66v10.5h-1.51l-.08-.76a2.44,2.44,0,0,1-2,.9,2.55,2.55,0,0,1-2.1-1A4.62,4.62,0,0,1,512.36,412.59Zm1.66.15a3.1,3.1,0,0,0,.43,1.76,1.41,1.41,0,0,0,1.24.63,1.57,1.57,0,0,0,1.49-.91v-3.16a1.56,1.56,0,0,0-1.48-.89,1.4,1.4,0,0,0-1.24.64A3.46,3.46,0,0,0,514,412.74Z"/>
            <path class="cls-8" d="M520.7,407a.89.89,0,0,1,.24-.64.94.94,0,0,1,.7-.25.9.9,0,0,1,.69.25.86.86,0,0,1,.25.64.81.81,0,0,1-.25.62.9.9,0,0,1-.69.25.94.94,0,0,1-.7-.25A.84.84,0,0,1,520.7,407Zm1.76,9.31H520.8V409h1.66Z"/>
            <path class="cls-8" d="M528.54,414.33a.75.75,0,0,0-.36-.67,3.79,3.79,0,0,0-1.21-.41,6.43,6.43,0,0,1-1.42-.45,1.89,1.89,0,0,1-1.24-1.75,2,2,0,0,1,.8-1.6,3.24,3.24,0,0,1,2-.64,3.32,3.32,0,0,1,2.15.66,2.08,2.08,0,0,1,.81,1.7h-1.66a1,1,0,0,0-.35-.8,1.38,1.38,0,0,0-1-.31,1.46,1.46,0,0,0-.89.25.79.79,0,0,0-.34.68.66.66,0,0,0,.32.59,4.63,4.63,0,0,0,1.3.43,5.91,5.91,0,0,1,1.53.51,2.27,2.27,0,0,1,.83.71,1.85,1.85,0,0,1,.27,1,1.93,1.93,0,0,1-.83,1.61,3.47,3.47,0,0,1-2.17.62,3.84,3.84,0,0,1-1.62-.33,2.67,2.67,0,0,1-1.1-.9,2.08,2.08,0,0,1-.4-1.24h1.61a1.17,1.17,0,0,0,.45.91,1.72,1.72,0,0,0,1.09.32,1.7,1.7,0,0,0,1-.25A.78.78,0,0,0,528.54,414.33Z"/>
            <path class="cls-8" d="M533.83,407.15V409h1.31v1.23h-1.31v4.13a.93.93,0,0,0,.17.61.8.8,0,0,0,.6.19,3,3,0,0,0,.58-.07v1.28a3.9,3.9,0,0,1-1.1.16c-1.27,0-1.91-.7-1.91-2.11v-4.19H531V409h1.22v-1.8Z"/>
            <path class="cls-8" d="M540.4,410.47a3.63,3.63,0,0,0-.67-.06,1.52,1.52,0,0,0-1.54.88v5h-1.66V409h1.58l0,.83a1.85,1.85,0,0,1,1.66-1,1.42,1.42,0,0,1,.59.1Z"/>
            <path class="cls-8" d="M541.58,407a.86.86,0,0,1,.25-.64.9.9,0,0,1,.69-.25.94.94,0,0,1,.7.25.89.89,0,0,1,.24.64.84.84,0,0,1-.24.62.94.94,0,0,1-.7.25.9.9,0,0,1-.69-.25A.81.81,0,0,1,541.58,407Zm1.77,9.31h-1.66V409h1.66Z"/>
            <path class="cls-8" d="M551.77,412.72a4.39,4.39,0,0,1-.77,2.74,2.5,2.5,0,0,1-2.11,1,2.42,2.42,0,0,1-2-.94l-.08.8h-1.5v-10.5h1.66v3.82a2.39,2.39,0,0,1,1.93-.85,2.54,2.54,0,0,1,2.13,1,4.54,4.54,0,0,1,.77,2.81Zm-1.66-.14a3.18,3.18,0,0,0-.42-1.81,1.43,1.43,0,0,0-1.23-.6,1.55,1.55,0,0,0-1.52.95v3a1.55,1.55,0,0,0,1.53,1,1.41,1.41,0,0,0,1.2-.58,3,3,0,0,0,.44-1.76Z"/>
            <path class="cls-8" d="M557.77,415.62a2.59,2.59,0,0,1-2.08.86,2.29,2.29,0,0,1-1.82-.7,3,3,0,0,1-.62-2V409h1.66v4.77q0,1.41,1.17,1.41a1.63,1.63,0,0,0,1.63-.87V409h1.67v7.39h-1.57Z"/>
            <path class="cls-8" d="M563.28,407.15V409h1.3v1.23h-1.3v4.13a.93.93,0,0,0,.16.61.8.8,0,0,0,.6.19,2.87,2.87,0,0,0,.58-.07v1.28a3.89,3.89,0,0,1-1.09.16c-1.28,0-1.92-.7-1.92-2.11v-4.19H560.4V409h1.21v-1.8Z"/>
            <path class="cls-8" d="M566,407a.89.89,0,0,1,.24-.64,1.09,1.09,0,0,1,1.39,0,.86.86,0,0,1,.25.64.81.81,0,0,1-.25.62,1.09,1.09,0,0,1-1.39,0A.84.84,0,0,1,566,407Zm1.76,9.31h-1.66V409h1.66Z"/>
            <path class="cls-8" d="M571.22,409l0,.85a2.64,2.64,0,0,1,2.15-1c1.54,0,2.32.88,2.35,2.65v4.88h-1.66v-4.79a1.54,1.54,0,0,0-.3-1,1.29,1.29,0,0,0-1-.34,1.6,1.6,0,0,0-1.5.91v5.26h-1.66V409Z"/>
            <path class="cls-8" d="M577.3,412.59a4.33,4.33,0,0,1,.81-2.75,2.58,2.58,0,0,1,2.15-1,2.47,2.47,0,0,1,2,.88l.07-.74h1.5v7.17a3,3,0,0,1-.91,2.3,3.43,3.43,0,0,1-2.44.84,4.06,4.06,0,0,1-1.59-.34,2.82,2.82,0,0,1-1.18-.89l.79-1a2.38,2.38,0,0,0,1.88.9,1.87,1.87,0,0,0,1.31-.44,1.72,1.72,0,0,0,.48-1.32v-.5a2.47,2.47,0,0,1-1.92.8,2.59,2.59,0,0,1-2.12-1A4.47,4.47,0,0,1,577.3,412.59Zm1.65.15a2.93,2.93,0,0,0,.46,1.75,1.45,1.45,0,0,0,1.26.64,1.61,1.61,0,0,0,1.49-.86V411a1.59,1.59,0,0,0-1.48-.84,1.46,1.46,0,0,0-1.27.65A3.28,3.28,0,0,0,579,412.74Z"/>
            <path class="cls-8" d="M476.22,433.14a2.17,2.17,0,0,1-.19-.69,2.57,2.57,0,0,1-1.95.83,2.61,2.61,0,0,1-1.81-.63,2.05,2.05,0,0,1-.71-1.58,2.11,2.11,0,0,1,.88-1.81,4.27,4.27,0,0,1,2.51-.63h1v-.49a1.32,1.32,0,0,0-.32-.92,1.27,1.27,0,0,0-1-.34,1.45,1.45,0,0,0-.93.28.88.88,0,0,0-.36.72h-1.66a1.86,1.86,0,0,1,.4-1.14,2.74,2.74,0,0,1,1.1-.83,3.86,3.86,0,0,1,1.55-.3,3.15,3.15,0,0,1,2.07.65,2.34,2.34,0,0,1,.79,1.84v3.34a3.91,3.91,0,0,0,.28,1.59v.11ZM474.39,432a1.9,1.9,0,0,0,.93-.24,1.6,1.6,0,0,0,.65-.64v-1.4h-.89a2.48,2.48,0,0,0-1.39.32,1.06,1.06,0,0,0-.47.91,1,1,0,0,0,.32.76A1.23,1.23,0,0,0,474.39,432Z"/>
            <path class="cls-8" d="M481,425.75l0,.85a2.64,2.64,0,0,1,2.15-1c1.54,0,2.33.88,2.35,2.65v4.88h-1.66v-4.79a1.54,1.54,0,0,0-.3-1,1.29,1.29,0,0,0-1-.34,1.58,1.58,0,0,0-1.49.91v5.26h-1.67v-7.39Z"/>
            <path class="cls-8" d="M487.11,429.39a4.37,4.37,0,0,1,.8-2.74,2.53,2.53,0,0,1,2.12-1,2.39,2.39,0,0,1,1.9.82v-3.79h1.66v10.5h-1.5l-.08-.76a2.46,2.46,0,0,1-2,.9,2.52,2.52,0,0,1-2.1-1A4.55,4.55,0,0,1,487.11,429.39Zm1.66.15a3,3,0,0,0,.44,1.75,1.39,1.39,0,0,0,1.23.64,1.57,1.57,0,0,0,1.49-.91v-3.16a1.53,1.53,0,0,0-1.47-.89,1.42,1.42,0,0,0-1.25.64A3.46,3.46,0,0,0,488.77,429.54Z"/>
            <path class="cls-8" d="M503.21,431.13a.74.74,0,0,0-.37-.67,3.7,3.7,0,0,0-1.21-.41,6.33,6.33,0,0,1-1.41-.45,1.9,1.9,0,0,1-1.25-1.75,2,2,0,0,1,.81-1.6,3.24,3.24,0,0,1,2.05-.64,3.3,3.3,0,0,1,2.14.66,2.07,2.07,0,0,1,.82,1.7h-1.66a1,1,0,0,0-.36-.8,1.35,1.35,0,0,0-.94-.31,1.46,1.46,0,0,0-.89.25.8.8,0,0,0-.35.68.68.68,0,0,0,.32.59,4.75,4.75,0,0,0,1.3.43,6,6,0,0,1,1.54.51,2.36,2.36,0,0,1,.83.71,2,2,0,0,1-.56,2.63,3.49,3.49,0,0,1-2.17.62,3.78,3.78,0,0,1-1.62-.33,2.76,2.76,0,0,1-1.11-.9,2.14,2.14,0,0,1-.39-1.24h1.61a1.16,1.16,0,0,0,.44.91,1.76,1.76,0,0,0,1.09.32,1.73,1.73,0,0,0,1-.25A.78.78,0,0,0,503.21,431.13Z"/>
            <path class="cls-8" d="M506.12,429.38a4.31,4.31,0,0,1,.43-2,3.15,3.15,0,0,1,1.21-1.34,3.44,3.44,0,0,1,1.79-.47,3.2,3.2,0,0,1,2.43,1,3.78,3.78,0,0,1,1,2.55v.39a4.44,4.44,0,0,1-.42,2,3.12,3.12,0,0,1-1.21,1.33,3.46,3.46,0,0,1-1.81.47,3.22,3.22,0,0,1-2.5-1,4,4,0,0,1-.94-2.78Zm1.66.14a3,3,0,0,0,.47,1.79,1.54,1.54,0,0,0,1.31.65,1.51,1.51,0,0,0,1.31-.66,3.24,3.24,0,0,0,.47-1.92,3,3,0,0,0-.48-1.78,1.62,1.62,0,0,0-2.6,0A3.23,3.23,0,0,0,507.78,429.52Z"/>
            <path class="cls-8" d="M517.57,432a1.53,1.53,0,0,0,1-.37,1.26,1.26,0,0,0,.44-.89h1.56a2.45,2.45,0,0,1-.43,1.29,2.86,2.86,0,0,1-1.09.94,3.48,3.48,0,0,1-4-.65,4,4,0,0,1-.9-2.78v-.17a3.9,3.9,0,0,1,.9-2.7,3.11,3.11,0,0,1,2.46-1,3,3,0,0,1,2.15.77,2.78,2.78,0,0,1,.87,2H519a1.57,1.57,0,0,0-.44-1,1.41,1.41,0,0,0-1-.41,1.47,1.47,0,0,0-1.25.59,3,3,0,0,0-.44,1.77v.27a3,3,0,0,0,.43,1.79A1.46,1.46,0,0,0,517.57,432Z"/>
            <path class="cls-8" d="M522,423.83a.86.86,0,0,1,.94-.89.94.94,0,0,1,.7.25.89.89,0,0,1,.24.64.84.84,0,0,1-.24.62.94.94,0,0,1-.7.25.9.9,0,0,1-.69-.25A.85.85,0,0,1,522,423.83Zm1.77,9.31h-1.66v-7.39h1.66Z"/>
            <path class="cls-8" d="M530.1,433.14a2.48,2.48,0,0,1-.19-.69,2.57,2.57,0,0,1-1.94.83,2.63,2.63,0,0,1-1.82-.63,2,2,0,0,1-.7-1.58,2.09,2.09,0,0,1,.88-1.81,4.25,4.25,0,0,1,2.51-.63h1v-.49a1.28,1.28,0,0,0-.33-.92,1.26,1.26,0,0,0-1-.34,1.45,1.45,0,0,0-.93.28.89.89,0,0,0-.37.72H525.6a1.88,1.88,0,0,1,.41-1.14,2.71,2.71,0,0,1,1.09-.83,3.9,3.9,0,0,1,1.55-.3,3.11,3.11,0,0,1,2.07.65,2.35,2.35,0,0,1,.8,1.84v3.34a3.75,3.75,0,0,0,.28,1.59v.11ZM528.28,432a1.89,1.89,0,0,0,.92-.24,1.7,1.7,0,0,0,.66-.64v-1.4H529a2.48,2.48,0,0,0-1.39.32,1,1,0,0,0-.46.91,1,1,0,0,0,.31.76A1.26,1.26,0,0,0,528.28,432Z"/>
            <path class="cls-8" d="M535.15,433.14h-1.66v-10.5h1.66Z"/>
            <path class="cls-8" d="M538.85,433.14h-1.66v-10.5h1.66Z"/>
            <path class="cls-8" d="M543.37,430.77l1.51-5h1.77l-2.94,8.52a2.39,2.39,0,0,1-2.3,1.86,3,3,0,0,1-.8-.12v-1.29l.31,0a1.64,1.64,0,0,0,1-.23,1.5,1.5,0,0,0,.5-.77l.24-.64L540,425.75h1.79Z"/>
            <path class="cls-8" d="M551,429.39a4.37,4.37,0,0,1,.79-2.74,2.55,2.55,0,0,1,2.13-1,2.42,2.42,0,0,1,1.9.82v-3.79h1.66v10.5H556l-.08-.76a2.46,2.46,0,0,1-2,.9,2.55,2.55,0,0,1-2.1-1A4.55,4.55,0,0,1,551,429.39Zm1.66.15a3,3,0,0,0,.43,1.75,1.4,1.4,0,0,0,1.24.64,1.58,1.58,0,0,0,1.49-.91v-3.16a1.56,1.56,0,0,0-1.48-.89,1.4,1.4,0,0,0-1.24.64A3.38,3.38,0,0,0,552.69,429.54Z"/>
            <path class="cls-8" d="M563.24,427.27a3.74,3.74,0,0,0-.68-.06,1.5,1.5,0,0,0-1.53.88v5.05h-1.67v-7.39H561l0,.83a1.87,1.87,0,0,1,1.67-1,1.45,1.45,0,0,1,.59.1Z"/>
            <path class="cls-8" d="M564.42,423.83a.89.89,0,0,1,.24-.64,1.09,1.09,0,0,1,1.39,0,.86.86,0,0,1,.25.64.81.81,0,0,1-.25.62,1.09,1.09,0,0,1-1.39,0A.84.84,0,0,1,564.42,423.83Zm1.76,9.31h-1.66v-7.39h1.66Z"/>
            <path class="cls-8" d="M570.72,431l1.57-5.29H574l-2.57,7.39H570l-2.58-7.39h1.72Z"/>
            <path class="cls-8" d="M578.44,433.28a3.44,3.44,0,0,1-2.56-1,3.6,3.6,0,0,1-1-2.65v-.21a4.53,4.53,0,0,1,.42-2,3.29,3.29,0,0,1,1.2-1.35,3.14,3.14,0,0,1,1.73-.49,2.89,2.89,0,0,1,2.33,1,4.06,4.06,0,0,1,.83,2.72V430h-4.84a2.25,2.25,0,0,0,.61,1.45,1.83,1.83,0,0,0,1.35.54,2.23,2.23,0,0,0,1.86-.93l.9.86a3.06,3.06,0,0,1-1.19,1A3.74,3.74,0,0,1,578.44,433.28Zm-.2-6.34a1.38,1.38,0,0,0-1.1.48,2.53,2.53,0,0,0-.54,1.34h3.16v-.13a2,2,0,0,0-.44-1.26A1.41,1.41,0,0,0,578.24,426.94Z"/>
            <path class="cls-8" d="M584.36,425.75l0,.85a2.66,2.66,0,0,1,2.15-1c1.54,0,2.33.88,2.35,2.65v4.88h-1.66v-4.79a1.54,1.54,0,0,0-.3-1,1.27,1.27,0,0,0-1-.34,1.59,1.59,0,0,0-1.49.91v5.26H582.8v-7.39Z"/>
          </g>
        </g>
        <g class="cls-9">
          <path class="cls-10" d="M659.5,148.3h0M659.5.5h0"/>
        </g>
        <path class="cls-11" d="M659.5,454.8h0m0-298h0"/>
      </g>
    </g>
  </g>
</svg>
