<svg id="Layer_1" data-name="Layer 1" xmlns="http://www.w3.org/2000/svg" xmlns:xlink="http://www.w3.org/1999/xlink" width="806.86" height="688.5" viewBox="0 0 806.86 688.5">
  <defs>
    <style>
      .cls-1, .cls-4, .cls-7, .cls-8 {
        fill: none;
      }

      .cls-2 {
        clip-path: url(#clip-path);
      }

      .cls-3 {
        clip-path: url(#clip-path-2);
      }

      .cls-4 {
        stroke: #10416a;
      }

      .cls-4, .cls-7, .cls-8 {
        stroke-linecap: round;
        stroke-linejoin: round;
      }

      .cls-5 {
        fill: #231f20;
      }

      .cls-6 {
        fill: #409b73;
      }

      .cls-7, .cls-8 {
        stroke: #ff665e;
      }

      .cls-7 {
        stroke-dasharray: 0 2;
      }
    </style>
    <clipPath id="clip-path">
      <rect class="cls-1" width="806.86" height="688.5"/>
    </clipPath>
    <clipPath id="clip-path-2">
      <rect class="cls-1" width="806.86" height="688.5"/>
    </clipPath>
  </defs>
  <title>5</title>
  <g class="cls-2">
    <g class="cls-3">
      <path class="cls-4" d="M659.5,148.3h0M659.5.5h0"/>
    </g>
    <g id="_5" data-name="5">
      <g id="_5-2" data-name="5">
        <g>
          <path class="cls-5" d="M674.81,167.47,677.2,174l2.38-6.54h1.86V176H680v-2.81l.14-3.76L677.71,176h-1l-2.44-6.57.14,3.76V176H673v-8.53Z"/>
          <path class="cls-5" d="M682.78,168a.72.72,0,0,1,.78-.77.74.74,0,0,1,.57.22.77.77,0,0,1,.21.55.72.72,0,0,1-.21.53.74.74,0,0,1-.57.22.77.77,0,0,1-.58-.22A.72.72,0,0,1,682.78,168Zm1.46,8h-1.38v-6.34h1.38Z"/>
          <path class="cls-5" d="M689,174.28a.65.65,0,0,0-.3-.58,3.29,3.29,0,0,0-1-.35,4.94,4.94,0,0,1-1.18-.39,1.61,1.61,0,0,1-1-1.49,1.68,1.68,0,0,1,.67-1.37,2.56,2.56,0,0,1,1.7-.56,2.66,2.66,0,0,1,1.78.57,1.78,1.78,0,0,1,.68,1.46h-1.38a.93.93,0,0,0-.29-.69,1.13,1.13,0,0,0-.79-.27,1.16,1.16,0,0,0-.74.22.69.69,0,0,0-.29.58.58.58,0,0,0,.27.51,3.63,3.63,0,0,0,1.08.36,5.38,5.38,0,0,1,1.28.44,1.87,1.87,0,0,1,.68.62,1.55,1.55,0,0,1,.23.86,1.67,1.67,0,0,1-.69,1.39,2.89,2.89,0,0,1-1.8.53,3.11,3.11,0,0,1-1.35-.28,2.28,2.28,0,0,1-.92-.78,1.85,1.85,0,0,1-.33-1.06h1.34a1,1,0,0,0,.37.78,1.43,1.43,0,0,0,.91.27,1.39,1.39,0,0,0,.83-.21A.66.66,0,0,0,689,174.28Z"/>
          <path class="cls-5" d="M694.74,174.28a.66.66,0,0,0-.31-.58,3.19,3.19,0,0,0-1-.35,4.71,4.71,0,0,1-1.17-.39,1.62,1.62,0,0,1-1-1.49,1.71,1.71,0,0,1,.67-1.37,2.61,2.61,0,0,1,1.71-.56,2.68,2.68,0,0,1,1.78.57,1.81,1.81,0,0,1,.68,1.46h-1.38a.9.9,0,0,0-.3-.69,1.12,1.12,0,0,0-.78-.27,1.14,1.14,0,0,0-.74.22.67.67,0,0,0-.29.58.58.58,0,0,0,.27.51,3.42,3.42,0,0,0,1.08.36,5.28,5.28,0,0,1,1.27.44,1.83,1.83,0,0,1,.69.62,1.55,1.55,0,0,1,.22.86,1.66,1.66,0,0,1-.68,1.39,2.91,2.91,0,0,1-1.81.53,3,3,0,0,1-1.34-.28,2.21,2.21,0,0,1-.92-.78A1.85,1.85,0,0,1,691,174h1.34a1,1,0,0,0,.37.78,1.42,1.42,0,0,0,.9.27,1.37,1.37,0,0,0,.83-.21A.67.67,0,0,0,694.74,174.28Z"/>
          <path class="cls-5" d="M697.08,168a.72.72,0,0,1,.78-.77.78.78,0,0,1,.58.22.81.81,0,0,1,.2.55.76.76,0,0,1-.2.53.78.78,0,0,1-.58.22.77.77,0,0,1-.58-.22A.72.72,0,0,1,697.08,168Zm1.46,8h-1.38v-6.34h1.38Z"/>
          <path class="cls-5" d="M699.57,172.77a4,4,0,0,1,.35-1.68,2.68,2.68,0,0,1,1-1.14,2.75,2.75,0,0,1,1.49-.41,2.65,2.65,0,0,1,2,.83,3.28,3.28,0,0,1,.84,2.19v.34a3.9,3.9,0,0,1-.35,1.67,2.61,2.61,0,0,1-1,1.14,2.76,2.76,0,0,1-1.5.41,2.63,2.63,0,0,1-2.08-.89,3.51,3.51,0,0,1-.78-2.39Zm1.38.13a2.62,2.62,0,0,0,.39,1.53,1.35,1.35,0,0,0,2.18,0,2.89,2.89,0,0,0,.39-1.65,2.54,2.54,0,0,0-.4-1.52,1.28,1.28,0,0,0-1.09-.56,1.24,1.24,0,0,0-1.07.55A2.8,2.8,0,0,0,701,172.9Z"/>
          <path class="cls-5" d="M707.51,169.66l0,.73a2.21,2.21,0,0,1,1.79-.85c1.28,0,1.94.76,2,2.27V176h-1.38v-4.11a1.37,1.37,0,0,0-.25-.89,1.07,1.07,0,0,0-.83-.29,1.34,1.34,0,0,0-1.25.78V176h-1.38v-6.34Z"/>
          <path class="cls-5" d="M713.32,169.53a.77.77,0,0,1,.59.22.8.8,0,0,1,.21.57.75.75,0,0,1-.21.55.77.77,0,0,1-.59.22.82.82,0,0,1-.59-.21.79.79,0,0,1-.21-.56.74.74,0,0,1,.8-.79Zm0,5a.78.78,0,0,1,.59.23.79.79,0,0,1,.21.56.78.78,0,0,1-.21.56.81.81,0,0,1-.59.22.82.82,0,0,1-.59-.22.76.76,0,0,1-.21-.56.75.75,0,0,1,.8-.79Z"/>
        </g>
        <g>
          <path class="cls-6" d="M675.18,193.56h-2V183.3h2Z"/>
          <path class="cls-6" d="M680.6,183.3l2.55,7.44,2.55-7.44h2.69v10.26h-2.06v-2.81l.21-4.84-2.69,7.65h-1.41l-2.68-7.64.21,4.83v2.81h-2.05V183.3Z"/>
          <path class="cls-6" d="M693.07,189.94v3.62H691V183.3h3.88a4.44,4.44,0,0,1,2,.42,3.11,3.11,0,0,1,1.31,1.2,3.48,3.48,0,0,1,.45,1.77,3,3,0,0,1-1,2.38,4.09,4.09,0,0,1-2.77.87Zm0-1.71h1.83a1.71,1.71,0,0,0,1.24-.4,1.42,1.42,0,0,0,.43-1.12,1.7,1.7,0,0,0-.43-1.22A1.59,1.59,0,0,0,695,185h-1.88Z"/>
          <path class="cls-6" d="M705.49,191.44h-3.6l-.68,2.12H699l3.7-10.26h1.9l3.73,10.26h-2.18Zm-3-1.71h2.49l-1.26-3.84Z"/>
          <path class="cls-6" d="M717.94,190.14a3.68,3.68,0,0,1-1.18,2.61,4.13,4.13,0,0,1-2.82.95,3.67,3.67,0,0,1-3-1.33,5.52,5.52,0,0,1-1.1-3.65v-.62a6.43,6.43,0,0,1,.5-2.61,3.88,3.88,0,0,1,1.45-1.73,4.42,4.42,0,0,1,5,.35,4,4,0,0,1,1.22,2.67h-2.05a2.15,2.15,0,0,0-.54-1.44,2,2,0,0,0-1.41-.45,1.71,1.71,0,0,0-1.53.76,4.35,4.35,0,0,0-.52,2.35v.77a4.6,4.6,0,0,0,.49,2.43,1.67,1.67,0,0,0,1.54.77,1.71,1.71,0,0,0,1.95-1.83Z"/>
          <path class="cls-6" d="M727.61,185h-3.05v8.55h-2V185h-3V183.3h8.11Z"/>
        </g>
        <g>
          <path class="cls-6" d="M679,206.92h-3.94v4.19h-2V200.85h6.48v1.71h-4.43v2.65H679Z"/>
          <path class="cls-6" d="M683.69,211.11h-2.05V200.85h2.05Z"/>
          <path class="cls-6" d="M690.11,207.35h-1.63v3.76h-2.05V200.85h3.7a4.11,4.11,0,0,1,2.72.81,2.85,2.85,0,0,1,.95,2.29,3.18,3.18,0,0,1-.44,1.75,3,3,0,0,1-1.33,1.12l2.15,4.19v.1H692Zm-1.63-1.71h1.65a1.66,1.66,0,0,0,1.2-.41,1.47,1.47,0,0,0,.42-1.11,1.54,1.54,0,0,0-.4-1.14,1.6,1.6,0,0,0-1.22-.42h-1.65Z"/>
          <path class="cls-6" d="M701.36,208.42a1.08,1.08,0,0,0-.41-.92,5.1,5.1,0,0,0-1.47-.68,10.45,10.45,0,0,1-1.69-.7,2.85,2.85,0,0,1-1.7-2.54,2.51,2.51,0,0,1,.46-1.49,3.06,3.06,0,0,1,1.3-1,4.89,4.89,0,0,1,1.91-.36,4.42,4.42,0,0,1,1.9.39,3.13,3.13,0,0,1,1.3,1.13,3,3,0,0,1,.46,1.65h-2a1.4,1.4,0,0,0-.43-1.1,1.74,1.74,0,0,0-1.21-.39,1.85,1.85,0,0,0-1.17.33,1,1,0,0,0-.42.86,1,1,0,0,0,.49.84,5.49,5.49,0,0,0,1.44.64,6.16,6.16,0,0,1,2.55,1.34,2.74,2.74,0,0,1,.8,2,2.5,2.5,0,0,1-1,2.09,4.15,4.15,0,0,1-2.63.76,5,5,0,0,1-2.09-.43,3.36,3.36,0,0,1-1.44-1.19,3.12,3.12,0,0,1-.49-1.75h2.05c0,1.13.66,1.7,2,1.7a1.82,1.82,0,0,0,1.14-.31A1,1,0,0,0,701.36,208.42Z"/>
          <path class="cls-6" d="M713.14,202.56h-3v8.55H708v-8.55h-3v-1.71h8.11Z"/>
          <path class="cls-6" d="M719.07,208.35a2.37,2.37,0,0,1,.39-1.32,5.47,5.47,0,0,1,1.42-1.35,7.09,7.09,0,0,1-.7-1.15,2.58,2.58,0,0,1-.25-1.12,2.54,2.54,0,0,1,2.71-2.7,2.57,2.57,0,0,1,1.83.68,2.26,2.26,0,0,1,.71,1.71,2.72,2.72,0,0,1-1.2,2.16l-.76.57,1.71,2.06a4,4,0,0,0,.4-1.81H727a5.41,5.41,0,0,1-.9,3.25l1.49,1.78h-2.24l-.51-.61a4.41,4.41,0,0,1-2.53.75,3.42,3.42,0,0,1-2.37-.8A2.69,2.69,0,0,1,719.07,208.35Zm3.35,1.26a2.46,2.46,0,0,0,1.35-.41l-2-2.33-.15.1a1.65,1.65,0,0,0-.6,1.26,1.32,1.32,0,0,0,1.36,1.38Zm-.72-6.23a2.46,2.46,0,0,0,.6,1.33l.53-.36a1.85,1.85,0,0,0,.55-.52,1.09,1.09,0,0,0,.16-.61.85.85,0,0,0-.26-.61.86.86,0,0,0-.65-.26.83.83,0,0,0-.67.28A1,1,0,0,0,721.7,203.38Z"/>
        </g>
        <g>
          <path class="cls-6" d="M678.16,226a1.1,1.1,0,0,0-.41-.92,5.64,5.64,0,0,0-1.48-.68,10,10,0,0,1-1.69-.7,2.84,2.84,0,0,1-1.69-2.54,2.57,2.57,0,0,1,.45-1.49,3,3,0,0,1,1.31-1,4.68,4.68,0,0,1,1.91-.37,4.31,4.31,0,0,1,1.9.4,3,3,0,0,1,1.76,2.77h-2.05a1.42,1.42,0,0,0-.44-1.1,1.73,1.73,0,0,0-1.21-.39,1.8,1.8,0,0,0-1.16.33,1,1,0,0,0-.42.86,1,1,0,0,0,.49.84,5.2,5.2,0,0,0,1.44.64,6.29,6.29,0,0,1,2.55,1.34,2.76,2.76,0,0,1,.8,2,2.49,2.49,0,0,1-1,2.08,4.15,4.15,0,0,1-2.63.76,5,5,0,0,1-2.1-.43,3.39,3.39,0,0,1-1.43-1.19,3.1,3.1,0,0,1-.5-1.75h2.06c0,1.14.65,1.7,2,1.7a1.93,1.93,0,0,0,1.14-.3A1,1,0,0,0,678.16,226Z"/>
          <path class="cls-6" d="M690.62,223.76a6.31,6.31,0,0,1-.52,2.66,4.14,4.14,0,0,1-5.91,1.77,4.06,4.06,0,0,1-1.51-1.75,6.35,6.35,0,0,1-.54-2.62v-.51a6.39,6.39,0,0,1,.53-2.67,4.06,4.06,0,0,1,1.5-1.76,4.25,4.25,0,0,1,4.42,0,4,4,0,0,1,1.5,1.76,6.39,6.39,0,0,1,.53,2.67Zm-2.08-.46a4.42,4.42,0,0,0-.56-2.45,1.95,1.95,0,0,0-3.19,0,4.4,4.4,0,0,0-.57,2.43v.5a4.52,4.52,0,0,0,.56,2.44,1.92,1.92,0,0,0,3.2,0,4.36,4.36,0,0,0,.56-2.43Z"/>
          <path class="cls-6" d="M700.76,225.24a3.64,3.64,0,0,1-1.18,2.61,4.13,4.13,0,0,1-2.82,1,3.67,3.67,0,0,1-3-1.33,5.49,5.49,0,0,1-1.1-3.64v-.63a6.43,6.43,0,0,1,.5-2.61,3.88,3.88,0,0,1,1.45-1.73,3.92,3.92,0,0,1,6.18,3h-2a2.17,2.17,0,0,0-.54-1.44,2,2,0,0,0-1.41-.45,1.73,1.73,0,0,0-1.53.76,4.37,4.37,0,0,0-.52,2.35v.78a4.74,4.74,0,0,0,.48,2.43,1.71,1.71,0,0,0,1.55.77,2,2,0,0,0,1.42-.45,2,2,0,0,0,.53-1.39Z"/>
          <path class="cls-6" d="M705.13,228.66h-2V218.4h2Z"/>
          <path class="cls-6" d="M713.49,226.55h-3.6l-.68,2.11H707l3.71-10.26h1.9l3.72,10.26h-2.18Zm-3-1.72h2.49L711.69,221Z"/>
          <path class="cls-6" d="M720.17,227h4.35v1.7h-6.4V218.4h2Z"/>
        </g>
        <g>
          <path class="cls-6" d="M675.18,246.21h-2V236h2Z"/>
          <path class="cls-6" d="M686,246.21h-2l-4-6.75v6.75h-2.05V236H680l4,6.77V236h2Z"/>
          <path class="cls-6" d="M692.32,243.67l2.26-7.72h2.28l-3.47,10.26h-2.14L687.8,236h2.28Z"/>
          <path class="cls-6" d="M704.62,241.77h-3.93v2.74h4.62v1.7h-6.67V236h6.65v1.71h-4.6v2.45h3.93Z"/>
          <path class="cls-6" d="M712.51,243.52a1.08,1.08,0,0,0-.41-.92,5.38,5.38,0,0,0-1.47-.68,9.61,9.61,0,0,1-1.69-.7,2.84,2.84,0,0,1-1.7-2.54,2.45,2.45,0,0,1,.46-1.48,2.92,2.92,0,0,1,1.3-1,4.72,4.72,0,0,1,1.91-.37,4.28,4.28,0,0,1,1.9.4,3,3,0,0,1,1.76,2.77h-2.05a1.38,1.38,0,0,0-.43-1.09,1.74,1.74,0,0,0-1.21-.39,1.85,1.85,0,0,0-1.17.32,1.05,1.05,0,0,0-.42.87,1,1,0,0,0,.49.83,5.49,5.49,0,0,0,1.44.64,6,6,0,0,1,2.55,1.35,2.72,2.72,0,0,1,.8,2,2.52,2.52,0,0,1-1,2.09,4.21,4.21,0,0,1-2.63.75,5,5,0,0,1-2.09-.43,3.29,3.29,0,0,1-1.44-1.19,3.09,3.09,0,0,1-.5-1.74H709c0,1.13.66,1.69,2,1.69a1.89,1.89,0,0,0,1.14-.3A1,1,0,0,0,712.51,243.52Z"/>
          <path class="cls-6" d="M724.29,237.66h-3v8.55h-2v-8.55h-3V236h8.11Z"/>
          <path class="cls-6" d="M729,236l2.56,7.44,2.54-7.44h2.69v10.26h-2.06v-2.8l.21-4.84-2.69,7.64h-1.41l-2.68-7.64.21,4.84v2.8H726.3V236Z"/>
          <path class="cls-6" d="M745.39,241.77h-3.94v2.74h4.62v1.7H739.4V236h6.66v1.71h-4.61v2.45h3.94Z"/>
          <path class="cls-6" d="M756.21,246.21h-2.05l-4-6.75v6.75h-2V236h2l4,6.77V236h2Z"/>
          <path class="cls-6" d="M766.33,237.66h-3v8.55h-2.06v-8.55h-3V236h8.1Z"/>
        </g>
      </g>
      <line id="_1" data-name="1" class="cls-7" x1="659.5" y1="158.8" x2="659.5" y2="453.8"/>
    </g>
    <path class="cls-8" d="M659.5,454.8h0m0-298h0"/>
  </g>
</svg>
