<svg id="Layer_1" data-name="Layer 1" xmlns="http://www.w3.org/2000/svg" xmlns:xlink="http://www.w3.org/1999/xlink" width="806.86" height="688.5" viewBox="0 0 806.86 688.5">
  <defs>
    <style>
      .cls-1, .cls-4, .cls-5 {
        fill: none;
      }

      .cls-2 {
        clip-path: url(#clip-path);
      }

      .cls-3 {
        clip-path: url(#clip-path-2);
      }

      .cls-4 {
        stroke: #10416a;
      }

      .cls-4, .cls-5 {
        stroke-linecap: round;
        stroke-linejoin: round;
      }

      .cls-5 {
        stroke: #ff665e;
      }

      .cls-6 {
        fill: #091b26;
      }

      .cls-7 {
        fill: #fff;
      }
    </style>
    <clipPath id="clip-path">
      <rect class="cls-1" width="806.86" height="688.5"/>
    </clipPath>
    <clipPath id="clip-path-2">
      <rect class="cls-1" width="806.86" height="688.5"/>
    </clipPath>
  </defs>
  <title>6</title>
  <g class="cls-2">
    <g class="cls-3">
      <path class="cls-4" d="M659.5,148.3h0M659.5.5h0"/>
    </g>
    <path class="cls-5" d="M659.5,454.8h0m0-298h0"/>
    <g id="_6" data-name="6">
      <rect class="cls-6" x="175" y="113.45" width="20.75" height="306.64"/>
      <g>
        <path class="cls-7" d="M188.73,393.78a.84.84,0,0,0-.7.31,3.68,3.68,0,0,0-.52,1.09,11.63,11.63,0,0,1-.52,1.27,2.5,2.5,0,0,1-2.24,1.61,2,2,0,0,1-1.25-.4,2.64,2.64,0,0,1-.85-1.14,4.24,4.24,0,0,1-.3-1.64,3.72,3.72,0,0,1,.33-1.6,2.49,2.49,0,0,1,2.32-1.5v2a1.07,1.07,0,0,0-.81.31,1.21,1.21,0,0,0-.29.84,1.3,1.3,0,0,0,.25.85.72.72,0,0,0,1.21,0,4,4,0,0,0,.55-1.19,7.17,7.17,0,0,1,.61-1.42,2.46,2.46,0,0,1,2.2-1.34,2.13,2.13,0,0,1,1.76.82,3.62,3.62,0,0,1,.64,2.25,4.33,4.33,0,0,1-.38,1.82,2.59,2.59,0,0,1-2.51,1.64v-2a1.31,1.31,0,0,0,1-.35,1.55,1.55,0,0,0,.33-1.11,1.23,1.23,0,0,0-.22-.78A.74.74,0,0,0,188.73,393.78Z"/>
        <path class="cls-7" d="M186.91,383.05a5.32,5.32,0,0,1,2.21.45,3.44,3.44,0,0,1,1.48,1.28,3.52,3.52,0,0,1,.52,1.88,3.57,3.57,0,0,1-.5,1.88,3.45,3.45,0,0,1-1.44,1.28,5.14,5.14,0,0,1-2.14.48h-.48a5.16,5.16,0,0,1-2.21-.45,3.37,3.37,0,0,1-1.48-1.28,3.46,3.46,0,0,1-.52-1.89,3.4,3.4,0,0,1,2-3.16,5.11,5.11,0,0,1,2.19-.47Zm-.36,2a3.61,3.61,0,0,0-1.93.42,1.3,1.3,0,0,0-.66,1.18c0,1,.78,1.52,2.32,1.58h.63a3.77,3.77,0,0,0,1.93-.41,1.31,1.31,0,0,0,.67-1.2,1.29,1.29,0,0,0-.66-1.16,3.78,3.78,0,0,0-1.91-.42Z"/>
        <path class="cls-7" d="M188.11,374.63a3.15,3.15,0,0,1,1.57.47,2.79,2.79,0,0,1,1.06,1.19,4,4,0,0,1,.38,1.76,3.2,3.2,0,0,1-1.1,2.57,4.58,4.58,0,0,1-3.09.94h-.42a5.36,5.36,0,0,1-2.2-.42,3.24,3.24,0,0,1-1.45-1.22,3.35,3.35,0,0,1-.51-1.84,3.51,3.51,0,0,1,.81-2.42,3.28,3.28,0,0,1,2.26-1v2a1.52,1.52,0,0,0-1.12.38,1.5,1.5,0,0,0-.34,1.09,1.19,1.19,0,0,0,.57,1.09,3.76,3.76,0,0,0,1.83.36H187a4.21,4.21,0,0,0,1.95-.33,1.21,1.21,0,0,0,.59-1.15,1.54,1.54,0,0,0-.34-1.05,1.41,1.41,0,0,0-1.06-.38Z"/>
        <path class="cls-7" d="M191,370.87v2h-8.53v-2Z"/>
        <path class="cls-7" d="M189.41,364.08v2.73l1.59.48v2.13l-8.53-3v-1.88l8.53-3.06v2.15Zm-1.59,2.26v-1.78l-3,.89Z"/>
        <path class="cls-7" d="M189.42,358.17V354.7H191v5.46h-8.53v-2Z"/>
        <path class="cls-7" d="M188.1,347.57H191v2h-8.53v-3.3a3.74,3.74,0,0,1,.36-1.68,2.61,2.61,0,0,1,1-1.13,2.87,2.87,0,0,1,1.51-.4,2.54,2.54,0,0,1,2,.86,3.52,3.52,0,0,1,.74,2.38Zm-1.58,0v-1.31a1.19,1.19,0,0,0-.3-.88,1.11,1.11,0,0,0-.85-.31,1.39,1.39,0,0,0-1,.31,1.09,1.09,0,0,0-.36.86v1.33Z"/>
        <path class="cls-7" d="M182.47,334.8h5.58a3.33,3.33,0,0,1,1.65.39,2.53,2.53,0,0,1,1.05,1.12,3.78,3.78,0,0,1,.37,1.74,3.37,3.37,0,0,1-.81,2.38,2.93,2.93,0,0,1-2.22.88h-5.62v-2h5.66c.94,0,1.4-.45,1.4-1.26a1.17,1.17,0,0,0-.35-.94,1.67,1.67,0,0,0-1.14-.32h-5.57Z"/>
        <path class="cls-7" d="M188,329.79v1.08h3v2h-8.53v-3.25a3.54,3.54,0,0,1,.67-2.3,2.29,2.29,0,0,1,1.9-.83,2.87,2.87,0,0,1,1.48.34,2.53,2.53,0,0,1,.95,1.1l3.44-1.73H191v2.14Zm-1.58,1.08v-1.26a1.1,1.1,0,0,0-.31-.86,1.21,1.21,0,0,0-.86-.29,1.25,1.25,0,0,0-.87.29,1.12,1.12,0,0,0-.31.86v1.26Z"/>
        <path class="cls-7" d="M188.1,322.58H191v2h-8.53v-3.3a3.77,3.77,0,0,1,.36-1.68,2.67,2.67,0,0,1,1-1.13,2.87,2.87,0,0,1,1.51-.4,2.51,2.51,0,0,1,2,.87,3.49,3.49,0,0,1,.74,2.37Zm-1.58,0v-1.31a1.19,1.19,0,0,0-.3-.88,1.11,1.11,0,0,0-.85-.31,1.45,1.45,0,0,0-1,.31,1.09,1.09,0,0,0-.36.86v1.33Z"/>
        <path class="cls-7" d="M186.91,309.29a5.16,5.16,0,0,1,2.21.45A3.42,3.42,0,0,1,190.6,311a3.72,3.72,0,0,1,0,3.76,3.39,3.39,0,0,1-1.44,1.28,5,5,0,0,1-2.14.48h-.48a5.16,5.16,0,0,1-2.21-.45,3.35,3.35,0,0,1-1.48-1.27,3.5,3.5,0,0,1-.52-1.9,3.4,3.4,0,0,1,2-3.16,5.1,5.1,0,0,1,2.19-.46Zm-.36,2a3.72,3.72,0,0,0-1.93.41,1.32,1.32,0,0,0-.66,1.18c0,1,.78,1.53,2.32,1.59h.63a3.78,3.78,0,0,0,1.93-.4,1.39,1.39,0,0,0,0-2.37,3.69,3.69,0,0,0-1.91-.41Z"/>
        <path class="cls-7" d="M188.73,303.29a.87.87,0,0,0-.7.31,3.81,3.81,0,0,0-.52,1.09A11.9,11.9,0,0,1,187,306a2.48,2.48,0,0,1-2.24,1.6,2,2,0,0,1-1.25-.4,2.55,2.55,0,0,1-.85-1.13,4.33,4.33,0,0,1-.3-1.65,3.75,3.75,0,0,1,.33-1.6,2.58,2.58,0,0,1,.93-1.1,2.53,2.53,0,0,1,1.39-.39v2a1,1,0,0,0-.81.31,1.17,1.17,0,0,0-.29.84,1.29,1.29,0,0,0,.25.84.74.74,0,0,0,.62.31.76.76,0,0,0,.59-.34,4.27,4.27,0,0,0,.55-1.2,7.33,7.33,0,0,1,.61-1.41,2.46,2.46,0,0,1,2.2-1.34,2.1,2.1,0,0,1,1.76.82,3.57,3.57,0,0,1,.64,2.24,4.29,4.29,0,0,1-.38,1.82,2.66,2.66,0,0,1-1,1.23,2.7,2.7,0,0,1-1.5.41v-2a1.31,1.31,0,0,0,1-.34,1.58,1.58,0,0,0,.33-1.12,1.23,1.23,0,0,0-.22-.78A.74.74,0,0,0,188.73,303.29Z"/>
        <path class="cls-7" d="M187.38,294.45v3.13h2v-3.7H191v5.7h-8.53v-5.71h1.59v3.71h1.79v-3.13Z"/>
        <path class="cls-7" d="M186.91,281.76a5.16,5.16,0,0,1,2.21.45,3.37,3.37,0,0,1,1.48,1.28,3.52,3.52,0,0,1,.52,1.88,3.59,3.59,0,0,1-.5,1.88,3.43,3.43,0,0,1-1.44,1.27A4.85,4.85,0,0,1,187,289h-.48a5.31,5.31,0,0,1-2.21-.44,3.44,3.44,0,0,1-1.48-1.28,3.5,3.5,0,0,1-.52-1.9,3.4,3.4,0,0,1,.52-1.87,3.47,3.47,0,0,1,1.46-1.29,5.1,5.1,0,0,1,2.19-.46Zm-.36,2a3.72,3.72,0,0,0-1.93.41,1.32,1.32,0,0,0-.66,1.18c0,1,.78,1.53,2.32,1.59h.63a3.78,3.78,0,0,0,1.93-.4,1.31,1.31,0,0,0,.67-1.2,1.29,1.29,0,0,0-.66-1.16,3.58,3.58,0,0,0-1.91-.42Z"/>
        <path class="cls-7" d="M188,277V278h3v2h-8.53v-3.25a3.54,3.54,0,0,1,.67-2.3,2.29,2.29,0,0,1,1.9-.83,2.77,2.77,0,0,1,1.48.35,2.45,2.45,0,0,1,.95,1.09l3.44-1.73H191v2.14ZM186.4,278v-1.26a1.1,1.1,0,0,0-.31-.86,1.21,1.21,0,0,0-.86-.29,1.25,1.25,0,0,0-.87.29,1.12,1.12,0,0,0-.31.86V278Z"/>
        <path class="cls-7" d="M189.94,265a3,3,0,0,1,.85,1.35,5.49,5.49,0,0,1,.33,1.94,3.44,3.44,0,0,1-1,2.6,4.22,4.22,0,0,1-2.85,1h-.74a5.2,5.2,0,0,1-2.2-.43,3.28,3.28,0,0,1-1.45-1.24,3.36,3.36,0,0,1-.5-1.86,3.62,3.62,0,0,1,.72-2.4,3.18,3.18,0,0,1,2.18-1v1.93a1.59,1.59,0,0,0-1,.44,1.42,1.42,0,0,0-.3,1,1.29,1.29,0,0,0,.65,1.16,3.52,3.52,0,0,0,1.88.42H187a3.5,3.5,0,0,0,1.92-.42,1.49,1.49,0,0,0,.64-1.34,1.64,1.64,0,0,0-.35-1.16h-1.33v1.39h-1.41V265Z"/>
        <path class="cls-7" d="M189.41,258.42v2.73l1.59.48v2.13l-8.53-3v-1.88l8.53-3.06v2.15Zm-1.59,2.26V258.9l-3,.89Z"/>
        <path class="cls-7" d="M191,247.59v2l-5.31,2.93H191v2h-8.53v-2l5.31-2.93h-5.31v-2Z"/>
        <path class="cls-7" d="M191,243.51v2h-8.53v-2Z"/>
        <path class="cls-7" d="M189.42,239.18v-4H191v6.44h-1.08l-5.86-3.94v4h-1.59v-6.43h1.05Z"/>
        <path class="cls-7" d="M189.41,228.93v2.73l1.59.48v2.13l-8.53-3v-1.87L191,226.3v2.14Zm-1.59,2.25V229.4l-3,.9Z"/>
        <path class="cls-7" d="M184.06,219.57v2.49H191v2h-6.94v2.44h-1.59v-6.92Z"/>
        <path class="cls-7" d="M191,215.91v2h-8.53v-2Z"/>
        <path class="cls-7" d="M186.91,206.81a5.16,5.16,0,0,1,2.21.45,3.44,3.44,0,0,1,1.48,1.28,3.52,3.52,0,0,1,.52,1.88,3.57,3.57,0,0,1-.5,1.88,3.45,3.45,0,0,1-1.44,1.28,5.14,5.14,0,0,1-2.14.48h-.48a5.16,5.16,0,0,1-2.21-.45,3.37,3.37,0,0,1-1.48-1.28,3.46,3.46,0,0,1-.52-1.89,3.4,3.4,0,0,1,2-3.16,5.11,5.11,0,0,1,2.19-.47Zm-.36,2a3.61,3.61,0,0,0-1.93.42,1.3,1.3,0,0,0-.66,1.18c0,1,.78,1.52,2.32,1.58h.63a3.77,3.77,0,0,0,1.93-.41,1.31,1.31,0,0,0,.67-1.2,1.29,1.29,0,0,0-.66-1.16,3.78,3.78,0,0,0-1.91-.42Z"/>
        <path class="cls-7" d="M191,198.18v2l-5.31,2.93H191v2h-8.53v-2l5.31-2.92h-5.31v-2Z"/>
        <path class="cls-7" d="M188.73,192a.84.84,0,0,0-.7.31,3.68,3.68,0,0,0-.52,1.09,11.63,11.63,0,0,1-.52,1.27,2.5,2.5,0,0,1-2.24,1.61,2.07,2.07,0,0,1-1.25-.4,2.64,2.64,0,0,1-.85-1.14,4.24,4.24,0,0,1-.3-1.64,3.72,3.72,0,0,1,.33-1.6,2.53,2.53,0,0,1,.93-1.1A2.46,2.46,0,0,1,185,190v2a1.07,1.07,0,0,0-.81.31,1.21,1.21,0,0,0-.29.84,1.3,1.3,0,0,0,.25.85.72.72,0,0,0,1.21,0,4,4,0,0,0,.55-1.2,7.33,7.33,0,0,1,.61-1.41,2.46,2.46,0,0,1,2.2-1.34,2.13,2.13,0,0,1,1.76.82,3.62,3.62,0,0,1,.64,2.25,4.33,4.33,0,0,1-.38,1.82,2.59,2.59,0,0,1-2.51,1.64v-2a1.31,1.31,0,0,0,1-.35,1.57,1.57,0,0,0,.33-1.11,1.23,1.23,0,0,0-.22-.78A.72.72,0,0,0,188.73,192Z"/>
        <path class="cls-7" d="M187.53,184.58a9.1,9.1,0,0,1-2.66-.37,6.68,6.68,0,0,1-2.09-1,3.71,3.71,0,0,1-1.19-1.45l1-.36a3.81,3.81,0,0,0,1.89,1.23,9.3,9.3,0,0,0,3,.44h.26a9.7,9.7,0,0,0,3.06-.43,3.82,3.82,0,0,0,1.89-1.24l1,.36a3.58,3.58,0,0,1-1.2,1.45,6.41,6.41,0,0,1-2.08,1,9.28,9.28,0,0,1-2.57.37Z"/>
        <path class="cls-7" d="M188.73,175.57a.84.84,0,0,0-.7.31,3.81,3.81,0,0,0-.52,1.09,11.63,11.63,0,0,1-.52,1.27,2.5,2.5,0,0,1-2.24,1.61,2,2,0,0,1-1.25-.4,2.67,2.67,0,0,1-.85-1.13,4.33,4.33,0,0,1-.3-1.65,3.72,3.72,0,0,1,.33-1.6,2.58,2.58,0,0,1,.93-1.1,2.53,2.53,0,0,1,1.39-.39v2a1.07,1.07,0,0,0-.81.31,1.21,1.21,0,0,0-.29.84,1.3,1.3,0,0,0,.25.85.77.77,0,0,0,.62.31.78.78,0,0,0,.59-.34,4.27,4.27,0,0,0,.55-1.2,6.81,6.81,0,0,1,.61-1.41,2.45,2.45,0,0,1,2.2-1.34,2.12,2.12,0,0,1,1.76.81,3.62,3.62,0,0,1,.64,2.25,4.29,4.29,0,0,1-.38,1.82,2.59,2.59,0,0,1-2.51,1.64v-2a1.31,1.31,0,0,0,1-.34,1.59,1.59,0,0,0,.33-1.12,1.23,1.23,0,0,0-.22-.78A.74.74,0,0,0,188.73,175.57Z"/>
        <path class="cls-7" d="M188.1,169.86H191v2h-8.53v-3.3a3.77,3.77,0,0,1,.36-1.68,2.73,2.73,0,0,1,1-1.13,2.87,2.87,0,0,1,1.51-.4,2.51,2.51,0,0,1,2,.87,3.52,3.52,0,0,1,.74,2.38Zm-1.58,0v-1.31a1.2,1.2,0,0,0-.3-.88,1.15,1.15,0,0,0-.85-.31,1.4,1.4,0,0,0-1,.32,1.07,1.07,0,0,0-.36.85v1.33Z"/>
        <path class="cls-7" d="M186.91,156.57a5.16,5.16,0,0,1,2.21.45,3.44,3.44,0,0,1,1.48,1.28,3.52,3.52,0,0,1,.52,1.88,3.57,3.57,0,0,1-.5,1.88,3.43,3.43,0,0,1-1.44,1.27,4.85,4.85,0,0,1-2.14.48h-.48a5.31,5.31,0,0,1-2.21-.44,3.44,3.44,0,0,1-1.48-1.28,3.5,3.5,0,0,1-.52-1.9,3.4,3.4,0,0,1,2-3.15,5.11,5.11,0,0,1,2.19-.47Zm-.36,2a3.72,3.72,0,0,0-1.93.41,1.32,1.32,0,0,0-.66,1.18c0,1,.78,1.53,2.32,1.59h.63a3.78,3.78,0,0,0,1.93-.4,1.31,1.31,0,0,0,.67-1.2,1.29,1.29,0,0,0-.66-1.16,3.58,3.58,0,0,0-1.91-.42Z"/>
        <path class="cls-7" d="M185.14,154.25l-.47.84a3.53,3.53,0,0,0-1.65-.48h-1v-1.4H183a2.56,2.56,0,0,1,1.17.31A3.6,3.6,0,0,1,185.14,154.25Z"/>
        <path class="cls-7" d="M188.73,147.05a.87.87,0,0,0-.7.31,3.81,3.81,0,0,0-.52,1.09,10.85,10.85,0,0,1-.52,1.27,2.48,2.48,0,0,1-2.24,1.61,2,2,0,0,1-1.25-.4,2.55,2.55,0,0,1-.85-1.13,4.33,4.33,0,0,1-.3-1.65,3.75,3.75,0,0,1,.33-1.6,2.58,2.58,0,0,1,.93-1.1,2.53,2.53,0,0,1,1.39-.39v2a1,1,0,0,0-.81.31,1.17,1.17,0,0,0-.29.84,1.29,1.29,0,0,0,.25.84.74.74,0,0,0,.62.31.76.76,0,0,0,.59-.34,4.27,4.27,0,0,0,.55-1.2,7.33,7.33,0,0,1,.61-1.41,2.46,2.46,0,0,1,2.2-1.34,2.1,2.1,0,0,1,1.76.82,3.57,3.57,0,0,1,.64,2.24,4.29,4.29,0,0,1-.38,1.82,2.66,2.66,0,0,1-1,1.23,2.7,2.7,0,0,1-1.5.41v-2a1.31,1.31,0,0,0,1-.34,1.58,1.58,0,0,0,.33-1.12,1.23,1.23,0,0,0-.22-.78A.74.74,0,0,0,188.73,147.05Z"/>
        <path class="cls-7" d="M187.69,140.4a8.7,8.7,0,0,1,2.62.4,6.72,6.72,0,0,1,2.12,1.08,3.67,3.67,0,0,1,1.21,1.49l-1,.36a3.89,3.89,0,0,0-1.87-1.22,9.56,9.56,0,0,0-2.91-.45h-.36a9.6,9.6,0,0,0-3.06.44,3.84,3.84,0,0,0-1.9,1.23l-1-.36a3.66,3.66,0,0,1,1.19-1.48,6.56,6.56,0,0,1,2.09-1.08,8.75,8.75,0,0,1,2.57-.41Z"/>
      </g>
    </g>
  </g>
</svg>
