<svg id="Layer_1" data-name="Layer 1" xmlns="http://www.w3.org/2000/svg" xmlns:xlink="http://www.w3.org/1999/xlink" width="806.86" height="688.5" viewBox="0 0 806.86 688.5">
  <defs>
    <style>
      .cls-1, .cls-4, .cls-5, .cls-9 {
        fill: none;
      }

      .cls-2 {
        clip-path: url(#clip-path);
      }

      .cls-3 {
        clip-path: url(#clip-path-2);
      }

      .cls-4 {
        stroke: #10416a;
      }

      .cls-4, .cls-5, .cls-9 {
        stroke-linecap: round;
        stroke-linejoin: round;
      }

      .cls-5, .cls-9 {
        stroke: #ff665e;
      }

      .cls-6 {
        fill: #eda23e;
      }

      .cls-7 {
        fill: #f6bf63;
      }

      .cls-8 {
        fill: #fff;
      }

      .cls-9 {
        stroke-dasharray: 0 2.01;
      }
    </style>
    <clipPath id="clip-path">
      <rect class="cls-1" width="806.86" height="688.5"/>
    </clipPath>
    <clipPath id="clip-path-2">
      <rect class="cls-1" width="806.86" height="688.5"/>
    </clipPath>
  </defs>
  <title>7</title>
  <g class="cls-2">
    <g class="cls-3">
      <path class="cls-4" d="M659.5,148.3h0M659.5.5h0"/>
    </g>
    <path class="cls-5" d="M659.5,454.8h0m0-298h0"/>
    <g id="_7" data-name="7">
      <g id="_7-2" data-name="7">
        <polygon class="cls-6" points="314.43 471.69 314.43 424.61 380.61 463.41 380.61 534.2 314.43 471.69"/>
        <rect class="cls-7" x="380.61" y="463.41" width="271.63" height="70.79"/>
        <rect class="cls-7" x="200.15" y="424.37" width="114.28" height="151.18"/>
        <rect class="cls-7" x="380.61" y="540.56" width="271.63" height="70.79"/>
        <polygon class="cls-6" points="314.43 522.99 314.43 475.92 380.61 540.56 380.61 611.35 314.43 522.99"/>
        <rect class="cls-7" x="380.61" y="617.71" width="271.63" height="70.79"/>
        <polygon class="cls-6" points="314.43 575.55 380.61 688.5 380.61 617.71 314.43 527.22 314.43 575.55"/>
        <g>
          <g>
            <path class="cls-8" d="M467,567.67a3.59,3.59,0,0,1-1.17,2.48,4,4,0,0,1-2.73.9,3.83,3.83,0,0,1-2.09-.57,3.65,3.65,0,0,1-1.4-1.6,5.85,5.85,0,0,1-.52-2.41v-.93a5.84,5.84,0,0,1,.5-2.48A3.78,3.78,0,0,1,461,561.4a4,4,0,0,1,2.15-.58,3.89,3.89,0,0,1,2.66.89,3.74,3.74,0,0,1,1.16,2.53h-1.72a2.48,2.48,0,0,0-.62-1.55,2.08,2.08,0,0,0-1.48-.48,2,2,0,0,0-1.73.83,4.16,4.16,0,0,0-.62,2.42v.88a4.3,4.3,0,0,0,.58,2.46,1.9,1.9,0,0,0,1.69.85,2.2,2.2,0,0,0,1.53-.46,2.37,2.37,0,0,0,.65-1.52Z"/>
            <path class="cls-8" d="M468.17,567.14a4.3,4.3,0,0,1,.43-1.95,3,3,0,0,1,1.21-1.34,3.32,3.32,0,0,1,1.79-.47,3.23,3.23,0,0,1,2.43,1,3.81,3.81,0,0,1,1,2.56v.39a4.37,4.37,0,0,1-.42,2,3.13,3.13,0,0,1-1.2,1.34,3.46,3.46,0,0,1-1.81.47,3.18,3.18,0,0,1-2.5-1,4,4,0,0,1-.94-2.77Zm1.66.15a3,3,0,0,0,.47,1.78,1.64,1.64,0,0,0,2.62,0,3.27,3.27,0,0,0,.47-1.92,2.93,2.93,0,0,0-.48-1.77,1.62,1.62,0,0,0-2.6,0A3.21,3.21,0,0,0,469.83,567.29Z"/>
            <path class="cls-8" d="M478.14,563.51l0,.78a2.67,2.67,0,0,1,2.14-.91,2,2,0,0,1,2,1.13,2.61,2.61,0,0,1,2.27-1.13,2.31,2.31,0,0,1,1.82.67,3,3,0,0,1,.61,2v4.86h-1.66V566.1a1.43,1.43,0,0,0-.31-1,1.33,1.33,0,0,0-1-.33,1.39,1.39,0,0,0-.92.3,1.63,1.63,0,0,0-.51.8v5.07H481V566a1.18,1.18,0,0,0-1.33-1.3,1.47,1.47,0,0,0-1.42.81v5.36h-1.66v-7.4Z"/>
            <path class="cls-8" d="M495.37,567.29a4.43,4.43,0,0,1-.78,2.74,2.49,2.49,0,0,1-2.09,1,2.53,2.53,0,0,1-1.95-.8v3.5h-1.66V563.51h1.53l.07.76a2.42,2.42,0,0,1,2-.89,2.52,2.52,0,0,1,2.12,1,4.5,4.5,0,0,1,.77,2.8Zm-1.65-.15a3.1,3.1,0,0,0-.44-1.75,1.43,1.43,0,0,0-1.26-.65,1.54,1.54,0,0,0-1.47.84v3.28a1.56,1.56,0,0,0,1.48.86,1.42,1.42,0,0,0,1.24-.64A3.37,3.37,0,0,0,493.72,567.14Z"/>
            <path class="cls-8" d="M501.32,570.91a2.89,2.89,0,0,1-.19-.69,2.59,2.59,0,0,1-1.94.83,2.64,2.64,0,0,1-1.82-.64,2,2,0,0,1-.7-1.57,2.11,2.11,0,0,1,.88-1.82,4.25,4.25,0,0,1,2.51-.63h1v-.48a1.3,1.3,0,0,0-.32-.92,1.29,1.29,0,0,0-1-.35,1.46,1.46,0,0,0-.93.29.86.86,0,0,0-.36.72h-1.66a1.82,1.82,0,0,1,.4-1.14,2.68,2.68,0,0,1,1.1-.83,3.85,3.85,0,0,1,1.54-.3A3.1,3.1,0,0,1,502,564a2.33,2.33,0,0,1,.79,1.84v3.33a3.68,3.68,0,0,0,.28,1.59v.12Zm-1.82-1.2a1.83,1.83,0,0,0,.92-.24,1.57,1.57,0,0,0,.66-.64v-1.39h-.9a2.42,2.42,0,0,0-1.39.32,1,1,0,0,0-.46.91,1,1,0,0,0,.32.76A1.21,1.21,0,0,0,499.5,569.71Z"/>
            <path class="cls-8" d="M506.15,563.51l0,.86a2.68,2.68,0,0,1,2.16-1c1.54,0,2.32.88,2.35,2.64v4.89H509v-4.79a1.47,1.47,0,0,0-.31-1,1.25,1.25,0,0,0-1-.34,1.6,1.6,0,0,0-1.5.91v5.26h-1.66v-7.4Z"/>
            <path class="cls-8" d="M515.12,568.53l1.5-5h1.77L515.45,572a2.38,2.38,0,0,1-2.29,1.87,2.72,2.72,0,0,1-.8-.13v-1.29l.31,0a1.57,1.57,0,0,0,1-.23,1.47,1.47,0,0,0,.5-.76l.24-.64-2.6-7.36h1.79Z"/>
            <path class="cls-8" d="M527.5,570.91a2.89,2.89,0,0,1-.19-.69,2.59,2.59,0,0,1-1.94.83,2.64,2.64,0,0,1-1.82-.64,2,2,0,0,1-.7-1.57,2.11,2.11,0,0,1,.88-1.82,4.25,4.25,0,0,1,2.51-.63h1v-.48a1.3,1.3,0,0,0-.32-.92,1.29,1.29,0,0,0-1-.35,1.46,1.46,0,0,0-.93.29.86.86,0,0,0-.36.72H523a1.82,1.82,0,0,1,.4-1.14,2.68,2.68,0,0,1,1.1-.83,3.85,3.85,0,0,1,1.54-.3,3.1,3.1,0,0,1,2.08.65,2.33,2.33,0,0,1,.79,1.84v3.33a3.68,3.68,0,0,0,.28,1.59v.12Zm-1.82-1.2a1.83,1.83,0,0,0,.92-.24,1.57,1.57,0,0,0,.66-.64v-1.39h-.9a2.42,2.42,0,0,0-1.39.32,1.06,1.06,0,0,0-.46.91,1,1,0,0,0,.32.76A1.21,1.21,0,0,0,525.68,569.71Z"/>
            <path class="cls-8" d="M532.55,570.91h-1.66v-10.5h1.66Z"/>
            <path class="cls-8" d="M536.25,570.91h-1.66v-10.5h1.66Z"/>
            <path class="cls-8" d="M537.88,567.14a4.3,4.3,0,0,1,.43-1.95,3,3,0,0,1,1.21-1.34,3.32,3.32,0,0,1,1.79-.47,3.23,3.23,0,0,1,2.43,1,3.81,3.81,0,0,1,1,2.56v.39a4.37,4.37,0,0,1-.42,2,3.13,3.13,0,0,1-1.2,1.34,3.49,3.49,0,0,1-1.81.47,3.18,3.18,0,0,1-2.5-1,4,4,0,0,1-.94-2.77Zm1.66.15a2.92,2.92,0,0,0,.47,1.78,1.64,1.64,0,0,0,2.62,0,3.27,3.27,0,0,0,.47-1.92,2.93,2.93,0,0,0-.48-1.77,1.55,1.55,0,0,0-1.31-.66,1.52,1.52,0,0,0-1.29.65A3.21,3.21,0,0,0,539.54,567.29Z"/>
            <path class="cls-8" d="M549.32,569.72a1.49,1.49,0,0,0,1-.36,1.22,1.22,0,0,0,.44-.9h1.57a2.45,2.45,0,0,1-.43,1.29,2.83,2.83,0,0,1-1.1,1,3.27,3.27,0,0,1-1.49.35,3.17,3.17,0,0,1-2.46-1,4,4,0,0,1-.91-2.77v-.17a3.9,3.9,0,0,1,.91-2.71,3.11,3.11,0,0,1,2.46-1,3,3,0,0,1,2.15.77,2.76,2.76,0,0,1,.87,2h-1.57a1.52,1.52,0,0,0-.43-1,1.42,1.42,0,0,0-1-.41,1.45,1.45,0,0,0-1.24.58,3.06,3.06,0,0,0-.45,1.78v.26a3,3,0,0,0,.44,1.8A1.47,1.47,0,0,0,549.32,569.72Z"/>
            <path class="cls-8" d="M558.16,570.91a2.17,2.17,0,0,1-.19-.69,2.78,2.78,0,0,1-3.76.19,2,2,0,0,1-.71-1.57,2.11,2.11,0,0,1,.88-1.82,4.27,4.27,0,0,1,2.51-.63h1v-.48a1.3,1.3,0,0,0-.32-.92,1.27,1.27,0,0,0-1-.35,1.46,1.46,0,0,0-.93.29.86.86,0,0,0-.36.72h-1.66a1.82,1.82,0,0,1,.4-1.14,2.74,2.74,0,0,1,1.1-.83,3.86,3.86,0,0,1,1.55-.3,3.09,3.09,0,0,1,2.07.65,2.33,2.33,0,0,1,.79,1.84v3.33a3.84,3.84,0,0,0,.28,1.59v.12Zm-1.83-1.2a1.9,1.9,0,0,0,.93-.24,1.49,1.49,0,0,0,.65-.64v-1.39H557a2.4,2.4,0,0,0-1.39.32,1,1,0,0,0-.47.91,1,1,0,0,0,.32.76A1.23,1.23,0,0,0,556.33,569.71Z"/>
            <path class="cls-8" d="M563.52,561.72v1.79h1.31v1.23h-1.31v4.13a.89.89,0,0,0,.17.61.76.76,0,0,0,.6.19,2.36,2.36,0,0,0,.58-.07v1.29a4.37,4.37,0,0,1-1.1.16c-1.27,0-1.91-.71-1.91-2.12v-4.19h-1.22v-1.23h1.22v-1.79Z"/>
            <path class="cls-8" d="M566.22,561.59a.85.85,0,0,1,.25-.63.9.9,0,0,1,.69-.26.94.94,0,0,1,.7.26.95.95,0,0,1,0,1.26,1,1,0,0,1-.7.25.94.94,0,0,1-.69-.25A.85.85,0,0,1,566.22,561.59Zm1.77,9.32h-1.66v-7.4H568Z"/>
            <path class="cls-8" d="M571.46,563.51l0,.86a2.66,2.66,0,0,1,2.15-1c1.54,0,2.33.88,2.35,2.64v4.89h-1.66v-4.79a1.52,1.52,0,0,0-.3-1,1.27,1.27,0,0,0-1-.34,1.59,1.59,0,0,0-1.49.91v5.26H569.9v-7.4Z"/>
            <path class="cls-8" d="M577.56,567.16a4.31,4.31,0,0,1,.81-2.75,2.58,2.58,0,0,1,2.15-1,2.41,2.41,0,0,1,2,.88l.08-.75h1.5v7.17a3,3,0,0,1-.91,2.3,3.44,3.44,0,0,1-2.44.84,3.89,3.89,0,0,1-1.59-.34,2.8,2.8,0,0,1-1.18-.88l.79-1a2.35,2.35,0,0,0,1.88.91,1.84,1.84,0,0,0,1.31-.45,1.7,1.7,0,0,0,.48-1.31v-.5a2.47,2.47,0,0,1-1.92.8,2.6,2.6,0,0,1-2.12-1A4.44,4.44,0,0,1,577.56,567.16Zm1.65.14a2.91,2.91,0,0,0,.46,1.75,1.45,1.45,0,0,0,1.26.64,1.59,1.59,0,0,0,1.49-.86v-3.25a1.59,1.59,0,0,0-1.48-.84,1.44,1.44,0,0,0-1.27.65A3.26,3.26,0,0,0,579.21,567.3Z"/>
            <path class="cls-8" d="M463,584.09a4.43,4.43,0,0,1-.78,2.74,2.5,2.5,0,0,1-2.09,1,2.53,2.53,0,0,1-1.95-.8v3.5h-1.66V580.31h1.53l.07.76a2.42,2.42,0,0,1,2-.89,2.52,2.52,0,0,1,2.12,1A4.56,4.56,0,0,1,463,584Zm-1.66-.15a3,3,0,0,0-.44-1.75,1.41,1.41,0,0,0-1.26-.65,1.53,1.53,0,0,0-1.46.84v3.28a1.55,1.55,0,0,0,1.48.86,1.43,1.43,0,0,0,1.24-.64A3.37,3.37,0,0,0,461.34,583.94Z"/>
            <path class="cls-8" d="M467.79,587.85a3.43,3.43,0,0,1-2.56-1,3.57,3.57,0,0,1-1-2.65V584a4.5,4.5,0,0,1,.42-2,3.38,3.38,0,0,1,1.2-1.36,3.22,3.22,0,0,1,1.73-.48,2.91,2.91,0,0,1,2.33,1,4.07,4.07,0,0,1,.82,2.73v.67h-4.83a2.22,2.22,0,0,0,.61,1.45,1.86,1.86,0,0,0,1.35.53,2.27,2.27,0,0,0,1.86-.92l.9.85a3,3,0,0,1-1.19,1A3.75,3.75,0,0,1,467.79,587.85Zm-.2-6.34a1.4,1.4,0,0,0-1.11.48,2.49,2.49,0,0,0-.53,1.33h3.16v-.12a2,2,0,0,0-.44-1.26A1.37,1.37,0,0,0,467.59,581.51Z"/>
            <path class="cls-8" d="M476,581.83a3.75,3.75,0,0,0-.68-.05,1.51,1.51,0,0,0-1.53.87v5.06h-1.66v-7.4h1.58l0,.83a1.88,1.88,0,0,1,1.67-1,1.66,1.66,0,0,1,.59.09Z"/>
            <path class="cls-8" d="M480.25,586.52a1.53,1.53,0,0,0,1-.36,1.21,1.21,0,0,0,.43-.9h1.57a2.45,2.45,0,0,1-.43,1.29,2.8,2.8,0,0,1-1.09,1,3.33,3.33,0,0,1-1.49.35,3.17,3.17,0,0,1-2.47-1,4,4,0,0,1-.9-2.77v-.17a3.94,3.94,0,0,1,.9-2.71,3.11,3.11,0,0,1,2.46-1,3,3,0,0,1,2.15.77,2.76,2.76,0,0,1,.87,2h-1.57a1.48,1.48,0,0,0-.43-1.05,1.42,1.42,0,0,0-1-.41,1.46,1.46,0,0,0-1.24.58,3,3,0,0,0-.44,1.78v.26a3,3,0,0,0,.43,1.8A1.47,1.47,0,0,0,480.25,586.52Z"/>
            <path class="cls-8" d="M487.93,587.85a3.45,3.45,0,0,1-2.56-1,3.57,3.57,0,0,1-1-2.65V584a4.5,4.5,0,0,1,.42-2,3.38,3.38,0,0,1,1.2-1.36,3.22,3.22,0,0,1,1.73-.48,2.91,2.91,0,0,1,2.33,1,4.07,4.07,0,0,1,.82,2.73v.67h-4.83a2.27,2.27,0,0,0,.61,1.45,1.86,1.86,0,0,0,1.35.53,2.27,2.27,0,0,0,1.86-.92l.9.85a3,3,0,0,1-1.19,1A3.75,3.75,0,0,1,487.93,587.85Zm-.2-6.34a1.42,1.42,0,0,0-1.11.48,2.49,2.49,0,0,0-.53,1.33h3.16v-.12a2,2,0,0,0-.44-1.26A1.37,1.37,0,0,0,487.73,581.51Z"/>
            <path class="cls-8" d="M493.85,580.31l0,.86a2.66,2.66,0,0,1,2.15-1c1.54,0,2.33.88,2.35,2.64v4.89h-1.66v-4.79a1.52,1.52,0,0,0-.3-1,1.27,1.27,0,0,0-1-.34,1.58,1.58,0,0,0-1.49.91v5.26h-1.66v-7.4Z"/>
            <path class="cls-8" d="M502.32,578.52v1.79h1.3v1.23h-1.3v4.13a.89.89,0,0,0,.16.61.77.77,0,0,0,.6.19,2.3,2.3,0,0,0,.58-.07v1.29a4.23,4.23,0,0,1-1.09.16c-1.28,0-1.91-.71-1.91-2.12v-4.19h-1.22v-1.23h1.22v-1.79Z"/>
            <path class="cls-8" d="M509.44,587.71a2.42,2.42,0,0,1-.2-.69,2.57,2.57,0,0,1-1.94.83,2.64,2.64,0,0,1-1.82-.64,2,2,0,0,1-.7-1.57,2.11,2.11,0,0,1,.88-1.82,4.25,4.25,0,0,1,2.51-.63h1v-.48a1.3,1.3,0,0,0-.32-.92,1.29,1.29,0,0,0-1-.35,1.46,1.46,0,0,0-.93.29.86.86,0,0,0-.36.72h-1.66a1.82,1.82,0,0,1,.4-1.14,2.74,2.74,0,0,1,1.1-.83,3.86,3.86,0,0,1,1.55-.3,3.09,3.09,0,0,1,2.07.65,2.33,2.33,0,0,1,.79,1.84V586a3.68,3.68,0,0,0,.28,1.59v.12Zm-1.83-1.2a1.9,1.9,0,0,0,.93-.24,1.54,1.54,0,0,0,.65-.64v-1.39h-.9a2.39,2.39,0,0,0-1.38.32,1,1,0,0,0-.47.91,1,1,0,0,0,.32.76A1.21,1.21,0,0,0,507.61,586.51Z"/>
            <path class="cls-8" d="M512.43,584a4.31,4.31,0,0,1,.81-2.75,2.58,2.58,0,0,1,2.15-1,2.44,2.44,0,0,1,2,.88l.07-.75H519v7.17a3,3,0,0,1-.91,2.3,3.44,3.44,0,0,1-2.44.84,3.89,3.89,0,0,1-1.59-.34,2.8,2.8,0,0,1-1.18-.88l.79-1a2.35,2.35,0,0,0,1.88.91,1.84,1.84,0,0,0,1.31-.45,1.71,1.71,0,0,0,.48-1.31v-.5a2.47,2.47,0,0,1-1.92.8,2.6,2.6,0,0,1-2.12-1A4.44,4.44,0,0,1,512.43,584Zm1.65.14a2.91,2.91,0,0,0,.46,1.75,1.45,1.45,0,0,0,1.26.64,1.59,1.59,0,0,0,1.49-.86v-3.25a1.59,1.59,0,0,0-1.48-.84,1.44,1.44,0,0,0-1.27.65A3.26,3.26,0,0,0,514.08,584.1Z"/>
            <path class="cls-8" d="M524.05,587.85a3.45,3.45,0,0,1-2.56-1,3.61,3.61,0,0,1-1-2.65V584a4.37,4.37,0,0,1,.43-2,3.24,3.24,0,0,1,1.2-1.36,3.16,3.16,0,0,1,1.72-.48,2.9,2.9,0,0,1,2.33,1,4.07,4.07,0,0,1,.83,2.73v.67h-4.84a2.27,2.27,0,0,0,.61,1.45,1.87,1.87,0,0,0,1.36.53,2.23,2.23,0,0,0,1.85-.92l.9.85a3,3,0,0,1-1.19,1A3.72,3.72,0,0,1,524.05,587.85Zm-.2-6.34a1.4,1.4,0,0,0-1.1.48,2.5,2.5,0,0,0-.54,1.33h3.17v-.12a2,2,0,0,0-.45-1.26A1.37,1.37,0,0,0,523.85,581.51Z"/>
            <path class="cls-8" d="M534.12,578.52v1.79h1.31v1.23h-1.31v4.13a.89.89,0,0,0,.17.61.76.76,0,0,0,.6.19,2.3,2.3,0,0,0,.58-.07v1.29a4.29,4.29,0,0,1-1.09.16c-1.28,0-1.92-.71-1.92-2.12v-4.19h-1.21v-1.23h1.21v-1.79Z"/>
            <path class="cls-8" d="M536.51,583.94a4.43,4.43,0,0,1,.43-2,3.1,3.1,0,0,1,1.21-1.34,3.36,3.36,0,0,1,1.8-.47,3.26,3.26,0,0,1,2.43,1,3.8,3.8,0,0,1,1,2.56v.39A4.37,4.37,0,0,1,543,586a3.13,3.13,0,0,1-1.2,1.34,3.49,3.49,0,0,1-1.81.47,3.22,3.22,0,0,1-2.51-1.05,4,4,0,0,1-.94-2.77Zm1.66.15a2.92,2.92,0,0,0,.48,1.78,1.64,1.64,0,0,0,2.62,0,3.27,3.27,0,0,0,.47-1.92,2.86,2.86,0,0,0-.49-1.77,1.52,1.52,0,0,0-1.3-.66,1.54,1.54,0,0,0-1.3.65A3.21,3.21,0,0,0,538.17,584.09Z"/>
            <path class="cls-8" d="M551.57,586.52a1.53,1.53,0,0,0,1-.36,1.25,1.25,0,0,0,.43-.9h1.57a2.45,2.45,0,0,1-.43,1.29,2.83,2.83,0,0,1-1.1,1,3.27,3.27,0,0,1-1.49.35,3.17,3.17,0,0,1-2.46-1,4,4,0,0,1-.91-2.77v-.17a3.9,3.9,0,0,1,.91-2.71,3.11,3.11,0,0,1,2.46-1,3,3,0,0,1,2.15.77,2.76,2.76,0,0,1,.87,2H553a1.52,1.52,0,0,0-.43-1.05,1.42,1.42,0,0,0-1-.41,1.46,1.46,0,0,0-1.24.58,3.06,3.06,0,0,0-.45,1.78v.26a3,3,0,0,0,.44,1.8A1.47,1.47,0,0,0,551.57,586.52Z"/>
            <path class="cls-8" d="M557.63,581.12a2.57,2.57,0,0,1,2-.94q2.37,0,2.4,2.7v4.83h-1.66v-4.77a1.5,1.5,0,0,0-.33-1.09,1.36,1.36,0,0,0-1-.31,1.58,1.58,0,0,0-1.49.89v5.28H556v-10.5h1.67Z"/>
            <path class="cls-8" d="M568.32,587.71a2.48,2.48,0,0,1-.19-.69,2.78,2.78,0,0,1-3.76.19,2,2,0,0,1-.7-1.57,2.12,2.12,0,0,1,.87-1.82,4.3,4.3,0,0,1,2.52-.63h1v-.48a1.17,1.17,0,0,0-1.29-1.27,1.46,1.46,0,0,0-.93.29.84.84,0,0,0-.37.72h-1.66a1.83,1.83,0,0,1,.41-1.14,2.64,2.64,0,0,1,1.09-.83,3.9,3.9,0,0,1,1.55-.3,3.06,3.06,0,0,1,2.07.65,2.34,2.34,0,0,1,.8,1.84V586a3.68,3.68,0,0,0,.28,1.59v.12Zm-1.82-1.2a1.89,1.89,0,0,0,.92-.24,1.49,1.49,0,0,0,.65-.64v-1.39h-.89a2.4,2.4,0,0,0-1.39.32,1,1,0,0,0-.46.91,1,1,0,0,0,.31.76A1.25,1.25,0,0,0,566.5,586.51Z"/>
            <path class="cls-8" d="M575.47,581.83a3.71,3.71,0,0,0-.67-.05,1.52,1.52,0,0,0-1.54.87v5.06H571.6v-7.4h1.58l0,.83a1.89,1.89,0,0,1,1.67-1,1.63,1.63,0,0,1,.59.09Z"/>
            <path class="cls-8" d="M576.65,578.39a.85.85,0,0,1,.25-.63.9.9,0,0,1,.69-.26.94.94,0,0,1,.7.26.95.95,0,0,1,0,1.26,1,1,0,0,1-.7.25.94.94,0,0,1-.69-.25A.85.85,0,0,1,576.65,578.39Zm1.77,9.32h-1.67v-7.4h1.67Z"/>
            <path class="cls-8" d="M582.43,578.52v1.79h1.31v1.23h-1.31v4.13a.89.89,0,0,0,.17.61.76.76,0,0,0,.6.19,2.36,2.36,0,0,0,.58-.07v1.29a4.3,4.3,0,0,1-1.1.16c-1.27,0-1.91-.71-1.91-2.12v-4.19h-1.22v-1.23h1.22v-1.79Z"/>
            <path class="cls-8" d="M587.72,585.33l1.5-5H591l-2.94,8.52a2.38,2.38,0,0,1-2.29,1.87,2.72,2.72,0,0,1-.8-.13v-1.29l.31,0a1.57,1.57,0,0,0,1-.23,1.47,1.47,0,0,0,.5-.76l.24-.64-2.6-7.36h1.79Z"/>
          </g>
          <g>
            <path class="cls-8" d="M236.25,481.51a.87.87,0,0,0-.31-.7,3.81,3.81,0,0,0-1.09-.52,9.92,9.92,0,0,1-1.27-.52,2.47,2.47,0,0,1-1.61-2.24,2,2,0,0,1,.4-1.25,2.59,2.59,0,0,1,1.13-.84,4.15,4.15,0,0,1,1.65-.31,3.72,3.72,0,0,1,1.6.33,2.54,2.54,0,0,1,1.1.94,2.48,2.48,0,0,1,.39,1.38h-2a1,1,0,0,0-.31-.81,1.17,1.17,0,0,0-.84-.28,1.35,1.35,0,0,0-.84.24.73.73,0,0,0,0,1.21,4.27,4.27,0,0,0,1.2.55,7.29,7.29,0,0,1,1.41.62,2.43,2.43,0,0,1,1.34,2.19,2.1,2.1,0,0,1-.82,1.76,3.51,3.51,0,0,1-2.24.64,4.29,4.29,0,0,1-1.82-.37,2.74,2.74,0,0,1-1.23-1,2.67,2.67,0,0,1-.41-1.49h2a1.34,1.34,0,0,0,.34,1,1.63,1.63,0,0,0,1.12.32,1.23,1.23,0,0,0,.78-.22A.73.73,0,0,0,236.25,481.51Z"/>
            <path class="cls-8" d="M246.05,479.69a5.16,5.16,0,0,1-.45,2.21,3.36,3.36,0,0,1-1.27,1.48,3.44,3.44,0,0,1-1.89.52,3.53,3.53,0,0,1-1.87-.5,3.43,3.43,0,0,1-1.28-1.43,5.22,5.22,0,0,1-.48-2.14v-.48a5.18,5.18,0,0,1,.45-2.22,3.35,3.35,0,0,1,1.28-1.47,3.45,3.45,0,0,1,1.89-.53,3.52,3.52,0,0,1,1.88.52,3.42,3.42,0,0,1,1.28,1.47,5,5,0,0,1,.46,2.18Zm-2-.36a3.65,3.65,0,0,0-.41-1.93,1.3,1.3,0,0,0-1.18-.65c-1,0-1.53.77-1.58,2.32v.62a3.88,3.88,0,0,0,.4,1.93,1.31,1.31,0,0,0,1.2.67,1.29,1.29,0,0,0,1.17-.66,3.65,3.65,0,0,0,.41-1.9Z"/>
            <path class="cls-8" d="M253.56,480.89a3.29,3.29,0,0,1-.47,1.58,2.8,2.8,0,0,1-1.2,1,4,4,0,0,1-1.76.38,3.23,3.23,0,0,1-2.57-1.1,4.64,4.64,0,0,1-.93-3.09v-.42a5.36,5.36,0,0,1,.42-2.2,3.29,3.29,0,0,1,1.22-1.45,3.32,3.32,0,0,1,1.84-.51,3.46,3.46,0,0,1,2.42.82,3.23,3.23,0,0,1,1,2.25h-2a1.54,1.54,0,0,0-.38-1.12,1.52,1.52,0,0,0-1.09-.34,1.18,1.18,0,0,0-1.09.57,3.84,3.84,0,0,0-.36,1.84v.6a4.21,4.21,0,0,0,.33,1.95,1.2,1.2,0,0,0,1.14.59,1.5,1.5,0,0,0,1.06-.34,1.41,1.41,0,0,0,.38-1.06Z"/>
            <path class="cls-8" d="M256.39,483.78h-2v-8.53h2Z"/>
            <path class="cls-8" d="M262.26,482.19h-2.74l-.47,1.59h-2.14l3-8.53h1.88l3.05,8.53h-2.14ZM260,480.6h1.78l-.89-3Z"/>
            <path class="cls-8" d="M267.25,482.2h3.47v1.58h-5.47v-8.53h2Z"/>
            <path class="cls-8" d="M273.34,482.2h3.47v1.58h-5.47v-8.53h2Z"/>
            <path class="cls-8" d="M279.17,479l1.52-3.7h2.15l-2.66,5.47v3.06h-2v-3.06l-2.66-5.47h2.15Z"/>
          </g>
          <g>
            <path class="cls-8" d="M226.75,489.83h-2.48v6.95h-2v-6.95h-2.44v-1.58h6.91Z"/>
            <path class="cls-8" d="M230.45,493.76h-1.08v3h-2v-8.53h3.26a3.54,3.54,0,0,1,2.3.67,2.29,2.29,0,0,1,.83,1.9,2.77,2.77,0,0,1-.35,1.48,2.57,2.57,0,0,1-1.09.95l1.73,3.44v.09h-2.14Zm-1.08-1.58h1.26a1.12,1.12,0,0,0,.86-.31,1.46,1.46,0,0,0,0-1.73,1.08,1.08,0,0,0-.85-.31h-1.26Z"/>
            <path class="cls-8" d="M239.44,495.18H236.7l-.48,1.6h-2.13l3-8.53H239l3.06,8.53h-2.14Zm-2.26-1.58H239l-.9-3Z"/>
            <path class="cls-8" d="M242.44,496.78v-8.53h2.67a3.83,3.83,0,0,1,2,.51,3.55,3.55,0,0,1,1.37,1.45,4.5,4.5,0,0,1,.49,2.09v.39a4.45,4.45,0,0,1-.48,2.1,3.59,3.59,0,0,1-1.35,1.46,3.8,3.8,0,0,1-2,.53Zm2-6.95v5.37h.69a1.54,1.54,0,0,0,1.32-.63,3.16,3.16,0,0,0,.46-1.88v-.36a3.13,3.13,0,0,0-.46-1.87,1.57,1.57,0,0,0-1.34-.63Z"/>
            <path class="cls-8" d="M251.87,496.78h-2v-8.53h2Z"/>
            <path class="cls-8" d="M259.53,489.83h-2.48v6.95h-2v-6.95h-2.43v-1.58h6.91Z"/>
            <path class="cls-8" d="M262.28,496.78h-2v-8.53h2Z"/>
            <path class="cls-8" d="M270.45,492.69a5.16,5.16,0,0,1-.45,2.21,3.42,3.42,0,0,1-1.27,1.48,3.53,3.53,0,0,1-1.89.52,3.45,3.45,0,0,1-1.87-.51,3.37,3.37,0,0,1-1.28-1.43,5.14,5.14,0,0,1-.48-2.14v-.48a5.16,5.16,0,0,1,.45-2.21,3.37,3.37,0,0,1,1.28-1.48,3.5,3.5,0,0,1,5.05,1.46,5.1,5.1,0,0,1,.46,2.19Zm-2-.36a3.62,3.62,0,0,0-.41-1.93,1.31,1.31,0,0,0-1.18-.66c-1,0-1.53.77-1.58,2.32v.63a3.91,3.91,0,0,0,.4,1.93,1.31,1.31,0,0,0,1.2.67,1.29,1.29,0,0,0,1.17-.66,3.69,3.69,0,0,0,.41-1.91Z"/>
            <path class="cls-8" d="M278.17,496.78h-2l-2.94-5.31v5.31h-2v-8.53h2l2.93,5.31v-5.31h2Z"/>
            <path class="cls-8" d="M283.91,495.18h-2.73l-.48,1.6h-2.13l3-8.53h1.88l3.06,8.53H284.4Zm-2.25-1.58h1.78l-.9-3Z"/>
            <path class="cls-8" d="M288.9,495.2h3.48v1.58h-5.47v-8.53h2Z"/>
          </g>
          <g>
            <path class="cls-8" d="M231.32,509.77v-8.53h3a4.07,4.07,0,0,1,2.43.61,2.27,2.27,0,0,1,.53,2.88,1.71,1.71,0,0,1-.86.69,1.75,1.75,0,0,1,1,.66,2,2,0,0,1,.35,1.17,2.3,2.3,0,0,1-.77,1.88,3.57,3.57,0,0,1-2.29.64Zm2-5h1a1.4,1.4,0,0,0,.93-.25.86.86,0,0,0,.28-.71.94.94,0,0,0-.3-.78,1.56,1.56,0,0,0-1-.23h-1Zm0,1.35v2h1.31a1.23,1.23,0,0,0,.83-.25.92.92,0,0,0,.29-.72.93.93,0,0,0-1-1.07Z"/>
            <path class="cls-8" d="M245.08,501.24v5.59a3.29,3.29,0,0,1-.39,1.64,2.58,2.58,0,0,1-1.13,1.06,3.84,3.84,0,0,1-1.73.36,3.35,3.35,0,0,1-2.38-.81,2.91,2.91,0,0,1-.89-2.21v-5.63h2v5.67c0,.93.44,1.4,1.26,1.4a1.22,1.22,0,0,0,.94-.35,1.71,1.71,0,0,0,.32-1.14v-5.58Z"/>
            <path class="cls-8" d="M250.37,507.51a.86.86,0,0,0-.31-.71,4,4,0,0,0-1.08-.52,10.14,10.14,0,0,1-1.28-.52,2.48,2.48,0,0,1-1.61-2.24,2.09,2.09,0,0,1,.4-1.25,2.62,2.62,0,0,1,1.14-.84,4.33,4.33,0,0,1,1.65-.3,3.94,3.94,0,0,1,1.6.32,2.59,2.59,0,0,1,1.1.94,2.48,2.48,0,0,1,.39,1.38h-2a1,1,0,0,0-.31-.8,1.16,1.16,0,0,0-.84-.29,1.33,1.33,0,0,0-.84.24.74.74,0,0,0-.31.62.73.73,0,0,0,.34.59,4.23,4.23,0,0,0,1.2.56,7.33,7.33,0,0,1,1.41.61,2.45,2.45,0,0,1,1.34,2.2,2.08,2.08,0,0,1-.82,1.75,3.53,3.53,0,0,1-2.24.64,4.34,4.34,0,0,1-1.83-.37,2.76,2.76,0,0,1-1.22-1,2.68,2.68,0,0,1-.42-1.49h2a1.33,1.33,0,0,0,.35,1,1.58,1.58,0,0,0,1.12.32,1.25,1.25,0,0,0,.78-.22A.72.72,0,0,0,250.37,507.51Z"/>
            <path class="cls-8" d="M255.3,509.77h-2v-8.53h2Z"/>
            <path class="cls-8" d="M263.37,509.77h-2l-2.93-5.3v5.3h-2v-8.53h2l2.92,5.31v-5.31h2Z"/>
            <path class="cls-8" d="M269.55,506.15h-3.14v2h3.7v1.58h-5.7v-8.53h5.72v1.59h-3.72v1.8h3.14Z"/>
            <path class="cls-8" d="M275,507.51a.86.86,0,0,0-.31-.71,3.85,3.85,0,0,0-1.08-.52,10.14,10.14,0,0,1-1.28-.52,2.48,2.48,0,0,1-1.61-2.24,2,2,0,0,1,.41-1.25,2.53,2.53,0,0,1,1.13-.84,4.33,4.33,0,0,1,1.65-.3,3.91,3.91,0,0,1,1.6.32,2.54,2.54,0,0,1,1.1.94,2.48,2.48,0,0,1,.39,1.38h-2a1,1,0,0,0-.31-.8,1.16,1.16,0,0,0-.84-.29,1.33,1.33,0,0,0-.84.24.74.74,0,0,0-.31.62.73.73,0,0,0,.34.59,4.23,4.23,0,0,0,1.2.56,7.33,7.33,0,0,1,1.41.61,2.45,2.45,0,0,1,1.34,2.2,2.08,2.08,0,0,1-.82,1.75,3.53,3.53,0,0,1-2.24.64,4.34,4.34,0,0,1-1.83-.37,2.76,2.76,0,0,1-1.22-1,2.68,2.68,0,0,1-.42-1.49h2a1.33,1.33,0,0,0,.35,1,1.58,1.58,0,0,0,1.12.32,1.23,1.23,0,0,0,.78-.22A.72.72,0,0,0,275,507.51Z"/>
            <path class="cls-8" d="M282,507.51a.86.86,0,0,0-.31-.71,4.1,4.1,0,0,0-1.09-.52,9.92,9.92,0,0,1-1.27-.52,2.48,2.48,0,0,1-1.61-2.24,2,2,0,0,1,.4-1.25,2.65,2.65,0,0,1,1.13-.84,4.33,4.33,0,0,1,1.65-.3,3.87,3.87,0,0,1,1.6.32,2.54,2.54,0,0,1,1.1.94,2.48,2.48,0,0,1,.39,1.38h-2a1,1,0,0,0-.31-.8,1.12,1.12,0,0,0-.83-.29,1.36,1.36,0,0,0-.85.24.77.77,0,0,0-.31.62.75.75,0,0,0,.34.59,4.23,4.23,0,0,0,1.2.56,6.81,6.81,0,0,1,1.41.61,2.43,2.43,0,0,1,1.34,2.2,2.1,2.1,0,0,1-.81,1.75,3.56,3.56,0,0,1-2.25.64,4.29,4.29,0,0,1-1.82-.37,2.79,2.79,0,0,1-1.23-1,2.75,2.75,0,0,1-.41-1.49h2a1.33,1.33,0,0,0,.34,1,1.6,1.6,0,0,0,1.12.32,1.23,1.23,0,0,0,.78-.22A.72.72,0,0,0,282,507.51Z"/>
          </g>
          <g>
            <path class="cls-8" d="M463.34,646.11l2.87,7.63,2.86-7.63h2.24v10h-1.72v-3.28l.17-4.39-2.94,7.67h-1.24l-2.93-7.67.17,4.39v3.28H461.1v-10Z"/>
            <path class="cls-8" d="M477.74,656.07a2.26,2.26,0,0,1-.19-.69,2.81,2.81,0,0,1-3.76.19,2,2,0,0,1-.71-1.57,2.12,2.12,0,0,1,.88-1.82,4.27,4.27,0,0,1,2.51-.63h1v-.49a1.32,1.32,0,0,0-.32-.92,1.27,1.27,0,0,0-1-.34,1.45,1.45,0,0,0-.93.28.88.88,0,0,0-.36.72h-1.66a1.86,1.86,0,0,1,.4-1.14,2.74,2.74,0,0,1,1.1-.83,3.86,3.86,0,0,1,1.55-.3,3.1,3.1,0,0,1,2.07.66,2.31,2.31,0,0,1,.79,1.83v3.34a3.91,3.91,0,0,0,.28,1.59v.12Zm-1.83-1.2a1.9,1.9,0,0,0,.93-.24,1.54,1.54,0,0,0,.65-.64v-1.4h-.89a2.4,2.4,0,0,0-1.39.33,1,1,0,0,0-.47.9,1,1,0,0,0,.32.77A1.23,1.23,0,0,0,475.91,654.87Z"/>
            <path class="cls-8" d="M481,646.75a.89.89,0,0,1,.24-.64,1.11,1.11,0,0,1,1.4,0,1,1,0,0,1,0,1.27,1.14,1.14,0,0,1-1.4,0A.88.88,0,0,1,481,646.75Zm1.77,9.32h-1.67v-7.4h1.67Z"/>
            <path class="cls-8" d="M486.26,648.67l.05.85a2.66,2.66,0,0,1,2.15-1c1.54,0,2.33.89,2.35,2.65v4.89h-1.66v-4.8a1.54,1.54,0,0,0-.3-1,1.31,1.31,0,0,0-1-.34,1.59,1.59,0,0,0-1.49.91v5.27H484.7v-7.4Z"/>
            <path class="cls-8" d="M496.79,654.06a.75.75,0,0,0-.37-.68,3.7,3.7,0,0,0-1.21-.41,6.33,6.33,0,0,1-1.41-.45,1.89,1.89,0,0,1-1.25-1.74,2,2,0,0,1,.81-1.6,3.18,3.18,0,0,1,2.05-.65,3.3,3.3,0,0,1,2.14.66,2.07,2.07,0,0,1,.82,1.7h-1.66a1,1,0,0,0-.36-.79,1.31,1.31,0,0,0-.94-.32,1.46,1.46,0,0,0-.89.25.8.8,0,0,0-.35.68.68.68,0,0,0,.32.59,4.42,4.42,0,0,0,1.3.43,6,6,0,0,1,1.54.51,2.28,2.28,0,0,1,.83.72,1.87,1.87,0,0,1,.26,1,1.92,1.92,0,0,1-.82,1.61,3.49,3.49,0,0,1-2.17.62,3.93,3.93,0,0,1-1.62-.32,2.71,2.71,0,0,1-1.11-.91,2.14,2.14,0,0,1-.39-1.23h1.61a1.16,1.16,0,0,0,.44.9,1.76,1.76,0,0,0,1.09.32,1.66,1.66,0,0,0,1-.25A.76.76,0,0,0,496.79,654.06Z"/>
            <path class="cls-8" d="M502.09,646.87v1.8h1.31v1.23h-1.31V654a.91.91,0,0,0,.17.61.76.76,0,0,0,.6.19,2.36,2.36,0,0,0,.58-.07v1.29a4.26,4.26,0,0,1-1.09.15c-1.28,0-1.92-.7-1.92-2.11V649.9h-1.22v-1.23h1.22v-1.8Z"/>
            <path class="cls-8" d="M508.67,650.19a3.82,3.82,0,0,0-.68-.06,1.52,1.52,0,0,0-1.54.88v5.06h-1.66v-7.4h1.59l0,.83a1.85,1.85,0,0,1,1.66-1,1.61,1.61,0,0,1,.59.1Z"/>
            <path class="cls-8" d="M513.1,656.2a3.43,3.43,0,0,1-2.56-1,3.6,3.6,0,0,1-1-2.65v-.21a4.48,4.48,0,0,1,.42-2,3.2,3.2,0,0,1,2.93-1.85,2.89,2.89,0,0,1,2.33,1,4.05,4.05,0,0,1,.82,2.72v.67h-4.83a2.25,2.25,0,0,0,.61,1.45,1.83,1.83,0,0,0,1.35.54,2.25,2.25,0,0,0,1.86-.93l.9.86a3.06,3.06,0,0,1-1.19,1A3.74,3.74,0,0,1,513.1,656.2Zm-.2-6.33a1.41,1.41,0,0,0-1.1.47,2.45,2.45,0,0,0-.54,1.34h3.16v-.13a2,2,0,0,0-.44-1.26A1.4,1.4,0,0,0,512.9,649.87Z"/>
            <path class="cls-8" d="M521.9,656.07a1.08,1.08,0,1,0-2.13.13,2.62,2.62,0,0,1-1.82-.63,2,2,0,0,1-.71-1.57,2.12,2.12,0,0,1,.88-1.82,4.27,4.27,0,0,1,2.51-.63h1v-.49a1.32,1.32,0,0,0-.32-.92,1.27,1.27,0,0,0-1-.34,1.49,1.49,0,0,0-.93.28.88.88,0,0,0-.36.72H517.4a1.93,1.93,0,0,1,.4-1.14,2.74,2.74,0,0,1,1.1-.83,3.86,3.86,0,0,1,1.55-.3,3.06,3.06,0,0,1,2.07.66,2.28,2.28,0,0,1,.79,1.83v3.34a3.91,3.91,0,0,0,.28,1.59v.12Zm-1.83-1.2a1.9,1.9,0,0,0,.93-.24,1.54,1.54,0,0,0,.65-.64v-1.4h-.89a2.4,2.4,0,0,0-1.39.33,1,1,0,0,0-.47.9,1,1,0,0,0,.32.77A1.23,1.23,0,0,0,520.07,654.87Z"/>
            <path class="cls-8" d="M526.74,648.67l0,.77a2.68,2.68,0,0,1,2.13-.91,2,2,0,0,1,2,1.14,2.63,2.63,0,0,1,2.27-1.14,2.3,2.3,0,0,1,1.82.68,3,3,0,0,1,.62,2v4.86H534v-4.82a1.49,1.49,0,0,0-.3-1,1.36,1.36,0,0,0-1-.33,1.41,1.41,0,0,0-.93.31,1.56,1.56,0,0,0-.5.79v5.08h-1.67V651.2a1.18,1.18,0,0,0-1.33-1.31,1.47,1.47,0,0,0-1.41.82v5.36h-1.66v-7.4Z"/>
            <path class="cls-8" d="M542.67,648.67l.05.77a2.69,2.69,0,0,1,2.14-.91,2.06,2.06,0,0,1,2,1.14,2.61,2.61,0,0,1,2.27-1.14,2.32,2.32,0,0,1,1.82.68,3,3,0,0,1,.61,2v4.86h-1.66v-4.82a1.44,1.44,0,0,0-.31-1,1.33,1.33,0,0,0-1-.33,1.36,1.36,0,0,0-.92.31,1.65,1.65,0,0,0-.51.79v5.08h-1.66V651.2a1.19,1.19,0,0,0-1.33-1.31,1.48,1.48,0,0,0-1.42.82v5.36h-1.66v-7.4Z"/>
            <path class="cls-8" d="M557.85,656.07a3,3,0,0,1-.19-.69,2.58,2.58,0,0,1-1.94.82,2.63,2.63,0,0,1-1.82-.63,2,2,0,0,1-.7-1.57,2.1,2.1,0,0,1,.88-1.82,4.25,4.25,0,0,1,2.51-.63h1v-.49a1.32,1.32,0,0,0-.32-.92,1.28,1.28,0,0,0-1-.34,1.45,1.45,0,0,0-.93.28.88.88,0,0,0-.36.72h-1.66a1.86,1.86,0,0,1,.4-1.14,2.68,2.68,0,0,1,1.1-.83,3.86,3.86,0,0,1,1.55-.3,3.1,3.1,0,0,1,2.07.66,2.31,2.31,0,0,1,.79,1.83v3.34a3.75,3.75,0,0,0,.28,1.59v.12Zm-1.82-1.2a1.9,1.9,0,0,0,.93-.24,1.6,1.6,0,0,0,.65-.64v-1.4h-.9a2.36,2.36,0,0,0-1.38.33,1,1,0,0,0-.47.9,1,1,0,0,0,.32.77A1.21,1.21,0,0,0,556,654.87Z"/>
            <path class="cls-8" d="M565,650.19a3.82,3.82,0,0,0-.68-.06,1.53,1.53,0,0,0-1.54.88v5.06h-1.66v-7.4h1.59l0,.83a1.87,1.87,0,0,1,1.67-1,1.59,1.59,0,0,1,.58.1Z"/>
            <path class="cls-8" d="M568.59,652.89l-.74.76v2.42h-1.66v-10.5h1.66v6l.52-.65,2-2.3h2l-2.75,3.08,3,4.32h-1.92Z"/>
            <path class="cls-8" d="M576.87,656.2a3.46,3.46,0,0,1-2.56-1,3.64,3.64,0,0,1-1-2.65v-.21a4.49,4.49,0,0,1,.43-2,3.2,3.2,0,0,1,2.92-1.85,2.89,2.89,0,0,1,2.34,1,4.05,4.05,0,0,1,.82,2.72v.67H575a2.2,2.2,0,0,0,.61,1.45,1.83,1.83,0,0,0,1.35.54,2.25,2.25,0,0,0,1.86-.93l.89.86a3,3,0,0,1-1.18,1A3.79,3.79,0,0,1,576.87,656.2Zm-.19-6.33a1.43,1.43,0,0,0-1.11.47,2.45,2.45,0,0,0-.53,1.34h3.16v-.13a2.06,2.06,0,0,0-.44-1.26A1.4,1.4,0,0,0,576.68,649.87Z"/>
            <path class="cls-8" d="M583.34,646.87v1.8h1.3v1.23h-1.3V654a.91.91,0,0,0,.16.61.79.79,0,0,0,.6.19,2.3,2.3,0,0,0,.58-.07v1.29a4.2,4.2,0,0,1-1.09.15c-1.28,0-1.91-.7-1.91-2.11V649.9h-1.22v-1.23h1.22v-1.8Z"/>
          </g>
          <g>
            <path class="cls-8" d="M493,498.37a3.59,3.59,0,0,1-1.17,2.48,4,4,0,0,1-2.73.9,3.89,3.89,0,0,1-2.1-.57,3.63,3.63,0,0,1-1.39-1.6,5.85,5.85,0,0,1-.52-2.41v-.93a5.92,5.92,0,0,1,.5-2.49A3.81,3.81,0,0,1,487,492.1a4,4,0,0,1,2.15-.58,3.86,3.86,0,0,1,2.65.89,3.73,3.73,0,0,1,1.17,2.53h-1.72a2.42,2.42,0,0,0-.63-1.55,2.33,2.33,0,0,0-3.2.35,4.07,4.07,0,0,0-.62,2.42V497a4.3,4.3,0,0,0,.58,2.46,1.9,1.9,0,0,0,1.69.85,2.2,2.2,0,0,0,1.53-.46,2.37,2.37,0,0,0,.65-1.52Z"/>
            <path class="cls-8" d="M499.86,499a1.2,1.2,0,0,0-.46-1,5.71,5.71,0,0,0-1.67-.71,8.6,8.6,0,0,1-1.91-.81,2.55,2.55,0,0,1-1.36-2.23,2.43,2.43,0,0,1,1-2,4,4,0,0,1,2.55-.78,4.37,4.37,0,0,1,1.85.38,3.11,3.11,0,0,1,1.28,1.09,2.8,2.8,0,0,1,.46,1.57h-1.72a1.54,1.54,0,0,0-.49-1.22,2,2,0,0,0-1.4-.44,2.1,2.1,0,0,0-1.31.36,1.19,1.19,0,0,0-.47,1,1.12,1.12,0,0,0,.5.92,6.06,6.06,0,0,0,1.67.71,7.79,7.79,0,0,1,1.87.78,3,3,0,0,1,1,1,2.66,2.66,0,0,1,.33,1.34,2.38,2.38,0,0,1-.95,2,4.15,4.15,0,0,1-2.59.74,4.85,4.85,0,0,1-2-.41,3.33,3.33,0,0,1-1.41-1.1,2.79,2.79,0,0,1-.5-1.64h1.73a1.61,1.61,0,0,0,.56,1.31,2.47,2.47,0,0,0,1.61.47,2.12,2.12,0,0,0,1.36-.37A1.17,1.17,0,0,0,499.86,499Z"/>
            <path class="cls-8" d="M506.9,497.78H505v3.83h-1.73v-9.95h3.5a4.05,4.05,0,0,1,2.66.77,2.74,2.74,0,0,1,.93,2.24,2.82,2.82,0,0,1-.48,1.67,3.14,3.14,0,0,1-1.34,1l2.23,4.14v.09H508.9ZM505,496.39h1.77a2,2,0,0,0,1.37-.45,1.51,1.51,0,0,0,.49-1.2,1.66,1.66,0,0,0-.45-1.24,2,2,0,0,0-1.36-.45H505Z"/>
            <path class="cls-8" d="M523.32,498.37a3.59,3.59,0,0,1-1.18,2.48,4,4,0,0,1-2.73.9,3.83,3.83,0,0,1-2.09-.57,3.65,3.65,0,0,1-1.4-1.6,5.7,5.7,0,0,1-.51-2.41v-.93a5.77,5.77,0,0,1,.5-2.49,3.79,3.79,0,0,1,1.43-1.65,4,4,0,0,1,2.16-.58,3.88,3.88,0,0,1,2.65.89,3.73,3.73,0,0,1,1.17,2.53h-1.73a2.48,2.48,0,0,0-.62-1.55,2.07,2.07,0,0,0-1.47-.48,2,2,0,0,0-1.74.83,4.14,4.14,0,0,0-.62,2.42V497a4.38,4.38,0,0,0,.58,2.46,1.91,1.91,0,0,0,1.69.85,2.2,2.2,0,0,0,1.53-.46,2.32,2.32,0,0,0,.65-1.52Z"/>
            <path class="cls-8" d="M524.53,497.84a4.34,4.34,0,0,1,.43-2,3.21,3.21,0,0,1,1.21-1.34,3.43,3.43,0,0,1,1.79-.46,3.23,3.23,0,0,1,2.43,1,3.79,3.79,0,0,1,1,2.56V498a4.4,4.4,0,0,1-.42,1.95,3.12,3.12,0,0,1-1.21,1.33,3.37,3.37,0,0,1-1.81.48,3.2,3.2,0,0,1-2.5-1.05,4,4,0,0,1-.94-2.78Zm1.66.15a3,3,0,0,0,.47,1.78,1.54,1.54,0,0,0,1.31.65,1.5,1.5,0,0,0,1.31-.66,3.22,3.22,0,0,0,.47-1.92,3,3,0,0,0-.48-1.78,1.55,1.55,0,0,0-1.31-.65,1.52,1.52,0,0,0-1.29.64A3.26,3.26,0,0,0,526.19,498Z"/>
            <path class="cls-8" d="M534.5,494.21l0,.77a2.67,2.67,0,0,1,2.13-.9,2,2,0,0,1,2,1.13,2.61,2.61,0,0,1,2.27-1.13,2.31,2.31,0,0,1,1.82.67,3,3,0,0,1,.61,2v4.86h-1.66V496.8a1.47,1.47,0,0,0-.31-1,1.32,1.32,0,0,0-1-.32,1.4,1.4,0,0,0-.93.3,1.55,1.55,0,0,0-.5.8v5.07h-1.66v-4.87a1.18,1.18,0,0,0-1.33-1.3,1.47,1.47,0,0,0-1.42.81v5.36h-1.66v-7.4Z"/>
            <path class="cls-8" d="M551.74,498a4.38,4.38,0,0,1-.78,2.73,2.7,2.7,0,0,1-4,.23v3.5h-1.66V494.21h1.53l.07.75a2.42,2.42,0,0,1,2-.88,2.52,2.52,0,0,1,2.13,1,4.56,4.56,0,0,1,.77,2.8Zm-1.66-.15a3.06,3.06,0,0,0-.44-1.76,1.42,1.42,0,0,0-1.26-.64,1.52,1.52,0,0,0-1.46.84v3.28a1.54,1.54,0,0,0,1.47.86,1.41,1.41,0,0,0,1.24-.64A3.39,3.39,0,0,0,550.08,497.84Z"/>
            <path class="cls-8" d="M557.69,501.61a2.17,2.17,0,0,1-.19-.69,2.78,2.78,0,0,1-3.76.19,2,2,0,0,1-.71-1.57,2.1,2.1,0,0,1,.88-1.82,4.27,4.27,0,0,1,2.51-.63h1v-.49a1.34,1.34,0,0,0-.32-.92,1.31,1.31,0,0,0-1-.34,1.45,1.45,0,0,0-.93.28.88.88,0,0,0-.36.72h-1.66a1.82,1.82,0,0,1,.4-1.13,2.66,2.66,0,0,1,1.1-.83,3.86,3.86,0,0,1,1.55-.3,3.09,3.09,0,0,1,2.07.65,2.32,2.32,0,0,1,.79,1.83v3.34a3.87,3.87,0,0,0,.28,1.59v.12Zm-1.83-1.2a1.9,1.9,0,0,0,.93-.24,1.6,1.6,0,0,0,.65-.64v-1.39h-.9a2.39,2.39,0,0,0-1.38.32,1,1,0,0,0-.47.91,1,1,0,0,0,.32.76A1.23,1.23,0,0,0,555.86,500.41Z"/>
            <path class="cls-8" d="M562.51,494.21l0,.86a2.64,2.64,0,0,1,2.15-1c1.54,0,2.32.88,2.35,2.64v4.89H565.4v-4.79a1.57,1.57,0,0,0-.3-1.05,1.32,1.32,0,0,0-1-.33,1.61,1.61,0,0,0-1.5.9v5.27h-1.66v-7.4Z"/>
            <path class="cls-8" d="M571.48,499.23l1.5-5h1.77l-2.93,8.52a2.41,2.41,0,0,1-2.3,1.87,3.09,3.09,0,0,1-.8-.13v-1.29l.31,0a1.64,1.64,0,0,0,1-.23,1.5,1.5,0,0,0,.5-.77l.24-.63-2.6-7.36h1.8Z"/>
          </g>
        </g>
      </g>
      <g class="cls-3">
        <line class="cls-9" x1="659.5" y1="465.31" x2="659.5" y2="687"/>
        <path class="cls-5" d="M659.5,688h0m0-224.7h0"/>
      </g>
    </g>
  </g>
</svg>
