<svg id="Layer_1" data-name="Layer 1" xmlns="http://www.w3.org/2000/svg" xmlns:xlink="http://www.w3.org/1999/xlink" width="806.86" height="688.5" viewBox="0 0 806.86 688.5">
  <defs>
    <style>
      .cls-1, .cls-6, .cls-7 {
        fill: none;
      }

      .cls-2 {
        clip-path: url(#clip-path);
      }

      .cls-3 {
        fill: #231f20;
      }

      .cls-4 {
        fill: #f6bf63;
      }

      .cls-5 {
        clip-path: url(#clip-path-2);
      }

      .cls-6 {
        stroke: #10416a;
      }

      .cls-6, .cls-7 {
        stroke-linecap: round;
        stroke-linejoin: round;
      }

      .cls-7 {
        stroke: #ff665e;
      }
    </style>
    <clipPath id="clip-path">
      <rect class="cls-1" width="806.86" height="688.5"/>
    </clipPath>
    <clipPath id="clip-path-2">
      <rect class="cls-1" width="806.86" height="688.5"/>
    </clipPath>
  </defs>
  <title>8</title>
  <g class="cls-2">
    <g id="_8" data-name="8">
      <g>
        <path class="cls-3" d="M674.81,474l2.39,6.54,2.38-6.54h1.86v8.53H680v-2.81l.14-3.76-2.44,6.57h-1l-2.44-6.57.14,3.76v2.81H673V474Z"/>
        <path class="cls-3" d="M682.78,474.52a.72.72,0,0,1,.78-.77.74.74,0,0,1,.57.22.77.77,0,0,1,.21.55.72.72,0,0,1-.21.53.74.74,0,0,1-.57.22.77.77,0,0,1-.58-.22A.72.72,0,0,1,682.78,474.52Zm1.46,8h-1.38v-6.34h1.38Z"/>
        <path class="cls-3" d="M689,480.78a.65.65,0,0,0-.3-.58,3.29,3.29,0,0,0-1-.35,4.94,4.94,0,0,1-1.18-.39,1.61,1.61,0,0,1-1-1.49,1.68,1.68,0,0,1,.67-1.37,2.56,2.56,0,0,1,1.7-.56,2.66,2.66,0,0,1,1.78.57,1.78,1.78,0,0,1,.68,1.46h-1.38a.93.93,0,0,0-.29-.69,1.13,1.13,0,0,0-.79-.27,1.16,1.16,0,0,0-.74.22.69.69,0,0,0-.29.58.58.58,0,0,0,.27.51,3.63,3.63,0,0,0,1.08.36,5.38,5.38,0,0,1,1.28.44,1.87,1.87,0,0,1,.68.62,1.55,1.55,0,0,1,.23.86,1.67,1.67,0,0,1-.69,1.39,2.89,2.89,0,0,1-1.8.53,3.11,3.11,0,0,1-1.35-.28,2.28,2.28,0,0,1-.92-.78,1.85,1.85,0,0,1-.33-1.06h1.34a1,1,0,0,0,.37.78,1.43,1.43,0,0,0,.91.27,1.39,1.39,0,0,0,.83-.21A.66.66,0,0,0,689,480.78Z"/>
        <path class="cls-3" d="M694.75,480.78a.64.64,0,0,0-.31-.58,3.19,3.19,0,0,0-1-.35,4.71,4.71,0,0,1-1.17-.39,1.62,1.62,0,0,1-1-1.49,1.71,1.71,0,0,1,.67-1.37,2.61,2.61,0,0,1,1.71-.56,2.68,2.68,0,0,1,1.78.57,1.81,1.81,0,0,1,.68,1.46h-1.38a.9.9,0,0,0-.3-.69,1.1,1.1,0,0,0-.78-.27,1.16,1.16,0,0,0-.74.22.69.69,0,0,0-.29.58.58.58,0,0,0,.27.51,3.63,3.63,0,0,0,1.08.36,5.28,5.28,0,0,1,1.27.44,1.83,1.83,0,0,1,.69.62,1.55,1.55,0,0,1,.23.86,1.67,1.67,0,0,1-.69,1.39,2.89,2.89,0,0,1-1.8.53,3,3,0,0,1-1.35-.28,2.28,2.28,0,0,1-.92-.78,1.85,1.85,0,0,1-.33-1.06h1.34a1,1,0,0,0,.37.78,1.42,1.42,0,0,0,.9.27,1.37,1.37,0,0,0,.83-.21A.67.67,0,0,0,694.75,480.78Z"/>
        <path class="cls-3" d="M697.31,474.52a.81.81,0,0,1,.2-.55.87.87,0,0,1,1.16,0,.81.81,0,0,1,.2.55.76.76,0,0,1-.2.53.87.87,0,0,1-1.16,0A.76.76,0,0,1,697.31,474.52Zm1.47,8H697.4v-6.34h1.38Z"/>
        <path class="cls-3" d="M700,479.27a3.83,3.83,0,0,1,.36-1.68,2.61,2.61,0,0,1,1-1.14,2.72,2.72,0,0,1,1.48-.41,2.64,2.64,0,0,1,2,.83,3.28,3.28,0,0,1,.84,2.19v.34a3.9,3.9,0,0,1-.35,1.67,2.59,2.59,0,0,1-1,1.14,2.79,2.79,0,0,1-1.5.41,2.66,2.66,0,0,1-2.09-.89,3.51,3.51,0,0,1-.78-2.39Zm1.38.13a2.62,2.62,0,0,0,.39,1.53,1.28,1.28,0,0,0,1.1.55,1.25,1.25,0,0,0,1.08-.56,2.89,2.89,0,0,0,.39-1.65,2.54,2.54,0,0,0-.4-1.52,1.27,1.27,0,0,0-1.09-.56,1.25,1.25,0,0,0-1.07.55A2.88,2.88,0,0,0,701.4,479.4Z"/>
        <path class="cls-3" d="M708.19,476.16l0,.73A2.19,2.19,0,0,1,710,476c1.28,0,1.93.76,2,2.27v4.19h-1.38v-4.11a1.31,1.31,0,0,0-.25-.89,1.06,1.06,0,0,0-.83-.29,1.32,1.32,0,0,0-1.24.78v4.51h-1.38v-6.34Z"/>
        <path class="cls-3" d="M714.21,476a.78.78,0,0,1,.6.22.8.8,0,0,1,.21.57.75.75,0,0,1-.21.55.78.78,0,0,1-.6.22.79.79,0,0,1-.58-.21.76.76,0,0,1-.22-.56.8.8,0,0,1,.21-.57A.77.77,0,0,1,714.21,476Zm0,5a.78.78,0,0,1,.6.23.79.79,0,0,1,.21.56.78.78,0,0,1-.21.56.82.82,0,0,1-.6.22.8.8,0,0,1-.58-.22.73.73,0,0,1-.22-.56.79.79,0,0,1,.21-.56A.78.78,0,0,1,714.21,481Z"/>
      </g>
      <g>
        <path class="cls-4" d="M679,495.86h-3.94v4.2h-2V489.8h6.48v1.71h-4.43v2.65H679Z"/>
        <path class="cls-4" d="M683.69,500.06h-2.05V489.8h2.05Z"/>
        <path class="cls-4" d="M694.52,500.06h-2l-4-6.75v6.75h-2.05V489.8h2.05l4,6.76V489.8h2Z"/>
        <path class="cls-4" d="M702.77,497.94h-3.59l-.69,2.12h-2.18L700,489.8h1.9l3.72,10.26h-2.18Zm-3-1.71h2.49L701,492.39Z"/>
        <path class="cls-4" d="M715.51,500.06h-2l-4-6.75v6.75h-2.05V489.8h2.05l4,6.76V489.8h2Z"/>
        <path class="cls-4" d="M726,496.64a3.69,3.69,0,0,1-1.19,2.61,4.09,4.09,0,0,1-2.81.95,3.74,3.74,0,0,1-3-1.33,5.58,5.58,0,0,1-1.09-3.65v-.63a6.41,6.41,0,0,1,.5-2.6,3.88,3.88,0,0,1,1.45-1.73,4.37,4.37,0,0,1,5,.35,3.89,3.89,0,0,1,1.21,2.67h-2.05a2.18,2.18,0,0,0-.53-1.44,2,2,0,0,0-1.41-.45,1.71,1.71,0,0,0-1.53.76,4.24,4.24,0,0,0-.52,2.35v.77a4.72,4.72,0,0,0,.48,2.43,1.71,1.71,0,0,0,1.55.77,2,2,0,0,0,1.41-.45,2,2,0,0,0,.54-1.38Z"/>
        <path class="cls-4" d="M734.13,495.61h-3.94v2.75h4.62v1.7h-6.67V489.8h6.66v1.71h-4.61V494h3.94Z"/>
      </g>
      <g>
        <path class="cls-4" d="M679,513.42h-3.94v4.19h-2V507.35h6.48v1.71h-4.43v2.65H679Z"/>
        <path class="cls-4" d="M683.69,517.61h-2.05V507.35h2.05Z"/>
        <path class="cls-4" d="M690.11,513.86h-1.63v3.75h-2.05V507.35h3.7a4.11,4.11,0,0,1,2.72.81,2.86,2.86,0,0,1,.95,2.29,3.16,3.16,0,0,1-.44,1.75,3,3,0,0,1-1.33,1.12l2.15,4.19v.1H692Zm-1.63-1.72h1.65a1.66,1.66,0,0,0,1.2-.4,1.48,1.48,0,0,0,.42-1.12,1.57,1.57,0,0,0-.4-1.14,1.6,1.6,0,0,0-1.22-.42h-1.65Z"/>
        <path class="cls-4" d="M701.36,514.92A1.08,1.08,0,0,0,701,514a5.38,5.38,0,0,0-1.47-.68,9.61,9.61,0,0,1-1.69-.7,2.84,2.84,0,0,1-1.7-2.54,2.51,2.51,0,0,1,.46-1.49,3,3,0,0,1,1.3-1,4.72,4.72,0,0,1,1.91-.37,4.28,4.28,0,0,1,1.9.4,3,3,0,0,1,1.76,2.77h-2a1.38,1.38,0,0,0-.43-1.09,1.75,1.75,0,0,0-1.21-.4,1.85,1.85,0,0,0-1.17.33,1.05,1.05,0,0,0-.42.87,1,1,0,0,0,.49.83,5.49,5.49,0,0,0,1.44.64,6.16,6.16,0,0,1,2.55,1.34,2.76,2.76,0,0,1,.8,2,2.52,2.52,0,0,1-1,2.09,4.21,4.21,0,0,1-2.63.75,5,5,0,0,1-2.09-.43,3.36,3.36,0,0,1-1.44-1.19,3.09,3.09,0,0,1-.49-1.75h2.05c0,1.14.66,1.7,2,1.7a1.89,1.89,0,0,0,1.14-.3A1,1,0,0,0,701.36,514.92Z"/>
        <path class="cls-4" d="M713.14,509.06h-3v8.55H708v-8.55h-3v-1.71h8.11Z"/>
      </g>
    </g>
    <g class="cls-5">
      <path class="cls-6" d="M659.5,148.3h0M659.5.5h0"/>
    </g>
    <path class="cls-7" d="M659.5,454.8h0m0-298h0"/>
  </g>
</svg>
