<svg id="Layer_1" data-name="Layer 1" xmlns="http://www.w3.org/2000/svg" xmlns:xlink="http://www.w3.org/1999/xlink" width="806.86" height="688.5" viewBox="0 0 806.86 688.5">
  <defs>
    <style>
      .cls-1, .cls-4, .cls-5, .cls-6 {
        fill: none;
      }

      .cls-2 {
        clip-path: url(#clip-path);
      }

      .cls-3 {
        clip-path: url(#clip-path-2);
      }

      .cls-4 {
        stroke: #10416a;
      }

      .cls-4, .cls-5 {
        stroke-linecap: round;
        stroke-linejoin: round;
      }

      .cls-5 {
        stroke: #ff665e;
      }

      .cls-6 {
        stroke: #231f20;
        stroke-miterlimit: 10;
        stroke-width: 2px;
      }

      .cls-7 {
        fill: #231f20;
      }
    </style>
    <clipPath id="clip-path">
      <rect class="cls-1" width="806.86" height="688.5"/>
    </clipPath>
    <clipPath id="clip-path-2">
      <rect class="cls-1" width="806.86" height="688.5"/>
    </clipPath>
  </defs>
  <title>9</title>
  <g class="cls-2">
    <g class="cls-3">
      <path class="cls-4" d="M659.5,148.3h0M659.5.5h0"/>
    </g>
    <path class="cls-5" d="M659.5,454.8h0m0-298h0"/>
    <g id="_10" data-name="10">
      <line class="cls-6" x1="162.26" y1="56.85" x2="162.26" y2="633.15"/>
      <polyline class="cls-6" points="166.98 61.93 162.26 56.85 157.54 61.93"/>
      <polyline class="cls-6" points="157.54 628.07 162.26 633.15 166.98 628.07"/>
      <g>
        <path class="cls-7" d="M21.31,83.66v4H19V76.29H23.4a5.18,5.18,0,0,1,2.26.47,3.45,3.45,0,0,1,1.49,1.33,3.72,3.72,0,0,1,.53,2,3.27,3.27,0,0,1-1.15,2.63,4.73,4.73,0,0,1-3.17,1Zm0-1.9H23.4a2,2,0,0,0,1.42-.44,1.56,1.56,0,0,0,.49-1.25,1.89,1.89,0,0,0-.49-1.35,1.85,1.85,0,0,0-1.36-.53H21.31Z"/>
        <path class="cls-7" d="M33.66,83.5H31.79v4.17H29.45V76.29h4.22a4.76,4.76,0,0,1,3.11.9,3.11,3.11,0,0,1,1.1,2.54,3.46,3.46,0,0,1-.51,1.94,3.38,3.38,0,0,1-1.53,1.24l2.47,4.65v.11H35.79Zm-1.87-1.9h1.89a2,2,0,0,0,1.37-.44,1.63,1.63,0,0,0,.48-1.24,1.74,1.74,0,0,0-.45-1.27,1.92,1.92,0,0,0-1.41-.46H31.79Z"/>
        <path class="cls-7" d="M42.31,87.67H40V76.29h2.34Z"/>
        <path class="cls-7" d="M47.7,76.29l2.93,8.25,2.9-8.25h3.08V87.67H54.26V84.56l.23-5.37-3.07,8.48H49.81L46.75,79.2,47,84.56v3.11H44.64V76.29Z"/>
        <path class="cls-7" d="M65.24,85.32H61.13l-.78,2.35H57.86l4.23-11.38h2.17l4.26,11.38H66Zm-3.48-1.89h2.85l-1.43-4.26Z"/>
        <path class="cls-7" d="M74,83.5H72.09v4.17H69.74V76.29H74a4.78,4.78,0,0,1,3.11.9,3.1,3.1,0,0,1,1.09,2.54,3.54,3.54,0,0,1-.5,1.94,3.49,3.49,0,0,1-1.53,1.24l2.46,4.65v.11H76.09Zm-1.86-1.9H74a1.92,1.92,0,0,0,1.36-.44,1.6,1.6,0,0,0,.49-1.24,1.71,1.71,0,0,0-.46-1.27,1.88,1.88,0,0,0-1.4-.46H72.09Z"/>
        <path class="cls-7" d="M84,81.42l2.36-5.13H89l-3.73,7.25v4.13H82.85V83.54l-3.74-7.25h2.57Z"/>
        <path class="cls-7" d="M94.31,87.67V76.29h3.5a5.31,5.31,0,0,1,2.68.68,4.69,4.69,0,0,1,1.85,1.92,6,6,0,0,1,.66,2.83v.53a5.92,5.92,0,0,1-.65,2.82A4.64,4.64,0,0,1,100.51,87a5.42,5.42,0,0,1-2.68.69Zm2.34-9.48v7.59h1.13a2.56,2.56,0,0,0,2.11-.89,4.09,4.09,0,0,0,.74-2.57v-.61a4.09,4.09,0,0,0-.72-2.62,2.53,2.53,0,0,0-2.1-.9Z"/>
        <path class="cls-7" d="M109.08,83.5h-1.87v4.17h-2.34V76.29h4.22a4.76,4.76,0,0,1,3.11.9,3.11,3.11,0,0,1,1.1,2.54,3.46,3.46,0,0,1-.51,1.94,3.4,3.4,0,0,1-1.52,1.24l2.46,4.65v.11h-2.52Zm-1.87-1.9h1.89a1.93,1.93,0,0,0,1.37-.44,1.63,1.63,0,0,0,.48-1.24,1.74,1.74,0,0,0-.45-1.27,1.92,1.92,0,0,0-1.41-.46h-1.88Z"/>
        <path class="cls-7" d="M117.73,87.67h-2.34V76.29h2.34Z"/>
        <path class="cls-7" d="M124.26,84.85l2.58-8.56h2.61l-4,11.38h-2.44l-4-11.38h2.6Z"/>
        <path class="cls-7" d="M137.53,82.74H133v3h5.28v1.89h-7.63V76.29h7.61v1.9H133V80.9h4.5Z"/>
        <path class="cls-7" d="M144.05,83.5h-1.86v4.17h-2.35V76.29h4.23a4.78,4.78,0,0,1,3.11.9,3.1,3.1,0,0,1,1.09,2.54,3.54,3.54,0,0,1-.5,1.94,3.49,3.49,0,0,1-1.53,1.24l2.46,4.65v.11h-2.51Zm-1.86-1.9h1.89a1.9,1.9,0,0,0,1.36-.44,1.6,1.6,0,0,0,.49-1.24,1.71,1.71,0,0,0-.46-1.27,1.88,1.88,0,0,0-1.4-.46h-1.88Z"/>
      </g>
      <g>
        <path class="cls-7" d="M90.94,99.35H88.28v7.33H86.81V99.35H84.17v-1.2h6.77Z"/>
        <path class="cls-7" d="M99,102.64a5.2,5.2,0,0,1-.44,2.2,3.22,3.22,0,0,1-1.24,1.45,3.36,3.36,0,0,1-1.85.51,3.41,3.41,0,0,1-1.85-.51,3.27,3.27,0,0,1-1.25-1.44,5,5,0,0,1-.45-2.16v-.48a5.31,5.31,0,0,1,.44-2.21,3.5,3.5,0,0,1,5-1.46A3.26,3.26,0,0,1,98.53,100a5.12,5.12,0,0,1,.45,2.19Zm-1.48-.44A3.73,3.73,0,0,0,97,100a1.77,1.77,0,0,0-1.52-.75,1.74,1.74,0,0,0-1.5.75,3.6,3.6,0,0,0-.56,2.13v.49a3.64,3.64,0,0,0,.55,2.17,1.89,1.89,0,0,0,3,0,3.73,3.73,0,0,0,.54-2.19Z"/>
        <path class="cls-7" d="M110.17,103.91a3.08,3.08,0,0,1-1,2.13,3.43,3.43,0,0,1-2.34.76,3.3,3.3,0,0,1-1.79-.48,3.12,3.12,0,0,1-1.2-1.38,4.92,4.92,0,0,1-.44-2.06v-.8a4.91,4.91,0,0,1,.43-2.13A3.26,3.26,0,0,1,105,98.53a3.46,3.46,0,0,1,1.85-.49,3.32,3.32,0,0,1,2.28.76,3.24,3.24,0,0,1,1,2.16h-1.48a2.13,2.13,0,0,0-.53-1.32,1.79,1.79,0,0,0-1.27-.41,1.73,1.73,0,0,0-1.48.71,3.51,3.51,0,0,0-.53,2.07v.76a3.76,3.76,0,0,0,.49,2.11,1.66,1.66,0,0,0,1.45.73,2,2,0,0,0,1.32-.4,2,2,0,0,0,.55-1.3Z"/>
        <path class="cls-7" d="M114.74,103.4h-1.66v3.28H111.6V98.15h3a3.52,3.52,0,0,1,2.28.66,2.35,2.35,0,0,1,.8,1.92,2.47,2.47,0,0,1-.41,1.44,2.63,2.63,0,0,1-1.15.88l1.91,3.56v.07h-1.58Zm-1.66-1.19h1.53a1.7,1.7,0,0,0,1.17-.38,1.33,1.33,0,0,0,.42-1,1.41,1.41,0,0,0-.39-1.06,1.67,1.67,0,0,0-1.16-.38h-1.57Z"/>
        <path class="cls-7" d="M124.18,102.88h-3.5v2.62h4.09v1.18H119.2V98.15h5.53v1.2h-4v2.35h3.5Z"/>
        <path class="cls-7" d="M130.87,104.7h-3.31l-.69,2h-1.54l3.22-8.53h1.33l3.23,8.53h-1.55ZM128,103.5h2.47L129.21,100Z"/>
        <path class="cls-7" d="M140.35,99.35h-2.66v7.33h-1.47V99.35h-2.64v-1.2h6.77Z"/>
        <path class="cls-7" d="M146.56,102.88h-3.5v2.62h4.09v1.18h-5.57V98.15h5.53v1.2h-4.05v2.35h3.5Z"/>
        <path class="cls-7" d="M56.28,118.89a1,1,0,0,0-.39-.87,5,5,0,0,0-1.43-.62,6.41,6.41,0,0,1-1.64-.69,2.18,2.18,0,0,1-1.17-1.91,2.08,2.08,0,0,1,.84-1.7,3.46,3.46,0,0,1,2.19-.66,3.7,3.7,0,0,1,1.59.32,2.57,2.57,0,0,1,1.09.94,2.34,2.34,0,0,1,.4,1.34H56.28a1.33,1.33,0,0,0-.42-1,1.67,1.67,0,0,0-1.19-.38,1.79,1.79,0,0,0-1.13.31,1,1,0,0,0-.4.87.93.93,0,0,0,.43.78,5.11,5.11,0,0,0,1.43.61,6.81,6.81,0,0,1,1.6.67,2.44,2.44,0,0,1,.88.87,2.25,2.25,0,0,1,.29,1.14,2,2,0,0,1-.82,1.7,3.57,3.57,0,0,1-2.22.63,4.13,4.13,0,0,1-1.7-.34,2.91,2.91,0,0,1-1.21-1,2.33,2.33,0,0,1-.43-1.4h1.48a1.38,1.38,0,0,0,.48,1.12,2.08,2.08,0,0,0,1.38.4,1.87,1.87,0,0,0,1.16-.31A1,1,0,0,0,56.28,118.89Z"/>
        <path class="cls-7" d="M66,117a5.2,5.2,0,0,1-.43,2.2,3.22,3.22,0,0,1-1.24,1.45,3.61,3.61,0,0,1-3.7,0,3.35,3.35,0,0,1-1.26-1.44,5.27,5.27,0,0,1-.45-2.16v-.48a5.13,5.13,0,0,1,.45-2.21,3.49,3.49,0,0,1,4.94-1.46,3.28,3.28,0,0,1,1.25,1.44,5.12,5.12,0,0,1,.44,2.19Zm-1.48-.44a3.73,3.73,0,0,0-.54-2.18,1.9,1.9,0,0,0-3,0,3.6,3.6,0,0,0-.55,2.13V117a3.72,3.72,0,0,0,.54,2.17,1.77,1.77,0,0,0,1.53.77,1.74,1.74,0,0,0,1.51-.75A3.81,3.81,0,0,0,64.5,117Z"/>
        <path class="cls-7" d="M74.08,118.31a3.12,3.12,0,0,1-1,2.13,3.45,3.45,0,0,1-2.34.76,3.3,3.3,0,0,1-1.79-.48,3.12,3.12,0,0,1-1.2-1.38,4.93,4.93,0,0,1-.44-2.07v-.79a4.91,4.91,0,0,1,.43-2.13A3.26,3.26,0,0,1,69,112.93a3.46,3.46,0,0,1,1.85-.49,3.28,3.28,0,0,1,2.27.76,3.2,3.2,0,0,1,1,2.16H72.6a2.07,2.07,0,0,0-.54-1.32,1.75,1.75,0,0,0-1.26-.41,1.73,1.73,0,0,0-1.48.71,3.43,3.43,0,0,0-.53,2.07v.76a3.76,3.76,0,0,0,.49,2.11,1.65,1.65,0,0,0,1.45.73,1.92,1.92,0,0,0,1.31-.4,2,2,0,0,0,.56-1.3Z"/>
        <path class="cls-7" d="M77.07,121.08H75.6v-8.53h1.47Z"/>
        <path class="cls-7" d="M84,117.27h-3.5v2.63h4.09v1.18H79v-8.53h5.54v1.2H80.49v2.35H84Z"/>
        <path class="cls-7" d="M92.06,113.75H89.4v7.33H87.93v-7.33H85.29v-1.2h6.77Z"/>
        <path class="cls-7" d="M98.06,119.1h-3.3l-.69,2H92.53l3.22-8.53h1.33l3.23,8.53H98.76Zm-2.89-1.2h2.48l-1.24-3.54Z"/>
        <path class="cls-7" d="M102.86,119.9h3.88v1.18h-5.36v-8.53h1.48Z"/>
        <path class="cls-7" d="M114.08,119.23l2.17-6.68h1.63l-3.07,8.53h-1.43l-3.06-8.53h1.62Z"/>
        <path class="cls-7" d="M123.73,119.1h-3.31l-.69,2h-1.54l3.22-8.53h1.33l3.23,8.53h-1.55Zm-2.89-1.2h2.47l-1.24-3.54Z"/>
        <path class="cls-7" d="M128.53,119.9h3.87v1.18H127v-8.53h1.49Z"/>
        <path class="cls-7" d="M139.89,112.55v5.7a2.78,2.78,0,0,1-.87,2.16,3.31,3.31,0,0,1-2.32.79,3.35,3.35,0,0,1-2.33-.78,2.8,2.8,0,0,1-.86-2.17v-5.7H135v5.71a1.82,1.82,0,0,0,.43,1.31,1.71,1.71,0,0,0,1.28.45c1.14,0,1.71-.6,1.71-1.81v-5.66Z"/>
        <path class="cls-7" d="M146.56,117.27h-3.5v2.63h4.09v1.18h-5.57v-8.53h5.53v1.2h-4.05v2.35h3.5Z"/>
      </g>
      <g>
        <path class="cls-7" d="M21.31,565.33v4H19V558H23.4a5.18,5.18,0,0,1,2.26.47,3.39,3.39,0,0,1,1.49,1.33,3.71,3.71,0,0,1,.53,2,3.27,3.27,0,0,1-1.15,2.64,4.78,4.78,0,0,1-3.17,1Zm0-1.9H23.4a2.06,2.06,0,0,0,1.42-.44,1.58,1.58,0,0,0,.49-1.25,1.85,1.85,0,0,0-.49-1.35,1.81,1.81,0,0,0-1.36-.53H21.31Z"/>
        <path class="cls-7" d="M33.66,565.17H31.79v4.16H29.45V558h4.22a4.76,4.76,0,0,1,3.11.9,3.1,3.1,0,0,1,1.1,2.54,3.48,3.48,0,0,1-.51,1.94,3.38,3.38,0,0,1-1.53,1.24l2.47,4.64v.11H35.79Zm-1.87-1.9h1.89a2,2,0,0,0,1.37-.45,1.61,1.61,0,0,0,.48-1.24,1.74,1.74,0,0,0-.45-1.26,1.92,1.92,0,0,0-1.41-.46H31.79Z"/>
        <path class="cls-7" d="M42.31,569.33H40V558h2.34Z"/>
        <path class="cls-7" d="M47.7,558l2.93,8.25,2.9-8.25h3.08v11.37H54.26v-3.11l.23-5.36-3.07,8.47H49.81l-3.06-8.46.23,5.35v3.11H44.64V558Z"/>
        <path class="cls-7" d="M65.24,567H61.13l-.78,2.34H57.86L62.09,558h2.17l4.26,11.37H66Zm-3.48-1.9h2.85l-1.43-4.26Z"/>
        <path class="cls-7" d="M74,565.17H72.09v4.16H69.74V558H74a4.78,4.78,0,0,1,3.11.9,3.09,3.09,0,0,1,1.09,2.54,3.56,3.56,0,0,1-.5,1.94,3.49,3.49,0,0,1-1.53,1.24l2.46,4.64v.11H76.09Zm-1.86-1.9H74a1.92,1.92,0,0,0,1.36-.45,1.58,1.58,0,0,0,.49-1.24,1.7,1.7,0,0,0-.46-1.26,1.88,1.88,0,0,0-1.4-.46H72.09Z"/>
        <path class="cls-7" d="M84,563.08,86.4,558H89l-3.73,7.25v4.12H82.85v-4.12L79.11,558h2.57Z"/>
        <path class="cls-7" d="M94.31,569.33V558h3.5a5.31,5.31,0,0,1,2.68.67,4.78,4.78,0,0,1,1.85,1.93,5.94,5.94,0,0,1,.66,2.83v.52a5.87,5.87,0,0,1-.65,2.82,4.67,4.67,0,0,1-1.84,1.92,5.31,5.31,0,0,1-2.68.68Zm2.34-9.47v7.59h1.13a2.56,2.56,0,0,0,2.11-.9,4.07,4.07,0,0,0,.74-2.57v-.6a4.12,4.12,0,0,0-.72-2.63,2.55,2.55,0,0,0-2.1-.89Z"/>
        <path class="cls-7" d="M109.08,565.17h-1.87v4.16h-2.34V558h4.22a4.76,4.76,0,0,1,3.11.9,3.1,3.1,0,0,1,1.1,2.54,3.48,3.48,0,0,1-.51,1.94,3.4,3.4,0,0,1-1.52,1.24l2.46,4.64v.11h-2.52Zm-1.87-1.9h1.89a1.93,1.93,0,0,0,1.37-.45,1.61,1.61,0,0,0,.48-1.24,1.74,1.74,0,0,0-.45-1.26,1.92,1.92,0,0,0-1.41-.46h-1.88Z"/>
        <path class="cls-7" d="M117.73,569.33h-2.34V558h2.34Z"/>
        <path class="cls-7" d="M124.26,566.51l2.58-8.55h2.61l-4,11.37h-2.44l-4-11.37h2.6Z"/>
        <path class="cls-7" d="M137.53,564.4H133v3.05h5.28v1.88h-7.63V558h7.61v1.9H133v2.71h4.5Z"/>
        <path class="cls-7" d="M144.05,565.17h-1.86v4.16h-2.35V558h4.23a4.78,4.78,0,0,1,3.11.9,3.09,3.09,0,0,1,1.09,2.54,3.56,3.56,0,0,1-.5,1.94,3.49,3.49,0,0,1-1.53,1.24l2.46,4.64v.11h-2.51Zm-1.86-1.9h1.89a1.91,1.91,0,0,0,1.36-.45,1.58,1.58,0,0,0,.49-1.24,1.7,1.7,0,0,0-.46-1.26,1.88,1.88,0,0,0-1.4-.46h-1.88Z"/>
      </g>
      <g>
        <path class="cls-7" d="M90.94,581H88.28v7.34H86.81V581H84.17v-1.19h6.77Z"/>
        <path class="cls-7" d="M99,584.31a5.23,5.23,0,0,1-.44,2.2A3.28,3.28,0,0,1,97.3,588a3.36,3.36,0,0,1-1.85.51A3.41,3.41,0,0,1,93.6,588a3.32,3.32,0,0,1-1.25-1.44,5,5,0,0,1-.45-2.17v-.48a5.27,5.27,0,0,1,.44-2.2,3.33,3.33,0,0,1,1.25-1.46,3.38,3.38,0,0,1,1.85-.51,3.49,3.49,0,0,1,1.85.5,3.37,3.37,0,0,1,1.24,1.44,5.19,5.19,0,0,1,.45,2.19Zm-1.48-.45a3.7,3.7,0,0,0-.54-2.17,1.75,1.75,0,0,0-1.52-.76,1.73,1.73,0,0,0-1.5.76,3.6,3.6,0,0,0-.56,2.13v.49a3.64,3.64,0,0,0,.55,2.17,1.76,1.76,0,0,0,1.52.77A1.73,1.73,0,0,0,97,586.5a3.73,3.73,0,0,0,.54-2.19Z"/>
        <path class="cls-7" d="M110.17,585.57a3.08,3.08,0,0,1-1,2.13,3.44,3.44,0,0,1-2.34.77A3.23,3.23,0,0,1,105,588a3.15,3.15,0,0,1-1.2-1.37,4.93,4.93,0,0,1-.44-2.07v-.79a4.91,4.91,0,0,1,.43-2.13A3.16,3.16,0,0,1,105,580.2a3.46,3.46,0,0,1,1.85-.5,3.33,3.33,0,0,1,2.28.77,3.24,3.24,0,0,1,1,2.16h-1.48a2.18,2.18,0,0,0-.53-1.33,1.79,1.79,0,0,0-1.27-.4,1.72,1.72,0,0,0-1.48.7,3.56,3.56,0,0,0-.53,2.08v.75a3.72,3.72,0,0,0,.49,2.11,1.64,1.64,0,0,0,1.45.73,2,2,0,0,0,1.32-.39,2.07,2.07,0,0,0,.55-1.31Z"/>
        <path class="cls-7" d="M114.74,585.07h-1.66v3.28H111.6v-8.53h3a3.52,3.52,0,0,1,2.28.66,2.33,2.33,0,0,1,.8,1.92,2.42,2.42,0,0,1-.41,1.43,2.65,2.65,0,0,1-1.15.89l1.91,3.55v.08h-1.58Zm-1.66-1.2h1.53a1.69,1.69,0,0,0,1.17-.37,1.34,1.34,0,0,0,.42-1,1.4,1.4,0,0,0-.39-1.06,1.67,1.67,0,0,0-1.16-.39h-1.57Z"/>
        <path class="cls-7" d="M124.18,584.54h-3.5v2.63h4.09v1.18H119.2v-8.53h5.53V581h-4v2.36h3.5Z"/>
        <path class="cls-7" d="M130.87,586.36h-3.31l-.69,2h-1.54l3.22-8.53h1.33l3.23,8.53h-1.55ZM128,585.17h2.47l-1.24-3.54Z"/>
        <path class="cls-7" d="M140.35,581h-2.66v7.34h-1.47V581h-2.64v-1.19h6.77Z"/>
        <path class="cls-7" d="M146.56,584.54h-3.5v2.63h4.09v1.18h-5.57v-8.53h5.53V581h-4.05v2.36h3.5Z"/>
        <path class="cls-7" d="M51.22,599.13H47.79v3.62H46.31v-8.53h5.42v1.19H47.79V598h3.43Z"/>
        <path class="cls-7" d="M54.57,602.75H53.09v-8.53h1.48Z"/>
        <path class="cls-7" d="M63.27,602.75H61.79l-3.81-6v6H56.5v-8.53H58l3.82,6.07v-6.07h1.47Z"/>
        <path class="cls-7" d="M69.9,600.76H66.6l-.69,2H64.37l3.22-8.53h1.33l3.23,8.53H70.6ZM67,599.57h2.47L68.25,596Z"/>
        <path class="cls-7" d="M80,602.75H78.51l-3.8-6v6H73.22v-8.53h1.49l3.81,6.07v-6.07H80Z"/>
        <path class="cls-7" d="M88.36,600a3.08,3.08,0,0,1-1,2.13,3.41,3.41,0,0,1-2.33.77,3.28,3.28,0,0,1-1.8-.49A3.15,3.15,0,0,1,82,601a4.93,4.93,0,0,1-.44-2.07v-.8A4.9,4.9,0,0,1,82,596a3.12,3.12,0,0,1,1.23-1.42,3.44,3.44,0,0,1,1.85-.5,3.3,3.3,0,0,1,2.27.77,3.19,3.19,0,0,1,1,2.16H86.88a2.13,2.13,0,0,0-.53-1.33,1.78,1.78,0,0,0-1.26-.4,1.74,1.74,0,0,0-1.49.7,3.54,3.54,0,0,0-.53,2.08v.75a3.78,3.78,0,0,0,.49,2.12,1.67,1.67,0,0,0,1.46.72,1.93,1.93,0,0,0,1.31-.39,2,2,0,0,0,.55-1.31Z"/>
        <path class="cls-7" d="M91.36,602.75H89.88v-8.53h1.48Z"/>
        <path class="cls-7" d="M98.06,600.76h-3.3l-.69,2H92.53l3.22-8.53h1.33l3.23,8.53H98.76Zm-2.89-1.19h2.48L96.41,596Z"/>
        <path class="cls-7" d="M102.86,601.57h3.88v1.18h-5.36v-8.53h1.48Z"/>
        <path class="cls-7" d="M114.08,600.89l2.17-6.67h1.63l-3.07,8.53h-1.43l-3.06-8.53h1.62Z"/>
        <path class="cls-7" d="M123.73,600.76h-3.31l-.69,2h-1.54l3.22-8.53h1.33l3.23,8.53h-1.55Zm-2.89-1.19h2.47L122.07,596Z"/>
        <path class="cls-7" d="M128.53,601.57h3.87v1.18H127v-8.53h1.49Z"/>
        <path class="cls-7" d="M139.88,594.22v5.7a2.76,2.76,0,0,1-.87,2.15,3.78,3.78,0,0,1-4.64,0,2.79,2.79,0,0,1-.86-2.17v-5.69H135v5.71a1.79,1.79,0,0,0,.43,1.3,1.69,1.69,0,0,0,1.28.45q1.71,0,1.71-1.8v-5.66Z"/>
        <path class="cls-7" d="M146.56,598.94h-3.5v2.63h4.09v1.18h-5.57v-8.53h5.53v1.19h-4.05v2.36h3.5Z"/>
      </g>
    </g>
  </g>
</svg>
