<svg id="Слой_1" data-name="Слой 1" xmlns="http://www.w3.org/2000/svg" xmlns:xlink="http://www.w3.org/1999/xlink" width="512" height="512" viewBox="0 0 512 512"><defs><style>.cls-1{fill:none;}.cls-2{clip-path:url(#clip-path);}.cls-3{fill:#f0f0f0;}.cls-4{fill:#ff9811;}.cls-5{fill:#6da544;}.cls-6{fill:#0052b4;}</style><clipPath id="clip-path"><rect class="cls-1" width="512" height="512"/></clipPath></defs><title>india</title><g class="cls-2"><path class="cls-3" d="M256,0C397.38,0,512,114.62,512,256S397.38,512,256,512,0,397.39,0,256,114.62,0,256,0"/><path class="cls-4" d="M256,0C154.51,0,66.81,59.07,25.4,144.7H486.6C445.19,59.07,357.49,0,256,0"/><path class="cls-5" d="M256,512c101.49,0,189.19-59.06,230.6-144.7H25.4C66.81,452.94,154.51,512,256,512"/><path class="cls-6" d="M256,167a89,89,0,1,1-89,89,89,89,0,0,1,89-89"/><path class="cls-3" d="M256,200.35A55.65,55.65,0,1,1,200.35,256,55.65,55.65,0,0,1,256,200.35"/><polygon class="cls-6" points="256 187.33 273.17 226.26 315.47 221.66 290.34 256 315.47 290.34 273.17 285.74 256 324.67 238.83 285.74 196.53 290.34 221.66 256 196.53 221.66 238.83 226.26 256 187.33"/></g></svg>