<svg id="Слой_1" data-name="Слой 1" xmlns="http://www.w3.org/2000/svg" xmlns:xlink="http://www.w3.org/1999/xlink" width="512" height="512" viewBox="0 0 512 512"><defs><style>.cls-1{fill:none;}.cls-2{clip-path:url(#clip-path);}.cls-3{fill:#f0f0f0;}.cls-4{fill:#d80027;}</style><clipPath id="clip-path"><rect class="cls-1" width="512" height="512"/></clipPath></defs><title>singapore</title><g class="cls-2"><path class="cls-3" d="M256,0C397.38,0,512,114.62,512,256S397.38,512,256,512,0,397.39,0,256,114.62,0,256,0"/><path class="cls-4" d="M0,256C0,114.62,114.62,0,256,0S512,114.62,512,256"/><path class="cls-3" d="M155.83,133.56A77.93,77.93,0,0,1,217,57.46a77.92,77.92,0,1,0,0,152.21,77.94,77.94,0,0,1-61.21-76.11"/><polygon class="cls-3" points="256 61.22 261.53 78.22 279.41 78.22 264.94 88.73 270.47 105.74 256 95.23 241.53 105.74 247.06 88.73 232.59 78.22 250.47 78.22 256 61.22"/><polygon class="cls-3" points="212.63 94.61 218.15 111.61 236.03 111.61 221.56 122.12 227.09 139.13 212.63 128.62 198.16 139.13 203.68 122.12 189.22 111.61 207.1 111.61 212.63 94.61"/><polygon class="cls-3" points="299.38 94.61 304.9 111.61 322.78 111.61 308.32 122.12 313.84 139.13 299.38 128.62 284.91 139.13 290.44 122.12 275.97 111.61 293.85 111.61 299.38 94.61"/><polygon class="cls-3" points="282.68 144.69 288.21 161.7 306.09 161.7 291.62 172.21 297.15 189.22 282.68 178.71 268.21 189.22 273.74 172.21 259.28 161.7 277.15 161.7 282.68 144.69"/><polygon class="cls-3" points="229.32 144.69 234.84 161.7 252.73 161.7 238.26 172.21 243.79 189.22 229.32 178.71 214.85 189.22 220.38 172.21 205.91 161.7 223.79 161.7 229.32 144.69"/></g></svg>