<svg id="Слой_1" data-name="Слой 1" xmlns="http://www.w3.org/2000/svg" xmlns:xlink="http://www.w3.org/1999/xlink" width="512" height="512" viewBox="0 0 512 512"><defs><style>.cls-1{fill:none;}.cls-2{clip-path:url(#clip-path);}.cls-3{fill:#d80027;}.cls-4{fill:#0052b4;}.cls-5{fill:#f0f0f0;}</style><clipPath id="clip-path"><rect class="cls-1" width="512" height="512"/></clipPath></defs><title>Vector Smart Object</title><g class="cls-2"><path class="cls-3" d="M512,256c0,141.38-114.62,256-256,256S0,397.38,0,256L256,0C397.38,0,512,114.62,512,256"/><path class="cls-4" d="M256,256V0C114.62,0,0,114.62,0,256Z"/><polygon class="cls-5" points="222.61 149.82 191.34 164.53 207.99 194.81 174.04 188.31 169.74 222.61 146.09 197.38 122.45 222.61 118.14 188.31 84.19 194.81 100.84 164.53 69.58 149.82 100.84 135.12 84.19 104.84 118.14 111.33 122.45 77.03 146.09 102.26 169.74 77.03 174.04 111.33 207.99 104.84 191.34 135.12 222.61 149.82"/><path class="cls-4" d="M146.1,102.16a47.66,47.66,0,1,1-47.65,47.66,47.65,47.65,0,0,1,47.65-47.66"/><path class="cls-5" d="M146.09,175.21a25.39,25.39,0,1,1,25.4-25.39,25.42,25.42,0,0,1-25.4,25.39"/></g></svg>