<svg id="Слой_1" data-name="Слой 1" xmlns="http://www.w3.org/2000/svg" xmlns:xlink="http://www.w3.org/1999/xlink" width="512" height="512" viewBox="0 0 512 512"><defs><style>.cls-1{fill:none;}.cls-2{clip-path:url(#clip-path);}.cls-3{fill:#d80027;}.cls-4{fill:#f0f0f0;}</style><clipPath id="clip-path"><rect class="cls-1" width="512" height="512"/></clipPath></defs><title>hongkong</title><g class="cls-2"><path class="cls-3" d="M256,0C397.38,0,512,114.62,512,256S397.38,512,256,512,0,397.39,0,256,114.62,0,256,0"/><path class="cls-4" d="M282.43,193.67c-5.82,24.2-16.15,19.58-21.23,40.69a55.66,55.66,0,0,1,26-108.23c-10.15,42.21.41,45.9-4.79,67.54"/><path class="cls-4" d="M204.89,211.6c21.21,13,13.63,21.42,32.13,32.76a55.65,55.65,0,1,1-94.88-58.18c37,22.69,43.77,13.78,62.75,25.42"/><path class="cls-4" d="M198,290.89c18.93-16.16,24.58-6.35,41.09-20.44a55.65,55.65,0,0,1-84.66,72.26c33-28.18,26.63-37.37,43.57-51.82"/><path class="cls-4" d="M271.25,322c-9.52-23,1.56-25.34-6.74-45.39a55.65,55.65,0,1,1,42.56,102.84c-16.59-40.1-27.3-36.88-35.82-57.45"/><path class="cls-4" d="M323.45,261.88c-24.81,1.94-23.62-9.32-45.26-7.62a55.66,55.66,0,0,1,111-8.7c-43.28,3.39-43.52,14.58-65.71,16.32"/></g></svg>