<svg xmlns="http://www.w3.org/2000/svg" width="1780" height="900" viewBox="0 0 1780 900"><title>Artboard 1</title><path d="M355.8,213.2c-.1,1.8-1,1.7-1.7,3s-.8,2.4-1.3,3.5a29,29,0,0,1-4.7,6.2c-1.4,1.5-1.6,1.4-3.8,2.4s-2.4,2.4-4.1,3.5-2.7.6-3.7,1.4-1.4,2.7-2.7,3.7-3.1.6-4.4,1.5-1.7,2.3-3,2.8-3.3-.2-4.9.1-3.4,1.4-5.3,1.7a38.5,38.5,0,0,0-4.9.7,32.2,32.2,0,0,1-6.2.2c-2.1,0-4,1.4-5.9,1.2s-3.7-1.9-6-2-2.7.8-4.3.6-4-.7-5.7-1-2.9-1.1-4.8-2-4.5-.8-6.5-1.8-2-2.5-3.3-3.3-3.7-1.3-5.3-2.5a97.8,97.8,0,0,1-8.7-8.3c-.9-.9-2.5-1.4-3.2-2.3s-1.5-3.4-2.7-4.9-3.1-2.4-4.2-3.9-.9-4.2-2.1-6.2-2.1-1.4-2.7-3.2.1-3.4-.4-5.1-1.7-2.8-2-4.8l-1.2-5.9a41.7,41.7,0,0,1-.6-10c.1-3,1.3-4.9,1.7-7.8.2-1.3-.5-2.1-.5-3.1s1-2.6,1.6-4.4c1.2-3.5,1.7-5.9,3.8-8.9s2.7-6.1,4.8-9a78,78,0,0,1,6.1-8.1c1.9-2.1,4.4-3.6,6.3-5.4s1.7-2.7,2.8-3.6,3.4-1.1,5.5-2,2.7-2.6,4.3-3.3,3.1,0,4.8-.5,2.4-1.8,3.8-2.3,4.2,0,6.4-.2,3.3-1.5,5.1-1.9,3.2.4,5.2.6,4-.5,6-.5,4.8,1,7.3,1.1a46.3,46.3,0,0,1,21.7,7l4.5,3.2a19.7,19.7,0,0,1,3.8,3.1c2.4,2.2,4.5,4.3,6.9,6.7s5.1,5,7,8.6c1.1,1.9,1.7,3.4,2.9,5.2s1.6,3.8,2.5,6.4,2.1,5.6,2.8,8.3a35.9,35.9,0,0,1,1.2,4.7c.1.5-.8,1-.7,1.5s.8,2.1.9,2.8-.7,3.7-.4,5.1,2,2.1,2.3,3.5-1.6,5.5-2.3,7.7-1.7,6.4-2.7,9.6a20.9,20.9,0,0,1-2.3,5.4C358.1,208.8,355.8,212.4,355.8,213.2Z" style="fill:#ff665e"/><path d="M354.8,213.2c0,1.1-2.7,5.6-3.3,6.5a24.3,24.3,0,0,1-4.2,5c-2,1.9-3.9,2.4-6.2,4.1s-2.9,4.3-4.7,4a5.3,5.3,0,0,1,.6-1c-1.4.1-4.5,4-5.6,4.7s-4.6,3.1-6.5,3.6c-4.3,1.1-9.9,2.1-14.1,2.7a20.6,20.6,0,0,1-4.4.4c-2.4,0-6,.9-8.3.5-.6-.1-.6-.5-.8-.5s-1.4-.9-2.1-1-2.7.7-4.4.7c-7.5,0-14.9-4.4-21.2-7.9a59.8,59.8,0,0,1-15.2-11.8A78.3,78.3,0,0,1,243,206.7c-2.9-5.6-4.4-12.2-5.7-18.7-2.9-13.8,2.8-26.5,8.3-38.4s18-22.3,30.7-26.4,28.5-5.5,41.8-1.2c7.3,2.3,12.9,4.4,19.1,9.4s12.1,10.7,16.6,18.1c3.4,5.6,6,10.8,7.4,17.3a52.9,52.9,0,0,1,.8,8c.3,3.8,2.2,7.7,2.3,11.4s-2.9,10-4.1,14.6c-.6,2-.6,3.7-1.6,5.7s-2.7,3-3.1,4.7c-1.4,5.6,2.1,1.3,3.6-1,3.3-5.4,5.1-13.2,6.7-19.3s-.6-11.3-1.2-17.5a54.9,54.9,0,0,0-6.2-20.9c-3.8-7.4-8.4-12.6-14.1-18.3a59.3,59.3,0,0,0-40.9-16.9c-3.4-.1-7.6-1-10.8-.5s-5.6,1.4-8.7,1.7a49.9,49.9,0,0,0-11.9,3.2c-1.2.5-2,1.9-3.1,2.5s-4.9.9-6.9,2.5-4.1,4.5-6.4,6.4-6.2,6.8-8.9,10.4A69,69,0,0,0,236.5,164c-1.5,5.2-1.8,11.4-2,17-.3,7.4,2.4,14.2,4.1,21.2,1,4,2.6,9.1,5.3,12.4,1.3,1.6,3,2.2,4.2,4s1.7,3.4,3.3,5.1a52.6,52.6,0,0,0,6.4,6.1,68.5,68.5,0,0,0,19,11.5,47.9,47.9,0,0,0,11.8,3.2c1.9.3,3.7-.6,5.3-.4s2.5,1.5,3.9,1.8,4.5-.4,6.8-.5a80.7,80.7,0,0,0,13.8-2.1c3.1-.6,6.7-.6,9.6-2s5.4-4,8.1-5.8c4.4-2.9,9.6-5.8,13-9.4a23.8,23.8,0,0,0,5.5-7.7c.1-.4,2.1-3.2,2-3.8S354.6,211.1,354.8,213.2Z" style="fill:#00416d"/><path d="M347.7,209.2a43.2,43.2,0,0,1-2.6,5.3,25.4,25.4,0,0,1-5.9,6.7c-5.1,3.8-11.6,8.6-17.7,10.7a63.3,63.3,0,0,1-18.8,3.1c-3.1,0-6.3-.6-9.3-.5-1.4,0-5,1.4-6.3.3s1.7-.7,1.7-.8-5.9-1.2-6.7-1.5a64,64,0,0,1-6.5-2.9,54.1,54.1,0,0,1-15-11.8c-3.4-3.7-6.8-7-8.9-11.4a118.2,118.2,0,0,1-4.9-12.4c-6.4-19.2,2.8-41.4,17.2-54.4,1.4-1.3,2.8-3.3,4.3-4.3s4.8-2,6.7-2.9c5.2-2.6,10.5-3.3,16.1-4.2,10.7-1.6,22.5-.9,32.5,3.8,12.7,5.9,22.5,17.7,27.8,30.4,2.4,5.8,2.2,10.8,3.2,16.6s.7,11-1.8,17.7c-.5,1.3-5.2,12.9-4.8,13.2,3,1.8,6.2-10.7,6.8-12.3,1.9-4.7,3.6-8.6,3.2-13.8s-1.1-9.4-1.9-13.9c-4.7-24.5-26.4-42.6-50.8-44.5a66.7,66.7,0,0,0-28.4,3.3c-9,3.3-15.9,9.8-21.7,17.3-13.4,17.3-17.1,42.6-5.6,61.8,6.3,10.5,16.9,21,28.4,25.5a65,65,0,0,0,26.3,4.3,58.4,58.4,0,0,0,11-1.6c2.5-.6,5.6-.4,8.1-1.4s8-5,10.9-7.5,8.7-4.8,11.7-9.6a21.5,21.5,0,0,0,2.1-4.6c.4-.9,2.2-2.7,1.6-3.7S347.6,207.4,347.7,209.2Z" style="fill:#00416d"/><path d="M328,166c5.5-4.8-2-10.1-4.9-13.8-4.4-5.7-6.8-10-14.7-10.2s-7.6,4-11.8,8.1-6.4,8.4-2.8,14.4,6.1,9.7,8.3,15.8,8.4,13.4,3.8,18.4c-2.3,2.4-4.2,2.5-6,5.9a54.6,54.6,0,0,0-3,7c-1.9,5.5-4.3,12.7-11.6,9.3-4.3-2-7.3-6.8-10.6-10.1-1.7-1.6-3.8-3.3-4.6-5.5s2.1-4.6,1.6-6.8-3.9,2.4-4.1,2.9c-.9,3.1.7,5.4,2.5,7.7,3.3,4.2,8,9.7,12.5,12.5s10.2,2.6,13.4-2.3c2-3.1,2.6-7,4.1-10.3s3.5-5.3,6.3-7.8c5-4.4,3.1-9.5.5-15s-3.9-13.1-8-18.5c-2.1-2.6-4.9-5.2-5.1-8.8s2.2-5.2,4.9-7.5c4.7-4.3,4.1-8.6,12-7.2s8.9,6.6,12.9,11.1c1.4,1.6,3.9,3.8,4,6C327.7,161.7,325.5,168.1,328,166Z" style="fill:#00416d"/><path d="M315.8,137.9c-7.6,4.7-14.5,10.7-14.4,20.2.1,4.5,1,7.7-1.7,11.7s-5.4,5-7.5,8c-5.2,7.1-8.3,17.8-10.8,26.2a24.8,24.8,0,0,1-5.7,10.1c-.9,1.2-5.6,8.6-1.7,5.9.7-.5,2.5-3.8,3.2-4.5s2.8-2.6,3.8-4.1c2.4-3.8,2.7-8.8,4.3-13.1,3-7.7,5.5-16.1,11.3-22,2.7-2.8,5.5-5.5,6.7-9.3s-.1-7.8.4-11.8,3.8-8.2,7.1-11.1c1.3-1.2,4.4-2.5,5.1-3.9C315.9,140.3,318.5,136.3,315.8,137.9Z" style="fill:#00416d"/><path d="M324.1,142.3c-7.7,4.6-14.6,10.7-14.4,20.2,0,4.5.9,7.6-1.8,11.7s-5.3,5-7.5,7.9c-5.1,7.1-8.3,17.9-10.8,26.2a26.1,26.1,0,0,1-5.6,10.2c-1,1.1-5.7,8.6-1.7,5.8.7-.4,2.5-3.7,3.2-4.5s2.7-2.5,3.7-4.1c2.5-3.8,2.7-8.8,4.3-13,3-7.7,5.5-16.1,11.4-22.1,2.7-2.8,5.5-5.4,6.6-9.2s0-7.9.4-11.9,3.8-8.1,7.1-11.1c1.3-1.1,4.4-2.4,5.2-3.8S326.8,140.6,324.1,142.3Z" style="fill:#00416d"/><path d="M570.7,397.5c-2.5,4-9.5,2.1-13.3,1.9s-8.1,1.5-13.1,3-9.3,0-13.9,1.3-7,4.6-1.4,4.9,10-1.6,15.1-1.1a74.9,74.9,0,0,1,17.5,3.8c2.3.7,5.2,1.3,7.3,2.5s1.7.7,1.5,3.5c-.4,5.4,1.5,9.6,1.9,15.1.2,2.9,1.1,12.4-1.4,13.4s-5.1-.6-6.9-.2a25.6,25.6,0,0,0-7.4,2.8c-4.3,2.3-8.3,5.1-12.7,7.2s-11,5.9-15.7,6.1-3.1-1.7-4.3-4.9c-1.9-4.8-7.4-8.5-10.5-12.7a92.3,92.3,0,0,0-8.3-10.4c-1.9-2-7.3-8.4-10.5-7.4-7.2,2,11.2,15.2,13.1,17,3.4,3.3,5.7,7.3,7.9,11.5a39.6,39.6,0,0,0,3.1,5.2,11.4,11.4,0,0,1,1.8,6c-3,0-5.9-.6-8.9-.8s-7.2.8-11,1.2c-7.4.9-6-6.6-10.4-10.6-2.3-2-4.2-3.1-6-5.8s-3-5.7-5-8.1c-4-4.6-9.9-6.1-11.5-12.7-6.8,1.5-1.2,10.2-.3,14.1,1.4,6.5,1.1,6.8,7,8.7s5.9,5.4,8.4,10.1c1.4,2.8,3.5,3.9,5.5,6.1s2,2.3-1.2,2.4H482c-3.5-.1-6.5,1.9-10,2.3-5.4.5-14.2-2.2-16.4-7.8-1-2.6,0-5.1-.2-7.7s-1.8-5.8-3.2-8.8c-2.9-6.1-3.5-12.6-3.7-19.3-6.5,6.2-6,22.2-1.1,29.5,1.9,2.7,8.1,5.5,2.2,5.4s-11-3-15.1-4.6-4.7-5.8-8.2-8-5.7-.4-6.4-5.3,3-10.7,4.8-14.3,5.5-7.8,7.8-12.1c-5.4,1.3-12.8,5.7-15.7,10.6-1.9,3.2-1.5,7.2-2.7,10.6-1.7,5.3-2.2,6.8-1,12.4.6,3.1-.4,6.1.1,9.1s2.9,4.7,3.9,7.9c2.9,8.3.8,17.8,2.6,26.2,1.4,6.4,7.7,9.4,8.6,16.2,1.1,8.8,2.4,14.7,7.6,22.2,4,5.7,9.2,10,11.6,16.7,1.1,3.1,1.6,6.2,4,8.6s6,4.3,8.5,7.7c4,5.5,5.8,12.3,10.8,17s9.7,5.8,11.7,13.6,7.5,10.9,10.4,17.3,1.5,15.1,5.4,22.5c1.9,3.6,3.6,6.8,3.9,10.9s-.9,6.5-.4,9.6,3,5,5.2,7.5,4.2,7.9,5,12.5c1.4,7.5.3,16.1,4.7,22.7s8.4,11.7,9.7,19.8-2,15.3.1,22.6,10.2,15.6,7.5,22.1c-.7,1.7,1.5.8-1.2,1.7-.4.1-3.8-.7-4.7-.7a104.3,104.3,0,0,1-12.5,0c-2.8-.2-5.5.6-8.3.4s-7.5.6-8.7-.2-1.3-7-1.2-9a28.2,28.2,0,0,0-2-10.3c-3-8.3-3.2-15.8-2.9-24.5s-.4-13.9-4.8-20.9c-5.6-8.8-4.3-14.7-4-24.7.2-6.9-.8-13.9-4.2-20s-8.2-11.8-8.9-20.3c-.3-3.4.1-7.4-1.3-10.6s-3.8-3.8-6.1-5.8-2.7-4.7-3.2-8.5-2.2-5-4.4-8c-8.5-11.6-18.4-24.2-30.4-32.5-6.9-4.8-9.9-7.6-12.9-15.5s-8.1-9.1-13.9-13a89.4,89.4,0,0,1-20.2-18.1c-4.9-6.1-8.6-13.4-15.7-17.3-3.9-2.1-7.4-3.5-10.8-6.6s-5.9-5.7-10.2-7.4-6.8-1.4-9.4-4.1-3.8-6.5-6.7-9.2c-6-5.8-15-9.5-22.5-12.7s-19.1-8-28.6-8.3c-4-.1-7.4,1.1-11,2.7s-7.1,2-11.3,2.6c-7.3,1.1-12.1,8.5-16.6,13.8,8.1-.3,12.2-5.6,19.3-8.1,3.8-1.4,7.2-.9,11-1.3s6.7-2.3,10.2-2.9c12.6-2.3,29.4,11.5,36.3,21.1,4.3,5.9,5.7,13.5,6.2,20.6.7,10.1-6.1-2-8.3-5.2-3.5-5.3-7-8.8-13.5-9.9s-17.7-4-21.9.1A53.6,53.6,0,0,0,292,503.9c6.6,2.5,9.1,4.8,14.1,9.6s9.6,5.3,12.1,10.2,1.1,9.2-1.9,13.2c-4.4,6-1.9,8.8-2.4,15.6s-5.8,7.7-8.8,12.1-2.3,9.5-9.2,12.5c-2.3.9-5,1.4-6.9,3.3s-2,4.7-6,5c.7-9.5,3.2-19,2.7-28.6s-8.1-18.1-14.6-24.2c-3-2.8-7-3.7-10.2-6.1s-3.6-6.1-6.4-8-5.9.2-4.7,4.1,4.9,6.7,7.4,9.4c5.3,5.7,10.1,15.4,12,23,.9,3.9,1.2,7,2.6,10.8s1.7,10.2,3.3,15.3,3,4.8-2.1,7.9c-3,1.8-5.2,4.6-8,6.7-1,.8-8.8,5.8-9.7,5.2-3.1-1.7.2-9.1.9-11.5,1.4-5,.9-8.9.1-13.9s1.2-9.4.4-13.8-3.6-6.1-5-9.2-2.4-7.6-6-11-3.6-4.8-5.5-7.8-2.3-3.8-5.6-1.9c-5.9,3.2,4,12,6.6,15.9a53.4,53.4,0,0,1,8.5,23.7c.9,8.9-2.4,17.4-1.7,26.1.2,3.1,1.7,4.9-.2,7s-9,2.2-11.9,3.5-4.1,3.3-4.8.7,4-7,5-10-.4-8,.2-12,3.8-8,3.7-12.3c0-.8-.5-3.7-1.3-4.5s-2.3-.3-3.5-1.3c-4-3-.8-7.9-3.6-11-1.4-1.6-5.5-2.3-7.5-1.5-4.3,1.8-2.9,7.4-2.6,11,.3,5.6-1,10.4-1.5,15.8s1.1,9.7,2.6,14.7c3,10.1-1.5,13.7-11.8,13.2-4.2-.2-8-1.6-12.1-2.2-2-.3-4-.8-5.9-.1s-3.5,4.3-4.6,4.5c-3.1.7-2.6-2.7-3.7-5.2s-4.9-6.5-7.2-9.8-4.1-7.5-7.3-10.1-6.7-1.9-10.6-3.2c-7.7-2.7-6.4-13.4-2.1-18.7,2.1-2.7,5.2-4.6,7.6-7s5.7-7.7,8.8-11.6,5.2-4.7,8.2-6.6,10.1-4.7,12.3-8.2-1-7.8-5.3-6.2-5.2,4.6-8.5,6.5-7.2,1.6-10.1,4-4.5,7-6.4,10.4a33.1,33.1,0,0,1-6,8.4c-3.4,3.5-8,5.9-8.7,11.2-.5,3,1.3,6.4-2.1,8.1s-6.1-1-7.4-3.7-1.6-10.2-3-14.7-.3-8-.3-13.3-2-7.1,1.1-11.9,5.4-5.5,9-7.3,8.7-3.8,12.3-8.4,5.7-6.9,10-9.4,7.7-2.5,10.8-4.6,2.5-.6,1.8-3.3-2-3.2-4-3-4.1,2.4-5.5,3a56.6,56.6,0,0,1-5.9,1.5c-5.2,1.1-8.1,2.5-11.5,6.7a38.9,38.9,0,0,1-9.5,8.1,23.1,23.1,0,0,0-5.3,4c-.9,1-2.6,6.2-3.3,6.5-3.5,1.5-7-5.4-7.3-8.3s1.7-7.3,2.2-11.1,1-8.3,6.1-11.3,9.1-2.9,13.4-4.7,8.2-5.8,13.2-7,10.3.5,13.8-3.4c-4.8-.8-10.6-2.2-15.4-1.2s-7.9,3.8-12.4,4c2.8-9,9.8-13.5,16.3-19.7s11.9-12.7,20.8-5.7c4.2,3.3,6,2.4,11,3.4s6.9,4.3,10.2,6.7,7.7,2,10.9,4.3,2.8,7.8,3.9,8.3c1.9-4.4,3.6-8.5,7.2-11.7s5.3-6.6,8.5-9.3,7.7-3.2,12-3.6c6.1-.7,10.5-3,16.2-5.2s9.3-2.9,14.6-.5,9.4,2.5,14.8,3.8,7.4,4.8,11.6,7.6,8.7,2.7,13.5,3.7c10.2,1.9,12.3,12.2,21.8,15.9,4.7,1.8,8.5,3.2,11.8,7.2s5.2,6.4,10.6,8.1,6.4,4.7,9.7,8.9,7.6,5.9,10.7,9.6,3.4,7.6,6.5,10.4,8.7,4,13.1,5.2c-2.4-4.7-7.9-6.8-12.2-9.5a19.5,19.5,0,0,1-8.1-10.8c-1.8-5.2-2.6-9.7-6.7-13.6s-8.3-6.1-12-9.7-5.6-7.9-8-12.4-6.2-7.5-10-11c-7.1-6.6-6.9-16.4-14.9-22.4-5.7-4.2-9.8-7.2-13.5-13.3-6.3-10.1-12.5-16.4-23.3-21.2-4-1.8-8-3.5-10.7-7.1s-3.1-8.2-6.4-11.5-8-4.6-11.7-7.5-6-7.5-9.4-11.2c-3,4.5.7,11.3,2,15.8,2.1,7.3-.6,11.6-3.1,18.3s-2,10.6-5.9,14.9-10.1,8.5-15.2,11.8a47.7,47.7,0,0,1-16.8,7.4c-2.8.6-16,1.6-14.4-3.5.7-2,6-5.4,7.5-6.8l7.7-7.1c4.5-4.2,10.5-8.5,13.8-13.9,1.8-2.9,3.6-13.6-2.5-13.5-2.4,0-2.8,3.5-3.4,5.2s-2.2,5.1-5,6.9c-4.8,3.1-10,4.4-14.5,8.4s-9.2,10.3-14.3,14.8-10.1,7.2-16.3,5.7-12.2-6.2-18-9.6-10.3-4.2-16.3-5.2-8.3-4.5-11.4-10-7.4-6.8-13.5-8.8-9.5-6.9-12.5-12.6-7.8-11.9-12.5-17.3-9.9-11.5-8.7-18.1c5.3,1.2,9.9,4.2,14.8,6.4,6.9,2.9,12.3,2.4,19.5,1.6s11.4,1.4,17.5,1.7,8.1-2.2,11.7-5.5,9.4-6.7,15.8-8.8c2.4-.7,14.8-3.9,11.1-9.2-2.5-3.5-11.3,2.4-14.2,2.9-5.5,1-10.7-.4-16.2,1.3-16.7,5.4-52.4,11.5-61-10.1-1.9-4.7-1.5-9.9-2.5-14.8s-5.4-10.4-5.2-16.4,4.3-10.8,7.2-15.7c3.9-6.8,4.9-11,2.6-18.5,8.9-2.1,17.8-4,26.6-6.2,3.6-.9,2.9-1.1,4.6,1.4s.8,3.3,2.4,4.8,4.2,1.8,6,3.3c5,4,1,9.6,4.3,14.3,1.9,2.7,5.3,3.3,8.2,4.7s5.6,5,9,7.8.2,2,3.8,1.3,3.4-1.7,3.8-4.1a13.3,13.3,0,0,0-2.9-10.2c-2.1-2.3-5.1-3.4-6.7-6.2s-1.3-8.2-3.6-11.9-14.7-10.4-13.7-12,3.4,0,3.9-.1,2.8-1.8,4.2-2.6c4-2.3,7.2-1.3,11.6-2.2,1.2-.2,4.4-2.4,5.6-1.9s.7,3.9,1.1,4.7c1.4,2.9,4.7,3.8,7.4,4.8s7.5,1.7,9.4,4.8-.5,8.8,1.1,12.9c2.9,7.3,10.8,7.5,8.7,17-1.5,6.9-1.7,16.5,6.3,20,4.1,1.7,5.3-.4,5.7-4.3s2.2-6,2.9-9.4-2.4-10-4-14.2-3.7-11.3-6.3-16.5a35.9,35.9,0,0,0-14.7-15.2c-1.2-.6-8.5-2.9-8.7-3.8s.6-.8,1.6-1.3l2.6.8a1.7,1.7,0,0,1,1.2-1.5,79.8,79.8,0,0,1,15.3-3.1c2.6-.3,10.5-1.4,12.6.1s1.3,4.9,2,6.1,3.6,3.5,5.3,5.4,2.3,5.4,2.3,9.6c-.1,6.3,3.3,9.1,6.2,14.4s2.6,8,2.1,12.6-2.1,11.5.3,15.7,4.8,2.4,8.5,2c-.5-2.5-1.3-5.1-.6-7.7s3.3-5.2,3.6-8.8-1.9-7.1-2.9-10.7-.8-6.3-1.1-9.6c-.6-6.4-4.9-8.5-7.9-13.6-1.5-2.6-1.3-5.1-1.8-8s-2-3.9-2.4-6.1c3.7-.2,7.2,2.8,11.1,3s8.1-1.4,11.5,1.5c1.3,1.2,1.8,2.8,3.5,3.7s3.6-.1,5,.7c3.8,2,2,10.8,3,14.8s4.9,8,5.6,12.7-3.1,10.1-3.7,15.3,1.3,9.4,2,14.4-1.4,10.3,2.4,12.9c7.3,4.9,12.9-10.8,14.9-15.1,3-6.2.9-8.6-.1-14.7s.6-9.8-.8-14.9a94.6,94.6,0,0,0-5.3-13.7c-1.9-4.1-6.9-10.2,1.1-7.9a62.2,62.2,0,0,1,12.8,6c3.6,2.2,5.2,5.9,8.5,8.6s7.7,4.6,5.9,10.3-4.6,7.9-4.3,13.7,1.6,10.2-.2,15.7-6.1,11.4-6.3,17.5a63.8,63.8,0,0,0,10.6-10.8c3.8-5.1,4.9-10.7,7.5-16.3.6-1.3,1.7-4.6,3.4-4.9s3.3,3.8,4.2,5.5c3.4,6.3,7,11.7,6.3,19a40.2,40.2,0,0,0-.1,8.5c.3,2.4,1.5,5.1,1.1,7.5-.7,4.8-6.8,8.1-9.3,12.2s-4.2,7.4-9.2,9.5-11.9,2.5-18,3.2c-3.1.3-4,0-4,3s2.9,5.5,4.8,7c4.2,3.6,9.8,5.5,13.9,9.1s3.7,7.4,6,11.9,8.5,6.3,13.2,8.5,9.5,4,13.2,7.5,5.7,8.2,9,12c6.9,8.3,15.5,14.2,21.6,23.2a67.1,67.1,0,0,0,12.2,13.8c4.8,4.2,5.7,8.2,8.5,13.7s7.9,9.8,11.8,14.5c2.4,2.9,4.7,5.9,6.8,9s2.6,5.5,4.9,7c-1.4-3.8-2.5-8.5-5-11.8s-7.2-5-9.5-8.7-1-7.2-1.6-11-3.4-7.6-6.7-10.8-6.4-5.8-8.6-9.8-2.7-8-4.9-11.7-5-6.8-6.4-10.8-1.5-8.8-2.6-13.1c-2-8.1-11.9-13.5-11.5-22.1s7.9-14.4,3.7-24.9,3.3-13.2,7.7-21.6c1.6-3.1,1.9-6.2,2.4-9.6a38.4,38.4,0,0,1,5.7-14.6c1.9-3.1,5.6-8.5,2.9-12.2s-8.1-2.7-11.1-4.9-4.3-5.2-7.3-7.1-7.1-4.2-10-8.4-4-4.8-2.3-8.9,2.8-8,4.6-11.8a47.1,47.1,0,0,1,5.7-9c2.8-3.5,7.1-10.2,7.4-2.3.1,4.2,0,8.1,1.7,12s3,6.8,3.4,11.5.8,6.6,3.2,9.4,9.6,8.8,10.9,4.3c.6-2-2.7-9.5-3.3-11.8-1-4.1-3.1-7-5-10.6a57.3,57.3,0,0,1-4.2-12.7c-.8-3.4-4.4-11.9-2.7-15.1s7.1-4.5,9.4-7.2a29.2,29.2,0,0,1,8.7-7.3c3.2-1.8,8.2-7.4,11.8-7.7,5.3-.5-1.9,4.3-3.2,5.8-2.9,3.4-5.6,7.9-5.5,12.5s3.6,9.8,4.6,14.6,1.5,10.6,3.4,15.9c.4,1.1,1.8,6.3,2.9,6.8s4.8-.9,6.2-1.2c-2.4-6.4-5.7-10-4-17s-2.6-13.6-1.8-21a29.3,29.3,0,0,0,.4-5.9c0-.9-.9-2.6-.7-3.5s0-.5,2-1.7c4.3-2.8,9.5-5.9,13.6-9.4s4.9-7.5,4.1.9a95.7,95.7,0,0,0,.7,22.7,50.8,50.8,0,0,0,2,9.4c.8,2.7,2.9,5.4,3.5,8.1,1.4,6.9-5.2,11.2,5.1,10.7-.6-5.1-1.4-8.1.9-12.9s.2-10,1.2-16,5-7.4,5.4-12.3-.9-8.1,3.6-12c.5-.5,3.4-4,3.9-4.1s5.3,1.6,6.4,1.7,13.9-.7,15,1.5-4.2,3.4-5.6,4.8a29.8,29.8,0,0,0-7.3,13.5c-1,3.9-4.5,13.4-2.1,17.1s5.7-2,5.8-4.9c.2-5.4,2.1-6.1,5.1-10.2s3-11,8.1-13.3,9.5.3,13.9-.4c2.6-.5,4.8-1.5,7.4-1.5s5.9,1.3,8.9,1.5,5.1-1.3,8-1.6,2.6.9,3.1,4.5c.7,6.1,2.1,12.3-1.2,17.9s-9,10.2-13.3,14.7-9,9.2-14.8,12.4c-11.5,6.2-24.4,6.3-37.1,5.6-.3,5.4,4.9,6.5,9,7.5s9.3,3.6,14.7,1.6c9.5-3.4,20.5-5.2,28.9-11.2,3.4-2.4,7.4-8.3,11.2-9.5s3.9,5.6,3.8,8.7c-.5,10.1-7.3,14.1-15.4,18.1-4.8,2.4-7.7,4.4-13.4,3.6s-10.2-.3-15.8.3-23.5-2.9-24.9,2.8c-4.6,19.1,53.2,2.1,60.3.4-1.4,15.1-25.6,22.7-38.6,21.5-4.4-.4-8.1-2.6-12.3-3.9a81.1,81.1,0,0,0-13-2.7c-2.5-.4-7.7-1-7.7,3.2s5.5,5,7.3,5.8c3.6,1.6,19,1.5,18.4,6.3-.9,7.7-17.3,4.2-21.6,3s-7.4-4.4-10.2-3.9-5.4,4-4.1,6.5,8.7,3.1,11.9,3.5a24.5,24.5,0,0,1,10.9,4.1c-9.1,7.5-26.4,12.6-38.2,11-6.1-.8-10.8-5.3-15.7-8.7s-9.5-8.4-11.2-15.7c-3.2,2.8-5.1,10.9-6.8,14.9s-4.4,10.2-6.4,15.4-3,9.1-1.5,14.8.8,8.1-1.8,13.6c-5,10.4,4.3,17.3,7.8,26.6,1.6,4.2,2.4,8.7,4,12.9s6,9.3,7.8,14.6c1.2,3.6,1.4,7.2,4.8,9.6s8,2.2,11.2,5.2c6.7,6.1,1.5,15,6.1,21.6,2.8,4,7.1,5.5,9.4,10.1s2.6,8,4.3,11.9a75.2,75.2,0,0,0,7.4,13.3c2.2,3,5.5,8.8,9.1,10-.9-10.6-6.3-21.8-8.9-32.1-1.5-5.9.4-11.5-1.3-17.1s-4-10.5-3.8-17c.3-10.7,3.6-23.5,8.1-33.2s16.1-6.9,23.4-11.6c-4.7-3.8-5.6-12-7.3-17.5-.9-3.1-2.3-6.6-2-9.9s2-7.1,2.8-10.4c1.3-5.9,6.8-5,9.4-10.1s2.6-9.1,10-10.9c3.1-.8,5.8-1.5,8.5-3.4s4.2-3.7,6.8-4.7,5.3-.7,8.2.4c4.7,1.8,6.4,1.2,11.4,1.4s7.9,5.2,13.3,5.4c1.7.1,17.5-.8,13.4,3.5-1.1,1.2-6,.9-7.8,1.4a36.8,36.8,0,0,0-8.3,3.3c-5.9,3.1-10.3,8.1-14.4,13.4-1.2,1.6-4.2,5-3.7,7.3s3.5,2.5,5.3,1.2,2.8-4.2,5.3-5.7,6.4-2.6,9.4-4.5c6.4-4,10.7-7.1,18.6-6.9,5.7.2,17.1-.6,21.6,3.5,6.3,5.9-7.7,6.9-11.4,7.5-7,1-13.5,2.4-19.4,6.5-3.4,2.4-12,12.1-2.4,9.3a150.2,150.2,0,0,1,25.1-4.7C541.6,384.7,566.7,381,570.7,397.5ZM213.5,246.7c.1,2.8-.1,6.1,1.1,8.7s4,4.6,5.7,7,3,6.7,3.2,10.8,1.7,8.5,3,13a13.9,13.9,0,0,1-.6,10.6c-1.8,4.1-1.4,6-1.7,10.4-.6,10.1-10.2,5-12.2-2s2.3-16.5-.6-24.3c-1.3-3.5-4.1-6.1-5.8-9.4s-1-7.6-1.7-12.1-3.1-4.7-5.3-7a13,13,0,0,1-3-4.7c-.3-.8-.4-3.2-1-3.7-2.4-1.9-11.4-.4-14.3.1s-7.9,2-11.8,3c1.1,2.4,7.3,4.3,9.5,6.1a40,40,0,0,1,7.3,8.1c4.7,7.3,7.1,16.3,10.1,24.4,1.4,3.9,3.5,8,2.7,12.3-.4,1.8-1.7,3.5-2.1,5.4s-.2,4.7-1,6.6c-3.2,7.5-11.8.6-14.4-4.1a18,18,0,0,1-2-11.4c.5-3.7,2.2-7,.6-10.7s-5.6-5-7.6-8.3-.6-6.8-.9-10.8c-.6-7.4-11-6.4-15.5-10.6-.6-.5-2.7-4.6-2.9-4.7s-6.7.8-7.5.9c-5,.4-8,1.9-12.2,4.7,4.5,2.9,9.8,5.5,12.1,10.6s1.4,9.6,6.5,14.2,5.5,7.6,6.1,13.9-.9,10.9-7.4,7.4c-2.5-1.4-3.7-4.5-5.7-6.4s-4.3-3.1-6.9-4.4c-4.5-2.1-9.6-4.1-10.2-9.8s1.5-7.6-4-10.4-6-3.6-7.2-8.7c-8.7,2.1-18.4,3.2-26.8,6.1,4.7,12.5-9,20.4-10,31.8-.6,6.5,3.5,12.3,4.6,18.6.9,4.5.8,9.2,2.8,13.5,4.8,10.4,17,12.2,27.3,12.9,6.7.4,13.6.4,20.2-1s11.5-4.1,17.7-4.7,9.9.2,15.3-2.2c3.8-1.6,10.8-3.2,11.1,3.1s-7.9,7.7-12,8.8-10,2.9-14.5,6.8-6.9,6.7-12.2,7.4-11.7-2.3-17.9-1.8-11.6,2.4-18.1.4-10.3-5.8-16-7.3c2.5,10.5,12,17.2,17.6,26.1,2.7,4.4,4.5,9.8,8.4,13.4s7.6,4,11.9,5.6c6.2,2.5,7,6.6,10.3,11.9s5.6,4.9,10,5.6a39,39,0,0,1,15.2,5c5,2.9,10,7.1,15.5,9,12.9,4.2,21.4-9.9,29.3-17.5a46.7,46.7,0,0,1,12.8-8.7c5.2-2.5,6.6-3.9,8.8-9.2s4.4-7.6,8.6-2.8,2,12-1.9,16.6c-7.7,9.2-17.9,16.6-26.5,25,6.8,5.5,18.8-.5,25-4.1s15.5-9.1,19.5-15.4c2.5-3.9,3.1-9.4,4.7-13.8s3.8-9,3-14.1c-1.1-6.9-6.8-14.6-1.6-21.1s15.4-5.5,22.6-6.8c4.1-.8,9.3-1.5,12.8-3.9s4.1-6,6.2-9.1,6.1-5.3,7.1-8.8-.9-9.6-.6-13.9c.6-9.1-2.9-17.1-8.3-24.6-3.7,4.8-4.2,11.3-7.3,16.4s-8.3,10.3-12.9,14.7-3.7-.8-2.4-5.1c1.8-6.3,5.7-12.2,6.3-18.8s-2-11.8-.1-17.5c1.5-4.1,6.3-8.2,3.1-12.6-1.1-1.6-3.5-2.3-5.1-3.4s-3.4-3.8-5.3-5.8c-3.8-4.1-11.1-7-16.5-8.6,1.9,7.7,7.1,14.3,8.6,22.2.9,4.3.1,8.6.9,12.9s2.3,7.1,1.3,11.1c-1.4,5.9-6.9,18.2-12.7,20.9-8.7,4-9.7-6.8-10.2-12.6-.8-8-3.4-14.7-.5-22.6,1.3-3.7,3.3-6.8,2.2-10.8s-4-6.4-5.2-10-.1-8.4-1.3-12.3-3.6-1.1-6.8-3.1-3.4-4.8-7.1-5.5S218.2,248.9,213.5,246.7Zm71.8,334.7c4.7-5.1,12.4-4.9,15.5-11.2,1.5-3.2,2.2-6.2,4.7-8.9s5.2-3.9,6.1-7.3-.9-6.9-.8-10.4,2.5-5.6,4.8-8.7c5.2-7.3-.4-12.3-6.1-16.4s-9.5-9.7-16.6-12.3a67.9,67.9,0,0,1-11.3-5.2c-2-1.2-9.1-4.5-9.1-7,.1-7.1,19.4-2.8,23.2-2.2s8.7,1.3,12.1,5.1,5.3,7.5,8.2,11c2.2-9.5-5.1-19.4-11.5-25.2s-18.2-16.2-28.1-14.1c-4.8,1-8.6,2.9-13.6,3.3s-8,.7-12.2,3.3a41.7,41.7,0,0,1-13,5.6c-3.7,1.1-5.3,3.9-9.1,3.3a27.1,27.1,0,0,1-5.8-2.1c-3.2-1.7-1.4-1.3-2.1-4.6s-3.2-4.3-6.8-5.6-7.4-4.6-11.3-7.4-7.8-1.5-12.2-3.1-5.8-6.3-10.2-6.6-7.1,3.7-9.7,6.7c-5.7,6.7-14.7,9.9-17.5,18.9,4.8-2.3,8.8-4.7,14.2-4.2s9.3.5,13.9.8c-1.6,7.5-10.3,6.7-16.1,8s-11.2,6.5-17.7,8.3-11.9,2.7-13.7,9.4c-1.4,5.2-5.6,17.9,1.6,20.2,2.7-6.3,6.6-8.2,12-11.9s7.7-9.6,13.2-11.8c3-1.2,6.2-1.2,9.2-2.2s6.3-3.1,9.5-3.5c7.4-.8,8.4,5.8,2.6,9.1s-10.8,4.2-15.4,7.8-7,10.1-12.9,13.1-11.1,3.7-14.3,9c-2.1,3.5-1.1,5-.7,8.6s-1.5,7.3-1,11,2.1,5.3,2.8,8.1-.3,8.5,1.1,9.6,5.6-.4,6.4-2.4.6-4.9,3.2-7.7c3.7-4.3,8.3-6.9,11.1-12.1s4.4-11.3,11-14c3-1.2,5.6-1.3,8.2-3.4s3.4-4.1,6-5.3c4.6-2.1,13.4-1.3,11.1,5.5s-10.8,9.2-15.2,12c-6.4,4.1-8.9,9.6-13.7,15.2s-10.6,7.5-12.8,14c-1.1,3.2-.9,8.8,2,10.8s7,.8,9.8,2.2,5.5,4.8,7.7,7.8c4.3,6,8.8,11.1,11,18.3,2.6-1.7,4.1-3.9,7.4-4.5s6.6.9,9.7,1.7c4.9,1.2,15.4,3.1,17.8-3.1,1-2.8-1-6.5-1.9-9.1a29.6,29.6,0,0,1-2-11.8c.2-4.2,1.8-8,1.7-12.3s-.8-7-.4-10.4c.7-6,7.1-11.7,12.4-5.9,2.3,2.5,1.8,5.8,3,8.8s3.4,3.1,5.3,5.4c4.7,5.5-1.4,12.4-1.9,18.3-.4,3.2.8,6.6.3,9.8s-3.3,5.7-4.6,9.2c3.1-.6,8.4-.6,10.9-2.8s1.3-4.9,1.1-8.5c-.4-8.1,3-15.6,2.1-23.8a51.8,51.8,0,0,0-7.8-22.3c-3.1-5-12.5-12.5-8.3-19.1s9,2.1,11.2,5.7,5.1,4.5,7.1,7.3,2.3,6.6,4,9.7,4.1,5.4,4.5,8.9-1.2,8.7-.5,13.2,1.5,7,.9,10.7-2.5,7.9-3.1,12c3.8-.1,6.7-2.7,9.5-5s8.9-5.5,9.4-6.7-2.6-9.6-2.9-12.1c-.4-4.5-2.6-6.8-3.8-10.9s-.5-7.2-1.8-10.8a97.2,97.2,0,0,0-5.6-12.8c-3.7-6.5-11.7-10.2-13-18.1-.5-3.1,0-6.2,3.7-6.5s5,3,6.7,5.4c4.4,6.4,11.8,8,16.9,13.9s11.5,12.6,12.5,20.5S286.6,572.8,285.3,581.4ZM434.4,414.7c-1.2-.5-4.1,1.5-5.5,2s-6.2.9-9,1.9c-5.1,1.8-5.7,6.5-6.9,11.2-1.9,6.8-4.2,13.6-5.4,20.6s.4,13.8,3.3,21.2c2.3,5.7-.5,10.8.9,16.6,1.8,7.6,4.1,15.2,6.3,22.8.6,1.9,5.9,15.1,2.3,14.8s-10-10.7-11.8-13.3a74.9,74.9,0,0,1-8.4-15.5c-2.4-6.1-3.3-11.4-8.5-15.7s-6.1-6.9-6.2-12.9-.9-11.1-7.2-14.2c-4.7-2.4-9.2-2.7-11.5-8.1-1.1-2.7-1.4-5.6-2.8-8.3s-4.2-6.4-5.7-10c-2.5-5.6-3.4-11.8-5.9-17.5s-8.5-11.2-8.7-17.9,6.4-10.9,4.2-18.6-1.2-12.2,1.8-19.6,6.8-15.2,10-22.9c2.2-5.4,5.5-12,2.9-17.7-1.4,6-5.9,10.4-8,16.2s-1.3,11.5-4.3,16.9-8.4,8.3-8.9,13.9,5.2,10.9,2.7,18.4c-1.6,4.8-5.1,9.2-4.3,14.6s6.6,9.3,9.4,14.4,2.2,9.7,3.4,14.6,6.2,10.6,8.6,16.4,3.7,10.7,8.1,15.4,9.6,7.7,10.8,14c.9,4.6-1,8.7,2.4,12.7s8.9,7,11.4,13.5,4.2,10.1,7.6,14.6c.9,1.2,3.2,3,3.1,4.7-.1,3.4-2,2.4-3.9.8-4.1-3.4-7-10.3-9.8-14.7a131.3,131.3,0,0,0-11-15.5c-3.8-4.6-8.6-8.3-11.2-13.7s-3.9-9.5-9-13.4-8-8.4-11.4-13.7-7.4-8.2-12.5-12.1c-8.2-6.2-11.7-17.8-20.2-24.1-4.9-3.6-10.9-5.1-16.4-7.7-2.2-1.1-5.1-2.2-6.7-4s-1.6-5.4-2.5-8.3c-1.7-5.5-7.2-7.9-11.7-10.8-2.4-1.5-5.2-3-7.3-5.1s-2.5-5.3-4.2-7.3,1.1-1.5-2.5-1.1a10.1,10.1,0,0,0-3.2,1.9c-1.1,1.8-.4,2.4.6,4.2A28.4,28.4,0,0,0,273.8,381c4.6,2.5,8.4,4.3,10.6,9.3s3.3,8.3,8,11c9.6,5.5,18.8,8.5,25.5,18,3.7,5.2,6,11.1,10.9,15.5s10.2,6.4,13.3,12.1,4.5,11.3,10,16.1,7.3,9.4,11,15.5c6.6,11,20.3,14.3,23.4,27.6,1.5,6,3.4,9.4,8.7,12.8s10.8,5.7,13.2,12.2c-5,0-11-1.2-15.3-4.1s-5-7.9-8.2-11.5-8-6.2-11.2-10.1-4.3-6.1-8.4-7.9-7.4-3.1-10.8-7.4a24.5,24.5,0,0,0-11.2-8.3,24.1,24.1,0,0,1-11.5-8.2c-3-3.7-5.6-6.5-10.4-7.6s-9.2-.9-13.4-3.2-6.3-5.7-10.3-7.4-9.8-1-14.6-3.1-8.3-3.7-14.2-1.6-9.1,4.7-14.2,5.7-9.7.1-13.6,2.8-6.6,7.1-9.8,10.1-5.1,7-6.5,11.4c1,.3,4,1.8,5,1.6s3-3.2,3.7-3.9c3-3.4,6-6.9,9.2-10.1,5.7-5.8,12-3.4,18.7-6.7s13.6-4,22.4-2a109.8,109.8,0,0,1,22.7,8.1c6.7,3.1,14.8,6.8,20.5,11.7,2.6,2.3,3.4,5.2,5.4,7.8s5.4,4.1,9.1,5.2c7,2.1,10.4,8.1,16.7,11.5s11.1,6.6,16.1,13.4,9.2,12,15,17.1,13.5,8.6,19.5,13.8,5,11.2,9.1,16.2,12.8,9.1,18.3,14.3,9.1,10.7,14.1,15.7a102.6,102.6,0,0,1,7.5,8.6c3.7,4.6,3.3,6.3,4.3,11.6.7,3.1,2.1,4.2,4.4,6.2s4.1,4.3,5,8.4.3,7.7,1,11.5,3.4,8,5.9,11.7a42.6,42.6,0,0,1,7,20.4c.7,8.5-2.3,17.1,1.5,25.1s7.5,12,7.8,19.9-1.5,16.9.9,25.3c1,3.5,3.1,6.6,3.6,10.3s-.9,6.1-.3,8.9c.9,4.5,2.7,2.4,6.5,2.7s8.9-.3,13.2.5a23.7,23.7,0,0,0,9.2,0c5.1-.7,4.8-1.7,3.2-6.8-2.5-7.5-7.3-13.2-7-21.5s1.8-14.5-1.1-22.1-9.4-11.9-10.7-19.5-.5-15.9-3.9-23.2c-1.5-3.4-4-5.2-6.3-7.9s-2.4-5.5-1.8-9.7c1-7.9-2.6-12.6-5.3-19.7s-1.2-15.9-6.1-22.4c-2.2-2.8-4.7-4.8-6.2-8.2s-1.4-6.5-2.9-9.4c-3.1-5.7-10.4-8.1-14.1-13.8-2.3-3.5-3.9-7.5-6.3-10.9s-6-5.6-9.2-8.7-3.3-6.4-4.7-10-3.8-6.3-6.3-9.4c-5.1-6.1-11.5-14.6-12.6-22.7-.7-4.6.6-8.1-2.2-12.3s-4.7-4.8-5.8-8.6c-2.6-8.7.8-19-2.9-27.5-1.6-3.7-4.5-5.3-4.6-9.7,0-1.3.7-2.7.7-4.1s-1.5-4.9-1.7-7.5,1.9-6.8,2.9-10.6.2-7.1,2.5-10.4,6.6-5.9,10-7.8S434.6,418.2,434.4,414.7Zm134.4,1c-10.3-3.8-21.1-7.5-32.3-6.6-3.2.3-11.2,3.7-13.2.3s4.2-6.9,6.8-7.5c5-1.1,10-.2,14.9-1.9s8.3-3.2,13.4-2.8c2.5.2,9.9,2.7,10.1-1.5s-7.7-6.3-10.1-7.2c-10.2-3.6-21-1.7-31.3-.3-5.5.7-11,1.5-16.3,2.7-2.9.6-9.2,3.9-11.8,2.5-8.3-4.6,9.2-15.3,12.8-16.9,7.9-3.4,17.3-2.1,24.6-6.5-4.2-6.4-23.5-5.2-29.6-2.9-4.5,1.7-7.5,5.6-11.9,7.5s-7.6,3.8-11.5,8.4-6.9,5.3-8.1-1,2.9-9.1,5.8-12.6c7.6-9.2,15.6-12.6,26.4-16.4-3.9-2.1-8.8.8-13-.6s-6.4-4.8-11.2-4.9c-2.3-.1-4.4.8-6.7.4s-3.6-2-5.6-2.6c-5.3-1.5-8.5,2.1-12.5,5s-7.5,2.8-11.5,4.4-3.8,5.5-6.1,9.5-5.5,3.6-7.6,6.3-2.8,8.7-3.2,12.1,1.4,9.7,2.6,14.3,1.6,8.1,4.1,11.3,3,.7,2.7,3.2-3.3,4.5-4.1,6.2a59.9,59.9,0,0,1-5.8,10.1c-4.1,5.7-11.5,15.9-4.4,21.4,1.8,1.4,3.2,2,4.8,3.8s1.1,2.8,2.5,3.9,12.6,4.9,13.8,4c-3.5-8.2-6.9-21.4-2.1-29.9,2.4-4.3,6.2-5.4,6.3.1s.3,8.8,1.8,13.1,5.3,7.8,5.5,12-1.8,6.3,1,9.9c7.7,9.7,18.5.3,27.5,3.2-4.3-3.8-4.9-9.7-8.7-13.4s-9.1-1.5-11.3-5.5c-1-1.9-.3-4.5-.7-6.5s-2.1-5.3-2.7-8.1,1.3-11.3,6.1-8.1c1.2.8,2.3,4.8,3.6,6.2s4.2,3.2,6.1,5.1c4.3,4.1,6.3,9.7,10.6,13.8,2,1.8,4.2,3.1,5.5,5.6s.9,4.5,4.1,5.5,6.1-.2,8.9-.2,7,.5,10.4.2c-.9-2.7-3.3-5.1-4.8-7.6a80.6,80.6,0,0,0-4.8-8,60.9,60.9,0,0,0-5.4-6c-1.9-2-3.9-2.3-6-3.9s-4.5-5.5-5.6-7.2-2.7-3.2-.9-5.5c4.4-5.5,13.1,3.9,16,6.8,4.6,4.7,7.8,10.3,12,15.3,2.1,2.6,4.9,4.8,6.6,7.8s1.1,4.4,5.2,3.5c7.1-1.7,14.6-5.7,20.8-9.2s11.7-7.4,18.9-6.1c.1-5.3.5-10.6-.9-15.8S567.2,420.7,568.8,415.7ZM386,228.2c-.1,5.1-1,10.7-.4,15.7s2.7,9,2,14-.1,8.1,2.1,13.6c1.4,3.3,3.3,8.8-1.6,10.1-8.1,2.1-12-18.3-12.6-23.1a61.4,61.4,0,0,0-3.5-12.9c-2.3-6.3-1.1-10.2,1.4-16.2-2.5,1.1-5.5,2-7.6,3.6s-3.4,4.1-5.3,5.9c-4.6,4.5-8.6,3.1-6.9,9.9s2.8,13.1,5.2,19.2c1.2,3.2,3.4,5.5,4.7,8.5s1,5.7,1.7,8.6,7.9,13-.4,12.3c-4.6-.4-11.3-6.4-13.2-10.3s-.7-10.3-3.3-15.2S345,262.2,345,256c-5.6,3.6-9.3,11.9-11.4,17.8-.9,2.4-3.3,6.6-3,9.1s3.7,6.7,5.9,8.5,6,3,8.5,5.4,3.7,5.2,6.8,6.8c6.7,3.3,12.3,3,13.5,11.9.9,6.6-.6,13.1,3.3,19.1s10.4,8.9,15.5,12.4,13,3.2,19.9,1.8c3-.6,21.6-4.8,21.5-8.5-6.3-2.1-16.9-.8-21.2-6.8-2-2.6-2.5-6.5.2-9s6.6-.4,9.7,1.3,19.7,8.5,23.9,3c2.3-3.2-1.6-3.1-4-3.4-4.3-.5-8.5-1.1-12.3-3.1S408.4,310,418,308.8c3.4-.5,8.3,2.1,11.8,2.5a48.4,48.4,0,0,1,12,3.3c8.6,3.4,16.5,2.3,25-.7,6.9-2.3,17.2-5.9,19-14.1-13.7,3.4-29.4,9.9-43.7,8-4.3-.5-15.2-1.3-17.4-5.4s3.5-9.9,8.2-10.3c7.3-.7,14.3.6,21.7-.6s14.7,2,21.5-.6c12-4.8,22.1-11.4,18.2-25.9-5.4,4.6-10.4,9.5-16.7,12.8s-14.6,4.4-21.7,7.2c-3.3,1.3-6.5,2.9-10.1,1.8s-6.2-2-9.8-2.8a9.8,9.8,0,0,1-7.3-5c-1.9-3.6-1.3-4.8,1.8-5.9s8.8.4,12.1.3a48.1,48.1,0,0,0,10.7-1.2,44.7,44.7,0,0,0,19.3-9.1c6.3-5.1,11.7-11.8,17.1-17.8s5.9-15,3.8-23.7c-6.6,2.8-12.8-.3-19.5.7-2.9.4-5.5,1.4-8.5,1.3s-4-.7-5.9-.6c-6.7.3-7.2,5.6-10,10.5s-5.9,6.6-6.4,11.7c-.4,3.5.6,10.3-5.3,9.8s-4.5-7.7-4-11.5c1.5-11.7,5.5-19.2,12.7-28.1-2.6.1-4.8-.3-7.3-.4s-2.6.5-3.8.4-3-1.3-4.2-1.3c-5.7.1-7.6,6.8-7.5,11.4s-.1,5.7-1.9,8.5-3.5,3.6-3.9,6.6.9,5.8,1.1,8.6-1,5-2.7,8.4,1.8,12.7-2.7,15.6a4.9,4.9,0,0,1-6.3-1.1c-2.7-3-.6-6.8-.4-10.2.4-6.4-3.8-13.2-5.1-19.5-1.6-8.1-.8-15.8-1.1-23.9-2.8,1.5-5.6,2.7-7.9,4.9S389.5,228.3,386,228.2Z" style="fill:#03436e"/><path d="M213.5,246.7c4.2,2,8,.6,12.3,1.1s4.4,2.6,7.4,4.8c1.3,1,2.5,1,3.8,1.6,3.5,1.5,2.1-2.3,3.7,2.1s0,7.7,1,11.2,3.8,6.5,5.2,10.1-.1,7.1-1.6,10.9c-3.1,8.3-.6,15,.2,23.5.5,5.4,1,15.7,9.4,13,6.5-2.1,11.2-14.4,13.1-20.2s-.1-7.8-.9-12.2,0-7.8-.6-11.8c-1.4-8.4-6.9-15.2-8.9-23.3,5,1.5,12.2,4.2,15.9,7.8,1.9,1.9,3,4.3,5.1,6s4,1.9,5.4,3.5c3.9,4.1-.5,8-2.2,12.1-2.5,6,.4,12.2-.3,18.5s-4.2,11.8-6,17.7c-1,3.3-3.7,10.4,1.2,7.2s10.2-10,13.3-14.8,3.9-12.2,7.8-17.3c5.5,7.6,8.8,15.4,8.3,24.6-.3,4.2,1.5,9,.8,13s-4.5,5.9-6.7,8.8-3.3,7.6-6.8,10-8.6,3.1-12.8,3.9c-7.2,1.3-17.5.3-22.6,6.8s.4,14.2,1.6,21.1c.8,5.2-1.3,9.3-3,14.1s-2.1,9.1-4.2,12.9c-3.8,6.8-13.4,12.5-20,16.3s-18.2,9.6-25,4.1c8.6-8.4,18.9-15.8,26.5-25,3.9-4.6,6.3-11.4,1.9-16.6s-6.7-1.3-8.6,2.8-3.5,6.6-8.8,9.2a48.3,48.3,0,0,0-12.8,8.7c-7.8,7.6-16.4,21.7-29.3,17.5-5.2-1.7-9.9-5.6-14.6-8.4a39.7,39.7,0,0,0-16.1-5.6c-4.5-.7-7.6-1.7-10-5.6s-4.1-9.4-10.3-11.9c-4.2-1.6-8.4-2.4-11.9-5.6s-5.7-9-8.4-13.4c-5.6-8.9-15.1-15.6-17.6-26.1,5.7,1.5,10.4,5.5,16,7.3s11.7.1,18.1-.4,11.9,2.7,17.9,1.8,8-3.7,11.5-6.8,9.3-5.7,15.2-7.4c4.1-1.1,12.2-3,12-8.8s-7.3-4.7-11.1-3.1c-5.4,2.4-9.5,1.6-15.3,2.2s-11.6,3.5-17.7,4.7-13.5,1.4-20.2,1c-10-.7-21.9-2.3-26.9-12.1-2.3-4.5-2.3-9.5-3.2-14.3s-5.2-12.1-4.6-18.6c1-11.4,14.7-19.3,10-31.8,8.4-2.9,18.1-4,26.8-6.1,1.2,5.1,2.8,6.4,7.2,8.7s3.5,4.8,4,10.4,5.7,7.7,10.2,9.8c2.6,1.3,4.9,2.3,6.9,4.4s3.2,5,5.7,6.4c6.5,3.5,7.9-2.5,7.4-7.4s-1.4-9.6-6.1-13.9-3.9-8.5-6.5-14.2-7.6-7.7-12.1-10.6c4.1-2.8,7.3-4.4,12.2-4.7,1.6-.1,6.6-1.4,7.5-.9s1.6,3.2,2.3,4c4.4,5,15.4,3.6,16.1,11.3.4,4-1.4,6.8.9,10.8s5.5,4.4,7.2,7.6.6,6.5-.1,10.3a19.4,19.4,0,0,0,1.9,12.5c2.2,4.1,10.6,11.7,14.3,4.8.9-1.7.4-4.3.8-6.2s1.8-4.3,2.4-6.5c1-4.2-1.4-8.5-2.7-12.3-2.9-7.8-5.2-16.4-9.6-23.5a37.2,37.2,0,0,0-7.8-9c-2-1.6-8.5-4-9.5-6.1,3.9-1,7.8-2.3,11.8-3s10.1-1.7,13.1-.2,2.3,5.4,4.5,7.9,5.4,3.7,6,7.6-.8,6.9,1.2,11.1,4.4,6,5.9,9.4c3.6,8-1.3,16.9,1,25.3,1.7,5.9,11.4,12.7,12.3,2.9.3-4.3-.7-6.3,1.1-10.4s2.5-6.9,1.1-11.5-2.6-7.5-2.9-11.8-.4-7.6-2.7-11.2-5-4.7-6.3-7.8S213.6,249.5,213.5,246.7Zm-9.4,107.1c-4.2.4-8.5.5-12.1,2.8s-4.4,6.2-7.4,8.7-6.5,3.3-5.1,8.1,7.1,6.2,11.2,4.2,5.4-4.8,8.9-6.3,7.4-1,10-3.3,2.6-5.1,1.6-8.2S206.1,349.8,204.1,353.8Zm-25.7-43.7c-2.8-4.2-16.2-13.9-15-2.9C164.2,314.1,180.9,321.2,178.4,310.1Z" style="fill:#ff665e"/><path d="M285.3,581.4c1.3-8.6,3.3-18,2.2-26.8S280,540,275,534.1s-12.1-7.2-16.4-13.1c-1.8-2.5-3.4-6.5-7.2-6.2s-4.2,3.3-3.7,6.5c1.3,7.6,8.7,11.1,12.5,17.2,2.4,3.7,3.8,8.4,5.5,12.5s1.1,8,2.4,12,3.2,5.9,3.8,9.7a57.4,57.4,0,0,0,.9,7.1c.2.9,2.3,5.2,2,6.2s-7.3,4.9-8.6,6c-3,2.5-6.2,5.5-10.3,5.7,1.2-7.7,3.8-13.3,2.4-21.3-.8-4.8.5-8.9.3-13.6s-2.3-5.9-4-8.9-2.1-6.9-3.9-9.8-5.2-4.4-7.2-7.4-6.5-14.9-11.7-6.5c-4.1,6.4,4.5,13.4,7.7,18.1a53,53,0,0,1,8.3,22.1c1.1,8.3-2,15.7-2,23.9.1,3.3,1.9,6.5-.4,9.1s-8.6,2.8-11.6,3.3c1.1-3,3.8-5.1,4.5-8.3s-.6-7.2-.2-10.7c.5-6.1,6.5-12.5,1.9-18.3-1.5-1.9-3.9-2.3-5-4.7s-.8-6.2-2.8-8.8c-4.9-6.7-12.1-1.3-12.9,5.2-.4,3,.3,6.1.4,9.2s-1.2,8.1-1.6,12.3a29.3,29.3,0,0,0,1.4,11.8c.9,2.9,3.5,7.1,2.4,10.3-2.2,6.3-13.1,4.2-17.8,3.1-2.9-.8-5.7-2-8.7-1.7s-5.3,2.4-8.4,4.5c-1.9-6.2-5.3-10.3-9-15.5s-7.1-10.6-14.4-11.9c-4.5-.8-7.4-1.4-7.9-6.2s2.4-9.8,6.2-12.9,8.5-8.4,12.5-13.9,10.7-8.8,16.7-13c3.6-2.5,11.2-8,5.6-12.4s-11.6,1.9-15.6,5.3-10.5,2.9-14.4,8-4.9,11.1-9.5,15.7-8.5,6.2-9.6,11.7c-.4,2.1-1.4,6.6-5.4,4.8-2.4-1-1.4-6.7-1.9-9.1s-2.6-6-3-9.2,1-5.8,1-8.8-1.3-5.7-.2-9.1,3.8-5.2,6.6-6.9c5.1-3.1,10.8-3.8,14.7-8.7s7.2-9.2,13.6-12.2c3.5-1.6,16.3-5,12-11.1s-15.1,1.8-19.8,2.9c-8,1.7-9.7,6.1-15.6,11s-11.2,6.3-14.5,13.7c-7.1-2.3-3-14-1.8-19,1.8-7.6,7-8.5,13.9-10.6s10.6-6.4,16.7-8.1,15.4-.3,17.1-8.2c-4.6-.3-9.2-.4-13.9-.8s-9.4,1.9-14.2,4.2c2.8-9,11.8-12.2,17.5-18.9,2.6-3,5.1-7,9.7-6.7s6.2,5.2,10.2,6.6,7.6.3,11.5,2.6,6.5,6.1,11,7.7,6.7,1.2,7.8,5.8c.5,2.3-.4,2.9,1.1,4.3s5.8,2.2,6.8,2.4c4,.7,5.4-2.2,9.1-3.3s8.1-2.4,12.3-5.1a22,22,0,0,1,11.8-3.8c5.5-.3,9.5-2.2,14.7-3.3,10-2.1,21.2,7.9,28.1,14.1s13.7,15.7,11.5,25.2c-6.2-7.5-8.7-14.4-19-15.9-3.6-.5-24.8-5.2-24.5,2,.2,4.4,15.4,10.4,19.3,11.8,7.7,2.8,11.3,8,17.7,12.7s10.9,8.4,6.6,15.6c-1.9,3.3-4.9,4.5-5.3,8.6s1.9,7.5.8,11.3-3.2,4.5-5.4,6.6-3.6,5.5-5.1,8.8C297.8,576.4,290.3,575.9,285.3,581.4Z" style="fill:#ff665e"/><path d="M434.4,414.7c.2,3.7-13.5,9-16.5,11.6a13,13,0,0,0-4.4,7.3,104.1,104.1,0,0,1-3,11.3c-1.3,4,.5,6.4,1,10.3s-1.2,6.4,0,9.6,3.8,5,4.7,8.3.9,8.2,1.2,12.2c.5,8.3.3,13.9,5.5,20.4s2.6,14.8,6.6,22.2,8.7,12.3,13.2,18.6,3.6,11.9,8.9,16.3,9.1,10.5,13.4,17.5a28.3,28.3,0,0,0,6.9,8.1c2.8,2.1,6,3.5,7.8,6.7s1.4,6.4,2.9,9.4,4.1,5.4,6.2,8.2c4.8,6.3,3.3,14.2,5.7,21.3s7,12.4,5.9,20c-.5,3.2-1.6,6,.2,9s5.8,5.3,7.7,9.4c3.4,7.3,2.5,15.5,3.9,23.2s7.4,11.7,10.2,18.4,2,14.2,1.6,22.1,4.4,14.6,7,22.6c1.6,5,2,6.1-3.2,6.8-3.3.5-5.8.8-9.2,0s-6.9.2-10.9,0-7.5.8-8.7-2.4.7-6.8.2-9.7-2.3-6.1-3.3-9.2c-2.9-8.7-.9-17.4-1.2-26.4s-4.5-13.1-7.8-19.9-1-15.8-1.4-24a43.1,43.1,0,0,0-6.5-20.5c-2.1-3.4-4.9-6.4-6-10.4s-.5-9.2-1.5-13.8a12.9,12.9,0,0,0-5-8.4c-2.4-2-3.7-2.9-4.4-6.2s-.2-6.2-2.9-9.9a104.2,104.2,0,0,0-8.1-9.5c-5-5-9.1-10.7-14.1-15.7s-14.2-8.9-19.1-15.1-4-11.6-9.1-16.2-12.9-8.2-18.7-13.1-12-12.7-17.2-19.8c-2.7-3.5-5.1-6.6-9-8.7s-7-3.1-10.1-5.6-5.1-5.7-8.5-7.4-7.3-1.5-10.4-3.9-3.9-6.2-6.5-9-6.8-4.9-10.2-6.9a138.7,138.7,0,0,0-25.1-11.5c-7.7-2.6-18.2-6.4-26.1-3.5-3.8,1.3-6.8,4.1-10.9,4.6s-7.1-.1-10.6,2.3-7,7.2-10.2,10.7a27.5,27.5,0,0,1-3.7,3.9c-3,2.3-3.1,1.6-6.8.4,1.5-4.5,3.1-8.1,6.5-11.4s6.4-7.8,9.8-10.1,9.2-1.9,13.6-2.8,8.7-3.5,13.1-5.3c6.3-2.4,9.7-1.4,15.3,1.2s9.9,1.2,14.6,3.1,6.6,5.3,10.3,7.4,8.9,2.1,13.4,3.2,7.4,3.9,10.4,7.6,6.2,6.1,11.5,8.2a23.8,23.8,0,0,1,11.2,8.3c3.1,3.9,5.2,5.3,9.8,7.1s6.3,4.5,9.4,8.2,7.9,6.3,11.2,10.1,4,8.7,8.2,11.5,10.3,4.1,15.3,4.1c-3.8-10.2-17.2-10.5-20.8-20.7-1.8-4.8-1.7-9.4-5.1-13.5s-9.8-7.6-14.2-11.9-5.9-8.4-8.5-13.2-8.3-8.1-12-13-3.9-9.4-6.8-13.7-8.8-7-13-11.1c-8.4-8.1-11.4-19.1-21.8-25.9-4.1-2.7-8.7-4.1-13-6.4s-6.5-6.3-8.8-11.4-5.4-6.5-9.7-8.8-9.4-6.2-12.5-11.3c-1.2-2-2.3-3.1-1.1-5.1a12.2,12.2,0,0,1,3.2-1.9c2.4-.3.9-.8,2.5,1.1s1.4,4.3,2.8,6,5.1,4.1,7.7,5.8c4.8,3.1,10.9,5.5,12.7,11.4s1.6,8.5,8.1,11.8,11.6,4.2,16.7,7.6,8,8.7,11.7,13.3,5.3,8.3,8.6,11c4.9,4,9,6.2,12.6,11.6s6.2,10.1,11.1,14,7.1,7.8,9.9,14,6.8,8.6,10.4,12.8A136.3,136.3,0,0,1,390.9,500c2.9,4.5,5.5,10.2,9.3,14.1s4.6-.5,2-4-6.1-9.9-8.3-15.5-6.3-8.2-10.7-12.8-2.1-8.3-3.1-13.4-6.1-9.3-10-13.3-6.5-10.7-9.3-17.1-7.4-10.5-8.6-17.5-2-11.8-6.7-17.4-7.1-9.4-4.7-16.5,5.8-11.3,3-18.4-1.7-10.8,3.5-17.3,5-10.8,6.4-17.7,7.2-12.4,8.9-19.6c4.3,9.6-6.2,25-9.9,33.6-2.6,5.9-6.7,13.2-6.5,19.8s4,10.4.4,17.2c-6.7,12.6,4.9,21.7,8.4,33.8a73.1,73.1,0,0,0,7.8,17.9c3,4.9,3.1,12.1,8.3,15.4s10.1,2.7,13,7.8,0,11.6,2.6,16.9,7.6,6.3,10,11,4.1,12.2,7.2,18a69.5,69.5,0,0,0,10.2,14.4c2.2,2.5,7.8,10,7.5,3.4s-4.2-14.4-6-20.7-5-14.1-4.1-21.3-3.9-13.8-4.5-21.9,2.1-15.1,4.1-22.3c1.3-5,2-14.1,6.8-17.2,2.5-1.6,6-1.5,8.8-2.1S433.1,414.1,434.4,414.7Z" style="fill:#fff"/><path d="M568.8,415.7c-1.6,4.8-.8,7.4.5,12.2s1,10.5.9,15.8c-6.8-1.2-12.2,2.2-17.8,5.4a104.4,104.4,0,0,1-20.7,9.4c-4.1,1.4-3.8,1.5-6-2a66.1,66.1,0,0,0-6.3-7.9c-4.5-5.2-7.8-11.3-12.7-16.2-3.2-3.2-10.4-11.5-15.3-7.3-1.9,1.6-1.7,3.3-.7,5.2a47,47,0,0,0,6,7.5c1.9,1.6,4.2,1.9,6.1,3.7a62.7,62.7,0,0,1,5.3,6.1,48.9,48.9,0,0,1,4.8,7.6c1.6,2.8,4.2,5.6,5.3,8.6-3,.3-6.1-.3-9.1-.2s-6.6.9-9.4.3-3.3-1.9-4.7-4.6-2.6-3.9-4.9-6c-4.3-4-6.5-9.3-10.6-13.6-1.9-2-4.3-3.4-6.3-5.3s-2.9-5.9-4.2-6.8c-4.2-2.8-6.6,4.1-6.3,7s2.1,5.4,2.7,8.1-.3,5,.7,7.1c1.9,4.4,7.6,2.9,10.9,5.5s5,10.1,9.3,13.9c-9-2.9-18.7,6.1-26.8-2.5-3.7-3.9-1.5-6.2-1.7-10.6s-4.1-8.1-5.5-12-1.7-8.6-1.8-13.1-2.7-5-5.8-1.3c-6.1,7.7-1.7,23.3,1.6,31.1-1.1.8-12.3-2.9-13.8-4s-3.5-5.3-6.6-7.4c-8.1-5.3-.6-15.6,3.7-21.7a59.9,59.9,0,0,0,5.8-10.1c.7-1.6,3.4-4.2,3.6-5.7.5-3.4-.5-1.1-2.2-3.7-4-6.1-7.6-18.3-6.7-25.6.4-3.4.9-8.7,2.8-11.5s6.1-3.5,8-6.9,1.2-7.4,6.1-9.5,7.8-1.8,11.5-4.4,7.2-6.6,12.5-5c2.1.7,3.4,2.2,5.6,2.6s3.8-.4,5.8-.4c5.4-.2,7.5,3.3,12.1,4.9s9.1-1.5,13,.6c-10.3,3.6-18.2,6.8-25.6,15.5-2.9,3.4-7.1,7.7-6.8,12.5.4,6.9,4.9,6,8.3,2s5.4-5.9,10.5-8.1,7.6-5.5,12-7.4,9.9-2.1,14.9-1.7,13,.2,15.6,4.2c-7.3,4.4-16.7,3.1-24.6,6.5-3.6,1.6-20,11.2-13.4,16.4,2.6,2,9.4-1.4,12.4-2,4.9-1.1,9.9-1.8,14.9-2.5,10.7-1.5,22.2-3.7,32.7.1,2.4.9,9.7,3.4,10.1,6.4.8,5-6.6,2.6-9.3,2.4-5.7-.5-8.9.9-14.2,2.7s-9.1,1-13.8,1.7c-3,.5-9.2,2.4-8,6.8s10,.9,13.3.6C547.7,408.3,558.5,411.9,568.8,415.7ZM479.7,403c4-1,18.1-16.2,9.4-17.1C482.4,385.3,469.8,404.6,479.7,403Zm-23.3,16.4c1.4,5.8,9.5,5.6,7.2-.8-.6-1.7-2.7-5-5-4.6S456.6,417.5,456.4,419.4Z" style="fill:#ff665e"/><path d="M386,228.2c3.6.1,4.7-2.6,6.9-4.8s5.1-3.4,7.9-4.9c.2,7.7-.5,15,.9,22.7s5.3,13.3,5.4,19.7c0,3.4-2.6,16.5,6,12.7,5.4-2.4,1.2-11.6,3.3-16,1.3-2.8,2.8-4,2.8-7.4s-1.4-5.8-1.2-8.7c.4-5.9,6-8.6,5.9-15,0-2.7-.7-5.1.8-7.6s4.4-5,5.8-5.1,3.1,1.3,4.1,1.5,3.1-.4,4.7-.3,4.7.5,7.3.4c-6.9,8.6-11,15.7-12.6,26.9-.5,3.9-2,12.2,3.9,12.7s4.9-6.3,5.3-9.8c.5-5.1,4-7.5,6.4-11.7s3.1-9.6,9-10.4c2.3-.4,4.6.5,6.9.5s5.6-.9,8.5-1.3c6.7-1,12.9,2.1,19.5-.7,1.9,7.8,2.5,16.5-3,22.7s-11.3,13.4-17.9,18.8a46.2,46.2,0,0,1-18.2,8.9,54,54,0,0,1-10.5,1.4c-4,.2-9.6-1.3-13.4-.3-6.7,1.8.1,9.6,4.6,10.7,1.7.5,3.5.2,5.2.6s3.5,1.8,5.5,2.4c3.6,1.1,6.8-.5,10.1-1.8,6.8-2.7,14.1-3.6,20.7-6.7s12-8.5,17.7-13.3c3.8,14.2-5.6,20.4-17.2,25.4-7.1,3.1-13.7-.1-21.2.9-4.2.6-8.2,1.4-12.5,1.4s-7-.9-10.5-.6-10.5,4-8.4,9.6,12,5.2,16.3,5.9c14.6,2.5,31-4.4,45-7.8-1.7,7.9-11.3,11.3-17.8,13.7-8.2,3-16.8,4.9-25.1,1.6a49.5,49.5,0,0,0-11.9-3.6c-3.7-.6-9.5-3.2-13-2.7-9.5,1.2-.2,11.5,3.8,13.5s7.3,2.4,11.2,3,7.4,0,5.1,3.5c-3.6,5.2-18.9-.4-22.8-2.4s-7.3-5.2-10.8-1.9-2.3,5.8-.7,8.4c4.1,6.7,15.2,5.2,21.7,7.4.1,3.6-17.5,7.6-20.4,8.2-7.1,1.6-14.6,2.8-21-1.5-4.8-3.3-11.6-6.8-15-11.7s-2.9-12.9-3.8-19.8-6.1-8.7-12.6-11.6c-3.6-1.7-4.8-4.5-7.7-7.1s-5.9-3.2-8.5-5.4-5.2-5.2-5.7-7.8,1.5-6,2.5-8.7c2.2-6.3,5.7-15.1,11.7-18.9,0,5.7.1,9.9,2.7,15,1.5,2.9,2.4,4.8,2.5,8.1s0,4.8,1,7.2c1.8,4.4,8,9.7,12.6,10.8,9.5,2,2.4-8.3,1.4-12s-.5-5.3-1.4-7.8-3.4-5.3-4.6-8.2c-2.6-6-3.8-12.8-5.3-19.1s.6-5.8,5.9-10.4c2-1.7,3.2-4.2,5.2-6s5.7-3,8.4-4.2c-2.5,6.1-3.7,9.7-1.4,16.2a57.1,57.1,0,0,1,3.3,11.6c.7,5,4.3,26.6,12.8,24.4,4.9-1.3,3-6.8,1.6-10.1s-3.4-7.2-2.4-12.5-1-9.6-1.7-15.1S385.9,233.3,386,228.2Zm12.5,50.2c-1.6,6,.1,5.6,4.2,9.3s6.7,5.8,8.4-1.2-2.5-8.4-7.5-9.7c-1.5-.4-5.4-1.2-6.8,0S397.1,278.4,398.5,278.4Zm-12.3,36.9c3.7,2.8,12.8,9.2,15.7.8,1.1-3.3-1.6-4.7-4.5-5.3A10.9,10.9,0,0,0,386.2,315.3Z" style="fill:#ff665e"/><path d="M204.1,353.8c1.8-3.8,5.7,2.5,6.8,5s1.6,6.4-.8,8.8-6.5,2.1-9.6,3.3-6.2,4.9-9.8,6.7-9,.9-10.9-3.3,1-5.9,3.9-8.5,4.4-6.3,7.5-8.6S199.6,354.2,204.1,353.8Zm-1.6,14.7c5.2-1.3,11.2-6.8,5-11.7-4.6-3.7-14,.2-17.3,4.2s-12.8,10.8-6.2,14.7S196.5,369.6,202.5,368.5Z" style="fill:#03436e"/><path d="M178.4,310.1c2.5,11-14.2,4.1-15-2.9C162.2,296.2,175.6,306,178.4,310.1Zm-12.5-6.2c-.3,2-.8,3.8.3,5.7s6.2,4.9,8,4.6C182.3,312.9,169.2,304.2,165.9,303.9Z" style="fill:#03436e"/><path d="M479.7,403c-7.1,1.1-3.4-5.6-1.1-8.7s6.2-8.8,10.5-8.4C498,386.8,483.7,402,479.7,403Zm9.6-13c-1.4-5.2-12.3,7.1-11.8,9.3C478.8,405.3,490,391.8,489.3,390Z" style="fill:#03436e"/><path d="M456.4,419.4c.2-1.9-.7-4.8,2.2-5.4s4.4,2.9,5,4.6C465.9,425,457.8,425.2,456.4,419.4Zm1.6-3.5c.1,1.5,1.2,8.6,4,5.5S459.9,415.8,458,415.9Z" style="fill:#03436e"/><path d="M398.5,278.4c-1.4,0-3.6.2-1.7-1.6s5.3-.4,6.8,0c5,1.3,8.8,4.1,7.5,9.7s-5,4.3-8.4,1.2S396.9,284.4,398.5,278.4Zm10.9,4.3c-2.9-3.1-13.6-6.2-8.5,1.1.7.8,4.4,4.6,5.3,4.9C409.6,289.6,409.2,285.2,409.4,282.7Z" style="fill:#03436e"/><path d="M386.2,315.3a10.8,10.8,0,0,1,10.1-4.6c3.1.3,6.9,1.7,5.6,5.4C398.9,324.5,389.9,318.1,386.2,315.3Zm3.2-.8c1.6,3.1,8,6.4,9.9,1.5S391.7,312.8,389.4,314.5Z" style="fill:#03436e"/></svg>