<svg xmlns="http://www.w3.org/2000/svg" xmlns:xlink="http://www.w3.org/1999/xlink" width="1647.3" height="807.9" viewBox="0 0 1647.3 807.9"><defs><clipPath id="a"><path d="M.2.2h1633c4.1,0,8.5-.5,12.5,0,2.3.3,1.5.6,1.5,3.4V804.7c0,.4.3,2.5,0,2.8s-5.9,0-6.8,0H13.5c-3.7,0-8.3.8-12,0-2.1-.5-1.3-1.3-1.3-3.9Z" style="fill:none"/></clipPath></defs><title>Монтажная область 1</title><g style="clip-path:url(#a)"><path d="M1207,412.5c1.1,2.6,2.4,4.3,1.5,7.3s-3.2,5.2-4.2,8.1a9.3,9.3,0,0,0,.9,8.1c1.7,2.6,4.1,3,3.3,6.6-1.1,5.4-6.1,8.9-8,13.8s3.5,11-1.1,16.1-10.3,5.9-13.1,11.5.3,12.1-4.9,16.2-8.9,3.7-8.8,10.5c0,2.9.3,6.1-1,8.8s-4.1,4.6-6.9,6.4c-5.8,3.8-6.4,9-8.7,15.1s-7,7.4-13.4,9.4-8.4,7.9-12.6,12.1-12.2,3.9-17.2,8.3-6.3,10.2-12.1,12.6-12.5.9-17.8,4.4-6.8,9.9-13.1,11.1-12.1-2.6-17.8.2-7.5,9.1-13.9,9.8c-3.7.3-7.3-.9-10.9,0s-5.8,2.9-8.6,4.4c-6.6,3.6-12.6,1.8-19.5.5a20.9,20.9,0,0,0-9.3-.1c-3.3.9-6.2,2.8-9.5,3.6-6.7,1.5-11.5-4.7-18-5.5s-13.8,1.5-20.5-.2-11.2-6.8-18.2-7.3-13,.8-18.9-4.4c-2.2-1.9-4.3-4.3-7.1-5.3s-6.6.4-9.9.1-5.2-2.5-7.2-5a37.7,37.7,0,0,0-7.3-7.1c-5.7-3.8-11.5-4.3-17.9-5.9s-8.6-5.9-11.6-11.3c-1.2-2.1-2.5-4.4-4.5-5.9s-5.9-1.7-8.9-2.6c-5.3-1.4-6.9-6.2-8.6-10.9s-3.3-8.6-8.1-10.9-9-6.8-11.7-12.6-4.9-11.7-10.4-15.4c-2.3-1.6-4.6-2.8-6-5.4s-1.7-5.9-2.3-8.8c-1.5-6.6-6.8-9.9-8.9-16-.9-2.8-.8-5.3-.8-8.2s-1.2-4.2-3.7-6.4-1.5-6.4-1.5-9.4.7-7.6-.5-10.7-4.3-3.4-6.2-5.6-2.2-5.5-1.9-8.3,1.7-6.9,1.7-10.5-2.2-6.6-3-10.1c-1.6-6.4-1.5-14.7,1.7-20.5,1.7-3,2.8-5.3,2.6-8.9s-1.5-7.4-2.2-11.2c-1.3-7.5,1.1-13.2,4-19.9,1.5-3.4.7-6.7.7-10.2a25.3,25.3,0,0,1,2.1-9.7c1.2-3.1,2.6-6.1,3.2-9.4s.5-5.9,1.9-8.7a52.8,52.8,0,0,0,3.8-8.4c1.1-3.5,1.4-6.7,4.1-9.4s4.5-3.4,5.5-6.3.6-6.4.6-9.5c.2-6.6,3.6-9.8,9-12.9s8.4-6.1,10.8-11.7,3.4-10,7.5-13.2,5.9-2.5,8.9-3.8a13.4,13.4,0,0,0,6.4-5.8c3.1-5,5-9.6,10.4-12.6s10.3-3.6,15.2-5.9,8-6.5,11.3-11.6,9.4-5.4,16.1-6.4,11-4.9,16-8.2a41.7,41.7,0,0,1,17.7-6.5,45.2,45.2,0,0,0,9-2c3.3-1.2,5.6-3.5,8.4-5.4,6-4,12.4-1.3,19-1.4a20.8,20.8,0,0,0,8.5-2.4,19.4,19.4,0,0,1,10.6-2c3.4.2,6.5.6,9.9-.4s6-2.3,9.5-1.3,6.5,2.7,10.4,2.6,7.1-.8,10.6.1,5.9,2.5,8.9,3.3,6.7.1,10.2-.4,5.9-.2,8.5,1.8,4.5,4.7,7.7,5.9c6,2.2,12.8-.8,18.4,3,2.6,1.7,4.2,4.1,7.2,5.4s6.6,1.5,9.9,1.9,6.5.7,8.8,3.1,2.4,5,4.5,7c3.7,3.7,9.5,4.1,14,6.5s5.9,9.3,11.8,11.3,11.7,2.6,15,8.9c1.3,2.6,1.6,5.9,3.7,8s6.1,3,8.7,5.1c4.5,3.7,5.5,9.6,10.6,12.3s3.5,8.8,7.8,12.6c1.8,1.6,4.1,2.8,5.6,4.7s1.3,4.7,1.1,7.8c-.4,6.9,5.6,6.2,9.3,10.4s.3,11.6,4.3,16.2,11.7,3.2,12.9,9.2c.7,3.4-1.4,5.9.8,9.2s3.8,4.8,3.8,8.6-2.4,6.5-2.3,10,2.7,5.1,4,7.8c2.9,6-2,11.6-1.9,17.6s6.3,10,5.8,16.1c-.2,3.1-2.4,5.8-2.6,9s.9,5.7,1.4,8.5c1,5.9-4.8,11.3-2.5,16.9" style="fill:#ff665e"/></g></svg>