<?xml version="1.0" encoding="utf-8"?>
<!-- Generator: Adobe Illustrator 23.0.1, SVG Export Plug-In . SVG Version: 6.00 Build 0)  -->
<svg version="1.1" id="Слой_1" xmlns="http://www.w3.org/2000/svg" xmlns:xlink="http://www.w3.org/1999/xlink" x="0px" y="0px"
	 viewBox="0 0 1647.3 807.9" style="enable-background:new 0 0 1647.3 807.9;" xml:space="preserve">
<style type="text/css">
	.st0{clip-path:url(#SVGID_2_);}
	.st1{fill:#FFFFFF;}
	.st2{fill:#00416D;}
</style>
<title>Монтажная область 1</title>
<g>
	<defs>
		<path id="SVGID_1_" d="M0.2,0.2h1633c4,0,8.4-0.5,12.4,0c2.4,0.3,1.6,0.7,1.6,3.4v801.1c0,0.4,0.3,2.5,0,2.8s-5.9,0-6.9,0H13.5
			c-3.7,0-8.4,0.8-12,0s-1.3-1.3-1.3-3.9V0.2z"/>
	</defs>
	<clipPath id="SVGID_2_">
		<use xlink:href="#SVGID_1_"  style="overflow:visible;"/>
	</clipPath>
	<g class="st0">
		<path class="st1" d="M1023,345.4c-1.2-1.5-2.8-2.9-3.7-4.5c-2.3-4.1,5.4-4,8.1-4.6c-4,0.5-7.9,1.4-11.7,2.7
			c5,11.2,7.6,23.3,7.8,35.5l-1.8-6.9c2.1,7.6,8.3,13.9,4.2,22s-12.9,10.5-20.8,12.1c0.9-1.3,2.5-2,4.1-1.7
			c-8.6-2.1,0.1,29.7,1.2,33c1-2.4,0.6-5.2-0.9-7.3c-2.2-3.2-3.8,1.2-2.7,3.4c0.5-2.6,0.6-5.2,0.1-7.8c0.6,3.6,2.2,6.9,4.6,9.6
			l1-2.6l2.7,15.9c0.8,5,1.4,9.3,7.3,9.9c10.5,1.2,22.4-1.7,32.7-3.6c23.1-4.1,46.2-8.8,69.3-13.4l34.3-7
			c9.4-1.9,17.8-3.9,18.8-14.9c0.4-4.4,0.2-8.7,1.4-13.1s3.7-9.4,4.7-14.3c1.1-4.2,0.6-8.7-1.3-12.6c-2-4.1-4.9-7.9-4.5-12.7
			c0.1-2,1.2-4.7-0.5-6.4s-4.1-0.7-5.9-1.4c-4.1-1.7-4.7-7.1-3.9-10.9s4-9.6,2.7-14.7c-0.6-1.9-1.8-3.6-3.4-4.8
			c-0.4-0.3-1.6-0.4-1.9-0.6c-0.5-1.5-0.4-3.1,0.2-4.6v3.5c1.9-6.7,2.6-13.7,1.8-20.7c-0.6-5.9-1.9-12.5,1.3-17.9
			c-6.7-0.6-13.2-2.2-19.4-4.9c-5.9-2.6-9.8-6.1-16.4-3.9c-13.6,4.5-26.9,9.7-39.9,15.6c0.5-2,2.2-3.4,4.2-3.6l-2.6,3.9
			c2.7,0,3.5,3.5,2.8,5.6s-5.5,4.8-8.2,6.3c-7.4,4-14.7,8-22.2,11.8s-14.9,7.3-22.7,10.5c-5.8,2.4-13.2,4.4-16.3,10.4"/>
		<path class="st1" d="M1024.8,343.6c-0.4-0.4-2.9-3.8-3.3-3.6c1.9-0.9,11.1-0.6,7.8-5c-1.3-1.8-3.7-0.9-5.5-0.6s-7.8,0.8-9.7,2.6
			s0.1,4.8,0.9,6.8c1.2,3.1,2.2,6.3,3,9.5c1.9,6.9,2.9,14,3,21.2l4.9-0.7l-1.7-6.8l-4.9,1.3c2.3,7.3,8.6,14.5,3.3,22
			c-4.1,5.8-11.6,7.6-18.2,9c0.5,0.9,1.1,1.8,1.6,2.8s0.9,1.8,2,0.9c1.1-0.1,2.2-0.5,3.1-1.3c1.5-1.7-0.2-3.8-1.9-4.2
			s-5.2,1.8-6,4.3c-2.4,6.9,0.3,16,2.1,22.8c0.6,2.9,1.4,5.7,2.5,8.5c0.7,1.6,2.1,3.3,4,1.9s1.7-5.5,1.2-7.4s-2.9-6.9-5.9-5.8
			s-3.3,4.6-2.9,6.8s2.2,4.1,4.3,2.5s1.2-7.6,0.9-9.8l-4.9,0.7c0.7,3.5,2.3,7.6,4.8,10.2s4.6-0.5,5.6-3.3h-4.9
			c1,5.9,1.9,11.8,3,17.6c0.8,4.2,2.1,8.2,6.5,9.7s8.6,0.4,12.6,0.1c6.3-0.6,12.5-1.5,18.7-2.5c23.3-3.9,46.5-8.7,69.8-13.4
			l34.3-6.9c7.4-1.5,17.4-2.4,22.3-9.1c2.5-3.5,2.8-7.9,3-12.2c0.3-5.5,1.5-10.9,3.5-16c1.7-4.6,3.4-9.5,3.1-14.5s-3.3-8.8-5.2-13.3
			s0.6-9-1.5-12.8s-9-1.4-10.2-7.3s2.7-10.2,3.1-15.2s-2-10.5-7.3-11.8l1.8,1.7c-0.1-1.4,0.1-2.1-1-2.9s-3-0.8-3.8-1
			c-0.1,2.1-0.7,6.3,2.7,5.9s4.2-11.9,4.3-15c0.2-6.4-1.6-12.8-0.9-19.1c0.2-2.3,2.5-5.6,1.7-7.7s-5.6-2.1-7.6-2.5
			c-6.3-1.1-12-3.4-17.8-6.1s-9.9-3-15.7-1c-13,4.3-25.7,9.5-38.2,15c1.2,0.9,2.9,2.8,4.1,2.6c0.7-0.4,1.4-1,2-1.6l-2.8-3.6
			c-1.7,2.5-4.3,4.9-1.5,7.4s2.3,0.9,0.8,3c-3,4-9.4,6.1-13.6,8.3c-14.1,7.7-28.5,14.2-43.1,20.7c-3.1,1.3-14.2,6.6-11.9,11.4
			c1.1,2.1,3.2,1.4,4.5,0.2s3.4-4.1,6-5.7c5-2.9,10.7-4.3,15.9-6.6c7.4-3.3,14.6-6.9,21.8-10.7s15.1-7.1,21.7-11.7
			c4.4-3.2,7.2-12.1-0.4-13.6l1.5,3.7c1.5-2.2,5.5-8.7-0.7-7.4c-2.2,0.4-6.8,4.2-5.4,6.8s8.7-1,10.9-2c4.7-2,9.3-3.9,14-5.7
			s9.4-3.6,14.2-5.2s7.8-2.5,12.1-0.7c9,3.8,17,7.3,26.9,8.3l-2.2-3.8c-3,6-2.2,12.4-1.7,18.9c0.7,6.8,0.2,13.7-1.6,20.3l4.9,0.7
			c0-2.1,0.7-6.2-2.6-6s-2.9,3-3,4.8c-0.2,3.3,1.5,3.8,3.7,5.4c7.1,5.4-3.7,18.3,0.3,25.9c2,4,5.6,3.2,8.3,5.8s1.1,4.1,1.3,6.1
			c0.5,3,1.4,5.9,2.9,8.6c2.2,4.6,3.9,8.6,2.9,13.8s-4.4,11.7-5.5,17.9c-0.7,4.4-0.2,9-1.4,13.3s-6.7,7.6-12,8.8
			c-12.4,2.7-25,4.9-37.5,7.5c-25.7,5.1-51.5,10.7-77.4,14.8c-5.6,0.9-11.3,1.6-16.9,2.2c-3.7,0.4-8.6,0.9-11.3-2.3s-1.6-4.2-2-6.4
			l-1.8-10.6c-0.3-2,0-6-2.7-6.4s-3.2,2.7-3.8,4.5l4.1-1.1c-1.5-2-2.6-4.2-3.3-6.5c-0.5-1.7-0.6-3.5-2.6-3.8
			c-4.5-0.6-2.5,7.1-2.9,9.6c1.1,0.1,2.1,0.1,3.2,0c2.1-0.5,1.6,0.3,2.2-2.6h-3.5c1.8,1.6,2.4,4.1,1.7,6.4h4.8
			c-2.4-7.6-4.1-15.5-4.9-23.4c-0.3-1.5-0.3-3.1,0-4.6c0.2-0.9,1.1-1.4,1.3-1.9s0.3-4.5,0-4.9c-1.8-1.8-6.9,2.5-6.5,4.6
			c0.9,5.1,14.1-1.1,16.7-2.6c6.1-3.4,11.1-9.6,10.2-17c-0.3-3.3-1.8-6.4-3-9.4s-1.8-7.5-4.5-7.9c-4.8-0.6-1.9,7-1.2,9
			s1.5,3.4,3.6,2.5c2.1-0.9,1.2-8.1,1-10.6c-1.1-9.8-3.7-19.4-7.7-28.4l-1.5,3.7c3.9-1.2,7.8-2.1,11.8-2.7c-0.3-1-0.5-2.2-0.9-3.2
			c-1.1-2.7,0.1-1.1-1.6-1.4s-3.1,0.4-4.2,0.6c-2.7,0.6-5.6,1.9-5.3,5.1s3,5.5,4.9,7S1027.1,346.4,1024.8,343.6"/>
		<path class="st1" d="M1059.3,318.1c-0.9-1,0.4,1.8,0.2,1.5c1,1.3,7.6-4.9,2-5.9c-3.5-0.6-11.3,6.5-5,7.3c1.9,0.3,5.3-1.9,7.3-2.2
			s3.1-0.4,3.1-2.5c0.1-5.5-9.4-0.9-11.6,0.2c0.4,0.4,2.5,3.8,3,3.9s3-1.6,3.6-1.8l-1.9-4.5c-2.3,1.6-7.4,3-4.5,7.1
			S1061.5,320.7,1059.3,318.1"/>
		<path class="st1" d="M1025.4,339.1h-2.6l2.1,1.2c-1.8-3.1-2.7-5.4-6.8-4.9l0.6,4.9c2-0.6,4-1,6.1-1.1c1.3-0.1,3,0.4,4-0.8
			s-1.3-4.2-3.3-4.2s-8,0-9.4,2.5s1.8,3.4,3.9,3.7l-1.5-1.2c1.5,2.7,4.1,7.1,8.1,4.8c1.2-0.8,1.6-2.4,0.8-3.6c0,0,0,0,0,0
			C1027,339.7,1026.2,339.2,1025.4,339.1"/>
		<path class="st1" d="M1026.6,333.2c-2-0.2-6.2,0.2-6.8,2.7s1.4,3.2,3.2,3c1.8-0.2,4.5-0.5,5.4-1.4S1028.7,333.5,1026.6,333.2"/>
		<path class="st1" d="M1016.2,350.7c-1.1,2.7,2.8,11.3,6.3,8.4s-1.2-4.7-1.6-7c0.2-1-0.1-2-0.8-2.7c-1.2-0.8-2.8-0.5-3.6,0.7
			L1016.2,350.7"/>
		<path class="st1" d="M1019.6,396.6c0.6-2.4,6.6,0.2,7.9-2.5s-3.5-3.5-5.3-3.4s-8.5,1.7-7.4,5.8
			C1015.4,398.8,1019,399.2,1019.6,396.6"/>
		<path class="st1" d="M934.7,395.6c-0.5-0.7-0.6,2.4-0.6,2.7c1.6-1.7,5.5-1.3,7.6-1.5c-0.2-1.6-0.5-3.3-0.7-4.9
			c-2.2,0.7-12.4,3.9-9.2,8s9.2-2.1,11.2-3.7c1.9-1.7,4.1-3.3,6.3-4.6c2.2-1.2,4.7-1.7,6.9-2.9s4.4-2.9,3.7-5.1s-4.8-1.5-6.7-1.1
			s-5,0.6-5.4,3c-0.1,1.4,0.9,2.6,2.3,2.8c2.5,0.5,6.3-1.3,8.8-1.8l10.4-2c1.9-0.3,4.4-0.2,4.2-2.8s-1.7-2.3-3.1-2.4
			c-3-0.2-6.7,1.1-9.7,1.7s-7.4,1.5-11.1,2.4l0.9,3.2c-0.1,1.7,0.5,2.1,1.9,1.3s4-1,5.7-1.2l-2.8-3.7c-2.1,3.3-7.5,3.4-10.6,5.5
			s-6.3,6.6-11,7.1c0.5,1.6,0.9,3.2,1.3,4.7c2.3-1.6,8.7-2.8,9.1-5.7s-5-2.7-7.2-2.3s-8.9,1.8-6.6,5.7S936.4,398.5,934.7,395.6"/>
		<path class="st1" d="M974.7,377.3c-1.7,0.7-6.1,1.7-7,3.5s0.7,3.7,2.8,3.6s6.2-2,7-3.5S976.9,376.4,974.7,377.3"/>
		<path class="st1" d="M975.9,376.8c-1.7,0.9-4.9,1.7-5,4s1.9,2.7,3.7,2.3s4.5-2,4.9-3.5c0.3-1.3-0.5-2.7-1.8-3
			C977.1,376.4,976.4,376.5,975.9,376.8"/>
		<path class="st1" d="M869.8,291.1c6.7,3.2,13.4,6.5,20.3,9.3c1,0.4,4.6,1.3,4.9,2.5s-1,1.9-1.2,2.4c-1,2-1.7,4-2.7,5.9l4.6,1.9
			l1.5-5.1h-4.8c0.9,3.6,1.2,7.2,0.9,10.9h5c0-2.5,1.9-16.8-3.4-15.4c-2.8,0.8-1.7,5.1-1.7,7.3s-1,7.8,0.5,9.6
			c1,1.1,2.7,1.2,3.8,0.2l0.3-0.3c1.6-1.9,0.6-6.8,0.3-9s-0.4-6.4-3.3-6.4s-3.1,3.7-3.6,5.6s-0.6,4.7,2.3,4.5s2.8-2.8,3.5-4.3
			c1.9-3.6,4.6-8.7,0.8-11.9c-2.2-2-5.6-3-8.4-4.1l-9.6-4.4c-2.1-1-6.7-4.4-9.2-3.7S867.5,290,869.8,291.1"/>
		<path class="st1" d="M869.1,291.9c-0.2,3.3,0.4,13.1,4.6,13.9s2.5-10.3,2.1-12.6l-3.1,3.1c4,1.3,4.7,8.6,5.5,12l4.2-2.4
			c-2.2-2.8-4.1-5.9-5.6-9.2c2,4.4,8.1,7.9,7.5,13.3l4.6-1.3c-2.6-3.5-4.1-7.7-4.3-12.1l-3.1,2.4c4.3,1.2,6.1,8.4,7.3,12.2l4.5-1.9
			c-1.2-1.6-4.6-6.4-2.2-8.2l-3.9-0.5c1.5,2.7,2.5,5.6,2.8,8.7l4.9-0.7c-0.7-2.1-1.1-4.4-1.1-6.6l-4.3,1.8c1.9,1.4,3.4,6.3,6.2,5.5
			s1.1-1.7,1.7-3s2.1-1.2,2.7-2.3s-1.1-4.2-3.3-3.7s-4.9,4.3-4.2,7.3l4.8-1.3c-0.8-2.2-4.1-8.4-7.4-6.4s-1.1,8.9,0.5,10.7
			c0.8,1.1,2.4,1.3,3.5,0.5c0.6-0.4,0.9-1.1,1-1.8c0.3-2.3-1.8-10.4-4.1-12s-5.4,2.4-5.5,4.9s1.4,7.6,3.6,9.6s4.7,1,4.6-1.9
			s-2.5-7.2-4-9.7s-4.2-6.1-7.3-6.1s-2.3,7-1.5,9.6s2.9,9,6.2,8.7s1.4-7.5,0.3-9.5s-8.3-14.9-13.4-10.4c-3.6,3.2,0.7,10.4,2.6,13.5
			s3.1,5.7,5.7,3.5s-0.4-7.9-1.3-10.1s-3.2-6.9-6.4-7.8c-5.7-1.5-2.8,8.9-2.8,11.8l4.6-1.3c-0.9-1.7-1.6-3.6-2-5.5
			c-0.2-1.5,0.4-4.5-0.4-5.8c-0.8-1.2-2.4-1.6-3.6-0.8c0,0,0,0,0,0C869.6,290.4,869.2,291.1,869.1,291.9"/>
		<path class="st1" d="M893.6,307.7c-0.5,2.6-2.4,8.8-1.1,11.2s3.9,1.3,4.7-0.7s0.4-3.9,0.6-5.5s1.2-3.7,0.5-5.1
			S894.1,305.3,893.6,307.7"/>
		<path class="st1" d="M887.3,316.8c-0.6-1.6-5.3-17.7-8.9-11c-0.9,1.8,1.1,7,1.4,9.1c0.5,4,0.7,8,0.5,12h5
			c-0.2-3.4-1.4-23.5-7.1-22c-3.6,1.1-0.6,7-0.1,9.2c1.2,5.2,1.8,10.5,0.5,15.7l4.9,0.7c0-6.1-0.1-12.2-0.2-18.3
			c0-0.6,0.2-3-0.1-3.3s-0.9,0.1-1.2,0h-3.7c0.2,3.6-0.9,24.4,4.5,23.9c3.3-0.3,3.7-5.9,3.9-8.3c0.5-4.8,0.9-9.7,1.3-14.5h-5
			c1.1,9.4,1.2,18.8,0.4,28.2h5c-0.6-6.5-0.7-13.1-0.4-19.6c0.1-1.6,0.2-3.3,0.1-4.9c-0.2-2.4-0.7-2.2-3.1-3.5
			c1.7,8.9,1.7,18.1,0,27l5,0.6c0.2-9.3,1.6-18.5,4-27.5h-4.8c2.4,9.4-0.2,19.5-1.5,28.8l4.9,0.7c-1.1-8.9-1-18,0.5-26.9l-4.6,0.6
			c2.3,3.6,1.5,8.6,1.2,12.7s-0.4,10.8-0.7,16.2h5c-0.3-7-0.6-14-0.3-20.9l-3.7,2.1c2.8,1.9-0.7,9,1.8,11.4s3.6,0.6,4.1-1.2
			s-0.3-8.9-0.5-12.3l-4.9,0.7c0.2,1.7,0.7,4.3,2.6,4.8s3.4-2.1,4.4-3.7l-4.7-1.3c-0.8,5.9,0.2,12.2-0.1,18.2
			c-0.1,4.4,3,10.1,0.5,14.2l4-0.5c-2-2.5-2.7-5.8-3.3-8.8s0.1-6.7-1.2-9c-0.7-1.3-2.2-1.9-3.6-1.3c-0.3,0.1-0.6,0.3-0.8,0.6
			c-1.1,1.3-0.2,4.2-0.1,5.7l0.6,7.5l4.9-0.7c-0.8-2.3-0.8-9.6-4.4-9.2s-1.8,6.1-1.4,8.3c0.7-0.2,3.3-0.5,4-1.1s0.5-1.5,0.3-3.1
			c-0.2-2.4-0.2-4.8,0-7.2c0.5-5.2,1.9-10.2,2.9-15.2c0.7-3.2,3-10.6,1.1-13.5c-0.7-1.2-2.1-1.6-3.3-1.1c-1.6,0.7-1.3,2.2-1.4,3.7
			c-0.4,9.7-3.9,19-4.3,28.8c-0.1,2.4-0.9,10.5,2.9,10.5s2.1-6.2,1.7-8.4c-1,0.3-2.2,0.5-3.2,0.9s-1.2,0.1-1.3,2
			c0,2.2,0.6,4.4,1.7,6.3c0.9,1.2,3.8,2,4.7-0.2s0.1-11.8-0.8-12.5s-4,0-5,0c0.7,6.2,1.1,13,4.3,18.5c1.3,2.2,3.2,3.9,5.4,1.5
			s1.3-6.3,0.8-8.9c-1.1-6.6,0-13.1-0.6-19.8c-0.1-2.1,0.9-6.6-0.8-8.1s-4.4,1.6-5.4,3.3l4.6,0.6c-0.9-1.9-0.5-5.3-3.6-4.9
			s-2.1,3.3-2,5.4s-0.6,7.9,0.5,8.9s4,0,4.9,0c-0.4-4,0.5-8.9-1.9-12.4c-1.1-1.7-3.2-2.9-4.8-1s-0.7,7.1-0.7,9.5s-1.5,14.8,2.6,15.3
			s3.2-10.3,3.3-12.9c0.2-5.8,1.4-12.9-0.5-18.4c-0.6-1.8-1.8-4.3-4.1-3.6s-2.1,5.1-2.4,7.1c-0.7,6.8-0.8,13.6-0.2,20.4
			c0.2,1.9,0.2,4.1,2.4,4.7s2.7-1.1,3-3c0.8-4.2,6.1-32-1.1-31.9c-4.1,0-4.8,12.3-5.3,15.3c-0.5,3-0.8,6.1-1,9.2
			c-0.2,3.1-1.2,6.2,0.3,7.8c4.6,4.7,5.2-7.4,5.4-9.2c0.5-6.4,1-14.4-1-20.6c-0.8-2.4-2.7-3.6-4.9-1.5s-1.8,3.7-1.9,5.6
			c-0.4,6-0.5,11.9-0.3,17.9c0.1,2.2-0.5,7.1,1.6,8.5s3.4-0.4,3.9-2c1-3.5,0.5-8.1,0.5-11.7s-0.1-7.7-0.4-11.5
			c-0.2-2.2,0.4-6.9-2.6-7.4s-2.9,2.8-3.1,4.7s-0.6,6.1-0.7,9.2s0.2,5.2-1.3,7l4.2,1.2c-0.8-3.9-1.2-7.9-1.3-11.9
			c-0.1-2.4,0.8-8.3-0.9-10.3c-0.9-1.1-2.6-1.3-3.7-0.4c-0.3,0.3-0.6,0.6-0.7,1c-0.7,1.5-0.1,4.2-0.1,5.8s0.1,4.4,0.1,6.6
			s-1.1,9.3,0.6,11.4s3.5,1,4.5-0.7s0.9-9,0.5-12.4c-0.6-4.1-1.4-8.2-2.6-12.2l-4.9,1.3c1.5,4.2,2.6,8.6,3.2,13
			c0.3,2.4-0.5,8.4,3.1,8.4c5.9,0,1.2-19.9,0.4-23.2l-4.8,1.3c0.8,2.3,1.7,4.6,2.6,6.9s1,4.1,2.4,5S888.2,319.1,887.3,316.8"/>
		<path class="st1" d="M895.9,310.1c1,2,0.6,1.9-0.9,3.4c1.9-0.7-0.6-0.7-1.5-1c0.7,0.6,0.5,2.1,1.4,2.7s2.7,0.3,3.9-0.7l-2.4,0.7
			c1,0.3-1-1.3-1.3-1.6c1.1,4.5,7.2,0.9,4.6-3.3s-5.6,1.6-7.1,3.7s-4.2,6.5-6.9,4.3s-3-7.1-3.7-10l-4.8,1.3c1,3.4,3.4,14.6-1,17
			l3.7,2.2c0.1-5-0.5-9.9-1.8-14.7c-0.6-2.1-2.9-6.3-5.3-3.1c-1,1.4-0.8,4.2-1.1,5.8s-0.9,4.2-1.4,6.4c-1.1,4.7-2.8,9.2-5,13.5
			l4.6,1.2l2.7-24.1l-4.3,1.8c4.2,3.7,4.7,10.8,5.9,15.9s1.8,7.5,2.6,11.3c0.4,2.1,0.2,6.9,2.7,7.7c5.9,1.7,2.5-14.1,2.3-16.7
			c-0.9-8.4-1.9-16.9-1.3-25.4l-3.2,2.4c3,0.6,3.7,12.1,4,14.5c1.3,9.4,0.9,18.9-1,28.1h4.9c-2.9-13.1-5-26.3-6.2-39.6l-4.3,1.8
			c4.5,5.6,6.4,12.9,8,19.7c1.8,8.3,2.6,16.7,2.2,25.2l4.6-1.3c-1.9-3.7-3.2-7.6-3.7-11.7c-0.3-2-0.5-6.6-3.9-5.1s1,19.3,4.5,20.4
			c6.2,2,3-18.1,2.6-21.1c-1.2-8.1-3.3-16.7-7.2-24.1c-1-2-3.2-7.3-6.2-6s-0.9,9.1-0.6,11.7c1.1,9.2,2.6,18.4,4.5,27.5
			c0.4,2,0.8,7.1,4.3,5.5s2.6-9.4,2.9-12.2c0.8-9.5,0.1-19-2.1-28.3c-0.8-3.1-1.6-8.6-5.4-9.7s-3.9,6.5-3.9,9.5
			c0.3,10.8,2.3,21.6,2.5,32.5l4.9-0.7c-1.5-9-3.6-17.8-6.2-26.5c-0.8-2.7-2.3-8.4-5.5-9.4s-3.9,7.2-4.2,9.6
			c-0.6,5-1.3,10.1-1.7,15.2c-0.2,2.8,1.3,5.6,4.2,3.2s4.2-9,5.1-12.3c1.2-4.6,2.3-9.4,3-14.1h-4.8c0.9,2.8,1.5,5.6,1.9,8.5
			c0.3,2.3-0.4,6,0.6,8.1c2,4,6.1-0.5,7.2-2.8s1.5-7.3,1.2-10.9s-0.4-8.5-3.1-9.4c-6.7-2.1,0.4,14.2,2.2,16c6.5,6.5,14-5.3,17-10.1
			l-4.7-1.3c0.1,0.7,0.1,1.4,0.2,2.1l4.9-0.7c-0.7-2.8-3.5-2.6-5.4-1.1l4.2,1.1c-0.7-1.6-1.2-3.8-3.2-4.3c-1.7-0.3-3.4,0.9-3.7,2.6
			c0,0.1,0,0.1,0,0.2c-0.1,0.6,0,1.2,0.2,1.8C894.7,318.8,900.5,311.5,895.9,310.1"/>
		<path class="st1" d="M898.6,355.2c0.3,0.6-0.3-0.9-0.3-1.1s-2.7-3.8-4.5-1.3s1.5,7.9,4,4.4s-4.3-8.5-4.5-1.4h5
			c0-2-0.2-1.6-2.1-1.6h-2.9c0.2,1.8,0.7,4.6,3,4.7c1.4,0.1,2.5-1,2.6-2.4c0,0,0,0,0,0C898.9,356.1,898.8,355.6,898.6,355.2"/>
		<path class="st1" d="M473.7,770c0-1.3,1.2-3,1-4.3s-1.6-2.3-2.2-3.2c-2-3.1-3.7-5.6-3.2-9.5s3.8-6.7,4.7-10.5s-1-8.5-1.1-12.4
			c-0.2-2.8-0.1-5.7,0.2-8.5c0.6-4.2,2.8-7.8,3.7-11.9c1-4.8,0.8-9.8-0.3-14.6c-1-4.2-1.9-7.9-1.8-12.2c0-2.5,0.2-5,0.6-7.4
			c0.5-2.3,1.8-4.2,2.2-6.4c1-5-1.9-10-1.1-15.2s1.8-10.4,0.2-16.1c-0.7-2.7-1.5-5.5-1.3-8.4s1.6-4.7,1.5-7.4
			c0-4.7-2.3-9.2-2.1-13.9c0.1-2.1,0.7-4.4-1.1-5.4s-7.2,0.6-9.5,2c-4.2,2.6-8.7,3.7-13.2,5.6s-6.1,5.3-9.5,5.8
			c-1.8,0.2-3.8-0.2-5.6,0c-1.8,0.3-3.6,0.8-5.4,1.3c-1.9,0.3-3.5,0.6-2-1.6c2.1-2.6,5.1-4.4,8.4-5.1c3-0.5,4.5-0.3,6.4-2
			s3.3-4.1,5.5-5.7s6-2,8.9-3s3.9-2.2,5.8-4.3s3.9-2.9,6.8-3.6s4.2-1.3,5.2-2.9s1.2-9,1.1-12.2c-0.2-5.4-1.7-10.5-1.9-15.8
			c-0.3-9.1,4.4-17.3,4.1-26.4c-0.2-5.7-3-10.2-1.8-15.9s1.3-10.1-0.6-14.4s-3.3-5.7-1.5-9.3c1-2.2,2.4-4.2,4-6
			c2.3-2.2,5.5-2.9,8.2-4.3s6.4-9.5,10.6-8.8s6.1,1.9,8.9,2.7c9.2,2.6,18,3.1,27.4,4.2s16.2,4.8,24.4,6.2c5.1,0.9,10.3,0.7,15.4,1
			s8.6,1.7,13,2.5c8.8,1.6,13.6-7.5,19.8-12.1c3.6-2.6,7-5.4,10.1-8.6c2.1-2.1,2.6-4.1,5.7-4.1c3.2,0.2,6.4,0.5,9.6,1.1
			c0.2-4.7,0.3-9.4,0.6-14.1c0.4-6.7-0.5-13.4-0.1-20.2c0.3-3.7,0.8-7.5,0.8-11.3c-0.1-2.3-0.2-3.6-1.5-5.3c-1.7-2.1-3-4.6-3.6-7.2
			c4.6,0.4,9.5-3.2,14-4.5c4.4-1.2,8.8-2.7,13.1-4.4c3.3-1.3,7.3-2.6,10-5s4.9-5.7,9.1-6.8s10.9-0.9,15.7-4.1c2.6-1.8,4.8-4.3,8-5
			c2.4-0.6,4.7-1.4,6.9-2.4c7-3.9,14.9-6.6,22.8-4.4c0.1-5.8-0.1-11.6-0.6-17.4c-0.5-5.3,1.5-9.9,1.7-15.1s-1-11.3,0.3-17.3
			c0.3-1.3,1.1-2.8,1.1-4.1s-1.1-3-1.6-4.3s-2.1-5.9-1.3-7.5s4.8-3.3,6.4-5.2s2.4-3.8,4.3-5.1s4.9-0.8,7.2-1.8s5.1-5.2,8.1-7
			s7.8-2.1,11-4.8s4-3.8,6.5-5.1s6.9-1.5,9.3-3.7s2.1-6.2,3.9-9s3.6-2.3,5.8-3.1s3.9-2.6,5.5-2.7s3.6,1.2,5.1,1.5s5.6,0.5,8.4,1.7
			c5.2,2.1,10.8,1.9,15.9,4.1c2.2,1,4.1,2.2,6.1,3.3s1.6,0.6,1.7,2.1s-1.2,3.4-0.9,4.8s2.3,2.1,3.6,2.7s5,2.4,7.5,2.8
			s5.8,0.3,8.7,1.1s4.4,2.6,6.5,2.7c5.5,0.5,10.5-4.3,16-1.3c3,1.6,6.2,2.9,9.2,4.4c1.1,0.6,1.9,1.5,3,2s3.8,0.9,5.5,1.7
			s2.8,2.9,4.9,3.9s5,0.9,4.2,5c-0.3,1.4-1.4,2.8-1.5,4.1s0.8,3.3,0.9,4.9c0.2,2.5-0.2,5.1-1,7.5c-0.4,1.2-1.4,2.5-1.5,3.7
			s0.7,3,0.9,4.3c0.4,3,0.5,6,0.3,9c-0.2,2.3-1,4.2-0.7,6.5s1.8,6,2,9.1c-0.1,2.5-0.6,5.1-1.6,7.4c-0.9,2.6-1,5.4-0.2,8
			c0.4,1.8,1.4,2.2,2,3.8s-0.2,3.3-0.3,4.8s-1,4.7-1.3,7.1c-0.6,7,1.6,13.4,0.2,20.4c-0.7,2.6-1.2,5.2-1.5,7.9
			c-0.3-1.7,1.7-2.8,3-3.4c4.6-2.3,10-1.9,14.5-4.4c2.6-1.7,5.1-3.5,7.4-5.5c3.5-2.9,7.6-4.9,12-5.9c3.9-0.9,5.9-1.2,8.7-4.2
			s4.5-4.8,7.4-6.1c5-2.5,11.6-1.9,17-3.3l18.4-4.5c-6.8,5.8-14.8,10-23.5,12c-1.9,0.4-3.8,0.4-5.7,0.8s-5.3,2.5-7.6,4.7
			c-4.3,4.1-8.2,7.2-14,9.2c-2.3,0.8-4.3,1.3-6,3.1s-3.4,5-5.5,7.2s-3.7,4.6-6.8,5.6s-8.6,2.4-12.3,5.4s-6.2,4.6-7.8,7.5
			c-2.5,4.6,1.2,9.1,1.5,13.6s-2.3,11.2-2.6,16.9s3.5,8.2,3.1,13s-1.7,9.2-0.4,13.5s1.8,4.9,1.5,8s-1.1,5-1.5,7.6
			c-0.9,5.9,2,10.6,2.7,16.3s-2.7,8.3-0.6,13.2s3.8,10.8,2.4,17.4c-0.7,3.2-1.1,5.7,0.4,8.8s3.3,4.7,3.6,7.7s-1.7,5.7-2.8,8.5
			s-1.1,7.1,0.2,11.1c1.9,5.9,1.4,10.6-0.3,16.4c-1.1,2.9-1.4,6.1-0.9,9.2c4-2.4,8.4-2,12.7-3.4s5.2-3,7.9-4.5
			c6.8-3.9,15.3-4.9,22.8-6.8c-0.7-2.7-1.3-6.8,0.9-9.1s9.7-3.6,13.5-4.9c1.9-0.6,5.5-1.3,6.8-2.8s0.5-6.8,0.1-9.1
			c-0.7-4.7,1-7.8,1.8-12.4c0.5-3-0.8-5.2-1.2-8.1s-0.1-3.3-0.3-4.9c-0.4-4.1,3.6-5.9,6.9-7.5s8.4-5.1,12.8-7.5
			c2.6-1.4,4.7-4.7,7.6-5.6s6.9-0.6,10.1-1.3c-4.4-2.7-12.6-6.1-14.2-11.4c-0.5-1.9-0.5-1.2,0.4-2.1s3.3-1.3,4.5-1.7s6.4-1.8,8-3.7
			s0.7-6.2,0.5-8.4c0-1.6-0.4-3.1-0.9-4.6c-0.8-1.4-1.8-2.3-2.3-3.9c-1-3.9-1.2-8.2-1.7-12.1c-0.2-1.1-1.1-3.8-0.6-4.8
			s0.1-0.4,1.4-0.9s6.3-0.4,7.5-3s0.4-7.2,0.5-10c-3.3,2.3-7.5,2.7-11.1,4.2c-2.8,1.3-5.4,2.9-7.8,4.8c-2.5,1.9-5.3,3.4-8.3,4.4
			c-3.4,1.2-5.8,1-8.2,3.8s-3.9,4.7-6,7c-2.7,2.9-6.1,5.2-9.8,6.6c-7.7,3.6-15.9,4.7-23,9.6c4-5.1,8.5-10.3,14.3-13.3
			c3.7-1.9,8-3.7,11.2-6.4s2.6-3.5,4.1-5.2c4.9-6,12.6-7.9,18.8-12.2c1.5-1.2,2.9-2.5,4.2-3.9c2.7-2.6,5.9-4.8,9.4-6.3
			c2.5-1.2,6.5-1.9,8.8-3.5s0.9-4.1,0.9-6.3c0-3.8,0.1-7.5-1.2-11c-0.7-1.9-1.6-3.7-1.4-5.8s1.1-4.8,1.4-7.3s-0.7-6.2-2.2-9.7
			s-2.3-7,1.1-8.7s8.3-0.9,12.2-3.9c1.4-1.1,2.7-2.5,4.3-3.2s2.5,0.2,3.4-1.7c0.9-1.9,1-6.9,0.6-8.9s-3.6-4.3-4.6-7
			s1.5-8.4,0.5-12.7c-0.8-2.7-3.3-3.7-3.5-6.8c-0.1-3-0.7-5.9-1.9-8.6c-1.5-3.7-2.8-7.1,1.1-9.6s5.7-2.1,8.5-3.4
			c2.8-1.3,5.8-4.1,8.9-5.9s7.2-2.1,10.5-4.1s6.8-5.2,10.5-7.3s7-1.8,10.7-2.7s8.8-5,13.3-7.5s7-2.8,10.2-4.7c1.4-0.9,5.3-2.2,6-3.6
			s-3-2.8-4.4-4.4c-3.2-3.5,0.7-5.4,3.9-6.1s7.6-1.7,11.3-3.9s4.2-2.9,6.6-3.7s4.6-0.1,6.8-0.9s3.1-2.1,4.9-2.9s4.2-1.5,6.3-2.2
			s7.1-2.7,9.6-2.2s2.8,2.5,4.3,3.3s5.8,2.3,8.5,3.3c6.9,2.5,14,3.9,20.9,6.5c-1.9,1.7-3.4,3.9-4.1,6.4c-0.7,3.6,0.9,6.4,1.5,9.8
			c1.2,6.3-1.4,12.4-1,18.6c0.2,4.1,3.5,7.1,4,11.2s-1,5.5-1.5,8.5s-0.6,4-1.1,6c-0.3,1.3-0.5,2.7-0.3,4c0.3,2.7,0.4,2.5,2.5,2.9
			c4.5,0.9,6.6,3.1,10,6s7.6,3.4,11.2,5.6c0.7,0.4,3.2,2.6,4.1,2.1s0.1-0.8,0.2-1c2-2.4,2.6-4.4,5.9-5.8c5.6-2.5,12.2-1.8,18.3-2.1
			c2.4-0.1,4.5,0,6.4-1.7c3.4-2.9,5.6-7.1,9.4-9.4s12.3-2.6,18-3.3s8.2-3.8,12.3-5.9s7-4,11.2-4.5s9.2-0.8,13.6-2.1
			s8.1-5.9,11.7-8.9s9.6-4.2,15.1-5.8s12-4.7,17.9-7.1c-3.4,2.9-6.8,5.9-9.9,9.1c-2.3,2.4-4.8,4.7-7.4,6.8
			c-3.3,2.4-7.2,3.6-10.4,6.2s-3.6,2.5-4.4,5.1s-1.7,6.1-3.5,8.6c-4.1,5.6-11.5,6.4-16.3,11.3c0.2-3.1-4.2,3.9-4.6,4.7
			c-1.7,2.9-3.1,5.9-4.6,8.9s-4.7,7.3-9,8.4s-8.5,2.1-12.3,4c-7.6,3.8-9.3,14.3-15.5,19.9c-1.5,1.3-3,1.6-4.7,2.6s-2,2.8-3,4.5
			s-5.9,6.9-8.5,4.6s0-6.2,0.2-8.4c0.3-3.2,0.1-6.3-0.7-9.4c-0.4-1.5-1.5-5-0.8-6.2s2.7-1.5,3.5-1.9c1.7-0.9,3.3-2,4.9-3.1
			c6.1-4.6,9.8-11.6,16.7-15.2c2.1-0.9,4.1-2.1,6-3.4c1.7-1.3,8.2-5.9,8-8.2c-0.4-5.4-11.6,2.3-13.3,3.4c-2.3,1.6-5.1,2.4-7.9,2.5
			c-2.3,0.2-6.3,0.3-8.1,2.1s-1.1,5.1-3.2,6.3s-5.5,0.8-7.9,1.6c-1.6,0.6-3,1.5-4.3,2.6c1.6,1.7,6.6,4.7,6.8,6.2s-0.7,2.9-0.8,3.9
			s-0.4,4.1-0.4,6.2c0.1,4.5,1.2,8.6,0.9,13.1c-0.3,2.5-0.4,5.1-0.1,7.6c0.3,2.6,2.2,4.9,2.3,7.5s-1.8,3-0.6,4.5s5.9,2.1,7.6,2.6
			c2.9,0.8,5.8,1.8,8.6,3c3,1.5,5.7,4.4,7.9,6.9c-1.5,0.8-1.5,3.6-1.7,5.1c-0.3,3.3-0.7,7.1-0.2,10.3s1.1,3.6,1.4,5.4
			c0.7,4.3-0.4,6.4-1.4,10.4c-0.6,2.1,0.7,3.8,1,5.9c0.3,1.9,0.1,3.8-0.4,5.7c4.8,1.2,9.4,3.1,14.4,3.8c-3,8.1,3.9,16.3,2.5,24.6
			c-0.8,3.8-0.2,7.8,1.6,11.3c2.4,4.8,3.8,7.9,2.1,13.4s-1.7,6.9,0,11.2s3.2,7.6,4.4,11.5c2.2,7.7-2.7,13.9-2.9,21.3
			c-0.1,4.3,2.8,7.4,5,10.8c2.6,3.6,3.4,8.1,2.4,12.4c-0.9,3.4-2.8,6.6-4.1,9.9c-1.7,4.4-2.2,9.2-1.5,13.9c0.5,3.7,0.4,8.1,3,11.1
			c1.1,1.3,3,2.1,3.8,3.6s0.5,3.6,0.6,5.2c0.7,5.2,1,10.5,0.9,15.7c-0.2,4.8,2.1,7.8,3.6,12.2s1.5,7.8,1.6,12s-0.5,10,0.7,14.3
			s4.8,5,5.6,8.6s0.5,5.4,0.8,8c-9-1.4-18.1-2.7-27.1-3.9c-6-0.8-12.5,0-17.7-3.2c-3.2-1.9-6.5-3.5-9.6-5.4
			c-1.3-0.7-2.4-1.8-3.8-2.4c-2-0.6-4-1.1-6.1-1.3c-7.4-1.3-14.5-1.2-21.8-3.5c-4.5-1.5-8.8-3.4-13.3-4.8c-4.6-1.3-9.3-2-14.1-2.3
			c-12.3-1.3-23.6-3.6-35.1-8.1c-9.2-3.5-18.2-3.7-27.8-2.7c-5.1,0.6-9.8,0.5-14.6-1.5c-3.1-1.2-5.8-3.4-9.1-4.1
			c-5.7-1.4-11.6-1-17.1,1.1c-6,2-14.2-2.6-19.7-4.7s-12.9-2.7-19.9-2.3c-10,0.7-18.8,0.9-28.5-2.2s-20.2-5.3-30.9-4.5
			c-4.6,0.4-9.1,1.4-13.8,1.8c-5.2,0.3-10.4-0.3-15.4-1.7c-4.8-1.2-9.6-2.6-14.6-2.2c-4.8,0.5-9.6,1.4-14.3,2.7
			c-8.6,2.1-16.3,3.7-25.3,2.4s-13.6,2.2-20.8,3.5s-13.5,1-20.4,0.8c-3.1-0.1-6.4-0.2-9.4,0.7s-5.7,2.9-8.6,4.3
			c-6.2,2.8-13.4,2.5-19.8,1.3c-4.1-0.7-8.4-1.5-12.5-0.7s-8.7,3.3-13,4.6c-6.9,2.1-13,4.3-19.1,8.2c-2.8,1.8-5.5,2.3-8.8,2.9
			c-3.6,0.8-7.1,1.8-10.6,3c-2.8,0.7-5.3,2.4-7.1,4.7c-2.3,2.9-5.5,3.8-9,4.9s-8.9,2.6-13.3,4.2c-2.5,1.1-6.8,2.2-8.5,4.7
			c-0.4,0.6-0.3,1.5-0.8,2s-7.6,2.3-9.9,2.8s-6,0.8-8.7,1.8s-2.6,1.9-4.1,3.1c-4.8,3.9-11.2,5.7-16.2,9.4c-2,1.5-3.7,3.4-5.8,4.7
			c-3.2,1.9-6.5,3.6-10,5c-7,3-14.1,5.8-21.2,8.4c-3.1,1.1-6.8,1-9.8,2.5s-3.4,3.6-5.5,5.1s-5.1,2-7.4,3.2c-2.9,1.4-5.8,2.6-8.8,3.6
			c-2.3,1-4.6,2.1-6.8,3.3s-3.7,2.6-5.8,3.1s-4.5-0.3-6.6-0.4c-4.6-0.1-9.3,0.5-13.7,1.9c-2.3,0.7-4.5,1.9-6.8,2.5s-5.2,0.1-7.6,0
			c-6.1-0.4-11.7,2.2-17.7,3.4c-4.8,1-9.7,1.2-14.5,0.5c-2.2-0.3-4.4-1.3-6.6-1.3c-3.8,0-7.6,1.5-11.4,1.8
			c-3.8,0.2-7.7-0.2-11.4-1.3C488,770.4,480.8,771.2,473.7,770"/>
		<path class="st2" d="M1341.4,726.1c-9.4-1.1-19.3-2-28.6-5.3c-11.7-4.1-22.4-8.2-34.4-10.4s-24.5-0.6-34.1-7.9
			c-4.1-3.1-7.5-5.8-12.7-6.6s-11,0.3-16.5-0.6s-10.7-3.3-15.8-5.5c-5.5-2.5-11.4-4-17.4-4.7c-12.4-1.4-24.1-4.1-36.2-7
			c-5.4-1.4-10.9-2.4-16.4-3.2c-6.1-0.8-12.1-0.2-18.2-0.6c-11.5-0.9-22-7-33.7-5.4c-3.9,0.5-7.9,2.6-11.8,1s-8.4-4.3-12.9-5.7
			c-11.4-3.5-23.1,0.6-34.7-0.9c-5.5-0.7-10.7-2.7-16-4.4c-6.3-2.1-12.9-3.1-19.5-2.8c-5.7,0.3-11.3,1.1-17,1.7s-11.2-0.6-17.2-1.6
			s-12.2-2.2-18-1.9s-12.2,3.3-18.5,4.2s-10.8,0.3-16.2,0.3c-5.9,0.2-11.9,1-17.6,2.6c-5.7,1.4-11.4,2.8-17.3,2.9
			s-11.7-1.7-17.5-0.6s-8.8,4.7-13.8,5.9s-12.6-0.4-18.8-1.1c-4.8-0.7-9.6,0.2-13.8,2.6c-4.1,2.2-8.5,3.7-13.1,4.4
			c-5.4,1-9.5,3.7-14.4,5.9s-12.1,4.3-18.3,6.3s-8.1,3.9-12.1,7.1s-10.5,5.3-15.9,7.3s-10.5,5.1-15.9,7.7s-11,1.4-15.8,4.5
			s-7.4,6.2-11.5,8.7s-10.1,5.5-15.1,8.2c-10.1,5.7-20.9,10.3-32.1,13.5c-4.9,1.3-9.1,2.4-13.2,5.5s-10.3,5.9-16.1,8.1
			s-9.2,4.4-14,5.9s-12.4,1.3-18.6,2.2s-12,1.5-18,2.1s-11,2.5-16.4,4.1s-9.2,0.1-14.6-1.1s-12.5,1.3-18.9,0.7
			c-6.4-0.6-10.3-2.9-15.7-3s-10.9,1.7-16.8,0.6c-12.3-2.3-24.5-2.6-36.8-4.4c-8.7-1.3-16.6-3.2-24.5-5c-0.1,0.4-0.3,0.8-0.4,1.3
			c9.8,2.3,19.6,5,29.5,6.1c5.6,0.6,11.3,0.7,16.9,1.3c5.6,0.6,12.4,3,18.8,3.2c6.4,0.2,10.9-1.6,16.4-0.7s10.8,3,17,2.4
			s10.7-1.1,16.1-0.1c5.6,1.1,11.4,0.7,16.9-0.9c5.3-1.6,10.8-2.5,16.4-2.7c6.4-0.2,12.4-2.1,18.7-2.7s11.1,0,16.4-1.9
			s10.3-5,15.6-7.2s8.6-2.6,12.2-6.1c2-1.8,3.7-3.6,6.4-4.2s5.8-0.6,8.7-1.8c10.9-3.9,21.5-8.6,31.7-14c4.8-2.6,9.8-5,14.6-7.8
			s7.9-6.7,12.4-9s9.2-1.9,13.6-3.7s10.1-5.8,15.7-7.8s10.8-3.5,15.5-6.6s7.9-5.8,12.7-7.7s10.3-3.1,15.3-5.1s10.6-6.4,16.6-7.3
			c2.4-0.4,4.8-0.1,7.1-0.6s4.8-2.2,7.1-3.7c4.7-3.1,9.3-3.7,14.8-2.9s10.4,2.3,15.7,1.7s9.5-4.5,14.7-5.8s10.3-0.1,15.3,0
			c6.2,0.2,12.3-0.4,18.3-1.9c5.9-1.5,11.6-3.3,17.9-3.3s11.7,0.6,17.7-0.6s10.3-3,15.5-3.9s12,0,17.9,1.1s9.9,2.6,15.1,2.6
			s12-1.3,18-1.8c12.8-1.2,23.3,3,35.3,6c5.3,1.3,10.8,1.8,16.3,1.4c5.9-0.4,11.9-2.1,17.9-1.1s10,3.6,14.8,6s9.8,1.1,15.6,0.1
			c11.2-1.8,21.2,5.5,32.2,5.6c5.8,0.2,11.5-0.8,17.4-0.3c6.4,0.8,12.8,2.1,19,3.8c6,1.6,12,3.4,18.1,4.8s12.1,1.5,18.1,2.2
			c5.4,0.7,10.6,2.1,15.5,4.4c5.1,2.4,10.1,5.1,15.8,6s12.1-0.8,18,0.6s7.9,4.4,11.7,7.1c9.2,6.6,22.1,5.2,32.7,7s22.6,5.8,33.8,9.8
			c9.1,3.2,19.4,4.6,29.8,6L1341.4,726.1z"/>
	</g>
</g>
</svg>
