<?xml version="1.0" encoding="utf-8"?>
<!-- Generator: Adobe Illustrator 22.0.1, SVG Export Plug-In . SVG Version: 6.00 Build 0)  -->
<svg version="1.1" id="Слой_1" xmlns="http://www.w3.org/2000/svg" xmlns:xlink="http://www.w3.org/1999/xlink" x="0px" y="0px"
	 viewBox="0 0 1647.3 807.9" style="enable-background:new 0 0 1647.3 807.9;" xml:space="preserve">
<style type="text/css">
	.st0{clip-path:url(#SVGID_2_);}
	.st1{fill:#FFFFFF;}
	.st2{fill:#00416D;}
	.st3{fill:#00416D;stroke:#00416D;stroke-width:2;stroke-miterlimit:10;}
</style>
<title></title>
<g>
	<defs>
		<path id="SVGID_1_" d="M0.2,0.2h1633c4.1,0,8.5-0.5,12.5,0c2.3,0.3,1.5,0.6,1.5,3.4v801.1c0,0.4,0.3,2.5,0,2.8s-5.9,0-6.8,0H13.5
			c-3.7,0-8.3,0.8-12,0c-2.1-0.5-1.3-1.3-1.3-3.9L0.2,0.2z"/>
	</defs>
	<clipPath id="SVGID_2_">
		<use xlink:href="#SVGID_1_"  style="overflow:visible;"/>
	</clipPath>
	<g class="st0">
		<g id="XMLID_1_">
			<g>
				<path class="st1" d="M1357,228.4c7.9,0,13.6,3.7,20.4,6.3c6.8,2.6,16.1,1.8,24.3,3c6.5,1,10.9,4.9,16,8.7
					c5.1,3.8,13.3,4.8,20.9,6.6s12.8,6.1,20,6.9c7.2,0.8,15.8-1.4,23.5,0.9c3.6,1,6.5,3.2,9.8,4.8c3.3,1.6,7.3,1.6,10.8,3.1
					s3.3,2.4,2.7,5.1c-0.6,2.7-2,7.1-1.7,11c0.3,3.9,1.4,6,1.1,9.2c-0.3,3.2-2,6.6-3.1,9.8c-2.5,7.5-0.9,13.9-0.9,21.6
					c0,7.7-5.1,11.1-7.8,17.4c-2.7,6.3,0,14.6-1.8,21.8c-0.8,3.4-2.7,5.9-4.2,9c-1.5,3.4-2.1,7-1.6,10.7c0.8,7.1,4.9,12.9,1.7,20
					c-3.2,7.1-8.3,11.1-8.9,18.3c-0.3,3.8,1,7.3,1.5,11.1c0.5,3.8,0.3,7.6-0.8,11.2c-1.9,7.2-5.1,13.9-4.5,21.6s5,14.5,0.4,20.8
					c-1.8,2.5-3.8,4.5-4.9,7.4c-1.2,3.7-1.8,7.5-1.8,11.4c0.2,3.9,0.1,7.7-0.1,11.6c-0.4,4.2-1.7,8.3-2.5,12.4
					c-1.5,7.9,0.9,15,1.8,22.8c0.9,7.8-2.7,13-3.5,20c-0.8,7,3.3,14.3,1.6,21.9c-0.6,2.8-1.6,5.3-2.4,7.7c-1.5,4.1-2.9,7.9-2.5,12.6
					c0.3,3.6,1.4,7,1.6,10.6c0.1,4.1-0.9,8.2-2.9,11.8c-3.7,6.8-5.3,14.5-4.6,22.2c0.2,3.7,0.8,7.4,0.5,11.1
					c-0.3,3.7-1.8,6.6-3.2,9.8c-3.4,7.5-0.3,14.7,0.8,22.3c1.1,7.6-2.4,13.3-4,20.3c-1.6,7,2.1,13.5,2.7,20.6
					c0.2,3.2,0.7,9.6-3.3,10.7s-4.8-1.4-6.7-2.8c-3.4-2.4-6.4-2.7-10.5-2.1c-4.1,0.6-5.7,1-8.5,0.4c-2.8-0.6-6.4-2.9-9.5-4.7
					c-7-3.9-15-3.9-22.7-4.8c-7.7-0.9-14.7-4-21.7-7.3c-6.9-3.3-14.4-5.5-22-6.4c-8-0.8-16-1-23.8-3c-7.8-2-15.2-5.6-22.7-8.6
					c-7.7-3-15.7-5-23.8-6.1c-7.7-1-15.7-0.5-23.3-2.5s-10.8-6.7-16.7-9.4c-5.9-2.7-15.5-1.3-23-2.4c-7.5-1.1-14.2-5.4-21.4-7.7
					c-7.2-2.3-16.1-2.1-24.1-3.2c-8-1.1-15.7-4.1-23.5-6.6c-7.6-2.6-15.7-3.7-23.7-3.5c-7.9,0.3-15,1.8-22.3-2
					c-7.3-3.8-12.9-4.2-20.9-2.6c-8,1.6-13-0.1-20-3.2s-14.5-3.9-22.8-2.9s-14.6,0.9-22.1-1c-7.5-1.9-13.7-4.4-20.8-5.7
					c-7.1-1.3-15.6-0.2-23.5,0.8c-8.1,0.9-16.3,0.4-24.3-1.4c-7.7-1.8-15.8-1.7-23.5,0.3c-7.9,2.1-15.2,4.2-23.5,3.6
					c-8.3-0.6-15.5,0.6-23.8,2.9c-8.3,2.3-15.1,1.2-23.3,1c-8.2-0.2-13.1,2.7-20,5.3c-6.9,2.6-14.1,0.4-21.9-0.5
					c-7.8-0.9-12.4,4.5-19.6,6.3c-3.4,0.9-6.8,1.2-10.1,2.5c-3.2,1.4-6.3,3.1-9.3,4.9c-3.1,1.8-6.5,3.1-10,4
					c-3.5,0.7-7.1,1-10.4,2.2c-3.3,1.2-6.2,3.9-9.2,6.1c-3.1,2.2-6.6,3.9-10.2,5c-3.5,1.1-7.1,1.8-10.5,3c-3.4,1.2-5.8,4.4-9,6.7
					c-5.3,3.9-12.3,1.6-17.9,5.3c-5.6,3.7-13,8.2-19.7,12c-6.7,3.8-11.7,8.1-19,10.3c-7.3,2.2-14.4,5.9-21.9,8.4
					c-3.1,1.1-6.1,1.7-9,3.4s-5.3,4-8.2,5.7c-2.9,1.7-6,2.2-9.1,3.2c-3.1,1-6.4,3.4-9.6,5.2c-6.8,3.6-14.1,1.3-21.2,2.6
					c-3.9,0.7-7.5,2.2-11.3,2.7c-3.8,0.5-8.4,0.3-12.5,1c-8.3,1.2-15,4.9-23.6,3.5c-3.8-0.6-7.4-1.4-11.2-1.1s-7.3,1.2-11.1,1.2
					c-3.8,0-6.7-1.2-10.1-2.2s-7.7-1-11.8-0.7c-7.9,0.8-14.7-0.7-22.4-2.4c-7.7-1.7-15.8-1-23.9-0.9c-8.1,0.1-14.9-2.6-22.5-5.4
					c-7.6-2.8-14.3-2.6-22-3.6s-11.9-6-18.4-8.1c-6.5-2.1-15.5-1.5-22.8-4.1c-3.3-1.2-6.1-3.3-9.3-4.6s-7.8-1.5-11.8-1.9
					c-4-0.4-7.8-1.4-11.7-1.4s-7.6,1-11.4,0.5c-7.6-0.9-14.1-5.8-21.5-7.5s-15.7,0.1-23.8,0.7c-4,0.2-7.9-0.1-11.8-1.1l-4.7-0.8
					c-0.5-0.1-3.1-0.1-3.5-0.3c-0.4-0.2-1.4,0-0.8-1.7s1.6-1.7,2.2-2.5c1.9-2.9,2.3-6.5,2.2-9.9c-0.1-3.4-0.6-5.8,0.4-8.7
					c1-2.9,3.6-5.4,4.7-8.5c2.6-7,0.5-14.8,2.7-21.9c1.1-3.3,3.7-5.9,4.2-9.4s-0.5-7.7,0.5-11.7c1.6-6.3,5.7-13.7,3-20.3
					c-0.8-2-1.7-2.9-1.6-5.2c0.1-2.3,2.8-6.7,4.1-10c1.2-3.5,1.5-7.2,1.1-10.9c-0.3-3.8,0.4-7.7,1.8-11.2c1.3-3.3,2.1-6.2,1.4-9.7
					c-0.7-3.5-2.6-7-2.2-10.8s2.3-6.7,2.5-10.3s-0.6-6.8-1-10.3s0.1-7.8,0.3-11.7c0.2-3.9-0.7-8-0.9-12.1c-0.1-3.1,0.8-6.2,2.5-8.8
					c1.7-2.8,3.5-5.7,2.4-9.1c-1.1-3.4-3.7-4.8-4.8-7.6c-1.1-2.8-0.2-6.6,1-9.9c1.3-2.8,1.9-5.9,1.8-9c0-0.7-0.6-4.8-1.5-6.7
					c0,0,0,0,0,0c0-0.1,0-0.2-0.1-0.3c-2-7.9,0.8-15.9,1.1-23.9c0.3-8-3-15.7-4.3-23.8c-1.3-8.1,2.1-15.4-1-23
					c-3.1-7.6-7.7-11.6-7.4-18.7c0-0.3,0-0.7,0.1-1c0.6-6.7,4.5-12.4,1.5-19c-2.1-4.9-6.9-9.1-6.5-14.9c0.4-5.8,5.8-10.8,3.2-17.8
					c-1.2-3.2-3.2-6-3.3-9.4c-0.1-3.4,2.2-7.6,2.1-11.5c-0.1-3.9-2.1-6.7-3.1-10.1c-0.9-3.9-1.3-8-1.1-12c0.1-4,0.2-7.4-1.7-10.7
					c-1.9-3.3-4-5.5-4.5-9.1c-0.8-6.6,2.3-11.9-1-18.3c-0.6-1.2-3.1-5.1-1.9-6.5c1.2-1.4,3.5,0.5,4.4,1c4.9,2.6,8.8,5.1,14.3,6.6
					c3.1,0.7,6.2,1.6,9.2,2.8c3.6,1.6,6.3,4.2,9.6,6c6,3.3,13,2.6,19.1,5.4c2.9,1.4,4.9,3.7,7.5,5.6c3,2,6.7,2.9,10.3,2.5
					c3.8-0.3,6.3-1.1,9.4-0.6c3.1,0.5,6,2.8,8.8,5c2.8,2.2,4.7,3.5,7.8,3.8c3.1,0.3,8-1.7,12.1-1.7c7.3,0.1,12.9,5.4,19.7,7.1
					c6.8,1.7,14.5-1.9,22,0.7c3.4,1.1,6.8,2.8,10.5,2.8c3.7,0,6.9-1.5,10.2-2.5c7.7-2.3,12.7,0.4,19.8,2.9c3.2,1.2,6.8,1.4,10.1,0.5
					c3.6-1.1,6.8-2.9,10.6-3.3c7.3-0.6,14.1,3.3,21.6,2.4c3.8-0.5,7.4-1.9,11.2-2.3c3.6-0.3,7.2-0.2,10.8,0.1c8.1,0.5,15.1-3,23-3.3
					c3.7-0.2,7.2,0.6,10.7,0.9c3.5,0.3,7.7-0.8,11.5-2c8.1-2.5,16-1.4,24.2-2.4s14.4-4.9,21.8-6.6c7.4-1.7,16.1,1.1,23.6-2.3
					s12.4-6.9,19.5-7.9c7.1-1,14.9,2.1,21.5-1.3c2.8-1.5,4.6-4.2,7.1-6c2.8-2,6.2-3.1,9.6-3.3c7.8-0.8,15.9,1.3,23.4-1.9
					c5.6-2.4,9.8-7.2,16.1-8.2c6.3-1,13.2-0.3,19.5-3.8c6.3-3.5,12-6.3,20.2-5.9c8.2,0.4,13.3-0.4,19.5-4.5c2.6-1.7,4.9-3.6,8-4.4
					c3.1-0.8,7.5-0.1,11.4-0.4c7.1-0.5,12.8-6.4,19.7-8.1c6.9-1.7,16.3-1.2,24.1-3.6c7.8-2.4,13.5-6,20.8-7.6
					c7.3-1.6,16.5-0.4,24.7-1.4s12.9-4.2,19.6-6.1c6.7-1.9,15.5-0.4,23.3-1.3c7.8-0.9,15.3-4.5,23.2-5.8c7.9-1.3,16.2,0.9,24.4,1.4
					s15.8-2.5,23.8-4.7c8-2.2,15.9-1.1,24.2,0.4c7.8,1.7,15.9,1.4,23.6-0.9c8.1-2.3,15.9-4.2,24.4-3.8c8.5,0.4,15.3,3.2,23,4.2
					c7.7,1,16.4-1.7,24.7-2.3c8.3-0.6,17.2,0.9,25.4,2.8c8.2,1.9,14.9,5.5,22.6,6.2s15-1.7,22.8-0.1c7.8,1.6,15.1,4,23.2,3.9
					c7.7-0.2,15.3,0.9,22.6,3.3c7.9,2.6,15.1,4.4,23.5,3.8c8.4-0.6,14-1.3,21,0.7s12.9,7.1,20.5,7.9s16.1-2.6,24-0.8
					c6.1,1.4,9.9,6.5,15.5,8.6C1340.8,231.9,1349.1,228.4,1357,228.4z"/>
				<path class="st2" d="M266.8,480.8C266.8,480.8,266.8,480.8,266.8,480.8c0.2,1.2-0.9,1-1.8,0.5c-0.1-0.1-0.2-0.2-0.3-0.3v0
					c0.1-0.4,0.3-0.7,0.5-0.9C265.8,479.5,266.3,479.9,266.8,480.8z"/>
				<path class="st2" d="M256.1,401.9c-2.2-4.1-2.5-8.1-2.1-11.9l1.1,0.1c0,0.3-0.1,0.6-0.1,1c-0.3,7.1,4.3,11.1,7.4,18.7
					c3.1,7.6-0.3,14.9,1,23c1.3,8.1,4.6,15.8,4.3,23.8c-0.3,8-3.1,16-1.1,23.9c0,0.1,0,0.2,0.1,0.3c-0.4-0.9-1-1.3-1.6-0.8
					c-0.3,0.2-0.4,0.6-0.5,0.9c-0.6-1-0.6-3.7-0.7-4.4c-0.1-4.1,0.1-8.2,0.8-12.2c1-7.6,1.1-14.6-0.7-21.9
					c-1.8-7.3-3.1-13.5-2.5-21.1C262.2,413.7,259.9,409.1,256.1,401.9z"/>
				<path class="st2" d="M1448.7,723.2c1.6-7,5.1-12.7,4-20.3c-1.1-7.6-4.2-14.8-0.8-22.3c1.4-3.2,2.9-6.1,3.2-9.8
					c0.3-3.7-0.3-7.4-0.5-11.1c-0.7-7.7,0.9-15.4,4.6-22.2c2-3.6,3-7.7,2.9-11.8c-0.2-3.6-1.3-7-1.6-10.6c-0.4-4.7,1-8.5,2.5-12.6
					l1.2,0.5c-0.6,1.7-1.2,3.5-1.6,5.3c-1.6,7.3,2.5,14.3,1.3,21.5c-1.2,7.2-5.8,13.2-6.9,20.4s0.7,14.3,0.1,21.4
					c-0.4,3.9-2.3,6.9-3.6,10.5c-1,3.2-1.3,6.5-0.8,9.8c0.9,7.4,3.2,13.9,1.2,21.4c-1,3.9-2.9,7.6-3.3,11.7
					c-0.1,3.2,0.2,6.3,1.1,9.4c1.3,5.3,2.7,11.1,1.5,16.5c-0.6,2.7-1.9,5.4-5,5.8c-3.1,0.4-5.8-2.3-8.4-3.6c-6.6-3.2-13,1.3-19.4-1
					c-3.2-1.1-5.8-3.6-8.7-5.2c-3.5-1.7-7.3-2.8-11.2-3.3c-8.1-1.2-16.4-1.6-23.7-4.4c-7.3-2.8-14.2-7-21.7-8.8
					c-7.5-1.8-14.5-1.8-22.7-2.8c-8.2-1-15.7-3.5-23.4-6.6s-15.5-6.3-23.3-7.8c-7.8-1.5-16.4-2.3-23.6-3.2
					c-7.2-0.9-13.1-2.3-19.2-6.3c-3.3-2-6.3-4.3-10.1-5.3c-3.3-0.7-6.7-1.1-10.1-1c-7.5-0.1-14.8-1.7-21.6-4.8
					c-7.5-3.2-15.4-5.1-23.5-5.6c-7.9-0.7-15.7-2.3-23.2-4.6c-7.5-2.3-14.1-4.9-22.5-6.2s-16.5,0.7-24.9,0.2
					c-6.8-0.4-11.1-4.9-18.5-6.3c-7.4-1.4-14.5,2.7-21.6,1.6c-7.1-1.1-12.3-5.9-20.2-7.1c-7.9-1.2-15.5,1.6-23.6,1.4
					s-15.5-3.4-23.1-5.6c-7.8-2.4-15.9-3.1-24-2.2c-8.6,0.9-17.7,2.3-25.6,1c-7.9-1.3-15.7-3.7-23.5-2.5c-7.8,1.2-14.8,4.5-23.1,4.9
					c-8.3,0.4-16-1-24.3,1.2s-15.2,4.2-23.8,3.4c-3.9-0.4-8.3-0.9-11.7-0.3c-3.4,0.6-6.4,2.2-9.5,3.6c-6.9,3.1-12.8,3.3-20.2,1.9
					c-3.7-0.7-8.6-1.4-11.5-0.9c-2.9,0.5-5.2,2.2-7.6,3.6c-6.3,3.8-13.9,3.8-20.5,7.1c-3.6,1.8-7.4,4.2-10.8,5.4
					c-3.4,1.2-7,1.5-10.5,2.2c-7.3,1.6-11.4,7.1-18.1,10.2s-14.6,3.5-20.4,8.2c-3,2.3-6.1,5.2-9.2,5.8c-3.1,0.6-5.9,0-9.3,1.1
					c-3.4,1.1-5.8,3.8-8.7,5.9c-3,2-6.1,3.8-9.4,5.3c-3.7,1.8-7.3,3.8-10.7,6c-2.9,2-5.5,4.3-8.7,5.7c-7.5,3.3-15.6,4.6-23.1,8.3
					c-3.1,1.5-6.6,2.5-9.6,3.6c-3,1.1-5.3,3-7.9,4.9c-5.5,4-12.6,4.8-18.5,8.1c-3,1.7-5.8,3.5-9.3,4.4c-3.5,0.9-6.3,0.5-10.8,0.5
					s-8.7,1.2-12.5,2.3c-3.8,1.1-7.4,1-11.3,1.1c-8,0.1-15.3,4.2-23.3,4.8c-4,0.3-7.8-0.7-11.7-1.3c-3.6-0.4-7.2-0.3-10.7,0.5
					c-8,1.5-14.9-2.1-22.6-2.7c-7.7-0.6-15.2,0.8-22.8-0.9c-7.9-1.8-15.9-2.5-24-2.4c-7.9,0.1-15-0.6-22.5-3.5
					c-7.3-2.7-15-4.5-22.8-5.1c-3.7-0.3-7.3-0.7-10.4-2.1s-5.7-3.5-8.7-4.9c-7.1-3.5-15.6-3.1-22.2-4.5c-6.6-1.4-12.1-5.7-18.7-6.9
					c-8.3-1.5-16.7-2-25.1-1.5c-8.1,0.3-13.9-3.3-21.6-6c-7.7-2.7-14.8-2.4-22.7-1.3c-3.8,0.6-7.7,0.8-11.6,0.6
					c-3.6-0.4-7.8-1.7-10.6-2.1c-2.8-0.4-7.9,0.6-6.2-3.9c1-2.8,3.4-4.1,4.4-7.7c1-3.6-0.1-6.7-0.5-10.3c-0.4-3.6,1.2-5.3,3.4-7.9
					c5-5.7,3.6-13.4,4.2-20.4c0.3-3.6,1.4-7.1,3.2-10.2c1.8-3.2,1.8-5.2,1.6-8.7c-0.6-7.7,4.6-14.1,4.8-21.5
					c0.1-3.4-1.9-5.7-2.4-9.4c-0.5-3.7,1.4-7,2.8-10.3c1.6-3.3,2.5-7,2.6-10.7c0-3.6-0.9-6.8,0.3-10.5c1.2-3.7,3-7.8,2.6-10.9
					c-0.4-3.1-1.7-6-2.2-9c-1-6.5,3.5-11.7,2.4-18.2c-0.7-4.1-1.4-7.8-1-12c0.4-3.7,0.5-7.4,0.2-11.1c-0.4-3.9-1.1-8.7-0.4-11.8
					c0.7-3.1,2.5-4.7,3.7-8.4c1.2-3.7-0.1-5.9-2.4-8.7c-2.1-2.3-2.9-5.5-2.1-8.5c0.8-4.1,3.5-7.5,3.6-11.8c0-1.5-2.3-5.8-1.8-8
					c0.1,0.2,0.2,0.3,0.3,0.3c0.8,0.5,1.9,0.7,1.8-0.5c1,1.9,1.5,6,1.5,6.7c0.1,3.1-0.5,6.2-1.8,9c-1.2,3.3-2.1,7.1-1,9.9
					c1.1,2.8,3.7,4.2,4.8,7.6c1.1,3.4-0.7,6.3-2.4,9.1c-1.8,2.6-2.6,5.7-2.5,8.8c0.2,4.1,1.1,8.2,0.9,12.1
					c-0.2,3.9-0.7,8.2-0.3,11.7s1.2,6.7,1,10.3s-2.1,6.5-2.5,10.3s1.5,7.3,2.2,10.8c0.7,3.5-0.1,6.4-1.4,9.7
					c-1.4,3.5-2.1,7.4-1.8,11.2c0.4,3.7,0.1,7.4-1.1,10.9c-1.3,3.3-4,7.7-4.1,10c-0.1,2.3,0.8,3.2,1.6,5.2c2.7,6.6-1.4,14-3,20.3
					c-1,4,0,8.2-0.5,11.7s-3.1,6.1-4.2,9.4c-2.2,7.1-0.1,14.9-2.7,21.9c-1.1,3.1-3.7,5.6-4.7,8.5c-1,2.9-0.5,5.3-0.4,8.7
					c0.1,3.4-0.3,7-2.2,9.9c-0.6,0.8-1.6,0.8-2.2,2.5s0.4,1.5,0.8,1.7c0.4,0.2,3,0.2,3.5,0.3l4.7,0.8c3.9,1,7.8,1.3,11.8,1.1
					c8.1-0.6,16.4-2.4,23.8-0.7s13.9,6.6,21.5,7.5c3.8,0.5,7.5-0.5,11.4-0.5s7.7,1,11.7,1.4c4,0.4,8.6,0.6,11.8,1.9s6,3.4,9.3,4.6
					c7.3,2.6,16.3,2,22.8,4.1c6.5,2.1,10.7,7.1,18.4,8.1s14.4,0.8,22,3.6c7.6,2.8,14.4,5.5,22.5,5.4c8.1-0.1,16.2-0.8,23.9,0.9
					c7.7,1.7,14.5,3.2,22.4,2.4c4.1-0.3,8.4-0.3,11.8,0.7s6.3,2.2,10.1,2.2c3.8,0,7.3-0.9,11.1-1.2s7.4,0.5,11.2,1.1
					c8.6,1.4,15.3-2.3,23.6-3.5c4.1-0.7,8.7-0.5,12.5-1c3.8-0.5,7.4-2,11.3-2.7c7.1-1.3,14.4,1,21.2-2.6c3.2-1.8,6.5-4.2,9.6-5.2
					c3.1-1,6.2-1.5,9.1-3.2c2.9-1.7,5.3-4,8.2-5.7s5.9-2.3,9-3.4c7.5-2.5,14.6-6.2,21.9-8.4c7.3-2.2,12.3-6.5,19-10.3
					c6.7-3.8,14.1-8.3,19.7-12c5.6-3.7,12.6-1.4,17.9-5.3c3.2-2.3,5.6-5.5,9-6.7c3.4-1.2,7-1.9,10.5-3c3.6-1.1,7.1-2.8,10.2-5
					c3-2.2,5.9-4.9,9.2-6.1c3.3-1.2,6.9-1.5,10.4-2.2c3.5-0.9,6.9-2.2,10-4c3-1.8,6.1-3.5,9.3-4.9c3.3-1.3,6.7-1.6,10.1-2.5
					c7.2-1.8,11.8-7.2,19.6-6.3c7.8,0.9,15,3.1,21.9,0.5c6.9-2.6,11.8-5.5,20-5.3c8.2,0.2,15,1.3,23.3-1c8.3-2.3,15.5-3.5,23.8-2.9
					c8.3,0.6,15.6-1.5,23.5-3.6c7.7-2,15.8-2.1,23.5-0.3c8,1.8,16.2,2.3,24.3,1.4c7.9-1,16.4-2.1,23.5-0.8
					c7.1,1.3,13.3,3.8,20.8,5.7c7.5,1.9,13.8,2,22.1,1s15.8-0.2,22.8,2.9s12,4.8,20,3.2c8-1.6,13.6-1.2,20.9,2.6
					c7.3,3.8,14.4,2.3,22.3,2c8-0.2,16.1,0.9,23.7,3.5c7.8,2.5,15.5,5.5,23.5,6.6c8,1.1,16.9,0.9,24.1,3.2
					c7.2,2.3,13.9,6.6,21.4,7.7c7.5,1.1,17.1-0.3,23,2.4c5.9,2.7,9.1,7.4,16.7,9.4s15.6,1.5,23.3,2.5c8.2,1.1,16.1,3.1,23.8,6.1
					c7.5,3,14.9,6.6,22.7,8.6c7.8,2,15.8,2.2,23.8,3c7.6,0.9,15.1,3.1,22,6.4c7,3.3,14,6.4,21.7,7.3c7.7,0.9,15.7,0.9,22.7,4.8
					c3.1,1.8,6.7,4.1,9.5,4.7c2.8,0.6,4.4,0.2,8.5-0.4c4.1-0.6,7.1-0.3,10.5,2.1c1.9,1.4,2.7,3.9,6.7,2.8s3.5-7.5,3.3-10.7
					C1450.8,736.7,1447.1,730.2,1448.7,723.2z"/>
				<path class="st2" d="M1435.3,250.5c7.3,1.1,13.1,4.7,20.7,6.6c7.6,1.9,15.4-0.1,23.1,1c4.2,0.6,7.5,2.5,11.1,4.4
					c3.2,1.7,6.6,2.9,10.2,3.6c2.3,0.5,6.4,0.6,7.9,3.1s-1.3,5.7-1.9,8.1c-1.9,7.2,1.7,14.2-0.7,21.4c-1.2,3.6-2.8,6.9-3.4,10.7
					c-0.4,3.6-0.4,7.2,0.1,10.8c0.3,3.7,0.9,8.3-0.2,11.2c-1.1,2.9-3.2,5.2-5,7.6c-4.7,6.7-3.3,13.4-3.3,21
					c0.1,3.6-0.8,7.2-2.5,10.4c-1.6,2.9-3.4,5.6-3.9,8.9c-1.1,6.9,3.5,11.3,3.5,18.7s-6,11.9-9,18.7c-3,6.8,0,12.5,0.1,20.6
					c0.1,8.1-4.7,15.1-5.5,22.8c-0.8,7.7,2.4,14.9,2.4,22.5c0,5.7-5.8,8.4-7.6,13.5c-2.5,6.7-0.7,13.3-1.3,21
					c-0.6,7.7-4,15.1-3.3,23c0.7,7.9,4.2,15.3,1.5,23.2c-1.2,3.8-2.8,7-2.7,11.1c0.1,4.1,1.5,8,2,12.1c0.8,6.2-1.5,11.3-3.4,16.5
					l-1.2-0.5c0.9-2.4,1.8-4.9,2.4-7.7c1.7-7.6-2.4-14.9-1.6-21.9c0.8-7,4.4-12.2,3.5-20c-0.9-7.8-3.3-14.9-1.8-22.8
					c0.8-4.1,2.1-8.2,2.5-12.4c0.2-3.9,0.3-7.7,0.1-11.6c0-3.9,0.6-7.7,1.8-11.4c1.1-2.9,3.1-4.9,4.9-7.4c4.6-6.3,0.2-13.1-0.4-20.8
					s2.6-14.4,4.5-21.6c1.1-3.6,1.3-7.4,0.8-11.2c-0.5-3.8-1.8-7.3-1.5-11.1c0.6-7.2,5.7-11.2,8.9-18.3c3.2-7.1-0.9-12.9-1.7-20
					c-0.5-3.6,0.1-7.3,1.6-10.7c1.5-3.1,3.4-5.6,4.2-9c1.8-7.2-0.9-15.5,1.8-21.8c2.7-6.3,7.8-9.7,7.8-17.4c0-7.7-1.6-14.1,0.9-21.6
					c1.1-3.2,2.8-6.6,3.1-9.8c0.3-3.2-0.8-5.3-1.1-9.2c-0.3-3.9,1.1-8.3,1.7-11c0.6-2.7,0.8-3.6-2.7-5.1s-7.5-1.5-10.8-3.1
					c-3.3-1.6-6.2-3.8-9.8-4.8c-7.7-2.3-16.3-0.1-23.5-0.9c-7.2-0.8-12.4-5.1-20-6.9s-15.8-2.8-20.9-6.6c-5.1-3.8-9.5-7.7-16-8.7
					c-8.2-1.2-17.5-0.4-24.3-3c-6.8-2.6-12.5-6.3-20.4-6.3s-16.2,3.5-23.9,0.6c-5.6-2.1-9.4-7.2-15.5-8.6c-7.9-1.8-16.4,1.6-24,0.8
					s-13.5-5.9-20.5-7.9s-12.6-1.3-21-0.7c-8.4,0.6-15.6-1.2-23.5-3.8c-7.3-2.4-14.9-3.5-22.6-3.3c-8.1,0.1-15.4-2.3-23.2-3.9
					c-7.8-1.6-15.1,0.8-22.8,0.1s-14.4-4.3-22.6-6.2c-8.2-1.9-17.1-3.4-25.4-2.8c-8.3,0.6-17,3.3-24.7,2.3c-7.7-1-14.5-3.8-23-4.2
					c-8.5-0.4-16.3,1.5-24.4,3.8c-7.7,2.3-15.8,2.6-23.6,0.9c-8.3-1.5-16.2-2.6-24.2-0.4c-8,2.2-15.6,5.2-23.8,4.7
					s-16.5-2.7-24.4-1.4c-7.9,1.3-15.4,4.9-23.2,5.8c-7.8,0.9-16.6-0.6-23.3,1.3c-6.7,1.9-11.4,5.1-19.6,6.1s-17.4-0.2-24.7,1.4
					c-7.3,1.6-13,5.2-20.8,7.6c-7.8,2.4-17.2,1.9-24.1,3.6c-6.9,1.7-12.6,7.6-19.7,8.1c-3.9,0.3-8.3-0.4-11.4,0.4
					c-3.1,0.8-5.4,2.7-8,4.4c-6.2,4.1-11.3,4.9-19.5,4.5c-8.2-0.4-13.9,2.4-20.2,5.9c-6.3,3.5-13.2,2.8-19.5,3.8
					c-6.3,1-10.5,5.8-16.1,8.2c-7.5,3.2-15.6,1.1-23.4,1.9c-3.5,0.2-6.8,1.3-9.6,3.3c-2.5,1.8-4.3,4.5-7.1,6
					c-6.6,3.4-14.4,0.3-21.5,1.3c-7.1,1-12,4.5-19.5,7.9s-16.2,0.6-23.6,2.3c-7.4,1.7-13.6,5.6-21.8,6.6s-16.1-0.1-24.2,2.4
					c-3.8,1.2-8,2.3-11.5,2c-3.5-0.3-7-1.1-10.7-0.9c-7.9,0.3-14.9,3.8-23,3.3c-3.6-0.3-7.2-0.4-10.8-0.1c-3.8,0.4-7.4,1.8-11.2,2.3
					c-7.5,0.9-14.3-3-21.6-2.4c-3.8,0.4-7,2.2-10.6,3.3c-3.3,0.9-6.9,0.7-10.1-0.5c-7.1-2.5-12.1-5.2-19.8-2.9
					c-3.3,1-6.5,2.5-10.2,2.5c-3.7,0-7.1-1.7-10.5-2.8c-7.5-2.6-15.2,1-22-0.7c-6.8-1.7-12.4-7-19.7-7.1c-4.1,0-9,2-12.1,1.7
					c-3.1-0.3-5-1.6-7.8-3.8c-2.8-2.2-5.7-4.5-8.8-5c-3.1-0.5-5.6,0.3-9.4,0.6c-3.6,0.4-7.3-0.5-10.3-2.5c-2.6-1.9-4.6-4.2-7.5-5.6
					c-6.1-2.8-13.1-2.1-19.1-5.4c-3.3-1.8-6-4.4-9.6-6c-3-1.2-6.1-2.1-9.2-2.8c-5.5-1.5-9.4-4-14.3-6.6c-0.9-0.5-3.2-2.4-4.4-1
					c-1.2,1.4,1.3,5.3,1.9,6.5c3.3,6.4,0.2,11.7,1,18.3c0.5,3.6,2.6,5.8,4.5,9.1c1.9,3.3,1.8,6.7,1.7,10.7c-0.2,4,0.2,8.1,1.1,12
					c1,3.4,3,6.2,3.1,10.1c0.1,3.9-2.2,8.1-2.1,11.5c0.1,3.4,2.1,6.2,3.3,9.4c2.6,7-2.8,12-3.2,17.8c-0.4,5.8,4.4,10,6.5,14.9
					c3,6.6-0.9,12.3-1.5,19l-1.1-0.1c0.3-2.8,0.9-5.6,1.4-8.3c1.2-6.4-0.8-10.5-4.2-15.9c-1.4-2.3-2.9-4.1-3.2-7.6
					c-0.3-3.5,1.4-6,2.7-9c3.4-7.5-2-12.1-2.5-19.4c-0.3-3.7,1.3-7.4,1.3-11c0-3.6-1.2-6.7-2.2-10.1c-2.2-7.1,0-14.8-2.4-21.8
					c-1.1-3.4-3.8-5.9-5.1-9.1c-1.3-3.2-0.4-6.2,0.3-9.4c0.7-3.4,0.3-6.8-1-10c-1-2.7-2.2-5.3-2-8.2c0.4-5.2,3.1-2.5,6-0.6
					c2.7,1.7,5.6,3.2,8.6,4.4c6.6,2.7,13.3,3.5,19.3,7.6c3.2,2.1,6.6,4.8,9.9,5.7c3.3,0.9,6.8,1,10.1,1.7c3.5,0.7,6.9,2.3,9.6,4.6
					c2.3,1.8,4.5,3.6,7.4,4.3c6.8,1.9,13.6-2.2,20.1,2c3.2,2,5.6,5.5,9.2,6.5s7.2-0.4,10.8-1c8.1-1.3,13.9,3.4,21,6.2
					c7.1,2.8,13.9-1.4,21,0.5c7.1,1.9,12.4,4.9,19.9,2.6c3.5-1.1,6.9-2.7,10.6-2.7c3,0.2,5.9,0.8,8.7,2c6.4,2.3,11.2,3.7,17.8,1.2
					c3.3-1.4,7-2.1,10.6-1.9c3.9,0.4,7.5,2.1,11.3,2.8c7.7,1.3,14.5-3.3,22.2-3.1c4.2,0.1,8.9,0.9,12.7,0.6c3.8-0.3,6.8-1.4,11-2.5
					s8.9-1.6,12.5-0.9c3.6,0.7,6.7,1.8,10.7,0.7s7.9-3,11.8-3.4s7.8-0.1,11.7-0.2c8.3-0.1,15.2-3.4,22.9-5.9
					c3.8-1.3,7.7-1.9,11.7-1.7c3.9,0.1,7.9,0.7,11.8-0.2c7-1.6,11.9-6.9,19.4-8.7c7.5-1.8,16.8,0.9,22.9-1c6.1-1.9,8.2-7.9,15.7-9.8
					s15.6,0.4,22.9-1.1s12.3-8.2,19.3-9.3c7-1.1,12.7,0.1,19.5-3.8c6.8-3.9,12.3-6.5,20.1-6.2c7.8,0.3,13.7,0.2,20.3-4.5
					c2.8-2,5.8-4.1,9.1-4.7c3.3-0.6,6.7,0.1,10.1-0.1c7.2-0.6,12-5.9,19.5-7.9s15.5-1.8,23-3.5c7.5-1.7,13.8-6.1,21.6-7.7
					c7.8-1.6,16.2-0.7,23.7-1.3c7.5-0.6,12.9-4.2,20.7-6.4c7.8-2.2,15.5-0.4,23.9-1.2c8.4-0.8,16.2-4.9,24.3-6
					c8.1-1.1,16.2,1.3,24.2,1.5s14.9-2.3,23.1-4.5c8.2-2.2,15.5-1.9,23.9-0.1c8.4,1.8,16.1,2.1,24-0.2c7.9-2.3,15.4-4.5,23.6-4.3
					c8.2,0.2,15.6,2.6,23.9,3.7c8.3,1.1,16-1.1,24.2-1.7c8.4-0.4,16.8,0.4,24.9,2.4c7.1,1.5,13.4,4.3,21,5.9s15.2-0.6,23,0.1
					c7.8,0.7,15.1,3.8,22.9,4.3c7.8,0.5,15.3-0.1,22.6,2.1c7.3,2.2,13.7,5.1,21.8,5.3c8.1,0.2,17.6-2.2,24.4-0.5
					c6.8,1.7,11.9,7,19,8.5s13.5-0.5,21.5-0.6c8-0.1,12.2,3.5,18.9,7.5s13.3,1.9,21.5,1.1s15,1.2,22.3,4.4c7.3,3.2,13.8,4,21.8,4.2
					c7.2-0.1,14.3,2.5,19.7,7.3C1422.2,247.6,1428,249.4,1435.3,250.5z"/>
			</g>
			<g>
			</g>
		</g>
		<path class="st2" d="M1097.9,210.4c10.7-1.5,21.5-0.1,31.9,2.2c4.9,1.1,9.4,2.9,14.1,4.4s10.7,1.1,16.3,0.7
			c4.6-0.5,9.3-0.2,13.9,0.8c5.3,1.1,10.4,3.1,15.9,3.4s10.8-0.9,16.2,0s9.7,2.9,14.5,4.5c10,3.1,19.8,0.7,30,1s16.5,7.5,25.8,8.8
			s18.8-3.5,27.6,0.3c3.9,1.7,6.6,5.1,10.5,6.7s9.4,1.4,14,0.8s10.3-1.6,15.5-0.5s8.7,3.3,13.1,5c4.6,1.7,9.4,2.6,14.3,2.7
			c5.3,0.1,10.9-0.2,15.8,2.1c7.6,3.4,12.3,10,20.9,11.4c4.5,0.7,8.8,1,13.1,2.8s8.8,4.1,13.7,4.6c10,1.2,19.2-1.4,28.5,3.4
			c3.8,2,7.9,3.5,12.2,4.3c1.5,0.3,3.7,0.5,4.6,1.8s-0.3,3.6-0.9,5.4c-1.6,4.6-0.8,8.8-0.1,13.4s-2.2,9.8-3.6,15.2
			c-2.4,9,2.8,18.2-3,26.2c-2.6,3.6-4.8,6.9-5.4,11.5s0.1,8.6-0.2,12.9s-2.8,7.6-5.1,11.8s-1.4,10.3-0.2,14.6s3.3,6.2,2.2,10.4
			s-4.9,8.1-7.2,12.1c-5.4,9.2,0.6,18-1.6,27.6s-6.1,15.8-4,24.9c0.9,3.7,2.7,8,1.8,11.9s-4.1,5.9-6.1,8.9s-2.4,9.5-2.4,14.3
			c0.1,5.2-0.5,10.4-1.5,15.5c-1.1,4.9-2.1,9.6-1.6,14.6s3,10.6,2.3,16.1s-3.1,8.3-3.5,12.8s1.8,10,2.2,15.1
			c0.5,9.3-6.9,16.6-5.2,26c0.9,4.7,2.6,8.9,1.2,13.7s-4,7.9-5.5,12c-1.4,4.4-1.9,9-1.4,13.6c0.4,5,2,10.3,0.2,15.3
			s-3.9,6.4-4.3,10.5s1.7,10.3,2.3,15.5c1,9.9-5.9,18.2-3.4,28.1c0.9,3.9,5.9,22.6-3.8,18.5c-3.5-1.5-6.1-4-10.2-4.1
			s-8.8,1.7-13.3,0.3s-7.1-4.3-11-5.7s-10.6-2.2-15.9-2.8c-4.7-0.4-9.3-1.3-13.8-2.8c-4.9-1.7-9.4-4.1-14.2-6
			c-9.5-3.8-19.2-4-29.2-5.3s-20.1-5.2-30-9s-20.5-5.6-31.5-6.5c-4.8-0.4-9.9-0.6-14.5-1.9s-7.2-3.4-10.7-5.5
			c-3.1-2.2-6.7-3.6-10.4-4.4c-5.1-0.8-10.4-0.1-15.6-0.8s-8.8-2.6-13.1-4.5c-4.7-2.1-9.8-3.4-14.9-4.1c-4.8-0.7-9.6-0.9-14.4-1.4
			c-1.3-0.2-4.6-1.5-5.6-0.1s4.3,1.9,5,2c9.7,1.2,19.5,1.4,28.7,5.3c4.3,1.8,8.4,3.9,13.1,4.6s10.4,0.3,15.6,0.9
			c8.8,0.8,14.7,8.5,23.4,10.3c10.9,2.2,22.3,1.5,33.1,4.3s19.3,7.4,29.2,10.5s20.9,2.5,31.4,4.4s16.9,6.9,25.6,9.8
			s18.7,1.8,27.7,4.7c4.1,1.4,7.1,4.3,11,6s9.3-0.3,14.3-0.2s6.8,3.2,10.7,4.5s7-2.4,7.5-6.5c1.2-9-4.9-16.7-2.1-25.5
			c1.4-4.2,3.4-8,3.7-12.4s-1.2-9.1-1.9-13.6s-0.7-8.2,1-12.1s3.3-8.1,2.8-13.6s-1.1-9.8-0.4-14.8s3.5-8.9,5.5-13.4
			c4-9.3-1.9-18.2,1-27.5c1.4-4.4,4.1-8.3,4.4-13s-2.1-10-2.2-15.1s1.8-8.4,2.9-12.6s-0.2-10.9-1-16.5c-1.6-10.3,2.3-19.3,2.4-29.4
			c0.1-4.3-0.5-8.6,0.5-12.9s3.7-6.2,6.4-9.8s1.6-7.6,0.7-11.4s-2-9.2-1.5-14s2.7-9.5,4.1-14.3s1-9.4-0.1-14.5s-1-8,1-12
			s5.6-7.6,7.5-12c3.9-9.3-5.7-17.4-1.5-26.6c1-2.1,2.9-3.6,3.9-5.7c1-2.2,1.5-4.7,1.5-7.1c0.3-4.8-0.9-9.8,0.2-14.6
			s4.2-7.1,6.5-10.7s1.9-8.8,1.2-13.7c-0.5-4.3-0.1-8.7,1.4-12.8c1.7-4.8,3.7-8.9,2.9-14.1s-1.4-8-0.2-12.1s4.4-7.6-1-9.5
			s-8.7-1.5-12.9-3.4s-7.6-4.2-12-4.9s-10.8,0.2-16.2-0.1s-8.9-1.6-13.2-3.1c-4.2-1.6-8.6-3-13-3.9c-4.4-0.8-8.6-1.4-12.5-3.6
			s-6.4-5.2-10-7.3s-10.1-3-15.4-3.1c-4.5,0-8.9-0.5-13.3-1.5c-4.9-1.3-9.3-3.9-14.1-5.5c-9.9-3.3-19.6,1.9-29.5-0.1
			c-4.4-0.9-7.3-4.1-11-6.4s-9.1-2.9-14-2.5s-8.9,1.3-13.4,1.1s-9.3-2.3-13.7-4.6c-9.3-5-17.3-4.3-27.5-3.4s-18.8-3.3-28.6-5.8
			c-5.1-1.3-10.1-1-15.3-0.8c-5.4,0.1-10.7-0.6-15.9-2.2c-4.6-1.5-9.3-2.2-14.1-2.2c-5.3,0.1-10.6,1.2-16,0.5s-8.5-2.6-12.8-3.8
			c-4.9-1.4-9.9-2.5-15-3.3c-5.1-0.7-10.3-1.1-15.5-1c-1.6,0.1-6.9-0.3-7.8,0.7S1096.2,210.7,1097.9,210.4"/>
		<path class="st2" d="M542.4,762.2c-3.1-0.4-6.1-1.4-9.2-1.7s-6.6,0.4-9.9,0.9c-6.8,1-12.3-1.7-18.8-2.6s-14.1,1-21.1,0
			s-12.8-3-19.5-3.2s-13.7,0.7-20.5-0.6s-12.6-4.6-19.2-6.2s-13.1-0.1-19.2-2.3s-9.8-5.9-15.7-7.4s-12.7-1.4-18.9-3.2
			s-11-4.9-17.5-5.6s-13.4-2-20.3-1.4s-12.1-1.5-18.3-4.2c-6.2-2.8-13-4-19.8-3.2c-6.8,0.6-13,2.5-19.9,0.7
			c-2.7-0.9-5.5-1.4-8.4-1.7c-2-0.1-3-0.2-1.7-2.6s3.1-3.3,3.5-6.5s-0.6-6.4-0.3-9.7c0.5-5.5,5.2-9.5,6.1-15.1s0-11.7,2.5-17.4
			c1-2.3,2.5-4.4,2.9-6.9s-0.2-5.9,0.2-8.8c1-6.3,4.7-11.9,4-18.5c-0.3-2.6-2.2-4.9-2.2-7.5s2.1-5.7,3.2-8.3
			c2.8-6.1,0.8-12,2.3-18.3c0.6-2.7,2.1-5.3,2.5-8.1s-0.4-5.9-1.2-8.8c-0.9-2.6-1-5.5-0.4-8.2c0.7-2.9,2.2-5.2,2.3-8.1
			s-1-6.1-1.2-9.2s0.1-7.7,0.2-11.6c0.1-6.2-2.5-12.9,1.1-18.5c1.2-2,3-3.9,3.1-6.3s-1.9-5-3.4-7.3c-3.8-5.7-0.9-9.7,0.9-15.5
			s-2.2-12.2-2.1-18.6s2.3-13.9,1.7-21.1s-3.9-12.5-4.4-19.1s2-12.7-0.6-19.1c-2-4.8-5.6-9.1-6.6-14.3s2.8-12.1,2-18.5
			s-7.1-10-7-16.2s5.1-9.9,3.2-16.4c-0.8-2.8-2.6-5.3-3.2-8.1s0.7-5.9,1.4-9c1.3-6.3-2.8-11.3-3.7-17.3s1.2-12.9-2.8-19.3
			c-1.4-2.2-2.9-4.3-3.3-7s0.9-5.7,1.1-8.6c0.5-5.5-5.5-11.2-3-16.3l-1.4,0.3c3.9,2.9,8.1,5.4,12.6,7.3c4.9,1.9,10.4,1.7,15,4.1
			s6.6,5.3,10.5,7s9.7,1.5,14.4,3.1s6.1,3.8,9,5.9s7.4,2.9,11.8,2.3s8.5-1.3,12.5,1.3s5.7,5.4,9.6,6.5s8.7-0.8,12.9-1.2
			s8.9,1.7,13.1,3.9s8,3.4,12.6,3.1s9.4-1.6,14.3-0.1s8.7,3.3,13.5,2.7s10.1-4,16-3s8.8,3.6,13.5,4.4s8.6-1.7,13.4-3
			s9.3,0.1,14.1,1.2c4.8,1.1,9.8,1.1,14.5-0.2c4.6-1.3,8.6-2.3,13.4-1.7c5.2,0.8,10.6,0.5,15.7-0.8c4.8-1.3,9.3-2.5,14.3-2.1
			s9.2,1.5,14,0.2s9.2-2.8,14.5-2.8s11.5,0,17.3-1.7s8.9-3.2,13.5-4.3c4.8-1,9.8-1.3,14.7-1.1c9.3,0.2,15.9-6.3,24.7-8.3
			s19.9,2.2,27.2-3.8c3.4-2.7,5.5-5.4,9.9-6.5s10-0.4,15-0.4s9.1-0.7,13.1-3.1s7-5.2,11.4-6.2s9.4-0.1,14-0.9s8.5-3.9,12.7-6
			c8.7-4.4,18.2,0.1,26.9-3.5c3.7-1.6,6.6-4.5,10.1-6.3s9.2-1.4,14-1.7s8-2.6,12.1-4.7s9.4-3.2,14.5-3.6c4.8-0.2,9.5-0.9,14.2-2
			c4.6-1.2,8.9-3.3,13.4-4.9c10.2-3.6,20-2.7,30.5-3.6s17.9-6.9,28-6.9c4.9,0.2,9.7,0,14.6-0.4c5-0.6,9.8-2.2,14.7-3.5
			c4.9-1.4,9.9-2.2,15-2.2c5.9,0.2,11.7,1.6,17.5,1.8c9.9,0.3,19.1-4.1,28.7-5.8c0.5-0.2-3.8-1.4-4.7-1.2
			c-5.3,1.2-10.4,3.3-15.8,4.2c-10.6,1.9-21-1.7-31.6-0.8s-19.4,6.1-29.7,6.1c-5,0-10-0.8-14.9,0s-9.2,3.1-13.8,4.7
			c-10.1,3.7-21.1,1.2-31.5,3.3s-17.7,7-27.3,8.4c-4.6,0.7-9.3,0.8-14,1.6s-9.5,4-14.6,6.3s-7.7,1.3-12,1.4s-7.9,1.8-11.7,4.3
			s-7.7,4.4-12.6,4.6s-9.5-0.6-14.1,0.2s-8.3,2.9-12.2,5.2s-9.3,3.4-15,3.5c-4.2,0-8.3,1.2-11.8,3.4c-4,2.4-7.4,5-12,5.8
			c-8.5,1.5-18-1.8-25.9,2.6c-3.7,2-6,5.6-9.9,7.1s-9.5,0.7-14.1,0.7c-4.8-0.2-9.5,0.7-14,2.4c-4,1.8-7.6,4.5-11.8,6
			s-9.8,0-14.9,0.3s-10.4,2.3-15.4,4c-4.5,1.9-9.2,3-14,3.5c-5.7,0.3-11.6-0.5-17.3,0.9s-8.5,3.5-13.4,2.9s-8.9-1.9-14.1-0.8
			s-9.4,2.9-14.3,2.9s-10.5-1.3-15.7-0.3s-8.6,2.8-13.3,2.8s-9.7-2.3-14.8-2.7s-8.6,1.7-13.2,3.1s-9-0.4-13.6-2.2s-9-2.6-13.8-1.4
			s-8.9,3.5-14.1,2.4s-8.1-3.1-12.5-3.6s-9.6,1.8-14.4,1s-7.9-3.3-11.8-5.1s-8.4-2-13.2-1.2s-8,1.4-11.8-1s-6.4-5.8-10.9-6.6
			s-9.5,1.8-14.2,0.6s-6.2-4.4-9.4-6.3s-8.4-2.4-12.7-3.2c-4.3-0.9-8.3-2.8-11.7-5.5c-7.9-5.9-17.8-5.4-26.2-10.4
			c-3.5-2.1-9-7.5-8.3,0.5c0.4,4.6,3.7,8,3.3,12.8s-2.3,8.2-0.4,12.4s5.5,7,5.7,12.5s-0.7,8.9,0.5,13.4s4.1,8.3,3.3,13.1
			c-0.3,2.3-1.5,4.4-1.8,6.8s0.5,4.8,1.5,7.2c1.8,4.3,3.5,7.7,1.5,12.3s-4.1,7.4-2.2,12.3s5.6,7.8,6.5,12.5s-1.4,8.5-2.2,12.8
			s0.8,9.3,3.1,13.6s5,8.2,5.1,13.2s-1.5,9.8-0.4,14.9s2.6,8.2,3.4,12.4s0.4,11.1-0.3,16.5s-1.6,9.7-0.5,14.5s3.2,8.2,1.4,13.1
			s-4,7.8-2.7,12.1c1.3,4.3,5.9,6,5.2,10.1s-4.1,6.1-4.6,10.1s0.9,10.5,0.7,15.7s-0.7,10.3,0.4,15.5s-0.6,7.1-1.7,11.6
			s0.6,8.4,1.6,12.9s-2.4,9-2.9,14.1s0.5,8.2-0.5,12.4s-4.8,8.7-4.6,13.1s3,7.2,2.4,11.8s-2.8,8.2-3.9,12.4s0.1,8.8-1.6,13.1
			s-3.7,8.2-3.8,13.6s0.3,9.1-1.7,13.1s-6.1,5.8-5.5,11.1s2.2,9.1-1.3,13.2c-2.2,2.4-4.9,5.7-0.2,6.7s9.1,1.6,13.5,2.2
			s11.2-0.4,16.9-1.1c4.8-0.7,9.7-0.4,14.4,1.1c4.2,1.3,8.1,3.4,12.2,4.9s9.4,1.7,14.3,1.5c5.2,0,10.5,0.3,15.7,0.9
			c9.8,0.8,17.7,6.3,27.4,7.5c4.7,0.5,9.3,0.8,13.7,2.3s7.4,4.6,11.4,6.5s9.3,1.7,14,1.8c5.2,0.2,10.4,1.2,15.3,3.1
			c4.2,1.6,8.3,3.4,12.7,4.2s11.1,0.3,16.6,0.2c5.2-0.2,10.4,0.4,15.4,1.7c4.8,1.3,9.2,2.3,14.3,2.1s9.9-0.9,14.9-0.1
			s9.4,3,14.5,2.6s9.3-2,14.4-1.1c1.5,0.3,5.9,2.1,7.2,1.4S544.1,762.4,542.4,762.2"/>
		<path class="st2" d="M1465.5,348c0.8,1.4-0.1,2.8-0.4,4.1s0.1,2.2,0.5,3.7s-0.6,4.7-0.9,7.5s0.4,2.2-0.4,3.7s-1.8,1.7-2.5,2.7
			s-1.4,5.2-3,7.6s-1.5,1.4-2,2.9s0.1,2.6-0.5,3.9s-1.8,2.1-2.6,3.3c-0.7,1.3-1.5,2.6-2.4,3.9c-1.8,2.2-3.9,4.6-5.9,6.6
			s-5.1,3.2-7.3,5.6s-4,2.8-6.9,4.3s-3.7,4-6.9,4.6s-3,0.1-4.6,1.2s-1.7,2.1-3.1,2.6s-1.5,0.1-2.4,0.3c-3.4,1-5.1,2.8-8.9,2.8
			c-1.4,0.1-2.8-0.2-4.2,0.2s-1.8,1.1-2.7,1.3s-4-0.6-5.7-0.8c-1.7,0-3.5,0.1-5.2,0.4c-0.6,0-6.2,0.4-6.5-0.5s1.2-0.3,1.2-0.6
			s-6.1-0.6-6.7-0.7c-2.8-0.4-5.9-2-8.6-3s-4.9-2.6-7.5-3.4s-4.8-1-6.9-3s-2.4-2.7-4.5-3.4c-0.4-0.1-0.7,0.5-1,0.4
			c-0.9-0.5-1.7-1.2-2.3-2.1c-1-1.6-1.5-3.7-3.2-4.7s-0.8,0.3-1.4-0.1c-1.6-1.6-3-3.3-4.2-5.2c-1.2-1.8-3.6-3.9-5.2-6.1
			c-3.2-4.6-5.5-9.8-6.8-15.3c-0.6-2.4-2.5-3.9-3.2-6.2s-0.1-2.6-0.3-4s-1.3-2.7-1.5-4.2s1.1-5.6,0.8-8.5s-1.7-5.3-0.9-8.6
			c1.5-5.9,0.6-12.9,3.2-18.5c1.2-2.6,2.4-3.7,2.6-6.5s1.2-3.6,3.2-5.8s2.2-4.3,3.6-6.5s4.3-3.2,5.9-5.7c1.5-2.4,3.6-4.4,6-5.8
			c2.8-1.8,4.3-4,6.8-5.6s4.7-2.3,6.9-3.7s6-2.6,9-4.2s4.1-2.9,7.3-3.2s7.3-1.7,11.1-2.2c6.8-1,13.7-0.6,20.3,1
			c5.4,1.4,12,2.1,16.9,5c2.6,1.6,5.2,2.8,7.7,4.6s4.8,1.3,6.6,3s1.3,2.1,2.3,3s2.6,1.9,3.8,2.9c2.2,2.1,4.3,4.3,6.2,6.7
			c0.7,0.9,1.2,1.8,1.6,2.8c0.6,1.1,1.4,2.1,2.4,2.9c2.3,2.4,2.3,5.2,5.2,6.9s3.1,3.2,3.7,5.9c0.2,0.7,0.6,6,1.2,6.3
			s0.6-4.8,0.1-5.2c1.1,1,0.8,5.8,0.9,7.2s-0.4,3.2-0.2,4.8s2,3.5,2.3,5.6s-1.3,12.9,1.4,11.5c0.9-0.5,1-4.9,1-5.9s-0.4-3.6-0.4-5.2
			s-0.9-2.9-1.6-4.8s-0.2-5-0.6-7.6s-2.1-11.4-5-13.8c-1.1-0.9-2.1-1.1-3-2.2s-1.6-3.2-3-4.6s-3.2-5.1-5.2-7.7
			c-1.3-1.7-2.8-3.2-4.5-4.6c-1.8-1.4-4.2-2.3-5.7-4s-1.7-2.6-3.4-3.7s-4.7-2.5-7-3.7s-4.5-2.8-6.8-4.2s-3.8-0.7-5.9-1.2
			c-5-1.1-10-4.4-15.2-4s-10.7-0.9-16.2,0s-10.8,1.3-15.3,3.2c-1.9,0.8-3.5,2.5-5.5,3.3c-2.1,0.7-4.2,1.6-6.2,2.6
			c-2,1.2-3.7,2.6-6,3.5s-4,1.3-5.6,3.8c-2.5,4-7.2,4.3-9.7,8.2c-1.2,1.9-1.8,3.2-3.7,4.5s-2.7,3.5-4.2,6.4s-2.3,2.5-3.6,3.8
			s-2,3.6-2.4,6.3s-1.1,3.5-1.8,5.4c-1.1,2.9-1.8,6-2.2,9.1c-0.7,4.2-2.3,9.9-1.6,14.1s1.2,4.6,0.7,7.6c-0.5,2.5-0.3,5.1,0.4,7.5
			c0.7,2.4,0,4.9,0.7,7.2s2.2,2.4,3,4.1s0.6,4.6,1.5,6.8c1.1,2.4,2.4,4.7,3.9,6.8c1.2,1.8,1.8,4.5,3.4,6.1s2.9,2.1,4.2,3.8
			c2.5,3.6,5.9,6.2,8.5,9.7c0.9,1.3,2.2,2.4,3.7,3c1,0.3,2,0.7,3,1.2c1.2,0.7,1.5,1.8,2.4,2.7s3.7,1.5,5.7,1.9s4.1,2.3,6.6,3.7
			s2.9,0.7,4.6,1.1s4,1.8,6.3,2.2c4.7,0.8,9.4,1.2,14.2,1.4c2.5,0.1,4.9,1.2,7.4,1.1s4.2-1.5,6.4-1.7s5,0.3,7.5-0.9
			c1.9-1,3.9-1.7,6-2.1c2.3-0.7,3.1-2.5,5.1-3.6s4.4-0.3,6.6-1.3s3-2.6,4.5-3.6s4.3-1.9,6.1-3.7s5.3-4.3,7.6-6.8s6.7-4.7,8.3-8.9
			c0.6-1.3,0.8-2.6,1.7-3.7s1.9-1.6,2.4-2.9s0.2-2.4,0.6-3.5s2.3-3.4,3-5.3c0.7-2.3,1.8-4.5,3.2-6.4c1.5-2.1,1.3-3.1,1.3-5.5
			s2.1-4.5,1.7-6.9s-0.9-1.2-1.2-2.1s0.3-2.9,0.3-4.5s0.2-2.3-0.6-2.9S1464.6,346.7,1465.5,348"/>
		<path class="st2" d="M1472.6,348.1c1.4,2.2-1.1,4.5-0.6,6.7s1.5,2,1.7,3.2s-0.7,2.4-1.3,3.7s0.3,5.2-1.2,7.6s-3.4,3.1-4,6.1
			s-0.3,3.1-1.4,4.6s-1.8,1.3-2.3,2.4s-0.2,2.9-0.5,4.3s-1.9,2.5-2.9,4s-1.1,4.2-3,6s-3.6,2.6-5.1,4.2s-1.4,2.3-2.3,3.3
			s-2.3,1.1-3.5,1.7c-2.9,1.5-3.6,4.9-6.6,6.3s-4.3,1.1-6.2,3c-1.9,2-4.5,3.3-7.3,3.5c-3.5,0.5-4.2,2.4-6.7,3.7s-5.4,1.9-7.9,3.3
			s-5.1,0.4-8,0.8s-2.9,1.2-4.5,1.5s-3.4-0.4-5.3-0.7c-3.7-0.7-7.1,0.5-10.9-0.6s-6.3-0.6-9.5-1.5s-5.6-3.1-7.6-2.4s0.5,1,0.3,1.2
			s-4.9-2.9-5.5-3.4c-3.1-2.1-5.8-1.7-9.1-2.8s-2.4-2.2-3.7-3.7c-0.9-1-2.1-1.7-3.4-2c-3.6-1.5-4.2-4.3-6.8-6.7s-4.9-3.3-6.8-6.2
			s-5.2-4.8-6.8-8.1c-1.8-3.2-3.9-6.2-6.2-9.1c-0.3-0.4-2.6-3-2.4-3.6s4.4,3.6,4.3,4s-2.1-3.5-2.4-4.6c-0.6-2.7-0.1-4.2-1.9-6.5
			c-1.4-1.4-2.1-3.3-2.1-5.2c-0.1-2.8-1.4-4.8-1.7-7.4s1.2-5.5,1.1-8.3s-1.2-5.7-0.9-8.8c0.6-5.8,0.9-11.7,2.3-17.5
			c0.5-2.2,1.4-4.2,2.6-6.1c1.4-2.3,1.1-4.1,1.7-6.5s2.5-3.4,4.1-5.4s1.5-4.9,3.1-7s3.5-2.1,5-3.6s2-4.1,3.7-5.6s4.4-1.9,6.3-3.4
			s2.7-3.7,4.7-5s3.8-1.7,5.6-2.7s4.1-3.5,6.6-4.6s5-1.3,7.3-2.6s4-2.6,7-2.9c6.3-0.5,12-2.8,18.4-2.8c2.7,0,5.3,0.5,7.9,0.6
			s4.8-0.1,7.3,0.7c4.7,1.5,9.5,2.7,14.4,3.5c1,0.2,4.8,0.5,5.4,1.4s0,0.9-0.2,0.7s0.2,0.9,0.1,0.9s5.6,2.4,7,3.3
			c1.7,1.2,3.5,2.1,5.4,2.8c2.7,1,2.9,2.3,4.7,4.3s2.1,1.5,3.4,2.3c2.3,1.6,4.3,3.6,5.9,5.8c1.4,2,3.5,3.3,4.4,5.6s0.5,2.3,1.9,3.5
			s1.5,0.8,2.1,1.6s0.9,3.9,2.9,5.5s3.6,2.8,4.5,5.5s0.6,9.5,2.6,10.8s0.2,4.9,0.7,6.1s1.9,3.6,1.9,6.5s-0.2,5.5-0.1,8.3
			s1.4,4.2,2.1,1.1s0.9-10.9-0.9-15c-1-2.4-0.9-3.7-0.9-6.1s-1.2-4.3-1.4-6.6s-1.4-4.3-2.3-6.7s-0.4-3.1-2.3-4.4s-2-0.8-2.8-1.7
			s-1.3-4.6-3-5.8s-1,0.4-1.1,0.3c-0.7-1.3-1.4-2.7-1.9-4.1c-1.6-4.3-7.5-9.8-11.3-12.1c-1.6-1-2.7-1.3-3.8-2.9s-3.3-2.8-6-4.2
			c-4.6-2.3-8.7-6.1-13.6-8c-2.1-0.8-4.4-0.9-6.6-1.8c-2.2-0.8-4.4-1.2-6.7-1.3c-2.6-0.3-3.7-2.1-5.9-2.4s-2.8,0.4-4.2,0.5
			c-1.7,0-3.4-0.1-5-0.5c-5.8-0.9-11.8-0.5-17.5,1.1c-2.4,0.7-4,1.7-6.6,1.9s-4.3,1.1-6.8,2.7s-4.9,1.7-7.4,2.8s-4.2,3.3-6.5,4.6
			s-4.2,0.9-6,2s-2.6,3.9-4.4,5.6s-4.4,2-6.3,3.4s-2.8,4.6-4.7,6.5s-3.9,2-5.1,4.1s-1.3,4.6-3.3,6.6s-3.4,2.6-4.1,4.8
			s-0.8,5.5-1.8,8.2c-2.1,5.8-3.5,11.8-4,18c-0.3,3-1.4,6.3-0.9,9.3s1.7,4.4,1.2,6.9c-0.1,0.7-0.7,1.4-0.8,2.3c-0.5,2.9,0.4,6,1,8.9
			s-0.1,6.1,1.4,8s1.4,0.8,1.8,1.3c0.6,1.3,1,2.8,1.3,4.2c1,5.3,3.4,9.1,6,13.7c1.4,2.4,2.3,4.4,4.5,6.2s3.2,3.9,5.1,6.1
			s3.8,2.8,5.4,4.6s2.2,4,4.3,5.3s4.5,1.3,6.3,3.3s3,3.3,6.2,3.9s4.7,0.7,6.8,2.5c1.6,1.6,3.8,2.6,6.1,2.7c2.9,0.4,4.3,1.6,6.5,2.2
			s4.4-0.1,6.7,0.3s4.2,1.8,6.8,1.7s5.2-0.8,8.1,0.2c2.2,0.8,4.6,0.7,6.7-0.2c2.9-1.1,5.4-0.6,8.5-0.9s3.9-1.9,6.1-2.6
			s4.6-0.6,6.6-2.3s2.3-2.4,4.2-2.9s4.6,0.1,6.7-1.8s2.3-2.7,4.1-3.5s3.7-1.1,5.3-2.4s3.2-3.5,5.3-5c1.9-1.4,3.7-3,5.2-4.8
			c1.6-1.9,3.8-2.7,5.6-4.3s1.7-3.5,2.6-5.7s3-2.9,4-4.8s0.4-4.8,2.2-7.3s2.1-2.1,2.2-4s-0.4-1.4-0.2-2.3s3.1-3.1,4.3-4.6
			s0.1-4.5,0.6-6.9s2.5-3.7,2-6.2c-0.1-0.9-0.8-1.5-1-2.4s0.2-3.7,0-5.6s-0.1-2-1-2.4S1471.9,347,1472.6,348.1"/>
		<path class="st2" d="M1366.9,299.3c1.5-2.6,5-1,7.3-2.1s3.5-4.2,6.8-5.2s4.6-2.1,7.1-4.8c0.4-0.4,2.3-0.9,1.4-2s-1.7-0.1-2.5,0.4
			c-2.6,1.8-3.1,3.6-6.5,4.4s-4.2,2.6-7.1,4.6s-2.8,0.8-4.6,1.3s-3.4,1-3.6,2.4S1366.1,300.7,1366.9,299.3"/>
		<path class="st2" d="M1388.1,287.1c2.7,1.6,5.2,1.4,8.3,1.4s4.5,0.8,7.1,1.6s6.4,0.5,9.5,1.3c1.4,0.3,6.1,1.7,3-1.1
			s-5.9-0.8-8.4-1.1s-4.4-2.3-6.9-2.8s-5.3,0.3-8,0c-1-0.1-2.8-1.2-3.6-1.1S1386.4,286.1,1388.1,287.1"/>
		<path class="st2" d="M1415,291.5c-3.6,5.8-4.8,12.8-3.5,19.5c0.6,3.2,0.5,5.6-1.1,8.5s-2.5,4.9-1.7,8.5c1.2,6.1-3.9,8.5-4.4,14.1
			c-0.3,3.1,1.3,6.1,1.2,9.2s-2.6,6.1-2.7,9.4s1.6,5.9,1.2,9c-0.3,1.8-0.8,3.6-1.7,5.2c-0.4,1-2.4,3.5-2,4.5
			c1.2,2.7,3.9-3.6,4.3-4.5c1.6-3.8,1.6-6.9,0.9-10.9c-0.5-2.8-0.2-5.6,0.8-8.2c1.3-4,0.8-6.8,0.4-10.9s0.5-5.4,2.4-8
			s2.2-4.9,1.6-8.7s0.6-5.5,2-8.2c1.5-3.1,1.9-6.6,1-9.9c-0.9-3.7-0.9-7.5,0.2-11.1c0.6-2,1.9-3.9,2.5-5.9S1416.1,289.6,1415,291.5"
			/>
		<path class="st2" d="M1365.8,299.1c-3.6,2.9,2.6,6.1,3.3,8.5s-0.1,3.5,1.7,4.1s1.5-0.2,1.3-1.5l-0.9-1.6c-0.2-0.5,0-1.1-0.2-1.6
			c-0.6-1.2-1.4-2.3-2.3-3.2c-1.1-1.1-1.7-1.4-1.8-2.8S1368,297.4,1365.8,299.1"/>
		<path class="st2" d="M1372.6,311.2c0.7-1.2,2.9-1.1,4.1-1.3c1.8-0.2,3.6-0.9,5.1-1.9c1.8-1.1,3.4-1.3,5.3-2s2.8-0.5,1.1-1.9
			s-8.6,3.3-11,3.8s-3.8,0-5.3,1.2S1371.7,312.7,1372.6,311.2"/>
		<path class="st2" d="M1386.2,305.4c-1.8,7.5-3.8,14-3.7,21.8c0.2,2.9-0.5,5.9-2,8.4c-1.5,2.5-3.6,4.5-4.1,7.5s1,6.1,0.7,9.3
			s-2.3,6.6-3.1,10.1c-0.7,3.3-0.3,6.7,0.9,9.8c1.1,3,3.7,4.4,2.3,0.4s-2-6.1-1.3-9.5s2.6-5.3,3.4-8.1s-0.7-6.5-0.6-9.8
			s1.5-5.5,3.1-8.2c3.5-5.5,2.2-10.6,3-16.7c0.5-3.4,1.2-6.9,2.2-10.2c0.3-1,1.7-4,1.1-5S1386.4,304.4,1386.2,305.4"/>
		<path class="st2" d="M1401.1,379.7c1.6,1.7,3.3,1.3,5.3,1.8s4.1,2.1,6.3,2.8s11.1,2.5,9.9-0.3c-0.5-1-5-0.8-5.9-0.9
			c-2.8-0.4-4.5-1.5-6.9-2.8s-3.3-0.6-5.2-1s-2.3-1.4-2.8-1.3S1400.4,379.1,1401.1,379.7"/>
		<path class="st2" d="M1420.8,384.1c-4.4,2.7-3.8,6.5-4.2,11s-2.8,4.5-3.1,7.4c-0.1,1.3,0.5,4.5,2.2,2.6c0.3-0.3-0.1-2.2,0-2.7
			c0.3-0.8,0.7-1.5,1.3-2.1c1.4-2.2,1.8-3.1,1.6-5.8s-0.4-4.4,0.9-6.4s2.4-1.8,2.6-2.6S1422.1,383.4,1420.8,384.1"/>
		<path class="st2" d="M1414.9,403.5c-4.4-3.4-8.5-2.8-13.7-3.3s-9.2-3.7-14.6-3.7s-9.2-1.5-14.4-2.8c-2.7-0.6-5.5-1.1-8.3-1.4
			l-4.7-0.7c-1.6-0.3-3.5-1.8-2.4,0.8c1.8-3.8,0.9-8.1,1.3-12.2s2.8-7,0.3-10c-0.4,0.5-0.8,1-1,1.6c3.4,0.9,6.8,1.7,10.3,2.4
			c1.3,0.2,7.9,2.3,9,1.6c2.7-1.8-1.6-2.2-2.9-2.5l-9.6-1.9c-1.6-0.3-6.7-2.7-7.5-0.6c0.2,0.8,0.5,1.6,0.9,2.4
			c0,1.1-0.1,2.1-0.5,3.1c-0.6,2.2-0.9,4.4-1,6.7c0,1.4,0.1,2.8,0,4.2s-1.3,3.9-1,4.7c1.2,3.2,13.8,2.8,17.2,3.8s4.7,2.1,7.2,2.6
			s5.6,0.1,8.5,0.3c2.5,0.3,4.9,1,7.2,2.1c2.5,1.3,5.3,1.8,8.1,1.6c2.6-0.3,5.1,0.1,7.5,1.1c0.7,0.3,2.8,2.1,3.5,2
			S1416,404.4,1414.9,403.5"/>
		<path class="st2" d="M1366.9,300.4c-0.1-1.7,2.1-1.1,2-2.4s-1.6-0.9-2.4-0.5s-2,1.8-1.6,2.9S1367.1,302,1366.9,300.4"/>
		<path class="st2" d="M1415.7,291.9c0.7,2.7,1.9,4,3.8,5.8c1.2,0.9,1.9,2.4,1.9,3.9c0.1,1.6-0.3,3.7,1.6,4.4s1.8-0.4,1.3-1.6
			s-0.9-0.3-1.1-0.9c-0.1-0.7,0-1.5,0.1-2.2c0.1-1.8,0.2-2.9-1.2-4.3s-2.9-2.3-4.2-4.5c-0.3-0.5-0.3-1.9-1.2-1.8
			S1415.5,291.2,1415.7,291.9"/>
		<path class="st2" d="M1423.2,305.6c-4.3,3.4-6.1,8.2-6.5,13.6s-2.3,10.2-3.7,15.6s0.3,10.9-1.8,16.2c-1,2.4-2.5,4.6-3.3,7.1
			s-0.1,5.8,0.6,9c0.7,2.4,0.7,5-0.2,7.3c-0.5,1.2-3.2,5.1-1.7,6.4s2-2.5,2.4-3.5c1-2.9,2.3-4.7,1.9-8.1s-1.5-5.6-1.2-8.6
			s1.9-5.3,3.2-7.9c2.7-5.7,0.4-10.4,1.4-16.1c0.6-3.3,2.8-6,3.7-9.2s0.4-6.5,0.7-9.8c0.3-2.8,1.3-5.5,3-7.7
			c0.6-0.8,2.7-2.1,2.9-2.9S1424.5,304.5,1423.2,305.6"/>
		<path class="st2" d="M1420.7,386c1.2,1.7,4.3,3,5.1,4.5s0,2.1-0.5,3.5c-0.6,2.3-1.3,4.6-2.2,6.8c-1.3,2.8-3.3,5.1-3.5,8.3l1.5-0.9
			c-1-0.6-6.1-4.6-6.8-2.9s3.3,3.2,4.4,3.8c3.1,1.6,2.5,0.2,3.5-2.4s2.4-3.7,3.3-5.7s0.9-4.1,1.7-6.1s2.4-2.8,1.6-4.7
			s-3.3-2.4-4.7-3.5s-1.7-2.1-2.3-2.1S1420.2,385.2,1420.7,386"/>
		<path class="st2" d="M1418.6,408.2c-2.9-1.1-5.9-1.8-9-2.2c-3.1-0.2-6.1,0-9-1s-4.4-2.3-6.7-3.1s-5.3-0.7-8.1-0.6
			c-5.9,0.1-11-3-16.9-3.9c-3.1-0.5-6.2-0.9-9.4-1c-1.5-0.1-3.6,0.4-1.4,1.8s6.3,0.7,8.5,1c2.8,0.3,5.7,0.9,8.4,1.7
			c2.8,1.1,5.6,1.8,8.6,2.1c2.9,0.3,5.8-0.2,8.6,0.6c5,1.4,9,3.9,14.3,4.5c2.9,0.2,5.8,0.6,8.6,1.2c0.8,0.2,3.1,1.4,3.8,0.7
			c0.4-0.4,0.5-1.1,0-1.6c0,0,0,0,0,0L1418.6,408.2"/>
		<path class="st2" d="M1371.4,311.4c2.1,3.5,5.2,2.4,8.2,3.8c1.2,0.5,1.9,1.9,3.5,1.4s1.6-1.2,0.6-2.1s-2.3-0.5-2.8-0.7
			c-1.1-0.6-2.2-1-3.4-1.3c-1.4-0.2-2.8-0.8-4-1.6c-0.5-0.3-0.6-1.1-1.3-0.9S1371,310.7,1371.4,311.4"/>
		<path class="st2" d="M1356.7,392.2c-1.1,1.9,0.1,4.7,2,5.6s1-2.6-0.8-3.5l0.4,0.6C1358.3,394.8,1358.4,389.5,1356.7,392.2"/>
		<path class="st2" d="M444.1,638c0.9,1.3,0,2.7-0.3,4.1s0.1,2.1,0.5,3.7s-0.6,4.6-0.9,7.5s0.3,2.2-0.4,3.6s-1.8,1.8-2.5,2.8
			s-1.4,5.2-3,7.5s-1.5,1.5-2,3s0.1,2.6-0.5,3.9s-1.8,2.1-2.6,3.2s-1.5,2.7-2.4,4c-1.8,2.3-3.8,4.5-5.9,6.6c-2,2-5.2,3.2-7.3,5.5
			s-4,2.9-6.9,4.4s-3.7,3.9-6.9,4.5s-3,0.2-4.6,1.3s-1.8,2.1-3.1,2.6s-1.6,0-2.4,0.3c-3.4,0.9-5.2,2.8-8.9,2.8
			c-1.4-0.1-2.8-0.1-4.2,0.1c-1,0.3-1.8,1.2-2.8,1.3s-3.9-0.6-5.6-0.7c-1.8,0-3.5,0.1-5.3,0.3c-0.5,0.1-6.1,0.5-6.4-0.4
			s1.2-0.4,1.1-0.6s-6-0.6-6.6-0.7c-2.8-0.5-5.9-2.1-8.6-3s-4.9-2.6-7.5-3.5s-4.8-0.9-6.9-2.9s-2.4-2.7-4.6-3.4
			c-0.3-0.1-0.6,0.5-0.9,0.4c-0.9-0.5-1.7-1.3-2.3-2.2c-1-1.5-1.5-3.6-3.3-4.6s-0.8,0.2-1.4-0.1s-2.9-3.5-4.1-5.3s-3.7-3.8-5.2-6
			c-3.2-4.7-5.6-9.9-6.9-15.4c-0.6-2.4-2.4-3.9-3.2-6.1s0-2.6-0.3-4s-1.2-2.7-1.4-4.2s1-5.6,0.8-8.6s-1.8-5.2-0.9-8.6
			c1.5-5.8,0.5-12.9,3.2-18.4c1.1-2.6,2.3-3.7,2.6-6.6s1.2-3.6,3.2-5.7s2.1-4.3,3.6-6.5s4.3-3.2,5.8-5.8s3.3-3.9,6.1-5.7
			s4.3-4,6.8-5.6s4.7-2.4,6.8-3.8s6-2.5,9.1-4.1s4.1-2.9,7.2-3.3s7.3-1.6,11.1-2.2c6.8-0.9,13.7-0.5,20.3,1.1c5.5,1.4,12,2,17,5
			c2.6,1.6,5.2,2.8,7.6,4.6s4.9,1.3,6.7,3s1.3,2,2.2,3c1.2,1.1,2.5,2,3.9,2.9c2.2,2,4.3,4.3,6.1,6.7c0.7,0.8,1.3,1.8,1.7,2.8
			c0.6,1.1,1.4,2.1,2.3,2.9c2.3,2.4,2.3,5.1,5.3,6.9s3.1,3.2,3.7,5.9c0.2,0.6,0.6,6,1.2,6.2s0.5-4.7,0.1-5.1s0.8,5.8,0.9,7.2
			s-0.4,3.2-0.2,4.8s1.9,3.5,2.2,5.5s-1.2,13,1.5,11.5c0.8-0.5,0.9-4.9,0.9-5.9c0-1.7-0.2-3.4-0.4-5.1c-0.1-2-0.8-2.9-1.5-4.8
			s-0.2-5-0.6-7.6s-2.1-11.4-5-13.8c-1.1-0.9-2.1-1.1-3-2.3s-1.7-3.1-3-4.6s-3.2-5.1-5.2-7.6c-1.4-1.7-2.9-3.2-4.6-4.6
			c-1.7-1.5-4.1-2.4-5.6-4s-1.8-2.7-3.4-3.7s-4.7-2.5-7-3.7s-4.5-2.8-6.8-4.2s-3.9-0.8-5.9-1.2c-5-1.1-10-4.5-15.2-4
			s-10.8-0.9-16.3,0s-10.7,1.2-15.2,3.1c-2,0.9-3.5,2.5-5.6,3.4s-4.1,1.3-6.1,2.6c-1.8,1.4-3.9,2.5-6,3.4c-2.3,0.8-4,1.4-5.6,3.9
			s-7.3,4.3-9.7,8.2c-1.2,1.9-1.9,3.2-3.7,4.5s-2.7,3.4-4.3,6.4s-2.3,2.5-3.5,3.8c-1.4,1.8-2.3,4-2.4,6.3c-0.4,1.8-1,3.6-1.9,5.3
			c-1,3-1.7,6-2.1,9.1c-0.7,4.2-2.3,10-1.6,14.2s1.1,4.6,0.6,7.5c-0.5,2.5-0.3,5.2,0.5,7.6c0.7,2.4,0,4.8,0.7,7.1s2.2,2.4,3,4.2
			s0.6,4.6,1.5,6.8c1.1,2.4,2.4,4.6,3.9,6.7c1.2,1.9,1.8,4.6,3.3,6.1s3,2.2,4.2,3.9c2.6,3.6,5.9,6.1,8.6,9.6
			c0.9,1.4,2.2,2.5,3.7,3.1c1,0.3,2,0.6,3,1.1c1.1,0.8,1.4,1.9,2.4,2.8s3.7,1.5,5.7,1.9s4,2.3,6.6,3.7s2.9,0.6,4.5,1
			s4.1,1.9,6.3,2.3c4.7,0.7,9.4,1.2,14.2,1.4c2.5,0.1,5,1.2,7.5,1s4.1-1.4,6.4-1.7s5,0.4,7.5-0.9c1.9-0.9,3.9-1.6,5.9-2.1
			c2.4-0.6,3.2-2.4,5.1-3.5s4.5-0.3,6.6-1.4s3-2.6,4.6-3.6s4.3-1.8,6-3.6s5.4-4.3,7.6-6.8s6.8-4.7,8.4-8.9c0.4-1.3,1-2.6,1.7-3.8
			c0.9-1,1.9-1.5,2.4-2.9s0.1-2.4,0.5-3.5s2.3-3.3,3.1-5.2c0.7-2.3,1.7-4.5,3.1-6.4c1.6-2.1,1.4-3.1,1.3-5.6s2.2-4.5,1.8-6.9
			c-0.2-0.8-0.9-1.1-1.2-2s0.2-2.9,0.3-4.5s0.2-2.3-0.6-2.9S443.3,636.7,444.1,638"/>
		<path class="st2" d="M451.3,638.1c1.4,2.2-1.1,4.4-0.6,6.7s1.4,1.9,1.6,3.2s-0.6,2.3-1.2,3.7s0.3,5.2-1.2,7.6s-3.5,3.1-4,6.1
			s-0.3,3.1-1.5,4.6s-1.7,1.3-2.3,2.4s-0.1,2.8-0.4,4.2s-1.9,2.6-2.9,4.1s-1.1,4.2-3,6s-3.6,2.5-5.1,4.1s-1.4,2.4-2.4,3.3
			s-2.2,1.1-3.4,1.8c-2.9,1.4-3.7,4.9-6.6,6.3s-4.3,1-6.2,2.9c-1.9,2.1-4.5,3.3-7.3,3.5c-3.5,0.4-4.2,2.4-6.7,3.8s-5.4,1.9-7.9,3.3
			s-5.2,0.4-8,0.8s-3,1.2-4.5,1.5s-3.4-0.4-5.3-0.7c-3.8-0.8-7.2,0.5-10.9-0.6s-6.4-0.7-9.5-1.5s-5.6-3.1-7.6-2.5s0.5,1,0.3,1.3
			s-4.9-3-5.5-3.4c-3.1-2.1-5.9-1.8-9.1-2.8s-2.5-2.3-3.7-3.7s-2-1.4-3.4-2c-3.6-1.5-4.2-4.3-6.8-6.7s-4.9-3.3-6.8-6.2
			s-5.2-4.9-6.8-8.1s-4-6-6.2-9.1c-0.3-0.4-2.7-3-2.4-3.6s4.4,3.6,4.2,4s-2-3.6-2.3-4.7s-0.2-4.1-2-6.4c-1.3-1.5-2-3.3-2-5.3
			c-0.1-2.7-1.4-4.7-1.7-7.4s1.2-5.9,0.9-8.9s-1-5.7-0.6-8.8c0.7-5.6,0.8-11.2,2.2-16.8c0.5-2.2,1.4-4.2,2.6-6.1
			c1.4-2.3,1.1-4.1,1.7-6.6s2.5-3.4,4.1-5.3s1.5-4.9,3.1-7s3.9-2.3,5.3-4s1.9-4.1,3.9-5.6s4.4-1.8,6.2-3.4s2.6-3.7,4.7-5
			s3.9-1.5,5.7-2.6s4.1-3.5,6.7-4.5s4.9-1.4,7.2-2.8c2.1-1.5,4.6-2.3,7.1-2.5c6.3-0.5,12.1-3,18.6-2.8c4.7,0,10.5,0,15,1.5
			c4.7,1.4,9.5,2.5,14.3,3.3c1,0.2,4.4,0.6,5.1,1.5s-0.4,0.6-0.5,0.6l0.7,1.1c1.5,1.6,5.5,2.4,7.5,3.7c1.7,1.1,3.5,1.9,5.4,2.5
			c2.4,1.1,2.5,3.2,4.2,4.8s2.7,1.4,3.9,2.3c2,1.6,3.8,3.5,5.2,5.6c1.5,2.1,3.2,3,4.2,5.5s2,2.5,3.6,4.2s1.1,4.2,3.2,5.9
			s3.6,2.7,4.5,5.5s0.6,9.4,2.6,10.8s0.1,4.8,0.6,6.1s2,3.5,1.9,6.5s-0.1,5.5,0,8.2s1.4,4.3,2.1,1.2s0.9-10.9-0.9-15.1
			c-0.8-1.9-1.2-3.9-1-6c0.1-2.3-1.1-4.4-1.3-6.7s-1.4-4.2-2.3-6.7s-0.5-3.1-2.4-4.3s-1.9-0.8-2.7-1.7s-1.4-4.6-3-5.8
			s-1,0.4-1.1,0.3c-0.7-1.4-1.4-2.8-2-4.2c-1.5-4.2-7.4-9.7-11.2-12.1c-1.6-0.9-2.7-1.2-3.8-2.9s-3.3-2.7-6.1-4.1
			c-4.5-2.3-8.7-6.1-13.5-8c-2.2-0.9-4.5-0.9-6.6-1.9s-4.1-0.9-6.7-1.2s-3.8-2.1-5.9-2.4s-2.8,0.4-4.3,0.5c-1.7,0-3.4-0.2-5-0.5
			c-5.8-0.9-11.8-0.6-17.5,1.1c-2.3,0.6-4,1.7-6.5,1.8s-4.3,1.1-6.8,2.8s-4.9,1.6-7.4,2.8s-4.2,3.3-6.5,4.5s-4.2,1-6,2
			s-2.6,4-4.4,5.7s-4.4,1.9-6.3,3.4s-2.8,4.5-4.7,6.5s-3.9,2-5.1,4.1s-1.4,4.6-3.4,6.6s-3.3,2.6-4,4.8s-0.8,5.4-1.9,8.2
			c-2.3,6-3.2,11.5-3.9,18c-0.3,3-1.4,6.3-0.9,9.3s1.6,4.4,1.2,6.9c-0.1,0.6-0.7,1.3-0.9,2.2c-0.4,3,0.5,6.1,1,9s0,6.1,1.5,8
			s1.3,0.8,1.7,1.3c0.6,1.3,1.1,2.7,1.4,4.2c0.9,5.2,3.4,9.1,6,13.6c1.4,2.5,2.3,4.4,4.5,6.2s3.2,3.9,5,6.1s3.9,2.8,5.5,4.7
			s2.2,3.9,4.3,5.2s4.5,1.4,6.3,3.3s3,3.4,6.2,3.9s4.7,0.7,6.8,2.6s3.2,2.2,6.1,2.6s4.2,1.6,6.5,2.2s4.4,0,6.6,0.4s4.3,1.8,6.8,1.6
			s5.3-0.8,8.2,0.2c2.1,0.9,4.5,0.8,6.6-0.2c3-1,5.5-0.5,8.5-0.8s4-1.9,6.2-2.6s4.5-0.6,6.6-2.3s2.3-2.4,4.2-2.9s4.5,0,6.6-1.9
			s2.4-2.6,4.2-3.5s3.7-1,5.2-2.4c1.7-1.8,3.5-3.4,5.4-4.9c1.9-1.4,3.7-3,5.1-4.9c1.6-1.8,3.9-2.7,5.7-4.3s1.7-3.4,2.6-5.6
			s3-2.9,4-4.8s0.4-4.9,2.2-7.3s2.1-2.1,2.2-4.1s-0.4-1.3-0.2-2.2s3.1-3.1,4.3-4.6s0.1-4.5,0.6-7s2.4-3.6,2-6.1
			c-0.3-0.8-0.7-1.6-1.1-2.4c-0.5-1.9,0.3-3.8,0.1-5.6s-0.2-2.1-1-2.5S450.6,637,451.3,638.1"/>
		<path class="st2" d="M345.6,589.3c1.5-2.6,5-1.1,7.2-2.2s3.6-4.1,6.8-5.1s4.7-2.2,7.2-4.8c0.4-0.4,2.2-1,1.3-2s-1.6-0.1-2.4,0.4
			c-2.6,1.7-3.1,3.6-6.5,4.3s-4.2,2.7-7.1,4.6s-2.8,0.9-4.6,1.3s-3.4,1.1-3.6,2.5S344.8,590.7,345.6,589.3"/>
		<path class="st2" d="M366.7,577c2.8,1.6,5.3,1.5,8.4,1.4s4.5,0.8,7,1.7s6.4,0.4,9.6,1.2c1.4,0.4,6,1.7,3-1s-5.9-0.8-8.4-1.1
			s-4.4-2.3-7-2.8s-5.3,0.3-7.9,0c-1-0.1-2.8-1.2-3.7-1.1S365.1,576.1,366.7,577"/>
		<path class="st2" d="M393.6,581.5c-3.6,5.8-4.8,12.7-3.4,19.4c0.6,3.3,0.5,5.7-1.1,8.6s-2.5,4.9-1.8,8.5c1.3,6.1-3.8,8.5-4.3,14.1
			c-0.3,3.1,1.3,6,1.2,9.1s-2.6,6.1-2.7,9.5s1.5,5.9,1.2,9c-0.3,1.8-0.8,3.6-1.7,5.2c-0.4,1-2.4,3.5-2,4.5c1.2,2.7,3.9-3.6,4.2-4.5
			c1.7-3.9,1.7-6.9,1-11c-0.5-2.7-0.2-5.5,0.8-8.1c1.3-4,0.8-6.9,0.3-11s0.6-5.4,2.5-8s2.1-4.8,1.5-8.6s0.7-5.5,2-8.3
			c1.4-3.1,1.8-6.5,1-9.8c-0.9-3.7-0.8-7.5,0.2-11.1c0.6-2,2-3.9,2.5-5.9S394.8,579.6,393.6,581.5"/>
		<path class="st2" d="M344.5,589.1c-3.6,2.9,2.6,6,3.3,8.5s-0.2,3.5,1.7,4.1s1.4-0.3,1.2-1.5l-0.9-1.6c-0.2-0.5,0.1-1.2-0.1-1.7
			c-0.6-1.1-1.4-2.2-2.3-3.1c-1.1-1.1-1.7-1.4-1.9-2.8S346.6,587.4,344.5,589.1"/>
		<path class="st2" d="M351.2,601.2c0.8-1.2,2.9-1.1,4.1-1.3c1.9-0.2,3.6-0.9,5.2-1.9c1.8-1.1,3.4-1.3,5.2-2s2.9-0.6,1.2-1.9
			s-8.6,3.2-11,3.7s-3.9,0-5.3,1.3S350.4,602.6,351.2,601.2"/>
		<path class="st2" d="M364.9,595.3c-1.9,7.5-3.9,14.1-3.7,21.9c0.2,2.9-0.5,5.9-2,8.4c-1.6,2.4-3.6,4.5-4.1,7.5s1,6.1,0.7,9.2
			s-2.4,6.7-3.1,10.2c-0.6,3.3-0.4,6.7,0.8,9.8c1.1,2.9,3.7,4.3,2.3,0.3s-1.9-6.1-1.2-9.5s2.5-5.2,3.3-8.1s-0.6-6.4-0.5-9.7
			s1.4-5.5,3.1-8.2c3.5-5.6,2.2-10.6,2.9-16.7c0.6-3.4,1.3-6.8,2.3-10.2c0.2-1,1.6-4,1.1-5S365.1,594.3,364.9,595.3"/>
		<path class="st2" d="M379.8,669.7c1.6,1.6,3.3,1.3,5.3,1.8s4.1,2.1,6.3,2.8s11.1,2.4,9.8-0.4c-0.4-0.9-4.9-0.7-5.8-0.9
			c-2.8-0.4-4.5-1.5-7-2.8s-3.2-0.5-5.1-0.9s-2.3-1.4-2.9-1.3c-0.5,0.1-0.9,0.6-0.9,1.1C379.5,669.3,379.6,669.5,379.8,669.7"/>
		<path class="st2" d="M399.5,674.1c-4.5,2.7-3.8,6.5-4.3,11c-0.3,2.9-2.8,4.4-3,7.4c-0.1,1.2,0.5,4.5,2.2,2.6
			c0.3-0.3-0.1-2.2,0-2.7c0.3-0.8,0.7-1.5,1.2-2.2c1.3-1.6,1.9-3.7,1.6-5.8c-0.1-2.2-0.4-4.4,0.9-6.4s2.5-1.7,2.7-2.5
			S400.8,673.3,399.5,674.1"/>
		<path class="st2" d="M393.6,693.5c-4.5-3.4-8.5-2.8-13.7-3.3s-9.2-3.8-14.6-3.7s-9.3-1.6-14.4-2.9c-2.8-0.6-5.6-1.1-8.4-1.4
			l-4.6-0.6c-1.7-0.3-3.5-1.9-2.4,0.8c1.8-3.9,0.8-8.2,1.3-12.3s2.8-6.9,0.2-10l-0.9,1.7c3.4,0.9,6.8,1.7,10.2,2.3
			c1.3,0.3,8,2.4,9.1,1.7c2.7-1.8-1.6-2.3-3-2.5l-9.5-1.9c-1.7-0.4-6.7-2.7-7.5-0.7c-0.2,0.4,0.8,2.1,0.8,2.5c0,1-0.1,2-0.4,3
			c-0.7,2.2-1,4.4-1.1,6.7c0,1.5,0.2,2.9,0.1,4.3s-1.4,3.9-1.1,4.6c1.3,3.2,13.9,2.9,17.3,3.8s4.6,2.1,7.1,2.6s5.7,0.1,8.5,0.4
			c2.5,0.3,5,1,7.3,2.1c2.5,1.3,5.3,1.8,8.1,1.5c2.5-0.2,5.1,0.1,7.4,1.1c0.7,0.4,2.8,2.2,3.5,2S394.7,694.3,393.6,693.5"/>
		<path class="st2" d="M345.6,590.3c-0.1-1.6,2-1,2-2.4s-1.7-0.9-2.4-0.5s-2,1.9-1.6,2.9S345.7,591.9,345.6,590.3"/>
		<path class="st2" d="M394.3,581.9c0.8,2.7,1.9,3.9,3.9,5.8c1.2,0.9,1.9,2.4,1.8,3.9c0.2,1.6-0.2,3.7,1.6,4.4s1.9-0.4,1.4-1.6
			s-0.9-0.3-1.1-0.9c-0.1-0.7,0-1.5,0.1-2.2c0-0.7,0.2-2.9-1.2-4.3s-2.9-2.3-4.2-4.5c-0.3-0.5-0.3-1.9-1.3-1.8
			c-0.5-0.1-0.9,0.3-1,0.8c0,0.1,0,0.1,0,0.2L394.3,581.9"/>
		<path class="st2" d="M401.9,595.5c-4.4,3.5-6.2,8.3-6.5,13.7s-2.3,10.2-3.7,15.6s0.3,10.9-1.8,16.2c-1,2.4-2.6,4.5-3.3,7
			s-0.1,5.9,0.6,9s0.8,4.8-0.3,7.3s-3.1,5.2-1.7,6.4s2.1-2.5,2.4-3.4c1.1-3,2.4-4.7,2-8.1s-1.6-5.6-1.2-8.6s1.8-5.4,3.1-8
			c2.8-5.6,0.4-10.3,1.5-16.1c0.5-3.3,2.8-5.9,3.7-9.1s0.3-6.6,0.7-9.8c0.3-2.8,1.3-5.5,3-7.8c0.6-0.7,2.6-2,2.9-2.8
			S403.2,594.5,401.9,595.5"/>
		<path class="st2" d="M399.4,676c1.1,1.7,4.2,2.9,5.1,4.5s-0.1,2.1-0.5,3.5c-0.6,2.3-1.3,4.6-2.2,6.8c-1.3,2.8-3.3,5-3.6,8.2
			l1.5-0.8c-1.1-0.7-4.8-4-6.2-3.4s4.4,5.2,5.2,5.1s2-3,3-4.8s2.7-4.2,3.4-6.9c0.3-1.1,0.3-2.3,0.7-3.4s1.8-2.4,1.9-3.2
			s-2.4-3.3-4-4.3s-1.8-2-2.6-2.3S398.3,674.5,399.4,676"/>
		<path class="st2" d="M397.2,698.2c-2.9-1.1-5.9-1.8-9-2.2c-3-0.3-6,0-9-1s-4.3-2.3-6.7-3.1c-2.6-0.7-5.3-0.9-8-0.7
			c-6,0.2-11.1-3-16.9-3.8c-3.1-0.5-6.2-0.9-9.4-1c-1.6-0.1-3.6,0.4-1.5,1.8s6.4,0.6,8.6,0.9c2.8,0.3,5.7,1,8.4,1.8
			c2.9,0.9,5.5,1.9,8.6,2.1s5.7-0.2,8.6,0.6c5,1.4,8.9,3.9,14.3,4.5c2.9,0.2,5.8,0.6,8.6,1.2c0.8,0.2,3,1.4,3.7,0.7
			c0.4-0.4,0.5-1.1,0-1.6c0,0,0,0,0,0L397.2,698.2"/>
		<path class="st2" d="M350.1,601.4c2.1,3.5,5.1,2.4,8.2,3.7c1.2,0.5,1.9,1.9,3.4,1.4s1.7-1.1,0.7-2s-2.3-0.5-2.8-0.7
			c-1.1-0.6-2.2-1.1-3.4-1.3c-1.4-0.3-2.8-0.9-4-1.6c-0.5-0.3-0.6-1.1-1.4-0.9S349.7,600.7,350.1,601.4"/>
		<path class="st2" d="M335.4,682.2c-1.1,1.8,0,4.7,1.9,5.6s1.1-2.7-0.8-3.6C338,686.1,337,679.5,335.4,682.2"/>
	</g>
</g>
<path class="st3" d="M990.1,219.1c7.4-2.3,15-3.4,22.7-3.5c5.7,0,5.6,0.6,10.8,0.6c13.2,0,15.4-4,30.6-5.7
	c6.7-0.7,13.4-0.8,20.1-0.4c3.5,0.2,6.8,1.2,11.9,1c4-0.1,8-0.8,11.8-1.9"/>
</svg>
