<svg xmlns="http://www.w3.org/2000/svg" width="1647.3" height="807.9" viewBox="0 0 1647.3 807.9"><title>7Монтажная область 1</title><path d="M420.2,752.9a4.1,4.1,0,0,0-4.2,2.5,1.6,1.6,0,0,1-.4.7,49.3,49.3,0,0,0-7.6,11.4,23.7,23.7,0,0,0-1.7,8.4,12.3,12.3,0,0,0-4.6-.3,6.5,6.5,0,0,0-5.3,3.7,5.3,5.3,0,0,0,.8,6.1,6.3,6.3,0,0,0,3.8,2.1,5.1,5.1,0,0,0,5.2-2.1c2.1.2,4.2.8,6.3.1a5.1,5.1,0,0,0,3.6-4.8c.3-3.4-.3-6,1.1-9.4a35.1,35.1,0,0,1,4.2-6.6,3.9,3.9,0,0,0,2.7-2.4l.7-1.7C426.5,757.1,423.5,752.8,420.2,752.9Z" style="fill:#ff665e"/><path d="M244.1,693.8a42,42,0,0,1-9-3.2L234,690a4.2,4.2,0,0,0-1.8-1.1c-2.1-1.3-4.6-3-4.7-3.9s3.5-5.7,4.4-7.7a8.5,8.5,0,0,0-.4-7.9c-3.3-5.5-11.9-.5-8.7,5.1-.8-1.5-2.8,3.1-3.2,4a15.5,15.5,0,0,0-2.2,5.5c-.4,3.4,1.5,6,3.7,8.5,5.4,5.8,12.8,9,20.3,10.9S250.3,695.4,244.1,693.8Z" style="fill:#ff665e"/><path d="M299.3,639.4a40.3,40.3,0,0,0,12.3,3.5c4.6.5,8.2.6,12.2,3.1s6.9,2.9,10.9,4.1,7.8,4.6,11.6,7.1c14.9,10.2,33.3,14.1,46.3,27A248.6,248.6,0,0,1,410,703.8c2.7,3.3,4.7,7,7.1,10.4s5.7,5.7,8,8.9,1.6,6.5.7,10.6a43.1,43.1,0,0,0-.7,15.2c.6,4.3,1.7,7.7-1.5,11.2s-7.2,6.4-10.7,9.5-6.6,6.7-10.7,8.5-9.1,1.2-13.7,1.7-8.7,2.2-13.3,1-7.8-3.2-12.3-3.6-8.6,0-12.9-.7-7.8-3.2-11.8-5.1c-6.6-3.2-15.7-2.5-20.8-8.5-2.6-2.9-3.6-5.6-7.5-7s-8.2-2.2-12.2-4c-8.3-3.7-15.5-9.3-22.7-14.8s-16-11.2-21.6-18.7c-2.6-3.4-4.4-7.2-7.3-10.4s-5.6-5.2-6.7-9.1c-.7-2.3-.7-4.8-1.5-7.1s-2.2-4-3.3-6c-2.7-4.6-2.4-8.5-1.8-13.6s-1.5-9.4-.4-13.7,4.6-7.6,7.3-10.3,8-4,13-5.7,7.6-4.6,12.4-4.9,10.2.4,15.2.8l17.8,1.1" style="fill:#ff665e"/><path d="M415.1,785.4c-5.5,3.1-10.8,6.5-16.3,9.4-2.3,1.2-4,.8-6.6.7a28.8,28.8,0,0,0-7.7,1.2c-4.4,1.3-9.5,4.6-14.2,3.1-2.2-.8-3.3-2.2-5.8-2.4a37.7,37.7,0,0,0-8.9.4c-4.4.4-9,1.7-13.4.5s-6.1-4.4-9.5-6.5-8.9-.6-13.4-2.1-6.9-3.7-10.4-5.5-9.4-2.2-14.4-3.4a29.6,29.6,0,0,1-11.3-5.4c-3.6-2.7-6-6.2-9-9.6a20.5,20.5,0,0,0-10.6-6.4c-4.1-1.3-7.9-2.4-10.8-5.8s-3.8-6.4-6.5-8.9-7.6-2.8-10.5-6-3.4-6-5-8.9-6.2-5.9-8.2-9.6-1.7-7.5-3.2-11-2.4-4.1-3.1-6.4-.2-4.7-.1-7l1.2-15.2m6.2,4.2c1.5-1.3,3.1-4.3.8-5.7s-2,2.3-1.4,3.7c2.1-3.1,3.4-6.8,5.2-10.1l3.6-5.9c.9-1.3,3.1-3.5,2.9-5.1-.5-3.8-4.7-1.4-6.2.2s-2.9,5.3-3.3,8.4a54.3,54.3,0,0,0-.4,9c.2,2.1,2,4.1,3.9,2s.4-11,2.9-11.5l-2.9-2.2c.2,6.9-2,13.6-4.4,20.1,1,.1,2.1.4,3,.4s1.1.4,1.8-1.2.8-4.2,1.4-6.1a47.9,47.9,0,0,1,4.7-10.9c-1.3.4-4,.3-2.3,1.5l-1.1-2.6a124,124,0,0,1-4.6,18.9l4.6.6a58.9,58.9,0,0,1-.4-11.1l-4.5.6c.4,2.6,2.7,19.1,7.3,16s-2.4-8.2-.4-11.2l-4.2-.6c1.1,2.9,2.2,5.9,3.1,8.9s.6,5.1,3.2,5.1c4.5.1.9-12.9.6-15.4l-4.5.6c.4,2.4,1.7,17.5,6,14.9,2.6-1.5.4-6.4-.1-8.6s-.4-7.3-2.2-8.7-3.4.1-3.8,1.8.6,4.8.8,6.6l.9,6.6,4.5-.6c-.7-2.8-2.8-14.7-6.9-14s-1,10.8-.5,13.4l4.5-1.2a79.3,79.3,0,0,1-3.3-11.8c-.4-1.9-.4-5.4-3.3-4.6s-3,15.1.6,15.5,5.7-13,6.3-16.1,2.2-7.7-2-7.9-4.1,4.3-5,6.4-7,16.2-2.8,17.5,6.3-11.1,6.9-14.1,2.1-8.8-.2-10.6-3.9.4-4.9,1.8c-2.4,3.4-2.3,8.4-2.7,12.4.9,0,2.8.3,3.7,0s1-2.2,1-4c-.1-4.3-.2-9.7,4-12.1l-3.2-3.2A177,177,0,0,0,221,677c-.9,1.7-3.1,4.1-1.9,5.9s4.4,1.2,5.8-.2c-.5-.3-3.3-2.4-3.9-2.3a3.7,3.7,0,0,0-1.4,2.9,2.5,2.5,0,0,0,2.9,2l1.1-.5m186.8,89.4c-4.7-3.4-7.8,6.1-9.1,9l4.3,1.2v-8.6c-1,.3-2.9.4-3.6,1s-.4.6-.4,2.1.3,3,1.9,3.4,6.2-6.2,7.7-8l-4-1.7c.1,2.3-3,14.2,2.9,10.6,1.9-1.1,2.2-4,3-5.8a26.2,26.2,0,0,1,4.5-7.3l-3.6-.5c2.5,7.3,6.3-.7,7.9-4.1l-4.3-1.2a21.6,21.6,0,0,1-4.4,9.9c-1.7,2.4-5.8,5.7-4.8,9.1s5.3,1.7,6.8-.6a35.4,35.4,0,0,0,3.8-10.1c.7-3.3,2-9.1.4-11.8s-5.8,1.4-7.6,3-6.1,4.8-1.9,6.2,7.2-4.8,9.1-6.6l-4-1.7a34.1,34.1,0,0,1-1.1,12.3c-.3,1.2-1.4,6.9-3,7l2,1.2c-.5-.7,6.4-8.4,7.1-9.9s3.8-8.2,1.3-9.9-5.6,5.1-6.7,6.9l4.3,1.2c-.2-1.7-.8-4.5-3.1-4.4s-3.6,3.3-4.5,4.7-2.2,7.8-4,8.7l3.4,2.6c.6-2.4,3.2-10.9-.8-11.7s-6.5,6.5-7.9,8.6l4.2,1.7c.4-1.9.4-5.5-1.5-6.7s-3.3.2-3.7,1.8a31,31,0,0,0-.1,7.5c.9,9.7,9-3.8,7.1-5.1,2.4,1.7,4.6-2.4,2.3-4m-2.4-6.3a24,24,0,0,1-4.5,4.5c.3.4,2.8,3.3,3.2,3.3s2.1-1.9,2.5-2.2a29.6,29.6,0,0,1,6.1-3.8l-3.5-2c0,1,.6-1.2.7-1.3-2.9,3.5,3.4,6.4,3.9,1.7s-8.5.5-10,1.7-4.4,3-3.4,5.1,3.4,1.1,4.7,0,4.2-3.5,4.1-5.3-2.4-3.5-3.8-1.7m894.8-529.3c9.7,2.9,19.5,6.8,29.4,8.8,4.9.9,9-1.2,13.8-1.2s8.5.4,13-2.1,7.3-4.1,8.6-7.5.3-4.8.8-7.1a36.2,36.2,0,0,1,2-5.5c1.7-4.9.4-7.7-1.1-12.3s.2-8.8-1.9-12.9-4.1-6.2-5.6-9.7a45,45,0,0,0-5.3-10.2c-5.3-7.1-11.5-13.6-17.5-20.1s-10.8-10.9-17.4-14.8c-3.1-1.9-7.3-3-9.6-5.9s-2.6-5.9-5.3-8.2c-5.1-4.3-11.7-5.9-16.9-10.1s-13.2-6.2-20.8-9c-3.8-1.4-6.7-4.1-10.4-5.7s-7.6-1.1-11.4-1.6-8.6-2.3-13-1.7-7.2,2.6-10.5,4.2-8.8,3.5-12.7,5.9-3.3,5.2-3.6,8.9a30.9,30.9,0,0,1-3.2,11.5c-1.7,3.3-3.6,5.6-1.9,9.4s4.3,6.2,5.8,9.7,2.8,6.9,4.6,10.2a187,187,0,0,0,13.2,21.2c9.9,13.3,25.9,20.1,37.4,31.9,2.7,2.8,4.9,5.6,8.5,7.4s6,3,8.7,5.5,6.7,3.8,10.7,5.3a37.9,37.9,0,0,1,10.5,5.6m83.5-15.7c1.5-4.5,3.2-9,4.6-13.5s-.9-8.5-1-13.4-.3-7.2-3.1-10.9-3.1-6.1-4.2-9.8a12.5,12.5,0,0,0-6-8c-3.5-2.2-5.1-4.5-6.7-8.3s-2.5-5.8-5.2-7.9-7.4-3.7-10.5-6.5-4.3-6.2-6.2-9.5a31.3,31.3,0,0,0-9.1-9.4c-3.5-2.4-7.4-3.3-11.3-5s-6.2-4.1-9-6.6-5.4-4.3-9-5.1-6.9-2-9.9-5.7c-5.4-6.7-12.5-6.2-20.3-7.6-2.2-.4-5.2-.7-7.1-1.8s-2.5-2.4-4.3-3.2c-4-1.6-8.9-.2-13.1-.1s-8.9-2.5-13.1-1.6-11.2,2.8-16.8,4.1m156.6,124.8c-1.1.5-2.7,1.7-2.7,3.1a2.3,2.3,0,0,0,2.3,2.3,1.8,1.8,0,0,0,1-.2c-.2-1.2-.3-2.3-.5-3.5-2.8,2.4-5,5.5-7.7,8s-7.7,5.2-7.3,7.5,4.2,1.7,5.8.7a12,12,0,0,0,4.5-6.1c.6-1.5,5-13.2-.7-10.2-2.1,1.1-2.7,9-5,8.8l2.1,2.8c1.2-5.8,4.6-10.7,8-15.5l-2.7-1.1c-1.1-1-1.8-.8-1.9.7s-1.5,3.1-2.3,4.3a41.4,41.4,0,0,1-6.5,8c1.2,0,3.7.7,2.4-.7l.3,2.6a102.5,102.5,0,0,1,8-14.5l-4.1-1.1a42,42,0,0,1-1.8,8.7l4.3.6c.1-2.2,1.2-17.1-3.6-15s.7,7.3-1.8,9.3l3.7,1c-.5-2.5.1-12.5-3.4-12.6s-3,10.8-3.3,13.3c.8,0,3.9.5,4.4,0s.1-4.9.1-5.9.5-4.1.1-5.9-2.4-3.1-4-1.3-.4,2.8-.5,3.8c0,2.8-.9,7.1,0,9.7a2.1,2.1,0,0,0,2.4,1.7,2,2,0,0,0,1.5-1c.9-1.2.7-3.7.8-5.1l.6-7.2h-4.3c.1,2.8-.2,14.4,4.3,13.1s2.3-8.1,2.4-11l-2.9.4c-1.5-.2-1.9.3-1.2,1.8s.3,3.3.3,4.6-.9,6.7.9,8.1c4,2.7,5.8-9.1,5.4-11.1-1.4-7-7.9,5.1-8.7,6.7s-4.2,6.3-3.5,8.6,4.1,1.8,5.7.1a35.7,35.7,0,0,0,5.4-6.9c1-1.6,4.2-6,3.8-8.1s-2.8-1.9-4.1-.8-3.9,5.5-5.1,7.8-3.4,5.9-3.3,8.7,2.1,3.4,4.3,2.3,4.7-7,5.9-10.3a12.9,12.9,0,0,0-2.8-.8c-2.4-.1-.9-.5-1.8,1s-.7,3.1-1.1,4.4-2.2,5.6-5.4,6.3c.7,1.3,1.5,2.5,2.2,3.7a116.3,116.3,0,0,0,11.9-11.4c1.1-1.2,3.6-2.6,3-4.6s-3.9-2.1-5.4-1.2c1,1.1,4.5,5,4.9.9a2.3,2.3,0,0,0-2.1-2.5,1.7,1.7,0,0,0-1.2.2M1225.9,103.4c3.6,3.7,8.2-3,10.2-5.4l-3.7-2.2-1.7,7h4.2c-.1-1.9.9-4.8-1.8-5.2s-6.1,4-7.8,5.2l3.2,2.5c.4-2.4,2.5-4.9,2.6-7.1s-1.6-3.4-3.7-2.4-2.3,2.8-3.3,4.1a23.8,23.8,0,0,1-5.6,4.9l3.2,1.3c-.3-6.8-5.9-.9-8.1,1.5l3.6,2.2c1.3-3.1,3.7-5.2,6.3-7.1s6-3.5,6.1-6.5-3.5-3.3-5.6-1.9-4.7,5.1-6.1,7.7-3.9,7.7-2.9,10.4,5.9-.1,8.1-1.1,6-3,2.2-4.8-7.3,2.4-9.4,3.5l3.2,2.5a23.1,23.1,0,0,1,3.5-9.8c.5-.9,2.7-5.2,4.1-5-2-1.9-2.1-1.3-4.2.2a35,35,0,0,0-4.9,3.7c-1.6,1.4-5.8,6.3-4.5,8.6s6.4-2.4,7.9-3.8l-3.8-1.6c-.5,6.3,5.1,3.1,7.6.7s3.2-5.5,4.8-5.8l-2.4-3.2c-1.2,2.1-4.6,7.8-2.1,9.9s7.6-3.6,9.4-5.1l-3.5-2.7c-1,2.3,0,9.9,3.5,6.2,1.2-1.3,1.5-4.9,1.8-6.5,1.8-9.6-8.6.7-7.3,2-2-2-5.1,1.1-3.1,3.1m1,5.7c.8-.5,3.5-1.5,3.9-2.2s-.4-2.7-1.1-4.3a28.9,28.9,0,0,1-9,3l2.7,2.7c.2-.8-.1-.5-1,1,4-2.7-2.4-6.7-3.3-2.1s9.2.9,11,.1c4.3-2,2.9-6.2-1.6-4.2-1.5.7-4.5,1.9-4.8,3.7a2.1,2.1,0,0,0,3.2,2.3M1481.8,321c-8.8.7-14.3,14.2-18.4,20.9-1.7,2.7-3.5,5.4-5.1,8.3s-2.2,7.3-2.5,11.9-3.3,6.2-3.4,10.1c-.1,2,.5,4,.4,6s-1.2,3.7-1.3,5.6,2.5,5.2,3.2,7.9c2.2,7.6,10.6,7.5,17.3,8.8s14.7,4.4,21.4.4c2.8-1.7,5.3-3.7,8.4-4.5s6.6-.5,9.7-2c5.3-2.6,8.5-8.4,14.3-10.2,3.1-1,6.5-.3,9.3-2.4s3-3.9,4.2-6.1,2.7-4.8,5.2-6.4,5.5-2.3,7.4-4.8,2.3-6.5,3.8-9.5,3.6-5.2,5.6-7.6c4.7-5.6,6.4-10,6.5-17.3.1-3.8.6-6.8,2.7-9.9s3.9-4.6,4.1-7.6-2.5-5.3-2.8-8.3c-.1-1.3,1.1-2.8.7-4s-2-1.7-2.8-2.3c-6.3-4.2-11.9-9.5-19.9-8.2s-15.2-.5-21.8,3.3c-3.2,1.9-5.9,3.8-9.6,4.7a19.7,19.7,0,0,0-8.3,3.8c-2.7,2.3-4.6,4.1-8.3,4.4s-4.6,1-6.4,3.5-3.6,4.6-7.3,5.9-5.9,2-5.9,5.1m-26.1,75.3a53.4,53.4,0,0,1,9.4,9.6c2.4,3.2,4.1,7.3,7.7,9.3s7.5,2.3,11.1,2.6,6.9-1.1,10.6-3.4,7.1-1.5,11.2-1.7,6.3-1.7,9.3-3.7a19.4,19.4,0,0,1,10.6-3.8,17.1,17.1,0,0,0,4.6-.9c6-2.1,7.5-6.3,10.9-9.4s5.6-3.6,8.5-5.5c5.8-3.8,7.4-10.8,12-15.5,2.6-2.6,5.4-4.4,6.9-7.8s1.8-6,3.8-8.4,5.1-4.3,6.6-8.1a73.4,73.4,0,0,0,3.4-11,94.5,94.5,0,0,0,1.8-13c.2-3.5,1-8.1-1.2-11s-3.2-5.8-5.5-7.7-5.3-2.5-5.1-5.3" style="fill:#ff665e"/><path d="M298.8,640.3c-.9-.5-.4-1.4.2-1.8s2.2.6,2.2.6c2.1.6,4.2,1.3,6.3,1.7,4.3.8,9,.9,13.2,2.5s6.9,3.9,10.9,5.1a40.5,40.5,0,0,1,11,5,131,131,0,0,0,23.9,13.5c8.5,3.8,16.8,7.5,23.8,13.8a153.9,153.9,0,0,1,18.5,20.2c2.7,3.6,5.2,7.3,7.9,10.9s5.7,6.4,8.4,9.8c5.7,6.9.2,15.5,1,23.5.3,3.7,1.2,7.6.3,11.4s-4.5,6.7-7.5,9.3c-6.3,5.5-12.9,13.6-21.7,14.5-4.8.5-9.5.8-14.3,1.5s-8.3,0-12.7-1.6c-9-3.3-18.6-1-27.3-5.3a68.4,68.4,0,0,0-13.2-5.2c-3.9-.9-7.9-1.8-11.1-4.3s-4.6-7.1-9.1-8.7-7.9-2-11.7-3.6c-8.1-3.4-15.4-8.5-22.4-13.9s-14.1-10.7-19.9-17.1a118.2,118.2,0,0,1-8.7-11.1c-2.4-3.1-5.6-6-7.3-9.6s-2.1-8.2-4.2-12-4-6.9-4.1-11.2.4-9.4,0-14.3a15.1,15.1,0,0,1,2.5-10.5,28.7,28.7,0,0,1,8.4-8.6c3.6-2.3,7.8-2.7,11.7-4.1s8.3-4,13.5-4.2a129.2,129.2,0,0,1,13.9.5l14.6,1.4c.6,0,4.1-.1,3.2,1.5s-4.3.4-5.4.3c-9.4-.8-19.8-3-29.1-1.5-4,.6-7.2,3.2-10.9,4.6s-7.8,1.2-11.3,3.9-6.9,6.4-8.2,10.2,0,7.9-.2,11.9-1.4,9,.4,13.5,3.6,5.9,4.7,9.3,1.5,7.6,3.8,11,6,6.6,8.6,10.4c5.2,7.9,12.1,13.7,19.7,19.5s14.4,11.3,22.4,15.7A60.1,60.1,0,0,0,307,754c4.3,1.1,6.9,2.6,9.6,6.2,5,6.5,11.9,6.8,19.2,9.2,4,1.3,7.5,3.7,11.4,5s8.1,1.5,12.3,1.6,9.1,1.5,13.9,3.1,8.1.9,12.5.1,8.8-.4,13.1-1.4,7.3-3.6,10.5-6.4l10.2-8.9c2.5-2.2,4.8-4.6,5-8.1.3-5.1-1.4-10-.7-15.2s2.5-8.4,1.6-12.3-4.2-6-6.6-8.7-4.8-6.9-7.2-10.4c-5.2-7.4-11.7-14.4-18-21-13.2-13.7-31.6-17.9-47.2-28.1-3.6-2.4-7-5.3-11.1-7s-7.2-2.1-10.6-4c-8.2-4.4-17.5-3.7-26.1-7.4M232.2,656c-3,5.4-8.6,7.7-10.4,13.7-.7,2.6-1,5.3-2.5,7.6s-5.1,4.6-1.5,4.3,4.1-4.9,4.6-6.4,1.6-5.4,3.2-7.9a82.7,82.7,0,0,1,5.5-6.3c.6-.8,2.8-2.9,2.8-4s-.9-2.5-1.7-1m-15.8,24.6c-.4,5-.9,10.1-1.2,15.2s.9,7.9,2.6,12,1.8,8.7,3.8,12.5,6,6.1,8.2,9.9,3.3,8.3,7.1,10.8,7.2,2.6,10,5.8,4,6.7,7,9.2,7.6,3.6,11.5,5.1c8.6,3.3,12.2,12.2,19.9,16.9s18.3,4.1,26.6,9.1c3.9,2.3,7.3,4,11.8,4.3s8.2,1,12.3,4.3c8.6,7,17.4,1.8,27.1,2.5,4.4.3,7.4,3.6,12,2.7s8.6-3.3,13.3-4,8.6.1,13-2.3,8.8-4.9,12.9-7.6c1.2-.8,3-2.5.3-2.5s-5.2,2.9-6.6,3.7c-3.8,2.1-7.9,5.6-12.3,6.3s-8.9.4-13.7,2.1-8.4,2.9-13.4,1.2-8-1.5-12.6-1-10,1.9-14.5.2-5.9-5.1-9.5-6.7-8.5-.6-12.7-1.9-7-3.7-10.6-5.4-9.7-2.4-14.7-3.5c-9.8-2.3-14-9.7-20.7-16.1-3.9-3.7-8.5-4.2-13.2-6.2s-7-5-9.6-8.7a23.8,23.8,0,0,0-10.3-8.3c-4.6-2.1-6-6-8.2-10.3s-6.3-6.4-8.5-10.4-2.8-8.8-4.5-12.9-2.1-9.7-1.6-15.2c.3-3.1.8-6.2.9-9.3,0,.1.3-1.8,0-2.2a1.1,1.1,0,0,0-1.6,0,.8.8,0,0,0-.3.7m199,105.3c1.2,0,1.2-2.1,0-2s-1.3,2,0,2m.9-1c-.1-2.2,2-4.6,2.9-6.4a48.1,48.1,0,0,0,3.6-8.4c.7-2.8.1-3,.4-4.5a38.9,38.9,0,0,1,1.6-4.4c.5-1.5,1.2-2.7-.1-3.1s-1.1.9-1.5,1.4c-2,2.9-1.6,5.5-2.1,8.7s-2.3,5.3-3.4,7.8-2.1,3.5-2.9,5.5-1.2,3.3-.3,4,1.8.5,1.8-.6M218.6,688.5c.8-2.3,3.3-3,4.6-4.9s2.1-4.4,3.9-6.6a67.7,67.7,0,0,1,5.1-5.5c1.9-1.9,1.9-1.6,1.3-2.7s-1.7.5-2.2.9a48.5,48.5,0,0,0-5.6,5.5c-1.9,2.1-2.6,3.9-3.9,6.3s-3.1,2.8-4.3,4.7-1.2,1.7-.8,2.4a1,1,0,0,0,1.5.3.8.8,0,0,0,.4-.4m5.7-18.5c2.4-.4,3.8-3.1,5.8-4.3s4.6-3.9,1.1-3.2-4.2,3.3-5.7,4.6-2,.9-2.2,1.3,0,1.8,1,1.6M219,701.3c-.6-2.5,2.2-3.3,3.9-4.3s2.9-4.3,4.4-7.3,3.8-3.1,5.3-5.3,1.4-2.3.3-3-1.3.8-1.7,1.3-4.2,3.2-5.4,5.3-1.2,5-3.5,6.9-4.2,2.1-5.1,4.3,2.1,3.9,1.8,2.1m4.4,14.4c.1-2.7,2.1-4.2,4-5.8a15.4,15.4,0,0,0,4.6-6.1c1.1-2.9,2.5-3.6,4.7-5.5s3.3-5.1.4-4.2c-.6.2-.9,1.6-1.3,2.1s-2.2,1.1-3.1,1.9c-2.7,2.3-2,5.6-4,8.3s-5.3,2.6-6.7,5.4c-.3.7-1.2,4-.4,4.6s1.8.4,1.8-.7m6.8,11.1c1.9-5.4,9.1-4.1,10.5-9.7.6-2.6.8-4.6,2.4-6.8s2.8-2.4,1.6-3.5-1.6.4-2.2,1a10.9,10.9,0,0,0-3.6,6.8c-.4,2.9-.8,4.3-3.7,5.4s-4.6,1.4-6.1,4.2c-.2.4-1.1,2.2-.8,2.7a1,1,0,0,0,1.5.3.8.8,0,0,0,.4-.4m9.9,14c1.2-3.1,4.2-2.8,6-5s1-4.6,1.7-6.7,3.3-3.4,4.5-5.6,3.7-5.8.2-3.9c-1.2.7-1.5,2.7-2.3,3.7s-2,1.5-2.9,2.4-1.8,3.8-2.5,6.2-2.7,3.3-4.7,5.4c-.5.5-2.5,2.7-1.9,3.6s1.6.9,1.9-.1m15.3,13.4c1-2.8,4-3.5,4.8-6.2s-1.2-5,.4-7.2,5.1-2.3,6.3-6.2c.4-1.4.6-5-1.5-2.8s-.6,2.9-1.3,3.9a8.2,8.2,0,0,1-2.7,2.2c-3.4,2.3-3.5,3.6-3.2,7.6s-1.6,2.9-3.2,5.3c-.5.6-2.1,2.8-1.6,3.5a1.1,1.1,0,0,0,1.5.5,1.5,1.5,0,0,0,.5-.6m15.2,6.4c.3-2.4,2.4-2.6,3.8-4.2s1.3-4,2.3-5.9,3.4-2.4,4.5-4.5.8-4-1.3-2.8c-.2.1-.7,1.9-.9,2.2s-1.6,1.1-2.2,1.8a24.6,24.6,0,0,0-2.8,5.5c-.8,2.2-3.5,3-4.8,5.4s1.2,4.4,1.4,2.5m14.9,14.7c-.1-2.6,1.7-3.8,3.4-5.2s2.8-3.4,3.2-6.5a19.7,19.7,0,0,1,2.3-7.1c.6-1.1,3.7-4.1,2-4.9s-6.8,13.4-7.8,14.9-3.6,3.5-4.5,5.8c-.3.7-1.1,2.9-.3,3.6s1.8.4,1.7-.6m15.2,4.7c.3-3.3,2.2-4.5,4.1-6.8s1.8-4.3,2.2-7.1.1-2.2,1.1-3.2,2.2-.9,3-1.8,1.3-5.2-1.1-4.3c-.7.3-.3,1.9-.8,2.5s-2.1,1.2-2.8,2.1-1.1,5.5-2,8.1-3.7,3.8-4.9,6.4c-.3.7-1.4,4.1-.6,4.7s1.7.4,1.8-.6m11.4,4.7c1.2,0,1.2-2.1,0-2s-1.3,2,0,2m1-.4c-.5-2.1,2.5-3.5,3.3-5.1s.1-5.1,1.4-7.4,2.9-2.4,3-4.3-1-1.9-2-.6-2.9,3.4-3.5,4.9.1,4.6-1.2,6.9-2.6,2.5-2.9,4.3,2.2,2.7,1.9,1.3m10,4.6c.6-2.4.1-5,1.4-7.2s2.7-2.5,3.8-4,1.4-3.6,2-5.6,1.7-4.6-.9-3-1.5,5.2-2.7,6.7-3.4,2.7-4.3,4.8a17.3,17.3,0,0,0-1,6.7c0,2.1-.7,1.8.2,2.2a1,1,0,0,0,1.4-.3c0-.1.1-.2.1-.3m16.5,6.3c0-5.1,3.4-8.6,4.5-13.5.2-.7,4.8-9.7,1-6.7-.9.6-2.6,4-3,5-1,2.5-1.5,5.1-2.8,7.6a16,16,0,0,0-1.7,6.4c.1.6-.2,1.6.5,2a.9.9,0,0,0,1.3-.1.8.8,0,0,0,.2-.7m19.1-17.7c-3,3.6-1.4,8.3-3.1,12.4-.2.5-5.2,9.9-1.3,8,.5-.3,1.1-3.6,1.5-4.3s2.3-3.5,2.6-5.9-.2-4.4.5-6.5,1.6-2.4,1.5-3.1a1,1,0,0,0-1.7-.6m7.9,18.3c-.7-4,2.1-5.8,4.2-8.8.5-.9,4-9.9,1-8.1-1.3.7-1.4,4.7-2.1,6s-2.8,2.8-3.8,4.5-2.1,4.5-1.3,6.3.1,1.4.9,1.4a1.1,1.1,0,0,0,1.1-1.1v-.2m15.9-14.7c-.5,3.9-.4,7.8-.6,11.7-.1,1.3-1.8,6.9,1.2,4.4s.8-9.4,1-11.8.9-4.1.3-4.9a1.2,1.2,0,0,0-1.6-.1,1.5,1.5,0,0,0-.3.7m11.8,13.6c-.3-3.6,2.7-6.5,4.1-9.6.5-1,4.1-9.1.7-7-1,.6-1.8,4.3-2.2,5.3s-1.9,3.7-2.9,5.5-2.6,4.4-1.7,5.8,2.1,1.7,2,0m12.9-20c.1,1.8-.9,3.5-1.2,5.3s.3,3.7,0,5.6-2,3.6-1.4,4.6,1.6,0,2.1-.6c2.3-3,1-6.6,1.7-9.9.2-1.2,1.4-3.9.8-5s-2.1-1.7-2,0m8.4-7.8c-1.1,4.1-1,8-1.3,12.2-.1,1.6-1.5,4.1-1.4,5.6s1,1.6,2,.3c2.2-2.9,1.6-8.5,1.8-11.9.1-1.4,1.1-4.4.8-5.7s-1.5-2.2-1.9-.5M302,647.6c7.6,3.3,15.9,2.5,23.1,6.5,3.3,1.9,6.9,2.6,10.4,4s6.9,4.4,10.3,6.6c7,4.5,14.6,7.7,22.2,11.2a61.5,61.5,0,0,1,19.9,14.4c5.8,6.1,11.8,12.6,16.4,19.6a56.2,56.2,0,0,0,6.6,8.8c2.8,2.9,4.9,5.1,4.6,9.3s-1.8,7.5-1.7,11.4,1.6,8.1.5,11.9-4.1,5.4-6.6,7.6-6.4,6-9.9,8.7a17.3,17.3,0,0,1-9.3,3.4c-4.1.4-8,1-12,1.5s-6.7-.4-10.2-1.7-8.4-1.7-13-1.9c-8-.4-14.1-4.9-21.7-6.8-3.3-.8-6.9-1.5-9.8-3.5s-4.3-5.9-7.6-7.7-6.7-2-9.8-3.1a59.5,59.5,0,0,1-11.2-5.8A211.2,211.2,0,0,1,273,727a61.9,61.9,0,0,1-9.3-8.4c-2.5-3-4.4-6.5-6.9-9.5s-5.3-5.3-6.6-9-1.8-7.3-3.7-10.7-3.2-5.8-3.1-9.5.4-8.2.3-12.5c-.2-7.1,5.6-13.4,12.2-15.5s13.4-6,21.1-6c4.1.1,8.2.4,12.3.8l6.8.7c1,.1,5.2,1,5.9.3,2.4-2.4-7.1-2.4-7.8-2.5-4.6-.4-9.1-.9-13.7-1.1s-8.5-.5-12.4.8-7.1,3.1-11,4.1c-6.5,1.8-12.6,6.8-15.1,13.3-1.3,3.6-.2,7.1,0,10.8s-1.3,8.4.2,12.6,3.6,6.4,4.7,10,1.4,6.4,3.6,9.3,5.5,6.4,8,9.9a47.9,47.9,0,0,0,8.1,9.3c11.9,10.5,24.9,21,40.2,26.3,2.9,1,5.9,1.7,8.2,3.9s4.2,5.5,8,7.2,7.1,1.9,10.6,3,7.6,3.9,11.7,5.2,8.3.9,12.5,1.2,7.7,2.1,11.8,3.1,8.1.1,12.3-.6,8,0,11.8-1.2,6.2-3.9,9-6.3,6.8-5.8,10-8.9c6-5.7,2.9-12.2,3.1-19.4s3.5-12.3-1.1-18-10.2-13.4-15.7-19.8-10.2-12.3-16.2-17.4-13.9-8.5-21.4-11.8-14.6-8.1-21.8-12.7c-2.8-1.8-5.9-2.5-9-3.6s-6.4-3.6-9.9-4.7-7.4-1.1-10.9-1.8c-2-.4-4.1-1.5-6.1-1.8s-1.3-.7-1.8,0-.8,1.1.1,1.5m19.1,19.3c-1.9,1-3.6-.6-5.4-1s-3.8.2-5.8.3c-4,0-7.7-2.4-11.6-1.5s-7,3.1-10.8,3.9-7,3.3-6.6,8.3c.3,3.3-.4,9.2,2,11.6s7.3,4.8,10.7,6.1,8.5,1.1,13.2,1.4,7.6,3.2,11.6,5.8c7.9,4.9,17.6,1,26.2,3.3,4,1,7.7,3.2,11.8,4.3s9.7,1.4,14.2,3.6,6.3,4.8,9.4,7.1,6.4,4.7,8.4,8.1,2.8,6.6,1.5,9.7-5.9,3.6-9.6,3.3c-8.2-.8-17.6.7-24.9-4-3.3-2.1-5.7-4.7-9.9-4.9-2-.1-4.1.3-6-.1s-3.9-2.1-4.6-1.2c-2.1,3,7.5,3.2,8.6,3.2,5,.1,7.1,2.3,11,5,7,4.6,16.1,3.5,24.1,3.8,6.4.2,13.9.4,13.9-8.1s-8.1-14.5-14.5-19.2a42.1,42.1,0,0,0-9.9-5.6c-4.6-1.6-9.6-2.1-14.3-3.6s-8.2-3.6-12.7-4.2-10.2.5-15.3-.2-7.5-3.2-11-5.5-7.6-2.6-12.6-2.6a24.9,24.9,0,0,1-14.2-4.5c-3.5-2.5-4.2-6.5-4.8-10.5s0-7.3,4.2-8.5c2.3-.7,4.3-.6,6.5-1.6s3.8-2.1,6.2-2.1,4.6,1,6.9,1.4,5.1-.3,7.8-.1,3.5,1.5,5.4,1.2,2.3-3.2.9-2.4m-51.9-5.4c2.2,4.2,5.8,6.1,9.8,8.1s7.3,7.3,11.3,10.8c8,6.7,19.9,6.9,25.6,16.3s17.7,11.6,28,16.8,14.3,15,23.8,20c4.9,2.6,11,3.7,15.5,6.8,1.3.8,5.9,9.9,7.6,7.2.3-.5-4-7-4.8-7.8-3.3-3.3-9.9-4.5-14-6.4a37.4,37.4,0,0,1-13-9.3c-3.6-3.9-6.8-8-11.4-10.8-9.4-5.7-22.8-6.2-29.2-16.2-3.7-5.7-7-8.5-13.4-10.9a41.5,41.5,0,0,1-14.2-8.3c-4.2-4-6.9-8-12.2-10.6a16.5,16.5,0,0,1-5.8-3.9c-.5-.6-1.3-2.5-1.9-2.9s-2.5-.5-1.7,1.1m9.2-4.6c2.1,4.3,5.7,6.2,9.8,8.2s7.2,7.3,11.3,10.8c8,6.7,19.9,6.9,25.6,16.3s17.7,11.6,27.9,16.7S367.4,724,376.8,729c4.9,2.6,11,3.7,15.6,6.7,1.2.9,5.9,9.9,7.6,7.3.3-.5-4.1-7-4.9-7.8-3.3-3.3-9.8-4.5-14-6.4a38.4,38.4,0,0,1-12.9-9.3c-3.6-3.9-6.9-8-11.5-10.8-9.3-5.8-22.7-6.3-29.1-16.2-3.7-5.7-7-8.5-13.4-10.9s-10-4.4-14.2-8.3-6.9-8.1-12.3-10.6a17,17,0,0,1-5.7-3.9c-.5-.6-1.3-2.6-1.9-2.9s-2.5-.5-1.7,1M1302.2,237.6c-6.6-4.6-14.7-5.8-21-10.6-2.9-2.3-6.1-4.1-9.2-6.1s-6.2-5.1-9.2-8c-11.8-11.8-27.8-18.7-37.5-32.6a183.9,183.9,0,0,1-13.1-21.7c-1.6-3.4-2.6-7-4.4-10.2s-4.5-5.6-4.9-9,1.8-6.4,3.2-9.3,1.6-7.9,2.7-11.9c2-7.5,10.6-9.1,16.9-12.2,3.7-1.8,7.4-3.4,11.7-3.2s8.7,1.7,13.1,2,7.3.8,10.8,2.8a51.7,51.7,0,0,0,10.5,5.3c3.6,1.2,7.3,2.1,10.8,3.6s7,4.7,10.7,6.9,7.3,3.5,10.6,5.7,4.4,5.1,6.4,8.3,4.6,4.1,7.5,5.7a69,69,0,0,1,10.2,6.7c6.6,5.3,12.3,11.7,17.9,18.1s11.4,12.9,14.9,21.2c1.5,3.5,4,6.4,5.6,9.8s.6,7.7,1.6,11.5,2.5,6,2.4,9.3-2.5,7.1-3.2,10.8-.6,7.2-4,9.8a26.7,26.7,0,0,1-10.3,5c-3.8.6-7.8-.2-11.7.3s-7.8,1-12,0-8.3-2.3-12.3-3.6l-6.2-2c-1.6-.5-6.1-2.9-7.6-2.4-4.1,1.4,3.8,3.3,4.8,3.6l13.1,4.1c4.1,1.3,8.5,2.8,12.8,3.2s8.3-1,12.6-1.2c7.2-.2,13-.6,18.7-5.9a12.3,12.3,0,0,0,4-7.4c.8-4.2,2.1-8.1,3-12.3s-.9-6.9-2-10.8.2-8.3-1.7-12.3-4.2-6.6-5.8-10.3a45.7,45.7,0,0,0-6.4-11.4c-10.5-13.2-22.1-27.1-37.1-35.1-3.4-1.9-5.9-3.8-7.8-7.1a20.2,20.2,0,0,0-8.1-8.3,74.6,74.6,0,0,1-9.2-5.1,106,106,0,0,0-9.5-6.5c-3.3-1.7-6.9-2.5-10.5-3.5a41.1,41.1,0,0,1-11.1-5,22.3,22.3,0,0,0-10.9-3.5c-4.4-.4-8.5-1.3-12.8-1.9-8.2-1.1-16.8,4.4-24.1,7.8s-8.5,6.9-9.4,14.3a25,25,0,0,1-2.7,9.2c-2.2,3.8-3.4,6.8-1.1,10.9s4.1,6.4,5.7,9.9,3.7,8.2,6,12.2c4.2,7.1,8.3,14.4,13.6,20.8s12.3,11.1,19.1,15.9,13.2,10.9,19.6,17.1c2.8,2.7,6.2,4,9.5,5.9s5.6,4.7,8.8,6.5,7.2,2.7,10.6,4.3,3.8,2.5,5.8,3.2,1,.9,1.6.3a1,1,0,0,0,.4-1.2.8.8,0,0,0-.4-.4m64.6,2.1c4.1-4,9.6-4.4,12.6-9.5,1.2-2.1,2.2-4.3,4.3-5.6s4.3-1.8,1.8-2.9-8.4,8.8-10.4,10.5-4.7,2.3-6.9,3.8c-.5.3-2.6,1.7-2.8,2.3s.2,2.7,1.4,1.4m19.4-16.7c1.5-4.4,3.3-8.9,4.5-13.5s-.7-8.5-.9-13.1-.2-7.7-3-11.7-3.3-7.2-4.8-11.3-4-5.6-7.2-8.1-4.4-5.8-6.3-9.5c-3.7-7.5-12.5-8.6-17.2-15.4s-8.3-13.6-16.4-17.6c-3.6-1.7-7.4-2.8-10.9-5s-6.8-5.9-10.7-8.2-8.1-1.4-11.3-4.2-4.5-5.7-8-7.6c-6.8-3.5-15-1.7-21.8-5.1-3.8-1.9-6-3.8-10.5-3.8s-9,.8-13.7-.3a22.6,22.6,0,0,0-12.1,0c-2.1.5-4.1,1.2-6.2,1.8s-6.3,1.1-6.6,2c-1.3,2.9,7.1.2,8.3-.1,4.3-1.1,8.9-2.9,13.3-2.2a54,54,0,0,0,13.3,1.1c4.7-.3,7.6,0,11.6,2.6,6.2,4,13.5,2.4,20.3,4.4,3.7,1.1,6,3.2,8.4,6.1s6.1,4.6,10.6,5.9,6.9,3.7,10,6.4,7.5,4.9,12,6.7c8.4,3.4,12.8,8.9,17.4,16.5s12.9,8.4,17.4,15c2.5,3.7,2.9,8.3,6.6,11.2s6.5,4.1,8.1,8.6,2.3,7.6,4.8,11.5,2.2,7.7,3,12.2,1.3,9.6-.7,15.3c-.8,2.5-2,4.9-2.7,7.4-.2.5-.9,1.8-.3,2.4a1.1,1.1,0,0,0,1.4.1l.3-.5M1223.5,94.3c1.2,0,1.2-2.1,0-2s-1.3,2,0,2m-.9-1.2c-.4,2.2-2.8,2.9-4,4.6s-3.7,3.9-4.9,6.1-.9,3.1-1.7,4.5-1.5,1.5-2,2.3-1,3.6,1.1,2.3,3-4.1,3.5-5.9,3.1-4,4.7-6.4,3.4-3,4.6-5-.9-4.3-1.3-2.5m163.1,122.8c-1.3,1.9-4.1,1.8-5.6,3.5a39.7,39.7,0,0,1-4.8,4.4c-1.9,1.1-4.6,2-6.2,3.3s-1.8,1.3-.9,2.1,1.5-.3,2.2-.5c4.4-1.4,7.9-4.4,11.1-7.5,1.3-1.3,2.9-1.6,4.4-2.6s1.6-1.2,1.6-2-1.1-1.7-1.8-.7m-8.8,13.8c-2.2-.1-4.6,1.8-6.6,2.4s-4.2,2.1-1.3,2.6,4.9-2,6.7-2.8,1.6.1,1.9-.6a1.1,1.1,0,0,0-.2-1.4l-.5-.2m11-24.3c-.1,2.3-3.7,2.2-5.2,2.8s-3.1,3-4.8,4.8-4,1.5-5.8,3.1-2.2,2.2-.7,2.9,1.4-.9,2.1-1.4c2.3-1.6,4.5-1.3,6.3-3.8s2.2-3.1,4.6-4,3.6-.7,4.7-2.2-1.2-4-1.2-2.2m-1.3-12.9c-.7,2.8-2.8,2.9-5.2,3.8s-3.6,2.7-5.4,4.8-3.9,1.7-5.9,3.1-2.2,3.5.2,2.9c.4-.1,1.6-1.2,2.2-1.5s2.2-.3,3.2-.9,2.5-4.4,4.8-5.8,5.2-.7,7-3.2c.4-.5,1.6-2.6,1-3.3s-1.6-.9-1.9.1m-4.1-10.6c-2.8,4.1-8.6,1.3-11.3,5.3-1.4,2.1-1.8,3.8-3.8,5.4s-4,3-.9,3,4.5-2.8,5.2-4.1.8-3.6,2.9-4.6,4.9.1,7.2-1.4c.7-.4,2.7-2,2.5-2.9s-1-1.8-1.8-.7m-6.3-13.7c-1.5,2.1-4,1.5-6,2.6s-1.6,4.6-3.8,6.3-2.2.7-3.2,1.3a12.9,12.9,0,0,0-2.1,1.9c-.8.7-3.9,2.9-1,3.1s4.7-3.1,6-3.9,2.4-2.7,3.8-5.2,3.6-1.8,5.7-3c.5-.3,2.2-1.4,2.3-2.1s-.8-2.2-1.7-1m-11.3-14.5a7.1,7.1,0,0,1-3.4,2.5c-1.4.7-1.7.5-2.5,1.8s.1,4.2-2.1,5.6-4,.8-5.8,2.6-3,5.3-.2,4.2c.8-.3,1.1-2.1,1.8-2.8a6.4,6.4,0,0,1,3-1.4c2.8-1,4.1-1.3,4.8-4.4s1.1-2.9,3.8-4.7c.5-.3,1.9-1.5,2-2s-.3-2.7-1.4-1.4m-12.9-8.5c-.8,2-3.1,1.6-4.6,2.7s-1.9,3.5-3.4,4.8-4.4.8-5.2,3-.1,2.4,1.4,1.7.8-1.3,1.4-1.7,1.9-.4,2.7-.8,2.3-3.4,3.9-4.9,4.2-.9,5.2-3.2-.8-3.3-1.4-1.6m-10.9-15.3c-.4,2.6-2.6,2.9-4.6,3.8s-2.8,2.3-3.9,4.8a18.9,18.9,0,0,1-4.4,5.7c-.6.6-3.2,1.9-1.9,2.9,2.8,2.2,8.4-9,9.3-10.2s4.5-1.6,6.2-3.6,1.8-2.6,1.2-3.5-1.7-1-1.9.1m-13-7.2c-1,2.9-3.3,3.2-5.5,4.8s-1.9,4.3-3.5,6.5-4.4.9-5.4,3.2c-.1.4-.4,1.9,0,2.3s1.3-.2,1.9-.6l1.9-1.6c1.1-.5,1.9-.3,2.8-1.3s1.2-4.5,3-6.3,4-1.7,5.4-3.7c.4-.5,1.8-2.7,1.3-3.4a1,1,0,0,0-1.5-.3l-.4.4m-9.7-4.6c1.3,0,1.3-2.1,0-2a1,1,0,0,0,0,2m-.9-1.7c0,1.7-2.6,2.1-3.6,3s-1.1,3.9-2.3,5.6-3.9,1.5-4.5,3.5.5,2,1.7,1.4,1-1.4,1.4-1.7a17.4,17.4,0,0,0,2.3-1.2c.7-.6,1.1-3.7,2.3-5.4s3.5-1.7,4.4-3.6-1.7-3-1.7-1.6m-8.3-6.1c-1,1.9-1,4.3-2.5,5.9s-3.2,1.2-4.6,2.3-6,8-2.5,6.9c1.5-.4,2.1-3.8,3.2-4.9s3.9-1.2,5.4-2.8,1.4-2.9,1.9-4.5,1.2-2.2,1-2.6-1.3-1.1-1.9-.3m-13.9-8.7c-1.1,4.4-4.5,6-6.6,9.7-1,1.6-2.9,2.5-3.7,4s.3,2.1,1.5,1.6a14.6,14.6,0,0,0,3.6-3.4c1.3-1.9,1.6-3.4,3.4-5a10.1,10.1,0,0,0,3.4-5.2c.1-.7.7-1.9-.2-2.3s-1.3-.2-1.4.6m-21.1,10.5c3.6-2.3,3-6.9,5.6-9.9,1.1-1.3,3.3-2.3,3.7-4.1s-.3-2.4-1.7-1.5a8.9,8.9,0,0,0-.8,1.7,9,9,0,0,1-1.9,1.5,10.4,10.4,0,0,0-2.8,4.6c-.6,1.7-.8,3.4-1.9,4.9s-1.7,1.1-1.7,1.7.6,1.6,1.5,1.1m-3.7-17c-.1,4.5-4.3,4.7-6.8,7.5-.7.8-2.7,3.4-2.5,4.4s1.6.4,2.3-.4,1.6-2.8,3-3.8,3.1-1.5,4.3-3,2.3-3.5,1.7-4.7-1.9-1.5-2,0m-17.4,8.6c1.1-2.9,1.8-5.9,2.7-9,.4-1.3,2.9-7-.5-3.9-1.9,1.8-2.1,6.5-2.9,8.8s-1.7,3.4-1.3,4.2a1.1,1.1,0,0,0,1.5.5,1.5,1.5,0,0,0,.5-.6m-8.3-13.6c-.4,2.9-3.8,4.6-5.5,6.5s-3.6,3.7-3.6,4.8.9,1.4,2.1.4,2.2-2.9,3.3-4.1,2.8-2.4,3.9-3.8,2.1-2.7,1.8-3.8-1.9-1.4-2,0M1229,103.6c.3-1.5,1.3-2.6,2-3.9s.5-3,1.1-4.5,2.2-2.2,2.3-3.2-1.1-1.2-2-.6c-2.8,1.8-2.1,5.4-3.5,8.1-.5.9-2.2,2.7-1.8,3.9s1.7,1.5,1.9.2m-9.2,4.5c1.8-3.2,2.4-6.4,3.6-9.8.4-1.2,4.5-7.8.5-5.1-2.5,1.7-2.9,6-3.7,8.6s-1.5,3.2-1.8,4.7-.8,1.1-.2,1.7,1.2.7,1.6-.1m80.9,122.8c-6-4.2-13.4-5.4-19.2-9.8s-11.2-7.8-16.3-12.6c-10.6-9.9-24.2-16.2-32.8-28.3a133.8,133.8,0,0,1-12-20.8,85.3,85.3,0,0,0-4.9-9.5c-1.3-2.2-3.2-4.1-3.3-6.8s1.5-6.1,2.7-8.9,1-7.5,2.2-11.2,8-6.3,12.4-8.4,6.8-3.7,10.6-4.2,7.5,1,11.3,1.5,6.8.2,9.9,1.4,6.5,4.2,10.3,5.4,6,1.5,9,2.6,6.1,3.4,9,5.4c5.4,3.9,13.1,5.6,16.6,11.7,1.8,3.1,3.1,5.2,6.4,7a74,74,0,0,1,9.3,5.6c6.3,4.7,11.6,10.6,16.7,16.4s10.5,11.4,13.8,18.4c1.5,3.3,3.2,6.3,5,9.5s1.2,6.3,1.7,10,2.6,6.3,2.5,9.7-2.3,6.3-2.8,9.6-.2,5.7-2.9,8.2a20.7,20.7,0,0,1-9.4,4.6c-3,.4-5.9.1-8.9.4s-7.3,1.5-11.3.6c-8-1.7-15.4-5-23.3-7-.3-.1-3.1-1.2-2.7.5s2.6,1.5,3.7,1.9l11.9,3.8a75.4,75.4,0,0,0,11.3,3c4.1.8,8-.4,12.1-.5,6.8-.2,12.8-.9,17.9-5.7a12.6,12.6,0,0,0,3.8-7.9c.4-3.6,1.9-6.9,2.5-10.4s-.9-6.7-1.8-10.1-.3-6.5-1.5-9.6-3.3-6-4.8-9a67.9,67.9,0,0,0-6-10.5c-8.5-11.3-18.7-22.7-30.7-30.3-3-1.9-6.3-3.1-8.4-6s-3.1-5.6-6-7.6-5.9-3.1-8.7-4.7-6.2-4.6-9.5-6.6-6.6-2.8-10.1-3.8a35.3,35.3,0,0,1-10.3-4.6c-6.2-3.7-14.2-3.7-21.2-4.8s-14.2,3.5-20.6,6.4c-2.7,1.3-6,2.4-7.7,5.1s-1.4,5.5-1.8,8.2c-.8,6.3-7,12-3.6,18.2,1.6,3,3.7,5.7,5.3,8.7s3.4,7.3,5.2,10.9a119.3,119.3,0,0,0,11.6,18.2c4.9,6.1,11.2,10.4,17.6,14.8s11.8,9.9,17.5,15.3c2.6,2.5,5.5,3.6,8.5,5.3s5.5,4.8,8.9,6.4,6.4,2.3,9.5,3.8c1.2.6,3.6,2.7,4.8,2.8s2.5-.7,1-1.7M1287,211.2c2.7-.5,6.1,2.5,8.8,3s6.5,2.7,10,3.6,7.9-.8,11.7-.6,7.5-.2,8.5-4.9c.7-3,2.3-7.9.6-10.7s-5.5-5.3-8.1-7-6.9-2.9-10.8-3.7-7-3.6-10.1-6.9c-5.8-6-13.8-5.5-21.2-8.1-4.1-1.4-7.3-4.2-10.9-6.4s-8.7-3.6-12.8-6.1-5.4-4.9-7.9-7.7-6.1-5.9-7.6-10c-3-8.5,4.4-10.7,11-8.3s16,3.1,21.7,9c2.6,2.8,4.5,5,8.3,5.9a27.2,27.2,0,0,1,4.9,1.3c1,.4,2.8,2.8,3.9,1.9,2.6-2.2-5.8-4.4-6.7-4.7-3.5-.9-5.8-2.8-8.4-5.3-5.7-5.6-12.7-7.4-20.3-9.2-4.8-1.2-13.1-4.8-16.2,1-4.4,8.1,4.3,15.6,8.8,21.1,5.7,7,13.8,9.2,21.4,13.8a60.1,60.1,0,0,0,10.6,5.7c4.1,1.5,8.5,1.7,12.6,3s7,4.8,10.4,7.9,7.6,3.3,12.1,4.6a25,25,0,0,1,11.2,7.1c2.5,2.6,2.4,5.4,1.9,8.8s-4.6,5.7-8.6,5.7-7.9,1.8-12.3-.2a40.5,40.5,0,0,0-5.6-2.6c-1.9-.5-4-.3-5.8-1.2s-2.6-2.2-4.5-1.9-2.3,2.5-.6,2.1m46.8,15.8c-1.4-4.9-4.4-6.7-8.2-9.6s-5.1-7.9-8.2-11.5c-6.1-7.2-16.3-9.4-19.9-18.6s-14.8-13.6-23-20.3-10.5-16.1-18.5-22.2c-3.4-2.5-7.5-4.4-10.6-7.4-.7-.7-5.6-10.3-6.9-7.8-.4.8,1.5,2.7,1.8,3.6s.6,3.2,2,4.6c3.5,3.8,9.1,6,13.2,9.2,7.9,6.1,10.6,16.1,18.5,22.2s17.8,9.1,21.7,18.9,15.6,12.8,21.9,21.3c1.6,2.1,2.6,4.4,4,6.6s3.1,3.3,5,4.7a14.5,14.5,0,0,1,4.4,4.5c.3.5.7,2.6,1.3,2.8s1.9.1,1.5-1m-9.3,1.6c-1.5-4.8-4.4-6.6-8.2-9.5s-5.1-7.9-8.2-11.6c-6.2-7.1-16.3-9.3-19.9-18.5s-14.9-13.6-23-20.3-10.6-16.1-18.6-22.2c-3.4-2.5-7.4-4.4-10.5-7.4-.7-.7-5.6-10.3-6.9-7.8-.4.8,1.5,2.7,1.8,3.5s.6,3.3,1.9,4.7c3.5,3.8,9.2,6,13.3,9.1,7.8,6.2,10.5,16.2,18.5,22.3s17.8,9.1,21.7,18.8,15.6,12.9,21.9,21.4c1.6,2.1,2.5,4.4,3.9,6.6s3.2,3.2,5.1,4.7a14.5,14.5,0,0,1,4.4,4.5c.2.5.7,2.6,1.3,2.8s1.9,0,1.5-1.1m158.7,92.1c.9-4.8,7.5-4.1,10.5-7.1s2.6-4.9,4.9-6,5.6-.5,8.4-2.2,4.6-3.9,7.3-5.3,6.2-1.6,9.2-3,4.9-3.4,7.8-4.4,6.7-1,10.2-1,7.6-1.4,11.4-1.3,5.8,1.6,8.5,3.3,5.1,2.7,7.3,4.5,1.5,4.7,2.6,8,2.7,4.5,2.1,7.4-3.7,5.4-5,8.3c-2.7,6.2-.2,13.3-3.7,19.4s-7.5,8.6-9.8,14a63.6,63.6,0,0,1-3.1,7.1c-1.6,2.8-3.9,4-6.6,5.6a15.6,15.6,0,0,0-6,5.7c-1.5,2.6-2.5,5.8-5.1,7.5s-5.9,1.2-8.8,2.1-5.5,3.3-8,5.4a27.8,27.8,0,0,1-6.8,5c-3.2,1.3-6.6,1.1-9.8,2s-6,3.6-9.2,5-6,1.3-9.2.8c-7-1.1-14.8-1.8-21.5-4.4-4.6-1.8-5.4-6.5-7.4-10.6-1.1-2.3-.4-4.1.1-6.4s-.3-6.9.8-10.4,2-5.2,2.3-8a33.6,33.6,0,0,1,2-9.7c2.4-5.9,6.5-10.9,9.7-16.4s5-9.3,9.5-12c.9-.6,5.8-1.5,4.8-3s-5.7,1.1-6.8,1.9c-5.1,3.8-8.4,10.5-11.7,15.8s-8.9,12.5-9.4,19.7c-.2,3.2-.2,5.9-1.7,8.9s-1.2,6.7-1.3,10.9-1.7,5.9-.6,8.9c.6,1.4,1.7,2.5,2.2,3.8s.7,3.2,1.6,4.6c3.3,5.6,12.7,5.5,18.3,6.7s12.6,3.4,18.7.8c2.7-1.2,5.1-3.1,7.8-4.2s6.9-1.5,10.2-2.6c6.6-2,10.1-8.9,16.8-10.5,3.1-.7,6.3-.6,8.9-2.7s3.3-4.2,4.6-6.6c2.9-5.1,7.4-6.4,11.5-10.2,2.3-2.3,3.1-5.4,4.3-8.4a33.7,33.7,0,0,1,5.6-8.8c4.7-5.6,6.4-10.1,7-17.4.2-2.8.3-5.6,1.6-8.2s3.3-4.5,4.5-7.1.4-5.2-.5-8.3,0-5.7-1.1-8-4.5-3.8-6.5-5.1a65.7,65.7,0,0,0-8.2-4.9,16.3,16.3,0,0,0-9.3-.8,109.4,109.4,0,0,1-11.4.9c-7.6.1-12.1,4.9-19,7-2.8.9-5.7,1.4-8.1,3.2s-4.6,4.1-8.5,4.9-4.9.9-6.9,3.3-3.1,4.7-6.6,6-4.9,1.5-6.4,3.8c-.4.6-1.3,2.1-.8,3a1,1,0,0,0,1.4.3,1,1,0,0,0,.4-.5m88.5-19.6c.4,3.4,3.7,4.9,5.8,7.1a27.2,27.2,0,0,1,5.6,8.6c1.2,3.3.5,7.6.2,11.1a80.7,80.7,0,0,1-2.6,13.7c-.9,3.5-1.8,7.7-4.1,10.5s-5.1,4.5-6.7,8-2.6,6.4-5,9.2-5.1,5.3-7.1,8.6-3.6,6.1-6.2,8.5-6.7,3.7-9.7,6.2-4.7,5.7-7.6,7.9-6.6,2.8-10.3,3.4a26.1,26.1,0,0,0-9.7,4.1,17.1,17.1,0,0,1-11.2,3.2,16.9,16.9,0,0,0-9.6,2.3c-3.1,1.8-5.6,3-9.4,2.9-7.6-.3-12.1-3-16.3-9.2a45.5,45.5,0,0,0-6.5-8c-.7-.8-7.3-6.8-5.9-2.7.4,1.3,4,3.5,4.9,4.5a53.4,53.4,0,0,1,3.9,4.4c2.2,3,3.8,6.6,6.8,9,4.6,3.8,13.1,5.3,18.8,3.5,3.1-.9,5.3-3.5,8.4-4.3s8.3.3,12.3-1.1,6-4,9.4-5.3,7.6-1.2,11.2-2.5c5.9-2.2,8.9-8.5,14-11.9,3-2,6.4-3.3,8.9-6s4.2-6.8,6.6-10,5.9-5.3,8-8.7,2.6-6.9,4.9-9.9,5.3-4.8,6.8-8.6a70.6,70.6,0,0,0,3.6-12.7c1.6-7.7,4.3-18.3-.7-24.9-2.1-2.8-3.6-5.4-6.4-7.5l-1.6-1c-.5-.5-1.1-2.1-1.5-2.4s-2.2-2-2,0m2.9,13.3c1.4.6,1.3,1.3,2.2,2.3a13.9,13.9,0,0,0,3.1,2.3c.9.7,6,5.7,4.5,1.5-.7-2.2-4.6-3.9-6.1-5.5s-2-3-3.5-2.6-1.4,1.5-.2,2m-5.7,10.5c2,.4,3,2.4,4.3,3.7a25.5,25.5,0,0,0,4.7,3.1c1.6,1,3.2,3.9,4.6,4s.7-1.9-.2-2.7c-2.7-2.5-6-4-8.4-6.7-1.1-1.1-2.3-3-4-3.2s-2.8,1.5-1,1.8m-1,14.4c1.3.4,1.8,1.7,2.7,2.6a40.6,40.6,0,0,0,4.6,3.6c.9.6,2.4,2.9,3.3,3.1s1.4-1.1.6-2.3-5.1-4-7.3-6.2c-.7-.8-2.5-3.2-3.7-2.7s-1.5,1.5-.2,1.9m-7.8,9.4c2,2.8,5.1,3.5,7.7,5.7.5.4,5.5,6.2,5.4,2.5,0-.6-2.3-2.2-2.8-2.8a13,13,0,0,0-3.4-2.8c-1.7-.9-3.2-2.2-4.7-3.1s-.8-1.1-1.6-.8-1.2.6-.6,1.3m-5.8,12.2c1.3,2.5,4.3,5,6.2,7s6.2,5.2,5.1,1.5c-.2-.9-2.6-1.8-3.3-2.4s-2-2.6-3.2-3.8-2.3-2.9-3.1-3.3-2.5-.6-1.7,1m-10.9,10.4c.4,2.5,1.4,3.8,3,5.7s2.1,3.5,3.4,5.2,4,5.7,4.2,2.1c.1-1.5-1.4-2-2.3-3s-2.3-3.5-3.5-5.1a15.1,15.1,0,0,1-1.8-2.6c-.3-.5-.8-2.6-1.1-2.8s-2.2-1.2-1.9.5m-9.1,12.1a16.1,16.1,0,0,0,3.8,4.4c1.2.9,2.4,1.3,3.2,2.7s1.9,4.7,2.6,1.4-3.2-4.7-4.7-6-2.2-3.1-3.1-3.5-2.8-.5-1.8,1m-12,3c-2.2,3.9,3.4,7.7,5.4,10.2s2.1,4.2,3.7,5.5,2-.2,1.1-1.9a44.4,44.4,0,0,0-6.3-8,6.7,6.7,0,0,1-2.4-3.8c0-.1,0-4.6-1.5-2m-11.4,9.3c.4,3.3,2.2,5,3.9,7.5s3.9,6.1,3.1,1.6c-.4-2.6-3.2-4.3-4.2-6.6-.3-.6-.7-3.4-1.2-3.6s-1.8.1-1.6,1.1m12.9-8.1c.1-1,.5-2.9-1.1-2.7s-1.2,1.8-.1,1.9l-.4-.2a.8.8,0,0,1-.2-.5c-.2,1.4,1.5,3.4,1.8,1.5m-26.6,11.5c.2,2,1.4,3.3,2.5,4.8a24.7,24.7,0,0,1,2.3,4.6,7,7,0,0,0,2.9,3.7c1,.7,2.8,1.6,2.1-.7s-2.5-2.5-3.2-4a17.7,17.7,0,0,0-2.1-4.1c-.9-1.1-1.6-3.4-2.5-4.3s-2.1-1.8-2,0m-12.8,4.5a18.8,18.8,0,0,0,2.2,4.5c1,1.4,2.7,2,3.6,3.3s.7,3.2,1.7,3.9,1.5-.4,1.5-1.5c-.2-3.4-3.4-4.7-5.2-7.2-.6-.9-1.2-3.3-2-3.8s-2.3-.6-1.8.8m-11.4-1.4c.4,3.6,1.9,6.2,3.4,9.3.2.5,2.5,6.2,2.7,4-1.5.7,1.3,3.2,1.7.5.2-1.2-2.1-4.2-2.6-5.2a32.7,32.7,0,0,1-2.8-6.7c-.3-.8,0-2.3-.9-2.7s-1.5-.2-1.5.8m-9.1-1.4c.8,3.8,3.2,6.4,5.3,9.5.5.7,1.6,3.5,2.5,3.7s1.2-1.5.9-2.3a57.9,57.9,0,0,0-4.5-6.3c-1.5-1.9-1.3-4.2-2.2-5.1s-2.3-1.2-2,.5m23.6-76.5c.9-4,6.8-3.9,9.3-6.5s2.4-3.8,5.3-4.7,5-1.2,7.3-2.9,3.4-3.1,5.6-3.9,5.7-1.5,8.5-3.1,4.4-2.8,7-3.3,6.1-.2,9.1-.5c6.5-.5,10.2-.9,15.9,2.6,2,1.3,5.2,2.7,6.3,4.9s.5,4.1,1,6,1.4,4.6.4,7.1-2.7,4-3.5,6.3c-2,5.8.1,11.6-3.7,17s-6.1,7.5-8.1,12.5a24.2,24.2,0,0,1-3.1,5.7c-1.8,2-4.4,3-6.5,4.6-4,3-4.4,8.9-9.5,10.5-2.3.7-4.7.6-6.9,1.7s-4.6,3.5-6.9,5.3-4.5,3.4-7.5,3.9-5.8.8-8.6,2.4-4.3,3-7,3.5-5.6-.2-8.4-.7c-5-.9-13.2-.9-17.1-4.5s-5.1-8.1-4.6-11.4a50.9,50.9,0,0,0,.3-7.8c.1-3.2,2.1-5.3,2.7-8.3s-.2-5.5.9-8.3a58.1,58.1,0,0,1,4.3-7.7c2.7-4.2,5-8.8,7.9-12.9a21.9,21.9,0,0,1,4.7-4.9c1-.6,4.9-1.2,4.5-2.6-1.3-4.2-10,5.3-10.9,6.7a178.5,178.5,0,0,0-10.5,16.6c-2.8,5.2-2.8,10.8-4.8,16.3-.9,2.6-.8,4.6-.7,7.3s-.9,5.5-.6,8.2c.4,4.3,3.4,10,7.4,11.8s11.5,2.9,17.3,3.7,9.5.1,14.9-2.8,10.3-2.1,14.8-5.1c2.1-1.4,3.8-3.3,5.8-4.9s5.1-2.3,8.2-3c5.3-1.3,6.3-5,9.1-9.1s7.7-4.8,10.3-8.6c1.5-2.2,2-5,3.1-7.4s3.4-4.9,5.4-7.3c4-4.8,4.3-9.4,4.9-15.4s5-8.5,5.6-13.5c.4-2.4-1-3.9-1.5-6.1s.1-2.8-.2-4.3c-.8-3.9-7.5-6.8-10.8-8.8-5.9-3.7-12.1-1-18.6-1.1a17,17,0,0,0-8.3,1.4c-2.6,1.2-4.9,3.1-7.7,4s-5.8,1.5-8.3,3.3-4,3.1-6.7,3.9-4.5,1.1-6.4,2.9-3.6,3.8-6.1,5.2-4.6,1.8-5.7,4.1,1,3.7,1.4,2m53.3,7.3c2-1.3,4.1-2.9,4.1-5.5s-2-4.8-2.3-7.5-.1-4.7-2.4-6.5a6.3,6.3,0,0,0-7.7.1c-2.4,1.7-2.8,3-4.9,3.7s-5,.5-7.1,3.1-3.2,10.5-2.8,15.2,4.6,11.4.7,15.9c-1.5,1.8-4,2.5-5.8,3.9s-3.3,4.1-4.3,6.6c-2.2,5.7-4.7,11.5-9.7,15.5s-10.9,2.7-16.2.1-8.5-4.8-5-9.4c1.2-1.5,5.5-12,4.1-12.5s-2.8,4-3.1,5.3-2.2,4.6-3.6,7.1c-3,5,.5,7.9,4.9,10.3s11.4,5.4,17.3,2.6,8.7-7.9,11.1-12.9,2.3-9.8,7.9-12.2,6.4-7.9,5-13.3-2.5-11.6-.7-17.3c.9-3,2.4-4.8,5.5-5.3s4-.2,5.9-2.4,3.5-4,6.7-1.8,2.2,3.4,2.5,6.1,1.6,4.8,1,6.9-1.1,1.4-1.7,2.2-1.3,3.4.6,2m-60.3,49.3a17.9,17.9,0,0,1,6.9-5.9c2.9-1.4,6.6-2,9-4.1s2.4-5.8,3.7-8.6,5.3-5.7,7.9-8.5c4.7-5.1,7-11.9,13-15.8,2.8-1.8,5.7-3,8.1-5.2s4.8-5.6,8.1-7.5,6.2-2.3,8.2-4.6a16.2,16.2,0,0,0,1.7-3.5c.3-.7,2.7-3,2.7-3.4-.1-3.6-3.9,1.4-4.4,2.3-1.9,3.3-3.2,4.2-6.7,5.8a23.3,23.3,0,0,0-8,6.3,24.5,24.5,0,0,1-8.7,6.9c-7.2,3.6-9.7,10.1-14.5,16.1-2.6,3.2-6.4,5.6-8.7,9.2s-1.9,6.6-4.5,9-7.3,2.7-10.5,5.1a16.3,16.3,0,0,0-4.3,4.4c-.3.4-1.1,1.1-.9,1.7a1.1,1.1,0,0,0,1.4.7,1,1,0,0,0,.5-.4m-7.5-4.7a18.2,18.2,0,0,1,7-5.9c2.8-1.4,6.6-2,9-4.1s2.3-5.8,3.6-8.6,5.3-5.6,7.9-8.5c4.7-5,7-11.9,13.1-15.8,2.7-1.8,5.6-2.9,8.1-5.2s4.7-5.6,8-7.5,6.2-2.3,8.2-4.6,1.1-2.3,1.7-3.4,2.8-3.1,2.8-3.5c-.1-3.5-4,1.4-4.5,2.3-1.8,3.3-3.2,4.2-6.6,5.9a23.4,23.4,0,0,0-8.1,6.2,23.7,23.7,0,0,1-8.7,7c-7.1,3.6-9.6,10-14.4,16-2.7,3.3-6.5,5.6-8.7,9.2s-1.9,6.7-4.5,9-7.4,2.7-10.5,5.1a18.4,18.4,0,0,0-4.4,4.4c-.3.4-1.1,1.1-.9,1.7a1.1,1.1,0,0,0,1.4.7,1,1,0,0,0,.5-.4M492.4,195.7c-7.5-1.8-6.1-12.2-7.9-17.8-1.3,4.3-1.6,10.2-6.4,11.9s-10.1,2.9-15.1,4.3c8,1.1,18.3,9.3,16,18.5,4-1.9,2.1-8.1,5.8-10.2,1.2-.7,2.6-.4,3.8-.8s2.2-1.6,3.5-2,5.3,1.3,8,.5c-2.6-1.2-5.4-2.3-7.9-3.7s-1.8-2.1-3.1-3.5-2.4-1.2-2.9-3.8-.9-5.7-1.3-8.6a22.7,22.7,0,0,1-3.4,7c-1.2,1.8-2.1,2-3.6,3s-1.5,1.6-2.7,2.4-4.5,1.4-6.4,1.9m.2,1c1.8-.5,3.7-.7,5.4-1.3s2.5-1.9,4-3a19.7,19.7,0,0,0,7.4-10.7h-1.9c.4,2.6.3,5.2.9,7.8s1.6,3,3.1,4.6,2.2,3.4,4.5,4.6,4.8,2.1,7.2,3.2c.2-.6.3-1.2.5-1.9-2.8.3-5.4-1.2-8.2-.4-1.3.4-2.4,1.3-3.8,1.8s-2.3.2-3.4.8c-4.1,2.2-2.5,8-6.2,10.4l1.5,1.1c1.5-10-7.6-18.1-16.7-19.6a3.1,3.1,0,0,0,0,1.9l9.6-2.8c2.5-.7,5.6-.9,7.7-2.5s3.7-7.8,4.8-11.6h-1.9c1.4,5.3.8,12.3,5.2,16.4.9.9,6.1,3.6,4.3.4-.5-.7-2.7-1.5-3.4-2.3a9.4,9.4,0,0,1-2-3.5,36.4,36.4,0,0,1-1.5-8c-.3-2.2-1.2-6.5-2.9-2.5s-1.3,5.9-3.5,8.3-7.4,3.6-11.1,4.6c-2,.5-8.7,1.2-5.4,3.6,1.1.8,3.4.9,4.7,1.5a24.1,24.1,0,0,1,4.8,3,14.5,14.5,0,0,1,4.9,7c.7,2.1-.5,9.4,3.2,5.6,2.1-2.2,1.6-5.8,3.8-7.9s6.9-3.1,9.9-3.2,9.9.1,4.3-2.7a52,52,0,0,1-5.3-2.6c-1.5-1-2.4-2.5-3.6-3.7-3.2-3-3.4-5.3-3.8-9.7-.6-6.3-2.7-.1-3.9,2.2a9.9,9.9,0,0,1-3.4,3.9l-4,3.2c-1.6,1.3-4.1.9-5.7,1.9s-2.2,2.7-.1,2.1m972.9,23.7c-6.4-3.6-2.5-12.7-2.7-18.3-2.1,3.3-4,8.7-8.3,9.2s-10.4.1-15.5.1c7.1,3,14.4,13.2,9.9,20.9,4-.6,4-6.4,7.6-7.7,1.2-.4,2.2.2,3.4.1s2.8-.8,4.3-.9,4.5,2.6,7.2,2.6c-2.2-1.9-4.8-3.7-6.7-5.8s-.8-2.3-1.5-3.6-1.9-2.1-1.7-5,.7-4.9,1-7.4a19.5,19.5,0,0,1-4.4,5.1c-1.7,1.5-2.7,1.6-4.5,2.2s-1.6,1-2.7,1.5-4.9.1-6.8.1m0,1c4.6-.1,7.2-.1,11.4-2.2a18.7,18.7,0,0,0,7.8-7.2l-1.8-.5c-.6,4.4-1.7,8.7.4,12.9s5.5,6.8,8.8,9.6a5.6,5.6,0,0,0,.9-1.7c-2.6-.4-4.5-2.4-7.2-2.5a25.7,25.7,0,0,0-6.8.5c-4.6,1-4.7,6.7-9,8l1.2,1.4c4-8.8-2.3-18.4-10.3-22.3a13.3,13.3,0,0,1-.5,1.9c5.4,0,12.1,1.6,17.2-.4s5.3-6.1,7.5-9.4l-1.9-.5c-.1,5.6-2.6,12.3,1.1,17.2,1.9,2.4,4.5,2.6,2.2-.4a11.5,11.5,0,0,1-2.3-8c.1-2.3,1.6-6.2,1-8.3s-3.2,1.2-4.2,2.7c-4.3,6.2-10.7,5.1-17.5,5.1-4,0-5.1.8-1.5,3a19.6,19.6,0,0,1,6.9,7.4,12.3,12.3,0,0,1,1.3,8.6c-.2,1-1.4,3-.4,3.8s3.3-1.5,3.8-2.1c2.1-2.6,2.8-4.7,6.3-5.4a16.8,16.8,0,0,1,9.4.7c3.1,1.1,5.8,1.1,2.6-2s-4.6-4.4-6.4-7.8-.7-6.3-.8-10.7-3.3.7-4.9,2.3-3.1,1.7-5.2,2.5-2.2,1.5-3.9,1.8-4.1-.5-5.2,0-1.7,2.1,0,2M1177,168.5c-5.3-1.2-4.5-8.6-5.8-12.5-.8,2.9-1,6.7-3.8,8.2s-7.7,2.4-11.2,3.5c5.7.6,13.1,6.3,11.5,12.8,2.8-1.3,1.5-5.6,3.9-7.2.8-.5,1.9-.3,2.7-.7a12.3,12.3,0,0,1,2.5-1.4c.9-.2,3.8.8,5.6.3a40.5,40.5,0,0,1-5.6-2.6c-1.5-.9-1.1-1.1-2.2-2.4s-1.4-.9-2-2.1-.8-4.7-1.1-6.6c-1.2,6.1-6,8.7-11.2,10.3m.2,1c5.8-1.9,10.2-5,11.9-11h-1.9c.6,3.4.3,6.2,2.8,8.7a26.9,26.9,0,0,0,8.6,5.5,12.1,12.1,0,0,0,.5-1.8c-3.8.2-6.7-.8-10.3,1.4s-2.2,5.7-4.9,7.7l1.5.9c.8-7.2-5.7-12.7-12.2-13.8a3.1,3.1,0,0,0,0,1.9c3.5-1,7.4-1.3,10.7-3s3.9-5.6,4.9-9.3a3.1,3.1,0,0,0-1.9,0c1.1,4.1.9,9.9,5,12.4,1.7,1,3.4.8,2.1-1.2s-1.8-1-2.4-1.6a11.1,11.1,0,0,1-1.6-3.5c-.5-1.8-.1-4.7-1.1-6.3s-2.2.4-2.7,2.1c-1.8,6-6.8,6.3-12.1,8.1-2.5.8-2.7,1.6-.4,2.6s4.8,1.6,6.8,3.6a10.5,10.5,0,0,1,2.9,6.2c.1.9-.4,2.5.8,2.8s2-1.6,2.3-2.3,1.2-4.1,3.3-5.3,4.5-1.2,6.7-1.3,4.8-.1,2.6-2.2-4.8-2.3-6.7-4.2-2.2-4.5-3.1-7.4-2.1-.5-3.2,1.5a14.3,14.3,0,0,1-6.1,5.6c-.8.3-3.5.9-3.8,1.6s0,1.9,1,1.6M779.1,203.5c-5.3-1.2-4.5-8.6-5.8-12.5-.8,2.9-1,6.7-3.8,8.2s-7.6,2.5-11.2,3.5c5.7.7,13.1,6.4,11.6,12.8,2.7-1.3,1.4-5.6,3.9-7.2.8-.5,1.8-.3,2.7-.6s1.5-1.2,2.4-1.5,3.8.9,5.7.3a40.5,40.5,0,0,1-5.6-2.6c-1.5-.9-1.1-1.1-2.2-2.4s-1.5-.9-2.1-2-.8-4.8-1.1-6.7c-1.2,6.2-6,8.7-11.2,10.4m.3.9c5.8-1.8,10.2-4.9,11.9-11h-2c.6,3.4.4,6.2,2.8,8.8s5.4,4,8.7,5.5c.2-.6.3-1.3.5-1.9-3.8.2-6.8-.7-10.3,1.4s-2.2,5.8-5,7.8l1.6.8c.8-7.2-5.7-12.6-12.3-13.8a6.7,6.7,0,0,0,0,2c3.5-1.1,7.4-1.3,10.7-3.1s3.9-5.6,5-9.3h-2c1.1,4.1.9,9.9,5.1,12.4,1.7,1,3.3.8,2-1.2-.4-.5-1.8-1-2.3-1.6a8.6,8.6,0,0,1-1.6-3.5c-.5-1.7-.2-4.7-1.1-6.2s-2.2.3-2.7,2.1c-1.9,5.9-6.8,6.2-12.1,8-2.5.9-2.8,1.6-.4,2.6s4.7,1.7,6.7,3.6a10.7,10.7,0,0,1,3,6.3c.1.8-.5,2.4.8,2.7s1.9-1.5,2.3-2.3,1.1-4,3.3-5.3,4.4-1.2,6.6-1.3,4.9-.1,2.6-2.2-4.7-2.3-6.7-4.2-2.2-4.5-3-7.4-2.2-.5-3.3,1.5a14.3,14.3,0,0,1-6.1,5.6c-.7.4-3.4.9-3.8,1.7s.1,1.8,1.1,1.5M1517,458.5c-6.4-.7-6.4-9.3-8.5-13.6-.5,3.3-.2,8-3.2,10s-8.4,3.9-12.4,5.6c6.6-.1,16,5.5,15.1,13.1,2.9-1.9,1-6.6,3.5-8.9.9-.8,2.4-.7,3.5-1.4l2.1-1.7c2.2-.9,4.5.5,6.6-.4-2-.7-4.2-1.2-6.2-2s-2-1.3-3.3-2.4-2.5-1.4-3.3-3.9l-1.8-5.9c-.5,7.2-5.6,10.7-11.4,13.4m.5.9c6.2-2.9,10.8-7,11.9-14.1h-1.9c1,3.6,1.6,7.3,4.5,10s7,3.7,10.7,4.9a3.1,3.1,0,0,0,0-1.9c-4.3,1-7.9,0-11.7,3.2s-1.6,7-4.4,9.5l1.7.7c.1-8.4-8.4-13.8-16.1-14.1l.5,1.8c4.1-1.7,8.7-2.7,12.3-5.3s3.2-6.8,3.8-10.8a3.1,3.1,0,0,0-1.9,0c1.7,4.3,2.1,10.1,6.3,13,.7.5,5.1,2.3,3.9-.4-.3-.5-2.6-1.1-3.1-1.5a6.7,6.7,0,0,1-2.2-2.8,33.3,33.3,0,0,1-2.1-6.3c-.7-2.1-2-5-3-1.5s-.5,4.5-1.8,6.6-5.2,4-8,5.2c-1.1.5-7,1.8-5.3,3.7s3,.5,3.8.7a15.6,15.6,0,0,1,4.1,1.5,13,13,0,0,1,5.4,5c.9,1.6.8,6.8,3.1,5.9s1.7-4.9,2.5-6.6,4.7-4.2,7.6-4.9c1.2-.2,6.7.1,5.7-2.2s-3.6-1.3-4.3-1.6a16,16,0,0,1-4.5-2.3c-2.8-2.2-3.9-5-5.1-8.2-1.7-4.8-2.3-1-3.4,1.7a13.1,13.1,0,0,1-2.4,3.7l-2.1,2.8c-1.4,1.4-3.6,1.4-5,2.6s-1.4,2.8.5,2M980.9,701.9c-5.5-3.2-2.1-11.1-2.3-15.9-1.8,2.9-3.4,7.3-7,7.9s-9.2.1-13.6.1c6.1,2.6,12.4,11.5,8.5,18.1,3.5-.5,3.4-5.5,6.5-6.6,1.2-.4,2.3.2,3.5.1s2.1-.8,3.2-.8,3.9,2.2,6.2,2.2c-2.2-1.9-5.4-3.9-6.8-6.6-.2-.6-.4-1.5-.6-2.1s-1-.6-1.2-2.5.7-5.2,1-7.6c-3.4,6.4-9.5,7.6-15.9,7.7m0,1c7-.2,13-2.1,16.8-8.2l-1.9-.5c-.5,3.9-1.8,7.1.2,10.8s4.7,6.1,7.7,8.8l1-1.7c-2-.4-3.7-1.9-5.8-2.2a16.1,16.1,0,0,0-6.9.5c-3.5,1.2-3.8,5.7-7.2,6.7l1.1,1.5c3.5-7.6-1.9-16.1-8.9-19.5a13.3,13.3,0,0,1-.5,1.9c4.5,0,9.2,1.1,13.6,0s5.7-5,7.9-8.5l-1.9-.5c-.1,5-2.4,11.4,1.4,15.5.5.5,2,2.2,2.7.9s-.9-1.8-1.5-2.5c-1.6-2.3-1.7-4.9-1.4-7.5s1.6-5.8.6-7-3.7,3.5-4.5,4.4c-4.5,5.3-10.5,1.9-16.2,3.2-3.4.8-.2,2.3,1.4,3.4a16.6,16.6,0,0,1,5.6,7,9,9,0,0,1,.9,4c0,1.2-1.1,3.2-.9,4.2.4,3.2,3.2.1,4.3-1.3a9.7,9.7,0,0,1,5.8-3.8c2.8-.5,5.5.6,8.6,1.2s1-2.3-.6-3.6a21.1,21.1,0,0,1-5.1-7.1,7,7,0,0,1-.2-4.3c.1-1.1,1.2-3.5.8-4.5-1.1-2.8-3.7,2-4.9,2.9a21.5,21.5,0,0,1-7.6,3.7c-1.1.2-3.9-.4-4.7.2s-1,1.9.3,1.9M652.6,763.8c-3.2.3-4.1-4-5.5-6,0,1.7.5,3.7-.5,5.1s-4.2,3-5.8,4.2c3.3-.7,8.4,1.2,8.7,5.1,1.2-1.1.4-3.7,1.4-5.1s3.5-1.4,5.3-2.6a15.2,15.2,0,0,1-4.2-.6c-2.5-.8-3.2-2.8-4.4-5.1.4,3.7-1.8,5.9-4.5,7.8m.5.8c3.1-2.1,5-4.7,5-8.6l-1.9.5c2.3,4.4,4.6,5.6,9.5,6.2l-.3-1.9c-2.1.8-3.9.7-5.5,2.5s-.5,3.8-1.8,5.6l1.9.2c-.9-4.3-5.7-6.4-9.7-5.8a12.1,12.1,0,0,0,.5,1.8c1.8-1.2,4.3-2.2,5.7-3.9s1.2-3.8,1.1-6.2l-1.9.5c.5.8,5.5,9.5,7.1,6.1.8-1.6-1.5-1.7-2.3-2.4s-2.3-4.9-3.6-5.1-1,2.3-1.3,3.5-2,3.2-3.8,4.5-3.6,1.9-1.5,3.2,3.6-.1,5.2.9,2.2,3.9,3,4.1c2.3.6,1.7-3,2.2-4.2s9-3.9,3.9-5.5c-2.2-.7-3.8-.6-5.3-2.5s-1.2-3.9-3-2.7-.5,2.6-.6,3a9,9,0,0,1-1.7,3c-.6.6-2.2,1.3-2.3,2.2s.6,1.6,1.4,1m899.6-509.1c-3.2.3-4.1-4-5.5-5.9a18.2,18.2,0,0,1,.1,3.3c-.6,2.8-4.2,4.4-6.4,5.9,3.2-.7,8.4,1.2,8.7,5.1,1.2-1.1.4-3.7,1.4-5s3.5-1.5,5.3-2.7c-2.1-.2-3.9-.3-5.6-1.4s-2.1-2.4-3-4.3c.4,3.7-1.8,5.9-4.5,7.8m.5.9c3.1-2.2,5-4.8,5-8.7l-1.9.5c2.3,4.4,4.6,5.7,9.5,6.2l-.3-1.9c-2.1.8-3.9.7-5.5,2.6s-.5,3.8-1.8,5.5l1.9.3c-.9-4.4-5.7-6.4-9.7-5.9a13.3,13.3,0,0,0,.5,1.9c1.8-1.3,4.3-2.2,5.7-4s1.2-3.8,1.1-6.1l-1.9.5c.5.7,5.5,9.4,7.1,6,.8-1.5-1.5-1.7-2.4-2.4s-2.2-4.9-3.5-5-1,2.2-1.3,3.5-2,3.2-3.8,4.4-3.6,1.9-1.5,3.2,3.6,0,5.2.9,2.2,3.9,3,4.1,1.7-3,2.2-4.1,9-4,3.9-5.6c-2.2-.7-3.8-.6-5.3-2.5s-1.2-3.9-3-2.7-.5,2.7-.6,3.1a7.9,7.9,0,0,1-1.8,2.9c-.5.6-2.1,1.3-2.2,2.2s.6,1.6,1.4,1.1m-1398-97.4c-3.2.3-4-4-5.4-6,0,1.7.4,3.7-.5,5.1s-4.2,3-5.9,4.2c3.3-.7,8.5,1.2,8.8,5.1,1.1-1.1.4-3.7,1.3-5.1s3.6-1.4,5.3-2.6l-4.2-.6c-2.4-.8-3.2-2.8-4.4-5.1.5,3.7-1.8,5.9-4.4,7.8m.5.8c3.1-2.1,5-4.7,4.9-8.6l-1.8.5c2.2,4.4,4.6,5.6,9.4,6.2l-.2-1.9c-2.1.8-3.9.7-5.5,2.5s-.6,3.8-1.8,5.6l1.8.2c-.8-4.3-5.6-6.4-9.7-5.8a12.1,12.1,0,0,1,.5,1.8c1.9-1.2,4.4-2.2,5.8-3.9s1.1-3.8,1.1-6.2l-1.9.5c.4.8,5.4,9.5,7.1,6.1.8-1.6-1.5-1.7-2.4-2.4s-2.2-4.9-3.5-5.1-1.1,2.3-1.3,3.5-2,3.2-3.8,4.5-3.7,1.9-1.6,3.2,3.7-.1,5.3.9,2.2,3.9,3,4.1,1.7-3,2.1-4.2,9.1-3.9,4-5.5c-2.3-.7-3.8-.6-5.3-2.5s-1.2-3.9-3-2.7-.5,2.6-.6,3a9.2,9.2,0,0,1-1.8,3c-.6.6-2.2,1.3-2.2,2.2s.6,1.6,1.4,1M262.2,791.4c-6.3-.7-6.4-9.3-8.4-13.6-.6,3.4-.3,8-3.3,10s-8.4,3.9-12.3,5.6c6.6-.1,15.9,5.5,15,13.1,3-1.9,1-6.6,3.5-8.8s2.5-.8,3.5-1.5,1.3-1.3,2.2-1.7,4.4.5,6.5-.4c-2-.7-4.1-1.2-6.1-2s-2.1-1.3-3.4-2.4-2.4-1.3-3.3-3.9-1.1-3.9-1.7-5.9c-.5,7.2-5.7,10.7-11.5,13.4m.5.9c6.3-2.9,10.8-7,11.9-14.1a6.1,6.1,0,0,0-1.9,0c1.1,3.6,1.6,7.3,4.5,10s7,3.8,10.8,4.9a6.1,6.1,0,0,0,0-1.9c-4.4,1-8,0-11.8,3.2s-1.6,7-4.4,9.5l1.7.7c.1-8.4-8.4-13.8-16-14.1a12.1,12.1,0,0,0,.5,1.8c4-1.7,8.6-2.7,12.2-5.3s3.2-6.8,3.8-10.8a6.1,6.1,0,0,0-1.9,0c1.8,4.3,2.1,10.1,6.3,13,.7.5,5.2,2.3,3.9-.3-.2-.6-2.5-1.2-3.1-1.6a8.5,8.5,0,0,1-2.2-2.8,33.3,33.3,0,0,1-2.1-6.3c-.7-2.1-1.9-5-3-1.4s-.5,4.4-1.8,6.5-5.1,4-8,5.2c-1.1.5-6.9,1.8-5.2,3.7s3,.5,3.7.7a28.6,28.6,0,0,1,4.1,1.5,15.5,15.5,0,0,1,5.5,5c.9,1.6.8,6.8,3,5.9s1.8-4.9,2.6-6.5,4.7-4.3,7.5-4.9,6.7,0,5.7-2.3c-.3-.8-3.5-1.3-4.3-1.6a14.2,14.2,0,0,1-4.4-2.3c-2.8-2.1-4-5-5.1-8.2-1.8-4.8-2.3-.9-3.5,1.7a11.2,11.2,0,0,1-2.4,3.7,18.6,18.6,0,0,1-2.1,2.8c-1.3,1.4-3.6,1.4-4.9,2.6s-1.5,2.9.4,2M226.8,596.1c-7,2-10.8-7.1-14.8-10.7.9,3.8,3.3,8.8.7,12.2s-7,7.4-10.5,10.9c6.9-2.8,19.2-1,21.5,7.5,2.5-3.5-2.3-7.8.2-11.3.6-.9,1.8-1.3,2.5-2.1s1.2-2.6,2.3-3.6,4.6-1.2,6.3-2.9c-3.4.2-7.6,1.3-10.9.2l-2.6-1c-1.7-.5-1.3-.2-2.5-1.1s-3.8-4.8-5.5-6.9c.8,2.5,1.2,6.6.4,9.1s-1.4,1.7-1.6,2.5,0,1.4-.2,2-3.4,3.9-4.9,5.5m.7.7c2.8-3,4.6-4.6,5.9-8.6a19.7,19.7,0,0,0,.7-11.5l-1.7,1c2.5,3.1,4.3,6.8,8.2,8.3s9.4,1.1,14,.8a13.3,13.3,0,0,0-.5-1.9c-2,1.5-4.8,1.5-6.7,3.3a34,34,0,0,0-3.8,4.7c-3,4.2,1,8.1-1.1,12.3l1.8.2c-3.3-8.9-14.6-11.1-22.8-8.1l1,1.6c3.5-3.6,7.9-6.6,10.7-10.9s.4-8.7-.6-13.2a4.2,4.2,0,0,0-1.7,1c3.6,3.6,6.3,9.3,11.6,10.8,1.1.3,6.1,1,4.5-1.4-.4-.7-2.7-.3-3.3-.4a10.1,10.1,0,0,1-3.8-1.7,32.1,32.1,0,0,1-4.9-5.5c-1.3-1.7-4.8-5.8-4.1-1,.5,2.7,1.6,5.2.9,8s-4.5,6.5-7.1,9.2-6.3,5.3-1.8,5.1c2.9-.1,5.4-1.1,8.4-.7a16.7,16.7,0,0,1,6.9,2.4,8.7,8.7,0,0,1,2.7,2.7c.5.6,1.2,3,2,3.2,3.2.9,1.4-6.4,1.4-8,.1-3.3,2.7-7.2,5.4-9.1,1-.7,7.4-2.6,5.6-4.4s-4,.1-4.8.2a17.3,17.3,0,0,1-6.4-.7c-4.2-1.1-6.1-2.6-8.7-6.1-.5-.7-2-3.5-3.1-2s.6,4.6.6,6a8.9,8.9,0,0,1-1.2,4.5,31.2,31.2,0,0,0-1.5,3.9c-.7,1.7-2.4,2.5-3.4,3.9s-1.1.9-1,1.5a1,1,0,0,0,1.7.6" style="fill:#00416d"/></svg>