<svg xmlns="http://www.w3.org/2000/svg" width="297mm" height="210mm" viewBox="0 0 841.89 595.28">
  <defs>
    <style>
      .cls-1 {
        fill: #4982ab;
      }

      .cls-2 {
        fill: #5a93bb;
      }

      .cls-3 {
        fill: #fff;
      }

      .cls-4 {
        fill: #659b75;
      }

      .cls-5 {
        fill: #529267;
      }

      .cls-10, .cls-6 {
        fill: none;
        stroke-miterlimit: 10;
        stroke-width: 3px;
      }

      .cls-6 {
        stroke: #529267;
      }

      .cls-7 {
        fill: #e6bd69;
      }

      .cls-8 {
        fill: #d56761;
      }

      .cls-9 {
        fill: #daa147;
      }

      .cls-10 {
        stroke: #daa147;
      }
    </style>
  </defs>
  <title>pyramid-mobile</title>
  <g id="Слой_2" data-name="Слой 2">
    <g id="Layer_4" data-name="Layer 4">
      <g>
        <g>
          <polygon class="cls-1" points="293.63 198.43 420.94 0 280.63 198.43 293.63 198.43"/>
          <g>
            <polygon class="cls-2" points="293.63 198.43 548.26 198.43 420.94 0 293.63 198.43"/>
            <polygon class="cls-1" points="420.94 0 548.26 198.43 561.26 198.43 420.94 0"/>
          </g>
        </g>
        <g>
          <path class="cls-3" d="M365.27,130.3a4.14,4.14,0,0,1-1.34,2.84,4.6,4.6,0,0,1-3.12,1,4.45,4.45,0,0,1-2.4-.65,4.19,4.19,0,0,1-1.59-1.83,6.6,6.6,0,0,1-.59-2.76v-1.06a6.7,6.7,0,0,1,.57-2.84,4.39,4.39,0,0,1,1.64-1.89,4.57,4.57,0,0,1,2.46-.66,4.37,4.37,0,0,1,3,1,4.26,4.26,0,0,1,1.34,2.89h-2a2.79,2.79,0,0,0-.71-1.77,2.36,2.36,0,0,0-1.69-.55,2.32,2.32,0,0,0-2,.94,4.8,4.8,0,0,0-.71,2.77v1a4.88,4.88,0,0,0,.67,2.81,2.16,2.16,0,0,0,1.93,1,2.56,2.56,0,0,0,1.75-.52,2.71,2.71,0,0,0,.74-1.74Z"/>
          <path class="cls-3" d="M368.72,126.47a3,3,0,0,1,2.35-1.08c1.81,0,2.72,1,2.75,3.09V134h-1.9v-5.45a1.67,1.67,0,0,0-.38-1.24,1.54,1.54,0,0,0-1.11-.36,1.83,1.83,0,0,0-1.71,1v6h-1.9V122h1.9Z"/>
          <path class="cls-3" d="M380.79,134a2.56,2.56,0,0,1-.22-.79,3,3,0,0,1-2.22.95,3,3,0,0,1-2.08-.73,2.31,2.31,0,0,1-.81-1.8,2.39,2.39,0,0,1,1-2.07,4.87,4.87,0,0,1,2.87-.72h1.16v-.56a1.31,1.31,0,0,0-1.48-1.44,1.63,1.63,0,0,0-1.06.32,1,1,0,0,0-.42.82h-1.9a2.12,2.12,0,0,1,.47-1.3,3,3,0,0,1,1.25-1,4.58,4.58,0,0,1,1.77-.34,3.54,3.54,0,0,1,2.37.75,2.64,2.64,0,0,1,.9,2.09v3.82a4.4,4.4,0,0,0,.32,1.82V134Zm-2.09-1.37a2.2,2.2,0,0,0,1.06-.27,1.76,1.76,0,0,0,.74-.74V130h-1a2.79,2.79,0,0,0-1.59.37,1.19,1.19,0,0,0-.53,1,1.1,1.1,0,0,0,.37.87A1.42,1.42,0,0,0,378.7,132.63Z"/>
          <path class="cls-3" d="M386.15,125.55l.06,1a3,3,0,0,1,2.46-1.13c1.76,0,2.65,1,2.69,3V134h-1.9v-5.48a1.76,1.76,0,0,0-.35-1.19A1.45,1.45,0,0,0,388,127a1.83,1.83,0,0,0-1.71,1v6h-1.9v-8.45Z"/>
          <path class="cls-3" d="M393,129.71a5,5,0,0,1,.92-3.14,3,3,0,0,1,2.46-1.18,2.79,2.79,0,0,1,2.27,1l.09-.85h1.71v8.19a3.45,3.45,0,0,1-1,2.63,4,4,0,0,1-2.8,1,4.44,4.44,0,0,1-1.81-.39,3.18,3.18,0,0,1-1.35-1l.9-1.14a2.71,2.71,0,0,0,2.15,1,2.09,2.09,0,0,0,1.49-.51,2,2,0,0,0,.55-1.51v-.57a2.79,2.79,0,0,1-2.19.92A3,3,0,0,1,393.9,133,5.11,5.11,0,0,1,393,129.71Zm1.89.17a3.39,3.39,0,0,0,.52,2,1.65,1.65,0,0,0,1.44.73,1.83,1.83,0,0,0,1.7-1v-3.71a1.8,1.8,0,0,0-1.69-1,1.65,1.65,0,0,0-1.45.74A3.77,3.77,0,0,0,394.85,129.88Z"/>
          <path class="cls-3" d="M406.08,134.16a3.9,3.9,0,0,1-2.92-1.14,4.12,4.12,0,0,1-1.12-3v-.23a5.11,5.11,0,0,1,.48-2.26,3.77,3.77,0,0,1,1.37-1.55,3.64,3.64,0,0,1,2-.56,3.34,3.34,0,0,1,2.67,1.1,4.67,4.67,0,0,1,.94,3.12v.77H404a2.56,2.56,0,0,0,.7,1.65,2.08,2.08,0,0,0,1.54.61,2.59,2.59,0,0,0,2.13-1l1,1a3.39,3.39,0,0,1-1.36,1.18A4.18,4.18,0,0,1,406.08,134.16Zm-.22-7.25a1.62,1.62,0,0,0-1.27.55A2.86,2.86,0,0,0,404,129h3.62v-.14a2.3,2.3,0,0,0-.51-1.44A1.61,1.61,0,0,0,405.86,126.91Z"/>
          <path class="cls-3" d="M410.59,129.71a5,5,0,0,1,.91-3.14,2.91,2.91,0,0,1,2.43-1.18,2.75,2.75,0,0,1,2.17.94V122H418v12h-1.72l-.1-.88a2.78,2.78,0,0,1-2.27,1,2.88,2.88,0,0,1-2.4-1.2A5.23,5.23,0,0,1,410.59,129.71Zm1.9.17a3.54,3.54,0,0,0,.49,2,1.62,1.62,0,0,0,1.41.72,1.8,1.8,0,0,0,1.71-1V128a1.76,1.76,0,0,0-1.69-1,1.61,1.61,0,0,0-1.42.73A3.85,3.85,0,0,0,412.49,129.88Z"/>
          <path class="cls-3" d="M429,134a3.3,3.3,0,0,1-.22-.79,3.17,3.17,0,0,1-4.29.22,2.31,2.31,0,0,1-.81-1.8,2.39,2.39,0,0,1,1-2.07,4.84,4.84,0,0,1,2.87-.72h1.16v-.56a1.32,1.32,0,0,0-1.48-1.44,1.66,1.66,0,0,0-1.07.32,1,1,0,0,0-.41.82h-1.9a2.11,2.11,0,0,1,.46-1.3,3.14,3.14,0,0,1,1.26-1,4.5,4.5,0,0,1,1.77-.34,3.53,3.53,0,0,1,2.36.75,2.65,2.65,0,0,1,.91,2.09v3.82a4.4,4.4,0,0,0,.32,1.82V134Zm-2.08-1.37a2.16,2.16,0,0,0,1.05-.27,1.84,1.84,0,0,0,.75-.74V130h-1a2.75,2.75,0,0,0-1.59.37,1.19,1.19,0,0,0-.53,1,1.12,1.12,0,0,0,.36.87A1.46,1.46,0,0,0,426.93,132.63Z"/>
          <path class="cls-3" d="M435,123.49v2.06h1.49V127H435v4.72a1,1,0,0,0,.19.7.88.88,0,0,0,.68.22,3.14,3.14,0,0,0,.67-.08V134a4.72,4.72,0,0,1-1.25.18c-1.46,0-2.19-.81-2.19-2.42V127h-1.39v-1.4h1.39v-2.06Z"/>
          <path class="cls-3" d="M440.32,123.49v2.06h1.49V127h-1.49v4.72a1,1,0,0,0,.19.7.88.88,0,0,0,.68.22,3.14,3.14,0,0,0,.67-.08V134a4.72,4.72,0,0,1-1.25.18c-1.46,0-2.19-.81-2.19-2.42V127H437v-1.4h1.39v-2.06Z"/>
          <path class="cls-3" d="M443.26,123.35a1,1,0,0,1,.28-.73,1,1,0,0,1,.79-.28,1.07,1.07,0,0,1,.8.28,1,1,0,0,1,.28.73,1,1,0,0,1-.28.72,1.07,1.07,0,0,1-.8.28,1,1,0,0,1-.79-.28A1,1,0,0,1,443.26,123.35Zm2,10.65h-1.9v-8.45h1.9Z"/>
          <path class="cls-3" d="M449.72,123.49v2.06h1.49V127h-1.49v4.72a1.07,1.07,0,0,0,.19.7.92.92,0,0,0,.69.22,3,3,0,0,0,.66-.08V134a4.66,4.66,0,0,1-1.25.18c-1.46,0-2.19-.81-2.19-2.42V127h-1.39v-1.4h1.39v-2.06Z"/>
          <path class="cls-3" d="M457.79,133.17a3,3,0,0,1-2.38,1,2.6,2.6,0,0,1-2.08-.81,3.42,3.42,0,0,1-.71-2.33v-5.47h1.9V131c0,1.07.44,1.61,1.34,1.61a1.87,1.87,0,0,0,1.86-1v-6.07h1.9V134h-1.79Z"/>
          <path class="cls-3" d="M461.2,129.71a5,5,0,0,1,.91-3.14,2.91,2.91,0,0,1,2.43-1.18,2.76,2.76,0,0,1,2.17.94V122h1.9v12h-1.72l-.1-.88a2.79,2.79,0,0,1-2.27,1,2.88,2.88,0,0,1-2.4-1.2A5.17,5.17,0,0,1,461.2,129.71Zm1.9.17a3.54,3.54,0,0,0,.49,2,1.61,1.61,0,0,0,1.41.72,1.8,1.8,0,0,0,1.71-1V128a1.77,1.77,0,0,0-1.69-1,1.6,1.6,0,0,0-1.42.73A3.85,3.85,0,0,0,463.1,129.88Z"/>
          <path class="cls-3" d="M474.31,134.16a3.94,3.94,0,0,1-2.93-1.14,4.12,4.12,0,0,1-1.12-3v-.23a5,5,0,0,1,.49-2.26,3.7,3.7,0,0,1,1.37-1.55,3.64,3.64,0,0,1,2-.56,3.34,3.34,0,0,1,2.67,1.1,4.72,4.72,0,0,1,.94,3.12v.77h-5.52a2.51,2.51,0,0,0,.7,1.65,2.06,2.06,0,0,0,1.54.61,2.56,2.56,0,0,0,2.12-1l1,1a3.39,3.39,0,0,1-1.36,1.18A4.21,4.21,0,0,1,474.31,134.16Zm-.23-7.25a1.61,1.61,0,0,0-1.26.55,2.78,2.78,0,0,0-.61,1.52h3.61v-.14a2.36,2.36,0,0,0-.5-1.44A1.62,1.62,0,0,0,474.08,126.91Z"/>
          <path class="cls-3" d="M483.91,131.7a.86.86,0,0,0-.42-.77,4.5,4.5,0,0,0-1.38-.47,7.21,7.21,0,0,1-1.62-.51,2.16,2.16,0,0,1-1.42-2,2.24,2.24,0,0,1,.92-1.83,3.67,3.67,0,0,1,2.34-.73,3.79,3.79,0,0,1,2.45.75,2.39,2.39,0,0,1,.93,2h-1.89a1.16,1.16,0,0,0-.41-.91,1.52,1.52,0,0,0-1.08-.37,1.73,1.73,0,0,0-1,.29.91.91,0,0,0-.39.78.75.75,0,0,0,.37.67,4.55,4.55,0,0,0,1.48.49,7.08,7.08,0,0,1,1.75.59,2.51,2.51,0,0,1,1,.82,2.1,2.1,0,0,1,.31,1.15,2.21,2.21,0,0,1-.95,1.85,4,4,0,0,1-2.47.71,4.38,4.38,0,0,1-1.86-.38,3,3,0,0,1-1.26-1,2.46,2.46,0,0,1-.45-1.41h1.84a1.3,1.3,0,0,0,.51,1,2,2,0,0,0,1.24.36,1.92,1.92,0,0,0,1.14-.28A.89.89,0,0,0,483.91,131.7Z"/>
          <path class="cls-3" d="M376.68,153.2a2.88,2.88,0,0,1-.22-.79,3,3,0,0,1-2.22,1,3,3,0,0,1-2.08-.73,2.33,2.33,0,0,1-.8-1.8,2.39,2.39,0,0,1,1-2.07,4.89,4.89,0,0,1,2.87-.72h1.17v-.56a1.45,1.45,0,0,0-.37-1,1.47,1.47,0,0,0-1.12-.39,1.65,1.65,0,0,0-1.06.32,1,1,0,0,0-.41.82h-1.9a2.11,2.11,0,0,1,.46-1.3,3.18,3.18,0,0,1,1.25-.95,4.58,4.58,0,0,1,1.77-.34,3.54,3.54,0,0,1,2.37.75,2.65,2.65,0,0,1,.91,2.09v3.82a4.24,4.24,0,0,0,.32,1.82v.13Zm-2.09-1.37a2.17,2.17,0,0,0,1.06-.27,1.88,1.88,0,0,0,.75-.73v-1.6h-1a2.75,2.75,0,0,0-1.59.37,1.17,1.17,0,0,0-.53,1,1.12,1.12,0,0,0,.36.87A1.39,1.39,0,0,0,374.59,151.83Z"/>
          <path class="cls-3" d="M382.05,144.75l.05,1a3.06,3.06,0,0,1,2.46-1.13c1.76,0,2.66,1,2.69,3v5.59h-1.9v-5.48a1.71,1.71,0,0,0-.35-1.19,1.44,1.44,0,0,0-1.13-.38,1.82,1.82,0,0,0-1.71,1v6h-1.9v-8.45Z"/>
          <path class="cls-3" d="M388.83,148.91a5.07,5.07,0,0,1,.9-3.14,2.94,2.94,0,0,1,2.43-1.18,2.77,2.77,0,0,1,2.18.94V141.2h1.89v12h-1.71l-.1-.87a2.81,2.81,0,0,1-2.27,1,2.88,2.88,0,0,1-2.4-1.2A5.17,5.17,0,0,1,388.83,148.91Zm1.9.17a3.54,3.54,0,0,0,.49,2,1.61,1.61,0,0,0,1.41.72,1.8,1.8,0,0,0,1.71-1v-3.61a1.77,1.77,0,0,0-1.69-1,1.6,1.6,0,0,0-1.42.73A3.85,3.85,0,0,0,390.73,149.08Z"/>
          <path class="cls-3" d="M409.62,149.06a5.1,5.1,0,0,1-.88,3.13,2.86,2.86,0,0,1-2.42,1.17,2.76,2.76,0,0,1-2.31-1.07l-.1.91H402.2v-12h1.89v4.36a2.75,2.75,0,0,1,2.21-1,2.86,2.86,0,0,1,2.43,1.15,5.15,5.15,0,0,1,.89,3.21Zm-1.9-.16a3.55,3.55,0,0,0-.49-2.07,1.62,1.62,0,0,0-1.4-.68,1.76,1.76,0,0,0-1.74,1.07v3.49a1.79,1.79,0,0,0,1.75,1.1,1.6,1.6,0,0,0,1.38-.66,3.53,3.53,0,0,0,.5-2Z"/>
          <path class="cls-3" d="M414.93,153.36a3.94,3.94,0,0,1-2.93-1.14,4.16,4.16,0,0,1-1.12-3V149a5.11,5.11,0,0,1,.49-2.26,3.7,3.7,0,0,1,1.37-1.55,3.64,3.64,0,0,1,2-.56,3.34,3.34,0,0,1,2.67,1.1,4.67,4.67,0,0,1,.94,3.12v.77H412.8a2.49,2.49,0,0,0,.7,1.65,2.06,2.06,0,0,0,1.54.61,2.56,2.56,0,0,0,2.12-1.05l1,1a3.39,3.39,0,0,1-1.36,1.18A4.21,4.21,0,0,1,414.93,153.36Zm-.23-7.25a1.61,1.61,0,0,0-1.26.55,2.86,2.86,0,0,0-.61,1.52h3.62V148a2.42,2.42,0,0,0-.51-1.44A1.62,1.62,0,0,0,414.7,146.11Z"/>
          <path class="cls-3" d="M421.66,145.67a3,3,0,0,1,2.36-1.08c1.8,0,2.71,1,2.74,3.09v5.52h-1.9v-5.45a1.67,1.67,0,0,0-.38-1.24,1.54,1.54,0,0,0-1.11-.36,1.83,1.83,0,0,0-1.71,1v6h-1.89v-12h1.89Z"/>
          <path class="cls-3" d="M433.73,153.2a2.56,2.56,0,0,1-.22-.79,3,3,0,0,1-2.22,1,3,3,0,0,1-2.08-.73,2.3,2.3,0,0,1-.8-1.8,2.39,2.39,0,0,1,1-2.07,4.89,4.89,0,0,1,2.87-.72h1.17v-.56A1.33,1.33,0,0,0,432,146a1.63,1.63,0,0,0-1.06.32,1,1,0,0,0-.42.82h-1.89a2.11,2.11,0,0,1,.46-1.3,3,3,0,0,1,1.25-.95,4.58,4.58,0,0,1,1.77-.34,3.54,3.54,0,0,1,2.37.75,2.61,2.61,0,0,1,.9,2.09v3.82a4.4,4.4,0,0,0,.32,1.82v.13Zm-2.09-1.37a2.17,2.17,0,0,0,1.06-.27,1.88,1.88,0,0,0,.75-.73v-1.6h-1a2.73,2.73,0,0,0-1.58.37,1.18,1.18,0,0,0-.54,1,1.13,1.13,0,0,0,.37.87A1.37,1.37,0,0,0,431.64,151.83Z"/>
          <path class="cls-3" d="M440.2,150.79l1.78-6h2L441,153.2h-1.65l-3-8.45h2Z"/>
          <path class="cls-3" d="M445.13,142.55a1,1,0,0,1,.28-.72,1,1,0,0,1,.79-.29,1,1,0,0,1,.8.29,1.07,1.07,0,0,1,0,1.44,1.07,1.07,0,0,1-.8.28,1,1,0,0,1-.79-.28A1,1,0,0,1,445.13,142.55Zm2,10.65h-1.9v-8.45h1.9Z"/>
          <path class="cls-3" d="M448.86,148.9a5,5,0,0,1,.49-2.24,3.55,3.55,0,0,1,1.38-1.53,3.9,3.9,0,0,1,2-.54,3.71,3.71,0,0,1,2.78,1.1,4.36,4.36,0,0,1,1.15,2.92v.45a5,5,0,0,1-.48,2.23,3.54,3.54,0,0,1-1.38,1.53,3.88,3.88,0,0,1-2.06.54,3.69,3.69,0,0,1-2.87-1.19,4.62,4.62,0,0,1-1.07-3.18Zm1.9.16a3.39,3.39,0,0,0,.54,2,1.76,1.76,0,0,0,1.5.74,1.72,1.72,0,0,0,1.49-.75,3.73,3.73,0,0,0,.54-2.19,3.43,3.43,0,0,0-.55-2,1.86,1.86,0,0,0-3,0A3.73,3.73,0,0,0,450.76,149.06Z"/>
          <path class="cls-3" d="M462.75,146.48a4.9,4.9,0,0,0-.77-.06,1.74,1.74,0,0,0-1.76,1v5.78h-1.9v-8.45h1.81l.05.94a2.15,2.15,0,0,1,1.91-1.1,1.84,1.84,0,0,1,.67.11Z"/>
          <path class="cls-3" d="M468.69,150.9a.86.86,0,0,0-.42-.77,4.48,4.48,0,0,0-1.39-.47,7.28,7.28,0,0,1-1.61-.51,2.17,2.17,0,0,1-1.43-2,2.22,2.22,0,0,1,.93-1.82,3.62,3.62,0,0,1,2.34-.74,3.79,3.79,0,0,1,2.45.75,2.39,2.39,0,0,1,.93,1.95h-1.9a1.16,1.16,0,0,0-.4-.91,1.52,1.52,0,0,0-1.08-.37,1.69,1.69,0,0,0-1,.29.91.91,0,0,0-.39.78.76.76,0,0,0,.36.67,4.73,4.73,0,0,0,1.49.49,7.08,7.08,0,0,1,1.75.59,2.59,2.59,0,0,1,.95.82,2.09,2.09,0,0,1,.3,1.15,2.2,2.2,0,0,1-.94,1.85,4.05,4.05,0,0,1-2.48.71,4.37,4.37,0,0,1-1.85-.38,3,3,0,0,1-1.26-1,2.4,2.4,0,0,1-.46-1.41h1.85a1.32,1.32,0,0,0,.5,1,2,2,0,0,0,1.25.36,1.92,1.92,0,0,0,1.14-.28A.89.89,0,0,0,468.69,150.9Z"/>
        </g>
      </g>
      <g>
        <g>
          <rect class="cls-4" x="319.16" y="198.43" width="203.58" height="198.43"/>
          <g>
            <polygon class="cls-4" points="166.31 396.85 319.16 396.85 319.16 198.43 293.63 198.43 166.31 396.85"/>
            <polygon class="cls-4" points="140.31 396.85 140.31 396.85 210.47 297.64 140.31 396.85"/>
            <polygon class="cls-5" points="280.63 198.43 210.47 297.64 140.31 396.85 166.31 396.85 293.63 198.43 280.63 198.43"/>
          </g>
          <g>
            <polygon class="cls-4" points="675.58 396.85 522.73 396.85 522.73 198.43 548.26 198.43 675.58 396.85"/>
            <polygon class="cls-4" points="701.58 396.85 701.58 396.85 631.42 297.64 701.58 396.85"/>
            <polygon class="cls-5" points="561.26 198.43 631.42 297.64 701.58 396.85 675.58 396.85 548.26 198.43 561.26 198.43"/>
          </g>
          <line class="cls-6" x1="319.16" y1="198.43" x2="319.16" y2="396.85"/>
          <line class="cls-6" x1="522.73" y1="198.43" x2="522.73" y2="396.85"/>
        </g>
        <g>
          <path class="cls-3" d="M234.68,306.42h5.16V308H232.7V296.63h2Z"/>
          <path class="cls-3" d="M244.9,308.16A3.94,3.94,0,0,1,242,307a4.16,4.16,0,0,1-1.12-3v-.23a5.14,5.14,0,0,1,.49-2.26,3.7,3.7,0,0,1,1.37-1.55,3.64,3.64,0,0,1,2-.56,3.34,3.34,0,0,1,2.67,1.1,4.67,4.67,0,0,1,.94,3.12v.77h-5.52a2.49,2.49,0,0,0,.7,1.65,2.06,2.06,0,0,0,1.54.61,2.56,2.56,0,0,0,2.12-1.05l1,1a3.39,3.39,0,0,1-1.36,1.18A4.21,4.21,0,0,1,244.9,308.16Zm-.23-7.24a1.61,1.61,0,0,0-1.26.54,2.86,2.86,0,0,0-.61,1.53h3.62v-.15a2.42,2.42,0,0,0-.51-1.44A1.61,1.61,0,0,0,244.67,300.92Z"/>
          <path class="cls-3" d="M252.64,305.59l1.79-6h2L253.46,308h-1.65l-2.95-8.45h2Z"/>
          <path class="cls-3" d="M261.3,308.16a3.92,3.92,0,0,1-2.93-1.14,4.12,4.12,0,0,1-1.12-3v-.23a5,5,0,0,1,.49-2.26,3.66,3.66,0,0,1,3.34-2.11,3.34,3.34,0,0,1,2.67,1.1,4.72,4.72,0,0,1,.94,3.12v.77h-5.52a2.53,2.53,0,0,0,.69,1.65,2.1,2.1,0,0,0,1.55.61,2.56,2.56,0,0,0,2.12-1.05l1,1a3.39,3.39,0,0,1-1.36,1.18A4.24,4.24,0,0,1,261.3,308.16Zm-.23-7.24a1.61,1.61,0,0,0-1.26.54,2.78,2.78,0,0,0-.61,1.53h3.61v-.15a2.36,2.36,0,0,0-.5-1.44A1.61,1.61,0,0,0,261.07,300.92Z"/>
          <path class="cls-3" d="M270.59,301.28a4.93,4.93,0,0,0-.78-.06,1.72,1.72,0,0,0-1.75,1V308h-1.9v-8.45H268l0,.94a2.13,2.13,0,0,1,1.9-1.1,1.8,1.8,0,0,1,.67.11Z"/>
          <path class="cls-3" d="M276.6,308a3.3,3.3,0,0,1-.22-.79,3.17,3.17,0,0,1-4.29.22,2.31,2.31,0,0,1-.81-1.8,2.39,2.39,0,0,1,1-2.07,4.87,4.87,0,0,1,2.87-.72h1.16v-.56a1.32,1.32,0,0,0-1.48-1.44,1.72,1.72,0,0,0-1.07.32,1,1,0,0,0-.41.83h-1.9a2.18,2.18,0,0,1,.46-1.31,3,3,0,0,1,1.26-.94,4.37,4.37,0,0,1,1.77-.35,3.52,3.52,0,0,1,2.36.75,2.65,2.65,0,0,1,.91,2.1v3.81a4.37,4.37,0,0,0,.32,1.82V308Zm-2.08-1.37a2.23,2.23,0,0,0,1.06-.27,1.86,1.86,0,0,0,.74-.73V304h-1a2.77,2.77,0,0,0-1.59.37,1.19,1.19,0,0,0-.53,1,1.12,1.12,0,0,0,.36.87A1.41,1.41,0,0,0,274.52,306.63Z"/>
          <path class="cls-3" d="M279.88,303.71a4.91,4.91,0,0,1,.92-3.14,3,3,0,0,1,2.46-1.18,2.79,2.79,0,0,1,2.27,1l.09-.85h1.71v8.19a3.42,3.42,0,0,1-1,2.63,3.94,3.94,0,0,1-2.79,1,4.52,4.52,0,0,1-1.82-.39,3.15,3.15,0,0,1-1.34-1l.9-1.14a2.71,2.71,0,0,0,2.15,1,2.09,2.09,0,0,0,1.49-.51,2,2,0,0,0,.55-1.51v-.57a2.81,2.81,0,0,1-2.19.92,3,3,0,0,1-2.42-1.18A5.11,5.11,0,0,1,279.88,303.71Zm1.89.17a3.39,3.39,0,0,0,.52,2,1.65,1.65,0,0,0,1.44.73,1.84,1.84,0,0,0,1.7-1v-3.72a1.8,1.8,0,0,0-1.69-1,1.65,1.65,0,0,0-1.45.74A3.77,3.77,0,0,0,281.77,303.88Z"/>
          <path class="cls-3" d="M293,308.16a3.9,3.9,0,0,1-2.92-1.14,4.13,4.13,0,0,1-1.13-3v-.23a5.14,5.14,0,0,1,.49-2.26,3.7,3.7,0,0,1,1.37-1.55,3.64,3.64,0,0,1,2-.56,3.34,3.34,0,0,1,2.67,1.1,4.67,4.67,0,0,1,.94,3.12v.77h-5.52a2.53,2.53,0,0,0,.7,1.65,2.08,2.08,0,0,0,1.54.61,2.59,2.59,0,0,0,2.13-1.05l1,1a3.39,3.39,0,0,1-1.36,1.18A4.21,4.21,0,0,1,293,308.16Zm-.23-7.24a1.61,1.61,0,0,0-1.26.54,2.86,2.86,0,0,0-.61,1.53h3.62v-.15a2.36,2.36,0,0,0-.51-1.44A1.61,1.61,0,0,0,292.77,300.92Z"/>
          <path class="cls-3" d="M297.51,303.71a5,5,0,0,1,.91-3.13,2.89,2.89,0,0,1,2.42-1.19,2.77,2.77,0,0,1,2.18.94V296h1.9v12H303.2l-.1-.87a2.81,2.81,0,0,1-2.27,1,2.88,2.88,0,0,1-2.4-1.2A5.15,5.15,0,0,1,297.51,303.71Zm1.9.17a3.51,3.51,0,0,0,.49,2,1.61,1.61,0,0,0,1.41.72,1.8,1.8,0,0,0,1.71-1V302a1.78,1.78,0,0,0-1.69-1,1.6,1.6,0,0,0-1.42.73A3.85,3.85,0,0,0,299.41,303.88Z"/>
          <path class="cls-3" d="M232.47,316.69v2.06H234v1.4h-1.5v4.72a1,1,0,0,0,.2.7.84.84,0,0,0,.68.22,3,3,0,0,0,.66-.08v1.47a4.66,4.66,0,0,1-1.25.18c-1.46,0-2.18-.81-2.18-2.42v-4.79h-1.4v-1.4h1.4v-2.06Z"/>
          <path class="cls-3" d="M239.14,327.36a3.92,3.92,0,0,1-2.93-1.14,4.12,4.12,0,0,1-1.12-3V323a5,5,0,0,1,.49-2.26,3.66,3.66,0,0,1,3.34-2.11,3.34,3.34,0,0,1,2.67,1.1,4.72,4.72,0,0,1,.94,3.12v.77H237a2.53,2.53,0,0,0,.7,1.65,2.1,2.1,0,0,0,1.55.61,2.56,2.56,0,0,0,2.12-1l1,1a3.46,3.46,0,0,1-1.36,1.18A4.24,4.24,0,0,1,239.14,327.36Zm-.23-7.24a1.61,1.61,0,0,0-1.26.54,2.78,2.78,0,0,0-.61,1.53h3.61V322a2.36,2.36,0,0,0-.5-1.44A1.61,1.61,0,0,0,238.91,320.12Z"/>
          <path class="cls-3" d="M247.47,325.84a1.73,1.73,0,0,0,1.18-.41,1.4,1.4,0,0,0,.5-1h1.79a2.78,2.78,0,0,1-.49,1.48A3.3,3.3,0,0,1,249.2,327a3.8,3.8,0,0,1-1.7.4,3.64,3.64,0,0,1-2.82-1.15,4.57,4.57,0,0,1-1-3.17v-.2a4.49,4.49,0,0,1,1-3.09,3.56,3.56,0,0,1,2.81-1.16,3.48,3.48,0,0,1,2.46.88,3.16,3.16,0,0,1,1,2.31h-1.79a1.74,1.74,0,0,0-.49-1.2,1.61,1.61,0,0,0-1.19-.46,1.68,1.68,0,0,0-1.42.66,3.48,3.48,0,0,0-.51,2v.31a3.48,3.48,0,0,0,.5,2.05A1.66,1.66,0,0,0,247.47,325.84Z"/>
          <path class="cls-3" d="M254.25,319.67a3,3,0,0,1,2.35-1.08c1.8,0,2.71,1,2.74,3.09v5.52h-1.9v-5.45a1.64,1.64,0,0,0-.38-1.24,1.54,1.54,0,0,0-1.11-.36,1.83,1.83,0,0,0-1.7,1v6h-1.9v-12h1.9Z"/>
          <path class="cls-3" d="M263,318.75l.06,1a3,3,0,0,1,2.46-1.13c1.76,0,2.65,1,2.68,3v5.58h-1.89v-5.48a1.76,1.76,0,0,0-.35-1.19,1.49,1.49,0,0,0-1.14-.38,1.82,1.82,0,0,0-1.71,1v6h-1.9v-8.45Z"/>
          <path class="cls-3" d="M269.8,322.9a5.08,5.08,0,0,1,.49-2.24,3.51,3.51,0,0,1,1.39-1.53,3.84,3.84,0,0,1,2-.54,3.71,3.71,0,0,1,2.78,1.1,4.32,4.32,0,0,1,1.15,2.93v.44a5,5,0,0,1-.48,2.23,3.58,3.58,0,0,1-1.37,1.53,3.94,3.94,0,0,1-2.07.54,3.67,3.67,0,0,1-2.86-1.19A4.57,4.57,0,0,1,269.8,323Zm1.9.16a3.39,3.39,0,0,0,.54,2,1.88,1.88,0,0,0,3,0,3.81,3.81,0,0,0,.53-2.19,3.33,3.33,0,0,0-.55-2,1.77,1.77,0,0,0-1.5-.75,1.72,1.72,0,0,0-1.47.73A3.68,3.68,0,0,0,271.7,323.06Z"/>
          <path class="cls-3" d="M281.29,327.2h-1.9v-12h1.9Z"/>
          <path class="cls-3" d="M283,322.9a5,5,0,0,1,.49-2.24,3.55,3.55,0,0,1,1.38-1.53,3.9,3.9,0,0,1,2.05-.54,3.71,3.71,0,0,1,2.78,1.1,4.37,4.37,0,0,1,1.15,2.93v.44a5,5,0,0,1-.48,2.23,3.54,3.54,0,0,1-1.38,1.53,3.92,3.92,0,0,1-2.07.54,3.68,3.68,0,0,1-2.86-1.19A4.57,4.57,0,0,1,283,323Zm1.9.16a3.46,3.46,0,0,0,.53,2,1.88,1.88,0,0,0,3,0,3.73,3.73,0,0,0,.54-2.19,3.4,3.4,0,0,0-.55-2,1.87,1.87,0,0,0-3,0A3.75,3.75,0,0,0,284.9,323.06Z"/>
          <path class="cls-3" d="M292.13,322.91a4.91,4.91,0,0,1,.93-3.14,2.94,2.94,0,0,1,2.45-1.18,2.81,2.81,0,0,1,2.28,1l.08-.85h1.71v8.19a3.41,3.41,0,0,1-1,2.63,4,4,0,0,1-2.8,1,4.44,4.44,0,0,1-1.81-.39,3.25,3.25,0,0,1-1.35-1l.9-1.14a2.72,2.72,0,0,0,2.16,1,2.11,2.11,0,0,0,1.49-.51,2,2,0,0,0,.54-1.51v-.57a2.77,2.77,0,0,1-2.18.92,3,3,0,0,1-2.43-1.18A5.11,5.11,0,0,1,292.13,322.91Zm1.89.17a3.39,3.39,0,0,0,.52,2,1.67,1.67,0,0,0,1.44.73,1.83,1.83,0,0,0,1.7-1v-3.72a1.79,1.79,0,0,0-1.68-1,1.67,1.67,0,0,0-1.46.74A3.77,3.77,0,0,0,294,323.08Z"/>
          <path class="cls-3" d="M304.49,324.48l1.72-5.73h2l-3.36,9.73a2.73,2.73,0,0,1-2.62,2.14,3.26,3.26,0,0,1-.92-.15V329l.36,0a1.87,1.87,0,0,0,1.08-.26,1.72,1.72,0,0,0,.58-.88l.27-.72-3-8.41h2.05Z"/>
        </g>
        <g>
          <path class="cls-3" d="M380.19,304.3a4.1,4.1,0,0,1-1.34,2.84,4.58,4.58,0,0,1-3.12,1,4.41,4.41,0,0,1-2.39-.65,4.21,4.21,0,0,1-1.6-1.83,6.6,6.6,0,0,1-.59-2.76v-1.06a6.7,6.7,0,0,1,.57-2.84,4.39,4.39,0,0,1,1.64-1.89,4.57,4.57,0,0,1,2.46-.66,4.42,4.42,0,0,1,3,1,4.26,4.26,0,0,1,1.33,2.89h-2a2.79,2.79,0,0,0-.71-1.77,2.34,2.34,0,0,0-1.69-.55,2.31,2.31,0,0,0-2,.95,4.69,4.69,0,0,0-.7,2.76v1a5,5,0,0,0,.66,2.81,2.18,2.18,0,0,0,1.93,1,2.54,2.54,0,0,0,1.75-.52,2.71,2.71,0,0,0,.74-1.74Z"/>
          <path class="cls-3" d="M381.42,303.7a5,5,0,0,1,.49-2.24,3.55,3.55,0,0,1,1.38-1.53,3.9,3.9,0,0,1,2-.54,3.71,3.71,0,0,1,2.78,1.1,4.37,4.37,0,0,1,1.15,2.93v.44a5,5,0,0,1-.48,2.23,3.54,3.54,0,0,1-1.38,1.53,3.88,3.88,0,0,1-2.06.54,3.69,3.69,0,0,1-2.87-1.19,4.62,4.62,0,0,1-1.07-3.18Zm1.9.16a3.39,3.39,0,0,0,.54,2,1.87,1.87,0,0,0,3,0,3.73,3.73,0,0,0,.54-2.19,3.4,3.4,0,0,0-.55-2,1.87,1.87,0,0,0-3,0A3.75,3.75,0,0,0,383.32,303.86Z"/>
          <path class="cls-3" d="M395.62,305.7a.87.87,0,0,0-.42-.77,4.5,4.5,0,0,0-1.38-.47,7.21,7.21,0,0,1-1.62-.51,2.16,2.16,0,0,1-1.42-2,2.22,2.22,0,0,1,.92-1.82,3.62,3.62,0,0,1,2.34-.74,3.79,3.79,0,0,1,2.45.75,2.4,2.4,0,0,1,.94,1.95h-1.9a1.16,1.16,0,0,0-.41-.91,1.52,1.52,0,0,0-1.08-.37,1.73,1.73,0,0,0-1,.29.91.91,0,0,0-.39.78.77.77,0,0,0,.37.68,5,5,0,0,0,1.48.48,7.08,7.08,0,0,1,1.75.59,2.51,2.51,0,0,1,.95.82,2.1,2.1,0,0,1,.31,1.15,2.21,2.21,0,0,1-.95,1.85,4,4,0,0,1-2.47.71,4.41,4.41,0,0,1-1.86-.38,3,3,0,0,1-1.26-1,2.46,2.46,0,0,1-.45-1.41h1.84a1.34,1.34,0,0,0,.51,1,2,2,0,0,0,1.24.37,1.92,1.92,0,0,0,1.14-.29A.89.89,0,0,0,395.62,305.7Z"/>
          <path class="cls-3" d="M401.52,297.49v2.06H403V301h-1.49v4.72a1,1,0,0,0,.19.7.87.87,0,0,0,.68.22,3.14,3.14,0,0,0,.67-.08V308a4.66,4.66,0,0,1-1.25.18c-1.46,0-2.19-.81-2.19-2.42V301h-1.39v-1.4h1.39v-2.06Z"/>
          <path class="cls-3" d="M408.14,303.93H404V302.4h4.1Z"/>
          <path class="cls-3" d="M413.43,308.16a3.9,3.9,0,0,1-2.92-1.14,4.12,4.12,0,0,1-1.12-3v-.23a5,5,0,0,1,.49-2.26,3.63,3.63,0,0,1,1.37-1.55,3.59,3.59,0,0,1,2-.56,3.33,3.33,0,0,1,2.67,1.1,4.67,4.67,0,0,1,.94,3.12v.77H411.3A2.53,2.53,0,0,0,412,306a2.08,2.08,0,0,0,1.54.61,2.59,2.59,0,0,0,2.13-1.05l1,1a3.43,3.43,0,0,1-1.35,1.18A4.25,4.25,0,0,1,413.43,308.16Zm-.22-7.24a1.61,1.61,0,0,0-1.26.54,2.86,2.86,0,0,0-.62,1.53H415v-.15a2.3,2.3,0,0,0-.51-1.44A1.6,1.6,0,0,0,413.21,300.92Z"/>
          <path class="cls-3" d="M419,308V301h-1.28v-1.4H419v-.78a2.88,2.88,0,0,1,.79-2.17,3,3,0,0,1,2.18-.76A4.14,4.14,0,0,1,423,296l-.05,1.48a3.91,3.91,0,0,0-.73-.06,1.22,1.22,0,0,0-1.36,1.4v.75h1.72V301h-1.72V308Z"/>
          <path class="cls-3" d="M424.64,308V301h-1.29v-1.4h1.29v-.78a2.91,2.91,0,0,1,.78-2.17,3,3,0,0,1,2.19-.76,4.13,4.13,0,0,1,1.06.14l-.05,1.48a3.91,3.91,0,0,0-.73-.06,1.22,1.22,0,0,0-1.35,1.4v.75h1.71V301h-1.71V308Z"/>
          <path class="cls-3" d="M433.36,308.16a3.9,3.9,0,0,1-2.92-1.14,4.12,4.12,0,0,1-1.12-3v-.23a5.14,5.14,0,0,1,.48-2.26,3.72,3.72,0,0,1,1.38-1.55,3.59,3.59,0,0,1,2-.56,3.34,3.34,0,0,1,2.67,1.1,4.67,4.67,0,0,1,.94,3.12v.77h-5.52a2.53,2.53,0,0,0,.7,1.65,2.08,2.08,0,0,0,1.54.61,2.59,2.59,0,0,0,2.13-1.05l1,1a3.43,3.43,0,0,1-1.35,1.18A4.25,4.25,0,0,1,433.36,308.16Zm-.22-7.24a1.61,1.61,0,0,0-1.26.54,2.79,2.79,0,0,0-.62,1.53h3.62v-.15a2.3,2.3,0,0,0-.51-1.44A1.6,1.6,0,0,0,433.14,300.92Z"/>
          <path class="cls-3" d="M441.7,306.64a1.75,1.75,0,0,0,1.18-.41,1.44,1.44,0,0,0,.5-1h1.79a2.87,2.87,0,0,1-.49,1.48,3.38,3.38,0,0,1-1.25,1.08,3.84,3.84,0,0,1-1.71.4,3.62,3.62,0,0,1-2.81-1.15,4.57,4.57,0,0,1-1-3.17v-.2a4.49,4.49,0,0,1,1-3.09,3.59,3.59,0,0,1,2.81-1.16,3.45,3.45,0,0,1,2.46.88,3.17,3.17,0,0,1,1,2.31h-1.79a1.75,1.75,0,0,0-.5-1.2,1.59,1.59,0,0,0-1.18-.46,1.66,1.66,0,0,0-1.42.66,3.33,3.33,0,0,0-.51,2v.31a3.41,3.41,0,0,0,.5,2.05A1.65,1.65,0,0,0,441.7,306.64Z"/>
          <path class="cls-3" d="M449,297.49v2.06h1.49V301H449v4.72a1,1,0,0,0,.19.7.88.88,0,0,0,.69.22,3.13,3.13,0,0,0,.66-.08V308a4.66,4.66,0,0,1-1.25.18c-1.46,0-2.19-.81-2.19-2.42V301h-1.39v-1.4h1.39v-2.06Z"/>
          <path class="cls-3" d="M451.93,297.35a1,1,0,0,1,.27-.72,1,1,0,0,1,.8-.29,1,1,0,0,1,.79.29,1.07,1.07,0,0,1,0,1.44,1,1,0,0,1-.79.28,1.07,1.07,0,0,1-.8-.28A1,1,0,0,1,451.93,297.35Zm2,10.65H452v-8.45h1.9Z"/>
          <path class="cls-3" d="M459,305.59l1.79-6h2L459.81,308h-1.65l-3-8.45h2Z"/>
          <path class="cls-3" d="M467.64,308.16a3.92,3.92,0,0,1-2.92-1.14,4.12,4.12,0,0,1-1.12-3v-.23a5,5,0,0,1,.49-2.26,3.66,3.66,0,0,1,3.34-2.11,3.3,3.3,0,0,1,2.66,1.1,4.67,4.67,0,0,1,1,3.12v.77h-5.53a2.53,2.53,0,0,0,.7,1.65,2.08,2.08,0,0,0,1.54.61,2.59,2.59,0,0,0,2.13-1.05l1,1a3.43,3.43,0,0,1-1.35,1.18A4.25,4.25,0,0,1,467.64,308.16Zm-.22-7.24a1.61,1.61,0,0,0-1.26.54,2.86,2.86,0,0,0-.62,1.53h3.62v-.15a2.3,2.3,0,0,0-.51-1.44A1.59,1.59,0,0,0,467.42,300.92Z"/>
          <path class="cls-3" d="M394.49,323.06a5,5,0,0,1-.89,3.13,2.84,2.84,0,0,1-2.39,1.17,2.88,2.88,0,0,1-2.23-.92v4h-1.89v-11.7h1.75l.07.86a2.8,2.8,0,0,1,2.28-1,2.88,2.88,0,0,1,2.42,1.15,5.16,5.16,0,0,1,.88,3.2Zm-1.89-.16a3.56,3.56,0,0,0-.5-2,1.63,1.63,0,0,0-1.44-.74,1.76,1.76,0,0,0-1.68,1v3.75a1.78,1.78,0,0,0,1.69,1,1.62,1.62,0,0,0,1.42-.73A3.88,3.88,0,0,0,392.6,322.9Z"/>
          <path class="cls-3" d="M398.12,327.2h-1.9v-12h1.9Z"/>
          <path class="cls-3" d="M405.23,327.2a3,3,0,0,1-.21-.79,3.19,3.19,0,0,1-4.3.22,2.31,2.31,0,0,1-.81-1.8,2.39,2.39,0,0,1,1-2.07,4.87,4.87,0,0,1,2.87-.72H405v-.56a1.31,1.31,0,0,0-1.48-1.44,1.69,1.69,0,0,0-1.06.32,1,1,0,0,0-.42.83h-1.9a2.18,2.18,0,0,1,.46-1.31,3.12,3.12,0,0,1,1.26-.94,4.4,4.4,0,0,1,1.77-.35,3.54,3.54,0,0,1,2.37.75,2.65,2.65,0,0,1,.9,2.1v3.81a4.37,4.37,0,0,0,.32,1.82v.13Zm-2.08-1.37a2.2,2.2,0,0,0,1.06-.27,1.8,1.8,0,0,0,.74-.73v-1.6h-1a2.79,2.79,0,0,0-1.59.37,1.19,1.19,0,0,0-.53,1,1.1,1.1,0,0,0,.37.87A1.37,1.37,0,0,0,403.15,325.83Z"/>
          <path class="cls-3" d="M411.22,316.69v2.06h1.49v1.4h-1.49v4.72a1,1,0,0,0,.19.7.87.87,0,0,0,.68.22,3.14,3.14,0,0,0,.67-.08v1.47a4.66,4.66,0,0,1-1.25.18c-1.46,0-2.19-.81-2.19-2.42v-4.79h-1.39v-1.4h1.39v-2.06Z"/>
          <path class="cls-3" d="M414.83,327.2v-7.05h-1.29v-1.4h1.29V318a2.91,2.91,0,0,1,.78-2.17,3,3,0,0,1,2.19-.76,4.13,4.13,0,0,1,1.06.14l-.05,1.48a3.88,3.88,0,0,0-.72-.06,1.22,1.22,0,0,0-1.36,1.4v.75h1.72v1.4h-1.72v7.05Z"/>
          <path class="cls-3" d="M419.48,322.9a5,5,0,0,1,.49-2.24,3.55,3.55,0,0,1,1.38-1.53,3.9,3.9,0,0,1,2-.54,3.73,3.73,0,0,1,2.78,1.1,4.37,4.37,0,0,1,1.15,2.93v.44a5,5,0,0,1-.48,2.23,3.54,3.54,0,0,1-1.38,1.53,3.92,3.92,0,0,1-2.07.54,3.68,3.68,0,0,1-2.86-1.19,4.57,4.57,0,0,1-1.07-3.18Zm1.9.16a3.39,3.39,0,0,0,.53,2,1.88,1.88,0,0,0,3,0,3.73,3.73,0,0,0,.54-2.19,3.33,3.33,0,0,0-.56-2,1.86,1.86,0,0,0-3,0A3.75,3.75,0,0,0,421.38,323.06Z"/>
          <path class="cls-3" d="M433.37,320.48a4.93,4.93,0,0,0-.78-.06,1.72,1.72,0,0,0-1.75,1v5.78h-1.9v-8.45h1.81l.05.94a2.13,2.13,0,0,1,1.9-1.1,1.9,1.9,0,0,1,.68.11Z"/>
          <path class="cls-3" d="M436.35,318.75l.06.88a3,3,0,0,1,2.43-1,2.32,2.32,0,0,1,2.32,1.3,3,3,0,0,1,2.6-1.3,2.63,2.63,0,0,1,2.08.78,3.41,3.41,0,0,1,.7,2.28v5.55h-1.9v-5.5a1.71,1.71,0,0,0-.35-1.18,1.54,1.54,0,0,0-1.16-.37,1.57,1.57,0,0,0-1.06.34,1.86,1.86,0,0,0-.58.91v5.8h-1.9v-5.56a1.35,1.35,0,0,0-1.52-1.49,1.68,1.68,0,0,0-1.62.93v6.12h-1.9v-8.45Z"/>
          <path class="cls-3" d="M453.23,324.9a.87.87,0,0,0-.42-.77,4.48,4.48,0,0,0-1.39-.47,7.56,7.56,0,0,1-1.62-.51,2.18,2.18,0,0,1-1.42-2,2.25,2.25,0,0,1,.92-1.82,3.67,3.67,0,0,1,2.35-.74,3.81,3.81,0,0,1,2.45.75,2.39,2.39,0,0,1,.93,2h-1.9a1.16,1.16,0,0,0-.4-.91,1.52,1.52,0,0,0-1.08-.37,1.69,1.69,0,0,0-1,.29.94.94,0,0,0-.4.78.8.8,0,0,0,.37.68,5.08,5.08,0,0,0,1.49.48,7.08,7.08,0,0,1,1.75.59,2.59,2.59,0,0,1,1,.82,2.09,2.09,0,0,1,.3,1.15,2.2,2.2,0,0,1-.94,1.85,4.05,4.05,0,0,1-2.48.71,4.37,4.37,0,0,1-1.85-.38,3.1,3.1,0,0,1-1.27-1,2.46,2.46,0,0,1-.45-1.41H450a1.3,1.3,0,0,0,.5,1,2,2,0,0,0,1.25.37,1.92,1.92,0,0,0,1.14-.29A.89.89,0,0,0,453.23,324.9Z"/>
        </g>
        <g>
          <path class="cls-3" d="M556,305.07a1.37,1.37,0,0,0-.53-1.15,6.22,6.22,0,0,0-1.9-.83,8.83,8.83,0,0,1-2.19-.92,2.9,2.9,0,0,1-1.55-2.54,2.76,2.76,0,0,1,1.12-2.27,4.53,4.53,0,0,1,2.91-.89,4.91,4.91,0,0,1,2.11.44,3.42,3.42,0,0,1,1.46,1.24A3.17,3.17,0,0,1,558,300h-2a1.8,1.8,0,0,0-.56-1.4,2.34,2.34,0,0,0-1.6-.5,2.43,2.43,0,0,0-1.5.41,1.38,1.38,0,0,0-.54,1.16,1.23,1.23,0,0,0,.58,1,6.58,6.58,0,0,0,1.91.81,9.45,9.45,0,0,1,2.13.9,3.36,3.36,0,0,1,1.18,1.16,3,3,0,0,1,.37,1.53,2.71,2.71,0,0,1-1.09,2.26,4.7,4.7,0,0,1-2.95.84,5.61,5.61,0,0,1-2.27-.46,3.81,3.81,0,0,1-1.61-1.26,3.18,3.18,0,0,1-.58-1.88h2a1.82,1.82,0,0,0,.64,1.5,2.78,2.78,0,0,0,1.84.53,2.45,2.45,0,0,0,1.55-.41A1.38,1.38,0,0,0,556,305.07Z"/>
          <path class="cls-3" d="M561.44,300.47a3,3,0,0,1,2.35-1.08c1.8,0,2.71,1,2.74,3.09V308h-1.9v-5.45a1.67,1.67,0,0,0-.38-1.24,1.54,1.54,0,0,0-1.11-.36,1.83,1.83,0,0,0-1.7,1v6h-1.9V296h1.9Z"/>
          <path class="cls-3" d="M573.5,308a2.88,2.88,0,0,1-.22-.79,3.19,3.19,0,0,1-4.3.22,2.33,2.33,0,0,1-.8-1.8,2.39,2.39,0,0,1,1-2.07,4.89,4.89,0,0,1,2.87-.72h1.17v-.56a1.33,1.33,0,0,0-1.49-1.44,1.71,1.71,0,0,0-1.06.32,1,1,0,0,0-.41.83h-1.9a2.11,2.11,0,0,1,.46-1.31,3,3,0,0,1,1.25-.94,4.4,4.4,0,0,1,1.77-.35,3.54,3.54,0,0,1,2.37.75,2.65,2.65,0,0,1,.91,2.1v3.81a4.21,4.21,0,0,0,.32,1.82V308Zm-2.09-1.37a2.17,2.17,0,0,0,1.06-.27,1.88,1.88,0,0,0,.75-.73V304h-1a2.73,2.73,0,0,0-1.58.37,1.17,1.17,0,0,0-.53,1,1.12,1.12,0,0,0,.36.87A1.39,1.39,0,0,0,571.41,306.63Z"/>
          <path class="cls-3" d="M581.53,301.28a4.9,4.9,0,0,0-.77-.06,1.74,1.74,0,0,0-1.76,1V308h-1.9v-8.45h1.81l.05.94a2.15,2.15,0,0,1,1.91-1.1,1.84,1.84,0,0,1,.67.11Z"/>
          <path class="cls-3" d="M586.45,308.16a3.9,3.9,0,0,1-2.92-1.14,4.13,4.13,0,0,1-1.13-3v-.23a5.14,5.14,0,0,1,.49-2.26,3.7,3.7,0,0,1,1.37-1.55,3.64,3.64,0,0,1,2-.56,3.34,3.34,0,0,1,2.67,1.1,4.67,4.67,0,0,1,.94,3.12v.77h-5.52A2.53,2.53,0,0,0,585,306a2.08,2.08,0,0,0,1.54.61,2.59,2.59,0,0,0,2.13-1.05l1,1a3.39,3.39,0,0,1-1.36,1.18A4.21,4.21,0,0,1,586.45,308.16Zm-.23-7.24a1.61,1.61,0,0,0-1.26.54,2.86,2.86,0,0,0-.61,1.53H588v-.15a2.36,2.36,0,0,0-.51-1.44A1.61,1.61,0,0,0,586.22,300.92Z"/>
          <path class="cls-3" d="M591,303.71a5,5,0,0,1,.91-3.13,2.89,2.89,0,0,1,2.42-1.19,2.75,2.75,0,0,1,2.18.94V296h1.9v12h-1.72l-.1-.87a2.8,2.8,0,0,1-2.27,1,2.88,2.88,0,0,1-2.4-1.2A5.15,5.15,0,0,1,591,303.71Zm1.9.17a3.51,3.51,0,0,0,.49,2,1.61,1.61,0,0,0,1.41.72,1.8,1.8,0,0,0,1.71-1V302a1.77,1.77,0,0,0-1.69-1,1.61,1.61,0,0,0-1.42.73A3.85,3.85,0,0,0,592.86,303.88Z"/>
          <path class="cls-3" d="M539.07,323.58l-.85.86v2.76h-1.89v-12h1.89v6.92l.6-.74,2.33-2.63h2.29l-3.15,3.52,3.48,4.93h-2.19Z"/>
          <path class="cls-3" d="M546.44,318.75l0,1a3.06,3.06,0,0,1,2.46-1.13c1.76,0,2.66,1,2.69,3v5.58h-1.9v-5.48a1.76,1.76,0,0,0-.35-1.19,1.48,1.48,0,0,0-1.13-.38,1.83,1.83,0,0,0-1.72,1v6h-1.89v-8.45Z"/>
          <path class="cls-3" d="M553.22,322.9a5,5,0,0,1,.49-2.24,3.55,3.55,0,0,1,1.38-1.53,3.9,3.9,0,0,1,2-.54,3.71,3.71,0,0,1,2.78,1.1,4.37,4.37,0,0,1,1.15,2.93v.44a5,5,0,0,1-.48,2.23,3.54,3.54,0,0,1-1.38,1.53,3.92,3.92,0,0,1-2.07.54,3.68,3.68,0,0,1-2.86-1.19,4.62,4.62,0,0,1-1.07-3.18Zm1.9.16a3.39,3.39,0,0,0,.53,2,1.88,1.88,0,0,0,3,0,3.73,3.73,0,0,0,.54-2.19,3.33,3.33,0,0,0-.56-2,1.86,1.86,0,0,0-3,0A3.75,3.75,0,0,0,555.12,323.06Z"/>
          <path class="cls-3" d="M570.11,324.58l1.34-5.83h1.85L571,327.2h-1.56l-1.82-5.8-1.78,5.8h-1.56L562,318.75h1.85l1.37,5.77,1.73-5.77h1.43Z"/>
          <path class="cls-3" d="M576.59,327.2h-1.9v-12h1.9Z"/>
          <path class="cls-3" d="M582.38,327.36a3.9,3.9,0,0,1-2.92-1.14,4.13,4.13,0,0,1-1.13-3V323a5.14,5.14,0,0,1,.49-2.26,3.7,3.7,0,0,1,1.37-1.55,3.64,3.64,0,0,1,2-.56,3.34,3.34,0,0,1,2.67,1.1,4.67,4.67,0,0,1,.94,3.12v.77h-5.52a2.53,2.53,0,0,0,.7,1.65,2.08,2.08,0,0,0,1.54.61,2.59,2.59,0,0,0,2.13-1l1,1a3.39,3.39,0,0,1-1.36,1.18A4.21,4.21,0,0,1,582.38,327.36Zm-.23-7.24a1.61,1.61,0,0,0-1.26.54,2.86,2.86,0,0,0-.61,1.53h3.62V322a2.36,2.36,0,0,0-.51-1.44A1.61,1.61,0,0,0,582.15,320.12Z"/>
          <path class="cls-3" d="M586.89,322.91a5,5,0,0,1,.9-3.13,2.92,2.92,0,0,1,2.43-1.19,2.77,2.77,0,0,1,2.18.94V315.2h1.89v12h-1.71l-.1-.87a2.8,2.8,0,0,1-2.27,1,2.88,2.88,0,0,1-2.4-1.2A5.15,5.15,0,0,1,586.89,322.91Zm1.9.17a3.51,3.51,0,0,0,.49,2,1.61,1.61,0,0,0,1.41.72,1.8,1.8,0,0,0,1.71-1v-3.61a1.77,1.77,0,0,0-1.69-1,1.6,1.6,0,0,0-1.42.73A3.85,3.85,0,0,0,588.79,323.08Z"/>
          <path class="cls-3" d="M595.94,322.91a4.91,4.91,0,0,1,.93-3.14,3,3,0,0,1,2.46-1.18,2.79,2.79,0,0,1,2.27,1l.09-.85h1.71v8.19a3.42,3.42,0,0,1-1,2.63,3.94,3.94,0,0,1-2.79,1,4.48,4.48,0,0,1-1.82-.39,3.25,3.25,0,0,1-1.35-1l.9-1.14a2.73,2.73,0,0,0,2.16,1,2.09,2.09,0,0,0,1.49-.51,2,2,0,0,0,.55-1.51v-.57a2.81,2.81,0,0,1-2.19.92,3,3,0,0,1-2.43-1.18A5.17,5.17,0,0,1,595.94,322.91Zm1.89.17a3.46,3.46,0,0,0,.52,2,1.67,1.67,0,0,0,1.44.73,1.84,1.84,0,0,0,1.71-1v-3.72a1.8,1.8,0,0,0-1.69-1,1.68,1.68,0,0,0-1.46.74A3.85,3.85,0,0,0,597.83,323.08Z"/>
          <path class="cls-3" d="M609.07,327.36a3.94,3.94,0,0,1-2.93-1.14,4.16,4.16,0,0,1-1.12-3V323a5,5,0,0,1,.49-2.26,3.66,3.66,0,0,1,3.34-2.11,3.34,3.34,0,0,1,2.67,1.1,4.67,4.67,0,0,1,.94,3.12v.77h-5.52a2.53,2.53,0,0,0,.69,1.65,2.1,2.1,0,0,0,1.55.61,2.56,2.56,0,0,0,2.12-1l1,1a3.39,3.39,0,0,1-1.36,1.18A4.21,4.21,0,0,1,609.07,327.36Zm-.23-7.24a1.61,1.61,0,0,0-1.26.54,2.86,2.86,0,0,0-.61,1.53h3.61V322a2.36,2.36,0,0,0-.5-1.44A1.61,1.61,0,0,0,608.84,320.12Z"/>
        </g>
      </g>
      <g>
        <g>
          <polygon class="cls-7" points="739.23 496.07 675.58 396.86 561.26 396.86 280.63 396.86 166.31 396.86 102.66 496.07 39 595.28 280.63 595.28 561.26 595.28 802.89 595.28 739.23 496.07"/>
          <g>
            <polygon class="cls-8" points="140.31 396.86 70.16 496.07 70.16 496.07 140.31 396.86 140.31 396.86"/>
            <polygon class="cls-9" points="140.31 396.86 70.16 496.07 102.66 496.07 166.31 396.86 140.31 396.86"/>
            <polygon class="cls-8" points="701.58 396.86 771.73 496.07 771.73 496.07 701.58 396.86 701.58 396.86"/>
            <polygon class="cls-9" points="701.58 396.86 771.73 496.07 739.23 496.07 675.58 396.86 701.58 396.86"/>
            <line class="cls-10" x1="96.03" y1="496.07" x2="745.86" y2="496.07"/>
            <line class="cls-10" x1="280.63" y1="396.85" x2="280.63" y2="496.07"/>
            <line class="cls-10" x1="561.26" y1="396.85" x2="561.26" y2="496.07"/>
            <polygon class="cls-9" points="70.16 496.07 0 595.28 39 595.28 102.66 496.07 70.16 496.07"/>
            <polygon class="cls-9" points="771.73 496.07 841.89 595.28 802.89 595.28 739.23 496.07 771.73 496.07"/>
          </g>
        </g>
        <g>
          <path class="cls-3" d="M157.92,441.38h-4.67v3.5h5.46v1.58h-7.44V435.09h7.38v1.59h-5.4v3.14h4.67Z"/>
          <path class="cls-3" d="M163.17,440.79l1.61-2.78h2.11l-2.59,4.16,2.67,4.29h-2.09l-1.69-2.89-1.68,2.89H159.4l2.67-4.29L159.5,438h2.09Z"/>
          <path class="cls-3" d="M171.5,445.1a1.72,1.72,0,0,0,1.17-.41,1.4,1.4,0,0,0,.5-1H175a2.78,2.78,0,0,1-.49,1.48,3.3,3.3,0,0,1-1.25,1.08,3.77,3.77,0,0,1-1.7.4,3.62,3.62,0,0,1-2.81-1.15,4.52,4.52,0,0,1-1-3.17v-.2a4.49,4.49,0,0,1,1-3.09,3.58,3.58,0,0,1,2.81-1.16,3.47,3.47,0,0,1,2.46.88,3.16,3.16,0,0,1,1,2.31h-1.79a1.74,1.74,0,0,0-.49-1.2,1.61,1.61,0,0,0-1.18-.46,1.7,1.7,0,0,0-1.43.66,3.41,3.41,0,0,0-.5,2v.31a3.48,3.48,0,0,0,.49,2.05A1.67,1.67,0,0,0,171.5,445.1Z"/>
          <path class="cls-3" d="M180.12,446.62a3.94,3.94,0,0,1-2.93-1.14,4.16,4.16,0,0,1-1.12-3v-.23a5.14,5.14,0,0,1,.49-2.26,3.7,3.7,0,0,1,1.37-1.55,3.64,3.64,0,0,1,2-.56,3.34,3.34,0,0,1,2.67,1.1,4.67,4.67,0,0,1,.94,3.12v.77H178a2.49,2.49,0,0,0,.7,1.65,2.08,2.08,0,0,0,1.54.61,2.56,2.56,0,0,0,2.12-1.05l1,1A3.39,3.39,0,0,1,182,446.2,4.21,4.21,0,0,1,180.12,446.62Zm-.23-7.24a1.61,1.61,0,0,0-1.26.54,2.86,2.86,0,0,0-.61,1.53h3.62v-.15a2.42,2.42,0,0,0-.51-1.44A1.61,1.61,0,0,0,179.89,439.38Z"/>
          <path class="cls-3" d="M192.39,442.32a5.06,5.06,0,0,1-.89,3.13,3.09,3.09,0,0,1-4.62.25v4H185V438h1.75l.08.86a2.76,2.76,0,0,1,2.27-1,2.92,2.92,0,0,1,2.43,1.15,5.22,5.22,0,0,1,.88,3.2Zm-1.89-.16a3.48,3.48,0,0,0-.51-2,1.62,1.62,0,0,0-1.44-.74,1.74,1.74,0,0,0-1.67,1v3.75a1.76,1.76,0,0,0,1.69,1,1.62,1.62,0,0,0,1.41-.73A3.87,3.87,0,0,0,190.5,442.16Z"/>
          <path class="cls-3" d="M196.37,436V438h1.49v1.4h-1.49v4.72a1,1,0,0,0,.19.7.88.88,0,0,0,.69.22,3.05,3.05,0,0,0,.66-.08v1.47a4.66,4.66,0,0,1-1.25.18c-1.46,0-2.19-.81-2.19-2.42v-4.79h-1.39V438h1.39V436Z"/>
          <path class="cls-3" d="M199.32,435.81a1,1,0,0,1,.27-.72,1,1,0,0,1,.8-.29,1,1,0,0,1,.79.29,1.07,1.07,0,0,1,0,1.44,1,1,0,0,1-.79.28,1.07,1.07,0,0,1-.8-.28A1,1,0,0,1,199.32,435.81Zm2,10.65h-1.9V438h1.9Z"/>
          <path class="cls-3" d="M203,442.16a5.08,5.08,0,0,1,.49-2.24,3.51,3.51,0,0,1,1.39-1.53,3.84,3.84,0,0,1,2-.54,3.71,3.71,0,0,1,2.78,1.1,4.32,4.32,0,0,1,1.15,2.93v.44a5,5,0,0,1-.48,2.23,3.58,3.58,0,0,1-1.37,1.53,3.94,3.94,0,0,1-2.07.54,3.67,3.67,0,0,1-2.86-1.19,4.57,4.57,0,0,1-1.08-3.18Zm1.9.16a3.39,3.39,0,0,0,.54,2,1.88,1.88,0,0,0,3,0,3.81,3.81,0,0,0,.53-2.19,3.36,3.36,0,0,0-.55-2,1.76,1.76,0,0,0-1.5-.74,1.72,1.72,0,0,0-1.47.73A3.68,3.68,0,0,0,204.94,442.32Z"/>
          <path class="cls-3" d="M214.27,438l0,1a3.06,3.06,0,0,1,2.46-1.13c1.76,0,2.66,1,2.69,3v5.58h-1.9V441a1.76,1.76,0,0,0-.34-1.19,1.52,1.52,0,0,0-1.14-.38,1.81,1.81,0,0,0-1.71,1v6h-1.9V438Z"/>
          <path class="cls-3" d="M226.46,446.46a2.56,2.56,0,0,1-.22-.79,3.19,3.19,0,0,1-4.3.22,2.3,2.3,0,0,1-.8-1.8,2.39,2.39,0,0,1,1-2.07,4.89,4.89,0,0,1,2.87-.72h1.16v-.56a1.5,1.5,0,0,0-.36-1.05,1.48,1.48,0,0,0-1.12-.39,1.69,1.69,0,0,0-1.06.32,1,1,0,0,0-.42.83h-1.89a2.11,2.11,0,0,1,.46-1.31,2.94,2.94,0,0,1,1.25-.94,4.4,4.4,0,0,1,1.77-.35,3.54,3.54,0,0,1,2.37.75,2.63,2.63,0,0,1,.9,2.1v3.81a4.37,4.37,0,0,0,.32,1.82v.13Zm-2.09-1.37a2.17,2.17,0,0,0,1.06-.27,1.8,1.8,0,0,0,.74-.73v-1.6h-1a2.81,2.81,0,0,0-1.58.37,1.18,1.18,0,0,0-.54,1,1.13,1.13,0,0,0,.37.87A1.37,1.37,0,0,0,224.37,445.09Z"/>
          <path class="cls-3" d="M232.08,446.46h-1.9v-12h1.9Z"/>
          <path class="cls-3" d="M157.23,465.66h-1.9v-12h1.9Z"/>
          <path class="cls-3" d="M163,465.82a3.9,3.9,0,0,1-2.92-1.14,4.12,4.12,0,0,1-1.12-3v-.23a5.14,5.14,0,0,1,.48-2.26,3.77,3.77,0,0,1,1.37-1.55,3.64,3.64,0,0,1,2-.56,3.34,3.34,0,0,1,2.67,1.1,4.67,4.67,0,0,1,.94,3.12V462h-5.52a2.53,2.53,0,0,0,.7,1.65,2.08,2.08,0,0,0,1.54.61,2.59,2.59,0,0,0,2.13-1.05l1,1a3.39,3.39,0,0,1-1.36,1.18A4.18,4.18,0,0,1,163,465.82Zm-.22-7.24a1.61,1.61,0,0,0-1.27.54,2.89,2.89,0,0,0-.61,1.53h3.62v-.15a2.3,2.3,0,0,0-.51-1.44A1.6,1.6,0,0,0,162.8,458.58Z"/>
          <path class="cls-3" d="M172.94,465.66a2.56,2.56,0,0,1-.22-.79,3.19,3.19,0,0,1-4.3.22,2.3,2.3,0,0,1-.8-1.8,2.39,2.39,0,0,1,1-2.07,4.89,4.89,0,0,1,2.87-.72h1.17v-.56a1.51,1.51,0,0,0-.37-1.05,1.48,1.48,0,0,0-1.12-.39,1.69,1.69,0,0,0-1.06.32,1,1,0,0,0-.42.83H167.8a2.11,2.11,0,0,1,.46-1.31,2.94,2.94,0,0,1,1.25-.94,4.4,4.4,0,0,1,1.77-.35,3.54,3.54,0,0,1,2.37.75,2.64,2.64,0,0,1,.9,2.1v3.81a4.37,4.37,0,0,0,.32,1.82v.13Zm-2.09-1.37a2.17,2.17,0,0,0,1.06-.27,1.88,1.88,0,0,0,.75-.73v-1.6h-1a2.81,2.81,0,0,0-1.58.37,1.18,1.18,0,0,0-.54,1,1.13,1.13,0,0,0,.37.87A1.37,1.37,0,0,0,170.85,464.29Z"/>
          <path class="cls-3" d="M176.19,461.37a5,5,0,0,1,.9-3.13,2.92,2.92,0,0,1,2.43-1.19,2.73,2.73,0,0,1,2.17.94v-4.33h1.9v12h-1.72l-.09-.87a2.83,2.83,0,0,1-2.27,1,2.91,2.91,0,0,1-2.41-1.2A5.21,5.21,0,0,1,176.19,461.37Zm1.89.17a3.51,3.51,0,0,0,.5,2,1.61,1.61,0,0,0,1.41.72,1.79,1.79,0,0,0,1.7-1v-3.61a1.76,1.76,0,0,0-1.68-1,1.63,1.63,0,0,0-1.43.73A3.93,3.93,0,0,0,178.08,461.54Z"/>
          <path class="cls-3" d="M189.3,465.82a3.92,3.92,0,0,1-2.93-1.14,4.12,4.12,0,0,1-1.12-3v-.23a5,5,0,0,1,.49-2.26,3.66,3.66,0,0,1,3.34-2.11,3.34,3.34,0,0,1,2.67,1.1,4.72,4.72,0,0,1,.94,3.12V462h-5.53a2.53,2.53,0,0,0,.7,1.65,2.1,2.1,0,0,0,1.55.61,2.58,2.58,0,0,0,2.12-1.05l1,1a3.43,3.43,0,0,1-1.35,1.18A4.24,4.24,0,0,1,189.3,465.82Zm-.23-7.24a1.61,1.61,0,0,0-1.26.54,2.9,2.9,0,0,0-.62,1.53h3.62v-.15a2.3,2.3,0,0,0-.51-1.44A1.58,1.58,0,0,0,189.07,458.58Z"/>
          <path class="cls-3" d="M198.58,458.94a4.81,4.81,0,0,0-.77-.06,1.75,1.75,0,0,0-1.76,1v5.78h-1.89v-8.45H196l0,.94a2.16,2.16,0,0,1,1.91-1.1,1.8,1.8,0,0,1,.67.11Z"/>
          <path class="cls-3" d="M204.52,463.36a.87.87,0,0,0-.42-.77,4.4,4.4,0,0,0-1.38-.47,6.74,6.74,0,0,1-1.62-.51,2.16,2.16,0,0,1-1.42-2,2.26,2.26,0,0,1,.92-1.82,3.64,3.64,0,0,1,2.34-.74,3.79,3.79,0,0,1,2.45.75,2.37,2.37,0,0,1,.94,1.95h-1.9a1.16,1.16,0,0,0-.41-.91,1.52,1.52,0,0,0-1.08-.37,1.73,1.73,0,0,0-1,.29.93.93,0,0,0-.39.78.77.77,0,0,0,.37.68,5,5,0,0,0,1.48.48,7.18,7.18,0,0,1,1.76.59,2.47,2.47,0,0,1,.94.82,2,2,0,0,1,.31,1.15,2.21,2.21,0,0,1-.95,1.85,4,4,0,0,1-2.47.71,4.34,4.34,0,0,1-1.85-.38,3,3,0,0,1-1.27-1,2.46,2.46,0,0,1-.45-1.41h1.84a1.34,1.34,0,0,0,.51,1,2,2,0,0,0,1.24.37,1.92,1.92,0,0,0,1.14-.29A.89.89,0,0,0,204.52,463.36Z"/>
          <path class="cls-3" d="M209.91,458.13a3,3,0,0,1,2.35-1.08c1.81,0,2.72,1,2.75,3.09v5.52h-1.9v-5.45a1.67,1.67,0,0,0-.38-1.24,1.54,1.54,0,0,0-1.11-.36,1.85,1.85,0,0,0-1.71,1v6H208v-12h1.9Z"/>
          <path class="cls-3" d="M216.93,455a1,1,0,0,1,.28-.72A1,1,0,0,1,218,454a1.05,1.05,0,0,1,.8.29,1.07,1.07,0,0,1,0,1.44,1.08,1.08,0,0,1-.8.28,1,1,0,0,1-.79-.28A1,1,0,0,1,216.93,455Zm2,10.65h-1.89v-8.45h1.89Z"/>
          <path class="cls-3" d="M228.41,461.52a5,5,0,0,1-.89,3.13,3.08,3.08,0,0,1-4.61.25v4H221v-11.7h1.75l.07.86a2.8,2.8,0,0,1,2.28-1,2.88,2.88,0,0,1,2.42,1.15,5.16,5.16,0,0,1,.88,3.2Zm-1.89-.16a3.56,3.56,0,0,0-.5-2,1.63,1.63,0,0,0-1.44-.74,1.73,1.73,0,0,0-1.67,1v3.75a1.76,1.76,0,0,0,1.68,1,1.62,1.62,0,0,0,1.42-.73A3.88,3.88,0,0,0,226.52,461.36Z"/>
        </g>
        <g>
          <path class="cls-3" d="M347.23,442.76a4.1,4.1,0,0,1-1.34,2.84,4.58,4.58,0,0,1-3.12,1,4.39,4.39,0,0,1-2.39-.65,4.15,4.15,0,0,1-1.6-1.83,6.6,6.6,0,0,1-.59-2.76v-1.06a6.7,6.7,0,0,1,.57-2.84,4.39,4.39,0,0,1,1.64-1.89,4.57,4.57,0,0,1,2.46-.66,4.37,4.37,0,0,1,3,1,4.22,4.22,0,0,1,1.34,2.89h-2a2.79,2.79,0,0,0-.71-1.77,2.4,2.4,0,0,0-1.69-.55,2.31,2.31,0,0,0-2,1,4.69,4.69,0,0,0-.7,2.76v1a5,5,0,0,0,.66,2.81,2.18,2.18,0,0,0,1.93,1,2.56,2.56,0,0,0,1.75-.52,2.71,2.71,0,0,0,.74-1.74Z"/>
          <path class="cls-3" d="M348.46,442.16a5,5,0,0,1,.49-2.24,3.55,3.55,0,0,1,1.38-1.53,3.9,3.9,0,0,1,2.05-.54,3.71,3.71,0,0,1,2.78,1.1,4.37,4.37,0,0,1,1.15,2.93v.44a5,5,0,0,1-.48,2.23,3.54,3.54,0,0,1-1.38,1.53,3.92,3.92,0,0,1-2.07.54,3.68,3.68,0,0,1-2.86-1.19,4.57,4.57,0,0,1-1.07-3.18Zm1.9.16a3.46,3.46,0,0,0,.53,2,1.88,1.88,0,0,0,3,0,3.73,3.73,0,0,0,.54-2.19,3.43,3.43,0,0,0-.55-2,1.88,1.88,0,0,0-3,0A3.75,3.75,0,0,0,350.36,442.32Z"/>
          <path class="cls-3" d="M362.35,439.74a4.93,4.93,0,0,0-.78-.06,1.72,1.72,0,0,0-1.75,1v5.78h-1.9V438h1.81l0,.94a2.14,2.14,0,0,1,1.9-1.1,1.9,1.9,0,0,1,.68.11Z"/>
          <path class="cls-3" d="M367.27,446.62a3.94,3.94,0,0,1-2.93-1.14,4.16,4.16,0,0,1-1.12-3v-.23a5,5,0,0,1,.49-2.26,3.7,3.7,0,0,1,1.37-1.55,3.64,3.64,0,0,1,2-.56,3.34,3.34,0,0,1,2.67,1.1,4.67,4.67,0,0,1,.94,3.12v.77h-5.52a2.49,2.49,0,0,0,.7,1.65,2.06,2.06,0,0,0,1.54.61,2.56,2.56,0,0,0,2.12-1.05l1,1a3.39,3.39,0,0,1-1.36,1.18A4.21,4.21,0,0,1,367.27,446.62Zm-.23-7.24a1.61,1.61,0,0,0-1.26.54,2.86,2.86,0,0,0-.61,1.53h3.62v-.15a2.42,2.42,0,0,0-.51-1.44A1.61,1.61,0,0,0,367,439.38Z"/>
          <path class="cls-3" d="M383.52,442.32a5.06,5.06,0,0,1-.89,3.13,2.84,2.84,0,0,1-2.39,1.17,2.88,2.88,0,0,1-2.23-.92v4h-1.9V438h1.75l.08.86a2.79,2.79,0,0,1,2.27-1,2.9,2.9,0,0,1,2.43,1.15,5.16,5.16,0,0,1,.88,3.2Zm-1.89-.16a3.56,3.56,0,0,0-.5-2,1.64,1.64,0,0,0-1.45-.74,1.75,1.75,0,0,0-1.67,1v3.75a1.78,1.78,0,0,0,1.69,1,1.64,1.64,0,0,0,1.42-.73A3.88,3.88,0,0,0,381.63,442.16Z"/>
          <path class="cls-3" d="M389.55,439.74a4.9,4.9,0,0,0-.77-.06,1.74,1.74,0,0,0-1.76,1v5.78h-1.9V438h1.81l.05.94a2.15,2.15,0,0,1,1.91-1.1,1.84,1.84,0,0,1,.67.11Z"/>
          <path class="cls-3" d="M390.11,442.16a5,5,0,0,1,.5-2.24,3.43,3.43,0,0,1,1.38-1.53,3.85,3.85,0,0,1,2.05-.54,3.69,3.69,0,0,1,2.77,1.1,4.32,4.32,0,0,1,1.15,2.93v.44a5,5,0,0,1-.48,2.23,3.58,3.58,0,0,1-1.37,1.53,3.94,3.94,0,0,1-2.07.54,3.67,3.67,0,0,1-2.86-1.19,4.57,4.57,0,0,1-1.08-3.18Zm1.9.16a3.39,3.39,0,0,0,.54,2,1.88,1.88,0,0,0,3,0,3.81,3.81,0,0,0,.53-2.19,3.36,3.36,0,0,0-.55-2,1.87,1.87,0,0,0-3,0A3.68,3.68,0,0,0,392,442.32Z"/>
          <path class="cls-3" d="M399.22,442.17a5,5,0,0,1,.91-3.13,2.9,2.9,0,0,1,2.43-1.19,2.75,2.75,0,0,1,2.17.94v-4.33h1.9v12h-1.72l-.09-.87a2.83,2.83,0,0,1-2.28,1,2.88,2.88,0,0,1-2.4-1.2A5.23,5.23,0,0,1,399.22,442.17Zm1.9.17a3.51,3.51,0,0,0,.5,2,1.61,1.61,0,0,0,1.41.72,1.8,1.8,0,0,0,1.7-1v-3.61a1.77,1.77,0,0,0-1.69-1,1.61,1.61,0,0,0-1.42.73A3.93,3.93,0,0,0,401.12,442.34Z"/>
          <path class="cls-3" d="M413.73,445.63a2.94,2.94,0,0,1-2.37,1,2.63,2.63,0,0,1-2.09-.81,3.42,3.42,0,0,1-.7-2.33V438h1.89v5.45c0,1.07.45,1.61,1.34,1.61a1.89,1.89,0,0,0,1.87-1V438h1.9v8.45h-1.79Z"/>
          <path class="cls-3" d="M421,445.1a1.73,1.73,0,0,0,1.18-.41,1.44,1.44,0,0,0,.5-1h1.79a2.78,2.78,0,0,1-.49,1.48,3.38,3.38,0,0,1-1.25,1.08,3.8,3.8,0,0,1-1.7.4,3.64,3.64,0,0,1-2.82-1.15,4.57,4.57,0,0,1-1-3.17v-.2a4.49,4.49,0,0,1,1-3.09,3.56,3.56,0,0,1,2.81-1.16,3.48,3.48,0,0,1,2.46.88,3.16,3.16,0,0,1,1,2.31h-1.79a1.74,1.74,0,0,0-.49-1.2,1.61,1.61,0,0,0-1.19-.46,1.68,1.68,0,0,0-1.42.66,3.48,3.48,0,0,0-.51,2v.31a3.48,3.48,0,0,0,.5,2.05A1.66,1.66,0,0,0,421,445.1Z"/>
          <path class="cls-3" d="M428.25,436V438h1.5v1.4h-1.5v4.72a1,1,0,0,0,.2.7.84.84,0,0,0,.68.22,3,3,0,0,0,.66-.08v1.47a4.66,4.66,0,0,1-1.25.18c-1.46,0-2.18-.81-2.18-2.42v-4.79H425V438h1.4V436Z"/>
          <path class="cls-3" d="M434.82,442.16a5,5,0,0,1,.5-2.24,3.49,3.49,0,0,1,1.38-1.53,3.85,3.85,0,0,1,2.05-.54,3.69,3.69,0,0,1,2.77,1.1,4.37,4.37,0,0,1,1.16,2.93v.44a5,5,0,0,1-.48,2.23,3.58,3.58,0,0,1-1.37,1.53,3.94,3.94,0,0,1-2.07.54,3.67,3.67,0,0,1-2.86-1.19,4.57,4.57,0,0,1-1.08-3.18Zm1.9.16a3.39,3.39,0,0,0,.54,2,1.88,1.88,0,0,0,3,0,3.81,3.81,0,0,0,.53-2.19,3.36,3.36,0,0,0-.55-2,1.87,1.87,0,0,0-3,0A3.68,3.68,0,0,0,436.72,442.32Z"/>
          <path class="cls-3" d="M448.71,439.74a4.81,4.81,0,0,0-.77-.06,1.75,1.75,0,0,0-1.76,1v5.78h-1.89V438h1.81l0,.94a2.16,2.16,0,0,1,1.91-1.1,1.84,1.84,0,0,1,.67.11Z"/>
          <path class="cls-3" d="M458.64,444.16a.87.87,0,0,0-.42-.77,4.48,4.48,0,0,0-1.39-.47,7,7,0,0,1-1.62-.51,2.18,2.18,0,0,1-1.42-2,2.26,2.26,0,0,1,.92-1.82,3.67,3.67,0,0,1,2.35-.74,3.81,3.81,0,0,1,2.45.75,2.39,2.39,0,0,1,.93,1.95h-1.9a1.16,1.16,0,0,0-.4-.91,1.52,1.52,0,0,0-1.08-.37,1.69,1.69,0,0,0-1,.29.94.94,0,0,0-.4.78.8.8,0,0,0,.37.68,5.08,5.08,0,0,0,1.49.48,7.08,7.08,0,0,1,1.75.59,2.59,2.59,0,0,1,.95.82,2.09,2.09,0,0,1,.3,1.15,2.2,2.2,0,0,1-.94,1.85,4.05,4.05,0,0,1-2.48.71,4.37,4.37,0,0,1-1.85-.38,3.1,3.1,0,0,1-1.27-1,2.46,2.46,0,0,1-.45-1.41h1.85a1.3,1.3,0,0,0,.5,1,2,2,0,0,0,1.25.37,1.92,1.92,0,0,0,1.14-.29A.89.89,0,0,0,458.64,444.16Z"/>
          <path class="cls-3" d="M465.88,446.62a3.94,3.94,0,0,1-2.93-1.14,4.16,4.16,0,0,1-1.12-3v-.23a5,5,0,0,1,.49-2.26,3.7,3.7,0,0,1,1.37-1.55,3.64,3.64,0,0,1,2-.56,3.34,3.34,0,0,1,2.67,1.1,4.67,4.67,0,0,1,.94,3.12v.77h-5.52a2.49,2.49,0,0,0,.7,1.65,2.06,2.06,0,0,0,1.54.61,2.56,2.56,0,0,0,2.12-1.05l1,1a3.39,3.39,0,0,1-1.36,1.18A4.21,4.21,0,0,1,465.88,446.62Zm-.23-7.24a1.61,1.61,0,0,0-1.26.54,2.86,2.86,0,0,0-.61,1.53h3.61v-.15a2.36,2.36,0,0,0-.5-1.44A1.61,1.61,0,0,0,465.65,439.38Z"/>
          <path class="cls-3" d="M475.17,439.74a4.93,4.93,0,0,0-.78-.06,1.72,1.72,0,0,0-1.75,1v5.78h-1.9V438h1.81l.05.94a2.14,2.14,0,0,1,1.9-1.1,1.9,1.9,0,0,1,.68.11Z"/>
          <path class="cls-3" d="M479.49,444.05l1.79-6h2l-2.93,8.45h-1.65l-3-8.45h2Z"/>
          <path class="cls-3" d="M484.43,435.81a1,1,0,0,1,.27-.72,1,1,0,0,1,.8-.29,1,1,0,0,1,.79.29,1.07,1.07,0,0,1,0,1.44,1,1,0,0,1-.79.28,1.07,1.07,0,0,1-.8-.28A1,1,0,0,1,484.43,435.81Zm2,10.65h-1.9V438h1.9Z"/>
          <path class="cls-3" d="M492,445.1a1.75,1.75,0,0,0,1.18-.41,1.44,1.44,0,0,0,.5-1h1.79a2.87,2.87,0,0,1-.49,1.48,3.38,3.38,0,0,1-1.25,1.08,3.84,3.84,0,0,1-1.71.4,3.62,3.62,0,0,1-2.81-1.15,4.57,4.57,0,0,1-1-3.17v-.2a4.54,4.54,0,0,1,1-3.09,3.6,3.6,0,0,1,2.82-1.16,3.44,3.44,0,0,1,2.45.88,3.13,3.13,0,0,1,1,2.31h-1.79a1.75,1.75,0,0,0-.5-1.2,1.59,1.59,0,0,0-1.18-.46,1.68,1.68,0,0,0-1.42.66,3.41,3.41,0,0,0-.51,2v.31a3.48,3.48,0,0,0,.5,2.05A1.66,1.66,0,0,0,492,445.1Z"/>
          <path class="cls-3" d="M500.61,446.62a3.92,3.92,0,0,1-2.93-1.14,4.12,4.12,0,0,1-1.12-3v-.23a5,5,0,0,1,.49-2.26,3.66,3.66,0,0,1,3.34-2.11,3.3,3.3,0,0,1,2.66,1.1,4.67,4.67,0,0,1,.95,3.12v.77h-5.53a2.53,2.53,0,0,0,.7,1.65,2.08,2.08,0,0,0,1.54.61,2.59,2.59,0,0,0,2.13-1.05l1,1a3.43,3.43,0,0,1-1.35,1.18A4.24,4.24,0,0,1,500.61,446.62Zm-.23-7.24a1.61,1.61,0,0,0-1.26.54,2.86,2.86,0,0,0-.62,1.53h3.62v-.15a2.3,2.3,0,0,0-.51-1.44A1.59,1.59,0,0,0,500.38,439.38Z"/>
        </g>
        <g>
          <path class="cls-3" d="M343.33,542a4.11,4.11,0,0,1-1.35,2.84,4.57,4.57,0,0,1-3.11,1,4.44,4.44,0,0,1-2.4-.64,4.16,4.16,0,0,1-1.59-1.84,6.43,6.43,0,0,1-.59-2.75v-1.07a6.62,6.62,0,0,1,.57-2.83,4.28,4.28,0,0,1,1.64-1.89,4.49,4.49,0,0,1,2.46-.67,4.37,4.37,0,0,1,3,1,4.26,4.26,0,0,1,1.34,2.89h-2a2.74,2.74,0,0,0-.72-1.77,2.36,2.36,0,0,0-1.68-.54,2.3,2.3,0,0,0-2,.94,4.71,4.71,0,0,0-.71,2.76v1a5,5,0,0,0,.66,2.82,2.22,2.22,0,0,0,1.94,1,2.56,2.56,0,0,0,1.75-.53,2.77,2.77,0,0,0,.74-1.74Z"/>
          <path class="cls-3" d="M346.93,545.67H345v-12h1.9Z"/>
          <path class="cls-3" d="M352.72,545.83a3.94,3.94,0,0,1-2.93-1.14,4.08,4.08,0,0,1-1.12-3v-.24a5,5,0,0,1,.49-2.26,3.76,3.76,0,0,1,1.37-1.55,3.64,3.64,0,0,1,2-.56,3.31,3.31,0,0,1,2.67,1.11,4.68,4.68,0,0,1,.94,3.11v.77h-5.52a2.51,2.51,0,0,0,.7,1.66,2.1,2.1,0,0,0,1.54.6,2.56,2.56,0,0,0,2.12-1l1,1a3.45,3.45,0,0,1-1.36,1.17A4.21,4.21,0,0,1,352.72,545.83Zm-.23-7.24a1.61,1.61,0,0,0-1.26.54,2.89,2.89,0,0,0-.61,1.53h3.61v-.14a2.31,2.31,0,0,0-.5-1.44A1.58,1.58,0,0,0,352.49,538.59Z"/>
          <path class="cls-3" d="M362.63,545.67a3.3,3.3,0,0,1-.22-.79,3.17,3.17,0,0,1-4.29.22,2.3,2.3,0,0,1-.81-1.79,2.41,2.41,0,0,1,1-2.08,4.87,4.87,0,0,1,2.87-.72h1.16V540a1.49,1.49,0,0,0-.37-1.06,1.44,1.44,0,0,0-1.11-.39,1.72,1.72,0,0,0-1.07.32,1,1,0,0,0-.41.83h-1.9a2.13,2.13,0,0,1,.46-1.3,3.05,3.05,0,0,1,1.26-1,4.4,4.4,0,0,1,1.77-.35,3.52,3.52,0,0,1,2.36.75,2.68,2.68,0,0,1,.91,2.1v3.81a4.37,4.37,0,0,0,.32,1.82v.13Zm-2.08-1.36a2.13,2.13,0,0,0,1.06-.28,1.8,1.8,0,0,0,.74-.73v-1.59h-1a2.88,2.88,0,0,0-1.59.36,1.2,1.2,0,0,0-.53,1,1.1,1.1,0,0,0,.36.87A1.42,1.42,0,0,0,360.55,544.31Z"/>
          <path class="cls-3" d="M370.66,539a3.87,3.87,0,0,0-.77-.07,1.75,1.75,0,0,0-1.76,1v5.78h-1.9v-8.45h1.82l0,.95a2.15,2.15,0,0,1,1.91-1.11,1.84,1.84,0,0,1,.67.11Z"/>
          <path class="cls-3" d="M378.83,543.27l1.79-6h2l-2.93,8.45H378l-2.95-8.45h2Z"/>
          <path class="cls-3" d="M383.77,535a1,1,0,0,1,.27-.73,1.07,1.07,0,0,1,.8-.29,1,1,0,0,1,.79.29,1,1,0,0,1,.28.73,1,1,0,0,1-.28.71,1,1,0,0,1-.79.29,1.07,1.07,0,0,1-.8-.29A1,1,0,0,1,383.77,535Zm2,10.64h-1.9v-8.45h1.9Z"/>
          <path class="cls-3" d="M392.59,543.38a.87.87,0,0,0-.42-.78,4.77,4.77,0,0,0-1.39-.47,6.88,6.88,0,0,1-1.62-.51,2.17,2.17,0,0,1-1.42-2,2.26,2.26,0,0,1,.92-1.83,3.67,3.67,0,0,1,2.35-.74,3.81,3.81,0,0,1,2.45.75,2.39,2.39,0,0,1,.93,2h-1.9a1.17,1.17,0,0,0-.4-.91,1.58,1.58,0,0,0-1.08-.36,1.62,1.62,0,0,0-1,.29.89.89,0,0,0-.4.77.78.78,0,0,0,.37.68,5.33,5.33,0,0,0,1.49.49,7.27,7.27,0,0,1,1.75.58,2.47,2.47,0,0,1,.94.82,2.05,2.05,0,0,1,.31,1.16,2.18,2.18,0,0,1-.94,1.84,4.05,4.05,0,0,1-2.48.71,4.37,4.37,0,0,1-1.85-.37,3.12,3.12,0,0,1-1.27-1,2.44,2.44,0,0,1-.45-1.41h1.84a1.34,1.34,0,0,0,.51,1,2,2,0,0,0,1.24.37,2,2,0,0,0,1.15-.29A.88.88,0,0,0,392.59,543.38Z"/>
          <path class="cls-3" d="M396.11,535a1,1,0,0,1,.28-.73,1,1,0,0,1,.79-.29,1.09,1.09,0,0,1,.8.29,1,1,0,0,1,.28.73,1,1,0,0,1-.28.71,1.09,1.09,0,0,1-.8.29,1,1,0,0,1-.79-.29A1,1,0,0,1,396.11,535Zm2,10.64h-1.9v-8.45h1.9Z"/>
          <path class="cls-3" d="M399.84,541.37a5,5,0,0,1,.49-2.24,3.66,3.66,0,0,1,1.38-1.53,3.87,3.87,0,0,1,2.05-.54,3.7,3.7,0,0,1,2.78,1.11,4.32,4.32,0,0,1,1.15,2.92v.44a4.92,4.92,0,0,1-.49,2.24,3.55,3.55,0,0,1-1.37,1.52,3.94,3.94,0,0,1-2.07.54,3.68,3.68,0,0,1-2.86-1.19,4.55,4.55,0,0,1-1.07-3.18Zm1.89.16a3.44,3.44,0,0,0,.54,2.05,1.89,1.89,0,0,0,3,0,3.73,3.73,0,0,0,.53-2.19,3.33,3.33,0,0,0-.55-2,1.85,1.85,0,0,0-3,0A3.69,3.69,0,0,0,401.73,541.53Z"/>
          <path class="cls-3" d="M411.06,537.22l.06,1a3,3,0,0,1,2.46-1.14c1.76,0,2.65,1,2.69,3v5.58h-1.9V540.2A1.73,1.73,0,0,0,414,539a1.45,1.45,0,0,0-1.14-.39,1.84,1.84,0,0,0-1.71,1v6h-1.9v-8.45Z"/>
          <path class="cls-3" d="M427.23,545.67a3,3,0,0,1-.21-.79,3.19,3.19,0,0,1-4.3.22,2.3,2.3,0,0,1-.81-1.79,2.41,2.41,0,0,1,1-2.08,4.87,4.87,0,0,1,2.87-.72H427V540a1.53,1.53,0,0,0-.36-1.06,1.48,1.48,0,0,0-1.12-.39,1.69,1.69,0,0,0-1.06.32,1,1,0,0,0-.42.83h-1.9a2.13,2.13,0,0,1,.46-1.3,3.05,3.05,0,0,1,1.26-1,4.4,4.4,0,0,1,1.77-.35,3.54,3.54,0,0,1,2.37.75,2.68,2.68,0,0,1,.9,2.1v3.81a4.37,4.37,0,0,0,.32,1.82v.13Zm-2.08-1.36a2.1,2.1,0,0,0,1.06-.28,1.74,1.74,0,0,0,.74-.73v-1.59h-1a2.88,2.88,0,0,0-1.59.36,1.2,1.2,0,0,0-.53,1,1.07,1.07,0,0,0,.37.87A1.37,1.37,0,0,0,425.15,544.31Z"/>
          <path class="cls-3" d="M432.6,537.22l.06,1a3,3,0,0,1,2.46-1.14c1.76,0,2.65,1,2.68,3v5.58h-1.89V540.2a1.73,1.73,0,0,0-.35-1.19,1.45,1.45,0,0,0-1.14-.39,1.84,1.84,0,0,0-1.71,1v6h-1.9v-8.45Z"/>
          <path class="cls-3" d="M439.38,541.38a5,5,0,0,1,.91-3.13,2.9,2.9,0,0,1,2.43-1.19,2.78,2.78,0,0,1,2.17.94v-4.33h1.9v12h-1.72l-.09-.87a2.8,2.8,0,0,1-2.28,1,2.88,2.88,0,0,1-2.4-1.2A5.21,5.21,0,0,1,439.38,541.38Zm1.9.17a3.51,3.51,0,0,0,.5,2,1.61,1.61,0,0,0,1.41.72,1.78,1.78,0,0,0,1.7-1v-3.61a1.77,1.77,0,0,0-1.69-1,1.61,1.61,0,0,0-1.42.73A4,4,0,0,0,441.28,541.55Z"/>
          <path class="cls-3" d="M454.54,537.22l0,.88a3.07,3.07,0,0,1,2.44-1,2.35,2.35,0,0,1,2.32,1.3,3,3,0,0,1,2.6-1.3,2.63,2.63,0,0,1,2.08.78,3.41,3.41,0,0,1,.7,2.28v5.55h-1.9v-5.5a1.71,1.71,0,0,0-.35-1.18,1.56,1.56,0,0,0-1.17-.37,1.61,1.61,0,0,0-1.06.35,1.82,1.82,0,0,0-.57.91v5.79h-1.9v-5.56a1.36,1.36,0,0,0-1.52-1.49,1.67,1.67,0,0,0-1.62.93v6.12h-1.9v-8.45Z"/>
          <path class="cls-3" d="M466.68,535a1,1,0,0,1,.28-.73,1,1,0,0,1,.79-.29,1.09,1.09,0,0,1,.8.29,1,1,0,0,1,.28.73,1,1,0,0,1-.28.71,1.09,1.09,0,0,1-.8.29,1,1,0,0,1-.79-.29A1,1,0,0,1,466.68,535Zm2,10.64h-1.9v-8.45h1.9Z"/>
          <path class="cls-3" d="M475.5,543.38a.87.87,0,0,0-.42-.78,4.79,4.79,0,0,0-1.38-.47,6.74,6.74,0,0,1-1.62-.51,2.15,2.15,0,0,1-1.42-2,2.24,2.24,0,0,1,.92-1.83,3.62,3.62,0,0,1,2.34-.74,3.79,3.79,0,0,1,2.45.75,2.39,2.39,0,0,1,.93,2h-1.89a1.18,1.18,0,0,0-.41-.91,1.57,1.57,0,0,0-1.08-.36,1.64,1.64,0,0,0-1,.29.91.91,0,0,0-.39.77.76.76,0,0,0,.37.68,5.11,5.11,0,0,0,1.48.49,7.12,7.12,0,0,1,1.75.58,2.51,2.51,0,0,1,.95.82,2.13,2.13,0,0,1,.31,1.16,2.19,2.19,0,0,1-.95,1.84,4,4,0,0,1-2.47.71,4.38,4.38,0,0,1-1.86-.37,3,3,0,0,1-1.26-1,2.44,2.44,0,0,1-.45-1.41h1.84a1.28,1.28,0,0,0,.51,1,2.32,2.32,0,0,0,2.38.08A.88.88,0,0,0,475.5,543.38Z"/>
          <path class="cls-3" d="M483.76,543.38a.87.87,0,0,0-.42-.78,4.77,4.77,0,0,0-1.39-.47,6.79,6.79,0,0,1-1.61-.51,2.16,2.16,0,0,1-1.43-2,2.25,2.25,0,0,1,.93-1.83,3.62,3.62,0,0,1,2.34-.74,3.79,3.79,0,0,1,2.45.75,2.39,2.39,0,0,1,.93,2h-1.9a1.17,1.17,0,0,0-.4-.91,1.57,1.57,0,0,0-1.08-.36,1.62,1.62,0,0,0-1,.29.91.91,0,0,0-.39.77.77.77,0,0,0,.36.68,5.33,5.33,0,0,0,1.49.49,7.12,7.12,0,0,1,1.75.58,2.59,2.59,0,0,1,.95.82,2.13,2.13,0,0,1,.31,1.16,2.19,2.19,0,0,1-.95,1.84,4.05,4.05,0,0,1-2.48.71,4.37,4.37,0,0,1-1.85-.37,3,3,0,0,1-1.26-1,2.38,2.38,0,0,1-.46-1.41h1.85a1.3,1.3,0,0,0,.5,1,2,2,0,0,0,1.25.37,1.92,1.92,0,0,0,1.14-.29A.88.88,0,0,0,483.76,543.38Z"/>
          <path class="cls-3" d="M487.28,535a1,1,0,0,1,.28-.73,1,1,0,0,1,.79-.29,1.07,1.07,0,0,1,.8.29,1,1,0,0,1,.28.73,1,1,0,0,1-.28.71,1.07,1.07,0,0,1-.8.29,1,1,0,0,1-.79-.29A1,1,0,0,1,487.28,535Zm2,10.64h-1.9v-8.45h1.9Z"/>
          <path class="cls-3" d="M491,541.37a5,5,0,0,1,.49-2.24,3.66,3.66,0,0,1,1.38-1.53,3.9,3.9,0,0,1,2.05-.54,3.68,3.68,0,0,1,2.78,1.11,4.32,4.32,0,0,1,1.15,2.92v.44a5,5,0,0,1-.48,2.24,3.57,3.57,0,0,1-1.38,1.52,3.88,3.88,0,0,1-2.06.54,3.69,3.69,0,0,1-2.87-1.19,4.6,4.6,0,0,1-1.07-3.18Zm1.9.16a3.44,3.44,0,0,0,.54,2.05,1.88,1.88,0,0,0,3,0,3.73,3.73,0,0,0,.54-2.19,3.4,3.4,0,0,0-.55-2,1.77,1.77,0,0,0-1.5-.75,1.74,1.74,0,0,0-1.48.74A3.7,3.7,0,0,0,492.91,541.53Z"/>
          <path class="cls-3" d="M502.23,537.22l.06,1a3,3,0,0,1,2.46-1.14c1.76,0,2.66,1,2.69,3v5.58h-1.9V540.2a1.73,1.73,0,0,0-.35-1.19,1.45,1.45,0,0,0-1.14-.39,1.84,1.84,0,0,0-1.71,1v6h-1.89v-8.45Z"/>
        </g>
        <g>
          <path class="cls-3" d="M623.37,443.81H619l-.92,2.65H616l4.3-11.37h1.77l4.31,11.37H624.3Zm-3.85-1.59h3.29l-1.65-4.72Z"/>
          <path class="cls-3" d="M627.11,442.17A5,5,0,0,1,628,439a2.9,2.9,0,0,1,2.43-1.19,2.75,2.75,0,0,1,2.17.94v-4.33h1.9v12H632.8l-.1-.87a2.8,2.8,0,0,1-2.27,1,2.88,2.88,0,0,1-2.4-1.2A5.23,5.23,0,0,1,627.11,442.17Zm1.9.17a3.51,3.51,0,0,0,.49,2,1.61,1.61,0,0,0,1.41.72,1.8,1.8,0,0,0,1.71-1v-3.61a1.77,1.77,0,0,0-1.69-1,1.61,1.61,0,0,0-1.42.73A3.85,3.85,0,0,0,629,442.34Z"/>
          <path class="cls-3" d="M640.22,446.62a3.94,3.94,0,0,1-2.93-1.14,4.16,4.16,0,0,1-1.12-3v-.23a5,5,0,0,1,.49-2.26,3.7,3.7,0,0,1,1.37-1.55,3.64,3.64,0,0,1,2-.56,3.34,3.34,0,0,1,2.67,1.1,4.67,4.67,0,0,1,.94,3.12v.77h-5.52a2.49,2.49,0,0,0,.7,1.65,2.06,2.06,0,0,0,1.54.61,2.56,2.56,0,0,0,2.12-1.05l1,1a3.39,3.39,0,0,1-1.36,1.18A4.21,4.21,0,0,1,640.22,446.62Zm-.23-7.24a1.61,1.61,0,0,0-1.26.54,2.86,2.86,0,0,0-.61,1.53h3.61v-.15a2.36,2.36,0,0,0-.5-1.44A1.61,1.61,0,0,0,640,439.38Z"/>
          <path class="cls-3" d="M644.73,442.16a5,5,0,0,1,.9-3.14,3,3,0,0,1,2.46-1.17,2.77,2.77,0,0,1,2.24,1l.11-.83h1.69v11.7h-1.9v-4a2.83,2.83,0,0,1-2.16.88,2.92,2.92,0,0,1-2.43-1.19A5.23,5.23,0,0,1,644.73,442.16Zm1.9.17a3.52,3.52,0,0,0,.51,2,1.61,1.61,0,0,0,1.41.74,1.82,1.82,0,0,0,1.68-1V440.3a1.8,1.8,0,0,0-1.66-.92,1.68,1.68,0,0,0-1.43.72A3.93,3.93,0,0,0,646.63,442.33Z"/>
          <path class="cls-3" d="M659.29,445.63a3,3,0,0,1-2.38,1,2.62,2.62,0,0,1-2.08-.81,3.42,3.42,0,0,1-.7-2.33V438H656v5.45c0,1.07.45,1.61,1.34,1.61a1.89,1.89,0,0,0,1.87-1V438h1.9v8.45h-1.79Z"/>
          <path class="cls-3" d="M668.11,446.46a2.88,2.88,0,0,1-.22-.79,3.19,3.19,0,0,1-4.3.22,2.33,2.33,0,0,1-.8-1.8,2.39,2.39,0,0,1,1-2.07,4.89,4.89,0,0,1,2.87-.72h1.17v-.56a1.33,1.33,0,0,0-1.49-1.44,1.71,1.71,0,0,0-1.06.32,1,1,0,0,0-.41.83H663a2.11,2.11,0,0,1,.46-1.31,3.07,3.07,0,0,1,1.25-.94,4.4,4.4,0,0,1,1.77-.35,3.54,3.54,0,0,1,2.37.75,2.67,2.67,0,0,1,.91,2.1v3.81a4.21,4.21,0,0,0,.32,1.82v.13ZM666,445.09a2.17,2.17,0,0,0,1.06-.27,1.88,1.88,0,0,0,.75-.73v-1.6h-1a2.81,2.81,0,0,0-1.58.37,1.17,1.17,0,0,0-.53,1,1.12,1.12,0,0,0,.36.87A1.39,1.39,0,0,0,666,445.09Z"/>
          <path class="cls-3" d="M674.09,436V438h1.5v1.4h-1.5v4.72a1,1,0,0,0,.2.7.84.84,0,0,0,.68.22,3,3,0,0,0,.66-.08v1.47a4.66,4.66,0,0,1-1.25.18c-1.46,0-2.18-.81-2.18-2.42v-4.79h-1.4V438h1.4V436Z"/>
          <path class="cls-3" d="M680.76,446.62a3.92,3.92,0,0,1-2.93-1.14,4.12,4.12,0,0,1-1.12-3v-.23a5,5,0,0,1,.49-2.26,3.66,3.66,0,0,1,3.34-2.11,3.34,3.34,0,0,1,2.67,1.1,4.72,4.72,0,0,1,.94,3.12v.77h-5.52a2.53,2.53,0,0,0,.69,1.65,2.1,2.1,0,0,0,1.55.61,2.56,2.56,0,0,0,2.12-1.05l1,1a3.39,3.39,0,0,1-1.36,1.18A4.24,4.24,0,0,1,680.76,446.62Zm-.23-7.24a1.61,1.61,0,0,0-1.26.54,2.86,2.86,0,0,0-.61,1.53h3.61v-.15a2.36,2.36,0,0,0-.5-1.44A1.61,1.61,0,0,0,680.53,439.38Z"/>
          <path class="cls-3" d="M629.21,460.84h-4.58v4.82h-2V454.29h7.22v1.59h-5.25v3.38h4.58Z"/>
          <path class="cls-3" d="M636.21,464.83a2.94,2.94,0,0,1-2.37,1,2.64,2.64,0,0,1-2.09-.81,3.42,3.42,0,0,1-.7-2.33v-5.47H633v5.45c0,1.07.44,1.61,1.33,1.61a1.88,1.88,0,0,0,1.87-1v-6.07h1.9v8.45h-1.79Z"/>
          <path class="cls-3" d="M641.74,457.21l.06,1a3,3,0,0,1,2.46-1.13c1.76,0,2.65,1,2.69,3v5.58h-1.9v-5.48a1.76,1.76,0,0,0-.35-1.19,1.49,1.49,0,0,0-1.14-.38,1.83,1.83,0,0,0-1.71,1v6H640v-8.45Z"/>
          <path class="cls-3" d="M648.52,461.37a5,5,0,0,1,.91-3.13,2.9,2.9,0,0,1,2.43-1.19A2.75,2.75,0,0,1,654,458v-4.33h1.9v12h-1.72l-.09-.87a2.83,2.83,0,0,1-2.28,1,2.88,2.88,0,0,1-2.4-1.2A5.21,5.21,0,0,1,648.52,461.37Zm1.9.17a3.51,3.51,0,0,0,.5,2,1.61,1.61,0,0,0,1.41.72,1.8,1.8,0,0,0,1.7-1v-3.61a1.77,1.77,0,0,0-1.69-1,1.61,1.61,0,0,0-1.42.73A3.93,3.93,0,0,0,650.42,461.54Z"/>
          <path class="cls-3" d="M657.91,455a1,1,0,0,1,.28-.72,1.23,1.23,0,0,1,1.59,0,1.07,1.07,0,0,1,0,1.44,1.27,1.27,0,0,1-1.59,0A1,1,0,0,1,657.91,455Zm2,10.65H658v-8.45h1.9Z"/>
          <path class="cls-3" d="M663.76,457.21l0,1a3.06,3.06,0,0,1,2.46-1.13c1.76,0,2.66,1,2.69,3v5.58h-1.9v-5.48a1.71,1.71,0,0,0-.35-1.19,1.48,1.48,0,0,0-1.13-.38,1.81,1.81,0,0,0-1.71,1v6H662v-8.45Z"/>
          <path class="cls-3" d="M670.56,461.37a4.91,4.91,0,0,1,.93-3.14,3,3,0,0,1,2.46-1.18,2.79,2.79,0,0,1,2.27,1l.08-.85H678v8.19a3.42,3.42,0,0,1-1,2.63,3.94,3.94,0,0,1-2.79,1,4.48,4.48,0,0,1-1.82-.39,3.25,3.25,0,0,1-1.35-1l.9-1.14a2.72,2.72,0,0,0,2.16,1,2.09,2.09,0,0,0,1.49-.51,2,2,0,0,0,.55-1.51v-.57a2.81,2.81,0,0,1-2.19.92,3,3,0,0,1-2.43-1.18A5.17,5.17,0,0,1,670.56,461.37Zm1.89.17a3.44,3.44,0,0,0,.52,2,1.67,1.67,0,0,0,1.44.73,1.84,1.84,0,0,0,1.71-1v-3.72a1.8,1.8,0,0,0-1.69-1,1.67,1.67,0,0,0-1.46.74A3.85,3.85,0,0,0,672.45,461.54Z"/>
        </g>
      </g>
    </g>
  </g>
</svg>
