<svg xmlns="http://www.w3.org/2000/svg" width="297mm" height="140mm" viewBox="0 0 841.89 396.85">
  <defs>
    <style>
      .cls-1 {
        fill: #659b75;
      }

      .cls-2 {
        fill: #529267;
      }

      .cls-3, .cls-7 {
        fill: none;
        stroke-miterlimit: 10;
        stroke-width: 3px;
      }

      .cls-3 {
        stroke: #529267;
      }

      .cls-4 {
        fill: #e6bd69;
      }

      .cls-5 {
        fill: #d56761;
      }

      .cls-6 {
        fill: #daa147;
      }

      .cls-7 {
        stroke: #daa147;
      }
    </style>
  </defs>
  <title>pyramid2</title>
  <g id="Слой_2" data-name="Слой 2">
    <g id="Layer_4" data-name="Layer 4">
      <g>
        <rect class="cls-1" x="319.16" width="203.58" height="198.43"/>
        <g>
          <polygon class="cls-1" points="166.31 198.43 319.16 198.43 319.16 0 293.63 0 166.31 198.43"/>
          <polygon class="cls-1" points="140.31 198.43 140.31 198.43 210.47 99.21 140.31 198.43"/>
          <polygon class="cls-2" points="280.63 0 210.47 99.21 140.31 198.43 166.31 198.43 293.63 0 280.63 0"/>
        </g>
        <g>
          <polygon class="cls-1" points="675.58 198.43 522.73 198.43 522.73 0 548.26 0 675.58 198.43"/>
          <polygon class="cls-1" points="701.58 198.43 701.58 198.43 631.42 99.21 701.58 198.43"/>
          <polygon class="cls-2" points="561.26 0 631.42 99.21 701.58 198.43 675.58 198.43 548.26 0 561.26 0"/>
        </g>
        <line class="cls-3" x1="319.16" x2="319.16" y2="198.43"/>
        <line class="cls-3" x1="522.73" x2="522.73" y2="198.43"/>
      </g>
      <g>
        <polygon class="cls-4" points="739.23 297.64 675.58 198.43 561.26 198.43 280.63 198.43 166.31 198.43 102.66 297.64 39 396.85 280.63 396.85 561.26 396.85 802.89 396.85 739.23 297.64"/>
        <g>
          <polygon class="cls-5" points="140.31 198.43 70.16 297.64 70.16 297.64 140.31 198.43 140.31 198.43"/>
          <polygon class="cls-6" points="140.31 198.43 70.16 297.64 102.66 297.64 166.31 198.43 140.31 198.43"/>
          <polygon class="cls-5" points="701.58 198.43 771.73 297.64 771.73 297.64 701.58 198.43 701.58 198.43"/>
          <polygon class="cls-6" points="701.58 198.43 771.73 297.64 739.23 297.64 675.58 198.43 701.58 198.43"/>
          <line class="cls-7" x1="96.03" y1="297.64" x2="745.86" y2="297.64"/>
          <line class="cls-7" x1="280.63" y1="198.43" x2="280.63" y2="297.64"/>
          <line class="cls-7" x1="561.26" y1="198.43" x2="561.26" y2="297.64"/>
          <polygon class="cls-6" points="70.16 297.64 0 396.85 39 396.85 102.66 297.64 70.16 297.64"/>
          <polygon class="cls-6" points="771.73 297.64 841.89 396.85 802.89 396.85 739.23 297.64 771.73 297.64"/>
        </g>
      </g>
    </g>
  </g>
</svg>
