<svg xmlns="http://www.w3.org/2000/svg" width="297mm" height="140mm" viewBox="0 0 841.89 396.85">
  <defs>
    <style>
      .cls-1 {
        fill: #659b75;
      }

      .cls-2 {
        fill: #529267;
      }

      .cls-3, .cls-8 {
        fill: none;
        stroke-miterlimit: 10;
        stroke-width: 3px;
      }

      .cls-3 {
        stroke: #529267;
      }

      .cls-4 {
        fill: #fff;
      }

      .cls-5 {
        fill: #e6bd69;
      }

      .cls-6 {
        fill: #d56761;
      }

      .cls-7 {
        fill: #daa147;
      }

      .cls-8 {
        stroke: #daa147;
      }
    </style>
  </defs>
  <title>pyramid2_1</title>
  <g id="Слой_2" data-name="Слой 2">
    <g id="Layer_4" data-name="Layer 4">
      <g>
        <g>
          <rect class="cls-1" x="319.16" width="203.58" height="198.43"/>
          <g>
            <polygon class="cls-1" points="166.31 198.43 319.16 198.43 319.16 0 293.63 0 166.31 198.43"/>
            <polygon class="cls-1" points="140.31 198.43 140.31 198.43 210.47 99.21 140.31 198.43"/>
            <polygon class="cls-2" points="280.63 0 210.47 99.21 140.31 198.43 166.31 198.43 293.63 0 280.63 0"/>
          </g>
          <g>
            <polygon class="cls-1" points="675.58 198.43 522.73 198.43 522.73 0 548.26 0 675.58 198.43"/>
            <polygon class="cls-1" points="701.58 198.43 701.58 198.43 631.42 99.21 701.58 198.43"/>
            <polygon class="cls-2" points="561.26 0 631.42 99.21 701.58 198.43 675.58 198.43 548.26 0 561.26 0"/>
          </g>
          <line class="cls-3" x1="319.16" x2="319.16" y2="198.43"/>
          <line class="cls-3" x1="522.73" x2="522.73" y2="198.43"/>
        </g>
        <g>
          <path class="cls-4" d="M238.94,108.19h4.52v1.39h-6.25v-10h1.73Z"/>
          <path class="cls-4" d="M247.88,109.71a3.44,3.44,0,0,1-2.56-1,3.64,3.64,0,0,1-1-2.65v-.21a4.4,4.4,0,0,1,.43-2,3.2,3.2,0,0,1,1.19-1.35,3.14,3.14,0,0,1,1.73-.49,2.89,2.89,0,0,1,2.33,1,4.06,4.06,0,0,1,.83,2.72v.67H246a2.25,2.25,0,0,0,.61,1.45,1.83,1.83,0,0,0,1.35.54,2.22,2.22,0,0,0,1.86-.93l.9.86a3.06,3.06,0,0,1-1.19,1A3.74,3.74,0,0,1,247.88,109.71Zm-.2-6.33a1.39,1.39,0,0,0-1.1.47,2.53,2.53,0,0,0-.54,1.34h3.17v-.13a2.06,2.06,0,0,0-.45-1.26A1.4,1.4,0,0,0,247.68,103.38Z"/>
          <path class="cls-4" d="M254.65,107.47l1.57-5.29h1.71l-2.56,7.4h-1.44l-2.59-7.4h1.73Z"/>
          <path class="cls-4" d="M262.23,109.71a3.43,3.43,0,0,1-2.56-1,3.6,3.6,0,0,1-1-2.65v-.21a4.53,4.53,0,0,1,.42-2,3.29,3.29,0,0,1,1.2-1.35A3.14,3.14,0,0,1,262,102a2.89,2.89,0,0,1,2.33,1,4.05,4.05,0,0,1,.82,2.72v.67h-4.83a2.25,2.25,0,0,0,.61,1.45,1.83,1.83,0,0,0,1.35.54,2.25,2.25,0,0,0,1.86-.93l.9.86a3.06,3.06,0,0,1-1.19,1A3.74,3.74,0,0,1,262.23,109.71Zm-.2-6.33a1.37,1.37,0,0,0-1.1.47,2.53,2.53,0,0,0-.54,1.34h3.16v-.13a2,2,0,0,0-.44-1.26A1.4,1.4,0,0,0,262,103.38Z"/>
          <path class="cls-4" d="M270.36,103.7a3.82,3.82,0,0,0-.68-.06,1.52,1.52,0,0,0-1.54.88v5.06h-1.66v-7.4h1.59l0,.83a1.85,1.85,0,0,1,1.66-1,1.42,1.42,0,0,1,.59.1Z"/>
          <path class="cls-4" d="M275.62,109.58a2.69,2.69,0,0,1-.19-.7,2.57,2.57,0,0,1-1.94.83,2.62,2.62,0,0,1-1.82-.63,2.05,2.05,0,0,1-.71-1.58,2.1,2.1,0,0,1,.88-1.81,4.29,4.29,0,0,1,2.51-.63h1v-.49a1.15,1.15,0,0,0-1.3-1.26,1.49,1.49,0,0,0-.93.28.88.88,0,0,0-.36.72h-1.66a1.93,1.93,0,0,1,.4-1.14,2.74,2.74,0,0,1,1.1-.83,3.86,3.86,0,0,1,1.55-.3,3.11,3.11,0,0,1,2.07.65,2.31,2.31,0,0,1,.79,1.84v3.34a3.91,3.91,0,0,0,.28,1.59v.12Zm-1.83-1.2a1.9,1.9,0,0,0,.93-.24,1.54,1.54,0,0,0,.65-.64v-1.4h-.89a2.48,2.48,0,0,0-1.39.32,1,1,0,0,0-.46.91,1,1,0,0,0,.31.76A1.23,1.23,0,0,0,273.79,108.38Z"/>
          <path class="cls-4" d="M278.48,105.82a4.33,4.33,0,0,1,.81-2.75,2.59,2.59,0,0,1,2.15-1,2.45,2.45,0,0,1,2,.88l.08-.74H285v7.17a3,3,0,0,1-.9,2.3,3.44,3.44,0,0,1-2.44.84,4,4,0,0,1-1.59-.34,2.82,2.82,0,0,1-1.18-.89l.78-1a2.39,2.39,0,0,0,1.89.9,1.84,1.84,0,0,0,1.31-.44,1.76,1.76,0,0,0,.47-1.32v-.5a2.4,2.4,0,0,1-1.91.8,2.58,2.58,0,0,1-2.12-1A4.47,4.47,0,0,1,278.48,105.82Zm1.66.15a3,3,0,0,0,.45,1.75,1.47,1.47,0,0,0,1.26.64,1.6,1.6,0,0,0,1.49-.86v-3.26a1.56,1.56,0,0,0-1.47-.84,1.49,1.49,0,0,0-1.28.65A3.36,3.36,0,0,0,280.14,106Z"/>
          <path class="cls-4" d="M290,109.71a3.44,3.44,0,0,1-2.56-1,3.6,3.6,0,0,1-1-2.65v-.21a4.53,4.53,0,0,1,.42-2,3.29,3.29,0,0,1,1.2-1.35,3.14,3.14,0,0,1,1.73-.49,2.89,2.89,0,0,1,2.33,1,4.05,4.05,0,0,1,.82,2.72v.67H288.1a2.25,2.25,0,0,0,.61,1.45,1.83,1.83,0,0,0,1.35.54,2.25,2.25,0,0,0,1.86-.93l.9.86a3.06,3.06,0,0,1-1.19,1A3.74,3.74,0,0,1,290,109.71Zm-.2-6.33a1.37,1.37,0,0,0-1.1.47,2.53,2.53,0,0,0-.54,1.34h3.16v-.13a2,2,0,0,0-.44-1.26A1.4,1.4,0,0,0,289.77,103.38Z"/>
          <path class="cls-4" d="M293.91,105.82a4.37,4.37,0,0,1,.8-2.74,2.52,2.52,0,0,1,2.12-1,2.44,2.44,0,0,1,1.9.82V99.07h1.66v10.51h-1.5l-.08-.77a2.46,2.46,0,0,1-2,.9,2.52,2.52,0,0,1-2.1-1A4.55,4.55,0,0,1,293.91,105.82Zm1.66.15a3.09,3.09,0,0,0,.44,1.76,1.41,1.41,0,0,0,1.23.63,1.57,1.57,0,0,0,1.49-.91v-3.16a1.55,1.55,0,0,0-1.48-.89A1.43,1.43,0,0,0,296,104,3.46,3.46,0,0,0,295.57,106Z"/>
          <path class="cls-4" d="M237,117.18V119h1.3v1.23H237v4.13a.93.93,0,0,0,.16.61.77.77,0,0,0,.6.19,2.87,2.87,0,0,0,.58-.07v1.28a3.89,3.89,0,0,1-1.09.16c-1.28,0-1.91-.7-1.91-2.11v-4.19h-1.22V119h1.22v-1.8Z"/>
          <path class="cls-4" d="M242.84,126.51a3.43,3.43,0,0,1-2.56-1,3.6,3.6,0,0,1-1-2.65v-.21a4.5,4.5,0,0,1,.42-2,3.29,3.29,0,0,1,1.2-1.35,3.14,3.14,0,0,1,1.73-.49,2.89,2.89,0,0,1,2.33,1,4.05,4.05,0,0,1,.82,2.72v.67H241a2.25,2.25,0,0,0,.61,1.45,1.83,1.83,0,0,0,1.35.54,2.25,2.25,0,0,0,1.86-.93l.9.86a3.06,3.06,0,0,1-1.19,1A3.74,3.74,0,0,1,242.84,126.51Zm-.2-6.34a1.38,1.38,0,0,0-1.1.48A2.45,2.45,0,0,0,241,122h3.16v-.13a2,2,0,0,0-.44-1.26A1.41,1.41,0,0,0,242.64,120.17Z"/>
          <path class="cls-4" d="M250.13,125.19a1.49,1.49,0,0,0,1-.37,1.22,1.22,0,0,0,.44-.89h1.57a2.54,2.54,0,0,1-.43,1.29,2.81,2.81,0,0,1-1.1.94,3.46,3.46,0,0,1-3.95-.65,4,4,0,0,1-.91-2.78v-.17a3.9,3.9,0,0,1,.9-2.7,3.15,3.15,0,0,1,2.47-1,3,3,0,0,1,2.14.77,2.75,2.75,0,0,1,.88,2H251.6a1.52,1.52,0,0,0-.43-1,1.39,1.39,0,0,0-1-.42,1.45,1.45,0,0,0-1.24.59,3,3,0,0,0-.45,1.77v.27a3,3,0,0,0,.44,1.79A1.44,1.44,0,0,0,250.13,125.19Z"/>
          <path class="cls-4" d="M256.06,119.79a2.6,2.6,0,0,1,2.06-1q2.36,0,2.4,2.7v4.84h-1.67V121.6a1.45,1.45,0,0,0-.33-1.08,1.35,1.35,0,0,0-1-.32,1.6,1.6,0,0,0-1.49.89v5.29H254.4v-10.5h1.66Z"/>
          <path class="cls-4" d="M263.73,119l0,.85a2.68,2.68,0,0,1,2.16-1c1.54,0,2.32.88,2.35,2.65v4.89h-1.66v-4.8a1.54,1.54,0,0,0-.31-1,1.25,1.25,0,0,0-1-.34,1.6,1.6,0,0,0-1.5.91v5.27h-1.66V119Z"/>
          <path class="cls-4" d="M269.67,122.61a4.31,4.31,0,0,1,.43-2,3.15,3.15,0,0,1,1.21-1.34,3.44,3.44,0,0,1,1.79-.47,3.2,3.2,0,0,1,2.43,1,3.78,3.78,0,0,1,1,2.55v.39a4.44,4.44,0,0,1-.42,2,3.19,3.19,0,0,1-1.21,1.33,3.46,3.46,0,0,1-1.81.47,3.21,3.21,0,0,1-2.5-1,4,4,0,0,1-.94-2.78Zm1.66.14a3,3,0,0,0,.47,1.79,1.54,1.54,0,0,0,1.31.65,1.51,1.51,0,0,0,1.31-.66,3.32,3.32,0,0,0,.47-1.92,3,3,0,0,0-.48-1.78,1.62,1.62,0,0,0-2.6,0A3.21,3.21,0,0,0,271.33,122.75Z"/>
          <path class="cls-4" d="M279.72,126.38h-1.66v-10.5h1.66Z"/>
          <path class="cls-4" d="M281.21,122.61a4.31,4.31,0,0,1,.44-2,3.13,3.13,0,0,1,1.2-1.34,3.45,3.45,0,0,1,1.8-.47,3.23,3.23,0,0,1,2.43,1,3.78,3.78,0,0,1,1,2.55v.39a4.44,4.44,0,0,1-.42,2,3.1,3.1,0,0,1-1.2,1.33,3.49,3.49,0,0,1-1.81.47,3.24,3.24,0,0,1-2.51-1,4,4,0,0,1-.94-2.78Zm1.67.14a3,3,0,0,0,.47,1.79,1.53,1.53,0,0,0,1.31.65,1.51,1.51,0,0,0,1.31-.66,3.32,3.32,0,0,0,.47-1.92,3,3,0,0,0-.48-1.78,1.63,1.63,0,0,0-2.61,0A3.29,3.29,0,0,0,282.88,122.75Z"/>
          <path class="cls-4" d="M289.21,122.62a4.33,4.33,0,0,1,.81-2.75,2.58,2.58,0,0,1,2.15-1,2.44,2.44,0,0,1,2,.88l.08-.74h1.5v7.17a3,3,0,0,1-.91,2.3,3.44,3.44,0,0,1-2.44.84,4,4,0,0,1-1.59-.34,2.82,2.82,0,0,1-1.18-.89l.79-1a2.37,2.37,0,0,0,1.88.9,1.84,1.84,0,0,0,1.31-.44,1.72,1.72,0,0,0,.48-1.32v-.5a2.43,2.43,0,0,1-1.92.8,2.59,2.59,0,0,1-2.12-1A4.47,4.47,0,0,1,289.21,122.62Zm1.65.15a3,3,0,0,0,.45,1.75,1.47,1.47,0,0,0,1.27.64,1.61,1.61,0,0,0,1.49-.86V121a1.59,1.59,0,0,0-1.48-.84,1.49,1.49,0,0,0-1.28.65A3.36,3.36,0,0,0,290.86,122.77Z"/>
          <path class="cls-4" d="M300,124l1.5-5h1.77l-2.94,8.52a2.38,2.38,0,0,1-2.29,1.86,3,3,0,0,1-.8-.12V128l.31,0a1.64,1.64,0,0,0,.95-.23,1.5,1.5,0,0,0,.5-.77l.24-.63-2.6-7.36h1.79Z"/>
        </g>
        <g>
          <path class="cls-4" d="M385.29,106.34a3.61,3.61,0,0,1-1.18,2.48,4,4,0,0,1-2.73.89,3.91,3.91,0,0,1-2.09-.56,3.68,3.68,0,0,1-1.4-1.61,5.66,5.66,0,0,1-.51-2.41v-.93a5.72,5.72,0,0,1,.5-2.48,3.68,3.68,0,0,1,1.43-1.65,4,4,0,0,1,2.15-.59,3.84,3.84,0,0,1,2.66.9,3.7,3.7,0,0,1,1.17,2.52h-1.73a2.5,2.5,0,0,0-.62-1.55,2.12,2.12,0,0,0-1.48-.47,2,2,0,0,0-1.73.82,4.16,4.16,0,0,0-.62,2.42V105a4.34,4.34,0,0,0,.58,2.46,1.94,1.94,0,0,0,1.69.85,2.26,2.26,0,0,0,1.53-.46,2.39,2.39,0,0,0,.65-1.52Z"/>
          <path class="cls-4" d="M386.36,105.81a4.31,4.31,0,0,1,.43-2,3.15,3.15,0,0,1,1.21-1.34,3.44,3.44,0,0,1,1.79-.47,3.2,3.2,0,0,1,2.43,1,3.78,3.78,0,0,1,1,2.55V106a4.44,4.44,0,0,1-.42,2,3.12,3.12,0,0,1-1.21,1.33,3.46,3.46,0,0,1-1.81.47,3.21,3.21,0,0,1-2.5-1,4,4,0,0,1-.94-2.78ZM388,106a3,3,0,0,0,.47,1.79,1.54,1.54,0,0,0,1.31.65,1.51,1.51,0,0,0,1.31-.66,3.32,3.32,0,0,0,.47-1.92,3,3,0,0,0-.48-1.78,1.63,1.63,0,0,0-2.6,0A3.21,3.21,0,0,0,388,106Z"/>
          <path class="cls-4" d="M398.79,107.57a.76.76,0,0,0-.37-.68,3.79,3.79,0,0,0-1.21-.41,6.43,6.43,0,0,1-1.42-.45,1.89,1.89,0,0,1-1.24-1.75,2,2,0,0,1,.8-1.6,3.27,3.27,0,0,1,2.06-.64,3.31,3.31,0,0,1,2.14.66,2.09,2.09,0,0,1,.82,1.7H398.7a1,1,0,0,0-.35-.8,1.37,1.37,0,0,0-.94-.31,1.48,1.48,0,0,0-.9.25.79.79,0,0,0-.34.68.68.68,0,0,0,.32.59,4.63,4.63,0,0,0,1.3.43,5.91,5.91,0,0,1,1.53.51,2.27,2.27,0,0,1,.83.71,1.85,1.85,0,0,1,.27,1,1.93,1.93,0,0,1-.83,1.61,3.46,3.46,0,0,1-2.16.62,3.78,3.78,0,0,1-1.62-.33,2.56,2.56,0,0,1-1.11-.9,2.08,2.08,0,0,1-.4-1.24h1.62a1.16,1.16,0,0,0,.44.91,1.74,1.74,0,0,0,1.09.32,1.7,1.7,0,0,0,1-.25A.79.79,0,0,0,398.79,107.57Z"/>
          <path class="cls-4" d="M404,100.38v1.8h1.3v1.23H404v4.13a.87.87,0,0,0,.17.61.75.75,0,0,0,.59.19,2.87,2.87,0,0,0,.58-.07v1.28a3.84,3.84,0,0,1-1.09.16c-1.28,0-1.91-.7-1.91-2.11v-4.19h-1.22v-1.23h1.22v-1.8Z"/>
          <path class="cls-4" d="M409.74,106h-3.58v-1.34h3.58Z"/>
          <path class="cls-4" d="M414.37,109.71a3.46,3.46,0,0,1-2.56-1,3.64,3.64,0,0,1-1-2.65v-.21a4.4,4.4,0,0,1,.43-2,3.15,3.15,0,0,1,1.2-1.35,3.11,3.11,0,0,1,1.72-.49,2.89,2.89,0,0,1,2.34,1,4.11,4.11,0,0,1,.82,2.72v.67h-4.83a2.2,2.2,0,0,0,.61,1.45,1.83,1.83,0,0,0,1.35.54,2.25,2.25,0,0,0,1.86-.93l.89.86a3,3,0,0,1-1.18,1A3.79,3.79,0,0,1,414.37,109.71Zm-.2-6.33a1.39,1.39,0,0,0-1.1.47,2.53,2.53,0,0,0-.54,1.34h3.17v-.13a2.06,2.06,0,0,0-.45-1.26A1.4,1.4,0,0,0,414.17,103.38Z"/>
          <path class="cls-4" d="M419.21,109.58v-6.17h-1.13v-1.23h1.13v-.68a2.53,2.53,0,0,1,.69-1.9,2.59,2.59,0,0,1,1.91-.67,4,4,0,0,1,.93.12l0,1.3a4,4,0,0,0-.64,0,1.07,1.07,0,0,0-1.19,1.22v.66h1.51v1.23h-1.51v6.17Z"/>
          <path class="cls-4" d="M424.17,109.58v-6.17h-1.12v-1.23h1.12v-.68a2.53,2.53,0,0,1,.69-1.9,2.59,2.59,0,0,1,1.91-.67,4,4,0,0,1,.93.12l0,1.3a3.83,3.83,0,0,0-.63,0,1.06,1.06,0,0,0-1.19,1.22v.66h1.5v1.23h-1.5v6.17Z"/>
          <path class="cls-4" d="M431.81,109.71a3.44,3.44,0,0,1-2.56-1,3.64,3.64,0,0,1-1-2.65v-.21a4.4,4.4,0,0,1,.43-2,3.15,3.15,0,0,1,1.2-1.35,3.11,3.11,0,0,1,1.72-.49,2.87,2.87,0,0,1,2.33,1,4.06,4.06,0,0,1,.83,2.72v.67h-4.84a2.26,2.26,0,0,0,.62,1.45,1.8,1.8,0,0,0,1.35.54,2.25,2.25,0,0,0,1.86-.93l.89.86a3,3,0,0,1-1.18,1A3.79,3.79,0,0,1,431.81,109.71Zm-.2-6.33a1.39,1.39,0,0,0-1.1.47,2.53,2.53,0,0,0-.54,1.34h3.17v-.13a2.06,2.06,0,0,0-.45-1.26A1.4,1.4,0,0,0,431.61,103.38Z"/>
          <path class="cls-4" d="M439.1,108.39a1.54,1.54,0,0,0,1-.37,1.21,1.21,0,0,0,.43-.89h1.57a2.45,2.45,0,0,1-.43,1.29,2.78,2.78,0,0,1-1.09.94,3.48,3.48,0,0,1-4-.65,4,4,0,0,1-.91-2.78v-.17a3.9,3.9,0,0,1,.91-2.7,3.11,3.11,0,0,1,2.46-1,3.06,3.06,0,0,1,2.15.77,2.78,2.78,0,0,1,.87,2h-1.57a1.47,1.47,0,0,0-.43-1,1.38,1.38,0,0,0-1-.41,1.46,1.46,0,0,0-1.24.58,3,3,0,0,0-.44,1.77V106a3,3,0,0,0,.43,1.79A1.45,1.45,0,0,0,439.1,108.39Z"/>
          <path class="cls-4" d="M445.48,100.38v1.8h1.3v1.23h-1.3v4.13a.93.93,0,0,0,.16.61.76.76,0,0,0,.6.19,2.87,2.87,0,0,0,.58-.07v1.28a3.89,3.89,0,0,1-1.09.16c-1.28,0-1.92-.7-1.92-2.11v-4.19H442.6v-1.23h1.21v-1.8Z"/>
          <path class="cls-4" d="M448.05,100.26a.86.86,0,0,1,.25-.64.9.9,0,0,1,.69-.25.94.94,0,0,1,.7.25.89.89,0,0,1,.24.64.84.84,0,0,1-.24.62.94.94,0,0,1-.7.25.9.9,0,0,1-.69-.25A.81.81,0,0,1,448.05,100.26Zm1.77,9.32h-1.66v-7.4h1.66Z"/>
          <path class="cls-4" d="M454.23,107.47l1.57-5.29h1.71l-2.56,7.4h-1.44l-2.59-7.4h1.73Z"/>
          <path class="cls-4" d="M461.81,109.71a3.43,3.43,0,0,1-2.56-1,3.6,3.6,0,0,1-1-2.65v-.21a4.53,4.53,0,0,1,.42-2,3.29,3.29,0,0,1,1.2-1.35,3.14,3.14,0,0,1,1.73-.49,2.89,2.89,0,0,1,2.33,1,4.05,4.05,0,0,1,.82,2.72v.67h-4.83a2.2,2.2,0,0,0,.61,1.45,1.83,1.83,0,0,0,1.35.54,2.25,2.25,0,0,0,1.86-.93l.9.86a3.06,3.06,0,0,1-1.19,1A3.74,3.74,0,0,1,461.81,109.71Zm-.2-6.33a1.41,1.41,0,0,0-1.11.47,2.53,2.53,0,0,0-.53,1.34h3.16v-.13a2,2,0,0,0-.44-1.26A1.4,1.4,0,0,0,461.61,103.38Z"/>
          <path class="cls-4" d="M397.8,122.75a4.39,4.39,0,0,1-.78,2.74,2.71,2.71,0,0,1-4,.22v3.51h-1.66V119h1.53l.07.75a2.45,2.45,0,0,1,2-.89,2.52,2.52,0,0,1,2.12,1,4.54,4.54,0,0,1,.77,2.8Zm-1.66-.14a3,3,0,0,0-.44-1.76,1.43,1.43,0,0,0-1.26-.65A1.53,1.53,0,0,0,393,121v3.28a1.54,1.54,0,0,0,1.48.87,1.46,1.46,0,0,0,1.24-.64A3.42,3.42,0,0,0,396.14,122.61Z"/>
          <path class="cls-4" d="M401,126.38h-1.66v-10.5H401Z"/>
          <path class="cls-4" d="M407.2,126.38a2.69,2.69,0,0,1-.19-.7,2.57,2.57,0,0,1-1.94.83,2.62,2.62,0,0,1-1.82-.63,2.05,2.05,0,0,1-.71-1.58,2.1,2.1,0,0,1,.88-1.81,4.27,4.27,0,0,1,2.51-.63h1v-.49a1.32,1.32,0,0,0-.32-.92,1.27,1.27,0,0,0-1-.34,1.45,1.45,0,0,0-.93.28.88.88,0,0,0-.36.72H402.7a1.86,1.86,0,0,1,.4-1.14,2.74,2.74,0,0,1,1.1-.83,3.86,3.86,0,0,1,1.55-.3,3.15,3.15,0,0,1,2.07.65,2.34,2.34,0,0,1,.79,1.84v3.34a3.91,3.91,0,0,0,.28,1.59v.12Zm-1.83-1.2a1.9,1.9,0,0,0,.93-.24,1.54,1.54,0,0,0,.65-.64v-1.4h-.89a2.48,2.48,0,0,0-1.39.32,1.06,1.06,0,0,0-.47.91,1,1,0,0,0,.32.76A1.23,1.23,0,0,0,405.37,125.18Z"/>
          <path class="cls-4" d="M412.43,117.18V119h1.31v1.23h-1.31v4.13a.93.93,0,0,0,.17.61.76.76,0,0,0,.6.19,3,3,0,0,0,.58-.07v1.28a3.89,3.89,0,0,1-1.09.16c-1.28,0-1.92-.7-1.92-2.11v-4.19h-1.21V119h1.21v-1.8Z"/>
          <path class="cls-4" d="M415.59,126.38v-6.17h-1.13V119h1.13v-.68a2.53,2.53,0,0,1,.69-1.9,2.59,2.59,0,0,1,1.91-.67,4,4,0,0,1,.93.12l0,1.3a4,4,0,0,0-.64-.05,1.07,1.07,0,0,0-1.19,1.22V119h1.51v1.23h-1.51v6.17Z"/>
          <path class="cls-4" d="M419.66,122.61a4.31,4.31,0,0,1,.43-2,3.15,3.15,0,0,1,1.21-1.34,3.44,3.44,0,0,1,1.79-.47,3.2,3.2,0,0,1,2.43,1,3.78,3.78,0,0,1,1,2.55v.39a4.44,4.44,0,0,1-.42,2,3.06,3.06,0,0,1-1.21,1.33,3.45,3.45,0,0,1-1.8.47,3.23,3.23,0,0,1-2.51-1,4,4,0,0,1-.94-2.78Zm1.66.14a3,3,0,0,0,.47,1.79,1.55,1.55,0,0,0,1.32.65,1.5,1.5,0,0,0,1.3-.66,3.24,3.24,0,0,0,.47-1.92,3,3,0,0,0-.48-1.78,1.62,1.62,0,0,0-2.6,0A3.21,3.21,0,0,0,421.32,122.75Z"/>
          <path class="cls-4" d="M431.81,120.5a3.63,3.63,0,0,0-.67-.06,1.52,1.52,0,0,0-1.54.88v5.06h-1.66V119h1.58l.05.83a1.85,1.85,0,0,1,1.66-1,1.42,1.42,0,0,1,.59.1Z"/>
          <path class="cls-4" d="M434.43,119l0,.77a2.66,2.66,0,0,1,2.14-.91,2.06,2.06,0,0,1,2,1.14,2.61,2.61,0,0,1,2.27-1.14,2.32,2.32,0,0,1,1.82.68,3,3,0,0,1,.61,2v4.87h-1.66v-4.82a1.44,1.44,0,0,0-.31-1,1.63,1.63,0,0,0-1.94,0,1.6,1.6,0,0,0-.51.79v5.08h-1.66v-4.87a1.19,1.19,0,0,0-1.33-1.31,1.46,1.46,0,0,0-1.42.82v5.36h-1.66V119Z"/>
          <path class="cls-4" d="M449.19,124.37a.75.75,0,0,0-.36-.68,3.86,3.86,0,0,0-1.22-.41,6.51,6.51,0,0,1-1.41-.45,1.9,1.9,0,0,1-1.25-1.75,2,2,0,0,1,.81-1.6,3.24,3.24,0,0,1,2.05-.64,3.3,3.3,0,0,1,2.14.66,2.07,2.07,0,0,1,.82,1.7h-1.66a1,1,0,0,0-.36-.8,1.35,1.35,0,0,0-.94-.31,1.46,1.46,0,0,0-.89.25.8.8,0,0,0-.35.68.68.68,0,0,0,.32.59,4.75,4.75,0,0,0,1.3.43,6,6,0,0,1,1.54.51,2.16,2.16,0,0,1,.82.71,1.77,1.77,0,0,1,.28,1,1.93,1.93,0,0,1-.83,1.61,3.49,3.49,0,0,1-2.17.62,3.78,3.78,0,0,1-1.62-.33,2.76,2.76,0,0,1-1.11-.9,2.14,2.14,0,0,1-.39-1.24h1.61a1.16,1.16,0,0,0,.44.91,1.76,1.76,0,0,0,1.09.32,1.73,1.73,0,0,0,1-.25A.78.78,0,0,0,449.19,124.37Z"/>
        </g>
        <g>
          <path class="cls-4" d="M558.3,107a1.19,1.19,0,0,0-.46-1,5.44,5.44,0,0,0-1.66-.72,8.28,8.28,0,0,1-1.92-.8,2.58,2.58,0,0,1-1.36-2.23,2.44,2.44,0,0,1,1-2,4,4,0,0,1,2.55-.78,4.22,4.22,0,0,1,1.85.39,3,3,0,0,1,1.28,1.09,2.78,2.78,0,0,1,.46,1.57H558.3a1.54,1.54,0,0,0-.49-1.22,2,2,0,0,0-1.39-.44,2.12,2.12,0,0,0-1.32.36,1.21,1.21,0,0,0-.47,1,1.09,1.09,0,0,0,.51.91,5.56,5.56,0,0,0,1.66.71,7.77,7.77,0,0,1,1.87.79,2.93,2.93,0,0,1,1,1A2.64,2.64,0,0,1,560,107a2.38,2.38,0,0,1-.95,2,4.15,4.15,0,0,1-2.59.73,4.85,4.85,0,0,1-2-.4,3.32,3.32,0,0,1-1.4-1.1,2.73,2.73,0,0,1-.51-1.64h1.73a1.62,1.62,0,0,0,.56,1.31,2.47,2.47,0,0,0,1.61.46,2.18,2.18,0,0,0,1.36-.36A1.19,1.19,0,0,0,558.3,107Z"/>
          <path class="cls-4" d="M563,103a2.58,2.58,0,0,1,2.05-.95q2.37,0,2.4,2.7v4.84h-1.66V104.8a1.45,1.45,0,0,0-.33-1.08,1.37,1.37,0,0,0-1-.32,1.59,1.59,0,0,0-1.49.89v5.29h-1.67V99.07H563Z"/>
          <path class="cls-4" d="M573.58,109.58a2.69,2.69,0,0,1-.19-.7,2.57,2.57,0,0,1-1.94.83,2.63,2.63,0,0,1-1.82-.63,2.05,2.05,0,0,1-.71-1.58,2.1,2.1,0,0,1,.88-1.81,4.3,4.3,0,0,1,2.52-.63h1v-.49a1.28,1.28,0,0,0-.32-.92,1.26,1.26,0,0,0-1-.34,1.45,1.45,0,0,0-.93.28.86.86,0,0,0-.37.72h-1.66a1.88,1.88,0,0,1,.41-1.14,2.64,2.64,0,0,1,1.09-.83,3.86,3.86,0,0,1,1.55-.3,3.11,3.11,0,0,1,2.07.65,2.35,2.35,0,0,1,.8,1.84v3.34a3.75,3.75,0,0,0,.28,1.59v.12Zm-1.83-1.2a1.9,1.9,0,0,0,.93-.24,1.54,1.54,0,0,0,.65-.64v-1.4h-.89a2.48,2.48,0,0,0-1.39.32,1,1,0,0,0-.46.91,1,1,0,0,0,.31.76A1.25,1.25,0,0,0,571.75,108.38Z"/>
          <path class="cls-4" d="M580.61,103.7a3.82,3.82,0,0,0-.68-.06,1.53,1.53,0,0,0-1.54.88v5.06h-1.66v-7.4h1.59l0,.83a1.87,1.87,0,0,1,1.67-1,1.4,1.4,0,0,1,.58.1Z"/>
          <path class="cls-4" d="M584.91,109.71a3.46,3.46,0,0,1-2.56-1,3.64,3.64,0,0,1-1-2.65v-.21a4.53,4.53,0,0,1,.43-2,3.22,3.22,0,0,1,1.2-1.35,3.13,3.13,0,0,1,1.72-.49,2.89,2.89,0,0,1,2.34,1,4.05,4.05,0,0,1,.82,2.72v.67h-4.83a2.2,2.2,0,0,0,.61,1.45,1.83,1.83,0,0,0,1.35.54,2.25,2.25,0,0,0,1.86-.93l.89.86a3,3,0,0,1-1.18,1A3.79,3.79,0,0,1,584.91,109.71Zm-.19-6.33a1.4,1.4,0,0,0-1.11.47,2.45,2.45,0,0,0-.53,1.34h3.16v-.13a2.06,2.06,0,0,0-.44-1.26A1.4,1.4,0,0,0,584.72,103.38Z"/>
          <path class="cls-4" d="M588.86,105.82a4.37,4.37,0,0,1,.79-2.74,2.55,2.55,0,0,1,2.13-1,2.44,2.44,0,0,1,1.9.82V99.07h1.66v10.51h-1.51l-.08-.77a2.44,2.44,0,0,1-2,.9,2.55,2.55,0,0,1-2.1-1A4.62,4.62,0,0,1,588.86,105.82Zm1.66.15a3.1,3.1,0,0,0,.43,1.76,1.41,1.41,0,0,0,1.24.63,1.58,1.58,0,0,0,1.49-.91v-3.16a1.56,1.56,0,0,0-1.48-.89A1.42,1.42,0,0,0,591,104,3.46,3.46,0,0,0,590.52,106Z"/>
          <path class="cls-4" d="M543.45,123.2l-.73.76v2.42h-1.67v-10.5h1.67v6.05l.52-.65,2-2.3h2l-2.75,3.08,3,4.32h-1.92Z"/>
          <path class="cls-4" d="M549.9,119l.05.85a2.66,2.66,0,0,1,2.15-1c1.54,0,2.33.88,2.35,2.65v4.89h-1.66v-4.8a1.54,1.54,0,0,0-.3-1,1.27,1.27,0,0,0-1-.34,1.58,1.58,0,0,0-1.49.91v5.27h-1.67V119Z"/>
          <path class="cls-4" d="M555.83,122.61a4.44,4.44,0,0,1,.43-2,3.22,3.22,0,0,1,1.21-1.34,3.45,3.45,0,0,1,1.8-.47,3.23,3.23,0,0,1,2.43,1,3.78,3.78,0,0,1,1,2.55v.39a4.44,4.44,0,0,1-.42,2,3.1,3.1,0,0,1-1.2,1.33,3.49,3.49,0,0,1-1.81.47,3.24,3.24,0,0,1-2.51-1,4,4,0,0,1-.94-2.78Zm1.67.14a3,3,0,0,0,.47,1.79,1.53,1.53,0,0,0,1.31.65,1.51,1.51,0,0,0,1.31-.66,3.32,3.32,0,0,0,.47-1.92,3,3,0,0,0-.48-1.78,1.63,1.63,0,0,0-2.61,0A3.29,3.29,0,0,0,557.5,122.75Z"/>
          <path class="cls-4" d="M570.61,124.09l1.18-5.11h1.62l-2,7.4H570l-1.59-5.08-1.56,5.08h-1.37l-2-7.4h1.62l1.2,5,1.51-5h1.26Z"/>
          <path class="cls-4" d="M576.29,126.38h-1.66v-10.5h1.66Z"/>
          <path class="cls-4" d="M581.35,126.51a3.46,3.46,0,0,1-2.56-1,3.64,3.64,0,0,1-1-2.65v-.21a4.37,4.37,0,0,1,.43-2,3.15,3.15,0,0,1,1.2-1.35,3.11,3.11,0,0,1,1.72-.49,2.89,2.89,0,0,1,2.34,1,4.11,4.11,0,0,1,.82,2.72v.67h-4.83a2.2,2.2,0,0,0,.61,1.45,1.83,1.83,0,0,0,1.35.54,2.25,2.25,0,0,0,1.86-.93l.89.86a3,3,0,0,1-1.18,1A3.79,3.79,0,0,1,581.35,126.51Zm-.2-6.34a1.4,1.4,0,0,0-1.1.48,2.53,2.53,0,0,0-.54,1.34h3.17v-.13a2.06,2.06,0,0,0-.45-1.26A1.39,1.39,0,0,0,581.15,120.17Z"/>
          <path class="cls-4" d="M585.3,122.62a4.37,4.37,0,0,1,.79-2.74,2.55,2.55,0,0,1,2.13-1,2.45,2.45,0,0,1,1.9.82v-3.78h1.66v10.5h-1.51l-.08-.77a2.44,2.44,0,0,1-2,.9,2.55,2.55,0,0,1-2.1-1A4.55,4.55,0,0,1,585.3,122.62Zm1.66.15a3.1,3.1,0,0,0,.43,1.76,1.41,1.41,0,0,0,1.24.63,1.58,1.58,0,0,0,1.49-.91v-3.16a1.56,1.56,0,0,0-1.48-.89,1.42,1.42,0,0,0-1.24.64A3.38,3.38,0,0,0,587,122.77Z"/>
          <path class="cls-4" d="M593.22,122.62a4.33,4.33,0,0,1,.81-2.75,2.59,2.59,0,0,1,2.15-1,2.46,2.46,0,0,1,2,.88l.07-.74h1.5v7.17a3,3,0,0,1-.9,2.3,3.47,3.47,0,0,1-2.45.84,4.06,4.06,0,0,1-1.59-.34,2.88,2.88,0,0,1-1.18-.89l.79-1a2.39,2.39,0,0,0,1.89.9,1.81,1.81,0,0,0,1.3-.44,1.72,1.72,0,0,0,.48-1.32v-.5a2.43,2.43,0,0,1-1.91.8,2.6,2.6,0,0,1-2.13-1A4.47,4.47,0,0,1,593.22,122.62Zm1.65.15a3,3,0,0,0,.46,1.75,1.45,1.45,0,0,0,1.26.64,1.6,1.6,0,0,0,1.49-.86V121a1.58,1.58,0,0,0-1.48-.84,1.47,1.47,0,0,0-1.27.65A3.36,3.36,0,0,0,594.87,122.77Z"/>
          <path class="cls-4" d="M604.7,126.51a3.46,3.46,0,0,1-2.56-1,3.64,3.64,0,0,1-1-2.65v-.21a4.5,4.5,0,0,1,.43-2,3.29,3.29,0,0,1,1.2-1.35,3.13,3.13,0,0,1,1.72-.49,2.89,2.89,0,0,1,2.34,1,4.05,4.05,0,0,1,.82,2.72v.67h-4.83a2.2,2.2,0,0,0,.61,1.45,1.83,1.83,0,0,0,1.35.54,2.25,2.25,0,0,0,1.86-.93l.89.86a3,3,0,0,1-1.18,1A3.79,3.79,0,0,1,604.7,126.51Zm-.19-6.34a1.4,1.4,0,0,0-1.11.48,2.45,2.45,0,0,0-.53,1.34H606v-.13a2.06,2.06,0,0,0-.44-1.26A1.41,1.41,0,0,0,604.51,120.17Z"/>
        </g>
      </g>
      <g>
        <g>
          <polygon class="cls-5" points="739.23 297.64 675.58 198.43 561.26 198.43 280.63 198.43 166.31 198.43 102.66 297.64 39 396.85 280.63 396.85 561.26 396.85 802.89 396.85 739.23 297.64"/>
          <g>
            <polygon class="cls-6" points="140.31 198.43 70.16 297.64 70.16 297.64 140.31 198.43 140.31 198.43"/>
            <polygon class="cls-7" points="140.31 198.43 70.16 297.64 102.66 297.64 166.31 198.43 140.31 198.43"/>
            <polygon class="cls-6" points="701.58 198.43 771.73 297.64 771.73 297.64 701.58 198.43 701.58 198.43"/>
            <polygon class="cls-7" points="701.58 198.43 771.73 297.64 739.23 297.64 675.58 198.43 701.58 198.43"/>
            <line class="cls-8" x1="96.03" y1="297.64" x2="745.86" y2="297.64"/>
            <line class="cls-8" x1="280.63" y1="198.43" x2="280.63" y2="297.64"/>
            <line class="cls-8" x1="561.26" y1="198.43" x2="561.26" y2="297.64"/>
            <polygon class="cls-7" points="70.16 297.64 0 396.85 39 396.85 102.66 297.64 70.16 297.64"/>
            <polygon class="cls-7" points="771.73 297.64 841.89 396.85 802.89 396.85 739.23 297.64 771.73 297.64"/>
          </g>
        </g>
        <g>
          <path class="cls-4" d="M162.13,243.59H158v3.06h4.78V248h-6.5v-10h6.46v1.4H158v2.74h4.09Z"/>
          <path class="cls-4" d="M166.73,243.07l1.4-2.43H170l-2.26,3.64,2.34,3.76h-1.84l-1.47-2.53L165.28,248h-1.85l2.34-3.76-2.26-3.64h1.84Z"/>
          <path class="cls-4" d="M174,246.85a1.49,1.49,0,0,0,1-.37,1.21,1.21,0,0,0,.43-.89h1.57a2.45,2.45,0,0,1-.43,1.29,2.81,2.81,0,0,1-1.1.94,3.46,3.46,0,0,1-4-.65,4,4,0,0,1-.91-2.78v-.17a3.87,3.87,0,0,1,.91-2.7,3.11,3.11,0,0,1,2.46-1,3.06,3.06,0,0,1,2.15.77,2.78,2.78,0,0,1,.87,2h-1.57a1.47,1.47,0,0,0-.43-1,1.38,1.38,0,0,0-1-.41,1.46,1.46,0,0,0-1.24.58,3,3,0,0,0-.44,1.77v.27a3,3,0,0,0,.43,1.79A1.45,1.45,0,0,0,174,246.85Z"/>
          <path class="cls-4" d="M181.56,248.17a3.44,3.44,0,0,1-2.56-1,3.64,3.64,0,0,1-1-2.65v-.21a4.43,4.43,0,0,1,.43-2,3.15,3.15,0,0,1,1.2-1.35,3.11,3.11,0,0,1,1.72-.49,2.87,2.87,0,0,1,2.33,1,4.06,4.06,0,0,1,.83,2.72v.67h-4.84a2.21,2.21,0,0,0,.62,1.45,1.8,1.8,0,0,0,1.35.54,2.25,2.25,0,0,0,1.86-.93l.89.86a3.1,3.1,0,0,1-1.18,1A3.79,3.79,0,0,1,181.56,248.17Zm-.2-6.33a1.42,1.42,0,0,0-1.1.47,2.53,2.53,0,0,0-.54,1.34h3.17v-.13a2.06,2.06,0,0,0-.45-1.26A1.4,1.4,0,0,0,181.36,241.84Z"/>
          <path class="cls-4" d="M192.29,244.41a4.39,4.39,0,0,1-.78,2.74,2.71,2.71,0,0,1-4,.22v3.51h-1.66V240.64h1.53l.07.75a2.45,2.45,0,0,1,2-.89,2.52,2.52,0,0,1,2.12,1,4.48,4.48,0,0,1,.77,2.8Zm-1.65-.14a3.14,3.14,0,0,0-.44-1.76,1.45,1.45,0,0,0-1.26-.65,1.54,1.54,0,0,0-1.47.84V246a1.55,1.55,0,0,0,1.48.87,1.45,1.45,0,0,0,1.24-.64A3.41,3.41,0,0,0,190.64,244.27Z"/>
          <path class="cls-4" d="M195.78,238.84v1.8h1.3v1.23h-1.3V246a.87.87,0,0,0,.17.61.75.75,0,0,0,.59.19,2.38,2.38,0,0,0,.59-.07V248a4,4,0,0,1-1.1.16c-1.27,0-1.91-.7-1.91-2.11v-4.19H192.9v-1.23h1.22v-1.8Z"/>
          <path class="cls-4" d="M198.36,238.72a.85.85,0,0,1,.93-.89.92.92,0,0,1,.7.25.9.9,0,0,1,.25.64.85.85,0,0,1-.25.62.92.92,0,0,1-.7.25.9.9,0,0,1-.69-.25A.84.84,0,0,1,198.36,238.72Zm1.76,9.32h-1.66v-7.4h1.66Z"/>
          <path class="cls-4" d="M201.62,244.27a4.31,4.31,0,0,1,.43-2,3.09,3.09,0,0,1,1.21-1.34,3.41,3.41,0,0,1,1.79-.47,3.2,3.2,0,0,1,2.43,1,3.78,3.78,0,0,1,1,2.55v.39a4.44,4.44,0,0,1-.42,2,3.1,3.1,0,0,1-1.2,1.33,3.46,3.46,0,0,1-1.81.47,3.21,3.21,0,0,1-2.5-1,4,4,0,0,1-.94-2.78Zm1.66.14a3,3,0,0,0,.47,1.79,1.53,1.53,0,0,0,1.31.65,1.51,1.51,0,0,0,1.31-.66,3.32,3.32,0,0,0,.47-1.92,3,3,0,0,0-.48-1.78,1.63,1.63,0,0,0-2.6,0A3.23,3.23,0,0,0,203.28,244.41Z"/>
          <path class="cls-4" d="M211.44,240.64l.05.85a2.66,2.66,0,0,1,2.15-1c1.54,0,2.33.88,2.35,2.65V248h-1.66v-4.8a1.54,1.54,0,0,0-.3-1,1.31,1.31,0,0,0-1-.34,1.59,1.59,0,0,0-1.49.91V248h-1.66v-7.4Z"/>
          <path class="cls-4" d="M222.1,248a3.16,3.16,0,0,1-.19-.7,2.55,2.55,0,0,1-1.94.83,2.63,2.63,0,0,1-1.82-.63,2,2,0,0,1-.7-1.58,2.09,2.09,0,0,1,.88-1.81,4.25,4.25,0,0,1,2.51-.63h1V243a1.32,1.32,0,0,0-.32-.92,1.28,1.28,0,0,0-1-.34,1.45,1.45,0,0,0-.93.28.88.88,0,0,0-.36.72h-1.66a1.86,1.86,0,0,1,.4-1.14,2.68,2.68,0,0,1,1.1-.83,3.86,3.86,0,0,1,1.55-.3,3.1,3.1,0,0,1,2.07.66,2.31,2.31,0,0,1,.79,1.83v3.34a3.75,3.75,0,0,0,.28,1.59V248Zm-1.82-1.2a1.9,1.9,0,0,0,.93-.24,1.6,1.6,0,0,0,.65-.64v-1.4H221a2.47,2.47,0,0,0-1.38.32,1.06,1.06,0,0,0-.47.91,1,1,0,0,0,.32.77A1.26,1.26,0,0,0,220.28,246.84Z"/>
          <path class="cls-4" d="M227,248h-1.66v-10.5H227Z"/>
          <path class="cls-4" d="M161.53,264.84h-1.66v-10.5h1.66Z"/>
          <path class="cls-4" d="M166.6,265a3.44,3.44,0,0,1-2.56-1,3.64,3.64,0,0,1-1-2.65v-.21a4.4,4.4,0,0,1,.43-2,3.15,3.15,0,0,1,1.2-1.35,3.11,3.11,0,0,1,1.72-.49,2.87,2.87,0,0,1,2.33,1,4.06,4.06,0,0,1,.83,2.72v.67h-4.84a2.21,2.21,0,0,0,.62,1.45,1.8,1.8,0,0,0,1.35.54,2.25,2.25,0,0,0,1.86-.93l.89.86a3.06,3.06,0,0,1-1.19,1A3.71,3.71,0,0,1,166.6,265Zm-.2-6.34a1.4,1.4,0,0,0-1.1.48,2.53,2.53,0,0,0-.54,1.34h3.17v-.13a2.06,2.06,0,0,0-.45-1.26A1.41,1.41,0,0,0,166.4,258.63Z"/>
          <path class="cls-4" d="M175.27,264.84a3.16,3.16,0,0,1-.19-.7,2.55,2.55,0,0,1-1.94.83,2.63,2.63,0,0,1-1.82-.63,2,2,0,0,1-.7-1.58,2.09,2.09,0,0,1,.88-1.81,4.25,4.25,0,0,1,2.51-.63h1v-.49a1.32,1.32,0,0,0-.32-.92,1.28,1.28,0,0,0-1-.34,1.45,1.45,0,0,0-.93.28.88.88,0,0,0-.36.72h-1.66a1.86,1.86,0,0,1,.4-1.14,2.68,2.68,0,0,1,1.1-.83,3.86,3.86,0,0,1,1.55-.3,3.1,3.1,0,0,1,2.07.66,2.31,2.31,0,0,1,.79,1.83v3.34a3.75,3.75,0,0,0,.28,1.59v.12Zm-1.82-1.2a1.9,1.9,0,0,0,.93-.24,1.6,1.6,0,0,0,.65-.64v-1.4h-.9a2.47,2.47,0,0,0-1.38.32,1.06,1.06,0,0,0-.47.91,1,1,0,0,0,.32.77A1.26,1.26,0,0,0,173.45,263.64Z"/>
          <path class="cls-4" d="M178.12,261.08a4.37,4.37,0,0,1,.79-2.74,2.55,2.55,0,0,1,2.13-1,2.44,2.44,0,0,1,1.9.82v-3.78h1.66v10.5h-1.5l-.09-.77a2.44,2.44,0,0,1-2,.9,2.55,2.55,0,0,1-2.1-1A4.62,4.62,0,0,1,178.12,261.08Zm1.66.15a3.1,3.1,0,0,0,.43,1.76,1.41,1.41,0,0,0,1.24.63,1.57,1.57,0,0,0,1.49-.91v-3.16a1.56,1.56,0,0,0-1.48-.89,1.42,1.42,0,0,0-1.24.64A3.46,3.46,0,0,0,179.78,261.23Z"/>
          <path class="cls-4" d="M189.59,265a3.44,3.44,0,0,1-2.56-1,3.64,3.64,0,0,1-1-2.65v-.21a4.4,4.4,0,0,1,.43-2,3.15,3.15,0,0,1,1.2-1.35,3.09,3.09,0,0,1,1.72-.49,2.87,2.87,0,0,1,2.33,1,4.06,4.06,0,0,1,.83,2.72v.67h-4.84a2.25,2.25,0,0,0,.61,1.45,1.84,1.84,0,0,0,1.36.54,2.22,2.22,0,0,0,1.85-.93l.9.86a3.06,3.06,0,0,1-1.19,1A3.74,3.74,0,0,1,189.59,265Zm-.2-6.34a1.4,1.4,0,0,0-1.1.48,2.53,2.53,0,0,0-.54,1.34h3.17v-.13a2.06,2.06,0,0,0-.45-1.26A1.41,1.41,0,0,0,189.39,258.63Z"/>
          <path class="cls-4" d="M197.72,259a3.82,3.82,0,0,0-.68-.06,1.53,1.53,0,0,0-1.54.88v5.06h-1.66v-7.4h1.59l0,.83a1.87,1.87,0,0,1,1.67-1,1.4,1.4,0,0,1,.58.1Z"/>
          <path class="cls-4" d="M202.91,262.83a.75.75,0,0,0-.36-.68,3.86,3.86,0,0,0-1.22-.41,6.51,6.51,0,0,1-1.41-.45,1.89,1.89,0,0,1-1.25-1.75,2,2,0,0,1,.81-1.6,3.24,3.24,0,0,1,2.05-.64,3.28,3.28,0,0,1,2.14.66,2.07,2.07,0,0,1,.82,1.7h-1.66a1.06,1.06,0,0,0-.35-.8,1.39,1.39,0,0,0-.95-.31,1.46,1.46,0,0,0-.89.25.8.8,0,0,0-.35.68.67.67,0,0,0,.33.59,4.52,4.52,0,0,0,1.29.43,5.87,5.87,0,0,1,1.54.51,2.27,2.27,0,0,1,.83.71,1.85,1.85,0,0,1,.27,1,1.93,1.93,0,0,1-.83,1.61,3.47,3.47,0,0,1-2.17.62,3.84,3.84,0,0,1-1.62-.33,2.76,2.76,0,0,1-1.11-.9,2.14,2.14,0,0,1-.39-1.24H200a1.14,1.14,0,0,0,.45.91,1.71,1.71,0,0,0,1.08.32,1.73,1.73,0,0,0,1-.25A.78.78,0,0,0,202.91,262.83Z"/>
          <path class="cls-4" d="M207.63,258.25a2.6,2.6,0,0,1,2.06-.95q2.35,0,2.4,2.7v4.84h-1.66v-4.78a1.45,1.45,0,0,0-.34-1.08,1.35,1.35,0,0,0-1-.32,1.6,1.6,0,0,0-1.49.89v5.29H206v-10.5h1.66Z"/>
          <path class="cls-4" d="M213.77,255.52a.85.85,0,0,1,.93-.89.91.91,0,0,1,.7.25.86.86,0,0,1,.25.64.81.81,0,0,1-.25.62,1.09,1.09,0,0,1-1.39,0A.84.84,0,0,1,213.77,255.52Zm1.76,9.32h-1.66v-7.4h1.66Z"/>
          <path class="cls-4" d="M223.82,261.21A4.39,4.39,0,0,1,223,264a2.71,2.71,0,0,1-4,.22v3.51h-1.66V257.44h1.53l.07.75a2.44,2.44,0,0,1,2-.89,2.52,2.52,0,0,1,2.12,1,4.54,4.54,0,0,1,.77,2.8Zm-1.66-.14a3.06,3.06,0,0,0-.44-1.76,1.43,1.43,0,0,0-1.26-.65,1.52,1.52,0,0,0-1.46.84v3.28a1.53,1.53,0,0,0,1.47.87,1.43,1.43,0,0,0,1.24-.64A3.41,3.41,0,0,0,222.16,261.07Z"/>
        </g>
        <g>
          <path class="cls-4" d="M356.44,244.79a3.59,3.59,0,0,1-1.17,2.49,4,4,0,0,1-2.73.89,3.91,3.91,0,0,1-2.09-.56,3.68,3.68,0,0,1-1.4-1.61,5.66,5.66,0,0,1-.51-2.41v-.93a5.87,5.87,0,0,1,.49-2.48,3.75,3.75,0,0,1,1.44-1.65,4,4,0,0,1,2.15-.58,3.84,3.84,0,0,1,2.66.89,3.7,3.7,0,0,1,1.16,2.52h-1.72a2.45,2.45,0,0,0-.62-1.54,2.08,2.08,0,0,0-1.48-.48,2,2,0,0,0-1.73.83,4.11,4.11,0,0,0-.62,2.41v.89a4.34,4.34,0,0,0,.58,2.46,1.9,1.9,0,0,0,1.69.85,2.2,2.2,0,0,0,1.53-.46,2.4,2.4,0,0,0,.65-1.53Z"/>
          <path class="cls-4" d="M357.52,244.27a4.31,4.31,0,0,1,.43-2,3.15,3.15,0,0,1,1.21-1.34,3.44,3.44,0,0,1,1.79-.47,3.2,3.2,0,0,1,2.43,1,3.78,3.78,0,0,1,1,2.55v.39a4.44,4.44,0,0,1-.42,2,3.1,3.1,0,0,1-1.2,1.33,3.46,3.46,0,0,1-1.81.47,3.21,3.21,0,0,1-2.5-1,4,4,0,0,1-.94-2.78Zm1.66.14a3,3,0,0,0,.47,1.79,1.53,1.53,0,0,0,1.31.65,1.51,1.51,0,0,0,1.31-.66,3.32,3.32,0,0,0,.47-1.92,3,3,0,0,0-.48-1.78,1.63,1.63,0,0,0-2.6,0A3.23,3.23,0,0,0,359.18,244.41Z"/>
          <path class="cls-4" d="M369.67,242.16a3.71,3.71,0,0,0-.67-.06,1.51,1.51,0,0,0-1.54.88V248H365.8v-7.4h1.58l0,.83a1.87,1.87,0,0,1,1.67-1,1.45,1.45,0,0,1,.59.1Z"/>
          <path class="cls-4" d="M374,248.17a3.44,3.44,0,0,1-2.56-1,3.6,3.6,0,0,1-1-2.65v-.21a4.43,4.43,0,0,1,.43-2,3.2,3.2,0,0,1,1.19-1.35,3.14,3.14,0,0,1,1.73-.49,2.89,2.89,0,0,1,2.33,1,4.06,4.06,0,0,1,.83,2.72v.67h-4.84a2.25,2.25,0,0,0,.61,1.45,1.83,1.83,0,0,0,1.35.54,2.22,2.22,0,0,0,1.86-.93l.9.86a3.06,3.06,0,0,1-1.19,1A3.74,3.74,0,0,1,374,248.17Zm-.2-6.33a1.42,1.42,0,0,0-1.1.47,2.53,2.53,0,0,0-.54,1.34h3.16v-.13a2,2,0,0,0-.44-1.26A1.4,1.4,0,0,0,373.78,241.84Z"/>
          <path class="cls-4" d="M388.2,244.41a4.39,4.39,0,0,1-.78,2.74,2.71,2.71,0,0,1-4,.22v3.51h-1.66V240.64h1.53l.07.75a2.44,2.44,0,0,1,2-.89,2.52,2.52,0,0,1,2.12,1,4.54,4.54,0,0,1,.77,2.8Zm-1.66-.14a3.06,3.06,0,0,0-.44-1.76,1.43,1.43,0,0,0-1.26-.65,1.52,1.52,0,0,0-1.46.84V246a1.53,1.53,0,0,0,1.47.87,1.46,1.46,0,0,0,1.25-.64A3.5,3.5,0,0,0,386.54,244.27Z"/>
          <path class="cls-4" d="M393.47,242.16a3.63,3.63,0,0,0-.67-.06,1.52,1.52,0,0,0-1.54.88V248H389.6v-7.4h1.58l.05.83a1.85,1.85,0,0,1,1.66-1,1.42,1.42,0,0,1,.59.1Z"/>
          <path class="cls-4" d="M394,244.27a4.31,4.31,0,0,1,.43-2,3.09,3.09,0,0,1,1.21-1.34,3.41,3.41,0,0,1,1.79-.47,3.2,3.2,0,0,1,2.43,1,3.78,3.78,0,0,1,1,2.55v.39a4.44,4.44,0,0,1-.42,2,3.1,3.1,0,0,1-1.2,1.33,3.46,3.46,0,0,1-1.81.47,3.21,3.21,0,0,1-2.5-1,4,4,0,0,1-.94-2.78Zm1.66.14a3,3,0,0,0,.47,1.79,1.53,1.53,0,0,0,1.31.65,1.51,1.51,0,0,0,1.31-.66,3.32,3.32,0,0,0,.47-1.92,3,3,0,0,0-.48-1.78,1.63,1.63,0,0,0-2.6,0A3.23,3.23,0,0,0,395.63,244.41Z"/>
          <path class="cls-4" d="M401.94,244.28a4.37,4.37,0,0,1,.79-2.74,2.55,2.55,0,0,1,2.13-1,2.45,2.45,0,0,1,1.9.82v-3.78h1.66V248h-1.51l-.08-.77a2.44,2.44,0,0,1-2,.9,2.55,2.55,0,0,1-2.1-1A4.62,4.62,0,0,1,401.94,244.28Zm1.66.15a3.1,3.1,0,0,0,.43,1.76,1.41,1.41,0,0,0,1.24.63,1.57,1.57,0,0,0,1.49-.91v-3.16a1.56,1.56,0,0,0-1.48-.89,1.42,1.42,0,0,0-1.24.64A3.46,3.46,0,0,0,403.6,244.43Z"/>
          <path class="cls-4" d="M414.63,247.31a2.59,2.59,0,0,1-2.08.86,2.29,2.29,0,0,1-1.82-.7,3,3,0,0,1-.62-2v-4.79h1.66v4.77q0,1.41,1.17,1.41a1.65,1.65,0,0,0,1.64-.87v-5.31h1.66V248h-1.57Z"/>
          <path class="cls-4" d="M421,246.85a1.46,1.46,0,0,0,1-.37,1.26,1.26,0,0,0,.44-.89H424a2.37,2.37,0,0,1-.43,1.29,2.78,2.78,0,0,1-1.09.94,3.46,3.46,0,0,1-4-.65,4,4,0,0,1-.91-2.78v-.17a3.91,3.91,0,0,1,.9-2.7,3.11,3.11,0,0,1,2.46-1,3,3,0,0,1,2.15.77,2.71,2.71,0,0,1,.87,2h-1.56a1.48,1.48,0,0,0-.44-1,1.36,1.36,0,0,0-1-.41,1.48,1.48,0,0,0-1.25.58,3,3,0,0,0-.44,1.77v.27a3,3,0,0,0,.43,1.79A1.46,1.46,0,0,0,421,246.85Z"/>
          <path class="cls-4" d="M427.34,238.84v1.8h1.31v1.23h-1.31V246a.93.93,0,0,0,.17.61.76.76,0,0,0,.6.19,2.36,2.36,0,0,0,.58-.07V248a4,4,0,0,1-1.1.16c-1.27,0-1.91-.7-1.91-2.11v-4.19h-1.22v-1.23h1.22v-1.8Z"/>
          <path class="cls-4" d="M433.09,244.27a4.31,4.31,0,0,1,.43-2,3.15,3.15,0,0,1,1.21-1.34,3.44,3.44,0,0,1,1.79-.47,3.2,3.2,0,0,1,2.43,1,3.78,3.78,0,0,1,1,2.55v.39a4.44,4.44,0,0,1-.42,2,3.12,3.12,0,0,1-1.21,1.33,3.46,3.46,0,0,1-1.81.47,3.22,3.22,0,0,1-2.5-1,4,4,0,0,1-.94-2.78Zm1.66.14a3,3,0,0,0,.47,1.79,1.54,1.54,0,0,0,1.31.65,1.51,1.51,0,0,0,1.31-.66,3.24,3.24,0,0,0,.47-1.92,3,3,0,0,0-.48-1.78,1.63,1.63,0,0,0-2.6,0A3.23,3.23,0,0,0,434.75,244.41Z"/>
          <path class="cls-4" d="M445.24,242.16a3.71,3.71,0,0,0-.67-.06A1.52,1.52,0,0,0,443,243V248h-1.66v-7.4H443l0,.83a1.88,1.88,0,0,1,1.67-1,1.42,1.42,0,0,1,.59.1Z"/>
          <path class="cls-4" d="M453.92,246a.75.75,0,0,0-.36-.68,3.79,3.79,0,0,0-1.21-.41,6.43,6.43,0,0,1-1.42-.45,1.88,1.88,0,0,1-1.24-1.75,2,2,0,0,1,.8-1.6,3.24,3.24,0,0,1,2.05-.64,3.32,3.32,0,0,1,2.15.66,2.08,2.08,0,0,1,.81,1.7h-1.66a1.06,1.06,0,0,0-.35-.8,1.38,1.38,0,0,0-.95-.31,1.46,1.46,0,0,0-.89.25.79.79,0,0,0-.34.68.66.66,0,0,0,.32.59,4.63,4.63,0,0,0,1.3.43,5.91,5.91,0,0,1,1.53.51,2.27,2.27,0,0,1,.83.71,1.85,1.85,0,0,1,.27,1,1.93,1.93,0,0,1-.83,1.61,3.47,3.47,0,0,1-2.17.62,3.84,3.84,0,0,1-1.62-.33,2.59,2.59,0,0,1-1.1-.9,2.08,2.08,0,0,1-.4-1.24h1.61a1.17,1.17,0,0,0,.45.91,2,2,0,0,0,2.08.07A.78.78,0,0,0,453.92,246Z"/>
          <path class="cls-4" d="M460.26,248.17a3.46,3.46,0,0,1-2.56-1,3.64,3.64,0,0,1-1-2.65v-.21a4.43,4.43,0,0,1,.43-2,3.15,3.15,0,0,1,1.2-1.35,3.11,3.11,0,0,1,1.72-.49,2.89,2.89,0,0,1,2.34,1,4.11,4.11,0,0,1,.82,2.72v.67H458.4a2.2,2.2,0,0,0,.61,1.45,1.83,1.83,0,0,0,1.35.54,2.25,2.25,0,0,0,1.86-.93l.89.86a3,3,0,0,1-1.18,1A3.79,3.79,0,0,1,460.26,248.17Zm-.2-6.33a1.42,1.42,0,0,0-1.1.47,2.53,2.53,0,0,0-.54,1.34h3.17v-.13a2.06,2.06,0,0,0-.45-1.26A1.4,1.4,0,0,0,460.06,241.84Z"/>
          <path class="cls-4" d="M468.39,242.16a3.74,3.74,0,0,0-.68-.06,1.53,1.53,0,0,0-1.54.88V248h-1.66v-7.4h1.59l0,.83a1.87,1.87,0,0,1,1.67-1,1.45,1.45,0,0,1,.59.1Z"/>
          <path class="cls-4" d="M472.17,245.93l1.57-5.29h1.71l-2.56,7.4h-1.44l-2.59-7.4h1.72Z"/>
          <path class="cls-4" d="M476.49,238.72a.89.89,0,0,1,.24-.64.92.92,0,0,1,.7-.25.9.9,0,0,1,.69.25.86.86,0,0,1,.25.64.81.81,0,0,1-.25.62.9.9,0,0,1-.69.25.92.92,0,0,1-.7-.25A.84.84,0,0,1,476.49,238.72Zm1.76,9.32h-1.66v-7.4h1.66Z"/>
          <path class="cls-4" d="M483.1,246.85a1.45,1.45,0,0,0,1-.37,1.22,1.22,0,0,0,.44-.89h1.57a2.54,2.54,0,0,1-.43,1.29,2.81,2.81,0,0,1-1.1.94,3.46,3.46,0,0,1-3.95-.65,4,4,0,0,1-.91-2.78v-.17a3.91,3.91,0,0,1,.9-2.7,3.13,3.13,0,0,1,2.46-1,3,3,0,0,1,2.15.77,2.75,2.75,0,0,1,.88,2h-1.57a1.52,1.52,0,0,0-.43-1,1.38,1.38,0,0,0-1-.41,1.45,1.45,0,0,0-1.24.58,3,3,0,0,0-.45,1.77v.27a3,3,0,0,0,.44,1.79A1.44,1.44,0,0,0,483.1,246.85Z"/>
          <path class="cls-4" d="M490.65,248.17a3.43,3.43,0,0,1-2.56-1,3.6,3.6,0,0,1-1-2.65v-.21a4.56,4.56,0,0,1,.42-2,3.29,3.29,0,0,1,1.2-1.35,3.14,3.14,0,0,1,1.73-.49,2.89,2.89,0,0,1,2.33,1,4.05,4.05,0,0,1,.82,2.72v.67h-4.83a2.25,2.25,0,0,0,.61,1.45,1.83,1.83,0,0,0,1.35.54,2.25,2.25,0,0,0,1.86-.93l.9.86a3.06,3.06,0,0,1-1.19,1A3.74,3.74,0,0,1,490.65,248.17Zm-.2-6.33a1.41,1.41,0,0,0-1.1.47,2.53,2.53,0,0,0-.54,1.34H492v-.13a2,2,0,0,0-.44-1.26A1.4,1.4,0,0,0,490.45,241.84Z"/>
        </g>
        <g>
          <path class="cls-4" d="M353,344a3.55,3.55,0,0,1-1.18,2.48,4,4,0,0,1-2.72.89,3.86,3.86,0,0,1-2.1-.56,3.77,3.77,0,0,1-1.4-1.6,5.9,5.9,0,0,1-.51-2.42v-.92a5.92,5.92,0,0,1,.5-2.49,3.79,3.79,0,0,1,1.43-1.65,4,4,0,0,1,2.16-.58,3.86,3.86,0,0,1,2.65.89,3.73,3.73,0,0,1,1.17,2.53h-1.72a2.4,2.4,0,0,0-.63-1.55,2.33,2.33,0,0,0-3.2.35,4.07,4.07,0,0,0-.62,2.42v.88a4.41,4.41,0,0,0,.57,2.46,1.92,1.92,0,0,0,1.7.85,2.2,2.2,0,0,0,1.53-.46,2.37,2.37,0,0,0,.65-1.52Z"/>
          <path class="cls-4" d="M356.18,347.25h-1.66v-10.5h1.66Z"/>
          <path class="cls-4" d="M361.25,347.38a3.43,3.43,0,0,1-2.56-1,3.59,3.59,0,0,1-1-2.65v-.2a4.5,4.5,0,0,1,.42-2,3.32,3.32,0,0,1,1.2-1.36,3.23,3.23,0,0,1,1.73-.49,2.92,2.92,0,0,1,2.33,1,4.07,4.07,0,0,1,.82,2.73v.67h-4.83a2.22,2.22,0,0,0,.61,1.45,1.86,1.86,0,0,0,1.35.53,2.27,2.27,0,0,0,1.86-.92l.9.85a3,3,0,0,1-1.19,1A3.74,3.74,0,0,1,361.25,347.38Zm-.2-6.33a1.4,1.4,0,0,0-1.11.48,2.46,2.46,0,0,0-.53,1.33h3.16v-.12a2,2,0,0,0-.44-1.27A1.4,1.4,0,0,0,361.05,341.05Z"/>
          <path class="cls-4" d="M369.92,347.25a2.89,2.89,0,0,1-.19-.69,2.59,2.59,0,0,1-1.94.82,2.63,2.63,0,0,1-1.82-.63,2,2,0,0,1-.7-1.57,2.11,2.11,0,0,1,.87-1.82,4.3,4.3,0,0,1,2.52-.63h1v-.49a1.28,1.28,0,0,0-.33-.92,1.26,1.26,0,0,0-1-.34,1.45,1.45,0,0,0-.93.28.89.89,0,0,0-.37.72h-1.66a1.83,1.83,0,0,1,.41-1.13,2.62,2.62,0,0,1,1.09-.83,3.73,3.73,0,0,1,1.55-.31,3.06,3.06,0,0,1,2.07.66,2.32,2.32,0,0,1,.8,1.83v3.34a3.72,3.72,0,0,0,.28,1.59v.12Zm-1.82-1.2a1.89,1.89,0,0,0,.92-.24,1.63,1.63,0,0,0,.66-.64v-1.39h-.9a2.42,2.42,0,0,0-1.39.32,1,1,0,0,0-.46.91,1,1,0,0,0,.32.76A1.21,1.21,0,0,0,368.1,346.05Z"/>
          <path class="cls-4" d="M377,341.37a3.82,3.82,0,0,0-.68-.06,1.54,1.54,0,0,0-1.54.88v5.06h-1.66v-7.4h1.59l0,.83a1.89,1.89,0,0,1,1.67-1,1.69,1.69,0,0,1,.59.1Z"/>
          <path class="cls-4" d="M384.09,345.14l1.57-5.29h1.71l-2.56,7.4h-1.44l-2.59-7.4h1.73Z"/>
          <path class="cls-4" d="M388.41,337.93a.86.86,0,0,1,.25-.64.94.94,0,0,1,.69-.25,1,1,0,0,1,.7.25,1,1,0,0,1,0,1.27,1,1,0,0,1-.7.25.94.94,0,0,1-.69-.25A.85.85,0,0,1,388.41,337.93Zm1.77,9.32h-1.66v-7.4h1.66Z"/>
          <path class="cls-4" d="M396.13,345.24a.75.75,0,0,0-.37-.68,4,4,0,0,0-1.21-.41,6.33,6.33,0,0,1-1.41-.45,1.89,1.89,0,0,1-1.25-1.74,2,2,0,0,1,.81-1.6,3.18,3.18,0,0,1,2.05-.65,3.3,3.3,0,0,1,2.14.66,2.08,2.08,0,0,1,.82,1.7h-1.66a1,1,0,0,0-.36-.79,1.31,1.31,0,0,0-.94-.32,1.44,1.44,0,0,0-.89.25.81.81,0,0,0-.35.68.68.68,0,0,0,.32.59,4.42,4.42,0,0,0,1.3.43,6,6,0,0,1,1.54.51,2.17,2.17,0,0,1,.82.72,1.81,1.81,0,0,1,.27,1,2,2,0,0,1-.82,1.62,3.55,3.55,0,0,1-2.17.61,3.78,3.78,0,0,1-1.62-.32,2.71,2.71,0,0,1-1.11-.91,2.14,2.14,0,0,1-.39-1.23h1.61a1.16,1.16,0,0,0,.44.9,1.76,1.76,0,0,0,1.09.32,1.66,1.66,0,0,0,1-.25A.76.76,0,0,0,396.13,345.24Z"/>
          <path class="cls-4" d="M399.21,337.93a.86.86,0,0,1,.25-.64.94.94,0,0,1,.69-.25,1,1,0,0,1,.7.25,1,1,0,0,1,0,1.27,1,1,0,0,1-.7.25.94.94,0,0,1-.69-.25A.85.85,0,0,1,399.21,337.93Zm1.77,9.32h-1.66v-7.4H401Z"/>
          <path class="cls-4" d="M402.47,343.48a4.34,4.34,0,0,1,.44-2,3.15,3.15,0,0,1,1.21-1.34,3.39,3.39,0,0,1,1.79-.47,3.27,3.27,0,0,1,2.43,1,3.78,3.78,0,0,1,1,2.56v.39a4.4,4.4,0,0,1-.42,1.95,3.1,3.1,0,0,1-1.2,1.33,3.39,3.39,0,0,1-1.81.47,3.21,3.21,0,0,1-2.51-1,4,4,0,0,1-.94-2.78Zm1.67.15a2.92,2.92,0,0,0,.47,1.78,1.53,1.53,0,0,0,1.31.65,1.51,1.51,0,0,0,1.31-.66,3.32,3.32,0,0,0,.47-1.92,2.89,2.89,0,0,0-.49-1.78,1.63,1.63,0,0,0-2.6,0A3.25,3.25,0,0,0,404.14,343.63Z"/>
          <path class="cls-4" d="M412.3,339.85l.05.86a2.62,2.62,0,0,1,2.15-1c1.54,0,2.32.89,2.35,2.65v4.89h-1.66v-4.79a1.51,1.51,0,0,0-.31-1,1.28,1.28,0,0,0-1-.33,1.61,1.61,0,0,0-1.5.9v5.27h-1.66v-7.4Z"/>
          <path class="cls-4" d="M426.45,347.25a2.48,2.48,0,0,1-.19-.69,2.81,2.81,0,0,1-3.76.19,2,2,0,0,1-.71-1.57,2.12,2.12,0,0,1,.88-1.82,4.27,4.27,0,0,1,2.51-.63h1v-.49a1.32,1.32,0,0,0-.32-.92,1.27,1.27,0,0,0-1-.34,1.45,1.45,0,0,0-.93.28.88.88,0,0,0-.36.72H422a1.82,1.82,0,0,1,.4-1.13,2.66,2.66,0,0,1,1.1-.83,3.7,3.7,0,0,1,1.55-.31,3.1,3.1,0,0,1,2.07.66,2.31,2.31,0,0,1,.79,1.83v3.34a3.87,3.87,0,0,0,.28,1.59v.12Zm-1.83-1.2a1.9,1.9,0,0,0,.93-.24,1.54,1.54,0,0,0,.65-.64v-1.39h-.89a2.4,2.4,0,0,0-1.39.32,1,1,0,0,0-.47.91,1,1,0,0,0,.32.76A1.23,1.23,0,0,0,424.62,346.05Z"/>
          <path class="cls-4" d="M431.14,339.85l.05.86a2.66,2.66,0,0,1,2.16-1c1.54,0,2.32.89,2.35,2.65v4.89H434v-4.79a1.57,1.57,0,0,0-.31-1,1.28,1.28,0,0,0-1-.33,1.61,1.61,0,0,0-1.5.9v5.27h-1.66v-7.4Z"/>
          <path class="cls-4" d="M437.08,343.5a4.4,4.4,0,0,1,.79-2.75,2.55,2.55,0,0,1,2.13-1,2.43,2.43,0,0,1,1.9.83v-3.79h1.66v10.5h-1.51l-.08-.77a2.44,2.44,0,0,1-2,.9,2.52,2.52,0,0,1-2.1-1A4.6,4.6,0,0,1,437.08,343.5Zm1.66.14a3.08,3.08,0,0,0,.43,1.76,1.41,1.41,0,0,0,1.24.63,1.57,1.57,0,0,0,1.49-.91V342a1.55,1.55,0,0,0-1.48-.88,1.41,1.41,0,0,0-1.24.63A3.38,3.38,0,0,0,438.74,343.64Z"/>
          <path class="cls-4" d="M450.34,339.85l.05.77a2.68,2.68,0,0,1,2.13-.91,2,2,0,0,1,2,1.14,2.62,2.62,0,0,1,2.27-1.14,2.3,2.3,0,0,1,1.82.68,3,3,0,0,1,.61,2v4.86h-1.66v-4.81a1.52,1.52,0,0,0-.3-1,1.36,1.36,0,0,0-1-.32,1.4,1.4,0,0,0-.93.3,1.55,1.55,0,0,0-.5.8v5.07h-1.66v-4.87a1.18,1.18,0,0,0-1.33-1.3,1.44,1.44,0,0,0-1.41.81v5.36h-1.67v-7.4Z"/>
          <path class="cls-4" d="M461,337.93a.86.86,0,0,1,.25-.64.94.94,0,0,1,.69-.25,1,1,0,0,1,.7.25,1,1,0,0,1,0,1.27,1,1,0,0,1-.7.25.94.94,0,0,1-.69-.25A.85.85,0,0,1,461,337.93Zm1.77,9.32h-1.66v-7.4h1.66Z"/>
          <path class="cls-4" d="M468.68,345.24a.75.75,0,0,0-.37-.68,4,4,0,0,0-1.21-.41,6.33,6.33,0,0,1-1.41-.45,1.89,1.89,0,0,1-1.25-1.74,2,2,0,0,1,.81-1.6,3.18,3.18,0,0,1,2.05-.65,3.3,3.3,0,0,1,2.14.66,2.08,2.08,0,0,1,.82,1.7H468.6a1,1,0,0,0-.36-.79,1.31,1.31,0,0,0-.94-.32,1.44,1.44,0,0,0-.89.25.81.81,0,0,0-.35.68.68.68,0,0,0,.32.59,4.42,4.42,0,0,0,1.3.43,6,6,0,0,1,1.54.51,2.17,2.17,0,0,1,.82.72,1.81,1.81,0,0,1,.27,1,2,2,0,0,1-.82,1.62,3.55,3.55,0,0,1-2.17.61,3.78,3.78,0,0,1-1.62-.32,2.71,2.71,0,0,1-1.11-.91,2.14,2.14,0,0,1-.39-1.23h1.61a1.16,1.16,0,0,0,.44.9,1.76,1.76,0,0,0,1.09.32,1.66,1.66,0,0,0,1-.25A.76.76,0,0,0,468.68,345.24Z"/>
          <path class="cls-4" d="M475.91,345.24a.77.77,0,0,0-.37-.68,4.05,4.05,0,0,0-1.21-.41,6.43,6.43,0,0,1-1.42-.45,1.88,1.88,0,0,1-1.24-1.74,2,2,0,0,1,.8-1.6,3.21,3.21,0,0,1,2.06-.65,3.31,3.31,0,0,1,2.14.66,2.11,2.11,0,0,1,.82,1.7h-1.67a1,1,0,0,0-.35-.79,1.33,1.33,0,0,0-.94-.32,1.48,1.48,0,0,0-.9.25.8.8,0,0,0-.34.68.66.66,0,0,0,.32.59,4.31,4.31,0,0,0,1.3.43,5.91,5.91,0,0,1,1.53.51,2.2,2.2,0,0,1,.83.72,1.81,1.81,0,0,1,.27,1,2,2,0,0,1-.83,1.62,3.52,3.52,0,0,1-2.16.61,3.78,3.78,0,0,1-1.62-.32,2.58,2.58,0,0,1-1.11-.91,2.08,2.08,0,0,1-.4-1.23H473a1.16,1.16,0,0,0,.44.9,1.74,1.74,0,0,0,1.09.32,1.63,1.63,0,0,0,1-.25A.77.77,0,0,0,475.91,345.24Z"/>
          <path class="cls-4" d="M479,337.93a.89.89,0,0,1,.24-.64,1,1,0,0,1,.7-.25.94.94,0,0,1,.69.25.93.93,0,0,1,0,1.27.94.94,0,0,1-.69.25,1,1,0,0,1-.7-.25A.88.88,0,0,1,479,337.93Zm1.76,9.32h-1.66v-7.4h1.66Z"/>
          <path class="cls-4" d="M482.25,343.48a4.34,4.34,0,0,1,.43-2,3.21,3.21,0,0,1,1.21-1.34,3.44,3.44,0,0,1,1.79-.47,3.24,3.24,0,0,1,2.43,1,3.79,3.79,0,0,1,1,2.56v.39a4.4,4.4,0,0,1-.42,1.95,3.06,3.06,0,0,1-1.21,1.33,3.36,3.36,0,0,1-1.8.47,3.2,3.2,0,0,1-2.51-1,4,4,0,0,1-.94-2.78Zm1.66.15a3,3,0,0,0,.47,1.78,1.55,1.55,0,0,0,1.32.65,1.5,1.5,0,0,0,1.3-.66,3.24,3.24,0,0,0,.47-1.92,3,3,0,0,0-.48-1.78,1.55,1.55,0,0,0-1.31-.65,1.52,1.52,0,0,0-1.29.64A3.24,3.24,0,0,0,483.91,343.63Z"/>
          <path class="cls-4" d="M492.07,339.85l.05.86a2.65,2.65,0,0,1,2.15-1c1.54,0,2.33.89,2.36,2.65v4.89H495v-4.79a1.57,1.57,0,0,0-.3-1,1.28,1.28,0,0,0-1-.33,1.61,1.61,0,0,0-1.5.9v5.27h-1.66v-7.4Z"/>
        </g>
        <g>
          <path class="cls-4" d="M626.73,245.72h-3.86l-.8,2.32h-1.8l3.76-10h1.55l3.77,10h-1.81Zm-3.37-1.4h2.88l-1.44-4.13Z"/>
          <path class="cls-4" d="M630,244.28a4.44,4.44,0,0,1,.79-2.74,2.55,2.55,0,0,1,2.13-1,2.44,2.44,0,0,1,1.9.82v-3.78h1.66V248H635l-.08-.77a2.46,2.46,0,0,1-2,.9,2.56,2.56,0,0,1-2.11-1A4.62,4.62,0,0,1,630,244.28Zm1.66.15a3.09,3.09,0,0,0,.44,1.76,1.41,1.41,0,0,0,1.23.63,1.56,1.56,0,0,0,1.49-.91v-3.16a1.55,1.55,0,0,0-1.48-.89,1.43,1.43,0,0,0-1.24.64A3.46,3.46,0,0,0,631.66,244.43Z"/>
          <path class="cls-4" d="M641.47,248.17a3.46,3.46,0,0,1-2.56-1,3.64,3.64,0,0,1-1-2.65v-.21a4.43,4.43,0,0,1,.43-2,3.15,3.15,0,0,1,1.2-1.35,3.11,3.11,0,0,1,1.72-.49,2.89,2.89,0,0,1,2.34,1,4.05,4.05,0,0,1,.82,2.72v.67h-4.83a2.2,2.2,0,0,0,.61,1.45,1.83,1.83,0,0,0,1.35.54,2.25,2.25,0,0,0,1.86-.93l.89.86a3,3,0,0,1-1.18,1A3.79,3.79,0,0,1,641.47,248.17Zm-.2-6.33a1.42,1.42,0,0,0-1.1.47,2.53,2.53,0,0,0-.54,1.34h3.17v-.13a2.06,2.06,0,0,0-.45-1.26A1.4,1.4,0,0,0,641.27,241.84Z"/>
          <path class="cls-4" d="M645.42,244.28a4.37,4.37,0,0,1,.79-2.76,2.57,2.57,0,0,1,2.15-1,2.43,2.43,0,0,1,2,.87l.09-.73h1.48v10.24h-1.66v-3.47a2.47,2.47,0,0,1-1.89.76,2.54,2.54,0,0,1-2.12-1A4.54,4.54,0,0,1,645.42,244.28Zm1.66.14a3.06,3.06,0,0,0,.45,1.78,1.42,1.42,0,0,0,1.24.65,1.57,1.57,0,0,0,1.46-.85v-3.36a1.56,1.56,0,0,0-1.45-.8,1.47,1.47,0,0,0-1.25.63A3.38,3.38,0,0,0,647.08,244.42Z"/>
          <path class="cls-4" d="M658.16,247.31a2.59,2.59,0,0,1-2.08.86,2.29,2.29,0,0,1-1.82-.7,3,3,0,0,1-.62-2v-4.79h1.66v4.77q0,1.41,1.17,1.41a1.63,1.63,0,0,0,1.63-.87v-5.31h1.67V248H658.2Z"/>
          <path class="cls-4" d="M665.88,248a2.34,2.34,0,0,1-.19-.7,2.8,2.8,0,0,1-3.76.2,2.05,2.05,0,0,1-.71-1.58,2.09,2.09,0,0,1,.88-1.81,4.27,4.27,0,0,1,2.51-.63h1V243a1.32,1.32,0,0,0-.32-.92,1.28,1.28,0,0,0-1-.34,1.45,1.45,0,0,0-.93.28.88.88,0,0,0-.36.72h-1.66a1.86,1.86,0,0,1,.4-1.14,2.74,2.74,0,0,1,1.1-.83,3.86,3.86,0,0,1,1.55-.3,3.1,3.1,0,0,1,2.07.66,2.31,2.31,0,0,1,.79,1.83v3.34a3.75,3.75,0,0,0,.28,1.59V248Zm-1.83-1.2a1.9,1.9,0,0,0,.93-.24,1.6,1.6,0,0,0,.65-.64v-1.4h-.89a2.48,2.48,0,0,0-1.39.32,1.06,1.06,0,0,0-.47.91,1,1,0,0,0,.32.77A1.28,1.28,0,0,0,664.05,246.84Z"/>
          <path class="cls-4" d="M671.11,238.84v1.8h1.31v1.23h-1.31V246a.93.93,0,0,0,.17.61.76.76,0,0,0,.6.19,2.36,2.36,0,0,0,.58-.07V248a3.89,3.89,0,0,1-1.09.16c-1.28,0-1.92-.7-1.92-2.11v-4.19h-1.21v-1.23h1.21v-1.8Z"/>
          <path class="cls-4" d="M676.94,248.17a3.46,3.46,0,0,1-2.56-1,3.64,3.64,0,0,1-1-2.65v-.21a4.56,4.56,0,0,1,.43-2A3.22,3.22,0,0,1,675,241a3.11,3.11,0,0,1,1.72-.49,2.89,2.89,0,0,1,2.34,1,4.05,4.05,0,0,1,.82,2.72v.67h-4.83a2.2,2.2,0,0,0,.61,1.45,1.83,1.83,0,0,0,1.35.54,2.25,2.25,0,0,0,1.86-.93l.89.86a3,3,0,0,1-1.18,1A3.79,3.79,0,0,1,676.94,248.17Zm-.19-6.33a1.43,1.43,0,0,0-1.11.47,2.45,2.45,0,0,0-.53,1.34h3.16v-.13a2.06,2.06,0,0,0-.44-1.26A1.4,1.4,0,0,0,676.75,241.84Z"/>
          <path class="cls-4" d="M631.84,260.62h-4v4.22h-1.72v-10h6.32v1.4h-4.6v3h4Z"/>
          <path class="cls-4" d="M638,264.11a2.59,2.59,0,0,1-2.08.86,2.27,2.27,0,0,1-1.82-.7,3,3,0,0,1-.62-2v-4.79h1.66v4.77q0,1.41,1.17,1.41a1.64,1.64,0,0,0,1.63-.87v-5.31h1.66v7.4H638Z"/>
          <path class="cls-4" d="M642.81,257.44l0,.85a2.68,2.68,0,0,1,2.16-1c1.54,0,2.32.88,2.35,2.65v4.89H645.7V260a1.49,1.49,0,0,0-.31-1,1.29,1.29,0,0,0-1-.34,1.62,1.62,0,0,0-1.5.91v5.27h-1.66v-7.4Z"/>
          <path class="cls-4" d="M648.74,261.08a4.37,4.37,0,0,1,.79-2.74,2.55,2.55,0,0,1,2.13-1,2.44,2.44,0,0,1,1.9.82v-3.78h1.66v10.5h-1.5l-.09-.77a2.44,2.44,0,0,1-2,.9,2.55,2.55,0,0,1-2.1-1A4.62,4.62,0,0,1,648.74,261.08Zm1.66.15a3.1,3.1,0,0,0,.43,1.76,1.43,1.43,0,0,0,1.24.63,1.57,1.57,0,0,0,1.49-.91v-3.16a1.56,1.56,0,0,0-1.48-.89,1.42,1.42,0,0,0-1.24.64A3.46,3.46,0,0,0,650.4,261.23Z"/>
          <path class="cls-4" d="M657,255.52a.85.85,0,0,1,.93-.89.92.92,0,0,1,.7.25.9.9,0,0,1,.25.64.85.85,0,0,1-.25.62.92.92,0,0,1-.7.25.9.9,0,0,1-.69-.25A.84.84,0,0,1,657,255.52Zm1.76,9.32h-1.66v-7.4h1.66Z"/>
          <path class="cls-4" d="M662.07,257.44l0,.85a2.64,2.64,0,0,1,2.15-1c1.54,0,2.32.88,2.35,2.65v4.89H665V260a1.54,1.54,0,0,0-.3-1,1.33,1.33,0,0,0-1-.34,1.59,1.59,0,0,0-1.49.91v5.27H660.5v-7.4Z"/>
          <path class="cls-4" d="M668,261.08a4.33,4.33,0,0,1,.81-2.75,2.59,2.59,0,0,1,2.15-1,2.45,2.45,0,0,1,2,.88l.08-.74h1.49v7.17a3,3,0,0,1-.9,2.3,3.44,3.44,0,0,1-2.44.84,4,4,0,0,1-1.59-.34,2.82,2.82,0,0,1-1.18-.89l.78-1a2.39,2.39,0,0,0,1.89.9,1.84,1.84,0,0,0,1.31-.44,1.76,1.76,0,0,0,.47-1.32v-.5a2.4,2.4,0,0,1-1.91.8,2.58,2.58,0,0,1-2.12-1A4.47,4.47,0,0,1,668,261.08Zm1.66.15a3,3,0,0,0,.45,1.75,1.47,1.47,0,0,0,1.26.64,1.6,1.6,0,0,0,1.49-.86V259.5a1.56,1.56,0,0,0-1.47-.84,1.49,1.49,0,0,0-1.28.65A3.38,3.38,0,0,0,669.68,261.23Z"/>
        </g>
      </g>
    </g>
  </g>
</svg>
