<svg xmlns="http://www.w3.org/2000/svg" width="297mm" height="210mm" viewBox="0 0 841.89 595.28">
  <defs>
    <style>
      .cls-1 {
        fill: #4982ab;
      }

      .cls-2 {
        fill: #5a93bb;
      }

      .cls-3 {
        fill: #fff;
      }

      .cls-4 {
        fill: #659b75;
      }

      .cls-5 {
        fill: #529267;
      }

      .cls-10, .cls-6 {
        fill: none;
        stroke-miterlimit: 10;
        stroke-width: 3px;
      }

      .cls-6 {
        stroke: #529267;
      }

      .cls-7 {
        fill: #e6bd69;
      }

      .cls-8 {
        fill: #d56761;
      }

      .cls-9 {
        fill: #daa147;
      }

      .cls-10 {
        stroke: #daa147;
      }
    </style>
  </defs>
  <title>pyramid3</title>
  <g id="Слой_2" data-name="Слой 2">
    <g id="Layer_4" data-name="Layer 4">
      <g>
        <g>
          <polygon class="cls-1" points="293.63 198.43 420.94 0 280.63 198.43 293.63 198.43"/>
          <g>
            <polygon class="cls-2" points="293.63 198.43 548.26 198.43 420.94 0 293.63 198.43"/>
            <polygon class="cls-1" points="420.94 0 548.26 198.43 561.26 198.43 420.94 0"/>
          </g>
        </g>
        <g>
          <path class="cls-3" d="M372.23,130.76a3.55,3.55,0,0,1-1.18,2.48,4,4,0,0,1-2.72.9,3.84,3.84,0,0,1-2.1-.57,3.72,3.72,0,0,1-1.4-1.6,5.7,5.7,0,0,1-.51-2.41v-.93a5.84,5.84,0,0,1,.5-2.48,3.76,3.76,0,0,1,1.43-1.66,4,4,0,0,1,2.16-.58,3.86,3.86,0,0,1,2.65.89,3.75,3.75,0,0,1,1.17,2.53h-1.72a2.48,2.48,0,0,0-.63-1.55,2.34,2.34,0,0,0-3.21.35,4.17,4.17,0,0,0-.61,2.42v.88a4.39,4.39,0,0,0,.57,2.46,1.92,1.92,0,0,0,1.7.85,2.22,2.22,0,0,0,1.53-.46,2.37,2.37,0,0,0,.65-1.52Z"/>
          <path class="cls-3" d="M375.25,127.41a2.59,2.59,0,0,1,2.06-.94q2.35,0,2.4,2.7V134h-1.66v-4.77a1.41,1.41,0,0,0-.34-1.08,1.31,1.31,0,0,0-1-.32,1.6,1.6,0,0,0-1.49.89V134h-1.66V123.5h1.66Z"/>
          <path class="cls-3" d="M385.81,134a2.42,2.42,0,0,1-.2-.69,2.59,2.59,0,0,1-1.94.83,2.64,2.64,0,0,1-1.82-.64,2,2,0,0,1-.7-1.57,2.11,2.11,0,0,1,.88-1.82,4.25,4.25,0,0,1,2.51-.63h1V129a1.3,1.3,0,0,0-.32-.92,1.29,1.29,0,0,0-1-.35,1.46,1.46,0,0,0-.93.29.86.86,0,0,0-.36.72h-1.66a1.82,1.82,0,0,1,.4-1.14,2.74,2.74,0,0,1,1.1-.83,3.86,3.86,0,0,1,1.55-.3,3.09,3.09,0,0,1,2.07.65,2.33,2.33,0,0,1,.79,1.84v3.33a3.68,3.68,0,0,0,.28,1.59V134ZM384,132.8a1.9,1.9,0,0,0,.93-.24,1.6,1.6,0,0,0,.65-.64v-1.39h-.9a2.39,2.39,0,0,0-1.38.32,1,1,0,0,0-.47.91,1,1,0,0,0,.32.76A1.21,1.21,0,0,0,384,132.8Z"/>
          <path class="cls-3" d="M390.5,126.6l.05.86a2.66,2.66,0,0,1,2.15-1c1.54,0,2.33.88,2.35,2.64V134h-1.66v-4.79a1.52,1.52,0,0,0-.3-1,1.27,1.27,0,0,0-1-.34,1.59,1.59,0,0,0-1.49.91V134h-1.66v-7.4Z"/>
          <path class="cls-3" d="M396.46,130.25a4.31,4.31,0,0,1,.81-2.75,2.58,2.58,0,0,1,2.15-1,2.41,2.41,0,0,1,2,.88l.08-.75H403v7.17a3,3,0,0,1-.91,2.3,3.44,3.44,0,0,1-2.44.84,3.85,3.85,0,0,1-1.59-.34,2.8,2.8,0,0,1-1.18-.88l.79-1a2.35,2.35,0,0,0,1.88.91,1.84,1.84,0,0,0,1.31-.45,1.71,1.71,0,0,0,.48-1.31v-.5a2.47,2.47,0,0,1-1.92.8,2.6,2.6,0,0,1-2.12-1A4.44,4.44,0,0,1,396.46,130.25Zm1.65.14a3,3,0,0,0,.45,1.75,1.47,1.47,0,0,0,1.27.64,1.59,1.59,0,0,0,1.49-.86v-3.25a1.59,1.59,0,0,0-1.48-.84,1.47,1.47,0,0,0-1.28.65A3.35,3.35,0,0,0,398.11,130.39Z"/>
          <path class="cls-3" d="M407.94,134.14a3.41,3.41,0,0,1-2.56-1,3.61,3.61,0,0,1-1-2.65v-.2a4.37,4.37,0,0,1,.43-2A3.24,3.24,0,0,1,406,127a3.19,3.19,0,0,1,1.72-.48,2.9,2.9,0,0,1,2.33,1,4.07,4.07,0,0,1,.83,2.73v.67h-4.84a2.23,2.23,0,0,0,.62,1.45,1.83,1.83,0,0,0,1.35.53,2.27,2.27,0,0,0,1.86-.92l.89.85a3,3,0,0,1-1.19,1A3.72,3.72,0,0,1,407.94,134.14Zm-.2-6.34a1.4,1.4,0,0,0-1.1.48,2.5,2.5,0,0,0-.54,1.33h3.17v-.12a2,2,0,0,0-.45-1.26A1.37,1.37,0,0,0,407.74,127.8Z"/>
          <path class="cls-3" d="M411.88,130.25a4.4,4.4,0,0,1,.8-2.75,2.53,2.53,0,0,1,2.12-1,2.39,2.39,0,0,1,1.9.82V123.5h1.66V134h-1.5l-.08-.77a2.44,2.44,0,0,1-2,.91,2.51,2.51,0,0,1-2.1-1A4.52,4.52,0,0,1,411.88,130.25Zm1.67.14a3.08,3.08,0,0,0,.43,1.76,1.41,1.41,0,0,0,1.23.63,1.56,1.56,0,0,0,1.49-.91v-3.15a1.52,1.52,0,0,0-1.47-.89,1.42,1.42,0,0,0-1.25.64A3.41,3.41,0,0,0,413.55,130.39Z"/>
          <path class="cls-3" d="M428,134a2.89,2.89,0,0,1-.19-.69,2.59,2.59,0,0,1-1.94.83,2.64,2.64,0,0,1-1.82-.64,2,2,0,0,1-.7-1.57,2.11,2.11,0,0,1,.88-1.82,4.25,4.25,0,0,1,2.51-.63h1V129a1.3,1.3,0,0,0-.32-.92,1.29,1.29,0,0,0-1-.35,1.46,1.46,0,0,0-.93.29.86.86,0,0,0-.36.72H423.5a1.83,1.83,0,0,1,.41-1.14,2.68,2.68,0,0,1,1.1-.83,3.81,3.81,0,0,1,1.54-.3,3.1,3.1,0,0,1,2.08.65,2.36,2.36,0,0,1,.79,1.84v3.33a3.68,3.68,0,0,0,.28,1.59V134Zm-1.82-1.2a1.86,1.86,0,0,0,.92-.24,1.63,1.63,0,0,0,.66-.64v-1.39h-.9a2.42,2.42,0,0,0-1.39.32,1,1,0,0,0-.46.91,1,1,0,0,0,.32.76A1.21,1.21,0,0,0,426.18,132.8Z"/>
          <path class="cls-3" d="M433.24,124.81v1.79h1.3v1.23h-1.3V132a.84.84,0,0,0,.17.61.75.75,0,0,0,.59.19,2.38,2.38,0,0,0,.59-.07V134a4.37,4.37,0,0,1-1.1.16c-1.27,0-1.91-.71-1.91-2.12v-4.19h-1.22V126.6h1.22v-1.79Z"/>
          <path class="cls-3" d="M437.89,124.81v1.79h1.31v1.23h-1.31V132a.89.89,0,0,0,.17.61.76.76,0,0,0,.6.19,2.3,2.3,0,0,0,.58-.07V134a4.29,4.29,0,0,1-1.09.16c-1.28,0-1.92-.71-1.92-2.12v-4.19H435V126.6h1.21v-1.79Z"/>
          <path class="cls-3" d="M440.47,124.68a.88.88,0,0,1,.24-.63,1.07,1.07,0,0,1,1.4,0,.95.95,0,0,1,0,1.26,1.11,1.11,0,0,1-1.4,0A.88.88,0,0,1,440.47,124.68Zm1.77,9.32h-1.67v-7.4h1.67Z"/>
          <path class="cls-3" d="M446.13,124.81v1.79h1.3v1.23h-1.3V132a.89.89,0,0,0,.16.61.76.76,0,0,0,.6.19,2.3,2.3,0,0,0,.58-.07V134a4.29,4.29,0,0,1-1.09.16c-1.28,0-1.92-.71-1.92-2.12v-4.19h-1.21V126.6h1.21v-1.79Z"/>
          <path class="cls-3" d="M453.18,133.28a2.59,2.59,0,0,1-2.08.86,2.29,2.29,0,0,1-1.82-.71,3,3,0,0,1-.62-2v-4.8h1.66v4.78c0,.93.39,1.4,1.17,1.4a1.66,1.66,0,0,0,1.64-.86V126.6h1.66V134h-1.57Z"/>
          <path class="cls-3" d="M456.17,130.25a4.4,4.4,0,0,1,.79-2.75,2.54,2.54,0,0,1,2.13-1,2.42,2.42,0,0,1,1.9.82V123.5h1.66V134h-1.51l-.08-.77a2.42,2.42,0,0,1-2,.91,2.53,2.53,0,0,1-2.1-1A4.52,4.52,0,0,1,456.17,130.25Zm1.66.14a3.08,3.08,0,0,0,.43,1.76,1.41,1.41,0,0,0,1.24.63,1.57,1.57,0,0,0,1.49-.91v-3.15a1.54,1.54,0,0,0-1.48-.89,1.4,1.4,0,0,0-1.24.64A3.32,3.32,0,0,0,457.83,130.39Z"/>
          <path class="cls-3" d="M467.64,134.14a3.4,3.4,0,0,1-2.56-1,3.57,3.57,0,0,1-1-2.65v-.2a4.5,4.5,0,0,1,.42-2,3.38,3.38,0,0,1,1.2-1.36,3.22,3.22,0,0,1,1.73-.48,2.91,2.91,0,0,1,2.33,1,4.07,4.07,0,0,1,.82,2.73v.67h-4.83a2.27,2.27,0,0,0,.61,1.45,1.86,1.86,0,0,0,1.35.53,2.25,2.25,0,0,0,1.86-.92l.9.85a3,3,0,0,1-1.19,1A3.75,3.75,0,0,1,467.64,134.14Zm-.2-6.34a1.38,1.38,0,0,0-1.1.48,2.5,2.5,0,0,0-.54,1.33H469v-.12a2,2,0,0,0-.44-1.26A1.37,1.37,0,0,0,467.44,127.8Z"/>
          <path class="cls-3" d="M476,132a.75.75,0,0,0-.37-.68,4,4,0,0,0-1.21-.41,6.61,6.61,0,0,1-1.42-.45,1.89,1.89,0,0,1-1.24-1.74,2,2,0,0,1,.81-1.6,3.18,3.18,0,0,1,2.05-.64,3.35,3.35,0,0,1,2.14.65,2.08,2.08,0,0,1,.82,1.71H476a1,1,0,0,0-.36-.8,1.35,1.35,0,0,0-.94-.32,1.51,1.51,0,0,0-.89.25.81.81,0,0,0-.35.68.69.69,0,0,0,.32.6,4.5,4.5,0,0,0,1.3.42,6.53,6.53,0,0,1,1.54.52,2.07,2.07,0,0,1,.82.71,1.81,1.81,0,0,1,.27,1,1.92,1.92,0,0,1-.82,1.62,3.58,3.58,0,0,1-2.17.62,3.78,3.78,0,0,1-1.62-.33,2.7,2.7,0,0,1-1.11-.9,2.2,2.2,0,0,1-.4-1.24h1.62a1.16,1.16,0,0,0,.44.9,1.7,1.7,0,0,0,1.09.32,1.66,1.66,0,0,0,1-.25A.75.75,0,0,0,476,132Z"/>
          <path class="cls-3" d="M382.21,150.8a2.89,2.89,0,0,1-.19-.69,2.59,2.59,0,0,1-1.94.83,2.64,2.64,0,0,1-1.82-.64,2,2,0,0,1-.7-1.57,2.1,2.1,0,0,1,.88-1.82,4.25,4.25,0,0,1,2.51-.63h1v-.48a1.3,1.3,0,0,0-.32-.92,1.29,1.29,0,0,0-1-.35,1.51,1.51,0,0,0-.93.28.89.89,0,0,0-.36.73h-1.67a1.83,1.83,0,0,1,.41-1.14,2.59,2.59,0,0,1,1.1-.83,3.81,3.81,0,0,1,1.54-.3,3.06,3.06,0,0,1,2.07.65,2.33,2.33,0,0,1,.8,1.83v3.34a3.68,3.68,0,0,0,.28,1.59v.12Zm-1.82-1.2a1.86,1.86,0,0,0,.92-.24,1.63,1.63,0,0,0,.66-.64v-1.39h-.9a2.42,2.42,0,0,0-1.39.32,1,1,0,0,0-.46.91.94.94,0,0,0,.32.76A1.21,1.21,0,0,0,380.39,149.6Z"/>
          <path class="cls-3" d="M386.91,143.4l0,.86a2.64,2.64,0,0,1,2.15-1c1.54,0,2.32.88,2.35,2.64v4.89H389.8V146a1.52,1.52,0,0,0-.3-1,1.29,1.29,0,0,0-1-.34,1.6,1.6,0,0,0-1.5.91v5.26h-1.66v-7.4Z"/>
          <path class="cls-3" d="M392.84,147.05a4.4,4.4,0,0,1,.8-2.75,2.51,2.51,0,0,1,2.12-1,2.39,2.39,0,0,1,1.9.82V140.3h1.66v10.5h-1.5l-.08-.77a2.44,2.44,0,0,1-2,.91,2.51,2.51,0,0,1-2.1-1.05A4.52,4.52,0,0,1,392.84,147.05Zm1.66.14a3.07,3.07,0,0,0,.44,1.76,1.41,1.41,0,0,0,1.23.63,1.56,1.56,0,0,0,1.49-.91v-3.15a1.53,1.53,0,0,0-1.47-.89,1.42,1.42,0,0,0-1.25.64A3.4,3.4,0,0,0,394.5,147.19Z"/>
          <path class="cls-3" d="M411,147.18a4.39,4.39,0,0,1-.77,2.74,2.49,2.49,0,0,1-2.11,1,2.41,2.41,0,0,1-2-.94l-.09.8h-1.5V140.3h1.66v3.81a2.41,2.41,0,0,1,1.93-.84,2.52,2.52,0,0,1,2.13,1,4.49,4.49,0,0,1,.77,2.81Zm-1.66-.15a3.15,3.15,0,0,0-.42-1.8,1.41,1.41,0,0,0-1.23-.6,1.54,1.54,0,0,0-1.52.94v3.05a1.56,1.56,0,0,0,1.53,1,1.38,1.38,0,0,0,1.2-.58,3,3,0,0,0,.44-1.75Z"/>
          <path class="cls-3" d="M415.68,150.94a3.47,3.47,0,0,1-2.56-1,3.61,3.61,0,0,1-1-2.65v-.2a4.37,4.37,0,0,1,.43-2,3.24,3.24,0,0,1,1.2-1.36,3.19,3.19,0,0,1,1.72-.48,2.88,2.88,0,0,1,2.33,1,4.07,4.07,0,0,1,.83,2.73v.67h-4.83a2.22,2.22,0,0,0,.61,1.45,1.85,1.85,0,0,0,1.35.53,2.27,2.27,0,0,0,1.86-.92l.89.85a3,3,0,0,1-1.18,1A3.79,3.79,0,0,1,415.68,150.94Zm-.2-6.34a1.4,1.4,0,0,0-1.1.48,2.5,2.5,0,0,0-.54,1.33H417v-.12a2,2,0,0,0-.45-1.26A1.37,1.37,0,0,0,415.48,144.6Z"/>
          <path class="cls-3" d="M421.57,144.21a2.61,2.61,0,0,1,2.06-.94q2.37,0,2.4,2.7v4.83h-1.66V146a1.5,1.5,0,0,0-.33-1.09,1.37,1.37,0,0,0-1-.31,1.6,1.6,0,0,0-1.49.89v5.28h-1.66V140.3h1.66Z"/>
          <path class="cls-3" d="M432.13,150.8a2.48,2.48,0,0,1-.19-.69,2.78,2.78,0,0,1-3.76.19,2,2,0,0,1-.71-1.57,2.12,2.12,0,0,1,.88-1.82,4.27,4.27,0,0,1,2.51-.63h1v-.48a1.17,1.17,0,0,0-1.3-1.27,1.55,1.55,0,0,0-.93.28.89.89,0,0,0-.36.73h-1.66a1.82,1.82,0,0,1,.4-1.14,2.66,2.66,0,0,1,1.1-.83,3.86,3.86,0,0,1,1.55-.3,3.08,3.08,0,0,1,2.07.65,2.29,2.29,0,0,1,.79,1.83v3.34a3.84,3.84,0,0,0,.28,1.59v.12Zm-1.83-1.2a1.9,1.9,0,0,0,.93-.24,1.54,1.54,0,0,0,.65-.64v-1.39H431a2.4,2.4,0,0,0-1.39.32,1,1,0,0,0-.47.91,1,1,0,0,0,.32.76A1.23,1.23,0,0,0,430.3,149.6Z"/>
          <path class="cls-3" d="M437.79,148.69l1.56-5.29h1.72l-2.56,7.4h-1.45l-2.58-7.4h1.72Z"/>
          <path class="cls-3" d="M442.11,141.48a.88.88,0,0,1,.24-.63.93.93,0,0,1,.7-.26.9.9,0,0,1,.69.26.92.92,0,0,1,0,1.26.94.94,0,0,1-.69.25,1,1,0,0,1-.7-.25A.88.88,0,0,1,442.11,141.48Zm1.76,9.32h-1.66v-7.4h1.66Z"/>
          <path class="cls-3" d="M445.37,147a4.37,4.37,0,0,1,.43-2,3.21,3.21,0,0,1,1.21-1.34,3.43,3.43,0,0,1,1.79-.46,3.23,3.23,0,0,1,2.43,1,3.81,3.81,0,0,1,1,2.56v.39a4.37,4.37,0,0,1-.42,1.95,3,3,0,0,1-1.21,1.33,3.36,3.36,0,0,1-1.8.48,3.2,3.2,0,0,1-2.51-1.05,4,4,0,0,1-.94-2.77Zm1.66.15a3,3,0,0,0,.47,1.78,1.52,1.52,0,0,0,1.32.65,1.5,1.5,0,0,0,1.3-.66,3.2,3.2,0,0,0,.47-1.92,2.93,2.93,0,0,0-.48-1.77,1.54,1.54,0,0,0-1.31-.66,1.51,1.51,0,0,0-1.29.65A3.21,3.21,0,0,0,447,147.18Z"/>
          <path class="cls-3" d="M457.52,144.92a3.64,3.64,0,0,0-.67,0,1.52,1.52,0,0,0-1.54.87v5.06h-1.66v-7.4h1.58l0,.83a1.86,1.86,0,0,1,1.66-1,1.63,1.63,0,0,1,.59.09Z"/>
          <path class="cls-3" d="M462.72,148.79a.75.75,0,0,0-.37-.68,4,4,0,0,0-1.21-.41,6.33,6.33,0,0,1-1.41-.45,1.89,1.89,0,0,1-1.25-1.74,2,2,0,0,1,.81-1.6,3.18,3.18,0,0,1,2-.64,3.35,3.35,0,0,1,2.14.65,2.08,2.08,0,0,1,.82,1.7h-1.66a1,1,0,0,0-.36-.79,1.37,1.37,0,0,0-.94-.32,1.51,1.51,0,0,0-.89.25.81.81,0,0,0-.35.68.69.69,0,0,0,.32.6,4.5,4.5,0,0,0,1.3.42,6.53,6.53,0,0,1,1.54.52,2.07,2.07,0,0,1,.82.71,1.81,1.81,0,0,1,.27,1,1.92,1.92,0,0,1-.82,1.62,3.58,3.58,0,0,1-2.17.62,3.78,3.78,0,0,1-1.62-.33,2.7,2.7,0,0,1-1.11-.9,2.19,2.19,0,0,1-.39-1.24h1.61a1.16,1.16,0,0,0,.44.9,1.7,1.7,0,0,0,1.09.32,1.66,1.66,0,0,0,1-.25A.75.75,0,0,0,462.72,148.79Z"/>
        </g>
      </g>
      <g>
        <g>
          <rect class="cls-4" x="319.16" y="198.43" width="203.58" height="198.43"/>
          <g>
            <polygon class="cls-4" points="166.31 396.85 319.16 396.85 319.16 198.43 293.63 198.43 166.31 396.85"/>
            <polygon class="cls-4" points="140.31 396.85 140.31 396.85 210.47 297.64 140.31 396.85"/>
            <polygon class="cls-5" points="280.63 198.43 210.47 297.64 140.31 396.85 166.31 396.85 293.63 198.43 280.63 198.43"/>
          </g>
          <g>
            <polygon class="cls-4" points="675.58 396.85 522.73 396.85 522.73 198.43 548.26 198.43 675.58 396.85"/>
            <polygon class="cls-4" points="701.58 396.85 701.58 396.85 631.42 297.64 701.58 396.85"/>
            <polygon class="cls-5" points="561.26 198.43 631.42 297.64 701.58 396.85 675.58 396.85 548.26 198.43 561.26 198.43"/>
          </g>
          <line class="cls-6" x1="319.16" y1="198.43" x2="319.16" y2="396.85"/>
          <line class="cls-6" x1="522.73" y1="198.43" x2="522.73" y2="396.85"/>
        </g>
        <g>
          <path class="cls-3" d="M238.94,306.62h4.52V308h-6.25v-9.95h1.73Z"/>
          <path class="cls-3" d="M247.88,308.14a3.41,3.41,0,0,1-2.56-1,3.61,3.61,0,0,1-1-2.65v-.2a4.37,4.37,0,0,1,.43-2A3.29,3.29,0,0,1,246,301a3.22,3.22,0,0,1,1.73-.48,2.91,2.91,0,0,1,2.33,1,4.07,4.07,0,0,1,.83,2.73v.67H246a2.27,2.27,0,0,0,.61,1.45,1.86,1.86,0,0,0,1.35.53,2.24,2.24,0,0,0,1.86-.92l.9.85a3,3,0,0,1-1.19,1A3.62,3.62,0,0,1,247.88,308.14Zm-.2-6.34a1.4,1.4,0,0,0-1.1.48,2.5,2.5,0,0,0-.54,1.33h3.17v-.12a2,2,0,0,0-.45-1.26A1.37,1.37,0,0,0,247.68,301.8Z"/>
          <path class="cls-3" d="M254.65,305.9l1.57-5.3h1.71l-2.56,7.4h-1.44l-2.59-7.4h1.73Z"/>
          <path class="cls-3" d="M262.23,308.14a3.4,3.4,0,0,1-2.56-1,3.57,3.57,0,0,1-1-2.65v-.2a4.5,4.5,0,0,1,.42-2,3.38,3.38,0,0,1,1.2-1.36,3.22,3.22,0,0,1,1.73-.48,2.91,2.91,0,0,1,2.33,1,4.07,4.07,0,0,1,.82,2.73v.67h-4.83a2.27,2.27,0,0,0,.61,1.45,1.86,1.86,0,0,0,1.35.53,2.27,2.27,0,0,0,1.86-.92l.9.85a3,3,0,0,1-1.19,1A3.62,3.62,0,0,1,262.23,308.14Zm-.2-6.34a1.38,1.38,0,0,0-1.1.48,2.5,2.5,0,0,0-.54,1.33h3.16v-.12a2,2,0,0,0-.44-1.26A1.37,1.37,0,0,0,262,301.8Z"/>
          <path class="cls-3" d="M270.36,302.12a3.82,3.82,0,0,0-.68-.05,1.52,1.52,0,0,0-1.54.87V308h-1.66v-7.4h1.59l0,.83a1.86,1.86,0,0,1,1.66-1,1.63,1.63,0,0,1,.59.09Z"/>
          <path class="cls-3" d="M275.62,308a2.48,2.48,0,0,1-.19-.69,2.78,2.78,0,0,1-3.76.19,2,2,0,0,1-.71-1.57,2.13,2.13,0,0,1,.88-1.82,4.29,4.29,0,0,1,2.51-.63h1V303a1.17,1.17,0,0,0-1.3-1.27,1.49,1.49,0,0,0-.93.29.88.88,0,0,0-.36.72h-1.66a1.88,1.88,0,0,1,.4-1.14,2.74,2.74,0,0,1,1.1-.83,3.86,3.86,0,0,1,1.55-.3,3.11,3.11,0,0,1,2.07.65A2.31,2.31,0,0,1,277,303v3.33a3.84,3.84,0,0,0,.28,1.59V308Zm-1.83-1.2a2,2,0,0,0,.93-.23,1.57,1.57,0,0,0,.65-.65v-1.39h-.89a2.4,2.4,0,0,0-1.39.32,1,1,0,0,0-.46.91,1,1,0,0,0,.31.76A1.23,1.23,0,0,0,273.79,306.8Z"/>
          <path class="cls-3" d="M278.48,304.25a4.31,4.31,0,0,1,.81-2.75,2.59,2.59,0,0,1,2.15-1,2.42,2.42,0,0,1,2,.88l.08-.75H285v7.18a3,3,0,0,1-.9,2.29,3.44,3.44,0,0,1-2.44.84,3.82,3.82,0,0,1-1.59-.34,2.8,2.8,0,0,1-1.18-.88l.78-1a2.37,2.37,0,0,0,1.89.91,1.84,1.84,0,0,0,1.31-.45,1.73,1.73,0,0,0,.47-1.31v-.5a2.43,2.43,0,0,1-1.91.8,2.61,2.61,0,0,1-2.12-1A4.49,4.49,0,0,1,278.48,304.25Zm1.66.14a3,3,0,0,0,.45,1.75,1.47,1.47,0,0,0,1.26.64,1.58,1.58,0,0,0,1.49-.86v-3.25a1.56,1.56,0,0,0-1.47-.84,1.47,1.47,0,0,0-1.28.65A3.35,3.35,0,0,0,280.14,304.39Z"/>
          <path class="cls-3" d="M290,308.14a3.41,3.41,0,0,1-2.56-1,3.57,3.57,0,0,1-1-2.65v-.2a4.5,4.5,0,0,1,.42-2,3.38,3.38,0,0,1,1.2-1.36,3.22,3.22,0,0,1,1.73-.48,2.91,2.91,0,0,1,2.33,1,4.07,4.07,0,0,1,.82,2.73v.67H288.1a2.27,2.27,0,0,0,.61,1.45,1.86,1.86,0,0,0,1.35.53,2.27,2.27,0,0,0,1.86-.92l.9.85a3,3,0,0,1-1.19,1A3.62,3.62,0,0,1,290,308.14Zm-.2-6.34a1.38,1.38,0,0,0-1.1.48,2.5,2.5,0,0,0-.54,1.33h3.16v-.12a2,2,0,0,0-.44-1.26A1.37,1.37,0,0,0,289.77,301.8Z"/>
          <path class="cls-3" d="M293.91,304.25a4.4,4.4,0,0,1,.8-2.75,2.51,2.51,0,0,1,2.12-1,2.4,2.4,0,0,1,1.9.82V297.5h1.66V308h-1.5l-.08-.76a2.46,2.46,0,0,1-2,.9,2.51,2.51,0,0,1-2.1-1.05A4.52,4.52,0,0,1,293.91,304.25Zm1.66.14a3.07,3.07,0,0,0,.44,1.76,1.41,1.41,0,0,0,1.23.63,1.57,1.57,0,0,0,1.49-.9v-3.16a1.53,1.53,0,0,0-1.48-.89,1.41,1.41,0,0,0-1.24.64A3.4,3.4,0,0,0,295.57,304.39Z"/>
          <path class="cls-3" d="M237,315.61v1.79h1.3v1.23H237v4.13a.94.94,0,0,0,.16.62.81.81,0,0,0,.6.18,2.86,2.86,0,0,0,.58-.06v1.28a4.29,4.29,0,0,1-1.09.16c-1.28,0-1.91-.71-1.91-2.11v-4.2h-1.22V317.4h1.22v-1.79Z"/>
          <path class="cls-3" d="M242.84,324.94a3.4,3.4,0,0,1-2.56-1,3.57,3.57,0,0,1-1-2.65v-.2a4.5,4.5,0,0,1,.42-2,3.38,3.38,0,0,1,1.2-1.36,3.22,3.22,0,0,1,1.73-.48,2.91,2.91,0,0,1,2.33,1,4.07,4.07,0,0,1,.82,2.73v.67H241a2.27,2.27,0,0,0,.61,1.45,1.86,1.86,0,0,0,1.35.53,2.27,2.27,0,0,0,1.86-.92l.9.85a3,3,0,0,1-1.19,1A3.62,3.62,0,0,1,242.84,324.94Zm-.2-6.34a1.38,1.38,0,0,0-1.1.48,2.42,2.42,0,0,0-.54,1.33h3.16v-.12a2,2,0,0,0-.44-1.26A1.37,1.37,0,0,0,242.64,318.6Z"/>
          <path class="cls-3" d="M250.13,323.61a1.49,1.49,0,0,0,1-.36,1.22,1.22,0,0,0,.44-.9h1.57a2.54,2.54,0,0,1-.43,1.29,2.83,2.83,0,0,1-1.1.95,3.27,3.27,0,0,1-1.49.35,3.17,3.17,0,0,1-2.46-1,4,4,0,0,1-.91-2.77V321a3.94,3.94,0,0,1,.9-2.71,3.17,3.17,0,0,1,2.47-1,3,3,0,0,1,2.14.77,2.73,2.73,0,0,1,.88,2H251.6a1.52,1.52,0,0,0-.43-1.05,1.42,1.42,0,0,0-1-.41,1.45,1.45,0,0,0-1.24.58,3.06,3.06,0,0,0-.45,1.78v.27a3,3,0,0,0,.44,1.79A1.46,1.46,0,0,0,250.13,323.61Z"/>
          <path class="cls-3" d="M256.06,318.21a2.59,2.59,0,0,1,2.06-.94q2.36,0,2.4,2.7v4.83h-1.67V320a1.45,1.45,0,0,0-.33-1.08,1.31,1.31,0,0,0-1-.32,1.59,1.59,0,0,0-1.49.89v5.28H254.4V314.3h1.66Z"/>
          <path class="cls-3" d="M263.73,317.4l0,.86a2.68,2.68,0,0,1,2.16-1c1.54,0,2.32.88,2.35,2.64v4.89h-1.66V320a1.52,1.52,0,0,0-.31-1,1.25,1.25,0,0,0-1-.34,1.6,1.6,0,0,0-1.5.91v5.26h-1.66v-7.4Z"/>
          <path class="cls-3" d="M269.67,321a4.3,4.3,0,0,1,.43-1.95,3.1,3.1,0,0,1,1.21-1.34,3.35,3.35,0,0,1,1.79-.47,3.23,3.23,0,0,1,2.43,1,3.81,3.81,0,0,1,1,2.56v.39a4.37,4.37,0,0,1-.42,1.95,3.21,3.21,0,0,1-1.21,1.34,3.46,3.46,0,0,1-1.81.47,3.18,3.18,0,0,1-2.5-1.05,4,4,0,0,1-.94-2.77Zm1.66.15a3,3,0,0,0,.47,1.78,1.65,1.65,0,0,0,2.62,0,3.33,3.33,0,0,0,.47-1.93,2.93,2.93,0,0,0-.48-1.77,1.62,1.62,0,0,0-2.6,0A3.21,3.21,0,0,0,271.33,321.18Z"/>
          <path class="cls-3" d="M279.72,324.8h-1.66V314.3h1.66Z"/>
          <path class="cls-3" d="M281.21,321a4.3,4.3,0,0,1,.44-1.95,3.08,3.08,0,0,1,1.2-1.34,3.36,3.36,0,0,1,1.8-.47,3.26,3.26,0,0,1,2.43,1,3.8,3.8,0,0,1,1,2.56v.39a4.37,4.37,0,0,1-.42,1.95,3.13,3.13,0,0,1-1.2,1.34,3.49,3.49,0,0,1-1.81.47,3.22,3.22,0,0,1-2.51-1.05,4,4,0,0,1-.94-2.77Zm1.67.15a2.92,2.92,0,0,0,.47,1.78,1.51,1.51,0,0,0,1.31.65A1.53,1.53,0,0,0,286,323a3.33,3.33,0,0,0,.47-1.93,2.93,2.93,0,0,0-.48-1.77,1.63,1.63,0,0,0-2.61,0A3.29,3.29,0,0,0,282.88,321.18Z"/>
          <path class="cls-3" d="M289.21,321.05a4.31,4.31,0,0,1,.81-2.75,2.58,2.58,0,0,1,2.15-1,2.41,2.41,0,0,1,2,.88l.08-.75h1.5v7.18a3,3,0,0,1-.91,2.29,3.44,3.44,0,0,1-2.44.84,3.85,3.85,0,0,1-1.59-.34,2.8,2.8,0,0,1-1.18-.88l.79-1a2.35,2.35,0,0,0,1.88.91,1.84,1.84,0,0,0,1.31-.45,1.71,1.71,0,0,0,.48-1.31v-.5a2.47,2.47,0,0,1-1.92.8,2.62,2.62,0,0,1-2.12-1A4.48,4.48,0,0,1,289.21,321.05Zm1.65.14a3,3,0,0,0,.45,1.75,1.47,1.47,0,0,0,1.27.64,1.59,1.59,0,0,0,1.49-.86v-3.25a1.59,1.59,0,0,0-1.48-.84,1.47,1.47,0,0,0-1.28.65A3.35,3.35,0,0,0,290.86,321.19Z"/>
          <path class="cls-3" d="M300,322.42l1.5-5h1.77l-2.94,8.52a2.38,2.38,0,0,1-2.29,1.87,2.72,2.72,0,0,1-.8-.13v-1.29l.31,0a1.57,1.57,0,0,0,.95-.23,1.47,1.47,0,0,0,.5-.76l.24-.64-2.6-7.36h1.79Z"/>
        </g>
        <g>
          <path class="cls-3" d="M385.29,304.76a3.64,3.64,0,0,1-1.18,2.49,4,4,0,0,1-2.73.89,3.83,3.83,0,0,1-2.09-.57,3.65,3.65,0,0,1-1.4-1.6,5.7,5.7,0,0,1-.51-2.41v-.93a5.69,5.69,0,0,1,.5-2.48,3.76,3.76,0,0,1,1.43-1.66,4,4,0,0,1,2.15-.58,3.89,3.89,0,0,1,2.66.89,3.75,3.75,0,0,1,1.17,2.53h-1.73a2.48,2.48,0,0,0-.62-1.55,2.07,2.07,0,0,0-1.48-.47,2,2,0,0,0-1.73.82,4.16,4.16,0,0,0-.62,2.42v.88a4.3,4.3,0,0,0,.58,2.46,1.91,1.91,0,0,0,1.69.85,2.25,2.25,0,0,0,1.53-.45,2.42,2.42,0,0,0,.65-1.53Z"/>
          <path class="cls-3" d="M386.36,304.23a4.3,4.3,0,0,1,.43-2,3.1,3.1,0,0,1,1.21-1.34,3.35,3.35,0,0,1,1.79-.47,3.23,3.23,0,0,1,2.43,1,3.81,3.81,0,0,1,1,2.56v.39a4.37,4.37,0,0,1-.42,1.95,3.15,3.15,0,0,1-1.21,1.34,3.46,3.46,0,0,1-1.81.47,3.18,3.18,0,0,1-2.5-1.05,4,4,0,0,1-.94-2.77Zm1.66.15a3,3,0,0,0,.47,1.79,1.65,1.65,0,0,0,2.62,0,3.33,3.33,0,0,0,.47-1.93,2.93,2.93,0,0,0-.48-1.77,1.62,1.62,0,0,0-2.6,0A3.21,3.21,0,0,0,388,304.38Z"/>
          <path class="cls-3" d="M398.79,306a.77.77,0,0,0-.37-.68,4.05,4.05,0,0,0-1.21-.41,5.94,5.94,0,0,1-1.42-.45,1.88,1.88,0,0,1-1.24-1.74,2,2,0,0,1,.8-1.6,3.21,3.21,0,0,1,2.06-.64,3.37,3.37,0,0,1,2.14.65,2.11,2.11,0,0,1,.82,1.71H398.7a1,1,0,0,0-.35-.8,1.37,1.37,0,0,0-.94-.32,1.55,1.55,0,0,0-.9.25.8.8,0,0,0-.34.68.69.69,0,0,0,.32.6,4.38,4.38,0,0,0,1.3.42,6.27,6.27,0,0,1,1.53.52,2.1,2.1,0,0,1,.83.71,1.84,1.84,0,0,1,.27,1,1.93,1.93,0,0,1-.83,1.62,3.53,3.53,0,0,1-2.16.62,3.78,3.78,0,0,1-1.62-.33,2.64,2.64,0,0,1-1.11-.9,2.13,2.13,0,0,1-.4-1.24h1.62a1.19,1.19,0,0,0,.44.91,1.74,1.74,0,0,0,1.09.31,1.63,1.63,0,0,0,1-.25A.76.76,0,0,0,398.79,306Z"/>
          <path class="cls-3" d="M404,298.81v1.79h1.3v1.23H404V306a.88.88,0,0,0,.17.62.79.79,0,0,0,.59.18,2.86,2.86,0,0,0,.58-.06V308a4.23,4.23,0,0,1-1.09.16c-1.28,0-1.91-.71-1.91-2.11v-4.2h-1.22V300.6h1.22v-1.79Z"/>
          <path class="cls-3" d="M409.74,304.44h-3.58V303.1h3.58Z"/>
          <path class="cls-3" d="M414.37,308.14a3.43,3.43,0,0,1-2.56-1,3.61,3.61,0,0,1-1-2.65v-.2a4.37,4.37,0,0,1,.43-2,3.24,3.24,0,0,1,1.2-1.36,3.19,3.19,0,0,1,1.72-.48,2.92,2.92,0,0,1,2.34,1,4.12,4.12,0,0,1,.82,2.73v.67h-4.83a2.22,2.22,0,0,0,.61,1.45,1.86,1.86,0,0,0,1.35.53,2.27,2.27,0,0,0,1.86-.92l.89.85a3,3,0,0,1-1.18,1A3.66,3.66,0,0,1,414.37,308.14Zm-.2-6.34a1.4,1.4,0,0,0-1.1.48,2.5,2.5,0,0,0-.54,1.33h3.17v-.12a2,2,0,0,0-.45-1.26A1.37,1.37,0,0,0,414.17,301.8Z"/>
          <path class="cls-3" d="M419.21,308v-6.17h-1.13V300.6h1.13v-.67a2.52,2.52,0,0,1,.69-1.9,2.59,2.59,0,0,1,1.91-.67,4,4,0,0,1,.93.12l0,1.3a3,3,0,0,0-.64-.06,1.07,1.07,0,0,0-1.19,1.23v.65h1.51v1.23h-1.51V308Z"/>
          <path class="cls-3" d="M424.17,308v-6.17h-1.12V300.6h1.12v-.67a2.52,2.52,0,0,1,.69-1.9,2.59,2.59,0,0,1,1.91-.67,4,4,0,0,1,.93.12l0,1.3a2.93,2.93,0,0,0-.63-.06c-.8,0-1.19.41-1.19,1.23v.65h1.5v1.23h-1.5V308Z"/>
          <path class="cls-3" d="M431.81,308.14a3.41,3.41,0,0,1-2.56-1,3.61,3.61,0,0,1-1-2.65v-.2a4.37,4.37,0,0,1,.43-2,3.24,3.24,0,0,1,1.2-1.36,3.19,3.19,0,0,1,1.72-.48,2.9,2.9,0,0,1,2.33,1,4.07,4.07,0,0,1,.83,2.73v.67h-4.84a2.28,2.28,0,0,0,.62,1.45,1.83,1.83,0,0,0,1.35.53,2.27,2.27,0,0,0,1.86-.92l.89.85a3,3,0,0,1-1.18,1A3.66,3.66,0,0,1,431.81,308.14Zm-.2-6.34a1.4,1.4,0,0,0-1.1.48,2.5,2.5,0,0,0-.54,1.33h3.17v-.12a2,2,0,0,0-.45-1.26A1.37,1.37,0,0,0,431.61,301.8Z"/>
          <path class="cls-3" d="M439.1,306.81a1.53,1.53,0,0,0,1-.36,1.21,1.21,0,0,0,.43-.9h1.57a2.45,2.45,0,0,1-.43,1.29,2.8,2.8,0,0,1-1.09,1,3.3,3.3,0,0,1-1.49.35,3.17,3.17,0,0,1-2.47-1,4,4,0,0,1-.91-2.77v-.17a4,4,0,0,1,.91-2.71,3.14,3.14,0,0,1,2.46-1,3,3,0,0,1,2.15.77,2.76,2.76,0,0,1,.87,2h-1.57a1.48,1.48,0,0,0-.43-1.05,1.42,1.42,0,0,0-1-.41,1.48,1.48,0,0,0-1.24.58,3,3,0,0,0-.44,1.78v.27a3,3,0,0,0,.43,1.79A1.47,1.47,0,0,0,439.1,306.81Z"/>
          <path class="cls-3" d="M445.48,298.81v1.79h1.3v1.23h-1.3V306a.94.94,0,0,0,.16.62.8.8,0,0,0,.6.18,2.86,2.86,0,0,0,.58-.06V308a4.29,4.29,0,0,1-1.09.16c-1.28,0-1.92-.71-1.92-2.11v-4.2H442.6V300.6h1.21v-1.79Z"/>
          <path class="cls-3" d="M448.05,298.68a.85.85,0,0,1,.25-.63.9.9,0,0,1,.69-.26.94.94,0,0,1,.7.26.95.95,0,0,1,0,1.26.94.94,0,0,1-.7.25.9.9,0,0,1-.69-.25A.85.85,0,0,1,448.05,298.68Zm1.77,9.32h-1.66v-7.4h1.66Z"/>
          <path class="cls-3" d="M454.23,305.9l1.57-5.3h1.71L455,308h-1.44l-2.59-7.4h1.73Z"/>
          <path class="cls-3" d="M461.81,308.14a3.4,3.4,0,0,1-2.56-1,3.57,3.57,0,0,1-1-2.65v-.2a4.5,4.5,0,0,1,.42-2,3.38,3.38,0,0,1,1.2-1.36,3.22,3.22,0,0,1,1.73-.48,2.91,2.91,0,0,1,2.33,1,4.07,4.07,0,0,1,.82,2.73v.67h-4.83a2.22,2.22,0,0,0,.61,1.45,1.86,1.86,0,0,0,1.35.53,2.27,2.27,0,0,0,1.86-.92l.9.85a3,3,0,0,1-1.19,1A3.62,3.62,0,0,1,461.81,308.14Zm-.2-6.34a1.42,1.42,0,0,0-1.11.48,2.49,2.49,0,0,0-.53,1.33h3.16v-.12a2,2,0,0,0-.44-1.26A1.37,1.37,0,0,0,461.61,301.8Z"/>
          <path class="cls-3" d="M397.8,321.18a4.43,4.43,0,0,1-.78,2.74,2.5,2.5,0,0,1-2.09,1,2.53,2.53,0,0,1-1.95-.8v3.5h-1.66V317.4h1.53l.07.76a2.42,2.42,0,0,1,2-.89,2.5,2.5,0,0,1,2.12,1,4.52,4.52,0,0,1,.77,2.8Zm-1.66-.15a3,3,0,0,0-.44-1.75,1.41,1.41,0,0,0-1.26-.65,1.53,1.53,0,0,0-1.46.84v3.28a1.55,1.55,0,0,0,1.48.86,1.43,1.43,0,0,0,1.24-.64A3.37,3.37,0,0,0,396.14,321Z"/>
          <path class="cls-3" d="M401,324.8h-1.66V314.3H401Z"/>
          <path class="cls-3" d="M407.2,324.8a2.48,2.48,0,0,1-.19-.69,2.78,2.78,0,0,1-3.76.19,2,2,0,0,1-.71-1.57,2.13,2.13,0,0,1,.88-1.82,4.27,4.27,0,0,1,2.51-.63h1v-.48a1.3,1.3,0,0,0-.32-.92,1.27,1.27,0,0,0-1-.35,1.46,1.46,0,0,0-.93.29.87.87,0,0,0-.36.72H402.7a1.82,1.82,0,0,1,.4-1.14,2.74,2.74,0,0,1,1.1-.83,3.86,3.86,0,0,1,1.55-.3,3.15,3.15,0,0,1,2.07.65,2.34,2.34,0,0,1,.79,1.84v3.33a3.84,3.84,0,0,0,.28,1.59v.12Zm-1.83-1.2a2,2,0,0,0,.93-.23,1.57,1.57,0,0,0,.65-.65v-1.39h-.89a2.4,2.4,0,0,0-1.39.32,1,1,0,0,0-.47.91,1,1,0,0,0,.32.76A1.23,1.23,0,0,0,405.37,323.6Z"/>
          <path class="cls-3" d="M412.43,315.61v1.79h1.31v1.23h-1.31v4.13a.94.94,0,0,0,.17.62.8.8,0,0,0,.6.18,2.93,2.93,0,0,0,.58-.06v1.28a4.29,4.29,0,0,1-1.09.16c-1.28,0-1.92-.71-1.92-2.11v-4.2h-1.21V317.4h1.21v-1.79Z"/>
          <path class="cls-3" d="M415.59,324.8v-6.17h-1.13V317.4h1.13v-.67a2.52,2.52,0,0,1,.69-1.9,2.59,2.59,0,0,1,1.91-.67,4,4,0,0,1,.93.12l0,1.3a3,3,0,0,0-.64-.06,1.07,1.07,0,0,0-1.19,1.23v.65h1.51v1.23h-1.51v6.17Z"/>
          <path class="cls-3" d="M419.66,321a4.3,4.3,0,0,1,.43-1.95,3.1,3.1,0,0,1,1.21-1.34,3.35,3.35,0,0,1,1.79-.47,3.23,3.23,0,0,1,2.43,1,3.81,3.81,0,0,1,1,2.56v.39a4.37,4.37,0,0,1-.42,1.95,3.09,3.09,0,0,1-1.21,1.34,3.45,3.45,0,0,1-1.8.47,3.2,3.2,0,0,1-2.51-1.05,4,4,0,0,1-.94-2.77Zm1.66.15a3,3,0,0,0,.47,1.78,1.65,1.65,0,0,0,2.62,0,3.26,3.26,0,0,0,.47-1.93,2.93,2.93,0,0,0-.48-1.77,1.62,1.62,0,0,0-2.6,0A3.21,3.21,0,0,0,421.32,321.18Z"/>
          <path class="cls-3" d="M431.81,318.92a3.64,3.64,0,0,0-.67-.05,1.52,1.52,0,0,0-1.54.87v5.06h-1.66v-7.4h1.58l.05.83a1.86,1.86,0,0,1,1.66-1,1.63,1.63,0,0,1,.59.09Z"/>
          <path class="cls-3" d="M434.43,317.4l0,.78a2.66,2.66,0,0,1,2.14-.91,2.06,2.06,0,0,1,2,1.13,2.62,2.62,0,0,1,2.27-1.13,2.31,2.31,0,0,1,1.82.67,3,3,0,0,1,.61,2v4.86h-1.66V320a1.43,1.43,0,0,0-.31-1,1.33,1.33,0,0,0-1-.33,1.38,1.38,0,0,0-.92.3,1.63,1.63,0,0,0-.51.8v5.07h-1.66v-4.87a1.18,1.18,0,0,0-1.33-1.3,1.47,1.47,0,0,0-1.42.81v5.36h-1.66v-7.4Z"/>
          <path class="cls-3" d="M449.19,322.79a.76.76,0,0,0-.36-.68,4.14,4.14,0,0,0-1.22-.41,6.51,6.51,0,0,1-1.41-.45,1.89,1.89,0,0,1-1.25-1.74,2,2,0,0,1,.81-1.6,3.18,3.18,0,0,1,2.05-.64,3.35,3.35,0,0,1,2.14.65,2.08,2.08,0,0,1,.82,1.71h-1.66a1,1,0,0,0-.36-.8,1.35,1.35,0,0,0-.94-.32,1.53,1.53,0,0,0-.89.25.81.81,0,0,0-.35.68.69.69,0,0,0,.32.6,4.5,4.5,0,0,0,1.3.42,6.37,6.37,0,0,1,1.54.52,2,2,0,0,1,.82.71,1.76,1.76,0,0,1,.28,1,1.93,1.93,0,0,1-.83,1.62,3.56,3.56,0,0,1-2.17.62,3.78,3.78,0,0,1-1.62-.33,2.76,2.76,0,0,1-1.11-.9,2.19,2.19,0,0,1-.39-1.24h1.61a1.19,1.19,0,0,0,.44.91,1.76,1.76,0,0,0,1.09.31,1.66,1.66,0,0,0,1-.25A.75.75,0,0,0,449.19,322.79Z"/>
        </g>
        <g>
          <path class="cls-3" d="M558.3,305.44a1.18,1.18,0,0,0-.46-1,5.44,5.44,0,0,0-1.66-.72,7.84,7.84,0,0,1-1.92-.81,2.57,2.57,0,0,1-1.36-2.23,2.43,2.43,0,0,1,1-2,4,4,0,0,1,2.55-.78,4.37,4.37,0,0,1,1.85.38,3.11,3.11,0,0,1,1.28,1.09A2.82,2.82,0,0,1,560,301H558.3a1.55,1.55,0,0,0-.49-1.22,2,2,0,0,0-1.39-.44,2.12,2.12,0,0,0-1.32.36,1.23,1.23,0,0,0-.47,1,1.1,1.1,0,0,0,.51.91,5.83,5.83,0,0,0,1.66.71,7.39,7.39,0,0,1,1.87.79,2.93,2.93,0,0,1,1,1,2.6,2.6,0,0,1,.33,1.33,2.38,2.38,0,0,1-.95,2,4.15,4.15,0,0,1-2.59.74,5,5,0,0,1-2-.4,3.34,3.34,0,0,1-1.4-1.11,2.71,2.71,0,0,1-.51-1.64h1.73a1.63,1.63,0,0,0,.56,1.32,2.47,2.47,0,0,0,1.61.46,2.12,2.12,0,0,0,1.36-.37A1.17,1.17,0,0,0,558.3,305.44Z"/>
          <path class="cls-3" d="M563,301.41a2.57,2.57,0,0,1,2.05-.94q2.37,0,2.4,2.7V308h-1.66v-4.77a1.45,1.45,0,0,0-.33-1.08,1.32,1.32,0,0,0-1-.32,1.58,1.58,0,0,0-1.49.89V308h-1.67V297.5H563Z"/>
          <path class="cls-3" d="M573.58,308a2.48,2.48,0,0,1-.19-.69,2.78,2.78,0,0,1-3.76.19,2,2,0,0,1-.71-1.57,2.13,2.13,0,0,1,.88-1.82,4.3,4.3,0,0,1,2.52-.63h1V303a1.17,1.17,0,0,0-1.29-1.27,1.46,1.46,0,0,0-.93.29.86.86,0,0,0-.37.72h-1.66a1.83,1.83,0,0,1,.41-1.14,2.64,2.64,0,0,1,1.09-.83,3.86,3.86,0,0,1,1.55-.3,3.11,3.11,0,0,1,2.07.65A2.35,2.35,0,0,1,575,303v3.33a3.68,3.68,0,0,0,.28,1.59V308Zm-1.83-1.2a2,2,0,0,0,.93-.23,1.57,1.57,0,0,0,.65-.65v-1.39h-.89a2.4,2.4,0,0,0-1.39.32,1,1,0,0,0-.46.91,1,1,0,0,0,.31.76A1.25,1.25,0,0,0,571.75,306.8Z"/>
          <path class="cls-3" d="M580.61,302.12a3.82,3.82,0,0,0-.68-.05,1.53,1.53,0,0,0-1.54.87V308h-1.66v-7.4h1.59l0,.83a1.88,1.88,0,0,1,1.67-1,1.61,1.61,0,0,1,.58.09Z"/>
          <path class="cls-3" d="M584.91,308.14a3.43,3.43,0,0,1-2.56-1,3.61,3.61,0,0,1-1-2.65v-.2a4.5,4.5,0,0,1,.43-2A3.31,3.31,0,0,1,583,301a3.21,3.21,0,0,1,1.72-.48,2.92,2.92,0,0,1,2.34,1,4.07,4.07,0,0,1,.82,2.73v.67h-4.83a2.22,2.22,0,0,0,.61,1.45,1.86,1.86,0,0,0,1.35.53,2.27,2.27,0,0,0,1.86-.92l.89.85a3,3,0,0,1-1.18,1A3.66,3.66,0,0,1,584.91,308.14Zm-.19-6.34a1.4,1.4,0,0,0-1.11.48,2.41,2.41,0,0,0-.53,1.33h3.16v-.12a2,2,0,0,0-.44-1.26A1.37,1.37,0,0,0,584.72,301.8Z"/>
          <path class="cls-3" d="M588.86,304.25a4.4,4.4,0,0,1,.79-2.75,2.54,2.54,0,0,1,2.13-1,2.4,2.4,0,0,1,1.9.82V297.5h1.66V308h-1.51l-.08-.76a2.44,2.44,0,0,1-2,.9,2.53,2.53,0,0,1-2.1-1.05A4.58,4.58,0,0,1,588.86,304.25Zm1.66.14a3.08,3.08,0,0,0,.43,1.76,1.41,1.41,0,0,0,1.24.63,1.57,1.57,0,0,0,1.49-.9v-3.16a1.54,1.54,0,0,0-1.48-.89,1.4,1.4,0,0,0-1.24.64A3.4,3.4,0,0,0,590.52,304.39Z"/>
          <path class="cls-3" d="M543.45,321.63l-.73.76v2.41h-1.67V314.3h1.67v6.06l.52-.65,2-2.31h2l-2.75,3.09,3,4.31h-1.92Z"/>
          <path class="cls-3" d="M549.9,317.4l.05.86a2.66,2.66,0,0,1,2.15-1c1.54,0,2.33.88,2.35,2.64v4.89h-1.66V320a1.52,1.52,0,0,0-.3-1,1.27,1.27,0,0,0-1-.34,1.58,1.58,0,0,0-1.49.91v5.26h-1.67v-7.4Z"/>
          <path class="cls-3" d="M555.83,321a4.43,4.43,0,0,1,.43-1.95,3.16,3.16,0,0,1,1.21-1.34,3.36,3.36,0,0,1,1.8-.47,3.26,3.26,0,0,1,2.43,1,3.8,3.8,0,0,1,1,2.56v.39a4.37,4.37,0,0,1-.42,1.95,3.13,3.13,0,0,1-1.2,1.34,3.49,3.49,0,0,1-1.81.47,3.22,3.22,0,0,1-2.51-1.05,4,4,0,0,1-.94-2.77Zm1.67.15A2.92,2.92,0,0,0,558,323a1.51,1.51,0,0,0,1.31.65,1.53,1.53,0,0,0,1.31-.65,3.33,3.33,0,0,0,.47-1.93,2.93,2.93,0,0,0-.48-1.77,1.63,1.63,0,0,0-2.61,0A3.29,3.29,0,0,0,557.5,321.18Z"/>
          <path class="cls-3" d="M570.61,322.51l1.18-5.11h1.62l-2,7.4H570l-1.59-5.08-1.56,5.08h-1.37l-2-7.4h1.62l1.2,5.06,1.51-5.06h1.26Z"/>
          <path class="cls-3" d="M576.29,324.8h-1.66V314.3h1.66Z"/>
          <path class="cls-3" d="M581.35,324.94a3.43,3.43,0,0,1-2.56-1,3.61,3.61,0,0,1-1-2.65v-.2a4.37,4.37,0,0,1,.43-2,3.24,3.24,0,0,1,1.2-1.36,3.19,3.19,0,0,1,1.72-.48,2.92,2.92,0,0,1,2.34,1,4.12,4.12,0,0,1,.82,2.73v.67h-4.83a2.22,2.22,0,0,0,.61,1.45,1.86,1.86,0,0,0,1.35.53,2.27,2.27,0,0,0,1.86-.92l.89.85a3,3,0,0,1-1.18,1A3.66,3.66,0,0,1,581.35,324.94Zm-.2-6.34a1.4,1.4,0,0,0-1.1.48,2.5,2.5,0,0,0-.54,1.33h3.17v-.12a2,2,0,0,0-.45-1.26A1.36,1.36,0,0,0,581.15,318.6Z"/>
          <path class="cls-3" d="M585.3,321.05a4.4,4.4,0,0,1,.79-2.75,2.54,2.54,0,0,1,2.13-1,2.42,2.42,0,0,1,1.9.82V314.3h1.66v10.5h-1.51l-.08-.76a2.44,2.44,0,0,1-2,.9,2.53,2.53,0,0,1-2.1-1.05A4.52,4.52,0,0,1,585.3,321.05Zm1.66.14a3.08,3.08,0,0,0,.43,1.76,1.41,1.41,0,0,0,1.24.63,1.57,1.57,0,0,0,1.49-.91v-3.15a1.54,1.54,0,0,0-1.48-.89,1.4,1.4,0,0,0-1.24.64A3.32,3.32,0,0,0,587,321.19Z"/>
          <path class="cls-3" d="M593.22,321.05a4.31,4.31,0,0,1,.81-2.75,2.59,2.59,0,0,1,2.15-1,2.43,2.43,0,0,1,2,.88l.07-.75h1.5v7.18a3,3,0,0,1-.9,2.29,3.47,3.47,0,0,1-2.45.84,3.89,3.89,0,0,1-1.59-.34,2.86,2.86,0,0,1-1.18-.88l.79-1a2.37,2.37,0,0,0,1.89.91,1.82,1.82,0,0,0,1.3-.45,1.71,1.71,0,0,0,.48-1.31v-.5a2.46,2.46,0,0,1-1.91.8,2.62,2.62,0,0,1-2.13-1A4.48,4.48,0,0,1,593.22,321.05Zm1.65.14a3,3,0,0,0,.46,1.75,1.45,1.45,0,0,0,1.26.64,1.58,1.58,0,0,0,1.49-.86v-3.25a1.58,1.58,0,0,0-1.48-.84,1.45,1.45,0,0,0-1.27.65A3.34,3.34,0,0,0,594.87,321.19Z"/>
          <path class="cls-3" d="M604.7,324.94a3.43,3.43,0,0,1-2.56-1,3.61,3.61,0,0,1-1-2.65v-.2a4.5,4.5,0,0,1,.43-2,3.38,3.38,0,0,1,1.2-1.36,3.21,3.21,0,0,1,1.72-.48,2.92,2.92,0,0,1,2.34,1,4.07,4.07,0,0,1,.82,2.73v.67h-4.83a2.22,2.22,0,0,0,.61,1.45,1.86,1.86,0,0,0,1.35.53,2.27,2.27,0,0,0,1.86-.92l.89.85a3,3,0,0,1-1.18,1A3.66,3.66,0,0,1,604.7,324.94Zm-.19-6.34a1.4,1.4,0,0,0-1.11.48,2.41,2.41,0,0,0-.53,1.33H606v-.12a2,2,0,0,0-.44-1.26A1.37,1.37,0,0,0,604.51,318.6Z"/>
        </g>
      </g>
      <g>
        <g>
          <polygon class="cls-7" points="739.23 496.07 675.58 396.86 561.26 396.86 280.63 396.86 166.31 396.86 102.66 496.07 39 595.28 280.63 595.28 561.26 595.28 802.89 595.28 739.23 496.07"/>
          <g>
            <polygon class="cls-8" points="140.31 396.86 70.16 496.07 70.16 496.07 140.31 396.86 140.31 396.86"/>
            <polygon class="cls-9" points="140.31 396.86 70.16 496.07 102.66 496.07 166.31 396.86 140.31 396.86"/>
            <polygon class="cls-8" points="701.58 396.86 771.73 496.07 771.73 496.07 701.58 396.86 701.58 396.86"/>
            <polygon class="cls-9" points="701.58 396.86 771.73 496.07 739.23 496.07 675.58 396.86 701.58 396.86"/>
            <line class="cls-10" x1="96.03" y1="496.07" x2="745.86" y2="496.07"/>
            <line class="cls-10" x1="280.63" y1="396.85" x2="280.63" y2="496.07"/>
            <line class="cls-10" x1="561.26" y1="396.85" x2="561.26" y2="496.07"/>
            <polygon class="cls-9" points="70.16 496.07 0 595.28 39 595.28 102.66 496.07 70.16 496.07"/>
            <polygon class="cls-9" points="771.73 496.07 841.89 595.28 802.89 595.28 739.23 496.07 771.73 496.07"/>
          </g>
        </g>
        <g>
          <path class="cls-3" d="M162.13,442H158v3.06h4.78v1.38h-6.5v-9.95h6.46v1.39H158v2.75h4.09Z"/>
          <path class="cls-3" d="M166.73,441.5l1.4-2.44H170l-2.26,3.65,2.34,3.75h-1.84l-1.47-2.53-1.47,2.53h-1.85l2.34-3.75-2.26-3.65h1.84Z"/>
          <path class="cls-3" d="M174,445.27a1.53,1.53,0,0,0,1-.36,1.21,1.21,0,0,0,.43-.9h1.57a2.45,2.45,0,0,1-.43,1.29,2.83,2.83,0,0,1-1.1.95,3.27,3.27,0,0,1-1.49.35,3.17,3.17,0,0,1-2.46-1,4,4,0,0,1-.91-2.77v-.17a3.9,3.9,0,0,1,.91-2.71,3.14,3.14,0,0,1,2.46-1,3,3,0,0,1,2.15.77,2.76,2.76,0,0,1,.87,2h-1.57a1.48,1.48,0,0,0-.43-1.05,1.42,1.42,0,0,0-1-.41,1.47,1.47,0,0,0-1.24.59,3,3,0,0,0-.44,1.77v.27a3,3,0,0,0,.43,1.79A1.47,1.47,0,0,0,174,445.27Z"/>
          <path class="cls-3" d="M181.56,446.6a3.41,3.41,0,0,1-2.56-1,3.61,3.61,0,0,1-1-2.65v-.2a4.37,4.37,0,0,1,.43-2,3.24,3.24,0,0,1,1.2-1.36,3.19,3.19,0,0,1,1.72-.48,2.9,2.9,0,0,1,2.33,1,4.07,4.07,0,0,1,.83,2.73v.67h-4.84a2.23,2.23,0,0,0,.62,1.45,1.83,1.83,0,0,0,1.35.53,2.27,2.27,0,0,0,1.86-.92l.89.85a2.94,2.94,0,0,1-1.18,1A3.66,3.66,0,0,1,181.56,446.6Zm-.2-6.34a1.4,1.4,0,0,0-1.1.48,2.5,2.5,0,0,0-.54,1.33h3.17V442a2,2,0,0,0-.45-1.26A1.37,1.37,0,0,0,181.36,440.26Z"/>
          <path class="cls-3" d="M192.29,442.84a4.43,4.43,0,0,1-.78,2.74,2.49,2.49,0,0,1-2.09,1,2.53,2.53,0,0,1-1.95-.8v3.5h-1.66V439.06h1.53l.07.76a2.42,2.42,0,0,1,2-.89,2.5,2.5,0,0,1,2.12,1,4.46,4.46,0,0,1,.77,2.8Zm-1.65-.15a3.1,3.1,0,0,0-.44-1.75,1.43,1.43,0,0,0-1.26-.65,1.54,1.54,0,0,0-1.47.84v3.28a1.56,1.56,0,0,0,1.48.86,1.42,1.42,0,0,0,1.24-.64A3.37,3.37,0,0,0,190.64,442.69Z"/>
          <path class="cls-3" d="M195.78,437.27v1.79h1.3v1.23h-1.3v4.13a.88.88,0,0,0,.17.62.79.79,0,0,0,.59.18,3,3,0,0,0,.59-.06v1.28a4,4,0,0,1-1.1.16c-1.27,0-1.91-.71-1.91-2.11v-4.2H192.9v-1.23h1.22v-1.79Z"/>
          <path class="cls-3" d="M198.36,437.14a.88.88,0,0,1,.24-.63.9.9,0,0,1,.69-.26.93.93,0,0,1,.7.26.92.92,0,0,1,0,1.26.92.92,0,0,1-.7.25.9.9,0,0,1-.69-.25A.88.88,0,0,1,198.36,437.14Zm1.76,9.32h-1.66v-7.4h1.66Z"/>
          <path class="cls-3" d="M201.62,442.69a4.3,4.3,0,0,1,.43-1.95,3.09,3.09,0,0,1,1.21-1.34,3.32,3.32,0,0,1,1.79-.47,3.23,3.23,0,0,1,2.43,1,3.81,3.81,0,0,1,1,2.56v.39a4.37,4.37,0,0,1-.42,2,3.13,3.13,0,0,1-1.2,1.34,3.46,3.46,0,0,1-1.81.47,3.21,3.21,0,0,1-2.5-1,4,4,0,0,1-.94-2.78Zm1.66.15a3,3,0,0,0,.47,1.79,1.65,1.65,0,0,0,2.62,0,3.33,3.33,0,0,0,.47-1.93,2.93,2.93,0,0,0-.48-1.77,1.62,1.62,0,0,0-2.6,0A3.21,3.21,0,0,0,203.28,442.84Z"/>
          <path class="cls-3" d="M211.44,439.06l.05.86a2.66,2.66,0,0,1,2.15-1c1.54,0,2.33.88,2.35,2.64v4.89h-1.66v-4.79a1.52,1.52,0,0,0-.3-1,1.27,1.27,0,0,0-1-.34,1.58,1.58,0,0,0-1.49.91v5.26h-1.66v-7.4Z"/>
          <path class="cls-3" d="M222.1,446.46a2.89,2.89,0,0,1-.19-.69,2.78,2.78,0,0,1-3.76.19,2,2,0,0,1-.7-1.57,2.08,2.08,0,0,1,.88-1.81,4.17,4.17,0,0,1,2.51-.64h1v-.48a1.3,1.3,0,0,0-.32-.92,1.29,1.29,0,0,0-1-.35,1.46,1.46,0,0,0-.93.29.88.88,0,0,0-.36.72h-1.66a1.82,1.82,0,0,1,.4-1.14,2.68,2.68,0,0,1,1.1-.83,3.86,3.86,0,0,1,1.55-.3,3.15,3.15,0,0,1,2.07.65,2.34,2.34,0,0,1,.79,1.84v3.33a3.68,3.68,0,0,0,.28,1.59v.12Zm-1.82-1.2a1.89,1.89,0,0,0,.93-.23,1.63,1.63,0,0,0,.65-.65V443H221a2.47,2.47,0,0,0-1.38.32,1,1,0,0,0-.47.91,1,1,0,0,0,.32.76A1.21,1.21,0,0,0,220.28,445.26Z"/>
          <path class="cls-3" d="M227,446.46h-1.66V436H227Z"/>
          <path class="cls-3" d="M161.53,463.26h-1.66v-10.5h1.66Z"/>
          <path class="cls-3" d="M166.6,463.4a3.41,3.41,0,0,1-2.56-1,3.61,3.61,0,0,1-1-2.65v-.2a4.37,4.37,0,0,1,.43-2,3.24,3.24,0,0,1,1.2-1.36,3.19,3.19,0,0,1,1.72-.48,2.9,2.9,0,0,1,2.33,1,4.07,4.07,0,0,1,.83,2.73v.67h-4.84a2.23,2.23,0,0,0,.62,1.45,1.83,1.83,0,0,0,1.35.53,2.27,2.27,0,0,0,1.86-.92l.89.85a2.9,2.9,0,0,1-1.19,1A3.59,3.59,0,0,1,166.6,463.4Zm-.2-6.34a1.4,1.4,0,0,0-1.1.48,2.5,2.5,0,0,0-.54,1.33h3.17v-.12a2,2,0,0,0-.45-1.26A1.37,1.37,0,0,0,166.4,457.06Z"/>
          <path class="cls-3" d="M175.27,463.26a2.89,2.89,0,0,1-.19-.69,2.78,2.78,0,0,1-3.76.19,2,2,0,0,1-.7-1.57,2.08,2.08,0,0,1,.88-1.81,4.17,4.17,0,0,1,2.51-.64h1v-.48a1.3,1.3,0,0,0-.32-.92,1.29,1.29,0,0,0-1-.35,1.46,1.46,0,0,0-.93.29.87.87,0,0,0-.36.72h-1.66a1.82,1.82,0,0,1,.4-1.14,2.68,2.68,0,0,1,1.1-.83,3.86,3.86,0,0,1,1.55-.3,3.15,3.15,0,0,1,2.07.65,2.34,2.34,0,0,1,.79,1.84v3.33a3.68,3.68,0,0,0,.28,1.59v.12Zm-1.82-1.2a1.89,1.89,0,0,0,.93-.23,1.63,1.63,0,0,0,.65-.65v-1.39h-.9a2.47,2.47,0,0,0-1.38.32,1,1,0,0,0-.47.91,1,1,0,0,0,.32.76A1.21,1.21,0,0,0,173.45,462.06Z"/>
          <path class="cls-3" d="M178.12,459.51a4.4,4.4,0,0,1,.79-2.75,2.54,2.54,0,0,1,2.13-1,2.4,2.4,0,0,1,1.9.82v-3.79h1.66v10.5h-1.5l-.09-.76a2.44,2.44,0,0,1-2,.9,2.53,2.53,0,0,1-2.1-1A4.58,4.58,0,0,1,178.12,459.51Zm1.66.14a3.08,3.08,0,0,0,.43,1.76,1.41,1.41,0,0,0,1.24.63,1.57,1.57,0,0,0,1.49-.91V458a1.54,1.54,0,0,0-1.48-.89,1.4,1.4,0,0,0-1.24.64A3.4,3.4,0,0,0,179.78,459.65Z"/>
          <path class="cls-3" d="M189.59,463.4a3.41,3.41,0,0,1-2.56-1,3.61,3.61,0,0,1-1-2.65v-.2a4.37,4.37,0,0,1,.43-2,3.24,3.24,0,0,1,1.2-1.36,3.16,3.16,0,0,1,1.72-.48,2.9,2.9,0,0,1,2.33,1,4.07,4.07,0,0,1,.83,2.73v.67h-4.84a2.27,2.27,0,0,0,.61,1.45,1.87,1.87,0,0,0,1.36.53,2.23,2.23,0,0,0,1.85-.92l.9.85a2.9,2.9,0,0,1-1.19,1A3.62,3.62,0,0,1,189.59,463.4Zm-.2-6.34a1.4,1.4,0,0,0-1.1.48,2.5,2.5,0,0,0-.54,1.33h3.17v-.12a2,2,0,0,0-.45-1.26A1.37,1.37,0,0,0,189.39,457.06Z"/>
          <path class="cls-3" d="M197.72,457.38a5.06,5.06,0,0,0-.68-.05,1.53,1.53,0,0,0-1.54.87v5.06h-1.66v-7.4h1.59l0,.83a1.88,1.88,0,0,1,1.67-1,1.61,1.61,0,0,1,.58.09Z"/>
          <path class="cls-3" d="M202.91,461.25a.77.77,0,0,0-.36-.68,4.14,4.14,0,0,0-1.22-.41,5.57,5.57,0,0,1-1.41-.45,1.89,1.89,0,0,1-1.25-1.74,2,2,0,0,1,.81-1.6,3.18,3.18,0,0,1,2.05-.64,3.33,3.33,0,0,1,2.14.65,2.08,2.08,0,0,1,.82,1.71h-1.66a1,1,0,0,0-.35-.8,1.4,1.4,0,0,0-.95-.32,1.53,1.53,0,0,0-.89.25.81.81,0,0,0-.35.68.67.67,0,0,0,.33.6,4.29,4.29,0,0,0,1.29.42,6.22,6.22,0,0,1,1.54.52,2.1,2.1,0,0,1,.83.71,1.84,1.84,0,0,1,.27,1,1.93,1.93,0,0,1-.83,1.62,3.54,3.54,0,0,1-2.17.62,3.84,3.84,0,0,1-1.62-.33,2.76,2.76,0,0,1-1.11-.9,2.19,2.19,0,0,1-.39-1.24H200a1.17,1.17,0,0,0,.45.91,1.71,1.71,0,0,0,1.08.31,1.66,1.66,0,0,0,1-.25A.75.75,0,0,0,202.91,461.25Z"/>
          <path class="cls-3" d="M207.63,456.67a2.59,2.59,0,0,1,2.06-.94q2.35,0,2.4,2.7v4.83h-1.66v-4.77a1.45,1.45,0,0,0-.34-1.08,1.31,1.31,0,0,0-1-.32,1.59,1.59,0,0,0-1.49.89v5.28H206v-10.5h1.66Z"/>
          <path class="cls-3" d="M213.77,453.94a.88.88,0,0,1,.24-.63,1.06,1.06,0,0,1,1.39,0,.92.92,0,0,1,0,1.26,1.09,1.09,0,0,1-1.39,0A.88.88,0,0,1,213.77,453.94Zm1.76,9.32h-1.66v-7.4h1.66Z"/>
          <path class="cls-3" d="M223.82,459.64a4.43,4.43,0,0,1-.78,2.74,2.71,2.71,0,0,1-4,.22v3.5h-1.66V455.86h1.53l.07.76a2.41,2.41,0,0,1,2-.89,2.5,2.5,0,0,1,2.12,1,4.52,4.52,0,0,1,.77,2.8Zm-1.66-.15a3,3,0,0,0-.44-1.75,1.41,1.41,0,0,0-1.26-.65,1.52,1.52,0,0,0-1.46.84v3.28a1.54,1.54,0,0,0,1.47.86,1.41,1.41,0,0,0,1.24-.64A3.37,3.37,0,0,0,222.16,459.49Z"/>
        </g>
        <g>
          <path class="cls-3" d="M356.44,443.22a3.63,3.63,0,0,1-1.17,2.49,4,4,0,0,1-2.73.89,3.83,3.83,0,0,1-2.09-.57,3.65,3.65,0,0,1-1.4-1.6,5.7,5.7,0,0,1-.51-2.41v-.93a5.84,5.84,0,0,1,.49-2.48,3.78,3.78,0,0,1,1.44-1.66,4,4,0,0,1,2.15-.58,3.89,3.89,0,0,1,2.66.89,3.74,3.74,0,0,1,1.16,2.53h-1.72a2.48,2.48,0,0,0-.62-1.55,2.07,2.07,0,0,0-1.48-.47,2,2,0,0,0-1.73.82,4.16,4.16,0,0,0-.62,2.42v.88a4.3,4.3,0,0,0,.58,2.46,1.9,1.9,0,0,0,1.69.85,2.25,2.25,0,0,0,1.53-.45,2.42,2.42,0,0,0,.65-1.53Z"/>
          <path class="cls-3" d="M357.52,442.69a4.3,4.3,0,0,1,.43-1.95,3.15,3.15,0,0,1,1.21-1.34,3.35,3.35,0,0,1,1.79-.47,3.23,3.23,0,0,1,2.43,1,3.81,3.81,0,0,1,1,2.56v.39a4.37,4.37,0,0,1-.42,2,3.13,3.13,0,0,1-1.2,1.34,3.46,3.46,0,0,1-1.81.47,3.21,3.21,0,0,1-2.5-1,4,4,0,0,1-.94-2.78Zm1.66.15a3,3,0,0,0,.47,1.79,1.65,1.65,0,0,0,2.62,0,3.33,3.33,0,0,0,.47-1.93,2.93,2.93,0,0,0-.48-1.77,1.62,1.62,0,0,0-2.6,0A3.21,3.21,0,0,0,359.18,442.84Z"/>
          <path class="cls-3" d="M369.67,440.58a4.91,4.91,0,0,0-.67-.05,1.52,1.52,0,0,0-1.54.87v5.06H365.8v-7.4h1.58l0,.83a1.88,1.88,0,0,1,1.67-1,1.66,1.66,0,0,1,.59.09Z"/>
          <path class="cls-3" d="M374,446.6a3.41,3.41,0,0,1-2.56-1,3.57,3.57,0,0,1-1-2.65v-.2a4.37,4.37,0,0,1,.43-2,3.29,3.29,0,0,1,1.19-1.36,3.22,3.22,0,0,1,1.73-.48,2.91,2.91,0,0,1,2.33,1,4.07,4.07,0,0,1,.83,2.73v.67h-4.84a2.27,2.27,0,0,0,.61,1.45,1.86,1.86,0,0,0,1.35.53,2.24,2.24,0,0,0,1.86-.92l.9.85a2.9,2.9,0,0,1-1.19,1A3.62,3.62,0,0,1,374,446.6Zm-.2-6.34a1.4,1.4,0,0,0-1.1.48,2.5,2.5,0,0,0-.54,1.33h3.16V442a2,2,0,0,0-.44-1.26A1.37,1.37,0,0,0,373.78,440.26Z"/>
          <path class="cls-3" d="M388.2,442.84a4.43,4.43,0,0,1-.78,2.74,2.5,2.5,0,0,1-2.09,1,2.53,2.53,0,0,1-1.95-.8v3.5h-1.66V439.06h1.53l.07.76a2.41,2.41,0,0,1,2-.89,2.5,2.5,0,0,1,2.12,1,4.52,4.52,0,0,1,.77,2.8Zm-1.66-.15a3,3,0,0,0-.44-1.75,1.41,1.41,0,0,0-1.26-.65,1.52,1.52,0,0,0-1.46.84v3.28a1.54,1.54,0,0,0,1.47.86,1.44,1.44,0,0,0,1.25-.64A3.46,3.46,0,0,0,386.54,442.69Z"/>
          <path class="cls-3" d="M393.47,440.58a4.8,4.8,0,0,0-.67-.05,1.52,1.52,0,0,0-1.54.87v5.06H389.6v-7.4h1.58l.05.83a1.86,1.86,0,0,1,1.66-1,1.63,1.63,0,0,1,.59.09Z"/>
          <path class="cls-3" d="M394,442.69a4.3,4.3,0,0,1,.43-1.95,3.09,3.09,0,0,1,1.21-1.34,3.32,3.32,0,0,1,1.79-.47,3.23,3.23,0,0,1,2.43,1,3.81,3.81,0,0,1,1,2.56v.39a4.37,4.37,0,0,1-.42,2,3.13,3.13,0,0,1-1.2,1.34,3.46,3.46,0,0,1-1.81.47,3.21,3.21,0,0,1-2.5-1,4,4,0,0,1-.94-2.78Zm1.66.15a3,3,0,0,0,.47,1.79,1.65,1.65,0,0,0,2.62,0,3.33,3.33,0,0,0,.47-1.93,2.93,2.93,0,0,0-.48-1.77,1.62,1.62,0,0,0-2.6,0A3.21,3.21,0,0,0,395.63,442.84Z"/>
          <path class="cls-3" d="M401.94,442.71a4.4,4.4,0,0,1,.79-2.75,2.54,2.54,0,0,1,2.13-1,2.42,2.42,0,0,1,1.9.82V436h1.66v10.5h-1.51l-.08-.76a2.44,2.44,0,0,1-2,.9,2.53,2.53,0,0,1-2.1-1.05A4.58,4.58,0,0,1,401.94,442.71Zm1.66.14a3.08,3.08,0,0,0,.43,1.76,1.41,1.41,0,0,0,1.24.63,1.57,1.57,0,0,0,1.49-.91v-3.15a1.54,1.54,0,0,0-1.48-.89,1.4,1.4,0,0,0-1.24.64A3.43,3.43,0,0,0,403.6,442.85Z"/>
          <path class="cls-3" d="M414.63,445.74a2.59,2.59,0,0,1-2.08.86,2.29,2.29,0,0,1-1.82-.71,3,3,0,0,1-.62-2v-4.8h1.66v4.78c0,.94.39,1.4,1.17,1.4a1.65,1.65,0,0,0,1.64-.86v-5.32h1.66v7.4h-1.57Z"/>
          <path class="cls-3" d="M421,445.27a1.5,1.5,0,0,0,1-.36,1.26,1.26,0,0,0,.44-.9H424a2.37,2.37,0,0,1-.43,1.29,2.8,2.8,0,0,1-1.09.95,3.3,3.3,0,0,1-1.49.35,3.15,3.15,0,0,1-2.46-1,4,4,0,0,1-.91-2.77v-.17a3.94,3.94,0,0,1,.9-2.71,3.14,3.14,0,0,1,2.46-1,3,3,0,0,1,2.15.77,2.69,2.69,0,0,1,.87,2h-1.56a1.49,1.49,0,0,0-.44-1.05,1.39,1.39,0,0,0-1-.41,1.48,1.48,0,0,0-1.25.59,3,3,0,0,0-.44,1.77v.27a3,3,0,0,0,.43,1.79A1.48,1.48,0,0,0,421,445.27Z"/>
          <path class="cls-3" d="M427.34,437.27v1.79h1.31v1.23h-1.31v4.13a.94.94,0,0,0,.17.62.8.8,0,0,0,.6.18,2.93,2.93,0,0,0,.58-.06v1.28a4,4,0,0,1-1.1.16c-1.27,0-1.91-.71-1.91-2.11v-4.2h-1.22v-1.23h1.22v-1.79Z"/>
          <path class="cls-3" d="M433.09,442.69a4.3,4.3,0,0,1,.43-1.95,3.15,3.15,0,0,1,1.21-1.34,3.35,3.35,0,0,1,1.79-.47,3.23,3.23,0,0,1,2.43,1,3.81,3.81,0,0,1,1,2.56v.39a4.37,4.37,0,0,1-.42,2,3.15,3.15,0,0,1-1.21,1.34,3.46,3.46,0,0,1-1.81.47,3.22,3.22,0,0,1-2.5-1,4,4,0,0,1-.94-2.78Zm1.66.15a3,3,0,0,0,.47,1.79,1.65,1.65,0,0,0,2.62,0,3.26,3.26,0,0,0,.47-1.93,2.93,2.93,0,0,0-.48-1.77,1.62,1.62,0,0,0-2.6,0A3.21,3.21,0,0,0,434.75,442.84Z"/>
          <path class="cls-3" d="M445.24,440.58a4.91,4.91,0,0,0-.67-.05,1.52,1.52,0,0,0-1.54.87v5.06h-1.66v-7.4H443l0,.83a1.89,1.89,0,0,1,1.67-1,1.63,1.63,0,0,1,.59.09Z"/>
          <path class="cls-3" d="M453.92,444.45a.77.77,0,0,0-.36-.68,4.05,4.05,0,0,0-1.21-.41,5.52,5.52,0,0,1-1.42-.45,1.88,1.88,0,0,1-1.24-1.74,2,2,0,0,1,.8-1.6,3.18,3.18,0,0,1,2.05-.64,3.38,3.38,0,0,1,2.15.65,2.1,2.1,0,0,1,.81,1.71h-1.66a1,1,0,0,0-.35-.8,1.38,1.38,0,0,0-.95-.32,1.53,1.53,0,0,0-.89.25.8.8,0,0,0-.34.68.66.66,0,0,0,.32.6,4.38,4.38,0,0,0,1.3.42,6.27,6.27,0,0,1,1.53.52,2.1,2.1,0,0,1,.83.71,1.84,1.84,0,0,1,.27,1,1.93,1.93,0,0,1-.83,1.62,3.54,3.54,0,0,1-2.17.62,3.84,3.84,0,0,1-1.62-.33,2.67,2.67,0,0,1-1.1-.9,2.13,2.13,0,0,1-.4-1.24h1.61a1.2,1.2,0,0,0,.45.91,1.71,1.71,0,0,0,1.08.31,1.64,1.64,0,0,0,1-.25A.75.75,0,0,0,453.92,444.45Z"/>
          <path class="cls-3" d="M460.26,446.6a3.43,3.43,0,0,1-2.56-1,3.61,3.61,0,0,1-1-2.65v-.2a4.37,4.37,0,0,1,.43-2,3.24,3.24,0,0,1,1.2-1.36,3.19,3.19,0,0,1,1.72-.48,2.92,2.92,0,0,1,2.34,1,4.12,4.12,0,0,1,.82,2.73v.67H458.4a2.22,2.22,0,0,0,.61,1.45,1.86,1.86,0,0,0,1.35.53,2.27,2.27,0,0,0,1.86-.92l.89.85a2.88,2.88,0,0,1-1.18,1A3.66,3.66,0,0,1,460.26,446.6Zm-.2-6.34a1.4,1.4,0,0,0-1.1.48,2.5,2.5,0,0,0-.54,1.33h3.17V442a2,2,0,0,0-.45-1.26A1.37,1.37,0,0,0,460.06,440.26Z"/>
          <path class="cls-3" d="M468.39,440.58a4.94,4.94,0,0,0-.68-.05,1.53,1.53,0,0,0-1.54.87v5.06h-1.66v-7.4h1.59l0,.83a1.88,1.88,0,0,1,1.67-1,1.66,1.66,0,0,1,.59.09Z"/>
          <path class="cls-3" d="M472.17,444.36l1.57-5.3h1.71l-2.56,7.4h-1.44l-2.59-7.4h1.72Z"/>
          <path class="cls-3" d="M476.49,437.14a.88.88,0,0,1,.24-.63.93.93,0,0,1,.7-.26.9.9,0,0,1,.69.26.92.92,0,0,1,0,1.26.9.9,0,0,1-.69.25.92.92,0,0,1-.7-.25A.88.88,0,0,1,476.49,437.14Zm1.76,9.32h-1.66v-7.4h1.66Z"/>
          <path class="cls-3" d="M483.1,445.27a1.49,1.49,0,0,0,1-.36,1.22,1.22,0,0,0,.44-.9h1.57a2.54,2.54,0,0,1-.43,1.29,2.83,2.83,0,0,1-1.1.95,3.3,3.3,0,0,1-1.49.35,3.17,3.17,0,0,1-2.46-1,4,4,0,0,1-.91-2.77v-.17a3.94,3.94,0,0,1,.9-2.71,3.15,3.15,0,0,1,2.46-1,3,3,0,0,1,2.15.77,2.73,2.73,0,0,1,.88,2h-1.57a1.52,1.52,0,0,0-.43-1.05,1.42,1.42,0,0,0-1-.41,1.45,1.45,0,0,0-1.24.59,3,3,0,0,0-.45,1.77v.27a3,3,0,0,0,.44,1.79A1.46,1.46,0,0,0,483.1,445.27Z"/>
          <path class="cls-3" d="M490.65,446.6a3.4,3.4,0,0,1-2.56-1,3.57,3.57,0,0,1-1-2.65v-.2a4.5,4.5,0,0,1,.42-2,3.38,3.38,0,0,1,1.2-1.36,3.22,3.22,0,0,1,1.73-.48,2.91,2.91,0,0,1,2.33,1,4.07,4.07,0,0,1,.82,2.73v.67h-4.83a2.27,2.27,0,0,0,.61,1.45,1.86,1.86,0,0,0,1.35.53,2.27,2.27,0,0,0,1.86-.92l.9.85a2.9,2.9,0,0,1-1.19,1A3.62,3.62,0,0,1,490.65,446.6Zm-.2-6.34a1.38,1.38,0,0,0-1.1.48,2.5,2.5,0,0,0-.54,1.33H492V442a2,2,0,0,0-.44-1.26A1.37,1.37,0,0,0,490.45,440.26Z"/>
        </g>
        <g>
          <path class="cls-3" d="M353,542.43a3.58,3.58,0,0,1-1.18,2.49,4,4,0,0,1-2.72.89,4,4,0,0,1-2.1-.56,3.74,3.74,0,0,1-1.4-1.61,5.82,5.82,0,0,1-.51-2.41v-.93a5.84,5.84,0,0,1,.5-2.48,3.68,3.68,0,0,1,1.43-1.65,4,4,0,0,1,2.16-.59,3.82,3.82,0,0,1,2.65.9A3.7,3.7,0,0,1,353,539h-1.72a2.45,2.45,0,0,0-.63-1.55,2.08,2.08,0,0,0-1.47-.47,2,2,0,0,0-1.73.82,4.09,4.09,0,0,0-.62,2.42v.88a4.44,4.44,0,0,0,.57,2.47,1.94,1.94,0,0,0,1.7.85,2.26,2.26,0,0,0,1.53-.46,2.42,2.42,0,0,0,.65-1.53Z"/>
          <path class="cls-3" d="M356.18,545.67h-1.66v-10.5h1.66Z"/>
          <path class="cls-3" d="M361.25,545.81a3.43,3.43,0,0,1-2.56-1,3.6,3.6,0,0,1-1-2.65V542a4.5,4.5,0,0,1,.42-2,3.29,3.29,0,0,1,1.2-1.35,3.14,3.14,0,0,1,1.73-.49,2.91,2.91,0,0,1,2.33,1,4.1,4.1,0,0,1,.82,2.73v.67h-4.83A2.2,2.2,0,0,0,360,544a1.82,1.82,0,0,0,1.35.53,2.24,2.24,0,0,0,1.86-.92l.9.86a3,3,0,0,1-1.19,1A3.62,3.62,0,0,1,361.25,545.81Zm-.2-6.34a1.4,1.4,0,0,0-1.11.48,2.49,2.49,0,0,0-.53,1.34h3.16v-.13a2,2,0,0,0-.44-1.26A1.41,1.41,0,0,0,361.05,539.47Z"/>
          <path class="cls-3" d="M369.92,545.67a2.89,2.89,0,0,1-.19-.69,2.78,2.78,0,0,1-3.76.19,2,2,0,0,1-.7-1.57,2.09,2.09,0,0,1,.87-1.81,4.3,4.3,0,0,1,2.52-.63h1v-.49a1.28,1.28,0,0,0-.33-.92,1.26,1.26,0,0,0-1-.34,1.45,1.45,0,0,0-.93.28.89.89,0,0,0-.37.72h-1.66a1.83,1.83,0,0,1,.41-1.14,2.71,2.71,0,0,1,1.09-.83,3.9,3.9,0,0,1,1.55-.3,3.11,3.11,0,0,1,2.07.65,2.35,2.35,0,0,1,.8,1.84V544a3.76,3.76,0,0,0,.28,1.6v.11Zm-1.82-1.19a1.89,1.89,0,0,0,.92-.24,1.7,1.7,0,0,0,.66-.64v-1.4h-.9a2.5,2.5,0,0,0-1.39.32,1,1,0,0,0-.46.91.94.94,0,0,0,.32.76A1.22,1.22,0,0,0,368.1,544.48Z"/>
          <path class="cls-3" d="M377,539.79a5.06,5.06,0,0,0-.68,0,1.53,1.53,0,0,0-1.54.88v5h-1.66v-7.39h1.59l0,.82a1.88,1.88,0,0,1,1.67-1,1.49,1.49,0,0,1,.59.1Z"/>
          <path class="cls-3" d="M384.09,543.57l1.57-5.29h1.71l-2.56,7.39h-1.44l-2.59-7.39h1.73Z"/>
          <path class="cls-3" d="M388.41,536.36a.86.86,0,0,1,.25-.64.9.9,0,0,1,.69-.25.94.94,0,0,1,.7.25.89.89,0,0,1,.24.64.84.84,0,0,1-.24.62.94.94,0,0,1-.7.25.9.9,0,0,1-.69-.25A.81.81,0,0,1,388.41,536.36Zm1.77,9.31h-1.66v-7.39h1.66Z"/>
          <path class="cls-3" d="M396.13,543.66a.74.74,0,0,0-.37-.67,3.7,3.7,0,0,0-1.21-.41,6.33,6.33,0,0,1-1.41-.45,1.91,1.91,0,0,1-1.25-1.75,2,2,0,0,1,.81-1.6,3.18,3.18,0,0,1,2.05-.64,3.3,3.3,0,0,1,2.14.66,2.05,2.05,0,0,1,.82,1.7h-1.66a1,1,0,0,0-.36-.8,1.35,1.35,0,0,0-.94-.32,1.45,1.45,0,0,0-.89.26.8.8,0,0,0-.35.67.68.68,0,0,0,.32.6,4.75,4.75,0,0,0,1.3.43,6,6,0,0,1,1.54.51,2.24,2.24,0,0,1,.82.71,1.85,1.85,0,0,1,.27,1,1.92,1.92,0,0,1-.82,1.61,3.56,3.56,0,0,1-2.17.62,3.78,3.78,0,0,1-1.62-.33,2.76,2.76,0,0,1-1.11-.9,2.17,2.17,0,0,1-.39-1.24h1.61a1.18,1.18,0,0,0,.44.91,1.76,1.76,0,0,0,1.09.32,1.73,1.73,0,0,0,1-.25A.78.78,0,0,0,396.13,543.66Z"/>
          <path class="cls-3" d="M399.21,536.36a.86.86,0,0,1,.25-.64.9.9,0,0,1,.69-.25.94.94,0,0,1,.7.25.89.89,0,0,1,.24.64.84.84,0,0,1-.24.62.94.94,0,0,1-.7.25.9.9,0,0,1-.69-.25A.81.81,0,0,1,399.21,536.36Zm1.77,9.31h-1.66v-7.39H401Z"/>
          <path class="cls-3" d="M402.47,541.91a4.31,4.31,0,0,1,.44-2,3.09,3.09,0,0,1,1.21-1.34,3.39,3.39,0,0,1,1.79-.47,3.26,3.26,0,0,1,2.43,1,3.82,3.82,0,0,1,1,2.56v.39a4.44,4.44,0,0,1-.42,2,3.16,3.16,0,0,1-1.2,1.33,3.49,3.49,0,0,1-1.81.47,3.24,3.24,0,0,1-2.51-1,4,4,0,0,1-.94-2.78Zm1.67.14a3,3,0,0,0,.47,1.79,1.52,1.52,0,0,0,1.31.64,1.51,1.51,0,0,0,1.31-.65,3.32,3.32,0,0,0,.47-1.92,2.89,2.89,0,0,0-.49-1.78,1.52,1.52,0,0,0-1.3-.66,1.54,1.54,0,0,0-1.3.65A3.21,3.21,0,0,0,404.14,542.05Z"/>
          <path class="cls-3" d="M412.3,538.28l.05.85a2.64,2.64,0,0,1,2.15-1c1.54,0,2.32.88,2.35,2.65v4.88h-1.66v-4.79a1.47,1.47,0,0,0-.31-1,1.25,1.25,0,0,0-1-.34,1.6,1.6,0,0,0-1.5.91v5.26h-1.66v-7.39Z"/>
          <path class="cls-3" d="M426.45,545.67a2.48,2.48,0,0,1-.19-.69,2.78,2.78,0,0,1-3.76.19,2,2,0,0,1-.71-1.57,2.1,2.1,0,0,1,.88-1.81,4.27,4.27,0,0,1,2.51-.63h1v-.49a1.32,1.32,0,0,0-.32-.92,1.27,1.27,0,0,0-1-.34,1.45,1.45,0,0,0-.93.28.88.88,0,0,0-.36.72H422a1.82,1.82,0,0,1,.4-1.14,2.74,2.74,0,0,1,1.1-.83,3.86,3.86,0,0,1,1.55-.3,3.15,3.15,0,0,1,2.07.65,2.34,2.34,0,0,1,.79,1.84V544a3.93,3.93,0,0,0,.28,1.6v.11Zm-1.83-1.19a1.9,1.9,0,0,0,.93-.24,1.6,1.6,0,0,0,.65-.64v-1.4h-.89a2.48,2.48,0,0,0-1.39.32,1.06,1.06,0,0,0-.47.91,1,1,0,0,0,.32.76A1.23,1.23,0,0,0,424.62,544.48Z"/>
          <path class="cls-3" d="M431.14,538.28l.05.85a2.68,2.68,0,0,1,2.16-1c1.54,0,2.32.88,2.35,2.65v4.88H434v-4.79a1.52,1.52,0,0,0-.31-1,1.25,1.25,0,0,0-1-.34,1.6,1.6,0,0,0-1.5.91v5.26h-1.66v-7.39Z"/>
          <path class="cls-3" d="M437.08,541.92a4.37,4.37,0,0,1,.79-2.74,2.55,2.55,0,0,1,2.13-1,2.42,2.42,0,0,1,1.9.82v-3.79h1.66v10.5h-1.51l-.08-.76a2.44,2.44,0,0,1-2,.9,2.53,2.53,0,0,1-2.1-1A4.56,4.56,0,0,1,437.08,541.92Zm1.66.14a3.05,3.05,0,0,0,.43,1.76,1.4,1.4,0,0,0,1.24.64,1.58,1.58,0,0,0,1.49-.91v-3.16a1.56,1.56,0,0,0-1.48-.89,1.4,1.4,0,0,0-1.24.64A3.37,3.37,0,0,0,438.74,542.06Z"/>
          <path class="cls-3" d="M450.34,538.28l.05.77a2.65,2.65,0,0,1,2.13-.91,2,2,0,0,1,2,1.14,2.62,2.62,0,0,1,2.27-1.14,2.3,2.3,0,0,1,1.82.68,3,3,0,0,1,.61,2v4.86h-1.66v-4.81a1.49,1.49,0,0,0-.3-1,1.36,1.36,0,0,0-1-.33,1.4,1.4,0,0,0-.93.3,1.59,1.59,0,0,0-.5.8v5.07h-1.66v-4.86a1.18,1.18,0,0,0-1.33-1.31,1.44,1.44,0,0,0-1.41.81v5.36h-1.67v-7.39Z"/>
          <path class="cls-3" d="M461,536.36a.86.86,0,0,1,.25-.64.9.9,0,0,1,.69-.25.94.94,0,0,1,.7.25.89.89,0,0,1,.24.64.84.84,0,0,1-.24.62.94.94,0,0,1-.7.25.9.9,0,0,1-.69-.25A.81.81,0,0,1,461,536.36Zm1.77,9.31h-1.66v-7.39h1.66Z"/>
          <path class="cls-3" d="M468.68,543.66a.74.74,0,0,0-.37-.67,3.7,3.7,0,0,0-1.21-.41,6.33,6.33,0,0,1-1.41-.45,1.91,1.91,0,0,1-1.25-1.75,2,2,0,0,1,.81-1.6,3.18,3.18,0,0,1,2.05-.64,3.3,3.3,0,0,1,2.14.66,2.05,2.05,0,0,1,.82,1.7H468.6a1,1,0,0,0-.36-.8,1.35,1.35,0,0,0-.94-.32,1.45,1.45,0,0,0-.89.26.8.8,0,0,0-.35.67.68.68,0,0,0,.32.6,4.75,4.75,0,0,0,1.3.43,6,6,0,0,1,1.54.51,2.24,2.24,0,0,1,.82.71,1.85,1.85,0,0,1,.27,1,1.92,1.92,0,0,1-.82,1.61,3.56,3.56,0,0,1-2.17.62,3.78,3.78,0,0,1-1.62-.33,2.76,2.76,0,0,1-1.11-.9,2.17,2.17,0,0,1-.39-1.24h1.61a1.18,1.18,0,0,0,.44.91,1.76,1.76,0,0,0,1.09.32,1.73,1.73,0,0,0,1-.25A.78.78,0,0,0,468.68,543.66Z"/>
          <path class="cls-3" d="M475.91,543.66a.76.76,0,0,0-.37-.67,3.79,3.79,0,0,0-1.21-.41,6.43,6.43,0,0,1-1.42-.45,1.9,1.9,0,0,1-1.24-1.75,2,2,0,0,1,.8-1.6,3.21,3.21,0,0,1,2.06-.64,3.31,3.31,0,0,1,2.14.66,2.08,2.08,0,0,1,.82,1.7h-1.67a1,1,0,0,0-.35-.8,1.37,1.37,0,0,0-.94-.32,1.48,1.48,0,0,0-.9.26.79.79,0,0,0-.34.67.66.66,0,0,0,.32.6,4.63,4.63,0,0,0,1.3.43,5.91,5.91,0,0,1,1.53.51,2.27,2.27,0,0,1,.83.71,1.85,1.85,0,0,1,.27,1,1.93,1.93,0,0,1-.83,1.61,3.53,3.53,0,0,1-2.16.62,3.78,3.78,0,0,1-1.62-.33,2.64,2.64,0,0,1-1.11-.9,2.11,2.11,0,0,1-.4-1.24H473a1.18,1.18,0,0,0,.44.91,1.74,1.74,0,0,0,1.09.32,1.7,1.7,0,0,0,1-.25A.79.79,0,0,0,475.91,543.66Z"/>
          <path class="cls-3" d="M479,536.36a.89.89,0,0,1,.24-.64.92.92,0,0,1,.7-.25.9.9,0,0,1,.69.25.86.86,0,0,1,.25.64.81.81,0,0,1-.25.62.9.9,0,0,1-.69.25.92.92,0,0,1-.7-.25A.84.84,0,0,1,479,536.36Zm1.76,9.31h-1.66v-7.39h1.66Z"/>
          <path class="cls-3" d="M482.25,541.91a4.31,4.31,0,0,1,.43-2,3.15,3.15,0,0,1,1.21-1.34,3.44,3.44,0,0,1,1.79-.47,3.23,3.23,0,0,1,2.43,1,3.83,3.83,0,0,1,1,2.56v.39a4.44,4.44,0,0,1-.42,2,3.12,3.12,0,0,1-1.21,1.33,3.45,3.45,0,0,1-1.8.47,3.23,3.23,0,0,1-2.51-1,4,4,0,0,1-.94-2.78Zm1.66.14a3,3,0,0,0,.47,1.79,1.54,1.54,0,0,0,1.32.64,1.49,1.49,0,0,0,1.3-.65,3.24,3.24,0,0,0,.47-1.92,3,3,0,0,0-.48-1.78,1.62,1.62,0,0,0-2.6,0A3.21,3.21,0,0,0,483.91,542.05Z"/>
          <path class="cls-3" d="M492.07,538.28l.05.85a2.67,2.67,0,0,1,2.15-1c1.54,0,2.33.88,2.36,2.65v4.88H495v-4.79a1.52,1.52,0,0,0-.3-1,1.25,1.25,0,0,0-1-.34,1.6,1.6,0,0,0-1.5.91v5.26h-1.66v-7.39Z"/>
        </g>
        <g>
          <path class="cls-3" d="M626.73,444.14h-3.86l-.8,2.32h-1.8l3.76-9.95h1.55l3.77,9.95h-1.81Zm-3.37-1.39h2.88l-1.44-4.13Z"/>
          <path class="cls-3" d="M630,442.71a4.47,4.47,0,0,1,.79-2.75,2.54,2.54,0,0,1,2.13-1,2.4,2.4,0,0,1,1.9.82V436h1.66v10.5H635l-.08-.76a2.46,2.46,0,0,1-2,.9,2.54,2.54,0,0,1-2.11-1.05A4.58,4.58,0,0,1,630,442.71Zm1.66.14a3.07,3.07,0,0,0,.44,1.76,1.41,1.41,0,0,0,1.23.63,1.56,1.56,0,0,0,1.49-.91v-3.15a1.53,1.53,0,0,0-1.48-.89,1.41,1.41,0,0,0-1.24.64A3.43,3.43,0,0,0,631.66,442.85Z"/>
          <path class="cls-3" d="M641.47,446.6a3.43,3.43,0,0,1-2.56-1,3.61,3.61,0,0,1-1-2.65v-.2a4.37,4.37,0,0,1,.43-2,3.24,3.24,0,0,1,1.2-1.36,3.19,3.19,0,0,1,1.72-.48,2.92,2.92,0,0,1,2.34,1,4.07,4.07,0,0,1,.82,2.73v.67h-4.83a2.22,2.22,0,0,0,.61,1.45,1.86,1.86,0,0,0,1.35.53,2.27,2.27,0,0,0,1.86-.92l.89.85a2.88,2.88,0,0,1-1.18,1A3.66,3.66,0,0,1,641.47,446.6Zm-.2-6.34a1.4,1.4,0,0,0-1.1.48,2.5,2.5,0,0,0-.54,1.33h3.17V442a2,2,0,0,0-.45-1.26A1.37,1.37,0,0,0,641.27,440.26Z"/>
          <path class="cls-3" d="M645.42,442.7a4.34,4.34,0,0,1,.79-2.75,2.57,2.57,0,0,1,2.15-1,2.43,2.43,0,0,1,2,.87l.09-.74h1.48V449.3h-1.66v-3.47a2.48,2.48,0,0,1-1.89.77,2.55,2.55,0,0,1-2.12-1A4.52,4.52,0,0,1,645.42,442.7Zm1.66.14a3.1,3.1,0,0,0,.45,1.79,1.41,1.41,0,0,0,1.24.64,1.58,1.58,0,0,0,1.46-.84v-3.36a1.57,1.57,0,0,0-1.45-.81,1.45,1.45,0,0,0-1.25.64A3.37,3.37,0,0,0,647.08,442.84Z"/>
          <path class="cls-3" d="M658.16,445.74a2.59,2.59,0,0,1-2.08.86,2.29,2.29,0,0,1-1.82-.71,3,3,0,0,1-.62-2v-4.8h1.66v4.78c0,.94.39,1.4,1.17,1.4a1.62,1.62,0,0,0,1.63-.86v-5.32h1.67v7.4H658.2Z"/>
          <path class="cls-3" d="M665.88,446.46a2.17,2.17,0,0,1-.19-.69,2.61,2.61,0,0,1-2,.83,2.55,2.55,0,0,1-1.81-.64,2,2,0,0,1-.71-1.57,2.08,2.08,0,0,1,.88-1.81,4.19,4.19,0,0,1,2.51-.64h1v-.48a1.3,1.3,0,0,0-.32-.92,1.29,1.29,0,0,0-1-.35,1.46,1.46,0,0,0-.93.29.88.88,0,0,0-.36.72h-1.66a1.82,1.82,0,0,1,.4-1.14,2.74,2.74,0,0,1,1.1-.83,3.86,3.86,0,0,1,1.55-.3,3.15,3.15,0,0,1,2.07.65,2.34,2.34,0,0,1,.79,1.84v3.33a3.68,3.68,0,0,0,.28,1.59v.12Zm-1.83-1.2A1.89,1.89,0,0,0,665,445a1.63,1.63,0,0,0,.65-.65V443h-.89a2.48,2.48,0,0,0-1.39.32,1,1,0,0,0-.47.91,1,1,0,0,0,.32.76A1.23,1.23,0,0,0,664.05,445.26Z"/>
          <path class="cls-3" d="M671.11,437.27v1.79h1.31v1.23h-1.31v4.13a.94.94,0,0,0,.17.62.8.8,0,0,0,.6.18,2.93,2.93,0,0,0,.58-.06v1.28a3.89,3.89,0,0,1-1.09.16c-1.28,0-1.92-.71-1.92-2.11v-4.2h-1.21v-1.23h1.21v-1.79Z"/>
          <path class="cls-3" d="M676.94,446.6a3.43,3.43,0,0,1-2.56-1,3.61,3.61,0,0,1-1-2.65v-.2a4.5,4.5,0,0,1,.43-2,3.31,3.31,0,0,1,1.2-1.36,3.19,3.19,0,0,1,1.72-.48,2.92,2.92,0,0,1,2.34,1,4.07,4.07,0,0,1,.82,2.73v.67h-4.83a2.22,2.22,0,0,0,.61,1.45,1.86,1.86,0,0,0,1.35.53,2.27,2.27,0,0,0,1.86-.92l.89.85a2.88,2.88,0,0,1-1.18,1A3.66,3.66,0,0,1,676.94,446.6Zm-.19-6.34a1.4,1.4,0,0,0-1.11.48,2.41,2.41,0,0,0-.53,1.33h3.16V442a2,2,0,0,0-.44-1.26A1.37,1.37,0,0,0,676.75,440.26Z"/>
          <path class="cls-3" d="M631.84,459h-4v4.22h-1.72v-9.95h6.32v1.39h-4.6v3h4Z"/>
          <path class="cls-3" d="M638,462.54a2.59,2.59,0,0,1-2.08.86,2.28,2.28,0,0,1-1.82-.71,3,3,0,0,1-.62-2v-4.8h1.66v4.78c0,.94.39,1.4,1.17,1.4a1.65,1.65,0,0,0,1.63-.86v-5.32h1.66v7.4H638Z"/>
          <path class="cls-3" d="M642.81,455.86l0,.86a2.68,2.68,0,0,1,2.16-1c1.54,0,2.32.88,2.35,2.64v4.89H645.7v-4.79a1.47,1.47,0,0,0-.31-1,1.25,1.25,0,0,0-1-.34,1.6,1.6,0,0,0-1.5.91v5.26h-1.66v-7.4Z"/>
          <path class="cls-3" d="M648.74,459.51a4.4,4.4,0,0,1,.79-2.75,2.54,2.54,0,0,1,2.13-1,2.4,2.4,0,0,1,1.9.82v-3.79h1.66v10.5h-1.5l-.09-.76a2.44,2.44,0,0,1-2,.9,2.53,2.53,0,0,1-2.1-1A4.58,4.58,0,0,1,648.74,459.51Zm1.66.14a3.08,3.08,0,0,0,.43,1.76,1.43,1.43,0,0,0,1.24.63,1.57,1.57,0,0,0,1.49-.91V458a1.54,1.54,0,0,0-1.48-.89,1.4,1.4,0,0,0-1.24.64A3.4,3.4,0,0,0,650.4,459.65Z"/>
          <path class="cls-3" d="M657,453.94a.88.88,0,0,1,.24-.63.9.9,0,0,1,.69-.26.93.93,0,0,1,.7.26.92.92,0,0,1,0,1.26.92.92,0,0,1-.7.25.9.9,0,0,1-.69-.25A.88.88,0,0,1,657,453.94Zm1.76,9.32h-1.66v-7.4h1.66Z"/>
          <path class="cls-3" d="M662.07,455.86l0,.86a2.64,2.64,0,0,1,2.15-1c1.54,0,2.32.88,2.35,2.64v4.89H665v-4.79a1.52,1.52,0,0,0-.3-1,1.29,1.29,0,0,0-1-.34,1.58,1.58,0,0,0-1.49.91v5.26H660.5v-7.4Z"/>
          <path class="cls-3" d="M668,459.51a4.31,4.31,0,0,1,.81-2.75,2.59,2.59,0,0,1,2.15-1,2.42,2.42,0,0,1,2,.88l.08-.75h1.49V463a3,3,0,0,1-.9,2.29,3.44,3.44,0,0,1-2.44.84,3.82,3.82,0,0,1-1.59-.34,2.8,2.8,0,0,1-1.18-.88l.78-1a2.37,2.37,0,0,0,1.89.91,1.84,1.84,0,0,0,1.31-.45,1.73,1.73,0,0,0,.47-1.31v-.5a2.43,2.43,0,0,1-1.91.8,2.61,2.61,0,0,1-2.12-1A4.49,4.49,0,0,1,668,459.51Zm1.66.14a3,3,0,0,0,.45,1.76,1.48,1.48,0,0,0,1.26.63,1.58,1.58,0,0,0,1.49-.86v-3.25a1.56,1.56,0,0,0-1.47-.84,1.47,1.47,0,0,0-1.28.65A3.35,3.35,0,0,0,669.68,459.65Z"/>
        </g>
      </g>
    </g>
  </g>
</svg>
