<?xml version="1.0" encoding="utf-8"?>
<!-- Generator: Adobe Illustrator 21.0.0, SVG Export Plug-In . SVG Version: 6.00 Build 0)  -->
<svg version="1.1" id="Layer_1" xmlns="http://www.w3.org/2000/svg" xmlns:xlink="http://www.w3.org/1999/xlink" x="0px" y="0px"
	 viewBox="0 0 841.9 595.3" style="enable-background:new 0 0 841.9 595.3;" xml:space="preserve">
<style type="text/css">
	.st0{fill:#4982AB;}
	.st1{fill:#5A93BB;}
	.st2{fill:#FFFFFF;}
	.st3{fill:#659B75;}
	.st4{fill:#529267;}
	.st5{fill:none;stroke:#529267;stroke-width:3;stroke-miterlimit:10;}
	.st6{fill:#E6BD69;}
	.st7{fill:#D56761;}
	.st8{fill:#DAA147;}
	.st9{fill:none;stroke:#DAA147;stroke-width:3;stroke-miterlimit:10;}
</style>
<title>pyramid-mobile</title>
<g id="Слой_2">
	<g id="Layer_4">
		<g>
			<g>
				<polygon class="st0" points="293.6,198.4 420.9,0 280.6,198.4 				"/>
				<g>
					<polygon class="st1" points="293.6,198.4 548.3,198.4 420.9,0 					"/>
					<polygon class="st0" points="420.9,0 548.3,198.4 561.3,198.4 					"/>
				</g>
			</g>
			<g>
				<path class="st2" d="M360.8,129.7c-0.1,1.2-0.6,2.3-1.4,3.1c-1,0.8-2.2,1.1-3.4,1.1c-0.9,0-1.8-0.2-2.6-0.7
					c-0.8-0.5-1.4-1.2-1.7-2c-0.4-0.9-0.6-2-0.6-3V127c0-1.1,0.2-2.1,0.6-3.1c0.4-0.8,1-1.5,1.8-2c0.8-0.5,1.7-0.7,2.7-0.7
					c1.2-0.1,2.3,0.3,3.2,1.1c0.9,0.8,1.4,1.9,1.4,3.1h-2.2c0-0.7-0.3-1.4-0.8-1.9c-0.5-0.4-1.2-0.6-1.8-0.6c-0.8,0-1.7,0.3-2.2,1
					c-0.6,0.9-0.8,1.9-0.8,3v1.1c-0.1,1.1,0.2,2.1,0.7,3c0.4,0.7,1.2,1.1,2.1,1.1c0.7,0.1,1.4-0.1,1.9-0.6c0.5-0.5,0.8-1.2,0.8-1.9
					L360.8,129.7z"/>
				<path class="st2" d="M364.5,125.6c0.6-0.8,1.6-1.2,2.5-1.2c2,0,2.9,1.1,3,3.3v6H368v-5.9c0-0.5-0.1-1-0.4-1.3
					c-0.3-0.3-0.8-0.4-1.2-0.4c-0.8,0-1.5,0.4-1.8,1.1v6.5h-2.1v-12.9h2.1L364.5,125.6z"/>
				<path class="st2" d="M377.6,133.7c-0.1-0.3-0.2-0.6-0.2-0.9c-0.6,0.7-1.5,1-2.4,1c-0.8,0-1.6-0.3-2.2-0.8
					c-0.6-0.5-0.9-1.2-0.9-1.9c0-0.9,0.4-1.7,1.1-2.2c0.9-0.6,2-0.8,3.1-0.8h1.3v-0.6c0.1-0.8-0.5-1.5-1.3-1.6c-0.1,0-0.2,0-0.3,0
					c-0.4,0-0.8,0.1-1.1,0.3c-0.3,0.2-0.5,0.5-0.5,0.9H372c0-0.5,0.2-1,0.5-1.4c0.3-0.5,0.8-0.8,1.4-1.1c0.6-0.2,1.3-0.4,1.9-0.4
					c0.9,0,1.8,0.2,2.6,0.8c0.6,0.6,1,1.4,1,2.3v4.1c0,0.7,0.1,1.3,0.3,2v0.2H377.6z M375.3,132.2c0.4,0,0.8-0.1,1.1-0.3
					c0.3-0.2,0.6-0.5,0.8-0.8v-1.7h-1.1c-0.6,0-1.2,0.1-1.7,0.4c-0.4,0.2-0.6,0.6-0.6,1.1c0,0.4,0.1,0.7,0.4,0.9
					C374.6,132.1,374.9,132.2,375.3,132.2z"/>
				<path class="st2" d="M383.4,124.6l0.1,1.1c0.6-0.8,1.6-1.3,2.7-1.2c1.9,0,2.9,1.1,2.9,3.2v6h-2.1v-5.9c0-0.5-0.1-0.9-0.4-1.3
					c-0.3-0.3-0.8-0.4-1.2-0.4c-0.8,0-1.5,0.4-1.8,1.1v6.5h-2.1v-9.1H383.4z"/>
				<path class="st2" d="M390.8,129.1c-0.1-1.2,0.3-2.4,1-3.4c0.6-0.8,1.6-1.3,2.7-1.3c0.9,0,1.8,0.4,2.5,1.1l0.1-0.9h1.8v8.8
					c0.1,1.1-0.3,2.1-1.1,2.8c-0.8,0.7-1.9,1.1-3,1.1c-0.7,0-1.3-0.1-2-0.4c-0.6-0.2-1.1-0.6-1.5-1.1l1-1.2c0.6,0.7,1.4,1.1,2.3,1.1
					c0.6,0,1.2-0.2,1.6-0.6c0.4-0.4,0.6-1,0.6-1.6v-0.6c-0.6,0.7-1.5,1-2.4,1c-1,0-2-0.4-2.7-1.3C391,131.6,390.7,130.3,390.8,129.1
					z M392.8,129.3c0,0.8,0.2,1.5,0.6,2.2c0.3,0.5,0.9,0.8,1.6,0.8c0.8,0,1.5-0.4,1.8-1.1v-4c-0.3-0.7-1.1-1.1-1.8-1.1
					c-0.6,0-1.2,0.3-1.6,0.8C392.9,127.6,392.7,128.4,392.8,129.3L392.8,129.3z"/>
				<path class="st2" d="M404.9,133.9c-1.2,0-2.3-0.4-3.2-1.2c-0.8-0.9-1.3-2-1.2-3.2v-0.2c0-0.8,0.2-1.7,0.5-2.4
					c0.3-0.7,0.8-1.3,1.5-1.7c0.6-0.4,1.4-0.6,2.2-0.6c1.1-0.1,2.2,0.4,2.9,1.2c0.7,1,1.1,2.2,1,3.4v0.8h-5.9c0,0.7,0.3,1.3,0.8,1.8
					c0.4,0.4,1,0.7,1.7,0.7c0.9,0,1.8-0.4,2.3-1.1l1.1,1.1c-0.4,0.5-0.9,1-1.5,1.3C406.3,133.8,405.6,133.9,404.9,133.9z M404.6,126
					c-0.5,0-1,0.2-1.4,0.6c-0.4,0.5-0.6,1.1-0.6,1.7h3.9v-0.2c0-0.6-0.2-1.1-0.6-1.6C405.6,126.2,405.2,126,404.6,126z"/>
				<path class="st2" d="M409.8,129.1c-0.1-1.2,0.3-2.4,1-3.4c0.6-0.8,1.6-1.3,2.6-1.3c0.9,0,1.8,0.3,2.3,1v-4.7h2.1v13h-1.9l-0.1-1
					c-0.6,0.7-1.5,1.1-2.5,1.1c-1,0-2-0.5-2.6-1.3C410,131.5,409.7,130.3,409.8,129.1z M411.8,129.3c0,0.8,0.1,1.5,0.5,2.2
					c0.3,0.5,0.9,0.8,1.5,0.8c0.8,0,1.5-0.4,1.8-1.1v-3.9c-0.3-0.7-1.1-1.1-1.8-1.1c-0.6,0-1.2,0.3-1.5,0.8
					C411.9,127.6,411.8,128.4,411.8,129.3z"/>
				<path class="st2" d="M429.6,133.7c-0.1-0.3-0.2-0.6-0.2-0.9c-1.2,1.3-3.3,1.4-4.6,0.2c-0.6-0.5-0.9-1.2-0.9-1.9
					c0-0.9,0.4-1.7,1.1-2.2c0.9-0.6,2-0.8,3.1-0.8h1.3v-0.6c0.1-0.8-0.5-1.5-1.3-1.6c-0.1,0-0.2,0-0.3,0c-0.4,0-0.8,0.1-1.2,0.3
					c-0.3,0.2-0.4,0.5-0.4,0.9h-2.1c0-0.5,0.2-1,0.5-1.4c0.4-0.5,0.8-0.8,1.4-1.1c0.6-0.3,1.3-0.4,1.9-0.4c0.9,0,1.8,0.2,2.5,0.8
					c0.7,0.6,1,1.4,1,2.3v4.1c0,0.7,0.1,1.3,0.3,2v0.2H429.6z M427.4,132.2c0.4,0,0.8-0.1,1.1-0.3c0.3-0.2,0.6-0.5,0.8-0.8v-1.7
					h-1.1c-0.6,0-1.2,0.1-1.7,0.4c-0.4,0.2-0.6,0.6-0.6,1.1c0,0.4,0.1,0.7,0.4,0.9C426.6,132.1,427,132.2,427.4,132.2L427.4,132.2z"
					/>
				<path class="st2" d="M436.1,122.4v2.2h1.6v1.6h-1.6v5.1c0,0.3,0,0.5,0.2,0.8c0.2,0.2,0.5,0.3,0.7,0.2c0.2,0,0.5,0,0.7-0.1v1.6
					c-0.4,0.1-0.9,0.2-1.4,0.2c-1.6,0-2.4-0.9-2.4-2.6v-5.1h-1.5v-1.5h1.5v-2.2L436.1,122.4z"/>
				<path class="st2" d="M441.9,122.4v2.2h1.6v1.6h-1.6v5.1c0,0.3,0,0.5,0.2,0.8c0.2,0.2,0.5,0.3,0.7,0.2c0.2,0,0.5,0,0.7-0.1v1.6
					c-0.4,0.1-0.9,0.2-1.4,0.2c-1.6,0-2.4-0.9-2.4-2.6v-5.1h-1.5v-1.5h1.5v-2.2L441.9,122.4z"/>
				<path class="st2" d="M445,122.2c0-0.3,0.1-0.6,0.3-0.8c0.2-0.2,0.5-0.3,0.9-0.3c0.3,0,0.6,0.1,0.9,0.3c0.2,0.2,0.3,0.5,0.3,0.8
					c0,0.3-0.1,0.6-0.3,0.8c-0.2,0.2-0.5,0.3-0.9,0.3c-0.3,0-0.6-0.1-0.9-0.3C445.1,122.8,445,122.5,445,122.2z M447.2,133.7h-2.1
					v-9.1h2.1V133.7z"/>
				<path class="st2" d="M452,122.4v2.2h1.6v1.6H452v5.1c0,0.3,0.1,0.5,0.2,0.8c0.2,0.2,0.5,0.3,0.7,0.2c0.2,0,0.5,0,0.7-0.1v1.6
					c-0.4,0.1-0.9,0.2-1.4,0.2c-1.6,0-2.4-0.9-2.4-2.6v-5.1h-1.5v-1.5h1.5v-2.2L452,122.4z"/>
				<path class="st2" d="M460.7,132.8c-0.7,0.7-1.6,1.1-2.6,1.1c-0.8,0.1-1.7-0.3-2.2-0.9c-0.6-0.7-0.8-1.6-0.8-2.5v-5.9h2.1v5.9
					c0,1.2,0.5,1.7,1.4,1.7c0.8,0.1,1.6-0.3,2-1.1v-6.6h2.1v9.1h-1.9L460.7,132.8z"/>
				<path class="st2" d="M464.4,129.1c-0.1-1.2,0.3-2.4,1-3.4c0.6-0.8,1.6-1.3,2.6-1.3c0.9,0,1.8,0.3,2.3,1v-4.7h2.1v13h-1.9l-0.1-1
					c-0.6,0.7-1.5,1.1-2.5,1.1c-1,0-2-0.5-2.6-1.3C464.7,131.5,464.4,130.3,464.4,129.1z M466.5,129.3c0,0.8,0.1,1.5,0.5,2.2
					c0.3,0.5,0.9,0.8,1.5,0.8c0.8,0,1.5-0.4,1.8-1.1v-3.9c-0.3-0.7-1.1-1.1-1.8-1.1c-0.6,0-1.2,0.3-1.5,0.8
					C466.6,127.6,466.4,128.4,466.5,129.3z"/>
				<path class="st2" d="M478.6,133.9c-1.2,0-2.3-0.4-3.2-1.2c-0.8-0.9-1.3-2-1.2-3.2v-0.2c0-0.8,0.2-1.7,0.5-2.4
					c0.3-0.7,0.8-1.3,1.5-1.7c0.6-0.4,1.4-0.6,2.2-0.6c1.1-0.1,2.2,0.4,2.9,1.2c0.7,1,1.1,2.2,1,3.4v0.8h-6c0,0.7,0.3,1.3,0.8,1.8
					c0.4,0.4,1,0.7,1.7,0.7c0.9,0,1.7-0.4,2.3-1.1l1.1,1.1c-0.4,0.5-0.9,1-1.5,1.3C480,133.8,479.3,133.9,478.6,133.9z M478.3,126
					c-0.5,0-1,0.2-1.4,0.6c-0.4,0.5-0.6,1-0.7,1.6h3.9v-0.2c0-0.6-0.2-1.1-0.5-1.6C479.3,126.2,478.8,126,478.3,126z"/>
				<path class="st2" d="M488.9,131.2c0-0.3-0.2-0.7-0.5-0.8c-0.5-0.2-1-0.4-1.5-0.5c-0.6-0.1-1.2-0.3-1.7-0.6
					c-0.9-0.3-1.5-1.2-1.5-2.2c0-0.8,0.4-1.5,1-2c0.7-0.5,1.6-0.8,2.5-0.8c0.9,0,1.9,0.2,2.6,0.8c0.7,0.5,1,1.3,1,2.2h-2
					c0-0.4-0.2-0.7-0.4-1c-0.3-0.3-0.7-0.4-1.2-0.4c-0.4,0-0.8,0.1-1.1,0.3c-0.3,0.2-0.4,0.5-0.4,0.8c0,0.3,0.1,0.6,0.4,0.7
					c0.5,0.3,1,0.4,1.6,0.5c0.7,0.1,1.3,0.3,1.9,0.6c0.4,0.2,0.8,0.5,1.1,0.9c0.2,0.4,0.3,0.8,0.3,1.2c0,0.8-0.4,1.5-1,2
					c-0.8,0.5-1.7,0.8-2.7,0.8c-0.7,0-1.4-0.1-2-0.4c-0.5-0.2-1-0.6-1.4-1.1c-0.3-0.4-0.5-1-0.5-1.5h2c0,0.4,0.2,0.8,0.6,1.1
					c0.4,0.3,0.9,0.4,1.3,0.4c0.4,0,0.9-0.1,1.2-0.3C488.9,131.9,489,131.5,488.9,131.2z"/>
				<path class="st2" d="M373.1,154.4c-0.1-0.3-0.2-0.6-0.2-0.9c-0.6,0.7-1.5,1.1-2.4,1.1c-0.8,0-1.6-0.3-2.2-0.8
					c-0.6-0.5-0.9-1.2-0.9-1.9c0-0.9,0.4-1.7,1.1-2.2c0.9-0.6,2-0.8,3.1-0.8h1.3v-0.6c0-0.4-0.1-0.8-0.4-1.1
					c-0.3-0.3-0.8-0.5-1.2-0.4c-0.4,0-0.8,0.1-1.1,0.3c-0.3,0.2-0.4,0.5-0.4,0.9h-2.1c0-0.5,0.2-1,0.5-1.4c0.4-0.4,0.8-0.8,1.4-1
					c0.6-0.2,1.3-0.4,1.9-0.4c0.9,0,1.8,0.2,2.6,0.8c0.7,0.6,1,1.4,1,2.3v4.1c0,0.7,0.1,1.3,0.3,2v0.1L373.1,154.4z M370.9,153
					c0.4,0,0.8-0.1,1.1-0.3c0.3-0.2,0.6-0.5,0.8-0.8v-1.7h-1.1c-0.6,0-1.2,0.1-1.7,0.4c-0.4,0.2-0.6,0.6-0.6,1.1
					c0,0.4,0.1,0.7,0.4,0.9C370.1,152.8,370.5,153,370.9,153z"/>
				<path class="st2" d="M378.9,145.3l0.1,1.1c0.6-0.8,1.6-1.2,2.7-1.2c1.9,0,2.9,1.1,2.9,3.2v6h-2.1v-5.9c0-0.5-0.1-0.9-0.4-1.3
					c-0.3-0.3-0.8-0.5-1.2-0.4c-0.8,0-1.5,0.4-1.8,1.1v6.5H377v-9.1L378.9,145.3z"/>
				<path class="st2" d="M386.3,149.8c-0.1-1.2,0.3-2.4,1-3.4c0.6-0.8,1.6-1.3,2.6-1.3c0.9,0,1.8,0.3,2.4,1v-4.7h2v13h-1.8l-0.1-0.9
					c-0.6,0.7-1.5,1.1-2.5,1.1c-1,0-2-0.5-2.6-1.3C386.5,152.3,386.2,151,386.3,149.8z M388.3,150c0,0.8,0.1,1.5,0.5,2.2
					c0.3,0.5,0.9,0.8,1.5,0.8c0.8,0,1.5-0.4,1.8-1.1v-3.9c-0.3-0.7-1.1-1.1-1.8-1.1c-0.6,0-1.2,0.3-1.5,0.8
					C388.4,148.4,388.3,149.2,388.3,150L388.3,150z"/>
				<path class="st2" d="M408.7,150c0.1,1.2-0.3,2.4-1,3.4c-0.6,0.8-1.6,1.3-2.6,1.3c-1,0-1.9-0.4-2.5-1.2l-0.1,1h-1.8v-13h2v4.7
					c0.6-0.7,1.5-1.1,2.4-1.1c1,0,2,0.4,2.6,1.2c0.7,1,1,2.2,1,3.5L408.7,150z M406.7,149.8c0.1-0.8-0.1-1.6-0.5-2.2
					c-0.3-0.5-0.9-0.8-1.5-0.7c-0.8-0.1-1.6,0.4-1.9,1.2v3.8c0.3,0.8,1.1,1.2,1.9,1.2c0.6,0,1.1-0.2,1.5-0.7
					c0.4-0.7,0.6-1.4,0.5-2.2L406.7,149.8z"/>
				<path class="st2" d="M414.4,154.6c-1.2,0-2.3-0.4-3.2-1.2c-0.8-0.9-1.3-2-1.2-3.2v-0.2c0-0.8,0.2-1.7,0.5-2.4
					c0.3-0.7,0.8-1.3,1.5-1.7c0.6-0.4,1.4-0.6,2.2-0.6c1.1-0.1,2.2,0.4,2.9,1.2c0.7,1,1.1,2.2,1,3.4v0.8h-6c0,0.7,0.3,1.3,0.8,1.8
					c0.4,0.4,1,0.7,1.7,0.7c0.9,0,1.8-0.4,2.3-1.1l1.1,1.1c-0.4,0.5-0.9,1-1.5,1.3C415.8,154.5,415.1,154.6,414.4,154.6z
					 M414.2,146.8c-0.5,0-1,0.2-1.4,0.6c-0.4,0.5-0.6,1-0.7,1.6h3.9v-0.2c0-0.6-0.2-1.1-0.6-1.6
					C415.2,146.9,414.7,146.7,414.2,146.8L414.2,146.8z"/>
				<path class="st2" d="M421.7,146.3c0.6-0.8,1.6-1.2,2.5-1.2c1.9,0,2.9,1.1,3,3.3v6h-2.1v-5.9c0-0.5-0.1-1-0.4-1.3
					c-0.3-0.3-0.8-0.4-1.2-0.4c-0.8,0-1.5,0.4-1.8,1.1v6.5h-2v-13h2V146.3z"/>
				<path class="st2" d="M434.7,154.4c-0.1-0.3-0.2-0.6-0.2-0.9c-0.6,0.7-1.5,1.1-2.4,1.1c-0.8,0-1.6-0.3-2.2-0.8
					c-0.6-0.5-0.9-1.2-0.9-1.9c0-0.9,0.4-1.7,1.1-2.2c0.9-0.6,2-0.8,3.1-0.8h1.3v-0.6c0.1-0.8-0.4-1.5-1.2-1.6c-0.1,0-0.2,0-0.4,0
					c-0.4,0-0.8,0.1-1.1,0.3c-0.3,0.2-0.5,0.5-0.5,0.9h-2c0-0.5,0.2-1,0.5-1.4c0.4-0.5,0.8-0.8,1.4-1c0.6-0.2,1.3-0.4,1.9-0.4
					c0.9,0,1.8,0.2,2.6,0.8c0.7,0.6,1,1.4,1,2.3v4.1c0,0.7,0.1,1.3,0.3,2v0.1L434.7,154.4z M432.5,153c0.4,0,0.8-0.1,1.1-0.3
					c0.3-0.2,0.6-0.5,0.8-0.8v-1.7h-1.1c-0.6,0-1.2,0.1-1.7,0.4c-0.4,0.2-0.6,0.6-0.6,1.1c0,0.4,0.1,0.7,0.4,0.9
					C431.8,152.8,432.1,153,432.5,153z"/>
				<path class="st2" d="M441.7,151.8l1.9-6.5h2.2l-3.2,9.1h-1.8l-3.2-9.1h2.2L441.7,151.8z"/>
				<path class="st2" d="M447.1,142.9c0-0.3,0.1-0.6,0.3-0.8c0.2-0.2,0.5-0.3,0.9-0.3c0.3,0,0.6,0.1,0.9,0.3c0.4,0.4,0.4,1.1,0,1.6
					c-0.2,0.2-0.5,0.3-0.9,0.3c-0.3,0-0.6-0.1-0.9-0.3C447.2,143.5,447.1,143.2,447.1,142.9z M449.2,154.4h-2.1v-9.1h2.1V154.4z"/>
				<path class="st2" d="M451.1,149.8c0-0.8,0.2-1.7,0.5-2.4c0.3-0.7,0.8-1.3,1.5-1.7c0.7-0.4,1.4-0.6,2.2-0.6c1.1,0,2.2,0.4,3,1.2
					c0.8,0.9,1.2,2,1.2,3.2v0.5c0,0.8-0.2,1.7-0.5,2.4c-0.3,0.7-0.8,1.3-1.5,1.7c-0.7,0.4-1.4,0.6-2.2,0.6c-1.2,0-2.3-0.4-3.1-1.3
					C451.4,152.4,451,151.1,451.1,149.8L451.1,149.8z M453.1,150c0,0.8,0.2,1.5,0.6,2.2c0.4,0.5,1,0.8,1.6,0.8
					c0.6,0,1.2-0.3,1.6-0.8c0.4-0.7,0.6-1.5,0.6-2.4c0-0.8-0.2-1.5-0.6-2.2c-0.7-0.9-1.9-1.1-2.8-0.4c-0.2,0.1-0.3,0.3-0.4,0.4
					C453.3,148.3,453.1,149.1,453.1,150L453.1,150z"/>
				<path class="st2" d="M466.1,147.2c-0.3,0-0.6-0.1-0.8-0.1c-0.8-0.1-1.6,0.4-1.9,1.1v6.2h-2.1v-9.1h2l0.1,1
					c0.4-0.7,1.2-1.2,2.1-1.2c0.2,0,0.5,0,0.7,0.1L466.1,147.2z"/>
				<path class="st2" d="M472.5,152c0-0.3-0.2-0.7-0.5-0.8c-0.5-0.3-1-0.4-1.5-0.5c-0.6-0.1-1.2-0.3-1.7-0.6
					c-0.9-0.3-1.5-1.2-1.5-2.2c0-0.8,0.4-1.5,1-2c0.7-0.6,1.6-0.8,2.5-0.8c0.9,0,1.9,0.2,2.6,0.8c0.7,0.5,1,1.3,1,2.1h-2.1
					c0-0.4-0.1-0.7-0.4-1c-0.3-0.3-0.7-0.4-1.2-0.4c-0.4,0-0.8,0.1-1.1,0.3c-0.3,0.2-0.4,0.5-0.4,0.8c0,0.3,0.1,0.6,0.4,0.7
					c0.5,0.3,1,0.4,1.6,0.5c0.7,0.1,1.3,0.3,1.9,0.6c0.4,0.2,0.8,0.5,1,0.9c0.2,0.4,0.3,0.8,0.3,1.2c0,0.8-0.4,1.5-1,2
					c-0.8,0.5-1.7,0.8-2.7,0.8c-0.7,0-1.4-0.1-2-0.4c-0.5-0.2-1-0.6-1.4-1.1c-0.3-0.4-0.5-1-0.5-1.5h2c0,0.4,0.2,0.8,0.5,1.1
					c0.4,0.3,0.9,0.4,1.4,0.4c0.4,0,0.9-0.1,1.2-0.3C472.4,152.6,472.5,152.3,472.5,152z"/>
			</g>
		</g>
		<g>
			<g>
				<rect x="319.2" y="198.4" class="st3" width="203.6" height="198.4"/>
				<g>
					<polygon class="st3" points="166.3,396.8 319.2,396.8 319.2,198.4 293.6,198.4 					"/>
					<polygon class="st3" points="140.3,396.8 140.3,396.8 210.5,297.6 					"/>
					<polygon class="st4" points="280.6,198.4 210.5,297.6 140.3,396.8 166.3,396.8 293.6,198.4 					"/>
				</g>
				<g>
					<polygon class="st3" points="675.6,396.8 522.7,396.8 522.7,198.4 548.3,198.4 					"/>
					<polygon class="st3" points="701.6,396.8 701.6,396.8 631.4,297.6 					"/>
					<polygon class="st4" points="561.3,198.4 631.4,297.6 701.6,396.8 675.6,396.8 548.3,198.4 					"/>
				</g>
				<line class="st5" x1="319.2" y1="198.4" x2="319.2" y2="396.8"/>
				<line class="st5" x1="522.7" y1="198.4" x2="522.7" y2="396.8"/>
			</g>
			<g>
				<path class="st2" d="M234.3,306.4h5.2v1.6h-7.2v-11.4h2L234.3,306.4z"/>
				<path class="st2" d="M244.6,308.1c-1.1,0-2.1-0.4-2.9-1.2c-0.8-0.8-1.2-1.9-1.1-3v-0.2c0-0.8,0.2-1.6,0.5-2.3
					c0.3-0.6,0.8-1.2,1.4-1.6c0.6-0.4,1.3-0.6,2-0.6c1-0.1,2,0.3,2.7,1.1c0.7,0.9,1,2,0.9,3.1v0.8h-5.5c0,0.6,0.3,1.2,0.7,1.7
					c0.4,0.4,1,0.6,1.5,0.6c0.8,0,1.6-0.4,2.1-1.1l1,1c-0.3,0.5-0.8,0.9-1.4,1.2C245.9,308,245.3,308.2,244.6,308.1z M244.4,300.9
					c-0.5,0-0.9,0.2-1.3,0.5c-0.4,0.4-0.6,1-0.6,1.5h3.6v-0.2c0-0.5-0.2-1-0.5-1.4C245.3,301,244.8,300.8,244.4,300.9z"/>
				<path class="st2" d="M252.4,305.5l1.8-6h2l-3,8.5h-1.7l-3-8.5h2L252.4,305.5z"/>
				<path class="st2" d="M261.1,308.1c-1.1,0-2.2-0.4-2.9-1.1c-0.8-0.8-1.2-1.9-1.1-3v-0.2c0-0.8,0.2-1.6,0.5-2.3
					c0.6-1.3,1.9-2.1,3.4-2.1c1-0.1,2,0.3,2.7,1.1c0.7,0.9,1,2,0.9,3.1v0.8H259c0,0.6,0.3,1.2,0.7,1.7c0.4,0.4,1,0.6,1.6,0.6
					c0.8,0,1.6-0.4,2.1-1.1l1,1c-0.3,0.5-0.8,0.9-1.4,1.2C262.4,308,261.7,308.2,261.1,308.1z M260.9,300.9c-0.5,0-0.9,0.2-1.3,0.5
					c-0.4,0.4-0.6,1-0.6,1.5h3.6v-0.2c0-0.5-0.2-1-0.5-1.4C261.8,301,261.3,300.8,260.9,300.9L260.9,300.9z"/>
				<path class="st2" d="M270.4,301.2c-0.3,0-0.5-0.1-0.8-0.1c-0.7-0.1-1.5,0.3-1.8,1v5.8H266v-8.5h1.8v0.9c0.4-0.7,1.1-1.1,1.9-1.1
					c0.2,0,0.5,0,0.7,0.1L270.4,301.2z"/>
				<path class="st2" d="M276.5,308c-0.1-0.3-0.2-0.5-0.2-0.8c-1.2,1.2-3,1.3-4.3,0.2c-0.5-0.5-0.8-1.1-0.8-1.8c0-0.8,0.3-1.6,1-2.1
					c0.9-0.5,1.9-0.8,2.9-0.7h1.2v-0.6c0.1-0.7-0.5-1.4-1.2-1.5c-0.1,0-0.2,0-0.3,0c-0.4,0-0.8,0.1-1.1,0.3
					c-0.3,0.2-0.4,0.5-0.4,0.8h-1.9c0-0.5,0.2-0.9,0.5-1.3c0.3-0.4,0.8-0.7,1.3-0.9c0.6-0.2,1.2-0.4,1.8-0.4c0.9,0,1.7,0.2,2.4,0.8
					c0.6,0.5,0.9,1.3,0.9,2.1v3.8c0,0.6,0.1,1.2,0.3,1.8v0.1H276.5z M274.4,306.6c0.4,0,0.7-0.1,1.1-0.3c0.3-0.2,0.6-0.4,0.7-0.7
					V304h-1c-0.6,0-1.1,0.1-1.6,0.4c-0.3,0.2-0.5,0.6-0.5,1c0,0.3,0.1,0.7,0.4,0.9C273.7,306.5,274,306.6,274.4,306.6L274.4,306.6z"
					/>
				<path class="st2" d="M279.8,303.7c-0.1-1.1,0.3-2.2,0.9-3.2c0.6-0.8,1.5-1.2,2.5-1.2c0.9,0,1.7,0.3,2.3,1l0.1-0.9h1.7v8.2
					c0.1,1-0.3,1.9-1,2.6c-0.8,0.7-1.8,1-2.8,1c-0.6,0-1.3-0.1-1.8-0.4c-0.5-0.2-1-0.6-1.3-1l0.9-1.1c0.5,0.6,1.3,1,2.2,1
					c0.5,0,1.1-0.2,1.5-0.5c0.4-0.4,0.6-1,0.6-1.5v-0.6c-0.6,0.6-1.4,1-2.2,0.9c-1,0-1.9-0.4-2.4-1.2
					C280.1,306,279.7,304.8,279.8,303.7z M281.7,303.8c0,0.7,0.1,1.4,0.5,2c0.3,0.5,0.9,0.8,1.4,0.7c0.7,0,1.4-0.4,1.7-1v-3.7
					c-0.3-0.6-1-1-1.7-1c-0.6,0-1.1,0.3-1.5,0.7C281.8,302.2,281.6,303,281.7,303.8L281.7,303.8z"/>
				<path class="st2" d="M293,308.1c-1.1,0-2.2-0.4-2.9-1.1c-0.8-0.8-1.2-1.9-1.1-3v-0.2c0-0.8,0.2-1.6,0.5-2.3
					c0.3-0.6,0.8-1.2,1.4-1.6c0.6-0.4,1.3-0.6,2-0.6c1-0.1,2,0.3,2.7,1.1c0.7,0.9,1,2,0.9,3.1v0.8h-5.5c0,0.6,0.3,1.2,0.7,1.7
					c0.4,0.4,1,0.6,1.5,0.6c0.8,0,1.6-0.4,2.1-1.1l1,1c-0.3,0.5-0.8,0.9-1.4,1.2C294.3,308,293.6,308.2,293,308.1z M292.7,300.9
					c-0.5,0-0.9,0.2-1.3,0.5c-0.4,0.4-0.6,1-0.6,1.5h3.6v-0.2c0-0.5-0.2-1-0.5-1.4C293.6,301,293.2,300.8,292.7,300.9z"/>
				<path class="st2" d="M297.5,303.7c-0.1-1.1,0.3-2.2,0.9-3.1c0.6-0.8,1.5-1.2,2.4-1.2c0.8,0,1.6,0.3,2.2,0.9v-4.4h1.9V308h-1.7
					l-0.1-0.9c-0.6,0.7-1.4,1-2.3,1c-1,0-1.9-0.4-2.4-1.2C297.8,305.9,297.4,304.8,297.5,303.7z M299.4,303.8c0,0.7,0.1,1.4,0.5,2
					c0.3,0.5,0.9,0.7,1.4,0.7c0.7,0,1.4-0.4,1.7-1v-3.6c-0.3-0.6-1-1-1.7-1c-0.6,0-1.1,0.3-1.4,0.7
					C299.5,302.3,299.4,303.1,299.4,303.8z"/>
				<path class="st2" d="M232.1,316.7v2.1h1.5v1.4h-1.5v4.7c0,0.3,0,0.5,0.2,0.7c0.2,0.2,0.4,0.3,0.7,0.2c0.2,0,0.4,0,0.7-0.1v1.5
					c-0.4,0.1-0.8,0.2-1.3,0.2c-1.5,0-2.2-0.8-2.2-2.4v-4.8h-1.4v-1.4h1.4v-2.1H232.1z"/>
				<path class="st2" d="M238.8,327.4c-1.1,0-2.2-0.4-2.9-1.1c-0.8-0.8-1.2-1.9-1.1-3V323c0-0.8,0.2-1.6,0.5-2.3
					c0.6-1.3,1.9-2.1,3.4-2.1c1-0.1,2,0.3,2.7,1.1c0.7,0.9,1,2,0.9,3.1v0.8h-5.6c0,0.6,0.3,1.2,0.7,1.7c0.4,0.4,1,0.6,1.6,0.6
					c0.8,0,1.6-0.3,2.1-1l1,1c-0.3,0.5-0.8,0.9-1.4,1.2C240.1,327.4,239.5,327.5,238.8,327.4z M238.6,320.2c-0.5,0-0.9,0.2-1.3,0.5
					c-0.4,0.4-0.6,1-0.6,1.5h3.6V322c0-0.5-0.2-1-0.5-1.4C239.5,320.3,239,320.1,238.6,320.2z"/>
				<path class="st2" d="M247.2,325.9c0.4,0,0.9-0.1,1.2-0.4c0.3-0.3,0.5-0.6,0.5-1h1.8c0,0.5-0.2,1-0.5,1.5
					c-0.3,0.5-0.8,0.8-1.3,1.1c-0.5,0.3-1.1,0.4-1.7,0.4c-1.1,0-2.1-0.4-2.8-1.2c-0.7-0.9-1.1-2-1-3.2v-0.2c-0.1-1.1,0.3-2.2,1-3.1
					c0.7-0.8,1.8-1.2,2.8-1.2c0.9,0,1.8,0.3,2.5,0.9c0.6,0.6,1,1.4,1,2.3h-1.8c0-0.5-0.2-0.9-0.5-1.2c-0.3-0.3-0.8-0.5-1.2-0.5
					c-0.6,0-1.1,0.2-1.4,0.7c-0.4,0.6-0.5,1.3-0.5,2v0.3c0,0.7,0.1,1.4,0.5,2.1C246.1,325.7,246.6,325.9,247.2,325.9z"/>
				<path class="st2" d="M254,319.7c0.6-0.7,1.5-1.1,2.4-1.1c1.8,0,2.7,1,2.8,3.1v5.5h-1.9v-5.5c0-0.5-0.1-0.9-0.4-1.2
					c-0.3-0.3-0.7-0.4-1.1-0.4c-0.7,0-1.4,0.4-1.7,1v6h-1.9v-12.1h1.9V319.7z"/>
				<path class="st2" d="M262.8,318.8l0.1,1c0.6-0.8,1.5-1.2,2.5-1.1c1.8,0,2.7,1,2.7,3v5.6h-1.9v-5.5c0-0.4-0.1-0.9-0.4-1.2
					c-0.3-0.3-0.7-0.4-1.1-0.4c-0.7,0-1.4,0.4-1.7,1v6H261v-8.5L262.8,318.8z"/>
				<path class="st2" d="M269.6,322.9c0-0.8,0.2-1.5,0.5-2.3c0.3-0.6,0.8-1.2,1.4-1.5c0.6-0.4,1.3-0.5,2-0.5c1,0,2.1,0.4,2.8,1.1
					c0.7,0.8,1.2,1.9,1.2,2.9v0.4c0,0.8-0.2,1.5-0.5,2.2c-0.3,0.6-0.8,1.2-1.4,1.5c-0.6,0.4-1.4,0.6-2.1,0.5c-1.1,0-2.1-0.4-2.9-1.2
					c-0.7-0.9-1.1-2-1-3.2V322.9z M271.5,323.1c0,0.7,0.2,1.4,0.5,2c0.6,0.8,1.8,1,2.6,0.4c0.1-0.1,0.3-0.2,0.4-0.4
					c0.4-0.7,0.6-1.4,0.5-2.2c0-0.7-0.2-1.4-0.6-2c-0.3-0.5-0.9-0.8-1.5-0.8c-0.6,0-1.1,0.3-1.5,0.7
					C271.7,321.5,271.5,322.3,271.5,323.1L271.5,323.1z"/>
				<path class="st2" d="M281.2,327.3h-1.9v-12.1h1.9V327.3z"/>
				<path class="st2" d="M282.9,322.9c0-0.8,0.2-1.5,0.5-2.3c0.3-0.6,0.8-1.2,1.4-1.5c0.6-0.4,1.3-0.6,2.1-0.5c1,0,2.1,0.4,2.8,1.1
					c0.7,0.8,1.1,1.9,1.2,2.9v0.4c0,0.8-0.2,1.5-0.5,2.2c-0.3,0.6-0.8,1.2-1.4,1.5c-0.6,0.4-1.4,0.6-2.1,0.5c-1.1,0-2.1-0.4-2.9-1.2
					c-0.7-0.9-1.1-2-1.1-3.2V322.9z M284.8,323.1c0,0.7,0.2,1.4,0.5,2c0.6,0.8,1.8,1,2.6,0.4c0.1-0.1,0.3-0.2,0.4-0.4
					c0.4-0.7,0.6-1.4,0.5-2.2c0-0.7-0.2-1.4-0.6-2c-0.6-0.8-1.8-1-2.6-0.4c-0.1,0.1-0.3,0.2-0.4,0.4
					C284.9,321.6,284.8,322.3,284.8,323.1z"/>
				<path class="st2" d="M292.1,323c-0.1-1.1,0.3-2.2,0.9-3.2c0.6-0.8,1.5-1.2,2.5-1.2c0.9,0,1.7,0.3,2.3,1l0.1-0.9h1.7v8.2
					c0.1,1-0.3,1.9-1,2.6c-0.8,0.7-1.8,1-2.8,1c-0.6,0-1.2-0.1-1.8-0.4c-0.5-0.2-1-0.6-1.4-1l0.9-1.1c0.5,0.7,1.3,1,2.2,1
					c0.5,0,1.1-0.2,1.5-0.5c0.4-0.4,0.6-1,0.5-1.5v-0.6c-0.6,0.6-1.4,1-2.2,0.9c-1,0-1.9-0.4-2.4-1.2
					C292.4,325.3,292,324.1,292.1,323z M294,323.1c0,0.7,0.1,1.4,0.5,2c0.3,0.5,0.9,0.8,1.4,0.7c0.7,0,1.4-0.4,1.7-1v-3.7
					c-0.3-0.6-1-1-1.7-1c-0.6,0-1.1,0.3-1.5,0.7C294.1,321.5,293.9,322.3,294,323.1L294,323.1z"/>
				<path class="st2" d="M304.5,324.5l1.7-5.8h2l-3.4,9.8c-0.3,1.2-1.4,2.1-2.6,2.2c-0.3,0-0.6-0.1-0.9-0.2v-1.5h0.4
					c0.4,0,0.8-0.1,1.1-0.3c0.3-0.2,0.5-0.5,0.6-0.9l0.3-0.7l-3-8.5h2.1L304.5,324.5z"/>
			</g>
			<g>
				<path class="st2" d="M380,304.3c-0.1,1.1-0.5,2.1-1.3,2.9c-0.9,0.7-2,1.1-3.1,1c-0.8,0-1.7-0.2-2.4-0.7
					c-0.7-0.4-1.3-1.1-1.6-1.8c-0.4-0.9-0.6-1.8-0.6-2.8v-1.1c0-1,0.2-2,0.6-2.9c0.4-0.8,0.9-1.4,1.6-1.9c0.7-0.5,1.6-0.7,2.5-0.7
					c1.1,0,2.2,0.3,3,1c0.8,0.8,1.3,1.8,1.3,2.9h-2c0-0.7-0.3-1.3-0.7-1.8c-0.5-0.4-1.1-0.6-1.7-0.6c-0.8,0-1.5,0.3-2,1
					c-0.5,0.8-0.8,1.8-0.7,2.8v1c-0.1,1,0.2,2,0.7,2.8c0.4,0.7,1.2,1,1.9,1c0.6,0,1.3-0.1,1.8-0.5c0.4-0.5,0.7-1.1,0.7-1.7
					L380,304.3z"/>
				<path class="st2" d="M381.2,303.6c0-0.8,0.2-1.5,0.5-2.3c0.3-0.6,0.8-1.2,1.4-1.5c0.6-0.4,1.3-0.5,2-0.5c1,0,2.1,0.4,2.8,1.1
					c0.7,0.8,1.1,1.9,1.2,2.9v0.4c0,0.8-0.2,1.5-0.5,2.2c-0.3,0.6-0.8,1.2-1.4,1.5c-0.6,0.4-1.3,0.6-2.1,0.5c-1.1,0-2.1-0.4-2.9-1.2
					C381.5,306,381.1,304.9,381.2,303.6L381.2,303.6z M383.1,303.8c0,0.7,0.2,1.4,0.5,2c0.6,0.8,1.8,1,2.6,0.4
					c0.1-0.1,0.3-0.2,0.4-0.4c0.4-0.7,0.6-1.4,0.5-2.2c0-0.7-0.2-1.4-0.6-2c-0.6-0.8-1.8-1-2.6-0.4c-0.1,0.1-0.3,0.2-0.4,0.4
					C383.3,302.3,383.1,303,383.1,303.8L383.1,303.8z"/>
				<path class="st2" d="M395.5,305.7c0-0.3-0.2-0.6-0.4-0.8c-0.4-0.2-0.9-0.4-1.4-0.5c-0.6-0.1-1.1-0.3-1.6-0.5
					c-0.8-0.3-1.4-1.1-1.4-2c0-0.7,0.3-1.4,0.9-1.8c0.7-0.5,1.5-0.8,2.4-0.7c0.9,0,1.8,0.2,2.5,0.8c0.6,0.5,1,1.2,0.9,2h-1.9
					c0-0.4-0.1-0.7-0.4-0.9c-0.3-0.3-0.7-0.4-1.1-0.4c-0.4,0-0.7,0.1-1,0.3c-0.3,0.2-0.4,0.5-0.4,0.8c0,0.3,0.1,0.5,0.4,0.7
					c0.5,0.2,1,0.4,1.5,0.5c0.6,0.1,1.2,0.3,1.8,0.6c0.4,0.2,0.7,0.5,1,0.8c0.2,0.3,0.3,0.7,0.3,1.2c0,0.7-0.3,1.4-1,1.9
					c-0.7,0.5-1.6,0.8-2.5,0.7c-0.6,0-1.3-0.1-1.9-0.4c-0.5-0.2-0.9-0.6-1.3-1c-0.3-0.4-0.5-0.9-0.5-1.4h1.8c0,0.4,0.2,0.8,0.5,1
					c0.4,0.3,0.8,0.4,1.2,0.4c0.4,0,0.8-0.1,1.1-0.3C395.4,306.2,395.5,306,395.5,305.7z"/>
				<path class="st2" d="M401.4,297.4v2.1h1.5v1.5h-1.5v4.7c0,0.3,0,0.5,0.2,0.7c0.2,0.2,0.4,0.2,0.7,0.2c0.2,0,0.5,0,0.7-0.1v1.4
					c-0.4,0.1-0.8,0.2-1.3,0.2c-1.5,0-2.2-0.8-2.2-2.4v-4.8h-1.4v-1.4h1.4v-2.1L401.4,297.4z"/>
				<path class="st2" d="M408.1,303.9h-4.2v-1.5h4.1L408.1,303.9z"/>
				<path class="st2" d="M413.4,308.1c-1.1,0-2.2-0.4-2.9-1.1c-0.8-0.8-1.2-1.9-1.1-3v-0.2c0-0.8,0.2-1.6,0.5-2.3
					c0.3-0.6,0.8-1.2,1.4-1.6c0.6-0.4,1.3-0.6,2-0.6c1-0.1,2,0.3,2.7,1.1c0.7,0.9,1,2,0.9,3.1v0.8h-5.6c0,0.6,0.3,1.2,0.7,1.6
					c0.4,0.4,1,0.6,1.5,0.6c0.8,0,1.6-0.4,2.1-1.1l1,1c-0.3,0.5-0.8,0.9-1.4,1.2C414.7,308,414.1,308.1,413.4,308.1z M413.2,300.9
					c-0.5,0-0.9,0.2-1.3,0.5c-0.4,0.4-0.6,1-0.6,1.5h3.7v-0.2c0-0.5-0.2-1-0.5-1.4C414.1,301,413.7,300.8,413.2,300.9z"/>
				<path class="st2" d="M419,308v-7h-1.3v-1.4h1.3v-0.8c-0.1-0.8,0.2-1.6,0.8-2.2c0.6-0.5,1.4-0.8,2.2-0.8c0.3,0,0.7,0,1,0.1
					l-0.1,1.5c-0.2,0-0.5-0.1-0.7-0.1c-0.7-0.1-1.3,0.4-1.4,1.1c0,0.1,0,0.2,0,0.3v0.8h1.7v1.4h-1.7v7H419z"/>
				<path class="st2" d="M424.7,308v-7h-1.3v-1.4h1.3v-0.8c-0.1-0.8,0.2-1.6,0.8-2.2c0.6-0.5,1.4-0.8,2.2-0.8c0.4,0,0.7,0,1.1,0.1
					l-0.1,1.5c-0.2,0-0.5-0.1-0.7-0.1c-0.7-0.1-1.3,0.4-1.4,1.1c0,0.1,0,0.2,0,0.3v0.8h1.7v1.4h-1.7v7H424.7z"/>
				<path class="st2" d="M433.4,308.1c-1.1,0-2.2-0.4-2.9-1.1c-0.8-0.8-1.2-1.9-1.1-3v-0.2c0-0.8,0.2-1.6,0.5-2.3
					c0.3-0.6,0.8-1.2,1.4-1.6c0.6-0.4,1.3-0.6,2-0.6c1-0.1,2,0.3,2.7,1.1c0.7,0.9,1,2,0.9,3.1v0.8h-5.5c0,0.6,0.3,1.2,0.7,1.7
					c0.4,0.4,1,0.6,1.5,0.6c0.8,0,1.6-0.4,2.1-1.1l1,1c-0.3,0.5-0.8,0.9-1.4,1.2C434.8,308,434.1,308.2,433.4,308.1z M433.2,300.9
					c-0.5,0-0.9,0.2-1.3,0.5c-0.4,0.4-0.6,1-0.6,1.5h3.6v-0.2c0-0.5-0.2-1-0.5-1.4C434.1,301,433.7,300.8,433.2,300.9L433.2,300.9z"
					/>
				<path class="st2" d="M441.8,306.6c0.4,0,0.9-0.1,1.2-0.4c0.3-0.3,0.5-0.6,0.5-1h1.8c0,0.5-0.2,1-0.5,1.5
					c-0.3,0.5-0.8,0.8-1.3,1.1c-0.5,0.3-1.1,0.4-1.7,0.4c-1.1,0-2.1-0.4-2.8-1.2c-0.7-0.9-1.1-2-1-3.2v-0.2c-0.1-1.1,0.3-2.2,1-3.1
					c0.7-0.8,1.8-1.2,2.8-1.2c0.9,0,1.8,0.3,2.5,0.9c0.6,0.6,1,1.4,1,2.3h-1.8c0-0.5-0.2-0.9-0.5-1.2c-0.3-0.3-0.7-0.5-1.2-0.5
					c-0.6,0-1.1,0.2-1.4,0.7c-0.4,0.6-0.6,1.3-0.5,2v0.3c-0.1,0.7,0.1,1.4,0.5,2.1C440.7,306.4,441.3,306.6,441.8,306.6z"/>
				<path class="st2" d="M449.2,297.4v2.1h1.5v1.5h-1.5v4.7c0,0.3,0,0.5,0.2,0.7c0.2,0.2,0.4,0.3,0.7,0.2c0.2,0,0.4,0,0.7-0.1v1.4
					c-0.4,0.1-0.8,0.2-1.3,0.2c-1.5,0-2.2-0.8-2.2-2.4v-4.8h-1.4v-1.4h1.4v-2.1L449.2,297.4z"/>
				<path class="st2" d="M452.1,297.3c0-0.3,0.1-0.5,0.3-0.7c0.2-0.2,0.5-0.3,0.8-0.3c0.3,0,0.6,0.1,0.8,0.3c0.4,0.4,0.4,1,0,1.4
					c-0.2,0.2-0.5,0.3-0.8,0.3c-0.3,0-0.6-0.1-0.8-0.3C452.2,297.8,452.1,297.5,452.1,297.3z M454.1,308h-1.9v-8.5h1.9L454.1,308z"
					/>
				<path class="st2" d="M459.2,305.5l1.8-6h2l-3,8.5h-1.7l-3-8.5h2L459.2,305.5z"/>
				<path class="st2" d="M467.9,308.1c-1.1,0-2.2-0.4-2.9-1.1c-0.8-0.8-1.2-1.9-1.1-3v-0.2c0-0.8,0.2-1.6,0.5-2.3
					c0.6-1.3,1.9-2.1,3.4-2.1c1-0.1,2,0.3,2.7,1.1c0.7,0.9,1.1,2,1,3.1v0.8h-5.6c0,0.6,0.3,1.2,0.7,1.7c0.4,0.4,1,0.6,1.5,0.6
					c0.8,0,1.6-0.4,2.1-1.1l1,1c-0.3,0.5-0.8,0.9-1.4,1.2C469.2,308,468.6,308.2,467.9,308.1z M467.7,300.9c-0.5,0-0.9,0.2-1.3,0.5
					c-0.4,0.4-0.6,1-0.6,1.5h3.6v-0.2c0-0.5-0.2-1-0.5-1.4C468.6,301,468.1,300.8,467.7,300.9z"/>
				<path class="st2" d="M394.4,323.1c0.1,1.1-0.3,2.2-0.9,3.1c-0.6,0.8-1.5,1.2-2.4,1.2c-0.8,0-1.7-0.3-2.2-0.9v4h-1.9v-11.8h1.8
					l0.1,0.9c0.6-0.7,1.4-1,2.3-1c1,0,1.9,0.4,2.4,1.2c0.6,0.9,1,2.1,0.9,3.2L394.4,323.1z M392.5,322.9c0-0.7-0.1-1.4-0.5-2
					c-0.3-0.5-0.9-0.8-1.4-0.7c-0.7,0-1.4,0.4-1.7,1v3.8c0.3,0.6,1,1,1.7,1c0.6,0,1.1-0.3,1.4-0.7
					C392.4,324.5,392.5,323.7,392.5,322.9L392.5,322.9z"/>
				<path class="st2" d="M398,327.3h-1.9v-12.1h1.9V327.3z"/>
				<path class="st2" d="M405.2,327.3c-0.1-0.3-0.2-0.5-0.2-0.8c-1.2,1.2-3,1.3-4.3,0.2c-0.5-0.5-0.8-1.1-0.8-1.8
					c0-0.8,0.3-1.6,1-2.1c0.9-0.5,1.9-0.8,2.9-0.7h1.2v-0.6c0.1-0.7-0.4-1.4-1.2-1.5c-0.1,0-0.2,0-0.3,0c-0.4,0-0.8,0.1-1.1,0.3
					c-0.3,0.2-0.4,0.5-0.4,0.8h-1.9c0-0.5,0.2-0.9,0.5-1.3c0.3-0.4,0.8-0.7,1.3-0.9c0.6-0.2,1.2-0.4,1.8-0.4c0.9,0,1.7,0.2,2.4,0.8
					c0.6,0.5,0.9,1.3,0.9,2.1v3.8c0,0.6,0.1,1.2,0.3,1.8v0.1H405.2z M403.1,325.9c0.4,0,0.7-0.1,1.1-0.3c0.3-0.2,0.6-0.4,0.7-0.7
					v-1.6h-1c-0.6,0-1.1,0.1-1.6,0.4c-0.3,0.2-0.5,0.6-0.5,1c0,0.3,0.1,0.7,0.4,0.9C402.4,325.8,402.7,325.9,403.1,325.9
					L403.1,325.9z"/>
				<path class="st2" d="M411.2,316.7v2.1h1.5v1.4h-1.5v4.7c0,0.3,0,0.5,0.2,0.7c0.2,0.2,0.4,0.2,0.7,0.2c0.2,0,0.5,0,0.7-0.1v1.5
					c-0.4,0.1-0.8,0.2-1.3,0.2c-1.5,0-2.2-0.8-2.2-2.4v-4.8h-1.4v-1.4h1.4v-2.1H411.2z"/>
				<path class="st2" d="M414.8,327.3v-7.1h-1.3v-1.4h1.3V318c-0.1-0.8,0.2-1.6,0.8-2.2c0.6-0.5,1.4-0.8,2.2-0.8
					c0.4,0,0.7,0,1.1,0.1l-0.1,1.5c-0.2,0-0.5-0.1-0.7-0.1c-0.7-0.1-1.3,0.4-1.4,1.1c0,0.1,0,0.2,0,0.3v0.8h1.7v1.4h-1.7v7.1
					L414.8,327.3z"/>
				<path class="st2" d="M419.5,322.9c0-0.8,0.2-1.5,0.5-2.3c0.3-0.6,0.8-1.2,1.4-1.5c0.6-0.4,1.3-0.5,2-0.5c1,0,2.1,0.4,2.8,1.1
					c0.7,0.8,1.1,1.9,1.2,2.9v0.4c0,0.8-0.2,1.5-0.5,2.2c-0.3,0.6-0.8,1.2-1.4,1.5c-0.6,0.4-1.4,0.6-2.1,0.5c-1.1,0-2.1-0.4-2.9-1.2
					C419.8,325.3,419.4,324.2,419.5,322.9L419.5,322.9z M421.4,323.1c0,0.7,0.1,1.4,0.5,2c0.6,0.8,1.8,1,2.6,0.4
					c0.1-0.1,0.3-0.2,0.4-0.4c0.4-0.7,0.6-1.4,0.5-2.2c0-0.7-0.2-1.4-0.6-2c-0.6-0.8-1.8-1-2.6-0.4c-0.2,0.1-0.3,0.2-0.4,0.4
					C421.5,321.6,421.3,322.3,421.4,323.1z"/>
				<path class="st2" d="M433.5,320.5c-0.3,0-0.5-0.1-0.8-0.1c-0.7-0.1-1.5,0.3-1.8,1v5.8H429v-8.5h1.8l0.1,0.9
					c0.4-0.7,1.1-1.1,1.9-1.1c0.2,0,0.5,0,0.7,0.1L433.5,320.5z"/>
				<path class="st2" d="M436.4,318.8l0.1,0.9c0.6-0.7,1.5-1.1,2.4-1c1-0.1,1.9,0.4,2.3,1.3c0.6-0.9,1.6-1.4,2.6-1.3
					c0.8-0.1,1.5,0.2,2.1,0.8c0.5,0.7,0.8,1.5,0.7,2.3v5.6h-1.9v-5.5c0-0.4-0.1-0.8-0.4-1.2c-0.3-0.3-0.7-0.4-1.2-0.4
					c-0.4,0-0.8,0.1-1.1,0.3c-0.3,0.2-0.5,0.6-0.6,0.9v5.8h-1.9v-5.6c0.1-0.7-0.5-1.4-1.2-1.5c-0.1,0-0.2,0-0.3,0
					c-0.7,0-1.3,0.3-1.6,0.9v6.2h-1.9v-8.5L436.4,318.8z"/>
				<path class="st2" d="M453.4,325c0-0.3-0.2-0.6-0.4-0.8c-0.4-0.2-0.9-0.4-1.4-0.5c-0.6-0.1-1.1-0.3-1.6-0.5
					c-0.8-0.3-1.4-1.1-1.4-2c0-0.7,0.3-1.4,0.9-1.8c0.7-0.5,1.5-0.8,2.4-0.7c0.9,0,1.8,0.2,2.5,0.8c0.6,0.5,1,1.2,0.9,2h-1.9
					c0-0.3-0.1-0.7-0.4-0.9c-0.3-0.3-0.7-0.4-1.1-0.4c-0.4,0-0.7,0.1-1,0.3c-0.3,0.2-0.4,0.5-0.4,0.8c0,0.3,0.1,0.5,0.4,0.7
					c0.5,0.2,1,0.4,1.5,0.5c0.6,0.1,1.2,0.3,1.8,0.6c0.4,0.2,0.7,0.5,1,0.8c0.2,0.3,0.3,0.7,0.3,1.2c0,0.7-0.3,1.4-0.9,1.9
					c-0.7,0.5-1.6,0.8-2.5,0.7c-0.6,0-1.3-0.1-1.9-0.4c-0.5-0.2-0.9-0.6-1.3-1c-0.3-0.4-0.5-0.9-0.5-1.4h1.8c0,0.4,0.2,0.8,0.5,1
					c0.4,0.3,0.8,0.4,1.3,0.4c0.4,0,0.8-0.1,1.1-0.3C453.3,325.6,453.4,325.3,453.4,325z"/>
			</g>
			<g>
				<path class="st2" d="M557.1,305c0-0.4-0.2-0.9-0.5-1.2c-0.6-0.4-1.2-0.7-1.9-0.8c-0.8-0.2-1.5-0.5-2.2-0.9
					c-0.9-0.5-1.5-1.5-1.6-2.6c0-0.9,0.4-1.7,1.1-2.3c0.8-0.6,1.9-0.9,2.9-0.9c0.7,0,1.5,0.1,2.1,0.4c0.6,0.3,1.1,0.7,1.5,1.2
					c0.4,0.5,0.6,1.2,0.6,1.9h-2c0-0.5-0.2-1-0.6-1.4c-0.5-0.4-1-0.5-1.6-0.5c-0.5,0-1.1,0.1-1.5,0.4c-0.4,0.3-0.6,0.7-0.5,1.2
					c0,0.4,0.2,0.8,0.6,1c0.6,0.4,1.2,0.6,1.9,0.8c0.7,0.2,1.5,0.5,2.1,0.9c0.5,0.3,0.9,0.7,1.2,1.2c0.3,0.5,0.4,1,0.4,1.5
					c0,0.9-0.4,1.7-1.1,2.3c-0.9,0.6-1.9,0.9-3,0.8c-0.8,0-1.6-0.2-2.3-0.5c-0.6-0.3-1.2-0.7-1.6-1.3c-0.4-0.6-0.6-1.2-0.6-1.9h2
					c0,0.6,0.2,1.1,0.6,1.5c0.5,0.4,1.2,0.6,1.8,0.5c0.6,0,1.1-0.1,1.6-0.4C556.9,305.9,557.1,305.5,557.1,305z"/>
				<path class="st2" d="M562.5,300.4c0.6-0.7,1.5-1.1,2.4-1.1c1.8,0,2.7,1,2.8,3.1v5.5h-1.9v-5.5c0-0.4-0.1-0.9-0.4-1.2
					c-0.3-0.3-0.7-0.4-1.1-0.4c-0.7,0-1.4,0.4-1.7,1v6h-1.9v-12h1.9L562.5,300.4z"/>
				<path class="st2" d="M574.7,308c-0.1-0.3-0.2-0.5-0.2-0.8c-1.2,1.2-3,1.3-4.3,0.2c-0.5-0.5-0.8-1.1-0.8-1.8c0-0.8,0.3-1.6,1-2.1
					c0.9-0.5,1.9-0.8,2.9-0.7h1.2v-0.6c0.1-0.7-0.5-1.4-1.2-1.5c-0.1,0-0.2,0-0.3,0c-0.4,0-0.8,0.1-1.1,0.3
					c-0.3,0.2-0.4,0.5-0.4,0.8h-1.9c0-0.5,0.2-0.9,0.5-1.3c0.3-0.4,0.8-0.7,1.3-0.9c0.6-0.2,1.2-0.4,1.8-0.4c0.9,0,1.7,0.2,2.4,0.8
					c0.6,0.5,0.9,1.3,0.9,2.1v3.8c0,0.6,0.1,1.3,0.3,1.8v0.1H574.7z M572.6,306.6c0.4,0,0.7-0.1,1.1-0.3c0.3-0.2,0.6-0.4,0.8-0.7
					V304h-1c-0.6,0-1.1,0.1-1.6,0.4c-0.3,0.2-0.5,0.6-0.5,1c0,0.3,0.1,0.7,0.4,0.9C571.9,306.4,572.2,306.6,572.6,306.6z"/>
				<path class="st2" d="M582.7,301.2c-0.3,0-0.5-0.1-0.8-0.1c-0.7-0.1-1.5,0.3-1.8,1v5.8h-1.9v-8.5h1.8l0.1,0.9
					c0.4-0.7,1.1-1.1,1.9-1.1c0.2,0,0.5,0,0.7,0.1L582.7,301.2z"/>
				<path class="st2" d="M587.7,308.1c-1.1,0-2.2-0.4-2.9-1.1c-0.8-0.8-1.2-1.9-1.1-3v-0.2c0-0.8,0.2-1.6,0.5-2.3
					c0.3-0.6,0.8-1.2,1.4-1.6c0.6-0.4,1.3-0.6,2-0.6c1-0.1,2,0.3,2.7,1.1c0.7,0.9,1,2,0.9,3.1v0.8h-5.5c0,0.6,0.3,1.2,0.7,1.6
					c0.4,0.4,1,0.6,1.5,0.6c0.8,0,1.6-0.4,2.1-1.1l1,1c-0.3,0.5-0.8,0.9-1.4,1.2C589,308,588.3,308.1,587.7,308.1z M587.5,300.9
					c-0.5,0-0.9,0.2-1.3,0.5c-0.4,0.4-0.6,1-0.6,1.5h3.7v-0.2c0-0.5-0.2-1-0.5-1.4C588.4,301,587.9,300.8,587.5,300.9L587.5,300.9z"
					/>
				<path class="st2" d="M592.3,303.7c-0.1-1.1,0.3-2.2,0.9-3.1c0.6-0.8,1.5-1.2,2.4-1.2c0.8,0,1.6,0.3,2.2,0.9v-4.4h1.9V308H598
					l-0.1-0.9c-0.6,0.7-1.4,1-2.3,1c-1,0-1.9-0.4-2.4-1.2C592.5,305.9,592.2,304.8,592.3,303.7z M594.2,303.8c0,0.7,0.1,1.4,0.5,2
					c0.3,0.5,0.9,0.7,1.4,0.7c0.7,0,1.4-0.4,1.7-1v-3.6c-0.3-0.6-1-1-1.7-1c-0.6,0-1.1,0.3-1.4,0.7
					C594.3,302.3,594.1,303.1,594.2,303.8L594.2,303.8z"/>
				<path class="st2" d="M540.1,323.6l-0.9,0.9v2.8h-1.9v-12.1h1.9v7l0.6-0.7l2.3-2.6h2.3l-3.2,3.5l3.5,5h-2.2L540.1,323.6z"/>
				<path class="st2" d="M547.5,318.8v1c0.6-0.7,1.5-1.2,2.5-1.1c1.8,0,2.7,1,2.7,3v5.6h-1.9v-5.5c0-0.4-0.1-0.9-0.4-1.2
					c-0.3-0.3-0.7-0.4-1.1-0.4c-0.7,0-1.4,0.4-1.7,1v6h-1.9v-8.5L547.5,318.8z"/>
				<path class="st2" d="M554.3,322.9c0-0.8,0.2-1.5,0.5-2.3c0.3-0.6,0.8-1.2,1.4-1.5c0.6-0.4,1.3-0.5,2-0.5c1,0,2.1,0.4,2.8,1.1
					c0.7,0.8,1.1,1.9,1.2,2.9v0.4c0,0.8-0.2,1.5-0.5,2.2c-0.3,0.6-0.8,1.2-1.4,1.5c-0.6,0.4-1.4,0.6-2.1,0.5c-1.1,0-2.1-0.4-2.9-1.2
					C554.6,325.3,554.2,324.2,554.3,322.9L554.3,322.9z M556.2,323.1c0,0.7,0.2,1.4,0.5,2c0.6,0.8,1.8,1,2.6,0.4
					c0.1-0.1,0.3-0.2,0.4-0.4c0.4-0.7,0.6-1.4,0.5-2.2c0-0.7-0.2-1.4-0.6-2c-0.6-0.8-1.8-1-2.6-0.4c-0.2,0.1-0.3,0.2-0.4,0.4
					C556.3,321.6,556.1,322.3,556.2,323.1z"/>
				<path class="st2" d="M571.3,324.6l1.3-5.9h1.9l-2.3,8.5h-1.6l-1.8-5.8l-1.8,5.8h-1.6l-2.3-8.5h1.9l1.4,5.8l1.7-5.8h1.4
					L571.3,324.6z"/>
				<path class="st2" d="M577.8,327.3h-1.9v-12.1h1.9V327.3z"/>
				<path class="st2" d="M583.6,327.4c-1.1,0-2.2-0.4-2.9-1.1c-0.8-0.8-1.2-1.9-1.1-3V323c0-0.8,0.2-1.6,0.5-2.3
					c0.3-0.6,0.8-1.2,1.4-1.6c0.6-0.4,1.3-0.6,2-0.6c1-0.1,2,0.3,2.7,1.1c0.7,0.9,1,2,0.9,3.1v0.8h-5.5c0,0.6,0.3,1.2,0.7,1.7
					c0.4,0.4,1,0.6,1.5,0.6c0.8,0,1.6-0.3,2.1-1l1,1c-0.3,0.5-0.8,0.9-1.4,1.2C584.9,327.4,584.3,327.5,583.6,327.4z M583.4,320.2
					c-0.5,0-0.9,0.2-1.3,0.5c-0.4,0.4-0.6,1-0.6,1.5h3.6V322c0-0.5-0.2-1-0.5-1.4C584.3,320.3,583.8,320.1,583.4,320.2z"/>
				<path class="st2" d="M588.1,323c-0.1-1.1,0.3-2.2,0.9-3.1c0.6-0.8,1.5-1.2,2.4-1.2c0.8,0,1.6,0.3,2.2,0.9v-4.4h1.9v12.1h-1.7
					l-0.1-0.9c-0.6,0.7-1.4,1-2.3,1c-1,0-1.9-0.4-2.4-1.2C588.4,325.2,588.1,324.1,588.1,323z M590,323.1c0,0.7,0.1,1.4,0.5,2
					c0.3,0.5,0.9,0.7,1.4,0.7c0.7,0,1.4-0.4,1.7-1v-3.6c-0.3-0.6-1-1-1.7-1c-0.6,0-1.1,0.3-1.4,0.7C590.2,321.6,590,322.4,590,323.1
					L590,323.1z"/>
				<path class="st2" d="M597.2,323c-0.1-1.1,0.3-2.2,0.9-3.2c0.6-0.8,1.5-1.2,2.5-1.2c0.9,0,1.7,0.3,2.3,1l0.1-0.9h1.7v8.2
					c0.1,1-0.3,1.9-1,2.6c-0.8,0.7-1.8,1-2.8,1c-0.6,0-1.3-0.1-1.8-0.4c-0.5-0.2-1-0.6-1.4-1l0.9-1.1c0.5,0.6,1.3,1,2.2,1
					c0.5,0,1.1-0.2,1.5-0.5c0.4-0.4,0.6-1,0.6-1.5v-0.6c-0.6,0.6-1.4,1-2.2,0.9c-1,0-1.9-0.4-2.4-1.2
					C597.5,325.3,597.2,324.1,597.2,323z M599.1,323.1c0,0.7,0.1,1.4,0.5,2c0.3,0.5,0.9,0.8,1.4,0.7c0.7,0,1.4-0.4,1.7-1v-3.7
					c-0.3-0.6-1-1-1.7-1c-0.6,0-1.1,0.3-1.5,0.7C599.2,321.5,599.1,322.3,599.1,323.1L599.1,323.1z"/>
				<path class="st2" d="M610.4,327.4c-1.1,0-2.2-0.4-2.9-1.1c-0.8-0.8-1.2-1.9-1.1-3V323c0-0.8,0.2-1.6,0.5-2.3
					c0.6-1.3,1.9-2.1,3.4-2.1c1-0.1,2,0.3,2.7,1.1c0.7,0.9,1,2,0.9,3.1v0.8h-5.5c0,0.6,0.3,1.2,0.7,1.7c0.4,0.4,1,0.6,1.6,0.6
					c0.8,0,1.6-0.3,2.1-1l1,1c-0.3,0.5-0.8,0.9-1.4,1.2C611.7,327.4,611.1,327.5,610.4,327.4z M610.2,320.2c-0.5,0-0.9,0.2-1.3,0.5
					c-0.4,0.4-0.6,1-0.6,1.5h3.6V322c0-0.5-0.2-1-0.5-1.4C611.1,320.3,610.7,320.1,610.2,320.2z"/>
			</g>
		</g>
		<g>
			<g>
				<polygon class="st6" points="739.2,496.1 675.6,396.9 561.3,396.9 280.6,396.9 166.3,396.9 102.7,496.1 39,595.3 280.6,595.3 
					561.3,595.3 802.9,595.3 				"/>
				<g>
					<polygon class="st7" points="140.3,396.9 70.2,496.1 70.2,496.1 140.3,396.9 					"/>
					<polygon class="st8" points="140.3,396.9 70.2,496.1 102.7,496.1 166.3,396.9 					"/>
					<polygon class="st7" points="701.6,396.9 771.7,496.1 771.7,496.1 701.6,396.9 					"/>
					<polygon class="st8" points="701.6,396.9 771.7,496.1 739.2,496.1 675.6,396.9 					"/>
					<line class="st9" x1="96" y1="496.1" x2="745.9" y2="496.1"/>
					<line class="st9" x1="280.6" y1="396.8" x2="280.6" y2="496.1"/>
					<line class="st9" x1="561.3" y1="396.8" x2="561.3" y2="496.1"/>
					<polygon class="st8" points="70.2,496.1 0,595.3 39,595.3 102.7,496.1 					"/>
					<polygon class="st8" points="771.7,496.1 841.9,595.3 802.9,595.3 739.2,496.1 					"/>
				</g>
			</g>
			<g>
				<path class="st2" d="M169.6,441h-4.8v3.6h5.6v1.6h-7.7v-11.7h7.6v1.6h-5.6v3.2h4.8L169.6,441z"/>
				<path class="st2" d="M175,440.4l1.7-2.9h2.2l-2.7,4.3l2.8,4.4h-2.2l-1.7-3l-1.7,3h-2.2l2.8-4.4l-2.7-4.3h2.2L175,440.4z"/>
				<path class="st2" d="M183.6,444.9c0.4,0,0.9-0.1,1.2-0.4c0.3-0.3,0.5-0.6,0.5-1h1.9c0,0.5-0.2,1.1-0.5,1.5
					c-0.3,0.5-0.8,0.9-1.3,1.1c-0.5,0.3-1.1,0.4-1.8,0.4c-1.1,0-2.2-0.4-2.9-1.2c-0.7-0.9-1.1-2.1-1-3.3v-0.2
					c-0.1-1.2,0.3-2.3,1-3.2c0.7-0.8,1.8-1.2,2.9-1.2c0.9,0,1.8,0.3,2.5,0.9c0.7,0.6,1,1.5,1,2.4h-1.8c0-0.5-0.2-0.9-0.5-1.2
					c-0.3-0.3-0.8-0.5-1.2-0.5c-0.6,0-1.1,0.2-1.5,0.7c-0.4,0.6-0.6,1.3-0.5,2.1v0.3c-0.1,0.7,0.1,1.5,0.5,2.1
					C182.5,444.6,183,444.9,183.6,444.9z"/>
				<path class="st2" d="M192.5,446.5c-1.1,0-2.2-0.4-3-1.2c-0.8-0.8-1.2-2-1.2-3.1v-0.2c0-0.8,0.2-1.6,0.5-2.3
					c0.3-0.7,0.8-1.2,1.4-1.6c0.6-0.4,1.3-0.6,2.1-0.6c1-0.1,2.1,0.4,2.8,1.1c0.7,0.9,1,2.1,1,3.2v0.8h-5.7c0,0.6,0.3,1.2,0.7,1.7
					c0.4,0.4,1,0.6,1.6,0.6c0.9,0,1.7-0.4,2.2-1.1l1,1c-0.4,0.5-0.8,0.9-1.4,1.2C193.8,446.3,193.2,446.5,192.5,446.5z M192.3,439
					c-0.5,0-1,0.2-1.3,0.6c-0.4,0.5-0.6,1-0.6,1.6h3.7V441c0-0.5-0.2-1.1-0.5-1.5C193.2,439.1,192.7,439,192.3,439z"/>
				<path class="st2" d="M205.2,442c0.1,1.1-0.3,2.3-0.9,3.2c-1.1,1.4-3.1,1.6-4.5,0.5c-0.1-0.1-0.2-0.2-0.3-0.3v4.1h-1.9v-12.1h1.8
					l0.1,0.9c0.6-0.7,1.4-1.1,2.3-1c1,0,1.9,0.4,2.5,1.2c0.7,1,1,2.1,0.9,3.3L205.2,442z M203.2,441.8c0-0.7-0.1-1.4-0.5-2.1
					c-0.3-0.5-0.9-0.8-1.5-0.8c-0.7,0-1.4,0.4-1.7,1v3.9c0.3,0.7,1,1.1,1.7,1c0.6,0,1.1-0.3,1.5-0.8
					C203.1,443.5,203.3,442.7,203.2,441.8z"/>
				<path class="st2" d="M209.3,435.5v2.1h1.5v1.4h-1.5v4.9c0,0.3,0,0.5,0.2,0.7c0.2,0.2,0.5,0.3,0.7,0.2c0.2,0,0.5,0,0.7-0.1v1.5
					c-0.4,0.1-0.9,0.2-1.3,0.2c-1.5,0-2.3-0.8-2.3-2.5V439h-1.4v-1.4h1.4v-2.1H209.3z"/>
				<path class="st2" d="M212.3,435.3c0-0.3,0.1-0.5,0.3-0.7c0.2-0.2,0.5-0.3,0.8-0.3c0.3,0,0.6,0.1,0.8,0.3c0.4,0.4,0.4,1.1,0,1.5
					c-0.2,0.2-0.5,0.3-0.8,0.3c-0.3,0-0.6-0.1-0.8-0.3C212.4,435.8,212.3,435.6,212.3,435.3z M214.4,446.3h-2v-8.7h2V446.3z"/>
				<path class="st2" d="M216.1,441.8c0-0.8,0.2-1.6,0.5-2.3c0.3-0.7,0.8-1.2,1.4-1.6c0.6-0.4,1.3-0.6,2.1-0.6
					c1.1,0,2.1,0.4,2.9,1.1c0.8,0.8,1.2,1.9,1.2,3v0.5c0,0.8-0.2,1.6-0.5,2.3c-0.3,0.7-0.8,1.2-1.4,1.6c-0.6,0.4-1.4,0.6-2.1,0.6
					c-1.1,0-2.2-0.4-3-1.2C216.4,444.3,216,443.1,216.1,441.8L216.1,441.8z M218.1,442c0,0.7,0.2,1.5,0.6,2.1c0.6,0.9,1.9,1,2.7,0.4
					c0.1-0.1,0.3-0.2,0.4-0.4c0.4-0.7,0.6-1.5,0.5-2.3c0-0.7-0.2-1.5-0.6-2.1c-0.4-0.5-0.9-0.8-1.5-0.8c-0.6,0-1.2,0.3-1.5,0.8
					C218.2,440.4,218,441.2,218.1,442L218.1,442z"/>
				<path class="st2" d="M227.7,437.6v1c0.6-0.8,1.6-1.2,2.5-1.2c1.8,0,2.7,1,2.8,3.1v5.8h-2v-5.6c0-0.4-0.1-0.9-0.4-1.2
					c-0.3-0.3-0.7-0.4-1.2-0.4c-0.7,0-1.4,0.4-1.8,1v6.2h-2v-8.7H227.7z"/>
				<path class="st2" d="M240.3,446.3c-0.1-0.3-0.2-0.5-0.2-0.8c-1.2,1.2-3.1,1.3-4.4,0.2c-0.5-0.5-0.8-1.1-0.8-1.9
					c0-0.8,0.3-1.6,1-2.1c0.9-0.5,1.9-0.8,3-0.7h1.2v-0.6c0-0.4-0.1-0.8-0.4-1.1c-0.3-0.3-0.7-0.4-1.2-0.4c-0.4,0-0.8,0.1-1.1,0.3
					c-0.3,0.2-0.4,0.5-0.4,0.9h-2c0-0.5,0.2-1,0.5-1.4c0.3-0.4,0.8-0.8,1.3-1c0.6-0.2,1.2-0.4,1.8-0.4c0.9,0,1.8,0.2,2.4,0.8
					c0.6,0.5,1,1.3,0.9,2.2v3.9c0,0.6,0.1,1.3,0.3,1.9v0.1H240.3z M238.2,444.9c0.4,0,0.8-0.1,1.1-0.3c0.3-0.2,0.6-0.4,0.8-0.8v-1.7
					h-1c-0.6,0-1.1,0.1-1.6,0.4c-0.4,0.2-0.6,0.6-0.6,1c0,0.3,0.1,0.7,0.4,0.9C237.4,444.7,237.8,444.9,238.2,444.9L238.2,444.9z"/>
				<path class="st2" d="M246.1,446.3h-2v-12.4h2V446.3z"/>
				<path class="st2" d="M168.9,466.1h-2v-12.4h2V466.1z"/>
				<path class="st2" d="M174.8,466.3c-1.1,0-2.2-0.4-3-1.2c-0.8-0.8-1.2-2-1.2-3.1v-0.2c0-0.8,0.2-1.6,0.5-2.3
					c0.3-0.7,0.8-1.2,1.4-1.6c0.6-0.4,1.3-0.6,2.1-0.6c1-0.1,2.1,0.4,2.8,1.1c0.7,0.9,1,2.1,1,3.2v0.7h-5.7c0,0.6,0.3,1.2,0.7,1.7
					c0.4,0.4,1,0.6,1.6,0.6c0.9,0,1.7-0.4,2.2-1.1l1,1c-0.3,0.5-0.8,0.9-1.4,1.2C176.2,466.1,175.5,466.3,174.8,466.3z M174.6,458.8
					c-0.5,0-1,0.2-1.3,0.6c-0.4,0.5-0.6,1-0.6,1.6h3.7v-0.2c0-0.5-0.2-1.1-0.5-1.5C175.5,459,175.1,458.8,174.6,458.8L174.6,458.8z"
					/>
				<path class="st2" d="M185.1,466.1c-0.1-0.3-0.2-0.5-0.2-0.8c-1.2,1.2-3.1,1.3-4.4,0.2c-0.5-0.5-0.8-1.1-0.8-1.9
					c0-0.8,0.3-1.6,1-2.1c0.9-0.5,1.9-0.8,3-0.7h1.2v-0.6c0-0.4-0.1-0.8-0.4-1.1c-0.3-0.3-0.7-0.4-1.2-0.4c-0.4,0-0.8,0.1-1.1,0.3
					c-0.3,0.2-0.4,0.5-0.4,0.9h-2c0-0.5,0.2-1,0.5-1.4c0.3-0.4,0.8-0.8,1.3-1c0.6-0.2,1.2-0.4,1.8-0.4c0.9,0,1.8,0.2,2.4,0.8
					c0.6,0.5,1,1.3,0.9,2.2v3.9c0,0.6,0.1,1.3,0.3,1.9v0.1H185.1z M182.9,464.7c0.4,0,0.8-0.1,1.1-0.3c0.3-0.2,0.6-0.4,0.8-0.8V462
					h-1c-0.6,0-1.1,0.1-1.6,0.4c-0.4,0.2-0.6,0.6-0.6,1c0,0.3,0.1,0.7,0.4,0.9C182.2,464.6,182.6,464.7,182.9,464.7z"/>
				<path class="st2" d="M188.4,461.7c-0.1-1.2,0.3-2.3,0.9-3.2c0.6-0.8,1.5-1.3,2.5-1.2c0.9,0,1.7,0.3,2.2,1v-4.5h2v12.4h-1.8
					l-0.1-0.9c-0.6,0.7-1.4,1.1-2.3,1c-1,0-1.9-0.4-2.5-1.2C188.7,464,188.4,462.9,188.4,461.7z M190.4,461.9c0,0.7,0.1,1.4,0.5,2.1
					c0.3,0.5,0.9,0.8,1.5,0.7c0.7,0,1.4-0.4,1.8-1v-3.7c-0.3-0.7-1-1.1-1.7-1c-0.6,0-1.2,0.3-1.5,0.8
					C190.5,460.3,190.3,461.1,190.4,461.9z"/>
				<path class="st2" d="M202,466.3c-1.1,0-2.2-0.4-3-1.2c-0.8-0.8-1.2-2-1.2-3.1v-0.2c0-0.8,0.2-1.6,0.5-2.3c0.6-1.3,2-2.2,3.4-2.2
					c1-0.1,2.1,0.4,2.8,1.1c0.7,0.9,1,2.1,1,3.2v0.7h-5.7c0,0.6,0.3,1.2,0.7,1.7c0.4,0.4,1,0.6,1.6,0.6c0.9,0,1.7-0.4,2.2-1.1l1,1
					c-0.3,0.5-0.8,0.9-1.4,1.2C203.3,466.1,202.6,466.3,202,466.3z M201.7,458.8c-0.5,0-1,0.2-1.3,0.6c-0.4,0.5-0.6,1-0.6,1.6h3.7
					v-0.2c0-0.5-0.2-1.1-0.5-1.5C202.7,458.9,202.2,458.8,201.7,458.8L201.7,458.8z"/>
				<path class="st2" d="M211.5,459.2c-0.3,0-0.5-0.1-0.8-0.1c-0.8-0.1-1.5,0.3-1.8,1v6h-2v-8.7h1.9v1c0.4-0.7,1.2-1.1,2-1.1
					c0.2,0,0.5,0,0.7,0.1V459.2z"/>
				<path class="st2" d="M217.7,463.7c0-0.3-0.2-0.6-0.4-0.8c-0.4-0.2-0.9-0.4-1.4-0.5c-0.6-0.1-1.1-0.3-1.7-0.5
					c-0.9-0.3-1.5-1.1-1.5-2.1c0-0.7,0.4-1.4,0.9-1.9c0.7-0.5,1.5-0.8,2.4-0.8c0.9,0,1.8,0.2,2.5,0.8c0.6,0.5,1,1.2,1,2h-2
					c0-0.4-0.1-0.7-0.4-0.9c-0.3-0.3-0.7-0.4-1.1-0.4c-0.4,0-0.7,0.1-1,0.3c-0.3,0.2-0.4,0.5-0.4,0.8c0,0.3,0.1,0.6,0.4,0.7
					c0.5,0.2,1,0.4,1.5,0.5c0.6,0.1,1.2,0.3,1.8,0.6c0.4,0.2,0.7,0.5,1,0.8c0.2,0.4,0.3,0.8,0.3,1.2c0,0.8-0.4,1.5-1,1.9
					c-0.7,0.5-1.6,0.8-2.5,0.7c-0.7,0-1.3-0.1-1.9-0.4c-0.5-0.2-1-0.6-1.3-1c-0.3-0.4-0.5-0.9-0.5-1.5h1.9c0,0.4,0.2,0.8,0.5,1
					c0.4,0.3,0.8,0.4,1.3,0.4c0.4,0,0.8-0.1,1.2-0.3C217.5,464.3,217.7,464,217.7,463.7z"/>
				<path class="st2" d="M223.2,458.3c0.6-0.7,1.5-1.1,2.4-1.1c1.9,0,2.8,1,2.8,3.2v5.7h-2v-5.6c0-0.5-0.1-0.9-0.4-1.3
					c-0.3-0.3-0.7-0.4-1.1-0.4c-0.7,0-1.4,0.4-1.8,1v6.2h-2v-12.4h2L223.2,458.3z"/>
				<path class="st2" d="M230.5,455.1c0-0.3,0.1-0.5,0.3-0.7c0.2-0.2,0.5-0.3,0.8-0.3c0.3,0,0.6,0.1,0.8,0.3c0.4,0.4,0.4,1.1,0,1.5
					c-0.2,0.2-0.5,0.3-0.8,0.3c-0.3,0-0.6-0.1-0.8-0.3C230.6,455.7,230.5,455.4,230.5,455.1z M232.5,466.1h-2v-8.7h2V466.1z"/>
				<path class="st2" d="M242.3,461.8c0.1,1.1-0.3,2.3-0.9,3.2c-1.1,1.4-3.1,1.6-4.5,0.5c-0.1-0.1-0.2-0.2-0.3-0.3v4.1h-2v-12.1h1.8
					l0.1,0.9c0.6-0.7,1.5-1.1,2.4-1c1,0,1.9,0.4,2.5,1.2c0.7,1,1,2.1,0.9,3.3L242.3,461.8z M240.4,461.7c0-0.7-0.1-1.4-0.5-2.1
					c-0.3-0.5-0.9-0.8-1.5-0.8c-0.7,0-1.4,0.4-1.7,1v3.9c0.3,0.7,1,1.1,1.7,1c0.6,0,1.1-0.3,1.5-0.8
					C240.3,463.3,240.5,462.5,240.4,461.7z"/>
			</g>
			<g>
				<path class="st2" d="M345,452.5c-0.1,1.1-0.6,2.2-1.4,2.9c-0.9,0.7-2.1,1.1-3.2,1c-0.9,0-1.7-0.2-2.5-0.7
					c-0.7-0.5-1.3-1.1-1.7-1.9c-0.4-0.9-0.6-1.9-0.6-2.8v-1.1c0-1,0.2-2,0.6-2.9c0.4-0.8,1-1.5,1.7-2c0.8-0.5,1.6-0.7,2.5-0.7
					c1.1-0.1,2.2,0.3,3.1,1c0.8,0.8,1.3,1.8,1.4,3h-2.1c0-0.7-0.3-1.3-0.7-1.8c-0.5-0.4-1.1-0.6-1.7-0.6c-0.8,0-1.6,0.4-2.1,1
					c-0.5,0.9-0.8,1.8-0.7,2.8v1c-0.1,1,0.2,2,0.7,2.9c0.4,0.7,1.2,1.1,2,1c0.6,0,1.3-0.1,1.8-0.5c0.5-0.5,0.7-1.1,0.8-1.8
					L345,452.5z"/>
				<path class="st2" d="M346.2,451.8c0-0.8,0.2-1.6,0.5-2.3c0.3-0.7,0.8-1.2,1.4-1.6c0.6-0.4,1.4-0.6,2.1-0.6
					c1.1,0,2.1,0.4,2.9,1.1c0.8,0.8,1.2,1.9,1.2,3v0.5c0,0.8-0.2,1.6-0.5,2.3c-0.3,0.7-0.8,1.2-1.4,1.6c-0.6,0.4-1.4,0.6-2.1,0.6
					c-1.1,0-2.2-0.4-3-1.2C346.6,454.3,346.2,453.1,346.2,451.8L346.2,451.8z M348.2,452c0,0.7,0.2,1.4,0.5,2.1
					c0.6,0.9,1.9,1,2.7,0.4c0.1-0.1,0.3-0.2,0.4-0.4c0.4-0.7,0.6-1.5,0.6-2.3c0-0.7-0.2-1.5-0.6-2.1c-0.6-0.9-1.9-1-2.7-0.4
					c-0.1,0.1-0.3,0.2-0.4,0.4C348.3,450.4,348.1,451.2,348.2,452z"/>
				<path class="st2" d="M360.6,449.4c-0.3,0-0.5-0.1-0.8-0.1c-0.8-0.1-1.5,0.3-1.8,1v6h-2v-8.7h1.9v1c0.4-0.7,1.1-1.1,2-1.1
					c0.2,0,0.5,0,0.7,0.1L360.6,449.4z"/>
				<path class="st2" d="M365.7,456.5c-1.1,0-2.2-0.4-3-1.2c-0.8-0.8-1.2-2-1.2-3.1v-0.2c0-0.8,0.2-1.6,0.5-2.3
					c0.3-0.7,0.8-1.2,1.4-1.6c0.6-0.4,1.3-0.6,2.1-0.6c1-0.1,2.1,0.4,2.8,1.1c0.7,0.9,1,2.1,1,3.2v0.8h-5.7c0,0.6,0.3,1.2,0.7,1.7
					c0.4,0.4,1,0.7,1.6,0.6c0.9,0,1.7-0.4,2.2-1.1l1,1c-0.3,0.5-0.8,0.9-1.4,1.2C367,456.4,366.3,456.5,365.7,456.5z M365.4,449
					c-0.5,0-1,0.2-1.3,0.6c-0.4,0.5-0.6,1-0.6,1.6h3.7V451c0-0.5-0.2-1.1-0.5-1.5C366.3,449.1,365.9,448.9,365.4,449L365.4,449z"/>
				<path class="st2" d="M382.4,452c0.1,1.1-0.3,2.3-0.9,3.2c-0.6,0.8-1.5,1.2-2.5,1.2c-0.9,0-1.7-0.3-2.3-0.9v4.1h-2v-12.1h1.8
					l0.1,0.9c0.6-0.7,1.4-1.1,2.3-1c1,0,1.9,0.4,2.5,1.2c0.7,1,1,2.1,0.9,3.3L382.4,452z M380.5,451.8c0-0.7-0.1-1.4-0.5-2.1
					c-0.3-0.5-0.9-0.8-1.5-0.8c-0.7,0-1.4,0.4-1.7,1v3.9c0.3,0.7,1,1.1,1.7,1c0.6,0,1.1-0.3,1.5-0.8
					C380.4,453.5,380.5,452.7,380.5,451.8L380.5,451.8z"/>
				<path class="st2" d="M388.6,449.4c-0.3,0-0.5-0.1-0.8-0.1c-0.8-0.1-1.5,0.3-1.8,1v6h-2v-8.7h1.9l0.1,1c0.4-0.7,1.2-1.1,2-1.1
					c0.2,0,0.5,0,0.7,0.1L388.6,449.4z"/>
				<path class="st2" d="M389.2,451.8c0-0.8,0.2-1.6,0.5-2.3c0.3-0.7,0.8-1.2,1.4-1.6c0.6-0.4,1.4-0.6,2.1-0.6
					c1.1,0,2.1,0.4,2.9,1.1c0.8,0.8,1.2,1.9,1.2,3v0.5c0,0.8-0.2,1.6-0.5,2.3c-0.3,0.7-0.8,1.2-1.4,1.6c-0.6,0.4-1.4,0.6-2.1,0.6
					c-1.1,0-2.2-0.4-3-1.2C389.6,454.3,389.2,453.1,389.2,451.8L389.2,451.8z M391.2,452c0,0.7,0.2,1.5,0.6,2.1
					c0.6,0.9,1.9,1,2.7,0.4c0.1-0.1,0.3-0.2,0.4-0.4c0.4-0.7,0.6-1.5,0.5-2.3c0-0.7-0.2-1.5-0.6-2.1c-0.6-0.9-1.8-1-2.7-0.4
					c-0.2,0.1-0.3,0.2-0.4,0.4C391.3,450.4,391.1,451.2,391.2,452L391.2,452z"/>
				<path class="st2" d="M398.6,451.9c-0.1-1.2,0.3-2.3,0.9-3.2c0.6-0.8,1.5-1.3,2.5-1.2c0.9,0,1.7,0.3,2.2,1v-4.5h2v12.4h-1.8
					l-0.1-0.9c-0.6,0.7-1.5,1.1-2.4,1c-1,0-1.9-0.4-2.5-1.2C398.9,454.2,398.6,453,398.6,451.9z M400.6,452c0,0.7,0.1,1.4,0.5,2.1
					c0.3,0.5,0.9,0.8,1.5,0.7c0.7,0,1.4-0.4,1.8-1v-3.7c-0.3-0.7-1-1.1-1.7-1c-0.6,0-1.1,0.3-1.5,0.8
					C400.7,450.5,400.5,451.3,400.6,452L400.6,452z"/>
				<path class="st2" d="M413.6,455.4c-0.6,0.7-1.5,1.1-2.4,1c-0.8,0.1-1.6-0.2-2.2-0.8c-0.5-0.7-0.8-1.5-0.7-2.4v-5.7h2v5.6
					c0,1.1,0.5,1.7,1.4,1.7c0.8,0.1,1.6-0.3,1.9-1v-6.3h2v8.7h-1.8L413.6,455.4z"/>
				<path class="st2" d="M421.1,454.9c0.4,0,0.9-0.1,1.2-0.4c0.3-0.3,0.5-0.6,0.5-1h1.8c0,0.5-0.2,1.1-0.5,1.5
					c-0.3,0.5-0.8,0.9-1.3,1.1c-0.5,0.3-1.1,0.4-1.8,0.4c-1.1,0-2.2-0.4-2.9-1.2c-0.7-0.9-1.1-2.1-1-3.3v-0.2
					c-0.1-1.2,0.3-2.3,1-3.2c0.7-0.8,1.8-1.3,2.9-1.2c0.9,0,1.8,0.3,2.5,0.9c0.7,0.6,1,1.5,1,2.4h-1.8c0-0.5-0.2-0.9-0.5-1.2
					c-0.3-0.3-0.8-0.5-1.2-0.5c-0.6,0-1.1,0.2-1.5,0.7c-0.4,0.6-0.6,1.3-0.5,2.1v0.3c-0.1,0.7,0.1,1.5,0.5,2.1
					C420,454.7,420.5,454.9,421.1,454.9z"/>
				<path class="st2" d="M428.6,445.5v2.1h1.5v1.4h-1.5v4.9c0,0.3,0,0.5,0.2,0.7c0.2,0.2,0.4,0.3,0.7,0.2c0.2,0,0.5,0,0.7-0.1v1.5
					c-0.4,0.1-0.9,0.2-1.3,0.2c-1.5,0-2.2-0.8-2.2-2.5V449h-1.4v-1.4h1.4v-2.1H428.6z"/>
				<path class="st2" d="M435.4,451.8c0-0.8,0.2-1.6,0.5-2.3c0.3-0.7,0.8-1.2,1.4-1.6c0.6-0.4,1.4-0.6,2.1-0.6
					c1.1,0,2.1,0.4,2.9,1.1c0.8,0.8,1.2,1.9,1.2,3v0.5c0,0.8-0.2,1.6-0.5,2.3c-0.3,0.7-0.8,1.2-1.4,1.6c-0.6,0.4-1.4,0.6-2.1,0.6
					c-1.1,0-2.2-0.4-3-1.2C435.7,454.3,435.3,453.1,435.4,451.8L435.4,451.8z M437.3,452c0,0.7,0.2,1.5,0.6,2.1
					c0.6,0.9,1.9,1,2.7,0.4c0.1-0.1,0.3-0.2,0.4-0.4c0.4-0.7,0.6-1.5,0.5-2.3c0-0.7-0.2-1.5-0.6-2.1c-0.6-0.9-1.8-1-2.7-0.4
					c-0.2,0.1-0.3,0.2-0.4,0.4C437.5,450.4,437.3,451.2,437.3,452z"/>
				<path class="st2" d="M449.7,449.4c-0.3,0-0.5-0.1-0.8-0.1c-0.8-0.1-1.5,0.3-1.8,1v6h-2v-8.7h1.9v1c0.4-0.7,1.2-1.1,2-1.1
					c0.2,0,0.5,0,0.7,0.1L449.7,449.4z"/>
				<path class="st2" d="M460,453.9c0-0.3-0.2-0.6-0.4-0.8c-0.4-0.2-0.9-0.4-1.4-0.5c-0.6-0.1-1.1-0.3-1.7-0.5
					c-0.9-0.3-1.4-1.1-1.5-2.1c0-0.7,0.4-1.4,0.9-1.9c0.7-0.5,1.6-0.8,2.4-0.8c0.9,0,1.8,0.2,2.5,0.8c0.6,0.5,1,1.2,1,2h-2
					c0-0.4-0.1-0.7-0.4-0.9c-0.3-0.3-0.7-0.4-1.1-0.4c-0.4,0-0.7,0.1-1,0.3c-0.3,0.2-0.4,0.5-0.4,0.8c0,0.3,0.1,0.5,0.4,0.7
					c0.5,0.2,1,0.4,1.5,0.5c0.6,0.1,1.2,0.3,1.8,0.6c0.4,0.2,0.7,0.5,1,0.8c0.2,0.4,0.3,0.8,0.3,1.2c0,0.8-0.3,1.5-1,1.9
					c-0.8,0.5-1.6,0.8-2.6,0.7c-0.7,0-1.3-0.1-1.9-0.4c-0.5-0.2-1-0.6-1.3-1c-0.3-0.4-0.5-0.9-0.5-1.5h1.9c0,0.4,0.2,0.8,0.5,1
					c0.4,0.3,0.8,0.4,1.3,0.4c0.4,0,0.8-0.1,1.2-0.3C459.8,454.5,460,454.2,460,453.9z"/>
				<path class="st2" d="M467.4,456.5c-1.1,0-2.2-0.4-3-1.2c-0.8-0.8-1.2-2-1.2-3.1v-0.2c0-0.8,0.2-1.6,0.5-2.3
					c0.3-0.7,0.8-1.2,1.4-1.6c0.6-0.4,1.3-0.6,2.1-0.6c1-0.1,2.1,0.4,2.8,1.1c0.7,0.9,1,2.1,1,3.2v0.8h-5.7c0,0.6,0.3,1.2,0.7,1.7
					c0.4,0.4,1,0.7,1.6,0.6c0.9,0,1.7-0.4,2.2-1.1l1,1c-0.3,0.5-0.8,0.9-1.4,1.2C468.8,456.4,468.1,456.5,467.4,456.5z M467.2,449
					c-0.5,0-1,0.2-1.3,0.6c-0.4,0.5-0.6,1-0.6,1.6h3.7V451c0-0.5-0.2-1.1-0.5-1.5C468.1,449.1,467.7,449,467.2,449z"/>
				<path class="st2" d="M477,449.4c-0.3,0-0.5-0.1-0.8-0.1c-0.8-0.1-1.5,0.3-1.8,1v6h-2v-8.7h1.9l0.1,1c0.4-0.7,1.1-1.1,2-1.1
					c0.2,0,0.5,0,0.7,0.1L477,449.4z"/>
				<path class="st2" d="M481.5,453.8l1.8-6.2h2.1l-3,8.7h-1.7l-3.1-8.7h2.1L481.5,453.8z"/>
				<path class="st2" d="M486.6,445.3c0-0.3,0.1-0.5,0.3-0.7c0.2-0.2,0.5-0.3,0.8-0.3c0.3,0,0.6,0.1,0.8,0.3c0.4,0.4,0.4,1.1,0,1.5
					c-0.2,0.2-0.5,0.3-0.8,0.3c-0.3,0-0.6-0.1-0.8-0.3C486.7,445.8,486.6,445.6,486.6,445.3z M488.6,456.3h-2v-8.7h2V456.3z"/>
				<path class="st2" d="M494.4,454.9c0.4,0,0.9-0.1,1.2-0.4c0.3-0.3,0.5-0.6,0.5-1h1.8c0,0.5-0.2,1.1-0.5,1.5
					c-0.3,0.5-0.8,0.9-1.3,1.1c-0.5,0.3-1.2,0.4-1.8,0.4c-1.1,0-2.2-0.4-2.9-1.2c-0.7-0.9-1.1-2.1-1-3.3v-0.2
					c-0.1-1.2,0.3-2.3,1-3.2c0.7-0.8,1.8-1.2,2.9-1.2c0.9,0,1.8,0.3,2.5,0.9c0.7,0.6,1,1.5,1,2.4h-1.8c0-0.5-0.2-0.9-0.5-1.2
					c-0.3-0.3-0.8-0.5-1.2-0.5c-0.6,0-1.1,0.2-1.5,0.7c-0.4,0.6-0.6,1.3-0.5,2.1v0.3c-0.1,0.7,0.1,1.5,0.5,2.1
					C493.3,454.7,493.8,454.9,494.4,454.9z"/>
				<path class="st2" d="M503.3,456.5c-1.1,0-2.2-0.4-3-1.2c-0.8-0.8-1.2-2-1.2-3.1v-0.2c0-0.8,0.2-1.6,0.5-2.3
					c0.6-1.3,2-2.2,3.4-2.2c1-0.1,2.1,0.4,2.7,1.1c0.7,0.9,1.1,2.1,1,3.2v0.8h-5.7c0,0.6,0.3,1.2,0.7,1.7c0.4,0.4,1,0.6,1.6,0.6
					c0.9,0,1.7-0.4,2.2-1.1l1,1c-0.3,0.5-0.8,0.9-1.4,1.2C504.6,456.4,503.9,456.5,503.3,456.5z M503,449c-0.5,0-1,0.2-1.3,0.6
					c-0.4,0.5-0.6,1-0.6,1.6h3.7V451c0-0.5-0.2-1.1-0.5-1.5C504,449.1,503.5,449,503,449L503,449z"/>
			</g>
			<g>
				<path class="st2" d="M338,542.1c-0.1,1.2-0.6,2.3-1.4,3c-0.9,0.8-2.1,1.1-3.3,1.1c-0.9,0-1.8-0.2-2.6-0.7
					c-0.7-0.5-1.3-1.2-1.7-2c-0.4-0.9-0.6-1.9-0.6-2.9v-1.1c0-1,0.2-2.1,0.6-3c0.4-0.8,1-1.5,1.8-2c0.8-0.5,1.7-0.7,2.6-0.7
					c1.2-0.1,2.3,0.3,3.2,1.1c0.9,0.8,1.4,1.9,1.4,3.1h-2.1c0-0.7-0.3-1.4-0.8-1.9c-0.5-0.4-1.1-0.6-1.8-0.6c-0.8-0.1-1.6,0.3-2.1,1
					c-0.6,0.9-0.8,1.9-0.8,2.9v1.1c-0.1,1.1,0.2,2.1,0.7,3c0.5,0.7,1.2,1.1,2.1,1.1c0.7,0,1.3-0.2,1.9-0.6c0.5-0.5,0.8-1.2,0.8-1.9
					L338,542.1z"/>
				<path class="st2" d="M341.9,546.1h-2.1v-12.8h2L341.9,546.1z"/>
				<path class="st2" d="M348.1,546.2c-1.2,0-2.3-0.4-3.1-1.2c-0.8-0.9-1.3-2-1.2-3.2v-0.3c0-0.8,0.2-1.7,0.5-2.4
					c0.3-0.7,0.8-1.3,1.5-1.7c0.6-0.4,1.4-0.6,2.1-0.6c1.1-0.1,2.1,0.4,2.9,1.2c0.7,1,1.1,2.1,1,3.3v0.8h-5.9c0,0.7,0.3,1.3,0.7,1.8
					c0.4,0.4,1,0.7,1.6,0.6c0.9,0,1.7-0.4,2.3-1.1l1.1,1.1c-0.4,0.5-0.9,1-1.5,1.3C349.4,546.2,348.8,546.3,348.1,546.2z
					 M347.8,538.5c-0.5,0-1,0.2-1.3,0.6c-0.4,0.5-0.6,1-0.7,1.6h3.9v-0.1c0-0.6-0.2-1.1-0.5-1.5
					C348.8,538.7,348.3,538.5,347.8,538.5z"/>
				<path class="st2" d="M358.6,546.1c-0.1-0.3-0.2-0.6-0.2-0.8c-1.2,1.3-3.2,1.4-4.6,0.2c-0.6-0.5-0.9-1.2-0.9-1.9
					c0-0.9,0.4-1.7,1.1-2.2c0.9-0.6,2-0.8,3.1-0.8h1.2V540c0-0.4-0.1-0.8-0.4-1.1c-0.3-0.3-0.7-0.5-1.2-0.4c-0.4,0-0.8,0.1-1.1,0.3
					c-0.3,0.2-0.4,0.5-0.4,0.9h-2c0-0.5,0.2-1,0.5-1.4c0.3-0.5,0.8-0.8,1.3-1.1c0.6-0.3,1.2-0.4,1.9-0.4c0.9,0,1.8,0.2,2.5,0.8
					c0.6,0.6,1,1.4,1,2.2v4.1c0,0.7,0.1,1.3,0.3,1.9v0.1L358.6,546.1z M356.4,544.6c0.4,0,0.8-0.1,1.1-0.3c0.3-0.2,0.6-0.4,0.8-0.8
					v-1.7h-1.1c-0.6,0-1.2,0.1-1.7,0.4c-0.4,0.2-0.6,0.6-0.6,1.1c0,0.4,0.1,0.7,0.4,0.9C355.7,544.5,356,544.6,356.4,544.6
					L356.4,544.6z"/>
				<path class="st2" d="M367.2,538.9c-0.3-0.1-0.5-0.1-0.8-0.1c-0.8-0.1-1.5,0.3-1.9,1.1v6.2h-2v-9h1.9v1c0.4-0.7,1.2-1.2,2-1.2
					c0.2,0,0.5,0,0.7,0.1L367.2,538.9z"/>
				<path class="st2" d="M376,543.5l1.9-6.4h2.1l-3.1,9h-1.8l-3.2-9h2.1L376,543.5z"/>
				<path class="st2" d="M381.2,534.7c0-0.3,0.1-0.6,0.3-0.8c0.2-0.2,0.5-0.3,0.9-0.3c0.3,0,0.6,0.1,0.8,0.3
					c0.2,0.2,0.3,0.5,0.3,0.8c0,0.3-0.1,0.6-0.3,0.8c-0.2,0.2-0.5,0.3-0.8,0.3c-0.3,0-0.6-0.1-0.9-0.3
					C381.3,535.2,381.2,535,381.2,534.7z M383.4,546h-2v-9h2V546z"/>
				<path class="st2" d="M390.7,543.6c0-0.3-0.2-0.7-0.4-0.8c-0.5-0.2-1-0.4-1.5-0.5c-0.6-0.1-1.2-0.3-1.7-0.5
					c-0.9-0.3-1.5-1.2-1.5-2.1c0-0.8,0.4-1.5,1-2c0.7-0.5,1.6-0.8,2.5-0.8c0.9,0,1.9,0.2,2.6,0.8c0.7,0.5,1,1.3,1,2.1h-2
					c0-0.4-0.1-0.7-0.4-1c-0.3-0.3-0.7-0.4-1.2-0.4c-0.4,0-0.8,0.1-1.1,0.3c-0.3,0.2-0.4,0.5-0.4,0.8c0,0.3,0.1,0.6,0.4,0.7
					c0.5,0.3,1,0.4,1.6,0.5c0.6,0.1,1.3,0.3,1.9,0.6c0.4,0.2,0.8,0.5,1,0.9c0.2,0.4,0.3,0.8,0.3,1.2c0,0.8-0.4,1.5-1,2
					c-0.8,0.5-1.7,0.8-2.6,0.8c-0.7,0-1.4-0.1-2-0.4c-0.5-0.2-1-0.6-1.4-1.1c-0.3-0.4-0.5-1-0.5-1.5h2c0,0.4,0.2,0.8,0.5,1.1
					c0.4,0.3,0.9,0.4,1.3,0.4c0.4,0,0.9-0.1,1.2-0.3C390.5,544.3,390.7,544,390.7,543.6z"/>
				<path class="st2" d="M394.4,534.7c0-0.3,0.1-0.6,0.3-0.8c0.2-0.2,0.5-0.3,0.8-0.3c0.3,0,0.6,0.1,0.9,0.3
					c0.2,0.2,0.3,0.5,0.3,0.8c0,0.3-0.1,0.6-0.3,0.8c-0.2,0.2-0.5,0.3-0.9,0.3c-0.3,0-0.6-0.1-0.8-0.3
					C394.5,535.2,394.4,535,394.4,534.7z M396.6,546h-2v-9h2V546z"/>
				<path class="st2" d="M398.4,541.5c0-0.8,0.2-1.6,0.5-2.4c0.3-0.7,0.8-1.2,1.5-1.6c0.7-0.4,1.4-0.6,2.2-0.6c1.1,0,2.2,0.4,3,1.2
					c0.8,0.8,1.2,2,1.2,3.1v0.5c0,0.8-0.2,1.6-0.5,2.4c-0.3,0.7-0.8,1.2-1.5,1.6c-0.7,0.4-1.4,0.6-2.2,0.6c-1.2,0-2.3-0.4-3.1-1.3
					C398.7,544,398.3,542.8,398.4,541.5L398.4,541.5z M400.4,541.6c0,0.8,0.2,1.5,0.6,2.2c0.7,0.9,1.9,1.1,2.8,0.4
					c0.1-0.1,0.3-0.2,0.4-0.4c0.4-0.7,0.6-1.5,0.6-2.3c0-0.8-0.2-1.5-0.6-2.1c-0.6-0.9-1.9-1.1-2.8-0.4c-0.2,0.1-0.3,0.3-0.4,0.4
					C400.6,540,400.4,540.8,400.4,541.6L400.4,541.6z"/>
				<path class="st2" d="M410.4,537l0.1,1.1c0.6-0.8,1.6-1.3,2.6-1.2c1.9,0,2.8,1.1,2.9,3.2v6h-2v-5.8c0-0.5-0.1-0.9-0.4-1.3
					c-0.3-0.3-0.8-0.5-1.2-0.4c-0.8,0-1.5,0.4-1.8,1.1v6.4h-2v-9L410.4,537z"/>
				<path class="st2" d="M427.7,546.1c-0.1-0.3-0.2-0.6-0.2-0.8c-1.2,1.3-3.2,1.4-4.6,0.2c-0.6-0.5-0.9-1.2-0.9-1.9
					c0-0.9,0.4-1.7,1.1-2.2c0.9-0.6,2-0.8,3.1-0.8h1.3V540c0-0.4-0.1-0.8-0.4-1.1c-0.3-0.3-0.8-0.5-1.2-0.4c-0.4,0-0.8,0.1-1.1,0.3
					c-0.3,0.2-0.5,0.5-0.4,0.9h-2c0-0.5,0.2-1,0.5-1.4c0.3-0.5,0.8-0.8,1.3-1.1c0.6-0.3,1.2-0.4,1.9-0.4c0.9,0,1.8,0.2,2.5,0.8
					c0.6,0.6,1,1.4,1,2.2v4.1c0,0.7,0.1,1.3,0.3,1.9v0.1L427.7,546.1z M425.4,544.6c0.4,0,0.8-0.1,1.1-0.3c0.3-0.2,0.6-0.4,0.8-0.8
					v-1.7h-1.1c-0.6,0-1.2,0.1-1.7,0.4c-0.4,0.2-0.6,0.6-0.6,1.1c0,0.4,0.1,0.7,0.4,0.9C424.7,544.5,425.1,544.6,425.4,544.6
					L425.4,544.6z"/>
				<path class="st2" d="M433.4,537l0.1,1.1c0.6-0.8,1.6-1.3,2.6-1.2c1.9,0,2.8,1.1,2.9,3.2v6h-2v-5.8c0-0.5-0.1-0.9-0.4-1.3
					c-0.3-0.3-0.8-0.5-1.2-0.4c-0.8,0-1.5,0.4-1.8,1.1v6.4h-2v-9L433.4,537z"/>
				<path class="st2" d="M440.6,541.5c-0.1-1.2,0.3-2.4,1-3.3c0.6-0.8,1.6-1.3,2.6-1.3c0.9,0,1.7,0.3,2.3,1v-4.6h2v12.8h-1.8
					l-0.1-0.9c-0.6,0.7-1.5,1.1-2.4,1.1c-1,0-2-0.5-2.6-1.3C440.9,543.9,440.6,542.7,440.6,541.5z M442.7,541.7
					c0,0.7,0.1,1.5,0.5,2.1c0.3,0.5,0.9,0.8,1.5,0.8c0.8,0,1.5-0.4,1.8-1.1v-3.9c-0.3-0.7-1-1.1-1.8-1.1c-0.6,0-1.2,0.3-1.5,0.8
					C442.8,540.1,442.6,540.9,442.7,541.7z"/>
				<path class="st2" d="M456.8,537v0.9c0.7-0.7,1.6-1.1,2.6-1.1c1-0.1,2,0.5,2.5,1.4c0.6-0.9,1.7-1.4,2.8-1.4
					c0.8-0.1,1.6,0.2,2.2,0.8c0.5,0.7,0.8,1.6,0.7,2.4v5.9h-2v-5.9c0-0.5-0.1-0.9-0.4-1.3c-0.3-0.3-0.8-0.4-1.3-0.4
					c-0.4,0-0.8,0.1-1.1,0.4c-0.3,0.3-0.5,0.6-0.6,1v6.2h-2v-5.9c0.1-0.8-0.5-1.5-1.3-1.6c-0.1,0-0.2,0-0.3,0
					c-0.7-0.1-1.4,0.3-1.7,1v6.5h-2v-9L456.8,537z"/>
				<path class="st2" d="M469.8,534.7c0-0.3,0.1-0.6,0.3-0.8c0.2-0.2,0.5-0.3,0.8-0.3c0.3,0,0.6,0.1,0.9,0.3
					c0.2,0.2,0.3,0.5,0.3,0.8c0,0.3-0.1,0.6-0.3,0.8c-0.2,0.2-0.5,0.3-0.9,0.3c-0.3,0-0.6-0.1-0.8-0.3
					C469.9,535.2,469.8,535,469.8,534.7z M472,546h-2v-9h2V546z"/>
				<path class="st2" d="M479.2,543.6c0-0.3-0.2-0.7-0.4-0.8c-0.5-0.2-1-0.4-1.5-0.5c-0.6-0.1-1.2-0.3-1.7-0.5
					c-0.9-0.3-1.5-1.2-1.5-2.1c0-0.8,0.4-1.5,1-2c0.7-0.5,1.6-0.8,2.5-0.8c0.9,0,1.9,0.2,2.6,0.8c0.7,0.5,1,1.3,1,2.1h-2
					c0-0.4-0.2-0.7-0.4-1c-0.3-0.3-0.7-0.4-1.2-0.4c-0.4,0-0.8,0.1-1.1,0.3c-0.3,0.2-0.4,0.5-0.4,0.8c0,0.3,0.1,0.6,0.4,0.7
					c0.5,0.3,1,0.4,1.6,0.5c0.6,0.1,1.3,0.3,1.9,0.6c0.4,0.2,0.8,0.5,1,0.9c0.2,0.4,0.3,0.8,0.3,1.2c0,0.8-0.4,1.5-1,2
					c-0.8,0.5-1.7,0.8-2.6,0.8c-0.7,0-1.4-0.1-2-0.4c-0.5-0.2-1-0.6-1.3-1.1c-0.3-0.4-0.5-1-0.5-1.5h2c0,0.4,0.2,0.8,0.5,1.1
					c0.8,0.5,1.7,0.5,2.5,0.1C479.1,544.3,479.3,544,479.2,543.6z"/>
				<path class="st2" d="M488.1,543.6c0-0.3-0.2-0.7-0.4-0.8c-0.5-0.2-1-0.4-1.5-0.5c-0.6-0.1-1.2-0.3-1.7-0.5
					c-0.9-0.3-1.5-1.2-1.5-2.1c0-0.8,0.4-1.5,1-2c0.7-0.5,1.6-0.8,2.5-0.8c0.9,0,1.9,0.2,2.6,0.8c0.7,0.5,1,1.3,1,2.1h-2
					c0-0.4-0.1-0.7-0.4-1c-0.3-0.3-0.7-0.4-1.2-0.4c-0.4,0-0.8,0.1-1.1,0.3c-0.3,0.2-0.4,0.5-0.4,0.8c0,0.3,0.1,0.6,0.4,0.7
					c0.5,0.3,1,0.4,1.6,0.5c0.6,0.1,1.3,0.3,1.9,0.6c0.4,0.2,0.8,0.5,1,0.9c0.2,0.4,0.3,0.8,0.3,1.2c0,0.8-0.4,1.5-1,2
					c-0.8,0.5-1.7,0.8-2.6,0.8c-0.7,0-1.4-0.1-2-0.4c-0.5-0.2-1-0.6-1.3-1.1c-0.3-0.4-0.5-1-0.5-1.5h2c0,0.4,0.2,0.8,0.5,1.1
					c0.4,0.3,0.9,0.4,1.3,0.4c0.4,0,0.9-0.1,1.2-0.3C487.9,544.3,488.1,544,488.1,543.6z"/>
				<path class="st2" d="M491.8,534.7c0-0.3,0.1-0.6,0.3-0.8c0.2-0.2,0.5-0.3,0.8-0.3c0.3,0,0.6,0.1,0.9,0.3
					c0.2,0.2,0.3,0.5,0.3,0.8c0,0.3-0.1,0.6-0.3,0.8c-0.2,0.2-0.5,0.3-0.9,0.3c-0.3,0-0.6-0.1-0.8-0.3
					C491.9,535.2,491.8,535,491.8,534.7z M494,546h-2v-9h2V546z"/>
				<path class="st2" d="M495.8,541.5c0-0.8,0.2-1.6,0.5-2.4c0.3-0.7,0.8-1.2,1.5-1.6c0.7-0.4,1.4-0.6,2.2-0.6c1.1,0,2.2,0.4,3,1.2
					c0.8,0.8,1.2,2,1.2,3.1v0.5c0,0.8-0.2,1.6-0.5,2.4c-0.3,0.7-0.8,1.2-1.5,1.6c-0.7,0.4-1.4,0.6-2.2,0.6c-1.2,0-2.3-0.4-3.1-1.3
					C496.1,544,495.7,542.8,495.8,541.5L495.8,541.5z M497.8,541.6c0,0.8,0.2,1.5,0.6,2.2c0.7,0.9,1.9,1.1,2.8,0.4
					c0.1-0.1,0.3-0.2,0.4-0.4c0.4-0.7,0.6-1.5,0.6-2.3c0-0.8-0.2-1.5-0.6-2.1c-0.4-0.5-1-0.8-1.6-0.8c-0.6,0-1.2,0.3-1.6,0.8
					C498,540,497.8,540.8,497.8,541.6L497.8,541.6z"/>
				<path class="st2" d="M507.8,537l0.1,1.1c0.6-0.8,1.6-1.3,2.6-1.2c1.9,0,2.8,1.1,2.9,3.2v6h-2v-5.8c0-0.5-0.1-0.9-0.4-1.3
					c-0.3-0.3-0.8-0.5-1.2-0.4c-0.8,0-1.5,0.4-1.8,1.1v6.4h-2v-9L507.8,537z"/>
			</g>
			<g>
				<path class="st2" d="M610,443.6h-4.5l-0.9,2.7h-2.1l4.4-11.7h1.8l4.4,11.7h-2.1L610,443.6z M606,441.9h3.4l-1.7-4.9L606,441.9z"
					/>
				<path class="st2" d="M613.8,441.9c-0.1-1.2,0.3-2.3,0.9-3.3c0.6-0.8,1.5-1.3,2.5-1.2c0.9,0,1.7,0.3,2.2,1v-4.5h2v12.4h-1.8
					l-0.1-0.9c-0.6,0.7-1.4,1.1-2.3,1c-1,0-1.9-0.4-2.5-1.2C614.1,444.2,613.8,443,613.8,441.9z M615.8,442c0,0.7,0.1,1.4,0.5,2.1
					c0.3,0.5,0.9,0.8,1.5,0.7c0.7,0,1.4-0.4,1.8-1v-3.7c-0.3-0.7-1-1.1-1.7-1c-0.6,0-1.1,0.3-1.5,0.8
					C615.9,440.5,615.7,441.3,615.8,442L615.8,442z"/>
				<path class="st2" d="M627.4,446.5c-1.1,0-2.2-0.4-3-1.2c-0.8-0.8-1.2-2-1.2-3.1v-0.2c0-0.8,0.2-1.6,0.5-2.3
					c0.3-0.7,0.8-1.2,1.4-1.6c0.6-0.4,1.3-0.6,2.1-0.6c1-0.1,2.1,0.4,2.8,1.1c0.7,0.9,1,2.1,1,3.2v0.8h-5.7c0,0.6,0.3,1.2,0.7,1.7
					c0.4,0.4,1,0.7,1.6,0.6c0.9,0,1.7-0.4,2.2-1.1l1,1c-0.3,0.5-0.8,0.9-1.4,1.2C628.7,446.4,628,446.5,627.4,446.5z M627.1,439
					c-0.5,0-1,0.2-1.3,0.6c-0.4,0.5-0.6,1-0.6,1.6h3.7V441c0-0.5-0.2-1.1-0.5-1.5C628.1,439.1,627.6,439,627.1,439L627.1,439z"/>
				<path class="st2" d="M632,441.8c-0.1-1.2,0.3-2.3,0.9-3.2c0.6-0.8,1.5-1.2,2.5-1.2c0.9,0,1.7,0.3,2.3,1l0.1-0.9h1.7v12.1h-2
					v-4.1c-0.6,0.6-1.4,0.9-2.2,0.9c-1,0-1.9-0.4-2.5-1.2C632.3,444.2,632,443,632,441.8z M634,442c0,0.7,0.1,1.4,0.5,2.1
					c0.3,0.5,0.9,0.8,1.5,0.8c0.7,0,1.4-0.4,1.7-1v-3.9c-0.3-0.6-1-1-1.7-0.9c-0.6,0-1.1,0.3-1.5,0.7
					C634.1,440.4,633.9,441.2,634,442L634,442z"/>
				<path class="st2" d="M647,445.4c-0.6,0.7-1.5,1.1-2.5,1c-0.8,0.1-1.6-0.3-2.1-0.8c-0.5-0.7-0.8-1.5-0.7-2.4v-5.7h1.9v5.6
					c0,1.1,0.5,1.7,1.4,1.7c0.8,0.1,1.6-0.3,1.9-1v-6.3h2v8.7h-1.8L647,445.4z"/>
				<path class="st2" d="M656.2,446.3c-0.1-0.3-0.2-0.5-0.2-0.8c-1.2,1.2-3.1,1.3-4.4,0.2c-0.5-0.5-0.8-1.1-0.8-1.9
					c0-0.8,0.3-1.6,1-2.1c0.9-0.5,1.9-0.8,3-0.7h1.2v-0.6c0.1-0.8-0.5-1.4-1.2-1.5c-0.1,0-0.2,0-0.3,0c-0.4,0-0.8,0.1-1.1,0.3
					c-0.3,0.2-0.4,0.5-0.4,0.9h-1.9c0-0.5,0.2-1,0.5-1.4c0.3-0.4,0.8-0.8,1.3-1c0.6-0.2,1.2-0.4,1.8-0.4c0.9,0,1.8,0.2,2.4,0.8
					c0.6,0.5,1,1.3,0.9,2.2v3.9c0,0.6,0.1,1.3,0.3,1.9v0.1H656.2z M654,444.9c0.4,0,0.8-0.1,1.1-0.3c0.3-0.2,0.6-0.4,0.8-0.8v-1.7
					h-1c-0.6,0-1.1,0.1-1.6,0.4c-0.3,0.2-0.6,0.6-0.5,1c0,0.3,0.1,0.7,0.4,0.9C653.3,444.7,653.6,444.9,654,444.9z"/>
				<path class="st2" d="M662.3,435.5v2.1h1.5v1.4h-1.5v4.9c0,0.3,0,0.5,0.2,0.7c0.2,0.2,0.4,0.3,0.7,0.2c0.2,0,0.5,0,0.7-0.1v1.5
					c-0.4,0.1-0.9,0.2-1.3,0.2c-1.5,0-2.2-0.8-2.2-2.5V439h-1.4v-1.4h1.4v-2.1H662.3z"/>
				<path class="st2" d="M669.2,446.5c-1.1,0-2.2-0.4-3-1.2c-0.8-0.8-1.2-2-1.2-3.1v-0.2c0-0.8,0.2-1.6,0.5-2.3
					c0.6-1.3,2-2.2,3.4-2.2c1-0.1,2.1,0.4,2.8,1.1c0.7,0.9,1,2.1,1,3.2v0.8H667c0,0.6,0.3,1.2,0.7,1.7c0.4,0.4,1,0.6,1.6,0.6
					c0.9,0,1.7-0.4,2.2-1.1l1,1c-0.3,0.5-0.8,0.9-1.4,1.2C670.5,446.3,669.9,446.5,669.2,446.5z M669,439c-0.5,0-1,0.2-1.3,0.6
					c-0.4,0.5-0.6,1-0.6,1.6h3.7V441c0-0.5-0.2-1.1-0.5-1.5C669.9,439.1,669.4,439,669,439z"/>
				<path class="st2" d="M616,461.1h-4.7v5h-2.1v-11.7h7.5v1.6h-5.4v3.5h4.7L616,461.1z"/>
				<path class="st2" d="M623.2,465.2c-0.6,0.7-1.5,1.1-2.4,1c-0.8,0.1-1.6-0.3-2.2-0.8c-0.5-0.7-0.8-1.5-0.7-2.4v-5.6h2v5.6
					c0,1.1,0.5,1.7,1.4,1.7c0.8,0.1,1.6-0.3,1.9-1v-6.3h2v8.7h-1.8L623.2,465.2z"/>
				<path class="st2" d="M628.9,457.4l0.1,1c0.6-0.8,1.6-1.2,2.5-1.2c1.8,0,2.7,1,2.8,3.1v5.8h-2v-5.7c0-0.4-0.1-0.9-0.4-1.2
					c-0.3-0.3-0.7-0.4-1.2-0.4c-0.7,0-1.4,0.4-1.8,1v6.2h-1.9v-8.7L628.9,457.4z"/>
				<path class="st2" d="M635.9,461.7c-0.1-1.2,0.3-2.3,0.9-3.2c0.6-0.8,1.5-1.3,2.5-1.2c0.8,0,1.7,0.3,2.2,1v-4.5h2v12.4h-1.8
					l-0.1-0.9c-0.6,0.7-1.5,1.1-2.4,1c-1,0-1.9-0.4-2.5-1.2C636.2,464,635.9,462.9,635.9,461.7z M637.9,461.9c0,0.7,0.1,1.4,0.5,2.1
					c0.3,0.5,0.9,0.8,1.5,0.7c0.7,0,1.4-0.4,1.8-1v-3.7c-0.3-0.7-1-1.1-1.7-1c-0.6,0-1.1,0.3-1.5,0.8
					C638,460.3,637.8,461.1,637.9,461.9L637.9,461.9z"/>
				<path class="st2" d="M645.6,455.1c0-0.3,0.1-0.5,0.3-0.7c0.5-0.4,1.2-0.4,1.6,0c0.4,0.4,0.4,1.1,0,1.5c-0.5,0.4-1.2,0.4-1.6,0
					C645.7,455.6,645.6,455.4,645.6,455.1z M647.7,466.1h-2v-8.7h2L647.7,466.1z"/>
				<path class="st2" d="M651.7,457.4v1c0.6-0.8,1.6-1.2,2.5-1.2c1.8,0,2.7,1,2.8,3.1v5.8h-2v-5.7c0-0.4-0.1-0.9-0.4-1.2
					c-0.3-0.3-0.7-0.4-1.2-0.4c-0.7,0-1.4,0.4-1.8,1v6.2h-1.9v-8.7L651.7,457.4z"/>
				<path class="st2" d="M658.7,461.7c-0.1-1.2,0.3-2.3,1-3.2c0.6-0.8,1.5-1.2,2.5-1.2c0.9,0,1.8,0.3,2.3,1l0.1-0.9h1.8v8.5
					c0.1,1-0.3,2-1,2.7c-0.8,0.7-1.8,1.1-2.9,1c-0.6,0-1.3-0.1-1.9-0.4c-0.5-0.2-1-0.6-1.4-1l0.9-1.2c0.5,0.7,1.4,1,2.2,1
					c0.6,0,1.1-0.2,1.5-0.5c0.4-0.4,0.6-1,0.6-1.6v-0.6c-0.6,0.6-1.4,1-2.3,0.9c-1,0-1.9-0.4-2.5-1.2
					C659,464.1,658.6,462.9,658.7,461.7z M660.6,461.9c0,0.7,0.2,1.4,0.5,2.1c0.3,0.5,0.9,0.8,1.5,0.8c0.7,0,1.4-0.4,1.8-1v-3.8
					c-0.3-0.7-1-1.1-1.7-1c-0.6,0-1.2,0.3-1.5,0.8C660.8,460.2,660.6,461,660.6,461.9z"/>
			</g>
		</g>
	</g>
</g>
</svg>
