<svg xmlns="http://www.w3.org/2000/svg" width="297mm" height="70mm" viewBox="0 0 841.89 198.43">
  <defs>
    <style>
      .cls-1 {
        fill: #e6bd69;
      }

      .cls-2 {
        fill: #d56761;
      }

      .cls-3 {
        fill: #daa147;
      }

      .cls-4 {
        fill: none;
        stroke: #daa147;
        stroke-miterlimit: 10;
        stroke-width: 3px;
      }

      .cls-5 {
        fill: #fff;
      }
    </style>
  </defs>
  <title>pyramid_1</title>
  <g id="Слой_2" data-name="Слой 2">
    <g id="Layer_4" data-name="Layer 4">
      <g>
        <g>
          <polygon class="cls-1" points="739.23 99.21 675.58 0 561.26 0 280.63 0 166.31 0 102.66 99.21 39 198.43 280.63 198.43 561.26 198.43 802.89 198.43 739.23 99.21"/>
          <g>
            <polygon class="cls-2" points="140.31 0 70.16 99.21 70.16 99.21 140.31 0 140.31 0"/>
            <polygon class="cls-3" points="140.31 0 70.16 99.21 102.66 99.21 166.31 0 140.31 0"/>
            <polygon class="cls-2" points="701.58 0 771.73 99.21 771.73 99.21 701.58 0 701.58 0"/>
            <polygon class="cls-3" points="701.58 0 771.73 99.21 739.23 99.21 675.58 0 701.58 0"/>
            <line class="cls-4" x1="96.03" y1="99.21" x2="745.86" y2="99.21"/>
            <line class="cls-4" x1="280.63" x2="280.63" y2="99.21"/>
            <line class="cls-4" x1="561.26" x2="561.26" y2="99.21"/>
            <polygon class="cls-3" points="70.16 99.21 0 198.43 39 198.43 102.66 99.21 70.16 99.21"/>
            <polygon class="cls-3" points="771.73 99.21 841.89 198.43 802.89 198.43 739.23 99.21 771.73 99.21"/>
          </g>
        </g>
        <g>
          <path class="cls-5" d="M162.13,45.16H158v3.07h4.78v1.38h-6.5v-10h6.46v1.4H158V43.8h4.09Z"/>
          <path class="cls-5" d="M166.73,44.64l1.4-2.43H170l-2.26,3.64,2.34,3.76h-1.84l-1.47-2.53-1.47,2.53h-1.85l2.34-3.76-2.26-3.64h1.84Z"/>
          <path class="cls-5" d="M174,48.42a1.49,1.49,0,0,0,1-.37,1.21,1.21,0,0,0,.43-.89h1.57a2.45,2.45,0,0,1-.43,1.29,2.81,2.81,0,0,1-1.1.94,3.46,3.46,0,0,1-4-.65,4,4,0,0,1-.91-2.78v-.17a3.89,3.89,0,0,1,.91-2.7,3.11,3.11,0,0,1,2.46-1,3.06,3.06,0,0,1,2.15.77,2.8,2.8,0,0,1,.87,2h-1.57a1.47,1.47,0,0,0-.43-1,1.38,1.38,0,0,0-1-.41,1.46,1.46,0,0,0-1.24.58,3,3,0,0,0-.44,1.77V46a3.07,3.07,0,0,0,.43,1.8A1.47,1.47,0,0,0,174,48.42Z"/>
          <path class="cls-5" d="M181.56,49.74a3.44,3.44,0,0,1-2.56-1,3.63,3.63,0,0,1-1-2.65v-.21a4.35,4.35,0,0,1,.43-2,3.12,3.12,0,0,1,1.2-1.36,3.19,3.19,0,0,1,1.72-.49,2.87,2.87,0,0,1,2.33,1,4.06,4.06,0,0,1,.83,2.72v.67h-4.84a2.19,2.19,0,0,0,.62,1.45,1.8,1.8,0,0,0,1.35.54,2.25,2.25,0,0,0,1.86-.93l.89.86a3.1,3.1,0,0,1-1.18,1A3.79,3.79,0,0,1,181.56,49.74Zm-.2-6.33a1.42,1.42,0,0,0-1.1.47,2.53,2.53,0,0,0-.54,1.34h3.17v-.13a2.06,2.06,0,0,0-.45-1.26A1.4,1.4,0,0,0,181.36,43.41Z"/>
          <path class="cls-5" d="M192.29,46a4.39,4.39,0,0,1-.78,2.74,2.71,2.71,0,0,1-4,.22v3.51h-1.66V42.21h1.53l.07.75a2.45,2.45,0,0,1,2-.89,2.52,2.52,0,0,1,2.12,1,4.48,4.48,0,0,1,.77,2.8Zm-1.65-.14a3.14,3.14,0,0,0-.44-1.76,1.45,1.45,0,0,0-1.26-.65,1.54,1.54,0,0,0-1.47.84v3.29a1.56,1.56,0,0,0,1.48.86,1.45,1.45,0,0,0,1.24-.64A3.39,3.39,0,0,0,190.64,45.84Z"/>
          <path class="cls-5" d="M195.78,40.41v1.8h1.3v1.23h-1.3v4.13a.86.86,0,0,0,.17.61.75.75,0,0,0,.59.19,2.38,2.38,0,0,0,.59-.07v1.29a4.34,4.34,0,0,1-1.1.15c-1.27,0-1.91-.7-1.91-2.11V43.44H192.9V42.21h1.22v-1.8Z"/>
          <path class="cls-5" d="M198.36,40.29a.89.89,0,0,1,.24-.64.94.94,0,0,1,.69-.25,1,1,0,0,1,.7.25.9.9,0,0,1,.25.64.85.85,0,0,1-.25.62.92.92,0,0,1-.7.25.9.9,0,0,1-.69-.25A.84.84,0,0,1,198.36,40.29Zm1.76,9.32h-1.66v-7.4h1.66Z"/>
          <path class="cls-5" d="M201.62,45.84a4.31,4.31,0,0,1,.43-2,3.09,3.09,0,0,1,1.21-1.34,3.41,3.41,0,0,1,1.79-.47,3.2,3.2,0,0,1,2.43,1,3.78,3.78,0,0,1,1,2.55V46a4.44,4.44,0,0,1-.42,2,3.1,3.1,0,0,1-1.2,1.33,3.37,3.37,0,0,1-1.81.47,3.17,3.17,0,0,1-2.5-1,4,4,0,0,1-.94-2.78Zm1.66.14a3,3,0,0,0,.47,1.79,1.53,1.53,0,0,0,1.31.65,1.51,1.51,0,0,0,1.31-.66,3.32,3.32,0,0,0,.47-1.92,3,3,0,0,0-.48-1.78,1.63,1.63,0,0,0-2.6,0A3.23,3.23,0,0,0,203.28,46Z"/>
          <path class="cls-5" d="M211.44,42.21l.05.85a2.66,2.66,0,0,1,2.15-1c1.54,0,2.33.88,2.35,2.65v4.89h-1.66v-4.8a1.56,1.56,0,0,0-.3-1,1.31,1.31,0,0,0-1-.34,1.59,1.59,0,0,0-1.49.91v5.27h-1.66v-7.4Z"/>
          <path class="cls-5" d="M222.1,49.61a2.89,2.89,0,0,1-.19-.69,2.58,2.58,0,0,1-1.94.82,2.63,2.63,0,0,1-1.82-.63,2,2,0,0,1-.7-1.58,2.09,2.09,0,0,1,.88-1.81,4.25,4.25,0,0,1,2.51-.63h1V44.6a1.32,1.32,0,0,0-.32-.92,1.28,1.28,0,0,0-1-.34,1.45,1.45,0,0,0-.93.28.88.88,0,0,0-.36.72h-1.66a1.86,1.86,0,0,1,.4-1.14,2.68,2.68,0,0,1,1.1-.83,3.86,3.86,0,0,1,1.55-.3,3.1,3.1,0,0,1,2.07.66,2.31,2.31,0,0,1,.79,1.83V47.9a3.75,3.75,0,0,0,.28,1.59v.12Zm-1.82-1.2a1.9,1.9,0,0,0,.93-.24,1.6,1.6,0,0,0,.65-.64v-1.4H221a2.47,2.47,0,0,0-1.38.32,1.06,1.06,0,0,0-.47.91,1,1,0,0,0,.32.77A1.21,1.21,0,0,0,220.28,48.41Z"/>
          <path class="cls-5" d="M227,49.61h-1.66V39.11H227Z"/>
          <path class="cls-5" d="M161.53,66.41h-1.66V55.91h1.66Z"/>
          <path class="cls-5" d="M166.6,66.54a3.44,3.44,0,0,1-2.56-1,3.63,3.63,0,0,1-1-2.65v-.21a4.35,4.35,0,0,1,.43-2,3.2,3.2,0,0,1,2.92-1.85,2.87,2.87,0,0,1,2.33,1,4.06,4.06,0,0,1,.83,2.72v.67h-4.84a2.19,2.19,0,0,0,.62,1.45,1.8,1.8,0,0,0,1.35.54,2.25,2.25,0,0,0,1.86-.93l.89.86a3.06,3.06,0,0,1-1.19,1A3.71,3.71,0,0,1,166.6,66.54Zm-.2-6.33a1.42,1.42,0,0,0-1.1.47,2.53,2.53,0,0,0-.54,1.34h3.17v-.13a2.06,2.06,0,0,0-.45-1.26A1.4,1.4,0,0,0,166.4,60.21Z"/>
          <path class="cls-5" d="M175.27,66.41a3,3,0,0,1-.19-.69,2.58,2.58,0,0,1-1.94.82,2.63,2.63,0,0,1-1.82-.63,2,2,0,0,1-.7-1.58,2.09,2.09,0,0,1,.88-1.81,4.25,4.25,0,0,1,2.51-.63h1V61.4a1.32,1.32,0,0,0-.32-.92,1.28,1.28,0,0,0-1-.34,1.45,1.45,0,0,0-.93.28.88.88,0,0,0-.36.72h-1.66a1.86,1.86,0,0,1,.4-1.14,2.68,2.68,0,0,1,1.1-.83,3.86,3.86,0,0,1,1.55-.3,3.1,3.1,0,0,1,2.07.66,2.31,2.31,0,0,1,.79,1.83V64.7a3.75,3.75,0,0,0,.28,1.59v.12Zm-1.82-1.2a1.9,1.9,0,0,0,.93-.24,1.6,1.6,0,0,0,.65-.64v-1.4h-.9a2.47,2.47,0,0,0-1.38.32,1.06,1.06,0,0,0-.47.91,1,1,0,0,0,.32.77A1.26,1.26,0,0,0,173.45,65.21Z"/>
          <path class="cls-5" d="M178.12,62.65a4.37,4.37,0,0,1,.79-2.74,2.55,2.55,0,0,1,2.13-1,2.44,2.44,0,0,1,1.9.82V55.91h1.66v10.5h-1.5l-.09-.77a2.44,2.44,0,0,1-2,.9,2.55,2.55,0,0,1-2.1-1A4.62,4.62,0,0,1,178.12,62.65Zm1.66.15a3.08,3.08,0,0,0,.43,1.76,1.41,1.41,0,0,0,1.24.63,1.57,1.57,0,0,0,1.49-.91V61.12a1.56,1.56,0,0,0-1.48-.89,1.42,1.42,0,0,0-1.24.64A3.46,3.46,0,0,0,179.78,62.8Z"/>
          <path class="cls-5" d="M189.59,66.54a3.44,3.44,0,0,1-2.56-1,3.63,3.63,0,0,1-1-2.65v-.21a4.35,4.35,0,0,1,.43-2,3.12,3.12,0,0,1,1.2-1.36,3.09,3.09,0,0,1,1.72-.49,2.87,2.87,0,0,1,2.33,1,4.06,4.06,0,0,1,.83,2.72v.67h-4.84a2.23,2.23,0,0,0,.61,1.45,1.84,1.84,0,0,0,1.36.54,2.22,2.22,0,0,0,1.85-.93l.9.86a3.06,3.06,0,0,1-1.19,1A3.74,3.74,0,0,1,189.59,66.54Zm-.2-6.33a1.42,1.42,0,0,0-1.1.47,2.53,2.53,0,0,0-.54,1.34h3.17v-.13a2.06,2.06,0,0,0-.45-1.26A1.4,1.4,0,0,0,189.39,60.21Z"/>
          <path class="cls-5" d="M197.72,60.53a3.82,3.82,0,0,0-.68-.06,1.53,1.53,0,0,0-1.54.88v5.06h-1.66V59h1.59l0,.83a1.87,1.87,0,0,1,1.67-1,1.4,1.4,0,0,1,.58.1Z"/>
          <path class="cls-5" d="M202.91,64.4a.75.75,0,0,0-.36-.68,4.14,4.14,0,0,0-1.22-.41,6.51,6.51,0,0,1-1.41-.45,1.89,1.89,0,0,1-1.25-1.75,2,2,0,0,1,.81-1.59,3.18,3.18,0,0,1,2.05-.65,3.28,3.28,0,0,1,2.14.66,2.07,2.07,0,0,1,.82,1.7h-1.66a1,1,0,0,0-.35-.79,1.35,1.35,0,0,0-.95-.32,1.46,1.46,0,0,0-.89.25.8.8,0,0,0-.35.68.67.67,0,0,0,.33.59,4.22,4.22,0,0,0,1.29.43,5.87,5.87,0,0,1,1.54.51,2.2,2.2,0,0,1,.83.72,1.79,1.79,0,0,1,.27,1,1.93,1.93,0,0,1-.83,1.61,3.47,3.47,0,0,1-2.17.62,3.84,3.84,0,0,1-1.62-.33,2.69,2.69,0,0,1-1.11-.9,2.14,2.14,0,0,1-.39-1.24H200a1.14,1.14,0,0,0,.45.91,1.71,1.71,0,0,0,1.08.32,1.66,1.66,0,0,0,1-.25A.76.76,0,0,0,202.91,64.4Z"/>
          <path class="cls-5" d="M207.63,59.82a2.6,2.6,0,0,1,2.06-1q2.35,0,2.4,2.7v4.84h-1.66V61.63a1.45,1.45,0,0,0-.34-1.08,1.35,1.35,0,0,0-1-.32,1.6,1.6,0,0,0-1.49.89v5.29H206V55.91h1.66Z"/>
          <path class="cls-5" d="M213.77,57.09a.85.85,0,0,1,.93-.89.91.91,0,0,1,.7.25.86.86,0,0,1,.25.64.81.81,0,0,1-.25.62,1.09,1.09,0,0,1-1.39,0A.84.84,0,0,1,213.77,57.09Zm1.76,9.32h-1.66V59h1.66Z"/>
          <path class="cls-5" d="M223.82,62.78a4.39,4.39,0,0,1-.78,2.74,2.71,2.71,0,0,1-4,.22v3.51h-1.66V59h1.53l.07.75a2.44,2.44,0,0,1,2-.89,2.52,2.52,0,0,1,2.12,1,4.54,4.54,0,0,1,.77,2.8Zm-1.66-.14a3.06,3.06,0,0,0-.44-1.76,1.43,1.43,0,0,0-1.26-.65,1.52,1.52,0,0,0-1.46.84v3.29a1.54,1.54,0,0,0,1.47.86,1.43,1.43,0,0,0,1.24-.64A3.39,3.39,0,0,0,222.16,62.64Z"/>
        </g>
        <g>
          <path class="cls-5" d="M356.44,46.37a3.59,3.59,0,0,1-1.17,2.48,4,4,0,0,1-2.73.89,3.82,3.82,0,0,1-2.09-.56,3.71,3.71,0,0,1-1.4-1.6,5.74,5.74,0,0,1-.51-2.42v-.93a5.87,5.87,0,0,1,.49-2.48,3.81,3.81,0,0,1,1.44-1.65,4,4,0,0,1,2.15-.58,3.84,3.84,0,0,1,2.66.89,3.72,3.72,0,0,1,1.16,2.52h-1.72a2.45,2.45,0,0,0-.62-1.54,2.08,2.08,0,0,0-1.48-.48,2,2,0,0,0-1.73.83,4.11,4.11,0,0,0-.62,2.41V45a4.34,4.34,0,0,0,.58,2.46,1.9,1.9,0,0,0,1.69.85,2.2,2.2,0,0,0,1.53-.46,2.37,2.37,0,0,0,.65-1.52Z"/>
          <path class="cls-5" d="M357.52,45.84a4.31,4.31,0,0,1,.43-2,3.15,3.15,0,0,1,1.21-1.34,3.44,3.44,0,0,1,1.79-.47,3.2,3.2,0,0,1,2.43,1,3.78,3.78,0,0,1,1,2.55V46a4.44,4.44,0,0,1-.42,2,3.1,3.1,0,0,1-1.2,1.33,3.37,3.37,0,0,1-1.81.47,3.17,3.17,0,0,1-2.5-1,4,4,0,0,1-.94-2.78Zm1.66.14a3,3,0,0,0,.47,1.79,1.53,1.53,0,0,0,1.31.65,1.51,1.51,0,0,0,1.31-.66,3.32,3.32,0,0,0,.47-1.92,3,3,0,0,0-.48-1.78,1.63,1.63,0,0,0-2.6,0A3.23,3.23,0,0,0,359.18,46Z"/>
          <path class="cls-5" d="M369.67,43.73a3.71,3.71,0,0,0-.67-.06,1.51,1.51,0,0,0-1.54.88v5.06H365.8v-7.4h1.58l0,.83a1.87,1.87,0,0,1,1.67-1,1.65,1.65,0,0,1,.59.1Z"/>
          <path class="cls-5" d="M374,49.74a3.44,3.44,0,0,1-2.56-1,3.59,3.59,0,0,1-1-2.65v-.21a4.35,4.35,0,0,1,.43-2,3.17,3.17,0,0,1,1.19-1.36,3.23,3.23,0,0,1,1.73-.49,2.89,2.89,0,0,1,2.33,1,4.06,4.06,0,0,1,.83,2.72v.67h-4.84a2.23,2.23,0,0,0,.61,1.45,1.83,1.83,0,0,0,1.35.54,2.22,2.22,0,0,0,1.86-.93l.9.86a3.06,3.06,0,0,1-1.19,1A3.74,3.74,0,0,1,374,49.74Zm-.2-6.33a1.42,1.42,0,0,0-1.1.47,2.53,2.53,0,0,0-.54,1.34h3.16v-.13a2,2,0,0,0-.44-1.26A1.4,1.4,0,0,0,373.78,43.41Z"/>
          <path class="cls-5" d="M388.2,46a4.39,4.39,0,0,1-.78,2.74,2.71,2.71,0,0,1-4,.22v3.51h-1.66V42.21h1.53l.07.75a2.44,2.44,0,0,1,2-.89,2.52,2.52,0,0,1,2.12,1,4.54,4.54,0,0,1,.77,2.8Zm-1.66-.14a3.06,3.06,0,0,0-.44-1.76,1.43,1.43,0,0,0-1.26-.65,1.52,1.52,0,0,0-1.46.84v3.29a1.54,1.54,0,0,0,1.47.86,1.46,1.46,0,0,0,1.25-.64A3.48,3.48,0,0,0,386.54,45.84Z"/>
          <path class="cls-5" d="M393.47,43.73a3.63,3.63,0,0,0-.67-.06,1.52,1.52,0,0,0-1.54.88v5.06H389.6v-7.4h1.58l.05.83a1.85,1.85,0,0,1,1.66-1,1.61,1.61,0,0,1,.59.1Z"/>
          <path class="cls-5" d="M394,45.84a4.31,4.31,0,0,1,.43-2,3.09,3.09,0,0,1,1.21-1.34,3.41,3.41,0,0,1,1.79-.47,3.2,3.2,0,0,1,2.43,1,3.78,3.78,0,0,1,1,2.55V46a4.44,4.44,0,0,1-.42,2,3.1,3.1,0,0,1-1.2,1.33,3.37,3.37,0,0,1-1.81.47,3.17,3.17,0,0,1-2.5-1,4,4,0,0,1-.94-2.78Zm1.66.14a3,3,0,0,0,.47,1.79,1.53,1.53,0,0,0,1.31.65,1.51,1.51,0,0,0,1.31-.66,3.32,3.32,0,0,0,.47-1.92,3,3,0,0,0-.48-1.78,1.63,1.63,0,0,0-2.6,0A3.23,3.23,0,0,0,395.63,46Z"/>
          <path class="cls-5" d="M401.94,45.85a4.37,4.37,0,0,1,.79-2.74,2.55,2.55,0,0,1,2.13-1,2.45,2.45,0,0,1,1.9.82V39.11h1.66v10.5h-1.51l-.08-.77a2.44,2.44,0,0,1-2,.9,2.55,2.55,0,0,1-2.1-1A4.62,4.62,0,0,1,401.94,45.85Zm1.66.15a3.08,3.08,0,0,0,.43,1.76,1.41,1.41,0,0,0,1.24.63,1.57,1.57,0,0,0,1.49-.91V44.32a1.56,1.56,0,0,0-1.48-.89,1.42,1.42,0,0,0-1.24.64A3.46,3.46,0,0,0,403.6,46Z"/>
          <path class="cls-5" d="M414.63,48.88a2.56,2.56,0,0,1-2.08.86,2.29,2.29,0,0,1-1.82-.7,3,3,0,0,1-.62-2V42.21h1.66V47q0,1.41,1.17,1.41a1.65,1.65,0,0,0,1.64-.87V42.21h1.66v7.4h-1.57Z"/>
          <path class="cls-5" d="M421,48.42a1.46,1.46,0,0,0,1-.37,1.26,1.26,0,0,0,.44-.89H424a2.37,2.37,0,0,1-.43,1.29,2.78,2.78,0,0,1-1.09.94,3.46,3.46,0,0,1-4-.65,4,4,0,0,1-.91-2.78v-.17a3.93,3.93,0,0,1,.9-2.7,3.11,3.11,0,0,1,2.46-1,3,3,0,0,1,2.15.77,2.72,2.72,0,0,1,.87,2h-1.56a1.48,1.48,0,0,0-.44-1,1.36,1.36,0,0,0-1-.41,1.48,1.48,0,0,0-1.25.58,3,3,0,0,0-.44,1.77V46a3.07,3.07,0,0,0,.43,1.8A1.48,1.48,0,0,0,421,48.42Z"/>
          <path class="cls-5" d="M427.34,40.41v1.8h1.31v1.23h-1.31v4.13a.91.91,0,0,0,.17.61.76.76,0,0,0,.6.19,2.36,2.36,0,0,0,.58-.07v1.29a4.34,4.34,0,0,1-1.1.15c-1.27,0-1.91-.7-1.91-2.11V43.44h-1.22V42.21h1.22v-1.8Z"/>
          <path class="cls-5" d="M433.09,45.84a4.31,4.31,0,0,1,.43-2,3.15,3.15,0,0,1,1.21-1.34,3.44,3.44,0,0,1,1.79-.47A3.2,3.2,0,0,1,439,43a3.78,3.78,0,0,1,1,2.55V46a4.44,4.44,0,0,1-.42,2,3.12,3.12,0,0,1-1.21,1.33,3.37,3.37,0,0,1-1.81.47,3.19,3.19,0,0,1-2.5-1,4,4,0,0,1-.94-2.78Zm1.66.14a3,3,0,0,0,.47,1.79,1.54,1.54,0,0,0,1.31.65,1.51,1.51,0,0,0,1.31-.66,3.24,3.24,0,0,0,.47-1.92,3,3,0,0,0-.48-1.78,1.63,1.63,0,0,0-2.6,0A3.23,3.23,0,0,0,434.75,46Z"/>
          <path class="cls-5" d="M445.24,43.73a3.71,3.71,0,0,0-.67-.06,1.52,1.52,0,0,0-1.54.88v5.06h-1.66v-7.4H443l0,.83a1.88,1.88,0,0,1,1.67-1,1.61,1.61,0,0,1,.59.1Z"/>
          <path class="cls-5" d="M453.92,47.6a.75.75,0,0,0-.36-.68,4.05,4.05,0,0,0-1.21-.41,6.43,6.43,0,0,1-1.42-.45,1.88,1.88,0,0,1-1.24-1.74,2,2,0,0,1,.8-1.6,3.18,3.18,0,0,1,2.05-.65,3.32,3.32,0,0,1,2.15.66,2.08,2.08,0,0,1,.81,1.7h-1.66a1,1,0,0,0-.35-.79,1.33,1.33,0,0,0-.95-.32,1.46,1.46,0,0,0-.89.25.79.79,0,0,0-.34.68.66.66,0,0,0,.32.59,4.31,4.31,0,0,0,1.3.43,5.91,5.91,0,0,1,1.53.51,2.2,2.2,0,0,1,.83.72,1.79,1.79,0,0,1,.27,1,1.93,1.93,0,0,1-.83,1.61,3.47,3.47,0,0,1-2.17.62,3.84,3.84,0,0,1-1.62-.33,2.52,2.52,0,0,1-1.1-.9,2.08,2.08,0,0,1-.4-1.23h1.61a1.17,1.17,0,0,0,.45.9,1.71,1.71,0,0,0,1.08.32,1.64,1.64,0,0,0,1-.25A.76.76,0,0,0,453.92,47.6Z"/>
          <path class="cls-5" d="M460.26,49.74a3.46,3.46,0,0,1-2.56-1,3.63,3.63,0,0,1-1-2.65v-.21a4.35,4.35,0,0,1,.43-2,3.12,3.12,0,0,1,1.2-1.36,3.19,3.19,0,0,1,1.72-.49,2.89,2.89,0,0,1,2.34,1,4.11,4.11,0,0,1,.82,2.72v.67H458.4a2.18,2.18,0,0,0,.61,1.45,1.83,1.83,0,0,0,1.35.54,2.25,2.25,0,0,0,1.86-.93l.89.86a3,3,0,0,1-1.18,1A3.79,3.79,0,0,1,460.26,49.74Zm-.2-6.33a1.42,1.42,0,0,0-1.1.47,2.53,2.53,0,0,0-.54,1.34h3.17v-.13a2.06,2.06,0,0,0-.45-1.26A1.4,1.4,0,0,0,460.06,43.41Z"/>
          <path class="cls-5" d="M468.39,43.73a3.74,3.74,0,0,0-.68-.06,1.53,1.53,0,0,0-1.54.88v5.06h-1.66v-7.4h1.59l0,.83a1.87,1.87,0,0,1,1.67-1,1.65,1.65,0,0,1,.59.1Z"/>
          <path class="cls-5" d="M472.17,47.5l1.57-5.29h1.71l-2.56,7.4h-1.44l-2.59-7.4h1.72Z"/>
          <path class="cls-5" d="M476.49,40.29a.89.89,0,0,1,.24-.64,1,1,0,0,1,.7-.25.94.94,0,0,1,.69.25.86.86,0,0,1,.25.64.81.81,0,0,1-.25.62.9.9,0,0,1-.69.25.92.92,0,0,1-.7-.25A.84.84,0,0,1,476.49,40.29Zm1.76,9.32h-1.66v-7.4h1.66Z"/>
          <path class="cls-5" d="M483.1,48.42a1.45,1.45,0,0,0,1-.37,1.22,1.22,0,0,0,.44-.89h1.57a2.54,2.54,0,0,1-.43,1.29,2.81,2.81,0,0,1-1.1.94,3.46,3.46,0,0,1-3.95-.65,4,4,0,0,1-.91-2.78v-.17a3.93,3.93,0,0,1,.9-2.7,3.13,3.13,0,0,1,2.46-1,3,3,0,0,1,2.15.77,2.77,2.77,0,0,1,.88,2h-1.57a1.52,1.52,0,0,0-.43-1,1.38,1.38,0,0,0-1-.41,1.45,1.45,0,0,0-1.24.58,3,3,0,0,0-.45,1.77V46a3.06,3.06,0,0,0,.44,1.8A1.46,1.46,0,0,0,483.1,48.42Z"/>
          <path class="cls-5" d="M490.65,49.74a3.43,3.43,0,0,1-2.56-1,3.59,3.59,0,0,1-1-2.65v-.21a4.48,4.48,0,0,1,.42-2,3.2,3.2,0,0,1,2.93-1.85,2.89,2.89,0,0,1,2.33,1,4.05,4.05,0,0,1,.82,2.72v.67h-4.83a2.23,2.23,0,0,0,.61,1.45,1.83,1.83,0,0,0,1.35.54,2.25,2.25,0,0,0,1.86-.93l.9.86a3.06,3.06,0,0,1-1.19,1A3.74,3.74,0,0,1,490.65,49.74Zm-.2-6.33a1.41,1.41,0,0,0-1.1.47,2.53,2.53,0,0,0-.54,1.34H492v-.13a2,2,0,0,0-.44-1.26A1.4,1.4,0,0,0,490.45,43.41Z"/>
        </g>
        <g>
          <path class="cls-5" d="M353,145.58a3.55,3.55,0,0,1-1.18,2.48,4,4,0,0,1-2.72.9,3.86,3.86,0,0,1-2.1-.57,3.72,3.72,0,0,1-1.4-1.6,5.85,5.85,0,0,1-.51-2.41v-.93a5.92,5.92,0,0,1,.5-2.49,3.79,3.79,0,0,1,1.43-1.65,4,4,0,0,1,2.16-.58,3.86,3.86,0,0,1,2.65.89,3.75,3.75,0,0,1,1.17,2.53h-1.72a2.42,2.42,0,0,0-.63-1.55,2.33,2.33,0,0,0-3.2.35,4.07,4.07,0,0,0-.62,2.42v.88a4.39,4.39,0,0,0,.57,2.46,1.92,1.92,0,0,0,1.7.85,2.2,2.2,0,0,0,1.53-.46,2.37,2.37,0,0,0,.65-1.52Z"/>
          <path class="cls-5" d="M356.18,148.82h-1.66v-10.5h1.66Z"/>
          <path class="cls-5" d="M361.25,149a3.43,3.43,0,0,1-2.56-1,3.59,3.59,0,0,1-1-2.65v-.2a4.5,4.5,0,0,1,.42-2,3.32,3.32,0,0,1,1.2-1.36,3.22,3.22,0,0,1,1.73-.48,2.91,2.91,0,0,1,2.33,1,4.07,4.07,0,0,1,.82,2.73v.67h-4.83a2.22,2.22,0,0,0,.61,1.45,1.86,1.86,0,0,0,1.35.53,2.27,2.27,0,0,0,1.86-.92l.9.85a3,3,0,0,1-1.19,1A3.75,3.75,0,0,1,361.25,149Zm-.2-6.34a1.4,1.4,0,0,0-1.11.48,2.49,2.49,0,0,0-.53,1.33h3.16v-.12a2,2,0,0,0-.44-1.26A1.37,1.37,0,0,0,361.05,142.62Z"/>
          <path class="cls-5" d="M369.92,148.82a2.89,2.89,0,0,1-.19-.69,2.6,2.6,0,0,1-1.94.83,2.64,2.64,0,0,1-1.82-.64,2,2,0,0,1-.7-1.57,2.11,2.11,0,0,1,.87-1.82,4.3,4.3,0,0,1,2.52-.63h1v-.48a1.18,1.18,0,0,0-1.3-1.27,1.51,1.51,0,0,0-.93.28.9.9,0,0,0-.37.73h-1.66a1.83,1.83,0,0,1,.41-1.14,2.62,2.62,0,0,1,1.09-.83,3.9,3.9,0,0,1,1.55-.3,3.06,3.06,0,0,1,2.07.65,2.33,2.33,0,0,1,.8,1.83v3.34a3.68,3.68,0,0,0,.28,1.59v.12Zm-1.82-1.2a1.89,1.89,0,0,0,.92-.24,1.63,1.63,0,0,0,.66-.64v-1.39h-.9a2.42,2.42,0,0,0-1.39.32,1,1,0,0,0-.46.91.94.94,0,0,0,.32.76A1.21,1.21,0,0,0,368.1,147.62Z"/>
          <path class="cls-5" d="M377,142.94a3.82,3.82,0,0,0-.68-.05,1.53,1.53,0,0,0-1.54.87v5.06h-1.66v-7.4h1.59l0,.83a1.88,1.88,0,0,1,1.67-1,1.7,1.7,0,0,1,.59.09Z"/>
          <path class="cls-5" d="M384.09,146.71l1.57-5.29h1.71l-2.56,7.4h-1.44l-2.59-7.4h1.73Z"/>
          <path class="cls-5" d="M388.41,139.5a.84.84,0,0,1,.25-.63.9.9,0,0,1,.69-.26.94.94,0,0,1,.7.26.87.87,0,0,1,.24.63.88.88,0,0,1-.24.63,1,1,0,0,1-.7.25.94.94,0,0,1-.69-.25A.85.85,0,0,1,388.41,139.5Zm1.77,9.32h-1.66v-7.4h1.66Z"/>
          <path class="cls-5" d="M396.13,146.81a.75.75,0,0,0-.37-.68,4,4,0,0,0-1.21-.41,6.33,6.33,0,0,1-1.41-.45,1.89,1.89,0,0,1-1.25-1.74,2,2,0,0,1,.81-1.6,3.18,3.18,0,0,1,2.05-.64,3.29,3.29,0,0,1,2.14.65,2.08,2.08,0,0,1,.82,1.7h-1.66a1,1,0,0,0-.36-.79,1.35,1.35,0,0,0-.94-.32,1.44,1.44,0,0,0-.89.25.81.81,0,0,0-.35.68.68.68,0,0,0,.32.59,4.42,4.42,0,0,0,1.3.43,6.41,6.41,0,0,1,1.54.51,2.17,2.17,0,0,1,.82.72,1.81,1.81,0,0,1,.27,1,1.93,1.93,0,0,1-.82,1.62,3.56,3.56,0,0,1-2.17.62,3.78,3.78,0,0,1-1.62-.33,2.76,2.76,0,0,1-1.11-.9,2.19,2.19,0,0,1-.39-1.24h1.61a1.16,1.16,0,0,0,.44.9,1.7,1.7,0,0,0,1.09.32,1.66,1.66,0,0,0,1-.25A.75.75,0,0,0,396.13,146.81Z"/>
          <path class="cls-5" d="M399.21,139.5a.84.84,0,0,1,.25-.63.9.9,0,0,1,.69-.26.94.94,0,0,1,.7.26.87.87,0,0,1,.24.63.88.88,0,0,1-.24.63,1,1,0,0,1-.7.25.94.94,0,0,1-.69-.25A.85.85,0,0,1,399.21,139.5Zm1.77,9.32h-1.66v-7.4H401Z"/>
          <path class="cls-5" d="M402.47,145.05a4.34,4.34,0,0,1,.44-2,3.15,3.15,0,0,1,1.21-1.34,3.38,3.38,0,0,1,1.79-.46,3.26,3.26,0,0,1,2.43,1,3.78,3.78,0,0,1,1,2.56v.39a4.4,4.4,0,0,1-.42,2,3,3,0,0,1-1.2,1.33,3.4,3.4,0,0,1-1.81.48,3.22,3.22,0,0,1-2.51-1.05,4,4,0,0,1-.94-2.78Zm1.67.15a2.92,2.92,0,0,0,.47,1.78,1.53,1.53,0,0,0,1.31.65,1.51,1.51,0,0,0,1.31-.66,3.27,3.27,0,0,0,.47-1.92,2.84,2.84,0,0,0-.49-1.77,1.63,1.63,0,0,0-2.6,0A3.25,3.25,0,0,0,404.14,145.2Z"/>
          <path class="cls-5" d="M412.3,141.42l.05.86a2.64,2.64,0,0,1,2.15-1c1.54,0,2.32.88,2.35,2.64v4.89h-1.66V144a1.51,1.51,0,0,0-.31-1.05,1.28,1.28,0,0,0-1-.33,1.6,1.6,0,0,0-1.5.91v5.26h-1.66v-7.4Z"/>
          <path class="cls-5" d="M426.45,148.82a2.48,2.48,0,0,1-.19-.69,2.78,2.78,0,0,1-3.76.19,2,2,0,0,1-.71-1.57,2.12,2.12,0,0,1,.88-1.82,4.27,4.27,0,0,1,2.51-.63h1v-.48a1.3,1.3,0,0,0-.32-.92,1.27,1.27,0,0,0-1-.35,1.51,1.51,0,0,0-.93.28.89.89,0,0,0-.36.73H422a1.82,1.82,0,0,1,.4-1.14,2.66,2.66,0,0,1,1.1-.83,3.86,3.86,0,0,1,1.55-.3,3.09,3.09,0,0,1,2.07.65,2.32,2.32,0,0,1,.79,1.83v3.34a3.84,3.84,0,0,0,.28,1.59v.12Zm-1.83-1.2a1.9,1.9,0,0,0,.93-.24,1.54,1.54,0,0,0,.65-.64v-1.39h-.89a2.4,2.4,0,0,0-1.39.32,1,1,0,0,0-.47.91,1,1,0,0,0,.32.76A1.23,1.23,0,0,0,424.62,147.62Z"/>
          <path class="cls-5" d="M431.14,141.42l.05.86a2.68,2.68,0,0,1,2.16-1c1.54,0,2.32.88,2.35,2.64v4.89H434V144a1.57,1.57,0,0,0-.31-1.05,1.28,1.28,0,0,0-1-.33,1.6,1.6,0,0,0-1.5.91v5.26h-1.66v-7.4Z"/>
          <path class="cls-5" d="M437.08,145.07a4.4,4.4,0,0,1,.79-2.75,2.54,2.54,0,0,1,2.13-1,2.42,2.42,0,0,1,1.9.82v-3.79h1.66v10.5h-1.51l-.08-.77a2.45,2.45,0,0,1-2,.91,2.53,2.53,0,0,1-2.1-1.05A4.6,4.6,0,0,1,437.08,145.07Zm1.66.14a3.08,3.08,0,0,0,.43,1.76,1.41,1.41,0,0,0,1.24.63,1.57,1.57,0,0,0,1.49-.91v-3.16a1.55,1.55,0,0,0-1.48-.88,1.41,1.41,0,0,0-1.24.63A3.38,3.38,0,0,0,438.74,145.21Z"/>
          <path class="cls-5" d="M450.34,141.42l.05.77a2.67,2.67,0,0,1,2.13-.9,2,2,0,0,1,2,1.13,2.61,2.61,0,0,1,2.27-1.13,2.3,2.3,0,0,1,1.82.67,3,3,0,0,1,.61,2v4.86h-1.66V144a1.52,1.52,0,0,0-.3-1,1.69,1.69,0,0,0-2,0,1.55,1.55,0,0,0-.5.8v5.07h-1.66V144a1.18,1.18,0,0,0-1.33-1.3,1.44,1.44,0,0,0-1.41.81v5.36h-1.67v-7.4Z"/>
          <path class="cls-5" d="M461,139.5a.84.84,0,0,1,.25-.63.9.9,0,0,1,.69-.26.94.94,0,0,1,.7.26.87.87,0,0,1,.24.63.88.88,0,0,1-.24.63,1,1,0,0,1-.7.25.94.94,0,0,1-.69-.25A.85.85,0,0,1,461,139.5Zm1.77,9.32h-1.66v-7.4h1.66Z"/>
          <path class="cls-5" d="M468.68,146.81a.75.75,0,0,0-.37-.68,4,4,0,0,0-1.21-.41,6.33,6.33,0,0,1-1.41-.45,1.89,1.89,0,0,1-1.25-1.74,2,2,0,0,1,.81-1.6,3.18,3.18,0,0,1,2.05-.64,3.29,3.29,0,0,1,2.14.65,2.08,2.08,0,0,1,.82,1.7H468.6a1,1,0,0,0-.36-.79,1.35,1.35,0,0,0-.94-.32,1.44,1.44,0,0,0-.89.25.81.81,0,0,0-.35.68.68.68,0,0,0,.32.59,4.42,4.42,0,0,0,1.3.43,6.41,6.41,0,0,1,1.54.51,2.17,2.17,0,0,1,.82.72,1.81,1.81,0,0,1,.27,1,1.93,1.93,0,0,1-.82,1.62,3.56,3.56,0,0,1-2.17.62,3.78,3.78,0,0,1-1.62-.33,2.76,2.76,0,0,1-1.11-.9,2.19,2.19,0,0,1-.39-1.24h1.61a1.16,1.16,0,0,0,.44.9,1.7,1.7,0,0,0,1.09.32,1.66,1.66,0,0,0,1-.25A.75.75,0,0,0,468.68,146.81Z"/>
          <path class="cls-5" d="M475.91,146.81a.77.77,0,0,0-.37-.68,4.05,4.05,0,0,0-1.21-.41,6.43,6.43,0,0,1-1.42-.45,1.88,1.88,0,0,1-1.24-1.74,2,2,0,0,1,.8-1.6,3.21,3.21,0,0,1,2.06-.64,3.31,3.31,0,0,1,2.14.65,2.11,2.11,0,0,1,.82,1.7h-1.67a1,1,0,0,0-.35-.79,1.37,1.37,0,0,0-.94-.32,1.48,1.48,0,0,0-.9.25.8.8,0,0,0-.34.68.66.66,0,0,0,.32.59,4.31,4.31,0,0,0,1.3.43,6.32,6.32,0,0,1,1.53.51,2.2,2.2,0,0,1,.83.72,1.81,1.81,0,0,1,.27,1,1.94,1.94,0,0,1-.83,1.62,3.53,3.53,0,0,1-2.16.62,3.78,3.78,0,0,1-1.62-.33,2.64,2.64,0,0,1-1.11-.9,2.13,2.13,0,0,1-.4-1.24H473a1.16,1.16,0,0,0,.44.9,1.68,1.68,0,0,0,1.09.32,1.63,1.63,0,0,0,1-.25A.76.76,0,0,0,475.91,146.81Z"/>
          <path class="cls-5" d="M479,139.5a.87.87,0,0,1,.24-.63.93.93,0,0,1,.7-.26.9.9,0,0,1,.69.26.84.84,0,0,1,.25.63.85.85,0,0,1-.25.63.94.94,0,0,1-.69.25,1,1,0,0,1-.7-.25A.88.88,0,0,1,479,139.5Zm1.76,9.32h-1.66v-7.4h1.66Z"/>
          <path class="cls-5" d="M482.25,145.05a4.34,4.34,0,0,1,.43-2,3.21,3.21,0,0,1,1.21-1.34,3.43,3.43,0,0,1,1.79-.46,3.23,3.23,0,0,1,2.43,1,3.79,3.79,0,0,1,1,2.56v.39a4.4,4.4,0,0,1-.42,2,3,3,0,0,1-1.21,1.33,3.36,3.36,0,0,1-1.8.48,3.2,3.2,0,0,1-2.51-1.05,4,4,0,0,1-.94-2.78Zm1.66.15a3,3,0,0,0,.47,1.78,1.55,1.55,0,0,0,1.32.65A1.5,1.5,0,0,0,487,147a3.2,3.2,0,0,0,.47-1.92,2.91,2.91,0,0,0-.48-1.77,1.54,1.54,0,0,0-1.31-.66,1.52,1.52,0,0,0-1.29.64A3.24,3.24,0,0,0,483.91,145.2Z"/>
          <path class="cls-5" d="M492.07,141.42l.05.86a2.67,2.67,0,0,1,2.15-1c1.54,0,2.33.88,2.36,2.64v4.89H495V144a1.57,1.57,0,0,0-.3-1.05,1.28,1.28,0,0,0-1-.33,1.6,1.6,0,0,0-1.5.91v5.26h-1.66v-7.4Z"/>
        </g>
        <g>
          <path class="cls-5" d="M626.73,47.29h-3.86l-.8,2.32h-1.8l3.76-10h1.55l3.77,10h-1.81Zm-3.37-1.4h2.88l-1.44-4.12Z"/>
          <path class="cls-5" d="M630,45.85a4.44,4.44,0,0,1,.79-2.74,2.55,2.55,0,0,1,2.13-1,2.44,2.44,0,0,1,1.9.82V39.11h1.66v10.5H635l-.08-.77a2.46,2.46,0,0,1-2,.9,2.56,2.56,0,0,1-2.11-1A4.62,4.62,0,0,1,630,45.85Zm1.66.15a3.07,3.07,0,0,0,.44,1.76,1.41,1.41,0,0,0,1.23.63,1.56,1.56,0,0,0,1.49-.91V44.32a1.55,1.55,0,0,0-1.48-.89,1.43,1.43,0,0,0-1.24.64A3.46,3.46,0,0,0,631.66,46Z"/>
          <path class="cls-5" d="M641.47,49.74a3.46,3.46,0,0,1-2.56-1,3.63,3.63,0,0,1-1-2.65v-.21a4.35,4.35,0,0,1,.43-2,3.12,3.12,0,0,1,1.2-1.36,3.19,3.19,0,0,1,1.72-.49,2.89,2.89,0,0,1,2.34,1,4.05,4.05,0,0,1,.82,2.72v.67h-4.83a2.18,2.18,0,0,0,.61,1.45,1.83,1.83,0,0,0,1.35.54,2.25,2.25,0,0,0,1.86-.93l.89.86a3,3,0,0,1-1.18,1A3.79,3.79,0,0,1,641.47,49.74Zm-.2-6.33a1.42,1.42,0,0,0-1.1.47,2.53,2.53,0,0,0-.54,1.34h3.17v-.13a2.06,2.06,0,0,0-.45-1.26A1.4,1.4,0,0,0,641.27,43.41Z"/>
          <path class="cls-5" d="M645.42,45.85a4.37,4.37,0,0,1,.79-2.76,2.57,2.57,0,0,1,2.15-1,2.43,2.43,0,0,1,2,.87l.09-.73h1.48V52.45h-1.66V49a2.47,2.47,0,0,1-1.89.76,2.54,2.54,0,0,1-2.12-1A4.54,4.54,0,0,1,645.42,45.85Zm1.66.14a3.06,3.06,0,0,0,.45,1.78,1.42,1.42,0,0,0,1.24.65,1.58,1.58,0,0,0,1.46-.84V44.21a1.58,1.58,0,0,0-1.45-.8,1.47,1.47,0,0,0-1.25.63A3.4,3.4,0,0,0,647.08,46Z"/>
          <path class="cls-5" d="M658.16,48.88a2.56,2.56,0,0,1-2.08.86,2.29,2.29,0,0,1-1.82-.7,3,3,0,0,1-.62-2V42.21h1.66V47q0,1.41,1.17,1.41a1.63,1.63,0,0,0,1.63-.87V42.21h1.67v7.4H658.2Z"/>
          <path class="cls-5" d="M665.88,49.61a2.17,2.17,0,0,1-.19-.69,2.81,2.81,0,0,1-3.76.19,2.05,2.05,0,0,1-.71-1.58,2.09,2.09,0,0,1,.88-1.81,4.27,4.27,0,0,1,2.51-.63h1V44.6a1.32,1.32,0,0,0-.32-.92,1.28,1.28,0,0,0-1-.34,1.45,1.45,0,0,0-.93.28.88.88,0,0,0-.36.72h-1.66a1.86,1.86,0,0,1,.4-1.14,2.74,2.74,0,0,1,1.1-.83,3.86,3.86,0,0,1,1.55-.3,3.1,3.1,0,0,1,2.07.66,2.31,2.31,0,0,1,.79,1.83V47.9a3.75,3.75,0,0,0,.28,1.59v.12Zm-1.83-1.2a1.9,1.9,0,0,0,.93-.24,1.6,1.6,0,0,0,.65-.64v-1.4h-.89a2.48,2.48,0,0,0-1.39.32,1.06,1.06,0,0,0-.47.91,1,1,0,0,0,.32.77A1.23,1.23,0,0,0,664.05,48.41Z"/>
          <path class="cls-5" d="M671.11,40.41v1.8h1.31v1.23h-1.31v4.13a.91.91,0,0,0,.17.61.76.76,0,0,0,.6.19,2.36,2.36,0,0,0,.58-.07v1.29a4.26,4.26,0,0,1-1.09.15c-1.28,0-1.92-.7-1.92-2.11V43.44h-1.21V42.21h1.21v-1.8Z"/>
          <path class="cls-5" d="M676.94,49.74a3.46,3.46,0,0,1-2.56-1,3.63,3.63,0,0,1-1-2.65v-.21a4.49,4.49,0,0,1,.43-2,3.2,3.2,0,0,1,2.92-1.85,2.89,2.89,0,0,1,2.34,1,4.05,4.05,0,0,1,.82,2.72v.67h-4.83a2.18,2.18,0,0,0,.61,1.45,1.83,1.83,0,0,0,1.35.54,2.25,2.25,0,0,0,1.86-.93l.89.86a3,3,0,0,1-1.18,1A3.79,3.79,0,0,1,676.94,49.74Zm-.19-6.33a1.43,1.43,0,0,0-1.11.47,2.45,2.45,0,0,0-.53,1.34h3.16v-.13a2.06,2.06,0,0,0-.44-1.26A1.4,1.4,0,0,0,676.75,43.41Z"/>
          <path class="cls-5" d="M631.84,62.19h-4v4.22h-1.72v-10h6.32v1.4h-4.6v3h4Z"/>
          <path class="cls-5" d="M638,65.68a2.56,2.56,0,0,1-2.08.86,2.27,2.27,0,0,1-1.82-.7,3,3,0,0,1-.62-2V59h1.66v4.77q0,1.41,1.17,1.41a1.64,1.64,0,0,0,1.63-.87V59h1.66v7.4H638Z"/>
          <path class="cls-5" d="M642.81,59l0,.85a2.68,2.68,0,0,1,2.16-1c1.54,0,2.32.88,2.35,2.65v4.89H645.7v-4.8a1.5,1.5,0,0,0-.31-1,1.29,1.29,0,0,0-1-.34,1.62,1.62,0,0,0-1.5.91v5.27h-1.66V59Z"/>
          <path class="cls-5" d="M648.74,62.65a4.37,4.37,0,0,1,.79-2.74,2.55,2.55,0,0,1,2.13-1,2.44,2.44,0,0,1,1.9.82V55.91h1.66v10.5h-1.5l-.09-.77a2.44,2.44,0,0,1-2,.9,2.55,2.55,0,0,1-2.1-1A4.62,4.62,0,0,1,648.74,62.65Zm1.66.15a3.08,3.08,0,0,0,.43,1.76,1.43,1.43,0,0,0,1.24.63,1.57,1.57,0,0,0,1.49-.91V61.12a1.56,1.56,0,0,0-1.48-.89,1.42,1.42,0,0,0-1.24.64A3.46,3.46,0,0,0,650.4,62.8Z"/>
          <path class="cls-5" d="M657,57.09a.85.85,0,0,1,.93-.89.92.92,0,0,1,.7.25.9.9,0,0,1,.25.64.85.85,0,0,1-.25.62.92.92,0,0,1-.7.25.9.9,0,0,1-.69-.25A.84.84,0,0,1,657,57.09Zm1.76,9.32h-1.66V59h1.66Z"/>
          <path class="cls-5" d="M662.07,59l0,.85a2.64,2.64,0,0,1,2.15-1c1.54,0,2.32.88,2.35,2.65v4.89H665v-4.8a1.56,1.56,0,0,0-.3-1,1.33,1.33,0,0,0-1-.34,1.59,1.59,0,0,0-1.49.91v5.27H660.5V59Z"/>
          <path class="cls-5" d="M668,62.65a4.33,4.33,0,0,1,.81-2.75,2.62,2.62,0,0,1,2.15-1,2.45,2.45,0,0,1,2,.88l.08-.74h1.49v7.17a3,3,0,0,1-.9,2.3,3.44,3.44,0,0,1-2.44.84,3.82,3.82,0,0,1-1.59-.34,2.82,2.82,0,0,1-1.18-.89l.78-1a2.4,2.4,0,0,0,1.89.91,1.84,1.84,0,0,0,1.31-.45,1.76,1.76,0,0,0,.47-1.32v-.5a2.4,2.4,0,0,1-1.91.8,2.58,2.58,0,0,1-2.12-1A4.47,4.47,0,0,1,668,62.65Zm1.66.15a3,3,0,0,0,.45,1.75,1.47,1.47,0,0,0,1.26.64,1.6,1.6,0,0,0,1.49-.86V61.07a1.56,1.56,0,0,0-1.47-.84,1.49,1.49,0,0,0-1.28.65A3.38,3.38,0,0,0,669.68,62.8Z"/>
        </g>
      </g>
    </g>
  </g>
</svg>
