<?xml version="1.0" standalone="no"?>
<!DOCTYPE svg PUBLIC "-//W3C//DTD SVG 20010904//EN"
 "http://www.w3.org/TR/2001/REC-SVG-20010904/DTD/svg10.dtd">
<svg version="1.0" xmlns="http://www.w3.org/2000/svg"
 width="256.000000pt" height="256.000000pt" viewBox="0 0 256.000000 256.000000"
 preserveAspectRatio="xMidYMid meet">
<metadata>
Created by potrace 1.11, written by Peter Selinger 2001-2013
</metadata>
<g transform="translate(0.000000,256.000000) scale(0.100000,-0.100000)"
fill="#000000" stroke="none">
<path d="M1140 2544 c-283 -35 -536 -154 -738 -348 -190 -183 -313 -405 -369
-669 -24 -113 -24 -371 0 -484 84 -393 330 -715 682 -890 95 -48 206 -86 318
-110 113 -24 371 -24 484 0 246 52 449 158 625 326 195 185 318 407 375 674
24 113 24 371 0 484 -84 393 -330 715 -682 891 -90 45 -206 85 -310 107 -69
15 -318 27 -385 19z m-587 -1263 c37 -68 67 -128 67 -132 0 -14 -58 -10 -62 4
-6 23 -100 197 -107 197 -3 0 -30 -47 -59 -105 -49 -98 -54 -105 -82 -105 -16
0 -30 2 -30 5 0 4 36 72 107 203 32 59 37 63 66 60 30 -3 37 -12 100 -127z
m426 100 c29 -28 31 -33 31 -106 0 -73 -1 -78 -31 -106 -32 -30 -32 -30 -143
-27 l-111 3 -3 119 c-1 66 0 126 2 133 4 10 34 13 115 13 106 0 110 -1 140
-29z m185 12 c39 -136 60 -195 64 -183 3 8 20 56 36 105 28 83 33 90 59 93 16
2 34 -1 41 -7 7 -6 26 -54 42 -106 15 -52 31 -95 34 -95 3 0 18 47 34 105 28
102 30 105 58 105 15 0 28 -3 28 -6 0 -16 -74 -240 -83 -252 -6 -7 -24 -12
-41 -10 -30 3 -32 7 -67 107 -20 58 -38 100 -41 95 -3 -5 -20 -53 -37 -106
-33 -98 -33 -98 -66 -98 -18 0 -37 6 -42 13 -11 15 -73 219 -73 241 0 23 47
21 54 -1z m644 5 c18 -22 132 -237 132 -248 0 -6 -12 -10 -26 -8 -22 2 -35 20
-82 107 -64 120 -54 121 -127 -21 -42 -81 -48 -88 -75 -88 -35 0 -35 0 -11 42
10 18 42 77 71 131 47 86 56 97 80 97 15 0 32 -6 38 -12z m259 -58 c26 -38 50
-69 53 -70 3 0 27 32 54 70 41 59 54 70 78 70 15 0 28 -3 28 -6 0 -3 -29 -44
-65 -90 -58 -75 -65 -89 -65 -129 0 -43 -1 -45 -30 -45 -29 0 -30 2 -30 46 0
40 -7 54 -60 124 -33 43 -60 84 -60 89 0 6 11 11 24 11 19 0 36 -16 73 -70z"/>
<path d="M780 1275 l0 -75 80 0 c89 0 100 8 100 75 0 67 -11 75 -100 75 l-80
0 0 -75z"/>
</g>
</svg>
