<svg id="Group_714" data-name="Group 714" xmlns="http://www.w3.org/2000/svg" width="61.363" height="61.361" viewBox="0 0 61.363 61.361">
  <g id="Group_200" data-name="Group 200" transform="translate(0 0)">
    <path id="Path_77" data-name="Path 77" d="M-244.679,890.306a30.681,30.681,0,0,1-30.681-30.681,30.679,30.679,0,0,1,30.681-30.681A30.681,30.681,0,0,1-214,859.625,30.713,30.713,0,0,1-244.679,890.306Zm0-59.729a29.043,29.043,0,0,0-29.044,29.043,29.043,29.043,0,0,0,29.044,29.043,29.043,29.043,0,0,0,29.044-29.038,29.1,29.1,0,0,0-29.044-29.038Z" transform="translate(275.36 -828.945)" fill="#01acb4"/>
  </g>
  <g id="Group_290" data-name="Group 290" transform="translate(9.247 10.046)">
    <path id="Path_230" data-name="Path 230" d="M-251.661,851.183a29.845,29.845,0,0,1-.643,3.613,21.758,21.758,0,0,1-3.928,7.919c-.212.264-.357.264-.6.058-.794-.64-.794-.627-.206-1.433a19.69,19.69,0,0,0,3.861-10.266,19.663,19.663,0,0,0-4.734-14.665c-.243-.288-.227-.442.048-.667.915-.754.64-.836,1.4.108a21.162,21.162,0,0,1,4.745,11.576,1.561,1.561,0,0,0,.053.244Z" transform="translate(294.53 -828.268)" fill="#01acb4"/>
    <path id="Path_231" data-name="Path 231" d="M-255.573,836c-.413-.394-.817-.793-1.24-1.175-.265-.233-.3-.4-.021-.669.738-.716.725-.73,1.463,0s1.51,1.526,2.283,2.272c.264.246.238.4,0,.64q-1.349,1.321-2.661,2.661c-.244.248-.4.3-.669.019-.717-.741-.733-.731,0-1.46a5.905,5.905,0,0,1,.529-.431.3.3,0,0,0-.4-.154h0a14.018,14.018,0,0,0-11.461,10.445,13.791,13.791,0,0,0,4,14.3,13.838,13.838,0,0,0,8.728,3.893,14.455,14.455,0,0,0,14.111-7.935,14,14,0,0,0,1.513-6.031c0-.413.156-.529.542-.529,1.087.024.984-.071.92.942a15.633,15.633,0,0,1-4.637,10.368,15.47,15.47,0,0,1-9.395,4.626A15.9,15.9,0,0,1-269.5,854.759a15.449,15.449,0,0,1,4.25-13.88,15.491,15.491,0,0,1,9.419-4.726l.2-.029Z" transform="translate(275.292 -830.808)" fill="#01acb4"/>
    <path id="Path_232" data-name="Path 232" d="M-266.963,835.432a3.828,3.828,0,0,1,1.026.818c.037.161-.09.264-.172.362a19.236,19.236,0,0,0-3.6,7.242,19.753,19.753,0,0,0,2.362,15.694A16.585,16.585,0,0,0-265.537,862c.214.24.209.391-.037.611-.794.706-.794.727-1.468-.105a21.014,21.014,0,0,1-4.544-10.178,21.214,21.214,0,0,1,3.2-15.055c.357-.563.775-1.089,1.169-1.629C-267.148,835.546-267.074,835.437-266.963,835.432Z" transform="translate(271.864 -827.819)" fill="#01acb4"/>
    <path id="Path_233" data-name="Path 233" d="M-257.657,845.723c.177.043.265.191.386.307.664.656.664.659,0,1.307-.4.4-.4.4-.794,0-.648-.646-.648-.646.021-1.3C-257.929,845.911-257.837,845.76-257.657,845.723Z" transform="translate(293.769 -810.892)" fill="#01acb4"/>
    <path id="Path_234" data-name="Path 234" d="M-266.578,834.716a.926.926,0,0,1-.082.138,1.086,1.086,0,0,1-.164.127c-1.087.719-.765.793-1.558-.363-.119-.171-.082-.285.082-.417.894-.717,1.082-.683,1.627.323Z" transform="translate(277.478 -830.653)" fill="#01acb4"/>
    <path id="Path_235" data-name="Path 235" d="M-268.746,836.545c-.143,0-.211-.127-.3-.209-.769-.743-.759-.735-.024-1.484.238-.24.389-.265.637,0,.73.736.741.727,0,1.45C-268.521,836.386-268.6,836.51-268.746,836.545Z" transform="translate(275.554 -829.086)" fill="#01acb4"/>
    <path id="Path_236" data-name="Path 236" d="M-265.281,834.129c-.037.066-.05.129-.09.153a4.854,4.854,0,0,1-1.108.463.161.161,0,0,1-.143-.056,5.451,5.451,0,0,1-.46-1.111.159.159,0,0,1,.058-.14,5.57,5.57,0,0,1,1.108-.463.159.159,0,0,1,.14.058C-265.6,833.4-265.445,833.763-265.281,834.129Z" transform="translate(279.728 -831.862)" fill="#01acb4"/>
    <path id="Path_237" data-name="Path 237" d="M-265.115,834.181c-.243,0-.476-.564-.474-1.151,0-.243.553-.468,1.166-.476.233,0,.458.572.46,1.167C-263.96,833.959-264.507,834.175-265.115,834.181Z" transform="translate(282.186 -832.554)" fill="#01acb4"/>
    <path id="Path_238" data-name="Path 238" d="M-260.5,849.263c-.315-.249-.344-.645-.5-.965-.061-.122-.188-.3,0-.4a6.079,6.079,0,0,1,1.034-.431c.265-.079.3.215.346.376.085.312.492.64.2.926A3.648,3.648,0,0,1-260.5,849.263Z" transform="translate(289.578 -808.05)" fill="#01acb4"/>
    <path id="Path_239" data-name="Path 239" d="M-262.054,849.548c-.246,0-.481-.569-.476-1.153,0-.238.577-.474,1.166-.474.227,0,.479.643.46,1.182C-260.908,849.328-261.467,849.542-262.054,849.548Z" transform="translate(287.218 -807.277)" fill="#01acb4"/>
    <path id="Path_240" data-name="Path 240" d="M-257.881,847.747a.319.319,0,0,1-.18.265c-1.174.753-.809.815-1.6-.31-.132-.188-.119-.317.082-.441s.468-.3.693-.463c.185-.135.318-.125.444.076C-258.256,847.186-258.052,847.483-257.881,847.747Z" transform="translate(291.791 -809.272)" fill="#01acb4"/>
    <path id="Path_241" data-name="Path 241" d="M-265.588,849.837a1.166,1.166,0,0,1,1.061-1.264h.021a1.169,1.169,0,0,1,1.23,1.1.683.683,0,0,1,0,.074,2.325,2.325,0,0,0,2.026,2.116,2.647,2.647,0,0,0,2.909-1.394,2.188,2.188,0,0,0-1.317-2.8,2.246,2.246,0,0,0-.489-.113c-.587-.117-1.19-.063-1.78-.207a4.645,4.645,0,0,1-3.658-4.118,4.49,4.49,0,0,1,3.214-4.5c.373-.125.508-.265.5-.678a1.148,1.148,0,0,1,1.058-1.235c.035,0,.069,0,.106,0A1.149,1.149,0,0,1-259.582,838v.047a.632.632,0,0,0,.529.711,4.527,4.527,0,0,1,3.174,4.01,1.2,1.2,0,0,1-.87,1.323,1.131,1.131,0,0,1-1.388-.793,1.247,1.247,0,0,1-.037-.265,2.241,2.241,0,0,0-1.727-2.139,2.62,2.62,0,0,0-2.856.743,1.818,1.818,0,0,0-.383,2.042,2.348,2.348,0,0,0,2.008,1.452,13.383,13.383,0,0,1,1.775.23,4.619,4.619,0,0,1,3.486,4.2,4.519,4.519,0,0,1-3.174,4.361c-.378.127-.542.265-.542.7a1.118,1.118,0,0,1-1.122,1.116h-.039a1.119,1.119,0,0,1-1.119-1.116l0-.045c0-.434-.19-.529-.529-.651A4.533,4.533,0,0,1-265.588,849.837Z" transform="translate(282.18 -825.525)" fill="#01acb4"/>
  </g>
</svg>
