<svg id="Group_713" data-name="Group 713" xmlns="http://www.w3.org/2000/svg" width="61.373" height="61.371" viewBox="0 0 61.373 61.371">
  <path id="Subtraction_4" data-name="Subtraction 4" d="M15.7,36.22h-.038c-5.154-.019-9.1-3.483-11.5-6.385C1.434,26.526,0,23.114,0,22.533V4.352L15.843,0,31.689,4.352l-.36,18.273a34.939,34.939,0,0,1-4.18,6.8C24.691,32.523,20.709,36.22,15.7,36.22ZM6.06,17.407c.035.086,3.562,8.637,6.727,8.938.029,0,.06.005.089.005,3.227,0,12.538-16.088,12.75-16.456a1.712,1.712,0,0,1-.125.118c-2.452,2.233-10.585,9.541-12.318,9.806a2.3,2.3,0,0,1-.344.024C10.684,19.843,6.106,17.432,6.06,17.407Z" transform="translate(14.842 12.576)" fill="#01acb4"/>
  <g id="Group_198" data-name="Group 198" transform="translate(0 0)">
    <path id="Path_75" data-name="Path 75" d="M30.686,61.371A30.686,30.686,0,1,1,61.373,30.686,30.722,30.722,0,0,1,30.686,61.371Zm0-59.729A29.044,29.044,0,1,0,59.731,30.686,29.086,29.086,0,0,0,30.686,1.642Z" transform="translate(0)" fill="#01acb4"/>
  </g>
</svg>
