<svg xmlns="http://www.w3.org/2000/svg" width="21" height="21" viewBox="0 0 21 21">
  <path id="phone" d="M20,.982,15.867.027A1.285,1.285,0,0,0,14.4.769l-1.907,4.45a1.286,1.286,0,0,0,.365,1.5l2.211,1.809a14.355,14.355,0,0,1-6.546,6.546L6.712,12.86a1.286,1.286,0,0,0-1.5-.365L.769,14.4a1.28,1.28,0,0,0-.742,1.464L.978,20a1.281,1.281,0,0,0,1.251,1A18.76,18.76,0,0,0,20.994,2.229,1.274,1.274,0,0,0,20,.982ZM2.254,19.681,1.31,15.6l4.405-1.887L8.156,16.7A15.848,15.848,0,0,0,16.691,8.16L13.705,5.72l1.887-4.405,4.085.943A17.442,17.442,0,0,1,2.254,19.681Z" transform="translate(0.006 0.006)" fill="#e6e6e6"/>
</svg>
