<svg xmlns="http://www.w3.org/2000/svg" width="1366.813" height="148" viewBox="0 0 1366.813 148">
  <g id="Group_1323" data-name="Group 1323" opacity="0.39">
    <g id="Group_1317" data-name="Group 1317">
      <path id="Path_513" data-name="Path 513" d="M236.67,1301.822q-12.3-9.612-32.314-9.613-25.7,0-38.144,13.786t-14.275,36.393l35.618,5.071q1.193-12.361,5.463-17.325a13.617,13.617,0,0,1,10.787-4.965q6.058,0,9.042,3.223t2.984,9.032q0,5.811-7.436,12.782-13.955,13.312-17.948,18.593a38.4,38.4,0,0,0-6.013,11.673q-2.02,6.393-2.02,16.639v3.5h34.893q.075-7.883,2.424-12.851,2.432-5.122,11.7-13.574,13.311-12.043,17.626-20.388a37.26,37.26,0,0,0,4.315-17.325Q253.378,1314.817,236.67,1301.822Z" transform="translate(-113.228 -1287.851)" fill="#01acb4"/>
      <path id="Path_514" data-name="Path 514" d="M202.915,1291.067c-8.8-6.878-20.391-10.366-34.441-10.366-18.07,0-31.787,5.048-40.77,15.005-8.927,9.892-14.114,23.056-15.419,39.126l-.342,4.21,43.071,6.132.423-4.386c.685-7.1,2.2-12.195,4.39-14.74a9.985,9.985,0,0,1,8.1-3.673c2.982,0,5.213.706,6.449,2.041,1.221,1.32,1.79,3.18,1.79,5.856,0,2.412-2.15,5.756-6.066,9.427-9.547,9.108-15.562,15.351-18.388,19.088a43.077,43.077,0,0,0-6.714,13.044c-1.492,4.719-2.249,10.817-2.249,18.127v3.5h0v1.452H77.345v1.893h67.3v-3.345h0v-3.5c0-7.055.718-12.9,2.134-17.383a40.822,40.822,0,0,1,6.363-12.358c2.758-3.648,8.7-9.811,18.167-18.841,4.483-4.2,6.751-7.935,6.751-11.1,0-3.273-.781-5.708-2.386-7.444s-4.224-2.631-7.746-2.631a11.807,11.807,0,0,0-9.441,4.319c-2.526,2.939-4.184,8.333-4.926,16.032l-.211,2.193L114,1337.14l.171-2.1c1.262-15.536,6.257-28.24,14.847-37.76,8.618-9.552,21.894-14.4,39.457-14.4,13.664,0,24.893,3.361,33.377,9.99,11.636,9.049,17.538,21.315,17.538,36.452a39.827,39.827,0,0,1-4.581,18.439c-3.024,5.849-8.939,12.714-18.083,20.987-5.948,5.421-9.723,9.766-11.213,12.906-1.411,2.972-2.147,6.945-2.2,11.807h1.9c.047-4.487.7-8.111,1.961-10.762.941-1.982,3.566-5.714,10.722-12.237,9.329-8.441,15.394-15.5,18.539-21.586a42.227,42.227,0,0,0,4.847-19.553C221.282,1313.417,215.1,1300.545,202.915,1291.067Z" transform="translate(-77.345 -1280.701)" fill="#01acb4"/>
      <g id="Group_1316" data-name="Group 1316" transform="translate(70.825 118.944)">
        <path id="Path_515" data-name="Path 515" d="M274.2,1621.025l-.45-26.061-37-.151v1.893l34.893.151v27.011l1261.095-1.67v-1.893Z" transform="translate(-236.747 -1594.813)" fill="#01acb4"/>
      </g>
      <rect id="Rectangle_1823" data-name="Rectangle 1823" width="31.934" height="24.55" transform="translate(71.204 123.299)" fill="#01acb4"/>
    </g>
  </g>
</svg>
