<svg xmlns="http://www.w3.org/2000/svg" width="264.549" height="126.248" viewBox="0 0 264.549 126.248">
  <path id="Path_740" data-name="Path 740" d="M-109.908-114.38c0,4.472-3.1,7.74-7.4,7.74h-7.568c-4.472,0-7.052,2.58-7.052,7.052v4.128c0,4.472,2.58,7.052,7.052,7.052h14.964V-7.052c0,4.472,2.58,7.052,7.052,7.052h9.976c4.472,0,7.052-2.58,7.052-7.052V-117.476c0-4.472-2.58-7.052-7.052-7.052h-9.976c-4.472,0-7.052,2.58-7.052,7.052Zm61.92,7.224c6.364,0,8.6,3.956,8.6,9.116v71.552c0,5.16-2.236,9.116-8.6,9.116s-8.6-3.956-8.6-9.116V-98.04C-56.588-103.2-54.352-107.156-47.988-107.156Zm0-18.232c-22.188,0-32.68,8.6-32.68,27.348v71.552C-80.668-7.74-70.176.86-47.988.86s32.68-8.6,32.68-27.348V-98.04C-15.308-116.788-25.8-125.388-47.988-125.388Zm70.52,18.232c6.364,0,8.6,3.956,8.6,9.116v71.552c0,5.16-2.236,9.116-8.6,9.116s-8.6-3.956-8.6-9.116V-98.04C13.932-103.2,16.168-107.156,22.532-107.156Zm0-18.232c-22.188,0-32.68,8.6-32.68,27.348v71.552C-10.148-7.74.344.86,22.532.86s32.68-8.6,32.68-27.348V-98.04C55.212-116.788,44.72-125.388,22.532-125.388Zm63.3,7.912c0-4.472-2.58-7.052-7.052-7.052H67.424c-4.472,0-7.052,2.58-7.052,7.052V-7.052C60.372-2.58,62.952,0,67.424,0H78.776c4.472,0,7.052-2.58,7.052-7.052V-52.288h1.72l19.78,48.332C108.36-1.376,110.768,0,113.864,0h11.7c7.4,0,7.74-7.052,6.536-9.976L109.908-62.264,132.1-114.552c1.2-2.924.86-9.976-6.536-9.976h-11.7c-3.1,0-5.5,1.376-6.536,3.956L87.548-72.24h-1.72Z" transform="translate(131.924 125.388)" fill="#099097"/>
</svg>
