<svg xmlns="http://www.w3.org/2000/svg" width="21" height="14.766" viewBox="0 0 21 14.766">
  <path id="youtube" d="M35.494,66.31a2.639,2.639,0,0,0-1.857-1.869C32,64,25.433,64,25.433,64s-6.567,0-8.2.442a2.639,2.639,0,0,0-1.857,1.869,29.71,29.71,0,0,0,0,10.175,2.6,2.6,0,0,0,1.857,1.839c1.638.442,8.2.442,8.2.442s6.567,0,8.2-.442a2.6,2.6,0,0,0,1.857-1.839,29.71,29.71,0,0,0,0-10.175ZM23.285,74.52V68.275L28.774,71.4,23.285,74.52Z" transform="translate(-14.933 -64)" fill="#01acb4" opacity="0.69"/>
</svg>
