<svg xmlns="http://www.w3.org/2000/svg" width="41.01" height="13.003" viewBox="0 0 41.01 13.003">
  <path id="Path_2584" data-name="Path 2584" d="M-21.439-.89H-19.2V-8.241h1.312v-1.985H-19.2c.067-1.127.572-1.144,1.43-1.161v-2.2h-.622a2.928,2.928,0,0,0-1.951.757,3.681,3.681,0,0,0-1.093,2.607h-.791v1.985h.791Zm10.581-9.336v4.777c0,1.48-.471,2.809-1.884,2.809-1.951,0-1.951-2.069-1.951-2.826v-4.76h-2.237v4.878a6.027,6.027,0,0,0,.69,3.28,3.722,3.722,0,0,0,3.129,1.48,2.7,2.7,0,0,0,2.405-1.245h.034V-.89h2.052v-9.336ZM-6.233-.89H-4V-8.241H-2.65v-1.985H-4v-3.112H-6.233v3.112H-7.326v1.985h1.093ZM7.678-10.226H5.626v1.177H5.592a3.986,3.986,0,0,0-3.1-1.5A4.718,4.718,0,0,0-2.179-5.617c0,3.112,2.136,5.03,4.542,5.03A4.619,4.619,0,0,0,5.626-2.051V-.89H7.678ZM5.559-5.583A2.75,2.75,0,0,1,2.834-2.639,2.791,2.791,0,0,1,.058-5.516,2.835,2.835,0,0,1,2.834-8.493,2.727,2.727,0,0,1,5.559-5.583ZM18.78-10.226H16.728v1.177h-.034a3.986,3.986,0,0,0-3.1-1.5A4.718,4.718,0,0,0,8.923-5.617c0,3.112,2.136,5.03,4.542,5.03a4.619,4.619,0,0,0,3.263-1.463V-.89H18.78ZM16.661-5.583a2.75,2.75,0,0,1-2.725,2.944A2.791,2.791,0,0,1,11.16-5.516a2.835,2.835,0,0,1,2.776-2.977A2.727,2.727,0,0,1,16.661-5.583Z" transform="translate(22.23 13.59)" fill="#242424"/>
</svg>
