<?xml version="1.0" encoding="utf-8"?>
<!-- Generator: Adobe Illustrator 16.0.0, SVG Export Plug-In . SVG Version: 6.00 Build 0)  -->
<!DOCTYPE svg PUBLIC "-//W3C//DTD SVG 1.1//EN" "http://www.w3.org/Graphics/SVG/1.1/DTD/svg11.dtd">
<svg version="1.1" id="Layer_1" xmlns="http://www.w3.org/2000/svg" xmlns:xlink="http://www.w3.org/1999/xlink" x="0px" y="0px"
	 width="49.87px" height="67.033px" viewBox="-0.461 -13.312 49.87 67.033" enable-background="new -0.461 -13.312 49.87 67.033"
	 xml:space="preserve">
<title>7 The envelope</title>
<path fill="#ffcc3d" d="M47.746,18.371c-15.65-16.88-31.311-16.88-46.96,0c-0.69,0.761-0.69,1.919,0,2.681c15.65,16.879,31.31,16.879,46.96,0
	C48.436,20.29,48.436,19.132,47.746,18.371 M24.266,28.71c-4.97,0-9-4.029-9-9c0-4.969,4.03-8.999,9-8.999c4.971,0,9,4.03,9,8.999
	C33.266,24.681,29.236,28.71,24.266,28.71"/>
<path fill="#ffcc3d" d="M29.266,19.71c0,2.762-2.238,5-5,5c-2.761,0-5-2.238-5-5c0-2.76,2.239-4.999,5-4.999
	C27.027,14.711,29.266,16.95,29.266,19.71"/>
<path fill="#ffcc3d" d="M24.266-11.802c-1.563,0-2.835,1.272-2.835,2.835v4.002c0,1.563,1.272,2.834,2.835,2.834S27.1-3.403,27.1-4.965v-4.002
	C27.1-10.53,25.828-11.802,24.266-11.802z"/>
<path fill="#ffcc3d" d="M24.266,41.554c-1.563,0-2.835,1.271-2.835,2.834v4.002c0,1.563,1.272,2.834,2.835,2.834S27.1,49.952,27.1,48.39v-4.002
	C27.1,42.825,25.828,41.554,24.266,41.554z"/>
<path fill="#ffcc3d" d="M5.991-2.572c-0.535-0.535-1.247-0.83-2.004-0.83c-0.757,0-1.469,0.295-2.004,0.83c-1.105,1.104-1.105,2.903,0,4.009
	l2.829,2.83c0.536,0.535,1.248,0.83,2.005,0.83s1.47-0.295,2.005-0.83c1.104-1.106,1.104-2.904,0-4.009L5.991-2.572z"/>
<path fill="#ffcc3d" d="M43.719,35.155c-0.535-0.535-1.248-0.83-2.004-0.83c-0.758,0-1.47,0.295-2.005,0.83c-1.104,1.105-1.104,2.902,0.001,4.01
	l2.828,2.83c0.536,0.535,1.248,0.83,2.006,0.83c0.756,0,1.469-0.295,2.004-0.83c1.105-1.107,1.105-2.904,0-4.01L43.719,35.155z"/>
<path fill="#ffcc3d" d="M6.816,34.325c-0.757,0-1.469,0.295-2.005,0.83l-2.829,2.83c-0.535,0.535-0.83,1.248-0.83,2.004
	c0,0.758,0.295,1.471,0.83,2.006s1.247,0.83,2.004,0.83c0.757,0,1.469-0.295,2.004-0.83l2.831-2.83c1.104-1.105,1.104-2.904,0-4.01
	C8.286,34.62,7.573,34.325,6.816,34.325z"/>
<path fill="#ffcc3d" d="M41.715,5.097c0.756,0,1.469-0.295,2.004-0.83l2.83-2.83c1.105-1.105,1.105-2.904,0-4.01
	c-0.535-0.535-1.248-0.83-2.004-0.83c-0.758,0-1.47,0.295-2.006,0.83L39.71,0.258c-1.104,1.105-1.104,2.903,0,4.008
	C40.245,4.802,40.957,5.097,41.715,5.097z"/>
</svg>
