<?xml version="1.0" encoding="utf-8"?>
<!-- Generator: Adobe Illustrator 16.0.0, SVG Export Plug-In . SVG Version: 6.00 Build 0)  -->
<!DOCTYPE svg PUBLIC "-//W3C//DTD SVG 1.1//EN" "http://www.w3.org/Graphics/SVG/1.1/DTD/svg11.dtd">
<svg version="1.1" id="Layer_1" xmlns="http://www.w3.org/2000/svg" xmlns:xlink="http://www.w3.org/1999/xlink" x="0px" y="0px"
	 width="33.148px" height="48.712px" viewBox="7.642 0 33.148 48.712" enable-background="new 7.642 0 33.148 48.712"
	 xml:space="preserve">
<title>7 The envelope</title>
<path fill="#ffcc3d" d="M35.279,0h-22c-2.76,0-5,2.24-5,5v39.99c0,2.68,3.23,4.02,5.12,2.131l8.76-8.762c1.17-1.17,3.07-1.17,4.24,0l8.76,8.762
	c1.891,1.889,5.12,0.549,5.12-2.131V5C40.279,2.24,38.039,0,35.279,0z M33.016,16.962l-3.764,3.102l1.167,5.211
	c0.232,1.041-0.898,1.852-1.81,1.299l-4.362-2.652l-4.362,2.652c-0.911,0.553-2.043-0.258-1.81-1.299l1.167-5.211l-3.765-3.102
	c-0.827-0.683-0.424-2.023,0.642-2.138l4.727-0.502l2.308-4.871c0.438-0.922,1.75-0.922,2.187,0l2.308,4.871l4.727,0.502
	C33.44,14.939,33.843,16.28,33.016,16.962z"/>
</svg>
