<?xml version="1.0" encoding="utf-8"?>
<!-- Generator: Adobe Illustrator 16.0.0, SVG Export Plug-In . SVG Version: 6.00 Build 0)  -->
<!DOCTYPE svg PUBLIC "-//W3C//DTD SVG 1.1//EN" "http://www.w3.org/Graphics/SVG/1.1/DTD/svg11.dtd">
<svg version="1.1" id="Layer_1" xmlns="http://www.w3.org/2000/svg" xmlns:xlink="http://www.w3.org/1999/xlink" x="0px" y="0px"
	 width="113.346px" height="81.838px" viewBox="-54.588 -86.309 113.346 81.838"
	 enable-background="new -54.588 -86.309 113.346 81.838" xml:space="preserve">
<g>
	<path fill="#4CD0F0" d="M-53.628-73.152l9.061-3.064v-0.054l-9.061-3.064v-4.664l13.538,5.703v4.104l-13.538,5.703V-73.152z"/>
	<path fill="#FFFFFF" d="M-40.33-85.224h5.037v11.913c0,0.462,0.022,0.857,0.066,1.186s0.138,0.715,0.28,1.159
		s0.4,0.791,0.773,1.039c0.373,0.249,0.853,0.373,1.439,0.373c0.48,0,0.888-0.089,1.226-0.266c0.337-0.178,0.586-0.374,0.746-0.586
		c0.16-0.213,0.284-0.52,0.374-0.919c0.088-0.4,0.137-0.72,0.146-0.959c0.009-0.24,0.013-0.582,0.013-1.026v-11.913h5.037v11.913
		c0,1.563-0.16,2.79-0.479,3.677c-0.32,0.889-0.817,1.679-1.492,2.372c-1.386,1.421-3.225,2.132-5.517,2.132
		c-2.487,0-4.379-0.702-5.676-2.105c-0.799-0.871-1.328-1.728-1.585-2.572c-0.258-0.844-0.386-2.012-0.386-3.504V-85.224z"/>
	<path fill="#FEEC10" d="M-13.201-85.224h5.676l-6.023,9.327l6.822,10.394h-5.703l-4.264-6.982l-4.051,6.982h-5.623l6.902-10.5
		l-6.103-9.221h5.703l3.385,5.623L-13.201-85.224z"/>
	<path fill="#FEEC10" d="M-50.697-45.96v-15.297h-3.891v-4.424h12.792v4.424h-3.864v15.297H-50.697z"/>
	<path fill="#FEEC10" d="M-41.903-45.96v-19.721h10.953v4.424h-6.129v3.065h5.943v4.424h-5.943v3.385h6.129v4.423H-41.903z"/>
	<path fill="#FFFFFF" d="M-15.679-53.342h5.277c-0.569,2.328-1.772,4.202-3.611,5.623c-1.839,1.422-3.958,2.132-6.356,2.132
		c-3.003,0-5.486-1.021-7.449-3.065c-1.963-2.043-2.945-4.441-2.945-7.195c0-1.706,0.404-3.327,1.212-4.864
		c0.809-1.537,2.017-2.812,3.625-3.824s3.442-1.519,5.503-1.519c1.457,0,2.815,0.262,4.077,0.786
		c1.262,0.524,2.288,1.19,3.078,1.999s1.43,1.652,1.919,2.532c0.488,0.879,0.804,1.728,0.946,2.545h-5.277
		c-0.338-0.906-0.911-1.706-1.719-2.398s-1.825-1.04-3.051-1.04c-1.599,0-2.878,0.582-3.837,1.746
		c-0.959,1.164-1.439,2.501-1.439,4.011c0,1.564,0.488,2.932,1.465,4.104c0.977,1.173,2.256,1.759,3.838,1.759
		C-18.291-50.011-16.71-51.121-15.679-53.342z"/>
	<path fill="#4CD0F0" d="M-9.923-45.96v-19.721h5.037v7.409h6.449v-7.409H6.6v19.721H1.563v-7.888h-6.449v7.888H-9.923z"/>
	<path fill="#FFFFFF" d="M-53.335-26.417v-19.721h6.529c0.515,0,0.933,0.009,1.252,0.026c0.32,0.018,0.786,0.054,1.399,0.107
		c0.613,0.053,1.15,0.16,1.612,0.32c0.462,0.16,0.968,0.369,1.519,0.626c0.55,0.258,1.075,0.609,1.572,1.053
		c0.497,0.444,0.95,0.959,1.359,1.546c1.208,1.652,1.813,3.695,1.813,6.129c0,1.404-0.183,2.683-0.546,3.838
		c-0.364,1.155-0.933,2.199-1.706,3.131s-1.83,1.657-3.171,2.172c-1.342,0.516-2.918,0.773-4.73,0.773H-53.335z M-48.298-41.714
		v10.873h2.159c0.906,0,1.683-0.147,2.332-0.44s1.146-0.702,1.493-1.226c0.346-0.524,0.6-1.093,0.759-1.706
		c0.16-0.612,0.24-1.292,0.24-2.039c0-1.439-0.319-2.656-0.959-3.651c-0.8-1.208-2.079-1.812-3.838-1.812H-48.298z"/>
	<path fill="#FFFFFF" d="M-35.267-26.417v-19.721h10.953v4.424h-6.129v3.064h5.943v4.424h-5.943v3.385h6.129v4.424H-35.267z"/>
	<path fill="#FFFFFF" d="M-10.456-40.381h-4.983c-0.036-0.267-0.076-0.471-0.12-0.613c-0.044-0.142-0.125-0.333-0.24-0.573
		c-0.116-0.24-0.298-0.422-0.546-0.546c-0.249-0.124-0.551-0.187-0.906-0.187c-0.462,0-0.866,0.146-1.212,0.44
		c-0.346,0.293-0.52,0.662-0.52,1.105c0,0.569,0.213,1.004,0.64,1.306c0.426,0.302,1.572,0.871,3.438,1.706
		c1.741,0.782,2.945,1.612,3.611,2.492c0.666,0.879,0.999,1.932,0.999,3.158c0,0.764-0.12,1.488-0.359,2.172
		c-0.24,0.684-0.609,1.324-1.106,1.918c-0.498,0.596-1.213,1.071-2.146,1.426c-0.933,0.355-2.021,0.533-3.265,0.533
		c-1.084,0-2.057-0.138-2.918-0.413c-0.862-0.275-1.55-0.626-2.065-1.053c-0.516-0.426-0.938-0.928-1.266-1.505
		s-0.555-1.133-0.679-1.666c-0.125-0.533-0.187-1.075-0.187-1.625v-0.64h5.01c0,0.995,0.222,1.692,0.667,2.092
		c0.444,0.399,0.906,0.6,1.386,0.6c0.568,0,1.03-0.196,1.386-0.586c0.355-0.391,0.533-0.827,0.533-1.306
		c0-0.604-0.227-1.062-0.68-1.373c-0.453-0.311-1.515-0.822-3.185-1.533c-0.427-0.177-0.782-0.328-1.066-0.453
		c-0.285-0.124-0.689-0.359-1.213-0.706c-0.524-0.346-0.946-0.702-1.266-1.066s-0.613-0.853-0.879-1.466
		c-0.267-0.613-0.4-1.266-0.4-1.959c0-1.172,0.351-2.216,1.053-3.131c0.702-0.915,1.568-1.59,2.598-2.025
		c1.03-0.435,2.114-0.653,3.251-0.653c1.03,0,2.021,0.191,2.971,0.573c0.951,0.382,1.736,0.938,2.359,1.666
		C-10.962-43.295-10.527-41.998-10.456-40.381z"/>
	<path fill="#FFFFFF" d="M-9.87-26.417v-19.721h5.037v19.721H-9.87z"/>
	<path fill="#4CD0F0" d="M5.188-37.637h11.7c0.018,0.231,0.025,0.578,0.025,1.04c0,2.132-0.502,4.015-1.506,5.65
		c-1.004,1.634-2.297,2.865-3.877,3.69c-1.582,0.827-3.295,1.239-5.143,1.239c-2.968,0-5.455-1.008-7.462-3.025
		c-2.008-2.016-3.011-4.454-3.011-7.315c0-2.914,1.021-5.334,3.064-7.262c2.043-1.927,4.539-2.892,7.489-2.892
		c2.309,0,4.393,0.676,6.249,2.026c1.857,1.35,3.061,3.002,3.611,4.957h-5.65c-0.958-1.706-2.407-2.559-4.343-2.559
		c-1.386,0-2.63,0.502-3.73,1.506C1.5-39.578,0.95-38.17,0.95-36.357c0,1.918,0.551,3.384,1.653,4.397
		c1.101,1.013,2.354,1.519,3.757,1.519c1.227,0,2.252-0.284,3.078-0.853c0.826-0.568,1.374-1.341,1.639-2.319H5.188V-37.637z"/>
	<path fill="#4CD0F0" d="M17.553-26.417v-19.721h4.344l7.621,12.392l0.053-0.054l-0.213-12.338h4.824v19.721h-4.371L22.295-38.41
		l-0.053,0.027l0.133,11.966H17.553z"/>
	<path fill="#FEEC10" d="M-40.357-20.838h-4.983c-0.036-0.267-0.076-0.471-0.12-0.613c-0.045-0.142-0.125-0.333-0.24-0.573
		s-0.298-0.422-0.546-0.546c-0.249-0.124-0.551-0.186-0.906-0.186c-0.462,0-0.866,0.146-1.213,0.439
		c-0.346,0.293-0.52,0.662-0.52,1.106c0,0.569,0.213,1.004,0.64,1.306c0.426,0.303,1.572,0.871,3.438,1.706
		c1.741,0.782,2.945,1.612,3.611,2.492c0.666,0.879,1,1.932,1,3.158c0,0.764-0.12,1.488-0.36,2.172
		c-0.24,0.684-0.609,1.324-1.106,1.919c-0.498,0.595-1.212,1.071-2.146,1.426c-0.933,0.355-2.021,0.533-3.265,0.533
		c-1.083,0-2.056-0.138-2.918-0.413c-0.862-0.275-1.55-0.626-2.065-1.052c-0.515-0.427-0.937-0.929-1.266-1.506
		c-0.329-0.577-0.556-1.132-0.68-1.666c-0.125-0.533-0.187-1.075-0.187-1.626v-0.64h5.01c0,0.996,0.222,1.692,0.666,2.092
		c0.444,0.4,0.906,0.6,1.386,0.6c0.569,0,1.03-0.195,1.386-0.586c0.355-0.391,0.533-0.827,0.533-1.306
		c0-0.604-0.227-1.062-0.68-1.373c-0.453-0.311-1.515-0.822-3.185-1.532c-0.426-0.177-0.782-0.329-1.066-0.453
		c-0.284-0.124-0.689-0.36-1.212-0.706c-0.524-0.347-0.946-0.702-1.266-1.066s-0.613-0.853-0.879-1.466
		c-0.267-0.613-0.4-1.266-0.4-1.958c0-1.173,0.351-2.216,1.053-3.131c0.702-0.915,1.568-1.59,2.598-2.025
		c1.03-0.435,2.114-0.653,3.251-0.653c1.03,0,2.021,0.191,2.972,0.573c0.95,0.382,1.736,0.938,2.358,1.666
		C-40.863-23.752-40.428-22.455-40.357-20.838z"/>
	<path fill="#FFFFFF" d="M-38.411-6.874v-15.297h-3.891v-4.424h12.792v4.424h-3.864v15.297H-38.411z"/>
	<path fill="#4CD0F0" d="M-30.47-6.874v-19.721h6.236c1.67,0,2.932,0.106,3.784,0.32c0.853,0.213,1.617,0.578,2.292,1.093
		c0.782,0.622,1.381,1.412,1.799,2.372c0.417,0.959,0.626,1.963,0.626,3.011c0,0.622-0.085,1.244-0.253,1.866
		c-0.169,0.622-0.431,1.239-0.786,1.852c-0.355,0.613-0.866,1.146-1.532,1.599c-0.667,0.453-1.444,0.751-2.332,0.893l5.356,6.715
		h-5.756l-4.557-6.369h-0.053v6.369H-30.47z M-25.646-22.171v5.49h1.786c0.693,0,1.279-0.097,1.759-0.293
		c0.48-0.195,0.822-0.453,1.026-0.772c0.205-0.32,0.342-0.617,0.414-0.893c0.071-0.275,0.106-0.564,0.106-0.866
		c0-0.87-0.293-1.533-0.879-1.985c-0.586-0.453-1.377-0.68-2.372-0.68H-25.646z"/>
	<path fill="#4CD0F0" d="M-4.3-9.726h-6.849l-1.039,2.852h-5.41l7.915-19.721h3.971L2.123-6.874H-3.34L-4.3-9.726z M-7.738-20.465
		l-2.025,6.743h4.131l-2.025-6.743h-0.027H-7.738z"/>
	<path fill="#FEEC10" d="M3.535-6.874v-15.297h-3.891v-4.424h12.792v4.424H8.572v15.297H3.535z"/>
	<path fill="#FEEC10" d="M11.477-6.874v-19.721H22.43v4.424h-6.131v3.064h5.943v4.424h-5.943v3.385h6.131v4.423H11.477z"/>
	<path fill="#FFFFFF" d="M30.985-18.093h11.699c0.018,0.231,0.025,0.577,0.025,1.039c0,2.132-0.502,4.016-1.506,5.65
		C40.2-9.77,38.909-8.54,37.327-7.713s-3.295,1.239-5.143,1.239c-2.969,0-5.455-1.008-7.463-3.025
		c-2.008-2.016-3.012-4.455-3.012-7.315c0-2.914,1.021-5.334,3.064-7.262s4.539-2.892,7.49-2.892c2.309,0,4.393,0.675,6.248,2.025
		c1.857,1.351,3.061,3.002,3.611,4.957h-5.648c-0.961-1.706-2.408-2.559-4.346-2.559c-1.385,0-2.629,0.502-3.73,1.505
		c-1.102,1.004-1.652,2.412-1.652,4.225c0,1.918,0.551,3.384,1.652,4.397s2.354,1.519,3.758,1.519c1.227,0,2.252-0.284,3.078-0.853
		c0.826-0.569,1.373-1.341,1.639-2.319h-5.889V-18.093z"/>
	<path fill="#FFFFFF" d="M46.68-6.874v-7.168l-5.889-12.552h5.463l2.932,7.915l2.957-7.915h5.41l-5.836,12.552v7.168H46.68z"/>
</g>
</svg>
