<?xml version="1.0" encoding="utf-8"?>
<!-- Generator: Adobe Illustrator 16.0.0, SVG Export Plug-In . SVG Version: 6.00 Build 0)  -->
<!DOCTYPE svg PUBLIC "-//W3C//DTD SVG 1.1//EN" "http://www.w3.org/Graphics/SVG/1.1/DTD/svg11.dtd">
<svg version="1.1" id="Layer_1" xmlns="http://www.w3.org/2000/svg" xmlns:xlink="http://www.w3.org/1999/xlink" x="0px" y="0px"
	 width="240.547px" height="240.547px" viewBox="0 0 240.547 240.547" enable-background="new 0 0 240.547 240.547"
	 xml:space="preserve">
<g>
	<path fill="#0a5bf8" d="M136.388,84.388L136.388,84.388l-34,0.001v36h34v-0.001c9.941,0,18-8.059,18-18S146.33,84.388,136.388,84.388z"/>
	<path fill="#0a5bf8" d="M120.388,0.388c-66.274,0-120,53.726-120,120c0,66.274,53.726,120,120,120c66.274,0,120-53.726,120-120
		C240.388,54.114,186.663,0.388,120.388,0.388z M136.388,144.388L136.388,144.388l-34,0.001v35.999h-24v-120l58,0.001v-0.001
		c23.196,0,42,18.804,42,42S159.584,144.388,136.388,144.388z"/>
</g>
</svg>
