<?xml version="1.0" encoding="UTF-8"?>
<svg width="153px" height="151px" viewBox="0 0 153 151" version="1.1" xmlns="http://www.w3.org/2000/svg" xmlns:xlink="http://www.w3.org/1999/xlink">
    <!-- Generator: Sketch 49.1 (51147) - http://www.bohemiancoding.com/sketch -->
    <title>Group 15</title>
    <desc>Created with Sketch.</desc>
    <defs>
        <ellipse id="path-1" cx="53.5" cy="52.5" rx="53.5" ry="52.5"></ellipse>
        <filter x="-39.3%" y="-28.6%" width="178.5%" height="180.0%" filterUnits="objectBoundingBox" id="filter-2">
            <feOffset dx="0" dy="12" in="SourceAlpha" result="shadowOffsetOuter1"></feOffset>
            <feGaussianBlur stdDeviation="12" in="shadowOffsetOuter1" result="shadowBlurOuter1"></feGaussianBlur>
            <feColorMatrix values="0 0 0 0 0.776838861   0 0 0 0 0.776838861   0 0 0 0 0.776838861  0 0 0 0.5 0" type="matrix" in="shadowBlurOuter1"></feColorMatrix>
        </filter>
        <polygon id="path-3" points="0.0127118644 0.0265822785 49.9735169 0.0265822785 49.9735169 49.7892405 0.0127118644 49.7892405"></polygon>
    </defs>
    <g id="Desktop" stroke="none" stroke-width="1" fill="none" fill-rule="evenodd">
        <g id="About-us" transform="translate(-787.000000, -1151.000000)">
            <g id="Group-15" transform="translate(810.000000, 1162.000000)">
                <g id="Group-10-Copy-2">
                    <g id="Oval-2">
                        <use fill="black" fill-opacity="1" filter="url(#filter-2)" xlink:href="#path-1"></use>
                        <use fill="#FFFFFF" fill-rule="evenodd" xlink:href="#path-1"></use>
                    </g>
                </g>
                <g id="002-note" transform="translate(28.000000, 30.000000)">
                    <g id="Group-3">
                        <mask id="mask-4" fill="white">
                            <use xlink:href="#path-3"></use>
                        </mask>
                        <g id="Clip-2"></g>
                        <path d="M48.9563559,0.0265822785 L1.01716102,0.0265822785 C0.455084746,0.0265822785 0,0.479957806 0,1.03945148 L0,48.7765823 C0,49.3352321 0.455084746,49.7892405 1.01716102,49.7892405 L41.7663136,49.7892405 C42.328178,49.7892405 42.7834746,49.3352321 42.7834746,48.7765823 C42.7834746,48.2168776 42.328178,47.7637131 41.7663136,47.7637131 L2.03432203,47.7637131 L2.03432203,2.05232068 L47.9391949,2.05232068 L47.9391949,48.7765823 C47.9391949,49.3352321 48.3944915,49.7892405 48.9563559,49.7892405 C49.5175847,49.7892405 49.9735169,49.3352321 49.9735169,48.7765823 L49.9735169,1.03945148 C49.9735169,0.479957806 49.5175847,0.0265822785 48.9563559,0.0265822785 Z" id="Fill-1" fill="#191166" mask="url(#mask-4)"></path>
                    </g>
                    <path d="M10.9998913,11 C8.79362448,11 7,12.7942991 7,14.9994565 C7,17.2057009 8.79362448,19 10.9998913,19 C13.2055059,19 15,17.2057009 15,14.9994565 C15,12.7942991 13.2055059,11 10.9998913,11 Z M10.9998913,16.9126654 C9.9452401,16.9126654 9.08669185,16.0542105 9.08669185,14.9994565 C9.08669185,13.94492 9.9452401,13.086465 10.9998913,13.086465 C12.0547599,13.086465 12.9133082,13.94492 12.9133082,14.9994565 C12.9133082,16.0542105 12.0547599,16.9126654 10.9998913,16.9126654 Z" id="Fill-4" fill="#191166"></path>
                    <path d="M41.9734873,13 L18.0265127,13 C17.4594826,13 17,13.4482866 17,13.9998958 C17,14.5525466 17.4594826,15 18.0265127,15 L41.9734873,15 C42.539876,15 43,14.5525466 43,13.9998958 C43,13.4482866 42.539876,13 41.9734873,13 Z" id="Fill-5" fill="#FFBC00"></path>
                    <path d="M10.9998913,21 C10.4233226,21 9.95632796,21.4678261 9.95632796,22.0434783 C9.95632796,22.6202174 10.4233226,23.0871739 10.9998913,23.0871739 C12.0547599,23.0871739 12.9133082,23.9456522 12.9133082,25.0004348 C12.9133082,26.055 12.0547599,26.9136957 10.9998913,26.9136957 C9.9452401,26.9136957 9.08669185,26.055 9.08669185,25.0004348 C9.08669185,24.423913 8.61947985,23.9567391 8.04291111,23.9567391 C7.46699459,23.9567391 7,24.423913 7,25.0004348 C7,27.2056522 8.79362448,29 10.9998913,29 C13.2055059,29 15,27.2056522 15,25.0004348 C15,22.7941304 13.2055059,21 10.9998913,21 Z" id="Fill-6" fill="#191166"></path>
                    <path d="M41.9734873,24 L18.0265127,24 C17.4594826,24 17,24.4476151 17,25 C17,25.5515518 17.4594826,26 18.0265127,26 L41.9734873,26 C42.539876,26 43,25.5515518 43,25 C43,24.4476151 42.539876,24 41.9734873,24 Z" id="Fill-7" fill="#FFBC00"></path>
                    <path d="M10.9998913,31 C8.79362448,31 7,32.7942991 7,34.9996739 C7,37.2057009 8.79362448,39 10.9998913,39 C13.2055059,39 15,37.2057009 15,34.9996739 C15,32.7942991 13.2055059,31 10.9998913,31 Z M10.9998913,36.9126654 C9.9452401,36.9126654 9.08669185,36.05508 9.08669185,34.9996739 C9.08669185,33.94492 9.9452401,33.0873346 10.9998913,33.0873346 C12.0547599,33.0873346 12.9133082,33.94492 12.9133082,34.9996739 C12.9133082,36.05508 12.0547599,36.9126654 10.9998913,36.9126654 Z" id="Fill-8" fill="#191166"></path>
                    <path d="M41.9734873,34 L18.0265127,34 C17.4594826,34 17,34.4476399 17,34.9996874 C17,35.5523601 17.4594826,36 18.0265127,36 L41.9734873,36 C42.539876,36 43,35.5523601 43,34.9996874 C43,34.4476399 42.539876,34 41.9734873,34 Z" id="Fill-9" fill="#FFBC00"></path>
                </g>
            </g>
        </g>
    </g>
</svg>