<?xml version="1.0" encoding="UTF-8"?>
<svg width="153px" height="151px" viewBox="0 0 153 151" version="1.1" xmlns="http://www.w3.org/2000/svg" xmlns:xlink="http://www.w3.org/1999/xlink">
    <!-- Generator: Sketch 49.1 (51147) - http://www.bohemiancoding.com/sketch -->
    <title>Group 4</title>
    <desc>Created with Sketch.</desc>
    <defs>
        <ellipse id="path-1" cx="53.5" cy="52.5" rx="53.5" ry="52.5"></ellipse>
        <filter x="-39.3%" y="-28.6%" width="178.5%" height="180.0%" filterUnits="objectBoundingBox" id="filter-2">
            <feOffset dx="0" dy="12" in="SourceAlpha" result="shadowOffsetOuter1"></feOffset>
            <feGaussianBlur stdDeviation="12" in="shadowOffsetOuter1" result="shadowBlurOuter1"></feGaussianBlur>
            <feColorMatrix values="0 0 0 0 0.776838861   0 0 0 0 0.776838861   0 0 0 0 0.776838861  0 0 0 0.5 0" type="matrix" in="shadowBlurOuter1"></feColorMatrix>
        </filter>
        <polygon id="path-3" points="0 0.0930453333 67 0.0930453333 67 43.950955 0 43.950955"></polygon>
    </defs>
    <g id="Desktop" stroke="none" stroke-width="1" fill="none" fill-rule="evenodd">
        <g id="About-us" transform="translate(-505.000000, -1151.000000)">
            <g id="Group-4" transform="translate(528.000000, 1162.000000)">
                <g id="Group-10-Copy-3">
                    <g id="Oval-2">
                        <use fill="black" fill-opacity="1" filter="url(#filter-2)" xlink:href="#path-1"></use>
                        <use fill="#FFFFFF" fill-rule="evenodd" xlink:href="#path-1"></use>
                    </g>
                </g>
                <g id="Group-3" transform="translate(18.000000, 27.000000)">
                    <mask id="mask-4" fill="white">
                        <use xlink:href="#path-3"></use>
                    </mask>
                    <g id="Clip-2"></g>
                    <path d="M65.8889652,9.089696 L63.6554765,9.089696 L63.6554765,5.71589333 C63.6554765,5.094848 63.1552487,4.591136 62.5384991,4.591136 L58.0715217,4.591136 L58.0715217,2.34209067 L60.3050104,2.34209067 L60.3050104,0.0930453333 L53.6040783,0.0930453333 L53.6040783,2.34209067 L55.838033,2.34209067 L55.838033,4.591136 L51.3710557,4.591136 C50.7543061,4.591136 50.2545443,5.094848 50.2545443,5.71589333 L50.2545443,9.089696 L48.0205896,9.089696 C47.40384,9.089696 46.9040783,9.59293867 46.9040783,10.2135147 L46.9040783,12.4630293 C46.9040783,12.838848 47.09028,13.1903787 47.40116,13.39888 L50.2545443,15.3138773 L50.2545443,31.5805013 L48.0205896,31.5805013 L48.0205896,19.2106347 C48.0205896,18.58912 47.5203617,18.0858773 46.9040783,18.0858773 L6.7,18.0858773 C6.08278435,18.0858773 5.58302261,18.5895893 5.58302261,19.2106347 L5.58302261,24.8333653 L1.11604522,24.8333653 C0.498829565,24.8338347 -0.000466086957,25.338016 6.8821427e-22,25.9590613 C0.000466086957,26.1927893 0.072826087,26.4206507 0.207525217,26.6113173 L6.38364348,35.3187413 C7.9526087,37.5269547 8.8396887,40.152288 8.9334887,42.8656213 C8.95399652,43.4715307 9.44828174,43.951424 10.05,43.9509547 L62.5384991,43.9509547 C65.0054974,43.9509547 67.0054765,41.9370453 67.0054765,39.452864 L67.0054765,32.7047893 C67.0054765,32.0842133 66.5057148,31.5805013 65.8889652,31.5805013 L63.6554765,31.5805013 L63.6554765,15.3138773 L66.5088609,13.4021653 C66.8197409,13.1930773 67.0068748,12.840256 67.0054765,12.4630293 L67.0054765,10.213984 C67.0059426,9.59293867 66.5061809,9.089696 65.8889652,9.089696 Z M52.487567,9.089696 L61.4219878,9.089696 L61.4219878,6.84065067 L52.487567,6.84065067 L52.487567,9.089696 Z M34.6191913,24.8333653 L45.7871009,24.8333653 L45.7871009,20.3349227 L34.6191913,20.3349227 L34.6191913,24.8333653 Z M34.6191913,31.5805013 L45.7871009,31.5805013 L45.7871009,27.0824107 L34.6191913,27.0824107 L34.6191913,31.5805013 Z M21.2179096,24.8333653 L32.385353,24.8333653 L32.385353,20.3349227 L21.2179096,20.3349227 L21.2179096,24.8333653 Z M32.385353,27.0824107 L32.385353,31.5805013 L29.4977113,31.5805013 L25.0302678,27.0824107 L32.385353,27.0824107 Z M7.8165113,24.8333653 L18.9844209,24.8333653 L18.9844209,20.3349227 L7.8165113,20.3349227 L7.8165113,24.8333653 Z M62.5384991,41.70144 L11.092287,41.70144 C11.0127026,40.9433493 10.8797513,40.191712 10.6944817,39.4523947 L64.7724539,39.4523947 C64.7724539,40.6949547 63.7719983,41.70144 62.5384991,41.70144 Z M64.7724539,33.8295467 L64.7724539,37.2033493 L9.95305391,37.2033493 C9.49057913,36.0763627 8.90249391,35.005696 8.20068348,34.012 L3.28579652,27.0824107 L21.8724122,27.0824107 L28.2455687,33.500544 C28.4549583,33.7112747 28.7390383,33.8295467 29.035353,33.8295467 L64.7724539,33.8295467 Z M52.487567,31.5805013 L61.4219878,31.5805013 L61.4219878,15.836832 L52.487567,15.836832 L52.487567,31.5805013 Z M64.7724539,11.861696 L62.2034991,13.5877867 L51.7055896,13.5877867 L49.137567,11.861696 L49.137567,11.338272 L64.7724539,11.338272 L64.7724539,11.861696 Z" id="Fill-1" fill="#191166" mask="url(#mask-4)"></path>
                </g>
            </g>
        </g>
    </g>
</svg>